ply
format ascii 1.0
element vertex 211
property float x
property float y
property float z
element face 183
property list uchar int vertex_index
end_header
63.376541 -36.916237 -3.588648
61.14053 -31.266651 -11.300512
64.064117 -28.919245 -8.293213
61.970337 -34.152092 -7.419577
60.216057 -39.314621 -6.00754
62.734688 -25.615444 -12.110214
60.123737 -36.849487 -10.011497
60.966759 -34.055183 -14.032915
67.54557 -35.398148 -0.987095
68.846283 -38.614288 3.078235
64.632828 -34.538555 -4.2103
63.783997 -33.042126 -6.066315
62.631016 -35.541653 -5.510807
62.351936 -30.00993 -9.814346
63.317764 -27.283476 -10.161755
61.885963 -28.44442 -11.76268
61.064667 -29.736084 -13.305609
60.065842 -38.11554 -8.010296
62.466911 -38.499039 -14.236423
61.103165 -36.981388 -13.201864
62.037308 -35.515282 -15.200727
61.750103 -32.509594 -16.051622
63.14624 -33.949303 -17.185228
67.587715 -40.521553 3.836453
67.002052 -39.02927 1.687129
63.002968 -31.536882 -7.923498
61.455574 -32.732742 -9.34243
62.129898 -39.273033 -2.828999
61.527847 -38.020947 -4.816271
61.025745 -36.748741 -6.780203
60.680851 -35.43808 -8.741892
60.543232 -34.070892 -10.718531
60.420387 -35.499924 -12.018511
60.648876 -32.630516 -12.72027
61.013763 -31.102928 -14.749235
65.487312 -36.034073 -2.319555
70.646049 -36.688778 4.067082
70.173943 -38.408745 4.608231
69.787071 -36.736122 2.4569
68.264488 -37.014267 0.988708
66.291809 -37.53154 -0.361473
64.145782 -38.287643 -1.624479
62.855385 -36.264439 -15.702165
62.25211 -37.00716 -14.718575
63.070187 -37.756318 -15.220014
63.409851 -35.481449 -16.694416
62.591774 -34.732292 -16.192977
62.855385 -36.264439 -15.702165
64.054451 -34.697693 -17.665636
63.409851 -35.481449 -16.694416
66.844876 -41.482914 4.274042
67.810219 -41.260212 4.960147
66.56702 -40.785782 3.176446
66.844876 -41.482914 4.274042
61.330141 -39.870224 -3.410049
61.543915 -40.435308 -2.388079
64.575019 -27.619704 -8.413639
65.015343 -28.48817 -7.523148
63.512306 -25.093853 -11.25057
63.803844 -25.927869 -10.27634
63.026226 -26.44946 -11.135984
63.181686 -24.206149 -12.229342
63.512306 -25.093853 -11.25057
62.545097 -24.755736 -13.130529
63.181686 -24.206149 -12.229342
61.689604 -30.993979 -16.426315
62.241478 -31.686879 -17.060461
67.131824 -34.587479 -1.927333
68.052822 -34.341057 -1.223038
66.516441 -35.71611 -1.653325
66.102696 -34.905441 -2.593563
67.131824 -34.587479 -1.927333
70.729057 -37.542225 5.181765
70.680492 -36.770706 4.949279
69.510113 -38.511516 3.843233
69.72559 -39.296688 4.946361
69.06176 -39.39946 4.181363
65.587803 -38.597859 0.022085
66.64693 -38.280405 0.662828
65.942925 -39.346723 1.046386
64.51479 -38.97591 -0.609418
65.218795 -37.909592 -0.992976
65.587803 -38.597859 0.022085
63.460016 -39.405037 -1.211188
64.51479 -38.97591 -0.609418
64.208413 -33.79034 -5.138307
64.804413 -32.599562 -5.37559
65.228828 -33.347777 -4.447582
61.766014 -27.632986 -12.77185
62.190376 -26.218498 -12.945616
62.310325 -27.029932 -11.936447
61.355366 -28.278818 -13.543314
61.766014 -27.632986 -12.77185
61.475315 -29.090252 -12.534145
61.155964 -28.93038 -14.332735
61.355366 -28.278818 -13.543314
59.848566 -39.436203 -7.578605
60.14095 -38.71508 -7.008918
59.923673 -40.035744 -6.577227
59.98008 -38.856034 -8.592222
59.848566 -39.436203 -7.578605
60.009028 -38.223007 -9.592822
60.09479 -37.482514 -9.010897
59.98008 -38.856034 -8.592222
61.785038 -37.740214 -13.719144
61.25316 -38.431978 -12.723768
61.935034 -39.190804 -13.241048
62.939546 -32.406734 -17.627264
62.241478 -31.686879 -17.060461
62.448172 -33.229449 -16.618425
63.757378 -33.123182 -18.168865
62.939546 -32.406734 -17.627264
63.757378 -33.123182 -18.168865
64.054451 -34.697693 -17.665636
68.395488 -35.20997 -0.27452
68.052822 -34.341057 -1.223038
68.432476 -40.353092 4.560472
67.810219 -41.260212 4.960147
68.216999 -39.56792 3.457344
69.06176 -39.39946 4.181363
68.432476 -40.353092 4.560472
66.274189 -40.03964 2.101784
67.294883 -39.775411 2.761791
66.56702 -40.785782 3.176446
65.942925 -39.346723 1.046386
66.274189 -40.03964 2.101784
64.492058 -29.729478 -7.386369
65.015343 -28.48817 -7.523148
64.351998 -31.790919 -6.27292
64.804413 -32.599562 -5.37559
63.961483 -31.038297 -7.201512
64.351998 -31.790919 -6.27292
63.393483 -32.289504 -6.994907
63.533542 -30.228063 -8.108356
64.492058 -29.729478 -7.386369
63.961483 -31.038297 -7.201512
62.733666 -39.981865 -13.691561
61.935034 -39.190804 -13.241048
63.371418 -39.280992 -14.673293
62.733666 -39.981865 -13.691561
63.070187 -37.756318 -15.220014
63.371418 -39.280992 -14.673293
61.029116 -39.244181 -4.403685
61.828873 -38.64699 -3.822635
61.330141 -39.870224 -3.410049
60.373221 -39.891018 -4.99932
60.871952 -38.667784 -5.411905
61.029116 -39.244181 -4.403685
59.893707 -40.57741 -5.557268
60.373221 -39.891018 -4.99932
59.923673 -40.035744 -6.577227
59.893707 -40.57741 -5.557268
64.201843 -26.80182 -9.34791
64.575019 -27.619704 -8.413639
63.69094 -28.10136 -9.227484
64.201843 -26.80182 -9.34791
63.803844 -25.927869 -10.27634
62.545097 -24.755736 -13.130529
62.190376 -26.218498 -12.945616
60.253526 -37.59539 -10.60188
60.009028 -38.223007 -9.592822
60.74324 -37.661341 -12.197064
61.25316 -38.431978 -12.723768
60.401851 -36.920609 -11.605387
60.74324 -37.661341 -12.197064
60.761776 -36.240656 -12.610188
60.272062 -36.174706 -11.015004
60.253526 -37.59539 -10.60188
60.401851 -36.920609 -11.605387
61.130512 -29.613802 -15.054548
61.155964 -28.93038 -14.332735
61.039215 -30.419506 -14.027422
61.321434 -30.290646 -15.775122
61.381933 -31.806261 -15.400429
61.689604 -30.993979 -16.426315
61.130512 -29.613802 -15.054548
61.321434 -30.290646 -15.775122
65.675454 -34.157682 -3.538936
65.228828 -33.347777 -4.447582
65.06007 -35.286314 -3.264927
65.675454 -34.157682 -3.538936
66.102696 -34.905441 -2.593563
70.64233 -35.867457 3.866118
70.680492 -36.770706 4.949279
70.489563 -35.798313 3.02493
70.485844 -34.976991 2.823966
70.64233 -35.867457 3.866118
70.291199 -39.214722 5.74747
69.72559 -39.296688 4.946361
70.493004 -38.402209 5.452339
70.61026 -39.208185 6.591578
70.291199 -39.214722 5.74747
70.409996 -37.548761 4.337656
70.729057 -37.542225 5.181765
70.493004 -38.402209 5.452339
70.060074 -35.821985 2.219839
70.489563 -35.798313 3.02493
70.21656 -36.71245 3.261991
69.516239 -35.878957 1.447477
70.060074 -35.821985 2.219839
68.754948 -36.01803 0.713382
69.516239 -35.878957 1.447477
69.025779 -36.875194 1.722804
67.905029 -36.206207 0.000807
68.395488 -35.20997 -0.27452
68.754948 -36.01803 0.713382
62.452074 -39.897731 -1.813448
63.13784 -38.780338 -2.226739
63.460016 -39.405037 -1.211188
61.543915 -40.435308 -2.388079
62.452074 -39.897731 -1.813448
3 0 12 10
3 1 15 13
3 1 16 15
3 42 20 43
3 44 43 18
3 42 43 44
3 45 22 46
3 47 46 20
3 45 46 47
3 49 48 22
3 50 23 51
3 53 52 23
3 3 25 11
3 3 26 25
3 55 54 27
3 2 56 57
3 5 58 60
3 60 59 14
3 58 59 60
3 5 61 62
3 5 63 64
3 4 29 28
3 6 30 17
3 6 31 30
3 7 32 19
3 7 33 32
3 7 34 33
3 66 65 21
3 8 67 68
3 8 69 71
3 69 35 70
3 69 70 71
3 72 36 73
3 9 74 76
3 74 37 75
3 74 75 76
3 9 38 37
3 9 39 38
3 77 40 78
3 79 78 24
3 77 78 79
3 80 41 81
3 82 81 40
3 80 81 82
3 84 83 41
3 10 85 87
3 85 11 86
3 85 86 87
3 12 11 10
3 12 3 11
3 13 14 2
3 15 14 13
3 15 5 14
3 15 88 90
3 90 89 5
3 88 89 90
3 16 91 93
3 93 92 15
3 91 92 93
3 16 94 95
3 96 17 97
3 98 97 4
3 96 97 98
3 99 17 100
3 101 6 102
3 103 102 17
3 101 102 103
3 18 104 106
3 104 19 105
3 104 105 106
3 20 19 18
3 20 7 19
3 20 21 7
3 22 21 20
3 22 107 109
3 109 108 21
3 107 108 109
3 22 110 111
3 113 112 22
3 114 8 115
3 23 116 117
3 23 118 120
3 118 9 119
3 118 119 120
3 23 24 9
3 121 24 122
3 123 122 23
3 121 122 123
3 125 124 24
3 126 2 127
3 11 128 129
3 25 130 132
3 132 131 11
3 130 131 132
3 25 133 135
3 133 2 134
3 133 134 135
3 25 13 2
3 26 13 25
3 26 1 13
3 136 18 137
3 138 18 139
3 141 140 18
3 27 28 0
3 142 28 143
3 144 143 27
3 142 143 144
3 145 4 146
3 147 146 28
3 145 146 147
3 148 4 149
3 151 150 4
3 14 152 154
3 154 153 2
3 152 153 154
3 156 155 14
3 158 157 5
3 28 12 0
3 29 12 28
3 29 3 12
3 17 29 4
3 30 29 17
3 30 3 29
3 30 26 3
3 31 26 30
3 31 1 26
3 159 6 160
3 19 161 162
3 32 163 165
3 165 164 19
3 163 164 165
3 32 166 168
3 166 6 167
3 166 167 168
3 32 31 6
3 33 31 32
3 33 1 31
3 33 16 1
3 34 16 33
3 34 169 171
3 171 170 16
3 169 170 171
3 21 34 7
3 172 34 173
3 174 173 21
3 172 173 174
3 176 175 34
3 177 10 178
3 35 179 181
3 179 10 180
3 179 180 181
3 35 0 10
3 36 182 183
3 36 184 186
3 184 185 186
3 37 187 188
3 37 189 191
3 189 190 191
3 37 192 194
3 192 36 193
3 192 193 194
3 38 36 37
3 38 195 197
3 197 196 36
3 195 196 197
3 38 198 199
3 39 200 202
3 202 201 38
3 200 201 202
3 39 203 205
3 203 8 204
3 203 204 205
3 24 39 9
3 40 39 24
3 40 8 39
3 40 35 8
3 41 35 40
3 41 0 35
3 41 27 0
3 206 27 207
3 208 207 41
3 206 207 208
3 210 209 27
