ply
format ascii 1.0
element vertex 146
property float x
property float y
property float z
element face 130
property list uchar int vertex_index
end_header
9.012888 -81.193024 -10.802362
12.382881 -65.674911 -12.314407
15.907524 -59.106659 -15.174166
13.88089 -74.1707 -13.585127
13.011673 -82.076019 -13.529577
18.553921 -74.303482 -15.77622
7.178905 -79.742355 -8.052641
10.584953 -73.303596 -11.301058
14.811499 -66.325272 -14.361176
16.426846 -70.410843 -14.944212
16.124401 -74.356552 -14.687838
6.011263 -82.669464 -6.434849
7.270607 -78.953979 -6.816069
10.855837 -68.960403 -10.732397
9.772612 -72.745567 -10.165201
11.466238 -69.427353 -11.795397
12.647247 -69.862221 -12.864479
13.345701 -66.027527 -13.350517
14.091251 -62.37291 -13.797039
11.368021 -77.77449 -12.206642
10.807255 -81.738159 -12.194639
13.432476 -78.14299 -13.440819
15.794797 -78.286957 -14.628498
6.127539 -83.565285 -7.855024
7.770422 -80.506004 -9.400389
8.350473 -75.935822 -8.491791
8.729515 -76.609055 -9.686598
9.758505 -77.241516 -10.941397
11.98686 -73.799133 -12.451828
14.339464 -70.210251 -13.917055
16.70108 -66.512054 -15.3416
15.321262 -62.594326 -14.817795
8.695299 -83.156486 -10.869723
7.97514 -82.797867 -10.091815
17.59274 -70.409306 -15.45297
17.657864 -68.471031 -15.625936
7.631744 -78.560577 -6.26805
6.923517 -80.355259 -5.995271
11.619359 -67.317657 -11.523402
11.397461 -67.13652 -10.999948
12.160983 -65.493774 -11.790952
18.422285 -76.230728 -15.782301
17.042723 -78.222465 -15.20844
17.174359 -76.29522 -15.202359
8.965281 -74.055058 -8.785111
8.482076 -75.598588 -7.942689
11.67161 -83.862316 -12.988727
10.569401 -83.693386 -12.321258
11.909464 -81.907089 -12.862108
17.441517 -72.38216 -15.324783
16.275624 -72.383697 -14.816025
17.59274 -70.409306 -15.45297
18.656277 -72.355625 -15.868975
17.339161 -74.330017 -15.232029
17.441517 -72.38216 -15.324783
6.293845 -82.213001 -5.804661
5.640812 -84.0122 -5.647085
6.640935 -80.811722 -6.625459
6.293845 -82.213001 -5.804661
6.923517 -80.355259 -5.995271
10.829072 -68.729766 -10.214398
11.397461 -67.13652 -10.999948
10.217963 -70.567349 -9.905414
10.829072 -68.729766 -10.214398
10.314224 -70.852985 -10.448799
9.676351 -72.45993 -9.621816
10.217963 -70.567349 -9.905414
16.607685 -59.141154 -15.690454
16.834498 -57.514181 -15.817911
14.059054 -84.038276 -14.328808
12.831844 -84.000973 -13.697135
14.238882 -82.113323 -14.16125
12.852942 -63.897872 -12.525821
12.160983 -65.493774 -11.790952
13.707127 -62.246872 -13.267138
13.237066 -64.02391 -13.055723
12.852942 -63.897872 -12.525821
14.495534 -60.678071 -13.942211
13.707127 -62.246872 -13.267138
15.403671 -59.044945 -14.630775
14.999388 -60.739784 -14.485602
14.495534 -60.678071 -13.942211
16.258533 -57.528017 -15.248083
15.403671 -59.044945 -14.630775
16.834498 -57.514181 -15.817911
16.258533 -57.528017 -15.248083
15.630444 -80.218792 -14.710711
14.238882 -82.113323 -14.16125
14.403235 -80.181488 -14.079038
15.630444 -80.218792 -14.710711
17.042723 -78.222465 -15.20844
19.86338 -72.229466 -16.393791
18.656277 -72.355625 -15.868975
19.781332 -74.137207 -16.335272
19.86338 -72.229466 -16.393791
21.090792 -72.063191 -16.952842
18.422285 -76.230728 -15.782301
19.781332 -74.137207 -16.335272
5.460181 -84.531017 -6.382761
5.640812 -84.0122 -5.647085
5.518319 -84.978927 -7.092849
5.460181 -84.531017 -6.382761
6.069401 -83.117375 -7.144937
5.687608 -85.473858 -7.907026
5.518319 -84.978927 -7.092849
6.532465 -83.983998 -8.618146
5.687608 -85.473858 -7.907026
7.353906 -82.454357 -9.390829
6.532465 -83.983998 -8.618146
6.94898 -82.035645 -8.627707
8.391655 -80.849514 -10.101375
7.97514 -82.797867 -10.091815
7.353906 -82.454357 -9.390829
7.942143 -77.107666 -7.104828
7.631744 -78.560577 -6.26805
7.81054 -77.444901 -7.65393
7.942143 -77.107666 -7.104828
8.482076 -75.598588 -7.942689
9.061542 -74.340694 -9.328496
8.965281 -74.055058 -8.785111
9.676351 -72.45993 -9.621816
17.794981 -66.521636 -15.82463
17.657864 -68.471031 -15.625936
16.563963 -68.461449 -15.142906
16.314554 -60.884987 -15.512269
15.614393 -60.850493 -14.99598
16.607685 -59.141154 -15.690454
16.148841 -62.665659 -15.30733
16.314554 -60.884987 -15.512269
15.89396 -64.531132 -15.079021
15.066381 -64.459799 -14.589486
16.148841 -62.665659 -15.30733
16.83875 -64.624523 -15.569233
15.75629 -66.418663 -14.851388
15.89396 -64.531132 -15.079021
17.833996 -64.629688 -16.045364
16.83875 -64.624523 -15.569233
17.794981 -66.521636 -15.82463
17.833996 -64.629688 -16.045364
9.592482 -83.429054 -11.565862
8.695299 -83.156486 -10.869723
9.910072 -81.465591 -11.498501
9.592482 -83.429054 -11.565862
10.569401 -83.693386 -12.321258
11.67161 -83.862316 -12.988727
12.831844 -84.000973 -13.697135
3 0 32 33
3 35 34 9
3 36 12 37
3 1 38 40
3 38 13 39
3 38 39 40
3 1 15 13
3 1 17 15
3 3 21 19
3 5 22 10
3 5 41 43
3 43 42 22
3 41 42 43
3 6 23 11
3 6 24 23
3 44 25 45
3 7 26 14
3 7 27 26
3 7 28 27
3 8 29 16
3 8 30 29
3 2 31 18
3 4 46 48
3 48 47 20
3 46 47 48
3 9 10 3
3 49 10 50
3 51 50 9
3 49 50 51
3 52 5 53
3 54 53 10
3 52 53 54
3 55 11 56
3 12 57 59
3 57 11 58
3 57 58 59
3 12 6 11
3 13 60 61
3 13 62 63
3 13 64 66
3 64 14 65
3 64 65 66
3 15 14 13
3 15 7 14
3 15 16 7
3 17 16 15
3 17 8 16
3 68 67 2
3 71 70 4
3 69 70 71
3 72 1 73
3 74 18 75
3 76 75 1
3 74 75 76
3 77 18 78
3 79 2 80
3 81 80 18
3 79 80 81
3 82 2 83
3 85 84 2
3 19 20 0
3 21 20 19
3 21 4 20
3 10 21 3
3 22 21 10
3 22 4 21
3 22 86 88
3 88 87 4
3 86 87 88
3 90 89 22
3 91 5 92
3 93 5 94
3 93 94 95
3 97 96 5
3 11 98 99
3 23 100 102
3 102 101 11
3 100 101 102
3 23 103 104
3 23 105 106
3 24 107 109
3 109 108 23
3 107 108 109
3 24 110 112
3 110 0 111
3 110 111 112
3 113 12 114
3 25 115 117
3 115 12 116
3 115 116 117
3 25 6 12
3 14 118 120
3 118 25 119
3 118 119 120
3 26 25 14
3 26 6 25
3 26 24 6
3 27 24 26
3 27 0 24
3 27 19 0
3 28 19 27
3 28 3 19
3 16 28 7
3 29 28 16
3 29 3 28
3 29 9 3
3 30 9 29
3 30 121 123
3 123 122 9
3 121 122 123
3 18 17 1
3 31 17 18
3 31 8 17
3 124 31 125
3 126 125 2
3 124 125 126
3 127 31 128
3 129 8 130
3 131 130 31
3 129 130 131
3 132 30 133
3 134 133 8
3 132 133 134
3 135 30 136
3 138 137 30
3 20 139 141
3 141 140 0
3 139 140 141
3 143 142 20
3 145 144 4
