ply
format ascii 1.0
element vertex 87
property float x
property float y
property float z
element face 69
property list uchar int vertex_index
end_header
-1.737581 -27.271042 88.689949
-1.814096 -20.90616 88.169434
-3.252813 -18.143854 88.117035
-3.132637 -21.35812 88.521347
-0.623363 -30.158613 88.392883
-0.519709 -27.050148 88.192703
-0.952711 -17.179493 86.785042
-3.103992 -24.486578 88.728447
-3.189619 -27.493837 88.728416
-3.446728 -14.861729 87.559502
-1.999388 -17.612356 87.660683
-0.719557 -20.521414 87.386185
-1.71768 -24.136997 88.517715
-0.564131 -23.821295 87.861008
-3.891973 -21.601865 88.496021
-3.914857 -20.050472 88.349853
-0.114476 -30.104184 87.992935
-0.225772 -31.626804 88.140083
-1.600066 -15.72495 86.908394
-1.091523 -15.491962 86.438813
-4.013652 -27.595712 88.539211
-3.940391 -26.167873 88.627895
-4.132338 -15.206654 87.626931
-4.22517 -13.569078 87.322365
-0.064912 -25.336628 87.543415
-0.54192 -25.435721 88.026855
-0.042701 -26.951054 87.709262
-0.114492 -23.692111 87.308105
-0.064912 -25.336628 87.543415
-3.974945 -18.44334 88.147697
-4.03538 -16.847717 87.905697
-4.757512 -17.147202 87.93636
-3.192725 -19.750987 88.319191
-3.974945 -18.44334 88.147697
-3.914857 -20.050472 88.349853
-0.062649 -28.549951 87.892845
-0.571536 -28.60438 88.292793
-0.114476 -30.104184 87.992935
-0.042701 -26.951054 87.709262
-0.062649 -28.549951 87.892845
-0.536146 -17.020865 86.141423
-1.091523 -15.491962 86.438813
-0.407448 -18.702703 86.479546
-0.536146 -17.020865 86.141423
-3.897577 -24.664243 88.62791
-3.877651 -23.166094 88.599571
-3.146806 -25.990208 88.728431
-3.897577 -24.664243 88.62791
-3.940391 -26.167873 88.627895
-3.306362 -28.911292 88.642482
-4.013652 -27.595712 88.539211
-2.548738 -28.87511 88.717644
-3.306362 -28.911292 88.642482
-1.822719 -28.763712 88.69841
-2.4636 -27.38244 88.709182
-2.548738 -28.87511 88.717644
-1.26561 -30.207497 88.549877
-1.180472 -28.714827 88.541416
-1.822719 -28.763712 88.69841
-0.769977 -31.620574 88.447555
-1.26561 -30.207497 88.549877
-0.225772 -31.626804 88.140083
-0.769977 -31.620574 88.447555
-3.569816 -13.188402 87.232586
-4.22517 -13.569078 87.322365
-2.847074 -14.566068 87.295624
-3.569816 -13.188402 87.232586
-3.34977 -16.502792 87.838268
-4.132338 -15.206654 87.626931
-4.03538 -16.847717 87.905697
-2.123404 -15.941381 87.346215
-2.847074 -14.566068 87.295624
-2.723058 -16.237043 87.610093
-1.47605 -17.395924 87.222863
-1.600066 -15.72495 86.908394
-2.123404 -15.941381 87.346215
-0.290871 -20.373663 86.780117
-0.407448 -18.702703 86.479546
-0.836134 -18.850454 87.085613
-3.118314 -22.922349 88.624897
-3.891973 -21.601865 88.496021
-3.877651 -23.166094 88.599571
-0.192205 -22.04217 87.070694
-0.641844 -22.171354 87.623596
-0.114492 -23.692111 87.308105
-0.290871 -20.373663 86.780117
-0.192205 -22.04217 87.070694
3 14 3 15
3 17 16 4
3 18 6 19
3 20 8 21
3 22 9 23
3 1 10 2
3 1 11 10
3 0 12 7
3 24 13 25
3 26 25 5
3 24 25 26
3 28 27 13
3 29 2 30
3 29 30 31
3 3 32 34
3 32 2 33
3 32 33 34
3 3 1 2
3 4 5 0
3 35 5 36
3 37 36 4
3 35 36 37
3 39 38 5
3 6 40 41
3 6 42 43
3 44 7 45
3 8 46 48
3 46 7 47
3 46 47 48
3 8 0 7
3 49 8 50
3 51 8 52
3 53 0 54
3 55 54 8
3 53 54 55
3 56 4 57
3 58 57 0
3 56 57 58
3 59 4 60
3 62 61 4
3 9 63 64
3 9 65 66
3 2 67 69
3 67 9 68
3 67 68 69
3 10 9 2
3 10 70 72
3 72 71 9
3 70 71 72
3 10 73 75
3 73 6 74
3 73 74 75
3 11 6 10
3 11 76 78
3 78 77 6
3 76 77 78
3 7 79 81
3 79 3 80
3 79 80 81
3 12 3 7
3 12 1 3
3 5 12 0
3 13 12 5
3 13 1 12
3 13 11 1
3 82 11 83
3 84 83 13
3 82 83 84
3 86 85 11
