ply
format ascii 1.0
element vertex 306
property float x
property float y
property float z
element face 322
property list uchar int vertex_index
end_header
55.463177 15.703011 -42.721413
49.825195 18.684467 -40.687126
46.45512 18.670467 -51.198868
53.903431 9.561432 -51.073845
56.666946 13.048172 -31.578508
61.044731 8.403227 -32.319397
52.640049 18.416595 -42.03231
48.27002 20.022552 -46.282578
51.278419 17.87149 -47.359055
50.002312 14.938248 -51.713982
54.601601 13.550018 -47.498169
61.415085 7.588531 -26.707346
46.948097 17.188286 -38.447586
45.607384 19.799591 -44.217384
43.51886 20.155529 -49.502945
53.444496 4.328398 -53.42495
53.562653 16.346558 -36.356873
56.326569 15.60812 -37.163673
59.223618 11.903868 -31.983774
58.724457 12.437592 -37.63102
58.311546 10.949835 -42.70826
58.078423 7.748055 -46.621788
57.839897 3.110346 -49.324249
54.048161 17.357162 -42.455193
51.974876 18.46838 -44.783745
53.473598 16.943413 -45.115555
52.908836 15.940781 -47.549759
55.015968 14.885284 -45.245506
48.400551 18.060093 -39.701019
46.416218 18.720837 -41.36248
47.760895 19.411366 -42.578003
47.352707 19.676262 -48.861534
45.916142 20.286137 -48.04969
44.901314 19.714935 -50.503265
42.437408 19.352623 -51.805496
43.942211 18.500267 -52.685204
45.643669 17.073074 -53.242126
51.928349 12.413734 -51.537636
49.493576 12.766054 -53.422287
51.551708 10.052286 -53.057121
53.637268 7.057232 -52.39994
55.104267 12.75095 -31.316702
53.645164 14.420033 -33.591286
55.198296 14.802151 -34.005981
54.993965 16.286243 -36.807045
56.6091 14.636238 -34.328072
61.262688 8.261147 -29.495821
60.39679 9.806341 -29.346277
60.217323 10.420296 -32.168854
58.994537 12.447752 -34.825027
59.991493 10.495626 -34.991707
59.735619 9.266687 -40.184494
59.738594 8.044609 -42.376617
58.185261 9.548403 -44.825401
59.78009 6.444199 -44.243179
59.789127 2.179686 -47.059135
57.712898 0.391027 -50.285378
51.235184 18.846653 -41.450874
49.124985 19.684284 -43.531723
50.525932 19.388664 -44.258499
49.728577 19.252327 -46.936417
48.920998 18.455372 -49.404633
48.165421 17.053505 -51.601128
50.607323 16.671108 -49.68502
52.386864 14.406391 -49.699959
54.228767 11.752665 -49.443085
45.454914 16.341133 -36.897537
45.065815 17.841827 -39.854645
44.36153 19.055447 -42.755814
43.409637 19.82267 -45.551254
46.90115 20.179138 -45.3843
44.60825 20.300816 -46.952721
42.302612 20.029385 -48.182076
41.143486 19.617832 -50.588539
47.508652 15.133537 -53.485855
46.984932 12.805048 -55.03653
48.739494 16.253601 -36.810799
50.281044 17.102516 -37.821541
52.034348 15.879322 -35.771156
51.766827 17.651501 -38.597511
53.198845 17.701668 -39.194061
54.580177 17.143421 -39.653374
55.917496 15.956398 -39.995682
59.301567 10.764294 -29.214808
58.042664 12.785213 -31.788546
57.872421 13.8493 -34.597694
57.566414 14.306339 -37.442284
57.217533 14.187481 -40.216034
60.88763 8.088106 -35.059875
59.816467 10.09411 -37.698418
58.487526 11.923822 -40.290108
56.884911 13.534378 -42.81443
56.591358 12.38883 -45.155357
56.333508 10.792267 -47.191437
56.099785 8.791172 -48.911583
59.808025 4.480104 -45.792442
57.965431 5.584896 -48.111191
55.887409 6.445086 -50.330322
55.70599 3.826534 -51.467545
55.569656 1.015619 -52.327225
60.448441 6.471562 -42.089546
60.353577 7.178051 -41.121845
60.469189 5.671358 -43.022827
59.759342 7.244404 -43.309898
60.448441 6.471562 -42.089546
41.234955 18.969321 -52.261287
41.944026 18.645394 -52.806942
48.04443 11.532982 -54.917992
48.239254 12.785551 -54.229408
49.298752 11.513485 -54.11087
46.799644 11.495473 -55.635159
48.04443 11.532982 -54.917992
52.273628 4.471026 -54.273174
52.358947 5.874166 -53.840874
53.388176 2.894529 -53.777878
52.273628 4.471026 -54.273174
49.578377 15.66013 -35.899258
48.732444 15.208217 -35.37698
50.349152 16.084587 -36.404629
49.510269 16.678058 -37.31617
49.578377 15.66013 -35.899258
60.906841 8.095617 -26.668671
61.381756 6.958385 -25.3813
60.874437 7.733313 -36.332168
61.300089 6.708081 -35.022053
60.338856 8.736315 -37.65144
60.352049 9.091108 -36.379146
60.874437 7.733313 -36.332168
60.649164 2.757109 -45.256462
60.581293 3.809165 -44.600872
56.584333 -0.741567 -51.660728
56.641277 0.703323 -51.306302
57.655954 -1.053863 -50.639805
55.525959 -0.447665 -52.606335
56.584333 -0.741567 -51.660728
42.696428 18.219216 -53.246796
41.944026 18.645394 -52.806942
43.189809 18.926445 -52.24535
43.524822 17.61142 -53.617966
42.696428 18.219216 -53.246796
44.375551 16.897823 -53.896427
43.524822 17.61142 -53.617966
44.79294 17.78667 -52.963665
45.306015 16.029453 -54.099418
44.375551 16.897823 -53.896427
50.327818 10.156601 -53.928287
49.298752 11.513485 -54.11087
50.522642 11.40917 -53.239704
51.412554 8.736111 -53.656959
50.327818 10.156601 -53.928287
52.455333 7.238583 -53.328369
51.412554 8.736111 -53.656959
52.594488 8.554759 -52.728531
53.540882 5.692815 -52.912445
52.358947 5.874166 -53.840874
52.455333 7.238583 -53.328369
54.374716 13.585491 -32.453994
53.511707 13.230643 -32.263518
54.241259 12.396101 -31.126227
60.352089 7.78909 -40.025784
60.298431 8.322604 -38.894478
59.737106 8.655648 -41.280556
60.352089 7.78909 -40.025784
60.353577 7.178051 -41.121845
60.659838 0.394091 -46.421997
60.639715 1.606899 -45.889809
59.753597 0.884604 -47.571151
60.659838 0.394091 -46.421997
58.778982 1.349934 -48.703709
58.814512 2.645016 -48.191692
59.753597 0.884604 -47.571151
58.715483 -0.009725 -49.184273
57.776398 1.750687 -49.804814
58.778982 1.349934 -48.703709
58.661121 -1.41787 -49.586372
58.715483 -0.009725 -49.184273
57.655954 -1.053863 -50.639805
58.661121 -1.41787 -49.586372
54.875101 11.498621 -30.043043
54.241259 12.396101 -31.126227
54.012093 11.143772 -29.852567
55.7556 11.823172 -30.146406
54.875101 11.498621 -30.043043
56.53694 11.971782 -30.277309
55.885607 12.899561 -31.447605
55.7556 11.823172 -30.146406
61.858898 6.433969 -25.397791
61.381756 6.958385 -25.3813
61.825569 5.803824 -24.071745
61.79015 6.796261 -26.767161
61.858898 6.433969 -25.397791
61.713952 7.132569 -28.161398
61.338887 7.924839 -28.101584
61.79015 6.796261 -26.767161
61.593426 7.230384 -29.564794
61.713952 7.132569 -28.161398
61.484448 7.301424 -30.976582
61.153709 8.332187 -30.907609
61.593426 7.230384 -29.564794
44.568918 16.695463 -37.473122
44.683333 16.071661 -35.9776
44.374369 17.44581 -38.951676
44.568918 16.695463 -37.473122
45.260365 17.09148 -38.376091
44.095793 18.014741 -40.421337
44.374369 17.44581 -38.951676
43.743651 18.621552 -41.871921
44.095793 18.014741 -40.421337
44.713673 18.448637 -41.305229
43.321453 19.048471 -43.294174
43.743651 18.621552 -41.871921
42.845506 19.432083 -44.691895
43.321453 19.048471 -43.294174
43.885583 19.439059 -44.153534
42.316858 19.644053 -46.040622
42.845506 19.432083 -44.691895
41.763345 19.74741 -47.356034
42.316858 19.644053 -46.040622
42.856124 19.926028 -46.866665
41.176472 19.694268 -48.603313
41.763345 19.74741 -47.356034
40.596908 19.488491 -49.806545
41.176472 19.694268 -48.603313
41.723049 19.823608 -49.385307
40.00375 19.147447 -50.925926
40.596908 19.488491 -49.806545
40.587994 19.101925 -51.652809
41.790447 19.485228 -51.197018
41.234955 18.969321 -52.261287
40.00375 19.147447 -50.925926
40.587994 19.101925 -51.652809
46.238506 15.059684 -54.221283
45.306015 16.029453 -54.099418
46.576161 16.103305 -53.36399
45.976647 13.89544 -54.99662
46.238506 15.059684 -54.221283
47.246792 13.969292 -54.261192
45.722826 12.667046 -55.677121
45.976647 13.89544 -54.99662
45.722826 12.667046 -55.677121
46.799644 11.495473 -55.635159
45.475708 15.540374 -35.408619
44.683333 16.071661 -35.9776
46.298992 15.855352 -36.207183
45.475708 15.540374 -35.408619
47.045583 16.278929 -36.982208
46.201505 16.76471 -37.672562
46.298992 15.855352 -36.207183
47.941282 15.811587 -36.163815
48.732444 15.208217 -35.37698
47.843795 16.720944 -37.629193
47.045583 16.278929 -36.982208
47.941282 15.811587 -36.163815
52.805897 14.037361 -33.304638
53.511707 13.230643 -32.263518
52.000489 14.767006 -34.394573
52.805897 14.037361 -33.304638
52.839756 15.149677 -34.681221
51.225803 15.47299 -35.379436
52.000489 14.767006 -34.394573
51.157696 16.490919 -36.796349
50.349152 16.084587 -36.404629
51.225803 15.47299 -35.379436
57.317634 12.080061 -30.340418
56.53694 11.971782 -30.277309
60.397694 9.204522 -27.988136
60.906841 8.095617 -26.668671
60.905938 8.697436 -28.026812
59.850082 9.683498 -27.922401
60.397694 9.204522 -27.988136
59.849179 10.285317 -29.280543
59.204151 9.891819 -27.90802
59.850082 9.683498 -27.922401
58.634945 10.938122 -29.158568
59.204151 9.891819 -27.90802
58.005494 11.948581 -30.445436
58.634945 10.938122 -29.158568
58.672116 11.774753 -30.501677
57.354805 12.916692 -31.683527
57.317634 12.080061 -30.340418
58.005494 11.948581 -30.445436
61.391419 7.17604 -32.35582
61.484448 7.301424 -30.976582
61.312868 7.018479 -33.726059
61.725327 5.638454 -33.688236
61.300089 6.708081 -35.022053
60.966181 8.245666 -33.689636
61.391419 7.17604 -32.35582
61.312868 7.018479 -33.726059
59.776043 9.680398 -38.941456
60.338856 8.736315 -37.65144
60.298431 8.322604 -38.894478
60.567325 4.791213 -43.82624
60.469189 5.671358 -43.022827
59.794058 5.462152 -45.01781
60.567325 4.791213 -43.82624
60.581293 3.809165 -44.600872
59.798576 3.329895 -46.425788
60.649164 2.757109 -45.256462
60.639715 1.606899 -45.889809
54.450756 1.23814 -53.229016
53.388176 2.894529 -53.777878
54.507076 2.672009 -52.876087
54.407059 -0.225144 -53.508125
54.450756 1.23814 -53.229016
55.525959 -0.447665 -52.606335
3 0 25 23
3 0 27 25
3 1 30 28
3 2 33 31
3 2 35 33
3 2 36 35
3 3 39 37
3 3 40 39
3 4 43 41
3 4 45 43
3 5 48 46
3 5 50 48
3 100 52 101
3 102 54 103
3 104 103 52
3 102 103 104
3 6 59 57
3 8 60 24
3 8 61 60
3 8 63 61
3 10 64 26
3 10 65 64
3 12 67 66
3 13 68 29
3 13 69 68
3 7 70 58
3 14 71 32
3 14 72 71
3 14 73 72
3 106 105 34
3 9 74 62
3 107 75 108
3 109 108 38
3 107 108 109
3 111 110 75
3 15 112 113
3 15 114 115
3 116 76 117
3 118 77 119
3 120 119 76
3 118 119 120
3 16 78 42
3 16 79 78
3 16 80 79
3 17 81 44
3 17 82 81
3 11 121 122
3 18 83 47
3 18 84 83
3 18 85 84
3 19 86 49
3 19 87 86
3 123 88 124
3 125 89 126
3 127 126 88
3 125 126 127
3 20 90 51
3 20 91 90
3 20 92 91
3 21 93 53
3 21 94 93
3 128 95 129
3 22 96 55
3 22 97 96
3 22 98 97
3 130 99 131
3 132 131 56
3 130 131 132
3 134 133 99
3 23 24 6
3 25 24 23
3 25 8 24
3 25 26 8
3 27 26 25
3 27 10 26
3 28 29 12
3 30 29 28
3 30 13 29
3 31 32 7
3 33 32 31
3 33 14 32
3 33 34 14
3 35 34 33
3 35 135 137
3 137 136 34
3 135 136 137
3 35 138 139
3 36 140 142
3 142 141 35
3 140 141 142
3 36 143 144
3 37 38 9
3 39 38 37
3 39 145 147
3 147 146 38
3 145 146 147
3 39 148 149
3 40 150 152
3 152 151 39
3 150 151 152
3 40 153 155
3 153 15 154
3 153 154 155
3 41 156 158
3 156 42 157
3 156 157 158
3 43 42 41
3 43 16 42
3 43 44 16
3 45 44 43
3 45 17 44
3 46 47 11
3 48 47 46
3 48 18 47
3 48 49 18
3 50 49 48
3 50 19 49
3 159 51 160
3 52 161 163
3 161 51 162
3 161 162 163
3 52 20 51
3 52 53 20
3 54 53 52
3 54 21 53
3 164 55 165
3 166 55 167
3 168 22 169
3 170 169 55
3 168 169 170
3 171 56 172
3 173 172 22
3 171 172 173
3 174 56 175
3 177 176 56
3 57 58 1
3 59 58 57
3 59 7 58
3 24 59 6
3 60 59 24
3 60 7 59
3 60 31 7
3 61 31 60
3 61 2 31
3 61 62 2
3 63 62 61
3 63 9 62
3 26 63 8
3 64 63 26
3 64 9 63
3 64 37 9
3 65 37 64
3 65 3 37
3 178 41 179
3 178 179 180
3 181 41 182
3 183 4 184
3 185 184 41
3 183 184 185
3 186 11 187
3 186 187 188
3 189 11 190
3 191 46 192
3 193 192 11
3 191 192 193
3 194 46 195
3 196 5 197
3 198 197 46
3 196 197 198
3 66 199 200
3 67 201 203
3 203 202 66
3 201 202 203
3 67 204 205
3 29 67 12
3 68 67 29
3 68 206 208
3 208 207 67
3 206 207 208
3 68 209 210
3 69 211 213
3 213 212 68
3 211 212 213
3 69 214 215
3 58 30 1
3 70 30 58
3 70 13 30
3 32 70 7
3 71 70 32
3 71 13 70
3 71 69 13
3 72 69 71
3 72 216 218
3 218 217 69
3 216 217 218
3 72 219 220
3 73 221 223
3 223 222 72
3 221 222 223
3 73 224 225
3 34 73 14
3 226 73 227
3 228 227 34
3 226 227 228
3 230 229 73
3 62 36 2
3 74 36 62
3 74 231 233
3 233 232 36
3 231 232 233
3 38 74 9
3 75 74 38
3 75 234 236
3 236 235 74
3 234 235 236
3 75 237 238
3 240 239 75
3 241 66 242
3 243 66 244
3 245 12 246
3 247 246 66
3 245 246 247
3 76 248 249
3 76 250 252
3 250 12 251
3 250 251 252
3 76 28 12
3 77 28 76
3 77 1 28
3 42 253 254
3 78 255 257
3 257 256 42
3 255 256 257
3 78 258 259
3 78 260 262
3 260 77 261
3 260 261 262
3 79 77 78
3 79 1 77
3 79 57 1
3 80 57 79
3 80 6 57
3 44 80 16
3 81 80 44
3 81 6 80
3 81 23 6
3 82 23 81
3 82 0 23
3 263 4 264
3 47 265 267
3 267 266 11
3 265 266 267
3 83 268 270
3 270 269 47
3 268 269 270
3 83 271 272
3 83 273 274
3 84 275 277
3 277 276 83
3 275 276 277
3 84 278 280
3 278 4 279
3 278 279 280
3 84 45 4
3 85 45 84
3 85 17 45
3 49 85 18
3 86 85 49
3 86 17 85
3 86 82 17
3 87 82 86
3 87 0 82
3 281 5 282
3 88 283 285
3 283 284 285
3 88 286 288
3 286 5 287
3 286 287 288
3 88 50 5
3 89 50 88
3 89 19 50
3 51 289 291
3 289 89 290
3 289 290 291
3 90 89 51
3 90 19 89
3 90 87 19
3 91 87 90
3 91 0 87
3 91 27 0
3 92 27 91
3 92 10 27
3 53 92 20
3 93 92 53
3 93 10 92
3 93 65 10
3 94 65 93
3 94 3 65
3 292 54 293
3 95 294 296
3 294 54 295
3 294 295 296
3 95 21 54
3 55 297 299
3 297 95 298
3 297 298 299
3 96 95 55
3 96 21 95
3 96 94 21
3 97 94 96
3 97 3 94
3 97 40 3
3 98 40 97
3 98 15 40
3 56 98 22
3 99 98 56
3 99 15 98
3 99 300 302
3 302 301 15
3 300 301 302
3 305 304 99
3 303 304 305
