ply
format ascii 1.0
element vertex 161
property float x
property float y
property float z
element face 146
property list uchar int vertex_index
end_header
-64.977539 -29.977272 26.030949
-59.737701 -40.119843 25.772535
-62.331608 -35.142567 25.972088
-57.862473 -36.112186 23.50959
-64.689789 -43.042645 32.275505
-67.113098 -24.725925 26.402802
-65.777985 -34.031044 28.882267
-63.592518 -39.139317 28.943697
-61.656635 -44.04084 28.522827
-55.625782 -40.762283 22.665384
-66.411392 -29.418968 27.474474
-66.680046 -31.445812 28.918613
-65.395813 -32.022614 27.372395
-60.966202 -37.669647 25.93516
-62.979156 -37.154953 27.382515
-61.751144 -39.663235 27.33568
-62.51931 -41.636131 28.846973
-60.696213 -42.087536 27.116924
-63.149426 -30.50655 24.769543
-63.699287 -32.573311 25.979103
-61.665138 -33.095493 24.742146
-60.173248 -35.64798 24.697313
-58.789612 -38.131783 24.555332
-67.261597 -26.791681 27.697716
-66.120331 -27.359549 26.169609
-65.83461 -25.275234 24.959694
-64.552132 -27.89698 24.834099
-66.899773 -33.435219 30.517742
-66.101585 -36.003563 30.55022
-64.231308 -34.60228 27.363398
-64.721848 -36.596802 28.919693
-65.156403 -38.561485 30.611584
-64.164261 -41.100922 30.598343
-63.264679 -43.591621 30.399601
-56.55843 -38.527313 23.208424
-57.661674 -40.493271 24.226547
-58.803303 -42.43581 25.38743
-61.334453 -32.051353 24.214186
-62.407282 -31.801021 24.755845
-62.076597 -30.756882 24.227885
-59.01786 -35.880083 24.103451
-59.780712 -34.618151 24.170212
-58.625325 -34.850254 23.576351
-64.924767 -44.003769 33.090111
-65.261375 -42.73169 33.213752
-64.333153 -44.285612 32.098582
-64.924767 -44.003769 33.090111
-67.187347 -25.758803 27.050259
-67.60746 -25.470695 27.866418
-67.53321 -24.437817 27.218961
-64.992172 -25.530368 24.34448
-65.705986 -24.224283 24.371446
-64.350933 -26.84124 24.281683
-65.193371 -26.586107 24.896896
-64.992172 -25.530368 24.34448
-63.58195 -28.148737 24.267999
-64.350933 -26.84124 24.281683
-62.131224 -45.010197 29.220709
-62.935246 -44.785587 30.159096
-62.460657 -43.816231 29.461214
-56.092106 -39.644798 22.936904
-55.466268 -38.680748 22.532143
-54.999944 -39.798233 22.260623
-58.557026 -43.489172 25.046185
-57.873306 -42.547629 24.509971
-59.387389 -43.40074 26.009302
-58.557026 -43.489172 25.046185
-57.417541 -35.07967 23.07781
-58.625325 -34.850254 23.576351
-65.10899 -41.771969 32.327267
-65.261375 -42.73169 33.213752
-67.530994 -23.408872 26.556812
-67.53321 -24.437817 27.218961
-66.545719 -30.43239 28.196544
-67.04031 -30.141529 29.00044
-66.905983 -29.128107 28.278371
-54.671957 -40.83057 21.862829
-54.999944 -39.798233 22.260623
-54.04612 -39.86652 21.458068
-60.526657 -33.341907 24.192629
-61.334453 -32.051353 24.214186
-60.919193 -34.371736 24.719729
-60.526657 -33.341907 24.192629
-59.780712 -34.618151 24.170212
-67.606239 -26.499153 28.543215
-67.60746 -25.470695 27.866418
-67.331086 -27.814464 28.389992
-67.606239 -26.499153 28.543215
-66.836495 -28.105325 27.586095
-66.905983 -29.128107 28.278371
-67.331086 -27.814464 28.389992
-67.043895 -23.688786 25.772986
-67.530994 -23.408872 26.556812
-67.461792 -22.371733 25.926996
-66.404651 -23.963441 25.051431
-65.705986 -24.224283 24.371446
-66.473854 -25.00058 25.681248
-67.043895 -23.688786 25.772986
-66.404651 -23.963441 25.051431
-62.880596 -29.453522 24.235721
-63.850779 -29.201765 24.801821
-63.58195 -28.148737 24.267999
-62.076597 -30.756882 24.227885
-62.880596 -29.453522 24.235721
-67.093102 -31.148615 29.755615
-67.04031 -30.141529 29.00044
-67.202965 -32.143318 30.55518
-67.093102 -31.148615 29.755615
-66.789909 -32.440515 29.718177
-67.227375 -33.131203 31.377981
-67.202965 -32.143318 30.55518
-66.974708 -34.41103 31.387022
-67.227375 -33.131203 31.377981
-66.575615 -35.695202 31.403261
-66.974708 -34.41103 31.387022
-66.500679 -34.719391 30.533981
-66.227165 -36.973835 31.443037
-66.575615 -35.695202 31.403261
-65.754574 -38.252796 31.473719
-66.227165 -36.973835 31.443037
-65.628994 -37.282524 30.580902
-65.342297 -39.531389 31.495306
-65.754574 -38.252796 31.473719
-64.846226 -40.801108 31.488685
-65.342297 -39.531389 31.495306
-64.660332 -39.831204 30.604964
-64.427025 -42.071783 31.436924
-65.10899 -41.771969 32.327267
-64.846226 -40.801108 31.488685
-63.620598 -44.560101 31.16063
-64.333153 -44.285612 32.098582
-63.977234 -43.317133 31.337553
-63.620598 -44.560101 31.16063
-62.935246 -44.785587 30.159096
-56.684365 -36.317039 22.938728
-57.417541 -35.07967 23.07781
-56.032343 -37.524603 22.788145
-55.466268 -38.680748 22.532143
-57.210452 -37.31975 23.359007
-56.684365 -36.317039 22.938728
-56.032343 -37.524603 22.788145
-55.415106 -41.747755 22.247202
-54.671957 -40.83057 21.862829
-56.284546 -41.710865 23.148948
-55.415106 -41.747755 22.247202
-57.302492 -41.576359 23.92953
-56.643728 -40.627777 23.445965
-56.284546 -41.710865 23.148948
-58.232489 -41.46454 24.806988
-57.302492 -41.576359 23.92953
-57.873306 -42.547629 24.509971
-60.333844 -43.226602 26.874049
-59.749758 -42.261673 26.252177
-59.387389 -43.40074 26.009302
-60.814054 -44.203254 27.577001
-61.176424 -43.064188 27.819876
-60.333844 -43.226602 26.874049
-61.403029 -45.163551 28.205385
-60.814054 -44.203254 27.577001
-62.131224 -45.010197 29.220709
-61.403029 -45.163551 28.205385
3 0 12 10
3 1 15 13
3 1 17 15
3 37 20 38
3 39 38 18
3 37 38 39
3 3 40 42
3 40 21 41
3 40 41 42
3 3 22 21
3 4 43 44
3 4 45 46
3 5 47 49
3 47 23 48
3 47 48 49
3 5 24 23
3 50 25 51
3 52 26 53
3 54 53 25
3 52 53 54
3 56 55 26
3 6 27 11
3 6 28 27
3 2 29 19
3 7 30 14
3 7 31 30
3 7 32 31
3 8 33 16
3 8 57 59
3 59 58 33
3 57 58 59
3 9 60 62
3 60 34 61
3 60 61 62
3 9 35 34
3 63 36 64
3 66 65 36
3 67 3 68
3 69 4 70
3 71 5 72
3 10 73 75
3 73 11 74
3 73 74 75
3 12 11 10
3 12 6 11
3 13 14 2
3 15 14 13
3 15 7 14
3 15 16 7
3 17 16 15
3 17 8 16
3 76 9 77
3 76 77 78
3 18 19 0
3 20 19 18
3 20 2 19
3 79 20 80
3 21 81 83
3 81 20 82
3 81 82 83
3 21 2 20
3 21 13 2
3 22 13 21
3 22 1 13
3 23 84 85
3 23 86 87
3 23 88 90
3 88 10 89
3 88 89 90
3 24 10 23
3 24 0 10
3 91 5 92
3 91 92 93
3 25 94 95
3 25 96 98
3 96 5 97
3 96 97 98
3 25 24 5
3 26 24 25
3 26 0 24
3 26 18 0
3 99 18 100
3 101 100 26
3 99 100 101
3 103 102 18
3 11 104 105
3 27 106 108
3 108 107 11
3 106 107 108
3 27 109 110
3 27 111 112
3 28 113 115
3 115 114 27
3 113 114 115
3 28 116 117
3 19 12 0
3 29 12 19
3 29 6 12
3 14 29 2
3 30 29 14
3 30 6 29
3 30 28 6
3 31 28 30
3 31 118 120
3 120 119 28
3 118 119 120
3 31 121 122
3 32 123 125
3 125 124 31
3 123 124 125
3 32 126 128
3 126 4 127
3 126 127 128
3 16 32 7
3 33 32 16
3 33 4 32
3 33 129 131
3 131 130 4
3 129 130 131
3 133 132 33
3 134 3 135
3 34 136 137
3 34 138 140
3 138 3 139
3 138 139 140
3 34 22 3
3 35 22 34
3 35 1 22
3 141 9 142
3 143 9 144
3 145 35 146
3 147 146 9
3 145 146 147
3 36 148 150
3 148 35 149
3 148 149 150
3 36 1 35
3 36 17 1
3 151 17 152
3 153 152 36
3 151 152 153
3 154 8 155
3 156 155 17
3 154 155 156
3 157 8 158
3 160 159 8
