ply
format ascii 1.0
element vertex 226
property float x
property float y
property float z
element face 224
property list uchar int vertex_index
end_header
-40.735886 36.092079 47.85704
-37.317734 17.287151 61.040794
-41.862019 23.703121 54.241764
-35.969055 30.431618 56.545963
-42.705303 26.018341 43.736404
-36.744835 23.881615 59.571518
-41.171829 30.036549 51.420448
-42.642513 25.308468 49.149857
-42.222 31.452305 46.164562
-40.36261 41.678013 43.842533
-40.117371 20.94854 58.37603
-39.359985 27.488758 56.078575
-38.599331 33.82336 52.612328
-37.757141 39.69265 48.43119
-34.891243 36.659576 52.40229
-40.935223 33.116386 49.713032
-41.788723 30.869267 48.830517
-41.659027 33.896961 47.130516
-42.209023 34.449898 44.496407
-41.585991 36.826221 45.313145
-41.534687 39.643547 43.403191
-40.551506 38.946415 45.890015
-39.216099 15.966724 60.335453
-40.55304 17.715263 59.036922
-38.846142 19.199337 59.906338
-36.394814 27.182709 58.238445
-38.154091 25.791367 57.998787
-37.773003 29.060085 56.503418
-38.988663 30.702538 54.466888
-37.343315 32.253811 54.70668
-36.8634 35.342144 52.683201
-35.463631 33.597157 54.570705
-42.367783 20.53738 55.305893
-42.865032 21.53083 52.975338
-42.742851 25.744274 46.449287
-43.196487 22.716137 47.784409
-43.122982 23.009895 45.081306
-35.80233 41.145813 48.253143
-37.31559 42.429707 46.21315
-35.361168 18.540398 61.485733
-37.040768 20.568508 60.502598
-41.471504 26.884628 52.940727
-42.360378 24.644348 51.77364
-42.010986 27.77179 50.386341
-42.352024 28.392323 47.720692
-42.51955 28.802265 45.013863
-42.549988 29.068642 42.320366
-42.485737 31.845783 43.482742
-41.603428 19.256641 57.348789
-41.120529 22.465805 56.468887
-38.502579 22.48896 59.138565
-39.728287 24.221779 57.391945
-40.715263 25.700062 55.303108
-40.36414 28.912941 53.862164
-40.043236 32.059143 52.181385
-39.734055 35.102425 50.309902
-39.424923 38.020638 48.299404
-38.187569 36.824196 50.580021
-36.343853 38.307854 50.510246
-34.276031 39.609505 50.12421
-39.63599 12.826981 60.510735
-43.127323 22.24398 50.440216
-39.109127 40.807144 46.194794
-38.781815 43.469391 44.027916
-42.83592 24.607695 43.062233
-43.044759 23.103471 43.734684
-42.914142 24.514118 44.408855
-42.645811 26.109119 42.397581
-42.83592 24.607695 43.062233
-35.529857 42.503021 47.104602
-34.724443 41.795406 48.02646
-35.250498 20.190914 61.132185
-34.361035 19.148163 61.565531
-42.398575 34.642765 43.179089
-42.237282 35.904016 43.614243
-40.917301 42.01458 42.631191
-41.503339 40.997347 42.41152
-40.948648 40.66078 43.622862
-40.256847 42.988793 42.788496
-40.811538 43.325359 41.577154
-40.917301 42.01458 42.631191
-38.799791 11.9016 60.889873
-39.873291 11.315976 60.533903
-39.037092 10.390595 60.913042
-38.625459 13.452742 60.882961
-38.799791 11.9016 60.889873
-43.54873 21.237257 48.399985
-43.512461 21.401621 47.070583
-42.523222 29.161551 40.999684
-42.579319 30.591015 41.575405
-37.825638 44.258207 43.990959
-38.048703 42.949549 45.120533
-37.092526 43.738366 45.083576
-38.609345 44.747659 42.921394
-37.825638 44.258207 43.990959
-41.925766 37.092178 44.022612
-42.237282 35.904016 43.614243
-41.897507 35.638059 44.904776
-41.560339 38.234884 44.358168
-41.900114 38.500841 43.067635
-41.925766 37.092178 44.022612
-39.884569 16.840993 59.686188
-40.80269 16.13759 59.230415
-40.13422 15.26332 59.87968
-42.952885 19.503858 54.645956
-42.684162 18.982105 55.721161
-43.20151 20.000584 53.480678
-42.952885 19.503858 54.645956
-42.616408 21.034105 54.140615
-43.343847 20.38442 52.280133
-43.20151 20.000584 53.480678
-43.475708 21.5485 45.719032
-43.512461 21.401621 47.070583
-43.159734 22.863016 46.432857
-43.395319 21.652369 44.377865
-43.748045 20.190973 45.015591
-43.475708 21.5485 45.719032
-43.395319 21.652369 44.377865
-43.044759 23.103471 43.734684
-36.286487 43.144968 46.084606
-36.55896 41.78776 47.233147
-35.529857 42.503021 47.104602
-37.092526 43.738366 45.083576
-36.286487 43.144968 46.084606
-36.090298 21.20497 60.640618
-36.200968 19.554453 60.994166
-35.250498 20.190914 61.132185
-35.942332 22.861523 60.175078
-36.892802 22.225062 60.037058
-36.090298 21.20497 60.640618
-35.79982 24.515777 59.607994
-35.942332 22.861523 60.175078
-35.624809 26.166325 58.941457
-36.569824 25.532162 58.904981
-35.79982 24.515777 59.607994
-35.43483 27.806003 58.170599
-35.624809 26.166325 58.941457
-35.22195 29.430458 57.324358
-36.181934 28.807164 57.392204
-35.43483 27.806003 58.170599
-34.978892 31.041052 56.383743
-35.22195 29.430458 57.324358
-42.547193 31.979585 42.156593
-42.579319 30.591015 41.575405
-42.517862 30.457213 42.901554
-42.536932 33.340708 42.672257
-42.34738 33.147841 43.989575
-42.398575 34.642765 43.179089
-42.547193 31.979585 42.156593
-42.536932 33.340708 42.672257
-41.938996 39.904387 42.144593
-41.900114 38.500841 43.067635
-41.938996 39.904387 42.144593
-41.503339 40.997347 42.41152
-41.364985 16.913521 58.500574
-40.80269 16.13759 59.230415
-41.890179 17.68421 57.656507
-41.364985 16.913521 58.500574
-41.078234 18.485952 58.192855
-42.301985 18.341735 56.742609
-41.890179 17.68421 57.656507
-41.985606 19.897011 56.327341
-42.684162 18.982105 55.721161
-42.301985 18.341735 56.742609
-33.961294 41.027253 48.961994
-34.724443 41.795406 48.02646
-35.039181 40.377659 49.188676
-34.72618 32.623822 55.396114
-35.716343 32.014387 55.558334
-34.978892 31.041052 56.383743
-34.434781 34.195704 54.333005
-34.72618 32.623822 55.396114
-34.148587 35.726913 53.248798
-35.177437 35.128366 53.486497
-34.434781 34.195704 54.333005
-33.821827 37.254793 52.112302
-34.148587 35.726913 53.248798
-33.514221 38.729757 50.973263
-34.583637 38.13454 51.26325
-33.821827 37.254793 52.112302
-33.169672 40.211023 49.804884
-33.514221 38.729757 50.973263
-33.961294 41.027253 48.961994
-33.169672 40.211023 49.804884
-40.624174 12.167507 60.068153
-40.861475 10.656502 60.091322
-39.873291 11.315976 60.533903
-40.344166 13.693449 59.967321
-40.624174 12.167507 60.068153
-39.426045 14.396852 60.423094
-40.13422 15.26332 59.87968
-40.344166 13.693449 59.967321
-38.415514 15.022613 60.795321
-39.426045 14.396852 60.423094
-38.625459 13.452742 60.882961
-37.466331 15.682827 61.147991
-38.266917 16.626938 60.688124
-38.415514 15.022613 60.795321
-36.440765 16.2868 61.425203
-37.466331 15.682827 61.147991
-35.462483 16.913424 61.647672
-36.339451 17.913775 61.263264
-36.440765 16.2868 61.425203
-34.430878 17.510385 61.812725
-35.462483 16.913424 61.647672
-34.361035 19.148163 61.565531
-34.430878 17.510385 61.812725
-43.474992 20.740995 51.012571
-43.343847 20.38442 52.280133
-42.996178 21.887405 51.707777
-43.514148 21.001179 49.727888
-43.161905 22.480058 49.112313
-43.54873 21.237257 48.399985
-43.474992 20.740995 51.012571
-43.514148 21.001179 49.727888
-42.568154 27.63427 41.689562
-42.645811 26.109119 42.397581
-42.627645 27.543492 43.028385
-42.541387 27.727179 40.368879
-42.568154 27.63427 41.689562
-42.523222 29.161551 40.999684
-39.46645 43.884481 42.881187
-40.256847 42.988793 42.788496
-39.572212 42.573702 43.935225
-39.46645 43.884481 42.881187
-38.609345 44.747659 42.921394
3 0 17 15
3 0 19 17
3 0 21 19
3 1 24 22
3 3 27 25
3 3 29 27
3 3 31 29
3 2 33 32
3 4 36 34
3 4 64 66
3 66 65 36
3 64 65 66
3 4 67 68
3 70 69 37
3 72 71 39
3 6 43 41
3 8 44 16
3 8 45 44
3 8 47 45
3 74 73 18
3 9 75 77
3 77 76 20
3 75 76 77
3 9 78 80
3 78 79 80
3 10 48 23
3 10 49 48
3 5 50 40
3 11 51 26
3 11 52 51
3 11 53 52
3 12 54 28
3 12 55 54
3 12 57 55
3 14 58 30
3 14 59 58
3 81 60 82
3 81 82 83
3 85 84 60
3 7 61 42
3 87 86 35
3 89 88 46
3 13 62 56
3 90 63 91
3 92 91 38
3 90 91 92
3 94 93 63
3 15 16 6
3 17 16 15
3 17 8 16
3 17 18 8
3 19 18 17
3 19 95 97
3 97 96 18
3 95 96 97
3 19 98 100
3 98 20 99
3 98 99 100
3 21 20 19
3 21 9 20
3 22 101 103
3 101 23 102
3 101 102 103
3 24 23 22
3 24 10 23
3 25 26 5
3 27 26 25
3 27 11 26
3 27 28 11
3 29 28 27
3 29 12 28
3 29 30 12
3 31 30 29
3 31 14 30
3 32 104 105
3 33 106 108
3 108 107 32
3 106 107 108
3 33 109 110
3 34 35 7
3 36 35 34
3 36 111 113
3 113 112 35
3 111 112 113
3 36 114 116
3 114 115 116
3 118 117 36
3 37 38 13
3 119 38 120
3 121 120 37
3 119 120 121
3 123 122 38
3 39 40 1
3 124 40 125
3 126 125 39
3 124 125 126
3 127 5 128
3 129 128 40
3 127 128 129
3 130 5 131
3 132 25 133
3 134 133 5
3 132 133 134
3 135 25 136
3 137 3 138
3 139 138 25
3 137 138 139
3 141 140 3
3 41 42 2
3 43 42 41
3 43 7 42
3 16 43 6
3 44 43 16
3 44 7 43
3 44 34 7
3 45 34 44
3 45 4 34
3 45 46 4
3 47 46 45
3 47 142 144
3 144 143 46
3 142 143 144
3 18 47 8
3 145 47 146
3 147 146 18
3 145 146 147
3 149 148 47
3 20 150 151
3 153 152 20
3 23 154 155
3 48 156 158
3 158 157 23
3 156 157 158
3 48 159 160
3 48 161 163
3 161 32 162
3 161 162 163
3 49 32 48
3 49 2 32
3 40 24 1
3 50 24 40
3 50 10 24
3 26 50 5
3 51 50 26
3 51 10 50
3 51 49 10
3 52 49 51
3 52 2 49
3 52 41 2
3 53 41 52
3 53 6 41
3 28 53 11
3 54 53 28
3 54 6 53
3 54 15 6
3 55 15 54
3 55 0 15
3 55 56 0
3 57 56 55
3 57 13 56
3 30 57 12
3 58 57 30
3 58 13 57
3 58 37 13
3 59 37 58
3 59 164 166
3 166 165 37
3 164 165 166
3 167 31 168
3 169 168 3
3 167 168 169
3 170 31 171
3 172 14 173
3 174 173 31
3 172 173 174
3 175 14 176
3 177 59 178
3 179 178 14
3 177 178 179
3 180 59 181
3 183 182 59
3 60 184 186
3 184 185 186
3 60 187 188
3 60 189 191
3 189 22 190
3 189 190 191
3 192 22 193
3 194 193 60
3 192 193 194
3 195 1 196
3 197 196 22
3 195 196 197
3 198 1 199
3 200 39 201
3 202 201 1
3 200 201 202
3 203 39 204
3 206 205 39
3 42 33 2
3 61 33 42
3 61 207 209
3 209 208 33
3 207 208 209
3 35 61 7
3 210 61 211
3 212 211 35
3 210 211 212
3 214 213 61
3 46 215 217
3 217 216 4
3 215 216 217
3 220 219 46
3 218 219 220
3 56 21 0
3 62 21 56
3 62 9 21
3 38 62 13
3 63 62 38
3 63 9 62
3 63 221 223
3 223 222 9
3 221 222 223
3 225 224 63
