ply
format ascii 1.0
element vertex 138
property float x
property float y
property float z
element face 123
property list uchar int vertex_index
end_header
65.982262 -49.162354 -11.06752
64.903511 -43.102898 -13.892715
68.410751 -46.698837 -15.021206
63.259605 -51.215237 -7.060976
63.572037 -56.571243 -3.749819
66.351746 -55.133663 -7.777079
67.573204 -59.381557 -8.28941
68.567116 -53.122738 -11.830324
69.949295 -51.009819 -15.915129
64.154404 -47.349117 -10.562315
63.584915 -44.414856 -11.922812
65.495384 -46.136681 -12.544647
66.803612 -44.832352 -14.505032
67.257576 -47.957737 -13.050098
65.009094 -55.945332 -5.759787
66.106331 -58.01741 -6.00588
68.255211 -58.531433 -10.372562
68.233696 -56.29213 -10.092669
68.967796 -55.318302 -12.158844
69.372765 -52.04533 -13.868574
64.633316 -50.261284 -9.071079
63.530952 -53.938118 -5.451963
64.942741 -53.135944 -7.463396
66.291039 -52.169163 -9.47208
66.568863 -62.333588 -6.443237
66.653557 -60.148705 -6.226215
67.272057 -57.21439 -8.042089
67.550735 -54.174343 -9.800289
67.527679 -51.077686 -11.476847
68.610023 -49.916206 -13.479231
69.50174 -48.74704 -15.481451
65.812027 -59.392862 -5.093688
65.440258 -58.332926 -4.994366
68.475411 -58.102553 -11.424009
67.940502 -59.712809 -10.508627
68.831703 -56.495987 -12.31715
68.611503 -56.924868 -11.265703
68.475411 -58.102553 -11.424009
69.216469 -54.842024 -13.199331
68.831703 -56.495987 -12.31715
63.951966 -42.283794 -13.519707
63.292668 -42.939774 -12.534756
64.244213 -43.758877 -12.907764
64.589718 -41.582922 -14.501439
63.951966 -42.283794 -13.519707
65.566933 -42.405087 -14.864228
64.589718 -41.582922 -14.501439
68.217006 -45.090534 -15.733788
67.413437 -44.157291 -15.475701
67.607181 -45.765594 -14.763119
68.902916 -46.070287 -16.002561
68.217006 -45.090534 -15.733788
63.0457 -49.824145 -7.80918
62.416097 -50.290896 -6.796909
63.946461 -50.738261 -8.066028
63.732555 -49.347168 -8.814231
63.0457 -49.824145 -7.80918
62.835892 -56.781633 -2.751534
63.449784 -57.822677 -2.861547
62.840439 -55.562618 -3.596878
62.835892 -56.781633 -2.751534
63.551495 -55.254681 -4.600891
62.819896 -54.246055 -4.44795
62.840439 -55.562618 -3.596878
67.071033 -60.857573 -7.366324
66.893513 -61.984335 -7.488159
67.395684 -60.508319 -8.411245
70.061215 -49.320114 -16.699703
69.837437 -48.188724 -16.482864
69.725517 -49.878429 -15.69829
63.869659 -45.881986 -11.242563
62.956879 -45.012924 -10.924011
63.241623 -46.480055 -10.243762
62.584557 -51.608503 -6.051474
62.416097 -50.290896 -6.796909
64.173111 -57.609842 -3.866336
63.449784 -57.822677 -2.861547
64.891639 -57.296886 -4.87132
64.290565 -56.258288 -4.754803
64.173111 -57.609842 -3.866336
65.557713 -56.981371 -5.882834
64.891639 -57.296886 -4.87132
65.440258 -58.332926 -4.994366
67.736687 -60.083258 -9.452821
67.940502 -59.712809 -10.508627
67.914208 -58.956495 -9.330986
67.395684 -60.508319 -8.411245
67.736687 -60.083258 -9.452821
69.418953 -53.205538 -14.054196
69.170281 -53.681816 -13.013709
69.216469 -54.842024 -13.199331
69.707218 -52.687782 -15.077473
69.66103 -51.527575 -14.891852
69.418953 -53.205538 -14.054196
62.707306 -43.58713 -11.538982
62.956879 -45.012924 -10.924011
62.707306 -43.58713 -11.538982
63.292668 -42.939774 -12.534756
66.516983 -43.269813 -15.170386
65.566933 -42.405087 -14.864228
65.853561 -43.967625 -14.198874
66.516983 -43.269813 -15.170386
67.413437 -44.157291 -15.475701
63.493099 -47.891085 -9.55985
63.241623 -46.480055 -10.243762
64.39386 -48.8052 -9.816697
63.493099 -47.891085 -9.55985
63.732555 -49.347168 -8.814231
62.72023 -52.969944 -5.246967
62.819896 -54.246055 -4.44795
63.395279 -52.576678 -6.256469
62.584557 -51.608503 -6.051474
62.72023 -52.969944 -5.246967
66.214599 -63.451454 -6.552355
66.893513 -61.984335 -7.488159
65.899265 -63.708984 -5.507485
66.214599 -63.451454 -6.552355
66.125015 -62.625097 -5.408507
65.899265 -63.708984 -5.507485
66.167362 -61.532656 -5.299996
66.125015 -62.625097 -5.408507
66.61121 -61.241146 -6.334726
66.08564 -60.458509 -5.203855
66.167362 -61.532656 -5.299996
66.379944 -59.083057 -6.116048
65.812027 -59.392862 -5.093688
66.08564 -60.458509 -5.203855
69.44841 -47.094389 -16.232683
68.902916 -46.070287 -16.002561
68.956245 -47.722938 -15.251328
69.44841 -47.094389 -16.232683
69.837437 -48.188724 -16.482864
69.83836 -52.255245 -16.123306
69.707218 -52.687782 -15.077473
70.118092 -50.541534 -16.940432
69.83836 -52.255245 -16.123306
70.061215 -49.320114 -16.699703
70.118092 -50.541534 -16.940432
3 0 11 9
3 0 13 11
3 31 15 32
3 33 16 34
3 35 18 36
3 37 36 16
3 35 36 37
3 39 38 18
3 1 40 42
3 42 41 10
3 40 41 42
3 1 43 44
3 1 45 46
3 2 47 49
3 49 48 12
3 47 48 49
3 2 50 51
3 3 52 53
3 3 54 56
3 54 20 55
3 54 55 56
3 4 57 58
3 4 59 60
3 4 61 63
3 61 21 62
3 61 62 63
3 5 22 14
3 5 23 22
3 6 64 66
3 64 24 65
3 64 65 66
3 6 25 24
3 6 26 25
3 7 27 17
3 7 28 27
3 7 29 28
3 8 30 19
3 8 67 69
3 69 68 30
3 67 68 69
3 9 70 72
3 70 10 71
3 70 71 72
3 11 10 9
3 11 1 10
3 11 12 1
3 13 12 11
3 13 2 12
3 73 3 74
3 75 4 76
3 77 14 78
3 79 78 4
3 77 78 79
3 15 80 82
3 80 14 81
3 80 81 82
3 15 5 14
3 16 83 84
3 16 85 87
3 85 6 86
3 85 86 87
3 16 17 6
3 18 17 16
3 18 7 17
3 18 19 7
3 88 19 89
3 90 89 18
3 88 89 90
3 91 8 92
3 93 92 19
3 91 92 93
3 10 94 95
3 97 96 10
3 12 98 100
3 100 99 1
3 98 99 100
3 102 101 12
3 103 9 104
3 20 105 107
3 105 9 106
3 105 106 107
3 20 0 9
3 21 108 109
3 21 110 112
3 110 3 111
3 110 111 112
3 14 21 4
3 22 21 14
3 22 3 21
3 22 20 3
3 23 20 22
3 23 0 20
3 24 113 114
3 24 115 116
3 24 117 118
3 25 119 121
3 121 120 24
3 119 120 121
3 25 122 123
3 25 124 126
3 124 15 125
3 124 125 126
3 26 15 25
3 26 5 15
3 17 26 6
3 27 26 17
3 27 5 26
3 27 23 5
3 28 23 27
3 28 0 23
3 28 13 0
3 29 13 28
3 29 2 13
3 19 29 7
3 30 29 19
3 30 2 29
3 30 127 129
3 129 128 2
3 127 128 129
3 131 130 30
3 132 8 133
3 134 8 135
3 137 136 8
