ply
format ascii 1.0
element vertex 111
property float x
property float y
property float z
element face 90
property list uchar int vertex_index
end_header
34.284664 75.107491 4.032663
31.179878 75.204163 8.790934
29.275816 78.189423 2.916615
26.913677 80.713203 -3.028765
35.686287 72.221146 9.826101
35.880104 74.678276 1.751211
32.713364 75.279884 6.37823
30.270363 76.762787 5.87231
31.850872 76.661568 3.443318
30.88826 77.927887 0.490812
34.284019 72.087715 12.127665
29.706429 74.887383 11.278677
28.758575 76.66404 8.397055
27.744122 78.290794 5.459864
28.164421 79.503685 -0.057846
35.006794 73.736298 6.945076
36.518108 73.417274 4.651553
32.043686 73.494728 11.656511
33.510841 73.76049 9.27863
35.082384 74.892883 2.891937
34.680515 75.515984 1.427963
33.882796 75.730591 2.568689
33.882796 75.730591 2.568689
32.6659 76.50763 2.274017
33.067768 75.884529 3.737991
27.950615 78.986489 2.700114
27.184768 79.037174 3.971738
28.509969 78.240109 4.188239
28.720118 78.846554 1.429385
27.394917 79.643619 1.212884
27.950615 78.986489 2.700114
30.343302 78.511467 -0.984069
31.72587 77.710846 -0.664991
36.391458 72.121731 8.682983
36.051712 72.879307 7.24247
35.346541 72.978722 8.385589
32.474068 72.56147 13.054423
31.337413 73.223446 12.873536
37.281159 73.110325 3.526905
37.517988 72.457882 4.962516
25.443962 81.554157 -3.264995
26.143983 80.933303 -1.770093
35.512371 75.249752 0.302558
34.680515 75.515984 1.427963
36.686789 74.329277 0.643873
35.512371 75.249752 0.302558
32.184593 77.140789 0.797763
31.369566 77.294727 1.967065
32.6659 76.50763 2.274017
31.72587 77.710846 -0.664991
32.184593 77.140789 0.797763
36.672519 71.35191 10.113762
36.025514 71.387921 11.241702
34.678656 71.175354 13.515912
33.594234 71.857964 13.29
35.324381 71.321205 12.392485
34.678656 71.175354 13.515912
36.025514 71.387921 11.241702
34.985153 72.154431 10.976883
35.324381 71.321205 12.392485
26.212321 81.258117 -4.499349
27.737777 80.436981 -4.204711
28.521908 75.625874 11.151258
29.013708 74.613179 12.565189
28.047981 76.514203 9.710447
28.521908 75.625874 11.151258
29.232502 75.775711 9.837866
27.533798 77.44545 8.260321
28.047981 76.514203 9.710447
27.026572 78.258827 6.791726
27.533798 77.44545 8.260321
28.251348 77.477417 6.928459
26.468549 79.111389 5.312541
27.026572 78.258827 6.791726
26.468549 79.111389 5.312541
27.184768 79.037174 3.971738
26.769355 80.328544 -0.284633
27.394917 79.643619 1.212884
27.539049 80.108444 -1.543305
26.143983 80.933303 -1.770093
26.769355 80.328544 -0.284633
28.981383 79.299366 -1.258398
29.52634 78.715786 0.216483
30.343302 78.511467 -0.984069
28.356011 79.904125 -2.743857
27.539049 80.108444 -1.543305
28.981383 79.299366 -1.258398
27.737777 80.436981 -4.204711
28.356011 79.904125 -2.743857
36.807369 72.719795 6.095709
35.762451 73.576786 5.798315
36.051712 72.879307 7.24247
37.517988 72.457882 4.962516
36.807369 72.719795 6.095709
36.391458 72.121731 8.682983
36.672519 71.35191 10.113762
30.168785 73.919773 12.684619
29.013708 74.613179 12.565189
30.875058 74.191056 11.467594
30.168785 73.919773 12.684619
31.337413 73.223446 12.873536
33.163853 72.791222 11.892088
32.474068 72.56147 13.054423
33.594234 71.857964 13.29
36.962157 73.740825 2.076734
36.199106 74.047775 3.201382
37.281159 73.110325 3.526905
36.686789 74.329277 0.643873
36.962157 73.740825 2.076734
25.443962 81.554157 -3.264995
26.212321 81.258117 -4.499349
3 0 19 21
3 19 5 20
3 19 20 21
3 0 8 6
3 0 22 24
3 24 23 8
3 22 23 24
3 1 12 11
3 2 13 7
3 2 25 27
3 27 26 13
3 25 26 27
3 2 28 30
3 28 14 29
3 28 29 30
3 32 31 9
3 4 33 35
3 35 34 15
3 33 34 35
3 36 17 37
3 4 18 10
3 4 15 18
3 39 38 16
3 3 40 41
3 5 42 43
3 5 44 45
3 6 7 1
3 8 7 6
3 8 2 7
3 8 9 2
3 46 9 47
3 48 47 8
3 46 47 48
3 50 49 9
3 52 51 4
3 53 10 54
3 55 10 56
3 57 4 58
3 59 58 10
3 57 58 59
3 61 60 3
3 11 62 63
3 12 64 66
3 66 65 11
3 64 65 66
3 12 67 68
3 7 12 1
3 13 12 7
3 13 69 71
3 71 70 12
3 69 70 71
3 13 72 73
3 75 74 13
3 14 76 77
3 14 78 80
3 78 3 79
3 78 79 80
3 9 14 2
3 81 14 82
3 83 82 9
3 81 82 83
3 84 3 85
3 86 85 14
3 84 85 86
3 88 87 3
3 15 16 0
3 89 16 90
3 91 90 15
3 89 90 91
3 93 92 16
3 95 94 4
3 96 11 97
3 17 98 100
3 98 11 99
3 98 99 100
3 17 1 11
3 10 101 103
3 101 17 102
3 101 102 103
3 18 17 10
3 18 1 17
3 18 6 1
3 15 6 18
3 15 0 6
3 16 5 0
3 104 5 105
3 106 105 16
3 104 105 106
3 108 107 5
3 110 109 3
