ply
format ascii 1.0
element vertex 144
property float x
property float y
property float z
element face 128
property list uchar int vertex_index
end_header
-44.565247 11.4611 57.226658
-47.896828 8.063898 54.773369
-48.775925 9.545675 50.63559
-45.760605 13.489559 53.44054
-41.052341 14.559917 59.423908
-43.000542 17.42683 56.136429
-43.822662 19.23801 51.584927
-43.828434 20.087105 46.356758
-46.256516 9.786663 56.026409
-46.862953 10.745808 54.166664
-45.301441 12.596678 55.483734
-47.743225 4.352827 56.870594
-47.40184 12.032955 49.71862
-43.537987 18.470337 53.986019
-49.458252 6.333706 53.449085
-49.99646 7.095276 51.411762
-48.436295 8.894281 52.814922
-47.226898 11.486841 52.045952
-45.986427 14.145626 51.151413
-42.832138 13.057381 58.369652
-43.748058 14.397854 56.760555
-42.176929 16.111778 57.964226
-48.716915 5.419197 55.271408
-47.113678 7.043938 56.47839
-45.372719 8.614223 57.595638
-43.530361 10.105442 58.645027
-41.612358 11.508034 59.625572
-44.366276 15.489174 54.814537
-44.716835 16.31707 52.583256
-44.84705 16.898727 50.139301
-43.900974 19.758377 49.01556
-44.815273 17.280567 47.561008
-47.426609 12.232446 48.484428
-46.719398 13.316618 49.202585
-48.951978 4.106451 55.470255
-49.427908 4.597558 54.606009
-46.589742 6.446147 57.203167
-47.428452 5.698382 56.674492
-46.904516 5.100592 57.399269
-45.719263 7.23129 57.761791
-46.243198 7.82908 57.037014
-46.589742 6.446147 57.203167
-42.866753 9.33918 59.200002
-43.866636 8.681373 58.762692
-41.907751 10.040476 59.690275
-42.571359 10.806738 59.1353
-42.866753 9.33918 59.200002
-49.577534 8.635329 49.914234
-50.187801 7.41013 50.302321
-49.386192 8.320476 51.023676
-43.864704 19.922741 47.686159
-43.54873 21.237257 48.399985
-43.512461 21.401621 47.070583
-44.257357 18.807873 45.638367
-44.750776 17.404604 46.240492
-44.321854 18.683836 46.958883
-40.80269 16.13759 59.230415
-40.13422 15.26332 59.87968
-47.886721 3.028252 57.046915
-48.465134 3.573266 56.269848
-47.138363 3.753711 57.570329
-47.886721 3.028252 57.046915
-46.904516 5.100592 57.399269
-47.138363 3.753711 57.570329
-48.187758 11.043036 49.003096
-48.8748 9.799397 49.46158
-48.088882 10.789315 50.177105
-48.187758 11.043036 49.003096
-47.426609 12.232446 48.484428
-42.952885 19.503858 54.645956
-43.269265 17.948583 55.061224
-42.684162 18.982105 55.721161
-43.20151 20.000584 53.480678
-42.952885 19.503858 54.645956
-43.343847 20.38442 52.280133
-43.680324 18.854174 52.785473
-43.20151 20.000584 53.480678
-43.475708 21.5485 45.719032
-43.512461 21.401621 47.070583
-43.748045 20.190973 45.015591
-43.475708 21.5485 45.719032
-49.727356 6.714491 52.430424
-50.446647 5.867928 51.717419
-50.177543 5.487143 52.73608
-46.011692 14.372954 49.918982
-46.719398 13.316618 49.202585
-46.694133 13.089291 50.435017
-41.364985 16.913521 58.500574
-41.614635 15.335847 58.694067
-40.80269 16.13759 59.230415
-41.890179 17.68421 57.656507
-41.364985 16.913521 58.500574
-42.301985 18.341735 56.742609
-42.588735 16.769304 57.050327
-41.890179 17.68421 57.656507
-42.684162 18.982105 55.721161
-42.301985 18.341735 56.742609
-49.798576 5.054813 53.694847
-50.177543 5.487143 52.73608
-49.087584 5.876451 54.360247
-49.798576 5.054813 53.694847
-49.427908 4.597558 54.606009
-48.23007 4.886012 56.071001
-48.951978 4.106451 55.470255
-48.465134 3.573266 56.269848
-44.787815 7.935763 58.237997
-45.719263 7.23129 57.761791
-44.45154 9.359832 58.120333
-44.787815 7.935763 58.237997
-43.866636 8.681373 58.762692
-40.861475 10.656502 60.091322
-41.907751 10.040476 59.690275
-40.624174 12.167507 60.068153
-40.861475 10.656502 60.091322
-40.344166 13.693449 59.967321
-41.332349 13.033976 59.52474
-40.624174 12.167507 60.068153
-40.13422 15.26332 59.87968
-40.344166 13.693449 59.967321
-50.74495 6.245259 50.670215
-50.446647 5.867928 51.717419
-50.74495 6.245259 50.670215
-50.187801 7.41013 50.302321
-49.577534 8.635329 49.914234
-48.8748 9.799397 49.46158
-45.442003 15.749504 49.412926
-46.011692 14.372954 49.918982
-45.416739 15.522177 50.645357
-43.474992 20.740995 51.012571
-43.343847 20.38442 52.280133
-43.514148 21.001179 49.727888
-43.54873 21.237257 48.399985
-43.861818 19.498193 50.300244
-43.474992 20.740995 51.012571
-43.514148 21.001179 49.727888
-45.426115 15.940424 48.123779
-45.442003 15.749504 49.412926
-44.831162 17.089647 48.850155
-45.396459 16.096199 46.839472
-45.426115 15.940424 48.123779
-45.396459 16.096199 46.839472
-44.750776 17.404604 46.240492
-44.257357 18.807873 45.638367
-43.748045 20.190973 45.015591
3 0 10 8
3 33 32 12
3 1 16 14
3 3 17 9
3 3 18 17
3 4 21 19
3 34 22 35
3 36 23 37
3 38 37 11
3 36 37 38
3 39 24 40
3 41 40 23
3 39 40 41
3 42 25 43
3 44 26 45
3 46 45 25
3 44 45 46
3 2 47 49
3 49 48 15
3 47 48 49
3 5 27 20
3 6 28 13
3 6 29 28
3 7 50 52
3 50 30 51
3 50 51 52
3 7 31 30
3 7 53 55
3 55 54 31
3 53 54 55
3 8 9 1
3 10 9 8
3 10 3 9
3 57 56 4
3 58 11 59
3 60 11 61
3 63 62 11
3 12 64 66
3 66 65 2
3 64 65 66
3 68 67 12
3 69 13 70
3 71 70 5
3 69 70 71
3 72 13 73
3 74 6 75
3 76 75 13
3 74 75 76
3 77 7 78
3 80 79 7
3 14 81 83
3 81 15 82
3 81 82 83
3 16 15 14
3 16 2 15
3 9 16 1
3 17 16 9
3 17 2 16
3 17 12 2
3 18 12 17
3 18 84 86
3 86 85 12
3 84 85 86
3 19 20 0
3 21 20 19
3 21 5 20
3 87 21 88
3 89 88 4
3 87 88 89
3 90 21 91
3 92 5 93
3 94 93 21
3 92 93 94
3 96 95 5
3 97 14 98
3 22 99 101
3 99 14 100
3 99 100 101
3 22 1 14
3 11 102 104
3 102 22 103
3 102 103 104
3 23 22 11
3 23 1 22
3 23 8 1
3 24 8 23
3 24 0 8
3 105 24 106
3 25 107 109
3 107 24 108
3 107 108 109
3 25 0 24
3 25 19 0
3 26 19 25
3 26 4 19
3 110 26 111
3 112 26 113
3 114 4 115
3 116 115 26
3 114 115 116
3 118 117 4
3 15 119 120
3 122 121 15
3 124 123 2
3 20 10 0
3 27 10 20
3 27 3 10
3 13 27 5
3 28 27 13
3 28 3 27
3 28 18 3
3 29 18 28
3 29 125 127
3 127 126 18
3 125 126 127
3 128 6 129
3 30 130 131
3 30 132 134
3 132 6 133
3 132 133 134
3 30 29 6
3 31 29 30
3 31 135 137
3 137 136 29
3 135 136 137
3 31 138 139
3 141 140 31
3 143 142 7
