ply
format ascii 1.0
element vertex 309
property float x
property float y
property float z
element face 330
property list uchar int vertex_index
end_header
-2.518732 -36.854034 85.174385
-1.385149 -32.798794 75.856186
-0.418556 -27.919472 88.782555
-2.245325 -22.722704 83.696625
2.425772 -13.549232 87.134392
-1.435427 -17.521387 75.22155
-1.419146 -41.100468 82.19104
-0.618658 -39.319019 77.148117
-2.34025 -34.932823 80.813881
-1.673006 -38.345165 88.353355
2.739534 -23.841343 88.848022
0.710598 -20.960861 88.189117
-1.140312 -14.751128 83.259972
-2.084654 -20.070324 79.662674
-1.272547 -11.873024 79.58651
0.834612 -37.360783 71.857101
0.11776 -30.592783 70.763824
-2.23303 -32.360302 87.507278
-2.797518 -30.200508 84.264587
-1.758249 -25.41008 86.892784
-0.535023 -17.831114 86.227203
-0.631191 -34.096256 89.204781
-2.518164 -27.850916 80.002472
-1.624052 -25.469837 75.257912
-0.268726 -23.097549 70.442749
-2.118055 -39.019958 83.734833
-1.970209 -38.135902 81.437569
-2.542715 -35.932758 83.104073
-2.236853 -37.667336 86.948128
-1.646086 -40.444641 87.532669
-2.019556 -39.798965 85.792397
3.452881 -20.537983 88.533966
-1.259115 -13.284345 81.493233
-1.067102 -36.166679 76.416275
0.043213 -38.351799 74.50959
-0.37499 -35.128204 73.813545
0.437153 -34.073975 71.21064
-0.689178 -31.700279 73.304832
-1.51185 -30.11149 88.294525
-2.109541 -28.986881 87.188698
-1.204657 -26.704411 88.02861
1.51265 -17.295248 87.720978
-0.003916 -19.40624 87.352951
0.810041 -15.59822 86.894867
0.261292 -13.90844 85.823883
1.72035 -11.726894 86.358177
0.604519 -29.020462 89.114891
0.442701 -32.00753 89.228249
-0.660688 -31.127787 88.984512
-1.567553 -33.295578 88.574806
-2.608782 -26.54401 83.951752
-2.74774 -29.036705 82.225349
-2.564554 -25.285385 81.952271
-1.816114 -18.783838 77.469437
-2.028101 -22.787018 77.512863
-1.573378 -21.558311 75.183624
-0.996155 -24.283638 72.839493
-1.008831 -20.339914 72.841377
-1.117239 -40.243649 79.727722
-1.609007 -37.176064 78.975868
-1.944334 -33.881065 78.376663
-0.815891 -38.866585 89.333305
-0.013865 -41.255096 89.799248
-0.978958 -40.934246 88.885498
1.013977 -25.820862 88.9627
0.053459 -24.515331 88.534798
1.623762 -22.453171 88.698212
2.389654 -18.957211 88.276443
3.275599 -15.36404 87.689896
2.190678 -27.001751 88.982491
-1.744204 -18.779253 83.47258
-2.233183 -21.384396 81.755653
-1.787409 -17.372625 81.610092
-1.71163 -16.007421 79.605095
-1.525663 -14.682049 77.50116
1.004625 -29.477825 68.264893
-2.566786 -34.62236 86.451233
-2.776079 -33.648945 84.664864
-2.635836 -31.318253 86.049118
-2.467081 -27.786915 85.719727
-2.09651 -24.072323 85.428917
-0.688 -23.120964 87.726608
-1.220194 -21.677006 86.580597
-1.563547 -20.220119 85.145798
-0.905602 -16.271053 84.850296
-0.15733 -12.258762 84.531952
3.419678 -9.747101 86.450478
0.569067 -34.743301 89.379608
-0.302263 -36.795105 89.493217
-1.339396 -36.219048 88.91526
-2.093653 -35.488167 87.888474
-2.749285 -32.597755 82.602142
-2.518896 -31.496574 80.33786
-2.116167 -30.367664 77.941696
-2.363405 -24.029873 79.786255
-2.136602 -26.659311 77.661148
-1.56735 -29.225916 75.474205
-0.893875 -28.078827 72.985214
-0.116625 -26.927849 70.514069
0.737217 -25.770618 68.090828
-1.230207 -13.389866 75.337273
-0.946371 -16.276134 72.9571
-0.345671 -19.125895 70.519691
0.534533 -21.906897 68.095451
1.627377 -24.603373 65.738686
-1.268193 -40.672058 80.959381
-0.809312 -41.669314 80.159988
-0.960265 -42.097723 81.391648
-1.234897 -41.710586 87.844814
-1.473179 -41.469337 87.007995
-1.071927 -42.472774 82.607849
-1.454895 -41.480415 83.329872
-0.960265 -42.097723 81.391648
-1.071927 -42.472774 82.607849
3.339764 -18.040116 88.143253
2.921267 -19.747597 88.405204
3.871377 -18.830503 88.272015
3.782736 -16.243531 87.84998
2.832626 -17.160626 87.98317
3.339764 -18.040116 88.143253
2.465106 -25.421547 88.915256
3.120385 -26.04582 88.800824
3.394813 -24.465615 88.733589
-0.039 -40.346227 76.258126
-0.343232 -40.790365 77.584
1.060996 -38.906958 72.270866
0.665296 -39.402466 73.59711
0.438913 -37.856291 73.183346
1.483317 -38.438633 70.931583
1.060996 -38.906958 72.270866
1.276168 -36.859022 70.541187
1.483317 -38.438633 70.931583
0.726194 -31.801564 69.702228
0.88589 -33.54216 69.925636
0.277456 -32.333379 70.987232
0.561193 -30.035304 69.514359
1.169626 -31.244085 68.452763
0.726194 -31.801564 69.702228
0.503494 -42.345369 90.015583
-0.031365 -42.273375 89.610562
0.488794 -11.098239 84.951618
0.051981 -13.083601 85.177918
0.698105 -11.923078 85.597583
0.245095 -10.234573 84.357247
0.488794 -11.098239 84.951618
3.941247 -7.828475 86.070641
4.35683 -8.862151 86.287999
3.057032 -8.781751 86.102623
3.941247 -7.828475 86.070641
-1.103918 -11.292303 75.413845
-1.205526 -11.951121 76.456089
-0.651393 -15.658748 71.831375
-0.885104 -14.199637 73.051586
-0.351043 -17.083628 70.612671
-0.646021 -17.701014 71.738395
-0.651393 -15.658748 71.831375
0.954859 -21.307334 66.95679
0.464794 -19.908959 68.169387
1.501281 -22.655572 65.778408
1.080955 -23.255135 66.917068
0.954859 -21.307334 66.95679
2.062242 -24.013168 64.607754
1.501281 -22.655572 65.778408
-1.659914 -41.1465 86.137859
-1.473179 -41.469337 87.007995
-1.832821 -40.121803 86.662533
-1.7551 -40.829664 85.13055
-1.659914 -41.1465 86.137859
-1.80435 -40.440161 84.101768
-1.7551 -40.829664 85.13055
-2.068805 -39.409462 84.763615
-1.768601 -40.060213 82.962936
-1.454895 -41.480415 83.329872
-1.80435 -40.440161 84.101768
4.07778 -21.266265 88.501305
3.096208 -22.189663 88.690994
3.721106 -22.917945 88.658333
4.466018 -19.657528 88.304577
4.07778 -21.266265 88.501305
3.871377 -18.830503 88.272015
4.466018 -19.657528 88.304577
3.721106 -22.917945 88.658333
3.394813 -24.465615 88.733589
4.376385 -23.542217 88.5439
-0.86288 -11.976946 82.26812
-1.199714 -14.017736 82.376603
-0.803478 -12.710337 83.151489
-0.968981 -11.216618 81.437687
-0.86288 -11.976946 82.26812
-0.975698 -10.510957 80.484326
-1.265831 -12.578684 80.539872
-0.968981 -11.216618 81.437687
1.427634 -10.832304 85.864731
0.698105 -11.923078 85.597583
0.990821 -12.817667 86.09103
0.52361 -30.513996 89.17157
1.149253 -30.993465 89.119286
1.230163 -29.499931 89.062607
-0.592523 -41.25268 78.873802
-0.809312 -41.669314 80.159988
-0.867949 -39.781334 78.437919
-0.343232 -40.790365 77.584
-0.592523 -41.25268 78.873802
-0.414878 -40.06084 89.566277
0.157773 -40.238349 89.828774
-0.24324 -39.044094 89.595802
-0.513912 -42.112949 89.153686
-0.031365 -42.273375 89.610562
-0.496412 -41.094671 89.342373
-0.901334 -41.955389 88.521229
-1.312522 -40.689443 88.209083
-1.234897 -41.710586 87.844814
-0.513912 -42.112949 89.153686
-0.901334 -41.955389 88.521229
2.880191 -27.516503 88.786194
3.120385 -26.04582 88.800824
2.023242 -28.490576 88.996407
2.880191 -27.516503 88.786194
1.397598 -28.011106 89.048691
1.230163 -29.499931 89.062607
2.023242 -28.490576 88.996407
0.291935 -39.862617 74.938862
-0.039 -40.346227 76.258126
-0.287722 -38.835409 75.828854
0.291935 -39.862617 74.938862
0.665296 -39.402466 73.59711
1.077438 -35.215618 70.217956
1.276168 -36.859022 70.541187
0.635883 -35.717379 71.533871
1.077438 -35.215618 70.217956
0.88589 -33.54216 69.925636
1.638578 -30.707905 67.197533
1.169626 -31.244085 68.452763
1.466733 -28.915529 67.049046
1.638578 -30.707905 67.197533
0.611526 -41.331581 90.025483
0.157773 -40.238349 89.828774
0.611526 -41.331581 90.025483
0.503494 -42.345369 90.015583
-0.311987 -11.464154 83.78748
-0.803478 -12.710337 83.151489
-0.648821 -13.504945 83.895962
-0.311987 -11.464154 83.78748
0.245095 -10.234573 84.357247
4.248017 -14.491632 87.48951
3.782736 -16.243531 87.84998
3.764143 -13.530698 87.325543
4.248017 -14.491632 87.48951
3.339229 -12.623295 87.047791
2.850685 -14.456636 87.412144
3.764143 -13.530698 87.325543
3.836182 -10.722229 86.705834
4.773334 -9.83728 86.543354
4.35683 -8.862151 86.287999
2.922725 -11.648167 86.792435
3.339229 -12.623295 87.047791
3.836182 -10.722229 86.705834
2.207368 -9.771648 86.056472
2.570014 -10.736998 86.404327
3.057032 -8.781751 86.102623
1.427634 -10.832304 85.864731
2.207368 -9.771648 86.056472
1.113707 -32.370072 89.127552
1.149253 -30.993465 89.119286
1.17689 -33.737957 89.203232
1.113707 -32.370072 89.127552
0.505884 -33.375416 89.303929
1.29194 -34.986466 89.247868
1.17689 -33.737957 89.203232
0.787094 -35.975689 89.498233
1.29194 -34.986466 89.247868
0.351429 -37.00159 89.555038
0.787094 -35.975689 89.498233
0.133402 -35.769203 89.436413
0.013574 -38.008354 89.675758
0.351429 -37.00159 89.555038
-0.559077 -37.830845 89.413261
-0.24324 -39.044094 89.595802
0.013574 -38.008354 89.675758
1.333029 -27.061926 66.962013
1.466733 -28.915529 67.049046
0.870921 -27.624221 68.177861
-1.033637 -9.784344 79.581215
-0.975698 -10.510957 80.484326
-1.226696 -11.1927 78.580708
-1.033637 -9.784344 79.581215
-1.353254 -12.597212 77.538032
-1.399105 -13.277537 78.543835
-1.226696 -11.1927 78.580708
-1.377935 -14.035957 76.419217
-1.353254 -12.597212 77.538032
-1.205526 -11.951121 76.456089
-1.027022 -12.756504 74.241672
-1.103918 -11.292303 75.413845
-1.088289 -14.833 74.147187
-1.027022 -12.756504 74.241672
-0.885104 -14.199637 73.051586
0.024693 -18.518458 69.381507
-0.351043 -17.083628 70.612671
0.094431 -20.516396 69.307571
0.024693 -18.518458 69.381507
0.464794 -19.908959 68.169387
1.778109 -26.478303 65.785943
1.333029 -27.061926 66.962013
1.182297 -25.186996 66.914757
2.229999 -25.909413 64.614674
1.778109 -26.478303 65.785943
2.229999 -25.909413 64.614674
2.062242 -24.013168 64.607754
3 0 27 25
3 0 30 28
3 0 25 30
3 1 35 33
3 1 37 35
3 2 40 38
3 4 43 41
3 4 45 43
3 2 48 46
3 2 38 48
3 3 52 50
3 5 55 53
3 5 57 55
3 6 105 107
3 105 58 106
3 105 106 107
3 8 59 26
3 8 60 59
3 9 63 61
3 109 108 29
3 6 110 111
3 6 112 113
3 10 66 64
3 114 67 115
3 116 115 31
3 114 115 116
3 117 68 118
3 119 118 67
3 117 118 119
3 10 120 122
3 120 69 121
3 120 121 122
3 10 64 69
3 12 72 70
3 14 73 32
3 14 74 73
3 7 123 124
3 15 125 127
3 127 126 34
3 125 126 127
3 15 128 129
3 15 130 131
3 16 132 134
3 134 133 36
3 132 133 134
3 16 135 137
3 135 75 136
3 135 136 137
3 139 138 62
3 17 78 76
3 19 79 39
3 19 80 79
3 11 81 65
3 20 82 42
3 20 83 82
3 20 84 83
3 140 85 141
3 142 141 44
3 140 141 142
3 144 143 85
3 145 86 146
3 148 147 86
3 21 87 47
3 21 88 87
3 21 89 88
3 17 90 49
3 17 76 90
3 18 91 77
3 22 92 51
3 22 93 92
3 13 94 71
3 23 95 54
3 23 96 95
3 23 97 96
3 24 98 56
3 24 99 98
3 149 100 150
3 151 101 152
3 153 102 154
3 155 154 101
3 153 154 155
3 156 103 157
3 158 104 159
3 160 159 103
3 158 159 160
3 162 161 104
3 25 26 6
3 27 26 25
3 27 8 26
3 28 29 9
3 30 29 28
3 30 163 165
3 165 164 29
3 163 164 165
3 30 166 167
3 25 168 170
3 170 169 30
3 168 169 170
3 25 171 173
3 171 6 172
3 171 172 173
3 174 31 175
3 176 175 10
3 174 175 176
3 177 31 178
3 180 179 31
3 181 10 182
3 181 182 183
3 184 32 185
3 186 185 12
3 184 185 186
3 187 32 188
3 189 14 190
3 191 190 32
3 189 190 191
3 33 34 7
3 35 34 33
3 35 15 34
3 35 36 15
3 37 36 35
3 37 16 36
3 38 39 17
3 40 39 38
3 40 19 39
3 41 42 11
3 43 42 41
3 43 20 42
3 43 44 20
3 45 44 43
3 45 192 194
3 194 193 44
3 192 193 194
3 46 195 197
3 195 47 196
3 195 196 197
3 48 47 46
3 48 21 47
3 48 49 21
3 38 49 48
3 38 17 49
3 50 51 18
3 52 51 50
3 52 22 51
3 53 54 13
3 55 54 53
3 55 23 54
3 55 56 23
3 57 56 55
3 57 24 56
3 58 198 199
3 58 200 202
3 200 7 201
3 200 201 202
3 26 58 6
3 59 58 26
3 59 7 58
3 59 33 7
3 60 33 59
3 60 1 33
3 61 203 205
3 203 62 204
3 203 204 205
3 63 62 61
3 63 206 208
3 208 207 62
3 206 207 208
3 29 63 9
3 209 63 210
3 211 210 29
3 209 210 211
3 213 212 63
3 64 65 2
3 66 65 64
3 66 11 65
3 31 66 10
3 67 66 31
3 67 11 66
3 67 41 11
3 68 41 67
3 68 4 41
3 69 214 215
3 69 216 217
3 69 218 220
3 218 46 219
3 218 219 220
3 64 46 69
3 64 2 46
3 70 71 3
3 72 71 70
3 72 13 71
3 32 72 12
3 73 72 32
3 73 13 72
3 73 53 13
3 74 53 73
3 74 5 53
3 34 221 223
3 223 222 7
3 221 222 223
3 225 224 34
3 36 226 228
3 228 227 15
3 226 227 228
3 230 229 36
3 75 231 232
3 75 233 234
3 62 235 236
3 238 237 62
3 76 77 0
3 78 77 76
3 78 18 77
3 39 78 17
3 79 78 39
3 79 18 78
3 79 50 18
3 80 50 79
3 80 3 50
3 65 40 2
3 81 40 65
3 81 19 40
3 42 81 11
3 82 81 42
3 82 19 81
3 82 80 19
3 83 80 82
3 83 3 80
3 83 70 3
3 84 70 83
3 84 12 70
3 44 84 20
3 85 84 44
3 85 12 84
3 85 239 241
3 241 240 12
3 239 240 241
3 243 242 85
3 244 68 245
3 246 68 247
3 248 4 249
3 250 249 68
3 248 249 250
3 86 251 253
3 251 252 253
3 86 254 256
3 254 4 255
3 254 255 256
3 86 45 4
3 257 45 258
3 259 258 86
3 257 258 259
3 261 260 45
3 47 262 263
3 87 264 266
3 266 265 47
3 264 265 266
3 87 267 268
3 87 269 270
3 88 271 273
3 273 272 87
3 271 272 273
3 88 274 275
3 88 276 278
3 276 61 277
3 276 277 278
3 89 61 88
3 89 9 61
3 49 89 21
3 90 89 49
3 90 9 89
3 90 28 9
3 76 28 90
3 76 0 28
3 77 27 0
3 91 27 77
3 91 8 27
3 51 91 18
3 92 91 51
3 92 8 91
3 92 60 8
3 93 60 92
3 93 1 60
3 71 52 3
3 94 52 71
3 94 22 52
3 54 94 13
3 95 94 54
3 95 22 94
3 95 93 22
3 96 93 95
3 96 1 93
3 96 37 1
3 97 37 96
3 97 16 37
3 56 97 23
3 98 97 56
3 98 16 97
3 98 75 16
3 99 75 98
3 99 279 281
3 281 280 75
3 279 280 281
3 282 14 283
3 284 14 285
3 286 74 287
3 288 287 14
3 286 287 288
3 100 289 291
3 289 74 290
3 289 290 291
3 100 5 74
3 292 100 293
3 101 294 296
3 294 100 295
3 294 295 296
3 101 5 100
3 101 57 5
3 102 57 101
3 102 24 57
3 297 102 298
3 103 299 301
3 299 102 300
3 299 300 301
3 103 24 102
3 103 99 24
3 104 99 103
3 104 302 304
3 304 303 99
3 302 303 304
3 104 305 306
3 308 307 104
