ply
format ascii 1.0
element vertex 169
property float x
property float y
property float z
element face 153
property list uchar int vertex_index
end_header
2.329779 81.102547 -20.01346
7.045027 88.504112 -9.574484
4.757772 75.901688 -29.055029
4.359369 85.723862 -15.037514
4.080807 86.187019 -8.539371
2.389862 81.784668 -13.838078
8.220436 87.170906 -15.584801
5.283703 84.121857 -20.717611
3.059479 79.236282 -25.245634
7.108955 81.16304 -25.087946
3.266441 83.620285 -17.597952
3.155724 84.03569 -14.500984
2.285103 81.573143 -17.010775
9.095245 86.092499 -18.192392
6.666056 85.896584 -18.215521
7.503386 84.70784 -20.712442
6.083651 82.827728 -23.093061
8.560108 83.179199 -22.847372
8.60372 89.128441 -6.708649
8.104055 89.342232 -3.372589
6.654255 88.770012 -6.280787
3.261049 84.1035 -7.884285
3.791517 77.766563 -27.349474
5.620672 87.364105 -12.356218
5.334152 87.678268 -9.115393
4.167082 86.087509 -11.861628
3.17457 84.188927 -11.24696
9.189787 88.653801 -9.880892
7.549059 87.971397 -12.693123
6.047853 86.774918 -15.409401
4.716311 85.076813 -18.010965
3.562578 82.914009 -20.47637
2.576153 80.336472 -22.781008
4.08399 81.883759 -23.068884
4.847708 80.494682 -25.313425
5.842043 78.716393 -27.165022
8.326233 79.104347 -26.676344
5.127897 87.726761 -5.736496
1.929012 79.928764 -19.689209
1.906674 80.164062 -18.187866
2.307441 81.337845 -18.512117
1.927345 79.663994 -21.135647
1.929012 79.928764 -19.689209
9.638578 85.402752 -19.327393
10.519352 85.914139 -18.06992
8.842648 84.710422 -20.587418
8.299316 85.40017 -19.452417
9.638578 85.402752 -19.327393
9.371009 83.946102 -21.654882
8.031747 83.94352 -21.779907
8.842648 84.710422 -20.587418
3.081443 82.672344 -5.813155
3.308913 83.950749 -6.16519
3.033578 82.825096 -7.53225
3.828753 75.303143 -29.115307
3.345625 76.23558 -28.262529
4.274644 76.834125 -28.202252
2.486717 81.776298 -12.193385
2.879071 82.978428 -10.897827
2.782216 82.986797 -12.542519
2.180599 80.436699 -13.460155
2.486717 81.776298 -12.193385
10.449987 88.420014 -9.946468
10.056461 88.742905 -8.43447
9.068995 87.550667 -14.214866
9.524993 87.066414 -15.567681
7.884747 87.571151 -14.138962
8.733307 87.950913 -12.769027
9.068995 87.550667 -14.214866
9.004942 77.87463 -27.270344
9.76139 79.045234 -26.299298
7.67777 77.819641 -27.642592
9.004942 77.87463 -27.270344
7.870297 89.313141 -1.641071
7.211166 89.054836 -3.113897
2.397358 78.318184 -25.072357
2.155695 78.868279 -23.840044
2.817816 79.786377 -24.013321
1.990743 80.301777 -16.649092
2.043123 80.407539 -15.062743
2.337483 81.678905 -15.424426
1.990743 80.301777 -16.649092
1.906674 80.164062 -18.187866
9.962397 86.52721 -16.871477
11.386505 86.34885 -16.749004
10.519352 85.914139 -18.06992
8.65784 86.631703 -16.888597
9.524993 87.066414 -15.567681
9.962397 86.52721 -16.871477
8.353887 89.235336 -5.040619
9.178025 89.292766 -3.572623
9.427858 89.185871 -5.240653
6.486266 88.768726 -4.567996
7.211166 89.054836 -3.113897
7.379155 89.056122 -4.826688
3.650075 85.070793 -6.498878
4.059954 86.112553 -6.82642
3.670928 85.14526 -8.211828
3.650075 85.070793 -6.498878
3.308913 83.950749 -6.16519
2.991134 77.002167 -27.285992
2.625115 77.737026 -26.234071
3.425498 78.501423 -26.297554
2.991134 77.002167 -27.285992
3.345625 76.23558 -28.262529
2.922311 82.935714 -9.216489
3.217809 84.146214 -9.565622
2.879071 82.978428 -10.897827
3.033578 82.825096 -7.53225
2.922311 82.935714 -9.216489
2.180599 80.436699 -13.460155
2.043123 80.407539 -15.062743
4.301029 74.341251 -29.892117
5.337717 74.768692 -29.706266
9.763427 88.980224 -6.848349
9.427858 89.185871 -5.240653
8.896753 88.891121 -8.294771
9.763427 88.980224 -6.848349
10.056461 88.742905 -8.43447
9.553671 88.292114 -11.362911
10.449987 88.420014 -9.946468
8.369423 88.312599 -11.287007
9.553671 88.292114 -11.362911
8.733307 87.950913 -12.769027
10.009355 83.088852 -22.601268
9.371009 83.946102 -21.654882
9.184012 82.228943 -23.716755
10.009355 83.088852 -22.601268
8.458435 81.220864 -24.837042
7.834531 82.17112 -23.967659
9.184012 82.228943 -23.716755
9.067074 80.191517 -25.631241
9.76139 79.045234 -26.299298
7.717594 80.133693 -25.882145
8.458435 81.220864 -24.837042
9.067074 80.191517 -25.631241
6.435675 77.625664 -27.88693
7.084138 78.91037 -26.920683
7.67777 77.819641 -27.642592
5.893539 76.218311 -28.831934
5.299907 77.30904 -28.110025
6.435675 77.625664 -27.88693
5.337717 74.768692 -29.706266
5.893539 76.218311 -28.831934
8.87369 89.369243 -1.888189
9.94766 89.319778 -2.088224
9.178025 89.292766 -3.572623
8.639931 89.340152 -0.156671
8.87369 89.369243 -1.888189
7.870297 89.313141 -1.641071
5.723087 88.247101 -4.29585
6.486266 88.768726 -4.567996
5.891076 88.248386 -6.008641
4.583499 86.882424 -5.424983
4.604352 86.95689 -7.137933
4.059954 86.112553 -6.82642
5.035778 87.622101 -3.996444
4.583499 86.882424 -5.424983
5.723087 88.247101 -4.29585
5.035778 87.622101 -3.996444
2.050533 79.280957 -22.519421
1.927345 79.663994 -21.135647
2.452966 80.71951 -21.397234
2.050533 79.280957 -22.519421
2.155695 78.868279 -23.840044
2.397358 78.318184 -25.072357
2.625115 77.737026 -26.234071
3.828753 75.303143 -29.115307
4.301029 74.341251 -29.892117
3 0 12 10
3 0 38 40
3 40 39 12
3 38 39 40
3 0 41 42
3 43 13 44
3 45 15 46
3 47 46 13
3 45 46 47
3 48 17 49
3 50 49 15
3 48 49 50
3 1 20 18
3 53 52 21
3 51 52 53
3 2 54 56
3 56 55 22
3 54 55 56
3 3 25 23
3 5 26 11
3 5 57 59
3 59 58 26
3 57 58 59
3 5 60 61
3 62 27 63
3 6 64 65
3 6 66 68
3 66 28 67
3 66 67 68
3 6 29 28
3 7 30 14
3 7 31 30
3 7 33 31
3 9 34 16
3 9 35 34
3 69 36 70
3 72 71 36
3 74 73 19
3 4 37 24
3 8 75 77
3 77 76 32
3 75 76 77
3 10 11 3
3 12 11 10
3 12 5 11
3 12 78 80
3 80 79 5
3 78 79 80
3 82 81 12
3 13 83 85
3 83 84 85
3 13 86 88
3 86 6 87
3 86 87 88
3 13 14 6
3 15 14 13
3 15 7 14
3 15 16 7
3 17 16 15
3 17 9 16
3 18 89 91
3 89 19 90
3 89 90 91
3 20 19 18
3 20 92 94
3 94 93 19
3 92 93 94
3 21 95 97
3 97 96 4
3 95 96 97
3 99 98 21
3 22 100 102
3 102 101 8
3 100 101 102
3 104 103 22
3 23 24 1
3 25 24 23
3 25 4 24
3 11 25 3
3 26 25 11
3 26 4 25
3 26 21 4
3 105 21 106
3 107 106 26
3 105 106 107
3 109 108 21
3 111 110 5
3 113 112 2
3 114 18 115
3 27 116 118
3 116 18 117
3 116 117 118
3 27 1 18
3 119 27 120
3 28 121 123
3 121 27 122
3 121 122 123
3 28 1 27
3 28 23 1
3 29 23 28
3 29 3 23
3 14 29 6
3 30 29 14
3 30 3 29
3 30 10 3
3 31 10 30
3 31 0 10
3 31 32 0
3 33 32 31
3 33 8 32
3 16 33 7
3 34 33 16
3 34 8 33
3 34 22 8
3 35 22 34
3 35 2 22
3 124 17 125
3 126 17 127
3 128 9 129
3 130 129 17
3 128 129 130
3 36 131 132
3 36 133 135
3 133 9 134
3 133 134 135
3 36 35 9
3 136 35 137
3 138 137 36
3 136 137 138
3 139 2 140
3 141 140 35
3 139 140 141
3 143 142 2
3 19 144 146
3 144 145 146
3 149 148 19
3 147 148 149
3 24 20 1
3 37 20 24
3 37 150 152
3 152 151 20
3 150 151 152
3 153 37 154
3 155 154 4
3 153 154 155
3 156 37 157
3 159 158 37
3 32 160 162
3 162 161 0
3 160 161 162
3 164 163 32
3 166 165 8
3 168 167 2
