ply
format ascii 1.0
element vertex 549
property float x
property float y
property float z
element face 658
property list uchar int vertex_index
end_header
-64.629013 -24.938894 -12.7575
-64.425568 -44.320827 -14.268452
-68.232971 -40.90509 -0.132874
-59.763653 -60.233524 2.75519
-62.414448 -33.423592 -14.541996
-63.001595 -22.489141 -19.99498
-62.703194 -57.422855 9.48945
-64.020142 -50.350029 0.683265
-68.119522 -49.338448 7.818119
-67.32251 -55.998566 -11.840799
-68.88221 -44.673256 -20.708767
-66.594696 -32.439659 -7.178049
-63.033287 -64.740814 -2.882072
-63.194962 -53.434086 -5.876457
-63.482162 -42.669312 -7.248564
-63.250572 -28.555046 -13.7679
-62.499809 -28.126354 -17.56715
-63.330482 -23.838373 -15.952736
-65.268852 -57.135265 13.156497
-66.016922 -53.412476 8.533728
-67.489502 -53.41687 12.256681
-66.253845 -50.0471 -13.234179
-68.285942 -50.636299 -16.375706
-66.927498 -44.541172 -17.516312
-60.956787 -62.531532 -0.140606
-63.492458 -59.046001 -4.493874
-61.785309 -57.082909 -1.631521
-66.365227 -45.563507 0.203606
-63.969345 -46.635719 -3.34318
-65.803757 -41.584175 -3.626156
-64.877808 -37.447643 -7.307131
-67.593544 -36.688213 -3.758776
-62.866066 -38.767673 -14.731834
-64.869873 -38.736855 -18.229
-63.105072 -33.22155 -18.300228
-63.630116 -27.215942 -21.419472
-58.879417 -61.374638 10.802597
-60.42762 -58.409515 5.986139
-61.765038 -55.224854 1.504417
-63.562416 -53.941788 4.930567
-66.428078 -49.500683 4.227912
-68.404808 -45.119583 3.705335
-66.884918 -62.116474 -10.371033
-68.241028 -57.011356 -15.042976
-68.954857 -51.332954 -19.65324
-67.514015 -38.400284 -21.491867
-66.607544 -23.921135 -10.081797
-68.889 -36.536247 -0.521688
-68.535706 -32.106461 -3.90193
-67.758636 -27.79546 -7.049839
-65.474945 -28.293432 -10.306019
-61.29612 -70.229485 -1.352654
-64.583862 -66.56311 -5.799797
-65.649857 -60.727791 -7.315315
-65.222786 -54.880554 -8.848652
-63.985153 -49.209045 -10.096088
-62.634563 -51.786823 -2.71624
-62.962227 -47.993534 -6.808855
-62.920475 -43.69492 -10.841192
-62.834599 -38.289272 -11.030058
-63.889328 -33.079502 -10.765882
-63.963879 -26.489389 -13.245298
-63.193733 -26.243145 -14.975481
-63.953655 -24.438416 -14.156855
-66.186523 -57.095181 15.052882
-66.597641 -55.296871 12.67911
-67.099838 -55.303692 14.5961
-65.372147 -47.158966 -13.812176
-66.612579 -47.378059 -15.401529
-65.650803 -44.467316 -15.909319
-58.601761 -61.647137 5.048193
-58.81176 -62.787861 3.521657
-60.16626 -61.359676 1.270284
-61.405998 -59.794201 -0.925827
-60.838959 -58.715836 0.534358
-67.405701 -43.210373 0.031425
-66.14254 -43.585415 -1.730598
-67.136047 -41.166885 -1.85487
-66.754402 -39.108292 -3.698912
-67.967911 -38.800186 -1.970167
-62.470806 -36.059566 -14.718212
-62.939949 -36.064705 -16.567398
-62.489048 -33.391521 -16.440083
-62.72221 -25.343307 -18.853752
-62.849468 -27.719837 -19.511242
-63.127083 -24.759361 -20.850872
-62.187878 -59.084755 11.888387
-60.183712 -60.926041 12.563566
-60.813377 -59.398655 10.100142
-59.659378 -59.92017 8.352586
-61.43029 -57.807846 7.712549
-61.998371 -56.168858 5.408463
-63.171162 -55.701263 7.168692
-67.262405 -51.375427 8.158724
-66.275146 -51.465302 6.341395
-67.471085 -49.34008 6.019982
-67.571732 -47.294106 3.958569
-68.314423 -47.232906 5.723035
-67.31897 -59.049507 -11.098278
-67.664764 -59.638866 -12.701382
-67.977341 -56.496422 -13.410839
-68.614212 -47.728287 -18.58186
-68.827301 -50.94923 -17.995041
-69.099747 -47.960823 -20.206783
-69.156708 -48.2854 -21.861935
-69.298996 -44.833313 -22.329811
-65.148026 -35.711914 -20.074612
-66.217125 -38.583214 -19.883339
-68.7659 -34.316307 -2.244364
-67.925247 -25.630838 -7.005487
-67.224831 -25.772343 -8.567019
-61.391144 -66.450104 -0.684446
-62.336491 -67.531746 -2.089077
-63.050102 -68.499359 -3.564051
-63.950119 -65.700874 -4.301165
-65.325424 -63.667297 -6.536991
-64.461731 -62.830357 -5.08832
-63.389526 -56.218769 -5.231443
-64.45961 -57.047207 -6.665546
-64.103134 -54.199703 -7.375389
-64.646004 -52.020649 -9.525066
-63.655964 -51.399124 -7.986694
-62.861214 -52.77404 1.042043
-62.268284 -53.542358 -0.63028
-63.110767 -51.013786 -1.042498
-63.767471 -44.694778 -5.307777
-63.21669 -47.306683 -5.094265
-63.10355 -45.320503 -7.086136
-62.967529 -45.917076 -8.83399
-62.924278 -43.216812 -9.058735
-62.726162 -40.97731 -11.002035
-63.154716 -40.538883 -9.160835
-65.750198 -34.90641 -7.252819
-64.367096 -35.291458 -9.074648
-65.199203 -32.764156 -8.940071
-64.677582 -30.619356 -10.536432
-66.029892 -30.332703 -8.788824
-62.694408 -30.90086 -14.216389
-62.38847 -30.823383 -16.127335
-62.64085 -28.413363 -15.634607
-62.749493 -25.844358 -16.871906
-62.981705 -23.186859 -17.932465
-63.588177 -58.920475 13.710917
-64.050308 -57.219097 11.304655
-64.467239 -55.430088 8.97067
-65.673721 -55.315266 10.806807
-66.963928 -53.374043 10.37888
-67.837311 -51.412212 9.995836
-66.940704 -52.993393 -12.565115
-67.869812 -53.393738 -14.118553
-67.388367 -50.352226 -14.793518
-67.748337 -47.550697 -16.984711
-68.0578 -44.591782 -19.109283
-61.975315 -63.676357 -1.510025
-63.401192 -61.897854 -3.697321
-62.31834 -60.874416 -2.324324
-62.488819 -58.082329 -3.086594
-62.574295 -55.325336 -3.762297
-65.208557 -47.946468 0.411654
-64.058685 -48.514252 -1.35009
-65.088348 -46.037811 -1.571356
-64.846542 -44.097122 -3.516249
-64.503342 -42.10495 -5.430664
-64.091324 -40.041447 -7.314442
-65.371078 -39.543018 -5.486494
-66.282066 -37.023254 -5.500645
-67.127243 -34.565872 -5.497042
-63.549141 -41.52441 -14.579891
-64.630768 -41.612839 -16.287642
-63.686062 -38.810585 -16.512861
-63.887905 -35.93943 -18.356483
-64.149338 -32.934368 -20.096252
-62.621914 -30.604675 -18.041405
-63.347797 -30.262699 -19.917938
-57.913734 -62.052963 9.083189
-58.889153 -60.674362 6.662245
-59.846519 -59.22937 4.328435
-60.737831 -57.710304 2.07709
-61.141911 -56.845085 3.705462
-62.484386 -54.490456 3.187652
-63.851601 -52.157101 2.77204
-64.812897 -53.58836 6.716512
-65.063278 -51.71957 4.543263
-65.199203 -49.837997 2.445314
-66.460709 -47.532715 2.185753
-67.551773 -45.250408 1.965954
-68.379288 -43.009865 1.756482
-67.601059 -60.254936 -14.367363
-68.094681 -57.58028 -16.724407
-68.46489 -53.794949 -15.719429
-68.657967 -54.241875 -17.370483
-65.926865 -41.604424 -17.940441
-67.226593 -41.543419 -19.55212
-68.333664 -41.484047 -21.143932
-65.546501 -24.414515 -11.568121
-68.728668 -45.173378 5.419901
-68.844711 -43.004726 3.439063
-68.854553 -40.836693 1.530687
-68.752579 -38.671745 -0.31278
-68.538231 -36.508499 -2.096827
-68.216118 -34.34668 -3.823967
-67.796486 -32.192719 -5.494188
-68.198517 -29.922867 -5.500408
-67.295853 -30.066042 -7.10598
-66.737061 -28.006254 -8.656792
-66.147232 -26.083206 -10.142834
-64.981766 -26.416012 -11.679747
-65.864265 -64.430267 -8.068256
-66.445381 -61.444672 -8.803204
-66.596008 -58.44627 -9.567789
-64.610497 -59.932594 -5.89003
-65.591705 -57.788155 -8.099199
-66.357307 -55.473011 -10.327116
-65.806938 -52.547428 -11.042345
-65.053322 -49.675735 -11.675966
-64.225266 -46.852402 -12.196264
-61.522564 -56.108246 -0.104029
-62.171333 -54.413128 -2.2325
-62.669235 -52.613251 -4.327616
-63.226707 -49.197289 -3.082842
-62.861275 -49.943352 -4.77129
-63.018597 -50.694733 -6.405901
-63.239986 -48.641586 -8.476654
-63.370304 -46.437183 -10.538811
-63.457047 -44.06736 -12.580219
-62.870949 -41.313301 -12.814766
-62.559929 -38.591549 -12.896872
-62.572941 -35.915825 -12.833248
-63.653805 -37.891182 -9.158104
-63.241219 -35.647465 -10.942663
-62.905689 -33.313988 -12.640343
-63.498829 -30.828259 -12.346319
-64.242111 -28.512901 -11.997948
-64.169083 -22.197065 -14.792124
-63.586151 -21.315094 -16.744171
-63.265343 -20.452486 -18.840298
-66.438571 -57.0565 16.029012
-65.968868 -57.906015 16.271225
-66.895229 -56.160755 15.800621
-66.64318 -56.199436 14.824491
-66.438571 -57.0565 16.029012
-63.198748 -22.117672 -21.033009
-63.261492 -23.252781 -21.460954
-63.064339 -23.624251 -20.422926
-65.830308 -35.569023 -20.900858
-65.296135 -34.138763 -20.946558
-67.851837 -24.603993 -6.978611
-67.968361 -25.689478 -6.253717
-67.610969 -23.594935 -7.731544
-67.68438 -24.62178 -7.75842
-67.851837 -24.603993 -6.978611
-64.428515 -58.02787 13.433707
-64.206907 -58.873638 14.642181
-65.047245 -57.981033 14.364971
-60.661957 -63.898449 0.27407
-60.202041 -63.276401 0.968213
-61.466051 -63.103944 -0.825315
-61.171221 -64.470861 -0.41064
-60.661957 -63.898449 0.27407
-64.034922 -28.520474 -21.574396
-63.893763 -30.043852 -20.823629
-63.488957 -28.73932 -20.668705
-64.169924 -26.929187 -22.341875
-64.034922 -28.520474 -21.574396
-58.505218 -62.070616 12.064322
-59.157366 -61.846317 12.944807
-59.531565 -61.15034 11.683082
-57.925537 -62.372944 11.195105
-58.505218 -62.070616 12.064322
-58.396575 -61.7138 9.942893
-57.442695 -62.712107 10.335401
-57.925537 -62.372944 11.195105
-66.902336 -62.45029 -11.192613
-66.448234 -63.636584 -10.027808
-68.697643 -53.049116 -19.355518
-68.549199 -54.503577 -18.21414
-68.806412 -52.787414 -18.511862
-68.81165 -51.571859 -20.495107
-68.697643 -53.049116 -19.355518
-68.975155 -48.501525 -22.698913
-69.213516 -46.69437 -22.919382
-66.259262 -23.117553 -10.869636
-65.728741 -23.364243 -11.612798
-66.077022 -24.167825 -10.824959
-68.567913 -45.283516 6.268709
-68.623066 -46.252842 6.450351
-68.836433 -41.992437 3.288158
-68.751068 -43.099973 4.261646
-68.742791 -42.087684 4.110741
-68.841354 -40.90842 2.33397
-68.849632 -41.92071 2.484875
-68.836433 -41.992437 3.288158
-68.898487 -37.647531 0.374441
-68.69569 -36.669021 0.225327
-68.820789 -37.603996 -0.417234
-68.830276 -38.715281 0.478895
-68.898487 -37.647531 0.374441
-67.978577 -28.859164 -6.275124
-68.237297 -28.846802 -5.50505
-68.017357 -27.783099 -6.279765
-60.337074 -70.991344 -0.252036
-60.911196 -69.691524 -0.620175
-60.61788 -71.519093 -1.023266
-60.337074 -70.991344 -0.252036
-61.536915 -70.709462 -2.126787
-60.61788 -71.519093 -1.023266
-64.007345 -67.967422 -5.464507
-63.240465 -68.935547 -4.346634
-63.816982 -67.531234 -4.681924
-64.716877 -66.960319 -6.594354
-64.007345 -67.967422 -5.464507
-65.224063 -65.496689 -6.934026
-65.357079 -65.893898 -7.728583
-64.716877 -66.960319 -6.594354
-64.663937 -21.579212 -14.08682
-64.524121 -22.675774 -13.928354
-63.722831 -20.009825 -17.071537
-64.010914 -20.550565 -16.022883
-63.562427 -19.578521 -18.119601
-63.425747 -20.88379 -17.792234
-63.722831 -20.009825 -17.071537
-65.50608 -57.960991 15.313163
-65.968868 -57.906015 16.271225
-65.727688 -57.115223 14.104689
-65.047245 -57.981033 14.364971
-65.50608 -57.960991 15.313163
-57.999672 -62.870184 5.446831
-58.003781 -62.308644 6.2366
-58.104671 -63.440546 4.683562
-57.999672 -62.870184 5.446831
-58.706761 -62.217499 4.284925
-58.328484 -64.071421 3.935189
-58.104671 -63.440546 4.683562
-59.129528 -63.404566 2.799345
-58.328484 -64.071421 3.935189
-59.806778 -62.690473 1.673658
-59.129528 -63.404566 2.799345
-59.48901 -62.073768 2.39597
-60.561523 -61.945604 0.564839
-60.202041 -63.276401 0.968213
-59.806778 -62.690473 1.673658
-63.512552 -24.434044 -21.832315
-63.764069 -25.662335 -22.116616
-63.378599 -25.987651 -21.135172
-63.512552 -24.434044 -21.832315
-63.261492 -23.252781 -21.460954
-61.185795 -60.005398 12.225976
-60.919557 -60.792265 13.458991
-61.92164 -59.871622 13.121402
-69.284661 -44.968327 -23.15332
-69.213516 -46.69437 -22.919382
-69.227852 -46.559356 -22.095873
-66.364857 -37.004673 -20.805222
-65.682575 -37.147564 -19.978975
-65.830308 -35.569023 -20.900858
-67.013302 -36.913208 -21.609485
-66.86557 -38.491749 -20.687603
-66.364857 -37.004673 -20.805222
-66.721863 -22.842177 -10.081222
-67.025528 -23.766928 -9.296575
-68.744225 -35.529258 -0.639755
-68.69569 -36.669021 0.225327
-68.682675 -34.419289 -1.501093
-68.82745 -35.426277 -1.383026
-68.744225 -35.529258 -0.639755
-68.684319 -33.281019 -2.325739
-68.682675 -34.419289 -1.501093
-68.569221 -32.176096 -3.154522
-68.650803 -33.211384 -3.073147
-68.684319 -33.281019 -2.325739
-68.100662 -26.700788 -6.257589
-67.968361 -25.689478 -6.253717
-67.841941 -26.713149 -7.027663
-68.017357 -27.783099 -6.279765
-68.100662 -26.700788 -6.257589
-67.334171 -24.692532 -8.539186
-67.575039 -25.701591 -7.786253
-67.68438 -24.62178 -7.75842
-67.025528 -23.766928 -9.296575
-66.916188 -24.846739 -9.324408
-67.334171 -24.692532 -8.539186
-60.958708 -67.801834 -0.286071
-60.487484 -67.203712 0.418739
-61.431382 -68.342655 -0.988387
-60.958708 -67.801834 -0.286071
-61.863817 -66.990925 -1.386761
-61.816305 -68.880616 -1.720865
-60.911196 -69.691524 -0.620175
-61.431382 -68.342655 -0.988387
-63.346991 -59.707585 14.943897
-64.206907 -58.873638 14.642181
-62.62179 -59.789482 14.032667
-63.346991 -59.707585 14.943897
-62.888027 -59.002615 12.799652
-61.92164 -59.871622 13.121402
-62.62179 -59.789482 14.032667
-60.879135 -65.857735 0.00215
-60.487484 -67.203712 0.418739
-61.683229 -65.063231 -1.097236
-60.879135 -65.857735 0.00215
-61.171221 -64.470861 -0.41064
-64.796791 -32.74999 -20.957378
-65.296135 -34.138763 -20.946558
-64.648682 -34.323141 -20.085432
-64.294533 -31.379687 -20.912786
-63.748568 -31.598534 -20.007095
-63.893763 -30.043852 -20.823629
-64.796791 -32.74999 -20.957378
-64.294533 -31.379687 -20.912786
-64.169924 -26.929187 -22.341875
-63.764069 -25.662335 -22.116616
-59.880029 -61.648262 13.826122
-60.919557 -60.792265 13.458991
-59.880029 -61.648262 13.826122
-59.157366 -61.846317 12.944807
-57.074005 -63.135421 9.486555
-57.442695 -62.712107 10.335401
-57.659767 -62.511556 8.254098
-57.074005 -63.135421 9.486555
-58.147476 -61.822256 7.043626
-57.659767 -62.511556 8.254098
-58.401443 -61.363663 7.872717
-58.745457 -61.16075 5.855219
-58.003781 -62.308644 6.2366
-58.147476 -61.822256 7.043626
-67.292259 -61.211486 -12.357788
-66.902336 -62.45029 -11.192613
-67.274841 -60.87767 -11.536207
-67.260407 -61.519521 -13.190778
-67.292259 -61.211486 -12.357788
-67.632912 -59.946901 -13.534372
-67.079956 -61.868706 -14.036796
-67.260407 -61.519521 -13.190778
-67.374882 -60.589996 -15.217163
-67.079956 -61.868706 -14.036796
-67.621693 -59.252668 -16.395685
-67.374882 -60.589996 -15.217163
-67.84787 -58.917608 -15.545885
-67.831131 -57.900694 -17.574665
-67.621693 -59.252668 -16.395685
-68.267556 -56.172779 -17.891101
-68.376324 -55.911078 -17.047445
-68.549199 -54.503577 -18.21414
-67.831131 -57.900694 -17.574665
-68.267556 -56.172779 -17.891101
-68.912575 -50.048082 -21.599455
-68.81165 -51.571859 -20.495107
-69.055782 -49.809177 -20.757587
-68.912575 -50.048082 -21.599455
-68.975155 -48.501525 -22.698913
-67.64146 -36.76803 -22.412615
-67.013302 -36.913208 -21.609485
-68.041256 -38.322216 -22.285289
-67.64146 -36.76803 -22.412615
-68.45108 -39.864097 -22.111322
-67.923839 -39.942166 -21.317899
-68.041256 -38.322216 -22.285289
-68.714599 -41.482247 -21.941183
-68.45108 -39.864097 -22.111322
-68.988872 -43.076851 -21.723601
-68.607937 -43.078651 -20.92635
-68.714599 -41.482247 -21.941183
-69.197266 -43.15688 -22.534123
-69.090603 -44.753284 -21.519289
-68.988872 -43.076851 -21.723601
-69.360115 -43.204971 -23.341425
-69.197266 -43.15688 -22.534123
-69.284661 -44.968327 -23.15332
-69.360115 -43.204971 -23.341425
-65.212829 -23.7845 -12.316353
-64.754086 -24.046689 -12.911043
-65.087757 -24.676704 -12.16281
-65.212829 -23.7845 -12.316353
-65.728741 -23.364243 -11.612798
-66.259262 -23.117553 -10.869636
-66.721863 -22.842177 -10.081222
-67.108551 -55.281824 15.580799
-66.895229 -56.160755 15.800621
-67.301327 -54.388943 14.385731
-67.108551 -55.281824 15.580799
-67.496159 -53.445532 13.216022
-67.29467 -54.360281 13.426391
-67.301327 -54.388943 14.385731
-67.685356 -52.469839 12.058236
-67.496159 -53.445532 13.216022
-67.859261 -51.46751 10.927813
-67.663407 -52.414541 11.126259
-67.685356 -52.469839 12.058236
-68.032521 -50.436174 9.811439
-67.859261 -51.46751 10.927813
-68.173626 -49.399292 8.72258
-67.978417 -50.37533 8.906977
-68.032521 -50.436174 9.811439
-68.318493 -48.335377 7.64946
-68.173626 -49.399292 8.72258
-68.415943 -47.282606 6.601918
-68.216972 -48.285677 6.770577
-68.318493 -48.335377 7.64946
-68.521546 -46.203142 5.571468
-68.415943 -47.282606 6.601918
-68.623066 -46.252842 6.450351
-68.693047 -44.184299 5.252066
-68.567913 -45.283516 6.268709
-68.786689 -44.089052 4.429482
-68.693047 -44.184299 5.252066
-68.751068 -43.099973 4.261646
-68.881263 -39.797754 1.400629
-68.841354 -40.90842 2.33397
-68.803566 -39.754219 0.608953
-68.881263 -39.797754 1.400629
-68.830276 -38.715281 0.478895
-68.517357 -31.046885 -3.943756
-68.569221 -32.176096 -3.154522
-68.348762 -29.955088 -4.742995
-68.387542 -28.879023 -4.747637
-68.237297 -28.846802 -5.50505
-68.367111 -31.014664 -4.701169
-68.517357 -31.046885 -3.943756
-68.348762 -29.955088 -4.742995
-62.413906 -69.844398 -3.232485
-61.536915 -70.709462 -2.126787
-62.173111 -69.364422 -2.458353
-62.413906 -69.844398 -3.232485
-63.240465 -68.935547 -4.346634
-65.937908 -64.79348 -8.87642
-65.357079 -65.893898 -7.728583
-66.374592 -63.27337 -9.219645
-66.448234 -63.636584 -10.027808
-65.937908 -64.79348 -8.87642
-64.416406 -23.79645 -13.61072
-64.291334 -24.688655 -13.457178
-64.754086 -24.046689 -12.911043
-64.061369 -23.31774 -14.47449
-64.416406 -23.79645 -13.61072
-64.524121 -22.675774 -13.928354
-64.30238 -20.991551 -15.04686
-64.663937 -21.579212 -14.08682
-63.877617 -21.756079 -15.768148
-64.30238 -20.991551 -15.04686
-64.010914 -20.550565 -16.022883
-63.394644 -19.061476 -19.230372
-63.562427 -19.578521 -18.119601
-63.268439 -20.018864 -19.923752
-63.394644 -19.061476 -19.230372
-63.136565 -21.037192 -20.501093
-63.133469 -21.470813 -19.417639
-63.268439 -20.018864 -19.923752
-63.198748 -22.117672 -21.033009
-63.136565 -21.037192 -20.501093
3 0 63 61
3 236 64 237
3 238 66 239
3 240 239 64
3 238 239 240
3 1 69 67
3 3 71 70
3 3 72 71
3 3 74 72
3 2 77 75
3 2 79 77
3 4 82 80
3 5 85 83
3 5 241 243
3 243 242 85
3 241 242 243
3 6 88 86
3 6 90 88
3 6 92 90
3 8 95 93
3 8 97 95
3 9 100 98
3 10 103 101
3 10 105 103
3 245 244 106
3 246 109 247
3 250 249 109
3 248 249 250
3 12 112 111
3 12 114 112
3 12 116 114
3 13 119 117
3 13 121 119
3 7 124 122
3 14 127 125
3 14 129 127
3 14 131 129
3 11 134 132
3 11 136 134
3 15 139 137
3 17 140 62
3 17 141 140
3 18 251 253
3 251 142 252
3 251 252 253
3 18 143 142
3 18 145 143
3 20 146 65
3 20 147 146
3 21 150 148
3 23 151 68
3 23 152 151
3 24 254 255
3 24 256 258
3 256 153 257
3 256 257 258
3 24 155 153
3 26 156 73
3 26 157 156
3 27 160 158
3 29 161 76
3 29 162 161
3 29 164 162
3 31 165 78
3 31 166 165
3 32 169 167
3 34 170 81
3 34 171 170
3 16 172 138
3 35 173 84
3 35 259 261
3 261 260 173
3 259 260 261
3 35 262 263
3 36 264 266
3 266 265 87
3 264 265 266
3 36 267 268
3 36 269 271
3 269 174 270
3 269 270 271
3 37 175 89
3 37 176 175
3 37 178 176
3 39 179 91
3 39 180 179
3 19 181 144
3 40 182 94
3 40 183 182
3 40 184 183
3 41 185 96
3 41 186 185
3 42 272 273
3 43 187 99
3 43 188 187
3 22 189 149
3 44 190 102
3 44 274 276
3 276 275 190
3 274 275 276
3 44 277 278
3 280 279 104
3 33 191 168
3 45 192 107
3 45 193 192
3 46 281 283
3 283 282 194
3 281 282 283
3 284 195 285
3 286 196 287
3 286 287 288
3 289 197 290
3 291 290 196
3 289 290 291
3 47 292 293
3 47 294 296
3 294 198 295
3 294 295 296
3 47 199 198
3 48 200 108
3 48 201 200
3 49 297 299
3 297 202 298
3 297 298 299
3 49 203 202
3 49 204 203
3 46 205 110
3 46 194 205
3 51 300 301
3 51 302 303
3 51 304 305
3 52 306 308
3 308 307 113
3 306 307 308
3 52 309 310
3 52 311 313
3 311 207 312
3 311 312 313
3 53 208 115
3 53 209 208
3 25 210 154
3 54 211 118
3 54 212 211
3 54 213 212
3 55 214 120
3 55 215 214
3 38 216 177
3 56 217 123
3 56 218 217
3 28 219 159
3 57 220 126
3 57 221 220
3 57 222 221
3 58 223 128
3 58 224 223
3 58 225 224
3 59 226 130
3 59 227 226
3 30 228 163
3 60 229 133
3 60 230 229
3 60 231 230
3 50 232 135
3 50 206 232
3 314 233 315
3 316 234 317
3 318 235 319
3 320 319 234
3 318 319 320
3 61 62 15
3 63 62 61
3 63 17 62
3 64 321 322
3 64 323 325
3 323 18 324
3 323 324 325
3 64 65 18
3 66 65 64
3 66 20 65
3 67 68 21
3 69 68 67
3 69 23 68
3 70 326 327
3 71 328 330
3 330 329 70
3 328 329 330
3 71 331 332
3 71 333 334
3 72 335 337
3 337 336 71
3 335 336 337
3 72 338 340
3 338 24 339
3 338 339 340
3 72 73 24
3 74 73 72
3 74 26 73
3 75 76 27
3 77 76 75
3 77 29 76
3 77 78 29
3 79 78 77
3 79 31 78
3 80 81 32
3 82 81 80
3 82 34 81
3 83 84 16
3 85 84 83
3 85 35 84
3 85 341 343
3 343 342 35
3 341 342 343
3 345 344 85
3 86 346 348
3 346 87 347
3 346 347 348
3 88 87 86
3 88 36 87
3 88 89 36
3 90 89 88
3 90 37 89
3 90 91 37
3 92 91 90
3 92 39 91
3 93 94 19
3 95 94 93
3 95 40 94
3 95 96 40
3 97 96 95
3 97 41 96
3 98 99 42
3 100 99 98
3 100 43 99
3 101 102 22
3 103 102 101
3 103 44 102
3 103 104 44
3 105 104 103
3 105 349 351
3 351 350 104
3 349 350 351
3 106 107 33
3 352 107 353
3 354 353 106
3 352 353 354
3 355 45 356
3 357 356 107
3 355 356 357
3 359 358 46
3 360 47 361
3 362 108 363
3 364 363 47
3 362 363 364
3 365 108 366
3 367 48 368
3 369 368 108
3 367 368 369
3 109 370 371
3 109 372 374
3 372 49 373
3 372 373 374
3 109 110 49
3 375 110 376
3 377 376 109
3 375 376 377
3 378 46 379
3 380 379 110
3 378 379 380
3 111 381 382
3 112 383 385
3 385 384 111
3 383 384 385
3 112 386 388
3 386 51 387
3 386 387 388
3 112 113 51
3 114 113 112
3 114 52 113
3 114 115 52
3 116 115 114
3 116 53 115
3 117 118 25
3 119 118 117
3 119 54 118
3 119 120 54
3 121 120 119
3 121 55 120
3 122 123 38
3 124 123 122
3 124 56 123
3 125 126 28
3 127 126 125
3 127 57 126
3 127 128 57
3 129 128 127
3 129 58 128
3 129 130 58
3 131 130 129
3 131 59 130
3 132 133 30
3 134 133 132
3 134 60 133
3 134 135 60
3 136 135 134
3 136 50 135
3 137 138 4
3 139 138 137
3 139 16 138
3 62 139 15
3 140 139 62
3 140 16 139
3 140 83 16
3 141 83 140
3 141 5 83
3 142 389 390
3 142 391 392
3 142 393 395
3 393 86 394
3 393 394 395
3 143 86 142
3 143 6 86
3 143 144 6
3 145 144 143
3 145 19 144
3 65 145 18
3 146 145 65
3 146 19 145
3 146 93 19
3 147 93 146
3 147 8 93
3 148 149 9
3 150 149 148
3 150 22 149
3 68 150 21
3 151 150 68
3 151 22 150
3 151 101 22
3 152 101 151
3 152 10 101
3 396 111 397
3 153 398 400
3 398 111 399
3 398 399 400
3 153 12 111
3 153 154 12
3 155 154 153
3 155 25 154
3 73 155 24
3 156 155 73
3 156 25 155
3 156 117 25
3 157 117 156
3 157 13 117
3 158 159 7
3 160 159 158
3 160 28 159
3 76 160 27
3 161 160 76
3 161 28 160
3 161 125 28
3 162 125 161
3 162 14 125
3 162 163 14
3 164 163 162
3 164 30 163
3 78 164 29
3 165 164 78
3 165 30 164
3 165 132 30
3 166 132 165
3 166 11 132
3 167 168 1
3 169 168 167
3 169 33 168
3 81 169 32
3 170 169 81
3 170 33 169
3 170 106 33
3 171 106 170
3 171 401 403
3 403 402 106
3 401 402 403
3 138 82 4
3 172 82 138
3 172 34 82
3 84 172 16
3 173 172 84
3 173 34 172
3 173 171 34
3 404 171 405
3 406 405 173
3 404 405 406
3 408 407 171
3 410 409 35
3 87 411 412
3 414 413 87
3 174 415 416
3 174 417 418
3 89 174 36
3 175 174 89
3 175 419 421
3 421 420 174
3 419 420 421
3 175 422 424
3 422 70 423
3 422 423 424
3 176 70 175
3 176 3 70
3 176 177 3
3 178 177 176
3 178 38 177
3 91 178 37
3 179 178 91
3 179 38 178
3 179 122 38
3 180 122 179
3 180 7 122
3 144 92 6
3 181 92 144
3 181 39 92
3 94 181 19
3 182 181 94
3 182 39 181
3 182 180 39
3 183 180 182
3 183 7 180
3 183 158 7
3 184 158 183
3 184 27 158
3 96 184 40
3 185 184 96
3 185 27 184
3 185 75 27
3 186 75 185
3 186 2 75
3 99 425 427
3 427 426 42
3 425 426 427
3 187 428 430
3 430 429 99
3 428 429 430
3 187 431 432
3 187 433 434
3 188 435 437
3 437 436 187
3 435 436 437
3 188 438 439
3 149 100 9
3 189 100 149
3 189 43 100
3 102 189 22
3 190 189 102
3 190 43 189
3 190 188 43
3 440 188 441
3 442 441 190
3 440 441 442
3 444 443 188
3 104 445 447
3 447 446 44
3 445 446 447
3 449 448 104
3 168 69 1
3 191 69 168
3 191 23 69
3 107 191 33
3 192 191 107
3 192 23 191
3 192 152 23
3 193 152 192
3 193 10 152
3 450 45 451
3 452 45 453
3 454 193 455
3 456 455 45
3 454 455 456
3 457 193 458
3 459 10 460
3 461 460 193
3 459 460 461
3 462 105 463
3 464 463 10
3 462 463 464
3 465 105 466
3 468 467 105
3 194 469 471
3 471 470 0
3 469 470 471
3 473 472 194
3 475 474 46
3 476 66 477
3 478 66 479
3 480 20 481
3 482 481 66
3 480 481 482
3 483 20 484
3 485 147 486
3 487 486 20
3 485 486 487
3 488 147 489
3 490 8 491
3 492 491 147
3 490 491 492
3 493 8 494
3 495 97 496
3 497 496 8
3 495 496 497
3 195 498 500
3 498 97 499
3 498 499 500
3 195 41 97
3 501 195 502
3 196 503 505
3 503 195 504
3 503 504 505
3 196 41 195
3 196 186 41
3 197 186 196
3 197 2 186
3 506 197 507
3 198 508 510
3 508 197 509
3 508 509 510
3 198 2 197
3 198 79 2
3 199 79 198
3 199 31 79
3 108 199 47
3 200 199 108
3 200 31 199
3 200 166 31
3 201 166 200
3 201 11 166
3 511 48 512
3 202 513 515
3 513 514 515
3 202 516 518
3 516 48 517
3 516 517 518
3 202 201 48
3 203 201 202
3 203 11 201
3 203 136 11
3 204 136 203
3 204 50 136
3 110 204 49
3 205 204 110
3 205 50 204
3 205 206 50
3 194 206 205
3 194 0 206
3 113 519 521
3 521 520 51
3 519 520 521
3 523 522 113
3 207 524 525
3 207 526 528
3 526 42 527
3 526 527 528
3 115 207 52
3 208 207 115
3 208 42 207
3 208 98 42
3 209 98 208
3 209 9 98
3 154 116 12
3 210 116 154
3 210 53 116
3 118 210 25
3 211 210 118
3 211 53 210
3 211 209 53
3 212 209 211
3 212 9 209
3 212 148 9
3 213 148 212
3 213 21 148
3 120 213 54
3 214 213 120
3 214 21 213
3 214 67 21
3 215 67 214
3 215 1 67
3 177 74 3
3 216 74 177
3 216 26 74
3 123 216 38
3 217 216 123
3 217 26 216
3 217 157 26
3 218 157 217
3 218 13 157
3 159 124 7
3 219 124 159
3 219 56 124
3 126 219 28
3 220 219 126
3 220 56 219
3 220 218 56
3 221 218 220
3 221 13 218
3 221 121 13
3 222 121 221
3 222 55 121
3 128 222 57
3 223 222 128
3 223 55 222
3 223 215 55
3 224 215 223
3 224 1 215
3 224 167 1
3 225 167 224
3 225 32 167
3 130 225 58
3 226 225 130
3 226 32 225
3 226 80 32
3 227 80 226
3 227 4 80
3 163 131 14
3 228 131 163
3 228 59 131
3 133 228 30
3 229 228 133
3 229 59 228
3 229 227 59
3 230 227 229
3 230 4 227
3 230 137 4
3 231 137 230
3 231 15 137
3 135 231 60
3 232 231 135
3 232 15 231
3 232 61 15
3 206 61 232
3 206 0 61
3 529 63 530
3 531 530 0
3 529 530 531
3 233 532 534
3 532 63 533
3 532 533 534
3 233 17 63
3 535 233 536
3 234 537 539
3 537 233 538
3 537 538 539
3 234 17 233
3 234 141 17
3 235 141 234
3 235 5 141
3 540 235 541
3 542 235 543
3 544 5 545
3 546 545 235
3 544 545 546
3 548 547 5
