ply
format ascii 1.0
element vertex 174
property float x
property float y
property float z
element face 166
property list uchar int vertex_index
end_header
-54.909988 14.855797 5.535781
-54.637287 1.908249 8.986103
-60.368114 9.492535 6.872948
-61.393402 4.200434 7.93389
-63.099922 7.225422 8.643503
-54.877357 8.570564 6.561351
-51.097076 3.948736 9.224545
-58.337608 0.084536 9.271753
-58.132767 6.246677 6.858475
-57.597343 12.073919 5.778817
-63.778267 4.97567 8.964359
-54.911606 11.773247 5.834189
-53.270355 9.795511 6.684449
-53.420063 13.102585 5.980471
-60.340855 -3.666369 11.102764
-60.205357 -0.706182 9.662451
-60.944099 6.898035 7.211737
-59.774231 5.178928 7.303212
-59.428078 8.0196 6.562122
-57.909164 9.217438 6.109053
-58.971153 10.750315 6.222151
-54.437439 -1.472965 10.482757
-52.555256 -0.598766 10.530653
-61.745129 1.426214 8.968115
-62.940269 3.338617 8.730532
-62.416794 5.873047 8.025911
-61.762604 8.31373 7.697516
-54.787544 5.270512 7.644295
-52.84481 2.908043 9.055527
-53.083645 6.386484 7.739579
-51.403416 7.536329 7.95651
-56.379005 -2.285418 10.544205
-56.472313 0.961988 9.050644
-60.02491 2.25728 8.366552
-58.270069 3.189274 7.944757
-56.517975 4.199766 7.705958
-56.497246 7.382969 6.612168
-56.404079 10.473991 5.868183
-56.248512 13.447586 5.55427
-50.740677 0.324389 10.651606
-62.243301 9.40107 8.735729
-60.942604 10.648636 7.782244
-59.651684 11.967152 6.96708
-58.405956 13.356022 6.338075
-57.212135 14.803829 5.920475
-56.053551 16.293781 5.714664
-54.234703 15.57151 5.612409
-53.48974 14.694904 5.834754
-54.165025 13.979191 5.758126
-61.117536 -1.047595 9.946982
-60.273106 -2.186275 10.382608
-61.185285 -2.527689 10.667139
-61.185285 -2.527689 10.667139
-61.304839 -3.933745 11.372887
-63.642681 2.986469 9.20486
-63.15756 2.031537 9.238297
-51.535799 9.292396 7.449609
-52.336886 8.66592 7.320479
-52.469268 10.421986 6.813578
-50.573058 8.124845 8.102215
-51.535799 9.292396 7.449609
-57.358306 -1.100441 9.907979
-57.369141 -2.653646 10.643769
-58.348442 -1.46867 10.007542
-61.707149 10.445253 8.981327
-62.334814 9.781267 9.500065
-61.056801 11.069036 8.504584
-61.592953 10.024853 8.258986
-61.707149 10.445253 8.981327
-59.228363 13.143398 7.240032
-59.800316 12.418126 7.629272
-58.605499 13.837833 6.92553
-59.02882 12.661587 6.652577
-59.228363 13.143398 7.240032
-56.996009 16.107748 6.230463
-57.48299 15.321376 6.423276
-56.416718 16.852724 6.127558
-56.632843 15.548805 5.817569
-56.996009 16.107748 6.230463
-64.355022 4.623501 9.47919
-64.06168 3.804995 9.321773
-64.03313 5.612084 9.301019
-64.355022 4.623501 9.47919
-63.693958 6.736961 9.140591
-63.439094 6.100546 8.803931
-64.03313 5.612084 9.301019
-52.544123 12.075523 6.461589
-52.469268 10.421986 6.813578
-53.345209 11.449048 6.33246
-52.667665 13.77881 6.121737
-52.544123 12.075523 6.461589
-52.667665 13.77881 6.121737
-53.48974 14.694904 5.834754
-59.350065 -3.344122 10.923048
-59.349955 -4.87514 11.688634
-59.282317 -1.864029 10.202891
-59.350065 -3.344122 10.923048
-60.273106 -2.186275 10.382608
-59.271483 -0.310823 9.467102
-58.348442 -1.46867 10.007542
-59.282317 -1.864029 10.202891
-60.395773 -5.122098 11.857059
-61.304839 -3.933745 11.372887
-59.349955 -4.87514 11.688634
-60.395773 -5.122098 11.857059
-53.334789 -2.781026 11.274587
-53.221367 -4.458118 12.051538
-54.324016 -3.150057 11.259707
-52.393698 -2.343927 11.298535
-53.334789 -2.781026 11.274587
-53.496347 -1.035866 10.506705
-51.449511 -1.946083 11.33644
-52.393698 -2.343927 11.298535
-50.046215 2.617193 10.013232
-50.244759 4.484917 9.336581
-62.55999 1.075335 9.357088
-61.887422 0.018603 9.599814
-62.342699 2.382416 8.849324
-62.55999 1.075335 9.357088
-63.15756 2.031537 9.238297
-63.359268 4.157144 8.847445
-63.642681 2.986469 9.20486
-64.06168 3.804995 9.321773
-50.397928 6.278714 8.702563
-50.244759 4.484917 9.336581
-51.250246 5.742533 8.590528
-50.397928 6.278714 8.702563
-50.573058 8.124845 8.102215
-56.321041 -3.890737 11.319051
-57.369141 -2.653646 10.643769
-55.294799 -3.556284 11.290431
-56.321041 -3.890737 11.319051
-55.408222 -1.879192 10.513481
-54.324016 -3.150057 11.259707
-55.294799 -3.556284 11.290431
-60.975243 0.360016 9.315283
-61.117536 -1.047595 9.946982
-61.887422 0.018603 9.599814
-50.542221 -1.484506 11.396916
-51.449511 -1.946083 11.33644
-51.647966 -0.137189 10.591129
-49.868015 0.805019 10.726762
-50.918876 2.136562 9.938076
-50.046215 2.617193 10.013232
-49.646423 -1.063422 11.435292
-49.868015 0.805019 10.726762
-50.542221 -1.484506 11.396916
-49.646423 -1.063422 11.435292
-63.29484 7.71734 9.202315
-63.693958 6.736961 9.140591
-62.866529 8.805165 9.248428
-62.334814 9.781267 9.500065
-62.671611 8.313246 8.689616
-63.29484 7.71734 9.202315
-62.866529 8.805165 9.248428
-60.445776 11.758868 8.036854
-61.056801 11.069036 8.504584
-60.297144 11.307894 7.374662
-60.445776 11.758868 8.036854
-59.800316 12.418126 7.629272
-58.079901 14.597473 6.632076
-58.605499 13.837833 6.92553
-57.809046 14.079925 6.129275
-58.079901 14.597473 6.632076
-57.48299 15.321376 6.423276
-55.949402 17.655969 6.027878
-56.416718 16.852724 6.127558
-55.476517 17.051895 5.705889
-55.949402 17.655969 6.027878
-54.904736 16.332903 5.616447
-55.481769 15.574789 5.625222
-55.476517 17.051895 5.705889
-54.234703 15.57151 5.612409
-54.904736 16.332903 5.616447
3 0 13 11
3 0 46 48
3 48 47 13
3 46 47 48
3 49 15 50
3 51 50 14
3 49 50 51
3 2 18 16
3 2 20 18
3 52 14 53
3 1 22 21
3 54 24 55
3 4 25 10
3 4 26 25
3 5 29 27
3 56 30 57
3 58 57 12
3 56 57 58
3 60 59 30
3 7 61 63
3 61 31 62
3 61 62 63
3 7 32 31
3 3 33 23
3 8 34 17
3 8 35 34
3 8 36 35
3 9 37 19
3 9 38 37
3 6 39 28
3 64 40 65
3 66 41 67
3 68 67 40
3 66 67 68
3 69 42 70
3 71 43 72
3 73 72 42
3 71 72 73
3 74 44 75
3 76 45 77
3 78 77 44
3 76 77 78
3 79 10 80
3 81 10 82
3 83 4 84
3 85 84 10
3 83 84 85
3 11 12 5
3 13 12 11
3 13 86 88
3 88 87 12
3 86 87 88
3 13 89 90
3 92 91 13
3 14 93 94
3 15 95 97
3 97 96 14
3 95 96 97
3 15 98 100
3 98 7 99
3 98 99 100
3 16 17 3
3 18 17 16
3 18 8 17
3 18 19 8
3 20 19 18
3 20 9 19
3 14 101 102
3 14 103 104
3 21 105 107
3 105 106 107
3 22 108 110
3 110 109 21
3 108 109 110
3 22 111 112
3 114 113 6
3 115 23 116
3 24 117 119
3 117 23 118
3 117 118 119
3 24 3 23
3 10 120 122
3 120 24 121
3 120 121 122
3 25 24 10
3 25 3 24
3 25 16 3
3 26 16 25
3 26 2 16
3 27 28 1
3 29 28 27
3 29 6 28
3 12 29 5
3 30 29 12
3 30 6 29
3 30 123 125
3 125 124 6
3 123 124 125
3 127 126 30
3 31 128 129
3 31 130 131
3 31 132 134
3 132 21 133
3 132 133 134
3 32 21 31
3 32 1 21
3 23 135 137
3 135 15 136
3 135 136 137
3 33 15 23
3 33 7 15
3 17 33 3
3 34 33 17
3 34 7 33
3 34 32 7
3 35 32 34
3 35 1 32
3 35 27 1
3 36 27 35
3 36 5 27
3 19 36 8
3 37 36 19
3 37 5 36
3 37 11 5
3 38 11 37
3 38 0 11
3 28 22 1
3 39 22 28
3 39 138 140
3 140 139 22
3 138 139 140
3 141 39 142
3 143 142 6
3 141 142 143
3 144 39 145
3 147 146 39
3 148 4 149
3 40 150 151
3 40 152 154
3 152 4 153
3 152 153 154
3 40 26 4
3 41 26 40
3 41 2 26
3 155 41 156
3 42 157 159
3 157 41 158
3 157 158 159
3 42 2 41
3 42 20 2
3 43 20 42
3 43 9 20
3 160 43 161
3 44 162 164
3 162 43 163
3 162 163 164
3 44 9 43
3 44 38 9
3 45 38 44
3 45 0 38
3 165 45 166
3 167 45 168
3 169 0 170
3 171 170 45
3 169 170 171
3 173 172 0
