ply
format ascii 1.0
element vertex 291
property float x
property float y
property float z
element face 288
property list uchar int vertex_index
end_header
38.113705 22.738529 5.855444
40.666019 45.65435 -10.237114
44.387497 35.317173 4.070744
51.978668 31.279736 6.164499
46.326263 46.416252 -4.081184
38.21384 36.627705 -0.42765
48.848511 39.67392 2.597615
48.258934 33.439392 5.249997
45.197739 41.351707 0.482942
38.3894 43.452721 -13.332739
37.409538 40.105328 -8.43996
37.87495 30.183357 3.217834
36.365322 29.44997 -0.09824
36.687099 22.371334 2.761727
40.529278 29.737328 5.437211
40.636677 22.113564 7.698039
44.021858 28.385693 6.568343
43.308098 46.664734 -7.123913
39.2514 41.787048 -5.059521
41.88026 42.174446 -2.042601
40.888275 36.515949 2.247145
49.198128 42.50515 0.841825
39.963089 46.108566 -14.251642
39.487564 44.687225 -11.789904
37.922569 41.921745 -10.886477
38.87109 43.039871 -9.24328
37.94025 26.563145 4.650766
37.053055 26.438499 3.188004
37.252884 22.691307 4.458613
36.983269 18.552204 3.871736
42.315304 32.70253 4.823069
42.197281 29.149708 6.126059
44.153069 31.950272 5.440697
50.171326 32.376564 5.715784
48.051796 30.059696 6.170893
49.985218 29.015495 6.39004
44.776409 46.689201 -5.588024
42.571983 44.555401 -4.52323
44.100632 44.4193 -3.07531
44.736992 38.457039 2.419588
42.946419 39.100285 1.408722
42.56004 36.029572 3.258709
40.634415 33.252743 3.978616
37.453766 43.223118 -17.096224
38.652527 39.377411 -2.637449
37.683041 38.826424 -4.301439
37.272606 36.202106 -2.069788
36.182487 25.314804 -0.544006
46.618999 37.621227 3.293017
46.308849 34.435253 4.718769
48.527782 36.650112 4.069952
50.396217 35.594662 4.797118
45.744511 43.999031 -1.706253
47.461498 43.342373 -0.407927
47.010834 40.59161 1.577129
38.692314 44.765362 -15.682013
37.359638 41.991447 -14.869551
37.087048 40.55014 -12.545088
36.742836 38.83424 -10.210089
37.957024 33.552315 1.528563
37.034595 33.23962 -0.06735
36.968624 29.970654 1.684984
36.469086 26.020683 1.44405
36.414951 21.776798 0.797022
39.114792 26.409325 5.809049
39.252293 22.53389 6.934885
40.542702 26.009583 6.659462
42.178757 25.409229 7.21805
46.086327 31.051891 5.872793
45.944412 27.498875 6.809005
41.937088 46.320045 -8.678194
39.953663 43.866688 -7.624088
41.185925 44.375103 -6.044538
40.466827 42.144897 -3.49416
39.864265 39.597546 -1.118652
43.470146 41.896835 -0.717514
41.306171 39.495571 0.232679
39.426121 36.72702 1.017891
39.1665 33.549305 2.882276
39.072872 30.096317 4.471662
38.237041 41.100727 -6.716383
36.946754 37.956253 -6.080111
36.404236 32.609398 -1.873465
38.232695 20.748087 6.362222
37.820239 20.758278 5.68934
40.965725 46.433166 -11.513089
41.634827 46.845249 -10.760776
40.076791 45.170788 -11.013509
40.376497 45.949604 -12.289484
40.965725 46.433166 -11.513089
37.820239 20.758278 5.68934
37.389828 20.734667 4.990925
37.683295 22.714918 5.157029
51.89991 29.613029 6.373845
50.903185 28.480909 6.486616
50.981943 30.147616 6.27727
46.596019 47.528473 -5.31501
47.335983 47.336876 -4.505528
45.551336 46.552726 -4.834604
45.821092 47.664947 -6.06843
46.596019 47.528473 -5.31501
36.854662 42.369656 -17.803982
36.922695 41.783034 -16.753198
36.175252 24.830072 -1.638249
36.299865 23.12068 -0.969135
51.365167 36.58213 4.688173
50.520782 37.123493 4.191033
51.276207 35.043888 5.157951
51.365167 36.58213 4.688173
48.499994 44.248152 -0.778801
47.69467 44.614702 -1.506548
36.91316 38.450114 -8.191821
36.579809 37.81457 -9.076885
37.076187 39.469784 -9.325024
36.704517 20.22106 2.351313
36.568443 19.923792 1.36896
36.551025 22.074066 1.779375
37.027438 16.399545 3.385745
37.151465 16.58209 4.332867
43.996639 26.522484 7.043134
43.075088 25.034252 7.367988
43.100307 26.897461 6.893197
46.92469 27.017764 6.855624
46.998104 28.779286 6.489949
47.978382 28.298174 6.536568
45.905354 25.653899 7.207261
46.92469 27.017764 6.855624
43.645617 47.608483 -8.430454
44.356976 47.707268 -7.639194
42.622593 46.49239 -7.901053
42.960111 47.436138 -9.207595
43.645617 47.608483 -8.430454
40.039423 20.315472 7.797342
39.347231 20.525635 7.415765
39.944485 22.323727 7.316462
36.773502 36.705585 -4.977912
37.314898 38.391339 -5.190775
37.141646 37.140671 -4.088576
36.55981 36.182268 -5.944573
36.773502 36.705585 -4.977912
49.74693 39.163123 3.091282
49.871147 40.608153 2.336434
50.152019 43.388495 0.574332
49.368309 43.829541 -0.153925
50.045956 42.023768 1.458539
50.152019 43.388495 0.574332
50.999848 42.907112 1.191046
49.871147 40.608153 2.336434
49.023319 41.089535 1.71972
50.045956 42.023768 1.458539
40.61426 46.660274 -13.520353
40.788431 47.361927 -14.709646
39.725326 45.397896 -13.020773
40.61426 46.660274 -13.520353
40.376497 45.949604 -12.289484
37.255021 18.665115 4.697486
37.118077 20.621755 4.165175
37.389828 20.734667 4.990925
37.151465 16.58209 4.332867
37.255021 18.665115 4.697486
48.945093 27.776074 6.646141
47.978382 28.298174 6.536568
49.018507 29.537596 6.280467
49.913714 27.274983 6.648074
48.945093 27.776074 6.646141
49.913714 27.274983 6.648074
50.903185 28.480909 6.486616
45.091131 47.719501 -6.871249
45.821092 47.664947 -6.06843
44.042254 46.676968 -6.355968
44.356976 47.707268 -7.639194
45.091131 47.719501 -6.871249
40.703548 20.104342 8.153892
41.431135 21.818262 7.930763
37.357107 43.768007 -18.119065
38.08083 44.578363 -17.46838
37.357107 43.768007 -18.119065
36.854662 42.369656 -17.803982
36.936428 35.828512 -2.972751
37.141646 37.140671 -4.088576
37.477823 37.514265 -3.185614
36.117857 26.973604 -1.318056
36.209274 29.041187 -1.095173
36.273905 27.382387 -0.321123
36.117857 26.973604 -1.318056
36.175252 24.830072 -1.638249
49.586565 37.651218 3.82745
48.688147 38.162016 3.333784
49.74693 39.163123 3.091282
49.462 36.122387 4.433535
49.586565 37.651218 3.82745
50.520782 37.123493 4.191033
51.163761 33.434839 5.617284
50.283772 33.985613 5.256451
51.276207 35.043888 5.157951
52.067432 32.886425 5.841641
51.074997 31.82815 5.940142
51.163761 33.434839 5.617284
47.127052 46.151642 -3.343177
47.335983 47.336876 -4.505528
46.836176 44.943032 -2.155711
46.035387 45.207642 -2.893719
47.127052 46.151642 -3.343177
46.603004 43.670702 -1.05709
46.836176 44.943032 -2.155711
47.69467 44.614702 -1.506548
48.329813 42.923761 0.216949
48.499994 44.248152 -0.778801
49.368309 43.829541 -0.153925
40.063541 46.744506 -15.388065
40.788431 47.361927 -14.709646
39.428154 46.072904 -16.103251
40.063541 46.744506 -15.388065
39.327702 45.436964 -14.966828
38.700103 45.349486 -16.761274
39.428154 46.072904 -16.103251
38.07304 43.99424 -16.389118
38.08083 44.578363 -17.46838
38.700103 45.349486 -16.761274
36.875631 41.167198 -15.639862
36.922695 41.783034 -16.753198
37.406702 42.607282 -15.982888
36.852121 40.479175 -14.544177
36.875631 41.167198 -15.639862
36.715826 39.758522 -13.381946
36.852121 40.479175 -14.544177
37.223343 41.270793 -13.70732
36.646896 38.939529 -12.280171
36.715826 39.758522 -13.381946
36.47479 38.081579 -11.112671
36.646896 38.939529 -12.280171
36.914942 39.69219 -11.377588
36.399826 37.107819 -10.039907
36.47479 38.081579 -11.112671
36.399826 37.107819 -10.039907
36.579809 37.81457 -9.076885
36.416097 21.351677 -0.298621
36.299865 23.12068 -0.969135
36.298719 23.545801 0.126508
36.571829 19.560924 0.282027
36.416097 21.351677 -0.298621
36.571829 19.560924 0.282027
36.568443 19.923792 1.36896
36.852602 18.311495 2.906317
36.704517 20.22106 2.351313
36.835184 20.461769 3.316731
36.852602 18.311495 2.906317
37.027438 16.399545 3.385745
42.202175 23.466095 7.690768
41.431135 21.818262 7.930763
41.407717 23.761397 7.458044
42.202175 23.466095 7.690768
43.075088 25.034252 7.367988
44.957916 26.079075 7.163466
43.996639 26.522484 7.043134
44.983135 27.942284 6.688674
44.957916 26.079075 7.163466
45.905354 25.653899 7.207261
42.270361 47.178096 -9.981316
42.960111 47.436138 -9.207595
41.301553 45.987198 -9.457654
41.634827 46.845249 -10.760776
42.270361 47.178096 -9.981316
38.801989 20.645767 6.901943
38.232695 20.748087 6.362222
38.682999 22.636209 6.395164
38.801989 20.645767 6.901943
39.347231 20.525635 7.415765
40.039423 20.315472 7.797342
40.703548 20.104342 8.153892
52.85906 32.323649 6.217296
52.067432 32.886425 5.841641
52.796022 30.722659 6.400576
52.85906 32.323649 6.217296
51.89991 29.613029 6.373845
52.796022 30.722659 6.400576
36.681768 37.375576 -7.011896
36.91316 38.450114 -8.191821
37.178146 39.03079 -7.260035
36.681768 37.375576 -7.011896
36.55981 36.182268 -5.944573
36.502243 34.032158 -2.874589
36.936428 35.828512 -2.972751
36.838421 34.405752 -1.971626
36.228731 30.620901 -1.982785
36.384779 31.029684 -0.985853
36.209274 29.041187 -1.095173
36.22595 32.143797 -2.861798
36.228731 30.620901 -1.982785
36.502243 34.032158 -2.874589
36.22595 32.143797 -2.861798
3 0 83 84
3 1 85 86
3 1 87 89
3 87 23 88
3 87 88 89
3 1 25 23
3 0 28 26
3 0 90 92
3 92 91 28
3 90 91 92
3 2 32 30
3 3 35 33
3 3 93 95
3 95 94 35
3 93 94 95
3 4 96 97
3 4 98 100
3 98 36 99
3 98 99 100
3 4 38 36
3 2 41 39
3 2 30 41
3 102 101 43
3 5 46 44
3 104 103 47
3 6 50 48
3 105 51 106
3 108 107 51
3 109 53 110
3 6 54 21
3 6 48 54
3 9 55 22
3 9 56 55
3 9 57 56
3 10 58 24
3 10 111 113
3 113 112 58
3 111 112 113
3 11 61 59
3 13 62 27
3 13 63 62
3 13 114 116
3 116 115 63
3 114 115 116
3 118 117 29
3 14 66 64
3 16 67 31
3 16 119 121
3 121 120 67
3 119 120 121
3 7 68 49
3 122 69 123
3 124 123 34
3 122 123 124
3 126 125 69
3 17 127 128
3 17 129 131
3 129 70 130
3 129 130 131
3 17 72 70
3 19 73 37
3 19 74 73
3 8 75 52
3 20 76 40
3 20 77 76
3 20 78 77
3 14 79 42
3 14 64 79
3 15 132 134
3 134 133 65
3 132 133 134
3 18 80 71
3 135 81 136
3 137 136 45
3 135 136 137
3 139 138 81
3 12 82 60
3 141 140 6
3 142 21 143
3 144 21 145
3 144 145 146
3 147 6 148
3 149 148 21
3 147 148 149
3 150 22 151
3 23 152 154
3 152 22 153
3 152 153 154
3 23 9 22
3 23 24 9
3 25 24 23
3 25 10 24
3 26 27 11
3 28 27 26
3 28 13 27
3 28 29 13
3 155 29 156
3 157 156 28
3 155 156 157
3 159 158 29
3 30 31 14
3 32 31 30
3 32 16 31
3 33 34 7
3 35 34 33
3 35 160 162
3 162 161 34
3 160 161 162
3 35 163 164
3 166 165 35
3 36 167 168
3 36 169 171
3 169 17 170
3 169 170 171
3 36 37 17
3 38 37 36
3 38 19 37
3 39 40 8
3 41 40 39
3 41 20 40
3 41 42 20
3 30 42 41
3 30 14 42
3 173 172 15
3 43 174 175
3 177 176 43
3 44 45 18
3 46 45 44
3 46 178 180
3 180 179 45
3 178 179 180
3 47 181 183
3 183 182 12
3 181 182 183
3 185 184 47
3 48 49 2
3 50 49 48
3 50 7 49
3 186 50 187
3 188 187 6
3 186 187 188
3 51 189 191
3 189 50 190
3 189 190 191
3 51 7 50
3 51 33 7
3 192 33 193
3 194 193 51
3 192 193 194
3 195 3 196
3 197 196 33
3 195 196 197
3 198 4 199
3 200 52 201
3 202 201 4
3 200 201 202
3 53 203 205
3 203 52 204
3 203 204 205
3 53 8 52
3 21 206 208
3 206 53 207
3 206 207 208
3 54 53 21
3 54 8 53
3 54 39 8
3 48 39 54
3 48 2 39
3 22 209 210
3 55 211 213
3 213 212 22
3 211 212 213
3 55 214 215
3 55 216 218
3 216 43 217
3 216 217 218
3 56 43 55
3 56 219 221
3 221 220 43
3 219 220 221
3 56 222 223
3 57 224 226
3 226 225 56
3 224 225 226
3 57 227 228
3 24 57 9
3 58 57 24
3 58 229 231
3 231 230 57
3 229 230 231
3 58 232 233
3 235 234 58
3 59 60 5
3 61 60 59
3 61 12 60
3 27 61 11
3 62 61 27
3 62 12 61
3 62 47 12
3 63 47 62
3 63 236 238
3 238 237 47
3 236 237 238
3 63 239 240
3 242 241 63
3 29 243 245
3 245 244 13
3 243 244 245
3 247 246 29
3 64 65 0
3 66 65 64
3 66 15 65
3 31 66 14
3 67 66 31
3 67 15 66
3 67 248 250
3 250 249 15
3 248 249 250
3 252 251 67
3 49 32 2
3 68 32 49
3 68 16 32
3 34 68 7
3 69 68 34
3 69 16 68
3 69 253 255
3 255 254 16
3 253 254 255
3 257 256 69
3 70 258 259
3 70 260 262
3 260 1 261
3 260 261 262
3 70 71 1
3 72 71 70
3 72 18 71
3 37 72 17
3 73 72 37
3 73 18 72
3 73 44 18
3 74 44 73
3 74 5 44
3 52 38 4
3 75 38 52
3 75 19 38
3 40 75 8
3 76 75 40
3 76 19 75
3 76 74 19
3 77 74 76
3 77 5 74
3 77 59 5
3 78 59 77
3 78 11 59
3 42 78 20
3 79 78 42
3 79 11 78
3 79 26 11
3 64 26 79
3 64 0 26
3 65 263 265
3 265 264 0
3 263 264 265
3 267 266 65
3 269 268 15
3 270 3 271
3 272 3 273
3 275 274 3
3 71 25 1
3 80 25 71
3 80 10 25
3 45 80 18
3 81 80 45
3 81 10 80
3 81 276 278
3 278 277 10
3 276 277 278
3 280 279 81
3 60 46 5
3 82 46 60
3 82 281 283
3 283 282 46
3 281 282 283
3 284 82 285
3 286 285 12
3 284 285 286
3 287 82 288
3 290 289 82
