ply
format ascii 1.0
element vertex 279
property float x
property float y
property float z
element face 277
property list uchar int vertex_index
end_header
64.633827 -54.137817 35.451302
61.222321 -54.129566 44.702721
65.543945 -47.186951 43.843513
68.462013 -47.725018 33.028332
66.357849 -52.066395 24.44595
63.243729 -54.38596 40.59687
63.378967 -50.640511 44.443844
65.408424 -50.937737 39.73238
67.288925 -47.655273 38.712418
66.899506 -50.802261 34.203537
68.012352 -50.15097 28.486351
65.62326 -53.37392 29.920244
61.25116 -57.865856 41.456425
62.393387 -57.592003 36.742287
69.429054 -46.997139 17.589994
62.464859 -41.86441 49.718254
63.067047 -46.427486 47.725014
65.26059 -42.95974 46.944298
68.846275 -48.88987 22.920496
66.859093 -50.209309 19.196121
63.563576 -53.614086 21.004688
64.002495 -54.32518 38.110786
64.320404 -52.651073 40.17709
65.117126 -52.608929 37.57122
66.210106 -50.928032 37.025192
65.798538 -52.446804 34.820141
66.387009 -52.157909 32.002335
65.166565 -53.821903 32.699394
61.909531 -57.798618 39.204712
60.763687 -41.250813 50.469002
61.167221 -43.622189 49.928734
64.491226 -48.900688 44.206299
63.26635 -48.586521 46.202217
64.403229 -46.841713 45.982742
64.226929 -44.677998 47.458591
65.444351 -45.124802 45.57502
66.304138 -43.460434 44.960857
66.447281 -45.521988 43.333298
67.934532 -47.750687 35.901333
67.868835 -46.125244 38.119354
67.3442 -51.16555 26.385822
68.460678 -49.600471 25.674812
67.726776 -50.448486 23.648275
68.045197 -49.582375 20.972473
66.640518 -51.204353 21.790859
62.326378 -54.320686 42.821457
62.276146 -52.387512 44.592609
63.382118 -52.576973 42.547478
64.472374 -50.840462 42.236649
65.540413 -49.128246 41.857506
66.499725 -47.461445 41.389122
66.432076 -49.265511 39.247372
67.187332 -49.30228 36.469528
67.827431 -49.222767 33.606277
68.37233 -49.008438 30.721064
67.495384 -50.547775 31.339905
66.898918 -51.733585 29.177679
66.018326 -52.789726 27.159889
61.328342 -56.060921 43.098572
62.218437 -56.12714 41.014328
62.925789 -56.059292 38.651222
63.48484 -55.857666 36.092381
63.931145 -55.523312 33.418182
62.742943 -57.248035 34.146881
62.087608 -39.503662 50.103439
62.108406 -50.338043 46.269386
61.854568 -48.184113 47.773003
61.535828 -45.939812 49.017273
62.796021 -44.179916 48.919113
63.975243 -42.429924 48.543976
67.247917 -45.861477 40.818634
68.839859 -48.641777 27.856564
69.17038 -48.019562 20.226675
68.293259 -48.573799 18.356667
64.295769 -55.057106 30.696362
64.601471 -54.459419 27.977226
64.860954 -53.730755 25.293322
63.467934 -54.580246 23.557623
65.077011 -52.873119 22.661823
65.244064 -51.891918 20.0882
60.495365 -44.497096 49.889332
60.269399 -43.30892 50.218682
61.102009 -53.105951 45.47092
60.567234 -53.971863 45.441631
68.401073 -47.006392 34.170855
68.137333 -47.019227 35.607355
68.198273 -47.737853 34.464832
68.579296 -47.022768 32.74465
68.401073 -47.006392 34.170855
68.679824 -47.63995 31.587122
68.579296 -47.022768 32.74465
60.817339 -57.830183 42.438359
60.788475 -58.733436 41.701962
61.289751 -56.963389 42.277499
60.85593 -56.927716 43.259432
60.817339 -57.830183 42.438359
69.520946 -46.416714 16.297999
69.88686 -45.66529 15.955767
69.794967 -46.245716 17.247762
68.944831 -47.216602 16.69258
69.520946 -46.416714 16.297999
63.0621 -40.993336 49.453491
62.873474 -39.812962 49.646084
62.276234 -40.684036 49.910847
65.133583 -41.838287 47.409176
64.49091 -41.57338 48.209015
64.617916 -42.694832 47.744137
65.676689 -42.129505 46.558657
65.133583 -41.838287 47.409176
66.603577 -42.665684 44.548059
66.705624 -43.694062 43.812523
67.778271 -45.235239 39.128069
67.973381 -45.405922 37.788438
69.045597 -48.499775 23.978675
68.852799 -48.855075 25.355833
68.653477 -49.245171 24.297654
69.222187 -48.147828 22.596141
69.045597 -48.499775 23.978675
69.008328 -48.454716 21.573586
69.38424 -47.712674 21.24923
69.222187 -48.147828 22.596141
66.930538 -49.651352 17.926546
67.647621 -48.833597 17.506819
67.576176 -49.391554 18.776394
63.646668 -55.913786 31.09142
64.113457 -55.290209 32.057272
63.464355 -56.146889 32.452331
63.972409 -54.945763 27.070419
63.895817 -55.311557 28.395363
64.10215 -54.58143 25.728467
64.731212 -54.095087 26.635274
63.972409 -54.945763 27.070419
63.515755 -54.097166 22.281156
62.693139 -54.97608 22.735839
62.74096 -54.493 21.459372
61.099198 -58.701624 40.620695
60.788475 -58.733436 41.701962
61.428383 -58.668005 39.494839
61.580345 -57.832237 40.330568
61.099198 -58.701624 40.620695
61.638514 -58.565273 38.304066
61.428383 -58.668005 39.494839
61.880442 -58.461965 37.072853
62.151459 -57.69531 37.9735
61.638514 -58.565273 38.304066
62.010807 -58.288988 35.809826
61.880442 -58.461965 37.072853
69.666622 -46.764215 18.576111
69.794967 -46.245716 17.247762
60.067633 -42.123232 50.488816
59.842449 -40.914637 50.659367
60.965454 -42.436501 50.198868
60.067633 -42.123232 50.488816
60.269399 -43.30892 50.218682
66.777195 -44.724839 42.998743
66.705624 -43.694062 43.812523
66.375709 -44.491211 44.147077
68.104485 -46.206505 36.716366
67.901684 -46.937966 37.010344
68.137333 -47.019227 35.607355
67.973381 -45.405922 37.788438
68.104485 -46.206505 36.716366
62.740951 -53.970056 20.217862
62.74096 -54.493 21.459372
63.592323 -53.078514 19.755224
62.740951 -53.970056 20.217862
60.725216 -54.995954 44.767184
60.567234 -53.971863 45.441631
60.778227 -55.961632 43.965109
60.85593 -56.927716 43.259432
61.275332 -55.095243 43.900646
60.725216 -54.995954 44.767184
60.778227 -55.961632 43.965109
62.870255 -57.009251 32.81668
63.464355 -56.146889 32.452331
63.337044 -56.385673 33.782532
62.185585 -58.117004 34.512123
62.568165 -57.420019 35.444584
62.010807 -58.288988 35.809826
62.258831 -57.876239 33.210273
62.185585 -58.117004 34.512123
62.870255 -57.009251 32.81668
62.258831 -57.876239 33.210273
60.555145 -40.048294 50.560654
59.842449 -40.914637 50.659367
61.217106 -39.174719 50.377873
60.555145 -40.048294 50.560654
61.425647 -40.377237 50.28622
61.887337 -38.311191 50.109466
61.217106 -39.174719 50.377873
62.690697 -38.64183 49.751061
62.490425 -37.44936 49.757088
61.887337 -38.311191 50.109466
62.690697 -38.64183 49.751061
62.873474 -39.812962 49.646084
61.628921 -52.234924 45.415864
61.102009 -53.105951 45.47092
61.749234 -53.258539 44.647665
61.545051 -51.210189 46.254253
61.628921 -52.234924 45.415864
62.192276 -51.362777 45.430998
61.378659 -50.134659 46.962335
61.545051 -51.210189 46.254253
61.251739 -49.057693 47.714144
61.378659 -50.134659 46.962335
61.981487 -49.261078 47.021195
61.055004 -47.936816 48.327625
61.251739 -49.057693 47.714144
60.895634 -46.814665 48.94976
61.055004 -47.936816 48.327625
61.695198 -47.061963 48.395138
60.679669 -45.655907 49.433602
60.895634 -46.814665 48.94976
61.351524 -44.781001 49.473004
60.495365 -44.497096 49.889332
60.679669 -45.655907 49.433602
63.817291 -41.276093 48.866352
63.0621 -40.993336 49.453491
63.220051 -42.147167 49.131115
63.817291 -41.276093 48.866352
64.49091 -41.57338 48.209015
66.198464 -42.379852 45.566936
65.676689 -42.129505 46.558657
65.782364 -43.210087 45.952578
66.198464 -42.379852 45.566936
66.603577 -42.665684 44.548059
67.177513 -44.894583 41.741411
66.777195 -44.724839 42.998743
66.847599 -45.691733 42.075966
67.467812 -45.103355 40.477709
67.558376 -45.993361 39.468994
67.778271 -45.235239 39.128069
67.177513 -44.894583 41.741411
67.467812 -45.103355 40.477709
68.634983 -48.28166 30.433488
68.679824 -47.63995 31.587122
68.417171 -48.366728 31.874698
68.868748 -48.098329 29.001238
68.634983 -48.28166 30.433488
68.606095 -48.825108 29.288814
69.053238 -47.93103 27.571861
68.868748 -48.098329 29.001238
69.042389 -48.375728 26.446709
68.650269 -49.121124 26.765688
68.852799 -48.855075 25.355833
69.053238 -47.93103 27.571861
69.042389 -48.375728 26.446709
69.537285 -47.275427 19.894452
69.38424 -47.712674 21.24923
69.299717 -47.50835 18.908335
69.666622 -46.764215 18.576111
69.537285 -47.275427 19.894452
68.376934 -48.004932 17.075917
68.944831 -47.216602 16.69258
68.861156 -47.785469 17.973331
68.376934 -48.004932 17.075917
67.647621 -48.833597 17.506819
63.742966 -55.610401 29.754931
63.646668 -55.913786 31.09142
64.44862 -54.758263 29.336794
63.742966 -55.610401 29.754931
63.895817 -55.311557 28.395363
62.68712 -55.450508 24.002828
62.693139 -54.97608 22.735839
63.40564 -55.006176 24.860618
62.68712 -55.450508 24.002828
64.164444 -54.155501 24.425472
64.10215 -54.58143 25.728467
63.40564 -55.006176 24.860618
64.432568 -52.21743 19.29698
64.40382 -52.753002 20.546444
63.592323 -53.078514 19.755224
65.297287 -51.34485 18.829198
64.432568 -52.21743 19.29698
66.104802 -50.503546 18.383159
66.051579 -51.050613 19.642161
65.297287 -51.34485 18.829198
66.930538 -49.651352 17.926546
66.104802 -50.503546 18.383159
3 0 23 21
3 0 25 23
3 0 27 25
3 80 30 81
3 1 82 83
3 2 33 31
3 2 35 33
3 2 37 35
3 3 84 86
3 86 85 38
3 84 85 86
3 3 87 88
3 3 89 90
3 4 42 40
3 4 44 42
3 5 47 45
3 7 48 22
3 7 49 48
3 7 51 49
3 9 52 24
3 9 53 52
3 9 55 53
3 11 56 26
3 11 57 56
3 12 91 92
3 12 93 95
3 93 58 94
3 93 94 95
3 12 59 58
3 13 60 28
3 13 61 60
3 13 63 61
3 14 96 98
3 96 97 98
3 14 99 100
3 15 64 29
3 15 101 103
3 103 102 64
3 101 102 103
3 6 65 46
3 16 66 32
3 16 67 66
3 16 68 67
3 17 69 34
3 17 104 106
3 106 105 69
3 104 105 106
3 17 107 108
3 110 109 36
3 8 70 50
3 112 111 39
3 10 71 54
3 18 113 115
3 115 114 41
3 113 114 115
3 18 116 117
3 18 118 120
3 118 72 119
3 118 119 120
3 19 73 43
3 19 121 123
3 123 122 73
3 121 122 123
3 124 74 125
3 126 125 62
3 124 125 126
3 127 75 128
3 129 76 130
3 131 130 75
3 129 130 131
3 20 132 134
3 132 77 133
3 132 133 134
3 20 78 77
3 20 79 78
3 21 22 5
3 23 22 21
3 23 7 22
3 23 24 7
3 25 24 23
3 25 9 24
3 25 26 9
3 27 26 25
3 27 11 26
3 135 12 136
3 137 28 138
3 139 138 12
3 137 138 139
3 140 28 141
3 142 13 143
3 144 143 28
3 142 143 144
3 146 145 13
3 147 14 148
3 149 29 150
3 30 151 153
3 151 29 152
3 151 152 153
3 30 15 29
3 31 32 6
3 33 32 31
3 33 16 32
3 33 34 16
3 35 34 33
3 35 17 34
3 35 36 17
3 37 36 35
3 37 154 156
3 156 155 36
3 154 155 156
3 38 39 8
3 157 39 158
3 159 158 38
3 157 158 159
3 161 160 39
3 40 41 10
3 42 41 40
3 42 18 41
3 42 43 18
3 44 43 42
3 44 19 43
3 162 20 163
3 165 164 20
3 45 46 1
3 47 46 45
3 47 6 46
3 22 47 5
3 48 47 22
3 48 6 47
3 48 31 6
3 49 31 48
3 49 2 31
3 49 50 2
3 51 50 49
3 51 8 50
3 24 51 7
3 52 51 24
3 52 8 51
3 52 38 8
3 53 38 52
3 53 3 38
3 53 54 3
3 55 54 53
3 55 10 54
3 26 55 9
3 56 55 26
3 56 10 55
3 56 40 10
3 57 40 56
3 57 4 40
3 166 1 167
3 58 168 169
3 58 170 172
3 170 1 171
3 170 171 172
3 58 45 1
3 59 45 58
3 59 5 45
3 28 59 12
3 60 59 28
3 60 5 59
3 60 21 5
3 61 21 60
3 61 0 21
3 61 62 0
3 63 62 61
3 63 173 175
3 175 174 62
3 173 174 175
3 176 63 177
3 178 177 13
3 176 177 178
3 179 63 180
3 182 181 63
3 29 183 184
3 64 185 187
3 187 186 29
3 185 186 187
3 64 188 189
3 64 190 192
3 190 191 192
3 194 193 64
3 46 195 197
3 197 196 1
3 195 196 197
3 65 198 200
3 200 199 46
3 198 199 200
3 65 201 202
3 32 65 6
3 66 65 32
3 66 203 205
3 205 204 65
3 203 204 205
3 66 206 207
3 67 208 210
3 210 209 66
3 208 209 210
3 67 211 212
3 67 213 215
3 213 30 214
3 213 214 215
3 68 30 67
3 68 15 30
3 34 68 16
3 69 68 34
3 69 15 68
3 69 216 218
3 218 217 15
3 216 217 218
3 220 219 69
3 36 221 223
3 223 222 17
3 221 222 223
3 225 224 36
3 50 37 2
3 70 37 50
3 70 226 228
3 228 227 37
3 226 227 228
3 39 70 8
3 229 70 230
3 231 230 39
3 229 230 231
3 233 232 70
3 54 234 236
3 236 235 3
3 234 235 236
3 71 237 239
3 239 238 54
3 237 238 239
3 71 240 241
3 41 71 10
3 242 71 243
3 244 243 41
3 242 243 244
3 246 245 71
3 72 247 248
3 72 249 251
3 249 14 250
3 249 250 251
3 43 72 18
3 73 72 43
3 73 14 72
3 73 252 254
3 254 253 14
3 252 253 254
3 256 255 73
3 62 27 0
3 74 27 62
3 74 11 27
3 257 74 258
3 75 259 261
3 259 74 260
3 259 260 261
3 75 11 74
3 75 57 11
3 76 57 75
3 76 4 57
3 77 262 263
3 77 264 265
3 77 266 268
3 266 76 267
3 266 267 268
3 78 76 77
3 78 4 76
3 78 44 4
3 79 44 78
3 79 19 44
3 269 79 270
3 271 270 20
3 269 270 271
3 272 79 273
3 274 19 275
3 276 275 79
3 274 275 276
3 278 277 19
