ply
format ascii 1.0
element vertex 150
property float x
property float y
property float z
element face 124
property list uchar int vertex_index
end_header
-41.656693 53.175236 -19.803932
-46.535316 61.398525 -9.498486
-44.874058 63.018421 -14.22234
-42.693184 58.167004 -19.444038
-48.60997 56.098507 -7.189487
-47.210342 58.024212 -12.029125
-45.336372 58.784 -16.216621
-42.673378 60.751553 -18.868195
-48.324638 57.455776 -5.877277
-47.756012 58.713367 -8.47027
-47.952122 57.188717 -9.665348
-47.085579 59.735416 -10.956644
-43.725697 63.350964 -16.244505
-45.299747 60.923901 -15.404842
-44.107491 61.018787 -17.27243
-44.126583 58.651608 -17.957439
-45.797718 62.354534 -11.957859
-42.355488 55.627979 -19.744934
-41.024807 57.348637 -20.702858
-49.208565 54.788425 -4.647764
-48.378098 54.719578 -8.097904
-47.64653 55.647915 -10.45188
-46.854912 56.300404 -12.696129
-46.279663 60.485126 -13.285465
-46.351456 58.567387 -14.229141
-43.754234 56.303699 -18.315243
-40.889359 52.62207 -20.439796
-41.139286 52.00106 -19.731571
-41.760762 52.483829 -19.002662
-42.3232 53.593647 -19.092085
-41.139286 52.00106 -19.731571
-41.243355 51.309654 -18.930301
-41.760762 52.483829 -19.002662
-41.660162 61.83453 -19.167561
-42.497429 62.036572 -18.430771
-46.830528 60.794026 -8.197326
-46.092266 62.18343 -8.597506
-47.145664 60.055946 -8.984378
-47.440876 59.451447 -7.683218
-46.830528 60.794026 -8.197326
-43.214486 62.170189 -17.632888
-43.916594 62.184876 -16.758468
-43.023589 63.336277 -17.118926
-42.497429 62.036572 -18.430771
-43.390434 60.88517 -18.070312
-43.214486 62.170189 -17.632888
-48.84177 54.825519 -6.435553
-49.141067 54.170479 -5.164691
-48.909267 55.443466 -5.918625
-48.494034 55.409042 -7.643695
-48.725834 54.136055 -6.889761
-48.84177 54.825519 -6.435553
-45.652755 57.712814 -15.498518
-46.160297 57.604507 -14.504779
-45.843914 58.675693 -15.222881
-45.142574 57.714836 -16.439107
-45.652755 57.712814 -15.498518
-41.829493 60.438431 -19.536842
-41.839396 59.146157 -19.824764
-42.683281 59.459278 -19.156116
-41.829493 60.438431 -19.536842
-41.660162 61.83453 -19.167561
-47.725189 58.822651 -6.386722
-47.964768 58.108715 -5.038137
-48.040325 58.084571 -7.173773
-47.725189 58.822651 -6.386722
-47.440876 59.451447 -7.683218
-45.758171 62.761786 -9.88849
-46.092266 62.18343 -8.597506
-45.389372 63.23979 -11.118177
-46.166517 61.87653 -10.728172
-45.758171 62.761786 -9.88849
-44.959705 63.682257 -12.323273
-45.389372 63.23979 -11.118177
-44.497875 64.0142 -13.455514
-45.335888 62.686477 -13.0901
-44.959705 63.682257 -12.323273
-43.95299 64.300317 -14.550349
-44.497875 64.0142 -13.455514
-43.378809 64.466589 -15.561431
-44.299877 63.184692 -15.233422
-43.95299 64.300317 -14.550349
-42.702238 64.577047 -16.526775
-43.378809 64.466589 -15.561431
-43.023589 63.336277 -17.118926
-42.702238 64.577047 -16.526775
-41.547499 55.13884 -20.364935
-41.198101 53.912468 -20.394434
-42.00609 54.401607 -19.774433
-40.882159 55.999168 -20.843897
-41.547499 55.13884 -20.364935
-41.690148 56.488308 -20.223896
-40.078024 56.790535 -21.247257
-40.882159 55.999168 -20.843897
-41.005207 58.736973 -20.454174
-41.858996 57.75782 -20.073448
-41.839396 59.146157 -19.824764
-40.039615 58.256676 -21.018286
-41.005207 58.736973 -20.454174
-40.078024 56.790535 -21.247257
-40.039615 58.256676 -21.018286
-48.571796 56.724964 -4.549418
-47.964768 58.108715 -5.038137
-49.013759 55.391289 -3.934661
-48.571796 56.724964 -4.549418
-48.766602 56.122101 -5.26252
-49.486486 54.038368 -3.362617
-49.013759 55.391289 -3.934661
-49.477421 53.484577 -3.944816
-49.486486 54.038368 -3.362617
-49.477421 53.484577 -3.944816
-49.141067 54.170479 -5.164691
-48.374783 53.511238 -7.199332
-48.725834 54.136055 -6.889761
-47.989514 54.0276 -8.344192
-48.374783 53.511238 -7.199332
-47.623729 54.491768 -9.521179
-47.989514 54.0276 -8.344192
-48.012314 55.183746 -9.274892
-47.23443 54.87804 -10.640141
-47.21163 53.721894 -9.709441
-47.623729 54.491768 -9.521179
-46.838621 55.204285 -11.762266
-47.23443 54.87804 -10.640141
-47.250721 55.974159 -11.574005
-46.432779 55.441963 -12.831613
-46.838621 55.204285 -11.762266
-46.412025 56.471016 -13.738273
-46.603184 57.433895 -13.462635
-46.160297 57.604507 -14.504779
-46.432779 55.441963 -12.831613
-46.412025 56.471016 -13.738273
-44.537679 57.64864 -17.309517
-45.142574 57.714836 -16.439107
-44.731477 58.717804 -17.08703
-44.351505 56.474685 -17.488419
-44.537679 57.64864 -17.309517
-43.940408 57.477654 -18.136341
-43.945397 55.421703 -17.54213
-44.351505 56.474685 -17.488419
-43.371971 55.157879 -18.347741
-43.945397 55.421703 -17.54213
-42.672598 54.820019 -19.062586
-43.371971 55.157879 -18.347741
-43.054861 55.965839 -19.030088
-42.00609 54.401607 -19.774433
-42.3232 53.593647 -19.092085
-42.672598 54.820019 -19.062586
-40.889359 52.62207 -20.439796
-41.198101 53.912468 -20.394434
3 0 26 27
3 0 28 29
3 0 30 32
3 30 31 32
3 34 33 7
3 1 35 36
3 1 37 39
3 37 9 38
3 37 38 39
3 1 11 9
3 40 14 41
3 42 41 12
3 40 41 42
3 43 7 44
3 45 44 14
3 43 44 45
3 3 18 17
3 4 19 8
3 4 46 48
3 48 47 19
3 46 47 48
3 4 49 51
3 49 20 50
3 49 50 51
3 5 21 10
3 5 22 21
3 2 23 16
3 6 24 13
3 6 52 54
3 54 53 24
3 52 53 54
3 6 55 56
3 3 25 15
3 3 17 25
3 7 57 59
3 59 58 3
3 57 58 59
3 61 60 7
3 62 8 63
3 9 64 66
3 64 8 65
3 64 65 66
3 9 4 8
3 9 10 4
3 11 10 9
3 11 5 10
3 12 13 2
3 14 13 12
3 14 6 13
3 14 15 6
3 7 15 14
3 7 3 15
3 67 1 68
3 69 16 70
3 71 70 1
3 69 70 71
3 72 16 73
3 74 2 75
3 76 75 16
3 74 75 76
3 77 2 78
3 79 12 80
3 81 80 2
3 79 80 81
3 82 12 83
3 85 84 12
3 17 86 88
3 88 87 0
3 86 87 88
3 18 89 91
3 91 90 17
3 89 90 91
3 18 92 93
3 94 18 95
3 96 95 3
3 94 95 96
3 97 18 98
3 100 99 18
3 8 101 102
3 19 103 105
3 105 104 8
3 103 104 105
3 19 106 107
3 19 108 109
3 111 110 19
3 20 112 113
3 20 114 115
3 10 20 4
3 21 20 10
3 21 116 118
3 118 117 20
3 116 117 118
3 21 119 121
3 119 120 121
3 22 122 124
3 124 123 21
3 122 123 124
3 22 125 126
3 16 11 1
3 23 11 16
3 23 5 11
3 13 23 2
3 24 23 13
3 24 5 23
3 24 22 5
3 127 22 128
3 129 128 24
3 127 128 129
3 131 130 22
3 15 132 134
3 134 133 6
3 132 133 134
3 25 135 137
3 137 136 15
3 135 136 137
3 25 138 139
3 25 140 141
3 17 142 144
3 144 143 25
3 142 143 144
3 17 145 147
3 145 0 146
3 145 146 147
3 149 148 0
