ply
format ascii 1.0
element vertex 95
property float x
property float y
property float z
element face 79
property list uchar int vertex_index
end_header
32.650673 -55.325191 62.293198
31.633566 -52.431484 65.5868
32.783657 -51.550747 60.7463
33.576859 -54.669441 57.559883
30.99173 -50.950066 67.178574
31.723553 -50.472786 64.861664
32.674736 -53.445652 61.535263
33.183029 -53.09705 59.10788
33.072109 -54.929302 59.897873
33.413094 -56.408535 58.319832
32.197861 -53.890915 63.963837
32.22263 -55.826206 64.68116
31.6703 -54.408386 66.332825
33.078171 -49.638985 60.013657
32.396717 -50.029621 62.45533
32.217239 -51.959602 63.191063
33.411404 -51.227695 58.317482
33.808483 -52.870136 56.753311
30.569374 -51.199934 68.273003
30.660537 -50.201144 67.978832
30.660537 -50.201144 67.978832
31.114991 -49.969334 66.873635
32.631574 -56.262559 62.61034
32.821947 -56.028127 61.445038
32.821947 -56.028127 61.445038
33.032665 -55.830183 60.247375
32.861391 -55.127246 61.095535
32.226703 -49.282133 63.347424
32.616598 -49.066374 62.143894
32.20286 -56.799589 64.965573
31.96452 -56.11478 65.841912
33.915173 -54.619393 56.455219
34.030985 -53.71974 56.051933
33.692671 -53.769789 57.156597
33.771765 -55.470232 56.856644
33.915173 -54.619393 56.455219
33.567696 -57.142879 57.602253
33.336946 -57.253025 58.631058
30.977229 -51.949169 67.530479
31.298147 -52.689878 66.734592
31.312648 -51.690775 66.382687
30.977229 -51.949169 67.530479
30.569374 -51.199934 68.273003
31.480902 -49.730694 65.71518
31.890121 -49.503715 64.55059
31.357641 -50.711426 66.020119
31.480902 -49.730694 65.71518
31.114991 -49.969334 66.873635
33.203158 -56.5698 59.458355
33.242601 -55.668919 59.108852
33.032665 -55.830183 60.247375
33.336946 -57.253025 58.631058
33.203158 -56.5698 59.458355
31.688356 -55.40587 66.667744
31.96452 -56.11478 65.841912
31.946465 -55.117296 65.506992
31.316513 -53.67833 67.107605
31.651933 -53.419935 65.959812
31.298147 -52.689878 66.734592
31.346052 -54.693222 67.4623
31.316513 -53.67833 67.107605
31.688356 -55.40587 66.667744
31.346052 -54.693222 67.4623
32.957325 -48.871056 60.923057
33.359264 -48.677229 59.7099
32.737444 -49.834303 61.234493
32.957325 -48.871056 60.923057
32.616598 -49.066374 62.143894
32.060135 -50.251204 63.658497
32.226703 -49.282133 63.347424
31.890121 -49.503715 64.55059
32.417553 -56.513067 63.804322
32.631574 -56.262559 62.61034
32.436651 -55.575699 63.487179
32.417553 -56.513067 63.804322
32.20286 -56.799589 64.965573
33.459462 -49.482207 58.810124
33.359264 -48.677229 59.7099
33.626078 -50.276561 57.962036
33.459462 -49.482207 58.810124
33.244788 -50.43334 59.16557
33.795044 -51.121446 57.149994
33.626078 -50.276561 57.962036
33.993583 -51.942667 56.367908
33.795044 -51.121446 57.149994
33.609943 -52.048915 57.535396
34.218994 -52.827835 55.652927
33.993583 -51.942667 56.367908
34.218994 -52.827835 55.652927
34.030985 -53.71974 56.051933
33.689882 -56.339779 57.236618
33.771765 -55.470232 56.856644
33.494976 -55.538988 57.939858
33.689882 -56.339779 57.236618
33.567696 -57.142879 57.602253
3 19 18 4
3 20 4 21
3 0 22 23
3 0 8 6
3 0 24 26
3 26 25 8
3 24 25 26
3 1 12 10
3 27 14 28
3 1 15 5
3 1 10 15
3 30 29 11
3 2 16 13
3 3 17 7
3 3 31 33
3 33 32 17
3 31 32 33
3 3 34 35
3 37 36 9
3 4 38 40
3 40 39 1
3 38 39 40
3 42 41 4
3 43 5 44
3 4 45 47
3 45 5 46
3 45 46 47
3 4 1 5
3 6 7 2
3 8 7 6
3 8 3 7
3 8 9 3
3 48 9 49
3 50 49 8
3 48 49 50
3 52 51 9
3 10 11 0
3 12 11 10
3 12 53 55
3 55 54 11
3 53 54 55
3 56 12 57
3 58 57 1
3 56 57 58
3 59 12 60
3 62 61 12
3 63 13 64
3 14 65 67
3 65 13 66
3 65 66 67
3 14 2 13
3 5 68 70
3 68 14 69
3 68 69 70
3 15 14 5
3 15 2 14
3 15 6 2
3 10 6 15
3 10 0 6
3 11 71 73
3 73 72 0
3 71 72 73
3 75 74 11
3 13 76 77
3 16 78 80
3 80 79 13
3 78 79 80
3 16 81 82
3 7 16 2
3 17 16 7
3 17 83 85
3 85 84 16
3 83 84 85
3 17 86 87
3 89 88 17
3 9 90 92
3 92 91 3
3 90 91 92
3 94 93 9
