ply
format ascii 1.0
element vertex 341
property float x
property float y
property float z
element face 339
property list uchar int vertex_index
end_header
49.892799 -87.475082 2.170938
47.168373 -95.936012 -17.028105
62.736511 -69.50174 -4.964161
55.240547 -79.566299 -5.69832
46.015797 -99.300568 -0.278154
49.567024 -92.42482 -7.603529
51.810539 -81.98848 2.691777
55.095173 -78.526535 -1.392099
52.177193 -83.911346 -1.836981
48.63343 -94.477119 -12.514507
51.63961 -87.362144 -11.018845
50.763596 -88.671799 -15.501421
58.600723 -73.927521 -1.096321
59.017822 -74.217331 -5.30805
44.96479 -96.634224 -20.581755
48.318722 -93.410828 1.177897
50.008488 -90.02417 -2.681318
47.876305 -96.410896 -4.031988
46.800507 -99.202751 -9.266108
45.153889 -101.485725 -14.275841
42.833805 -102.994713 -18.506525
47.809769 -87.639832 11.718025
48.1563 -90.436378 6.392812
52.118458 -85.714287 -6.394754
54.975708 -80.574326 -10.058662
50.754669 -84.645645 2.480586
52.035942 -82.965668 0.422511
50.945103 -85.783905 0.141811
47.979042 -95.294312 -14.855526
49.641323 -91.681885 -14.033165
49.009537 -92.307976 -16.236483
55.223221 -79.060402 -3.541334
57.008537 -76.490784 -3.360943
57.075623 -76.794151 -5.483103
59.021629 -74.309464 -7.422398
57.027245 -77.092018 -7.617304
43.551384 -96.682106 -21.861994
46.000195 -93.11557 -21.460714
47.321697 -96.385818 0.495493
48.181889 -94.91996 -1.42135
46.996002 -97.976929 -2.177553
45.848064 -101.068634 -7.528372
45.048767 -102.486107 -10.166935
46.050831 -100.426605 -11.828239
41.374252 -103.407768 -20.135889
47.964867 -89.008232 9.038002
47.382225 -91.78511 8.577653
47.479733 -93.270798 5.859294
62.32703 -69.699219 -2.867985
63.593788 -67.575089 -2.682987
49.85495 -91.253365 -5.132071
50.980904 -87.984596 -4.552181
50.809254 -89.028427 -6.931192
52.928925 -84.525276 -12.700314
53.23262 -83.901627 -10.469025
53.347019 -80.347221 0.619023
53.529636 -81.112465 -1.57938
53.611202 -81.840637 -3.777777
49.158516 -93.510147 -10.077465
50.525715 -90.011536 -9.3258
50.138718 -90.90654 -11.708748
51.258469 -88.075165 -13.301624
60.703228 -71.860306 -3.042093
56.821198 -76.144272 -1.240736
58.878769 -74.106232 -3.202776
60.953011 -71.801643 -5.141455
46.170597 -96.385254 -18.957769
48.209614 -92.762466 -18.249041
47.211124 -93.032822 -20.006117
49.126953 -90.419571 1.739603
50.017899 -88.759232 -0.251217
49.143524 -91.827736 -0.772554
49.003777 -93.217461 -3.296988
48.708778 -94.563713 -5.840544
46.500595 -99.550995 -4.855221
47.411102 -97.851067 -6.653364
48.2724 -95.83577 -8.394207
47.706116 -96.99894 -10.928122
47.008125 -98.018387 -13.39023
46.160824 -98.863533 -15.710047
44.089287 -102.349312 -16.529539
45.137337 -99.511322 -17.807936
43.913799 -99.947495 -19.608706
42.48251 -100.165909 -21.056555
49.672092 -86.186508 4.603586
48.755901 -87.627518 6.79162
48.979023 -89.013359 4.255242
48.297089 -91.909508 3.777258
47.475952 -94.809448 3.169881
46.3797 -97.662285 2.453052
51.02726 -86.899345 -2.196898
52.205917 -84.827209 -4.105391
53.582561 -82.545403 -5.990969
51.925919 -86.565559 -8.704834
53.451996 -83.234428 -8.224236
55.153198 -80.067535 -7.871649
56.879448 -77.412552 -9.764666
50.122078 -89.122726 -17.555983
43.272443 -94.772304 -22.693337
44.069639 -94.847515 -22.227711
42.754188 -96.606896 -22.327619
44.003647 -104.076565 -10.601278
44.498234 -103.339527 -9.288434
44.575269 -103.122822 -11.442214
44.003647 -104.076565 -10.601278
47.003872 -92.440013 9.690017
47.319576 -91.073627 9.955165
47.013403 -93.167186 8.279624
47.003872 -92.440013 9.690017
63.4738 -68.387681 -4.868031
63.26906 -68.48642 -3.819943
62.531771 -69.60048 -3.916073
53.823484 -82.801304 -12.471381
53.652109 -83.036984 -13.545549
52.578779 -81.167851 1.6554
53.221407 -79.94128 1.727802
52.453167 -80.76191 2.76418
51.64605 -86.872116 -15.189087
51.893486 -86.573799 -14.089189
51.011032 -88.373482 -14.401523
59.445124 -72.874108 -1.018943
58.399074 -73.785427 -0.035407
59.651976 -72.893913 -2.069207
60.496376 -71.8405 -1.991829
59.445124 -72.874108 -1.018943
55.958185 -77.335403 -1.316418
55.844929 -77.042026 -0.237782
54.981916 -78.233158 -0.313464
60.02908 -72.958466 -6.278659
60.996674 -71.750621 -6.195361
59.985416 -73.009487 -5.224752
60.0019 -72.961167 -8.395999
58.964546 -74.368657 -8.48571
47.133516 -91.316299 -21.225128
46.512747 -91.282757 -21.874243
45.645409 -101.079414 -5.286959
45.991867 -100.25634 -3.92869
43.461546 -102.672012 -17.518032
42.896124 -104.035564 -16.889372
42.268383 -104.358265 -17.877865
41.100759 -101.874073 -21.215474
41.928381 -101.786839 -20.596222
40.54663 -103.495002 -20.75514
41.671511 -100.166088 -21.592031
41.100759 -101.874073 -21.215474
49.547811 -85.548542 5.833768
50.088532 -84.840325 4.721283
47.79347 -86.991371 13.072595
47.499111 -88.323738 12.919895
48.113369 -86.316315 11.841834
47.79347 -86.991371 13.072595
48.174278 -86.960403 10.539457
48.113369 -86.316315 11.841834
47.028008 -95.441479 4.185832
47.477843 -94.040123 4.514588
47.029898 -94.672154 5.530539
46.479882 -96.867897 3.827418
46.927826 -96.235867 2.811466
47.028008 -95.441479 4.185832
63.982456 -66.515236 -2.590334
64.411728 -66.329735 -3.62736
49.710097 -89.265197 -18.479242
49.165846 -90.942596 -17.902512
48.753865 -91.085068 -18.825771
57.563816 -74.824398 -0.101685
58.399074 -73.785427 -0.035407
57.967354 -75.759933 -8.583163
58.964546 -74.368657 -8.48571
58.024437 -75.700741 -7.519851
45.294044 -93.064247 -22.027071
44.77579 -94.898838 -21.661354
44.069639 -94.847515 -22.227711
46.512747 -91.282757 -21.874243
45.294044 -93.064247 -22.027071
44.897883 -102.630791 -7.969152
45.319143 -101.838234 -6.623534
45.448415 -101.777371 -8.847653
44.897883 -102.630791 -7.969152
44.498234 -103.339527 -9.288434
45.076301 -102.093071 -12.272866
45.549799 -101.456356 -10.997587
44.575269 -103.122822 -11.442214
44.627831 -102.622631 -13.496667
45.60236 -100.956165 -13.05204
45.076301 -102.093071 -12.272866
41.524351 -104.674084 -18.785564
42.268383 -104.358265 -17.877865
40.794574 -104.880612 -19.600246
42.104028 -103.201241 -19.321207
41.524351 -104.674084 -18.785564
39.951836 -105.068047 -20.313663
40.794574 -104.880612 -19.600246
40.54663 -103.495002 -20.75514
39.951836 -105.068047 -20.313663
47.533348 -89.000988 11.525351
47.499111 -88.323738 12.919895
47.610897 -89.685188 10.18534
47.887318 -88.324032 10.378014
47.533348 -89.000988 11.525351
47.673546 -90.396671 8.807828
47.610897 -89.685188 10.18534
47.319576 -91.073627 9.955165
47.062157 -93.910031 6.920445
47.430979 -92.527954 7.218473
47.013403 -93.167186 8.279624
47.029898 -94.672154 5.530539
47.062157 -93.910031 6.920445
62.960409 -68.637154 -2.775486
62.661379 -68.67025 -1.728125
62.028 -69.732315 -1.820625
63.902439 -67.424355 -3.727444
62.960409 -68.637154 -2.775486
63.26906 -68.48642 -3.819943
64.411728 -66.329735 -3.62736
63.902439 -67.424355 -3.727444
53.975332 -82.48948 -11.355736
53.080772 -84.213452 -11.58467
53.823484 -82.801304 -12.471381
54.846876 -80.825829 -11.150555
54.104164 -82.237977 -10.263844
53.975332 -82.48948 -11.355736
55.811718 -79.168877 -10.986497
54.846876 -80.825829 -11.150555
54.107839 -79.143501 0.692098
53.221407 -79.94128 1.727802
54.221096 -79.436878 -0.386538
54.981916 -78.233158 -0.313464
54.107839 -79.143501 0.692098
45.749468 -100.131126 -1.640156
45.174754 -100.718643 -0.686782
63.673927 -68.181847 -5.918977
62.845101 -69.365379 -6.017309
52.728714 -84.798855 -13.788533
52.093697 -86.30022 -13.000969
51.893486 -86.573799 -14.089189
53.652109 -83.036984 -13.545549
52.728714 -84.798855 -13.788533
61.308277 -70.759957 -1.904775
62.028 -69.732315 -1.820625
61.515129 -70.779763 -2.955039
61.308277 -70.759957 -1.904775
60.496376 -71.8405 -1.991829
56.674053 -75.932773 -0.173893
55.844929 -77.042026 -0.237782
57.71096 -75.035897 -1.168529
57.563816 -74.824398 -0.101685
56.674053 -75.932773 -0.173893
61.95335 -70.515331 -6.105956
62.845101 -69.365379 -6.017309
61.844761 -70.651691 -5.052808
61.95335 -70.515331 -6.105956
60.996674 -71.750621 -6.195361
60.030983 -73.004532 -7.335833
60.02908 -72.958466 -6.278659
59.019725 -74.263397 -6.365224
60.030983 -73.004532 -7.335833
60.0019 -72.961167 -8.395999
48.25462 -91.220246 -19.70431
48.753865 -91.085068 -18.825771
47.710369 -92.897644 -19.127579
47.738981 -91.274925 -20.49783
46.60566 -93.074196 -20.733415
47.133516 -91.316299 -21.225128
48.25462 -91.220246 -19.70431
47.738981 -91.274925 -20.49783
46.23957 -99.469307 -2.589856
46.505899 -98.638748 -1.227854
45.749468 -100.131126 -1.640156
46.748298 -98.763962 -3.516387
46.23957 -99.469307 -2.589856
45.991867 -100.25634 -3.92869
46.174329 -100.309815 -6.191797
45.645409 -101.079414 -5.286959
45.319143 -101.838234 -6.623534
44.07358 -103.167378 -14.691144
44.627831 -102.622631 -13.496667
43.541279 -103.599171 -15.817993
42.896124 -104.035564 -16.889372
44.621588 -101.917518 -15.40269
44.07358 -103.167378 -14.691144
43.541279 -103.599171 -15.817993
42.205948 -98.424187 -21.994751
43.016947 -98.424008 -21.459274
41.671511 -100.166088 -21.592031
42.754188 -96.606896 -22.327619
42.205948 -98.424187 -21.994751
51.682378 -81.486702 3.840974
52.453167 -80.76191 2.76418
51.157755 -82.74131 3.765378
51.682378 -81.486702 3.840974
50.62982 -84.069893 3.659783
51.282604 -83.317062 2.586182
51.157755 -82.74131 3.765378
50.21338 -85.416077 3.542086
50.62982 -84.069893 3.659783
50.088532 -84.840325 4.721283
48.251827 -87.644604 9.199445
48.174278 -86.960403 10.539457
47.887318 -88.324032 10.378014
48.647345 -86.954246 8.076254
48.251827 -87.644604 9.199445
48.360384 -88.317875 7.914811
49.089716 -86.269047 6.927786
48.647345 -86.954246 8.076254
49.213997 -86.907013 5.697603
49.547811 -85.548542 5.833768
49.089716 -86.269047 6.927786
45.862484 -98.235214 3.452156
46.479882 -96.867897 3.827418
45.649008 -99.051754 2.059728
45.862484 -98.235214 3.452156
45.467056 -99.870895 0.694125
46.197749 -98.481426 1.087449
45.649008 -99.051754 2.059728
45.174754 -100.718643 -0.686782
45.467056 -99.870895 0.694125
63.183027 -67.644509 -1.641313
62.661379 -68.67025 -1.728125
63.183027 -67.644509 -1.641313
63.982456 -66.515236 -2.590334
63.4738 -68.387681 -4.868031
63.673927 -68.181847 -5.918977
57.893456 -75.9202 -9.656844
57.967354 -75.759933 -8.583163
56.953346 -77.252285 -8.690985
56.763588 -77.58799 -10.839499
55.927578 -78.993439 -9.911664
55.811718 -79.168877 -10.986497
57.787807 -76.006119 -10.722988
56.763588 -77.58799 -10.839499
57.893456 -75.9202 -9.656844
57.787807 -76.006119 -10.722988
50.717531 -87.461345 -18.200488
49.710097 -89.265197 -18.479242
51.062178 -87.315048 -17.250242
50.717531 -87.461345 -18.200488
51.382936 -87.089585 -16.222962
50.442837 -88.897262 -16.528702
51.062178 -87.315048 -17.250242
51.64605 -86.872116 -15.189087
51.382936 -87.089585 -16.222962
3 0 27 25
3 1 30 28
3 3 33 31
3 3 35 33
3 100 99 36
3 98 99 100
3 4 40 38
3 101 42 102
3 104 103 42
3 105 46 106
3 108 107 46
3 2 109 111
3 111 110 48
3 109 110 111
3 5 52 50
3 113 112 53
3 6 114 116
3 114 55 115
3 114 115 116
3 8 56 26
3 8 57 56
3 9 60 58
3 11 61 29
3 11 117 119
3 119 118 61
3 117 118 119
3 12 120 121
3 12 122 124
3 122 62 123
3 122 123 124
3 7 125 127
3 125 63 126
3 125 126 127
3 13 64 32
3 13 65 64
3 13 128 130
3 130 129 65
3 128 129 130
3 132 131 34
3 14 68 66
3 134 133 37
3 15 71 69
3 17 72 39
3 17 73 72
3 135 74 136
3 18 75 41
3 18 76 75
3 18 77 76
3 19 78 43
3 19 79 78
3 20 137 139
3 137 80 138
3 137 138 139
3 20 81 80
3 20 82 81
3 140 83 141
3 142 141 44
3 140 141 142
3 144 143 83
3 145 84 146
3 21 147 148
3 21 149 150
3 21 151 152
3 22 85 45
3 22 86 85
3 22 87 86
3 153 88 154
3 155 154 47
3 153 154 155
3 156 89 157
3 158 157 88
3 156 157 158
3 160 159 49
3 16 90 70
3 23 91 51
3 23 92 91
3 10 93 59
3 24 94 54
3 24 95 94
3 24 96 95
3 161 97 162
3 163 162 67
3 161 162 163
3 25 26 6
3 27 26 25
3 27 8 26
3 28 29 9
3 30 29 28
3 30 11 29
3 164 12 165
3 31 32 7
3 33 32 31
3 33 13 32
3 33 34 13
3 35 34 33
3 35 166 168
3 168 167 34
3 166 167 168
3 36 37 14
3 169 37 170
3 171 170 36
3 169 170 171
3 173 172 37
3 38 39 15
3 40 39 38
3 40 17 39
3 174 41 175
3 42 176 178
3 176 41 177
3 176 177 178
3 42 18 41
3 42 43 18
3 179 43 180
3 181 180 42
3 179 180 181
3 182 19 183
3 184 183 43
3 182 183 184
3 185 20 186
3 187 44 188
3 189 188 20
3 187 188 189
3 190 44 191
3 193 192 44
3 194 21 195
3 196 45 197
3 198 197 21
3 196 197 198
3 46 199 201
3 199 45 200
3 199 200 201
3 46 22 45
3 46 47 22
3 202 47 203
3 204 203 46
3 202 203 204
3 206 205 47
3 48 207 209
3 207 49 208
3 207 208 209
3 210 49 211
3 212 211 48
3 210 211 212
3 214 213 49
3 50 51 16
3 52 51 50
3 52 23 51
3 53 54 10
3 215 54 216
3 217 216 53
3 215 216 217
3 218 24 219
3 220 219 54
3 218 219 220
3 222 221 24
3 55 223 224
3 55 225 227
3 225 7 226
3 225 226 227
3 26 55 6
3 56 55 26
3 56 7 55
3 56 31 7
3 57 31 56
3 57 3 31
3 229 228 4
3 231 230 2
3 58 59 5
3 60 59 58
3 60 10 59
3 29 60 9
3 61 60 29
3 61 10 60
3 61 53 10
3 232 53 233
3 234 233 61
3 232 233 234
3 236 235 53
3 237 48 238
3 62 239 241
3 239 48 240
3 239 240 241
3 62 2 48
3 63 242 243
3 63 244 246
3 244 12 245
3 244 245 246
3 32 63 7
3 64 63 32
3 64 12 63
3 64 62 12
3 65 62 64
3 65 2 62
3 65 247 249
3 249 248 2
3 247 248 249
3 251 250 65
3 34 252 254
3 254 253 13
3 252 253 254
3 256 255 34
3 66 67 1
3 68 67 66
3 68 257 259
3 259 258 67
3 257 258 259
3 37 68 14
3 260 68 261
3 262 261 37
3 260 261 262
3 264 263 68
3 69 70 0
3 71 70 69
3 71 16 70
3 39 71 15
3 72 71 39
3 72 16 71
3 72 50 16
3 73 50 72
3 73 5 50
3 265 40 266
3 267 266 4
3 265 266 267
3 74 268 270
3 268 40 269
3 268 269 270
3 74 17 40
3 41 271 273
3 271 74 272
3 271 272 273
3 75 74 41
3 75 17 74
3 75 73 17
3 76 73 75
3 76 5 73
3 76 58 5
3 77 58 76
3 77 9 58
3 43 77 18
3 78 77 43
3 78 9 77
3 78 28 9
3 79 28 78
3 79 1 28
3 274 19 275
3 80 276 277
3 80 278 280
3 278 19 279
3 278 279 280
3 80 79 19
3 81 79 80
3 81 1 79
3 81 66 1
3 82 66 81
3 82 14 66
3 44 82 20
3 83 82 44
3 83 14 82
3 83 36 14
3 281 36 282
3 283 282 83
3 281 282 283
3 285 284 36
3 286 6 287
3 288 6 289
3 290 25 291
3 292 291 6
3 290 291 292
3 84 293 295
3 293 25 294
3 293 294 295
3 84 0 25
3 45 296 298
3 298 297 21
3 296 297 298
3 85 299 301
3 301 300 45
3 299 300 301
3 85 302 303
3 85 304 306
3 304 84 305
3 304 305 306
3 86 84 85
3 86 0 84
3 86 69 0
3 87 69 86
3 87 15 69
3 47 87 22
3 88 87 47
3 88 15 87
3 88 38 15
3 89 38 88
3 89 4 38
3 307 89 308
3 309 89 310
3 311 4 312
3 313 312 89
3 311 312 313
3 315 314 4
3 49 316 317
3 319 318 49
3 321 320 2
3 70 27 0
3 90 27 70
3 90 8 27
3 51 90 16
3 91 90 51
3 91 8 90
3 91 57 8
3 92 57 91
3 92 3 57
3 59 52 5
3 93 52 59
3 93 23 52
3 54 93 10
3 94 93 54
3 94 23 93
3 94 92 23
3 95 92 94
3 95 3 92
3 95 35 3
3 96 35 95
3 96 322 324
3 324 323 35
3 322 323 324
3 325 96 326
3 327 326 24
3 325 326 327
3 328 96 329
3 331 330 96
3 67 30 1
3 97 30 67
3 97 11 30
3 332 97 333
3 334 97 335
3 336 11 337
3 338 337 97
3 336 337 338
3 340 339 11
