ply
format ascii 1.0
element vertex 141
property float x
property float y
property float z
element face 122
property list uchar int vertex_index
end_header
-24.0476 -45.186226 -24.320877
-27.184557 -35.627064 -32.199673
-25.909779 -40.582932 -28.095852
-20.670231 -47.244858 -19.886322
-23.068661 -43.569176 -23.20113
-21.465721 -49.434757 -21.030926
-19.429087 -50.092888 -19.070477
-20.869617 -48.252434 -20.571789
-19.945568 -51.426849 -19.561611
-22.036377 -54.475639 -20.073593
-23.339371 -44.296188 -23.849865
-24.011345 -41.584229 -24.983604
-24.314404 -42.18092 -25.645554
-26.601688 -38.146751 -30.122448
-25.737682 -37.668777 -29.523487
-26.235281 -35.273445 -31.568748
-25.131758 -46.200996 -24.690945
-25.06715 -42.929733 -26.153412
-26.188074 -43.790321 -26.582561
-27.071383 -41.290943 -28.584663
-27.818356 -38.707375 -30.658855
-21.946938 -45.455872 -21.504185
-22.184818 -46.319717 -22.160149
-22.843277 -47.354095 -22.612976
-20.836308 -52.906456 -19.866398
-22.443695 -50.758595 -21.331089
-23.883179 -48.523224 -22.936771
-25.191936 -49.770599 -23.226711
-25.108433 -39.972038 -27.541668
-18.880189 -51.709078 -18.625093
-18.67125 -50.965113 -18.352615
-19.13843 -52.376058 -18.87066
-19.687328 -50.759868 -19.316044
-18.880189 -51.709078 -18.625093
-26.91662 -34.209917 -32.92453
-26.441982 -34.033107 -32.609067
-26.709919 -35.450254 -31.88421
-27.447591 -34.331722 -33.244488
-26.91662 -34.209917 -32.92453
-26.324925 -45.537159 -25.817308
-25.659916 -44.995659 -25.636753
-25.796767 -46.742497 -24.8715
-27.756921 -41.666507 -28.834049
-27.302948 -42.998916 -27.80133
-28.130408 -40.374724 -29.871145
-27.44487 -39.999159 -29.621759
-27.756921 -41.666507 -28.834049
-28.525179 -39.003509 -30.927971
-28.130408 -40.374724 -29.871145
-20.732218 -46.827 -19.418085
-19.973332 -48.090103 -19.111004
-21.373495 -46.004418 -20.247782
-20.732218 -46.827 -19.418085
-21.308585 -46.350365 -20.695253
-22.011848 -45.109924 -21.056713
-21.373495 -46.004418 -20.247782
-20.517173 -54.798361 -19.29718
-19.970664 -53.933981 -19.191893
-23.078319 -51.463144 -21.448715
-22.240036 -52.617117 -20.702341
-22.874661 -53.321666 -20.819967
-23.798061 -50.345459 -22.251556
-23.163437 -49.640909 -22.13393
-23.078319 -51.463144 -21.448715
-24.45244 -50.969146 -22.396526
-24.537557 -49.146912 -23.081741
-23.798061 -50.345459 -22.251556
-23.608166 -42.360008 -23.660122
-23.13624 -43.290302 -22.765896
-24.452303 -40.382835 -25.480227
-24.38868 -40.541937 -25.917658
-25.538753 -37.491638 -29.161302
-25.747175 -36.349199 -30.168455
-19.352759 -49.514119 -18.703081
-18.67125 -50.965113 -18.352615
-20.049659 -48.668873 -19.4784
-19.973332 -48.090103 -19.111004
-19.352759 -49.514119 -18.703081
-21.776676 -56.460279 -19.490911
-21.117207 -55.582953 -19.400778
-22.731884 -55.272689 -20.178739
-21.776676 -56.460279 -19.490911
-22.874661 -53.321666 -20.819967
-22.731884 -55.272689 -20.178739
-24.54021 -40.840283 -26.248632
-24.38868 -40.541937 -25.917658
-24.162875 -41.882575 -25.314579
-25.995975 -35.151533 -31.191085
-25.747175 -36.349199 -30.168455
-25.986482 -36.471111 -30.546118
-26.14599 -33.961054 -32.222635
-25.995975 -35.151533 -31.191085
-26.14599 -33.961054 -32.222635
-26.441982 -34.033107 -32.609067
-26.861294 -44.248605 -26.800279
-26.324925 -45.537159 -25.817308
-26.629728 -42.540632 -27.583612
-26.861294 -44.248605 -26.800279
-27.302948 -42.998916 -27.80133
-28.147967 -37.37941 -31.709496
-27.831067 -35.839254 -32.479905
-27.501457 -37.16722 -31.429264
-28.147967 -37.37941 -31.709496
-28.525179 -39.003509 -30.927971
-22.575378 -44.23365 -21.917423
-22.011848 -45.109924 -21.056713
-22.507799 -44.512524 -22.352657
-23.13624 -43.290302 -22.765896
-22.575378 -44.23365 -21.917423
-19.525294 -53.194177 -19.039499
-19.13843 -52.376058 -18.87066
-20.390938 -52.166652 -19.714005
-19.525294 -53.194177 -19.039499
-19.970664 -53.933981 -19.191893
-21.436343 -53.691047 -19.969995
-20.517173 -54.798361 -19.29718
-21.117207 -55.582953 -19.400778
-25.826856 -48.527298 -24.139383
-25.796767 -46.742497 -24.8715
-25.161847 -47.985798 -23.958828
-25.163572 -51.684734 -22.531944
-24.45244 -50.969146 -22.396526
-25.904691 -50.402395 -23.402706
-25.163572 -51.684734 -22.531944
-25.826856 -48.527298 -24.139383
-25.904691 -50.402395 -23.402706
-24.079508 -41.367535 -24.551359
-23.608166 -42.360008 -23.660122
-23.540003 -42.576702 -24.092367
-24.079508 -41.367535 -24.551359
-24.452303 -40.382835 -25.480227
-24.937224 -39.735841 -27.19669
-24.54021 -40.840283 -26.248632
-24.711419 -41.076479 -26.593611
-25.224128 -38.643268 -28.170393
-25.423057 -38.820408 -28.532578
-25.538753 -37.491638 -29.161302
-24.937224 -39.735841 -27.19669
-25.224128 -38.643268 -28.170393
-27.447591 -34.331722 -33.244488
-27.831067 -35.839254 -32.479905
3 29 6 30
3 31 8 32
3 33 32 6
3 31 32 33
3 0 12 10
3 1 15 13
3 1 34 36
3 36 35 15
3 34 35 36
3 1 37 38
3 39 18 40
3 41 40 16
3 39 40 41
3 42 19 43
3 44 20 45
3 46 45 19
3 44 45 46
3 48 47 20
3 3 49 50
3 3 51 52
3 3 53 55
3 53 21 54
3 53 54 55
3 5 22 7
3 5 23 22
3 56 24 57
3 58 25 59
3 60 59 9
3 58 59 60
3 61 26 62
3 63 62 25
3 61 62 63
3 64 27 65
3 66 65 26
3 64 65 66
3 4 67 68
3 70 69 11
3 2 28 17
3 72 71 14
3 6 73 74
3 6 75 77
3 75 3 76
3 75 76 77
3 6 7 3
3 8 7 6
3 8 5 7
3 78 9 79
3 80 9 81
3 83 82 9
3 10 11 4
3 12 11 10
3 12 84 86
3 86 85 11
3 84 85 86
3 13 14 2
3 15 14 13
3 15 87 89
3 89 88 14
3 87 88 89
3 15 90 91
3 93 92 15
3 16 17 0
3 18 17 16
3 18 2 17
3 94 18 95
3 19 96 98
3 96 18 97
3 96 97 98
3 19 2 18
3 19 13 2
3 20 13 19
3 20 1 13
3 20 99 101
3 101 100 1
3 99 100 101
3 103 102 20
3 21 104 105
3 21 106 108
3 106 4 107
3 106 107 108
3 7 21 3
3 22 21 7
3 22 4 21
3 22 10 4
3 23 10 22
3 23 0 10
3 109 8 110
3 24 111 113
3 111 8 112
3 111 112 113
3 24 5 8
3 9 114 116
3 114 24 115
3 114 115 116
3 25 24 9
3 25 5 24
3 25 23 5
3 26 23 25
3 26 0 23
3 26 16 0
3 27 16 26
3 27 117 119
3 119 118 16
3 117 118 119
3 120 27 121
3 122 27 123
3 125 124 27
3 11 126 128
3 128 127 4
3 126 127 128
3 130 129 11
3 17 12 0
3 28 12 17
3 28 131 133
3 133 132 12
3 131 132 133
3 14 28 2
3 134 28 135
3 136 135 14
3 134 135 136
3 138 137 28
3 140 139 1
