ply
format ascii 1.0
element vertex 300
property float x
property float y
property float z
element face 328
property list uchar int vertex_index
end_header
-16.158829 -112.537033 -20.955261
-29.314949 -99.270218 -23.590366
-19.21566 -99.265472 -19.868938
-28.134079 -110.573593 -23.388523
-7.141888 -108.973022 -16.60247
-11.945801 -94.064972 -16.163206
-35.159283 -90.920837 -25.160561
-30.196171 -92.376205 -23.739368
-34.262367 -103.128738 -23.730389
-10.419382 -117.037354 -18.927902
-6.193422 -114.968918 -16.419952
-11.142803 -111.447418 -18.926533
-21.397661 -91.41449 -19.633263
-15.198649 -97.188705 -18.042255
-18.035791 -89.003616 -17.863605
-22.749039 -106.53952 -22.262402
-17.373596 -106.372803 -20.4151
-23.998787 -99.972107 -21.822338
-25.467003 -92.60788 -21.659409
-10.461893 -121.49762 -17.98275
-15.685439 -117.668777 -20.986736
-21.700813 -116.876083 -22.305347
-21.967106 -112.193909 -22.617714
-28.563578 -105.364975 -23.603123
-34.650402 -97.434921 -24.422703
-12.791567 -104.769394 -18.486515
-9.127411 -101.906906 -16.382601
-37.712433 -86.438629 -25.983738
-35.375107 -87.406815 -25.598793
-13.132877 -114.991516 -20.088528
-10.667276 -114.383926 -19.01355
-13.533398 -112.173813 -19.970844
-19.63727 -90.33577 -18.724461
-26.087029 -103.052856 -22.896152
-23.328394 -103.365005 -22.025124
-26.617411 -99.785416 -22.771935
-30.599514 -88.680603 -23.934612
-27.767258 -92.66684 -22.728737
-28.321335 -88.862732 -22.853325
-26.202156 -88.68985 -21.741814
-13.017134 -121.800568 -19.050182
-12.911697 -119.806564 -19.69836
-15.683014 -119.835327 -20.618565
-28.033651 -112.823792 -23.011169
-24.844423 -115.990768 -22.516624
-24.902176 -113.886734 -22.973419
-21.776848 -114.661102 -22.587727
-25.040724 -111.528717 -23.156696
-25.281666 -108.931885 -23.151501
-28.305708 -108.083618 -23.558659
-34.429596 -100.390793 -24.088943
-37.1488 -96.213943 -24.285053
-37.338161 -93.142319 -24.817989
-6.537622 -112.117386 -16.591095
-18.232784 -102.927246 -20.118542
-14.971439 -105.745407 -19.457043
-15.970545 -102.167236 -19.17775
-13.480274 -95.733948 -17.126724
-12.081499 -99.690979 -17.281425
-10.454199 -98.061172 -16.254356
-32.355057 -95.214966 -24.352226
-29.757231 -95.914383 -23.629997
-32.686714 -91.775452 -24.585583
-32.977104 -88.176712 -24.885605
-31.169361 -109.36058 -23.24625
-31.286072 -106.975281 -23.621716
-34.148895 -105.641846 -23.289608
-8.080881 -118.640488 -17.376698
-8.164913 -116.176346 -17.727718
-8.463184 -113.419098 -17.853287
-9.008095 -110.371582 -17.812889
-20.282694 -95.416443 -19.699833
-17.108294 -98.38208 -18.944016
-18.343372 -94.425339 -18.786545
-16.584877 -93.151459 -17.910057
-14.991791 -91.647797 -17.034393
-19.401768 -109.709244 -21.643326
-16.674129 -109.580673 -20.713181
-19.978065 -106.636169 -21.362564
-20.694675 -103.3284 -21.076805
-21.518559 -99.801208 -20.834606
-27.189583 -96.316467 -22.707329
-24.723492 -96.378326 -21.69175
-22.411617 -96.077179 -20.671844
-23.338509 -92.185349 -20.613052
-10.366703 -119.407394 -18.604404
-12.93619 -117.536087 -20.02198
-15.833959 -115.23439 -21.072353
-21.711559 -118.820236 -21.689552
-18.635656 -119.501251 -21.304882
-18.625328 -117.443146 -21.771221
-18.732506 -115.1185 -21.927422
-18.985909 -112.538528 -21.85677
-22.290241 -109.48468 -22.482357
-25.633427 -106.104538 -23.040943
-28.906326 -102.424606 -23.594704
-31.464251 -104.35994 -23.855598
-31.711765 -101.522385 -24.019665
-32.017845 -98.470123 -24.171772
-34.90498 -94.272171 -24.772121
-37.538757 -89.875107 -25.381481
-39.925617 -85.341263 -25.988773
-14.149647 -109.087784 -19.739288
-11.85548 -108.236359 -18.731113
-9.806774 -107.048523 -17.667385
-13.919641 -101.074829 -18.24361
-10.842545 -103.476364 -17.473969
-8.011387 -105.558121 -16.514189
-37.76757 -84.652329 -26.304182
-38.872 -84.138542 -26.391556
-29.634557 -86.859108 -23.539629
-29.460425 -88.771668 -23.393968
-30.773646 -86.768044 -24.080272
-28.578692 -86.897751 -22.972292
-29.634557 -86.859108 -23.539629
-14.403541 -121.761887 -19.473408
-13.115009 -122.654564 -18.538227
-15.736481 -120.779267 -20.257599
-14.350074 -120.817948 -19.834373
-14.403541 -121.761887 -19.473408
-38.310646 -95.533585 -24.017603
-37.073721 -97.643318 -24.022463
-38.37912 -94.046203 -24.375385
-38.310646 -95.533585 -24.017603
-6.022063 -109.741035 -15.904289
-5.719931 -111.313217 -15.898601
-6.839755 -110.545204 -16.596782
-6.347359 -108.129776 -15.936667
-6.022063 -109.741035 -15.904289
-10.49233 -95.14521 -15.653804
-9.746529 -97.14331 -15.699379
-11.2 -96.063072 -16.208781
-11.269655 -93.141083 -15.651344
-10.49233 -95.14521 -15.653804
-34.249179 -85.968864 -25.488356
-34.176105 -87.791764 -25.242199
-35.448181 -85.583916 -25.844949
-33.089166 -86.312104 -25.072983
-34.249179 -85.968864 -25.488356
-32.620228 -108.641471 -22.972324
-31.130654 -110.431602 -22.949745
-34.109995 -106.782105 -22.994003
-32.659128 -107.501213 -23.267929
-32.620228 -108.641471 -22.972324
-17.301702 -88.237419 -17.441612
-15.779701 -89.559509 -17.027006
-16.513791 -90.325706 -17.448999
-25.237175 -88.42424 -21.207231
-26.558241 -86.672417 -21.844553
-9.403465 -122.107048 -16.890857
-10.559252 -122.403282 -17.499125
-9.31083 -121.157608 -17.36503
-9.403465 -122.107048 -16.890857
-10.414298 -120.452507 -18.293577
-9.263235 -120.112495 -17.675857
-9.31083 -121.157608 -17.36503
-38.655319 -89.287247 -25.29554
-37.438459 -91.508713 -25.099735
-38.555021 -90.920853 -25.013794
-39.848749 -87.020325 -25.599186
-38.732187 -87.608185 -25.685127
-38.655319 -89.287247 -25.29554
-5.283241 -115.518463 -15.495266
-6.135442 -116.244186 -16.225916
-7.801327 -102.855446 -15.81487
-7.243315 -104.681053 -15.880664
-8.569399 -103.732514 -16.448395
-36.598907 -85.136421 -26.111709
-36.54377 -86.922722 -25.791266
-37.76757 -84.652329 -26.304182
-35.448181 -85.583916 -25.844949
-36.598907 -85.136421 -26.111709
-21.084336 -88.81588 -19.202736
-20.517466 -90.87513 -19.178862
-21.964532 -89.35524 -19.657137
-20.296712 -88.24347 -18.74605
-21.084336 -88.81588 -19.202736
-19.495973 -87.577393 -18.315622
-18.836531 -89.669693 -18.294033
-20.296712 -88.24347 -18.74605
-18.77306 -86.892417 -17.888126
-19.495973 -87.577393 -18.315622
-27.519102 -86.81131 -22.416536
-27.261745 -88.776291 -22.29757
-28.578692 -86.897751 -22.972292
-26.558241 -86.672417 -21.844553
-27.519102 -86.81131 -22.416536
-11.836872 -122.554756 -18.03284
-13.115009 -122.654564 -18.538227
-11.739514 -121.649094 -18.516466
-10.559252 -122.403282 -17.499125
-11.836872 -122.554756 -18.03284
-26.439037 -114.40728 -22.763897
-26.412026 -115.402618 -22.432752
-28.00664 -113.81913 -22.680025
-35.714119 -99.731743 -23.924408
-34.345981 -101.759766 -23.909666
-35.630505 -101.100716 -23.745131
-35.789198 -98.302368 -24.186998
-35.714119 -99.731743 -23.924408
-37.073721 -97.643318 -24.022463
-38.4738 -92.510391 -24.641853
-37.243481 -94.678131 -24.551521
-38.37912 -94.046203 -24.375385
-38.555021 -90.920853 -25.013794
-38.4738 -92.510391 -24.641853
-5.528515 -112.77935 -15.791553
-5.356415 -114.205117 -15.705982
-6.365522 -113.543152 -16.505523
-5.528515 -112.77935 -15.791553
-5.719931 -111.313217 -15.898601
-9.051952 -99.081581 -15.722367
-8.388559 -101.004448 -15.78649
-9.790805 -99.984039 -16.318479
-9.051952 -99.081581 -15.722367
-9.746529 -97.14331 -15.699379
-31.900371 -86.564049 -24.597487
-31.788309 -88.428657 -24.410108
-33.089166 -86.312104 -25.072983
-30.773646 -86.768044 -24.080272
-31.900371 -86.564049 -24.597487
-29.562799 -112.163208 -22.832204
-28.00664 -113.81913 -22.680025
-29.601506 -111.092186 -23.128709
-29.562799 -112.163208 -22.832204
-31.130654 -110.431602 -22.949745
-35.489962 -104.88015 -22.922297
-34.109995 -106.782105 -22.994003
-35.522819 -103.67553 -23.245725
-35.489962 -104.88015 -22.922297
-35.579555 -102.418976 -23.466116
-34.205631 -104.385292 -23.509999
-35.522819 -103.67553 -23.245725
-35.630505 -101.100716 -23.745131
-35.579555 -102.418976 -23.466116
-7.079172 -118.079971 -16.70429
-7.108344 -119.207238 -16.37774
-7.121188 -116.8479 -16.879799
-7.079172 -118.079971 -16.70429
-8.122897 -117.408417 -17.552208
-7.179168 -115.572632 -17.073835
-6.135442 -116.244186 -16.225916
-7.121188 -116.8479 -16.879799
-14.271163 -90.803482 -16.582723
-12.748168 -92.012069 -16.147129
-13.468796 -92.856384 -16.598799
-14.271163 -90.803482 -16.582723
-15.779701 -89.559509 -17.027006
-17.301702 -88.237419 -17.441612
-18.77306 -86.892417 -17.888126
-23.805352 -90.171989 -20.642851
-24.770332 -90.4376 -21.177433
-25.237175 -88.42424 -21.207231
-22.834927 -89.78656 -20.152956
-22.368085 -91.79992 -20.123157
-23.805352 -90.171989 -20.642851
-21.964532 -89.35524 -19.657137
-22.834927 -89.78656 -20.152956
-8.120324 -119.729042 -17.062005
-7.108344 -119.207238 -16.37774
-9.223792 -119.023941 -17.990551
-8.120324 -119.729042 -17.062005
-9.263235 -120.112495 -17.675857
-24.842759 -116.902885 -22.115278
-26.412026 -115.402618 -22.432752
-23.276327 -118.317619 -21.701742
-24.842759 -116.902885 -22.115278
-23.277991 -117.405502 -22.103088
-21.747084 -119.641891 -21.185285
-23.276327 -118.317619 -21.701742
-20.221817 -120.046203 -21.074558
-21.747084 -119.641891 -21.185285
-18.683865 -120.386711 -20.882223
-20.221817 -120.046203 -21.074558
-20.173608 -119.160743 -21.497217
-17.212802 -120.612229 -20.600758
-18.683865 -120.386711 -20.882223
-17.159335 -119.668289 -20.961723
-15.736481 -120.779267 -20.257599
-17.212802 -120.612229 -20.600758
-39.978592 -83.589859 -26.394073
-38.872 -84.138542 -26.391556
-38.819025 -85.889946 -25.986255
-40.954825 -84.759568 -25.801235
-39.848749 -87.020325 -25.599186
-41.014597 -83.045716 -26.294935
-40.954825 -84.759568 -25.801235
-39.978592 -83.589859 -26.394073
-41.014597 -83.045716 -26.294935
-5.283241 -115.518463 -15.495266
-5.356415 -114.205117 -15.705982
-6.782108 -106.422325 -15.892526
-6.347359 -108.129776 -15.936667
-7.576637 -107.265571 -16.558329
-6.782108 -106.422325 -15.892526
-7.243315 -104.681053 -15.880664
-7.801327 -102.855446 -15.81487
-8.388559 -101.004448 -15.78649
-11.269655 -93.141083 -15.651344
-12.748168 -92.012069 -16.147129
3 109 108 27
3 0 31 29
3 1 35 33
3 110 38 111
3 112 111 36
3 110 111 112
3 114 113 38
3 115 40 116
3 117 42 118
3 119 118 40
3 117 118 119
3 3 45 43
3 3 47 45
3 3 49 47
3 120 51 121
3 123 122 51
3 4 124 126
3 126 125 53
3 124 125 126
3 4 127 128
3 2 56 54
3 5 59 57
3 5 129 131
3 131 130 59
3 129 130 131
3 5 132 133
3 6 62 60
3 134 63 135
3 136 135 28
3 134 135 136
3 138 137 63
3 139 64 140
3 141 66 142
3 143 142 64
3 141 142 143
3 9 68 67
3 11 69 30
3 11 70 69
3 12 73 71
3 14 74 32
3 14 75 74
3 14 144 146
3 146 145 75
3 144 145 146
3 15 78 76
3 17 79 34
3 17 80 79
3 7 81 61
3 18 82 37
3 18 83 82
3 18 84 83
3 148 147 39
3 19 149 150
3 19 151 152
3 19 153 155
3 153 85 154
3 153 154 155
3 20 86 41
3 20 87 86
3 21 88 44
3 21 89 88
3 21 90 89
3 22 91 46
3 22 92 91
3 22 93 92
3 23 94 48
3 23 95 94
3 8 96 65
3 24 97 50
3 24 98 97
3 24 99 98
3 156 100 157
3 158 157 52
3 156 157 158
3 159 101 160
3 161 160 100
3 159 160 161
3 10 162 163
3 16 102 77
3 25 103 55
3 25 104 103
3 13 105 72
3 26 106 58
3 26 107 106
3 26 164 166
3 166 165 107
3 164 165 166
3 27 28 6
3 167 28 168
3 169 168 27
3 167 168 169
3 171 170 28
3 29 30 9
3 31 30 29
3 31 11 30
3 172 32 173
3 174 173 12
3 172 173 174
3 175 32 176
3 177 14 178
3 179 178 32
3 177 178 179
3 181 180 14
3 33 34 15
3 35 34 33
3 35 17 34
3 36 37 7
3 38 37 36
3 38 18 37
3 38 39 18
3 182 39 183
3 184 183 38
3 182 183 184
3 186 185 39
3 40 187 188
3 40 189 191
3 189 19 190
3 189 190 191
3 40 41 19
3 42 41 40
3 42 20 41
3 43 192 194
3 192 44 193
3 192 193 194
3 45 44 43
3 45 21 44
3 45 46 21
3 47 46 45
3 47 22 46
3 47 48 22
3 49 48 47
3 49 23 48
3 195 50 196
3 197 196 8
3 195 196 197
3 51 198 200
3 198 50 199
3 198 199 200
3 51 24 50
3 51 52 24
3 201 52 202
3 203 202 51
3 201 202 203
3 205 204 52
3 53 206 208
3 208 207 10
3 206 207 208
3 210 209 53
3 54 55 16
3 56 55 54
3 56 25 55
3 57 58 13
3 59 58 57
3 59 26 58
3 59 211 213
3 213 212 26
3 211 212 213
3 215 214 59
3 60 61 1
3 62 61 60
3 62 7 61
3 28 62 6
3 63 62 28
3 63 7 62
3 63 36 7
3 216 36 217
3 218 217 63
3 216 217 218
3 220 219 36
3 221 43 222
3 64 223 225
3 223 43 224
3 223 224 225
3 64 3 43
3 64 65 3
3 66 65 64
3 66 8 65
3 226 66 227
3 228 66 229
3 230 8 231
3 232 231 66
3 230 231 232
3 234 233 8
3 67 235 236
3 68 237 239
3 239 238 67
3 237 238 239
3 68 240 242
3 240 10 241
3 240 241 242
3 30 68 9
3 69 68 30
3 69 10 68
3 69 53 10
3 70 53 69
3 70 4 53
3 71 72 2
3 73 72 71
3 73 13 72
3 32 73 12
3 74 73 32
3 74 13 73
3 74 57 13
3 75 57 74
3 75 5 57
3 75 243 245
3 245 244 5
3 243 244 245
3 247 246 75
3 249 248 14
3 76 77 0
3 78 77 76
3 78 16 77
3 34 78 15
3 79 78 34
3 79 16 78
3 79 54 16
3 80 54 79
3 80 2 54
3 61 35 1
3 81 35 61
3 81 17 35
3 37 81 7
3 82 81 37
3 82 17 81
3 82 80 17
3 83 80 82
3 83 2 80
3 83 71 2
3 84 71 83
3 84 12 71
3 39 84 18
3 250 84 251
3 252 251 39
3 250 251 252
3 253 12 254
3 255 254 84
3 253 254 255
3 257 256 12
3 258 67 259
3 85 260 262
3 260 67 261
3 260 261 262
3 85 9 67
3 41 85 19
3 86 85 41
3 86 9 85
3 86 29 9
3 87 29 86
3 87 0 29
3 44 263 264
3 88 265 267
3 267 266 44
3 265 266 267
3 88 268 269
3 88 270 271
3 89 272 274
3 274 273 88
3 272 273 274
3 89 275 276
3 89 277 279
3 277 42 278
3 277 278 279
3 90 42 89
3 90 20 42
3 46 90 21
3 91 90 46
3 91 20 90
3 91 87 20
3 92 87 91
3 92 0 87
3 92 76 0
3 93 76 92
3 93 15 76
3 48 93 22
3 94 93 48
3 94 15 93
3 94 33 15
3 95 33 94
3 95 1 33
3 65 49 3
3 96 49 65
3 96 23 49
3 50 96 8
3 97 96 50
3 97 23 96
3 97 95 23
3 98 95 97
3 98 1 95
3 98 60 1
3 99 60 98
3 99 6 60
3 52 99 24
3 100 99 52
3 100 6 99
3 100 27 6
3 101 27 100
3 101 280 282
3 282 281 27
3 280 281 282
3 283 101 284
3 285 101 286
3 288 287 101
3 290 289 10
3 77 31 0
3 102 31 77
3 102 11 31
3 55 102 16
3 103 102 55
3 103 11 102
3 103 70 11
3 104 70 103
3 104 4 70
3 72 56 2
3 105 56 72
3 105 25 56
3 58 105 13
3 106 105 58
3 106 25 105
3 106 104 25
3 107 104 106
3 107 4 104
3 107 291 293
3 293 292 4
3 291 292 293
3 295 294 107
3 297 296 26
3 299 298 5
