ply
format ascii 1.0
element vertex 107
property float x
property float y
property float z
element face 89
property list uchar int vertex_index
end_header
67.711342 -27.481136 -5.194647
70.333076 -34.907848 1.982778
65.824829 -32.156998 -4.684864
68.486488 -23.136843 -5.201164
69.25943 -31.216129 -1.774969
68.266129 -25.249479 -5.251139
66.850639 -25.622429 -6.896166
70.074455 -31.206337 -0.202698
69.868149 -33.076073 0.041975
68.560074 -33.283966 -1.458982
69.245407 -35.021793 0.438055
66.875641 -29.794851 -5.010763
65.966568 -28.057095 -6.753082
64.919998 -30.539711 -6.479525
69.038185 -25.242332 -3.592636
68.971481 -27.236591 -3.608341
69.583382 -29.226542 -1.943039
68.528976 -29.347027 -3.504616
67.756927 -31.538198 -3.261705
66.718079 -33.77681 -2.867571
70.100613 -33.991961 1.012377
70.147927 -33.115499 0.849556
70.38039 -34.031387 1.819957
68.174564 -22.086517 -6.02926
68.410438 -22.1597 -5.13531
65.526245 -27.188629 -7.643574
65.015343 -28.48817 -7.523148
69.265114 -26.295516 -2.786218
69.002803 -25.428669 -2.750357
69.231762 -27.292646 -2.79407
69.004833 -26.239462 -3.600488
69.265114 -26.295516 -2.786218
67.131824 -34.587479 -1.927333
67.639077 -33.530388 -2.163276
68.052822 -34.341057 -1.223038
66.102696 -34.905441 -2.593563
67.131824 -34.587479 -1.927333
64.804413 -32.599562 -5.37559
65.228828 -33.347777 -4.447582
67.884575 -24.259347 -6.087649
67.994754 -23.203029 -6.062661
68.376308 -24.193161 -5.226152
67.17683 -24.445822 -6.910162
67.884575 -24.259347 -6.087649
67.558384 -25.435954 -6.073652
66.423423 -24.694444 -7.776079
67.17683 -24.445822 -6.910162
70.25108 -32.180632 0.727219
70.057136 -31.355356 0.634879
69.971302 -32.141205 -0.080362
70.25108 -32.180632 0.727219
70.147927 -33.115499 0.849556
68.395488 -35.20997 -0.27452
68.052822 -34.341057 -1.223038
68.90274 -34.152879 -0.510463
64.492058 -29.729478 -7.386369
65.015343 -28.48817 -7.523148
65.443283 -29.298403 -6.616303
64.351998 -31.790919 -6.27292
65.372413 -31.348354 -5.582194
64.804413 -32.599562 -5.37559
63.961483 -31.038297 -7.201512
64.351998 -31.790919 -6.27292
64.492058 -29.729478 -7.386369
63.961483 -31.038297 -7.201512
70.485844 -34.976991 2.823966
70.38039 -34.031387 1.819957
68.174564 -22.086517 -6.02926
67.994754 -23.203029 -6.062661
65.96828 -25.971297 -7.715115
66.408603 -26.839762 -6.824624
65.526245 -27.188629 -7.643574
66.423423 -24.694444 -7.776079
65.96828 -25.971297 -7.715115
68.594047 -23.268363 -4.341569
68.410438 -22.1597 -5.13531
68.869896 -24.321108 -3.537305
69.002803 -25.428669 -2.750357
68.762337 -24.189588 -4.3969
68.594047 -23.268363 -4.341569
68.869896 -24.321108 -3.537305
69.951817 -30.324826 -0.255327
70.057136 -31.355356 0.634879
69.70628 -29.334928 -1.125498
69.951817 -30.324826 -0.255327
69.828919 -30.216439 -1.072869
69.537712 -28.287622 -1.961419
69.70628 -29.334928 -1.125498
69.277432 -28.231566 -2.77569
69.231762 -27.292646 -2.79407
69.537712 -28.287622 -1.961419
65.675454 -34.157682 -3.538936
65.228828 -33.347777 -4.447582
66.271454 -32.966904 -3.776218
65.675454 -34.157682 -3.538936
66.102696 -34.905441 -2.593563
70.489563 -35.798313 3.02493
70.485844 -34.976991 2.823966
70.060074 -35.821985 2.219839
70.489563 -35.798313 3.02493
69.516239 -35.878957 1.447477
69.789242 -34.964821 1.210417
70.060074 -35.821985 2.219839
68.754948 -36.01803 0.713382
69.516239 -35.878957 1.447477
68.395488 -35.20997 -0.27452
68.754948 -36.01803 0.713382
3 0 6 5
3 1 20 22
3 20 8 21
3 20 21 22
3 1 10 8
3 2 13 11
3 3 23 24
3 26 25 12
3 27 14 28
3 29 15 30
3 31 30 14
3 29 30 31
3 4 16 7
3 4 17 16
3 4 18 17
3 32 19 33
3 34 33 9
3 32 33 34
3 36 35 19
3 38 37 2
3 5 39 41
3 41 40 3
3 39 40 41
3 6 42 44
3 44 43 5
3 42 43 44
3 6 45 46
3 47 7 48
3 8 49 51
3 49 7 50
3 49 50 51
3 8 4 7
3 8 9 4
3 10 9 8
3 10 52 54
3 54 53 9
3 52 53 54
3 11 12 0
3 13 12 11
3 13 55 57
3 57 56 12
3 55 56 57
3 58 13 59
3 60 59 2
3 58 59 60
3 61 13 62
3 64 63 13
3 65 1 66
3 68 67 3
3 12 6 0
3 69 6 70
3 71 70 12
3 69 70 71
3 73 72 6
3 74 3 75
3 14 76 77
3 14 78 80
3 78 3 79
3 78 79 80
3 14 5 3
3 15 5 14
3 15 0 5
3 7 81 82
3 16 83 85
3 85 84 7
3 83 84 85
3 16 86 87
3 16 88 90
3 88 15 89
3 88 89 90
3 17 15 16
3 17 0 15
3 17 11 0
3 18 11 17
3 18 2 11
3 9 18 4
3 19 18 9
3 19 2 18
3 19 91 93
3 93 92 2
3 91 92 93
3 95 94 19
3 96 1 97
3 98 1 99
3 100 10 101
3 102 101 1
3 100 101 102
3 103 10 104
3 106 105 10
