ply
format ascii 1.0
element vertex 234
property float x
property float y
property float z
element face 216
property list uchar int vertex_index
end_header
-49.295242 -30.488136 63.428558
-54.117073 -27.449844 55.153713
-43.617985 -35.077827 70.592705
-37.365955 -43.502884 67.6745
-48.301479 -32.777203 58.65765
-51.705254 -28.681688 59.36552
-46.686131 -32.737549 67.203857
-43.383633 -37.050262 66.150574
-45.910667 -34.792938 62.47776
-39.903046 -37.142422 73.495148
-40.470753 -39.197098 69.509949
-48.862991 -28.769764 66.693764
-51.446579 -26.681017 62.813225
-53.908165 -25.135578 58.594898
-56.386597 -24.0319 54.209732
-48.921516 -31.57225 61.15638
-50.115044 -30.672501 59.161861
-50.51033 -29.514637 61.426056
-48.031578 -31.576225 65.358459
-46.457432 -33.712051 65.00441
-47.712143 -32.597763 63.108543
-47.107868 -33.732746 60.577843
-55.362259 -27.019144 53.055695
-41.845993 -36.16156 72.110016
-40.365082 -38.128056 71.712692
-42.100422 -37.114944 70.202644
-52.680573 -25.840515 60.736969
-55.722294 -23.003283 55.37183
-37.305164 -42.24041 70.131927
-51.317078 -29.92017 57.142159
-52.902077 -27.996727 57.266438
-45.224804 -33.921803 68.95295
-43.681267 -36.017372 68.569046
-45.124592 -34.86834 66.830032
-44.680122 -35.91452 64.341599
-37.798744 -38.006996 74.74649
-38.471764 -39.038876 73.087166
-38.811287 -40.151764 71.013458
-38.853306 -41.324169 68.627808
-41.989342 -38.156078 67.881714
-40.27507 -40.3283 67.000572
-49.298866 -29.545815 65.312408
-50.562729 -28.503397 63.349804
-50.18457 -27.662729 64.803947
-39.065807 -36.255989 74.768494
-41.191566 -35.314453 73.504486
-43.141598 -34.252777 72.110741
-44.910088 -33.097977 70.587601
-46.507721 -31.893162 68.94104
-47.959351 -30.691118 67.17955
-51.783978 -27.594637 61.304382
-52.988541 -26.830645 59.193008
-54.194408 -26.203152 57.037647
-55.141586 -24.543278 56.410591
-55.413258 -25.689482 54.86454
-56.652817 -25.260941 52.701393
-53.968018 -28.154218 54.137338
-53.331915 -28.384607 55.136654
-54.739666 -27.234494 54.104704
-54.59061 -27.938868 53.08833
-53.968018 -28.154218 54.137338
-36.661551 -43.953114 68.434814
-36.631155 -43.321877 69.663528
-37.33556 -42.871647 68.903213
-48.909025 -32.36802 57.695465
-47.948397 -33.436129 57.389469
-44.959305 -35.917875 62.058529
-44.344032 -36.478666 62.990448
-45.295395 -35.353729 63.40968
-45.545202 -35.379234 61.132998
-44.959305 -35.917875 62.058529
-47.334372 -33.873554 58.300428
-46.737566 -34.351326 59.260525
-47.704673 -33.254975 59.617746
-47.948397 -33.436129 57.389469
-47.334372 -33.873554 58.300428
-40.070666 -40.916437 65.653553
-40.931867 -39.796272 66.136948
-39.468479 -41.431839 66.519112
-40.070666 -40.916437 65.653553
-38.468327 -35.862988 75.128579
-37.925785 -36.662823 75.339932
-41.719224 -34.43356 73.281227
-40.668125 -34.946754 73.91822
-42.69424 -33.902721 72.584355
-42.166582 -34.783615 72.807614
-41.719224 -34.43356 73.281227
-45.398369 -32.148482 70.357597
-44.535347 -32.755218 71.122475
-46.197186 -31.546074 69.534317
-45.708905 -32.49557 69.76432
-45.398369 -32.148482 70.357597
-48.411171 -29.730441 66.936657
-47.701375 -30.328378 67.825344
-48.153194 -29.3677 67.582451
-55.253563 -27.767691 52.114815
-54.59061 -27.938868 53.08833
-56.004345 -26.848962 52.027817
-55.253563 -27.767691 52.114815
-42.486149 -38.157253 65.711949
-43.102808 -37.6036 64.813382
-49.10718 -27.889686 66.208378
-48.421002 -28.471964 67.107349
-48.421002 -28.471964 67.107349
-48.153194 -29.3677 67.582451
-52.297869 -25.441817 61.268111
-52.063576 -26.260766 61.775097
-51.680872 -25.862068 62.306239
-52.927033 -25.051199 60.222156
-52.297869 -25.441817 61.268111
-53.540829 -24.69873 59.151121
-53.294369 -25.488046 59.665934
-52.927033 -25.051199 60.222156
-55.837511 -22.27631 54.658828
-55.162886 -22.58937 55.739208
-55.278103 -21.862397 55.026207
-56.369692 -22.730199 54.273384
-55.837511 -22.27631 54.658828
-56.701844 -23.244508 53.692335
-56.054445 -23.517592 54.790781
-56.369692 -22.730199 54.273384
-57.016209 -23.801602 53.113484
-56.701844 -23.244508 53.692335
-36.465311 -42.659615 70.817909
-37.156326 -41.626931 71.256191
-36.465311 -42.659615 70.817909
-36.631155 -43.321877 69.663528
-49.815807 -31.315669 57.94757
-48.909025 -32.36802 57.695465
-49.208261 -31.724852 58.909756
-50.416825 -30.939503 56.93772
-49.815807 -31.315669 57.94757
-50.716061 -30.296335 58.15201
-51.0452 -30.607454 55.983164
-50.416825 -30.939503 56.93772
-51.931917 -29.61977 56.130877
-51.0452 -30.607454 55.983164
-52.724417 -28.658048 56.193016
-51.931917 -29.61977 56.130877
-52.109578 -28.958448 57.204299
-53.509575 -27.723285 56.210076
-53.331915 -28.384607 55.136654
-52.724417 -28.658048 56.193016
-43.751053 -37.035729 63.908894
-43.102808 -37.6036 64.813382
-44.031878 -36.482391 65.246087
-43.751053 -37.035729 63.908894
-44.344032 -36.478666 62.990448
-46.143803 -34.849138 60.183039
-45.545202 -35.379234 61.132998
-46.509267 -34.262842 61.527802
-46.143803 -34.849138 60.183039
-46.737566 -34.351326 59.260525
-36.732975 -44.620781 67.215424
-37.30845 -44.142443 66.383484
-37.11515 -38.92646 74.536186
-36.677784 -38.383316 75.310562
-37.451661 -39.4424 73.706524
-37.11515 -38.92646 74.536186
-38.135254 -38.522936 73.916828
-37.739626 -40.026164 72.733811
-37.451661 -39.4424 73.706524
-37.909388 -40.582608 71.696956
-37.739626 -40.026164 72.733811
-38.641526 -39.59532 72.050312
-38.058225 -41.196087 70.572693
-37.156326 -41.626931 71.256191
-37.909388 -40.582608 71.696956
-41.789003 -38.710161 66.577518
-42.686487 -37.60317 67.016144
-42.486149 -38.157253 65.711949
-41.132206 -39.242189 67.441143
-41.789003 -38.710161 66.577518
-40.931867 -39.796272 66.136948
-38.757597 -41.929773 67.332729
-39.564188 -40.826234 67.81419
-39.468479 -41.431839 66.519112
-38.013921 -43.019131 66.856076
-38.109631 -42.413527 68.151154
-38.757597 -41.929773 67.332729
-37.30845 -44.142443 66.383484
-38.013921 -43.019131 66.856076
-49.767969 -27.336169 65.263469
-49.523781 -28.216246 65.748855
-49.10718 -27.889686 66.208378
-50.417507 -26.81065 64.307359
-49.767969 -27.336169 65.263469
-51.048512 -26.319794 63.311999
-50.815574 -27.171873 63.808586
-50.417507 -26.81065 64.307359
-51.680872 -25.862068 62.306239
-51.048512 -26.319794 63.311999
-37.292254 -37.538326 75.328929
-36.677784 -38.383316 75.310562
-38.432276 -37.131493 74.757492
-37.292254 -37.538326 75.328929
-37.925785 -36.662823 75.339932
-39.605245 -35.417523 74.550224
-38.468327 -35.862988 75.128579
-40.128687 -35.785221 74.13649
-39.605245 -35.417523 74.550224
-40.668125 -34.946754 73.91822
-43.651102 -33.332619 71.884045
-42.69424 -33.902721 72.584355
-44.025843 -33.675377 71.349171
-43.651102 -33.332619 71.884045
-44.535347 -32.755218 71.122475
-46.97556 -30.9294 68.706089
-46.197186 -31.546074 69.534317
-47.233536 -31.29214 68.060295
-46.97556 -30.9294 68.706089
-47.701375 -30.328378 67.825344
-54.174495 -24.364393 58.075956
-53.540829 -24.69873 59.151121
-55.08156 -23.298246 56.464422
-55.162886 -22.58937 55.739208
-54.791206 -24.068243 56.983802
-55.08156 -23.298246 56.464422
-55.43194 -23.77328 55.89121
-54.524875 -24.839428 57.502744
-54.174495 -24.364393 58.075956
-54.791206 -24.068243 56.983802
-56.649624 -25.96986 51.850666
-56.004345 -26.848962 52.027817
-56.007538 -26.140042 52.878544
-57.149319 -24.416123 52.359314
-56.519707 -24.64642 53.455562
-57.016209 -23.801602 53.113484
-57.285625 -25.076594 51.637348
-57.149319 -24.416123 52.359314
-56.649624 -25.96986 51.850666
-57.285625 -25.076594 51.637348
-36.661551 -43.953114 68.434814
-36.732975 -44.620781 67.215424
3 0 17 15
3 0 20 18
3 0 15 20
3 1 56 57
3 1 58 60
3 58 22 59
3 58 59 60
3 2 25 23
3 3 61 63
3 63 62 28
3 61 62 63
3 4 64 65
3 5 29 16
3 5 30 29
3 6 33 31
3 8 34 19
3 8 66 68
3 68 67 34
3 66 67 68
3 8 69 70
3 4 71 73
3 73 72 21
3 71 72 73
3 4 74 75
3 9 36 35
3 10 37 24
3 10 38 37
3 7 39 32
3 76 40 77
3 79 78 40
3 11 43 41
3 80 44 81
3 82 45 83
3 84 46 85
3 86 85 45
3 84 85 86
3 87 47 88
3 89 48 90
3 91 90 47
3 89 90 91
3 11 92 94
3 92 49 93
3 92 93 94
3 11 41 49
3 12 50 42
3 13 51 26
3 13 52 51
3 14 53 27
3 14 54 53
3 14 55 54
3 15 16 4
3 17 16 15
3 17 5 16
3 18 19 6
3 20 19 18
3 20 8 19
3 20 21 8
3 15 21 20
3 15 4 21
3 22 95 96
3 22 97 98
3 23 24 9
3 25 24 23
3 25 10 24
3 100 99 7
3 102 101 11
3 103 11 104
3 105 26 106
3 107 106 12
3 105 106 107
3 108 26 109
3 110 13 111
3 112 111 26
3 110 111 112
3 113 27 114
3 113 114 115
3 116 27 117
3 118 14 119
3 120 119 27
3 118 119 120
3 122 121 14
3 28 123 124
3 126 125 28
3 16 127 129
3 129 128 4
3 127 128 129
3 29 130 132
3 132 131 16
3 130 131 132
3 29 133 134
3 29 135 136
3 30 137 139
3 139 138 29
3 137 138 139
3 30 140 142
3 140 1 141
3 140 141 142
3 31 32 2
3 33 32 31
3 33 7 32
3 19 33 6
3 34 33 19
3 34 7 33
3 34 143 145
3 145 144 7
3 143 144 145
3 147 146 34
3 21 148 150
3 150 149 8
3 148 149 150
3 152 151 21
3 154 153 3
3 35 155 156
3 36 157 159
3 159 158 35
3 157 158 159
3 36 160 161
3 24 36 9
3 37 36 24
3 37 162 164
3 164 163 36
3 162 163 164
3 37 165 167
3 165 28 166
3 165 166 167
3 38 28 37
3 38 3 28
3 32 25 2
3 39 25 32
3 39 10 25
3 168 39 169
3 170 169 7
3 168 169 170
3 40 171 173
3 171 39 172
3 171 172 173
3 40 10 39
3 40 38 10
3 174 38 175
3 176 175 40
3 174 175 176
3 177 3 178
3 179 178 38
3 177 178 179
3 181 180 3
3 41 42 0
3 43 42 41
3 43 12 42
3 182 43 183
3 184 183 11
3 182 183 184
3 185 43 186
3 187 12 188
3 189 188 43
3 187 188 189
3 191 190 12
3 192 35 193
3 44 194 196
3 194 35 195
3 194 195 196
3 44 9 35
3 197 44 198
3 45 199 201
3 199 44 200
3 199 200 201
3 45 9 44
3 45 23 9
3 46 23 45
3 46 2 23
3 202 46 203
3 47 204 206
3 204 46 205
3 204 205 206
3 47 2 46
3 47 31 2
3 48 31 47
3 48 6 31
3 207 48 208
3 49 209 211
3 209 48 210
3 209 210 211
3 49 6 48
3 49 18 6
3 41 18 49
3 41 0 18
3 42 17 0
3 50 17 42
3 50 5 17
3 26 50 12
3 51 50 26
3 51 5 50
3 51 30 5
3 52 30 51
3 52 1 30
3 212 13 213
3 27 214 215
3 53 216 218
3 218 217 27
3 216 217 218
3 53 219 221
3 219 13 220
3 219 220 221
3 53 52 13
3 54 52 53
3 54 1 52
3 54 22 1
3 55 22 54
3 55 222 224
3 224 223 22
3 222 223 224
3 225 55 226
3 227 226 14
3 225 226 227
3 228 55 229
3 231 230 55
3 233 232 3
