ply
format ascii 1.0
element vertex 213
property float x
property float y
property float z
element face 208
property list uchar int vertex_index
end_header
67.789528 -19.42757 -4.882795
61.9795 -15.159016 -4.201662
49.326271 -22.358913 3.234107
59.249348 -24.607212 2.368083
65.541794 -16.67967 -4.462595
65.636208 -11.783588 -7.978813
67.167519 -14.792255 -8.300333
54.129723 -23.398014 2.918958
52.422123 -27.342125 6.372011
57.587776 -14.854855 -4.353504
51.243683 -18.93449 -0.745335
55.980228 -19.212391 -0.596561
60.760117 -19.944214 -0.833588
64.966499 -21.542572 -1.301065
66.851677 -17.913645 -4.670265
66.778801 -15.516396 -6.339413
67.524063 -17.110308 -6.536837
49.9188 -26.476198 6.714985
59.850899 -14.874396 -4.215815
62.401962 -12.735678 -6.020411
66.303566 -10.715299 -10.040644
65.489853 -9.328835 -9.926815
47.20435 -21.723892 3.270929
50.286186 -20.677963 1.271772
53.570419 -19.060637 -0.623219
52.615971 -21.000502 1.272275
56.687393 -23.955269 2.659515
57.557266 -21.741594 1.006392
60.022224 -22.296909 0.770197
62.973816 -20.625988 -1.05422
62.376446 -23.026134 0.504094
63.899109 -15.756655 -4.294352
64.178322 -13.301428 -6.04356
65.653488 -14.234179 -6.162401
66.594116 -13.11694 -8.12319
48.418854 -23.978849 5.14687
51.653358 -22.888351 3.116664
50.73592 -24.718641 4.925393
53.231979 -25.410133 4.640667
55.840572 -26.108141 4.320829
64.315491 -10.835822 -7.90876
68.334389 -21.182558 -5.069456
52.148125 -17.120865 -2.818729
54.467804 -17.066906 -2.581409
56.835308 -17.055187 -2.436579
59.179459 -17.194983 -2.404467
55.062813 -21.328012 1.181532
58.402489 -19.485048 -0.67164
61.423637 -17.562651 -2.480434
63.490692 -18.199697 -2.641127
65.308044 -19.117655 -2.853916
66.812561 -20.306616 -3.085075
55.065479 -28.17231 6.022783
58.484482 -26.852865 3.999685
61.73217 -25.383686 2.076906
64.538086 -23.943586 0.239126
66.667427 -22.689857 -1.543482
67.95475 -21.743752 -3.303665
68.701607 -23.399883 -3.481974
66.110894 -9.512968 -11.070027
66.27216 -10.43002 -11.138567
48.26531 -22.041403 3.252518
46.769293 -22.422508 4.280854
47.830253 -22.740018 4.262443
66.95084 -13.631802 -9.248412
66.664139 -12.794145 -9.15984
66.880818 -13.954598 -8.211761
48.01981 -24.7547 6.081741
46.998997 -24.214814 6.198677
49.178343 -25.124597 5.971002
49.577387 -24.348745 5.036131
48.01981 -24.7547 6.081741
57.896275 -13.731069 -5.353938
56.426605 -14.933958 -4.480672
64.897484 -8.8448 -9.913282
65.354828 -8.099804 -10.968801
68.098514 -21.109374 -5.963406
68.410438 -22.1597 -5.13531
50.151993 -18.825435 -0.839241
49.687691 -19.596417 0.224641
51.695904 -18.027677 -1.782032
50.604214 -17.918623 -1.875938
50.151993 -18.825435 -0.839241
56.418316 -28.587136 5.862673
54.736849 -29.141291 6.907698
58.127817 -27.927413 4.851125
56.77498 -27.512588 5.011234
56.418316 -28.587136 5.862673
62.890557 -25.843041 1.945688
61.40498 -26.528551 2.8928
64.293515 -25.122991 1.026798
63.135128 -24.663636 1.158016
62.890557 -25.843041 1.945688
67.341896 -23.371902 -1.648865
66.547939 -23.870879 -0.770562
67.985557 -22.89885 -2.528957
67.311089 -22.216805 -2.423573
67.341896 -23.371902 -1.648865
68.358986 -23.726915 -2.618111
68.328179 -22.571818 -3.392819
67.985557 -22.89885 -2.528957
48.453163 -26.736365 7.781907
48.769783 -26.003375 6.865798
49.587165 -27.30574 7.607479
48.453163 -26.736365 7.781907
50.838827 -27.738704 7.435992
51.170462 -26.909161 6.543498
49.587165 -27.30574 7.607479
60.119022 -13.698491 -5.168515
58.987461 -13.688721 -5.237359
58.719337 -14.864626 -4.28466
61.394554 -12.629133 -6.070813
60.119022 -13.698491 -5.168515
61.12643 -13.805037 -5.118113
62.537636 -11.514302 -6.985359
61.394554 -12.629133 -6.070813
65.704037 -8.819736 -11.013112
65.89671 -10.022067 -9.983729
66.110894 -9.512968 -11.070027
65.354828 -8.099804 -10.968801
65.704037 -8.819736 -11.013112
45.86208 -21.894863 4.315905
46.769293 -22.422508 4.280854
46.266365 -21.305464 3.258597
45.86208 -21.894863 4.315905
47.668025 -20.991118 2.232773
46.266365 -21.305464 3.258597
49.208942 -20.468153 1.233195
47.668025 -20.991118 2.232773
48.745268 -21.200927 2.271351
50.764934 -19.806227 0.263218
49.687691 -19.596417 0.224641
49.208942 -20.468153 1.233195
66.518864 -11.593324 -10.118568
66.448841 -11.91612 -9.081917
66.664139 -12.794145 -9.15984
66.27216 -10.43002 -11.138567
66.518864 -11.593324 -10.118568
47.376545 -23.549986 5.218825
46.998997 -24.214814 6.198677
48.872563 -23.168881 4.190488
47.830253 -22.740018 4.262443
47.376545 -23.549986 5.218825
50.32736 -25.59742 5.820189
49.178343 -25.124597 5.971002
48.769783 -26.003375 6.865798
57.896275 -13.731069 -5.353938
58.987461 -13.688721 -5.237359
63.4944 -10.564374 -7.929534
62.537636 -11.514302 -6.985359
63.358726 -11.78575 -6.964586
64.310303 -9.598293 -8.904254
64.902672 -10.082328 -8.917787
64.897484 -8.8448 -9.913282
63.4944 -10.564374 -7.929534
64.310303 -9.598293 -8.904254
68.107483 -20.074863 -5.894452
67.835053 -19.197368 -5.801121
68.061959 -20.305064 -4.976126
68.107483 -20.074863 -5.894452
68.098514 -21.109374 -5.963406
51.04327 -17.103099 -2.961371
50.604214 -17.918623 -1.875938
52.551579 -16.173755 -3.881578
51.446724 -16.155989 -4.02422
51.04327 -17.103099 -2.961371
53.706779 -16.066963 -3.713285
52.551579 -16.173755 -3.881578
54.866619 -16.039983 -3.594625
53.706779 -16.066963 -3.713285
53.307964 -17.093885 -2.700069
56.02779 -15.960881 -3.467456
56.426605 -14.933958 -4.480672
54.866619 -16.039983 -3.594625
52.086329 -28.251779 7.253472
50.838827 -27.738704 7.435992
53.408006 -28.666871 7.078858
54.736849 -29.141291 6.907698
53.743801 -27.757217 6.197397
52.086329 -28.251779 7.253472
53.408006 -28.666871 7.078858
59.781136 -27.26314 3.85419
58.127817 -27.927413 4.851125
60.108326 -26.118276 3.038296
59.781136 -27.26314 3.85419
61.40498 -26.528551 2.8928
65.483269 -24.497743 0.120743
64.293515 -25.122991 1.026798
65.602756 -23.316721 -0.652178
65.483269 -24.497743 0.120743
66.547939 -23.870879 -0.770562
68.594047 -23.268363 -4.341569
68.410438 -22.1597 -5.13531
68.517998 -22.291221 -4.275715
68.834514 -24.507445 -2.695025
68.358986 -23.726915 -2.618111
68.869896 -24.321108 -3.537305
68.834514 -24.507445 -2.695025
69.002803 -25.428669 -2.750357
68.594047 -23.268363 -4.341569
68.869896 -24.321108 -3.537305
67.70232 -18.038737 -6.628143
67.656796 -18.268939 -5.709816
67.835053 -19.197368 -5.801121
67.441993 -16.931256 -7.50411
67.70232 -18.038737 -6.628143
67.263722 -15.77223 -8.385858
67.345791 -15.951282 -7.418585
67.441993 -16.931256 -7.50411
66.981171 -14.662627 -9.326398
67.263722 -15.77223 -8.385858
66.95084 -13.631802 -9.248412
66.981171 -14.662627 -9.326398
3 0 16 14
3 1 19 18
3 60 59 20
3 2 61 63
3 61 22 62
3 61 62 63
3 2 23 22
3 2 25 23
3 3 28 26
3 3 30 28
3 4 33 31
3 6 34 15
3 6 64 66
3 66 65 34
3 64 65 66
3 67 35 68
3 69 37 70
3 71 70 35
3 69 70 71
3 8 38 17
3 8 39 38
3 9 72 73
3 5 40 32
3 75 74 21
3 77 76 41
3 10 78 79
3 10 80 82
3 80 42 81
3 80 81 82
3 10 43 42
3 11 44 24
3 11 45 44
3 7 46 36
3 12 47 27
3 12 48 47
3 12 49 48
3 13 50 29
3 13 51 50
3 83 52 84
3 85 53 86
3 87 86 52
3 85 86 87
3 88 54 89
3 90 55 91
3 92 91 54
3 90 91 92
3 93 56 94
3 95 57 96
3 97 96 56
3 95 96 97
3 98 58 99
3 100 99 57
3 98 99 100
3 14 15 4
3 16 15 14
3 16 6 15
3 101 17 102
3 103 17 104
3 105 8 106
3 107 106 17
3 105 106 107
3 18 108 110
3 110 109 9
3 108 109 110
3 19 111 113
3 113 112 18
3 111 112 113
3 19 114 115
3 20 21 5
3 116 21 117
3 118 117 20
3 116 117 118
3 120 119 21
3 22 121 122
3 22 123 124
3 22 125 126
3 23 127 129
3 129 128 22
3 127 128 129
3 23 130 132
3 130 10 131
3 130 131 132
3 23 24 10
3 25 24 23
3 25 11 24
3 26 27 7
3 28 27 26
3 28 12 27
3 28 29 12
3 30 29 28
3 30 13 29
3 31 32 1
3 33 32 31
3 33 5 32
3 15 33 4
3 34 33 15
3 34 5 33
3 34 20 5
3 133 20 134
3 135 134 34
3 133 134 135
3 137 136 20
3 35 138 139
3 35 140 142
3 140 2 141
3 140 141 142
3 35 36 2
3 37 36 35
3 37 7 36
3 17 143 145
3 143 37 144
3 143 144 145
3 38 37 17
3 38 7 37
3 38 26 7
3 39 26 38
3 39 3 26
3 147 146 9
3 32 19 1
3 40 19 32
3 40 148 150
3 150 149 19
3 148 149 150
3 21 40 5
3 151 40 152
3 153 152 21
3 151 152 153
3 155 154 40
3 41 156 158
3 158 157 0
3 156 157 158
3 160 159 41
3 42 161 162
3 42 163 165
3 163 164 165
3 42 166 167
3 43 168 170
3 170 169 42
3 168 169 170
3 43 171 173
3 171 9 172
3 171 172 173
3 24 43 10
3 44 43 24
3 44 9 43
3 44 18 9
3 45 18 44
3 45 1 18
3 36 25 2
3 46 25 36
3 46 11 25
3 27 46 7
3 47 46 27
3 47 11 46
3 47 45 11
3 48 45 47
3 48 1 45
3 48 31 1
3 49 31 48
3 49 4 31
3 29 49 12
3 50 49 29
3 50 4 49
3 50 14 4
3 51 14 50
3 51 0 14
3 174 8 175
3 52 176 177
3 52 178 180
3 178 8 179
3 178 179 180
3 52 39 8
3 53 39 52
3 53 3 39
3 181 53 182
3 54 183 185
3 183 53 184
3 183 184 185
3 54 3 53
3 54 30 3
3 55 30 54
3 55 13 30
3 186 55 187
3 56 188 190
3 188 55 189
3 188 189 190
3 56 13 55
3 56 51 13
3 57 51 56
3 57 0 51
3 57 41 0
3 58 41 57
3 58 191 193
3 193 192 41
3 191 192 193
3 194 58 195
3 196 58 197
3 196 197 198
3 200 199 58
3 201 16 202
3 203 202 0
3 201 202 203
3 204 16 205
3 206 6 207
3 208 207 16
3 206 207 208
3 209 6 210
3 212 211 6
