ply
format ascii 1.0
element vertex 162
property float x
property float y
property float z
element face 143
property list uchar int vertex_index
end_header
-12.786459 85.963272 -13.172527
-19.167206 81.825668 9.357538
-15.19635 85.749695 4.488087
-7.444126 87.602966 -12.149429
-17.490376 84.781891 -7.988592
-20.44178 82.340637 3.152995
-16.164055 85.624069 -2.024689
-11.671747 87.604385 -7.131792
-15.950333 84.658081 -13.290766
-19.782854 83.625244 -5.349087
-21.663216 80.084839 8.739138
-19.785524 82.178528 6.214566
-13.088203 87.264847 2.045944
-15.650721 85.787643 1.173127
-13.469749 87.149094 -1.335098
-13.917871 86.822479 -4.586248
-11.287268 88.096466 -3.834021
-16.729794 83.482727 10.251141
-17.238396 83.908875 6.927674
-14.771152 85.473984 7.903361
-20.951624 79.569672 11.767026
-18.568092 81.24852 12.568107
-9.924095 86.98494 -12.802464
-10.494799 85.821411 -15.7085
-7.815004 86.506683 -15.301279
-18.342806 84.09407 -10.706007
-15.139723 85.591324 -10.596264
-21.162632 82.344696 0.186112
-17.771162 84.10257 3.690413
-18.353315 84.101044 0.554413
-19.014954 83.936417 -2.464525
-16.768501 85.286041 -5.086092
-14.465956 86.303818 -7.683193
-12.162998 86.8974 -10.257421
-9.491465 87.885925 -9.657299
-13.169319 85.365555 -14.502931
-14.751256 84.712959 -14.562051
-14.368396 85.310676 -13.231647
-20.878762 82.918838 -4.010651
-21.339574 82.78495 -5.378159
-12.22248 87.757149 -0.865161
-13.278976 87.206971 0.355423
-12.031707 87.815026 0.82536
-11.131239 88.230835 -2.114622
-12.378508 87.62278 -2.58456
-12.22248 87.757149 -0.865161
-10.107498 88.531731 -3.333099
-11.131239 88.230835 -2.114622
-14.562943 85.19944 9.653205
-15.750473 84.478355 9.077251
-15.542263 84.203812 10.827095
-21.763547 78.38221 12.956639
-22.169653 78.72036 11.510974
-18.275512 80.83445 14.198635
-19.411552 80.046448 13.704122
-17.399816 82.019722 13.106367
-18.275512 80.83445 14.198635
-17.916591 84.437981 -9.3473
-19.507753 83.62693 -9.392957
-19.081538 83.970841 -8.03425
-21.812312 81.463279 3.010599
-21.420816 81.377464 4.461113
-20.802206 82.342667 1.669554
-22.172738 81.465309 1.527157
-21.812312 81.463279 3.010599
-10.854186 85.089455 -17.015909
-9.412399 85.467911 -16.946316
-16.420431 84.056198 -14.509887
-17.635734 83.917976 -13.249711
-16.420431 84.056198 -14.509887
-14.751256 84.712959 -14.562051
-6.516409 87.161476 -13.3669
-6.425075 87.658294 -11.678932
-20.227777 83.392517 -6.714498
-21.339574 82.78495 -5.378159
-18.636615 84.203567 -6.668839
-19.081538 83.970841 -8.03425
-20.227777 83.392517 -6.714498
-22.031534 80.249565 7.254184
-22.93716 79.227936 8.567716
-21.092688 81.29641 5.991898
-22.031534 80.249565 7.254184
-20.72437 81.131684 7.476852
-20.113652 82.259582 4.683781
-21.420816 81.377464 4.461113
-21.092688 81.29641 5.991898
-10.229219 88.321083 -5.0774
-10.421459 88.075042 -6.726285
-11.479508 87.850426 -5.482907
-10.229219 88.321083 -5.0774
-10.107498 88.531731 -3.333099
-13.585833 86.104957 8.512779
-14.562943 85.19944 9.653205
-13.755694 86.306275 6.720279
-13.585833 86.104957 8.512779
-13.968293 86.44413 5.012642
-14.983751 85.61184 6.195724
-13.755694 86.306275 6.720279
-12.914219 87.201706 3.79157
-14.142277 86.507271 3.267016
-13.968293 86.44413 5.012642
-11.894177 87.826225 2.603292
-12.914219 87.201706 3.79157
-12.031707 87.815026 0.82536
-11.894177 87.826225 2.603292
-22.525449 78.977944 9.997031
-22.93716 79.227936 8.567716
-21.30742 79.827256 10.253082
-22.525449 78.977944 9.997031
-22.169653 78.72036 11.510974
-20.603319 79.207024 13.303581
-21.763547 78.38221 12.956639
-19.759858 80.409096 12.167566
-20.603319 79.207024 13.303581
-19.411552 80.046448 13.704122
-16.480666 83.136826 11.947883
-17.648943 82.365623 11.409624
-17.399816 82.019722 13.106367
-15.542263 84.203812 10.827095
-16.480666 83.136826 11.947883
-8.072502 85.810547 -16.742705
-9.412399 85.467911 -16.946316
-9.154902 86.164047 -15.50489
-6.701848 86.613335 -14.942825
-7.629565 87.054824 -13.725354
-6.516409 87.161476 -13.3669
-6.854222 85.969978 -16.513701
-6.701848 86.613335 -14.942825
-8.072502 85.810547 -16.742705
-6.854222 85.969978 -16.513701
-20.013246 83.298889 -10.670466
-19.507753 83.62693 -9.392957
-18.831971 83.635971 -11.957331
-20.013246 83.298889 -10.670466
-17.146569 84.376075 -11.998386
-17.635734 83.917976 -13.249711
-18.831971 83.635971 -11.957331
-22.600024 81.483452 0.116711
-22.172738 81.465309 1.527157
-21.568651 82.278565 -1.243051
-22.600024 81.483452 0.116711
-20.494812 83.074425 -2.56837
-21.568651 82.278565 -1.243051
-20.088793 83.140557 -1.139207
-19.398904 83.780831 -3.906806
-20.878762 82.918838 -4.010651
-20.494812 83.074425 -2.56837
-9.331318 88.215812 -7.989038
-10.581606 87.745155 -8.394545
-10.421459 88.075042 -6.726285
-8.340997 88.15844 -9.221348
-9.331318 88.215812 -7.989038
-7.317327 88.01696 -10.467413
-8.467795 87.744445 -10.903364
-8.340997 88.15844 -9.221348
-6.425075 87.658294 -11.678932
-7.317327 88.01696 -10.467413
-12.023489 85.294624 -15.770918
-13.169319 85.365555 -14.502931
-11.640629 85.892342 -14.440514
-12.023489 85.294624 -15.770918
-10.854186 85.089455 -17.015909
3 0 35 37
3 37 36 8
3 35 36 37
3 38 9 39
3 1 11 10
3 40 14 41
3 42 41 12
3 40 41 42
3 43 16 44
3 45 44 14
3 43 44 45
3 47 46 16
3 48 19 49
3 50 49 17
3 48 49 50
3 51 20 52
3 53 21 54
3 56 55 21
3 3 24 22
3 4 57 59
3 57 25 58
3 57 58 59
3 4 26 25
3 5 60 61
3 5 62 64
3 62 27 63
3 62 63 64
3 2 28 18
3 6 29 13
3 6 30 29
3 6 31 30
3 7 32 15
3 7 33 32
3 7 34 33
3 66 65 23
3 8 67 68
3 70 69 8
3 72 71 3
3 9 73 74
3 9 75 77
3 75 4 76
3 75 76 77
3 10 78 79
3 11 80 82
3 82 81 10
3 80 81 82
3 11 83 85
3 83 5 84
3 83 84 85
3 12 13 2
3 14 13 12
3 14 6 13
3 14 15 6
3 16 15 14
3 16 7 15
3 16 86 88
3 88 87 7
3 86 87 88
3 90 89 16
3 17 18 1
3 19 18 17
3 19 2 18
3 91 19 92
3 93 19 94
3 95 2 96
3 97 96 19
3 95 96 97
3 98 12 99
3 100 99 2
3 98 99 100
3 101 12 102
3 104 103 12
3 105 10 106
3 20 107 109
3 107 10 108
3 107 108 109
3 20 1 10
3 110 20 111
3 21 112 114
3 112 20 113
3 112 113 114
3 21 1 20
3 21 17 1
3 115 17 116
3 117 116 21
3 115 116 117
3 119 118 17
3 22 23 0
3 24 23 22
3 24 120 122
3 122 121 23
3 120 121 122
3 123 24 124
3 125 124 3
3 123 124 125
3 126 24 127
3 129 128 24
3 25 130 131
3 25 132 133
3 25 134 136
3 134 8 135
3 134 135 136
3 26 8 25
3 26 0 8
3 27 137 138
3 27 139 140
3 18 11 1
3 28 11 18
3 28 5 11
3 13 28 2
3 29 28 13
3 29 5 28
3 29 27 5
3 30 27 29
3 30 141 143
3 143 142 27
3 141 142 143
3 30 144 146
3 144 9 145
3 144 145 146
3 31 9 30
3 31 4 9
3 15 31 6
3 32 31 15
3 32 4 31
3 32 26 4
3 33 26 32
3 33 0 26
3 33 22 0
3 34 22 33
3 34 3 22
3 147 34 148
3 149 148 7
3 147 148 149
3 150 34 151
3 152 3 153
3 154 153 34
3 152 153 154
3 156 155 3
3 23 157 159
3 159 158 0
3 157 158 159
3 161 160 23
