ply
format ascii 1.0
element vertex 95
property float x
property float y
property float z
element face 78
property list uchar int vertex_index
end_header
51.473625 53.578568 -5.606697
50.848164 55.213806 0.796498
50.523365 57.248726 -4.175072
52.783287 51.867645 -1.187019
50.65213 56.132256 -7.331806
47.794388 61.931419 -4.02725
49.128208 60.025764 -5.446899
49.335655 59.08622 -2.948349
52.050011 53.545815 -0.350225
53.178299 50.862328 1.128813
49.400986 58.020561 -0.391914
48.760117 60.808647 -7.876961
50.127823 58.07885 -6.564802
51.278992 55.403275 -5.074032
50.760361 56.284683 -1.72031
51.746941 54.530327 -2.745548
52.209251 52.782555 -3.431257
51.034565 53.897713 -6.658722
50.623818 55.174557 -7.521276
51.062877 54.855412 -6.469252
47.834023 61.405773 -2.733456
47.034239 62.841114 -3.192569
48.604656 59.983173 -2.194006
48.565022 60.50882 -3.4878
47.834023 61.405773 -2.733456
53.280903 50.323406 2.322968
52.682984 51.667534 1.620901
53.649916 49.53474 1.89262
53.280903 50.323406 2.322968
48.165646 61.823139 -7.217071
47.968868 62.186798 -8.443041
52.850939 51.031056 -1.437566
52.563921 51.488511 -2.559684
52.496269 52.3251 -2.309138
50.262096 56.404053 -8.418062
50.11004 57.435661 -8.103771
50.233784 55.446354 -8.607532
50.262096 56.404053 -8.418062
50.623818 55.174557 -7.521276
46.965978 63.352593 -4.499578
47.034239 62.841114 -3.192569
47.682781 62.384525 -5.292216
46.965978 63.352593 -4.499578
48.461298 60.978592 -4.737075
48.349691 61.431697 -6.00204
47.682781 62.384525 -5.292216
52.118839 53.009277 0.881382
51.449087 54.37981 0.223137
51.517916 53.843273 1.454743
52.614155 52.204071 0.389294
52.118839 53.009277 0.881382
52.682984 51.667534 1.620901
53.399037 50.04945 0.787428
53.201531 50.552109 -0.370488
52.980793 51.364987 -0.029103
53.399037 50.04945 0.787428
53.649916 49.53474 1.89262
51.254002 52.683823 -5.678864
51.759943 52.317875 -4.679136
48.620621 58.864826 0.403699
48.637321 59.450344 -0.915788
49.375141 57.436149 0.914872
48.620621 58.864826 0.403699
50.098731 56.032772 1.509078
50.124575 56.617183 0.202292
49.375141 57.436149 0.914872
50.826078 54.634659 2.086406
50.098731 56.032772 1.509078
51.517916 53.843273 1.454743
50.826078 54.634659 2.086406
51.034565 53.897713 -6.658722
51.254002 52.683823 -5.678864
48.487336 61.101993 -9.045161
47.968868 62.186798 -8.443041
49.164034 59.773857 -8.376348
48.487336 61.101993 -9.045161
48.944163 60.417206 -6.66193
48.165646 61.823139 -7.217071
48.349691 61.431697 -6.00204
49.847887 58.408958 -7.720269
49.164034 59.773857 -8.376348
49.44397 59.443748 -7.220881
50.389977 57.105553 -6.948304
50.11004 57.435661 -8.103771
49.847887 58.408958 -7.720269
49.368321 58.55339 -1.670131
48.604656 59.983173 -2.194006
48.637321 59.450344 -0.915788
52.127756 51.919868 -3.591416
51.759943 52.317875 -4.679136
51.841438 53.180561 -4.518977
52.127756 51.919868 -3.591416
52.563921 51.488511 -2.559684
52.850939 51.031056 -1.437566
53.201531 50.552109 -0.370488
3 0 17 19
3 19 18 4
3 17 18 19
3 20 5 21
3 22 7 23
3 24 23 5
3 22 23 24
3 25 9 26
3 28 27 9
3 29 11 30
3 2 12 6
3 2 13 12
3 1 14 10
3 3 15 8
3 3 16 15
3 3 31 33
3 33 32 16
3 31 32 33
3 4 34 35
3 38 37 4
3 36 37 38
3 5 39 40
3 5 41 42
3 5 43 45
3 43 6 44
3 43 44 45
3 7 6 5
3 7 2 6
3 46 8 47
3 48 47 1
3 46 47 48
3 9 49 51
3 49 8 50
3 49 50 51
3 9 3 8
3 9 52 54
3 54 53 3
3 52 53 54
3 56 55 9
3 58 57 0
3 59 10 60
3 61 10 62
3 63 1 64
3 65 64 10
3 63 64 65
3 66 1 67
3 69 68 1
3 71 70 0
3 11 72 73
3 11 74 75
3 6 76 78
3 76 11 77
3 76 77 78
3 12 11 6
3 12 79 81
3 81 80 11
3 79 80 81
3 12 82 84
3 82 4 83
3 82 83 84
3 13 4 12
3 13 0 4
3 10 85 87
3 85 7 86
3 85 86 87
3 14 7 10
3 14 2 7
3 8 14 1
3 15 14 8
3 15 2 14
3 15 13 2
3 16 13 15
3 16 0 13
3 16 88 90
3 90 89 0
3 88 89 90
3 92 91 16
3 94 93 3
