ply
format ascii 1.0
element vertex 119
property float x
property float y
property float z
element face 102
property list uchar int vertex_index
end_header
61.474823 -4.093284 -46.644333
61.490303 1.034113 -44.720482
64.561813 -6.27311 -41.986435
63.641052 -18.234726 -44.133568
64.423767 -11.873675 -43.360832
64.331848 -3.91384 -41.070183
65.667274 -7.610375 -39.645424
61.530548 -1.391504 -45.784859
59.718067 -0.410477 -48.083168
59.609344 -3.226766 -48.887367
65.813301 -12.89614 -41.075996
65.527824 -15.945345 -41.621506
62.882423 -0.324629 -42.340576
63.088463 -2.557596 -43.437157
63.145119 -5.104816 -44.328941
65.049973 -19.172628 -42.037018
64.397804 -22.499722 -42.272865
65.869614 -10.098787 -40.421867
64.586639 -8.943423 -42.740913
63.059685 -7.919228 -45.053139
64.103287 -14.995388 -43.838486
62.856255 -10.935923 -45.614929
61.342049 -7.008033 -47.314842
66.041507 -8.366862 -38.483761
65.440746 -6.535408 -39.173416
65.939121 -18.034703 -40.754707
66.161598 -16.450274 -40.50618
63.400447 -1.10716 -41.139705
62.72019 0.624018 -41.662407
64.610698 -24.679008 -41.359142
65.042023 -22.976332 -41.265713
65.254917 -25.155618 -40.35199
60.649164 2.757109 -45.256462
60.581293 3.809165 -44.600872
61.422432 2.08617 -44.064892
66.423527 -12.062814 -39.611981
66.361817 -10.751289 -39.272583
62.001503 -10.500854 -46.696323
62.702904 -12.509933 -45.799785
61.2444 -8.536909 -47.54628
62.099152 -8.971978 -46.464885
62.001503 -10.500854 -46.696323
60.409849 -6.603101 -48.389103
61.2444 -8.536909 -47.54628
64.773033 -4.68714 -39.885796
64.12516 -2.901765 -40.504509
64.999561 -5.762107 -40.357804
64.773033 -4.68714 -39.885796
65.440746 -6.535408 -39.173416
60.659838 0.394091 -46.421997
60.639715 1.606899 -45.889809
61.510425 -0.178696 -45.25267
59.753597 0.884604 -47.571151
60.659838 0.394091 -46.421997
60.624308 -0.900991 -46.934013
58.778982 1.349934 -48.703709
59.753597 0.884604 -47.571151
58.715483 -0.009725 -49.184273
58.778982 1.349934 -48.703709
58.661121 -1.41787 -49.586372
58.715483 -0.009725 -49.184273
59.663705 -1.818621 -48.485267
58.604177 -2.86276 -49.940799
57.655954 -1.053863 -50.639805
58.661121 -1.41787 -49.586372
66.304337 -14.925672 -40.233425
66.39537 -13.461491 -39.939045
65.670562 -14.420742 -41.348751
66.304337 -14.925672 -40.233425
66.161598 -16.450274 -40.50618
63.095303 -16.159334 -45.059105
62.884201 -17.765721 -45.120651
62.118492 1.406799 -42.874939
62.72019 0.624018 -41.662407
62.186363 0.354742 -43.530529
61.422432 2.08617 -44.064892
62.118492 1.406799 -42.874939
63.607135 -2.119235 -41.705379
63.400447 -1.10716 -41.139705
64.12516 -2.901765 -40.504509
65.368107 -21.312785 -41.147789
65.700196 -19.648344 -40.962463
64.723888 -20.836175 -42.154942
65.368107 -21.312785 -41.147789
65.042023 -22.976332 -41.265713
63.978767 -24.176782 -42.270061
64.610698 -24.679008 -41.359142
63.710968 -22.011075 -43.229908
63.978767 -24.176782 -42.270061
63.291932 -23.688136 -43.227104
63.332592 -19.878577 -44.160259
64.019428 -20.367224 -43.203216
63.710968 -22.011075 -43.229908
62.884201 -17.765721 -45.120651
63.332592 -19.878577 -44.160259
60.649164 2.757109 -45.256462
60.639715 1.606899 -45.889809
66.260647 -9.507083 -38.884361
66.041507 -8.366862 -38.483761
65.768444 -8.854581 -40.033645
66.260647 -9.507083 -38.884361
66.361817 -10.751289 -39.272583
65.841457 -11.497464 -40.748931
66.423527 -12.062814 -39.611981
66.39537 -13.461491 -39.939045
65.288898 -17.558986 -41.829262
65.939121 -18.034703 -40.754707
65.700196 -19.648344 -40.962463
63.32642 -14.539665 -44.911564
63.872169 -16.615057 -43.986027
63.095303 -16.159334 -45.059105
63.479771 -12.965656 -44.726708
63.32642 -14.539665 -44.911564
62.702904 -12.509933 -45.799785
59.543497 -4.712467 -49.175365
60.475696 -5.1174 -48.101104
60.409849 -6.603101 -48.389103
58.604177 -2.86276 -49.940799
59.543497 -4.712467 -49.175365
3 23 6 24
3 0 8 7
3 0 9 8
3 25 11 26
3 27 12 28
3 2 13 5
3 2 14 13
3 29 16 30
3 29 30 31
3 1 32 34
3 32 33 34
3 35 17 36
3 4 18 10
3 4 19 18
3 3 20 15
3 37 21 38
3 39 22 40
3 41 40 21
3 39 40 41
3 43 42 22
3 44 5 45
3 6 46 48
3 46 5 47
3 46 47 48
3 6 2 5
3 7 49 51
3 51 50 1
3 49 50 51
3 8 52 54
3 54 53 7
3 52 53 54
3 8 55 56
3 8 57 58
3 9 59 61
3 61 60 8
3 59 60 61
3 9 62 64
3 62 63 64
3 65 10 66
3 11 67 69
3 67 10 68
3 67 68 69
3 11 4 10
3 71 70 3
3 12 72 73
3 12 74 76
3 74 1 75
3 74 75 76
3 5 77 79
3 77 12 78
3 77 78 79
3 13 12 5
3 13 1 12
3 13 7 1
3 14 7 13
3 14 0 7
3 80 15 81
3 16 82 84
3 82 15 83
3 82 83 84
3 16 3 15
3 85 16 86
3 87 16 88
3 87 88 89
3 90 3 91
3 92 91 16
3 90 91 92
3 94 93 3
3 96 95 1
3 97 6 98
3 17 99 101
3 99 6 100
3 99 100 101
3 17 2 6
3 10 102 104
3 102 17 103
3 102 103 104
3 18 17 10
3 18 2 17
3 18 14 2
3 19 14 18
3 19 0 14
3 15 105 107
3 105 11 106
3 105 106 107
3 20 11 15
3 20 4 11
3 108 20 109
3 110 109 3
3 108 109 110
3 21 111 113
3 111 20 112
3 111 112 113
3 21 4 20
3 21 19 4
3 22 19 21
3 22 0 19
3 22 9 0
3 114 9 115
3 116 115 22
3 114 115 116
3 118 117 9
