ply
format ascii 1.0
element vertex 184
property float x
property float y
property float z
element face 157
property list uchar int vertex_index
end_header
-59.159092 6.019045 -37.769821
-60.84034 3.309713 -31.78643
-59.970253 1.82518 -41.293442
-49.285709 13.223244 -35.802162
-52.793762 13.101376 -35.176197
-49.482395 16.460903 -40.992039
-60.378292 4.234814 -26.791424
-58.732956 8.051405 -32.990795
-56.024059 11.427406 -34.122818
-60.095428 4.759466 -34.799259
-60.439957 3.146149 -36.913288
-59.50592 4.141405 -39.732224
-47.78167 14.991478 -38.455917
-49.529137 15.148281 -38.391132
-47.732361 16.621666 -41.115387
-59.298615 5.892847 -27.368229
-59.639042 6.225399 -29.878307
-58.480156 8.006933 -30.446926
-52.990067 14.312347 -37.705864
-54.46138 12.482849 -34.672409
-54.637177 13.208069 -37.214088
-56.187256 11.648243 -36.675358
-52.296692 11.198381 -32.733383
-51.056412 13.321175 -35.57732
-51.275955 14.94836 -38.117126
-51.241882 15.82996 -40.690434
-60.627342 4.105623 -29.321011
-59.859676 5.820797 -32.406635
-58.922409 7.358265 -35.481331
-57.148098 9.403891 -31.036713
-57.453259 9.938442 -33.559509
-57.619312 9.677475 -36.100399
-57.76545 8.682198 -38.517895
-57.978378 7.053513 -40.676472
-58.297386 4.902822 -42.475887
-46.87574 16.506794 -41.053478
-47.757015 15.806572 -39.785652
-46.900395 15.6917 -39.723743
-58.664482 6.537027 -27.679039
-58.997246 5.346524 -26.187632
-58.255253 7.59407 -29.218387
-58.889386 6.94989 -28.907578
-58.664482 6.537027 -27.679039
-53.807667 13.954739 -38.740428
-53.813622 13.760208 -37.459976
-52.984112 14.506878 -38.986317
-54.648701 13.151937 -38.485485
-53.807667 13.954739 -38.740428
-61.264086 1.945594 -31.446955
-61.148961 2.507324 -30.270692
-60.749525 0.236113 -40.624695
-60.448438 1.453466 -39.97015
-60.241785 0.48792 -41.864673
-60.749525 0.236113 -40.624695
-50.17106 13.272209 -35.689741
-50.782135 12.23468 -34.335057
-49.896783 12.185715 -34.447478
-60.681954 3.172611 -25.274203
-60.462166 2.871082 -24.05267
-60.158504 3.933286 -25.569891
-60.827059 3.239985 -26.521774
-60.681954 3.172611 -25.274203
-60.502817 4.170218 -28.056217
-60.951584 3.17539 -27.786568
-60.827059 3.239985 -26.521774
-53.409633 12.037593 -33.700249
-53.161099 11.086095 -32.478842
-52.545227 12.149878 -33.95479
-55.839247 10.909011 -32.881331
-55.057907 11.436732 -33.156126
-55.242719 11.955127 -34.397614
-56.586078 10.415648 -32.579766
-56.401266 9.897253 -31.338278
-55.839247 10.909011 -32.881331
-56.940794 10.371744 -37.637808
-56.903284 10.662859 -36.387878
-56.224766 11.357128 -37.925288
-57.013863 9.874105 -38.846556
-57.692381 9.179837 -37.309147
-56.940794 10.371744 -37.637808
-57.251759 7.443853 -42.086807
-57.165454 8.405684 -41.082147
-57.411263 6.368508 -42.986515
-58.137882 5.978167 -41.576179
-57.251759 7.443853 -42.086807
-60.619907 3.353429 -34.416158
-60.992363 2.628553 -32.909744
-60.467884 4.03459 -33.292845
-60.792171 2.546771 -35.473173
-60.619907 3.353429 -34.416158
-60.267692 3.952807 -35.856274
-61.024466 1.634215 -36.424442
-60.792171 2.546771 -35.473173
-60.68329 2.11395 -37.780073
-61.024466 1.634215 -36.424442
-60.216272 2.611578 -39.189541
-60.68329 2.11395 -37.780073
-59.972938 3.643777 -38.322756
-59.738087 2.983293 -40.512833
-60.448438 1.453466 -39.97015
-60.216272 2.611578 -39.189541
-59.618666 4.762302 -25.858294
-58.997246 5.346524 -26.187632
-59.838453 5.06383 -27.079826
-60.158504 3.933286 -25.569891
-59.618666 4.762302 -25.858294
-55.42374 12.372025 -38.21612
-55.412216 12.428156 -36.944723
-54.648701 13.151937 -38.485485
-56.224766 11.357128 -37.925288
-55.42374 12.372025 -38.21612
-61.264086 1.945594 -31.446955
-60.992363 2.628553 -32.909744
-51.402275 11.173284 -32.913088
-51.869772 10.013986 -31.555841
-51.676552 12.259778 -34.155352
-51.402275 11.173284 -32.913088
-50.782135 12.23468 -34.335057
-52.110019 15.265684 -40.478601
-52.984112 14.506878 -38.986317
-52.115975 15.071154 -39.198149
-61.042462 2.905279 -29.037983
-60.951584 3.17539 -27.786568
-60.733841 3.707668 -30.55372
-61.148961 2.507324 -30.270692
-61.042462 2.905279 -29.037983
-48.992018 12.082901 -34.512211
-49.896783 12.185715 -34.447478
-48.400323 13.07575 -35.787659
-48.992018 12.082901 -34.512211
-47.648304 13.959868 -37.114536
-48.533689 14.107361 -37.12904
-48.400323 13.07575 -35.787659
-46.920738 14.796243 -38.347195
-47.648304 13.959868 -37.114536
-46.900395 15.6917 -39.723743
-46.920738 14.796243 -38.347195
-52.773083 10.018718 -31.319826
-52.346163 8.834323 -30.142285
-51.869772 10.013986 -31.555841
-52.773083 10.018718 -31.319826
-53.161099 11.086095 -32.478842
-54.243443 11.72833 -33.448355
-53.409633 12.037593 -33.700249
-53.627571 12.792112 -34.924303
-54.243443 11.72833 -33.448355
-55.057907 11.436732 -33.156126
-56.86495 8.744231 -29.841539
-56.401266 9.897253 -31.338278
-57.589224 8.292549 -29.513281
-56.86495 8.744231 -29.841539
-57.814127 8.705412 -30.741819
-58.255253 7.59407 -29.218387
-57.589224 8.292549 -29.513281
-46.717863 17.15534 -42.398456
-46.87574 16.506794 -41.053478
-47.587593 17.105491 -42.425863
-46.717863 17.15534 -42.398456
-48.46261 17.02511 -42.364189
-48.607378 16.541284 -41.053713
-47.587593 17.105491 -42.425863
-49.35989 16.725327 -42.279532
-48.46261 17.02511 -42.364189
-50.239633 16.409855 -42.128729
-50.362139 16.145432 -40.841237
-49.35989 16.725327 -42.279532
-51.149116 15.847721 -41.959536
-50.239633 16.409855 -42.128729
-52.110019 15.265684 -40.478601
-51.149116 15.847721 -41.959536
-57.058991 9.220027 -40.002859
-57.013863 9.874105 -38.846556
-57.871914 7.867855 -39.597183
-57.058991 9.220027 -40.002859
-57.165454 8.405684 -41.082147
-57.550854 5.157579 -43.80228
-57.411263 6.368508 -42.986515
-58.506422 3.617446 -43.171886
-57.550854 5.157579 -43.80228
-59.342855 2.078626 -42.580664
-59.13382 3.364001 -41.884664
-58.506422 3.617446 -43.171886
-60.241785 0.48792 -41.864673
-59.342855 2.078626 -42.580664
3 0 10 9
3 0 11 10
3 35 14 36
3 37 36 12
3 35 36 37
3 38 15 39
3 40 17 41
3 42 41 15
3 40 41 42
3 43 20 44
3 45 44 18
3 43 44 45
3 47 46 20
3 1 48 49
3 2 50 51
3 2 52 53
3 3 54 56
3 54 23 55
3 54 55 56
3 5 24 13
3 5 25 24
3 6 57 59
3 57 58 59
3 6 60 61
3 6 62 64
3 62 26 63
3 62 63 64
3 7 27 16
3 7 28 27
3 4 65 67
3 67 66 22
3 65 66 67
3 8 68 70
3 70 69 19
3 68 69 70
3 8 71 73
3 71 29 72
3 71 72 73
3 8 30 29
3 74 31 75
3 76 75 21
3 74 75 76
3 77 32 78
3 79 78 31
3 77 78 79
3 80 33 81
3 82 34 83
3 84 83 33
3 82 83 84
3 9 85 87
3 87 86 1
3 85 86 87
3 10 88 90
3 90 89 9
3 88 89 90
3 10 91 92
3 10 93 94
3 11 95 97
3 97 96 10
3 95 96 97
3 11 98 100
3 98 2 99
3 98 99 100
3 12 13 3
3 14 13 12
3 14 5 13
3 15 101 102
3 15 103 105
3 103 6 104
3 103 104 105
3 15 16 6
3 17 16 15
3 17 7 16
3 18 19 4
3 20 19 18
3 20 8 19
3 20 21 8
3 106 21 107
3 108 107 20
3 106 107 108
3 110 109 21
3 112 111 1
3 113 22 114
3 23 115 117
3 115 22 116
3 115 116 117
3 23 4 22
3 13 23 3
3 24 23 13
3 24 4 23
3 24 18 4
3 25 18 24
3 25 118 120
3 120 119 18
3 118 119 120
3 26 121 122
3 26 123 125
3 123 1 124
3 123 124 125
3 16 26 6
3 27 26 16
3 27 1 26
3 27 9 1
3 28 9 27
3 28 0 9
3 126 3 127
3 128 3 129
3 130 12 131
3 132 131 3
3 130 131 132
3 133 12 134
3 136 135 12
3 22 137 139
3 137 138 139
3 141 140 22
3 19 142 144
3 144 143 4
3 142 143 144
3 146 145 19
3 29 147 148
3 29 149 150
3 29 151 153
3 151 17 152
3 151 152 153
3 30 17 29
3 30 7 17
3 21 30 8
3 31 30 21
3 31 7 30
3 31 28 7
3 32 28 31
3 32 0 28
3 154 14 155
3 156 14 157
3 158 5 159
3 160 159 14
3 158 159 160
3 161 5 162
3 163 25 164
3 165 164 5
3 163 164 165
3 166 25 167
3 169 168 25
3 170 32 171
3 33 172 174
3 172 32 173
3 172 173 174
3 33 0 32
3 33 11 0
3 34 11 33
3 34 2 11
3 175 34 176
3 177 34 178
3 179 2 180
3 181 180 34
3 179 180 181
3 183 182 2
