ply
format ascii 1.0
element vertex 106
property float x
property float y
property float z
element face 93
property list uchar int vertex_index
end_header
-2.803162 57.736675 -34.180843
-2.931692 71.44133 -30.638382
-4.828167 64.924362 -32.594799
-0.881121 64.389847 -32.993835
-7.25 57.58749 -33.062069
-1.16083 70.939316 -30.455956
-1.800434 68.046417 -31.972466
-0.258581 67.336823 -31.665176
0.467056 63.4995 -32.558445
-3.701084 61.448177 -33.565483
-5.992773 61.330074 -32.973892
-4.894196 57.838642 -33.759888
-6.194239 54.086369 -33.668926
-4.030422 54.113628 -34.173588
-2.117672 53.79211 -34.420483
-5.172291 71.481781 -30.38409
-6.199167 68.148727 -31.305809
-3.795532 68.31366 -31.838612
-2.656719 64.867355 -32.994308
-1.739536 61.176167 -33.814995
-1.025951 57.257084 -34.275093
-0.153492 60.504551 -33.675175
-7.339878 64.586578 -31.850601
-0.522526 70.461525 -30.136918
-0.955406 72.225174 -29.447662
-0.071402 68.660279 -30.741528
-0.709705 69.13807 -31.060566
-0.522526 70.461525 -30.136918
0.28196 66.774544 -31.285699
-0.071402 68.660279 -30.741528
-3.612862 72.983162 -29.831736
-2.597798 72.850082 -29.797848
-4.051991 71.461556 -30.511236
-4.733162 73.003388 -29.70459
-3.612862 72.983162 -29.831736
1.215406 60.847271 -32.395888
0.75174 61.477863 -32.835232
0.930722 62.868908 -32.119101
-7.903996 59.224163 -32.581136
-7.275383 61.095455 -32.537048
-6.621386 59.458782 -33.017981
-8.535726 57.310058 -32.603516
-7.903996 59.224163 -32.581136
-7.907696 55.667412 -33.006529
-8.535726 57.310058 -32.603516
-6.879996 52.15997 -33.527788
-5.786312 52.216682 -33.780054
-0.762427 55.184513 -34.318737
-0.312693 56.831318 -34.135791
-1.712368 72.599075 -29.706635
-0.955406 72.225174 -29.447662
-2.046261 71.190323 -30.547169
-2.597798 72.850082 -29.797848
-1.712368 72.599075 -29.706635
0.644778 64.855883 -31.732334
0.104238 65.418161 -32.11181
0.28196 66.774544 -31.285699
0.930722 62.868908 -32.119101
0.644778 64.855883 -31.732334
-4.704403 52.230312 -34.032385
-5.786312 52.216682 -33.780054
-5.11233 54.099998 -33.921257
-3.708242 52.129543 -34.188506
-4.704403 52.230312 -34.032385
-2.751868 51.968784 -34.311953
-3.708242 52.129543 -34.188506
-3.074047 53.952869 -34.297035
-1.873071 51.698833 -34.352276
-2.751868 51.968784 -34.311953
-5.984597 72.903099 -29.529566
-4.733162 73.003388 -29.70459
-6.497542 71.285911 -30.066025
-5.984597 72.903099 -29.529566
-5.685729 69.815254 -30.844949
-7.010981 69.619384 -30.526884
-6.497542 71.285911 -30.066025
0.123537 58.455051 -33.835833
-0.312693 56.831318 -34.135791
-0.589722 58.880817 -33.975134
0.441466 59.980389 -33.393597
0.156782 62.002026 -33.11681
0.75174 61.477863 -32.835232
0.123537 58.455051 -33.835833
0.441466 59.980389 -33.393597
-7.571478 67.871063 -30.874565
-7.010981 69.619384 -30.526884
-8.141834 66.089989 -31.146961
-7.571478 67.871063 -30.874565
-6.769522 66.367652 -31.578205
-8.732985 64.246328 -31.344284
-8.141834 66.089989 -31.146961
-7.948935 62.723707 -31.975403
-6.666325 62.958326 -32.412247
-7.275383 61.095455 -32.537048
-8.732985 64.246328 -31.344284
-7.948935 62.723707 -31.975403
-7.379815 53.916851 -33.309957
-7.907696 55.667412 -33.006529
-6.722119 55.836929 -33.365498
-7.379815 53.916851 -33.309957
-6.879996 52.15997 -33.527788
-1.308288 53.452026 -34.391432
-1.571812 55.524597 -34.347788
-0.762427 55.184513 -34.318737
-1.873071 51.698833 -34.352276
-1.308288 53.452026 -34.391432
3 23 5 24
3 25 7 26
3 27 26 5
3 25 26 27
3 29 28 7
3 0 11 9
3 0 13 11
3 0 14 13
3 1 30 31
3 1 32 34
3 32 15 33
3 32 33 34
3 1 17 15
3 3 18 6
3 3 19 18
3 3 21 19
3 37 36 8
3 35 36 37
3 2 22 16
3 4 38 40
3 40 39 10
3 38 39 40
3 4 41 42
3 4 43 44
3 46 45 12
3 48 47 20
3 5 49 50
3 5 51 53
3 51 1 52
3 51 52 53
3 5 6 1
3 7 6 5
3 7 3 6
3 7 8 3
3 54 8 55
3 56 55 7
3 54 55 56
3 58 57 8
3 9 10 2
3 11 10 9
3 11 4 10
3 11 12 4
3 13 12 11
3 13 59 61
3 61 60 12
3 59 60 61
3 13 62 63
3 14 64 66
3 66 65 13
3 64 65 66
3 14 67 68
3 15 69 70
3 15 71 72
3 15 73 75
3 73 16 74
3 73 74 75
3 17 16 15
3 17 2 16
3 6 17 1
3 18 17 6
3 18 2 17
3 18 9 2
3 19 9 18
3 19 0 9
3 19 20 0
3 21 20 19
3 21 76 78
3 78 77 20
3 76 77 78
3 8 21 3
3 79 21 80
3 81 80 8
3 79 80 81
3 83 82 21
3 16 84 85
3 22 86 88
3 88 87 16
3 86 87 88
3 22 89 90
3 10 22 2
3 91 22 92
3 93 92 10
3 91 92 93
3 95 94 22
3 12 96 98
3 98 97 4
3 96 97 98
3 100 99 12
3 20 14 0
3 101 14 102
3 103 102 20
3 101 102 103
3 105 104 14
