ply
format ascii 1.0
element vertex 322
property float x
property float y
property float z
element face 333
property list uchar int vertex_index
end_header
-32.406281 35.871651 -16.948601
-26.753277 38.959602 -28.741283
-22.611906 27.397896 -30.774288
-36.28595 44.248241 -18.430038
-31.888451 37.494434 -23.85228
-34.486629 47.515354 -24.480568
-28.76914 27.574516 -28.143581
-39.311306 48.57687 -19.351906
-36.534176 45.833561 -22.090511
-38.392075 50.735859 -22.246456
-37.926334 46.34502 -15.08511
-30.077888 38.149044 -26.79586
-29.952122 32.822353 -26.103523
-27.518847 33.158371 -28.61969
-25.558243 21.631844 -30.83939
-33.035728 21.852268 -25.832771
-24.05835 33.51709 -30.175171
-33.657078 39.904522 -17.459991
-32.409443 36.80304 -20.186348
-34.172169 41.316017 -21.331074
-33.282066 42.367847 -24.568493
-30.4044 43.613083 -26.707314
-34.757515 41.909412 -14.113752
-31.376549 32.407673 -22.714581
-30.866035 27.342613 -25.421894
-25.997372 27.54496 -29.912853
-40.62188 50.826885 -19.65921
-39.191502 49.622059 -20.995049
-40.122025 52.068905 -21.075661
-28.592258 38.529987 -27.882095
-28.685881 35.745564 -27.770084
-27.117001 36.023628 -28.772999
-34.849609 42.089111 -17.920315
-34.02224 40.712757 -19.415092
-35.277786 42.887497 -19.934662
-35.820538 46.632069 -23.45034
-34.940262 44.190445 -23.356766
-33.966949 44.87933 -24.624409
-32.091324 42.952141 -25.769962
-32.430172 45.65205 -25.597641
-37.168854 45.404797 -16.812824
-36.227119 44.188801 -14.539536
-35.588951 43.243073 -16.291695
-34.241364 41.009464 -15.862642
-32.270947 37.171501 -22.062851
-31.841814 34.73542 -21.439705
-31.462305 35.005978 -23.289368
-29.25293 30.245899 -27.145958
-30.245443 30.10638 -25.689774
-29.897301 27.499069 -26.891293
-30.828285 24.782959 -26.87624
-29.72525 24.879292 -28.112259
-23.171875 30.529068 -30.575787
-24.980968 30.47044 -30.058071
-24.368179 27.478115 -30.443275
-37.822624 46.397602 -18.925903
-36.655075 45.069462 -20.397945
-38.00362 47.299534 -20.761772
-37.580376 48.215656 -22.247299
-36.49654 49.211246 -23.368511
-38.837505 47.522305 -17.351643
-31.174339 37.810017 -25.44928
-30.845337 35.252323 -25.007214
-29.930113 35.492771 -26.514507
-28.872614 32.993469 -27.488079
-28.045652 30.342888 -28.364929
-22.370289 24.159046 -30.824947
-24.055807 24.393379 -30.702328
-24.017689 21.262032 -30.908119
-25.261538 36.33374 -29.557037
-22.045807 33.72477 -30.678242
-21.238941 30.594933 -30.924248
-20.76947 27.311047 -30.940319
-20.629236 23.903687 -30.79504
-32.820667 37.744694 -17.115677
-32.414948 36.359173 -18.382771
-33.03183 38.528633 -18.888588
-33.144485 39.080013 -20.784935
-33.02042 39.519909 -22.631435
-35.352798 43.550671 -21.77877
-33.960312 41.839348 -23.07806
-32.54245 39.927334 -24.301628
-31.634691 40.356598 -25.720554
-30.273516 40.838947 -26.867432
-28.487898 41.385555 -27.772732
-33.239304 38.712036 -15.606348
-32.639256 36.411407 -15.623999
-32.064579 34.437069 -19.566467
-31.81464 32.152538 -20.846786
-31.689468 29.664555 -22.249889
-30.773684 32.630882 -24.493069
-31.046564 29.913227 -24.037773
-31.693306 27.099346 -23.780163
-31.813076 24.566544 -25.437744
-32.018246 22.163784 -27.221172
-32.261452 19.973675 -29.127716
-25.901711 33.329784 -29.504421
-26.616983 30.412571 -29.331676
-27.46933 27.583466 -29.152058
-25.653624 24.60117 -30.395866
-27.138695 24.766518 -29.874622
-28.496923 24.867134 -29.115799
-32.312984 35.01605 -17.36925
-32.403759 34.99588 -16.533172
-40.889359 52.62207 -20.439796
-40.371952 51.447895 -20.367435
-41.139286 52.00106 -19.731571
-41.139286 52.00106 -19.731571
-41.243355 51.309654 -18.930301
-39.074405 48.049588 -18.351774
-39.64212 48.580193 -17.594397
-39.87902 49.107475 -18.594528
-23.220326 21.057976 -30.861693
-23.193989 22.710539 -30.866533
-22.396625 22.506483 -30.820107
-33.745018 20.577955 -26.235254
-33.490804 21.620374 -25.057367
-33.219461 20.794677 -26.909118
-33.745018 20.577955 -26.235254
-20.988251 33.837519 -30.867781
-21.503198 35.387318 -30.682763
-20.584818 32.272601 -30.990784
-21.642374 32.159852 -30.801245
-20.988251 33.837519 -30.867781
-19.827244 27.261927 -30.955774
-20.003496 28.988094 -31.039404
-19.757126 25.558247 -30.883135
-20.699353 25.607367 -30.86768
-19.827244 27.261927 -30.955774
-37.352129 45.628765 -13.883748
-38.255193 46.692425 -14.169941
-34.980168 42.260784 -13.179671
-35.71497 43.400478 -13.392563
-35.492317 43.049107 -14.326644
-34.369535 41.01226 -13.071963
-34.980168 42.260784 -13.179671
-34.196148 40.701387 -14.002031
-34.369535 41.01226 -13.071963
-32.782116 36.684483 -14.789328
-32.632727 35.37009 -15.013489
-31.461691 22.240105 -27.816085
-31.423265 23.473371 -27.048706
-30.86671 23.549692 -27.643619
-31.583294 21.14505 -28.769357
-32.139849 21.068729 -28.174444
-31.461691 22.240105 -27.816085
-27.773525 23.476154 -29.984941
-27.082206 23.357188 -30.226209
-28.45264 23.526463 -29.60553
-27.817809 24.816826 -29.49521
-27.773525 23.476154 -29.984941
-29.099265 23.592285 -29.244814
-28.45264 23.526463 -29.60553
-40.534307 50.232483 -18.748181
-41.243355 51.309654 -18.930301
-39.966593 49.701877 -19.505558
-39.87902 49.107475 -18.594528
-40.534307 50.232483 -18.748181
-32.859898 23.04129 -24.835462
-33.490804 21.620374 -25.057367
-30.315193 23.597859 -28.261629
-30.86671 23.549692 -27.643619
-30.276767 24.831125 -27.49425
-26.29198 21.789851 -30.708593
-26.321343 20.407103 -31.081025
-38.817823 47.379932 -15.375679
-38.255193 46.692425 -14.169941
-39.273409 47.968575 -16.508945
-39.64212 48.580193 -17.594397
-38.381919 46.933662 -16.218376
-38.817823 47.379932 -15.375679
-39.273409 47.968575 -16.508945
-24.115521 19.697041 -31.030613
-23.220326 21.057976 -30.861693
-24.842622 19.97509 -31.114442
-24.115521 19.697041 -31.030613
-25.612899 20.159996 -31.080078
-24.787966 21.446938 -30.873755
-24.842622 19.97509 -31.114442
-26.321343 20.407103 -31.081025
-25.612899 20.159996 -31.080078
-24.945873 37.884951 -29.496398
-26.007407 37.646671 -29.14916
-25.691742 39.197881 -29.088521
-24.222516 36.505479 -29.866812
-24.945873 37.884951 -29.496398
-23.620922 35.097155 -30.175878
-24.659944 34.925415 -29.866104
-24.222516 36.505479 -29.866812
-22.61465 35.200995 -30.427414
-21.503198 35.387318 -30.682763
-23.052079 33.62093 -30.426707
-23.620922 35.097155 -30.175878
-22.61465 35.200995 -30.427414
-20.238231 30.630038 -31.031368
-20.584818 32.272601 -30.990784
-21.004205 28.95299 -30.932283
-20.238231 30.630038 -31.031368
-20.003496 28.988094 -31.039404
-21.526099 22.378804 -30.805153
-22.396625 22.506483 -30.820107
-21.499762 24.031367 -30.809994
-19.747431 23.761862 -30.717548
-19.757126 25.558247 -30.883135
-20.713099 22.157385 -30.692627
-19.747431 23.761862 -30.717548
-21.526099 22.378804 -30.805153
-20.713099 22.157385 -30.692627
-40.430768 53.359302 -21.030299
-40.889359 52.62207 -20.439796
-39.518169 52.739998 -21.58458
-40.430768 53.359302 -21.030299
-38.653194 52.073475 -22.169977
-39.25705 51.402382 -21.661058
-39.518169 52.739998 -21.58458
-37.650911 51.345085 -22.692176
-38.653194 52.073475 -22.169977
-36.703144 50.582779 -23.253204
-37.444308 49.973552 -22.807484
-37.650911 51.345085 -22.692176
-35.636145 49.761211 -23.772684
-36.703144 50.582779 -23.253204
-34.631189 48.913265 -24.328713
-35.491585 48.3633 -23.92454
-35.636145 49.761211 -23.772684
-33.532223 48.006455 -24.863106
-34.631189 48.913265 -24.328713
-32.503994 47.074803 -25.421642
-33.4584 46.583702 -25.039105
-33.532223 48.006455 -24.863106
-31.410345 46.082893 -25.972532
-32.503994 47.074803 -25.421642
-30.397459 45.06341 -26.527369
-31.417286 44.632567 -26.152477
-31.410345 46.082893 -25.972532
-29.347377 43.981476 -27.079918
-30.397459 45.06341 -26.527369
-28.389126 42.867712 -27.612627
-29.446149 42.499319 -27.240023
-29.347377 43.981476 -27.079918
-27.418616 41.689527 -28.138947
-28.389126 42.867712 -27.612627
-26.551305 40.476551 -28.623222
-27.620587 40.172579 -28.257008
-27.418616 41.689527 -28.138947
-25.691742 39.197881 -29.088521
-26.551305 40.476551 -28.623222
-36.502522 44.550655 -13.610961
-37.352129 45.628765 -13.883748
-37.076726 45.26691 -14.812323
-36.502522 44.550655 -13.610961
-35.71497 43.400478 -13.392563
-33.938072 40.251413 -14.876476
-34.196148 40.701387 -14.002031
-34.499439 41.459438 -14.988197
-33.437042 39.102699 -14.748329
-33.938072 40.251413 -14.876476
-33.740334 39.86075 -15.734495
-33.08214 37.834797 -14.780503
-33.437042 39.102699 -14.748329
-32.93928 37.561721 -15.615174
-32.782116 36.684483 -14.789328
-33.08214 37.834797 -14.780503
-32.520246 35.265758 -15.870871
-32.632727 35.37009 -15.013489
-32.522768 36.141529 -16.2863
-32.403759 34.99588 -16.533172
-32.520246 35.265758 -15.870871
-32.317318 35.259811 -18.086334
-32.312984 35.01605 -17.36925
-32.410615 36.115412 -17.665686
-32.142133 34.29876 -18.678182
-32.317318 35.259811 -18.086334
-32.239764 35.398121 -18.974619
-32.105507 33.164221 -19.268446
-32.142133 34.29876 -18.678182
-31.980537 32.021956 -19.908606
-32.105507 33.164221 -19.268446
-31.93961 33.294804 -20.206626
-32.011904 30.763207 -20.618694
-31.980537 32.021956 -19.908606
-31.949317 29.519215 -21.320245
-32.011904 30.763207 -20.618694
-31.752054 30.908546 -21.548338
-32.043018 28.220187 -22.134434
-31.949317 29.519215 -21.320245
-32.044937 26.937582 -22.899571
-32.043018 28.220187 -22.134434
-31.691387 28.381951 -23.015026
-32.188687 25.664829 -23.809159
-32.044937 26.937582 -22.899571
-32.248571 24.398428 -24.637949
-32.188687 25.664829 -23.809159
-31.753191 25.832945 -24.608953
-32.424402 23.209406 -25.635258
-32.859898 23.04129 -24.835462
-32.248571 24.398428 -24.637949
-32.71072 20.950435 -27.603319
-33.219461 20.794677 -26.909118
-32.526987 22.008026 -26.526972
-32.832323 19.855381 -28.556591
-32.71072 20.950435 -27.603319
-32.139849 21.068729 -28.174444
-32.994173 18.963583 -29.70167
-32.832323 19.855381 -28.556591
-26.339671 23.274513 -30.486832
-25.605933 23.116507 -30.617628
-26.29198 21.789851 -30.708593
-26.396159 24.683844 -30.135244
-26.339671 23.274513 -30.486832
-27.082206 23.357188 -30.226209
-29.713428 23.598364 -28.743044
-29.111086 24.873213 -28.614029
-29.099265 23.592285 -29.244814
-30.315193 23.597859 -28.261629
-29.713428 23.598364 -28.743044
-31.655317 19.994456 -29.583069
-31.583294 21.14505 -28.769357
-32.371983 19.015242 -30.14031
-31.655317 19.994456 -29.583069
-32.994173 18.963583 -29.70167
-32.371983 19.015242 -30.14031
3 0 102 103
3 104 28 105
3 106 105 26
3 104 105 106
3 107 26 108
3 1 31 29
3 3 34 32
3 5 37 35
3 5 39 37
3 3 42 40
3 3 32 42
3 4 46 44
3 6 49 47
3 6 51 49
3 2 54 52
3 7 57 55
3 9 58 27
3 9 59 58
3 7 109 111
3 109 60 110
3 109 110 111
3 7 55 60
3 11 63 61
3 13 64 30
3 13 65 64
3 112 68 113
3 114 113 66
3 112 113 114
3 15 115 116
3 15 117 118
3 119 70 120
3 121 71 122
3 123 122 70
3 121 122 123
3 124 72 125
3 126 73 127
3 128 127 72
3 126 127 128
3 17 76 74
3 19 77 33
3 19 78 77
3 8 79 56
3 20 80 36
3 20 81 80
3 20 82 81
3 21 83 38
3 21 84 83
3 10 129 130
3 22 131 133
3 133 132 41
3 131 132 133
3 22 134 135
3 22 136 137
3 17 85 43
3 17 74 85
3 138 86 139
3 18 87 75
3 23 88 45
3 23 89 88
3 12 90 62
3 24 91 48
3 24 92 91
3 24 93 92
3 140 94 141
3 142 141 50
3 140 141 142
3 143 95 144
3 145 144 94
3 143 144 145
3 16 96 69
3 25 97 53
3 25 98 97
3 14 99 67
3 146 100 147
3 148 101 149
3 150 149 100
3 148 149 150
3 152 151 101
3 26 27 7
3 28 27 26
3 28 9 27
3 26 153 154
3 26 155 157
3 155 7 156
3 155 156 157
3 29 30 11
3 31 30 29
3 31 13 30
3 158 15 159
3 32 33 17
3 34 33 32
3 34 19 33
3 35 36 8
3 37 36 35
3 37 20 36
3 37 38 20
3 39 38 37
3 39 21 38
3 40 41 10
3 42 41 40
3 42 22 41
3 42 43 22
3 32 43 42
3 32 17 43
3 44 45 18
3 46 45 44
3 46 23 45
3 47 48 12
3 49 48 47
3 49 24 48
3 49 50 24
3 51 50 49
3 51 160 162
3 162 161 50
3 160 161 162
3 52 53 16
3 54 53 52
3 54 25 53
3 164 163 14
3 55 56 3
3 57 56 55
3 57 8 56
3 27 57 7
3 58 57 27
3 58 8 57
3 58 35 8
3 59 35 58
3 59 5 35
3 165 10 166
3 60 167 168
3 60 169 171
3 169 10 170
3 169 170 171
3 60 40 10
3 55 40 60
3 55 3 40
3 61 62 4
3 63 62 61
3 63 12 62
3 30 63 11
3 64 63 30
3 64 12 63
3 64 47 12
3 65 47 64
3 65 6 47
3 66 67 2
3 68 67 66
3 68 14 67
3 172 68 173
3 174 68 175
3 176 14 177
3 178 177 68
3 176 177 178
3 180 179 14
3 181 69 182
3 183 182 1
3 181 182 183
3 184 69 185
3 186 16 187
3 188 187 69
3 186 187 188
3 70 189 190
3 70 191 193
3 191 16 192
3 191 192 193
3 70 52 16
3 71 52 70
3 71 2 52
3 194 71 195
3 72 196 198
3 196 71 197
3 196 197 198
3 72 2 71
3 72 66 2
3 73 66 72
3 73 199 201
3 201 200 66
3 199 200 201
3 202 73 203
3 204 73 205
3 207 206 73
3 74 75 0
3 76 75 74
3 76 18 75
3 33 76 17
3 77 76 33
3 77 18 76
3 77 44 18
3 78 44 77
3 78 4 44
3 56 34 3
3 79 34 56
3 79 19 34
3 36 79 8
3 80 79 36
3 80 19 79
3 80 78 19
3 81 78 80
3 81 4 78
3 81 61 4
3 82 61 81
3 82 11 61
3 38 82 20
3 83 82 38
3 83 11 82
3 83 29 11
3 84 29 83
3 84 1 29
3 208 28 209
3 210 28 211
3 212 9 213
3 214 213 28
3 212 213 214
3 215 9 216
3 217 59 218
3 219 218 9
3 217 218 219
3 220 59 221
3 222 5 223
3 224 223 59
3 222 223 224
3 225 5 226
3 227 39 228
3 229 228 5
3 227 228 229
3 230 39 231
3 232 21 233
3 234 233 39
3 232 233 234
3 235 21 236
3 237 84 238
3 239 238 21
3 237 238 239
3 240 84 241
3 242 1 243
3 244 243 84
3 242 243 244
3 246 245 1
3 41 247 249
3 249 248 10
3 247 248 249
3 251 250 41
3 43 252 254
3 254 253 22
3 252 253 254
3 85 255 257
3 257 256 43
3 255 256 257
3 85 258 259
3 85 260 262
3 260 86 261
3 260 261 262
3 74 86 85
3 74 0 86
3 86 263 264
3 86 265 267
3 265 0 266
3 265 266 267
3 75 268 270
3 270 269 0
3 268 269 270
3 87 271 273
3 273 272 75
3 271 272 273
3 87 274 275
3 45 87 18
3 88 87 45
3 88 276 278
3 278 277 87
3 276 277 278
3 88 279 280
3 89 281 283
3 283 282 88
3 281 282 283
3 89 284 285
3 62 46 4
3 90 46 62
3 90 23 46
3 48 90 12
3 91 90 48
3 91 23 90
3 91 89 23
3 92 89 91
3 92 286 288
3 288 287 89
3 286 287 288
3 92 289 290
3 93 291 293
3 293 292 92
3 291 292 293
3 93 294 296
3 294 15 295
3 294 295 296
3 50 93 24
3 94 93 50
3 94 15 93
3 94 297 299
3 299 298 15
3 297 298 299
3 95 300 302
3 302 301 94
3 300 301 302
3 95 303 304
3 69 31 1
3 96 31 69
3 96 13 31
3 53 96 16
3 97 96 53
3 97 13 96
3 97 65 13
3 98 65 97
3 98 6 65
3 67 54 2
3 99 54 67
3 99 25 54
3 305 99 306
3 307 306 14
3 305 306 307
3 100 308 310
3 308 99 309
3 308 309 310
3 100 25 99
3 100 98 25
3 101 98 100
3 101 6 98
3 101 51 6
3 311 51 312
3 313 312 101
3 311 312 313
3 315 314 51
3 316 95 317
3 318 95 319
3 321 320 95
