ply
format ascii 1.0
element vertex 160
property float x
property float y
property float z
element face 146
property list uchar int vertex_index
end_header
-43.842224 58.408619 10.793076
-41.6082 59.112568 21.023319
-44.717354 53.704258 16.180542
-46.963615 48.112423 16.336512
-46.557487 52.717724 11.311935
-43.726788 54.20525 21.102509
-42.50499 59.135349 15.97814
-38.572788 63.270756 20.528088
-39.906624 64.019257 15.587219
-44.288399 56.079258 13.553459
-45.523376 53.259029 13.724196
-45.175259 55.568981 11.037495
-43.377388 54.209415 23.526958
-42.765476 56.732998 21.107021
-43.151634 56.68697 18.618406
-42.050323 59.228214 18.531637
-38.318207 66.129166 15.278785
-40.507294 64.03894 12.98862
-48.134834 47.630627 14.096
-45.071522 51.298946 18.642851
-46.001198 48.531445 18.616665
-45.819725 50.910992 16.260502
-46.807297 50.434177 13.90764
-47.982002 49.888538 11.613685
-43.411339 60.665577 7.937777
-44.822136 57.821033 8.238251
-44.168556 51.699535 23.417686
-44.545696 51.570858 21.03335
-44.139118 54.028973 18.648224
-43.628643 56.460552 16.091957
-43.077435 58.854069 13.387161
-40.216675 61.301899 20.832327
-37.565086 65.687485 17.751572
-39.29187 63.763561 18.105145
-40.778748 61.602184 18.365553
-41.285191 61.67371 15.816801
-41.839428 61.528263 13.206504
-42.530552 61.185421 10.566566
-42.186838 57.922783 21.06517
-42.560396 56.657189 22.324461
-41.981758 57.846974 22.28261
-48.803722 46.246712 14.178422
-48.772239 47.364918 13.008428
-43.946731 60.325847 6.652596
-43.203715 61.741504 6.482774
-39.038429 62.023731 21.868833
-38.125073 62.914658 21.691879
-39.394732 62.286327 20.680208
-39.860372 61.039303 22.020952
-39.038429 62.023731 21.868833
-37.029016 66.839119 16.325578
-36.583347 66.535553 17.54061
-41.511381 62.681549 11.771511
-41.173361 62.783602 13.097562
-40.845314 63.936887 11.66257
-41.856943 62.510128 10.451542
-42.18499 61.356842 11.886535
-41.511381 62.681549 11.771511
-42.266786 62.304104 9.117352
-41.856943 62.510128 10.451542
-46.964855 46.932133 17.453512
-46.483647 47.141644 18.593589
-46.482406 48.321934 17.476588
-45.545742 56.385684 8.412241
-45.399376 57.464675 7.004811
-42.866352 55.395397 23.53443
-43.175223 54.119586 24.720128
-43.071432 55.471207 22.316989
-42.866352 55.395397 23.53443
-42.560396 56.657189 22.324461
-37.627792 64.1429 20.327195
-38.125073 62.914658 21.691879
-37.810442 67.247291 13.828383
-37.405577 67.059959 15.089185
-38.665459 66.229141 13.996642
-37.810442 67.247291 13.828383
-39.459668 65.174187 14.150859
-39.112415 65.074211 15.433002
-38.665459 66.229141 13.996642
-39.760002 65.184028 12.85156
-40.206959 64.029099 14.287919
-39.459668 65.174187 14.150859
-40.117596 65.164672 11.533917
-39.760002 65.184028 12.85156
-40.845314 63.936887 11.66257
-40.117596 65.164672 11.533917
-48.143383 46.480114 15.245811
-47.557773 46.721012 16.366067
-47.549224 47.871525 15.216256
-48.143383 46.480114 15.245811
-48.803722 46.246712 14.178422
-41.337986 58.946483 22.231815
-41.981758 57.846974 22.28261
-45.53636 49.915195 18.629758
-45.643051 48.697918 19.768476
-45.178213 50.081668 19.781568
-48.695824 48.493873 11.767271
-48.772239 47.364918 13.008428
-48.058418 48.759582 12.854843
-44.65213 58.903576 6.802834
-44.116737 59.243305 8.088014
-43.946731 60.325847 6.652596
-45.399376 57.464675 7.004811
-44.65213 58.903576 6.802834
-43.604798 52.937732 24.657387
-43.175223 54.119586 24.720128
-44.000382 51.682792 24.602752
-43.604798 52.937732 24.657387
-43.772972 52.954475 23.472322
-44.296329 50.432663 24.490958
-44.000382 51.682792 24.602752
-44.477234 50.391621 23.327759
-44.296329 50.432663 24.490958
-44.665804 50.327282 22.13559
-44.477234 50.391621 23.327759
-44.357126 51.635196 22.225518
-44.9153 50.217624 20.976818
-44.665804 50.327282 22.13559
-44.808609 51.434902 19.8381
-45.178213 50.081668 19.781568
-44.9153 50.217624 20.976818
-40.642224 60.041149 22.136319
-39.860372 61.039303 22.020952
-40.912437 60.207234 20.927823
-41.337986 58.946483 22.231815
-40.642224 60.041149 22.136319
-37.123941 65.351265 18.938937
-36.583347 66.535553 17.54061
-38.068937 64.47912 19.13983
-37.627792 64.1429 20.327195
-37.123941 65.351265 18.938937
-37.941647 65.908325 16.515178
-37.029016 66.839119 16.325578
-37.405577 67.059959 15.089185
-42.70718 62.044182 7.802958
-42.970945 60.925499 9.252171
-42.266786 62.304104 9.117352
-43.203715 61.741504 6.482774
-42.70718 62.044182 7.802958
-46.004633 47.322239 19.695802
-45.643051 48.697918 19.768476
-46.004633 47.322239 19.695802
-46.483647 47.141644 18.593589
-46.964855 46.932133 17.453512
-47.557773 46.721012 16.366067
-45.722303 55.259659 9.811863
-44.998697 56.695007 9.637873
-45.545742 56.385684 8.412241
-46.413418 53.83403 9.949083
-45.866373 54.143352 11.174715
-45.722303 55.259659 9.811863
-47.153656 52.407219 10.148191
-46.413418 53.83403 9.949083
-47.865914 50.992626 10.299066
-47.269745 51.303131 11.46281
-47.153656 52.407219 10.148191
-48.603323 49.586277 10.515601
-47.865914 50.992626 10.299066
-48.695824 48.493873 11.767271
-48.603323 49.586277 10.515601
3 0 11 9
3 1 38 40
3 38 13 39
3 38 39 40
3 1 15 13
3 42 41 18
3 2 21 19
3 4 22 10
3 4 23 22
3 44 43 24
3 5 26 12
3 5 27 26
3 5 28 27
3 6 29 14
3 6 30 29
3 7 45 46
3 7 47 49
3 47 31 48
3 47 48 49
3 50 32 51
3 8 33 16
3 8 34 33
3 8 35 34
3 52 36 53
3 54 53 17
3 52 53 54
3 55 37 56
3 57 56 36
3 55 56 57
3 59 58 37
3 3 60 62
3 62 61 20
3 60 61 62
3 64 63 25
3 9 10 2
3 11 10 9
3 11 4 10
3 65 12 66
3 13 67 69
3 67 12 68
3 67 68 69
3 13 5 12
3 13 14 5
3 15 14 13
3 15 6 14
3 70 7 71
3 72 16 73
3 74 16 75
3 76 8 77
3 78 77 16
3 76 77 78
3 79 17 80
3 81 80 8
3 79 80 81
3 82 17 83
3 85 84 17
3 18 86 88
3 88 87 3
3 86 87 88
3 90 89 18
3 91 1 92
3 19 93 95
3 93 20 94
3 93 94 95
3 21 20 19
3 21 3 20
3 10 21 2
3 22 21 10
3 22 3 21
3 22 18 3
3 23 18 22
3 23 96 98
3 98 97 18
3 96 97 98
3 24 25 0
3 99 25 100
3 101 100 24
3 99 100 101
3 103 102 25
3 12 104 105
3 26 106 108
3 108 107 12
3 106 107 108
3 26 109 110
3 26 111 112
3 27 113 115
3 115 114 26
3 113 114 115
3 27 116 117
3 27 118 120
3 118 19 119
3 118 119 120
3 28 19 27
3 28 2 19
3 14 28 5
3 29 28 14
3 29 2 28
3 29 9 2
3 30 9 29
3 30 0 9
3 31 121 122
3 31 123 125
3 123 1 124
3 123 124 125
3 32 126 127
3 32 128 130
3 128 7 129
3 128 129 130
3 16 131 133
3 131 32 132
3 131 132 133
3 33 32 16
3 33 7 32
3 33 31 7
3 34 31 33
3 34 1 31
3 34 15 1
3 35 15 34
3 35 6 15
3 17 35 8
3 36 35 17
3 36 6 35
3 36 30 6
3 37 30 36
3 37 0 30
3 37 24 0
3 134 24 135
3 136 135 37
3 134 135 136
3 138 137 24
3 20 139 140
3 142 141 20
3 144 143 3
3 25 11 0
3 145 11 146
3 147 146 25
3 145 146 147
3 148 4 149
3 150 149 11
3 148 149 150
3 151 4 152
3 153 23 154
3 155 154 4
3 153 154 155
3 156 23 157
3 159 158 23
