ply
format ascii 1.0
element vertex 234
property float x
property float y
property float z
element face 221
property list uchar int vertex_index
end_header
36.689293 -9.648259 70.498962
23.701481 -3.23505 70.670784
31.367792 -2.311983 66.746124
20.512779 -3.456611 73.94754
22.080605 7.553295 66.530991
34.53867 -6.096042 69.031242
35.535427 -1.385334 65.560989
38.236053 -5.110843 67.107323
21.168505 1.843386 69.932968
24.363693 1.906326 66.81102
28.126638 2.212547 64.94043
27.339264 -2.948631 68.287453
32.325089 2.873922 64.008904
36.683426 3.726633 63.261955
23.68034 7.539545 65.129448
27.364857 7.719124 63.455902
35.794418 -7.864812 69.955078
36.433331 -5.600223 68.127335
37.513924 -7.388912 68.806541
39.103241 -6.938961 67.500786
22.061199 -3.324909 72.213226
20.818056 -0.867424 71.894249
22.350086 -0.802347 70.13723
22.697758 1.863094 68.222855
23.996571 -0.742001 68.623497
25.776344 -0.635202 67.390816
25.460556 -3.125712 69.358932
29.702856 -0.161407 65.727661
30.187294 2.503899 64.399666
31.797033 0.212317 65.185928
37.587307 -0.89649 64.901535
36.075478 1.11665 64.246246
38.191406 1.573816 63.671021
20.633827 7.590824 68.284599
33.021229 -4.270168 67.899437
33.451725 -1.8701 66.149445
35.03989 -3.785485 67.183044
37.012146 -3.282798 66.407906
38.91291 -2.801016 65.511185
19.741777 1.794979 71.874954
20.163029 4.662743 70.015076
21.583275 4.657106 68.13147
23.134104 4.650988 66.541885
24.839842 4.690107 65.300438
35.022724 -10.086648 71.767967
26.701042 4.806356 64.411964
26.176851 2.014698 65.72345
27.685543 -0.446409 66.438713
29.318565 -2.677896 67.434052
30.98839 -4.698362 68.6287
32.578079 -6.558441 69.875908
33.960335 -8.329572 70.986176
28.698774 5.013664 63.830154
30.801939 5.30711 63.467056
32.972836 5.665373 63.210632
33.932991 0.650066 64.723274
34.502979 3.293695 63.6633
35.170864 6.05575 62.944351
37.354927 6.440212 62.564438
24.011343 9.023332 64.555237
24.562863 7.563508 64.620991
36.932892 -10.573008 70.525311
37.446112 -9.432044 69.787075
26.405121 7.653297 63.784218
26.772044 9.147771 63.337356
37.446112 -9.432044 69.787075
37.858427 -8.302371 68.940865
37.101608 -8.518586 69.652751
38.886166 0.56666 63.888012
37.889357 0.338663 64.286278
38.584116 -0.668493 64.503269
39.221441 1.780277 63.30132
38.886166 0.56666 63.888012
21.623019 9.057182 66.617531
20.899631 9.075946 67.494335
21.357216 7.572059 67.407795
39.084032 -4.887078 66.516868
39.42246 -3.732164 65.718799
38.574481 -3.955929 66.309254
39.832504 -6.741522 66.75639
39.332737 -7.879696 67.487873
19.935378 -2.225395 73.886494
19.758461 -3.572788 74.87902
33.631863 -11.379981 73.181995
34.532097 -11.1763 72.608444
34.12249 -10.29033 72.341519
30.787629 -5.824555 69.675773
29.983383 -4.869428 69.035008
31.582473 -6.754594 70.299377
31.783234 -5.628402 69.252304
30.787629 -5.824555 69.675773
33.591296 -9.411791 71.950623
33.000695 -8.536791 71.467232
34.12249 -10.29033 72.341519
34.491529 -9.20811 71.377071
33.591296 -9.411791 71.950623
23.175511 9.025634 65.136593
22.375644 9.032509 65.837365
22.880472 7.54642 65.830219
23.175511 9.025634 65.136593
24.011343 9.023332 64.555237
27.762222 9.22526 63.127556
26.772044 9.147771 63.337356
28.388208 7.828791 63.269413
27.762222 9.22526 63.127556
38.653086 -8.077395 68.287987
38.308582 -7.163937 68.153663
37.858427 -8.302371 68.940865
39.332737 -7.879696 67.487873
38.653086 -8.077395 68.287987
38.510922 2.854455 63.195744
37.756932 3.930864 62.991211
37.437416 2.650225 63.466488
38.510922 2.854455 63.195744
39.221441 1.780277 63.30132
20.376713 -4.682658 74.974239
19.758461 -3.572788 74.87902
19.622394 -4.798834 75.90572
21.157173 -4.570523 74.146946
20.376713 -4.682658 74.974239
21.931383 -4.504672 73.279789
21.286989 -3.39076 73.080383
21.157173 -4.570523 74.146946
22.746928 -4.439293 72.529656
21.931383 -4.504672 73.279789
23.567069 -4.394364 71.758434
22.88134 -3.27998 71.442005
22.746928 -4.439293 72.529656
24.437615 -4.338622 71.098526
23.567069 -4.394364 71.758434
20.21776 9.101358 68.442627
19.96803 7.597045 69.296761
20.21776 9.101358 68.442627
20.899631 9.075946 67.494335
21.623019 9.057182 66.617531
22.375644 9.032509 65.837365
39.246917 -1.620756 64.808094
38.584116 -0.668493 64.503269
38.250108 -1.848753 65.20636
39.819211 -2.586836 64.978127
39.246917 -1.620756 64.808094
39.819211 -2.586836 64.978127
39.42246 -3.732164 65.718799
39.517626 -5.801137 66.7136
39.084032 -4.887078 66.516868
38.669647 -6.024902 67.304055
39.517626 -5.801137 66.7136
39.832504 -6.741522 66.75639
20.088017 -0.930802 72.859848
19.935378 -2.225395 73.886494
20.665417 -2.162018 72.920895
19.549877 0.4004 72.8502
20.088017 -0.930802 72.859848
20.279916 0.463778 71.884602
19.052302 1.729405 72.914894
19.549877 0.4004 72.8502
19.283659 3.205087 71.987735
19.052302 1.729405 72.914894
19.494286 4.638968 71.057796
19.283659 3.205087 71.987735
19.952403 3.228861 70.945015
19.732631 6.133005 70.161999
19.063887 6.10923 71.204719
19.494286 4.638968 71.057796
20.398428 6.126784 69.149837
19.96803 7.597045 69.296761
19.732631 6.133005 70.161999
25.142614 6.138789 64.706486
24.562863 7.563508 64.620991
24.260091 6.114826 65.214943
35.358246 -10.988329 71.921741
36.19153 -10.769134 71.287239
35.856009 -9.867453 71.133465
35.358246 -10.988329 71.921741
34.532097 -11.1763 72.608444
25.770442 4.748232 64.856201
26.073214 6.196913 64.262249
25.142614 6.138789 64.706486
25.317152 -4.283952 70.4426
24.581018 -3.180381 70.014858
24.437615 -4.338622 71.098526
26.244826 -4.205065 69.87704
25.317152 -4.283952 70.4426
27.184179 -4.116524 69.341301
26.39991 -3.037171 68.823193
26.244826 -4.205065 69.87704
28.15882 -3.994563 68.864384
27.184179 -4.116524 69.341301
29.148471 -3.859196 68.437683
28.328914 -2.813263 67.860752
28.15882 -3.994563 68.864384
30.153478 -3.688129 68.031376
29.148471 -3.859196 68.437683
29.983383 -4.869428 69.035008
32.309567 -7.651226 70.912098
31.582473 -6.754594 70.299377
33.269207 -7.444007 70.431042
32.309567 -7.651226 70.912098
33.000695 -8.536791 71.467232
36.932892 -10.573008 70.525311
36.19153 -10.769134 71.287239
27.03295 6.26274 63.933933
26.405121 7.653297 63.784218
26.073214 6.196913 64.262249
29.055166 6.476062 63.456539
28.388208 7.828791 63.269413
28.031816 6.366394 63.643028
30.106749 6.622784 63.27499
29.055166 6.476062 63.456539
29.750357 5.160387 63.648605
31.175067 6.769498 63.173648
30.106749 6.622784 63.27499
32.260515 6.948629 63.045436
31.175067 6.769498 63.173648
31.887388 5.486242 63.338844
33.352473 7.118535 62.964733
32.260515 6.948629 63.045436
34.451487 7.313724 62.831592
33.352473 7.118535 62.964733
34.07185 5.860561 63.077491
35.544536 7.488476 62.709957
34.451487 7.313724 62.831592
36.636568 7.680707 62.520001
35.544536 7.488476 62.709957
36.262895 6.247981 62.754395
37.708189 7.840362 62.307179
36.636568 7.680707 62.520001
38.092682 5.287653 62.642453
37.019177 5.083423 62.913196
37.756932 3.930864 62.991211
38.420346 6.610741 62.277794
38.092682 5.287653 62.642453
37.708189 7.840362 62.307179
38.420346 6.610741 62.277794
3 60 59 14
3 0 61 62
3 63 15 64
3 0 18 16
3 0 65 67
3 67 66 18
3 65 66 67
3 1 22 20
3 1 24 22
3 1 26 24
3 2 29 27
3 68 32 69
3 70 69 30
3 68 69 70
3 72 71 32
3 4 73 75
3 75 74 33
3 73 74 75
3 5 36 34
3 7 37 17
3 7 38 37
3 7 76 78
3 78 77 38
3 76 77 78
3 80 79 19
3 3 81 82
3 8 39 21
3 8 40 39
3 8 41 40
3 9 42 23
3 9 43 42
3 85 84 44
3 83 84 85
3 9 46 43
3 11 47 25
3 11 48 47
3 86 49 87
3 88 50 89
3 90 89 49
3 88 89 90
3 91 51 92
3 93 44 94
3 95 94 51
3 93 94 95
3 10 52 45
3 12 53 28
3 12 54 53
3 6 55 35
3 13 56 31
3 13 57 56
3 13 58 57
3 14 96 98
3 98 97 4
3 96 97 98
3 100 99 14
3 15 101 102
3 15 103 104
3 16 17 5
3 18 17 16
3 18 7 17
3 18 19 7
3 105 19 106
3 107 106 18
3 105 106 107
3 109 108 19
3 20 21 3
3 22 21 20
3 22 8 21
3 22 23 8
3 24 23 22
3 24 9 23
3 24 25 9
3 26 25 24
3 26 11 25
3 27 28 10
3 29 28 27
3 29 12 28
3 30 31 6
3 32 31 30
3 32 13 31
3 32 110 112
3 112 111 13
3 110 111 112
3 114 113 32
3 115 3 116
3 115 116 117
3 118 3 119
3 120 20 121
3 122 121 3
3 120 121 122
3 123 20 124
3 125 1 126
3 127 126 20
3 125 126 127
3 129 128 1
3 33 130 131
3 133 132 33
3 135 134 4
3 34 35 2
3 36 35 34
3 36 6 35
3 17 36 5
3 37 36 17
3 37 6 36
3 37 30 6
3 38 30 37
3 38 136 138
3 138 137 30
3 136 137 138
3 38 139 140
3 142 141 38
3 19 143 145
3 145 144 7
3 143 144 145
3 147 146 19
3 21 148 150
3 150 149 3
3 148 149 150
3 39 151 153
3 153 152 21
3 151 152 153
3 39 154 155
3 39 156 157
3 40 158 160
3 160 159 39
3 158 159 160
3 40 161 163
3 161 162 163
3 40 164 166
3 164 33 165
3 164 165 166
3 41 33 40
3 41 4 33
3 23 41 8
3 42 41 23
3 42 4 41
3 42 14 4
3 43 14 42
3 43 167 169
3 169 168 14
3 167 168 169
3 44 170 172
3 172 171 0
3 170 171 172
3 174 173 44
3 43 175 177
3 175 45 176
3 175 176 177
3 46 45 43
3 46 10 45
3 25 46 9
3 47 46 25
3 47 10 46
3 47 27 10
3 48 27 47
3 48 2 27
3 178 26 179
3 180 179 1
3 178 179 180
3 181 26 182
3 183 11 184
3 185 184 26
3 183 184 185
3 186 11 187
3 188 48 189
3 190 189 11
3 188 189 190
3 49 191 193
3 191 48 192
3 191 192 193
3 49 2 48
3 49 34 2
3 50 34 49
3 50 5 34
3 194 50 195
3 51 196 198
3 196 50 197
3 196 197 198
3 51 5 50
3 51 16 5
3 44 16 51
3 44 0 16
3 200 199 0
3 45 201 203
3 201 15 202
3 201 202 203
3 52 15 45
3 52 204 206
3 206 205 15
3 204 205 206
3 28 52 10
3 53 52 28
3 53 207 209
3 209 208 52
3 207 208 209
3 53 210 211
3 54 212 214
3 214 213 53
3 212 213 214
3 54 215 216
3 35 29 2
3 55 29 35
3 55 12 29
3 31 55 6
3 56 55 31
3 56 12 55
3 56 54 12
3 57 54 56
3 57 217 219
3 219 218 54
3 217 218 219
3 57 220 221
3 58 222 224
3 224 223 57
3 222 223 224
3 58 225 226
3 227 58 228
3 229 228 13
3 227 228 229
3 230 58 231
3 233 232 58
