ply
format ascii 1.0
element vertex 179
property float x
property float y
property float z
element face 169
property list uchar int vertex_index
end_header
-26.76263 -5.598968 -47.673157
-26.834 -14.707661 -45.376041
-27.301029 -1.538025 -47.074688
-26.379051 -15.631702 -42.871262
-26.212318 -20.168671 -41.322517
-27.84709 -19.727957 -43.046257
-27.433275 -0.02247 -51.383156
-27.605375 -4.486532 -50.919342
-27.015734 -11.288547 -43.628368
-26.524958 -9.998066 -47.006126
-28.33201 -9.354585 -49.227516
-29.599415 -14.558723 -46.689434
-26.323151 -20.593979 -40.070599
-27.009157 -3.523916 -47.547676
-27.161047 -0.722788 -49.36792
-26.981916 -2.777861 -49.583549
-27.450937 -2.197237 -51.327133
-26.906708 -4.942378 -49.44735
-26.291742 -15.099251 -44.262024
-26.33606 -12.820488 -44.961838
-26.597473 -12.314793 -46.293045
-27.13809 -9.557921 -48.275146
-27.476364 -11.994846 -47.326321
-28.90274 -11.917515 -48.040443
-27.974522 -14.512302 -46.189766
-28.607048 -22.362553 -41.68874
-29.415129 -19.774143 -43.501144
-27.087296 -6.350342 -45.630344
-26.620432 -18.398113 -40.742607
-26.212324 -17.869963 -42.185314
-26.416798 -17.445776 -43.374496
-27.250198 -17.177774 -44.284927
-26.735998 -19.86842 -42.319267
-27.256617 -22.379337 -41.114128
-28.849682 -4.314667 -52.061165
-26.777761 -8.447954 -45.68206
-26.664787 -13.440847 -43.361515
-26.512529 -10.604302 -45.446762
-26.590534 -7.758487 -47.479622
-26.952923 -7.205226 -48.996635
-27.898613 -6.875527 -50.203316
-29.37196 -6.836364 -51.076019
-30.009853 -9.442724 -49.844398
-30.744875 -12.129257 -48.423588
-28.62752 -17.106941 -44.902119
-30.39859 -17.26963 -45.222782
-29.454033 -22.434835 -41.859452
-29.049423 -23.725365 -40.968311
-27.393449 -6.713137 -44.495267
-27.24375 -5.330463 -45.445312
-26.811295 -19.746411 -39.66587
-27.064354 -18.680046 -39.910911
-27.044539 -23.701687 -40.112364
-26.835423 -22.462519 -40.704191
-27.61 -23.686822 -40.447315
-27.044539 -23.701687 -40.112364
-27.364705 -0.16365 -47.926401
-27.457441 -0.590881 -46.660208
-27.492045 0.99773 -51.219475
-27.355932 0.647571 -50.211857
-27.297161 -0.372629 -50.375538
-27.771434 1.304421 -52.203796
-27.492045 0.99773 -51.219475
-27.819249 0.207749 -52.23114
-27.771434 1.304421 -52.203796
-28.030967 -3.185822 -51.832287
-27.953748 -2.041174 -52.036183
-27.528156 -3.341884 -51.123238
-28.227528 -4.4006 -51.490254
-28.653121 -3.099889 -52.403199
-28.030967 -3.185822 -51.832287
-27.196554 -10.228603 -43.633389
-27.430313 -11.61909 -42.60839
-26.896748 -9.86825 -44.655214
-27.077567 -8.808306 -44.660235
-27.196554 -10.228603 -43.633389
-26.521919 -14.536275 -43.116388
-26.840098 -14.837989 -42.297959
-26.69723 -15.933417 -42.052832
-30.57455 -14.723935 -46.781286
-31.14728 -13.509203 -47.648363
-30.172145 -13.34399 -47.556511
-30.831171 -18.652138 -44.457998
-29.906859 -18.521887 -44.361963
-30.339441 -19.904394 -43.597179
-31.392351 -17.488132 -45.239486
-30.831171 -18.652138 -44.457998
-26.443922 -21.920559 -39.001259
-26.662655 -20.844344 -39.329867
-26.252696 -21.719363 -39.649784
-26.443922 -21.920559 -39.001259
-26.197279 -21.506709 -40.275743
-26.267734 -20.381325 -40.696558
-26.252696 -21.719363 -39.649784
-26.313274 -21.357185 -40.808385
-26.197279 -21.506709 -40.275743
-27.230074 -12.688944 -42.577041
-27.430313 -11.61909 -42.60839
-29.858073 -21.140631 -42.765653
-29.011088 -21.068348 -42.594942
-29.454033 -22.434835 -41.859452
-30.339441 -19.904394 -43.597179
-29.858073 -21.140631 -42.765653
-27.491954 -1.931974 -45.815748
-27.457441 -0.590881 -46.660208
-27.350617 -2.924304 -46.167485
-27.491954 -1.931974 -45.815748
-27.20468 -3.91725 -46.403979
-27.155093 -2.530971 -47.311182
-27.350617 -2.924304 -46.167485
-27.048226 -4.937129 -46.58901
-27.20468 -3.91725 -46.403979
-27.24375 -5.330463 -45.445312
-26.81792 -17.316623 -40.988505
-27.064354 -18.680046 -39.910911
-26.499741 -17.014907 -41.806934
-26.69723 -15.933417 -42.052832
-26.81792 -17.316623 -40.988505
-26.471792 -19.496046 -40.406603
-26.811295 -19.746411 -39.66587
-26.662655 -20.844344 -39.329867
-26.575114 -21.20706 -41.306761
-26.474158 -20.018546 -41.820892
-26.313274 -21.357185 -40.808385
-26.996308 -21.123879 -41.716698
-26.575114 -21.20706 -41.306761
-26.835423 -22.462519 -40.704191
-28.285215 -23.67843 -40.734621
-27.931832 -22.370945 -41.401434
-27.61 -23.686822 -40.447315
-28.72759 -25.041243 -40.014193
-29.049423 -23.725365 -40.968311
-28.285215 -23.67843 -40.734621
-27.294714 0.243969 -49.073017
-27.364705 -0.16365 -47.926401
-27.231038 -1.130406 -48.221304
-27.294714 0.243969 -49.073017
-27.355932 0.647571 -50.211857
-27.82808 -0.879635 -52.203129
-27.819249 0.207749 -52.23114
-27.442106 -1.109854 -51.355145
-27.82808 -0.879635 -52.203129
-27.953748 -2.041174 -52.036183
-29.404496 -3.115395 -52.936813
-28.653121 -3.099889 -52.403199
-29.705431 -4.400057 -52.456627
-29.404496 -3.115395 -52.936813
-27.232335 -7.7595 -44.634377
-27.393449 -6.713137 -44.495267
-26.932529 -7.399148 -45.656202
-27.232335 -7.7595 -44.634377
-27.077567 -8.808306 -44.660235
-27.0546 -13.765094 -42.443615
-26.840098 -14.837989 -42.297959
-26.84026 -12.364697 -43.494941
-27.230074 -12.688944 -42.577041
-27.0546 -13.765094 -42.443615
-29.96657 -5.660906 -51.964054
-29.705431 -4.400057 -52.456627
-29.110821 -5.575515 -51.568592
-30.31679 -6.986019 -51.337502
-29.96657 -5.660906 -51.964054
-30.635737 -8.289198 -50.721691
-30.31679 -6.986019 -51.337502
-29.690907 -8.139544 -50.460209
-31.021902 -9.65382 -49.980896
-30.635737 -8.289198 -50.721691
-31.389413 -10.997086 -49.270491
-31.021902 -9.65382 -49.980896
-30.377364 -10.785991 -49.133993
-31.795493 -12.400756 -48.450527
-31.389413 -10.997086 -49.270491
-31.795493 -12.400756 -48.450527
-31.14728 -13.509203 -47.648363
-30.974137 -16.079389 -46.04796
-30.57455 -14.723935 -46.781286
-29.999002 -15.914176 -45.956108
-30.974137 -16.079389 -46.04796
-31.392351 -17.488132 -45.239486
3 0 15 13
3 0 17 15
3 1 20 18
3 1 22 20
3 1 24 22
3 47 46 25
3 48 27 49
3 50 28 51
3 4 29 12
3 4 30 29
3 4 32 30
3 52 33 53
3 55 54 33
3 2 56 57
3 6 58 60
3 60 59 14
3 58 59 60
3 6 61 62
3 6 63 64
3 7 65 67
3 67 66 16
3 65 66 67
3 7 68 70
3 68 34 69
3 68 69 70
3 8 71 72
3 8 73 75
3 73 35 74
3 73 74 75
3 3 76 78
3 76 36 77
3 76 77 78
3 9 37 19
3 9 38 37
3 9 39 38
3 10 40 21
3 10 41 40
3 10 42 41
3 11 43 23
3 11 79 81
3 81 80 43
3 79 80 81
3 5 44 31
3 82 45 83
3 84 83 26
3 82 83 84
3 86 85 45
3 87 12 88
3 89 12 90
3 91 4 92
3 93 92 12
3 91 92 93
3 95 94 4
3 13 14 2
3 15 14 13
3 15 6 14
3 15 16 6
3 17 16 15
3 17 7 16
3 96 8 97
3 18 19 3
3 20 19 18
3 20 9 19
3 20 21 9
3 22 21 20
3 22 10 21
3 22 23 10
3 24 23 22
3 24 11 23
3 25 26 5
3 98 26 99
3 100 99 25
3 98 99 100
3 102 101 26
3 103 2 104
3 105 2 106
3 107 13 108
3 109 108 2
3 107 108 109
3 27 110 112
3 110 13 111
3 110 111 112
3 27 0 13
3 28 113 114
3 28 115 117
3 115 3 116
3 115 116 117
3 12 118 120
3 118 28 119
3 118 119 120
3 29 28 12
3 29 3 28
3 29 18 3
3 30 18 29
3 30 1 18
3 30 31 1
3 32 31 30
3 32 5 31
3 121 32 122
3 123 122 4
3 121 122 123
3 33 124 126
3 124 32 125
3 124 125 126
3 33 5 32
3 33 25 5
3 127 25 128
3 129 128 33
3 127 128 129
3 132 131 25
3 130 131 132
3 14 133 135
3 135 134 2
3 133 134 135
3 137 136 14
3 16 138 140
3 140 139 6
3 138 139 140
3 142 141 16
3 34 143 144
3 34 145 146
3 147 27 148
3 35 149 151
3 149 27 150
3 149 150 151
3 35 0 27
3 36 152 153
3 36 154 156
3 154 8 155
3 154 155 156
3 19 36 3
3 37 36 19
3 37 8 36
3 37 35 8
3 38 35 37
3 38 0 35
3 38 17 0
3 39 17 38
3 39 7 17
3 21 39 9
3 40 39 21
3 40 7 39
3 40 34 7
3 41 34 40
3 41 157 159
3 159 158 34
3 157 158 159
3 41 160 161
3 42 162 164
3 164 163 41
3 162 163 164
3 42 165 166
3 23 42 10
3 43 42 23
3 43 167 169
3 169 168 42
3 167 168 169
3 43 170 171
3 173 172 43
3 31 24 1
3 44 24 31
3 44 11 24
3 26 44 5
3 45 44 26
3 45 11 44
3 45 174 176
3 176 175 11
3 174 175 176
3 178 177 45
