ply
format ascii 1.0
element vertex 233
property float x
property float y
property float z
element face 230
property list uchar int vertex_index
end_header
-0.828814 51.55595 58.805096
-4.061335 62.844387 52.278313
-6.967007 48.065495 63.151062
-9.753672 32.125088 71.574371
-2.601538 37.127972 70.066666
-8.053917 18.938194 78.716736
-10.700993 23.948143 74.913849
-7.111702 27.108299 75.484428
-5.918295 35.220776 71.541183
-2.185091 57.832737 55.908173
-5.414122 55.648174 58.076675
-3.319304 50.669048 61.777473
-8.473114 40.197601 67.637665
-4.612427 43.10981 66.965187
-1.629337 44.54953 64.761581
-0.521433 37.678719 66.979431
-6.343391 20.23608 78.755959
-7.623854 23.018639 77.194977
-5.857664 24.297901 77.107025
-5.314407 28.352776 75.257645
-3.063644 60.516178 54.183392
-8.175152 50.077419 61.00156
-7.346722 53.894924 58.56588
-6.182093 51.897724 60.694107
-4.330919 53.320644 60.015251
-5.040836 49.571224 62.657589
-10.273539 28.042198 73.323662
-12.020723 26.163353 72.729568
-11.607494 30.224201 71.132721
-11.089653 34.267361 69.382034
-10.472343 38.282745 67.487244
-9.149731 36.181381 69.676315
-4.141563 36.338036 70.999817
-5.271643 39.201405 69.32901
-3.546581 40.226154 68.613617
-2.964787 44.025745 66.066635
-2.099356 40.889591 67.49733
-0.998306 41.182541 65.972595
-1.380022 37.574467 68.72377
-8.99283 46.19614 63.2953
-9.375845 21.53046 76.931786
-8.93956 25.630093 75.362572
-8.418335 29.728127 73.621964
-7.825897 33.804474 71.721626
-6.537117 31.183224 73.596085
-4.736071 32.374043 73.218033
-3.124985 33.272285 72.458405
-6.746677 16.194401 80.198616
-1.436169 54.829037 57.447845
-5.808561 61.278034 53.192764
-6.544964 57.634602 55.970554
-4.69626 59.303059 55.278347
-3.662561 56.973454 57.196777
-2.721752 54.304707 58.935287
-1.894516 51.332058 60.49086
-9.767183 42.261703 65.456726
-7.738974 44.162281 65.462891
-7.176311 37.840908 69.671295
-6.48431 41.821987 67.47728
-5.766165 45.735371 65.141006
-3.956015 46.935009 64.450058
-2.409365 47.729282 63.3606
-1.202036 48.105274 61.864582
-0.659592 44.681236 63.056606
-0.271427 41.116482 64.063065
-0.486767 51.45903 57.782767
-0.675423 53.227204 57.191358
-0.600446 49.814769 59.395094
-0.486767 51.45903 57.782767
-5.266412 22.811186 77.766411
-6.100528 22.26699 77.931492
-5.509276 20.780276 78.590878
-5.019147 24.821706 76.878906
-5.266412 22.811186 77.766411
-3.310747 63.387585 51.619276
-3.048588 65.090277 50.010774
-3.799175 64.547079 50.669811
-3.562489 61.680282 53.230852
-2.811902 62.22348 52.571815
-3.310747 63.387585 51.619276
-10.006906 45.108604 63.217268
-9.601823 47.056679 62.139473
-8.714881 20.234327 77.824261
-9.545122 19.490421 77.625348
-8.884158 18.194288 78.517822
-4.196452 30.855715 73.938
-5.025239 30.363409 74.237839
-4.48562 28.845081 74.957806
-3.390909 31.304836 73.558186
-3.930528 32.823164 72.838219
-4.196452 30.855715 73.938
-2.682256 31.656879 73.059994
-3.390909 31.304836 73.558186
-6.108113 14.754906 80.756214
-6.895023 14.196313 80.818112
-6.256459 12.756818 81.375709
-5.930538 16.749496 80.08855
-6.108113 14.754906 80.756214
-1.618187 58.022251 55.064492
-1.958191 59.536232 54.295324
-1.81063 56.330887 56.678009
-1.243726 56.520401 55.834328
-1.618187 58.022251 55.064492
-6.76015 60.281353 53.455373
-6.401695 62.090881 52.079786
-7.353284 61.0942 52.342395
-11.515402 23.02261 74.538647
-10.86568 21.904201 75.624108
-13.472205 26.142224 71.156327
-12.818808 25.149273 72.303276
-12.674119 27.156303 71.582618
-0.274823 37.569954 65.927376
-0.149819 39.288835 64.469192
-0.39643 39.3976 65.521248
-4.747518 26.849144 75.954216
-5.586035 26.325339 76.182335
-5.019147 24.821706 76.878906
-4.48562 28.845081 74.957806
-4.747518 26.849144 75.954216
-2.397467 60.877952 53.432934
-2.811902 62.22348 52.571815
-2.624367 59.174458 55.045783
-1.958191 59.536232 54.295324
-2.397467 60.877952 53.432934
-7.760937 51.986171 59.78372
-8.354245 52.83242 58.634743
-8.76846 50.923668 59.852583
-12.467505 29.186727 70.784195
-12.674119 27.156303 71.582618
-11.814108 28.193777 71.931145
-12.264827 31.187276 69.981781
-12.467505 29.186727 70.784195
-12.005907 33.208856 69.106437
-12.264827 31.187276 69.981781
-11.348574 32.245781 70.257378
-11.743413 35.19985 68.227043
-12.005907 33.208856 69.106437
-10.780998 36.275053 68.434639
-11.434758 37.207542 67.279648
-11.743413 35.19985 68.227043
-4.616867 63.823377 51.244173
-3.799175 64.547079 50.669811
-9.192984 48.997318 60.992603
-8.76846 50.923668 59.852583
-8.583991 48.13678 62.14843
-9.192984 48.997318 60.992603
-9.601823 47.056679 62.139473
-10.203106 20.69536 76.633076
-10.372383 18.655321 77.326638
-9.545122 19.490421 77.625348
-10.038419 22.739302 75.922818
-10.86568 21.904201 75.624108
-10.203106 20.69536 76.633076
-2.460884 33.565117 71.876046
-2.199161 35.49296 70.680176
-2.863262 35.200128 71.262535
-2.460884 33.565117 71.876046
-2.682256 31.656879 73.059994
-8.218249 16.914466 79.379837
-8.884158 18.194288 78.517822
-7.564629 15.54257 80.120777
-6.895023 14.196313 80.818112
-7.400297 17.566297 79.457676
-8.218249 16.914466 79.379837
-7.564629 15.54257 80.120777
-5.728895 18.770336 79.367222
-6.545034 18.215241 79.477288
-5.930538 16.749496 80.08855
-5.509276 20.780276 78.590878
-5.728895 18.770336 79.367222
-0.979101 54.863747 56.512733
-1.243726 56.520401 55.834328
-1.132491 53.192493 58.12647
-0.675423 53.227204 57.191358
-0.979101 54.863747 56.512733
-5.49048 63.040201 51.701398
-6.401695 62.090881 52.079786
-4.934948 62.061211 52.735538
-4.616867 63.823377 51.244173
-5.49048 63.040201 51.701398
-7.930528 54.730164 57.427142
-8.354245 52.83242 58.634743
-7.529649 56.600003 56.129479
-7.930528 54.730164 57.427142
-6.945843 55.764763 57.268217
-7.128351 58.459637 54.844268
-7.529649 56.600003 56.129479
-6.176763 59.456318 54.581659
-6.76015 60.281353 53.455373
-7.128351 58.459637 54.844268
-12.175267 24.130215 73.446506
-11.515402 23.02261 74.538647
-11.360858 25.055748 73.821708
-12.175267 24.130215 73.446506
-12.818808 25.149273 72.303276
-11.115286 39.186742 66.329163
-11.434758 37.207542 67.279648
-10.762705 41.176221 65.313904
-11.115286 39.186742 66.329163
-10.119763 40.272224 66.471985
-10.394082 43.141386 64.297981
-10.762705 41.176221 65.313904
-9.380007 44.228921 64.376013
-10.006906 45.108604 63.217268
-10.394082 43.141386 64.297981
-0.787057 48.089432 60.924837
-0.600446 49.814769 59.395094
-1.015425 49.830612 60.334839
-0.515835 46.377412 61.520849
-0.787057 48.089432 60.924837
-0.930814 46.393255 62.460594
-0.363577 44.562533 62.024201
-0.515835 46.377412 61.520849
-0.169494 42.780155 62.52743
-0.363577 44.562533 62.024201
-0.465509 42.898859 63.559835
-0.088668 40.920018 62.944445
-0.169494 42.780155 62.52743
-0.088668 40.920018 62.944445
-0.149819 39.288835 64.469192
-1.588402 35.716207 70.008728
-1.99078 37.351219 69.395218
-2.199161 35.49296 70.680176
-1.095884 35.849384 69.221741
-1.588402 35.716207 70.008728
-0.666589 35.901511 68.349571
-0.950728 37.626593 67.851601
-1.095884 35.849384 69.221741
-0.35517 35.880047 67.371048
-0.666589 35.901511 68.349571
-0.108559 35.771282 66.318993
-0.274823 37.569954 65.927376
-0.35517 35.880047 67.371048
3 0 65 66
3 0 67 68
3 69 18 70
3 71 70 16
3 69 70 71
3 73 72 18
3 1 74 76
3 74 75 76
3 1 77 79
3 77 20 78
3 77 78 79
3 2 23 21
3 2 25 23
3 3 28 26
3 3 29 28
3 3 31 29
3 4 34 32
3 4 36 34
3 4 38 36
3 80 39 81
3 5 82 84
3 82 40 83
3 82 83 84
3 7 41 17
3 7 42 41
3 7 44 42
3 85 45 86
3 87 86 19
3 85 86 87
3 88 46 89
3 90 89 45
3 88 89 90
3 92 91 46
3 93 47 94
3 93 94 95
3 97 96 47
3 9 98 99
3 9 100 102
3 100 48 101
3 100 101 102
3 103 49 104
3 103 104 105
3 10 50 22
3 10 51 50
3 10 52 51
3 11 53 24
3 11 54 53
3 6 106 107
3 110 109 27
3 108 109 110
3 12 55 30
3 12 56 55
3 8 57 43
3 13 58 33
3 13 59 58
3 13 60 59
3 14 61 35
3 14 62 61
3 14 63 62
3 15 64 37
3 15 111 113
3 113 112 64
3 111 112 113
3 16 17 5
3 18 17 16
3 18 7 17
3 18 19 7
3 114 19 115
3 116 115 18
3 114 115 116
3 118 117 19
3 20 119 120
3 20 121 123
3 121 9 122
3 121 122 123
3 21 124 126
3 124 22 125
3 124 125 126
3 23 22 21
3 23 10 22
3 23 24 10
3 25 24 23
3 25 11 24
3 26 27 6
3 28 27 26
3 28 127 129
3 129 128 27
3 127 128 129
3 28 130 131
3 29 132 134
3 134 133 28
3 132 133 134
3 29 135 136
3 29 137 139
3 137 30 138
3 137 138 139
3 31 30 29
3 31 12 30
3 32 33 8
3 34 33 32
3 34 13 33
3 34 35 13
3 36 35 34
3 36 14 35
3 36 37 14
3 38 37 36
3 38 15 37
3 140 1 141
3 142 21 143
3 39 144 146
3 144 21 145
3 144 145 146
3 39 2 21
3 40 147 149
3 147 148 149
3 40 150 152
3 150 6 151
3 150 151 152
3 17 40 5
3 41 40 17
3 41 6 40
3 41 26 6
3 42 26 41
3 42 3 26
3 42 43 3
3 44 43 42
3 44 8 43
3 19 44 7
3 45 44 19
3 45 8 44
3 45 32 8
3 46 32 45
3 46 4 32
3 46 153 155
3 155 154 4
3 153 154 155
3 157 156 46
3 158 5 159
3 47 160 161
3 47 162 164
3 162 5 163
3 162 163 164
3 47 16 5
3 165 16 166
3 167 166 47
3 165 166 167
3 169 168 16
3 48 170 171
3 48 172 174
3 172 0 173
3 172 173 174
3 49 175 176
3 49 177 179
3 177 1 178
3 177 178 179
3 22 180 181
3 50 182 184
3 184 183 22
3 182 183 184
3 50 185 186
3 50 187 189
3 187 49 188
3 187 188 189
3 51 49 50
3 51 1 49
3 51 20 1
3 52 20 51
3 52 9 20
3 24 52 10
3 53 52 24
3 53 9 52
3 53 48 9
3 54 48 53
3 54 0 48
3 27 190 192
3 192 191 6
3 190 191 192
3 194 193 27
3 30 195 196
3 55 197 199
3 199 198 30
3 197 198 199
3 55 200 201
3 55 202 204
3 202 39 203
3 202 203 204
3 56 39 55
3 56 2 39
3 43 31 3
3 57 31 43
3 57 12 31
3 33 57 8
3 58 57 33
3 58 12 57
3 58 56 12
3 59 56 58
3 59 2 56
3 59 25 2
3 60 25 59
3 60 11 25
3 35 60 13
3 61 60 35
3 61 11 60
3 61 54 11
3 62 54 61
3 62 0 54
3 62 205 207
3 207 206 0
3 205 206 207
3 63 208 210
3 210 209 62
3 208 209 210
3 63 211 212
3 37 63 14
3 64 63 37
3 64 213 215
3 215 214 63
3 213 214 215
3 64 216 217
3 219 218 64
3 220 38 221
3 222 221 4
3 220 221 222
3 223 38 224
3 225 15 226
3 227 226 38
3 225 226 227
3 228 15 229
3 232 231 15
3 230 231 232
