ply
format ascii 1.0
element vertex 210
property float x
property float y
property float z
element face 203
property list uchar int vertex_index
end_header
28.321741 -43.456738 75.62883
20.623325 -44.430649 81.431229
35.379749 -36.983078 74.782715
27.473053 -40.581276 78.395256
24.59152 -43.941124 78.654922
23.071331 -40.878899 80.869461
30.916691 -37.584888 77.27697
31.6129 -40.1651 75.574692
31.657032 -45.63134 68.077118
29.164598 -46.438511 72.148979
26.175505 -47.167068 75.650917
22.767311 -47.89254 78.712585
31.648367 -42.846184 72.116562
18.577988 -41.227303 83.261803
16.541794 -45.018311 84.167046
26.881624 -39.207939 79.151115
25.292309 -40.732937 79.658226
24.553146 -39.330818 80.262817
29.166012 -39.06105 77.978035
30.810083 -47.512062 68.340019
28.712738 -44.939354 73.90947
27.729721 -46.808151 73.96608
27.080193 -45.249031 75.601524
22.628189 -44.178223 80.058792
23.534988 -45.839645 78.672279
21.658875 -46.145138 80.109016
19.7351 -46.469574 81.51799
29.858852 -41.773479 75.651962
31.675447 -41.493305 73.992249
30.045753 -43.175598 73.945427
30.228975 -44.601776 72.081215
15.3242 -43.312752 85.136169
27.932449 -42.000477 77.175598
26.496252 -43.706024 77.18895
25.922247 -42.195232 78.592072
23.852737 -42.378799 79.934662
21.744152 -42.569702 81.236862
33.205864 -37.335327 76.096657
33.486263 -38.584969 75.307137
31.37825 -38.862297 76.707626
29.589426 -40.400299 77.045212
29.706347 -47.945576 70.429878
28.471428 -48.369316 72.37114
25.348011 -45.544682 77.179802
24.515867 -47.525555 77.224396
33.514061 -39.853603 73.956093
33.359318 -41.143066 72.176132
33.117012 -42.457104 70.131233
31.618814 -44.224731 70.103653
30.472633 -46.048378 70.186607
22.20269 -39.45433 81.348763
20.82863 -41.038826 82.061974
19.611927 -42.782639 82.527641
16.330885 -41.453667 84.482712
17.46814 -43.028221 83.82621
18.590538 -44.708443 82.796608
17.777386 -46.818535 82.919624
25.340319 -38.606459 79.81601
25.717385 -39.269379 79.706966
26.504557 -38.545019 79.260159
26.504557 -38.545019 79.260159
27.714206 -38.482495 78.75351
31.024167 -48.250332 67.454357
30.569713 -48.482141 68.559555
36.29231 -36.14969 74.374489
35.183963 -36.37653 74.981815
36.392482 -36.748593 74.045914
37.305044 -35.915205 73.637688
36.29231 -36.14969 74.374489
35.418945 -37.596094 74.266498
36.392482 -36.748593 74.045914
31.782228 -36.842599 76.770901
30.567893 -36.956144 77.263924
32.061278 -37.460107 76.686813
32.926815 -36.717819 76.180745
31.782228 -36.842599 76.770901
32.196073 -45.409544 66.955311
32.270214 -44.716949 68.027062
26.637834 -47.977802 74.908028
27.414942 -47.798344 74.065609
26.952613 -46.98761 74.808499
25.886822 -48.188643 75.736805
26.637834 -47.977802 74.908028
23.372585 -48.766758 78.037415
24.246863 -48.583265 77.29332
23.641589 -47.709047 77.968491
22.511387 -48.989099 78.760525
23.372585 -48.766758 78.037415
21.719713 -38.77802 81.346004
22.943522 -38.721736 80.851128
19.703309 -41.133065 82.661889
20.337649 -40.318113 82.251156
19.212328 -40.412352 82.85107
15.215235 -41.587632 85.101681
15.749567 -40.719414 84.599396
29.73174 -37.670969 77.816437
30.567893 -36.956144 77.263924
28.8564 -38.40905 78.166969
30.041351 -38.322969 77.627503
29.73174 -37.670969 77.816437
28.023818 -39.134495 78.564575
28.8564 -38.40905 78.166969
27.714206 -38.482495 78.75351
31.305957 -47.290011 67.22631
31.729431 -46.349649 67.09486
31.233557 -46.571701 68.208568
31.305957 -47.290011 67.22631
31.024167 -48.250332 67.454357
21.302664 -47.209849 80.12648
21.856882 -48.08355 79.428265
22.213093 -47.018839 79.4108
20.340777 -47.372067 80.830967
21.302664 -47.209849 80.12648
20.696987 -46.307356 80.813503
19.402192 -47.57251 81.531536
20.340777 -47.372067 80.830967
18.037917 -40.499861 83.410893
19.212328 -40.412352 82.85107
14.259023 -43.475056 85.788097
14.711892 -42.517174 85.42841
14.907141 -44.337962 85.336128
14.259023 -43.475056 85.788097
15.515938 -45.190741 84.851566
15.932997 -44.165532 84.651607
14.907141 -44.337962 85.336128
16.170711 -46.106462 84.243545
15.515938 -45.190741 84.851566
34.097021 -36.552654 75.638786
32.926815 -36.717819 76.180745
34.292806 -37.159202 75.439686
35.183963 -36.37653 74.981815
34.097021 -36.552654 75.638786
32.196073 -45.409544 66.955311
31.729431 -46.349649 67.09486
29.499795 -48.932907 70.637856
30.017845 -48.698898 69.604484
28.882335 -49.144777 71.608486
29.499795 -48.932907 70.637856
29.088887 -48.157446 71.400509
28.290356 -49.381042 72.564114
28.882335 -49.144777 71.608486
27.785795 -48.578926 73.268139
28.100575 -47.588734 73.16861
27.414942 -47.798344 74.065609
28.290356 -49.381042 72.564114
27.785795 -48.578926 73.268139
25.057003 -48.367886 76.523544
25.886822 -48.188643 75.736805
25.345686 -47.346311 76.437657
25.057003 -48.367886 76.523544
24.246863 -48.583265 77.29332
22.511387 -48.989099 78.760525
21.856882 -48.08355 79.428265
34.472202 -38.39704 74.528709
35.418945 -37.596094 74.266498
34.433006 -37.784024 75.044926
34.486101 -39.031357 73.853187
34.472202 -38.39704 74.528709
33.500162 -39.219286 74.631615
34.390918 -39.652601 73.063759
34.486101 -39.031357 73.853187
34.313547 -40.297332 72.173778
34.390918 -39.652601 73.063759
33.436689 -40.498334 73.066113
34.127703 -40.928791 71.185981
34.313547 -40.297332 72.173778
34.00655 -41.58581 70.163532
34.127703 -40.928791 71.185981
33.238165 -41.800085 71.153683
33.784172 -42.231661 69.062347
34.00655 -41.58581 70.163532
33.000204 -43.129832 69.054119
33.784172 -42.231661 69.062347
32.251105 -44.013645 69.040329
33.000204 -43.129832 69.054119
32.367913 -43.340918 70.117443
31.637923 -44.928036 69.090385
32.270214 -44.716949 68.027062
32.251105 -44.013645 69.040329
30.017845 -48.698898 69.604484
30.569713 -48.482141 68.559555
30.258215 -47.728819 69.384949
24.118749 -38.659981 80.308155
25.340319 -38.606459 79.81601
23.377918 -39.392574 80.80579
24.118749 -38.659981 80.308155
22.943522 -38.721736 80.851128
21.024679 -39.525865 81.894551
21.719713 -38.77802 81.346004
21.51566 -40.246578 81.705369
21.024679 -39.525865 81.894551
20.337649 -40.318113 82.251156
16.914365 -40.613043 84.021347
15.749567 -40.719414 84.599396
17.454436 -41.340485 83.872258
18.037917 -40.499861 83.410893
16.914365 -40.613043 84.021347
15.827542 -42.38321 84.80944
15.215235 -41.587632 85.101681
14.711892 -42.517174 85.42841
18.423335 -47.74699 82.232353
19.402192 -47.57251 81.531536
18.756243 -46.644054 82.218807
16.788507 -47.006574 83.619834
17.15959 -45.918423 83.543335
16.170711 -46.106462 84.243545
17.464688 -47.957416 82.926963
16.788507 -47.006574 83.619834
18.423335 -47.74699 82.232353
17.464688 -47.957416 82.926963
3 57 17 58
3 59 58 15
3 57 58 59
3 60 15 61
3 63 62 19
3 0 22 20
3 1 25 23
3 1 26 25
3 2 64 65
3 2 66 68
3 66 67 68
3 2 69 70
3 0 29 27
3 0 20 29
3 3 34 32
3 5 35 16
3 5 36 35
3 6 71 72
3 6 73 75
3 73 37 74
3 73 74 75
3 6 39 37
3 3 40 18
3 3 32 40
3 8 76 77
3 9 42 41
3 10 78 80
3 80 79 21
3 78 79 80
3 10 81 82
3 4 43 33
3 11 44 24
3 11 83 85
3 85 84 44
3 83 84 85
3 11 86 87
3 7 45 38
3 12 46 28
3 12 47 46
3 12 48 47
3 9 49 30
3 9 41 49
3 88 50 89
3 13 90 92
3 90 51 91
3 90 91 92
3 13 52 51
3 93 53 94
3 14 54 31
3 14 55 54
3 14 56 55
3 15 16 3
3 17 16 15
3 17 5 16
3 95 6 96
3 97 18 98
3 99 98 6
3 97 98 99
3 15 100 102
3 100 18 101
3 100 101 102
3 15 3 18
3 19 103 105
3 105 104 8
3 103 104 105
3 107 106 19
3 20 21 9
3 22 21 20
3 22 10 21
3 23 24 4
3 25 24 23
3 25 11 24
3 25 108 110
3 110 109 11
3 108 109 110
3 26 111 113
3 113 112 25
3 111 112 113
3 26 114 115
3 27 28 7
3 29 28 27
3 29 12 28
3 29 30 12
3 20 30 29
3 20 9 30
3 116 13 117
3 118 31 119
3 120 31 121
3 122 14 123
3 124 123 31
3 122 123 124
3 126 125 14
3 32 33 0
3 34 33 32
3 34 4 33
3 16 34 3
3 35 34 16
3 35 4 34
3 35 23 4
3 36 23 35
3 36 1 23
3 37 127 128
3 37 129 131
3 129 2 130
3 129 130 131
3 37 38 2
3 39 38 37
3 39 7 38
3 18 39 6
3 40 39 18
3 40 7 39
3 40 27 7
3 32 27 40
3 32 0 27
3 133 132 8
3 41 134 135
3 42 136 138
3 138 137 41
3 136 137 138
3 42 139 140
3 21 42 9
3 141 42 142
3 143 142 21
3 141 142 143
3 145 144 42
3 33 22 0
3 43 22 33
3 43 10 22
3 24 43 4
3 44 43 24
3 44 10 43
3 44 146 148
3 148 147 10
3 146 147 148
3 150 149 44
3 152 151 11
3 38 153 155
3 155 154 2
3 153 154 155
3 45 156 158
3 158 157 38
3 156 157 158
3 45 159 160
3 28 45 7
3 46 45 28
3 46 161 163
3 163 162 45
3 161 162 163
3 46 164 165
3 47 166 168
3 168 167 46
3 166 167 168
3 47 169 170
3 47 171 172
3 48 173 175
3 175 174 47
3 173 174 175
3 48 176 178
3 176 8 177
3 176 177 178
3 30 48 12
3 49 48 30
3 49 8 48
3 49 19 8
3 41 19 49
3 41 179 181
3 181 180 19
3 179 180 181
3 182 17 183
3 50 184 186
3 184 17 185
3 184 185 186
3 50 5 17
3 187 50 188
3 51 189 191
3 189 50 190
3 189 190 191
3 51 5 50
3 51 36 5
3 52 36 51
3 52 1 36
3 53 192 193
3 53 194 196
3 194 13 195
3 194 195 196
3 31 197 199
3 197 53 198
3 197 198 199
3 54 53 31
3 54 13 53
3 54 52 13
3 55 52 54
3 55 1 52
3 55 26 1
3 56 26 55
3 56 200 202
3 202 201 26
3 200 201 202
3 203 56 204
3 205 204 14
3 203 204 205
3 206 56 207
3 209 208 56
