ply
format ascii 1.0
element vertex 285
property float x
property float y
property float z
element face 272
property list uchar int vertex_index
end_header
-31.324003 -1.921768 64.97274
-38.841068 5.182144 61.323772
-22.2929 1.823748 66.9049
-36.211315 -3.173519 64.780884
-35.015308 1.628941 62.763058
-34.10717 7.138123 62.205624
-30.102541 3.327431 63.298992
-25.627697 5.508015 64.201965
-26.491913 -0.380018 65.540085
-40.148533 -9.115885 66.593292
-37.231033 -7.473784 67.790649
-32.943314 -6.410666 68.131912
-28.089785 -5.421755 68.385162
-21.892296 8.381563 65.704178
-18.946552 4.77984 69.194092
-23.465971 -3.984233 69.236633
-19.555632 -1.814131 71.043045
-16.461922 1.07551 73.743713
-33.809696 -2.551605 64.866699
-35.601814 -0.855715 63.587555
-33.12339 -0.151211 63.728497
-32.534962 2.440134 63.001884
-30.636101 0.601339 63.9263
-28.225929 1.460329 64.235947
-28.856773 -1.216591 65.176682
-36.163624 -10.973952 71.169861
-37.51445 -9.563907 69.251884
-35.779686 -8.943861 69.696671
-35.213837 -6.896708 68.023041
-33.719326 -8.462038 69.943848
-40.619545 6.915457 60.615829
-40.110592 9.80497 60.557072
-38.376278 8.005236 61.23901
-23.876354 3.657688 65.350433
-23.660198 6.853979 64.866379
-22.003502 5.033394 66.206696
-20.342003 6.592152 67.272636
-20.513561 3.212639 67.939285
-25.710205 -4.783972 68.704681
-20.114677 -4.782098 72.342789
-18.311321 -3.622501 73.426964
-17.915266 -0.448088 72.302773
-16.70261 -2.288969 74.713364
-38.416523 -3.856691 64.625313
-37.969158 -1.577709 63.434891
-37.45874 0.835835 62.539513
-36.945641 3.411493 61.998108
-36.480556 6.157261 61.783978
-34.506153 4.295441 62.326359
-32.083633 5.221262 62.66066
-27.784502 4.338781 63.688847
-25.958113 2.470055 64.700089
-24.291046 0.626822 66.107346
-40.333443 -6.889347 65.489624
-38.896908 -8.201734 67.338058
-38.741734 -6.046623 65.981812
-36.777073 -5.361818 66.237495
-34.531654 -4.784754 66.347801
-32.11705 -4.248043 66.413391
-29.645693 -3.679141 66.529984
-30.532158 -5.943197 68.220642
-25.48035 8.687157 63.919033
-23.60704 10.161749 64.518936
-21.913082 11.812275 65.263565
-20.316463 10.082972 66.723785
-18.873642 8.315676 68.530426
-27.217211 -3.011787 66.778946
-24.91086 -2.19441 67.222336
-22.782707 -1.194508 67.900604
-21.406116 -2.99649 70.013924
-20.865023 0.000662 68.830818
-19.166206 1.385843 70.004921
-17.670864 2.940413 71.388077
-35.071771 -9.700419 70.66592
-35.971655 -9.958907 70.433266
-35.26374 -10.715465 71.402515
-34.041592 -9.459508 70.789509
-34.749506 -8.702949 69.820259
-35.071771 -9.700419 70.66592
-32.993126 -9.260148 70.937603
-34.041592 -9.459508 70.789509
-39.979662 4.673654 61.069059
-39.081657 3.848517 61.486136
-39.730306 6.048801 60.9698
-40.868901 5.540311 60.715087
-39.979662 4.673654 61.069059
-17.692432 -4.525364 74.644268
-18.581817 -5.089423 74.096699
-16.888077 -3.858598 75.287468
-17.506965 -2.955735 74.070164
-17.692432 -4.525364 74.644268
-16.086334 -3.213959 75.916893
-16.888077 -3.858598 75.287468
-29.92261 4.782698 63.160314
-30.913156 5.729614 62.841149
-31.093087 4.274347 62.979826
-28.943521 3.833106 63.49392
-28.76359 5.288373 63.355242
-29.92261 4.782698 63.160314
-40.823717 -8.514696 65.645038
-40.562002 -9.667609 66.060253
-40.240988 -8.002616 66.041458
-40.916172 -7.401426 65.093205
-40.823717 -8.514696 65.645038
-39.873291 11.315976 60.533903
-39.037092 10.390595 60.913042
-35.101082 8.101757 61.998272
-36.287775 7.611326 61.787449
-35.293863 6.647692 61.994801
-25.554023 7.097586 64.060499
-26.505713 8.035732 63.675246
-26.579386 6.446162 63.816711
-18.254736 5.639183 69.910637
-18.218281 7.407101 69.578804
-18.910097 6.547758 68.862259
-16.401307 2.853156 73.331116
-17.005778 3.785608 72.153298
-17.066393 2.007961 72.565895
-15.806302 1.896594 74.51693
-16.401307 2.853156 73.331116
-39.959442 -10.246195 67.044724
-40.562002 -9.667609 66.060253
-40.372911 -10.797918 66.511685
-36.839037 -10.26893 70.210872
-37.549984 -10.616689 69.853591
-36.874571 -11.321712 70.81258
-32.577317 -8.25649 70.017498
-32.189311 -7.230804 69.11153
-33.33132 -7.436352 69.03788
-32.577317 -8.25649 70.017498
-32.993126 -9.260148 70.937603
-41.693953 6.337233 60.271062
-40.868901 5.540311 60.715087
-41.411344 7.744187 60.185403
-41.693953 6.337233 60.271062
-40.365068 8.360214 60.58645
-41.156868 9.188944 60.156025
-41.411344 7.744187 60.185403
-38.169936 9.490728 61.254011
-39.037092 10.390595 60.913042
-39.243435 8.905103 60.898041
-33.965758 8.637391 62.230965
-32.943492 7.654814 62.398758
-26.171776 -5.967001 69.590965
-26.899995 -5.102863 68.544921
-27.361566 -6.285893 69.431206
-25.007683 -5.659457 69.79161
-26.171776 -5.967001 69.590965
-23.885566 -5.259587 70.057586
-24.588088 -4.384103 68.970657
-25.007683 -5.659457 69.79161
-19.483496 -5.669222 73.554611
-20.465776 -6.143111 73.108261
-19.212999 -4.2023 72.884876
-19.483496 -5.669222 73.554611
-18.581817 -5.089423 74.096699
-15.981342 -1.550566 75.427868
-15.860998 0.131673 74.943042
-16.582266 -0.606729 74.228538
-15.365066 -2.475557 76.631397
-15.981342 -1.550566 75.427868
-16.086334 -3.213959 75.916893
-36.241964 -11.989583 71.727974
-36.874571 -11.321712 70.81258
-35.487931 -11.702296 72.088929
-36.241964 -11.989583 71.727974
-35.566271 -12.717927 72.647042
-35.26374 -10.715465 71.402515
-35.487931 -11.702296 72.088929
-39.266587 -3.118287 63.907888
-39.367157 -4.25861 64.465916
-39.042904 -1.978796 63.312677
-39.266587 -3.118287 63.907888
-38.192841 -2.7172 64.030102
-38.868124 -0.788716 62.855266
-39.042904 -1.978796 63.312677
-38.612915 0.418056 62.407578
-38.868124 -0.788716 62.855266
-37.713949 -0.370937 62.987202
-38.390493 1.675363 62.094006
-38.612915 0.418056 62.407578
-38.133944 2.963192 61.823304
-38.390493 1.675363 62.094006
-37.202191 2.123664 62.268811
-37.893355 4.296819 61.66094
-39.081657 3.848517 61.486136
-38.133944 2.963192 61.823304
-31.931723 6.696383 62.626276
-32.943492 7.654814 62.398758
-33.095402 6.179692 62.433142
-31.931723 6.696383 62.626276
-30.913156 5.729614 62.841149
-27.657789 5.861544 63.560153
-28.76359 5.288373 63.355242
-26.7061 4.923398 63.945406
-26.579386 6.446162 63.816711
-27.657789 5.861544 63.560153
-41.082116 -6.256692 64.615521
-40.916172 -7.401426 65.093205
-40.325617 -5.774938 64.898072
-41.082116 -6.256692 64.615521
-39.500236 -9.742772 67.562325
-39.959442 -10.246195 67.044724
-38.183195 -9.966783 68.891621
-37.549984 -10.616689 69.853591
-38.874424 -9.285697 67.934708
-38.183195 -9.966783 68.891621
-38.205679 -8.882821 68.294971
-39.522721 -8.65881 66.965675
-39.500236 -9.742772 67.562325
-38.874424 -9.285697 67.934708
-39.529763 -5.353576 65.144165
-40.325617 -5.774938 64.898072
-39.537588 -6.467985 65.735718
-38.579128 -4.951657 65.303562
-39.367157 -4.25861 64.465916
-39.529763 -5.353576 65.144165
-30.983733 -6.997069 69.155895
-31.737736 -6.176932 68.176277
-32.189311 -7.230804 69.11153
-29.785466 -6.789907 69.229751
-30.983733 -6.997069 69.155895
-28.564279 -6.529186 69.312011
-29.310972 -5.682476 68.302902
-29.785466 -6.789907 69.229751
-27.361566 -6.285893 69.431206
-28.564279 -6.529186 69.312011
-40.861475 10.656502 60.091322
-41.156868 9.188944 60.156025
-40.861475 10.656502 60.091322
-39.873291 11.315976 60.533903
-37.235636 8.535314 61.514965
-37.428417 7.081249 61.511494
-36.287775 7.611326 61.787449
-38.169936 9.490728 61.254011
-37.235636 8.535314 61.514965
-35.101082 8.101757 61.998272
-33.965758 8.637391 62.230965
-26.456948 9.619436 63.610686
-26.505713 8.035732 63.675246
-25.474473 10.321772 63.802784
-26.456948 9.619436 63.610686
-24.537818 11.059069 64.102735
-25.474473 10.321772 63.802784
-24.543695 9.424453 64.218985
-23.633112 11.845409 64.335724
-24.537818 11.059069 64.102735
-22.786133 12.670672 64.708039
-23.633112 11.845409 64.335724
-22.760061 10.987012 64.89125
-21.958087 13.544689 65.00571
-22.786133 12.670672 64.708039
-21.148967 12.721915 65.717312
-21.193973 14.454328 65.459457
-21.958087 13.544689 65.00571
-20.350658 11.857263 66.447422
-21.148967 12.721915 65.717312
-21.114773 10.947623 65.993675
-19.61142 11.010658 67.317535
-20.350658 11.857263 66.447422
-18.890009 10.127011 68.220855
-19.61142 11.010658 67.317535
-19.595053 9.199324 67.627105
-18.216496 9.24476 69.233338
-18.890009 10.127011 68.220855
-17.561135 8.336185 70.281716
-18.216496 9.24476 69.233338
-18.218281 7.407101 69.578804
-22.792253 -4.868292 70.364472
-23.885566 -5.259587 70.057586
-21.116605 -5.267225 71.91755
-20.465776 -6.143111 73.108261
-21.762325 -4.374421 70.753117
-21.116605 -5.267225 71.91755
-20.760396 -3.889294 71.178357
-22.436044 -3.490362 69.625279
-22.792253 -4.868292 70.364472
-21.762325 -4.374421 70.753117
-17.616892 4.719469 71.00763
-18.254736 5.639183 69.910637
-18.308708 3.860126 70.291084
-17.616892 4.719469 71.00763
-17.005778 3.785608 72.153298
-15.806302 1.896594 74.51693
-15.860998 0.131673 74.943042
3 0 20 18
3 0 22 20
3 0 24 22
3 73 27 74
3 75 74 25
3 73 74 75
3 76 29 77
3 78 77 27
3 76 77 78
3 80 79 29
3 1 81 82
3 1 83 85
3 83 30 84
3 83 84 85
3 1 32 30
3 2 35 33
3 2 37 35
3 86 40 87
3 88 42 89
3 90 89 40
3 88 89 90
3 92 91 42
3 3 44 43
3 4 45 19
3 4 46 45
3 4 48 46
3 6 49 21
3 6 93 95
3 95 94 49
3 93 94 95
3 6 96 98
3 96 50 97
3 96 97 98
3 8 51 23
3 8 52 51
3 9 99 100
3 9 101 103
3 101 53 102
3 101 102 103
3 10 54 26
3 10 55 54
3 10 56 55
3 11 57 28
3 11 58 57
3 11 60 58
3 105 104 31
3 5 106 108
3 108 107 47
3 106 107 108
3 7 109 111
3 109 61 110
3 109 110 111
3 13 62 34
3 13 63 62
3 13 64 63
3 14 65 36
3 14 112 114
3 114 113 65
3 112 113 114
3 12 66 59
3 15 67 38
3 15 68 67
3 16 69 39
3 16 70 69
3 16 71 70
3 17 72 41
3 17 115 117
3 117 116 72
3 115 116 117
3 17 118 119
3 18 19 3
3 20 19 18
3 20 4 19
3 20 21 4
3 22 21 20
3 22 6 21
3 22 23 6
3 24 23 22
3 24 8 23
3 120 9 121
3 120 121 122
3 25 123 125
3 123 26 124
3 123 124 125
3 27 26 25
3 27 10 26
3 27 28 10
3 29 28 27
3 29 11 28
3 29 126 128
3 128 127 11
3 126 127 128
3 130 129 29
3 30 131 132
3 30 133 134
3 30 135 137
3 135 31 136
3 135 136 137
3 32 31 30
3 32 138 140
3 140 139 31
3 138 139 140
3 142 141 5
3 33 34 7
3 35 34 33
3 35 13 34
3 35 36 13
3 37 36 35
3 37 14 36
3 143 38 144
3 145 144 12
3 143 144 145
3 146 38 147
3 148 15 149
3 150 149 38
3 148 149 150
3 151 39 152
3 40 153 155
3 153 39 154
3 153 154 155
3 40 16 39
3 40 41 16
3 42 41 40
3 42 17 41
3 42 156 158
3 158 157 17
3 156 157 158
3 161 160 42
3 159 160 161
3 162 25 163
3 164 25 165
3 164 165 166
3 168 167 25
3 43 169 170
3 44 171 173
3 173 172 43
3 171 172 173
3 44 174 175
3 19 44 3
3 45 44 19
3 45 176 178
3 178 177 44
3 176 177 178
3 45 179 180
3 46 181 183
3 183 182 45
3 181 182 183
3 46 184 186
3 184 1 185
3 184 185 186
3 46 47 1
3 48 47 46
3 48 5 47
3 21 48 4
3 49 48 21
3 49 5 48
3 49 187 189
3 189 188 5
3 187 188 189
3 191 190 49
3 50 192 193
3 50 194 196
3 194 7 195
3 194 195 196
3 23 50 6
3 51 50 23
3 51 7 50
3 51 33 7
3 52 33 51
3 52 2 33
3 53 197 198
3 53 199 200
3 201 9 202
3 26 203 204
3 54 205 207
3 207 206 26
3 205 206 207
3 54 208 210
3 208 9 209
3 208 209 210
3 54 53 9
3 55 53 54
3 55 211 213
3 213 212 53
3 211 212 213
3 55 214 216
3 214 43 215
3 214 215 216
3 56 43 55
3 56 3 43
3 28 56 10
3 57 56 28
3 57 3 56
3 57 18 3
3 58 18 57
3 58 0 18
3 58 59 0
3 60 59 58
3 60 12 59
3 217 60 218
3 219 218 11
3 217 218 219
3 220 60 221
3 222 12 223
3 224 223 60
3 222 223 224
3 226 225 12
3 31 227 228
3 230 229 31
3 47 32 1
3 231 32 232
3 233 232 47
3 231 232 233
3 235 234 32
3 237 236 5
3 61 238 239
3 61 240 241
3 34 61 7
3 62 61 34
3 62 242 244
3 244 243 61
3 242 243 244
3 62 245 246
3 63 247 249
3 249 248 62
3 247 248 249
3 63 250 251
3 63 252 254
3 252 253 254
3 64 255 257
3 257 256 63
3 255 256 257
3 64 258 259
3 36 64 13
3 65 64 36
3 65 260 262
3 262 261 64
3 260 261 262
3 65 263 264
3 267 266 65
3 265 266 267
3 59 24 0
3 66 24 59
3 66 8 24
3 38 66 12
3 67 66 38
3 67 8 66
3 67 52 8
3 68 52 67
3 68 2 52
3 268 15 269
3 39 270 271
3 69 272 274
3 274 273 39
3 272 273 274
3 69 275 277
3 275 15 276
3 275 276 277
3 69 68 15
3 70 68 69
3 70 2 68
3 70 37 2
3 71 37 70
3 71 14 37
3 41 71 16
3 72 71 41
3 72 14 71
3 72 278 280
3 280 279 14
3 278 279 280
3 282 281 72
3 284 283 17
