ply
format ascii 1.0
element vertex 140
property float x
property float y
property float z
element face 120
property list uchar int vertex_index
end_header
5.171001 26.621136 -30.179827
12.213037 23.880409 -29.976263
5.803764 33.672356 -31.806059
8.688526 25.002655 -29.800325
8.796366 31.982243 -31.630175
15.427614 30.164825 -32.199768
11.956772 30.949566 -31.949911
6.233368 36.456371 -32.526421
7.29686 32.700203 -31.635664
7.534086 35.618519 -32.440895
10.456635 24.381584 -29.81143
10.628805 20.576302 -28.91482
14.334654 19.782803 -29.311563
10.402294 34.736195 -32.682198
15.459693 26.7374 -31.449488
5.441093 30.348251 -31.010496
6.917891 25.751896 -29.941626
7.075672 29.403954 -30.789343
8.715685 28.623184 -30.70503
10.36167 27.99696 -30.778658
8.732624 21.143394 -28.954485
7.677013 38.461861 -33.210693
8.901052 35.158146 -32.532127
10.341623 31.429508 -31.760435
12.026258 27.486858 -30.973623
13.650898 30.522949 -32.118233
13.722416 27.067181 -31.221453
13.959747 23.487309 -30.252279
7.09493 37.02686 -32.758049
6.883727 36.037445 -32.483658
6.44457 37.445785 -32.800812
6.00619 24.222134 -29.651629
5.084496 24.614071 -29.76041
12.357045 22.001926 -29.507241
11.478844 22.252514 -29.424824
11.334836 24.130997 -29.893847
13.273846 21.831606 -29.643913
13.417853 19.953124 -29.174891
12.357045 22.001926 -29.507241
10.753256 18.598499 -28.520399
11.753433 18.40898 -28.564392
8.964238 36.730242 -32.944953
8.289032 36.810004 -32.87141
8.352218 38.382099 -33.284236
14.539256 30.343887 -32.159
13.712857 32.196676 -32.473514
14.601215 32.017614 -32.514282
14.713025 25.13307 -30.898106
14.591055 26.90229 -31.33547
15.581663 24.968179 -31.012124
14.831691 23.343134 -30.413519
13.841082 25.277245 -30.736866
14.713025 25.13307 -30.898106
15.042791 21.520705 -29.970137
14.831691 23.343134 -30.413519
11.564929 20.349873 -28.976519
10.54272 22.478943 -29.363125
11.478844 22.252514 -29.424824
11.753433 18.40898 -28.564392
11.564929 20.349873 -28.976519
14.578496 17.879059 -28.892539
13.417853 19.953124 -29.174891
15.51344 17.80332 -29.095735
14.578496 17.879059 -28.892539
10.486113 36.360354 -33.066944
9.714859 36.519267 -33.019989
11.215326 34.517817 -32.743351
10.486113 36.360354 -33.066944
11.992565 32.624502 -32.377207
11.179533 32.84288 -32.316054
11.215326 34.517817 -32.743351
16.350248 26.62283 -31.524826
15.443653 28.451113 -31.824628
16.334208 28.336542 -31.899966
16.45525 24.878798 -31.16435
16.350248 26.62283 -31.524826
15.581663 24.968179 -31.012124
16.45525 24.878798 -31.16435
15.531659 31.826448 -32.455616
14.601215 32.017614 -32.514282
16.354043 30.030365 -32.177548
15.531659 31.826448 -32.455616
16.334208 28.336542 -31.899966
16.354043 30.030365 -32.177548
6.879635 23.787514 -29.532528
6.00619 24.222134 -29.651629
6.044446 26.186516 -30.060727
7.787001 21.483263 -29.038957
6.879635 23.787514 -29.532528
7.825257 23.447645 -29.448055
8.792586 19.12714 -28.574501
7.787001 21.483263 -29.038957
9.805165 18.882046 -28.540231
9.680715 20.859848 -28.934652
10.753256 18.598499 -28.520399
8.792586 19.12714 -28.574501
9.805165 18.882046 -28.540231
7.102911 39.81262 -33.470249
7.166393 38.448531 -33.142948
7.719948 40.000952 -33.572113
7.102911 39.81262 -33.470249
8.352218 38.382099 -33.284236
7.719948 40.000952 -33.572113
4.331409 27.104048 -30.296453
5.084496 24.614071 -29.76041
4.504008 29.020821 -30.733059
4.331409 27.104048 -30.296453
4.639054 30.884379 -31.148393
5.306047 28.484693 -30.595161
4.504008 29.020821 -30.733059
4.871587 32.604286 -31.548285
4.639054 30.884379 -31.148393
5.052922 34.266339 -31.946067
5.622428 32.010303 -31.408278
4.871587 32.604286 -31.548285
5.344947 35.71921 -32.297694
5.052922 34.266339 -31.946067
5.559749 37.111217 -32.657876
6.018566 35.064363 -32.16624
5.344947 35.71921 -32.297694
5.912967 38.206171 -32.942124
5.559749 37.111217 -32.657876
6.44457 37.445785 -32.800812
5.912967 38.206171 -32.942124
7.60555 37.04019 -32.825794
7.09493 37.02686 -32.758049
7.166393 38.448531 -33.142948
9.651673 34.94717 -32.607163
8.964238 36.730242 -32.944953
9.714859 36.519267 -33.019989
12.839628 32.411194 -32.461368
13.712857 32.196676 -32.473514
12.803835 30.736258 -32.034072
11.992565 32.624502 -32.377207
12.839628 32.411194 -32.461368
15.230244 19.668451 -29.499778
14.147201 21.635056 -29.781921
15.042791 21.520705 -29.970137
15.51344 17.80332 -29.095735
15.230244 19.668451 -29.499778
3 28 9 29
3 30 29 7
3 28 29 30
3 0 31 32
3 1 33 35
3 35 34 10
3 33 34 35
3 1 36 38
3 36 12 37
3 36 37 38
3 2 17 15
3 4 18 8
3 4 19 18
3 3 20 16
3 40 39 11
3 41 22 42
3 43 42 21
3 41 42 43
3 6 23 13
3 6 24 23
3 5 44 46
3 44 25 45
3 44 45 46
3 47 26 48
3 49 48 14
3 47 48 49
3 50 27 51
3 52 51 26
3 50 51 52
3 54 53 27
3 7 8 2
3 9 8 7
3 9 4 8
3 10 11 3
3 55 11 56
3 57 56 10
3 55 56 57
3 59 58 11
3 12 60 61
3 12 62 63
3 64 13 65
3 66 13 67
3 68 6 69
3 70 69 13
3 68 69 70
3 71 14 72
3 73 72 5
3 71 72 73
3 74 14 75
3 77 76 14
3 15 16 0
3 17 16 15
3 17 3 16
3 8 17 2
3 18 17 8
3 18 3 17
3 18 10 3
3 19 10 18
3 19 1 10
3 78 5 79
3 80 5 81
3 83 82 5
3 16 84 86
3 86 85 0
3 84 85 86
3 20 87 89
3 89 88 16
3 87 88 89
3 20 90 91
3 11 20 3
3 92 20 93
3 94 93 11
3 92 93 94
3 96 95 20
3 97 21 98
3 99 21 100
3 102 101 21
3 103 0 104
3 105 0 106
3 107 15 108
3 109 108 0
3 107 108 109
3 110 15 111
3 112 2 113
3 114 113 15
3 112 113 114
3 115 2 116
3 117 7 118
3 119 118 2
3 117 118 119
3 120 7 121
3 123 122 7
3 21 124 126
3 124 9 125
3 124 125 126
3 22 9 21
3 22 4 9
3 13 127 129
3 127 22 128
3 127 128 129
3 23 22 13
3 23 4 22
3 23 19 4
3 24 19 23
3 24 1 19
3 25 130 131
3 25 132 134
3 132 6 133
3 132 133 134
3 14 25 5
3 26 25 14
3 26 6 25
3 26 24 6
3 27 24 26
3 27 1 24
3 27 12 1
3 135 12 136
3 137 136 27
3 135 136 137
3 139 138 12
