ply
format ascii 1.0
element vertex 131
property float x
property float y
property float z
element face 116
property list uchar int vertex_index
end_header
-2.035107 -79.558617 67.848854
-2.132961 -84.7603 63.511642
-0.761627 -80.295387 63.322189
-4.28227 -88.061356 62.980347
-3.707382 -83.418915 67.579781
-0.981087 -75.026711 67.542915
-0.089737 -75.351059 62.604927
-2.544643 -87.252975 61.243721
-1.611444 -85.236816 61.283417
-5.063873 -87.047607 64.857986
-5.902954 -83.869339 68.903526
-4.779217 -82.587616 69.377052
-4.789104 -84.87915 67.192917
-3.855686 -85.801254 65.334473
-2.233383 -76.966202 69.904144
-1.43391 -77.336121 67.760391
-0.344267 -77.847336 63.018471
-1.981472 -82.177132 65.717674
-1.31414 -79.973114 65.655777
-1.353046 -82.627853 63.494839
-0.884432 -82.967133 61.152641
-3.681074 -88.927017 61.005245
-2.943665 -79.051605 69.868881
-3.791887 -80.954102 69.697128
-2.790289 -81.615952 67.794189
-2.826365 -84.150558 65.617157
-3.110615 -86.60054 63.347183
-0.811918 -77.627502 65.452774
-0.465221 -75.215134 65.126915
-2.341174 -87.500008 60.139414
-2.893736 -88.436378 60.088509
-5.747409 -87.440002 64.524116
-5.54601 -86.485138 65.74538
-5.408625 -85.400909 66.912846
-5.346029 -84.374245 68.048221
-5.96555 -84.896004 67.76815
-5.54601 -86.485138 65.74538
-4.926488 -85.963379 66.025452
-5.408625 -85.400909 66.912846
-1.062083 -84.273148 60.052496
-1.247938 -84.101975 61.218029
-1.42559 -85.407989 60.117884
-0.71865 -83.083928 59.935083
-1.062083 -84.273148 60.052496
-4.641572 -89.121575 61.762774
-4.340974 -89.554405 60.775222
-3.981672 -88.494187 61.992796
-3.496483 -78.755218 70.776516
-3.085526 -77.783219 70.858154
-1.108969 -73.784035 68.569892
-1.321408 -74.901218 68.67775
-0.830299 -73.85822 67.373844
-1.108969 -73.784035 68.569892
-0.181537 -74.070488 63.648205
-0.369279 -74.002526 64.909199
-0.277479 -75.283096 63.865921
-0.042389 -74.10141 62.351708
-0.181537 -74.070488 63.648205
-1.874575 -86.491928 60.159262
-2.078044 -86.244896 61.263569
-2.341174 -87.500008 60.139414
-1.42559 -85.407989 60.117884
-1.874575 -86.491928 60.159262
-5.34565 -88.060913 63.629167
-4.954849 -88.567788 62.690348
-4.673071 -87.554482 63.919167
-5.34565 -88.060913 63.629167
-5.747409 -87.440002 64.524116
-5.341086 -83.228477 69.140289
-5.403782 -82.138016 70.17889
-5.965651 -82.778877 69.942127
-1.947555 -75.870964 69.858364
-2.381176 -75.709496 70.899326
-1.547819 -76.055924 68.786487
-1.947555 -75.870964 69.858364
-1.833646 -77.151162 68.832268
-1.207499 -76.181416 67.651653
-1.321408 -74.901218 68.67775
-1.547819 -76.055924 68.786487
-0.349294 -79.189274 61.949406
-0.552947 -79.071361 63.17033
-0.557974 -80.413299 62.101265
-0.175834 -77.925858 61.755762
-0.349294 -79.189274 61.949406
-0.048569 -76.677719 61.54899
-0.217002 -76.599198 62.811699
-0.175834 -77.925858 61.755762
0.038726 -75.396981 61.309334
-0.048569 -76.677719 61.54899
-6.53533 -83.342426 69.66904
-5.965651 -82.778877 69.942127
-6.529109 -84.300438 68.595661
-6.53533 -83.342426 69.66904
-5.96555 -84.896004 67.76815
-6.529109 -84.300438 68.595661
-0.619376 -81.749173 61.016491
-0.557974 -80.413299 62.101265
-0.82303 -81.63126 62.237415
-0.619376 -81.749173 61.016491
-0.71865 -83.083928 59.935083
-4.108398 -90.021744 59.810127
-3.461951 -89.273399 59.969271
-4.108398 -90.021744 59.810127
-4.340974 -89.554405 60.775222
-4.641572 -89.121575 61.762774
-4.954849 -88.567788 62.690348
-2.730384 -76.740517 70.875786
-2.381176 -75.709496 70.899326
-2.588524 -78.008904 69.886513
-2.730384 -76.740517 70.875786
-3.085526 -77.783219 70.858154
-4.882398 -81.398964 70.387565
-5.403782 -82.138016 70.17889
-4.388733 -80.582207 70.547604
-4.882398 -81.398964 70.387565
-4.285552 -81.770859 69.53709
-3.920594 -79.706467 70.69064
-4.388733 -80.582207 70.547604
-3.367776 -80.002854 69.783005
-3.496483 -78.755218 70.776516
-3.920594 -79.706467 70.69064
-3.461951 -89.273399 59.969271
-2.893736 -88.436378 60.088509
-3.112859 -88.089996 61.124483
-0.572367 -73.952431 66.165844
-0.830299 -73.85822 67.373844
-0.723154 -75.120923 66.334915
-0.572367 -73.952431 66.165844
-0.369279 -74.002526 64.909199
-0.042389 -74.10141 62.351708
0.038726 -75.396981 61.309334
3 30 29 7
3 32 31 9
3 33 12 34
3 35 34 10
3 33 34 35
3 36 9 37
3 38 37 12
3 36 37 38
3 0 15 14
3 1 19 17
3 39 20 40
3 41 40 8
3 39 40 41
3 43 42 20
3 3 44 46
3 46 45 21
3 44 45 46
3 47 22 48
3 4 23 11
3 4 24 23
3 4 25 24
3 3 26 13
3 3 21 26
3 5 49 50
3 5 51 52
3 2 27 18
3 6 28 16
3 6 53 55
3 55 54 28
3 53 54 55
3 6 56 57
3 7 8 1
3 58 8 59
3 60 59 7
3 58 59 60
3 62 61 8
3 9 63 65
3 65 64 3
3 63 64 65
3 67 66 9
3 10 68 70
3 68 11 69
3 68 69 70
3 12 11 10
3 12 4 11
3 12 13 4
3 9 13 12
3 9 3 13
3 14 71 72
3 15 73 75
3 75 74 14
3 73 74 75
3 15 76 78
3 76 5 77
3 76 77 78
3 79 16 80
3 81 80 2
3 79 80 81
3 82 16 83
3 84 6 85
3 86 85 16
3 84 85 86
3 88 87 6
3 89 10 90
3 91 10 92
3 94 93 10
3 17 18 0
3 19 18 17
3 19 2 18
3 8 19 1
3 20 19 8
3 20 2 19
3 20 95 97
3 97 96 2
3 95 96 97
3 99 98 20
3 21 100 101
3 103 102 21
3 105 104 3
3 106 14 107
3 22 108 110
3 108 14 109
3 108 109 110
3 22 0 14
3 11 111 112
3 23 113 115
3 115 114 11
3 113 114 115
3 23 116 117
3 23 118 120
3 118 22 119
3 118 119 120
3 24 22 23
3 24 0 22
3 24 17 0
3 25 17 24
3 25 1 17
3 13 25 4
3 26 25 13
3 26 1 25
3 26 7 1
3 21 7 26
3 21 121 123
3 123 122 7
3 121 122 123
3 18 15 0
3 27 15 18
3 27 5 15
3 16 27 2
3 28 27 16
3 28 5 27
3 28 124 126
3 126 125 5
3 124 125 126
3 128 127 28
3 130 129 6
