ply
format ascii 1.0
element vertex 130
property float x
property float y
property float z
element face 113
property list uchar int vertex_index
end_header
44.106739 30.925568 29.654217
46.340649 34.813583 26.035645
44.948124 36.763996 30.142876
49.003517 32.695896 22.11702
46.440998 28.920731 25.421843
43.082855 32.981133 34.036331
45.945705 38.656303 28.17531
50.372292 34.499447 20.441961
48.831932 35.640728 22.30007
45.1637 32.878006 27.838999
46.241714 31.870934 25.780741
45.091576 29.927448 27.518105
45.417255 27.011429 27.138054
44.146236 27.986107 29.308762
42.849148 34.068951 36.237473
47.55793 36.702671 24.199413
46.602646 37.701374 26.159897
45.500366 35.799255 28.068184
44.426762 33.868855 29.944267
47.515602 33.785416 24.056511
47.664276 30.82642 23.761881
48.11718 27.883595 23.342209
43.965302 34.865219 32.081818
43.463287 31.937126 31.832502
42.383976 31.123585 36.042267
42.692039 30.025478 33.770416
43.250546 28.983967 31.520128
48.788788 37.079876 22.293583
49.473786 36.526533 21.384265
42.740332 34.634592 37.32074
43.123614 35.503675 36.282387
46.74337 39.108807 26.147284
47.133348 38.624719 25.167912
49.86046 32.113016 21.149951
50.544848 33.014792 20.312421
49.687905 33.597672 21.279491
49.187145 31.210968 21.935162
49.86046 32.113016 21.149951
46.74296 27.47824 25.206169
47.581051 26.959671 24.166352
47.279089 28.402163 24.382026
45.824394 25.61297 26.933833
45.042378 26.070169 28.039507
43.524079 33.923176 33.059074
43.816204 35.375191 33.151642
43.374981 34.433148 34.128898
42.159458 30.208601 37.081551
42.296365 31.701553 37.175815
42.071847 30.786569 38.215099
42.679372 28.549976 33.616949
42.437523 29.085952 34.776447
42.958626 28.029221 32.491805
42.971293 29.504722 32.645272
42.679372 28.549976 33.616949
43.364422 27.52898 31.350766
42.958626 28.029221 32.491805
46.145037 40.049084 28.155717
46.414899 39.586271 27.15499
45.723033 39.122248 29.195374
46.145037 40.049084 28.155717
45.224243 38.176094 30.179158
45.446914 37.710149 29.159093
45.723033 39.122248 29.195374
50.243966 35.955893 20.45521
51.029686 35.356844 19.568503
49.602112 35.070087 21.371015
50.243966 35.955893 20.45521
49.473786 36.526533 21.384265
44.406868 26.557509 29.124861
45.042378 26.070169 28.039507
44.781745 27.498768 28.223408
43.258128 34.977057 35.22947
43.123614 35.503675 36.282387
42.966002 33.525042 35.136902
43.374981 34.433148 34.128898
43.258128 34.977057 35.22947
47.61099 38.125368 24.187669
48.151787 37.610848 23.243254
47.080288 37.202022 25.179655
47.61099 38.125368 24.187669
47.133348 38.624719 25.167912
46.274175 38.178838 27.167603
46.74337 39.108807 26.147284
46.414899 39.586271 27.15499
51.217865 33.883156 19.514703
51.029686 35.356844 19.568503
51.217865 33.883156 19.514703
50.544848 33.014792 20.312421
48.194931 36.1717 23.249741
48.788788 37.079876 22.293583
48.151787 37.610848 23.243254
48.517525 30.27623 22.757593
49.187145 31.210968 21.935162
48.333897 31.761158 22.93945
48.743977 28.804817 22.547756
48.517525 30.27623 22.757593
47.890728 29.355007 23.552045
49.07217 27.339804 22.292447
48.743977 28.804817 22.547756
48.536648 26.458818 23.088033
49.07217 27.339804 22.292447
48.536648 26.458818 23.088033
47.581051 26.959671 24.166352
46.231088 26.523589 26.064274
46.74296 27.47824 25.206169
45.929126 27.96608 26.279948
46.231088 26.523589 26.064274
45.824394 25.61297 26.933833
44.764456 37.246416 31.185749
45.224243 38.176094 30.179158
44.273045 36.297027 32.15522
43.816204 35.375191 33.151642
44.456713 35.814608 31.112347
44.764456 37.246416 31.185749
44.273045 36.297027 32.15522
42.528951 33.174236 37.273419
42.740332 34.634592 37.32074
42.616562 32.596268 36.13987
42.528951 33.174236 37.273419
42.296365 31.701553 37.175815
42.283491 29.635006 35.912373
42.159458 30.208601 37.081551
42.538007 30.574531 34.906341
42.283491 29.635006 35.912373
42.437523 29.085952 34.776447
43.812267 27.030051 30.245083
43.698391 28.485037 30.414445
43.364422 27.52898 31.350766
44.406868 26.557509 29.124861
43.812267 27.030051 30.245083
3 27 8 28
3 0 11 9
3 0 13 11
3 29 14 30
3 31 16 32
3 2 17 6
3 2 18 17
3 3 33 35
3 35 34 7
3 33 34 35
3 3 36 37
3 1 19 15
3 4 20 10
3 4 21 20
3 4 38 40
3 40 39 21
3 38 39 40
3 42 41 12
3 5 43 45
3 43 22 44
3 43 44 45
3 5 23 22
3 46 24 47
3 46 47 48
3 49 25 50
3 51 26 52
3 53 52 25
3 51 52 53
3 55 54 26
3 56 6 57
3 58 6 59
3 60 2 61
3 62 61 6
3 60 61 62
3 63 7 64
3 8 65 67
3 65 7 66
3 65 66 67
3 8 3 7
3 9 10 1
3 11 10 9
3 11 4 10
3 11 12 4
3 13 12 11
3 13 68 70
3 70 69 12
3 68 69 70
3 14 71 72
3 14 73 75
3 73 5 74
3 73 74 75
3 76 15 77
3 16 78 80
3 78 15 79
3 78 79 80
3 16 1 15
3 6 81 83
3 81 16 82
3 81 82 83
3 17 16 6
3 17 1 16
3 17 9 1
3 18 9 17
3 18 0 9
3 7 84 85
3 87 86 7
3 15 88 90
3 88 8 89
3 88 89 90
3 19 8 15
3 19 3 8
3 10 19 1
3 20 19 10
3 20 3 19
3 20 91 93
3 93 92 3
3 91 92 93
3 21 94 96
3 96 95 20
3 94 95 96
3 21 97 98
3 21 99 100
3 102 101 21
3 12 103 105
3 105 104 4
3 103 104 105
3 107 106 12
3 108 2 109
3 22 110 111
3 22 112 114
3 112 2 113
3 112 113 114
3 22 18 2
3 23 18 22
3 23 0 18
3 115 14 116
3 24 117 119
3 117 14 118
3 117 118 119
3 24 5 14
3 120 24 121
3 25 122 124
3 122 24 123
3 122 123 124
3 25 5 24
3 25 23 5
3 26 23 25
3 26 0 23
3 26 13 0
3 125 13 126
3 127 126 26
3 125 126 127
3 129 128 13
