ply
format ascii 1.0
element vertex 114
property float x
property float y
property float z
element face 98
property list uchar int vertex_index
end_header
64.499222 -20.014164 -12.483673
67.1968 -18.93733 -8.604527
65.996208 -23.76646 -8.655993
65.864632 -14.713287 -12.482151
67.503021 -23.269215 -6.924158
65.965813 -19.307405 -10.533207
66.520668 -16.832792 -10.473677
65.270477 -17.303551 -12.524118
66.734161 -12.47135 -10.196491
63.14064 -20.975729 -14.417677
63.93615 -18.086754 -14.583599
67.880577 -18.967167 -6.719448
67.86264 -21.03619 -6.857355
66.722565 -21.291771 -8.673384
65.197556 -21.902071 -10.510778
65.085922 -26.320164 -8.534065
64.289925 -24.572262 -10.390926
63.628685 -22.796854 -12.348471
67.359924 -16.752205 -8.471382
66.794823 -14.532999 -10.352463
66.208519 -12.303688 -12.376837
64.667221 -15.267439 -14.652569
66.95084 -13.631802 -9.248412
66.664139 -12.794145 -9.15984
62.994361 -20.033944 -15.507221
62.671596 -21.541429 -15.350699
68.174564 -22.086517 -6.02926
68.098514 -21.109374 -5.963406
68.410438 -22.1597 -5.13531
64.575019 -27.619704 -8.413639
65.526245 -27.188629 -7.643574
65.015343 -28.48817 -7.523148
63.512306 -25.093853 -11.25057
63.803844 -25.927869 -10.27634
63.181686 -24.206149 -12.229342
63.959305 -23.684558 -11.369699
63.512306 -25.093853 -11.25057
62.545097 -24.755736 -13.130529
62.992096 -23.346441 -13.249657
63.181686 -24.206149 -12.229342
64.098545 -15.686566 -15.729592
64.301685 -16.677096 -14.618084
63.733009 -17.096224 -15.695107
67.884575 -24.259347 -6.087649
67.994754 -23.203029 -6.062661
67.17683 -24.445822 -6.910162
67.884575 -24.259347 -6.087649
66.423423 -24.694444 -7.776079
66.749615 -23.517837 -7.790076
67.17683 -24.445822 -6.910162
66.518864 -11.593324 -10.118568
66.664139 -12.794145 -9.15984
66.487457 -11.308045 -11.21649
66.27216 -10.43002 -11.138567
66.518864 -11.593324 -10.118568
63.392117 -18.589456 -15.590182
63.538395 -19.531242 -14.500638
62.994361 -20.033944 -15.507221
63.733009 -17.096224 -15.695107
63.392117 -18.589456 -15.590182
68.107483 -20.074863 -5.894452
67.835053 -19.197368 -5.801121
67.871609 -20.001679 -6.788401
68.107483 -20.074863 -5.894452
68.098514 -21.109374 -5.963406
67.68283 -22.152703 -6.890757
68.174564 -22.086517 -6.02926
67.994754 -23.203029 -6.062661
65.96828 -25.971297 -7.715115
65.526245 -27.188629 -7.643574
65.541065 -25.043312 -8.595029
66.423423 -24.694444 -7.776079
65.96828 -25.971297 -7.715115
64.201843 -26.80182 -9.34791
64.575019 -27.619704 -8.413639
64.687923 -25.446213 -9.462495
64.201843 -26.80182 -9.34791
63.803844 -25.927869 -10.27634
62.748074 -22.435879 -14.28426
63.384662 -21.886291 -13.383074
62.992096 -23.346441 -13.249657
62.671596 -21.541429 -15.350699
62.748074 -22.435879 -14.28426
67.70232 -18.038737 -6.628143
67.835053 -19.197368 -5.801121
67.441993 -16.931256 -7.50411
67.70232 -18.038737 -6.628143
67.62025 -17.859686 -7.595415
67.263722 -15.77223 -8.385858
67.441993 -16.931256 -7.50411
66.981171 -14.662627 -9.326398
67.263722 -15.77223 -8.385858
67.077373 -15.642602 -9.411922
66.764492 -13.502174 -10.274477
66.95084 -13.631802 -9.248412
66.981171 -14.662627 -9.326398
66.224636 -11.224214 -12.306663
66.487457 -11.308045 -11.21649
66.47134 -12.387519 -11.286664
64.42181 -14.227828 -15.782557
64.098545 -15.686566 -15.729592
63.853134 -14.646956 -16.859581
64.961029 -13.918575 -14.643249
64.42181 -14.227828 -15.782557
65.559734 -13.641499 -13.558041
65.265927 -14.990363 -13.56736
64.961029 -13.918575 -14.643249
65.731678 -12.436699 -13.505384
66.036575 -13.508487 -12.429494
65.559734 -13.641499 -13.558041
65.915622 -11.181188 -13.461555
65.731678 -12.436699 -13.505384
66.224636 -11.224214 -12.306663
65.915622 -11.181188 -13.461555
3 0 7 5
3 22 8 23
3 25 24 9
3 26 12 27
3 26 27 28
3 2 13 4
3 2 14 13
3 29 15 30
3 29 30 31
3 32 16 33
3 34 17 35
3 36 35 16
3 34 35 36
3 39 38 17
3 37 38 39
3 1 18 11
3 3 19 6
3 3 20 19
3 40 21 41
3 42 41 10
3 40 41 42
3 43 4 44
3 45 4 46
3 47 2 48
3 49 48 4
3 47 48 49
3 5 6 1
3 7 6 5
3 7 3 6
3 8 50 51
3 8 52 54
3 52 53 54
3 9 10 0
3 55 10 56
3 57 56 9
3 55 56 57
3 59 58 10
3 60 11 61
3 12 62 64
3 62 11 63
3 62 63 64
3 12 1 11
3 4 65 67
3 65 12 66
3 65 66 67
3 13 12 4
3 13 1 12
3 13 5 1
3 14 5 13
3 14 0 5
3 15 68 69
3 15 70 72
3 70 2 71
3 70 71 72
3 73 15 74
3 16 75 77
3 75 15 76
3 75 76 77
3 16 2 15
3 16 14 2
3 17 14 16
3 17 0 14
3 17 9 0
3 78 9 79
3 80 79 17
3 78 79 80
3 82 81 9
3 11 83 84
3 18 85 87
3 87 86 11
3 85 86 87
3 18 88 89
3 6 18 1
3 19 18 6
3 19 90 92
3 92 91 18
3 90 91 92
3 19 93 95
3 93 8 94
3 93 94 95
3 20 8 19
3 20 96 98
3 98 97 8
3 96 97 98
3 10 7 0
3 21 7 10
3 21 3 7
3 99 21 100
3 99 100 101
3 102 21 103
3 104 3 105
3 106 105 21
3 104 105 106
3 107 20 108
3 109 108 3
3 107 108 109
3 110 20 111
3 113 112 20
