ply
format ascii 1.0
element vertex 121
property float x
property float y
property float z
element face 105
property list uchar int vertex_index
end_header
-34.201569 59.648289 -22.735653
-27.819452 63.153751 -23.703583
-29.271122 56.145847 -24.752037
-39.131241 56.232433 -21.791656
-32.874382 66.21431 -21.405327
-34.813538 53.278652 -23.762695
-36.912483 57.909519 -22.32906
-37.04388 54.862263 -22.786388
-34.612331 56.404118 -23.277287
-31.129499 61.409161 -23.154499
-31.751593 58.003315 -23.711224
-28.598066 59.622219 -24.224072
-40.73951 54.6497 -20.984936
-39.054424 59.164715 -21.333714
-36.544205 61.04472 -21.76067
-35.970768 64.193253 -21.056404
-33.613468 62.947124 -22.124115
-30.380695 64.830643 -22.553387
-38.914314 53.411091 -22.093498
-36.909748 51.954311 -23.137897
-34.775749 50.311176 -24.176857
-32.22102 54.686893 -24.253395
-32.505638 51.509762 -24.777378
-32.577816 48.497555 -25.245644
-38.882448 60.656639 -21.016896
-40.020015 59.645012 -20.769602
-37.627339 61.596642 -21.230373
-37.799314 60.104717 -21.547192
-38.882448 60.656639 -21.016896
-34.422575 65.203781 -21.230866
-35.595588 65.727509 -20.618073
-34.047395 66.738037 -20.792534
-31.349675 50.538742 -25.315924
-31.159346 52.146256 -25.040382
-31.385764 49.032639 -25.550057
-32.541727 50.003659 -25.011511
-31.349675 50.538742 -25.315924
-31.484167 47.505646 -25.796534
-31.385764 49.032639 -25.550057
-24.824534 63.03599 -24.682761
-26.546463 62.189259 -24.30846
-26.097522 64.000483 -24.077883
-32.438591 67.780777 -20.967705
-34.047395 66.738037 -20.792534
-30.762076 68.760147 -21.192284
-31.197868 67.19368 -21.629906
-32.438591 67.780777 -20.967705
-29.542088 54.464298 -25.027712
-28.054058 55.122109 -25.318535
-26.93577 60.423493 -24.568705
-28.208759 61.387985 -23.963828
-26.546463 62.189259 -24.30846
-27.348577 58.621223 -24.801075
-26.93577 60.423493 -24.568705
-27.685105 56.883038 -25.065058
-28.934594 57.884033 -24.488055
-27.348577 58.621223 -24.801075
-28.054058 55.122109 -25.318535
-27.685105 56.883038 -25.065058
-41.547499 55.13884 -20.364935
-41.198101 53.912468 -20.394434
-40.882159 55.999168 -20.843897
-41.547499 55.13884 -20.364935
-40.078024 56.790535 -21.247257
-39.935376 55.441067 -21.388296
-40.882159 55.999168 -20.843897
-40.039615 58.256676 -21.018286
-41.005207 58.736973 -20.454174
-40.020015 59.645012 -20.769602
-39.092833 57.698574 -21.562685
-40.078024 56.790535 -21.247257
-40.039615 58.256676 -21.018286
-37.05121 64.648697 -20.45972
-35.595588 65.727509 -20.618073
-37.34062 63.170908 -20.878241
-37.05121 64.648697 -20.45972
-36.257486 62.618986 -21.408537
-37.627339 61.596642 -21.230373
-37.34062 63.170908 -20.878241
-29.951024 66.501846 -22.203936
-31.627538 65.522476 -21.979357
-31.197868 67.19368 -21.629906
-28.665788 65.744934 -22.847341
-29.951024 66.501846 -22.203936
-27.385166 64.906488 -23.422439
-29.100074 63.992197 -23.128485
-28.665788 65.744934 -22.847341
-26.097522 64.000483 -24.077883
-27.385166 64.906488 -23.422439
-40.430768 53.359302 -21.030299
-40.889359 52.62207 -20.439796
-41.198101 53.912468 -20.394434
-39.518169 52.739998 -21.58458
-40.430768 53.359302 -21.030299
-39.826912 54.030395 -21.539217
-38.653194 52.073475 -22.169977
-39.518169 52.739998 -21.58458
-37.650911 51.345085 -22.692176
-38.653194 52.073475 -22.169977
-37.912031 52.682701 -22.615697
-36.703144 50.582779 -23.253204
-37.650911 51.345085 -22.692176
-35.636145 49.761211 -23.772684
-36.703144 50.582779 -23.253204
-35.842748 51.132744 -23.657377
-34.631189 48.913265 -24.328713
-35.636145 49.761211 -23.772684
-31.017038 53.734821 -24.778391
-30.746071 55.41637 -24.502716
-29.542088 54.464298 -25.027712
-32.363329 53.098327 -24.515386
-31.017038 53.734821 -24.778391
-31.159346 52.146256 -25.040382
-33.532223 48.006455 -24.863106
-34.631189 48.913265 -24.328713
-33.676783 49.404365 -24.71125
-32.503994 47.074803 -25.421642
-33.532223 48.006455 -24.863106
-31.410345 46.082893 -25.972532
-32.503994 47.074803 -25.421642
-31.484167 47.505646 -25.796534
3 0 8 6
3 1 11 9
3 24 13 25
3 26 14 27
3 28 27 13
3 26 27 28
3 4 29 31
3 29 15 30
3 29 30 31
3 4 16 15
3 4 17 16
3 3 18 12
3 5 19 7
3 5 20 19
3 2 21 10
3 32 22 33
3 34 23 35
3 36 35 22
3 34 35 36
3 38 37 23
3 41 40 1
3 39 40 41
3 42 4 43
3 46 45 4
3 44 45 46
3 6 7 3
3 8 7 6
3 8 5 7
3 48 47 2
3 9 10 0
3 11 10 9
3 11 2 10
3 49 11 50
3 51 50 1
3 49 50 51
3 52 11 53
3 54 2 55
3 56 55 11
3 54 55 56
3 58 57 2
3 59 12 60
3 61 12 62
3 63 3 64
3 65 64 12
3 63 64 65
3 13 66 68
3 66 67 68
3 13 69 71
3 69 3 70
3 69 70 71
3 13 6 3
3 14 6 13
3 14 0 6
3 15 72 73
3 15 74 75
3 15 76 78
3 76 14 77
3 76 77 78
3 16 14 15
3 16 0 14
3 16 9 0
3 17 9 16
3 17 1 9
3 79 17 80
3 81 80 4
3 79 80 81
3 82 17 83
3 84 1 85
3 86 85 17
3 84 85 86
3 88 87 1
3 12 89 91
3 89 90 91
3 18 92 94
3 94 93 12
3 92 93 94
3 18 95 96
3 7 18 3
3 19 18 7
3 19 97 99
3 99 98 18
3 97 98 99
3 19 100 101
3 20 102 104
3 104 103 19
3 102 103 104
3 20 105 106
3 10 8 0
3 21 8 10
3 21 5 8
3 107 21 108
3 109 108 2
3 107 108 109
3 22 110 112
3 110 21 111
3 110 111 112
3 22 5 21
3 22 20 5
3 23 20 22
3 23 113 115
3 115 114 20
3 113 114 115
3 23 116 117
3 120 119 23
3 118 119 120
