ply
format ascii 1.0
element vertex 89
property float x
property float y
property float z
element face 72
property list uchar int vertex_index
end_header
-3.417261 -25.581194 40.935364
-3.112738 -10.650192 43.297478
-2.641584 -19.264673 43.772079
-2.042875 -27.61694 44.070415
-3.597582 -13.724793 41.934216
-3.100363 -22.370827 42.401672
-2.359831 -23.493073 43.933517
-2.809114 -26.573921 42.563805
-2.297674 -12.000427 44.88401
-2.045069 -16.267851 45.070618
-2.892809 -14.971167 43.568893
-3.36133 -18.074545 42.197952
-2.509756 -7.727944 44.612953
-1.758959 -20.497721 45.208038
-1.442705 -24.652151 45.323311
-3.260097 -27.659381 41.004328
-2.956024 -28.155744 41.818549
-3.113187 -26.077557 41.749584
-3.66317 -17.512353 41.353946
-3.479456 -15.899669 42.066084
-3.781296 -15.337477 41.222078
-3.531161 -19.690206 41.474838
-3.66317 -17.512353 41.353946
-2.156985 -6.338114 45.253982
-2.053246 -8.443182 45.390096
-1.700474 -7.053352 46.031126
-1.56903 -28.154737 44.752184
-1.268946 -26.672343 45.378631
-1.74279 -26.134546 44.696863
-1.862152 -29.608653 44.131052
-1.56903 -28.154737 44.752184
-3.703049 -11.541749 41.758881
-3.35516 -12.187493 42.615847
-3.460627 -10.004449 42.440512
-3.905054 -13.139253 41.061774
-3.703049 -11.541749 41.758881
-3.781296 -15.337477 41.222078
-3.905054 -13.139253 41.061774
-2.642375 -28.610111 42.629013
-2.259256 -29.131621 43.382318
-2.425994 -27.09543 43.31711
-2.642375 -28.610111 42.629013
-2.956024 -28.155744 41.818549
-2.171372 -14.134139 44.977314
-1.690952 -14.824025 45.700661
-1.817255 -12.690313 45.607357
-3.400677 -21.838347 41.576698
-3.230847 -20.222686 42.299812
-3.531161 -19.690206 41.474838
-3.559126 -23.44353 40.843544
-3.258812 -23.976011 41.668518
-3.400677 -21.838347 41.576698
-1.947205 -10.579424 45.525625
-1.817255 -12.690313 45.607357
-2.403715 -9.864185 44.748481
-1.947205 -10.579424 45.525625
-2.053246 -8.443182 45.390096
-2.591397 -5.601463 44.415546
-2.156985 -6.338114 45.253982
-2.903156 -7.030767 43.768575
-2.591397 -5.601463 44.415546
-2.984796 -4.904286 43.571169
-3.204647 -8.491891 43.110838
-2.811247 -9.189068 43.955215
-2.903156 -7.030767 43.768575
-3.460627 -10.004449 42.440512
-3.204647 -8.491891 43.110838
-1.540741 -16.928166 45.74946
-1.690952 -14.824025 45.700661
-1.397686 -19.043101 45.818171
-1.540741 -16.928166 45.74946
-1.902014 -18.382786 45.139328
-1.232633 -21.123945 45.852882
-1.397686 -19.043101 45.818171
-1.074505 -23.201159 45.910518
-1.232633 -21.123945 45.852882
-1.600832 -22.574936 45.265675
-0.89839 -25.239815 45.945568
-1.074505 -23.201159 45.910518
-0.89839 -25.239815 45.945568
-1.268946 -26.672343 45.378631
-1.862152 -29.608653 44.131052
-2.259256 -29.131621 43.382318
-3.671556 -25.117314 40.076364
-3.559126 -23.44353 40.843544
-3.512529 -27.233676 40.147911
-3.671556 -25.117314 40.076364
-3.260097 -27.659381 41.004328
-3.512529 -27.233676 40.147911
3 0 7 5
3 0 15 17
3 17 16 7
3 15 16 17
3 1 10 8
3 18 11 19
3 20 19 4
3 18 19 20
3 22 21 11
3 23 12 24
3 23 24 25
3 2 13 9
3 3 14 6
3 3 26 28
3 28 27 14
3 26 27 28
3 3 29 30
3 31 4 32
3 33 32 1
3 31 32 33
3 34 4 35
3 37 36 4
3 5 6 2
3 7 6 5
3 7 3 6
3 7 38 40
3 40 39 3
3 38 39 40
3 42 41 7
3 8 43 45
3 43 9 44
3 43 44 45
3 10 9 8
3 10 2 9
3 4 10 1
3 11 10 4
3 11 2 10
3 11 5 2
3 46 5 47
3 48 47 11
3 46 47 48
3 49 0 50
3 51 50 5
3 49 50 51
3 52 8 53
3 12 54 56
3 54 8 55
3 54 55 56
3 12 1 8
3 57 12 58
3 59 12 60
3 59 60 61
3 62 1 63
3 64 63 12
3 62 63 64
3 66 65 1
3 9 67 68
3 13 69 71
3 71 70 9
3 69 70 71
3 13 72 73
3 6 13 2
3 14 13 6
3 14 74 76
3 76 75 13
3 74 75 76
3 14 77 78
3 80 79 14
3 82 81 3
3 83 0 84
3 85 0 86
3 88 87 0
