ply
format ascii 1.0
element vertex 343
property float x
property float y
property float z
element face 356
property list uchar int vertex_index
end_header
-1.479315 80.363708 -3.589859
-0.67337 73.865356 28.704189
-3.839468 87.254578 -10.002209
-3.800489 88.028885 5.336046
-1.501078 79.342194 12.131775
-3.126583 84.128159 21.721268
-2.747868 75.387161 38.136295
-1.40933 66.407852 18.732737
-1.337069 75.130692 -0.104776
-3.520363 86.703308 13.429592
-5.999947 86.482391 17.929482
-1.137438 77.178238 20.355938
-1.40007 73.164505 15.420255
-1.078142 70.518936 23.540787
-0.601698 66.801682 31.706646
-2.236181 85.108047 0.759307
-1.643713 80.376404 4.146482
-2.148113 84.498596 8.755438
-1.821495 82.747696 16.983685
-1.402348 79.798935 25.376778
-2.801867 80.320435 30.054379
-1.07128 75.685623 33.747368
-7.017189 89.003601 -5.257336
-3.876692 88.182159 -2.500904
-1.491112 74.692093 7.514207
-1.30369 68.522491 10.957811
-1.234608 63.22488 26.629101
-1.161783 74.963409 -3.813061
-1.40435 77.819473 -1.849602
-0.908812 75.663101 24.526058
-1.056816 73.953918 21.96604
-0.824482 72.334061 26.104898
-5.406023 87.713623 -11.208435
-2.889051 86.840714 3.034921
-2.228355 84.939957 4.727664
-2.82353 86.507126 7.038386
-3.32732 85.573364 17.557161
-2.525177 84.960098 15.220697
-2.326317 83.728989 19.386845
-1.612625 81.423187 21.16832
-2.123995 82.190598 23.583202
-3.960245 77.16861 36.113556
-3.969385 79.69519 32.143295
-2.728794 77.985291 34.148811
-1.806864 78.222549 31.954899
-1.74136 75.820847 36.055336
-5.109631 88.995407 3.691584
-5.191133 89.083496 -0.180552
-3.86339 88.245239 1.382722
-2.889154 86.89798 -0.906799
-1.606262 79.996155 8.106567
-1.547205 77.616638 5.830711
-1.510895 77.120865 9.771898
-1.413668 69.83873 17.066298
-1.449034 70.884583 13.109842
-1.389404 67.603668 14.819228
-1.110214 65.32048 12.752983
-1.268358 64.24498 16.569708
-0.940485 65.082474 29.115574
-1.056078 61.268665 30.563475
-1.211548 72.353134 1.654352
-4.987831 88.612518 7.636213
-3.683609 87.519165 9.353245
-4.824312 87.919556 11.645923
-4.629416 86.906006 15.712428
-4.421955 85.568848 19.822317
-1.340216 78.404663 16.218489
-1.411726 76.348602 13.781294
-1.257137 75.293442 17.851032
-1.265488 71.980515 19.462503
-1.31312 68.516861 21.068069
-0.453016 71.796707 32.860344
-0.578642 70.443451 30.241203
-1.791332 82.916245 -1.45974
-1.603445 80.495071 0.249343
-1.84757 82.90239 2.453078
-1.823076 82.629013 6.424652
-1.726423 82.083374 10.457525
-2.697554 85.884018 11.101549
-2.00679 83.77121 12.842293
-1.571327 81.253555 14.550777
-1.374521 80.131302 18.697365
-1.154716 78.713882 22.882799
-0.932415 77.004517 27.084888
-5.780571 84.947006 21.992764
-4.225645 83.912903 23.953659
-2.942911 82.373322 25.898129
-1.942581 80.351212 27.783993
-1.21393 77.882187 29.581383
-0.729855 75.012299 31.27446
-7.190529 88.430954 -8.785397
-5.306299 88.435059 -7.655304
-5.24733 88.892776 -3.969166
-3.858385 87.850616 -6.303223
-2.830853 86.690063 -4.781914
-2.169081 85.014999 -3.149744
-1.513857 77.845779 1.958474
-1.445475 75.043488 3.668741
-1.341478 72.138992 5.396502
-1.475834 74.067749 11.433212
-1.422647 71.651031 9.216227
-1.165525 69.159775 7.164684
-0.850554 68.788116 27.631165
-1.151218 66.927124 25.092869
-1.356712 64.943848 22.677303
-1.297894 59.451359 28.148096
-1.36479 61.2943 24.2904
-1.355967 62.89822 20.423088
-1.070753 60.819843 18.357029
-1.441832 79.09159 -2.71973
-1.309195 77.683563 -3.725006
-1.346678 78.95568 -4.595135
-1.375635 80.176963 -5.482073
-1.566588 81.522148 -4.452771
-1.346678 78.95568 -4.595135
-1.375635 80.176963 -5.482073
-3.850091 86.821442 -11.781934
-4.633369 87.050964 -12.385047
-4.622746 87.4841 -10.605322
-2.258426 74.276688 39.089309
-1.755172 74.49353 38.04883
-2.244614 75.604004 37.095816
-0.9488 60.183017 32.510098
-0.878442 62.134758 31.836776
-1.185785 73.71563 -1.059081
-1.098142 73.631989 -2.913223
-1.249426 75.04705 -1.958919
-1.274309 73.741913 0.774788
-1.123024 72.326851 -0.179517
-1.185785 73.71563 -1.059081
-5.627924 88.243256 10.780736
-4.906071 88.266037 9.641068
-5.709684 88.589737 8.775882
-5.314681 86.694198 16.820955
-5.426647 87.297966 14.804678
-6.111912 87.086159 15.913205
-5.709684 88.589737 8.775882
-5.79882 88.866348 6.817339
-0.397328 70.046913 33.602764
-0.362054 70.63546 34.910705
-5.685528 84.020691 24.024506
-6.563724 84.348816 23.020801
-4.908065 83.503639 25.004953
-5.003108 84.429955 22.973211
-5.685528 84.020691 24.024506
-3.434019 81.135041 29.064391
-4.017779 80.822418 30.10885
-3.385626 80.007812 31.098837
-2.872389 81.346879 27.976254
-3.504542 82.161484 26.986266
-3.434019 81.135041 29.064391
-0.820846 74.218666 34.582157
-0.650134 73.882004 33.345703
-0.900567 75.348961 32.510914
-7.103859 88.717277 -7.021366
-8.18085 88.488327 -7.553088
-8.09418 88.774651 -5.789057
-1.101363 67.318557 9.975318
-1.03228 67.6372 8.078755
-1.234608 68.841133 9.061248
-0.824124 64.160296 11.821002
-0.970955 63.684626 13.677979
-1.309468 57.545079 28.894739
-1.23319 58.421516 30.060852
-1.300299 60.311439 23.21
-1.341529 59.444137 25.094326
-1.295887 61.113399 21.276345
-1.360378 62.09626 22.356744
-1.300299 60.311439 23.21
-1.15328 60.074211 20.243315
-1.21336 61.859032 19.390059
-1.295887 61.113399 21.276345
-1.187912 76.255531 -4.706735
-1.03837 74.756943 -5.638546
-1.283066 76.391441 -2.831332
-1.187912 76.255531 -4.706735
-1.309195 77.683563 -3.725006
-6.914889 86.668663 17.011065
-6.111912 87.086159 15.913205
-5.497357 87.216804 -12.896403
-6.425075 87.658294 -11.678932
-5.497357 87.216804 -12.896403
-4.633369 87.050964 -12.385047
-3.964815 78.4319 34.128426
-4.685061 79.100395 33.078489
-4.680491 77.837105 35.06362
-1.369681 74.523758 36.945352
-1.034641 74.456146 35.791369
-1.40632 75.753235 34.901352
-1.369681 74.523758 36.945352
-1.755172 74.49353 38.04883
-7.972458 88.985298 -4.044756
-8.09418 88.774651 -5.789057
-5.150382 89.039451 1.755516
-5.973997 89.223938 0.987521
-5.933246 89.179893 2.923589
-1.050027 63.146876 15.586341
-0.970955 63.684626 13.677979
-1.189286 64.78273 14.661345
-0.820646 64.041663 31.112825
-0.771092 65.942078 30.41111
-0.651252 64.901266 32.408361
-0.998282 63.17557 29.839524
-0.820646 64.041663 31.112825
-0.878442 62.134758 31.836776
-0.984267 73.476669 -4.713714
-1.03837 74.756943 -5.638546
-0.984267 73.476669 -4.713714
-1.098142 73.631989 -2.913223
-0.998931 70.971954 0.734742
-1.123024 72.326851 -0.179517
-1.100555 70.934013 2.551969
-0.998931 70.971954 0.734742
-3.236799 86.373138 -11.135298
-3.287078 86.738464 -9.289935
-5.524095 87.804741 12.771425
-5.627924 88.243256 10.780736
-4.726864 87.412781 13.679175
-5.524095 87.804741 12.771425
-5.426647 87.297966 14.804678
-4.705074 76.489204 36.962047
-4.680491 77.837105 35.06362
-4.010934 75.779945 38.0261
-4.705074 76.489204 36.962047
-3.404745 74.889221 39.03747
-3.354056 76.277885 37.124926
-4.010934 75.779945 38.0261
-2.81408 73.967713 40.054727
-3.404745 74.889221 39.03747
-5.85972 89.057793 4.845025
-5.933246 89.179893 2.923589
-5.048731 88.803962 5.663899
-5.85972 89.057793 4.845025
-5.79882 88.866348 6.817339
-0.460141 69.370285 32.293194
-0.515829 71.120079 31.550773
-0.397328 70.046913 33.602764
-0.471669 67.5494 33.025915
-0.59017 68.622567 30.973924
-0.460141 69.370285 32.293194
-0.478239 65.690025 33.722809
-0.471669 67.5494 33.025915
-0.651252 64.901266 32.408361
-0.478239 65.690025 33.722809
-3.850091 86.821442 -11.781934
-3.236799 86.373138 -11.135298
-6.788826 85.974243 18.997212
-6.914889 86.668663 17.011065
-6.679138 85.20655 21.028854
-6.563724 84.348816 23.020801
-5.890259 85.714698 19.961123
-6.788826 85.974243 18.997212
-6.679138 85.20655 21.028854
-4.712431 80.317993 31.111243
-4.685061 79.100395 33.078489
-4.712431 80.317993 31.111243
-4.017779 80.822418 30.10885
-4.145908 82.931275 26.014032
-4.908065 83.503639 25.004953
-3.584278 83.143113 24.925894
-4.145908 82.931275 26.014032
-3.504542 82.161484 26.986266
-0.511714 72.274208 34.138645
-0.591436 73.404503 32.067402
-0.650134 73.882004 33.345703
-0.362054 70.63546 34.910705
-0.511714 72.274208 34.138645
-0.820846 74.218666 34.582157
-1.034641 74.456146 35.791369
-2.258426 74.276688 39.089309
-2.81408 73.967713 40.054727
-8.340997 88.15844 -9.221348
-9.331318 88.215812 -7.989038
-8.18085 88.488327 -7.553088
-7.317327 88.01696 -10.467413
-8.340997 88.15844 -9.221348
-6.298276 88.072288 -9.996916
-6.425075 87.658294 -11.678932
-7.317327 88.01696 -10.467413
-6.950769 89.16137 -3.429602
-7.972458 88.985298 -4.044756
-6.037742 89.201317 -0.89121
-5.973997 89.223938 0.987521
-6.06584 89.105957 -2.785517
-6.037742 89.201317 -0.89121
-5.219231 88.988136 -2.074859
-6.132259 88.948189 -4.613251
-6.950769 89.16137 -3.429602
-6.06584 89.105957 -2.785517
-3.296537 87.036484 -7.440442
-3.287078 86.738464 -9.289935
-3.848927 87.552597 -8.152716
-2.78277 86.456207 -6.679787
-3.296537 87.036484 -7.440442
-3.344619 87.27034 -5.542568
-2.433535 85.679237 -5.888535
-2.78277 86.456207 -6.679787
-2.102649 84.841705 -5.072449
-2.433535 85.679237 -5.888535
-2.499967 85.852531 -3.965829
-1.911471 83.847793 -4.232714
-2.102649 84.841705 -5.072449
-1.722596 82.798417 -3.387711
-1.911471 83.847793 -4.232714
-1.980206 83.965622 -2.304742
-1.635323 81.639977 -2.5248
-1.566588 81.522148 -4.452771
-1.722596 82.798417 -3.387711
-1.16552 70.826943 4.423044
-1.100555 70.934013 2.551969
-1.276513 72.246063 3.525427
-1.077543 69.337334 5.307135
-1.16552 70.826943 4.423044
-1.253502 70.649383 6.280593
-0.911091 67.890541 6.234559
-1.077543 69.337334 5.307135
-0.911091 67.890541 6.234559
-1.03228 67.6372 8.078755
-1.004625 65.717552 10.872904
-1.101363 67.318557 9.975318
-1.206952 66.921486 11.855397
-1.004625 65.717552 10.872904
-0.824124 64.160296 11.821002
-1.112282 59.330169 31.268541
-0.9488 60.183017 32.510098
-1.176986 60.360012 29.355785
-1.112282 59.330169 31.268541
-1.23319 58.421516 30.060852
-1.308081 58.522667 27.023173
-1.309468 57.545079 28.894739
-1.331342 60.372829 26.219248
-1.308081 58.522667 27.023173
-1.341529 59.444137 25.094326
-0.951225 61.434307 16.480002
-1.050027 63.146876 15.586341
-1.169555 62.532411 17.463369
-0.932445 59.07711 19.261224
-1.15328 60.074211 20.243315
-0.770376 59.762771 17.426108
-0.932445 59.07711 19.261224
-0.632068 58.020038 18.330303
-0.951225 61.434307 16.480002
-0.770376 59.762771 17.426108
3 0 109 111
3 109 28 110
3 109 110 111
3 0 112 113
3 0 114 115
3 1 31 29
3 2 116 118
3 118 117 32
3 116 117 118
3 3 35 33
3 5 38 36
3 5 40 38
3 6 43 41
3 6 45 43
3 6 119 121
3 121 120 45
3 119 120 121
3 3 48 46
3 3 33 48
3 4 52 50
3 7 55 53
3 7 57 55
3 122 59 123
3 8 124 126
3 126 125 27
3 124 125 126
3 8 127 129
3 127 60 128
3 127 128 129
3 130 63 131
3 132 131 61
3 130 131 132
3 10 133 135
3 133 64 134
3 133 134 135
3 10 65 64
3 136 61 137
3 11 68 66
3 13 69 30
3 13 70 69
3 139 138 71
3 15 75 73
3 17 76 34
3 17 77 76
3 9 78 62
3 18 79 37
3 18 80 79
3 18 81 80
3 19 82 39
3 19 83 82
3 140 84 141
3 142 85 143
3 144 143 84
3 142 143 144
3 20 145 147
3 147 146 42
3 145 146 147
3 20 148 150
3 148 86 149
3 148 149 150
3 20 87 86
3 21 88 44
3 21 89 88
3 21 151 153
3 153 152 89
3 151 152 153
3 22 154 156
3 154 90 155
3 154 155 156
3 22 91 90
3 23 92 47
3 23 93 92
3 23 94 93
3 15 95 49
3 15 73 95
3 16 96 74
3 24 97 51
3 24 98 97
3 12 99 67
3 25 100 54
3 25 101 100
3 25 157 159
3 159 158 101
3 157 158 159
3 161 160 56
3 14 102 72
3 26 103 58
3 26 104 103
3 162 105 163
3 164 106 165
3 166 107 167
3 168 167 106
3 166 167 168
3 169 108 170
3 171 170 107
3 169 170 171
3 172 27 173
3 28 174 176
3 174 27 175
3 174 175 176
3 28 8 27
3 177 10 178
3 29 30 11
3 31 30 29
3 31 13 30
3 32 179 180
3 182 181 32
3 33 34 15
3 35 34 33
3 35 17 34
3 36 37 9
3 38 37 36
3 38 18 37
3 38 39 18
3 40 39 38
3 40 19 39
3 41 183 185
3 183 42 184
3 183 184 185
3 43 42 41
3 43 20 42
3 43 44 20
3 45 44 43
3 45 21 44
3 45 186 188
3 188 187 21
3 186 187 188
3 190 189 45
3 191 22 192
3 46 193 195
3 193 47 194
3 193 194 195
3 48 47 46
3 48 23 47
3 48 49 23
3 33 49 48
3 33 15 49
3 50 51 16
3 52 51 50
3 52 24 51
3 53 54 12
3 55 54 53
3 55 25 54
3 55 56 25
3 57 56 55
3 57 196 198
3 198 197 56
3 196 197 198
3 199 58 200
3 201 200 14
3 199 200 201
3 59 202 204
3 202 58 203
3 202 203 204
3 59 26 58
3 27 205 206
3 208 207 27
3 60 209 210
3 60 211 212
3 214 213 2
3 61 62 3
3 63 62 61
3 63 9 62
3 215 63 216
3 64 217 219
3 217 63 218
3 217 218 219
3 64 9 63
3 64 36 9
3 65 36 64
3 65 5 36
3 220 41 221
3 222 41 223
3 224 6 225
3 226 225 41
3 224 225 226
3 228 227 6
3 229 46 230
3 61 231 233
3 231 46 232
3 231 232 233
3 61 3 46
3 66 67 4
3 68 67 66
3 68 12 67
3 30 68 11
3 69 68 30
3 69 12 68
3 69 53 12
3 70 53 69
3 70 7 53
3 71 72 1
3 234 72 235
3 236 235 71
3 234 235 236
3 237 14 238
3 239 238 72
3 237 238 239
3 240 14 241
3 243 242 14
3 245 244 2
3 73 74 0
3 75 74 73
3 75 16 74
3 34 75 15
3 76 75 34
3 76 16 75
3 76 50 16
3 77 50 76
3 77 4 50
3 62 35 3
3 78 35 62
3 78 17 35
3 37 78 9
3 79 78 37
3 79 17 78
3 79 77 17
3 80 77 79
3 80 4 77
3 80 66 4
3 81 66 80
3 81 11 66
3 39 81 18
3 82 81 39
3 82 11 81
3 82 29 11
3 83 29 82
3 83 1 29
3 246 10 247
3 84 248 249
3 84 250 252
3 250 10 251
3 250 251 252
3 84 65 10
3 85 65 84
3 85 5 65
3 42 253 254
3 256 255 42
3 257 85 258
3 86 259 261
3 259 85 260
3 259 260 261
3 86 5 85
3 86 40 5
3 87 40 86
3 87 19 40
3 44 87 20
3 88 87 44
3 88 19 87
3 88 83 19
3 89 83 88
3 89 1 83
3 89 71 1
3 262 71 263
3 264 263 89
3 262 263 264
3 266 265 71
3 268 267 21
3 270 269 6
3 90 271 273
3 271 272 273
3 90 274 275
3 90 276 278
3 276 32 277
3 276 277 278
3 91 32 90
3 91 2 32
3 279 22 280
3 47 281 282
3 92 283 285
3 285 284 47
3 283 284 285
3 92 286 288
3 286 22 287
3 286 287 288
3 92 91 22
3 93 91 92
3 93 2 91
3 93 289 291
3 291 290 2
3 289 290 291
3 94 292 294
3 294 293 93
3 292 293 294
3 94 295 296
3 49 94 23
3 95 94 49
3 95 297 299
3 299 298 94
3 297 298 299
3 95 300 301
3 73 302 304
3 304 303 95
3 302 303 304
3 73 305 307
3 305 0 306
3 305 306 307
3 74 28 0
3 96 28 74
3 96 8 28
3 51 96 16
3 97 96 51
3 97 8 96
3 97 60 8
3 98 60 97
3 98 308 310
3 310 309 60
3 308 309 310
3 67 52 4
3 99 52 67
3 99 24 52
3 54 99 12
3 100 99 54
3 100 24 99
3 100 98 24
3 101 98 100
3 101 311 313
3 313 312 98
3 311 312 313
3 101 314 315
3 317 316 101
3 56 318 320
3 320 319 25
3 318 319 320
3 322 321 56
3 72 31 1
3 102 31 72
3 102 13 31
3 58 102 14
3 103 102 58
3 103 13 102
3 103 70 13
3 104 70 103
3 104 7 70
3 323 59 324
3 105 325 327
3 325 59 326
3 325 326 327
3 105 26 59
3 328 105 329
3 106 330 332
3 330 105 331
3 330 331 332
3 106 26 105
3 106 104 26
3 107 104 106
3 107 7 104
3 107 57 7
3 108 57 107
3 108 333 335
3 335 334 57
3 333 334 335
3 336 108 337
3 338 108 339
3 338 339 340
3 342 341 108
