ply
format ascii 1.0
element vertex 158
property float x
property float y
property float z
element face 142
property list uchar int vertex_index
end_header
65.115601 0.107254 13.160477
69.465187 -0.40209 18.239395
63.466705 5.534107 11.566449
67.432335 4.561174 17.356499
66.250595 -5.390535 15.376004
65.740944 5.045973 14.214615
67.788933 -0.088816 15.370736
69.049889 -5.34484 17.418634
70.563538 -5.376248 20.321432
62.465233 8.173056 11.061829
63.541656 0.239943 12.303944
62.267624 -2.490189 12.844227
64.068886 -2.590544 13.433582
65.749184 -2.649416 14.197234
64.426186 7.46339 13.929968
68.57338 2.117586 17.661283
67.844246 2.348436 16.109514
68.777298 -0.214008 16.723917
68.517654 -2.728945 16.276741
69.488815 -2.798965 17.605907
69.984703 -5.341905 18.766384
70.124695 -2.922951 19.12496
62.919273 3.065536 11.305058
64.35363 2.84343 12.276407
67.942497 4.204273 19.071173
69.008934 1.786709 19.332405
69.822807 -0.683958 19.904167
63.4758 7.785063 12.422529
64.655289 5.269108 12.819647
65.68277 2.671635 13.409039
66.682617 4.825512 15.732211
66.863495 2.519239 14.689602
66.549538 0.007355 14.183084
67.252403 -2.687534 15.142174
67.788292 -5.366869 16.289616
70.268654 -7.790622 20.191257
61.919274 9.474469 10.931323
61.93515 8.41075 10.471912
63.192989 4.299822 11.435754
62.561531 4.467356 10.892553
62.835247 5.701641 11.023249
68.059646 3.957558 19.964061
67.443825 5.097837 19.982148
68.592865 2.748775 20.094677
68.475716 2.995491 19.201789
68.059646 3.957558 19.964061
69.068908 1.554258 20.218899
68.592865 2.748775 20.094677
61.434219 -3.898579 13.315366
62.432434 -3.932764 13.492366
65.539276 -6.772214 15.680143
65.374859 -5.394614 15.02054
66.43248 -6.734354 16.034136
65.539276 -6.772214 15.680143
63.207504 8.780297 13.12542
62.82193 9.008564 12.328658
67.057476 4.693343 16.544355
66.355228 5.846101 16.502454
66.730087 5.713932 17.314597
68.60157 -6.66529 17.521547
67.970772 -6.676305 16.957038
68.41909 -5.355854 16.854125
69.217579 -6.615607 18.105338
68.60157 -6.66529 17.521547
70.675431 -6.543918 21.060288
70.527988 -7.751105 20.9952
70.416096 -6.583435 20.256345
70.11649 -1.904535 20.359977
69.833877 -0.884975 20.800967
62.334511 7.021116 10.770938
61.93515 8.41075 10.471912
62.965969 6.853582 11.314139
62.835247 5.701641 11.023249
62.334511 7.021116 10.770938
62.90464 -1.125123 12.574085
62.070034 -1.030976 12.231737
62.70705 0.334089 11.961595
63.333065 -3.982942 13.787043
62.432434 -3.932764 13.492366
63.168255 -2.540367 13.138904
64.284005 -3.994619 14.049329
63.333065 -3.982942 13.787043
65.124154 -4.024055 14.431155
64.284005 -3.994619 14.049329
64.909035 -2.61998 13.815408
65.999889 -4.019976 14.786619
65.374859 -5.394614 15.02054
65.124154 -4.024055 14.431155
64.052208 8.42179 14.737921
63.682698 8.619461 13.87914
64.858017 7.31816 14.742454
64.052208 8.42179 14.737921
65.515396 6.109452 14.884778
65.083565 6.254682 14.072292
64.858017 7.31816 14.742454
62.164547 3.212427 10.909313
62.561531 4.467356 10.892553
62.395859 1.746886 11.462152
62.164547 3.212427 10.909313
63.230464 1.652739 11.804501
62.70705 0.334089 11.961595
62.395859 1.746886 11.462152
67.013443 5.525959 18.208259
66.730087 5.713932 17.314597
67.268524 5.347508 19.065596
67.443825 5.097837 19.982148
67.687416 4.382723 18.213836
67.013443 5.525959 18.208259
67.268524 5.347508 19.065596
69.475845 0.318925 20.504779
69.41587 0.551376 19.618286
69.068908 1.554258 20.218899
69.833877 -0.884975 20.800967
69.475845 0.318925 20.504779
61.328932 -2.411542 12.634946
62.070034 -1.030976 12.231737
61.328932 -2.411542 12.634946
61.434219 -3.898579 13.315366
62.316646 9.202561 11.648307
61.919274 9.474469 10.931323
62.970517 7.979059 11.742179
62.316646 9.202561 11.648307
62.82193 9.008564 12.328658
63.950993 7.624227 13.176248
63.207504 8.780297 13.12542
63.682698 8.619461 13.87914
65.986232 5.999221 15.643576
66.355228 5.846101 16.502454
66.211781 4.935742 14.973413
65.515396 6.109452 14.884778
65.986232 5.999221 15.643576
67.201329 -6.72252 16.490942
66.43248 -6.734354 16.034136
67.019443 -5.378702 15.83281
67.201329 -6.72252 16.490942
67.970772 -6.676305 16.957038
69.684986 -6.61414 18.779213
69.217579 -6.615607 18.105338
69.517296 -5.343372 18.092509
69.826961 -7.838499 19.49165
69.684986 -6.61414 18.779213
70.126678 -6.566263 19.47882
69.897492 -9.054016 20.283967
69.826961 -7.838499 19.49165
70.307263 -8.951158 21.017847
69.897492 -9.054016 20.283967
70.307263 -8.951158 21.017847
70.527988 -7.751105 20.9952
70.267434 -3.024032 19.970374
69.973751 -1.803454 19.514564
70.11649 -1.904535 20.359977
70.486855 -4.25068 20.56861
70.344116 -4.149599 19.723196
70.267434 -3.024032 19.970374
70.674904 -5.422139 21.188267
70.486855 -4.25068 20.56861
70.675431 -6.543918 21.060288
70.674904 -5.422139 21.188267
3 36 9 37
3 0 12 10
3 0 13 12
3 1 17 15
3 1 19 17
3 1 21 19
3 2 38 40
3 38 22 39
3 38 39 40
3 2 23 22
3 41 24 42
3 43 25 44
3 45 44 24
3 43 44 45
3 47 46 25
3 49 48 11
3 4 50 51
3 4 52 53
3 54 27 55
3 5 28 14
3 5 29 28
3 3 56 58
3 56 30 57
3 56 57 58
3 6 31 16
3 6 32 31
3 6 33 32
3 7 34 18
3 7 59 61
3 61 60 34
3 59 60 61
3 7 62 63
3 8 35 20
3 8 64 66
3 66 65 35
3 64 65 66
3 68 67 26
3 9 69 70
3 9 71 73
3 71 2 72
3 71 72 73
3 10 74 76
3 74 11 75
3 74 75 76
3 12 11 10
3 12 77 79
3 79 78 11
3 77 78 79
3 12 80 81
3 13 82 84
3 84 83 12
3 82 83 84
3 13 85 87
3 85 4 86
3 85 86 87
3 88 14 89
3 90 14 91
3 92 5 93
3 94 93 14
3 92 93 94
3 15 16 3
3 17 16 15
3 17 6 16
3 17 18 6
3 19 18 17
3 19 7 18
3 19 20 7
3 21 20 19
3 21 8 20
3 22 95 96
3 22 97 98
3 22 99 101
3 99 10 100
3 99 100 101
3 23 10 22
3 23 0 10
3 102 3 103
3 24 104 105
3 24 106 108
3 106 3 107
3 106 107 108
3 24 15 3
3 25 15 24
3 25 1 15
3 25 26 1
3 109 26 110
3 111 110 25
3 109 110 111
3 113 112 26
3 11 114 115
3 117 116 11
3 118 9 119
3 27 120 122
3 120 9 121
3 120 121 122
3 27 2 9
3 14 123 125
3 123 27 124
3 123 124 125
3 28 27 14
3 28 2 27
3 28 23 2
3 29 23 28
3 29 0 23
3 30 126 127
3 30 128 130
3 128 5 129
3 128 129 130
3 16 30 3
3 31 30 16
3 31 5 30
3 31 29 5
3 32 29 31
3 32 0 29
3 32 13 0
3 33 13 32
3 33 4 13
3 18 33 6
3 34 33 18
3 34 4 33
3 34 131 133
3 133 132 4
3 131 132 133
3 135 134 34
3 20 136 138
3 138 137 7
3 136 137 138
3 35 139 141
3 141 140 20
3 139 140 141
3 35 142 143
3 35 144 145
3 147 146 35
3 26 21 1
3 148 21 149
3 150 149 26
3 148 149 150
3 151 8 152
3 153 152 21
3 151 152 153
3 154 8 155
3 157 156 8
