ply
format ascii 1.0
element vertex 156
property float x
property float y
property float z
element face 133
property list uchar int vertex_index
end_header
-0.107111 64.158707 44.861046
-0.841522 59.09737 34.456722
-0.271091 69.474213 36.961067
-0.133617 62.141613 39.700516
-0.396723 54.21735 42.039337
-1.015438 70.526993 41.805161
-0.149803 66.919693 40.971992
-0.137121 65.915192 38.385651
0.013361 63.322193 42.332413
-0.04031 55.578014 44.685501
-0.998003 73.226669 37.835369
-1.768984 73.166214 40.042324
-0.700806 63.000851 33.110077
-2.880291 72.548264 41.97316
-0.996347 55.141407 35.746914
-1.168486 57.391674 31.973608
-0.34164 68.297119 34.345184
-0.35478 64.578369 35.738972
-0.455973 60.70483 37.051048
0.041145 59.51836 43.566498
-0.229372 58.220997 40.915676
-0.614372 56.737247 38.287701
-0.803341 52.729877 39.451927
-0.99765 48.728268 40.544643
-0.570412 72.751709 35.416946
-0.476921 70.242126 39.474991
-0.469023 67.507111 43.411903
-1.908613 70.282166 43.875423
-1.139751 67.611572 45.62011
-2.258426 74.276688 39.089309
-1.755172 74.49353 38.04883
-0.9488 60.183017 32.510098
-0.878442 62.134758 31.836776
-0.771164 61.04911 33.7834
-1.126383 54.315438 34.543331
-1.069282 53.158474 36.362348
-0.306366 68.885666 35.653126
-0.397328 70.046913 33.602764
-0.362054 70.63546 34.910705
0.097975 58.12751 45.441847
0.067315 60.031796 44.862812
-0.918784 47.453148 42.289656
-0.803527 49.457886 41.811088
-1.005593 45.472637 42.800506
-1.084458 46.747757 41.055494
-0.918784 47.453148 42.289656
-0.820846 74.218666 34.582157
-0.650134 73.882004 33.345703
-2.524985 69.887841 44.749201
-2.394452 71.415215 42.924291
-3.010824 71.02089 43.798069
-1.259375 66.059326 47.435858
-1.655806 67.403137 46.570944
-0.849974 66.092254 46.407916
-1.259375 66.059326 47.435858
-1.309468 57.545079 28.894739
-1.23319 58.421516 30.060852
-1.244765 56.515236 30.807495
0.028922 54.19086 46.516617
0.057248 56.157337 46.001349
-0.123191 53.572498 45.19263
0.028922 54.19086 46.516617
-0.301397 52.892166 43.869549
-0.218517 54.897682 43.362419
-0.123191 53.572498 45.19263
-0.503063 52.202427 42.558436
-0.301397 52.892166 43.869549
-1.369681 74.523758 36.945352
-1.034641 74.456146 35.791369
-1.383493 73.196441 38.938846
-1.369681 74.523758 36.945352
-1.755172 74.49353 38.04883
-0.820646 64.041663 31.112825
-0.651252 64.901266 32.408361
-0.820646 64.041663 31.112825
-0.878442 62.134758 31.836776
-0.006813 62.351969 45.510086
-0.13062 62.688502 46.731459
-3.470957 73.469773 40.955902
-2.81408 73.967713 40.054727
-3.404745 74.889221 39.03747
-3.586172 71.967553 42.775976
-3.470957 73.469773 40.955902
-3.010824 71.02089 43.798069
-3.586172 71.967553 42.775976
-1.212452 55.440571 32.656678
-1.082416 56.266541 33.860261
-1.126383 54.315438 34.543331
-1.244765 56.515236 30.807495
-1.212452 55.440571 32.656678
-0.460141 69.370285 32.293194
-0.397328 70.046913 33.602764
-0.471669 67.5494 33.025915
-0.460141 69.370285 32.293194
-0.478239 65.690025 33.722809
-0.471669 67.5494 33.025915
-0.34821 66.437744 35.042078
-0.527793 63.78961 34.424524
-0.651252 64.901266 32.408361
-0.478239 65.690025 33.722809
0.053423 61.933712 44.24577
-0.046875 63.74045 43.59673
-0.006813 62.351969 45.510086
0.027253 61.420276 42.949455
0.053423 61.933712 44.24577
0.067315 60.031796 44.862812
0.000418 57.548187 44.126
0.097975 58.12751 45.441847
0.057248 56.157337 46.001349
-0.972779 51.952709 38.214855
-1.069282 53.158474 36.362348
-0.899844 53.935642 37.59942
-0.706372 51.458691 41.26473
-0.600032 53.473613 40.745632
-0.503063 52.202427 42.558436
-0.900496 50.729073 39.998285
-0.706372 51.458691 41.26473
-0.803527 49.457886 41.811088
-1.069934 49.951904 38.761213
-0.972779 51.952709 38.214855
-0.900496 50.729073 39.998285
-1.127578 47.980839 39.345194
-1.199861 49.204476 37.561763
-1.069934 49.951904 38.761213
-1.127578 47.980839 39.345194
-1.084458 46.747757 41.055494
-0.511714 72.274208 34.138645
-0.650134 73.882004 33.345703
-0.420752 71.112961 36.189007
-0.362054 70.63546 34.910705
-0.511714 72.274208 34.138645
-0.784207 72.989189 36.626158
-0.820846 74.218666 34.582157
-1.034641 74.456146 35.791369
-2.324638 72.857239 41.007742
-2.258426 74.276688 39.089309
-2.81408 73.967713 40.054727
-2.040236 68.738434 45.6986
-2.524985 69.887841 44.749201
-2.656608 68.344109 46.572378
-1.524182 68.946869 44.747766
-2.040236 68.738434 45.6986
-1.655806 67.403137 46.570944
-0.51461 66.040024 45.303812
-0.804387 67.559341 44.516007
-0.849974 66.092254 46.407916
-0.333654 64.365822 46.028384
-0.288067 65.832909 44.136475
-0.51461 66.040024 45.303812
-0.13062 62.688502 46.731459
-0.333654 64.365822 46.028384
-1.112282 59.330169 31.268541
-0.9488 60.183017 32.510098
-1.005004 58.244522 33.215165
-1.112282 59.330169 31.268541
-1.23319 58.421516 30.060852
3 0 8 6
3 29 11 30
3 1 31 33
3 33 32 12
3 31 32 33
3 35 34 14
3 2 36 38
3 36 16 37
3 36 37 38
3 3 17 7
3 3 18 17
3 39 19 40
3 4 20 9
3 4 21 20
3 4 22 21
3 41 23 42
3 45 44 23
3 43 44 45
3 46 24 47
3 5 25 10
3 5 26 25
3 48 27 49
3 50 49 13
3 48 49 50
3 51 28 52
3 54 53 28
3 57 56 15
3 55 56 57
3 6 7 2
3 8 7 6
3 8 3 7
3 58 9 59
3 60 9 61
3 62 4 63
3 64 63 9
3 62 63 64
3 66 65 4
3 67 10 68
3 11 69 71
3 69 10 70
3 69 70 71
3 11 5 10
3 12 72 73
3 75 74 12
3 77 76 0
3 78 13 79
3 78 79 80
3 81 13 82
3 84 83 13
3 14 15 1
3 85 15 86
3 87 86 14
3 85 86 87
3 89 88 15
3 16 90 91
3 16 92 93
3 7 16 2
3 17 16 7
3 17 94 96
3 96 95 16
3 94 95 96
3 17 97 99
3 97 12 98
3 97 98 99
3 18 12 17
3 18 1 12
3 100 8 101
3 102 101 0
3 100 101 102
3 19 103 105
3 103 8 104
3 103 104 105
3 19 3 8
3 9 106 108
3 106 19 107
3 106 107 108
3 20 19 9
3 20 3 19
3 20 18 3
3 21 18 20
3 21 1 18
3 21 14 1
3 22 14 21
3 22 109 111
3 111 110 14
3 109 110 111
3 112 22 113
3 114 113 4
3 112 113 114
3 23 115 117
3 115 22 116
3 115 116 117
3 23 118 120
3 120 119 22
3 118 119 120
3 23 121 123
3 121 122 123
3 125 124 23
3 24 126 127
3 24 128 130
3 128 2 129
3 128 129 130
3 10 131 133
3 131 24 132
3 131 132 133
3 25 24 10
3 25 2 24
3 25 6 2
3 26 6 25
3 26 0 6
3 13 134 136
3 134 11 135
3 134 135 136
3 27 11 13
3 27 5 11
3 137 27 138
3 137 138 139
3 28 140 142
3 140 27 141
3 140 141 142
3 28 5 27
3 28 26 5
3 143 26 144
3 145 144 28
3 143 144 145
3 146 0 147
3 148 147 26
3 146 147 148
3 150 149 0
3 15 151 153
3 153 152 1
3 151 152 153
3 155 154 15
