ply
format ascii 1.0
element vertex 211
property float x
property float y
property float z
element face 202
property list uchar int vertex_index
end_header
51.511284 17.427155 7.569449
50.940903 2.91194 11.220535
57.57933 13.828037 7.335328
58.359665 1.020283 10.80404
51.310772 10.171793 8.971285
58.034004 7.389765 8.507599
60.879627 6.290035 9.590255
61.872444 0.428236 11.619246
54.897209 22.433052 6.948667
57.151421 20.281399 7.512169
54.875549 15.630539 7.116493
54.850883 8.73764 8.390144
54.695423 1.886515 10.739973
49.4524 10.882769 9.358572
51.424423 13.811142 8.156948
60.289871 9.217936 8.918695
61.405067 8.648443 9.881994
62.203789 5.869175 10.480048
49.069649 3.438725 11.521382
50.684425 -0.660236 12.545163
54.94352 25.76659 7.075564
56.121235 24.64724 7.45155
58.272865 16.063976 7.781489
57.349445 17.055611 7.271176
56.222366 18.055904 6.997033
56.314667 14.724247 7.114382
54.873562 12.188038 7.599166
56.41106 11.382809 7.559142
58.216763 4.191509 9.552036
56.534737 4.718222 9.403024
56.543308 1.424438 10.683702
54.567902 -1.474163 12.146109
49.290661 7.150736 10.364773
51.152042 6.530769 10.006739
58.684982 12.962315 7.81319
57.815964 10.604387 7.750852
59.101498 9.875347 8.202601
59.49316 6.799688 8.926099
59.841038 3.734936 9.923486
60.139053 0.686695 11.116209
61.409821 3.359318 10.513569
51.5942 21.000549 7.170314
53.494179 26.863705 6.797951
53.39682 23.480061 6.875297
53.323997 20.031551 7.000626
56.154526 21.367271 7.146785
54.877365 19.049984 6.923466
53.266235 16.533577 7.289663
53.205112 13.001572 7.820581
53.119698 9.452902 8.623346
52.994072 5.907806 9.680573
56.489471 8.042934 8.336325
54.792694 5.297176 9.459251
52.823421 2.388758 10.937243
52.616371 -1.081436 12.315205
50.53846 16.018549 8.05154
50.581526 17.868067 7.727529
51.467854 15.619148 7.863198
50.49503 14.210542 8.345289
50.53846 16.018549 8.05154
61.38919 9.712162 10.341405
60.975508 10.032739 9.722997
61.919274 9.474469 10.931323
61.93515 8.41075 10.471912
61.38919 9.712162 10.341405
49.86729 1.342081 11.996582
48.931663 1.605474 12.147005
50.005276 3.175332 11.370959
50.812664 1.125852 11.882849
49.739052 -0.444007 12.658896
49.86729 1.342081 11.996582
56.509077 25.67 7.957273
56.119093 26.264727 7.608944
57.441299 -0.40063 11.44624
56.533121 -0.198552 11.38607
57.451487 1.222361 10.743871
58.414058 -0.544953 11.489932
57.441299 -0.40063 11.44624
59.173226 12.556717 8.186323
58.856817 14.032874 8.179339
59.381484 11.013233 8.381028
58.89324 11.418831 8.007896
59.173226 12.556717 8.186323
62.561531 4.467356 10.892553
62.835247 5.701641 11.023249
51.643816 22.756872 7.024439
50.665245 21.479198 7.27018
54.252544 27.949787 6.980549
53.553778 28.514643 6.717302
57.369322 21.299744 8.064498
57.525055 19.732264 7.794906
57.076366 21.889662 7.734457
57.369322 21.299744 8.064498
56.652974 20.824335 7.329477
56.577919 22.432598 7.551766
57.076366 21.889662 7.734457
53.410688 -4.624008 13.658889
53.48053 -2.977995 12.937516
54.49806 -3.120176 12.867482
61.131342 -0.95233 12.022455
60.264646 -0.8231 11.770937
61.005748 0.557466 11.367728
49.509018 12.746356 8.946101
48.517948 11.230566 9.533257
50.438412 12.346955 8.75776
49.509018 12.746356 8.946101
50.49503 14.210542 8.345289
60.41791 10.317485 9.241347
59.97567 10.684527 8.739076
60.847469 8.93319 9.400344
60.41791 10.317485 9.241347
60.975508 10.032739 9.722997
62.334511 7.021116 10.770938
61.804428 7.258809 10.181021
61.93515 8.41075 10.471912
62.835247 5.701641 11.023249
62.334511 7.021116 10.770938
48.020634 1.819935 12.225271
48.15448 3.697241 11.644015
48.020634 1.819935 12.225271
48.931663 1.605474 12.147005
49.583637 -2.242398 13.297559
49.739052 -0.444007 12.658896
50.543982 -2.411584 13.223741
49.583637 -2.242398 13.297559
55.530236 26.824402 7.420951
54.977215 27.40123 7.119356
55.56393 28.459042 7.464742
55.532377 25.206915 7.263557
55.530236 26.824402 7.420951
56.119093 26.264727 7.608944
58.085777 17.623552 7.929566
58.353363 17.076721 8.323018
57.624067 18.119369 7.67441
58.085777 17.623552 7.929566
57.811155 16.559793 7.526332
57.250433 18.668505 7.391673
57.525055 19.732264 7.794906
57.624067 18.119369 7.67441
55.545418 -1.647853 12.117274
55.555605 -0.024862 11.414905
56.533121 -0.198552 11.38607
54.49806 -3.120176 12.867482
55.545418 -1.647853 12.117274
62.070034 -1.030976 12.231737
62.70705 0.334089 11.961595
48.44796 9.31991 10.018428
48.517948 11.230566 9.533257
48.367091 7.453893 10.521528
48.44796 9.31991 10.018428
49.37153 9.016752 9.861673
48.264986 5.553247 11.065711
48.367091 7.453893 10.521528
49.180155 5.294731 10.943077
48.15448 3.697241 11.644015
48.264986 5.553247 11.065711
58.650759 15.583704 8.163489
58.353363 17.076721 8.323018
58.478924 14.513146 7.797339
58.650759 15.583704 8.163489
58.856817 14.032874 8.179339
59.695684 9.546641 8.560648
59.381484 11.013233 8.381028
59.97567 10.684527 8.739076
62.164547 3.212427 10.909313
61.806805 4.614247 10.496809
62.561531 4.467356 10.892553
62.395859 1.746886 11.462152
61.641132 1.893777 11.066408
62.164547 3.212427 10.909313
62.70705 0.334089 11.961595
62.395859 1.746886 11.462152
50.622984 19.654764 7.527961
50.665245 21.479198 7.27018
51.552742 19.213852 7.369881
50.581526 17.868067 7.727529
50.622984 19.654764 7.527961
52.657666 27.405014 6.690571
53.553778 28.514643 6.717302
52.593806 25.68845 6.838258
52.657666 27.405014 6.690571
54.21885 26.315148 6.936758
54.252544 27.949787 6.980549
54.977215 27.40123 7.119356
52.545126 23.996628 6.876931
52.593806 25.68845 6.838258
53.445499 25.171883 6.836624
52.49551 22.240305 7.022806
51.643816 22.756872 7.024439
52.545126 23.996628 6.876931
56.561273 24.072582 7.704148
56.509077 25.67 7.957273
56.13788 23.007255 7.299168
56.561273 24.072582 7.704148
56.577919 22.432598 7.551766
51.509954 -2.622184 13.108762
50.543982 -2.411584 13.223741
51.650398 -0.870836 12.430184
52.504765 -2.781632 13.022064
53.592136 -1.277799 12.230657
53.48053 -2.977995 12.937516
51.509954 -2.622184 13.108762
52.504765 -2.781632 13.022064
59.303753 -0.711747 11.646016
58.414058 -0.544953 11.489932
59.249359 0.853489 10.960124
59.303753 -0.711747 11.646016
60.264646 -0.8231 11.770937
61.328932 -2.411542 12.634946
61.131342 -0.95233 12.022455
62.070034 -1.030976 12.231737
3 0 55 56
3 0 57 59
3 57 14 58
3 57 58 59
3 60 16 61
3 64 63 16
3 62 63 64
3 1 65 67
3 67 66 18
3 65 66 67
3 1 68 70
3 68 19 69
3 68 69 70
3 71 21 72
3 2 23 22
3 2 25 23
3 2 27 25
3 3 30 28
3 3 73 75
3 75 74 30
3 73 74 75
3 3 76 77
3 4 32 13
3 4 33 32
3 78 34 79
3 80 36 81
3 82 81 34
3 80 81 82
3 6 37 15
3 6 38 37
3 6 40 38
3 84 83 17
3 85 41 86
3 87 42 88
3 8 43 20
3 8 44 43
3 9 89 90
3 9 91 92
3 9 93 95
3 93 45 94
3 93 94 95
3 10 46 24
3 10 47 46
3 10 48 47
3 11 49 26
3 11 50 49
3 5 51 35
3 12 52 29
3 12 53 52
3 12 54 53
3 98 97 31
3 96 97 98
3 7 99 101
3 101 100 39
3 99 100 101
3 102 13 103
3 14 104 106
3 104 13 105
3 104 105 106
3 14 4 13
3 107 15 108
3 16 109 111
3 109 15 110
3 109 110 111
3 16 6 15
3 16 17 6
3 112 17 113
3 114 113 16
3 112 113 114
3 116 115 17
3 18 117 118
3 120 119 18
3 19 121 122
3 19 123 124
3 125 20 126
3 125 126 127
3 21 128 130
3 128 20 129
3 128 129 130
3 21 8 20
3 22 131 132
3 23 133 135
3 135 134 22
3 133 134 135
3 23 136 138
3 136 9 137
3 136 137 138
3 23 24 9
3 25 24 23
3 25 10 24
3 25 26 10
3 27 26 25
3 27 11 26
3 28 29 5
3 30 29 28
3 30 12 29
3 30 31 12
3 139 31 140
3 141 140 30
3 139 140 141
3 143 142 31
3 145 144 7
3 13 146 147
3 32 148 150
3 150 149 13
3 148 149 150
3 32 151 152
3 32 153 155
3 153 18 154
3 153 154 155
3 33 18 32
3 33 1 18
3 156 22 157
3 34 158 160
3 158 22 159
3 158 159 160
3 34 2 22
3 34 35 2
3 36 35 34
3 36 5 35
3 15 161 163
3 161 36 162
3 161 162 163
3 37 36 15
3 37 5 36
3 37 28 5
3 38 28 37
3 38 3 28
3 38 39 3
3 40 39 38
3 40 7 39
3 17 40 6
3 164 40 165
3 166 165 17
3 164 165 166
3 167 7 168
3 169 168 40
3 167 168 169
3 171 170 7
3 41 172 173
3 41 174 176
3 174 0 175
3 174 175 176
3 42 177 178
3 42 179 180
3 20 181 183
3 181 42 182
3 181 182 183
3 43 42 20
3 43 184 186
3 186 185 42
3 184 185 186
3 43 187 189
3 187 41 188
3 187 188 189
3 44 41 43
3 44 0 41
3 190 21 191
3 45 192 194
3 192 21 193
3 192 193 194
3 45 8 21
3 24 45 9
3 46 45 24
3 46 8 45
3 46 44 8
3 47 44 46
3 47 0 44
3 47 14 0
3 48 14 47
3 48 4 14
3 26 48 10
3 49 48 26
3 49 4 48
3 49 33 4
3 50 33 49
3 50 1 33
3 35 27 2
3 51 27 35
3 51 11 27
3 29 51 5
3 52 51 29
3 52 11 51
3 52 50 11
3 53 50 52
3 53 1 50
3 53 19 1
3 54 19 53
3 54 195 197
3 197 196 19
3 195 196 197
3 31 54 12
3 198 54 199
3 200 199 31
3 198 199 200
3 202 201 54
3 39 203 205
3 205 204 3
3 203 204 205
3 207 206 39
3 210 209 7
3 208 209 210
