ply
format ascii 1.0
element vertex 231
property float x
property float y
property float z
element face 224
property list uchar int vertex_index
end_header
-52.695183 27.580383 16.441805
-60.766991 12.350153 13.312594
-56.853912 18.741833 9.837709
-56.906548 15.538898 16.139454
-58.443008 15.377499 11.301992
-55.267059 19.087677 14.437245
-54.883076 27.157082 12.063441
-52.091297 23.047775 17.849596
-63.649513 8.834908 11.338337
-63.393623 9.378967 15.528975
-59.570946 12.432526 18.241495
-61.170998 11.489435 9.226925
-58.805042 14.319645 7.512985
-56.779884 17.411667 6.540452
-54.784794 23.051666 13.179343
-55.869778 22.354137 8.960024
-55.931351 17.249828 15.226385
-54.042759 18.999424 16.891369
-64.792206 7.631908 14.379086
-64.617073 7.74885 16.607851
-61.056221 10.933184 19.341724
-62.359196 10.636356 12.194801
-62.426327 10.161463 10.2644
-61.095085 12.041241 11.10887
-57.550476 17.016747 10.49003
-58.804131 14.982391 9.210113
-57.859337 16.56675 8.491041
-57.753845 15.838924 6.926077
-57.047409 18.219254 7.953798
-52.297344 25.303654 17.165951
-53.584839 23.116196 15.513807
-53.744057 25.272339 14.888427
-55.200989 26.696438 10.068111
-55.398018 24.755703 10.506989
-55.435226 24.189079 8.659721
-55.640358 21.64032 7.364129
-54.921177 23.370232 7.234078
-58.926025 13.970985 14.646454
-59.529282 13.829132 12.25601
-57.784851 15.548065 13.652399
-56.881538 17.229412 12.779814
-56.236404 19.016609 12.046827
-54.016754 27.43866 14.228592
-54.283527 29.587036 13.475876
-51.057755 27.619617 18.621996
-64.780914 7.410013 12.393291
-63.613083 9.194183 13.297291
-62.08358 10.89016 14.419983
-63.009109 9.434381 17.928375
-61.636993 10.978172 16.832401
-60.24128 12.466967 15.722979
-58.149155 13.946388 17.157623
-63.489758 8.209259 9.761127
-59.891357 13.477188 10.095688
-59.948948 12.869099 8.291464
-53.654755 21.010342 16.16464
-54.904404 21.033447 13.765247
-55.822624 20.888298 11.446453
-54.814117 25.103493 12.630903
-55.573463 22.811958 10.948626
-56.315956 20.530361 9.337609
-56.327736 19.917999 7.588624
-55.845253 19.018158 6.341092
-53.357372 18.895012 18.111579
-54.417318 18.059908 17.308203
-65.154537 6.854503 17.129046
-65.233731 6.819759 16.021588
-55.185837 25.10499 8.522171
-55.318107 25.442759 9.363916
-55.068718 26.358669 9.226366
-54.928812 24.695566 7.809349
-55.178202 23.779656 7.946899
-55.185837 25.10499 8.522171
-54.518785 24.235918 7.189735
-54.928812 24.695566 7.809349
-53.92197 30.826489 14.053847
-53.71987 29.714344 14.545255
-50.163491 27.603209 19.678796
-50.83728 26.427256 19.008561
-65.287338 6.592847 12.906986
-65.158329 6.518957 12.05614
-62.746447 9.405414 19.170427
-63.63591 8.604434 18.454511
-63.569636 8.522084 10.549732
-64.043982 7.617011 10.268868
-64.12386 7.929836 11.057473
-61.707149 10.445253 8.981327
-62.334814 9.781267 9.500065
-61.798662 10.825449 9.745662
-61.056801 11.069036 8.504584
-61.707149 10.445253 8.981327
-59.228363 13.143398 7.240032
-59.800316 12.418126 7.629272
-59.376995 13.594372 7.902224
-58.605499 13.837833 6.92553
-59.228363 13.143398 7.240032
-56.996009 16.107748 6.230463
-57.48299 15.321376 6.423276
-57.266864 16.625296 6.733265
-56.416718 16.852724 6.127558
-56.996009 16.107748 6.230463
-52.873026 22.029059 17.007118
-52.92276 20.935345 17.359704
-52.141031 21.954062 18.202182
-55.373547 19.830094 6.316721
-55.742806 20.329239 6.85261
-55.271099 21.141174 6.82824
-55.372368 18.414084 6.019103
-55.373547 19.830094 6.316721
-55.361615 17.18511 16.475711
-56.418949 16.394363 15.68292
-55.849213 16.329645 16.932246
-54.987055 18.124626 16.058877
-55.361615 17.18511 16.475711
-54.417318 18.059908 17.308203
-65.321297 6.761289 14.907205
-65.292984 6.703795 13.899884
-64.704639 7.690379 15.493468
-65.321297 6.761289 14.907205
-65.233731 6.819759 16.021588
-60.716599 10.851093 20.612285
-61.770003 10.154816 19.877102
-59.930656 11.602693 20.0688
-60.716599 10.851093 20.612285
-59.188019 12.352364 19.518686
-60.313584 11.682855 18.791609
-59.930656 11.602693 20.0688
-58.417402 13.110605 18.974939
-59.188019 12.352364 19.518686
-54.911508 22.006131 6.763214
-55.271099 21.141174 6.82824
-55.280767 22.505276 7.299104
-54.412737 22.822649 6.789236
-54.911508 22.006131 6.763214
-54.412737 22.822649 6.789236
-54.518785 24.235918 7.189735
-53.586483 28.640156 14.921613
-53.355969 27.509521 15.335199
-52.925697 28.711018 16.028219
-54.15014 28.512848 13.852234
-53.586483 28.640156 14.921613
-53.71987 29.714344 14.545255
-54.363028 30.644949 13.029408
-53.92197 30.826489 14.053847
-54.586134 29.389862 12.449355
-54.363028 30.644949 13.029408
-54.885908 28.174885 11.743137
-54.583302 28.372059 12.769658
-54.586134 29.389862 12.449355
-55.044865 27.944563 10.745472
-55.042033 26.92676 11.065776
-54.885908 28.174885 11.743137
-55.05106 27.659577 9.824453
-55.044865 27.944563 10.745472
-55.068718 26.358669 9.226366
-55.05106 27.659577 9.824453
-51.266661 22.965243 18.990287
-52.141031 21.954062 18.202182
-51.354051 24.141334 18.622361
-51.266661 22.965243 18.990287
-51.457075 25.269274 18.280538
-52.194321 24.175715 17.507773
-51.354051 24.141334 18.622361
-51.677549 26.461635 17.893974
-51.457075 25.269274 18.280538
-50.83728 26.427256 19.008561
-50.471676 28.845236 19.223502
-50.163491 27.603209 19.678796
-51.346344 28.806116 18.184414
-50.471676 28.845236 19.223502
-52.165058 28.786499 17.094318
-51.876469 27.6 17.5319
-51.346344 28.806116 18.184414
-52.925697 28.711018 16.028219
-52.165058 28.786499 17.094318
-64.68956 7.217388 11.58495
-65.158329 6.518957 12.05614
-64.215214 8.122461 11.865814
-64.12386 7.929836 11.057473
-64.68956 7.217388 11.58495
-64.78656 7.520961 13.386188
-65.287338 6.592847 12.906986
-65.292984 6.703795 13.899884
-64.439892 7.761669 17.794249
-65.154537 6.854503 17.129046
-63.813091 8.591615 17.268113
-64.439892 7.761669 17.794249
-63.63591 8.604434 18.454511
-62.032665 10.183782 18.63505
-62.746447 9.405414 19.170427
-61.770003 10.154816 19.877102
-57.706507 13.867536 18.433003
-58.86005 13.189457 17.699559
-58.417402 13.110605 18.974939
-57.018889 14.667568 17.914314
-57.706507 13.867536 18.433003
-56.57624 14.588717 19.189694
-56.397585 15.463823 17.40523
-57.527851 14.742643 16.648539
-57.018889 14.667568 17.914314
-55.849213 16.329645 16.932246
-56.397585 15.463823 17.40523
-63.888876 7.228879 9.699403
-64.043982 7.617011 10.268868
-63.29484 7.71734 9.202315
-63.888876 7.228879 9.699403
-62.866529 8.805165 9.248428
-62.958043 9.185361 10.012764
-62.334814 9.781267 9.500065
-63.29484 7.71734 9.202315
-62.866529 8.805165 9.248428
-60.445776 11.758868 8.036854
-61.056801 11.069036 8.504584
-60.559973 12.179267 8.759194
-60.445776 11.758868 8.036854
-59.800316 12.418126 7.629272
-58.079901 14.597473 6.632076
-58.605499 13.837833 6.92553
-58.279443 15.079284 7.219531
-58.079901 14.597473 6.632076
-57.48299 15.321376 6.423276
-53.116762 19.929886 17.723069
-53.357372 18.895012 18.111579
-53.848757 20.004883 16.528005
-53.116762 19.929886 17.723069
-52.92276 20.935345 17.359704
-55.949402 17.655969 6.027878
-56.416718 16.852724 6.127558
-56.312568 18.214913 6.440772
-55.949402 17.655969 6.027878
-55.372368 18.414084 6.019103
3 63 17 64
3 65 19 66
3 1 23 21
3 2 26 24
3 2 28 26
3 0 31 29
3 67 34 68
3 69 68 32
3 67 68 69
3 70 36 71
3 72 71 34
3 70 71 72
3 74 73 36
3 3 39 37
3 5 40 16
3 5 41 40
3 75 43 76
3 77 44 78
3 79 45 80
3 9 46 18
3 9 47 46
3 81 48 82
3 10 49 20
3 10 50 49
3 10 51 50
3 8 83 85
3 83 52 84
3 83 84 85
3 11 86 88
3 88 87 22
3 86 87 88
3 11 89 90
3 4 53 38
3 12 54 25
3 12 91 93
3 93 92 54
3 91 92 93
3 12 94 95
3 13 96 98
3 98 97 27
3 96 97 98
3 13 99 100
3 7 101 103
3 101 55 102
3 101 102 103
3 14 56 30
3 14 57 56
3 6 58 42
3 15 59 33
3 15 60 59
3 15 61 60
3 104 62 105
3 106 105 35
3 104 105 106
3 108 107 62
3 109 16 110
3 111 110 3
3 109 110 111
3 17 112 114
3 112 16 113
3 112 113 114
3 17 5 16
3 115 18 116
3 19 117 119
3 117 18 118
3 117 118 119
3 19 9 18
3 120 20 121
3 122 20 123
3 124 10 125
3 126 125 20
3 124 125 126
3 128 127 10
3 21 22 8
3 23 22 21
3 23 11 22
3 24 25 4
3 26 25 24
3 26 12 25
3 26 27 12
3 28 27 26
3 28 13 27
3 29 30 7
3 31 30 29
3 31 14 30
3 32 33 6
3 34 33 32
3 34 15 33
3 34 35 15
3 36 35 34
3 36 129 131
3 131 130 35
3 129 130 131
3 36 132 133
3 135 134 36
3 37 38 1
3 39 38 37
3 39 4 38
3 16 39 3
3 40 39 16
3 40 4 39
3 40 24 4
3 41 24 40
3 41 2 24
3 136 42 137
3 138 137 0
3 136 137 138
3 43 139 141
3 139 42 140
3 139 140 141
3 43 6 42
3 142 43 143
3 144 43 145
3 146 6 147
3 148 147 43
3 146 147 148
3 149 32 150
3 151 150 6
3 149 150 151
3 152 32 153
3 155 154 32
3 156 7 157
3 158 7 159
3 160 29 161
3 162 161 7
3 160 161 162
3 44 163 165
3 163 29 164
3 163 164 165
3 44 0 29
3 166 44 167
3 168 44 169
3 170 0 171
3 172 171 44
3 170 171 172
3 174 173 0
3 45 175 176
3 45 177 179
3 177 8 178
3 177 178 179
3 18 180 182
3 180 45 181
3 180 181 182
3 46 45 18
3 46 8 45
3 46 21 8
3 47 21 46
3 47 1 21
3 183 19 184
3 48 185 187
3 185 19 186
3 185 186 187
3 48 9 19
3 20 188 190
3 188 48 189
3 188 189 190
3 49 48 20
3 49 9 48
3 49 47 9
3 50 47 49
3 50 1 47
3 50 37 1
3 51 37 50
3 51 3 37
3 191 51 192
3 193 192 10
3 191 192 193
3 194 51 195
3 194 195 196
3 197 3 198
3 199 198 51
3 197 198 199
3 201 200 3
3 52 202 203
3 52 204 205
3 22 52 8
3 206 52 207
3 208 207 22
3 206 207 208
3 210 209 52
3 38 23 1
3 53 23 38
3 53 11 23
3 25 53 4
3 54 53 25
3 54 11 53
3 54 211 213
3 213 212 11
3 211 212 213
3 215 214 54
3 27 216 218
3 218 217 12
3 216 217 218
3 220 219 27
3 221 17 222
3 55 223 225
3 223 17 224
3 223 224 225
3 55 5 17
3 30 55 7
3 56 55 30
3 56 5 55
3 56 41 5
3 57 41 56
3 57 2 41
3 42 31 0
3 58 31 42
3 58 14 31
3 33 58 6
3 59 58 33
3 59 14 58
3 59 57 14
3 60 57 59
3 60 2 57
3 60 28 2
3 61 28 60
3 61 13 28
3 35 61 15
3 62 61 35
3 62 13 61
3 62 226 228
3 228 227 13
3 226 227 228
3 230 229 62
