ply
format ascii 1.0
element vertex 322
property float x
property float y
property float z
element face 336
property list uchar int vertex_index
end_header
-47.570267 -42.670341 48.502716
-36.682423 -48.692543 57.291817
-46.972691 -35.53199 53.739986
-42.128437 -39.328968 60.696468
-40.849613 -44.930809 51.265446
-33.832932 -52.702679 64.800323
-50.773323 -31.294739 54.824169
-44.424946 -37.230598 57.111046
-37.03833 -46.068962 62.458336
-35.102314 -48.028481 65.951828
-35.263351 -50.713337 61.032379
-36.989437 -51.527626 52.707569
-43.909885 -43.541908 49.468414
-42.253567 -48.51413 48.848606
-45.819389 -47.527622 48.46302
-46.532639 -38.81686 50.091316
-50.134743 -38.135033 48.369205
-49.896797 -34.442432 50.71785
-53.471634 -30.416359 51.14785
-39.866261 -41.504574 64.306534
-38.876507 -43.980194 58.83287
-38.460732 -46.712814 53.927608
-40.94215 -41.905975 55.403854
-43.465321 -40.102535 52.444157
-39.272175 -49.876953 50.241161
-48.581093 -44.769035 48.457123
-50.665985 -44.578537 48.514568
-49.586533 -42.425892 48.268173
-36.81789 -47.367325 59.836926
-36.02771 -48.387238 61.685272
-35.950134 -49.704281 59.138454
-35.284779 -52.030014 58.531799
-35.950516 -51.04084 56.652538
-36.717155 -50.069351 54.890755
-45.672108 -43.039429 48.89119
-44.708729 -45.476635 48.733906
-46.587715 -45.065056 48.511997
-47.770939 -47.185528 48.562069
-46.583405 -37.101974 51.686333
-48.150711 -36.583855 50.411503
-48.382812 -34.906708 52.177349
-52.546757 -29.31937 55.119595
-52.08765 -30.785217 52.953903
-53.818962 -28.858593 53.120964
-55.144867 -28.516239 51.173935
-42.821983 -38.156937 63.476189
-41.588665 -39.264244 65.273323
-41.009964 -40.426464 62.514084
-39.358028 -42.719658 61.547081
-40.388058 -41.64296 59.739071
-39.863014 -42.926903 57.073685
-41.453117 -40.572609 57.960236
-45.657673 -36.313515 55.3899
-43.807907 -38.602699 54.61459
-45.137474 -37.779152 53.090919
-44.929932 -39.384491 51.187885
-34.365891 -50.357746 65.300537
-34.007923 -48.952522 67.578697
-33.41753 -51.308437 67.016296
-39.570797 -45.784683 52.493885
-38.694675 -48.231262 51.899971
-39.943848 -47.39959 50.739712
-47.595314 -34.095055 56.121288
-48.88345 -33.368256 54.33979
-49.516571 -31.958836 56.73328
-44.007942 -37.042812 61.639297
-43.256596 -38.249535 58.886654
-45.179737 -35.96553 59.788235
-46.367264 -34.969906 57.943207
-37.250946 -44.782001 65.092468
-36.099995 -45.738678 66.756348
-36.102577 -47.068245 64.239021
-35.224667 -49.384827 63.517208
-34.572933 -51.713512 62.930912
-34.064289 -54.031944 62.453636
-34.672836 -53.028755 60.480362
-42.29837 -44.17638 50.25642
-41.370163 -46.652382 49.827381
-42.963608 -46.007298 49.163345
-43.973309 -47.970501 48.543579
-46.866425 -40.677597 49.028034
-48.761303 -40.357948 48.450115
-48.270119 -38.403687 49.154568
-49.840378 -36.221989 49.273071
-51.519096 -34.128834 49.374619
-50.246815 -32.80106 52.618355
-51.696648 -32.388912 50.978111
-38.661888 -42.535378 66.037651
-38.325344 -43.772655 63.344917
-37.94862 -45.03513 60.642345
-37.641827 -46.333954 58.014355
-37.506599 -47.689606 55.539665
-38.543709 -45.303528 56.263695
-39.559864 -44.299809 54.628197
-40.715408 -43.352085 53.142876
-42.58511 -39.545933 56.243729
-42.138145 -40.952789 53.853733
-42.023678 -42.491676 51.831825
-43.488033 -41.747185 50.708218
-45.104908 -41.139427 49.775505
-50.773502 -40.165794 48.013702
-37.62318 -49.12751 53.293232
-38.041065 -50.673035 51.345707
-40.680462 -49.153 49.409023
-53.968018 -28.154218 54.137338
-53.182859 -29.088981 54.120279
-53.331915 -28.384607 55.136654
-54.59061 -27.938868 53.08833
-53.968018 -28.154218 54.137338
-33.419238 -53.192009 65.708855
-33.211537 -52.494888 66.816841
-33.625231 -52.005558 65.90831
-33.621909 -53.869526 64.607033
-33.419238 -53.192009 65.708855
-48.909025 -32.36802 57.695465
-48.555943 -33.026946 56.427284
-47.948397 -33.436129 57.389469
-44.959305 -35.917875 62.058529
-44.344032 -36.478666 62.990448
-45.545202 -35.379234 61.132998
-44.59384 -36.504171 60.713766
-44.959305 -35.917875 62.058529
-47.334372 -33.873554 58.300428
-46.737566 -34.351326 59.260525
-47.948397 -33.436129 57.389469
-46.981289 -34.532481 57.032247
-47.334372 -33.873554 58.300428
-51.73946 -44.529609 48.564966
-51.181679 -43.434406 48.326477
-35.009829 -53.17994 58.260773
-35.326092 -52.69753 57.302853
-36.735928 -52.715452 52.43227
-36.54796 -51.977989 53.502403
-37.265171 -52.312334 51.763472
-36.735928 -52.715452 52.43227
-45.534723 -48.783608 48.404922
-44.611683 -49.005047 48.445202
-44.896349 -47.749061 48.503299
-46.485569 -48.594023 48.517538
-45.534723 -48.783608 48.404922
-48.446804 -48.273672 48.744171
-48.788297 -47.062521 48.671948
-53.355618 -31.265442 50.292727
-52.468125 -32.251718 50.207857
-52.584141 -31.402635 51.06298
-54.202145 -30.291117 50.287922
-53.355618 -31.265442 50.292727
-55.838039 -28.392284 50.2377
-55.895649 -27.59751 51.086937
-40.070666 -40.916437 65.653553
-40.931867 -39.796272 66.136948
-40.727463 -40.384409 64.789929
-39.264074 -42.019976 65.172092
-39.468479 -41.431839 66.519112
-40.070666 -40.916437 65.653553
-34.974746 -47.336067 67.134373
-35.473587 -46.191166 67.536632
-35.601154 -46.883579 66.354088
-33.744129 -48.229078 68.67532
-33.405334 -49.400393 68.348018
-33.83209 -55.176167 62.246864
-34.113439 -54.674324 61.224135
-39.023681 -51.111723 50.000382
-38.408127 -51.509764 50.552655
-38.65662 -50.274994 50.793434
-49.623539 -44.673786 48.485845
-50.235821 -45.759025 48.648197
-49.193375 -45.854275 48.619475
-50.641953 -42.358084 48.203279
-51.181679 -43.434406 48.326477
-50.126259 -43.502214 48.39137
-35.65896 -52.202944 56.363222
-35.326092 -52.69753 57.302853
-35.617648 -51.535427 57.592168
-36.028499 -51.734596 55.474888
-35.65896 -52.202944 56.363222
-36.411819 -51.248852 54.593996
-36.028499 -51.734596 55.474888
-36.333835 -50.555096 55.771647
-36.853296 -50.798488 53.799162
-36.54796 -51.977989 53.502403
-36.411819 -51.248852 54.593996
-49.193375 -45.854275 48.619475
-48.788297 -47.062521 48.671948
-48.176016 -45.977282 48.509596
-55.253563 -27.767691 52.114815
-54.481915 -28.687416 52.14745
-54.59061 -27.938868 53.08833
-55.895649 -27.59751 51.086937
-55.253563 -27.767691 52.114815
-42.205324 -38.71059 64.374756
-42.486149 -38.157253 65.711949
-43.102808 -37.6036 64.813382
-51.123497 -38.062954 48.041857
-50.891417 -37.067683 48.319572
-33.110138 -50.57835 68.066818
-33.405334 -49.400393 68.348018
-33.712727 -50.130479 67.297496
-32.887802 -51.775325 67.837174
-33.110138 -50.57835 68.066818
-32.887802 -51.775325 67.837174
-33.211537 -52.494888 66.816841
-41.997866 -49.777775 48.682363
-42.846525 -49.507233 48.580394
-49.815807 -31.315669 57.94757
-48.909025 -32.36802 57.695465
-50.416825 -30.939503 56.93772
-49.815807 -31.315669 57.94757
-51.0452 -30.607454 55.983164
-50.144947 -31.626787 55.778724
-50.416825 -30.939503 56.93772
-51.931917 -29.61977 56.130877
-51.66004 -30.307054 54.971882
-51.0452 -30.607454 55.983164
-52.724417 -28.658048 56.193016
-51.931917 -29.61977 56.130877
-53.331915 -28.384607 55.136654
-52.724417 -28.658048 56.193016
-43.751053 -37.035729 63.908894
-43.102808 -37.6036 64.813382
-43.414963 -37.599874 62.557743
-43.751053 -37.035729 63.908894
-44.344032 -36.478666 62.990448
-46.143803 -34.849138 60.183039
-45.545202 -35.379234 61.132998
-45.7735 -35.467718 58.865721
-46.143803 -34.849138 60.183039
-46.737566 -34.351326 59.260525
-51.281643 -45.680537 48.782016
-50.235821 -45.759025 48.648197
-51.281643 -45.680537 48.782016
-51.73946 -44.529609 48.564966
-36.675471 -45.26034 65.924408
-36.732975 -44.620781 67.215424
-37.30845 -44.142443 66.383484
-34.417713 -54.17273 60.237498
-34.113439 -54.674324 61.224135
-34.368562 -53.530349 61.466999
-34.703857 -53.67931 59.235054
-34.978808 -52.529384 59.50608
-35.009829 -53.17994 58.260773
-34.417713 -54.17273 60.237498
-34.703857 -53.67931 59.235054
-43.706396 -49.235418 48.427881
-42.846525 -49.507233 48.580394
-43.113438 -48.242316 48.696092
-43.706396 -49.235418 48.427881
-44.611683 -49.005047 48.445202
-47.461344 -48.422975 48.567063
-46.485569 -48.594023 48.517538
-46.795164 -47.356575 48.512545
-47.461344 -48.422975 48.567063
-48.446804 -48.273672 48.744171
-50.744234 -36.11116 48.771505
-50.891417 -37.067683 48.319572
-49.987561 -37.178511 48.821138
-51.583593 -35.064583 48.822279
-50.744234 -36.11116 48.771505
-50.679737 -35.175411 49.323845
-52.383505 -34.036869 48.763806
-51.583593 -35.064583 48.822279
-52.379348 -33.121679 49.406111
-51.607872 -33.258873 50.176365
-52.468125 -32.251718 50.207857
-52.383505 -34.036869 48.763806
-52.379348 -33.121679 49.406111
-55.038761 -29.341057 50.300964
-54.202145 -30.291117 50.287922
-54.30825 -29.466299 51.160893
-55.038761 -29.341057 50.300964
-55.838039 -28.392284 50.2377
-41.789003 -38.710161 66.577518
-42.486149 -38.157253 65.711949
-41.789003 -38.710161 66.577518
-40.931867 -39.796272 66.136948
-38.757597 -41.929773 67.332729
-39.468479 -41.431839 66.519112
-38.013921 -43.019131 66.856076
-38.757597 -41.929773 67.332729
-37.956417 -43.65869 65.565059
-37.30845 -44.142443 66.383484
-38.013921 -43.019131 66.856076
-51.235437 -41.228035 48.076044
-50.641953 -42.358084 48.203279
-50.180018 -41.295843 48.140937
-51.442876 -39.078334 47.864105
-50.454122 -39.150413 48.191454
-51.123497 -38.062954 48.041857
-51.82622 -40.123138 47.844891
-51.442876 -39.078334 47.864105
-51.235437 -41.228035 48.076044
-51.82622 -40.123138 47.844891
-36.028571 -45.07101 67.975739
-36.661551 -43.953114 68.434814
-36.732975 -44.620781 67.215424
-36.028571 -45.07101 67.975739
-35.473587 -46.191166 67.536632
-34.427551 -47.798088 67.947807
-34.974746 -47.336067 67.134373
-34.555118 -48.490502 66.765263
-34.427551 -47.798088 67.947807
-33.744129 -48.229078 68.67532
-33.737587 -54.534159 63.433689
-33.621909 -53.869526 64.607033
-33.948611 -53.367311 63.62698
-33.737587 -54.534159 63.433689
-33.83209 -55.176167 62.246864
-37.790985 -51.885039 51.082541
-37.265171 -52.312334 51.763472
-37.515251 -51.10033 52.026638
-37.790985 -51.885039 51.082541
-38.408127 -51.509764 50.552655
-41.211314 -50.09721 48.962572
-41.467014 -48.833565 49.128814
-41.997866 -49.777775 48.682363
-40.4305 -50.405931 49.200737
-41.211314 -50.09721 48.962572
-39.726356 -50.767908 49.616806
-39.976318 -49.514977 49.825092
-40.4305 -50.405931 49.200737
-39.023681 -51.111723 50.000382
-39.726356 -50.767908 49.616806
3 0 27 25
3 1 30 28
3 1 32 30
3 1 33 32
3 0 36 34
3 0 25 36
3 2 40 38
3 104 43 105
3 106 105 41
3 104 105 106
3 108 107 43
3 3 47 45
3 3 49 47
3 3 51 49
3 2 54 52
3 2 38 54
3 5 58 56
3 5 109 111
3 111 110 58
3 109 110 111
3 5 112 113
3 4 61 59
3 114 64 115
3 116 115 62
3 114 115 116
3 117 65 118
3 119 67 120
3 121 120 65
3 119 120 121
3 122 68 123
3 124 62 125
3 126 125 68
3 124 125 126
3 128 127 26
3 8 71 69
3 10 72 29
3 10 73 72
3 10 75 73
3 130 129 31
3 11 131 132
3 11 133 134
3 12 78 76
3 14 79 35
3 14 135 137
3 137 136 79
3 135 136 137
3 14 138 139
3 141 140 37
3 15 82 80
3 17 83 39
3 17 84 83
3 6 85 63
3 18 86 42
3 18 142 144
3 144 143 86
3 142 143 144
3 18 145 146
3 148 147 44
3 19 149 151
3 151 150 46
3 149 150 151
3 19 152 154
3 152 87 153
3 152 153 154
3 19 88 87
3 20 89 48
3 20 90 89
3 20 92 90
3 22 93 50
3 22 94 93
3 7 95 66
3 23 96 53
3 23 97 96
3 23 98 97
3 15 99 55
3 15 80 99
3 16 100 81
3 9 155 157
3 157 156 70
3 155 156 157
3 159 158 57
3 161 160 74
3 21 101 91
3 24 102 60
3 24 162 164
3 164 163 102
3 162 163 164
3 13 103 77
3 25 165 167
3 165 26 166
3 165 166 167
3 27 26 25
3 27 168 170
3 170 169 26
3 168 169 170
3 28 29 8
3 30 29 28
3 30 10 29
3 30 31 10
3 32 31 30
3 32 171 173
3 173 172 31
3 171 172 173
3 32 174 175
3 33 176 178
3 178 177 32
3 176 177 178
3 33 179 181
3 179 11 180
3 179 180 181
3 34 35 12
3 36 35 34
3 36 14 35
3 36 37 14
3 25 37 36
3 25 182 184
3 184 183 37
3 182 183 184
3 38 39 15
3 40 39 38
3 40 17 39
3 41 42 6
3 43 42 41
3 43 18 42
3 43 44 18
3 185 44 186
3 187 186 43
3 185 186 187
3 189 188 44
3 45 190 192
3 190 46 191
3 190 191 192
3 47 46 45
3 47 19 46
3 47 48 19
3 49 48 47
3 49 20 48
3 49 50 20
3 51 50 49
3 51 22 50
3 52 53 7
3 54 53 52
3 54 23 53
3 54 55 23
3 38 55 54
3 38 15 55
3 194 193 16
3 56 57 9
3 58 57 56
3 58 195 197
3 197 196 57
3 195 196 197
3 58 198 199
3 201 200 58
3 59 60 21
3 61 60 59
3 61 24 60
3 203 202 13
3 62 63 2
3 64 63 62
3 64 6 63
3 204 64 205
3 206 64 207
3 208 6 209
3 210 209 64
3 208 209 210
3 211 41 212
3 213 212 6
3 211 212 213
3 214 41 215
3 217 216 41
3 218 45 219
3 65 220 222
3 220 45 221
3 220 221 222
3 65 3 45
3 65 66 3
3 67 66 65
3 67 7 66
3 223 67 224
3 68 225 227
3 225 67 226
3 225 226 227
3 68 7 67
3 68 52 7
3 62 52 68
3 62 2 52
3 26 228 229
3 231 230 26
3 69 232 234
3 232 70 233
3 232 233 234
3 71 70 69
3 71 9 70
3 29 71 8
3 72 71 29
3 72 9 71
3 72 56 9
3 73 56 72
3 73 5 56
3 73 74 5
3 75 74 73
3 75 235 237
3 237 236 74
3 235 236 237
3 31 75 10
3 238 75 239
3 240 239 31
3 238 239 240
3 242 241 75
3 76 77 4
3 78 77 76
3 78 13 77
3 35 78 12
3 79 78 35
3 79 13 78
3 79 243 245
3 245 244 13
3 243 244 245
3 247 246 79
3 37 248 250
3 250 249 14
3 248 249 250
3 252 251 37
3 80 81 0
3 82 81 80
3 82 16 81
3 39 82 15
3 83 82 39
3 83 16 82
3 83 253 255
3 255 254 16
3 253 254 255
3 84 256 258
3 258 257 83
3 256 257 258
3 84 259 260
3 63 40 2
3 85 40 63
3 85 17 40
3 42 85 6
3 86 85 42
3 86 17 85
3 86 84 17
3 261 84 262
3 263 262 86
3 261 262 263
3 265 264 84
3 44 266 268
3 268 267 18
3 266 267 268
3 270 269 44
3 46 271 272
3 274 273 46
3 87 275 276
3 87 277 278
3 87 279 281
3 279 69 280
3 279 280 281
3 88 69 87
3 88 8 69
3 48 88 19
3 89 88 48
3 89 8 88
3 89 28 8
3 90 28 89
3 90 1 28
3 90 91 1
3 92 91 90
3 92 21 91
3 50 92 20
3 93 92 50
3 93 21 92
3 93 59 21
3 94 59 93
3 94 4 59
3 66 51 3
3 95 51 66
3 95 22 51
3 53 95 7
3 96 95 53
3 96 22 95
3 96 94 22
3 97 94 96
3 97 4 94
3 97 76 4
3 98 76 97
3 98 12 76
3 55 98 23
3 99 98 55
3 99 12 98
3 99 34 12
3 80 34 99
3 80 0 34
3 81 27 0
3 100 27 81
3 100 282 284
3 284 283 27
3 282 283 284
3 285 100 286
3 287 286 16
3 285 286 287
3 288 100 289
3 291 290 100
3 70 292 294
3 292 293 294
3 296 295 70
3 57 297 299
3 299 298 9
3 297 298 299
3 301 300 57
3 74 302 304
3 304 303 5
3 302 303 304
3 306 305 74
3 91 33 1
3 101 33 91
3 101 11 33
3 60 101 21
3 102 101 60
3 102 11 101
3 102 307 309
3 309 308 11
3 307 308 309
3 311 310 102
3 77 61 4
3 103 61 77
3 103 24 61
3 312 103 313
3 314 313 13
3 312 313 314
3 315 103 316
3 317 24 318
3 319 318 103
3 317 318 319
3 321 320 24
