ply
format ascii 1.0
element vertex 275
property float x
property float y
property float z
element face 274
property list uchar int vertex_index
end_header
5.677126 -83.504761 33.015877
10.165056 -96.805519 51.804581
6.190922 -92.704819 48.064735
7.471224 -92.748863 38.200718
3.032101 -84.853073 42.467358
3.455046 -89.749802 57.309036
10.213884 -99.300095 47.527596
3.16246 -88.664345 49.882263
4.515465 -89.032967 45.267212
4.84799 -91.639473 52.649277
6.714296 -88.088348 35.528355
7.459536 -91.969917 32.741745
7.616501 -87.080727 30.301346
8.522881 -96.725136 45.851013
7.101486 -93.031792 43.308334
5.706755 -88.778198 40.523071
4.295427 -84.340294 37.818447
6.882465 -93.431633 54.882858
8.033134 -95.461853 50.44236
1.82214 -86.506676 50.766937
2.450966 -86.855667 48.449501
1.233612 -85.93631 53.127563
2.479578 -88.178055 52.206627
6.233511 -85.778282 34.251381
7.173073 -87.617065 32.937969
6.858175 -85.277519 31.72691
9.797464 -95.297775 53.920029
7.529099 -94.698624 47.03157
7.796413 -94.981133 44.643402
6.71456 -92.952507 45.722855
3.739765 -86.989021 43.85186
5.136475 -88.969788 42.922112
4.373508 -86.834389 41.523739
4.996691 -86.569115 39.152061
3.65202 -84.644409 40.159576
4.47142 -90.423904 58.480247
6.228678 -92.159668 57.137794
5.119492 -91.65934 56.150566
5.554428 -92.271866 50.362343
6.496201 -93.566727 51.60788
7.084715 -94.229172 49.341896
8.384699 -96.193939 48.185173
7.794975 -95.021973 39.551689
10.324335 -98.153961 49.689651
11.44342 -98.501717 49.896957
11.234041 -99.994675 47.828323
4.673748 -90.711403 48.997932
5.336012 -90.953468 46.68605
3.851027 -88.940804 47.578438
3.095972 -87.006439 46.152885
2.430456 -84.942802 44.754673
4.127775 -90.799156 54.957336
3.249022 -89.623207 53.621727
3.963737 -90.274033 51.299774
7.121656 -90.421913 36.848602
7.496826 -92.413979 35.508057
7.376453 -90.00457 34.199245
7.592466 -89.502556 31.49177
5.051495 -81.266029 31.815998
6.417688 -82.995758 30.55706
7.8794 -95.085442 42.153618
7.348665 -92.959129 40.802914
5.91964 -91.023575 44.33411
6.409452 -90.945534 41.91814
6.805901 -90.739799 39.423996
6.229452 -88.479393 38.059006
5.614471 -86.212662 36.728249
4.969105 -83.956734 35.437492
3.623901 -82.098465 36.527596
4.307615 -81.713531 34.186558
8.046055 -93.762207 55.634689
8.608877 -95.128029 53.45179
5.818323 -92.709259 53.86657
7.510372 -94.537033 52.661652
9.055279 -96.338867 51.286652
9.308653 -97.367554 49.098419
9.317394 -98.189156 46.842842
7.488762 -84.726822 29.165119
8.053608 -86.504288 27.636936
1.555189 -85.575809 50.056244
1.294674 -85.352646 51.229198
1.00041 -85.067463 52.409512
0.767483 -84.731911 53.609818
1.294674 -85.352646 51.229198
1.527876 -86.221493 51.94725
1.00041 -85.067463 52.409512
10.76541 -96.815296 51.876969
10.581615 -96.061424 52.934692
9.98126 -96.051647 52.862305
3.171513 -89.123837 58.510295
2.728715 -88.702106 57.857608
3.963233 -90.086853 57.894641
3.6797 -89.460887 59.095901
3.171513 -89.123837 58.510295
7.524797 -93.77597 37.5208
7.686672 -94.912526 38.196285
7.6331 -93.885418 38.876204
2.47147 -85.945183 46.596515
2.773469 -86.931053 47.301193
2.148967 -85.869797 47.744823
2.138712 -84.913364 45.897409
2.763214 -85.974621 45.453779
2.47147 -85.945183 46.596515
2.543993 -88.544094 54.098252
2.913957 -89.186401 54.80442
7.704254 -88.010036 29.524943
7.692236 -89.220951 30.120154
7.604484 -88.291641 30.896558
5.450541 -81.016644 30.616551
4.709059 -80.157509 31.23283
12.522758 -99.304389 48.69566
12.05333 -98.441658 49.79454
11.912848 -99.364449 48.798077
8.47919 -96.888855 44.630054
8.793188 -97.755371 45.166058
3.311266 -80.968804 35.905934
3.02707 -81.118847 37.050613
3.653123 -80.776336 34.735414
3.965758 -81.905998 35.357077
3.311266 -80.968804 35.905934
3.975361 -80.593616 33.581739
3.653123 -80.776336 34.735414
8.793188 -97.755371 45.166058
9.190445 -98.487381 45.661972
8.920137 -97.457146 46.346927
7.367484 -93.207626 33.38937
7.386128 -93.429657 34.772526
7.478181 -92.191948 34.124901
7.335666 -83.58733 28.616378
6.953225 -83.86129 29.861089
6.800129 -82.721798 29.312349
8.273374 -86.215294 26.301865
8.088044 -85.328797 27.108425
8.245246 -87.139175 25.481653
8.025479 -87.428169 26.816723
8.273374 -86.215294 26.301865
10.458709 -100.273842 46.609112
10.011201 -99.753906 46.399643
1.869602 -85.750305 48.897526
2.136553 -86.681172 49.608219
1.555189 -85.575809 50.056244
2.148967 -85.869797 47.744823
1.869602 -85.750305 48.897526
0.973274 -85.534745 54.336319
0.767483 -84.731911 53.609818
1.536288 -86.700646 53.851169
0.973274 -85.534745 54.336319
1.856595 -87.057183 52.667095
2.159271 -87.821518 53.390701
1.536288 -86.700646 53.851169
10.435016 -95.16172 53.976734
9.55262 -94.485134 54.997524
10.435016 -95.16172 53.976734
10.581615 -96.061424 52.934692
4.205458 -89.718555 59.669331
3.6797 -89.460887 59.095901
5.05033 -90.579494 58.961533
4.205458 -89.718555 59.669331
5.350049 -91.291786 57.809021
5.928959 -91.447376 58.290306
5.05033 -90.579494 58.961533
7.737208 -96.06868 38.849339
7.967651 -96.100696 40.196787
7.737208 -96.06868 38.849339
7.686672 -94.912526 38.196285
7.19778 -92.971722 31.953886
7.4275 -91.704963 31.334297
11.808159 -100.110928 47.763759
11.912848 -99.364449 48.798077
11.338731 -99.248196 48.86264
10.968787 -100.621132 46.759475
10.723962 -99.647385 47.67796
10.458709 -100.273842 46.609112
11.497923 -100.920807 46.751362
10.968787 -100.621132 46.759475
11.232669 -101.547264 45.682514
11.808159 -100.110928 47.763759
11.497923 -100.920807 46.751362
3.016969 -89.249699 56.648075
2.728715 -88.702106 57.857608
3.353333 -89.774376 55.472225
3.79141 -90.274479 56.133186
3.016969 -89.249699 56.648075
3.688398 -90.211181 54.289531
3.353333 -89.774376 55.472225
2.913957 -89.186401 54.80442
2.8643 -88.900631 52.914177
2.543993 -88.544094 54.098252
2.159271 -87.821518 53.390701
7.493965 -90.471283 30.709309
7.4275 -91.704963 31.334297
7.526001 -90.736236 32.116757
7.493965 -90.471283 30.709309
7.692236 -89.220951 30.120154
6.133637 -81.881508 29.987082
5.734592 -82.130893 31.186529
5.450541 -81.016644 30.616551
6.800129 -82.721798 29.312349
6.133637 -81.881508 29.987082
11.404592 -97.663395 50.923157
10.76541 -96.815296 51.876969
10.804238 -97.653618 50.850769
11.404592 -97.663395 50.923157
12.05333 -98.441658 49.79454
8.115956 -96.016853 44.026249
8.47919 -96.888855 44.630054
8.159647 -95.853135 45.247208
8.15745 -96.069008 42.781357
8.115956 -96.016853 44.026249
7.837907 -95.033288 43.39851
8.009863 -96.132431 41.497751
8.15745 -96.069008 42.781357
7.837188 -95.053708 40.852654
7.967651 -96.100696 40.196787
8.009863 -96.132431 41.497751
1.902448 -83.859104 45.217188
2.138712 -84.913364 45.897409
2.156173 -83.857799 44.079614
1.902448 -83.859104 45.217188
2.456996 -83.812935 42.935957
2.731279 -84.897937 43.611015
2.156173 -83.857799 44.079614
2.726283 -83.748115 41.798429
2.456996 -83.812935 42.935957
3.036243 -83.643783 40.644538
3.34206 -84.748741 41.313467
2.726283 -83.748115 41.798429
3.324871 -83.528309 39.499949
3.036243 -83.643783 40.644538
3.646575 -83.376251 38.329384
3.973724 -84.492351 38.989012
3.324871 -83.528309 39.499949
3.310812 -82.255337 37.683959
3.02707 -81.118847 37.050613
3.959664 -83.21938 37.173022
3.646575 -83.376251 38.329384
3.310812 -82.255337 37.683959
4.347302 -80.369865 32.396459
4.679555 -81.48978 33.001278
3.975361 -80.593616 33.581739
4.709059 -80.157509 31.23283
4.347302 -80.369865 32.396459
6.84197 -92.21294 57.500873
5.928959 -91.447376 58.290306
7.750658 -93.014209 56.749321
6.84197 -92.21294 57.500873
7.137367 -92.960938 56.386241
8.676916 -93.71735 55.854855
7.750658 -93.014209 56.749321
8.92176 -94.529991 54.777359
9.55262 -94.485134 54.997524
8.676916 -93.71735 55.854855
9.562956 -99.198437 46.057266
10.011201 -99.753906 46.399643
9.765639 -98.744625 47.185219
9.562956 -99.198437 46.057266
9.190445 -98.487381 45.661972
7.537598 -93.608529 36.174469
7.524797 -93.77597 37.5208
7.484025 -92.581421 36.854388
7.537598 -93.608529 36.174469
7.386128 -93.429657 34.772526
7.105728 -94.20943 32.601511
7.367484 -93.207626 33.38937
7.19778 -92.971722 31.953886
7.805621 -84.440064 27.872516
7.335666 -83.58733 28.616378
7.771185 -85.615555 28.401027
7.805621 -84.440064 27.872516
8.088044 -85.328797 27.108425
7.922808 -87.721817 28.192737
7.704254 -88.010036 29.524943
7.835055 -86.792507 28.969141
7.922808 -87.721817 28.192737
8.025479 -87.428169 26.816723
3 80 79 19
3 81 21 82
3 83 19 84
3 85 84 21
3 83 84 85
3 0 25 23
3 1 86 88
3 88 87 26
3 86 87 88
3 2 29 27
3 4 32 30
3 4 34 32
3 5 89 90
3 5 91 93
3 91 35 92
3 91 92 93
3 5 37 35
3 2 40 38
3 2 27 40
3 3 94 96
3 96 95 42
3 94 95 96
3 6 45 43
3 7 48 46
3 97 49 98
3 99 98 20
3 97 98 99
3 100 50 101
3 102 101 49
3 100 101 102
3 103 52 104
3 7 53 22
3 7 46 53
3 10 56 54
3 12 57 24
3 12 105 107
3 107 106 57
3 105 106 107
3 109 108 58
3 112 111 44
3 110 111 112
3 13 113 114
3 14 60 28
3 14 61 60
3 8 62 47
3 15 63 31
3 15 64 63
3 15 65 64
3 16 66 33
3 16 67 66
3 115 68 116
3 117 69 118
3 119 118 68
3 117 118 119
3 121 120 69
3 17 70 36
3 17 71 70
3 9 72 51
3 18 73 39
3 18 74 73
3 18 75 74
3 13 76 41
3 13 122 124
3 124 123 76
3 122 123 124
3 11 125 127
3 127 126 55
3 125 126 127
3 128 77 129
3 130 129 59
3 128 129 130
3 131 78 132
3 135 134 78
3 133 134 135
3 137 136 6
3 19 20 7
3 138 20 139
3 140 139 19
3 138 139 140
3 142 141 20
3 21 143 144
3 21 145 146
3 21 147 149
3 147 22 148
3 147 148 149
3 19 22 21
3 19 7 22
3 23 24 10
3 25 24 23
3 25 12 24
3 26 150 151
3 153 152 26
3 27 28 13
3 29 28 27
3 29 14 28
3 30 31 8
3 32 31 30
3 32 15 31
3 32 33 15
3 34 33 32
3 34 16 33
3 35 154 155
3 35 156 157
3 35 158 160
3 158 36 159
3 158 159 160
3 37 36 35
3 37 17 36
3 38 39 9
3 40 39 38
3 40 18 39
3 40 41 18
3 27 41 40
3 27 13 41
3 42 161 162
3 164 163 42
3 166 165 11
3 43 44 1
3 45 44 43
3 45 167 169
3 169 168 44
3 167 168 169
3 170 45 171
3 172 171 6
3 170 171 172
3 173 45 174
3 173 174 175
3 177 176 45
3 46 47 2
3 48 47 46
3 48 8 47
3 20 48 7
3 49 48 20
3 49 8 48
3 49 30 8
3 50 30 49
3 50 4 30
3 178 5 179
3 180 51 181
3 182 181 5
3 180 181 182
3 52 183 185
3 183 51 184
3 183 184 185
3 52 9 51
3 22 186 188
3 186 52 187
3 186 187 188
3 53 52 22
3 53 9 52
3 53 38 9
3 46 38 53
3 46 2 38
3 54 55 3
3 56 55 54
3 56 11 55
3 24 56 10
3 57 56 24
3 57 11 56
3 57 189 191
3 191 190 11
3 189 190 191
3 193 192 57
3 58 59 0
3 194 59 195
3 196 195 58
3 194 195 196
3 198 197 59
3 44 199 201
3 201 200 1
3 199 200 201
3 203 202 44
3 28 204 206
3 206 205 13
3 204 205 206
3 60 207 209
3 209 208 28
3 207 208 209
3 60 210 211
3 60 212 214
3 212 42 213
3 212 213 214
3 61 42 60
3 61 3 42
3 47 29 2
3 62 29 47
3 62 14 29
3 31 62 8
3 63 62 31
3 63 14 62
3 63 61 14
3 64 61 63
3 64 3 61
3 64 54 3
3 65 54 64
3 65 10 54
3 33 65 15
3 66 65 33
3 66 10 65
3 66 23 10
3 67 23 66
3 67 0 23
3 215 50 216
3 217 50 218
3 219 4 220
3 221 220 50
3 219 220 221
3 222 4 223
3 224 34 225
3 226 225 4
3 224 225 226
3 227 34 228
3 229 16 230
3 231 230 34
3 229 230 231
3 68 232 233
3 68 234 236
3 234 16 235
3 234 235 236
3 68 67 16
3 69 67 68
3 69 0 67
3 69 58 0
3 237 58 238
3 239 238 69
3 237 238 239
3 241 240 58
3 36 242 243
3 70 244 246
3 246 245 36
3 244 245 246
3 70 247 248
3 70 249 251
3 249 26 250
3 249 250 251
3 71 26 70
3 71 1 26
3 51 37 5
3 72 37 51
3 72 17 37
3 39 72 9
3 73 72 39
3 73 17 72
3 73 71 17
3 74 71 73
3 74 1 71
3 74 43 1
3 75 43 74
3 75 6 43
3 41 75 18
3 76 75 41
3 76 6 75
3 76 252 254
3 254 253 6
3 252 253 254
3 256 255 76
3 55 257 259
3 259 258 3
3 257 258 259
3 261 260 55
3 264 263 11
3 262 263 264
3 59 25 0
3 77 25 59
3 77 12 25
3 265 77 266
3 78 267 269
3 267 77 268
3 267 268 269
3 78 12 77
3 78 270 272
3 272 271 12
3 270 271 272
3 274 273 78
