ply
format ascii 1.0
element vertex 120
property float x
property float y
property float z
element face 106
property list uchar int vertex_index
end_header
-43.106026 38.031288 37.622181
-42.60865 32.113388 40.830444
-42.265541 37.358135 42.732079
-42.395859 42.874851 38.968651
-42.655754 32.466141 35.731232
-43.630066 43.60321 34.104023
-42.817841 35.110741 39.264626
-42.640793 32.308594 38.239441
-42.945824 35.316662 36.731476
-43.047287 35.474899 34.280357
-43.328819 38.246578 35.148106
-43.705513 41.083115 33.48296
-43.399887 40.861446 35.902725
-41.366905 44.964817 39.374168
-42.3806 45.503544 36.984482
-42.588127 34.835632 41.861771
-42.767029 37.744431 40.157635
-42.961201 40.560135 38.376575
-42.343304 40.165226 40.885994
-41.471992 42.351147 41.419849
-42.496456 29.254459 39.679001
-42.431122 29.407047 37.115845
-42.44239 29.552551 34.648178
-42.746162 32.600296 33.320358
-43.111984 43.286037 36.522301
-43.167004 45.93771 34.593643
-41.278881 46.237324 38.321079
-40.632857 45.899627 39.47385
-42.426834 36.096883 42.296925
-42.398575 34.642765 43.179089
-42.237282 35.904016 43.614243
-40.917301 42.01458 42.631191
-41.503339 40.997347 42.41152
-40.811538 43.325359 41.577154
-40.917301 42.01458 42.631191
-42.552553 30.683923 40.254722
-42.523222 29.161551 40.999684
-42.579319 30.591015 41.575405
-43.132778 35.532045 33.101859
-43.279835 36.937063 33.515335
-43.813873 43.715241 32.916028
-43.851597 42.455193 32.605497
-43.667789 42.343162 33.793492
-43.683391 44.936944 33.161794
-43.813873 43.715241 32.916028
-42.713862 47.006821 34.762087
-42.773802 45.720627 35.789062
-42.32066 46.789738 35.957507
-43.125462 47.237736 33.588371
-42.713862 47.006821 34.762087
-41.925766 37.092178 44.022612
-42.237282 35.904016 43.614243
-41.900114 38.500841 43.067635
-41.925766 37.092178 44.022612
-43.420601 38.322902 33.949209
-43.279835 36.937063 33.515335
-43.188053 36.860738 34.714231
-43.517166 39.664846 34.315533
-43.608948 39.741171 33.116636
-43.420601 38.322902 33.949209
-41.785729 46.506687 37.126236
-41.873753 45.23418 38.179325
-41.278881 46.237324 38.321079
-42.32066 46.789738 35.957507
-41.785729 46.506687 37.126236
-42.547193 31.979585 42.156593
-42.579319 30.591015 41.575405
-42.536932 33.340708 42.672257
-42.398575 34.642765 43.179089
-42.598388 33.47451 41.346108
-42.547193 31.979585 42.156593
-42.536932 33.340708 42.672257
-41.938996 39.904387 42.144593
-42.304423 38.76168 41.809036
-41.900114 38.500841 43.067635
-41.907648 41.258186 41.152921
-41.938996 39.904387 42.144593
-41.503339 40.997347 42.41152
-40.758995 44.632194 40.554313
-41.419449 43.657982 40.397008
-40.811538 43.325359 41.577154
-40.632857 45.899627 39.47385
-40.758995 44.632194 40.554313
-42.541387 27.727179 40.368879
-42.523222 29.161551 40.999684
-42.476625 27.80075 39.063851
-42.541387 27.727179 40.368879
-42.443959 27.877044 37.782273
-42.476625 27.80075 39.063851
-42.463789 29.330753 38.397423
-42.415748 27.952433 36.52153
-42.443959 27.877044 37.782273
-42.421382 28.025185 35.287697
-42.415748 27.952433 36.52153
-42.436756 29.479799 35.882012
-42.474651 28.110249 34.077757
-42.421382 28.025185 35.287697
-42.534142 29.624834 33.46756
-42.566402 28.182531 32.897139
-42.474651 28.110249 34.077757
-42.686027 31.148706 32.80365
-42.534142 29.624834 33.46756
-42.594276 31.076424 33.984268
-42.879032 32.654837 32.168094
-42.686027 31.148706 32.80365
-42.982215 34.094743 32.621859
-42.896724 34.037598 33.800358
-43.132778 35.532045 33.101859
-42.879032 32.654837 32.168094
-42.982215 34.094743 32.621859
-43.831332 41.153229 32.305849
-43.608948 39.741171 33.116636
-43.831332 41.153229 32.305849
-43.851597 42.455193 32.605497
-43.45186 46.104195 33.406605
-43.683391 44.936944 33.161794
-43.398535 44.77046 34.348833
-43.410319 47.404221 32.401332
-43.45186 46.104195 33.406605
-43.125462 47.237736 33.588371
3 0 8 6
3 0 10 8
3 0 12 10
3 27 26 13
3 2 28 30
3 28 15 29
3 28 29 30
3 2 16 15
3 2 18 16
3 31 19 32
3 34 33 19
3 1 35 37
3 35 20 36
3 35 36 37
3 4 21 7
3 4 22 21
3 4 23 22
3 39 38 9
3 5 40 42
3 42 41 11
3 40 41 42
3 5 43 44
3 3 24 17
3 45 25 46
3 47 46 14
3 45 46 47
3 49 48 25
3 50 2 51
3 53 52 2
3 6 7 1
3 8 7 6
3 8 4 7
3 8 9 4
3 10 9 8
3 10 54 56
3 56 55 9
3 54 55 56
3 10 57 59
3 57 11 58
3 57 58 59
3 12 11 10
3 12 5 11
3 13 14 3
3 60 14 61
3 62 61 13
3 60 61 62
3 64 63 14
3 65 1 66
3 15 67 68
3 15 69 71
3 69 1 70
3 69 70 71
3 15 6 1
3 16 6 15
3 16 0 6
3 16 17 0
3 18 17 16
3 18 3 17
3 72 18 73
3 74 73 2
3 72 73 74
3 19 75 77
3 75 18 76
3 75 76 77
3 19 3 18
3 19 13 3
3 78 13 79
3 80 79 19
3 78 79 80
3 82 81 13
3 20 83 84
3 20 85 86
3 7 20 1
3 21 20 7
3 21 87 89
3 89 88 20
3 87 88 89
3 21 90 91
3 22 92 94
3 94 93 21
3 92 93 94
3 22 95 96
3 22 97 99
3 97 98 99
3 23 100 102
3 102 101 22
3 100 101 102
3 23 103 104
3 9 23 4
3 105 23 106
3 107 106 9
3 105 106 107
3 109 108 23
3 11 110 111
3 113 112 11
3 17 12 0
3 24 12 17
3 24 5 12
3 14 24 3
3 25 24 14
3 25 5 24
3 25 114 116
3 116 115 5
3 114 115 116
3 119 118 25
3 117 118 119
