ply
format ascii 1.0
element vertex 247
property float x
property float y
property float z
element face 257
property list uchar int vertex_index
end_header
32.650387 64.993118 24.216349
28.320986 74.338974 13.851702
29.436125 58.668625 34.006535
38.331142 55.429962 32.294575
36.926064 63.156677 24.361565
34.764042 67.501564 19.740753
28.219009 55.453293 38.878441
32.515892 53.679108 38.006416
33.885742 56.832291 33.241474
36.937847 52.14917 36.853752
28.213837 67.244583 24.343405
30.334967 69.843414 19.247292
32.904449 71.628212 14.452335
25.299618 61.062325 34.911507
26.591434 64.260071 29.666729
30.879385 61.868912 29.01733
35.372398 60.145729 28.61327
39.443897 58.82058 27.960453
42.100971 54.202499 30.701767
38.732983 62.271492 24.401443
37.754795 64.240166 22.412151
34.731503 52.891167 37.482212
30.411552 66.037971 24.222446
29.20891 68.616066 21.75539
31.442776 67.438652 21.792873
35.909973 68.310822 17.577768
33.801628 69.618546 17.157104
35.073292 70.262993 14.90416
27.05143 73.574387 16.517834
21.997629 65.638954 33.491749
28.80549 57.076805 36.475025
26.72736 58.163994 36.914124
27.326855 59.799202 34.42733
25.918205 62.690849 32.320541
27.973896 61.394241 31.874409
28.68924 62.971497 29.294024
30.122581 60.262627 31.506844
36.146278 56.092651 32.81749
34.61882 58.481857 30.894043
36.846092 57.77607 30.54962
37.513268 59.448112 28.362274
38.938114 57.144608 30.086016
40.798035 56.558929 29.418407
40.345463 54.810249 31.609436
34.85564 64.053177 24.281525
33.669502 66.369598 21.942146
35.805019 65.329666 22.160667
36.807125 66.279831 20.103254
30.337673 54.529587 38.459114
30.960291 56.100433 36.056694
31.630676 57.682549 33.622734
33.181812 55.232872 35.623219
35.433701 54.458588 35.137016
37.652382 53.752701 34.556641
39.752956 53.0867 33.836708
26.098148 68.641853 24.601192
27.02824 69.960045 21.859192
28.09831 71.145645 19.185482
29.305813 72.157234 16.596199
32.580631 68.657158 19.443682
31.576582 70.866142 16.818249
30.63114 72.952164 14.090561
26.161884 56.452888 39.310287
24.714911 59.349205 37.410515
23.330132 62.42617 35.481232
23.938379 64.123039 32.857475
24.583601 65.71682 30.145172
25.292715 67.222412 27.378067
27.347429 65.781349 26.992592
29.495825 64.529633 26.730484
31.719633 63.464844 26.577734
32.352486 59.298859 31.19363
33.129448 60.938927 28.807482
33.963741 62.552795 26.496824
36.140465 61.74411 26.42823
38.137089 61.001091 26.293465
39.825981 60.337204 25.982677
41.07505 58.265701 27.285423
42.356575 55.991905 28.470741
41.643219 52.433113 32.931885
39.082184 62.649227 23.553535
39.394152 61.872192 24.384489
36.075478 69.506268 15.158347
35.491633 69.286907 16.240964
36.493818 68.530182 16.495151
35.719017 70.408844 13.780732
36.075478 69.506268 15.158347
27.174829 75.100167 13.804156
26.54005 74.717873 15.137222
27.686208 73.956681 15.184768
21.690273 64.741196 34.824566
21.024833 66.405632 33.86067
37.726742 65.589672 20.310386
37.28096 65.259998 21.257703
38.200576 64.56984 21.464835
37.324846 66.561337 19.077912
37.726742 65.589672 20.310386
31.426783 54.104348 38.232765
31.116756 53.332447 39.410152
32.205865 52.907207 39.183803
38.001202 51.791412 36.472101
38.358469 52.593178 35.323545
37.295114 52.950935 35.705196
32.474068 72.56147 13.054423
31.337413 73.223446 12.873536
31.767795 72.290188 14.271448
27.190447 55.953091 39.094364
26.915971 55.102874 40.253202
27.944534 54.603077 40.037279
42.820059 53.889313 30.116259
42.947861 54.784016 29.000746
42.228773 55.097202 29.586254
41.334381 51.579357 34.047165
40.698087 52.759906 33.384297
40.389249 51.90615 34.499577
38.59309 63.633564 22.558889
38.243889 63.255829 23.406797
39.082184 62.649227 23.553535
38.200576 64.56984 21.464835
38.59309 63.633564 22.558889
33.288984 52.524769 38.917439
32.205865 52.907207 39.183803
34.39679 52.130798 38.655336
33.623697 53.285138 37.744314
33.288984 52.524769 38.917439
35.478632 51.754452 38.326464
34.39679 52.130798 38.655336
36.581804 51.383454 38.012234
35.834675 52.520168 37.167982
35.478632 51.754452 38.326464
37.634707 51.007294 37.610241
36.581804 51.383454 38.012234
34.678656 71.175354 13.515912
33.594234 71.857964 13.29
33.988871 70.945603 14.678247
34.678656 71.175354 13.515912
35.719017 70.408844 13.780732
25.950542 74.365433 16.555133
26.484763 73.095101 17.897056
25.950542 74.365433 16.555133
26.54005 74.717873 15.137222
21.348355 67.279263 32.447876
21.024833 66.405632 33.86067
22.316344 66.46624 32.109131
21.348355 67.279263 32.447876
36.87627 67.576832 17.815169
36.358549 67.295327 18.840511
37.324846 66.561337 19.077912
36.493818 68.530182 16.495151
36.87627 67.576832 17.815169
27.829186 75.351669 12.43777
29.013708 74.613179 12.565189
28.989711 54.189289 39.839832
27.944534 54.603077 40.037279
30.049043 53.727436 39.630169
31.116756 53.332447 39.410152
29.278341 54.99144 38.668778
28.989711 54.189289 39.839832
30.049043 53.727436 39.630169
39.408756 52.260177 34.963579
38.702669 53.419701 34.196675
38.358469 52.593178 35.323545
40.389249 51.90615 34.499577
39.408756 52.260177 34.963579
38.001202 51.791412 36.472101
37.634707 51.007294 37.610241
25.512695 70.065509 23.356703
25.083105 69.42995 24.798074
25.977741 70.724605 21.985703
25.512695 70.065509 23.356703
26.563194 69.300949 23.230192
26.473168 71.287929 20.567735
25.977741 70.724605 21.985703
27.008204 71.88073 19.23088
26.473168 71.287929 20.567735
27.563275 70.552845 20.522337
27.57487 72.360016 17.851658
26.484763 73.095101 17.897056
27.008204 71.88073 19.23088
30.168785 73.919773 12.684619
29.013708 74.613179 12.565189
29.476063 73.645569 13.971131
30.168785 73.919773 12.684619
31.337413 73.223446 12.873536
32.474068 72.56147 13.054423
33.594234 71.857964 13.29
27.174829 75.100167 13.804156
27.829186 75.351669 12.43777
25.893695 55.540481 40.459394
26.915971 55.102874 40.253202
25.158259 56.987431 39.55888
25.893695 55.540481 40.459394
24.434773 58.435589 38.608993
25.158259 56.987431 39.55888
25.438398 57.901046 38.360401
23.72947 59.977588 37.706177
24.434773 58.435589 38.608993
23.03708 61.516071 36.741535
23.72947 59.977588 37.706177
24.022521 60.887687 36.445873
22.356524 63.134804 35.819308
23.03708 61.516071 36.741535
22.66388 64.032562 34.486491
21.690273 64.741196 34.824566
22.356524 63.134804 35.819308
23.286719 65.708282 31.791994
22.316344 66.46624 32.109131
22.968004 64.880997 33.174612
23.60933 66.505173 30.435842
23.286719 65.708282 31.791994
24.26099 64.919929 31.501323
23.949299 67.267429 29.013433
23.60933 66.505173 30.435842
24.303856 68.020226 27.629881
23.949299 67.267429 29.013433
24.938158 66.469616 28.76162
24.680388 68.72023 26.186512
24.303856 68.020226 27.629881
25.695431 67.932132 25.989629
25.083105 69.42995 24.798074
24.680388 68.72023 26.186512
39.940651 60.905048 25.175106
39.394152 61.872192 24.384489
39.279482 61.304348 25.19206
40.47995 60.104546 25.613164
39.940651 60.905048 25.175106
41.104484 59.068794 26.264538
40.47995 60.104546 25.613164
40.450515 59.301452 26.63405
41.728828 58.014125 26.762532
41.104484 59.068794 26.264538
42.369591 56.877228 27.355191
41.728828 58.014125 26.762532
41.715812 57.128803 27.878082
42.974987 55.696877 27.839568
42.369591 56.877228 27.355191
42.974987 55.696877 27.839568
42.947861 54.784016 29.000746
42.189172 51.220951 33.487423
41.334381 51.579357 34.047165
42.443708 52.10033 32.368666
42.189172 51.220951 33.487423
42.672584 52.985023 31.253607
41.872095 53.317806 31.816826
42.443708 52.10033 32.368666
42.820059 53.889313 30.116259
42.672584 52.985023 31.253607
3 81 80 19
3 0 24 22
3 82 27 83
3 84 83 25
3 82 83 84
3 86 85 27
3 1 87 89
3 89 88 28
3 87 88 89
3 90 29 91
3 2 32 30
3 2 34 32
3 2 36 34
3 3 39 37
3 3 41 39
3 3 43 41
3 4 46 44
3 92 47 93
3 94 93 20
3 92 93 94
3 96 95 47
3 7 97 99
3 97 48 98
3 97 98 99
3 7 49 48
3 7 51 49
3 9 52 21
3 9 53 52
3 9 100 102
3 102 101 53
3 100 101 102
3 10 56 55
3 11 57 23
3 11 58 57
3 5 59 45
3 12 60 26
3 12 61 60
3 12 103 105
3 105 104 61
3 103 104 105
3 6 106 108
3 106 62 107
3 106 107 108
3 13 63 31
3 13 64 63
3 13 65 64
3 14 66 33
3 14 67 66
3 14 68 67
3 15 69 35
3 15 70 69
3 8 71 50
3 16 72 38
3 16 73 72
3 16 74 73
3 17 75 40
3 17 76 75
3 17 77 76
3 18 78 42
3 18 109 111
3 111 110 78
3 109 110 111
3 112 79 113
3 114 113 54
3 112 113 114
3 19 20 4
3 115 20 116
3 117 116 19
3 115 116 117
3 119 118 20
3 120 7 121
3 122 21 123
3 124 123 7
3 122 123 124
3 125 21 126
3 127 9 128
3 129 128 21
3 127 128 129
3 131 130 9
3 22 23 10
3 24 23 22
3 24 11 23
3 25 26 5
3 27 26 25
3 27 12 26
3 27 132 134
3 134 133 12
3 132 133 134
3 136 135 27
3 28 137 138
3 140 139 28
3 29 141 142
3 29 143 144
3 30 31 6
3 32 31 30
3 32 13 31
3 32 33 13
3 34 33 32
3 34 14 33
3 34 35 14
3 36 35 34
3 36 15 35
3 37 38 8
3 39 38 37
3 39 16 38
3 39 40 16
3 41 40 39
3 41 17 40
3 41 42 17
3 43 42 41
3 43 18 42
3 44 45 0
3 46 45 44
3 46 5 45
3 20 46 4
3 47 46 20
3 47 5 46
3 47 25 5
3 145 25 146
3 147 146 47
3 145 146 147
3 149 148 25
3 151 150 1
3 152 6 153
3 48 154 155
3 48 156 158
3 156 6 157
3 156 157 158
3 48 30 6
3 49 30 48
3 49 2 30
3 49 50 2
3 51 50 49
3 51 8 50
3 21 51 7
3 52 51 21
3 52 8 51
3 52 37 8
3 53 37 52
3 53 3 37
3 53 54 3
3 159 54 160
3 161 160 53
3 159 160 161
3 163 162 54
3 165 164 9
3 55 166 167
3 56 168 170
3 170 169 55
3 168 169 170
3 56 171 172
3 23 56 10
3 57 56 23
3 57 173 175
3 175 174 56
3 173 174 175
3 57 176 178
3 176 28 177
3 176 177 178
3 58 28 57
3 58 1 28
3 45 24 0
3 59 24 45
3 59 11 24
3 26 59 5
3 60 59 26
3 60 11 59
3 60 58 11
3 61 58 60
3 61 1 58
3 61 179 181
3 181 180 1
3 179 180 181
3 183 182 61
3 185 184 12
3 187 186 1
3 62 188 189
3 62 190 191
3 31 62 6
3 63 62 31
3 63 192 194
3 194 193 62
3 192 193 194
3 63 195 196
3 64 197 199
3 199 198 63
3 197 198 199
3 64 200 201
3 64 202 204
3 202 29 203
3 202 203 204
3 65 29 64
3 65 205 207
3 207 206 29
3 205 206 207
3 33 65 13
3 66 65 33
3 66 208 210
3 210 209 65
3 208 209 210
3 66 211 212
3 67 213 215
3 215 214 66
3 213 214 215
3 67 216 217
3 67 218 220
3 218 55 219
3 218 219 220
3 68 55 67
3 68 10 55
3 35 68 14
3 69 68 35
3 69 10 68
3 69 22 10
3 70 22 69
3 70 0 22
3 50 36 2
3 71 36 50
3 71 15 36
3 38 71 8
3 72 71 38
3 72 15 71
3 72 70 15
3 73 70 72
3 73 0 70
3 73 44 0
3 74 44 73
3 74 4 44
3 40 74 16
3 75 74 40
3 75 4 74
3 75 19 4
3 76 19 75
3 76 221 223
3 223 222 19
3 221 222 223
3 76 224 225
3 77 226 228
3 228 227 76
3 226 227 228
3 77 229 230
3 42 77 17
3 78 77 42
3 78 231 233
3 233 232 77
3 231 232 233
3 78 234 235
3 237 236 78
3 54 43 3
3 79 43 54
3 79 18 43
3 238 79 239
3 240 79 241
3 242 18 243
3 244 243 79
3 242 243 244
3 246 245 18
