ply
format ascii 1.0
element vertex 109
property float x
property float y
property float z
element face 92
property list uchar int vertex_index
end_header
-16.539009 79.116287 -21.887619
-25.999342 70.038834 -22.468388
-23.869219 76.00032 -20.513866
-18.759426 73.381241 -24.179943
-11.801834 75.944611 -26.048832
-24.375593 64.847214 -24.452183
-29.521353 68.17305 -21.854485
-28.560471 71.328995 -20.99575
-20.182251 77.649734 -21.193764
-21.304775 74.896332 -22.367092
-17.650494 76.435562 -23.19746
-26.95088 66.659225 -23.141296
-23.412281 68.401077 -23.927124
-24.969143 73.185196 -21.6129
-22.386599 71.784943 -23.257809
-19.841179 70.023376 -24.891453
-13.046228 80.353912 -22.497398
-10.763191 78.810837 -24.68721
-14.101189 77.760651 -24.008568
-15.200153 74.786545 -25.148232
-16.310764 71.48558 -25.96273
-23.125843 63.811823 -25.135404
-22.628805 65.651291 -24.930535
-29.786501 71.783554 -20.223434
-30.281636 70.33812 -20.762917
-18.36063 78.38301 -21.540692
-19.614357 78.821571 -20.446987
-17.792736 79.554847 -20.793915
-25.120945 76.339241 -19.552692
-23.294026 77.207253 -19.822218
-25.687707 75.096504 -20.217537
-25.120945 76.339241 -19.552692
-24.419181 74.592758 -21.063383
-26.237669 73.688942 -20.767053
-25.687707 75.096504 -20.217537
-11.432424 80.824211 -22.707222
-12.559204 81.450836 -21.547766
-11.282512 77.377724 -25.368021
-9.715125 77.798371 -25.723678
-10.234447 76.365257 -26.40449
-15.168081 70.367065 -26.831043
-14.605248 72.110168 -26.497802
-16.860115 69.71228 -26.242998
-15.168081 70.367065 -26.831043
-24.824534 63.03599 -24.682761
-26.097522 64.000483 -24.077883
-24.824534 63.03599 -24.682761
-23.125843 63.811823 -25.135404
-30.762076 68.760147 -21.192284
-31.197868 67.19368 -21.629906
-29.040912 69.751023 -21.425117
-30.762076 68.760147 -21.192284
-30.281636 70.33812 -20.762917
-21.450541 78.031959 -20.162167
-19.614357 78.821571 -20.446987
-22.025735 76.825027 -20.853815
-23.294026 77.207253 -19.822218
-21.450541 78.031959 -20.162167
-10.749189 74.824883 -27.013067
-10.234447 76.365257 -26.40449
-12.350783 74.339684 -26.540854
-10.749189 74.824883 -27.013067
-15.999284 80.252892 -21.054217
-17.792736 79.554847 -20.793915
-29.951024 66.501846 -22.203936
-31.197868 67.19368 -21.629906
-28.665788 65.744934 -22.847341
-29.951024 66.501846 -22.203936
-28.236117 67.416138 -22.497891
-27.385166 64.906488 -23.422439
-28.665788 65.744934 -22.847341
-25.663237 65.75322 -23.79674
-26.097522 64.000483 -24.077883
-27.385166 64.906488 -23.422439
-22.147149 67.428223 -24.668005
-22.628805 65.651291 -24.930535
-23.893937 66.624145 -24.189653
-28.033333 72.760841 -20.458478
-29.786501 71.783554 -20.223434
-26.764807 72.257096 -21.304325
-28.033333 72.760841 -20.458478
-26.237669 73.688942 -20.767053
-20.361598 68.239372 -25.150169
-22.147149 67.428223 -24.668005
-21.62673 69.212226 -24.409288
-14.252893 80.871704 -21.359106
-12.559204 81.450836 -21.547766
-14.792618 79.735099 -22.192509
-15.999284 80.252892 -21.054217
-14.252893 80.871704 -21.359106
-9.255537 79.161217 -24.904238
-8.207471 78.148751 -25.940706
-9.715125 77.798371 -25.723678
-10.290906 80.052673 -23.802128
-9.255537 79.161217 -24.904238
-11.904709 79.582375 -23.592304
-11.432424 80.824211 -22.707222
-10.290906 80.052673 -23.802128
-14.049943 73.76065 -26.090553
-13.500993 75.365578 -25.598532
-12.350783 74.339684 -26.540854
-15.755458 73.136063 -25.555481
-14.049943 73.76065 -26.090553
-14.605248 72.110168 -26.497802
-18.625322 68.981178 -25.707359
-18.075972 70.754478 -25.427091
-16.860115 69.71228 -26.242998
-20.361598 68.239372 -25.150169
-18.625322 68.981178 -25.707359
3 22 21 5
3 23 7 24
3 0 25 27
3 25 8 26
3 25 26 27
3 0 10 8
3 1 11 6
3 1 12 11
3 2 28 29
3 2 30 31
3 2 32 34
3 32 13 33
3 32 33 34
3 3 14 9
3 3 15 14
3 35 16 36
3 4 37 39
3 37 17 38
3 37 38 39
3 4 18 17
3 4 19 18
3 40 20 41
3 43 42 20
3 5 44 45
3 47 46 5
3 48 6 49
3 7 50 52
3 50 6 51
3 50 51 52
3 7 1 6
3 8 53 54
3 8 55 57
3 55 2 56
3 55 56 57
3 8 9 2
3 10 9 8
3 10 3 9
3 58 4 59
3 61 60 4
3 62 0 63
3 6 64 65
3 11 66 68
3 68 67 6
3 66 67 68
3 11 69 70
3 11 71 73
3 71 5 72
3 71 72 73
3 12 5 11
3 12 74 76
3 76 75 5
3 74 75 76
3 77 7 78
3 13 79 81
3 79 7 80
3 79 80 81
3 13 1 7
3 9 13 2
3 14 13 9
3 14 1 13
3 14 12 1
3 15 12 14
3 15 82 84
3 84 83 12
3 82 83 84
3 16 85 86
3 16 87 89
3 87 0 88
3 87 88 89
3 17 90 92
3 90 91 92
3 17 93 94
3 17 95 97
3 95 16 96
3 95 96 97
3 18 16 17
3 18 0 16
3 18 10 0
3 19 10 18
3 19 3 10
3 98 19 99
3 100 99 4
3 98 99 100
3 20 101 103
3 101 19 102
3 101 102 103
3 20 3 19
3 20 15 3
3 104 15 105
3 106 105 20
3 104 105 106
3 108 107 15
