ply
format ascii 1.0
element vertex 378
property float x
property float y
property float z
element face 420
property list uchar int vertex_index
end_header
-10.741703 -81.386894 71.966873
-15.531427 -89.399826 50.344109
-23.713602 -74.101181 66.603302
-6.028147 -85.922668 66.632774
-9.143385 -92.834564 56.173988
-12.155848 -85.580765 63.131405
-24.488567 -77.719177 55.02573
-13.397329 -99.353348 44.368782
-17.116306 -78.405426 70.440659
-18.796894 -81.142395 58.931953
-8.396442 -83.524231 69.78714
-8.906687 -86.610062 65.070633
-11.205759 -83.526489 68.397781
-12.3843 -91.706848 53.441971
-11.510908 -95.975174 50.435734
-14.551246 -94.416702 47.005424
-20.613438 -76.255783 68.795746
-17.944809 -79.88208 65.137459
-21.149843 -77.675522 63.121788
-22.948151 -81.137321 50.685612
-5.981211 -92.171631 58.054333
-7.11133 -89.601669 61.611816
-10.329187 -89.240662 59.508919
-13.64056 -87.413422 56.990429
-23.928047 -75.731308 60.830986
-13.577465 -80.261856 71.530746
-19.683258 -74.466705 73.385429
-23.221758 -72.352196 71.656052
-25.369614 -68.088448 73.525589
-14.512916 -82.032646 66.892532
-15.529198 -83.490814 61.033489
-16.880747 -84.933304 54.463627
-21.807528 -79.133057 56.918789
-19.995911 -82.648453 52.287628
-18.601566 -86.834641 47.534763
-9.660231 -82.363235 71.063782
-9.731461 -83.760773 69.095543
-10.916487 -82.406158 70.489288
-9.926065 -80.803749 72.704498
-13.971655 -90.646973 51.898777
-13.491507 -93.008743 50.265507
-15.02381 -91.870071 48.569256
-16.535793 -90.58606 46.899124
-22.228695 -75.167297 67.769402
-20.89794 -76.99025 66.060532
-22.419983 -75.920929 64.966232
-5.627428 -89.074219 62.400349
-6.430944 -87.832397 64.190247
-10.499302 -86.278275 64.132706
-9.515181 -87.969818 62.369358
-11.161873 -87.39798 61.286247
-11.987049 -88.464462 58.276482
-12.834209 -86.505905 60.140759
-7.533173 -92.746185 57.238415
-8.732374 -94.464813 54.568047
-12.559528 -97.622086 47.44429
-11.061829 -97.901932 49.032188
-11.961603 -99.688919 46.143768
-20.848183 -72.355881 74.536415
-21.504883 -73.418678 72.610497
-22.675045 -71.319702 73.724182
-15.321587 -79.39389 71.05854
-14.060638 -81.191452 69.400848
-15.80125 -80.247162 68.718307
-18.343517 -80.513557 62.116005
-16.68701 -81.666016 63.11174
-17.187473 -82.304352 59.975838
-16.155945 -84.185593 57.81271
-17.771214 -82.967941 56.694473
-24.136002 -76.649261 57.893909
-22.837105 -77.44931 58.985149
-23.189564 -78.349365 55.957024
-21.495434 -81.776711 51.407494
-20.768921 -83.656372 48.920757
-19.244944 -84.628204 49.876774
-7.155264 -84.731537 68.287796
-7.407906 -86.502762 65.915344
-8.528685 -85.132294 67.560791
-10.019043 -85.069565 66.760124
-11.614529 -84.593994 65.909035
-10.770149 -92.466827 54.8909
-10.337084 -94.391693 53.343342
-11.928867 -93.882477 51.886669
-13.045954 -95.3647 48.796658
-14.035182 -96.945694 45.623894
-18.896582 -77.345657 69.685608
-17.553795 -79.193329 67.934158
-19.265945 -78.091942 67.048767
-19.591526 -78.759361 64.162842
-19.932718 -79.398819 61.095821
-25.011732 -78.997574 52.284782
-23.690304 -79.4245 52.987217
-5.000875 -90.181793 60.5452
-6.468056 -90.964218 59.852367
-8.037243 -91.254944 58.932316
-7.92642 -88.133698 63.350143
-8.692308 -89.644119 60.636082
-9.662703 -91.071747 57.809475
-11.30583 -90.468323 56.526344
-12.939974 -89.528824 55.139961
-14.551562 -88.35907 53.716221
-25.049988 -73.068901 65.295082
-23.812166 -74.902939 63.762722
-25.066296 -73.943924 62.448891
-25.137966 -74.887497 59.579659
-25.339762 -75.96225 56.779591
-9.94953 -96.169434 51.836674
-11.377874 -79.998657 73.191635
-11.981266 -80.952721 71.841583
-12.983603 -79.257172 73.234833
-14.741992 -78.42392 73.017822
-16.577158 -77.491425 72.601044
-17.796631 -75.479034 73.980484
-18.423664 -76.482437 72.010262
-20.228378 -75.425537 71.256081
-21.947525 -74.347061 70.340775
-23.545252 -73.267426 69.262276
-23.684031 -69.127762 74.58345
-24.381741 -70.266281 72.721512
-24.800138 -71.280777 70.519211
-24.99436 -72.200012 68.017639
-12.40185 -81.94751 69.983269
-12.815781 -82.91037 67.673492
-13.285254 -83.798508 65.014221
-16.239054 -80.99527 66.047287
-14.989646 -82.789352 64.079697
-13.843089 -84.616272 62.091282
-14.505541 -85.398788 58.971313
-15.274357 -86.198776 55.703171
-16.137642 -87.075943 52.323219
-22.599026 -76.661278 62.011822
-21.434814 -78.368576 60.052299
-20.341019 -80.070839 57.91114
-22.305849 -80.034935 53.779778
-20.854656 -80.841324 54.664989
-19.340544 -81.831818 55.639763
-18.455851 -83.721085 53.314014
-17.701038 -85.796738 51.025063
-17.071404 -88.088409 48.863087
-6.229546 -86.877533 65.41151
-5.747409 -87.440002 64.524116
-5.54601 -86.485138 65.74538
-5.408625 -85.400909 66.912846
-5.96555 -84.896004 67.76815
-5.54601 -86.485138 65.74538
-5.408625 -85.400909 66.912846
-12.986653 -100.446937 43.76899
-12.26879 -100.614723 44.656482
-12.679466 -99.521133 45.256275
-13.685215 -100.264366 42.795046
-12.986653 -100.446937 43.76899
-21.357855 -71.253647 74.991749
-20.401173 -71.75306 75.328472
-22.271286 -70.735557 74.585633
-21.761614 -71.837792 74.130299
-21.357855 -71.253647 74.991749
-21.209648 -84.283386 47.252127
-21.518335 -83.297062 48.552528
-20.448561 -84.701881 47.673071
-21.209648 -84.283386 47.252127
-7.782074 -83.169872 70.110848
-8.463646 -82.647259 70.759781
-7.775853 -84.127884 69.037468
-7.161485 -83.773526 69.361176
-7.782074 -83.169872 70.110848
-15.023141 -95.187927 45.341515
-14.765109 -96.452423 44.65075
-14.293214 -95.681198 46.314659
-24.681101 -79.86409 51.203823
-25.358891 -79.763188 50.997408
-4.641572 -89.121575 61.762774
-4.340974 -89.554405 60.775222
-25.649589 -73.009338 63.147398
-25.058142 -73.506412 63.871986
-25.641435 -72.571827 64.570493
-25.691072 -74.505432 58.921274
-25.663203 -73.96566 60.303888
-25.79197 -75.042809 57.521241
-25.238864 -75.424873 58.179625
-25.691072 -74.505432 58.921274
-5.801188 -92.677384 57.123877
-5.258467 -91.644051 58.334671
-10.305003 -97.817429 49.67361
-10.791574 -98.745339 48.322504
-12.598182 -78.710835 73.887627
-12.180739 -79.627915 73.213234
-11.795317 -79.081577 73.866028
-15.315905 -77.430897 73.702934
-14.377052 -77.877518 73.802932
-16.233488 -76.96465 73.494545
-15.659575 -77.957673 72.809433
-15.315905 -77.430897 73.702934
-18.739945 -74.97287 73.682957
-18.367328 -74.420852 74.570389
-19.310642 -73.914688 74.272862
-24.925674 -67.465984 74.357029
-25.752322 -66.953793 73.797924
-24.526823 -68.608105 74.054519
-24.082883 -67.985641 74.885959
-24.925674 -67.465984 74.357029
-25.507369 -70.747009 69.858338
-25.368384 -70.242889 71.02195
-25.60448 -71.206627 68.607551
-24.897249 -71.740395 69.268425
-25.507369 -70.747009 69.858338
-25.636573 -71.676003 67.311817
-25.60448 -71.206627 68.607551
-11.795317 -79.081577 73.866028
-10.949349 -79.490948 73.68351
-18.32199 -88.060242 46.445768
-17.556909 -88.687126 47.10993
-17.836485 -87.461525 48.198925
-9.228457 -81.287018 72.21846
-9.427432 -80.324844 73.071498
-9.09554 -82.066761 71.398102
-9.228457 -81.287018 72.21846
-9.793148 -81.583492 71.88414
-9.028336 -82.943733 70.425461
-8.463646 -82.647259 70.759781
-9.09554 -82.066761 71.398102
-15.529944 -92.554146 46.870128
-15.293662 -93.827461 46.088212
-14.787528 -93.143386 47.78734
-16.285936 -91.91214 46.035062
-15.529944 -92.554146 46.870128
-15.779802 -91.228065 47.73419
-17.026592 -91.270996 45.155727
-16.285936 -91.91214 46.035062
-5.34565 -88.060913 63.629167
-4.954849 -88.567788 62.690348
-6.029186 -88.453308 63.295298
-5.34565 -88.060913 63.629167
-5.747409 -87.440002 64.524116
-7.339633 -93.404731 56.379958
-6.563652 -93.117455 56.787917
-6.757192 -92.458908 57.646374
-7.939234 -94.264046 55.044774
-7.339633 -93.404731 56.379958
-8.132773 -93.605499 55.903231
-8.556209 -95.183448 53.756929
-7.939234 -94.264046 55.044774
-11.241461 -99.638832 46.878294
-10.791574 -98.745339 48.322504
-11.511716 -98.795425 47.587978
-11.581381 -100.587105 45.485031
-11.241461 -99.638832 46.878294
-11.581381 -100.587105 45.485031
-12.26879 -100.614723 44.656482
-19.893104 -72.859276 74.848354
-20.401173 -71.75306 75.328472
-20.265721 -73.411293 73.960922
-19.310642 -73.914688 74.272862
-19.893104 -72.859276 74.848354
-26.132518 -67.564346 72.897724
-25.752322 -66.953793 73.797924
-25.653122 -68.646725 72.525139
-26.132518 -67.564346 72.897724
-21.881592 -82.357232 49.795896
-22.221792 -81.457016 51.046553
-22.607951 -82.037537 49.434956
-21.132177 -82.716542 50.164125
-21.881592 -82.357232 49.795896
-21.518335 -83.297062 48.552528
-19.686573 -85.187797 48.151079
-20.006932 -84.142288 49.398765
-20.448561 -84.701881 47.673071
-19.364883 -86.291016 46.980074
-18.923255 -85.731423 48.705768
-19.686573 -85.187797 48.151079
-19.079073 -87.465043 45.784384
-19.364883 -86.291016 46.980074
-6.529109 -84.300438 68.595661
-6.53533 -83.342426 69.66904
-7.161485 -83.773526 69.361176
-6.591705 -85.327102 67.460285
-5.96555 -84.896004 67.76815
-6.529109 -84.300438 68.595661
-14.43292 -97.79396 44.002968
-14.113993 -98.997788 43.375412
-13.716255 -98.149521 44.996338
-14.43292 -97.79396 44.002968
-14.765109 -96.452423 44.65075
-15.023141 -95.187927 45.341515
-15.293662 -93.827461 46.088212
-24.020387 -80.077553 51.555041
-24.351018 -79.211037 52.635999
-24.681101 -79.86409 51.203823
-23.649311 -80.933964 50.404238
-23.319228 -80.280911 51.836415
-24.020387 -80.077553 51.555041
-23.34089 -81.815514 49.18191
-23.649311 -80.933964 50.404238
-22.607951 -82.037537 49.434956
-23.34089 -81.815514 49.18191
-4.768299 -90.649132 59.580105
-4.340974 -89.554405 60.775222
-5.491043 -91.176712 59.299767
-5.258467 -91.644051 58.334671
-4.768299 -90.649132 59.580105
-5.314151 -89.628006 61.472774
-4.641572 -89.121575 61.762774
-4.954849 -88.567788 62.690348
-25.627368 -73.493874 61.738505
-25.649589 -73.009338 63.147398
-25.102131 -74.41571 61.014275
-25.627368 -73.493874 61.738505
-25.663203 -73.96566 60.303888
-25.905012 -75.66748 56.213313
-25.79197 -75.042809 57.521241
-25.52849 -76.593799 55.451914
-25.905012 -75.66748 56.213313
-25.102892 -77.472263 54.574984
-24.914164 -76.840713 55.902661
-25.52849 -76.593799 55.451914
-25.364475 -78.111461 53.20451
-24.750149 -78.358375 53.655256
-25.102892 -77.472263 54.574984
-25.64815 -78.86015 51.975493
-25.364475 -78.111461 53.20451
-25.358891 -79.763188 50.997408
-25.64815 -78.86015 51.975493
-5.801188 -92.677384 57.123877
-6.563652 -93.117455 56.787917
-9.164786 -96.035759 52.391243
-8.556209 -95.183448 53.756929
-9.340952 -95.317124 53.20236
-9.748854 -96.951179 51.075854
-10.505679 -97.035683 50.434431
-10.305003 -97.817429 49.67361
-9.164786 -96.035759 52.391243
-9.748854 -96.951179 51.075854
-14.401879 -99.908806 41.801676
-13.685215 -100.264366 42.795046
-14.113993 -98.997788 43.375412
-13.497857 -78.294144 73.911438
-12.598182 -78.710835 73.887627
-13.862797 -78.840546 73.126328
-13.497857 -78.294144 73.911438
-14.377052 -77.877518 73.802932
-17.390583 -74.903289 74.786419
-18.367328 -74.420852 74.570389
-16.843224 -75.958454 74.184265
-17.390583 -74.903289 74.786419
-17.186895 -76.48523 73.290764
-16.233488 -76.96465 73.494545
-16.843224 -75.958454 74.184265
-23.188547 -68.491569 75.349941
-23.5874 -67.349449 75.652451
-24.082883 -67.985641 74.885959
-22.775779 -69.639588 75.015266
-23.188547 -68.491569 75.349941
-23.179538 -70.223732 74.153816
-22.271286 -70.735557 74.585633
-22.775779 -69.639588 75.015266
-25.159185 -69.735641 72.1231
-24.875678 -69.177365 73.12355
-25.653122 -68.646725 72.525139
-24.59094 -70.773529 71.620362
-25.159185 -69.735641 72.1231
-25.368384 -70.242889 71.02195
-25.664387 -72.110447 65.950538
-25.022174 -72.634456 66.656361
-25.636573 -71.676003 67.311817
-25.641435 -72.571827 64.570493
-25.664387 -72.110447 65.950538
-10.223444 -79.893494 73.439942
-9.427432 -80.324844 73.071498
-9.724811 -79.414589 73.806942
-10.651969 -80.401203 72.948067
-10.223444 -79.893494 73.439942
-10.949349 -79.490948 73.68351
-17.289104 -89.935952 46.127949
-16.803598 -89.337234 47.881106
-17.556909 -88.687126 47.10993
-17.026592 -91.270996 45.155727
-17.289104 -89.935952 46.127949
-18.32199 -88.060242 46.445768
-19.079073 -87.465043 45.784384
3 0 37 35
3 0 35 38
3 1 41 39
3 1 42 41
3 2 45 43
3 3 139 141
3 139 47 140
3 139 140 141
3 5 50 48
3 5 52 50
3 3 142 143
3 3 144 145
3 4 54 53
3 7 57 55
3 7 146 148
3 148 147 57
3 146 147 148
3 7 149 150
3 151 58 152
3 153 60 154
3 155 154 58
3 153 154 155
3 8 63 61
3 9 66 64
3 9 68 66
3 6 71 69
3 156 73 157
3 159 158 73
3 10 77 75
3 12 78 36
3 12 79 78
3 10 160 161
3 10 162 164
3 162 75 163
3 162 163 164
3 13 82 80
3 15 83 40
3 15 84 83
3 15 165 167
3 167 166 84
3 165 166 167
3 16 87 85
3 18 88 44
3 18 89 88
3 169 168 90
3 170 92 171
3 21 93 46
3 21 94 93
3 11 95 76
3 22 96 49
3 22 97 96
3 22 98 97
3 23 99 51
3 23 100 99
3 172 103 173
3 174 173 101
3 172 173 174
3 175 104 176
3 177 105 178
3 179 178 104
3 177 178 179
3 20 180 181
3 14 106 81
3 183 182 56
3 184 109 185
3 186 185 107
3 184 185 186
3 187 110 188
3 189 111 190
3 191 190 110
3 189 190 191
3 26 192 194
3 192 112 193
3 192 193 194
3 26 113 112
3 26 114 113
3 27 115 59
3 27 116 115
3 28 195 196
3 28 197 199
3 197 117 198
3 197 198 199
3 28 118 117
3 200 119 201
3 202 120 203
3 204 203 119
3 202 203 204
3 206 205 120
3 207 107 208
3 25 121 108
3 29 122 62
3 29 123 122
3 17 124 86
3 30 125 65
3 30 126 125
3 30 127 126
3 31 128 67
3 31 129 128
3 24 130 102
3 32 131 70
3 32 132 131
3 19 133 91
3 33 134 72
3 33 135 134
3 33 136 135
3 34 137 74
3 34 138 137
3 34 209 211
3 211 210 138
3 209 210 211
3 35 36 10
3 37 36 35
3 37 12 36
3 38 212 213
3 35 214 216
3 216 215 38
3 214 215 216
3 35 217 219
3 217 10 218
3 217 218 219
3 39 40 13
3 41 40 39
3 41 15 40
3 41 220 222
3 222 221 15
3 220 221 222
3 42 223 225
3 225 224 41
3 223 224 225
3 42 226 227
3 43 44 16
3 45 44 43
3 45 18 44
3 228 46 229
3 47 230 232
3 230 46 231
3 230 231 232
3 47 21 46
3 48 49 11
3 50 49 48
3 50 22 49
3 50 51 22
3 52 51 50
3 52 23 51
3 53 233 235
3 235 234 20
3 233 234 235
3 54 236 238
3 238 237 53
3 236 237 238
3 54 239 240
3 55 56 14
3 57 56 55
3 57 241 243
3 243 242 56
3 241 242 243
3 57 244 245
3 247 246 57
3 58 248 249
3 58 250 252
3 250 26 251
3 250 251 252
3 58 59 26
3 60 59 58
3 60 27 59
3 253 28 254
3 256 255 28
3 61 62 25
3 63 62 61
3 63 29 62
3 64 65 17
3 66 65 64
3 66 30 65
3 66 67 30
3 68 67 66
3 68 31 67
3 69 70 24
3 71 70 69
3 71 32 70
3 257 72 258
3 259 258 19
3 257 258 259
3 73 260 262
3 260 72 261
3 260 261 262
3 73 33 72
3 73 74 33
3 263 74 264
3 265 264 73
3 263 264 265
3 266 34 267
3 268 267 74
3 266 267 268
3 270 269 34
3 75 76 3
3 77 76 75
3 77 11 76
3 36 77 10
3 78 77 36
3 78 11 77
3 78 48 11
3 79 48 78
3 79 5 48
3 75 271 273
3 271 272 273
3 75 274 276
3 274 3 275
3 274 275 276
3 80 81 4
3 82 81 80
3 82 14 81
3 40 82 13
3 83 82 40
3 83 14 82
3 83 55 14
3 84 55 83
3 84 7 55
3 84 277 279
3 279 278 7
3 277 278 279
3 281 280 84
3 283 282 15
3 85 86 8
3 87 86 85
3 87 17 86
3 44 87 16
3 88 87 44
3 88 17 87
3 88 64 17
3 89 64 88
3 89 9 64
3 90 91 6
3 284 91 285
3 286 285 90
3 284 285 286
3 287 19 288
3 289 288 91
3 287 288 289
3 290 19 291
3 293 292 19
3 92 294 295
3 92 296 298
3 296 20 297
3 296 297 298
3 46 299 301
3 299 92 300
3 299 300 301
3 93 92 46
3 93 20 92
3 93 53 20
3 94 53 93
3 94 4 53
3 76 47 3
3 95 47 76
3 95 21 47
3 49 95 11
3 96 95 49
3 96 21 95
3 96 94 21
3 97 94 96
3 97 4 94
3 97 80 4
3 98 80 97
3 98 13 80
3 51 98 22
3 99 98 51
3 99 13 98
3 99 39 13
3 100 39 99
3 100 1 39
3 101 102 2
3 103 102 101
3 103 24 102
3 302 103 303
3 104 304 306
3 304 103 305
3 304 305 306
3 104 24 103
3 104 69 24
3 105 69 104
3 105 6 69
3 307 105 308
3 309 105 310
3 311 6 312
3 313 312 105
3 311 312 313
3 314 90 315
3 316 315 6
3 314 315 316
3 317 90 318
3 320 319 90
3 322 321 20
3 81 54 4
3 106 54 81
3 106 323 325
3 325 324 54
3 323 324 325
3 56 106 14
3 326 106 327
3 328 327 56
3 326 327 328
3 330 329 106
3 333 332 7
3 331 332 333
3 107 108 0
3 109 108 107
3 109 25 108
3 334 109 335
3 110 336 338
3 336 109 337
3 336 337 338
3 110 25 109
3 110 61 25
3 111 61 110
3 111 8 61
3 112 339 340
3 112 341 342
3 112 343 345
3 343 111 344
3 343 344 345
3 113 111 112
3 113 8 111
3 113 85 8
3 114 85 113
3 114 16 85
3 59 114 26
3 115 114 59
3 115 16 114
3 115 43 16
3 116 43 115
3 116 2 43
3 117 346 348
3 346 347 348
3 117 349 350
3 117 351 353
3 351 60 352
3 351 352 353
3 118 60 117
3 118 27 60
3 354 118 355
3 356 355 28
3 354 355 356
3 119 357 359
3 357 118 358
3 357 358 359
3 119 27 118
3 119 116 27
3 120 116 119
3 120 2 116
3 120 101 2
3 360 101 361
3 362 361 120
3 360 361 362
3 364 363 101
3 365 38 366
3 365 366 367
3 107 368 370
3 368 38 369
3 368 369 370
3 107 0 38
3 108 37 0
3 121 37 108
3 121 12 37
3 62 121 25
3 122 121 62
3 122 12 121
3 122 79 12
3 123 79 122
3 123 5 79
3 86 63 8
3 124 63 86
3 124 29 63
3 65 124 17
3 125 124 65
3 125 29 124
3 125 123 29
3 126 123 125
3 126 5 123
3 126 52 5
3 127 52 126
3 127 23 52
3 67 127 30
3 128 127 67
3 128 23 127
3 128 100 23
3 129 100 128
3 129 1 100
3 102 45 2
3 130 45 102
3 130 18 45
3 70 130 24
3 131 130 70
3 131 18 130
3 131 89 18
3 132 89 131
3 132 9 89
3 91 71 6
3 133 71 91
3 133 32 71
3 72 133 19
3 134 133 72
3 134 32 133
3 134 132 32
3 135 132 134
3 135 9 132
3 135 68 9
3 136 68 135
3 136 31 68
3 74 136 33
3 137 136 74
3 137 31 136
3 137 129 31
3 138 129 137
3 138 1 129
3 138 42 1
3 371 42 372
3 373 372 138
3 371 372 373
3 375 374 42
3 377 376 34
