ply
format ascii 1.0
element vertex 129
property float x
property float y
property float z
element face 112
property list uchar int vertex_index
end_header
-53.792686 -11.287699 15.010088
-62.802437 -12.202734 16.165993
-58.372246 -11.924245 15.267212
-58.523827 -17.262682 17.92462
-53.622528 -17.228992 17.501143
-58.359055 -6.083911 12.274504
-54.210594 -4.827149 12.036657
-66.006485 -7.362661 14.842075
-62.473637 -6.963796 13.134804
-56.065823 -11.647437 15.082013
-56.0326 -14.534483 16.431515
-53.662239 -14.331648 16.329041
-51.240669 -17.099483 17.406172
-58.359276 -3.021875 10.743332
-60.450691 -6.577827 12.611353
-60.644211 -12.112099 15.614731
-60.752769 -14.699574 17.036108
-58.421165 -14.658127 16.649574
-56.073837 -17.282043 17.653139
-56.150475 -8.627757 13.624558
-53.985493 -8.110862 13.566067
-56.263077 -5.496055 12.093897
-64.580383 -9.761114 15.40633
-64.351997 -7.228418 13.871767
-62.649502 -9.638544 14.655504
-60.548088 -9.401694 14.129467
-58.35746 -9.061172 13.798316
-52.698996 -11.068554 15.004032
-52.58263 -12.66869 15.646407
-52.58263 -12.66869 15.646407
-52.517406 -14.190665 16.305884
-53.727463 -12.809673 15.669564
-62.873323 -13.427573 16.899724
-63.782666 -12.195066 16.558502
-53.660559 -18.603622 18.009645
-54.886213 -18.630147 18.085643
-54.848183 -17.255518 17.577141
-52.431278 -18.609484 17.929761
-53.660559 -18.603622 18.009645
-50.071664 -18.509352 17.798271
-50.113634 -16.993448 17.354011
-57.369141 -2.653646 10.643769
-58.348442 -1.46867 10.007542
-66.133034 -8.562629 15.621095
-66.685173 -7.36456 15.447692
-65.293434 -8.561887 15.124202
-65.419983 -9.761856 15.903223
-66.133034 -8.562629 15.621095
-63.412817 -7.096107 13.503286
-64.213234 -5.918413 13.12827
-63.274054 -5.786102 12.759789
-53.057274 -6.173053 12.807101
-52.944723 -7.81491 13.571807
-54.098044 -6.469005 12.801362
-59.707945 -17.216495 18.147032
-60.822416 -15.93494 17.702776
-59.638298 -15.981128 17.480364
-51.306621 -15.574582 16.844449
-52.451454 -15.715566 16.867607
-52.517406 -14.190665 16.305884
-50.113634 -16.993448 17.354011
-51.306621 -15.574582 16.844449
-59.350065 -3.344122 10.923048
-58.359166 -4.552893 11.508918
-59.349955 -4.87514 11.688634
-59.282317 -1.864029 10.202891
-59.350065 -3.344122 10.923048
-58.348442 -1.46867 10.007542
-59.282317 -1.864029 10.202891
-66.514717 -6.181094 14.692718
-66.685173 -7.36456 15.447692
-62.371229 -5.582458 12.388907
-63.274054 -5.786102 12.759789
-61.359757 -5.389474 12.127181
-61.462164 -6.770812 12.873079
-62.371229 -5.582458 12.388907
-60.395773 -5.122098 11.857059
-61.359757 -5.389474 12.127181
-59.349955 -4.87514 11.688634
-59.404873 -6.330869 12.442929
-60.395773 -5.122098 11.857059
-53.221367 -4.458118 12.051538
-54.324016 -3.150057 11.259707
-58.612307 -18.506206 18.502264
-57.367529 -18.579177 18.331167
-56.142534 -18.588858 18.195426
-57.367529 -18.579177 18.331167
-57.298832 -17.272362 17.78888
-56.142534 -18.588858 18.195426
-54.886213 -18.630147 18.085643
-51.240348 -18.544729 17.882275
-52.431278 -18.609484 17.929761
-52.431598 -17.164237 17.453657
-51.240348 -18.544729 17.882275
-50.071664 -18.509352 17.798271
-56.321041 -3.890737 11.319051
-57.311177 -4.258965 11.418615
-57.369141 -2.653646 10.643769
-55.294799 -3.556284 11.290431
-55.236835 -5.161602 12.065277
-56.321041 -3.890737 11.319051
-54.324016 -3.150057 11.259707
-55.294799 -3.556284 11.290431
-64.671639 -10.974256 16.178671
-65.419983 -9.761856 15.903223
-63.69141 -10.981924 15.786162
-63.782666 -12.195066 16.558502
-64.671639 -10.974256 16.178671
-65.84475 -6.118984 14.094765
-66.514717 -6.181094 14.692718
-65.017505 -6.051863 13.609611
-64.213234 -5.918413 13.12827
-65.179241 -7.29554 14.356921
-65.84475 -6.118984 14.094765
-65.017505 -6.051863 13.609611
-52.795399 -9.480135 14.282021
-52.698996 -11.068554 15.004032
-53.889089 -9.699281 14.288077
-52.795399 -9.480135 14.282021
-52.944723 -7.81491 13.571807
-53.057274 -6.173053 12.807101
-53.221367 -4.458118 12.051538
-61.848489 -14.675994 17.334781
-62.873323 -13.427573 16.899724
-61.777603 -13.451154 16.60105
-61.848489 -14.675994 17.334781
-60.822416 -15.93494 17.702776
-59.707945 -17.216495 18.147032
-58.612307 -18.506206 18.502264
3 0 27 28
3 0 11 9
3 0 29 31
3 31 30 11
3 29 30 31
3 1 32 33
3 2 17 15
3 4 18 10
3 4 34 36
3 36 35 18
3 34 35 36
3 4 37 38
3 40 39 12
3 5 21 19
3 42 41 13
3 7 43 44
3 7 45 47
3 45 22 46
3 45 46 47
3 8 48 50
3 48 23 49
3 48 49 50
3 8 24 23
3 8 25 24
3 5 26 14
3 5 19 26
3 6 51 53
3 53 52 20
3 51 52 53
3 3 54 56
3 56 55 16
3 54 55 56
3 9 10 2
3 11 10 9
3 11 4 10
3 11 12 4
3 57 12 58
3 59 58 11
3 57 58 59
3 61 60 12
3 62 13 63
3 64 63 5
3 62 63 64
3 65 13 66
3 68 67 13
3 69 7 70
3 71 8 72
3 73 14 74
3 75 74 8
3 73 74 75
3 76 14 77
3 78 5 79
3 80 79 14
3 78 79 80
3 82 81 6
3 84 83 3
3 15 16 1
3 17 16 15
3 17 3 16
3 10 17 2
3 18 17 10
3 18 3 17
3 18 85 87
3 87 86 3
3 85 86 87
3 89 88 18
3 12 90 92
3 92 91 4
3 90 91 92
3 94 93 12
3 19 20 0
3 21 20 19
3 21 6 20
3 13 21 5
3 95 21 96
3 97 96 13
3 95 96 97
3 98 6 99
3 100 99 21
3 98 99 100
3 102 101 6
3 22 103 104
3 22 105 107
3 105 1 106
3 105 106 107
3 108 7 109
3 23 110 111
3 23 112 114
3 112 7 113
3 112 113 114
3 23 22 7
3 24 22 23
3 24 1 22
3 24 15 1
3 25 15 24
3 25 2 15
3 14 25 8
3 26 25 14
3 26 2 25
3 26 9 2
3 19 9 26
3 19 0 9
3 20 115 117
3 117 116 0
3 115 116 117
3 119 118 20
3 121 120 6
3 16 122 124
3 124 123 1
3 122 123 124
3 126 125 16
3 128 127 3
