ply
format ascii 1.0
element vertex 345
property float x
property float y
property float z
element face 374
property list uchar int vertex_index
end_header
0.14839 -73.429382 71.459534
-0.376373 -69.133499 65.16687
4.110527 -75.368088 75.712944
2.232512 -83.669983 67.039024
2.510397 -65.320007 80.110329
1.401295 -62.576756 73.905052
0.045771 -66.785233 61.981812
1.629877 -74.82061 73.970329
2.819147 -79.730438 71.650192
0.690964 -78.843323 69.426765
4.582424 -65.910736 81.647911
3.638142 -60.953739 83.892036
2.148922 -58.917778 77.994225
1.822781 -60.910549 69.847527
-0.437653 -71.440376 68.429428
-0.493391 -77.047653 66.636429
-0.865942 -74.612694 63.592232
7.510494 -74.966309 76.57608
5.861504 -79.531509 73.057007
4.919102 -83.722244 68.829628
0.410589 -82.414474 64.512093
1.204517 -62.399117 62.200035
5.840673 -70.695549 79.137756
3.02424 -70.482414 78.037827
1.23963 -69.491241 75.95414
2.378674 -60.158184 81.528778
1.509579 -64.132065 77.43425
0.44371 -67.91069 73.053398
0.396608 -66.0103 69.610519
0.753708 -64.067505 65.909721
0.311926 -65.710007 60.552818
-0.071918 -67.860985 60.013077
0.766424 -74.217049 72.797218
1.087881 -76.878647 71.755585
0.305519 -76.177002 70.486885
4.684124 -61.1287 84.530594
4.062618 -58.705864 85.593002
-0.469574 -70.309738 66.808952
-0.716789 -73.081467 66.03344
-0.707571 -71.833893 64.457451
5.707117 -75.284378 76.253304
6.61512 -77.291077 74.914299
4.897984 -77.571091 74.448685
2.425682 -81.760933 69.39933
3.751343 -81.868965 70.32058
3.473259 -83.854988 68.044296
4.775484 -85.656624 66.530731
3.414738 -85.715965 65.678352
-0.598799 -78.689377 64.13089
-0.175894 -79.793289 65.604591
3.410749 -65.700615 81.032928
3.802834 -68.222656 79.897942
2.703424 -67.914108 79.121384
2.000673 -70.075371 77.112839
1.872709 -67.431679 78.074425
2.635567 -58.113197 83.42981
1.838675 -60.770794 75.980438
1.812103 -61.503452 77.854935
1.363657 -63.38385 75.755394
0.976833 -66.048599 75.275391
0.856268 -65.2127 73.595291
0.347313 -66.982994 71.381683
0.898426 -64.326096 71.779068
1.275745 -62.530449 67.883102
1.519657 -61.684414 65.869545
0.982584 -63.17382 64.04509
-0.193827 -67.94561 63.542397
-0.577351 -70.530289 62.898628
-0.356688 -69.198105 61.399376
2.746149 -75.21096 74.949188
3.390989 -77.594505 73.76062
2.11676 -77.35939 72.856529
1.634743 -79.415489 70.627777
1.326885 -81.36235 68.281281
4.082895 -63.437992 82.841583
3.11137 -63.159725 82.055092
2.332167 -58.204601 75.916862
2.02232 -60.000088 73.944969
1.571974 -61.742653 71.923355
2.308157 -59.219604 71.789818
-0.243359 -72.491898 69.991631
-0.240822 -75.286736 69.085411
-0.572063 -74.243248 67.588463
-0.768349 -75.893463 65.126556
-0.815037 -73.233887 62.071136
8.511478 -76.772476 75.164291
7.670746 -79.029114 73.420685
7.005722 -81.198387 71.481422
4.234728 -79.770134 72.465622
5.286783 -81.67807 71.018906
-0.014133 -78.042641 68.083138
0.461271 -80.6959 67.002472
1.210573 -83.180885 65.847488
2.250095 -85.440865 64.609589
3.575739 -87.439568 63.268677
0.794321 -63.761192 60.663834
6.621531 -72.922012 77.877571
4.940842 -73.064621 77.503143
5.163429 -68.342529 80.396179
4.30884 -70.692253 78.712799
3.489475 -72.984657 76.899956
2.287067 -72.684555 76.063828
1.342493 -72.179115 75.005913
0.652292 -71.493301 73.749695
3.208527 -58.481487 84.703552
2.869457 -60.624641 82.881027
2.416986 -62.728413 80.937904
2.149315 -59.579292 79.882156
1.991968 -62.166645 79.52317
1.881735 -64.788101 78.89949
1.304214 -66.799576 76.781105
0.729065 -68.758514 74.589622
0.200256 -70.658997 72.326416
-0.041401 -69.711441 70.770844
-0.109055 -68.68631 69.118523
-0.043491 -67.6185 67.405067
1.054369 -63.421558 69.863457
0.546272 -65.026688 67.775154
0.11458 -66.543167 65.666512
0.328075 -65.499855 63.940186
0.564749 -64.542206 62.264061
0.285415 -66.115478 59.685638
0.435712 -65.28278 59.985634
4.217718 -57.564224 86.355961
4.625568 -58.741295 85.832131
-0.386549 -80.046867 63.605064
-0.578495 -79.437248 62.862945
1.946366 -60.51938 65.707928
1.811769 -60.895466 66.790634
1.63596 -61.300916 64.858559
1.946366 -60.51938 65.707928
-0.224382 -69.064953 59.618065
-0.053548 -68.279873 58.997299
2.488802 -57.836483 74.806896
2.548665 -56.937862 75.736748
2.333878 -58.734226 73.820949
2.177244 -59.102345 74.930915
2.488802 -57.836483 74.806896
2.476797 -58.343984 72.743374
2.165239 -59.609846 72.867393
2.333878 -58.734226 73.820949
-0.847009 -76.015225 63.107746
-0.798212 -76.655609 63.874908
-0.817145 -75.253079 64.359394
-0.729316 -72.507225 61.336178
-0.696194 -71.882088 62.484882
-0.610473 -71.155426 61.749924
8.010986 -75.869393 75.870186
8.999501 -75.603397 75.931881
8.499009 -74.700314 76.637776
5.732942 -83.499344 69.101864
5.916783 -82.477257 70.196503
5.102942 -82.700157 69.924267
5.615945 -84.491897 67.984318
5.732942 -83.499344 69.101864
5.542155 -86.40514 65.677509
4.817139 -86.565693 65.350395
2.36249 -86.24847 63.381878
1.770809 -85.1456 63.987141
3.025313 -87.247822 62.711422
2.912917 -86.440216 63.939133
2.36249 -86.24847 63.381878
1.30242 -62.104561 61.27753
1.097322 -62.785598 60.50943
0.999419 -63.080154 61.431934
6.231102 -71.80878 78.507664
7.108676 -71.708385 78.604134
6.718247 -70.595154 79.234226
4.872927 -67.126632 81.022045
5.587269 -67.141956 81.176518
5.296766 -65.92606 81.802383
2.977483 -57.259996 84.950108
3.314293 -57.393217 85.536781
2.149119 -59.248535 78.93819
2.217431 -58.304268 79.907295
2.217234 -57.973511 78.96333
0.093494 -67.190967 59.415768
0.120004 -66.785496 60.282948
0.285415 -66.115478 59.685638
-0.053548 -68.279873 58.997299
0.093494 -67.190967 59.415768
4.936322 -59.952713 85.300927
5.337588 -61.13586 84.660644
4.373371 -59.917282 85.061798
4.936322 -59.952713 85.300927
4.625568 -58.741295 85.832131
4.136767 -86.595363 64.924205
4.817139 -86.565693 65.350395
4.095111 -85.686295 66.104542
-0.175096 -80.598824 64.341915
-0.387346 -79.241333 64.86774
-0.386549 -80.046867 63.605064
0.118145 -81.909416 63.795666
0.117347 -81.103881 65.058342
-0.175096 -80.598824 64.341915
1.577792 -61.331573 62.013813
1.478391 -61.658268 63.023803
6.303265 -69.482715 79.883106
6.718247 -70.595154 79.234226
2.494535 -56.874275 83.537575
2.691003 -57.075851 84.313237
2.485829 -57.866758 82.624863
2.494535 -56.874275 83.537575
2.357382 -58.889252 81.674347
2.507121 -59.13569 82.479294
2.485829 -57.866758 82.624863
1.689812 -61.318483 67.797413
1.549263 -61.720499 68.865314
1.963331 -60.508533 68.779625
1.397701 -62.107431 66.876323
1.689812 -61.318483 67.797413
1.811769 -60.895466 66.790634
1.367424 -62.04562 63.946331
1.251121 -62.429117 64.957318
1.63596 -61.300916 64.858559
1.478391 -61.658268 63.023803
1.093551 -62.786468 63.122563
1.367424 -62.04562 63.946331
-0.500142 -70.489334 61.000298
-0.610473 -71.155426 61.749924
-0.467019 -69.864197 62.149002
-0.366767 -69.733513 60.311214
-0.214303 -68.529545 60.706226
-0.224382 -69.064953 59.618065
-0.500142 -70.489334 61.000298
-0.366767 -69.733513 60.311214
4.952916 -64.730322 82.465855
5.296766 -65.92606 81.802383
5.003766 -62.339304 83.907196
5.337588 -61.13586 84.660644
4.703151 -63.49395 83.062691
5.003766 -62.339304 83.907196
4.383509 -62.283346 83.686088
4.33266 -64.674364 82.244747
4.952916 -64.730322 82.465855
4.703151 -63.49395 83.062691
2.296959 -57.643774 77.910443
2.217234 -57.973511 78.96333
2.388581 -57.287185 76.871761
2.548665 -56.937862 75.736748
2.240545 -58.561189 76.955544
2.296959 -57.643774 77.910443
2.388581 -57.287185 76.871761
2.669989 -57.976209 71.582821
2.476797 -58.343984 72.743374
2.47467 -58.836318 70.671086
2.669989 -57.976209 71.582821
2.231981 -59.681791 69.69994
2.065469 -60.065077 70.818672
2.47467 -58.836318 70.671086
1.963331 -60.508533 68.779625
2.231981 -59.681791 69.69994
-0.713437 -78.053566 63.377075
-0.683574 -77.29142 64.628723
-0.798212 -76.655609 63.874908
-0.578495 -79.437248 62.862945
-0.713437 -78.053566 63.377075
-0.807931 -73.858742 60.865822
-0.729316 -72.507225 61.336178
-0.851233 -74.620872 61.596058
-0.807931 -73.858742 60.865822
-0.876686 -75.310276 62.356606
-0.84049 -73.923291 62.831684
-0.851233 -74.620872 61.596058
-0.847009 -76.015225 63.107746
-0.876686 -75.310276 62.356606
9.530773 -76.410225 75.190003
10.018796 -75.241146 75.957593
8.999501 -75.603397 75.931881
9.069485 -77.533791 74.364952
9.530773 -76.410225 75.190003
8.649119 -78.66211 73.493149
9.069485 -77.533791 74.364952
8.091112 -77.900795 74.292488
8.273031 -79.744614 72.565079
8.649119 -78.66211 73.493149
7.940518 -80.829251 71.595448
8.273031 -79.744614 72.565079
7.338234 -80.113751 72.451054
7.665838 -81.871338 70.576851
7.940518 -80.829251 71.595448
6.776252 -82.237415 70.427761
6.146252 -81.438229 71.250164
5.916783 -82.477257 70.196503
7.665838 -81.871338 70.576851
6.776252 -82.237415 70.427761
5.544136 -85.459087 66.834869
5.615945 -84.491897 67.984318
4.847293 -84.689434 67.68018
5.544136 -85.459087 66.834869
5.542155 -86.40514 65.677509
0.474889 -83.194561 63.251827
0.118145 -81.909416 63.795666
0.851056 -83.632404 63.938393
0.474889 -83.194561 63.251827
1.251048 -84.01561 64.60609
0.810581 -82.79768 65.17979
0.851056 -83.632404 63.938393
1.730334 -84.310875 65.228538
1.251048 -84.01561 64.60609
1.770809 -85.1456 63.987141
4.217267 -87.457165 63.719368
4.136767 -86.595363 64.924205
3.495239 -86.577766 64.473514
3.757618 -88.226387 62.063546
3.025313 -87.247822 62.711422
4.365214 -88.304874 62.531639
3.757618 -88.226387 62.063546
4.217267 -87.457165 63.719368
4.365214 -88.304874 62.531639
0.8896 -63.547672 59.844124
0.67691 -64.308373 60.041142
0.8896 -63.547672 59.844124
1.097322 -62.785598 60.50943
1.30242 -62.104561 61.27753
1.577792 -61.331573 62.013813
8.006759 -73.766762 77.309292
8.499009 -74.700314 76.637776
7.562277 -72.744613 77.960037
7.108676 -71.708385 78.604134
7.066012 -73.94416 77.226826
8.006759 -73.766762 77.309292
7.562277 -72.744613 77.960037
5.964643 -68.306206 80.512317
5.587269 -67.141956 81.176518
5.502051 -69.519039 79.766967
6.303265 -69.482715 79.883106
5.964643 -68.306206 80.512317
3.741338 -57.505405 85.981506
4.217718 -57.564224 86.355961
3.896438 -56.363766 86.744464
3.635572 -58.593676 85.148277
3.741338 -57.505405 85.981506
3.314293 -57.393217 85.536781
2.922047 -58.297342 84.066681
2.977483 -57.259996 84.950108
2.691003 -57.075851 84.313237
2.242703 -58.599806 80.851036
2.217431 -58.304268 79.907295
2.263994 -59.868738 80.705467
2.357382 -58.889252 81.674347
2.242703 -58.599806 80.851036
0.67691 -64.308373 60.041142
0.435712 -65.28278 59.985634
0.553123 -64.7356 60.608326
3 122 121 30
3 0 34 32
3 123 36 124
3 1 39 37
3 2 42 40
3 3 45 43
3 3 47 45
3 126 125 48
3 4 52 50
3 4 54 52
3 5 58 56
3 5 60 58
3 5 62 60
3 127 64 128
3 130 129 64
3 6 68 66
3 132 131 31
3 7 71 69
3 9 72 33
3 9 73 72
3 11 74 35
3 11 75 74
3 133 76 134
3 135 77 136
3 137 136 76
3 135 136 137
3 138 79 139
3 140 139 77
3 138 139 140
3 14 82 80
3 16 83 38
3 16 141 143
3 143 142 83
3 141 142 143
3 144 84 145
3 146 145 67
3 144 145 146
3 17 147 149
3 147 85 148
3 147 148 149
3 18 86 41
3 18 87 86
3 8 88 70
3 19 89 44
3 19 150 152
3 152 151 89
3 150 151 152
3 19 153 154
3 156 155 46
3 15 90 81
3 20 91 49
3 20 92 91
3 157 93 158
3 159 94 160
3 161 160 93
3 159 160 161
3 21 162 164
3 164 163 95
3 162 163 164
3 22 165 167
3 165 96 166
3 165 166 167
3 22 97 96
3 10 168 170
3 168 98 169
3 168 169 170
3 23 99 51
3 23 100 99
3 23 101 100
3 24 102 53
3 24 103 102
3 171 104 172
3 25 105 55
3 25 106 105
3 12 173 175
3 173 107 174
3 173 174 175
3 26 108 57
3 26 109 108
3 26 110 109
3 27 111 59
3 27 112 111
3 27 113 112
3 28 114 61
3 28 115 114
3 13 116 78
3 29 117 63
3 29 118 117
3 29 119 118
3 21 120 65
3 21 95 120
3 30 31 6
3 176 31 177
3 178 177 30
3 176 177 178
3 180 179 31
3 32 33 7
3 34 33 32
3 34 9 33
3 181 35 182
3 36 183 185
3 183 35 184
3 183 184 185
3 36 11 35
3 37 38 14
3 39 38 37
3 39 16 38
3 40 41 17
3 42 41 40
3 42 18 41
3 43 44 8
3 45 44 43
3 45 19 44
3 45 46 19
3 47 46 45
3 47 186 188
3 188 187 46
3 186 187 188
3 48 49 15
3 189 49 190
3 191 190 48
3 189 190 191
3 192 20 193
3 194 193 49
3 192 193 194
3 196 195 21
3 197 22 198
3 50 51 10
3 52 51 50
3 52 23 51
3 52 53 23
3 54 53 52
3 54 24 53
3 199 55 200
3 201 55 202
3 203 25 204
3 205 204 55
3 203 204 205
3 56 57 12
3 58 57 56
3 58 26 57
3 58 59 26
3 60 59 58
3 60 27 59
3 60 61 27
3 62 61 60
3 62 28 61
3 206 63 207
3 208 207 13
3 206 207 208
3 64 209 211
3 209 63 210
3 209 210 211
3 64 29 63
3 64 65 29
3 212 65 213
3 214 213 64
3 212 213 214
3 215 21 216
3 217 216 65
3 215 216 217
3 66 67 1
3 68 67 66
3 68 218 220
3 220 219 67
3 218 219 220
3 31 68 6
3 221 68 222
3 223 222 31
3 221 222 223
3 225 224 68
3 69 70 2
3 71 70 69
3 71 8 70
3 33 71 7
3 72 71 33
3 72 8 71
3 72 43 8
3 73 43 72
3 73 3 43
3 226 10 227
3 35 228 229
3 74 230 232
3 232 231 35
3 230 231 232
3 74 233 235
3 233 10 234
3 233 234 235
3 74 50 10
3 75 50 74
3 75 4 50
3 236 12 237
3 76 238 239
3 76 240 242
3 240 12 241
3 240 241 242
3 76 56 12
3 77 56 76
3 77 5 56
3 77 78 5
3 79 78 77
3 79 13 78
3 243 79 244
3 245 79 246
3 247 13 248
3 249 248 79
3 247 248 249
3 251 250 13
3 80 81 0
3 82 81 80
3 82 15 81
3 38 82 14
3 83 82 38
3 83 15 82
3 83 48 15
3 252 48 253
3 254 253 83
3 252 253 254
3 256 255 48
3 67 39 1
3 84 39 67
3 84 16 39
3 257 84 258
3 259 84 260
3 261 16 262
3 263 262 84
3 261 262 263
3 265 264 16
3 85 266 268
3 266 267 268
3 85 269 270
3 41 85 17
3 86 85 41
3 86 271 273
3 273 272 85
3 271 272 273
3 86 274 275
3 87 276 278
3 278 277 86
3 276 277 278
3 87 279 280
3 70 42 2
3 88 42 70
3 88 18 42
3 44 88 8
3 89 88 44
3 89 18 88
3 89 87 18
3 281 87 282
3 283 282 89
3 281 282 283
3 285 284 87
3 46 286 288
3 288 287 19
3 286 287 288
3 290 289 46
3 81 34 0
3 90 34 81
3 90 9 34
3 49 90 15
3 91 90 49
3 91 9 90
3 91 73 9
3 92 73 91
3 92 3 73
3 291 20 292
3 293 20 294
3 295 92 296
3 297 296 20
3 295 296 297
3 93 298 300
3 298 92 299
3 298 299 300
3 93 3 92
3 93 47 3
3 94 47 93
3 94 301 303
3 303 302 47
3 301 302 303
3 304 94 305
3 306 94 307
3 309 308 94
3 95 310 311
3 313 312 95
3 315 314 21
3 316 17 317
3 96 318 319
3 96 320 322
3 320 17 321
3 320 321 322
3 96 40 17
3 97 40 96
3 97 2 40
3 98 323 324
3 98 325 327
3 325 22 326
3 325 326 327
3 51 98 10
3 99 98 51
3 99 22 98
3 99 97 22
3 100 97 99
3 100 2 97
3 100 69 2
3 101 69 100
3 101 7 69
3 53 101 23
3 102 101 53
3 102 7 101
3 102 32 7
3 103 32 102
3 103 0 32
3 328 36 329
3 328 329 330
3 104 331 333
3 331 36 332
3 331 332 333
3 104 11 36
3 55 334 336
3 334 104 335
3 334 335 336
3 105 104 55
3 105 11 104
3 105 75 11
3 106 75 105
3 106 4 75
3 107 337 338
3 107 339 341
3 339 25 340
3 339 340 341
3 57 107 12
3 108 107 57
3 108 25 107
3 108 106 25
3 109 106 108
3 109 4 106
3 109 54 4
3 110 54 109
3 110 24 54
3 59 110 26
3 111 110 59
3 111 24 110
3 111 103 24
3 112 103 111
3 112 0 103
3 112 80 0
3 113 80 112
3 113 14 80
3 61 113 27
3 114 113 61
3 114 14 113
3 114 37 14
3 115 37 114
3 115 1 37
3 78 62 5
3 116 62 78
3 116 28 62
3 63 116 13
3 117 116 63
3 117 28 116
3 117 115 28
3 118 115 117
3 118 1 115
3 118 66 1
3 119 66 118
3 119 6 66
3 65 119 29
3 120 119 65
3 120 6 119
3 120 30 6
3 95 30 120
3 95 342 344
3 344 343 30
3 342 343 344
