ply
format ascii 1.0
element vertex 248
property float x
property float y
property float z
element face 248
property list uchar int vertex_index
end_header
-23.055231 -31.091528 76.527695
-10.060095 -39.567963 86.52063
-3.200132 -42.56974 89.053528
-19.18128 -37.013397 81.627762
-13.476032 -41.748566 85.947708
-9.565763 -43.603111 88.088951
-20.853027 -34.087814 78.934692
-24.248743 -36.083504 79.401054
-16.012535 -34.841484 81.577354
-7.314684 -36.752594 86.839233
-6.2472 -41.111748 88.424515
-6.296547 -45.573158 89.332222
-17.887487 -40.193268 83.57872
-22.697405 -38.955868 81.371025
-27.783424 -37.924164 79.404091
-11.46899 -35.750221 84.336189
-14.418142 -38.166809 84.076515
-15.255059 -42.831268 85.254173
-13.241629 -43.746407 86.428391
-21.875803 -32.611637 77.633804
-23.360378 -33.757156 77.703293
-24.344381 -32.351505 76.344711
-20.672771 -31.280323 77.931
-19.448671 -32.881126 78.984619
-8.570438 -38.282654 86.650352
-6.63154 -38.92865 87.67263
-8.073704 -40.333832 87.584671
-9.613234 -45.782875 88.427864
-7.839893 -44.59203 88.870277
-8.027065 -46.846603 89.072281
-6.618134 -47.884407 89.357605
-18.489975 -38.545979 82.750107
-20.249043 -39.538963 82.443207
-20.940065 -37.977104 81.621033
-26.858002 -35.656719 78.374619
-26.046955 -36.99276 79.548767
-10.359457 -34.208252 84.696236
-12.522989 -33.845222 83.282074
-17.50877 -35.992867 81.554863
-15.130678 -36.494682 82.847183
-16.755527 -37.55764 82.831779
-16.128294 -39.18602 83.933273
-3.289675 -40.153923 88.804787
-11.720726 -40.691067 86.33242
-9.704342 -41.540459 87.431755
-11.450874 -42.645668 87.083847
-11.356804 -44.737823 87.515038
-19.963324 -35.543095 80.312057
-21.683632 -36.527229 80.482918
-22.483364 -35.13649 79.13121
-25.054409 -34.754227 78.013214
-14.764647 -33.497646 81.831573
-17.075556 -33.175003 80.389458
-18.400082 -34.445427 80.229073
-3.417759 -44.959633 89.129997
-5.433853 -37.24781 87.79953
-4.859587 -39.562012 88.422188
-4.611212 -41.869041 88.943008
-7.838711 -42.427643 88.354362
-6.149147 -43.320045 89.003769
-4.665119 -44.177944 89.287064
-4.961964 -46.501122 89.390442
-17.386768 -42.002991 84.062042
-23.464863 -37.466545 80.555573
-25.216137 -38.426216 80.362656
-9.334833 -36.246918 85.654716
-10.647165 -37.649525 85.451523
-13.699072 -35.27813 82.95858
-12.839386 -37.049103 84.161499
-12.181364 -38.83987 85.325287
-13.867431 -39.902122 85.143288
-15.625836 -40.928963 84.75956
-15.138893 -43.875979 85.331997
-16.131744 -43.419409 84.728474
-21.864001 -31.185925 77.229347
-21.376376 -30.458092 77.534027
-22.567606 -30.363694 76.832375
-8.910954 -47.467773 88.747829
-8.820149 -46.314739 88.750073
-9.704039 -46.935909 88.425621
-8.176534 -48.021001 89.004299
-8.910954 -47.467773 88.747829
-27.760485 -36.090925 78.479462
-28.171833 -35.434269 77.880871
-13.162301 -32.884842 82.827343
-12.075377 -33.003428 83.566063
-12.714688 -32.043048 83.111332
-2.579962 -41.622873 88.898517
-2.624734 -40.414964 88.774147
-3.244903 -41.361832 88.929158
-12.255346 -45.327736 87.042057
-12.299216 -44.242115 86.971715
-13.197759 -44.832027 86.498734
-11.382563 -45.860446 87.559258
-12.255346 -45.327736 87.042057
-25.480052 -34.092546 77.274048
-24.207394 -34.255691 77.858254
-24.633037 -33.594011 77.119088
-26.354991 -34.560477 77.481568
-25.480052 -34.092546 77.274048
-17.703038 -32.326782 79.886689
-16.556786 -32.434468 80.63081
-2.926773 -45.293798 88.810119
-3.640224 -46.145302 89.058109
-6.374268 -37.000202 87.319381
-5.880599 -36.086861 87.473038
-6.821015 -35.839253 86.992889
-6.013458 -48.366043 89.284363
-6.818238 -49.069555 89.208611
-18.757238 -40.727702 83.239964
-18.506878 -41.632563 83.481625
-17.637127 -41.098129 83.820381
-22.330949 -39.778627 81.58551
-21.106768 -40.070175 82.121601
-21.473224 -39.247416 81.907116
-23.540959 -39.481249 81.06903
-22.330949 -39.778627 81.58551
-27.325134 -38.690499 79.598823
-26.041491 -38.941524 80.078106
-26.49978 -38.17519 79.883374
-28.583991 -38.423961 79.13023
-27.325134 -38.690499 79.598823
-14.132178 -44.333548 85.919106
-14.248344 -43.288837 85.841282
-15.138893 -43.875979 85.331997
-13.197759 -44.832027 86.498734
-14.132178 -44.333548 85.919106
-25.125038 -32.891186 76.439796
-24.633037 -33.594011 77.119088
-23.852379 -33.054331 77.024002
-20.226076 -30.51477 78.275978
-21.376376 -30.458092 77.534027
-19.501646 -31.379442 78.65746
-20.226076 -30.51477 78.275978
-20.060721 -32.080725 78.457809
-18.889596 -32.179844 79.184269
-19.501646 -31.379442 78.65746
-7.472069 -48.539904 89.146961
-7.3226 -47.365505 89.214943
-8.176534 -48.021001 89.004299
-6.818238 -49.069555 89.208611
-7.472069 -48.539904 89.146961
-27.354962 -36.758945 79.066536
-26.452478 -36.324739 78.961693
-27.760485 -36.090925 78.479462
-28.223196 -37.224648 78.994198
-26.91519 -37.458462 79.476429
-27.354962 -36.758945 79.066536
-29.077028 -37.670103 78.937153
-28.223196 -37.224648 78.994198
-10.993611 -33.184943 84.273144
-9.942739 -33.300812 84.975064
-11.441223 -34.026737 83.989155
-10.993611 -33.184943 84.273144
-12.075377 -33.003428 83.566063
-2.758704 -39.137138 88.738766
-3.507479 -38.932398 88.622307
-2.758704 -39.137138 88.738766
-2.624734 -40.414964 88.774147
-10.510779 -46.382972 88.01567
-10.485019 -45.260349 87.971451
-11.382563 -45.860446 87.559258
-9.704039 -46.935909 88.425621
-10.510779 -46.382972 88.01567
-27.256788 -35.011723 77.66227
-25.956205 -35.205473 78.193917
-26.354991 -34.560477 77.481568
-28.171833 -35.434269 77.880871
-27.256788 -35.011723 77.66227
-15.401331 -32.59579 81.351867
-14.28313 -32.711055 82.102092
-15.920101 -33.336325 81.110516
-15.401331 -32.59579 81.351867
-16.556786 -32.434468 80.63081
-18.262113 -33.028064 79.687038
-17.703038 -32.326782 79.886689
-18.889596 -32.179844 79.184269
-2.733002 -44.069755 88.912391
-2.624188 -42.874809 88.874157
-3.308946 -43.764686 89.091763
-2.733002 -44.069755 88.912391
-2.926773 -45.293798 88.810119
-24.932046 -30.203922 75.437348
-24.258545 -30.992061 75.854523
-23.728732 -30.30339 76.110519
-23.728732 -30.30339 76.110519
-22.567606 -30.363694 76.832375
-4.970763 -36.248619 87.905434
-5.880599 -36.086861 87.473038
-4.579568 -37.479342 88.119678
-4.970763 -36.248619 87.905434
-4.292435 -38.636443 88.431007
-4.579568 -37.479342 88.119678
-5.14672 -38.404911 88.110859
-4.074631 -39.857968 88.613488
-3.507479 -38.932398 88.622307
-4.292435 -38.636443 88.431007
-4.412326 -46.916047 89.188332
-3.640224 -46.145302 89.058109
-4.189862 -45.730378 89.26022
-5.185372 -47.674401 89.300781
-5.790049 -47.192765 89.374023
-6.013458 -48.366043 89.284363
-4.412326 -46.916047 89.188332
-5.185372 -47.674401 89.300781
-18.245893 -42.592777 83.53447
-17.197598 -43.00527 84.132408
-18.245893 -42.592777 83.53447
-18.506878 -41.632563 83.481625
-19.938016 -40.400549 82.672207
-18.757238 -40.727702 83.239964
-19.068265 -39.866116 83.010964
-19.938016 -40.400549 82.672207
-21.106768 -40.070175 82.121601
-24.800325 -39.216423 80.564846
-23.540959 -39.481249 81.06903
-23.956771 -38.691042 80.86684
-24.800325 -39.216423 80.564846
-26.041491 -38.941524 80.078106
-29.877595 -38.1699 78.663292
-28.583991 -38.423961 79.13023
-29.077028 -37.670103 78.937153
-24.90312 -31.622049 75.763031
-23.699806 -31.721516 76.436203
-24.258545 -30.992061 75.854523
-25.589332 -32.212664 75.731124
-24.90312 -31.622049 75.763031
-25.125038 -32.891186 76.439796
-25.589332 -32.212664 75.731124
-7.801079 -35.663084 86.425167
-6.821015 -35.839253 86.992889
-9.323466 -34.390913 85.353668
-9.942739 -33.300812 84.975064
-8.811153 -35.410246 85.832909
-9.323466 -34.390913 85.353668
-9.847145 -35.227585 85.175476
-8.324758 -36.499756 86.246974
-7.801079 -35.663084 86.425167
-8.811153 -35.410246 85.832909
-13.643818 -33.671434 82.556824
-13.162301 -32.884842 82.827343
-14.28313 -32.711055 82.102092
-17.197598 -43.00527 84.132408
-16.131744 -43.419409 84.728474
-16.320913 -42.41713 84.658107
-2.004018 -41.927942 88.719146
-2.579962 -41.622873 88.898517
-2.624188 -42.874809 88.874157
3 73 72 17
3 0 21 19
3 0 74 76
3 74 22 75
3 74 75 76
3 0 19 22
3 1 26 24
3 77 29 78
3 79 78 27
3 77 78 79
3 81 80 29
3 3 33 31
3 83 82 34
3 84 37 85
3 84 85 86
3 3 40 38
3 3 31 40
3 2 87 89
3 89 88 42
3 87 88 89
3 4 45 43
3 90 46 91
3 92 91 18
3 90 91 92
3 94 93 46
3 6 49 47
3 95 50 96
3 97 96 20
3 95 96 97
3 99 98 50
3 100 52 101
3 6 53 23
3 6 47 53
3 103 102 54
3 9 104 106
3 104 55 105
3 104 105 106
3 10 56 25
3 10 57 56
3 5 58 44
3 11 59 28
3 11 60 59
3 11 61 60
3 108 107 30
3 12 109 111
3 111 110 62
3 109 110 111
3 13 112 114
3 114 113 32
3 112 113 114
3 13 115 116
3 7 63 48
3 14 64 35
3 14 117 119
3 119 118 64
3 117 118 119
3 14 120 121
3 15 65 36
3 15 66 65
3 8 67 51
3 16 68 39
3 16 69 68
3 16 70 69
3 12 71 41
3 12 62 71
3 17 18 4
3 122 18 123
3 124 123 17
3 122 123 124
3 126 125 18
3 19 20 6
3 21 20 19
3 21 127 129
3 129 128 20
3 127 128 129
3 22 130 131
3 22 132 133
3 22 134 136
3 134 23 135
3 134 135 136
3 19 23 22
3 19 6 23
3 24 25 9
3 26 25 24
3 26 10 25
3 27 28 5
3 29 28 27
3 29 11 28
3 29 30 11
3 137 30 138
3 139 138 29
3 137 138 139
3 141 140 30
3 31 32 12
3 33 32 31
3 33 13 32
3 34 35 7
3 142 35 143
3 144 143 34
3 142 143 144
3 145 14 146
3 147 146 35
3 145 146 147
3 149 148 14
3 150 36 151
3 37 152 154
3 152 36 153
3 152 153 154
3 37 15 36
3 38 39 8
3 40 39 38
3 40 16 39
3 40 41 16
3 31 41 40
3 31 12 41
3 42 155 156
3 158 157 42
3 43 44 1
3 45 44 43
3 45 5 44
3 18 45 4
3 46 45 18
3 46 5 45
3 46 27 5
3 159 27 160
3 161 160 46
3 159 160 161
3 163 162 27
3 47 48 3
3 49 48 47
3 49 7 48
3 20 49 6
3 50 49 20
3 50 7 49
3 50 34 7
3 164 34 165
3 166 165 50
3 164 165 166
3 168 167 34
3 169 51 170
3 52 171 173
3 171 51 172
3 171 172 173
3 52 8 51
3 23 174 176
3 174 52 175
3 174 175 176
3 53 52 23
3 53 8 52
3 53 38 8
3 47 38 53
3 47 3 38
3 54 177 179
3 179 178 2
3 177 178 179
3 181 180 54
3 184 183 0
3 182 183 184
3 185 0 186
3 55 187 188
3 55 189 190
3 25 55 9
3 56 55 25
3 56 191 193
3 193 192 55
3 191 192 193
3 56 194 196
3 194 42 195
3 194 195 196
3 57 42 56
3 57 2 42
3 44 26 1
3 58 26 44
3 58 10 26
3 28 58 5
3 59 58 28
3 59 10 58
3 59 57 10
3 60 57 59
3 60 2 57
3 60 54 2
3 61 54 60
3 61 197 199
3 199 198 54
3 197 198 199
3 30 61 11
3 200 61 201
3 202 201 30
3 200 201 202
3 204 203 61
3 62 205 206
3 208 207 62
3 32 209 211
3 211 210 12
3 209 210 211
3 213 212 32
3 48 33 3
3 63 33 48
3 63 13 33
3 35 63 7
3 64 63 35
3 64 13 63
3 64 214 216
3 216 215 13
3 214 215 216
3 218 217 64
3 221 220 14
3 219 220 221
3 222 21 223
3 224 223 0
3 222 223 224
3 225 21 226
3 228 227 21
3 229 9 230
3 36 231 232
3 65 233 235
3 235 234 36
3 233 234 235
3 65 236 238
3 236 9 237
3 236 237 238
3 65 24 9
3 66 24 65
3 66 1 24
3 51 239 241
3 239 37 240
3 239 240 241
3 67 37 51
3 67 15 37
3 39 67 8
3 68 67 39
3 68 15 67
3 68 66 15
3 69 66 68
3 69 1 66
3 69 43 1
3 70 43 69
3 70 4 43
3 41 70 16
3 71 70 41
3 71 4 70
3 71 17 4
3 62 17 71
3 62 242 244
3 244 243 17
3 242 243 244
3 247 246 2
3 245 246 247
