ply
format ascii 1.0
element vertex 283
property float x
property float y
property float z
element face 280
property list uchar int vertex_index
end_header
-4.440439 -8.152911 39.76226
-5.569643 -22.317596 33.733498
-3.710997 -39.185684 33.964436
-3.097223 -52.56292 25.354908
-3.96501 -16.950161 40.509941
-5.878328 -29.899151 30.21048
-4.622152 -31.013332 34.01767
-4.683107 -38.297821 30.175673
-3.570173 -46.063583 29.821758
-4.461882 -45.303413 25.872234
-3.6024 -51.709614 21.26844
-5.745737 -6.07616 35.850246
-5.105898 -14.96637 36.88739
-6.477571 -13.383007 32.96701
-3.437815 -2.045382 42.412971
-4.807924 0.550394 38.467796
-6.239523 2.637743 34.135883
-4.411882 -23.799725 37.438225
-3.700369 -32.270897 37.673256
-3.808516 -9.358706 41.583546
-4.212526 -12.553713 40.189331
-5.942102 -33.65918 28.277409
-5.276674 -34.166733 30.24551
-5.28026 -37.833603 28.22789
-4.625612 -41.857262 28.078327
-5.182173 -41.401054 26.089001
-6.47389 -5.226227 33.756401
-6.134058 -9.658585 34.445854
-6.877771 -8.922199 32.35022
-5.504583 1.665401 36.349686
-5.652716 5.931749 35.317841
-5.356531 -18.591404 35.350121
-4.761045 -19.408924 37.211174
-4.946348 -23.022404 35.611694
-4.162298 -35.17878 34.025295
-4.132254 -31.618135 35.858734
-3.72658 -35.713852 35.874298
-3.315752 -36.286182 37.703545
-3.305017 -39.642006 35.834038
-3.255217 -43.018089 33.852608
-3.399645 -49.38266 27.61327
-3.043707 -49.676773 29.603598
-2.821379 -52.868732 27.385078
-2.594572 -55.56493 23.09882
-3.700991 -21.305866 40.751724
-5.746904 -26.102493 32.024963
-5.093611 -26.714981 33.925953
-5.206804 -30.444969 32.141624
-4.67375 -34.668175 32.154285
-4.158987 -38.743027 32.081696
-3.66271 -42.64967 31.944872
-4.113272 -42.268379 30.024647
-3.997339 -45.710648 27.860214
-3.765871 -49.027042 25.610716
-3.359705 -52.17915 23.317762
-4.140535 -48.597908 23.586277
-5.071104 -7.054069 37.849628
-4.806364 -11.477987 38.355461
-5.438013 -10.51084 36.442505
-5.756994 -14.124174 34.969479
-6.036413 -17.86025 33.421009
-6.77392 -17.20965 31.403709
-6.275862 -21.67725 31.785542
-6.464899 -25.527924 30.050074
-3.296556 -6.33359 42.924198
-3.989241 -5.007314 41.113564
-4.133055 -0.693779 40.491539
-4.641748 -3.777655 39.197952
-5.30739 -2.666523 37.188801
-6.016729 -1.688023 35.086952
-6.764235 -0.849319 32.883434
-6.404295 6.895176 32.990059
-4.523222 -15.910081 38.734341
-4.229055 -20.315002 39.013973
-3.925852 -24.653433 39.217365
-4.536974 -27.377193 35.77557
-4.060537 -28.099115 37.587822
-3.607798 -28.886158 39.360458
-3.260542 -32.978535 39.452473
-3.173906 -46.377548 31.769855
-2.712206 -55.136272 21.038368
-5.593117 -37.584848 27.223779
-5.611181 -35.746392 28.252649
-5.924038 -35.497637 27.248539
-5.544073 -39.368574 26.154335
-5.231217 -39.617328 27.158445
-5.593117 -37.584848 27.223779
-5.455849 -41.144725 25.066461
-5.544073 -39.368574 26.154335
-7.051165 -6.714224 31.951641
-6.675831 -7.074213 33.05331
-6.849224 -4.866238 32.654731
-5.327195 7.476072 35.876667
-5.29159 5.374963 36.434162
-2.769556 -54.234982 25.258075
-2.631634 -54.387888 26.27316
-2.959301 -52.715826 26.369993
-2.845897 -54.063925 24.226864
-2.518231 -55.735986 24.130032
-2.769556 -54.234982 25.258075
-3.66317 -17.512353 41.353946
-3.781296 -15.337477 41.222078
-3.833 -19.128014 40.630832
-3.531161 -19.690206 41.474838
-3.66317 -17.512353 41.353946
-6.893234 -19.150951 30.574428
-7.138046 -16.921535 30.340641
-6.644205 -21.384751 30.765345
-6.524891 -19.44345 31.594625
-6.893234 -19.150951 30.574428
-6.738723 -23.310088 29.897611
-6.37038 -23.602587 30.917808
-6.644205 -21.384751 30.765345
-3.367185 -4.189486 42.668584
-2.984796 -4.904286 43.571169
-3.055426 -2.760182 43.315556
-4.470489 -0.071692 39.479668
-4.183163 1.43651 40.090843
-4.520598 2.058597 39.078972
-6.453678 8.990819 32.321463
-6.073677 8.512965 33.53993
-3.089742 -36.595331 38.601198
-3.100723 -38.206188 37.695263
-2.859573 -49.80055 30.596546
-2.779896 -51.392219 29.508645
-3.703049 -11.541749 41.758881
-3.460627 -10.004449 42.440512
-3.905054 -13.139253 41.061774
-3.703049 -11.541749 41.758881
-4.010521 -10.956209 40.886438
-4.088768 -14.751937 40.349636
-3.781296 -15.337477 41.222078
-3.905054 -13.139253 41.061774
-5.059632 -43.115322 24.96723
-4.699486 -45.066502 24.858846
-4.822027 -43.352233 25.980618
-5.059632 -43.115322 24.96723
-5.455849 -41.144725 25.066461
-3.109169 -0.651704 43.037537
-3.055426 -2.760182 43.315556
-4.869194 2.684286 38.00914
-4.520598 2.058597 39.078972
-5.217524 3.241789 36.950085
-5.156254 1.107897 37.408741
-4.869194 2.684286 38.00914
-5.57865 3.798575 35.833764
-5.217524 3.241789 36.950085
-5.29159 5.374963 36.434162
-3.095356 -39.8841 36.760509
-3.100723 -38.206188 37.695263
-3.310384 -37.964094 36.768791
-3.076341 -41.51635 35.79306
-3.095356 -39.8841 36.760509
-3.051442 -43.204391 34.802346
-3.076341 -41.51635 35.79306
-3.280117 -41.330048 34.843323
-3.015997 -44.843905 33.78249
-3.051442 -43.204391 34.802346
-2.668732 -52.988199 28.399385
-2.779896 -51.392219 29.508645
-2.932543 -51.272752 28.494338
-2.531809 -54.518892 27.306455
-2.668732 -52.988199 28.399385
-2.531809 -54.518892 27.306455
-2.631634 -54.387888 26.27316
-2.2112 -57.158064 23.04418
-2.518231 -55.735986 24.130032
-2.206776 -56.961815 22.002057
-2.2112 -57.158064 23.04418
-3.194681 -53.16345 20.123753
-3.698671 -51.429898 20.237269
-3.400677 -21.838347 41.576698
-3.531161 -19.690206 41.474838
-3.559126 -23.44353 40.843544
-3.400677 -21.838347 41.576698
-4.538813 -46.713749 23.715868
-4.301208 -46.95066 24.729256
-4.699486 -45.066502 24.858846
-4.316723 -48.342455 22.559856
-4.538813 -46.713749 23.715868
-4.047655 -49.898308 21.400938
-3.871467 -50.153761 22.427358
-4.316723 -48.342455 22.559856
-3.698671 -51.429898 20.237269
-4.047655 -49.898308 21.400938
-7.245842 -8.611111 31.243966
-7.051165 -6.714224 31.951641
-7.050896 -10.830743 31.605116
-7.245842 -8.611111 31.243966
-6.850796 -13.061147 31.913511
-6.677671 -11.152603 32.658615
-7.050896 -10.830743 31.605116
-6.99897 -14.974469 31.131861
-7.138046 -16.921535 30.340641
-6.625746 -15.296328 32.18536
-6.850796 -13.061147 31.913511
-6.99897 -14.974469 31.131861
-6.81992 -25.254577 29.015275
-6.738723 -23.310088 29.897611
-6.524004 -27.445343 29.125976
-6.81992 -25.254577 29.015275
-6.230719 -29.630956 29.206179
-6.171613 -27.713538 30.130277
-6.524004 -27.445343 29.125976
-6.262606 -31.510971 28.239643
-5.910215 -31.779165 29.243944
-6.230719 -29.630956 29.206179
-6.271753 -33.396338 27.254694
-6.262606 -31.510971 28.239643
-5.924038 -35.497637 27.248539
-6.271753 -33.396338 27.254694
-2.903156 -7.030767 43.768575
-2.984796 -4.904286 43.571169
-3.204647 -8.491891 43.110838
-2.903156 -7.030767 43.768575
-3.552536 -7.846148 42.253872
-3.460627 -10.004449 42.440512
-3.204647 -8.491891 43.110838
-3.484215 0.076454 42.07208
-3.109169 -0.651704 43.037537
-3.831835 0.752255 41.111365
-4.183163 1.43651 40.090843
-3.785435 -1.369581 41.452255
-3.484215 0.076454 42.07208
-3.831835 0.752255 41.111365
-6.994397 -2.677784 32.218248
-6.849224 -4.866238 32.654731
-6.619063 -3.037773 33.319918
-5.697888 8.031251 34.703822
-5.327195 7.476072 35.876667
-6.028505 6.413462 34.15395
-5.697888 8.031251 34.703822
-6.073677 8.512965 33.53993
-6.781746 7.298707 31.774845
-6.453678 8.990819 32.321463
-6.699738 5.177913 32.403872
-6.781746 7.298707 31.774845
-6.617351 3.049197 32.976783
-6.321909 4.766459 33.562971
-6.699738 5.177913 32.403872
-6.879708 1.305666 32.350559
-6.501879 0.894212 33.509659
-6.617351 3.049197 32.976783
-7.136567 -0.501122 31.724226
-6.879708 1.305666 32.350559
-6.994397 -2.677784 32.218248
-7.136567 -0.501122 31.724226
-3.671556 -25.117314 40.076364
-3.559126 -23.44353 40.843544
-3.813422 -22.97965 39.984544
-3.512529 -27.233676 40.147911
-3.671556 -25.117314 40.076364
-3.766825 -26.769796 39.288911
-3.355366 -29.311863 40.216875
-3.512529 -27.233676 40.147911
-3.181738 -31.358052 40.262883
-3.355366 -29.311863 40.216875
-3.43417 -30.932347 39.406465
-3.000597 -33.360402 40.311937
-3.181738 -31.358052 40.262883
-3.062137 -34.941508 39.475662
-3.288147 -34.632358 38.578009
-3.089742 -36.595331 38.601198
-3.000597 -33.360402 40.311937
-3.062137 -34.941508 39.475662
-2.975341 -46.523634 32.741113
-3.015997 -44.843905 33.78249
-3.214562 -44.697818 32.811231
-2.924673 -48.150938 31.679674
-3.108807 -48.02716 30.686726
-2.859573 -49.80055 30.596546
-2.975341 -46.523634 32.741113
-2.924673 -48.150938 31.679674
-2.265592 -56.747486 20.971831
-2.206776 -56.961815 22.002057
-2.653389 -55.350601 22.068594
-2.749585 -54.876779 20.008717
-3.157303 -53.422943 21.153404
-3.194681 -53.16345 20.123753
-2.235771 -56.507944 19.936137
-2.749585 -54.876779 20.008717
-2.265592 -56.747486 20.971831
-2.235771 -56.507944 19.936137
3 0 20 19
3 81 23 82
3 83 82 21
3 81 82 83
3 84 25 85
3 86 85 23
3 84 85 86
3 88 87 25
3 89 28 90
3 91 90 26
3 89 90 91
3 92 30 93
3 1 33 31
3 2 36 34
3 2 38 36
3 2 39 38
3 3 42 40
3 3 94 96
3 96 95 42
3 94 95 96
3 3 97 99
3 97 43 98
3 97 98 99
3 4 100 101
3 4 102 104
3 102 44 103
3 102 103 104
3 5 47 45
3 7 48 22
3 7 49 48
3 7 51 49
3 9 52 24
3 9 53 52
3 9 55 53
3 11 58 56
3 13 59 27
3 13 60 59
3 105 61 106
3 107 62 108
3 109 108 61
3 107 108 109
3 110 63 111
3 112 111 62
3 110 111 112
3 14 113 115
3 113 64 114
3 113 114 115
3 14 65 64
3 15 116 118
3 116 66 117
3 116 117 118
3 15 67 66
3 15 68 67
3 16 69 29
3 16 70 69
3 119 71 120
3 12 72 57
3 17 73 32
3 17 74 73
3 6 75 46
3 18 76 35
3 18 77 76
3 18 78 77
3 122 121 37
3 8 79 50
3 124 123 41
3 10 80 54
3 19 125 126
3 20 127 129
3 129 128 19
3 127 128 129
3 20 130 132
3 130 4 131
3 130 131 132
3 21 22 5
3 23 22 21
3 23 7 22
3 23 24 7
3 25 24 23
3 25 9 24
3 25 133 135
3 135 134 9
3 133 134 135
3 137 136 25
3 26 27 11
3 28 27 26
3 28 13 27
3 138 14 139
3 140 15 141
3 142 29 143
3 144 143 15
3 142 143 144
3 30 145 147
3 145 29 146
3 145 146 147
3 30 16 29
3 31 32 12
3 33 32 31
3 33 17 32
3 34 35 6
3 36 35 34
3 36 18 35
3 36 37 18
3 38 37 36
3 38 148 150
3 150 149 37
3 148 149 150
3 38 151 152
3 39 153 155
3 155 154 38
3 153 154 155
3 39 156 157
3 40 41 8
3 42 41 40
3 42 158 160
3 160 159 41
3 158 159 160
3 42 161 162
3 164 163 42
3 43 165 166
3 43 167 168
3 170 169 10
3 44 171 172
3 44 173 174
3 45 46 1
3 47 46 45
3 47 6 46
3 22 47 5
3 48 47 22
3 48 6 47
3 48 34 6
3 49 34 48
3 49 2 34
3 49 50 2
3 51 50 49
3 51 8 50
3 24 51 7
3 52 51 24
3 52 8 51
3 52 40 8
3 53 40 52
3 53 3 40
3 53 54 3
3 55 54 53
3 55 10 54
3 175 55 176
3 177 176 9
3 175 176 177
3 178 55 179
3 180 10 181
3 182 181 55
3 180 181 182
3 184 183 10
3 56 57 0
3 58 57 56
3 58 12 57
3 27 58 11
3 59 58 27
3 59 12 58
3 59 31 12
3 60 31 59
3 60 1 31
3 185 28 186
3 187 28 188
3 189 13 190
3 191 190 28
3 189 190 191
3 61 192 193
3 61 194 196
3 194 13 195
3 194 195 196
3 61 60 13
3 62 60 61
3 62 1 60
3 62 45 1
3 63 45 62
3 63 5 45
3 197 63 198
3 199 63 200
3 201 5 202
3 203 202 63
3 201 202 203
3 204 21 205
3 206 205 5
3 204 205 206
3 207 21 208
3 210 209 21
3 64 211 212
3 64 213 214
3 64 215 217
3 215 19 216
3 215 216 217
3 65 19 64
3 65 0 19
3 218 14 219
3 66 220 221
3 66 222 224
3 222 14 223
3 222 223 224
3 66 65 14
3 67 65 66
3 67 0 65
3 67 56 0
3 68 56 67
3 68 11 56
3 29 68 15
3 69 68 29
3 69 11 68
3 69 26 11
3 70 26 69
3 70 225 227
3 227 226 26
3 225 226 227
3 228 30 229
3 71 230 232
3 230 30 231
3 230 231 232
3 71 16 30
3 233 71 234
3 235 71 236
3 237 16 238
3 239 238 71
3 237 238 239
3 240 70 241
3 242 241 16
3 240 241 242
3 243 70 244
3 246 245 70
3 57 20 0
3 72 20 57
3 72 4 20
3 32 72 12
3 73 72 32
3 73 4 72
3 73 44 4
3 74 44 73
3 74 247 249
3 249 248 44
3 247 248 249
3 46 33 1
3 75 33 46
3 75 17 33
3 35 75 6
3 76 75 35
3 76 17 75
3 76 74 17
3 77 74 76
3 77 250 252
3 252 251 74
3 250 251 252
3 77 253 254
3 78 255 257
3 257 256 77
3 255 256 257
3 78 258 259
3 37 78 18
3 260 78 261
3 262 261 37
3 260 261 262
3 264 263 78
3 50 39 2
3 79 39 50
3 79 265 267
3 267 266 39
3 265 266 267
3 41 79 8
3 268 79 269
3 270 269 41
3 268 269 270
3 272 271 79
3 54 43 3
3 80 43 54
3 80 273 275
3 275 274 43
3 273 274 275
3 276 80 277
3 278 277 10
3 276 277 278
3 279 80 280
3 282 281 80
