ply
format ascii 1.0
element vertex 107
property float x
property float y
property float z
element face 93
property list uchar int vertex_index
end_header
0.517143 15.92382 74.349586
0.718565 24.055367 72.265945
0.265179 10.105515 71.065468
0.886011 12.22455 66.229156
0.412481 18.279095 69.691643
0.406755 26.362011 67.299164
0.267281 13.062592 72.846153
0.355509 14.208836 70.506378
0.379608 17.155827 72.113312
0.468657 25.270222 69.887589
0.880838 16.259979 65.474533
1.266998 13.206985 63.726379
0.644295 20.00034 73.43161
0.477753 7.090767 69.087181
0.877176 8.158237 66.728699
0.535675 11.197704 68.687355
0.573965 15.268108 68.035545
0.583677 19.31076 67.12664
0.447689 21.221428 71.125931
0.429998 22.326637 68.620811
0.559599 23.335911 65.963692
1.297089 9.180832 64.333923
0.428977 13.869886 74.684265
0.680268 15.248333 75.358925
0.392212 14.493206 73.59787
0.304046 12.439272 73.932548
0.428977 13.869886 74.684265
1.055254 16.734392 64.16951
0.866895 18.266784 64.96981
0.207792 8.033857 71.222942
0.191166 9.519122 72.197433
0.371466 8.598141 70.076324
0.314078 6.526483 70.233799
0.207792 8.033857 71.222942
0.454621 26.857134 65.925995
0.531043 25.344084 65.258259
0.483177 24.848961 66.631428
1.475366 11.693658 62.828689
1.447739 13.688667 62.469154
0.192217 10.997661 73.087776
0.304046 12.439272 73.932548
0.26623 11.584053 71.95581
0.191166 9.519122 72.197433
0.192217 10.997661 73.087776
0.60465 26.684715 70.373516
0.593611 24.662795 71.076767
0.729604 26.077288 71.562694
0.45697 27.291144 69.146503
0.60465 26.684715 70.373516
0.426018 27.837038 67.852291
0.437706 25.816116 68.593377
0.45697 27.291144 69.146503
0.377463 28.377619 66.516334
0.426018 27.837038 67.852291
1.248334 15.207895 63.295433
1.073918 14.733482 64.600456
1.055254 16.734392 64.16951
1.429075 15.689577 62.038208
1.447739 13.688667 62.469154
1.248334 15.207895 63.295433
0.778322 17.287078 74.925179
0.680268 15.248333 75.358925
0.841898 19.325339 74.466191
0.580719 17.96208 73.890598
0.778322 17.287078 74.925179
0.910352 21.351298 73.912185
0.841898 19.325339 74.466191
0.947487 23.378811 73.329353
0.68143 22.027853 72.848778
0.910352 21.351298 73.912185
0.986071 25.396847 72.657982
0.947487 23.378811 73.329353
0.729604 26.077288 71.562694
0.986071 25.396847 72.657982
0.444477 5.017133 69.170372
0.280803 4.45285 70.31699
0.314078 6.526483 70.233799
0.671607 5.572734 68.035484
0.444477 5.017133 69.170372
0.677464 7.624502 67.90794
0.871318 6.106469 66.856244
0.671607 5.572734 68.035484
0.718314 19.792175 65.795864
0.866895 18.266784 64.96981
0.732258 17.78537 66.300586
0.706275 21.80475 65.21439
0.718314 19.792175 65.795864
0.571638 21.323335 66.545166
0.678986 23.804859 64.584992
0.706275 21.80475 65.21439
0.678986 23.804859 64.584992
0.531043 25.344084 65.258259
0.454621 26.857134 65.925995
0.377463 28.377619 66.516334
1.104201 6.640669 65.709729
0.871318 6.106469 66.856244
1.314157 7.151966 64.51234
1.104201 6.640669 65.709729
1.087133 8.669535 65.531311
1.524053 7.673153 63.365536
1.314157 7.151966 64.51234
1.490411 9.680581 63.132461
1.282043 11.193908 64.030151
1.475366 11.693658 62.828689
1.717375 8.172902 62.164074
1.524053 7.673153 63.365536
1.490411 9.680581 63.132461
3 0 22 23
3 0 24 26
3 24 6 25
3 24 25 26
3 0 8 6
3 28 27 10
3 2 29 30
3 2 31 33
3 31 13 32
3 31 32 33
3 2 15 13
3 4 16 7
3 4 17 16
3 1 18 12
3 5 19 9
3 5 20 19
3 5 34 36
3 36 35 20
3 34 35 36
3 3 21 14
3 38 37 11
3 6 39 40
3 6 41 43
3 41 2 42
3 41 42 43
3 6 7 2
3 8 7 6
3 8 4 7
3 44 9 45
3 46 45 1
3 44 45 46
3 47 9 48
3 49 5 50
3 51 50 9
3 49 50 51
3 53 52 5
3 10 11 3
3 54 11 55
3 56 55 10
3 54 55 56
3 59 58 11
3 57 58 59
3 60 0 61
3 62 12 63
3 64 63 0
3 62 63 64
3 65 12 66
3 67 1 68
3 69 68 12
3 67 68 69
3 70 1 71
3 73 72 1
3 13 74 76
3 74 75 76
3 13 77 78
3 13 79 81
3 79 14 80
3 79 80 81
3 15 14 13
3 15 3 14
3 7 15 2
3 16 15 7
3 16 3 15
3 16 10 3
3 17 10 16
3 17 82 84
3 84 83 10
3 82 83 84
3 12 8 0
3 18 8 12
3 18 4 8
3 9 18 1
3 19 18 9
3 19 4 18
3 19 17 4
3 20 17 19
3 20 85 87
3 87 86 17
3 85 86 87
3 20 88 89
3 91 90 20
3 93 92 5
3 14 94 95
3 21 96 98
3 98 97 14
3 96 97 98
3 21 99 100
3 11 21 3
3 101 21 102
3 103 102 11
3 101 102 103
3 106 105 21
3 104 105 106
