ply
format ascii 1.0
element vertex 160
property float x
property float y
property float z
element face 146
property list uchar int vertex_index
end_header
-12.098032 -52.460793 -8.529631
-12.34354 -59.852772 -12.915615
-10.043928 -64.76712 -7.456696
-10.161718 -66.695679 -4.656778
-9.676271 -71.988258 -6.017265
-9.130522 -69.88604 -8.691778
-12.479132 -55.91201 -11.099709
-14.930495 -53.405739 -13.937267
-9.516666 -60.040028 -5.445175
-10.718622 -58.10693 -8.284864
-10.623219 -62.484917 -10.207546
-12.410183 -57.804413 -12.117765
-13.626623 -54.702038 -12.513807
-13.568371 -56.461548 -13.493744
-10.061941 -65.779037 -6.066914
-9.785086 -63.302513 -5.126932
-10.002903 -62.355927 -6.550728
-10.071135 -59.104622 -6.872854
-10.311804 -61.331898 -7.954767
-10.786535 -60.233177 -9.348146
-10.20615 -63.667908 -8.835659
-8.450939 -72.567429 -9.10828
-9.402119 -68.681213 -10.036152
-10.178032 -69.306732 -5.435066
-9.851589 -68.344055 -6.801517
-9.712223 -67.279358 -8.160822
-9.249607 -70.989754 -7.351095
-12.416754 -54.148079 -9.886328
-13.652016 -53.084499 -11.324686
-10.785254 -53.306652 -7.094368
-9.573833 -64.167694 -3.671951
-10.324188 -56.07851 -7.041925
-11.311312 -55.142891 -8.461853
-11.511057 -57.044434 -9.691481
-11.478996 -59.059006 -10.735607
-11.335144 -61.215698 -11.569656
-9.858406 -66.120987 -9.517986
-10.350811 -64.869225 -10.868694
-12.565774 -51.253052 -8.543579
-11.762379 -51.623524 -7.811459
-8.71384 -71.943528 -9.780303
-8.138853 -73.929283 -9.298837
-9.927152 -70.647495 -5.726166
-10.232713 -71.086983 -5.058255
-9.981832 -72.427746 -5.349355
-14.968269 -52.67371 -13.360591
-14.316333 -53.32186 -12.648861
-14.278559 -54.053888 -13.225537
-15.688754 -52.057659 -14.103507
-14.968269 -52.67371 -13.360591
-10.166463 -53.706762 -6.378583
-10.331193 -52.393284 -6.369356
-9.867776 -65.431686 -4.164364
-9.905419 -65.838028 -3.4432
-10.199362 -67.102021 -3.935614
-9.254587 -60.477145 -4.717291
-9.388797 -62.108387 -4.558169
-9.650876 -61.67127 -5.286053
-9.043779 -58.921683 -4.805308
-9.254587 -60.477145 -4.717291
-9.470667 -58.501534 -5.529841
-9.043779 -58.921683 -4.805308
-10.224612 -66.118961 -11.119089
-9.876465 -66.775219 -10.452423
-9.750266 -68.024956 -10.702818
-10.778511 -64.192999 -11.535057
-10.224612 -66.118961 -11.119089
-9.577147 -73.807934 -5.577758
-9.981832 -72.427746 -5.349355
-9.229252 -73.356232 -6.230811
-9.577147 -73.807934 -5.577758
-9.189431 -70.000419 -10.244239
-8.926529 -70.624321 -9.572216
-8.71384 -71.943528 -9.780303
-9.750266 -68.024956 -10.702818
-9.189431 -70.000419 -10.244239
-12.979097 -59.1198 -13.578216
-12.371363 -60.952517 -13.209633
-10.365467 -68.424755 -4.353113
-10.199362 -67.102021 -3.935614
-10.373624 -69.730281 -4.742257
-10.232713 -71.086983 -5.058255
-10.169875 -68.001205 -5.045922
-10.365467 -68.424755 -4.353113
-10.373624 -69.730281 -4.742257
-9.015919 -72.856979 -6.897726
-9.462939 -71.489006 -6.68418
-9.229252 -73.356232 -6.230811
-8.826846 -72.345318 -7.559226
-9.015919 -72.856979 -6.897726
-8.767304 -71.793461 -8.229567
-9.190064 -70.437897 -8.021437
-8.826846 -72.345318 -7.559226
-8.427512 -73.134155 -8.437819
-8.79073 -71.226734 -8.900029
-8.767304 -71.793461 -8.229567
-7.969418 -74.511197 -8.617828
-8.427512 -73.134155 -8.437819
-8.138853 -73.929283 -9.298837
-7.969418 -74.511197 -8.617828
-12.95732 -52.851816 -9.934121
-12.797959 -52.008173 -9.255773
-12.257393 -53.304436 -9.20798
-13.57495 -52.320026 -10.653301
-12.95732 -52.851816 -9.934121
-13.034385 -53.616289 -10.605507
-14.315972 -51.830824 -11.393308
-13.57495 -52.320026 -10.653301
-14.32903 -52.51309 -12.054301
-13.639319 -53.893269 -11.919246
-14.316333 -53.32186 -12.648861
-14.315972 -51.830824 -11.393308
-14.32903 -52.51309 -12.054301
-13.591512 -57.424188 -13.867281
-12.955956 -58.15716 -13.20468
-12.979097 -59.1198 -13.578216
-14.240853 -55.741947 -14.179511
-13.591512 -57.424188 -13.867281
-14.921915 -54.214042 -14.401273
-14.249433 -54.933644 -13.715505
-14.240853 -55.741947 -14.179511
-15.638293 -52.710533 -14.656328
-14.921915 -54.214042 -14.401273
-15.688754 -52.057659 -14.103507
-15.638293 -52.710533 -14.656328
-11.105991 -52.046453 -7.093828
-10.331193 -52.393284 -6.369356
-11.441643 -52.883723 -7.812
-11.762379 -51.623524 -7.811459
-11.105991 -52.046453 -7.093828
-9.432047 -64.55846 -2.923628
-9.905419 -65.838028 -3.4432
-9.005985 -62.948246 -3.082559
-9.432047 -64.55846 -2.923628
-9.283171 -62.540977 -3.830679
-9.67946 -63.735103 -4.399442
-9.388797 -62.108387 -4.558169
-9.005985 -62.948246 -3.082559
-9.283171 -62.540977 -3.830679
-9.747901 -58.033831 -6.24368
-9.470667 -58.501534 -5.529841
-9.7939 -59.572325 -6.159014
-9.874427 -56.520775 -6.328216
-9.747901 -58.033831 -6.24368
-10.197661 -57.591566 -6.957389
-9.93593 -55.092692 -6.352362
-9.874427 -56.520775 -6.328216
-10.554721 -54.692581 -7.068147
-10.166463 -53.706762 -6.378583
-9.93593 -55.092692 -6.352362
-11.270677 -62.366236 -11.885538
-10.842977 -63.042462 -11.219175
-10.778511 -64.192999 -11.535057
-11.774876 -61.684773 -12.558518
-11.839342 -60.534235 -12.242636
-11.270677 -62.366236 -11.885538
-12.371363 -60.952517 -13.209633
-11.774876 -61.684773 -12.558518
-12.565774 -51.253052 -8.543579
-12.797959 -52.008173 -9.255773
3 0 38 39
3 1 13 11
3 2 16 14
3 2 18 16
3 2 20 18
3 41 40 21
3 4 42 44
3 42 23 43
3 42 43 44
3 4 24 23
3 4 26 24
3 6 28 27
3 7 45 47
3 47 46 12
3 45 46 47
3 7 48 49
3 50 29 51
3 3 52 54
3 52 30 53
3 52 53 54
3 8 55 57
3 57 56 15
3 55 56 57
3 8 58 59
3 8 60 61
3 9 31 17
3 9 32 31
3 9 33 32
3 10 34 19
3 10 35 34
3 5 36 25
3 62 37 63
3 64 63 22
3 62 63 64
3 66 65 37
3 67 4 68
3 70 69 4
3 11 12 6
3 13 12 11
3 13 7 12
3 14 15 3
3 16 15 14
3 16 8 15
3 16 17 8
3 18 17 16
3 18 9 17
3 18 19 9
3 20 19 18
3 20 10 19
3 21 22 5
3 71 22 72
3 73 72 21
3 71 72 73
3 75 74 22
3 77 76 1
3 78 3 79
3 23 80 81
3 23 82 84
3 82 3 83
3 82 83 84
3 23 14 3
3 24 14 23
3 24 2 14
3 24 25 2
3 26 25 24
3 26 5 25
3 85 26 86
3 87 86 4
3 85 86 87
3 88 26 89
3 90 5 91
3 92 91 26
3 90 91 92
3 93 21 94
3 95 94 5
3 93 94 95
3 96 21 97
3 99 98 21
3 27 100 102
3 102 101 0
3 100 101 102
3 28 103 105
3 105 104 27
3 103 104 105
3 28 106 107
3 12 28 6
3 108 28 109
3 110 109 12
3 108 109 110
3 112 111 28
3 113 13 114
3 115 114 1
3 113 114 115
3 116 13 117
3 118 7 119
3 120 119 13
3 118 119 120
3 121 7 122
3 124 123 7
3 29 125 126
3 29 127 129
3 127 0 128
3 127 128 129
3 30 130 131
3 30 132 133
3 15 30 3
3 134 30 135
3 136 135 15
3 134 135 136
3 138 137 30
3 17 139 141
3 141 140 8
3 139 140 141
3 31 142 144
3 144 143 17
3 142 143 144
3 31 145 146
3 31 147 149
3 147 29 148
3 147 148 149
3 32 29 31
3 32 0 29
3 32 27 0
3 33 27 32
3 33 6 27
3 19 33 9
3 34 33 19
3 34 6 33
3 34 11 6
3 35 11 34
3 35 1 11
3 25 20 2
3 36 20 25
3 36 10 20
3 22 36 5
3 37 36 22
3 37 10 36
3 37 35 10
3 150 35 151
3 152 151 37
3 150 151 152
3 153 1 154
3 155 154 35
3 153 154 155
3 157 156 1
3 159 158 0
