ply
format ascii 1.0
element vertex 331
property float x
property float y
property float z
element face 352
property list uchar int vertex_index
end_header
-16.5016 -64.347809 80.235466
-16.751221 -53.799301 82.606155
-9.794844 -48.088943 88.423378
-10.426653 -58.095222 85.552353
-14.00116 -73.909744 76.961258
-21.867527 -70.151413 75.447083
-9.082834 -67.741211 80.455086
-16.666155 -48.612663 83.679291
-13.153889 -45.917648 86.569077
-13.296375 -50.746254 85.957016
-15.527536 -69.265091 78.82254
-17.980526 -72.114204 76.603943
-19.506256 -67.425308 78.045982
-13.376789 -61.17989 82.78376
-9.989557 -63.031414 83.120438
-12.713953 -66.164581 80.858719
-11.593611 -70.930046 78.763428
-16.844551 -59.154491 81.434952
-20.243156 -62.4123 78.878151
-7.018343 -50.254704 89.059616
-7.648575 -55.105301 87.553574
-10.271473 -53.012589 87.46067
-13.511723 -55.964096 84.550926
-12.212761 -78.164497 74.540421
-15.889817 -76.437874 74.388046
-7.604809 -59.908508 85.096313
-10.208685 -75.542847 76.349899
-16.768513 -46.216278 84.049637
-18.48172 -47.648346 82.440033
-15.022726 -44.920689 85.409821
-14.924827 -47.200771 85.262077
-16.093958 -66.841049 79.57122
-17.526461 -68.363831 78.527397
-18.049829 -65.913818 79.130676
-14.927683 -62.760818 81.446457
-13.110926 -63.70496 81.837608
-14.602324 -65.278183 80.655396
-14.1351 -67.72937 79.817772
-16.828419 -56.481182 82.019897
-18.573709 -58.134502 80.511368
-18.507814 -55.446274 80.96151
-8.326004 -49.1954 88.936317
-8.64732 -51.624241 88.472641
-10.040382 -50.50922 88.087715
-15.020644 -52.224178 84.318939
-13.424778 -53.331978 85.321846
-15.114386 -54.871147 83.661346
-15.160473 -57.536587 82.949074
-13.113146 -76.105362 75.816772
-14.012111 -77.331116 74.588043
-15.029308 -75.241623 75.819702
-19.954163 -71.150238 76.120529
-18.938026 -73.362671 75.160294
-21.849884 -63.983391 77.747162
-9.022665 -56.594433 86.718559
-7.725416 -57.527676 86.420395
-8.971495 -59.05994 85.530785
-9.578749 -65.408279 81.805969
-8.385715 -63.824314 82.781837
-7.923708 -66.124763 81.299446
-12.838938 -72.462158 77.908981
-10.917402 -73.257645 77.608391
-12.066267 -74.742233 76.791275
-11.269983 -76.934525 75.545067
-16.676395 -51.157883 83.17469
-18.424477 -52.767097 81.447037
-18.395926 -50.149109 81.955475
-20.183512 -49.204559 80.714264
-11.408323 -46.98307 87.603477
-11.55691 -49.373474 87.365906
-13.186861 -48.259846 86.394363
-14.938492 -49.649475 84.874268
-14.820003 -71.622849 77.960052
-15.983958 -73.03511 76.889938
-16.829063 -70.738495 77.788925
-18.833351 -69.811386 77.41748
-20.799286 -68.847557 76.858658
-11.874857 -59.622433 84.191658
-10.281364 -60.593624 84.379601
-11.662857 -62.140888 83.105957
-11.318718 -64.594833 81.972931
-10.863661 -66.990936 80.804855
-10.322767 -69.347443 79.601677
-12.201214 -68.568298 79.839432
-13.539669 -70.122238 78.910538
-16.747042 -61.783443 80.846977
-18.388565 -63.388275 79.634407
-18.552261 -60.790756 80.080505
-5.408781 -48.847679 89.211121
-5.891212 -51.217957 88.73362
-6.29484 -53.601185 87.966408
-7.392643 -52.670326 88.447815
-8.902575 -54.103378 87.716911
-10.416771 -55.556141 86.596573
-11.739376 -51.87904 86.847496
-11.888342 -54.45467 86.107292
-11.945906 -57.050472 85.204941
-13.506493 -58.592693 83.693863
-15.109123 -60.176155 82.20845
-16.984535 -74.327545 75.592354
-19.976681 -64.958046 78.518532
-21.437054 -66.457764 77.389755
-22.693064 -67.855377 76.116432
-6.529661 -55.976955 86.935173
-6.548841 -58.320827 85.676064
-6.354752 -60.613014 84.230698
-8.749437 -61.472973 84.203911
-7.308495 -62.231056 83.628876
-9.721022 -71.684181 78.351616
-9.520445 -77.755417 74.966187
-10.520824 -78.983238 74.175385
-17.742493 -45.765566 83.436097
-16.888471 -45.111913 84.126205
-16.015577 -44.464119 84.806297
-15.138893 -43.875979 85.331997
-16.131744 -43.419409 84.728474
-16.888471 -45.111913 84.126205
-15.895619 -45.568483 84.729729
-16.015577 -44.464119 84.806297
-8.910954 -47.467773 88.747829
-9.704039 -46.935909 88.425621
-9.060424 -48.642172 88.679847
-8.176534 -48.021001 89.004299
-8.910954 -47.467773 88.747829
-21.357855 -71.253647 74.991749
-20.401173 -71.75306 75.328472
-20.910845 -70.650825 75.783806
-22.271286 -70.735557 74.585633
-21.357855 -71.253647 74.991749
-8.244416 -68.071194 80.117535
-7.664853 -67.262969 80.539715
-8.503271 -66.932987 80.877266
-8.80781 -68.899002 79.764092
-8.244416 -68.071194 80.117535
-20.285017 -47.98213 80.961483
-19.332616 -48.426452 81.577148
-19.434121 -47.204023 81.824367
-21.112026 -48.764259 80.101895
-20.285017 -47.98213 80.961483
-12.255346 -45.327736 87.042057
-13.197759 -44.832027 86.498734
-12.281106 -46.450359 87.086277
-11.382563 -45.860446 87.559258
-12.255346 -45.327736 87.042057
-19.452168 -58.965539 79.844765
-19.432573 -57.632144 79.993302
-19.312058 -53.605564 80.632595
-19.281474 -52.275711 80.840465
-6.213562 -49.551192 89.135368
-6.013458 -48.366043 89.284363
-6.818238 -49.069555 89.208611
-12.598182 -78.710835 73.887627
-11.795317 -79.081577 73.866028
-15.315905 -77.430897 73.702934
-14.377052 -77.877518 73.802932
-14.950964 -76.884495 74.488045
-16.233488 -76.96465 73.494545
-15.315905 -77.430897 73.702934
-18.367328 -74.420852 74.570389
-19.310642 -73.914688 74.272862
-22.363274 -65.963761 76.975624
-21.643469 -65.220577 77.568458
-22.569689 -64.726574 77.154327
-22.991279 -66.662567 76.338963
-22.065059 -67.156571 76.753094
-22.363274 -65.963761 76.975624
-7.09654 -63.364151 82.845405
-7.847105 -63.027685 83.205356
-7.63515 -64.16078 82.421886
-6.649407 -62.539168 83.135807
-7.09654 -63.364151 82.845405
-9.647205 -74.777085 76.691207
-10.001564 -73.634484 77.320453
-10.563043 -74.400246 76.979145
-9.331031 -75.931763 75.982524
-9.647205 -74.777085 76.691207
-9.864565 -76.649132 75.658043
-8.986911 -77.038048 75.290669
-9.331031 -75.931763 75.982524
-11.795317 -79.081577 73.866028
-10.949349 -79.490948 73.68351
-11.366792 -78.573868 74.357903
-18.599097 -46.4816 82.631294
-17.625116 -46.932312 83.244835
-17.742493 -45.765566 83.436097
-19.434121 -47.204023 81.824367
-18.599097 -46.4816 82.631294
-14.132178 -44.333548 85.919106
-15.138893 -43.875979 85.331997
-14.088307 -45.419168 85.989449
-13.197759 -44.832027 86.498734
-14.132178 -44.333548 85.919106
-19.399625 -56.288031 80.218373
-19.432573 -57.632144 79.993302
-18.540762 -56.790388 80.736439
-7.472069 -48.539904 89.146961
-8.176534 -48.021001 89.004299
-7.672173 -49.725052 88.997967
-6.818238 -49.069555 89.208611
-7.472069 -48.539904 89.146961
-19.893104 -72.859276 74.848354
-19.446095 -72.256455 75.640411
-20.401173 -71.75306 75.328472
-19.310642 -73.914688 74.272862
-19.893104 -72.859276 74.848354
-21.948746 -62.706701 77.864712
-21.04652 -63.197845 78.312657
-21.145381 -61.921156 78.430206
-22.747988 -63.490755 77.283901
-21.948746 -62.706701 77.864712
-22.569689 -64.726574 77.154327
-22.747988 -63.490755 77.283901
-7.404147 -65.311004 81.68069
-7.63515 -64.16078 82.421886
-8.154711 -64.974538 82.040641
-7.156208 -66.426662 80.865837
-7.404147 -65.311004 81.68069
-7.156208 -66.426662 80.865837
-7.664853 -67.262969 80.539715
-19.267198 -50.966717 81.094684
-19.281474 -52.275711 80.840465
-18.410201 -51.458103 81.701256
-20.160991 -50.494442 80.474079
-19.267198 -50.966717 81.094684
-19.289719 -49.676834 81.334869
-21.039929 -50.029194 79.859302
-20.160991 -50.494442 80.474079
-21.968442 -49.588893 79.246933
-21.039929 -50.029194 79.859302
-21.112026 -48.764259 80.101895
-10.510779 -46.382972 88.01567
-11.382563 -45.860446 87.559258
-10.601584 -47.536006 88.013428
-9.704039 -46.935909 88.425621
-10.510779 -46.382972 88.01567
-19.441444 -60.293667 79.629334
-18.562985 -59.462629 80.295937
-19.452168 -58.965539 79.844765
-20.286891 -61.104439 79.028156
-19.397709 -61.601528 79.479328
-19.441444 -60.293667 79.629334
-21.145381 -61.921156 78.430206
-20.286891 -61.104439 79.028156
-19.353726 -54.945153 80.389831
-18.466145 -54.106685 81.204273
-19.312058 -53.605564 80.632595
-19.399625 -56.288031 80.218373
-19.353726 -54.945153 80.389831
-5.185372 -47.674401 89.300781
-6.013458 -48.366043 89.284363
-4.635734 -48.089325 89.098671
-4.412326 -46.916047 89.188332
-5.185372 -47.674401 89.300781
-4.914939 -49.269516 88.901062
-4.635734 -48.089325 89.098671
-5.156154 -50.454655 88.662312
-4.914939 -49.269516 88.901062
-5.649997 -50.032818 88.972371
-5.427475 -51.630592 88.333046
-5.156154 -50.454655 88.662312
-6.093026 -52.409571 88.350014
-5.629288 -52.822207 87.94944
-5.427475 -51.630592 88.333046
-13.497857 -78.294144 73.911438
-12.598182 -78.710835 73.887627
-13.112436 -77.747806 74.564232
-13.497857 -78.294144 73.911438
-14.377052 -77.877518 73.802932
-17.390583 -74.903289 74.786419
-17.961281 -73.845108 75.376324
-18.367328 -74.420852 74.570389
-16.843224 -75.958454 74.184265
-16.437176 -75.38271 74.9902
-17.390583 -74.903289 74.786419
-16.233488 -76.96465 73.494545
-16.843224 -75.958454 74.184265
-23.5874 -67.349449 75.652451
-22.991279 -66.662567 76.338963
-23.188547 -68.491569 75.349941
-23.5874 -67.349449 75.652451
-22.775779 -69.639588 75.015266
-22.280296 -69.003395 75.781757
-23.188547 -68.491569 75.349941
-22.271286 -70.735557 74.585633
-22.775779 -69.639588 75.015266
-5.83368 -53.990818 87.491096
-5.629288 -52.822207 87.94944
-5.95109 -55.178703 86.975479
-5.83368 -53.990818 87.491096
-6.41225 -54.78907 87.450791
-6.047986 -56.332895 86.397137
-5.95109 -55.178703 86.975479
-6.057576 -57.504831 85.767582
-6.047986 -56.332895 86.397137
-6.539251 -57.148891 86.305619
-6.032782 -58.636243 85.083126
-6.057576 -57.504831 85.767582
-5.935738 -59.782337 84.360444
-6.032782 -58.636243 85.083126
-6.451797 -59.466921 84.953381
-5.801557 -60.885707 83.58725
-5.935738 -59.782337 84.360444
-6.172536 -61.730147 83.436718
-6.831624 -61.422035 83.929787
-6.649407 -62.539168 83.135807
-5.801557 -60.885707 83.58725
-6.172536 -61.730147 83.436718
-9.427776 -69.702118 79.337387
-8.80781 -68.899002 79.764092
-9.702801 -68.544327 80.028381
-9.126904 -70.870487 78.712356
-9.427776 -69.702118 79.337387
-10.021895 -70.515812 78.976647
-8.837742 -72.032002 78.001156
-9.126904 -70.870487 78.712356
-9.403374 -72.847752 77.692066
-10.319212 -72.470913 77.980004
-10.001564 -73.634484 77.320453
-8.837742 -72.032002 78.001156
-9.403374 -72.847752 77.692066
-8.698515 -78.16954 74.516507
-8.986911 -77.038048 75.290669
-9.224622 -78.800679 74.202343
-8.698515 -78.16954 74.516507
-9.724811 -79.414589 73.806942
-9.224622 -78.800679 74.202343
-10.020634 -78.369327 74.570786
-10.223444 -79.893494 73.439942
-9.724811 -79.414589 73.806942
-10.223444 -79.893494 73.439942
-10.949349 -79.490948 73.68351
3 112 111 27
3 113 29 114
3 113 114 115
3 116 27 117
3 118 117 29
3 116 117 118
3 0 33 31
3 0 36 34
3 0 31 36
3 1 40 38
3 2 119 120
3 2 121 123
3 121 41 122
3 121 122 123
3 2 43 41
3 1 46 44
3 1 38 46
3 4 50 48
3 5 124 126
3 126 125 51
3 124 125 126
3 5 127 128
3 3 56 54
3 6 59 57
3 6 129 131
3 131 130 59
3 129 130 131
3 6 132 133
3 4 62 60
3 4 48 62
3 7 66 64
3 134 67 135
3 136 135 28
3 134 135 136
3 138 137 67
3 8 139 140
3 8 141 143
3 141 68 142
3 141 142 143
3 8 70 68
3 7 71 30
3 7 64 71
3 10 74 72
3 12 75 32
3 12 76 75
3 13 79 77
3 15 80 35
3 15 81 80
3 15 83 81
3 10 84 37
3 10 72 84
3 17 87 85
3 145 144 39
3 147 146 65
3 19 148 150
3 148 88 149
3 148 149 150
3 19 89 88
3 19 91 89
3 21 92 42
3 21 93 92
3 9 94 69
3 22 95 45
3 22 96 95
3 22 97 96
3 17 98 47
3 17 85 98
3 23 151 152
3 24 153 155
3 155 154 49
3 153 154 155
3 24 156 157
3 11 99 73
3 159 158 52
3 18 100 86
3 160 101 161
3 162 161 53
3 160 161 162
3 163 102 164
3 165 164 101
3 163 164 165
3 20 103 90
3 25 104 55
3 25 105 104
3 14 106 78
3 166 107 167
3 168 167 58
3 166 167 168
3 170 169 107
3 16 108 82
3 26 171 173
3 173 172 61
3 171 172 173
3 26 174 175
3 26 176 178
3 176 109 177
3 176 177 178
3 23 110 63
3 23 179 181
3 181 180 110
3 179 180 181
3 27 28 7
3 182 28 183
3 184 183 27
3 182 183 184
3 186 185 28
3 29 187 188
3 29 189 191
3 189 8 190
3 189 190 191
3 29 30 8
3 27 30 29
3 27 7 30
3 31 32 10
3 33 32 31
3 33 12 32
3 34 35 13
3 36 35 34
3 36 15 35
3 36 37 15
3 31 37 36
3 31 10 37
3 38 39 17
3 40 39 38
3 40 192 194
3 194 193 39
3 192 193 194
3 41 195 196
3 41 197 199
3 197 19 198
3 197 198 199
3 41 42 19
3 43 42 41
3 43 21 42
3 44 45 9
3 46 45 44
3 46 22 45
3 46 47 22
3 38 47 46
3 38 17 47
3 48 49 23
3 50 49 48
3 50 24 49
3 51 52 11
3 200 52 201
3 202 201 51
3 200 201 202
3 204 203 52
3 205 53 206
3 207 206 18
3 205 206 207
3 208 53 209
3 211 210 53
3 54 55 20
3 56 55 54
3 56 25 55
3 57 58 14
3 59 58 57
3 59 212 214
3 214 213 58
3 212 213 214
3 59 215 216
3 218 217 59
3 60 61 16
3 62 61 60
3 62 26 61
3 62 63 26
3 48 63 62
3 48 23 63
3 64 65 1
3 66 65 64
3 66 219 221
3 221 220 65
3 219 220 221
3 28 66 7
3 67 66 28
3 67 222 224
3 224 223 66
3 222 223 224
3 67 225 226
3 229 228 67
3 227 228 229
3 68 230 231
3 68 232 234
3 232 2 233
3 232 233 234
3 68 69 2
3 70 69 68
3 70 9 69
3 30 70 8
3 71 70 30
3 71 9 70
3 71 44 9
3 64 44 71
3 64 1 44
3 72 73 4
3 74 73 72
3 74 11 73
3 32 74 10
3 75 74 32
3 75 11 74
3 75 51 11
3 76 51 75
3 76 5 51
3 77 78 3
3 79 78 77
3 79 14 78
3 35 79 13
3 80 79 35
3 80 14 79
3 80 57 14
3 81 57 80
3 81 6 57
3 81 82 6
3 83 82 81
3 83 16 82
3 37 83 15
3 84 83 37
3 84 16 83
3 84 60 16
3 72 60 84
3 72 4 60
3 85 86 0
3 87 86 85
3 87 18 86
3 39 87 17
3 235 87 236
3 237 236 39
3 235 236 237
3 238 18 239
3 240 239 87
3 238 239 240
3 242 241 18
3 65 40 1
3 243 40 244
3 245 244 65
3 243 244 245
3 247 246 40
3 88 248 249
3 88 250 252
3 250 251 252
3 88 253 254
3 89 255 257
3 257 256 88
3 255 256 257
3 89 258 259
3 89 260 262
3 260 90 261
3 260 261 262
3 91 90 89
3 91 20 90
3 42 91 19
3 92 91 42
3 92 20 91
3 92 54 20
3 93 54 92
3 93 3 54
3 69 43 2
3 94 43 69
3 94 21 43
3 45 94 9
3 95 94 45
3 95 21 94
3 95 93 21
3 96 93 95
3 96 3 93
3 96 77 3
3 97 77 96
3 97 13 77
3 47 97 22
3 98 97 47
3 98 13 97
3 98 34 13
3 85 34 98
3 85 0 34
3 49 263 265
3 265 264 23
3 263 264 265
3 267 266 49
3 73 50 4
3 99 50 73
3 99 24 50
3 52 99 11
3 268 99 269
3 270 269 52
3 268 269 270
3 271 24 272
3 273 272 99
3 271 272 273
3 275 274 24
3 86 33 0
3 100 33 86
3 100 12 33
3 53 100 18
3 101 100 53
3 101 12 100
3 101 76 12
3 102 76 101
3 102 5 76
3 276 102 277
3 278 102 279
3 280 5 281
3 282 281 102
3 280 281 282
3 284 283 5
3 90 285 286
3 103 287 289
3 289 288 90
3 287 288 289
3 103 290 291
3 55 103 20
3 104 103 55
3 104 292 294
3 294 293 103
3 292 293 294
3 104 295 296
3 105 297 299
3 299 298 104
3 297 298 299
3 105 300 301
3 78 56 3
3 106 56 78
3 106 25 56
3 58 106 14
3 107 106 58
3 107 25 106
3 107 105 25
3 302 105 303
3 304 303 107
3 302 303 304
3 306 305 105
3 82 307 309
3 309 308 6
3 307 308 309
3 108 310 312
3 312 311 82
3 310 311 312
3 108 313 314
3 61 108 16
3 315 108 316
3 317 316 61
3 315 316 317
3 319 318 108
3 109 320 321
3 109 322 323
3 63 109 26
3 110 109 63
3 110 324 326
3 326 325 109
3 324 325 326
3 110 327 328
3 330 329 110
