ply
format ascii 1.0
element vertex 156
property float x
property float y
property float z
element face 147
property list uchar int vertex_index
end_header
68.524773 -30.525045 -23.853373
63.673462 -37.013596 -16.203604
70.167511 -44.238403 -18.93989
70.699593 -34.809647 -25.27286
69.829353 -27.366209 -27.642298
67.501892 -40.267464 -17.754683
65.032547 -27.315819 -22.085421
67.188171 -23.5779 -26.088427
66.258423 -33.822239 -20.064962
69.603012 -37.416405 -21.536711
70.937523 -42.131958 -22.821589
66.824097 -28.821201 -23.039507
66.176033 -25.454882 -24.085215
67.874008 -27.055496 -24.972055
64.368515 -32.297062 -19.152502
64.962662 -35.446083 -18.146044
69.096306 -42.135056 -18.372309
68.649086 -38.824696 -19.65354
69.966202 -40.834843 -20.285715
70.582817 -39.614517 -22.187506
70.690964 -43.128284 -20.887686
69.87545 -32.502552 -24.582178
69.329636 -28.913742 -25.741568
70.333481 -31.095711 -26.449488
64.275925 -40.062946 -15.110163
65.598656 -38.580498 -17.045691
66.230354 -41.707275 -15.835741
68.023262 -43.482231 -16.446371
69.395081 -45.441738 -16.983915
68.689934 -25.31665 -26.912493
65.624687 -30.578892 -21.102537
67.474861 -32.171513 -21.964788
66.89801 -37.049736 -18.955446
68.095406 -35.505184 -20.843706
69.111572 -33.979881 -22.716673
70.302055 -36.071854 -23.408407
70.907875 -38.491875 -24.076609
70.173134 -47.630409 -17.484278
70.600594 -46.614235 -19.484663
62.855385 -36.264439 -15.702165
63.070187 -37.756318 -15.220014
63.409851 -35.481449 -16.694416
62.855385 -36.264439 -15.702165
64.318062 -36.229839 -17.174824
64.054451 -34.697693 -17.665636
63.409851 -35.481449 -16.694416
64.589718 -41.582922 -14.501439
63.638172 -40.763818 -14.128431
63.951966 -42.283794 -13.519707
65.566933 -42.405087 -14.864228
65.25314 -40.88511 -15.472952
64.589718 -41.582922 -14.501439
68.217006 -45.090534 -15.733788
67.413437 -44.157291 -15.475701
68.902916 -46.070287 -16.002561
68.709171 -44.461984 -16.715143
68.217006 -45.090534 -15.733788
64.771748 -25.673946 -22.554424
64.239811 -26.624451 -21.514561
66.373444 -22.826928 -25.598221
65.867375 -23.765419 -24.596615
66.682102 -24.516391 -25.086821
66.840454 -21.839185 -26.645636
66.373444 -22.826928 -25.598221
70.915356 -41.690571 -23.776999
70.900531 -39.87053 -24.404509
70.922699 -40.311916 -23.449099
70.061215 -49.320114 -16.699703
69.837437 -48.188724 -16.482864
70.491314 -47.943023 -19.747652
70.443741 -48.343743 -18.725199
70.684494 -46.169849 -20.479248
70.491314 -47.943023 -19.747652
70.735657 -34.2232 -26.203537
70.810856 -36.139027 -25.611502
69.517353 -25.503151 -28.258751
69.909458 -26.636315 -28.605915
63.757378 -33.123182 -18.168865
63.550684 -31.580613 -18.610901
62.939546 -32.406734 -17.627264
64.665588 -33.871572 -18.649273
63.757378 -33.123182 -18.168865
64.054451 -34.697693 -17.665636
70.552601 -32.366232 -26.791851
70.516537 -32.952679 -25.861174
70.735657 -34.2232 -26.203537
70.395141 -30.43508 -27.389168
70.552601 -32.366232 -26.791851
70.143078 -28.570329 -27.985573
70.081417 -29.23096 -27.045893
70.395141 -30.43508 -27.389168
69.909458 -26.636315 -28.605915
70.143078 -28.570329 -27.985573
63.371418 -39.280992 -14.673293
62.733666 -39.981865 -13.691561
63.638172 -40.763818 -14.128431
63.974694 -38.538271 -15.656883
63.070187 -37.756318 -15.220014
63.371418 -39.280992 -14.673293
66.516983 -43.269813 -15.170386
65.566933 -42.405087 -14.864228
67.126808 -42.594753 -16.141056
66.516983 -43.269813 -15.170386
67.413437 -44.157291 -15.475701
65.343491 -24.743478 -23.554322
64.771748 -25.673946 -22.554424
65.60429 -26.385351 -23.085318
65.034832 -23.054015 -24.065722
65.343491 -24.743478 -23.554322
65.867375 -23.765419 -24.596615
68.947643 -24.478372 -27.893849
69.259643 -26.34143 -27.277396
69.517353 -25.503151 -28.258751
68.334832 -23.52046 -27.509585
68.947643 -24.478372 -27.893849
67.58395 -22.651085 -27.097552
67.939053 -24.447275 -26.50046
68.334832 -23.52046 -27.509585
66.840454 -21.839185 -26.645636
67.58395 -22.651085 -27.097552
64.443199 -28.221583 -21.083273
64.239811 -26.624451 -21.514561
64.111183 -30.712204 -19.616813
63.550684 -31.580613 -18.610901
64.739269 -29.853119 -20.591831
64.111183 -30.712204 -19.616813
64.996601 -31.437977 -20.127519
65.328617 -28.947356 -21.593979
64.443199 -28.221583 -21.083273
64.739269 -29.853119 -20.591831
70.914997 -37.980141 -25.013376
70.810856 -36.139027 -25.611502
70.803734 -36.650761 -24.674734
70.914997 -37.980141 -25.013376
70.900531 -39.87053 -24.404509
69.44841 -47.094389 -16.232683
68.902916 -46.070287 -16.002561
69.784108 -46.536074 -17.234096
69.44841 -47.094389 -16.232683
69.837437 -48.188724 -16.482864
70.230011 -48.85183 -17.725006
70.061215 -49.320114 -16.699703
70.118092 -50.541534 -16.940432
70.386864 -47.122322 -18.484471
70.230011 -48.85183 -17.725006
70.443741 -48.343743 -18.725199
70.729679 -44.426874 -21.18076
70.645779 -44.87126 -20.186174
70.684494 -46.169849 -20.479248
70.852958 -43.928711 -22.147711
70.814244 -42.630121 -21.854637
70.729679 -44.426874 -21.18076
70.803341 -43.549109 -23.129694
70.852958 -43.928711 -22.147711
70.915356 -41.690571 -23.776999
70.803341 -43.549109 -23.129694
3 0 13 11
3 1 39 40
3 1 41 42
3 1 43 45
3 43 15 44
3 43 44 45
3 2 18 16
3 2 20 18
3 3 23 21
3 46 24 47
3 46 47 48
3 49 26 50
3 51 50 24
3 49 50 51
3 52 27 53
3 54 28 55
3 56 55 27
3 54 55 56
3 6 57 58
3 7 59 61
3 61 60 12
3 59 60 61
3 7 62 63
3 4 29 22
3 8 30 14
3 8 31 30
3 5 32 25
3 9 33 17
3 9 34 33
3 9 35 34
3 10 36 19
3 10 64 66
3 66 65 36
3 64 65 66
3 67 37 68
3 69 38 70
3 72 71 38
3 74 73 3
3 11 12 6
3 13 12 11
3 13 7 12
3 76 75 4
3 77 14 78
3 77 78 79
3 15 80 82
3 80 14 81
3 80 81 82
3 15 8 14
3 16 17 5
3 18 17 16
3 18 9 17
3 18 19 9
3 20 19 18
3 20 10 19
3 21 22 0
3 23 22 21
3 23 4 22
3 83 23 84
3 85 84 3
3 83 84 85
3 86 23 87
3 88 4 89
3 90 89 23
3 88 89 90
3 92 91 4
3 24 93 95
3 93 94 95
3 24 96 98
3 96 1 97
3 96 97 98
3 24 25 1
3 26 25 24
3 26 5 25
3 99 26 100
3 27 101 103
3 101 26 102
3 101 102 103
3 27 5 26
3 27 16 5
3 28 16 27
3 28 2 16
3 12 104 106
3 106 105 6
3 104 105 106
3 109 108 12
3 107 108 109
3 22 13 0
3 29 13 22
3 29 7 13
3 110 29 111
3 112 111 4
3 110 111 112
3 113 29 114
3 115 7 116
3 117 116 29
3 115 116 117
3 119 118 7
3 120 6 121
3 14 122 123
3 30 124 126
3 126 125 14
3 124 125 126
3 30 127 129
3 127 6 128
3 127 128 129
3 30 11 6
3 31 11 30
3 31 0 11
3 25 15 1
3 32 15 25
3 32 8 15
3 17 32 5
3 33 32 17
3 33 8 32
3 33 31 8
3 34 31 33
3 34 0 31
3 34 21 0
3 35 21 34
3 35 3 21
3 19 35 9
3 36 35 19
3 36 3 35
3 36 130 132
3 132 131 3
3 130 131 132
3 134 133 36
3 135 28 136
3 37 137 139
3 137 28 138
3 137 138 139
3 37 2 28
3 140 37 141
3 140 141 142
3 38 143 145
3 143 37 144
3 143 144 145
3 38 2 37
3 38 20 2
3 146 20 147
3 148 147 38
3 146 147 148
3 149 10 150
3 151 150 20
3 149 150 151
3 152 10 153
3 155 154 10
