ply
format ascii 1.0
element vertex 401
property float x
property float y
property float z
element face 438
property list uchar int vertex_index
end_header
56.071259 -67.613022 -26.800783
51.582611 -82.377319 -21.657412
45.985985 -80.676727 -25.463095
50.118759 -63.651058 -29.787161
54.375294 -81.548691 -14.390783
60.567055 -68.763847 -21.456987
59.996002 -51.310184 -32.978561
54.585487 -45.974083 -36.250626
44.025726 -88.799484 -24.040495
42.800152 -78.836945 -26.4788
53.87896 -75.118759 -24.076361
56.074715 -75.514832 -21.386412
58.644745 -68.538559 -24.554976
60.844772 -61.142776 -27.767229
62.628086 -53.165413 -30.862261
58.12339 -59.702122 -29.793745
47.207874 -60.8134 -31.111921
52.398636 -54.849731 -32.79483
49.550819 -51.719894 -34.112946
51.682568 -42.733944 -37.423576
49.298115 -89.407669 -19.402502
47.025299 -89.449944 -22.287771
49.047615 -81.853195 -23.968767
51.057739 -74.027893 -25.951754
53.119797 -65.945312 -28.416647
47.975426 -72.281815 -27.335794
44.937458 -69.905457 -28.538153
58.400429 -74.825325 -13.80065
53.330784 -82.240067 -18.390947
57.522411 -75.311523 -17.863333
55.251045 -57.542637 -31.373102
57.32695 -48.852257 -34.751244
59.020771 -39.997578 -38.480423
56.22023 -37.132942 -40.025948
54.991512 -71.406296 -25.399549
56.278458 -71.827309 -24.284231
57.427399 -68.172012 -25.778421
59.796234 -64.906029 -26.168062
58.509445 -64.410858 -27.309645
59.521057 -60.521782 -28.859426
57.116051 -63.716854 -28.269751
45.784584 -59.184071 -31.743505
48.382458 -56.258785 -32.566597
46.961548 -54.562851 -33.194534
48.119087 -49.976185 -34.710739
44.587894 -93.012924 -22.593428
45.01218 -84.775925 -24.709955
46.582973 -85.312439 -24.016195
47.556824 -81.34552 -24.79751
50.050468 -77.967712 -24.906805
48.532307 -77.319229 -25.676893
49.525433 -73.233566 -26.681086
46.967228 -76.510818 -26.331205
41.254066 -77.644699 -26.883581
43.855957 -74.401657 -27.441977
42.355591 -73.08313 -27.930246
43.473572 -68.467598 -29.096464
54.718044 -81.077332 -12.242447
56.647728 -77.763428 -11.914331
56.335648 -78.128052 -14.041643
50.428452 -85.930969 -20.525583
51.312984 -85.799965 -18.844992
52.55785 -82.388969 -20.137403
58.333023 -72.138443 -21.402662
56.885788 -75.473045 -19.715509
59.087608 -72.078911 -19.652208
59.685066 -71.937973 -17.740858
61.274803 -68.706985 -19.619856
61.322533 -52.325275 -31.975378
62.098801 -48.034294 -33.551155
60.827553 -46.958946 -34.644119
51.61116 -64.86882 -29.112837
54.18042 -61.784637 -29.837252
52.706577 -60.589218 -30.539446
53.52729 -50.415127 -34.474678
54.923523 -51.871456 -33.765274
55.972736 -47.45813 -35.538002
58.250862 -44.435394 -36.576233
56.909691 -43.028267 -37.39917
57.663635 -38.600342 -39.334312
55.50811 -41.540237 -38.106697
50.188629 -40.955147 -37.89949
52.52169 -38.320175 -39.163589
42.369999 -88.217918 -24.56629
43.384731 -84.072685 -25.237597
44.38678 -79.84343 -26.011614
41.751415 -83.194099 -25.643927
52.528503 -85.072433 -14.876753
52.738861 -78.771744 -22.832769
53.821976 -78.920151 -21.463472
55.071068 -75.40274 -22.84355
57.39827 -72.066002 -22.953463
59.694149 -68.72496 -23.111994
60.940067 -65.20903 -24.8155
62.05571 -61.564983 -26.481108
61.788498 -57.230988 -29.33359
60.460083 -56.492798 -30.415125
59.087406 -55.564075 -31.363817
48.651596 -62.299572 -30.454821
51.25053 -59.26585 -31.227175
49.811356 -57.822975 -31.905989
50.977982 -53.340069 -33.471275
52.110901 -48.86277 -35.134361
53.154572 -44.401993 -36.879417
50.669891 -47.207653 -35.736145
49.21347 -45.434883 -36.281288
47.76585 -43.526314 -36.786285
58.318596 -29.854477 -43.351219
48.266838 -89.517029 -20.989542
49.334213 -85.892593 -21.950502
45.596558 -89.209785 -23.296049
48.040771 -85.685257 -23.108782
50.404377 -82.198334 -22.932196
51.469467 -78.453491 -23.972715
52.526119 -74.65889 -25.099981
53.575356 -70.802238 -26.329054
54.61972 -66.865929 -27.662722
52.078766 -70.024139 -27.120123
50.549576 -69.08432 -27.825102
49.024494 -67.993088 -28.487562
45.398689 -75.540604 -26.911173
46.440361 -71.173874 -27.950029
47.524166 -66.755234 -29.132597
46.055008 -65.368805 -29.764532
44.617111 -63.825871 -30.372225
52.002277 -85.50737 -16.944502
53.924629 -81.949478 -16.458067
54.704643 -78.904495 -19.866259
55.397224 -78.743454 -18.066866
55.928833 -78.470024 -16.108477
58.01638 -75.077957 -15.87554
60.155888 -71.774895 -15.715754
55.659637 -62.834621 -29.095095
56.690308 -58.700676 -30.616758
57.699287 -54.466415 -32.219452
53.82032 -56.252987 -32.094574
56.311058 -53.227257 -33.014153
58.664101 -50.143654 -33.898674
59.549686 -45.75164 -35.653496
58.157646 -34.198524 -41.325928
56.644859 -32.781387 -41.987961
54.040962 -39.972778 -38.691277
54.695354 -35.601044 -40.553177
45.674679 -55.980711 -32.764293
46.373066 -56.873461 -32.46902
45.086197 -58.291321 -32.038779
46.260331 -53.641388 -33.487354
45.674679 -55.980711 -32.764293
43.272443 -94.772304 -22.693337
44.069639 -94.847515 -22.227711
41.061691 -74.667786 -27.579655
41.804828 -75.363914 -27.406914
40.510929 -76.94857 -27.056322
41.632229 -72.327778 -28.149618
41.061691 -74.667786 -27.579655
54.546669 -81.313012 -13.316615
53.823484 -82.801304 -12.471381
53.652109 -83.036984 -13.545549
61.651209 -67.069423 -21.469347
62.005083 -67.040993 -20.550781
60.920929 -68.735416 -20.538421
50.585308 -38.762976 -38.729293
49.446914 -40.001331 -38.121559
41.528578 -87.838184 -24.745531
40.978226 -89.916511 -24.433691
42.035944 -85.765568 -25.081184
42.877365 -86.145302 -24.901944
41.528578 -87.838184 -24.745531
41.219286 -85.326274 -25.28435
42.568073 -83.633392 -25.440762
42.035944 -85.765568 -25.081184
51.64605 -86.872116 -15.189087
51.893486 -86.573799 -14.089189
61.940551 -59.457323 -27.924898
62.54602 -59.668426 -27.281838
61.450241 -61.353879 -27.124168
61.316635 -59.186882 -28.55041
62.412414 -57.501429 -28.708078
61.940551 -59.457323 -27.924898
47.956516 -46.763302 -35.773494
48.666279 -47.705534 -35.496014
47.409324 -49.033953 -34.98822
47.232706 -45.809017 -36.025993
48.48966 -44.480598 -36.533787
47.956516 -46.763302 -35.773494
59.063316 -30.50777 -42.912384
59.00309 -28.339464 -43.935527
47.646068 -89.483486 -21.638656
47.133516 -91.316299 -21.225128
46.512747 -91.282757 -21.874243
44.811142 -89.004635 -23.668272
44.303574 -90.969139 -23.356006
43.518158 -90.763989 -23.728229
43.335966 -65.337378 -29.991694
44.045341 -66.146734 -29.734344
42.764196 -67.658242 -29.353813
43.916008 -62.97037 -30.655552
43.335966 -65.337378 -29.991694
58.548298 -74.712506 -12.74098
57.671948 -76.181557 -11.797821
57.524079 -76.294376 -12.857491
59.462845 -73.235348 -13.711624
58.548298 -74.712506 -12.74098
49.710097 -89.265197 -18.479242
48.753865 -91.085068 -18.825771
60.998543 -70.196625 -16.679953
59.920477 -71.856434 -16.728306
60.763132 -70.278164 -17.692505
61.223273 -70.16853 -15.646276
60.998543 -70.196625 -16.679953
63.614908 -51.437197 -30.964996
63.255827 -53.492142 -30.235401
59.663725 -40.656168 -37.982216
59.278771 -42.875076 -37.030121
58.635817 -42.216486 -37.528328
59.946653 -38.429125 -38.933907
59.663725 -40.656168 -37.982216
59.292625 -37.7804 -39.46624
59.946653 -38.429125 -38.933907
53.90611 -34.803978 -40.746914
53.608522 -36.96061 -39.858383
52.819278 -36.163544 -40.05212
54.869869 -33.464863 -41.497921
53.90611 -34.803978 -40.746914
46.8391 -51.348055 -34.245457
47.540318 -52.269518 -33.952636
46.260331 -53.641388 -33.487354
47.409324 -49.033953 -34.98822
46.8391 -51.348055 -34.245457
45.294044 -93.064247 -22.027071
44.069639 -94.847515 -22.227711
45.806596 -91.231434 -22.440599
46.512747 -91.282757 -21.874243
45.294044 -93.064247 -22.027071
42.19122 -70.020012 -28.732727
42.914581 -70.775364 -28.513355
41.632229 -72.327778 -28.149618
42.764196 -67.658242 -29.353813
42.19122 -70.020012 -28.732727
53.975332 -82.48948 -11.355736
53.823484 -82.801304 -12.471381
54.846876 -80.825829 -11.150555
53.975332 -82.48948 -11.355736
55.682886 -79.42038 -12.078389
55.811718 -79.168877 -10.986497
54.846876 -80.825829 -11.150555
61.558 -68.66267 -18.632004
60.763132 -70.278164 -17.692505
60.479934 -70.322479 -18.680357
62.336769 -67.030952 -19.588602
61.558 -68.66267 -18.632004
62.336769 -67.030952 -19.588602
62.005083 -67.040993 -20.550781
62.342717 -50.640405 -32.170279
62.995493 -51.060474 -31.613721
61.97531 -52.745344 -31.418819
62.730851 -48.494915 -32.958168
62.342717 -50.640405 -32.170279
61.710667 -50.179784 -32.763267
63.042611 -46.329666 -33.709786
62.730851 -48.494915 -32.958168
62.434151 -45.840449 -34.356632
63.042611 -46.329666 -33.709786
61.798527 -45.302774 -34.903114
62.434151 -45.840449 -34.356632
61.463177 -47.49662 -34.097637
61.187596 -44.748054 -35.507446
61.798527 -45.302774 -34.903114
51.751838 -37.44549 -39.361343
51.355159 -39.637661 -38.53154
50.585308 -38.762976 -38.729293
52.819278 -36.163544 -40.05212
51.751838 -37.44549 -39.361343
42.674332 -90.531578 -24.003792
43.518158 -90.763989 -23.728229
41.846468 -90.240795 -24.266689
40.978226 -89.916511 -24.433691
43.197862 -88.508701 -24.303393
42.674332 -90.531578 -24.003792
41.846468 -90.240795 -24.266689
40.389242 -84.851715 -25.402319
41.219286 -85.326274 -25.28435
40.951589 -82.660579 -25.802479
40.389242 -84.851715 -25.402319
41.475958 -80.482002 -26.219915
42.275784 -81.015522 -26.061363
40.951589 -82.660579 -25.802479
40.702915 -79.88588 -26.422306
42.027109 -78.240822 -26.68119
41.475958 -80.482002 -26.219915
39.934418 -79.250442 -26.544145
40.702915 -79.88588 -26.422306
39.191281 -78.554314 -26.716887
40.510929 -76.94857 -27.056322
39.934418 -79.250442 -26.544145
52.728714 -84.798855 -13.788533
51.893486 -86.573799 -14.089189
53.451898 -83.310562 -14.633768
53.652109 -83.036984 -13.545549
52.728714 -84.798855 -13.788533
60.807234 -67.036716 -23.179445
61.243687 -67.05616 -22.351942
60.130602 -68.744404 -22.284491
61.430193 -65.278751 -24.031199
60.807234 -67.036716 -23.179445
60.317108 -66.966995 -23.963747
62.032018 -63.509935 -24.900371
61.430193 -65.278751 -24.031199
62.58984 -61.687912 -25.733176
62.032018 -63.509935 -24.900371
61.497889 -63.387006 -25.648304
63.111969 -59.847723 -26.560129
62.58984 -61.687912 -25.733176
63.111969 -59.847723 -26.560129
62.54602 -59.668426 -27.281838
62.836033 -55.524929 -29.471066
62.412414 -57.501429 -28.708078
62.208292 -55.1982 -30.097926
63.255827 -53.492142 -30.235401
62.836033 -55.524929 -29.471066
48.235525 -41.286915 -37.564957
49.446914 -40.001331 -38.121559
48.977239 -42.24073 -37.342888
58.203736 -27.73047 -44.366073
59.00309 -28.339464 -43.935527
57.515808 -29.190073 -43.658741
58.203736 -27.73047 -44.366073
48.25462 -91.220246 -19.70431
48.753865 -91.085068 -18.825771
47.738981 -91.274925 -20.49783
47.133516 -91.316299 -21.225128
48.782477 -89.462349 -20.196022
48.25462 -91.220246 -19.70431
47.738981 -91.274925 -20.49783
43.799242 -92.870709 -23.004696
43.272443 -94.772304 -22.693337
45.092226 -91.111355 -22.944738
43.799242 -92.870709 -23.004696
44.303574 -90.969139 -23.356006
44.499745 -60.64947 -31.341192
45.200848 -61.504971 -31.057865
43.916008 -62.97037 -30.655552
45.086197 -58.291321 -32.038779
44.499745 -60.64947 -31.341192
46.544325 -44.788815 -36.289211
47.232706 -45.809017 -36.025993
47.063246 -42.496479 -37.034324
46.544325 -44.788815 -36.289211
48.235525 -41.286915 -37.564957
47.063246 -42.496479 -37.034324
56.763588 -77.58799 -10.839499
55.811718 -79.168877 -10.986497
56.763588 -77.58799 -10.839499
57.671948 -76.181557 -11.797821
50.717531 -87.461345 -18.200488
49.710097 -89.265197 -18.479242
50.305549 -87.603817 -19.123747
51.062178 -87.315048 -17.250242
50.717531 -87.461345 -18.200488
51.65763 -85.653667 -17.894747
51.382936 -87.089585 -16.222962
51.062178 -87.315048 -17.250242
52.26539 -85.289901 -15.910628
51.64605 -86.872116 -15.189087
51.382936 -87.089585 -16.222962
60.340575 -71.710133 -14.669176
59.462845 -73.235348 -13.711624
59.278159 -73.30011 -14.758202
60.340575 -71.710133 -14.669176
61.223273 -70.16853 -15.646276
61.651209 -67.069423 -21.469347
61.243687 -67.05616 -22.351942
63.614908 -51.437197 -30.964996
62.995493 -51.060474 -31.613721
60.548662 -44.144402 -36.012135
61.187596 -44.748054 -35.507446
60.18862 -46.355293 -35.148808
59.928183 -43.533199 -36.568753
58.900274 -45.093517 -36.114864
59.278771 -42.875076 -37.030121
60.548662 -44.144402 -36.012135
59.928183 -43.533199 -36.568753
58.614058 -37.081781 -39.893185
59.292625 -37.7804 -39.46624
58.342203 -39.29896 -38.907367
58.861063 -34.880872 -40.888993
58.614058 -37.081781 -39.893185
57.91064 -36.399433 -40.33012
58.982841 -32.679794 -41.899738
58.861063 -34.880872 -40.888993
58.238121 -32.0265 -42.338573
59.063316 -30.50777 -42.912384
58.982841 -32.679794 -41.899738
56.678939 -30.653528 -42.977112
57.515808 -29.190073 -43.658741
57.481727 -31.317932 -42.66959
55.844622 -32.055035 -42.215313
55.670107 -34.191215 -41.270569
54.869869 -33.464863 -41.497921
56.678939 -30.653528 -42.977112
55.844622 -32.055035 -42.215313
3 0 36 34
3 0 38 36
3 0 40 38
3 143 43 144
3 145 144 41
3 143 144 145
3 147 146 43
3 148 45 149
3 2 48 46
3 2 50 48
3 2 52 50
3 150 55 151
3 152 151 53
3 150 151 152
3 154 153 55
3 4 155 157
3 155 57 156
3 155 156 157
3 4 59 57
3 1 62 60
3 5 65 63
3 5 67 65
3 5 158 160
3 160 159 67
3 158 159 160
3 6 69 68
3 6 70 69
3 3 73 71
3 7 76 74
3 7 78 76
3 7 80 78
3 162 161 81
3 163 83 164
3 165 84 166
3 167 166 83
3 165 166 167
3 168 86 169
3 170 169 84
3 168 169 170
3 171 87 172
3 10 90 88
3 12 91 35
3 12 92 91
3 12 93 92
3 13 94 37
3 13 173 175
3 175 174 94
3 173 174 175
3 13 176 178
3 176 95 177
3 176 177 178
3 15 96 39
3 15 97 96
3 16 100 98
3 18 101 42
3 18 102 101
3 18 104 102
3 179 105 180
3 181 180 44
3 179 180 181
3 182 106 183
3 184 183 105
3 182 183 184
3 185 107 186
3 21 187 189
3 187 108 188
3 187 188 189
3 21 109 108
3 8 190 192
3 190 110 191
3 190 191 192
3 22 111 47
3 22 112 111
3 22 113 112
3 23 114 49
3 23 115 114
3 23 117 115
3 25 118 51
3 25 119 118
3 9 120 85
3 26 121 54
3 26 122 121
3 26 123 122
3 193 124 194
3 195 194 56
3 193 194 195
3 197 196 124
3 27 198 200
3 200 199 58
3 198 199 200
3 27 201 202
3 20 203 204
3 28 125 61
3 28 126 125
3 11 127 89
3 29 128 64
3 29 129 128
3 29 130 129
3 205 131 206
3 207 206 66
3 205 206 207
3 209 208 131
3 14 210 211
3 24 132 116
3 30 133 72
3 30 134 133
3 17 135 99
3 31 136 75
3 31 137 136
3 31 138 137
3 32 212 214
3 214 213 77
3 212 213 214
3 32 215 216
3 32 217 218
3 33 139 79
3 33 140 139
3 19 141 103
3 219 142 220
3 221 220 82
3 219 220 221
3 223 222 142
3 34 35 10
3 36 35 34
3 36 12 35
3 36 37 12
3 38 37 36
3 38 13 37
3 38 39 13
3 40 39 38
3 40 15 39
3 41 42 16
3 43 42 41
3 43 18 42
3 43 44 18
3 224 44 225
3 226 225 43
3 224 225 226
3 228 227 44
3 45 229 230
3 45 231 233
3 231 21 232
3 231 232 233
3 46 47 8
3 48 47 46
3 48 22 47
3 48 49 22
3 50 49 48
3 50 23 49
3 50 51 23
3 52 51 50
3 52 25 51
3 53 54 9
3 55 54 53
3 55 26 54
3 55 56 26
3 234 56 235
3 236 235 55
3 234 235 236
3 238 237 56
3 57 239 240
3 57 241 242
3 57 243 245
3 243 58 244
3 243 244 245
3 59 58 57
3 59 27 58
3 60 61 20
3 62 61 60
3 62 28 61
3 63 64 11
3 65 64 63
3 65 29 64
3 65 66 29
3 67 66 65
3 67 246 248
3 248 247 66
3 246 247 248
3 67 249 250
3 252 251 67
3 68 253 255
3 255 254 14
3 253 254 255
3 69 256 258
3 258 257 68
3 256 257 258
3 69 259 260
3 69 261 262
3 70 263 265
3 265 264 69
3 263 264 265
3 70 266 267
3 71 72 24
3 73 72 71
3 73 30 72
3 74 75 17
3 76 75 74
3 76 31 75
3 76 77 31
3 78 77 76
3 78 32 77
3 78 79 32
3 80 79 78
3 80 33 79
3 81 82 19
3 268 82 269
3 270 269 81
3 268 269 270
3 272 271 82
3 273 8 274
3 83 275 276
3 83 277 279
3 277 8 278
3 277 278 279
3 83 46 8
3 84 46 83
3 84 2 46
3 84 85 2
3 86 85 84
3 86 9 85
3 280 86 281
3 282 86 283
3 284 9 285
3 286 285 86
3 284 285 286
3 287 53 288
3 289 288 9
3 287 288 289
3 290 53 291
3 294 293 53
3 292 293 294
3 87 295 296
3 87 297 299
3 297 4 298
3 297 298 299
3 88 89 1
3 90 89 88
3 90 11 89
3 35 90 10
3 91 90 35
3 91 11 90
3 91 63 11
3 92 63 91
3 92 5 63
3 92 300 302
3 302 301 5
3 300 301 302
3 93 303 305
3 305 304 92
3 303 304 305
3 93 306 307
3 37 93 12
3 94 93 37
3 94 308 310
3 310 309 93
3 308 309 310
3 94 311 312
3 314 313 94
3 95 315 316
3 95 317 319
3 317 14 318
3 317 318 319
3 39 95 13
3 96 95 39
3 96 14 95
3 96 68 14
3 97 68 96
3 97 6 68
3 98 99 3
3 100 99 98
3 100 17 99
3 42 100 16
3 101 100 42
3 101 17 100
3 101 74 17
3 102 74 101
3 102 7 74
3 102 103 7
3 104 103 102
3 104 19 103
3 44 104 18
3 105 104 44
3 105 19 104
3 105 81 19
3 106 81 105
3 106 320 322
3 322 321 81
3 320 321 322
3 107 323 324
3 107 325 326
3 327 20 328
3 108 329 330
3 108 331 333
3 331 20 332
3 331 332 333
3 108 60 20
3 109 60 108
3 109 1 60
3 334 45 335
3 110 336 338
3 336 45 337
3 336 337 338
3 110 21 45
3 47 110 8
3 111 110 47
3 111 21 110
3 111 109 21
3 112 109 111
3 112 1 109
3 112 88 1
3 113 88 112
3 113 10 88
3 49 113 22
3 114 113 49
3 114 10 113
3 114 34 10
3 115 34 114
3 115 0 34
3 115 116 0
3 117 116 115
3 117 24 116
3 51 117 23
3 118 117 51
3 118 24 117
3 118 71 24
3 119 71 118
3 119 3 71
3 85 52 2
3 120 52 85
3 120 25 52
3 54 120 9
3 121 120 54
3 121 25 120
3 121 119 25
3 122 119 121
3 122 3 119
3 122 98 3
3 123 98 122
3 123 16 98
3 56 123 26
3 124 123 56
3 124 16 123
3 124 41 16
3 339 41 340
3 341 340 124
3 339 340 341
3 343 342 41
3 344 106 345
3 346 106 347
3 349 348 106
3 58 350 351
3 353 352 58
3 61 354 356
3 356 355 20
3 354 355 356
3 125 357 359
3 359 358 61
3 357 358 359
3 125 360 361
3 125 362 364
3 362 87 363
3 362 363 364
3 126 87 125
3 126 4 87
3 89 62 1
3 127 62 89
3 127 28 62
3 64 127 11
3 128 127 64
3 128 28 127
3 128 126 28
3 129 126 128
3 129 4 126
3 129 59 4
3 130 59 129
3 130 27 59
3 66 130 29
3 131 130 66
3 131 27 130
3 131 365 367
3 367 366 27
3 365 366 367
3 369 368 131
3 371 370 5
3 373 372 14
3 116 40 0
3 132 40 116
3 132 15 40
3 72 132 24
3 133 132 72
3 133 15 132
3 133 97 15
3 134 97 133
3 134 6 97
3 99 73 3
3 135 73 99
3 135 30 73
3 75 135 17
3 136 135 75
3 136 30 135
3 136 134 30
3 137 134 136
3 137 6 134
3 137 70 6
3 138 70 137
3 138 374 376
3 376 375 70
3 374 375 376
3 77 138 31
3 377 138 378
3 379 378 77
3 377 378 379
3 381 380 138
3 79 382 384
3 384 383 32
3 382 383 384
3 139 385 387
3 387 386 79
3 385 386 387
3 139 388 389
3 139 390 392
3 390 107 391
3 390 391 392
3 140 107 139
3 140 393 395
3 395 394 107
3 393 394 395
3 103 80 7
3 141 80 103
3 141 33 80
3 82 141 19
3 142 141 82
3 142 33 141
3 142 140 33
3 396 140 397
3 398 397 142
3 396 397 398
3 400 399 140
