ply
format ascii 1.0
element vertex 136
property float x
property float y
property float z
element face 117
property list uchar int vertex_index
end_header
-59.345577 -26.194023 47.090256
-62.16164 -25.96104 43.452759
-56.646431 -26.67878 50.999939
-58.920517 -23.142178 49.853752
-61.508709 -22.38356 45.657516
-64.069733 -21.906456 41.618423
-57.977943 -28.095926 47.515961
-59.474934 -27.99015 45.815197
-60.998901 -27.953342 44.181488
-60.748886 -26.040934 45.243912
-57.01709 -22.457115 53.174938
-57.645821 -23.571304 52.017235
-58.322426 -21.929268 50.986599
-60.951199 -20.914495 46.688423
-62.261608 -20.466164 44.586945
-62.803368 -22.094614 43.623505
-63.550209 -20.103298 42.511429
-61.377724 -29.991291 43.427307
-57.974579 -26.407339 49.007931
-57.918434 -24.892246 50.573303
-59.21254 -24.569178 48.498268
-59.635258 -21.411373 48.821781
-60.209946 -22.741606 47.732529
-60.532227 -24.292334 46.483826
-61.865929 -24.076134 44.525833
-63.19059 -23.94376 42.60997
-64.790558 -19.863234 40.452366
-57.16815 -21.694247 52.47751
-56.484909 -22.003226 53.560383
-57.820818 -21.430324 51.383341
-57.669758 -22.193192 52.080768
-57.16815 -21.694247 52.47751
-62.528723 -19.504872 43.928217
-61.852684 -19.773218 44.977673
-63.173023 -19.323439 42.890459
-62.905909 -20.284731 43.549187
-62.528723 -19.504872 43.928217
-60.551434 -29.958519 44.130169
-60.770214 -30.980024 43.835964
-62.336761 -26.978673 43.018753
-61.755392 -27.974825 43.383117
-61.58027 -26.957191 43.817124
-62.854414 -25.966921 42.572022
-62.336761 -26.978673 43.018753
-56.588821 -27.473555 50.150701
-55.895649 -27.59751 51.086937
-57.310505 -26.543059 50.003935
-57.252895 -27.337834 49.154697
-56.588821 -27.473555 50.150701
-59.853933 -20.546205 48.153698
-59.16511 -20.858996 49.222769
-64.270001 -22.913127 41.167171
-63.830429 -23.931779 41.662944
-63.630161 -22.925108 42.114196
-65.071785 -18.848474 39.776797
-64.449688 -18.989091 40.817538
-58.027189 -29.01447 46.898716
-57.224461 -29.053238 47.661323
-58.775684 -28.961582 46.048334
-58.027189 -29.01447 46.898716
-58.726439 -28.043038 46.665579
-59.600038 -28.957949 45.324114
-58.775684 -28.961582 46.048334
-60.236917 -27.971746 44.998342
-60.362022 -28.939545 44.50726
-59.600038 -28.957949 45.324114
-56.004345 -26.848962 52.027817
-55.895649 -27.59751 51.086937
-55.253563 -27.767691 52.114815
-56.369692 -22.730199 54.273384
-55.837511 -22.27631 54.658828
-56.484909 -22.003226 53.560383
-56.701844 -23.244508 53.692335
-56.369692 -22.730199 54.273384
-57.331456 -23.014209 52.596086
-57.016209 -23.801602 53.113484
-56.701844 -23.244508 53.692335
-61.19748 -19.997384 46.028412
-60.511904 -20.297765 47.087019
-61.606403 -20.690329 45.637684
-61.19748 -19.997384 46.028412
-61.852684 -19.773218 44.977673
-61.647557 -31.055532 43.237167
-60.770214 -30.980024 43.835964
-62.178734 -30.065069 42.72451
-61.647557 -31.055532 43.237167
-61.188312 -28.972316 43.804398
-60.551434 -29.958519 44.130169
-60.362022 -28.939545 44.50726
-61.944803 -28.993799 43.006027
-61.188312 -28.972316 43.804398
-61.755392 -27.974825 43.383117
-62.178734 -30.065069 42.72451
-61.944803 -28.993799 43.006027
-57.254577 -28.182128 48.408713
-57.224461 -29.053238 47.661323
-57.976261 -27.251632 48.261946
-57.254577 -28.182128 48.408713
-57.252895 -27.337834 49.154697
-56.649624 -25.96986 51.850666
-56.004345 -26.848962 52.027817
-57.149319 -24.416123 52.359314
-57.016209 -23.801602 53.113484
-57.285625 -25.076594 51.637348
-57.149319 -24.416123 52.359314
-57.782128 -24.231775 51.295269
-57.282432 -25.785513 50.786621
-56.649624 -25.96986 51.850666
-57.285625 -25.076594 51.637348
-58.508694 -21.117944 50.305177
-57.820818 -21.430324 51.383341
-58.978842 -21.670321 49.90419
-58.508694 -21.117944 50.305177
-59.16511 -20.858996 49.222769
-60.293228 -21.162934 47.755102
-59.853933 -20.546205 48.153698
-60.511904 -20.297765 47.087019
-63.368889 -24.958281 42.150627
-62.854414 -25.966921 42.572022
-62.676115 -24.9524 43.031364
-63.368889 -24.958281 42.150627
-63.830429 -23.931779 41.662944
-63.829514 -19.109123 41.847069
-63.173023 -19.323439 42.890459
-64.170383 -19.983266 41.481898
-63.829514 -19.109123 41.847069
-64.449688 -18.989091 40.817538
-65.367722 -19.819161 39.426512
-65.071785 -18.848474 39.776797
-65.031048 -20.855329 40.039961
-65.367722 -19.819161 39.426512
-64.670636 -21.87694 40.62299
-64.430146 -20.884845 41.035394
-65.031048 -20.855329 40.039961
-64.270001 -22.913127 41.167171
-64.670636 -21.87694 40.62299
3 0 7 6
3 0 9 7
3 27 10 28
3 29 12 30
3 31 30 10
3 29 30 31
3 32 14 33
3 34 16 35
3 36 35 14
3 34 35 36
3 37 17 38
3 1 39 41
3 41 40 8
3 39 40 41
3 1 42 43
3 2 44 45
3 2 46 48
3 46 18 47
3 46 47 48
3 3 19 11
3 3 20 19
3 49 21 50
3 4 22 13
3 4 23 22
3 4 24 23
3 5 25 15
3 5 51 53
3 53 52 25
3 51 52 53
3 54 26 55
3 6 56 57
3 7 58 60
3 60 59 6
3 58 59 60
3 7 61 62
3 7 63 65
3 63 8 64
3 63 64 65
3 9 8 7
3 9 1 8
3 66 2 67
3 66 67 68
3 10 69 71
3 69 70 71
3 10 72 73
3 10 74 76
3 74 11 75
3 74 75 76
3 12 11 10
3 12 3 11
3 77 13 78
3 14 79 81
3 79 13 80
3 79 80 81
3 14 4 13
3 14 15 4
3 16 15 14
3 16 5 15
3 17 82 83
3 17 84 85
3 8 86 88
3 86 17 87
3 86 87 88
3 89 17 90
3 91 90 8
3 89 90 91
3 93 92 17
3 94 6 95
3 18 96 98
3 96 6 97
3 96 97 98
3 18 0 6
3 99 2 100
3 11 101 102
3 19 103 105
3 105 104 11
3 103 104 105
3 19 106 108
3 106 2 107
3 106 107 108
3 19 18 2
3 20 18 19
3 20 0 18
3 109 12 110
3 21 111 113
3 111 12 112
3 111 112 113
3 21 3 12
3 13 114 116
3 114 21 115
3 114 115 116
3 22 21 13
3 22 3 21
3 22 20 3
3 23 20 22
3 23 0 20
3 23 9 0
3 24 9 23
3 24 1 9
3 15 24 4
3 25 24 15
3 25 1 24
3 25 117 119
3 119 118 1
3 117 118 119
3 121 120 25
3 122 16 123
3 26 124 126
3 124 16 125
3 124 125 126
3 26 5 16
3 127 26 128
3 129 26 130
3 131 5 132
3 133 132 26
3 131 132 133
3 135 134 5
