ply
format ascii 1.0
element vertex 164
property float x
property float y
property float z
element face 153
property list uchar int vertex_index
end_header
-30.56118 -4.485447 -52.852089
-36.408699 2.808485 -58.03315
-29.00728 5.151871 -54.442215
-33.280495 -0.40587 -55.987587
-38.106251 -3.073919 -56.034035
-34.920937 -5.985421 -53.348373
-40.011566 5.279408 -58.344131
-32.004208 4.910036 -57.04557
-29.481354 0.562963 -54.424255
-41.581894 -0.992674 -57.476151
-31.869759 -2.335974 -54.512161
-34.078682 -3.166008 -54.838364
-32.625404 -5.035498 -53.280609
-31.26162 -7.135673 -51.598984
-30.130421 7.511963 -55.559685
-31.627207 7.397511 -56.8993
-30.293165 5.256231 -55.944351
-30.664465 2.832541 -55.885643
-29.1544 2.930588 -54.643547
-38.146286 4.127056 -58.433998
-40.746681 2.154549 -58.157936
-38.938175 1.09948 -57.938133
-38.977722 -6.065244 -54.415077
-40.679691 -5.011683 -55.529137
-29.065975 7.180407 -53.811241
-34.790745 1.304403 -57.191589
-37.229439 -0.118898 -57.259468
-35.612473 -1.531775 -56.195503
-36.479225 -4.410864 -54.798485
-37.499931 7.100597 -58.438705
-35.708679 5.689381 -58.327568
-33.50996 6.790363 -57.820381
-34.07016 4.090132 -57.740128
-32.572506 2.29347 -56.736076
-31.203547 0.291258 -55.397339
-29.959309 -1.916124 -53.812462
-28.109594 2.631313 -53.024437
-28.205223 0.437967 -53.079124
-28.45656 -1.885111 -52.745232
-39.80558 -1.947161 -56.957359
-42.443657 -4.146174 -56.313293
-40.236221 -7.091201 -54.070228
-39.381433 -7.592029 -53.452827
-29.205308 8.072979 -53.286774
-29.637661 8.357731 -54.274059
-36.129459 -6.665515 -53.210869
-36.908603 -5.878236 -53.935924
-35.700081 -5.198142 -54.073429
-35.341635 -7.430493 -52.472641
-36.129459 -6.665515 -53.210869
-36.347279 7.785903 -58.290176
-37.282604 8.523905 -58.20383
-35.451652 7.080296 -58.234607
-36.604305 6.394989 -58.383136
-36.347279 7.785903 -58.290176
-27.771434 1.304421 -52.203796
-27.830205 2.324621 -52.040115
-27.819249 0.207749 -52.23114
-28.157409 1.53464 -53.05178
-27.771434 1.304421 -52.203796
-28.030967 -3.185822 -51.832287
-27.953748 -2.041174 -52.036183
-28.653121 -3.099889 -52.403199
-28.030967 -3.185822 -51.832287
-41.334328 4.17609 -58.11148
-41.007462 5.778097 -58.04758
-42.509203 -0.582187 -57.499234
-42.091597 0.991424 -57.840126
-41.164288 0.580937 -57.817043
-42.924539 -2.207743 -57.076138
-42.509203 -0.582187 -57.499234
-42.851708 -5.733153 -55.516022
-41.561674 -4.578928 -55.921215
-41.969724 -6.165907 -55.123943
-43.758219 -5.413466 -55.839111
-42.851708 -5.733153 -55.516022
-33.029939 -6.421328 -52.524521
-34.177706 -6.896289 -52.558403
-33.773171 -5.510459 -53.314491
-32.348047 -7.471415 -51.683709
-33.029939 -6.421328 -52.524521
-31.943512 -6.085585 -52.439796
-31.647786 -8.500294 -50.858188
-32.348047 -7.471415 -51.683709
-30.878814 7.454737 -56.229492
-31.558222 8.541951 -56.599495
-30.809829 8.599177 -55.929688
-41.087205 -6.564421 -54.627258
-39.828706 -5.538463 -54.972107
-40.236221 -7.091201 -54.070228
-41.969724 -6.165907 -55.123943
-41.087205 -6.564421 -54.627258
-30.169884 8.523509 -55.148281
-30.809829 8.599177 -55.929688
-29.598198 7.346185 -54.685463
-30.169884 8.523509 -55.148281
-29.637661 8.357731 -54.274059
-38.157852 -6.705426 -53.74422
-37.728473 -5.238054 -54.606781
-36.908603 -5.878236 -53.935924
-39.381433 -7.592029 -53.452827
-38.157852 -6.705426 -53.74422
-35.341635 -7.430493 -52.472641
-34.177706 -6.896289 -52.558403
-39.729565 6.803681 -58.195705
-41.007462 5.778097 -58.04758
-38.473747 7.714276 -58.242992
-37.282604 8.523905 -58.20383
-38.755748 6.190003 -58.391418
-39.729565 6.803681 -58.195705
-38.473747 7.714276 -58.242992
-32.397759 8.368787 -57.166466
-31.558222 8.541951 -56.599495
-33.339136 8.065213 -57.627007
-32.397759 8.368787 -57.166466
-32.568584 7.093937 -57.35984
-34.352293 7.630786 -57.981014
-33.339136 8.065213 -57.627007
-34.609319 6.239872 -58.073974
-35.451652 7.080296 -58.234607
-34.352293 7.630786 -57.981014
-28.750315 6.840018 -52.746952
-29.205308 8.072979 -53.286774
-28.624669 5.921965 -53.185269
-28.750315 6.840018 -52.746952
-28.595322 4.907697 -53.500755
-29.036628 6.166139 -54.126728
-28.624669 5.921965 -53.185269
-28.146479 3.647418 -52.791866
-27.830205 2.324621 -52.040115
-28.558437 3.891592 -53.733326
-28.595322 4.907697 -53.500755
-28.146479 3.647418 -52.791866
-27.82808 -0.879635 -52.203129
-27.819249 0.207749 -52.23114
-28.330891 -0.723572 -52.912178
-27.82808 -0.879635 -52.203129
-27.953748 -2.041174 -52.036183
-29.404496 -3.115395 -52.936813
-29.207935 -1.900618 -53.278847
-28.653121 -3.099889 -52.403199
-29.705431 -4.400057 -52.456627
-30.260244 -3.200785 -53.332275
-29.404496 -3.115395 -52.936813
-29.96657 -5.660906 -51.964054
-29.705431 -4.400057 -52.456627
-30.31679 -6.986019 -51.337502
-30.9114 -5.81056 -52.225537
-29.96657 -5.660906 -51.964054
-30.635737 -8.289198 -50.721691
-30.31679 -6.986019 -51.337502
-31.021902 -9.65382 -49.980896
-31.647786 -8.500294 -50.858188
-30.635737 -8.289198 -50.721691
-41.701885 2.613661 -58.018383
-41.334328 4.17609 -58.11148
-40.379124 3.716978 -58.251033
-41.701885 2.613661 -58.018383
-42.091597 0.991424 -57.840126
-43.355421 -3.784493 -56.494709
-42.924539 -2.207743 -57.076138
-42.012776 -2.569424 -56.894722
-43.355421 -3.784493 -56.494709
-43.758219 -5.413466 -55.839111
3 0 12 10
3 0 13 12
3 2 16 14
3 2 18 16
3 1 21 19
3 42 41 22
3 43 24 44
3 3 27 25
3 5 28 11
3 5 45 47
3 47 46 28
3 45 46 47
3 5 48 49
3 50 29 51
3 52 30 53
3 54 53 29
3 52 53 54
3 7 31 15
3 7 32 31
3 7 33 32
3 8 34 17
3 8 35 34
3 55 36 56
3 57 37 58
3 59 58 36
3 57 58 59
3 60 38 61
3 63 62 38
3 6 64 65
3 9 66 68
3 68 67 20
3 66 67 68
3 9 69 70
3 4 39 26
3 71 40 72
3 73 72 23
3 71 72 73
3 75 74 40
3 10 11 3
3 12 11 10
3 12 5 11
3 12 76 78
3 78 77 5
3 76 77 78
3 13 79 81
3 81 80 12
3 79 80 81
3 13 82 83
3 14 84 86
3 84 15 85
3 84 85 86
3 16 15 14
3 16 7 15
3 16 17 7
3 18 17 16
3 18 8 17
3 19 20 6
3 21 20 19
3 21 9 20
3 22 23 4
3 87 23 88
3 89 88 22
3 87 88 89
3 91 90 23
3 92 14 93
3 24 94 96
3 94 14 95
3 94 95 96
3 24 2 14
3 25 26 1
3 27 26 25
3 27 4 26
3 11 27 3
3 28 27 11
3 28 4 27
3 28 22 4
3 97 22 98
3 99 98 28
3 97 98 99
3 101 100 22
3 103 102 5
3 104 6 105
3 29 106 107
3 29 108 110
3 108 6 109
3 108 109 110
3 29 19 6
3 30 19 29
3 30 1 19
3 15 111 112
3 31 113 115
3 115 114 15
3 113 114 115
3 31 116 117
3 31 118 120
3 118 30 119
3 118 119 120
3 32 30 31
3 32 1 30
3 32 25 1
3 33 25 32
3 33 3 25
3 17 33 7
3 34 33 17
3 34 3 33
3 34 10 3
3 35 10 34
3 35 0 10
3 121 24 122
3 123 24 124
3 125 2 126
3 127 126 24
3 125 126 127
3 36 128 129
3 36 130 132
3 130 2 131
3 130 131 132
3 36 18 2
3 37 18 36
3 37 8 18
3 133 37 134
3 38 135 137
3 135 37 136
3 135 136 137
3 38 8 37
3 38 35 8
3 138 35 139
3 140 139 38
3 138 139 140
3 141 0 142
3 143 142 35
3 141 142 143
3 144 0 145
3 146 13 147
3 148 147 0
3 146 147 148
3 149 13 150
3 153 152 13
3 151 152 153
3 20 154 156
3 156 155 6
3 154 155 156
3 158 157 20
3 26 21 1
3 39 21 26
3 39 9 21
3 23 39 4
3 40 39 23
3 40 9 39
3 40 159 161
3 161 160 9
3 159 160 161
3 163 162 40
