ply
format ascii 1.0
element vertex 153
property float x
property float y
property float z
element face 140
property list uchar int vertex_index
end_header
33.691959 56.614212 -23.119101
27.788845 59.200493 -24.671629
29.471317 52.253166 -25.369967
30.408924 45.937431 -25.962446
34.286232 50.189392 -23.648008
32.148571 63.563736 -22.366899
37.972618 60.311935 -21.071066
42.227085 56.903214 -19.389647
38.362106 53.909767 -21.546289
30.838873 57.930626 -23.841757
28.713238 55.654694 -25.007967
31.546576 54.500702 -24.200903
32.038609 51.231316 -24.531763
34.119934 53.318192 -23.42993
31.09568 67.060486 -21.939631
37.319633 63.63855 -20.617296
39.974327 61.795662 -19.966043
41.834946 54.010468 -19.344133
40.34824 55.519539 -20.505377
39.984276 52.564911 -20.45669
38.063454 50.928001 -21.527998
26.691277 53.248535 -26.267241
30.038334 49.018036 -25.709204
32.300312 48.12838 -24.779345
29.945631 61.47847 -23.489244
33.023781 60.050667 -22.75773
34.329384 65.401077 -21.241358
35.208023 61.971947 -21.707701
35.855263 58.566238 -22.095934
42.207336 59.906502 -19.173231
40.341255 58.611259 -20.337831
38.330296 57.0467 -21.386751
36.235802 55.266792 -22.395426
36.323334 52.121704 -22.57757
36.119698 49.137619 -22.608183
30.489859 68.745807 -21.691742
29.401703 67.832375 -22.361182
40.884567 62.379452 -19.334396
39.628992 63.393906 -19.684719
41.445015 52.627316 -19.194212
42.296822 53.271218 -18.588881
40.51968 51.904538 -19.75049
40.909611 53.287689 -19.900411
41.445015 52.627316 -19.194212
39.632915 51.156315 -20.32407
40.51968 51.904538 -19.75049
26.759318 57.985768 -25.307968
26.216793 59.806809 -25.174885
28.488597 51.067524 -25.993603
27.098577 51.565208 -26.44224
28.081297 52.75085 -25.818604
29.754825 50.635601 -25.539586
28.772106 49.449959 -26.163221
28.488597 51.067524 -25.993603
34.243368 48.701988 -23.687908
33.250408 47.671482 -24.253577
33.293272 49.158886 -24.213676
31.047101 62.521103 -22.928072
29.420676 63.273846 -23.317659
30.522146 64.316479 -22.756487
29.529615 44.771398 -26.561241
29.282967 46.30661 -26.449337
35.369644 66.165428 -20.636555
33.789744 67.074318 -20.963915
34.830004 67.838669 -20.359112
43.088762 57.456643 -18.761345
43.761704 56.613484 -18.13262
42.900027 56.060055 -18.760922
42.217211 58.404858 -19.281439
43.078888 58.958286 -18.653137
43.088762 57.456643 -18.761345
36.796762 48.610676 -21.964602
37.091576 50.03281 -22.068091
37.768641 49.505867 -21.424509
35.895952 47.708458 -22.537667
36.796762 48.610676 -21.964602
29.995701 66.064853 -22.542852
29.401703 67.832375 -22.361182
31.622125 65.312111 -22.153265
30.522146 64.316479 -22.756487
29.995701 66.064853 -22.542852
31.482074 44.065794 -25.485306
30.511027 44.453561 -26.020691
31.37997 45.549663 -25.427061
38.301645 64.315349 -20.010345
36.864768 65.284165 -20.324524
38.64698 62.717106 -20.291669
38.301645 64.315349 -20.010345
39.628992 63.393906 -19.684719
42.703957 54.613682 -18.738164
42.296822 53.271218 -18.588881
42.031016 55.456841 -19.36689
42.900027 56.060055 -18.760922
42.703957 54.613682 -18.738164
38.672505 50.33786 -20.859724
39.023865 51.746456 -20.992344
39.632915 51.156315 -20.32407
37.768641 49.505867 -21.424509
38.672505 50.33786 -20.859724
27.221514 56.212868 -25.476137
26.759318 57.985768 -25.307968
28.251041 57.427594 -24.839798
26.210534 55.009788 -26.105774
27.221514 56.212868 -25.476137
27.702258 54.451614 -25.637604
25.247056 53.731945 -26.782017
26.210534 55.009788 -26.105774
25.747568 51.985683 -26.928825
25.247056 53.731945 -26.782017
25.747568 51.985683 -26.928825
27.098577 51.565208 -26.44224
29.097673 47.846913 -26.322716
28.772106 49.449959 -26.163221
30.223629 47.477733 -25.835825
29.282967 46.30661 -26.449337
29.097673 47.846913 -26.322716
32.325665 46.645138 -24.83551
31.37997 45.549663 -25.427061
31.354618 47.032905 -25.370895
32.325665 46.645138 -24.83551
33.250408 47.671482 -24.253577
27.257157 61.017929 -24.524324
26.216793 59.806809 -25.174885
28.335551 62.156918 -23.933132
27.810596 63.952293 -23.761547
29.420676 63.273846 -23.317659
28.867238 60.339482 -24.080436
27.257157 61.017929 -24.524324
28.335551 62.156918 -23.933132
29.631719 43.287529 -26.619486
29.529615 44.771398 -26.561241
30.511027 44.453561 -26.020691
32.172892 67.904022 -21.313052
30.489859 68.745807 -21.691742
32.712532 66.230782 -21.590494
32.172892 67.904022 -21.313052
33.789744 67.074318 -20.963915
35.824509 64.519813 -20.929327
35.369644 66.165428 -20.636555
36.864768 65.284165 -20.324524
43.042217 60.395367 -18.499684
43.078888 58.958286 -18.653137
42.001071 61.434872 -18.93799
42.835952 61.923737 -18.264443
43.042217 60.395367 -18.499684
41.090832 60.851082 -19.569637
40.884567 62.379452 -19.334396
42.001071 61.434872 -18.93799
35.160101 48.176102 -23.167995
34.243368 48.701988 -23.687908
35.202965 49.663505 -23.128096
35.160101 48.176102 -23.167995
35.895952 47.708458 -22.537667
3 0 11 9
3 0 13 11
3 35 14 36
3 37 16 38
3 39 17 40
3 41 19 42
3 43 42 17
3 41 42 43
3 45 44 19
3 1 46 47
3 2 21 10
3 2 48 50
3 50 49 21
3 48 49 50
3 2 51 53
3 51 22 52
3 51 52 53
3 4 23 12
3 4 54 56
3 56 55 23
3 54 55 56
3 5 57 59
3 57 24 58
3 57 58 59
3 5 25 24
3 3 60 61
3 62 26 63
3 62 63 64
3 6 27 15
3 6 28 27
3 7 65 67
3 65 66 67
3 7 68 70
3 68 29 69
3 68 69 70
3 7 30 29
3 8 31 18
3 8 32 31
3 8 33 32
3 71 34 72
3 73 72 20
3 71 72 73
3 75 74 34
3 9 10 1
3 11 10 9
3 11 2 10
3 11 12 2
3 13 12 11
3 13 4 12
3 14 76 77
3 14 78 80
3 78 5 79
3 78 79 80
3 83 82 3
3 81 82 83
3 84 15 85
3 16 86 88
3 86 15 87
3 86 87 88
3 16 6 15
3 17 89 90
3 17 91 93
3 91 7 92
3 91 92 93
3 17 18 7
3 19 18 17
3 19 8 18
3 19 20 8
3 94 20 95
3 96 95 19
3 94 95 96
3 98 97 20
3 10 99 101
3 101 100 1
3 99 100 101
3 21 102 104
3 104 103 10
3 102 103 104
3 21 105 106
3 21 107 108
3 110 109 21
3 22 111 112
3 22 113 115
3 113 3 114
3 113 114 115
3 12 22 2
3 23 22 12
3 23 3 22
3 23 116 118
3 118 117 3
3 116 117 118
3 120 119 23
3 121 1 122
3 24 123 125
3 123 124 125
3 24 126 128
3 126 1 127
3 126 127 128
3 24 9 1
3 25 9 24
3 25 0 9
3 131 130 3
3 129 130 131
3 132 14 133
3 26 134 136
3 134 14 135
3 134 135 136
3 26 5 14
3 15 137 139
3 137 26 138
3 137 138 139
3 27 26 15
3 27 5 26
3 27 25 5
3 28 25 27
3 28 0 25
3 29 140 141
3 29 142 144
3 142 143 144
3 29 145 147
3 145 16 146
3 145 146 147
3 30 16 29
3 30 6 16
3 18 30 7
3 31 30 18
3 31 6 30
3 31 28 6
3 32 28 31
3 32 0 28
3 32 13 0
3 33 13 32
3 33 4 13
3 20 33 8
3 34 33 20
3 34 4 33
3 34 148 150
3 150 149 4
3 148 149 150
3 152 151 34
