ply
format ascii 1.0
element vertex 113
property float x
property float y
property float z
element face 95
property list uchar int vertex_index
end_header
-38.094154 68.501068 9.777433
-36.492947 67.990753 14.899585
-36.075008 72.364182 3.833848
-41.183334 63.834835 10.336519
-39.863743 68.061081 4.446878
-37.302677 68.365417 12.377981
-39.012711 66.329117 12.714499
-39.727898 66.290405 10.079214
-40.534515 66.022018 7.404638
-38.931141 68.398926 7.122625
-37.13203 72.119888 1.199094
-34.436531 69.632919 14.48234
-35.353897 70.153748 11.993704
-36.233433 70.449692 9.429624
-37.127079 70.514999 6.807064
-42.003021 63.422787 7.668139
-41.478409 65.533157 4.730352
-40.916641 67.488083 1.789378
-38.080952 70.344955 4.152116
-39.125095 69.931793 1.497
-33.312285 70.378898 14.283365
-33.935831 69.267212 15.686501
-34.743189 71.159477 10.525163
-34.26701 70.949624 11.797322
-35.182957 71.307449 9.243123
-35.793665 70.30172 10.711664
-34.743189 71.159477 10.525163
-35.659042 71.412102 7.945474
-35.182957 71.307449 9.243123
-37.029016 66.839119 16.325578
-36.583347 66.535553 17.54061
-36.047277 67.687187 16.114616
-41.511381 62.681549 11.771511
-40.845314 63.936887 11.66257
-41.856943 62.510128 10.451542
-41.511381 62.681549 11.771511
-41.593177 63.628811 9.002329
-42.266786 62.304104 9.117352
-41.856943 62.510128 10.451542
-38.696508 70.776794 0.041779
-38.128563 71.025841 1.348047
-37.699976 71.870842 -0.107174
-39.695625 69.598808 0.187888
-38.696508 70.776794 0.041779
-37.810442 67.247291 13.828383
-37.405577 67.059959 15.089185
-36.897812 68.178085 13.638783
-38.665459 66.229141 13.996642
-37.810442 67.247291 13.828383
-38.157694 67.347267 12.54624
-39.459668 65.174187 14.150859
-38.665459 66.229141 13.996642
-39.760002 65.184028 12.85156
-39.459668 65.174187 14.150859
-40.117596 65.164672 11.533917
-39.760002 65.184028 12.85156
-39.370305 66.309761 11.396857
-40.455616 65.06262 10.207866
-40.845314 63.936887 11.66257
-40.117596 65.164672 11.533917
-36.015338 73.086265 1.042941
-36.603519 72.242035 2.516471
-35.486827 73.208413 2.360318
-36.586042 72.921013 -0.253983
-36.015338 73.086265 1.042941
-35.46935 73.88739 -0.410135
-37.699976 71.870842 -0.107174
-36.586042 72.921013 -0.253983
-35.01907 68.50827 15.905994
-34.518369 68.142563 17.110154
-33.935831 69.267212 15.686501
-35.464739 68.811836 14.690963
-36.047277 67.687187 16.114616
-35.01907 68.50827 15.905994
-33.808326 70.689209 13.04164
-33.312285 70.378898 14.283365
-32.68408 71.435188 12.842666
-34.895214 69.893333 13.238022
-33.808326 70.689209 13.04164
-34.26701 70.949624 11.797322
-36.105866 71.444755 6.634194
-36.680256 70.482346 8.118344
-35.659042 71.412102 7.945474
-35.57983 72.369347 5.147586
-36.601044 71.439591 5.320456
-36.105866 71.444755 6.634194
-34.949789 73.255348 3.667204
-35.57983 72.369347 5.147586
-35.486827 73.208413 2.360318
-34.949789 73.255348 3.667204
-37.029016 66.839119 16.325578
-37.405577 67.059959 15.089185
-42.70718 62.044182 7.802958
-42.266786 62.304104 9.117352
-42.499555 63.120109 6.347955
-43.203715 61.741504 6.482774
-42.70718 62.044182 7.802958
-42.23725 64.175295 4.879062
-42.499555 63.120109 6.347955
-41.740715 64.477972 6.199245
-42.023321 65.182488 3.415878
-42.23725 64.175295 4.879062
-41.742437 66.159951 1.945391
-42.023321 65.182488 3.415878
-41.197525 66.51062 3.259865
-41.499061 67.084381 0.491757
-42.324858 65.756248 0.647771
-41.742437 66.159951 1.945391
-40.591398 68.376953 0.334076
-40.020868 68.709938 1.643189
-39.695625 69.598808 0.187888
-41.499061 67.084381 0.491757
-40.591398 68.376953 0.334076
3 0 6 5
3 0 7 6
3 0 9 7
3 20 11 21
3 22 12 23
3 24 13 25
3 26 25 12
3 24 25 26
3 28 27 13
3 1 29 31
3 29 30 31
3 3 32 33
3 3 34 35
3 3 36 38
3 36 15 37
3 36 37 38
3 4 16 8
3 4 17 16
3 2 18 14
3 39 19 40
3 41 40 10
3 39 40 41
3 43 42 19
3 5 44 46
3 46 45 1
3 44 45 46
3 6 47 49
3 49 48 5
3 47 48 49
3 6 50 51
3 6 52 53
3 7 54 56
3 56 55 6
3 54 55 56
3 7 57 59
3 57 3 58
3 57 58 59
3 7 8 3
3 9 8 7
3 9 4 8
3 60 10 61
3 62 61 2
3 60 61 62
3 63 10 64
3 63 64 65
3 67 66 10
3 11 68 70
3 68 69 70
3 11 71 73
3 71 1 72
3 71 72 73
3 74 11 75
3 74 75 76
3 12 77 79
3 77 11 78
3 77 78 79
3 12 1 11
3 12 5 1
3 13 5 12
3 13 0 5
3 13 14 0
3 80 14 81
3 82 81 13
3 80 81 82
3 83 2 84
3 85 84 14
3 83 84 85
3 86 2 87
3 89 88 2
3 91 90 1
3 15 92 93
3 15 94 96
3 94 95 96
3 8 15 3
3 16 15 8
3 16 97 99
3 99 98 15
3 97 98 99
3 16 100 101
3 17 102 104
3 104 103 16
3 102 103 104
3 17 105 107
3 105 106 107
3 14 9 0
3 18 9 14
3 18 4 9
3 10 18 2
3 19 18 10
3 19 4 18
3 19 17 4
3 108 17 109
3 110 109 19
3 108 109 110
3 112 111 17
