ply
format ascii 1.0
element vertex 266
property float x
property float y
property float z
element face 251
property list uchar int vertex_index
end_header
-2.725733 -58.574894 3.758702
-8.017303 -70.113129 4.636198
-7.204556 -55.622253 -2.746944
0.476433 -61.371796 11.594064
-10.239424 -75.039536 5.499653
-4.916077 -57.096714 0.354098
3.171631 -56.794361 16.305086
-1.931242 -66.817047 11.53966
-5.352266 -64.487366 4.040823
-7.077211 -63.194149 0.656917
-9.504717 -69.308578 1.373949
-9.547672 -54.106873 -5.662798
-8.438137 -61.728798 -2.493168
-0.862133 -60.026714 7.517542
-3.516859 -65.675293 7.662637
-6.169491 -70.868896 8.05946
-11.030132 -77.063034 5.979619
-2.804085 -54.867855 1.987303
-3.79657 -57.835354 2.013212
-6.711256 -67.359131 4.299847
-7.567223 -66.839043 2.609109
-8.842218 -69.73381 2.987334
-8.362408 -54.874657 -4.219353
-8.875345 -65.649101 -0.630276
-7.80743 -62.486889 -0.946453
-9.29026 -64.949226 -2.175304
2.00246 -59.142323 13.872629
3.058254 -56.22044 14.038893
1.640368 -58.511406 11.691381
1.109482 -57.828251 9.566748
-0.121536 -60.717319 9.521282
-2.177269 -62.89238 7.560797
-1.386892 -63.531651 9.516066
-3.977255 -68.843826 9.68573
-7.432306 -73.227585 8.329041
-9.212864 -72.694366 5.041702
-10.003799 -72.481842 3.448187
-4.117855 -54.1549 0.343363
-6.056721 -56.360298 -1.227999
2.223469 -59.71925 16.085974
0.935099 -61.9869 13.721338
-0.710564 -64.146988 11.53642
-0.161079 -64.741196 13.614451
-4.001715 -61.545902 3.861216
-4.967661 -60.842754 2.121093
-6.25021 -63.85812 2.319322
-8.299751 -66.27475 0.965056
-9.958176 -68.808228 -0.200268
-5.922642 -60.120296 0.454003
-6.842569 -59.376099 -1.143776
-7.720751 -58.605671 -2.679832
-8.992508 -60.914261 -3.989407
-8.570892 -57.803337 -4.165442
-9.424667 -56.963039 -5.614506
-10.329185 -77.153549 7.335767
-0.513987 -56.356312 5.571238
4.125084 -53.794914 16.510841
0.391745 -57.103966 7.520981
-1.737247 -59.308796 5.594224
-3.059376 -62.229729 5.674938
-4.425089 -65.090454 5.821389
-5.786175 -67.854553 6.038215
-2.673273 -66.248787 9.567846
-4.855007 -68.344368 7.830195
-7.100527 -70.480774 6.323037
-8.326427 -72.927032 6.66153
-9.417482 -75.156067 7.020934
-11.57734 -78.059624 5.630881
-11.259208 -77.814903 6.194557
-3.261151 -58.205124 2.885957
-2.693303 -56.720286 2.869992
-2.157884 -57.090056 3.742737
-7.062137 -54.212688 -2.737099
-6.350856 -54.545443 -1.984196
-7.783482 -55.248455 -3.483148
-7.641063 -53.83889 -3.473303
-7.062137 -54.212688 -2.737099
-9.741159 -66.580558 -1.952811
-9.082802 -65.299163 -1.40279
-9.533701 -66.930496 -1.180297
-10.612181 -75.026112 4.742071
-10.098901 -73.853527 4.513095
-9.726144 -73.866951 5.270677
1.743756 -61.142817 15.985847
2.277188 -59.984497 17.196396
1.099571 -62.276641 14.803529
1.579284 -60.853075 14.903656
1.743756 -61.142817 15.985847
0.551482 -63.65379 14.750086
0.38701 -63.364048 13.667894
1.099571 -62.276641 14.803529
-10.307227 -72.357437 2.662504
-10.773986 -73.72908 2.958183
-9.712402 -52.793395 -5.653571
-8.962895 -53.126358 -4.928876
-10.166463 -53.706762 -6.378583
-9.712402 -52.793395 -5.653571
-9.254587 -60.477145 -4.717291
-9.388797 -62.108387 -4.558169
-9.043779 -58.921683 -4.805308
-8.7817 -59.358799 -4.077424
-9.254587 -60.477145 -4.717291
-9.470667 -58.501534 -5.529841
-8.99778 -57.383188 -4.889974
-9.043779 -58.921683 -4.805308
0.511282 -55.248778 6.565076
0.02018 -54.873946 5.583508
3.648358 -55.294638 16.407964
4.064251 -54.041452 17.668491
3.587524 -55.541176 17.565613
3.576588 -54.721987 14.116454
2.916174 -55.89972 12.921833
-9.011323 -75.290024 7.808183
-8.424894 -74.191826 7.674988
-8.018736 -74.325783 8.462236
-9.467175 -76.288765 7.965599
-9.873334 -76.154808 7.17835
-9.011323 -75.290024 7.808183
-11.374131 -77.152279 5.285437
-10.978777 -76.14053 5.045454
-10.634778 -76.051285 5.739636
-11.374131 -77.152279 5.285437
-11.57734 -78.059624 5.630881
-2.197061 -55.236536 2.857038
-1.726479 -53.762609 2.870131
-3.300327 -56.351605 2.000258
-2.197061 -55.236536 2.857038
-2.693303 -56.720286 2.869992
-8.370262 -53.51025 -4.207154
-7.641063 -53.83889 -3.473303
-8.95504 -54.490765 -4.941076
-8.962895 -53.126358 -4.928876
-8.370262 -53.51025 -4.207154
2.207231 -57.045203 11.748077
2.916174 -55.89972 12.921833
2.349311 -57.365923 12.865137
1.374925 -58.169829 10.629065
1.941788 -56.703625 10.685761
2.207231 -57.045203 11.748077
-3.588644 -69.10318 10.649859
-2.954248 -67.830437 10.612695
-2.565637 -68.08979 11.576824
-4.634742 -70.071007 9.774719
-3.588644 -69.10318 10.649859
-5.73086 -71.083541 8.961584
-5.073373 -69.856361 8.872595
-4.634742 -70.071007 9.774719
-6.362267 -72.262886 9.096374
-6.800898 -72.048241 8.19425
-5.73086 -71.083541 8.961584
-7.013936 -73.419365 9.202651
-6.362267 -72.262886 9.096374
-8.018736 -74.325783 8.462236
-7.013936 -73.419365 9.202651
-10.494369 -73.747265 3.716337
-9.608332 -72.588104 4.244944
-10.098901 -73.853527 4.513095
-10.773986 -73.72908 2.958183
-10.494369 -73.747265 3.716337
-10.612181 -75.026112 4.742071
-10.978777 -76.14053 5.045454
-2.418849 -53.41403 2.005745
-1.726479 -53.762609 2.870131
-3.075734 -53.057552 1.183775
-2.418849 -53.41403 2.005745
-3.46097 -54.511377 1.165333
-3.835877 -52.733378 0.367843
-3.075734 -53.057552 1.183775
-4.807505 -53.811766 -0.439043
-3.835877 -52.733378 0.367843
-5.776938 -54.914465 -1.224724
-4.807505 -53.811766 -0.439043
-5.087288 -55.257599 -0.442318
-6.630638 -55.991276 -1.987472
-6.350856 -54.545443 -1.984196
-5.776938 -54.914465 -1.224724
3.166918 -57.049008 17.438516
3.587524 -55.541176 17.565613
2.692837 -58.511452 17.328959
2.277188 -59.984497 17.196396
2.69755 -58.256805 16.19553
3.166918 -57.049008 17.438516
2.692837 -58.511452 17.328959
0.047421 -65.031193 14.676191
0.551482 -63.65379 14.750086
-0.738629 -66.063748 13.595367
0.047421 -65.031193 14.676191
-1.623711 -67.101673 12.557971
-1.046161 -65.779122 12.577056
-0.738629 -66.063748 13.595367
-2.565637 -68.08979 11.576824
-1.623711 -67.101673 12.557971
-10.075117 -68.510059 -0.965293
-9.533701 -66.930496 -1.180297
-9.41676 -67.228665 -0.415272
-9.726437 -70.983421 2.432078
-9.423009 -71.107826 3.21776
-10.307227 -72.357437 2.662504
-10.057686 -70.770805 1.625386
-9.173468 -69.521194 2.180642
-9.726437 -70.983421 2.432078
-10.23695 -70.604774 0.854093
-10.057686 -70.770805 1.625386
-10.463679 -70.354599 0.066985
-9.731447 -69.058403 0.586841
-10.23695 -70.604774 0.854093
-10.507286 -70.130639 -0.685283
-10.463679 -70.354599 0.066985
-11.012789 -71.677009 -0.418031
-10.075117 -68.510059 -0.965293
-10.507286 -70.130639 -0.685283
-9.763632 -66.228794 -2.694877
-9.741159 -66.580558 -1.952811
-9.432047 -64.55846 -2.923628
-9.763632 -66.228794 -2.694877
-9.905419 -65.838028 -3.4432
-9.005985 -62.948246 -3.082559
-8.864199 -63.339012 -2.334236
-9.432047 -64.55846 -2.923628
-9.283171 -62.540977 -3.830679
-9.388797 -62.108387 -4.558169
-8.715322 -61.321529 -3.241287
-9.005985 -62.948246 -3.082559
-9.283171 -62.540977 -3.830679
-9.747901 -58.033831 -6.24368
-9.470667 -58.501534 -5.529841
-9.874427 -56.520775 -6.328216
-9.747901 -58.033831 -6.24368
-9.93593 -55.092692 -6.352362
-9.486169 -55.534956 -5.638652
-9.874427 -56.520775 -6.328216
-10.166463 -53.706762 -6.378583
-9.93593 -55.092692 -6.352362
-9.987751 -77.336586 8.064692
-9.467175 -76.288765 7.965599
-10.709973 -78.11911 7.400315
-9.987751 -77.336586 8.064692
-10.908735 -77.860161 6.872631
-10.709973 -78.11911 7.400315
-1.052011 -55.980765 4.649005
0.02018 -54.873946 5.583508
-1.61986 -57.465603 4.66497
-2.157884 -57.090056 3.742737
-1.052011 -55.980765 4.649005
4.495329 -52.494621 17.775297
4.064251 -54.041452 17.668491
4.598289 -52.253137 16.594904
4.495329 -52.494621 17.775297
4.110003 -53.509224 15.352428
3.591669 -55.007677 15.274867
3.576588 -54.721987 14.116454
4.598289 -52.253137 16.594904
4.110003 -53.509224 15.352428
1.692592 -56.353752 9.600971
1.941788 -56.703625 10.685761
1.333724 -55.991609 8.578088
1.692592 -56.353752 9.600971
0.750614 -57.466109 8.543864
0.964148 -55.622605 7.539947
1.333724 -55.991609 8.578088
-0.061121 -56.730139 6.54611
0.511282 -55.248778 6.565076
0.964148 -55.622605 7.539947
-10.908735 -77.860161 6.872631
-11.259208 -77.814903 6.194557
-10.679659 -77.108292 6.657693
3 68 67 16
3 0 69 71
3 69 18 70
3 69 70 71
3 1 21 19
3 2 72 73
3 2 74 76
3 74 22 75
3 74 75 76
3 77 25 78
3 79 78 23
3 77 78 79
3 3 28 26
3 3 30 28
3 3 32 30
3 4 80 82
3 82 81 35
3 80 81 82
3 5 37 17
3 5 38 37
3 83 39 84
3 85 40 86
3 87 86 39
3 85 86 87
3 88 42 89
3 90 89 40
3 88 89 90
3 8 45 43
3 10 46 20
3 10 47 46
3 92 91 36
3 11 93 94
3 11 95 96
3 9 48 44
3 12 49 24
3 12 50 49
3 97 51 98
3 99 52 100
3 101 100 51
3 99 100 101
3 102 53 103
3 104 103 52
3 102 103 104
3 105 55 106
3 6 107 109
3 107 56 108
3 107 108 109
3 111 110 27
3 13 57 29
3 13 58 57
3 13 59 58
3 14 60 31
3 14 61 60
3 7 62 41
3 15 63 33
3 15 64 63
3 15 65 64
3 112 66 113
3 114 113 34
3 112 113 114
3 115 54 116
3 117 116 66
3 115 116 117
3 16 118 120
3 120 119 4
3 118 119 120
3 122 121 16
3 123 17 124
3 18 125 127
3 125 17 126
3 125 126 127
3 18 5 17
3 19 20 8
3 21 20 19
3 21 10 20
3 22 128 129
3 22 130 132
3 130 11 131
3 130 131 132
3 23 24 9
3 25 24 23
3 25 12 24
3 26 27 6
3 28 27 26
3 28 133 135
3 135 134 27
3 133 134 135
3 28 136 138
3 136 29 137
3 136 137 138
3 30 29 28
3 30 13 29
3 30 31 13
3 32 31 30
3 32 14 31
3 139 33 140
3 141 140 7
3 139 140 141
3 142 33 143
3 144 15 145
3 146 145 33
3 144 145 146
3 147 34 148
3 149 148 15
3 147 148 149
3 150 34 151
3 153 152 34
3 35 36 1
3 154 36 155
3 156 155 35
3 154 155 156
3 158 157 36
3 160 159 4
3 17 161 162
3 37 163 165
3 165 164 17
3 163 164 165
3 37 166 167
3 37 168 169
3 38 170 172
3 172 171 37
3 170 171 172
3 38 173 175
3 173 2 174
3 173 174 175
3 176 6 177
3 39 178 179
3 39 180 182
3 180 6 181
3 180 181 182
3 39 26 6
3 40 26 39
3 40 3 26
3 40 41 3
3 42 41 40
3 42 7 41
3 183 42 184
3 185 42 186
3 187 7 188
3 189 188 42
3 187 188 189
3 191 190 7
3 43 44 0
3 45 44 43
3 45 9 44
3 20 45 8
3 46 45 20
3 46 9 45
3 46 23 9
3 47 23 46
3 47 192 194
3 194 193 23
3 192 193 194
3 36 21 1
3 195 21 196
3 197 196 36
3 195 196 197
3 198 10 199
3 200 199 21
3 198 199 200
3 201 10 202
3 203 47 204
3 205 204 10
3 203 204 205
3 206 47 207
3 206 207 208
3 210 209 47
3 44 18 0
3 48 18 44
3 48 5 18
3 24 48 9
3 49 48 24
3 49 5 48
3 49 38 5
3 50 38 49
3 50 2 38
3 211 25 212
3 213 25 214
3 213 214 215
3 216 12 217
3 218 217 25
3 216 217 218
3 51 219 220
3 51 221 223
3 221 12 222
3 221 222 223
3 51 50 12
3 52 50 51
3 52 2 50
3 52 22 2
3 53 22 52
3 53 11 22
3 224 53 225
3 226 53 227
3 228 11 229
3 230 229 53
3 228 229 230
3 232 231 11
3 233 54 234
3 235 54 236
3 238 237 54
3 55 239 240
3 55 241 243
3 241 0 242
3 241 242 243
3 56 244 245
3 56 246 247
3 27 56 6
3 248 56 249
3 250 249 27
3 248 249 250
3 252 251 56
3 29 253 254
3 57 255 257
3 257 256 29
3 255 256 257
3 57 258 259
3 57 260 262
3 260 55 261
3 260 261 262
3 58 55 57
3 58 0 55
3 58 43 0
3 59 43 58
3 59 8 43
3 31 59 13
3 60 59 31
3 60 8 59
3 60 19 8
3 61 19 60
3 61 1 19
3 41 32 3
3 62 32 41
3 62 14 32
3 33 62 7
3 63 62 33
3 63 14 62
3 63 61 14
3 64 61 63
3 64 1 61
3 64 35 1
3 65 35 64
3 65 4 35
3 34 65 15
3 66 65 34
3 66 4 65
3 66 16 4
3 54 16 66
3 54 263 265
3 265 264 16
3 263 264 265
