ply
format ascii 1.0
element vertex 183
property float x
property float y
property float z
element face 170
property list uchar int vertex_index
end_header
-29.067476 62.339397 28.429033
-34.579445 66.566422 19.66963
-22.639645 59.493732 36.346397
-24.844154 65.368927 27.902725
-26.769913 55.729771 37.244133
-33.70863 59.594883 29.397369
-36.56522 61.667294 25.099186
-32.070053 64.498016 24.139626
-30.299015 57.546192 33.476051
-25.863949 60.637424 32.515602
-24.174849 67.719162 25.798626
-31.375015 60.952053 28.888458
-32.943108 62.038876 26.776779
-30.612122 63.390308 26.303965
-35.623951 64.143738 22.410408
-37.677357 62.558559 22.855669
-36.682796 65.015045 20.126301
-32.63884 56.16267 34.011902
-30.836382 55.165363 35.96257
-24.632099 57.488674 36.750088
-26.315517 58.211079 34.892265
-24.248632 60.013645 34.458241
-23.882959 62.441822 32.156773
-22.350763 62.044567 34.09127
-26.866173 63.809856 28.087357
-28.324154 64.776947 25.93996
-26.1567 66.23053 25.754986
-35.601608 67.383621 17.329647
-29.026934 54.1777 37.811058
-27.253965 53.175716 39.552551
-25.057308 54.865147 38.999435
-35.982822 58.194897 29.877556
-37.396233 59.171627 27.720287
-35.23262 60.656612 27.275333
-34.372349 63.127956 24.62104
-33.401363 65.582932 21.933214
-38.573563 60.051495 25.501616
-34.376347 57.178074 31.977503
-32.044392 58.544247 31.467709
-29.717842 59.931789 30.953764
-28.526819 56.613102 35.40538
-28.019081 59.01659 32.959621
-27.47542 61.410267 30.504398
-25.386045 63.020535 30.162306
-23.508905 64.759369 29.920403
-31.09653 53.964557 37.179398
-32.008661 54.478004 36.231342
-21.716981 60.622192 36.175045
-21.57254 61.89761 35.047482
-22.495204 60.769149 35.218834
-24.742537 68.206077 24.661358
-23.744954 68.931106 24.817315
-27.522183 51.85389 40.689243
-28.400056 52.430264 39.861128
-24.233032 54.427357 39.852192
-25.301875 53.500576 40.103554
-24.021731 55.835656 38.776131
-24.233032 54.427357 39.852192
-29.032524 65.314194 24.84077
-27.894763 66.011238 24.726185
-39.038429 62.023731 21.868833
-38.590713 61.667633 23.032623
-38.125073 62.914658 21.691879
-36.583347 66.535553 17.54061
-36.047277 67.687187 16.114616
-34.668747 55.982289 33.237361
-35.502068 56.467354 32.194236
-22.806956 64.596855 30.877508
-23.695932 63.600596 31.038588
-22.993983 63.438082 31.995694
-22.703236 65.675636 29.804265
-22.806956 64.596855 30.877508
-23.627293 67.330979 26.835552
-24.509501 66.544044 26.850676
-23.961945 66.155861 27.887602
-23.300378 68.418724 25.960562
-23.627293 67.330979 26.835552
-23.744954 68.931106 24.817315
-23.300378 68.418724 25.960562
-37.627792 64.1429 20.327195
-38.125073 62.914658 21.691879
-37.180076 63.786802 21.490985
-32.90989 54.976658 35.256008
-33.799993 55.474587 34.25456
-31.737611 55.664017 34.987236
-32.90989 54.976658 35.256008
-32.008661 54.478004 36.231342
-22.227885 63.239454 32.962942
-22.993983 63.438082 31.995694
-23.116861 62.243195 33.124021
-21.484397 63.173902 33.9086
-22.227885 63.239454 32.962942
-21.484397 63.173902 33.9086
-21.57254 61.89761 35.047482
-26.811036 66.73803 24.633698
-27.894763 66.011238 24.726185
-27.240427 65.503738 25.847473
-25.733463 67.461761 24.639538
-25.165774 66.974846 25.776806
-24.742537 68.206077 24.661358
-26.811036 66.73803 24.633698
-25.733463 67.461761 24.639538
-34.518369 68.142563 17.110154
-35.090526 66.975021 18.499639
-34.007288 67.733964 18.280146
-35.01907 68.50827 15.905994
-34.518369 68.142563 17.110154
-36.047277 67.687187 16.114616
-35.01907 68.50827 15.905994
-29.28654 52.931256 38.990381
-30.191806 53.470726 38.103642
-28.14045 53.676708 38.681804
-29.28654 52.931256 38.990381
-28.400056 52.430264 39.861128
-26.400203 52.655861 40.380111
-27.522183 51.85389 40.689243
-26.155636 54.020432 39.275993
-26.400203 52.655861 40.380111
-25.301875 53.500576 40.103554
-23.809126 57.147419 37.651457
-24.844704 56.176911 37.874761
-24.021731 55.835656 38.776131
-22.812899 58.149948 37.449612
-23.635872 58.491203 36.548243
-23.809126 57.147419 37.651457
-21.844249 59.255009 37.279373
-22.812899 58.149948 37.449612
-36.689527 58.683262 28.798921
-37.753588 57.927445 28.990094
-37.046882 57.439079 30.068728
-30.176508 64.620874 25.022773
-29.468138 64.083628 26.121963
-29.032524 65.314194 24.84077
-30.905473 65.174728 23.940604
-31.341088 63.944162 25.221795
-30.176508 64.620874 25.022773
-31.576601 65.723984 22.822287
-30.905473 65.174728 23.940604
-32.242256 66.266441 21.719081
-32.735708 65.040474 23.03642
-31.576601 65.723984 22.822287
-32.860556 66.786522 20.579748
-32.242256 66.266441 21.719081
-33.449596 67.278267 19.447956
-33.990404 66.074677 20.801422
-32.860556 66.786522 20.579748
-34.007288 67.733964 18.280146
-33.449596 67.278267 19.447956
-38.375856 58.349792 27.88569
-37.753588 57.927445 28.990094
-38.964522 58.789727 26.776355
-38.375856 58.349792 27.88569
-37.984898 59.611561 26.610951
-39.454834 59.146778 25.64121
-38.964522 58.789727 26.776355
-39.038816 60.414101 24.355597
-38.12546 61.305027 24.178642
-38.590713 61.667633 23.032623
-39.454834 59.146778 25.64121
-39.038816 60.414101 24.355597
-37.123941 65.351265 18.938937
-36.142202 66.199333 18.727974
-36.583347 66.535553 17.54061
-37.627792 64.1429 20.327195
-37.123941 65.351265 18.938937
-36.305306 56.975765 31.144262
-37.046882 57.439079 30.068728
-35.179585 57.686486 30.927529
-36.305306 56.975765 31.144262
-35.502068 56.467354 32.194236
-33.507593 56.670372 32.994703
-34.668747 55.982289 33.237361
-33.799993 55.474587 34.25456
-29.931658 54.671532 36.886814
-31.09653 53.964557 37.179398
-30.191806 53.470726 38.103642
-23.294321 65.851082 28.896441
-23.961945 66.155861 27.887602
-24.17653 65.064148 28.911564
-23.294321 65.851082 28.896441
-22.703236 65.675636 29.804265
-21.716981 60.622192 36.175045
-21.844249 59.255009 37.279373
3 0 13 11
3 1 16 14
3 45 18 46
3 2 21 19
3 2 23 21
3 2 47 49
3 49 48 23
3 47 48 49
3 3 26 24
3 51 50 10
3 52 29 53
3 54 30 55
3 57 56 30
3 5 33 31
3 7 34 12
3 7 35 34
3 59 58 25
3 6 36 32
3 62 61 15
3 60 61 62
3 64 63 27
3 65 37 66
3 8 38 17
3 8 39 38
3 4 40 28
3 9 41 20
3 9 42 41
3 9 43 42
3 67 44 68
3 69 68 22
3 67 68 69
3 71 70 44
3 72 10 73
3 74 73 3
3 72 73 74
3 75 10 76
3 78 77 10
3 11 12 5
3 13 12 11
3 13 7 12
3 14 15 6
3 16 15 14
3 16 79 81
3 81 80 15
3 79 80 81
3 82 17 83
3 18 84 86
3 84 17 85
3 84 85 86
3 18 8 17
3 19 20 4
3 21 20 19
3 21 9 20
3 21 22 9
3 23 22 21
3 23 87 89
3 89 88 22
3 87 88 89
3 23 90 91
3 93 92 23
3 24 25 0
3 26 25 24
3 26 94 96
3 96 95 25
3 94 95 96
3 10 26 3
3 97 26 98
3 99 98 10
3 97 98 99
3 101 100 26
3 102 27 103
3 104 103 1
3 102 103 104
3 105 27 106
3 108 107 27
3 109 28 110
3 29 111 113
3 111 28 112
3 111 112 113
3 29 4 28
3 114 29 115
3 30 116 118
3 116 29 117
3 116 117 118
3 30 4 29
3 30 19 4
3 119 19 120
3 121 120 30
3 119 120 121
3 122 2 123
3 124 123 19
3 122 123 124
3 126 125 2
3 31 127 129
3 127 32 128
3 127 128 129
3 33 32 31
3 33 6 32
3 12 33 5
3 34 33 12
3 34 6 33
3 34 14 6
3 35 14 34
3 35 1 14
3 25 13 0
3 130 13 131
3 132 131 25
3 130 131 132
3 133 7 134
3 135 134 13
3 133 134 135
3 136 7 137
3 138 35 139
3 140 139 7
3 138 139 140
3 141 35 142
3 143 1 144
3 145 144 35
3 143 144 145
3 147 146 1
3 32 148 149
3 36 150 152
3 152 151 32
3 150 151 152
3 36 153 154
3 15 36 6
3 155 36 156
3 157 156 15
3 155 156 157
3 159 158 36
3 27 16 1
3 160 16 161
3 162 161 27
3 160 161 162
3 164 163 16
3 165 31 166
3 37 167 169
3 167 31 168
3 167 168 169
3 37 5 31
3 17 170 172
3 170 37 171
3 170 171 172
3 38 37 17
3 38 5 37
3 38 11 5
3 39 11 38
3 39 0 11
3 28 173 175
3 173 18 174
3 173 174 175
3 40 18 28
3 40 8 18
3 20 40 4
3 41 40 20
3 41 8 40
3 41 39 8
3 42 39 41
3 42 0 39
3 42 24 0
3 43 24 42
3 43 3 24
3 22 43 9
3 44 43 22
3 44 3 43
3 44 176 178
3 178 177 3
3 176 177 178
3 180 179 44
3 182 181 2
