ply
format ascii 1.0
element vertex 169
property float x
property float y
property float z
element face 154
property list uchar int vertex_index
end_header
-0.623058 30.795406 -29.865072
-2.309774 32.997036 -27.667566
-1.617521 41.246269 -30.976141
0.207943 38.801868 -32.374084
-3.007002 24.313438 -24.119432
-1.179867 22.074032 -26.988348
1.463388 20.089172 -28.380007
1.934399 28.621113 -30.515451
-2.195841 47.287926 -29.646574
-2.187613 42.34906 -29.644011
-1.778677 46.225136 -31.198076
-1.13386 45.0373 -32.333244
4.99799 22.607006 -29.340994
-3.694494 25.526493 -22.210989
-3.252947 29.825275 -24.085249
-1.572245 31.898277 -28.967123
-1.87068 27.569611 -27.344027
-0.910376 26.485435 -28.432474
0.032307 21.047626 -27.86989
0.267511 25.435139 -29.128588
1.663643 24.42902 -29.458555
0.550409 29.697701 -30.364332
0.848274 42.304291 -33.340302
1.440336 37.490082 -32.49984
-2.871218 34.090191 -26.002825
-2.531061 38.281796 -27.88542
-1.988356 37.206242 -29.396574
-1.241529 36.087681 -30.508471
-0.268059 34.930893 -31.202185
-0.820126 40.060825 -31.884516
-0.25148 43.725578 -33.036842
0.50679 46.981033 -33.939865
-2.637571 28.682667 -25.879496
-2.183035 23.163105 -25.728605
3.254593 23.481022 -29.493666
3.491817 27.58696 -30.41308
0.927361 33.750301 -31.505449
2.312859 32.569187 -31.495176
3.837015 31.420506 -31.286291
-1.765726 48.611172 -31.162216
-1.987259 46.756531 -30.422325
-1.974308 49.142567 -30.386465
-1.508406 48.026413 -31.844521
-1.765726 48.611172 -31.162216
5.919684 22.215069 -29.232212
5.084496 24.614071 -29.76041
-3.279743 32.504323 -24.058808
-3.509838 30.413604 -23.053024
1.482868 41.552832 -33.331566
1.263661 43.816895 -33.715642
-2.545763 40.826777 -27.905556
-2.722227 38.800517 -26.956537
-0.365882 46.106289 -33.23114
-0.69267 44.381439 -32.685043
-0.807072 46.76215 -32.879341
0.013253 47.734016 -33.682651
0.127655 45.353305 -33.488354
-0.365882 46.106289 -33.23114
-3.216234 22.122494 -23.285017
-3.55998 22.729021 -22.330796
-3.350748 24.919965 -23.165211
-2.769532 21.521103 -24.156292
-3.216234 22.122494 -23.285017
-1.322326 19.846773 -26.298345
-1.82391 20.391309 -25.668474
-1.681451 22.618569 -26.358477
-0.686381 19.338282 -26.824312
-1.322326 19.846773 -26.298345
1.380537 17.883747 -27.860948
0.664996 18.362974 -27.60589
0.747847 20.568399 -28.124949
2.231984 17.469476 -28.032457
1.380537 17.883747 -27.860948
2.282031 19.648077 -28.474087
2.231984 17.469476 -28.032457
2.569709 34.36412 -31.928313
1.876597 35.029635 -31.997508
2.133447 36.824568 -32.430645
3.331787 33.78978 -31.82387
3.074937 31.994847 -31.390733
2.569709 34.36412 -31.928313
4.069548 33.140414 -31.686183
3.331787 33.78978 -31.82387
-2.191727 44.818493 -29.645293
-2.374039 42.860409 -28.784852
-2.378153 45.329842 -28.786133
-1.185997 47.432495 -32.412105
-1.456269 45.631218 -31.76566
-1.508406 48.026413 -31.844521
-0.807072 46.76215 -32.879341
-1.185997 47.432495 -32.412105
5.922097 20.158163 -28.850277
4.954426 20.508806 -28.93215
5.922097 20.158163 -28.850277
5.919684 22.215069 -29.232212
-3.730612 28.264213 -22.115895
-3.993029 26.164952 -21.135002
-3.47372 27.675884 -23.148119
-3.730612 28.264213 -22.115895
-3.509838 30.413604 -23.053024
1.778899 39.145727 -32.911335
1.144305 39.897187 -32.920071
1.482868 41.552832 -33.331566
2.133447 36.824568 -32.430645
1.778899 39.145727 -32.911335
-2.892305 36.704714 -26.01524
-3.088879 34.636781 -25.017595
-2.70114 36.185993 -26.944122
-2.892305 36.704714 -26.01524
-2.722227 38.800517 -26.956537
-2.359337 40.315428 -28.764716
-2.545763 40.826777 -27.905556
-2.374039 42.860409 -28.784852
1.09292 46.155265 -34.015423
1.263661 43.816895 -33.715642
0.677532 44.642662 -33.640084
-2.308295 47.762569 -28.688524
-2.378153 45.329842 -28.786133
-2.117491 49.645684 -29.504818
-2.308295 47.762569 -28.688524
-2.229945 50.120327 -28.546768
-1.974308 49.142567 -30.386465
-2.117491 49.645684 -29.504818
0.445603 49.240295 -34.090241
0.013253 47.734016 -33.682651
0.992004 48.355598 -34.268108
0.445603 49.240295 -34.090241
0.930818 50.614861 -34.418484
1.09292 46.155265 -34.015423
0.992004 48.355598 -34.268108
-3.939913 23.377386 -21.321095
-3.993029 26.164952 -21.135002
-3.939913 23.377386 -21.321095
-3.55998 22.729021 -22.330796
-3.062082 31.957733 -25.044037
-3.279743 32.504323 -24.058808
-3.088879 34.636781 -25.017595
-2.357548 20.945936 -24.960878
-2.769532 21.521103 -24.156292
-2.595019 23.738272 -24.924019
-2.357548 20.945936 -24.960878
-1.82391 20.391309 -25.668474
-0.080294 18.825079 -27.265083
-0.686381 19.338282 -26.824312
-0.57378 21.560829 -27.429119
-0.080294 18.825079 -27.265083
0.664996 18.362974 -27.60589
2.382159 21.818001 -29.013361
2.282031 19.648077 -28.474087
1.563515 22.259096 -28.919281
3.177633 21.344002 -29.030917
2.382159 21.818001 -29.013361
2.459118 23.955021 -29.476111
4.082727 20.945814 -29.008486
3.177633 21.344002 -29.030917
4.126291 23.044014 -29.41733
4.954426 20.508806 -28.93215
4.082727 20.945814 -29.008486
4.331409 27.104048 -30.296453
5.084496 24.614071 -29.76041
4.244903 25.096983 -29.877037
4.504008 29.020821 -30.733059
4.331409 27.104048 -30.296453
3.664416 29.503733 -30.849685
4.639054 30.884379 -31.148393
4.504008 29.020821 -30.733059
4.871587 32.604286 -31.548285
4.639054 30.884379 -31.148393
4.069548 33.140414 -31.686183
3 39 10 40
3 41 40 8
3 39 40 41
3 43 42 10
3 45 44 12
3 46 14 47
3 0 17 15
3 0 19 17
3 0 21 19
3 49 48 22
3 50 25 51
3 2 26 9
3 2 27 26
3 2 29 27
3 52 30 53
3 54 53 11
3 52 53 54
3 55 31 56
3 57 56 30
3 55 56 57
3 4 58 60
3 60 59 13
3 58 59 60
3 4 61 62
3 1 32 24
3 5 33 16
3 5 63 65
3 65 64 33
3 63 64 65
3 5 66 67
3 6 68 70
3 70 69 18
3 68 69 70
3 6 71 72
3 6 73 74
3 7 34 20
3 7 35 34
3 3 36 28
3 75 37 76
3 77 76 23
3 75 76 77
3 78 38 79
3 80 79 37
3 78 79 80
3 82 81 38
3 8 83 85
3 83 9 84
3 83 84 85
3 10 9 8
3 10 2 9
3 10 11 2
3 86 11 87
3 88 87 10
3 86 87 88
3 90 89 11
3 12 91 92
3 94 93 12
3 95 13 96
3 14 97 99
3 97 13 98
3 97 98 99
3 14 4 13
3 15 16 1
3 17 16 15
3 17 5 16
3 17 18 5
3 19 18 17
3 19 6 18
3 19 20 6
3 21 20 19
3 21 7 20
3 22 23 3
3 100 23 101
3 102 101 22
3 100 101 102
3 104 103 23
3 105 24 106
3 25 107 109
3 107 24 108
3 107 108 109
3 25 1 24
3 9 110 112
3 110 25 111
3 110 111 112
3 26 25 9
3 26 1 25
3 26 15 1
3 27 15 26
3 27 0 15
3 27 28 0
3 29 28 27
3 29 3 28
3 11 29 2
3 30 29 11
3 30 3 29
3 30 22 3
3 31 22 30
3 31 113 115
3 115 114 22
3 113 114 115
3 116 8 117
3 118 8 119
3 118 119 120
3 122 121 8
3 123 31 124
3 125 31 126
3 125 126 127
3 129 128 31
3 13 130 131
3 133 132 13
3 24 134 136
3 134 14 135
3 134 135 136
3 32 14 24
3 32 4 14
3 16 32 1
3 33 32 16
3 33 4 32
3 33 137 139
3 139 138 4
3 137 138 139
3 141 140 33
3 18 142 144
3 144 143 5
3 142 143 144
3 146 145 18
3 20 147 149
3 149 148 6
3 147 148 149
3 34 150 152
3 152 151 20
3 150 151 152
3 34 153 154
3 34 155 157
3 155 12 156
3 155 156 157
3 35 12 34
3 35 158 160
3 160 159 12
3 158 159 160
3 28 21 0
3 36 21 28
3 36 7 21
3 23 36 3
3 37 36 23
3 37 7 36
3 37 35 7
3 38 35 37
3 38 161 163
3 163 162 35
3 161 162 163
3 38 164 165
3 168 167 38
3 166 167 168
