ply
format ascii 1.0
element vertex 289
property float x
property float y
property float z
element face 288
property list uchar int vertex_index
end_header
-29.282623 -76.265884 51.632893
-35.113655 -75.167343 49.291267
-42.62093 -73.464813 48.518192
-33.277184 -85.583252 47.480282
-28.278509 -72.792755 55.492668
-30.386305 -71.66468 52.740482
-39.630035 -69.003937 47.795219
-43.464146 -68.145523 47.707409
-37.659943 -79.893646 49.350964
-34.170563 -80.515259 49.257622
-36.519485 -85.251129 48.541912
-26.244179 -74.123367 58.26289
-26.900736 -76.840057 53.253704
-28.345201 -80.531563 49.261917
-32.917358 -70.689163 50.352173
-36.028374 -69.822289 48.653988
-38.740082 -74.412628 48.738979
-41.419792 -78.805901 49.26865
-46.46447 -72.273636 48.463253
-31.952684 -75.76078 50.268879
-31.088272 -80.663597 49.169453
-30.330414 -85.147995 46.169052
-29.996126 -69.966164 54.653362
-38.882671 -82.103943 49.317379
-37.082733 -82.603783 49.187782
-38.246681 -84.759613 48.856476
-28.659777 -74.406494 53.380268
-27.562292 -74.860794 54.507454
-28.075191 -76.530907 52.419556
-27.534794 -78.556747 51.124092
-28.797377 -78.452148 50.652523
-41.13839 -71.262955 48.097183
-39.211128 -71.691284 48.245743
-40.666191 -73.964996 48.596828
-40.122791 -76.683205 49.055943
-42.06073 -76.137222 48.958206
-48.692448 -69.051254 48.427872
-46.900631 -69.707512 48.26561
-48.281097 -71.559143 48.444229
-33.928806 -72.854858 49.602261
-32.420883 -73.226692 50.372414
-33.467915 -75.481323 49.726082
-33.708439 -83.101776 48.641911
-32.577461 -80.642166 49.20163
-32.158649 -83.100769 48.291557
-30.693533 -82.965225 47.941017
-31.77322 -85.440887 46.82679
-28.139593 -71.405472 57.919109
-29.05378 -70.661255 56.284897
-29.298599 -72.207001 54.094429
-29.80932 -73.992004 52.293083
-41.537521 -68.586563 47.666386
-43.08847 -70.798477 48.069576
-36.383862 -77.546188 49.272465
-34.643471 -77.857727 49.429268
-35.868954 -80.266663 49.315147
-35.351784 -82.939011 48.952541
-34.858685 -85.526947 48.069359
-27.276857 -73.428619 56.893135
-26.470261 -75.372711 55.647034
-25.717218 -77.225349 54.124237
-26.284569 -78.722725 51.666203
-34.400673 -70.245346 49.402157
-35.57552 -72.479561 48.988255
-37.781429 -69.411812 48.119289
-37.345306 -72.094032 48.537724
-36.878769 -74.812363 48.965107
-38.219505 -77.15387 49.154167
-39.520134 -79.402985 49.34219
-45.370537 -67.665154 47.885315
-45.021767 -70.284897 48.135719
-44.566235 -72.904579 48.480965
-43.997963 -75.516525 48.84296
-31.583164 -71.160416 51.477776
-31.052813 -73.602646 51.279106
-30.564119 -76.016747 50.909882
-33.016716 -78.090179 49.639072
-31.509012 -78.252594 49.910843
-30.110617 -78.363602 50.248383
-29.686871 -80.611206 49.182423
-29.290941 -82.745499 47.632633
-34.418724 -87.998917 46.595352
-32.897068 -87.937561 45.723034
-39.131668 -84.416794 48.920391
-38.564676 -83.431778 49.086928
-39.449663 -83.088959 49.150842
-49.134535 -71.153526 48.424481
-48.486773 -70.305199 48.436051
-49.34021 -69.899582 48.416302
-29.466977 -69.578716 56.618531
-29.051732 -69.994148 57.532743
-42.500833 -68.366043 47.686898
-41.702991 -67.263611 47.522257
-42.666304 -67.043091 47.542768
-25.691072 -74.505432 58.921274
-25.663203 -73.96566 60.303888
-26.21631 -73.583595 59.645504
-25.79197 -75.042809 57.521241
-25.691072 -74.505432 58.921274
-27.687202 -80.507199 49.346052
-27.281999 -79.51979 50.277139
-27.939998 -79.544155 50.193005
-28.132976 -81.520756 48.336178
-27.687202 -80.507199 49.346052
-35.214523 -70.033817 49.028073
-34.641852 -68.961388 49.319547
-35.455702 -68.749859 48.945463
-38.705732 -69.207875 47.957254
-37.984152 -68.094494 47.96351
-38.908455 -67.890557 47.801476
-41.072344 -80.131744 49.293541
-40.122514 -80.430286 49.330311
-40.469963 -79.104443 49.30542
-46.295765 -67.397294 48.023497
-45.500416 -66.358609 47.828102
-44.602854 -76.423801 48.858179
-44.948375 -75.167068 48.769253
-43.662255 -76.814804 48.979107
-44.602854 -76.423801 48.858179
-32.250261 -70.92479 50.914974
-31.870114 -69.943169 51.546875
-32.537211 -69.707542 50.984074
-29.626335 -84.96302 45.870705
-29.106599 -83.761773 46.602495
-29.810678 -83.946747 46.900842
-34.997665 -89.112663 46.055421
-35.212744 -87.900254 46.961952
-32.737871 -89.04937 44.553595
-33.475447 -89.136544 45.121084
-32.164479 -87.797027 45.253256
-32.737871 -89.04937 44.553595
-30.370289 -68.840935 54.893736
-29.93815 -69.231171 55.802763
-30.506552 -69.643567 53.865715
-30.370289 -68.840935 54.893736
-30.701641 -70.492825 52.909275
-30.191215 -70.815422 53.696922
-30.506552 -69.643567 53.865715
-43.611203 -66.828151 47.598652
-42.666304 -67.043091 47.542768
-26.722361 -73.161163 58.887041
-26.21631 -73.583595 59.645504
-36.249895 -68.517719 48.524268
-35.455702 -68.749859 48.945463
-47.796539 -69.379383 48.346741
-47.060812 -68.418473 48.213644
-47.956721 -68.090344 48.294775
-28.594638 -70.366257 58.349849
-28.168784 -70.804138 59.242168
-28.596687 -71.033364 57.102003
-28.594638 -70.366257 58.349849
-29.051732 -69.994148 57.532743
-29.524953 -70.31371 55.46913
-29.466977 -69.578716 56.618531
-29.93815 -69.231171 55.802763
-39.814159 -67.680794 47.634834
-38.908455 -67.890557 47.801476
-40.767902 -67.472107 47.570418
-40.933373 -66.149155 47.426288
-41.702991 -67.263611 47.522257
-40.583778 -68.79525 47.730803
-39.814159 -67.680794 47.634834
-40.767902 -67.472107 47.570418
-48.839426 -67.787346 48.461319
-47.956721 -68.090344 48.294775
-49.532671 -68.676887 48.509632
-48.839426 -67.787346 48.461319
-49.34021 -69.899582 48.416302
-49.532671 -68.676887 48.509632
-27.670068 -71.802216 58.715151
-28.168784 -70.804138 59.242168
-27.238701 -72.813789 58.202163
-27.670068 -71.802216 58.715151
-27.708225 -72.417046 57.406122
-26.760518 -73.775993 57.578012
-26.722361 -73.161163 58.887041
-27.238701 -72.813789 58.202163
-25.905012 -75.66748 56.213313
-25.79197 -75.042809 57.521241
-26.35722 -74.748039 56.954962
-25.52849 -76.593799 55.451914
-25.905012 -75.66748 56.213313
-26.093739 -76.29903 54.885635
-25.102892 -77.472263 54.574984
-25.52849 -76.593799 55.451914
-25.364475 -78.111461 53.20451
-25.102892 -77.472263 54.574984
-25.64815 -78.86015 51.975493
-25.364475 -78.111461 53.20451
-26.000894 -77.974037 52.89522
-25.99531 -79.625763 50.688118
-25.358891 -79.763188 50.997408
-25.64815 -78.86015 51.975493
-26.656886 -79.602779 50.548195
-26.909682 -78.639736 51.395148
-27.281999 -79.51979 50.277139
-25.99531 -79.625763 50.688118
-26.656886 -79.602779 50.548195
-33.179977 -69.434295 50.336506
-32.537211 -69.707542 50.984074
-33.921634 -69.212387 49.861498
-34.641852 -68.961388 49.319547
-33.659015 -70.467254 49.877165
-33.179977 -69.434295 50.336506
-33.921634 -69.212387 49.861498
-37.126423 -68.312481 48.256918
-37.984152 -68.094494 47.96351
-36.904902 -69.617051 48.386639
-36.249895 -68.517719 48.524268
-37.126423 -68.312481 48.256918
-39.803783 -81.780766 49.317906
-39.201403 -80.753464 49.329785
-40.122514 -80.430286 49.330311
-39.449663 -83.088959 49.150842
-39.803783 -81.780766 49.317906
-44.564398 -66.587967 47.687605
-45.500416 -66.358609 47.828102
-44.417341 -67.905338 47.796362
-43.611203 -66.828151 47.598652
-44.564398 -66.587967 47.687605
-46.135584 -68.686333 48.075463
-46.295765 -67.397294 48.023497
-47.060812 -68.418473 48.213644
-48.869949 -72.355427 48.354158
-49.134535 -71.153526 48.424481
-48.005081 -72.795967 48.474642
-48.869949 -72.355427 48.354158
-47.096767 -73.153213 48.484154
-47.372783 -71.91639 48.453741
-48.005081 -72.795967 48.474642
-46.181629 -73.545624 48.579399
-47.096767 -73.153213 48.484154
-45.232512 -73.861096 48.588255
-45.515352 -72.589107 48.472109
-46.181629 -73.545624 48.579399
-44.282099 -74.210552 48.661963
-45.232512 -73.861096 48.588255
-44.948375 -75.167068 48.769253
-42.693638 -77.125152 49.036729
-43.029347 -75.826874 48.900583
-43.662255 -76.814804 48.979107
-42.373169 -78.459492 49.191952
-41.740261 -77.471562 49.113428
-42.693638 -77.125152 49.036729
-41.999635 -79.746003 49.222898
-42.373169 -78.459492 49.191952
-41.072344 -80.131744 49.293541
-41.999635 -79.746003 49.222898
-31.300071 -70.240692 52.277922
-31.870114 -69.943169 51.546875
-30.984735 -71.412548 52.109129
-30.701641 -70.492825 52.909275
-31.300071 -70.240692 52.277922
-28.605846 -82.627724 47.521536
-28.132976 -81.520756 48.336178
-28.818071 -81.638531 48.447275
-28.605846 -82.627724 47.521536
-29.106599 -83.761773 46.602495
-38.795494 -85.695297 48.512404
-39.131668 -84.416794 48.920391
-37.950958 -86.049294 48.361128
-38.795494 -85.695297 48.512404
-37.08736 -86.295051 48.203846
-37.383083 -85.005371 48.699194
-37.950958 -86.049294 48.361128
-36.263124 -86.52636 47.935232
-37.08736 -86.295051 48.203846
-35.432724 -86.664269 47.698955
-35.689085 -85.389038 48.305636
-36.263124 -86.52636 47.935232
-34.638705 -86.762932 47.332355
-35.432724 -86.664269 47.698955
-35.212744 -87.900254 46.961952
-34.236275 -89.167222 45.557243
-34.997665 -89.112663 46.055421
-33.657896 -87.968239 46.159193
-34.236275 -89.167222 45.557243
-33.475447 -89.136544 45.121084
-31.602555 -86.54869 45.805134
-32.335144 -86.689224 46.274912
-32.164479 -87.797027 45.253256
-30.881152 -86.402244 45.476265
-31.051817 -85.294441 46.497921
-31.602555 -86.54869 45.805134
-30.165535 -86.187645 45.014187
-30.881152 -86.402244 45.476265
-29.461456 -86.00267 44.71584
-29.626335 -84.96302 45.870705
-30.165535 -86.187645 45.014187
3 83 25 84
3 85 84 23
3 83 84 85
3 0 28 26
3 0 30 28
3 2 33 31
3 2 35 33
3 86 38 87
3 88 87 36
3 86 87 88
3 1 41 39
3 3 44 42
3 3 46 44
3 89 48 90
3 5 49 22
3 5 50 49
3 7 91 93
3 91 51 92
3 91 92 93
3 7 52 51
3 8 55 53
3 10 56 24
3 10 57 56
3 11 94 96
3 94 95 96
3 11 97 98
3 4 58 47
3 12 59 27
3 12 60 59
3 12 61 60
3 13 99 101
3 101 100 29
3 99 100 101
3 13 102 103
3 15 104 106
3 104 62 105
3 104 105 106
3 15 63 62
3 6 107 109
3 107 64 108
3 107 108 109
3 16 65 32
3 16 66 65
3 16 67 66
3 17 68 34
3 17 110 112
3 112 111 68
3 110 111 112
3 113 69 114
3 18 70 37
3 18 71 70
3 115 72 116
3 118 117 72
3 14 119 121
3 119 73 120
3 119 120 121
3 19 74 40
3 19 75 74
3 9 76 54
3 20 77 43
3 20 78 77
3 20 79 78
3 21 80 45
3 21 122 124
3 124 123 80
3 122 123 124
3 125 81 126
3 127 82 128
3 130 129 82
3 131 22 132
3 133 22 134
3 135 5 136
3 137 136 22
3 135 136 137
3 138 7 139
3 23 24 8
3 25 24 23
3 25 10 24
3 140 11 141
3 26 27 4
3 28 27 26
3 28 12 27
3 28 29 12
3 30 29 28
3 30 13 29
3 142 15 143
3 31 32 6
3 33 32 31
3 33 16 32
3 33 34 16
3 35 34 33
3 35 17 34
3 36 144 146
3 144 37 145
3 144 145 146
3 38 37 36
3 38 18 37
3 39 40 14
3 41 40 39
3 41 19 40
3 42 43 9
3 44 43 42
3 44 20 43
3 44 45 20
3 46 45 44
3 46 21 45
3 147 47 148
3 48 149 151
3 149 47 150
3 149 150 151
3 48 4 47
3 22 152 154
3 152 48 153
3 152 153 154
3 49 48 22
3 49 4 48
3 49 26 4
3 50 26 49
3 50 0 26
3 155 6 156
3 51 157 159
3 157 158 159
3 51 160 162
3 160 6 161
3 160 161 162
3 51 31 6
3 52 31 51
3 52 2 31
3 53 54 1
3 55 54 53
3 55 9 54
3 24 55 8
3 56 55 24
3 56 9 55
3 56 42 9
3 57 42 56
3 57 3 42
3 163 36 164
3 165 36 166
3 168 167 36
3 47 169 170
3 58 171 173
3 173 172 47
3 171 172 173
3 58 174 176
3 174 11 175
3 174 175 176
3 27 58 4
3 59 58 27
3 59 11 58
3 59 177 179
3 179 178 11
3 177 178 179
3 60 180 182
3 182 181 59
3 180 181 182
3 60 183 184
3 60 185 186
3 61 187 189
3 189 188 60
3 187 188 189
3 61 190 192
3 190 191 192
3 29 61 12
3 193 61 194
3 195 194 29
3 193 194 195
3 197 196 61
3 198 14 199
3 62 200 201
3 62 202 204
3 202 14 203
3 202 203 204
3 62 39 14
3 63 39 62
3 63 1 39
3 64 205 206
3 64 207 209
3 207 15 208
3 207 208 209
3 32 64 6
3 65 64 32
3 65 15 64
3 65 63 15
3 66 63 65
3 66 1 63
3 66 53 1
3 67 53 66
3 67 8 53
3 34 67 16
3 68 67 34
3 68 8 67
3 68 23 8
3 210 23 211
3 212 211 68
3 210 211 212
3 214 213 23
3 69 215 216
3 69 217 219
3 217 7 218
3 217 218 219
3 37 220 222
3 220 69 221
3 220 221 222
3 70 69 37
3 70 7 69
3 70 52 7
3 71 52 70
3 71 2 52
3 223 38 224
3 225 38 226
3 227 18 228
3 229 228 38
3 227 228 229
3 230 18 231
3 232 71 233
3 234 233 18
3 232 233 234
3 72 235 237
3 235 71 236
3 235 236 237
3 72 2 71
3 72 35 2
3 238 35 239
3 240 239 72
3 238 239 240
3 241 17 242
3 243 242 35
3 241 242 243
3 244 17 245
3 247 246 17
3 73 248 249
3 73 250 252
3 250 5 251
3 250 251 252
3 40 73 14
3 74 73 40
3 74 5 73
3 74 50 5
3 75 50 74
3 75 0 50
3 54 41 1
3 76 41 54
3 76 19 41
3 43 76 9
3 77 76 43
3 77 19 76
3 77 75 19
3 78 75 77
3 78 0 75
3 78 30 0
3 79 30 78
3 79 13 30
3 45 79 20
3 80 79 45
3 80 13 79
3 80 253 255
3 255 254 13
3 253 254 255
3 257 256 80
3 258 25 259
3 260 25 261
3 262 10 263
3 264 263 25
3 262 263 264
3 265 10 266
3 267 57 268
3 269 268 10
3 267 268 269
3 81 270 272
3 270 57 271
3 270 271 272
3 81 3 57
3 273 81 274
3 82 275 277
3 275 81 276
3 275 276 277
3 82 3 81
3 82 46 3
3 278 46 279
3 280 279 82
3 278 279 280
3 281 21 282
3 283 282 46
3 281 282 283
3 284 21 285
3 288 287 21
3 286 287 288
