ply
format ascii 1.0
element vertex 143
property float x
property float y
property float z
element face 118
property list uchar int vertex_index
end_header
-26.266478 -25.451096 -37.110443
-26.832462 -25.024038 -39.1106
-26.486015 -30.39604 -32.882183
-24.766016 -39.499645 -26.851711
-25.756668 -35.029621 -30.813423
-26.293842 -30.178829 -34.965237
-26.564693 -23.247139 -37.931919
-26.18224 -22.844746 -39.22897
-26.41423 -22.5457 -40.294254
-26.24371 -25.179245 -38.221741
-26.0567 -32.648663 -32.876522
-26.648682 -32.79277 -33.649387
-27.034994 -30.239014 -35.733418
-27.963383 -24.994308 -39.780502
-26.392595 -27.971813 -34.987808
-24.147671 -41.150841 -24.119114
-24.893261 -39.181442 -25.976849
-25.439568 -37.102962 -27.902828
-25.339823 -37.314499 -28.799118
-25.801058 -34.916367 -29.892227
-26.008743 -32.624413 -31.935707
-26.109852 -30.231995 -34.018787
-26.165195 -27.746616 -36.12191
-26.530899 -27.631655 -37.052624
-27.454502 -27.630867 -37.787476
-26.91662 -34.209917 -32.92453
-26.441982 -34.033107 -32.609067
-27.447591 -34.331722 -33.244488
-27.179654 -32.914575 -33.969345
-26.91662 -34.209917 -32.92453
-27.044539 -23.701687 -40.112364
-26.835423 -22.462519 -40.704191
-26.623346 -23.784869 -39.702427
-27.397922 -25.009173 -39.445551
-27.61 -23.686822 -40.447315
-27.044539 -23.701687 -40.112364
-26.811207 -29.338152 -33.27111
-26.899557 -30.518494 -32.223203
-26.439305 -29.183926 -33.934995
-26.764497 -28.126038 -34.323923
-26.811207 -29.338152 -33.27111
-23.608166 -42.360008 -23.660122
-23.675745 -42.081135 -23.224888
-24.829639 -39.340543 -26.41428
-24.452303 -40.382835 -25.480227
-24.38868 -40.541937 -25.917658
-25.548246 -36.17206 -29.806271
-25.538753 -37.491638 -29.161302
-25.747175 -36.349199 -30.168455
-27.845356 -29.012989 -37.069502
-27.244748 -28.93494 -36.760447
-27.635602 -30.317062 -36.042473
-28.134678 -27.681807 -38.067903
-27.845356 -29.012989 -37.069502
-26.443922 -21.920559 -39.001259
-26.783426 -22.170924 -38.260526
-26.252696 -21.719363 -39.649784
-26.443922 -21.920559 -39.001259
-26.373466 -23.045943 -38.580444
-26.197279 -21.506709 -40.275743
-26.252696 -21.719363 -39.649784
-26.298235 -22.695223 -39.761612
-26.313274 -21.357185 -40.808385
-26.197279 -21.506709 -40.275743
-26.482526 -31.556023 -31.846689
-26.899557 -30.518494 -32.223203
-24.54021 -40.840283 -26.248632
-24.38868 -40.541937 -25.917658
-25.995975 -35.151533 -31.191085
-25.747175 -36.349199 -30.168455
-26.14599 -33.961054 -32.222635
-25.906684 -33.839142 -31.844973
-25.995975 -35.151533 -31.191085
-26.352691 -32.720716 -33.262954
-26.14599 -33.961054 -32.222635
-26.441982 -34.033107 -32.609067
-27.37281 -31.637698 -35.01136
-26.841838 -31.515892 -34.691402
-27.179654 -32.914575 -33.969345
-27.635602 -30.317062 -36.042473
-27.37281 -31.637698 -35.01136
-26.575114 -21.20706 -41.306761
-26.313274 -21.357185 -40.808385
-26.575114 -21.20706 -41.306761
-26.835423 -22.462519 -40.704191
-28.285215 -23.67843 -40.734621
-27.61 -23.686822 -40.447315
-28.72759 -25.041243 -40.014193
-28.285215 -23.67843 -40.734621
-27.006698 -23.475706 -37.180525
-26.783426 -22.170924 -38.260526
-26.713474 -24.530045 -36.86013
-27.006698 -23.475706 -37.180525
-26.564366 -25.632023 -36.449393
-26.415585 -24.349117 -37.521181
-26.713474 -24.530045 -36.86013
-26.627425 -26.892381 -35.388075
-26.764497 -28.126038 -34.323923
-26.329536 -26.711455 -36.049126
-26.564366 -25.632023 -36.449393
-26.627425 -26.892381 -35.388075
-24.379236 -41.002144 -23.581087
-23.675745 -42.081135 -23.224888
-24.77189 -40.07396 -24.510483
-24.379236 -41.002144 -23.581087
-24.079508 -41.367535 -24.551359
-23.608166 -42.360008 -23.660122
-24.520466 -40.166141 -25.047981
-24.079508 -41.367535 -24.551359
-24.452303 -40.382835 -25.480227
-25.144685 -39.08926 -25.439351
-24.77189 -40.07396 -24.510483
-24.520466 -40.166141 -25.047981
-25.428261 -38.100994 -26.396653
-25.144685 -39.08926 -25.439351
-25.701414 -37.061754 -27.359642
-25.428261 -38.100994 -26.396653
-25.166415 -38.142202 -26.939839
-25.878456 -36.014348 -28.344938
-25.701414 -37.061754 -27.359642
-24.937224 -39.735841 -27.19669
-24.54021 -40.840283 -26.248632
-25.224128 -38.643268 -28.170393
-25.538753 -37.491638 -29.161302
-25.05292 -38.407072 -27.825415
-24.937224 -39.735841 -27.19669
-25.224128 -38.643268 -28.170393
-26.059202 -34.921051 -29.339637
-25.878456 -36.014348 -28.344938
-25.620313 -36.009664 -28.897527
-26.140048 -33.816187 -30.351711
-26.059202 -34.921051 -29.339637
-26.24389 -32.67021 -31.373451
-26.140048 -33.816187 -30.351711
-25.904901 -33.77039 -30.913967
-26.247379 -31.510226 -32.408945
-26.482526 -31.556023 -31.846689
-26.24389 -32.67021 -31.373451
-28.389119 -26.363528 -39.064417
-27.708942 -26.312587 -38.783989
-28.134678 -27.681807 -38.067903
-28.72759 -25.041243 -40.014193
-28.389119 -26.363528 -39.064417
3 0 7 6
3 0 9 7
3 25 11 26
3 29 28 11
3 27 28 29
3 1 30 32
3 32 31 8
3 30 31 32
3 1 33 35
3 33 13 34
3 33 34 35
3 2 36 37
3 2 38 40
3 38 14 39
3 38 39 40
3 41 15 42
3 3 43 45
3 43 16 44
3 43 44 45
3 3 17 16
3 4 46 48
3 46 18 47
3 46 47 48
3 4 19 18
3 4 20 19
3 5 21 10
3 5 22 21
3 5 23 22
3 49 24 50
3 51 50 12
3 49 50 51
3 53 52 24
3 6 54 55
3 7 56 58
3 58 57 6
3 56 57 58
3 7 59 60
3 7 61 63
3 61 8 62
3 61 62 63
3 9 8 7
3 9 1 8
3 64 2 65
3 66 3 67
3 68 4 69
3 70 10 71
3 72 71 4
3 70 71 72
3 11 73 75
3 73 10 74
3 73 74 75
3 11 5 10
3 11 12 5
3 76 12 77
3 78 77 11
3 76 77 78
3 80 79 12
3 8 81 82
3 84 83 8
3 13 85 86
3 13 87 88
3 89 6 90
3 91 6 92
3 93 0 94
3 95 94 6
3 93 94 95
3 14 96 97
3 14 98 100
3 98 0 99
3 98 99 100
3 15 101 102
3 15 103 104
3 105 15 106
3 16 107 109
3 107 15 108
3 107 108 109
3 16 110 112
3 112 111 15
3 110 111 112
3 16 113 114
3 17 115 117
3 117 116 16
3 115 116 117
3 17 118 119
3 120 3 121
3 18 122 123
3 18 124 126
3 124 3 125
3 124 125 126
3 18 17 3
3 19 17 18
3 19 127 129
3 129 128 17
3 127 128 129
3 19 130 131
3 20 132 134
3 134 133 19
3 132 133 134
3 20 135 137
3 135 2 136
3 135 136 137
3 10 20 4
3 21 20 10
3 21 2 20
3 21 14 2
3 22 14 21
3 22 0 14
3 22 9 0
3 23 9 22
3 23 1 9
3 12 23 5
3 24 23 12
3 24 1 23
3 24 13 1
3 138 13 139
3 140 139 24
3 138 139 140
3 142 141 13
