ply
format ascii 1.0
element vertex 155
property float x
property float y
property float z
element face 137
property list uchar int vertex_index
end_header
41.869514 66.840141 6.497102
47.873657 60.880127 -1.439663
44.720909 61.353134 7.80862
44.720406 64.184715 2.237878
47.733593 58.43811 3.891124
38.517868 71.498489 5.273478
39.413681 68.479042 10.984397
42.386566 63.672859 12.174652
41.460205 69.547951 0.870136
46.156059 59.948723 5.767693
36.364742 70.554695 12.657304
37.658752 70.482674 10.401423
38.245476 68.80204 13.216505
40.288101 69.30368 5.886543
39.966209 70.666252 3.042406
41.67717 68.25676 3.674017
46.293045 62.59259 0.3042
44.695259 65.439583 -0.488325
46.27409 63.750809 -2.357887
43.325466 64.162605 7.12748
43.236031 65.61544 4.317026
44.710564 62.817429 5.003382
46.237007 61.319458 3.012003
47.840256 59.709091 1.199312
37.09663 72.022316 7.539865
38.958893 70.057175 8.138597
40.607986 67.810783 8.733498
40.973419 66.196777 11.571612
42.090843 65.306976 9.334266
38.044209 72.803375 2.402258
43.147884 66.955276 1.536165
43.006256 68.170631 -1.213892
37.661569 68.775791 14.314519
37.305109 69.678368 12.936905
36.721203 69.652119 14.034919
36.721203 69.652119 14.034919
35.719017 70.408844 13.780732
36.075478 69.506268 15.158347
47.834023 61.405773 -2.733456
47.034239 62.841114 -3.192569
47.073874 62.315468 -1.898775
48.604656 59.983173 -2.194006
47.834023 61.405773 -2.733456
48.541445 57.644924 3.056392
48.594776 58.280414 1.710485
47.786924 59.0736 2.545218
36.391458 72.121731 8.682983
36.051712 72.879307 7.24247
41.679992 64.934818 11.873132
41.194797 65.339378 12.97652
41.901371 64.077419 13.27804
42.928196 63.14204 11.069073
42.780334 63.959099 9.648879
42.238704 64.489918 10.754459
38.281039 72.150932 3.837868
37.281159 73.110325 3.526905
37.517988 72.457882 4.962516
40.526211 70.722947 0.539619
39.779212 71.282097 1.625754
40.713207 70.107101 1.956271
41.313949 70.128204 -0.519563
40.526211 70.722947 0.539619
43.795254 67.368538 -2.194384
43.850758 66.805107 -0.851109
44.639755 66.003014 -1.831601
42.884442 68.710026 -2.570717
43.795254 67.368538 -2.194384
46.128895 59.222721 7.168845
45.438484 60.650928 6.788157
45.41132 59.924926 8.189309
46.877758 58.516285 6.202218
46.128895 59.222721 7.168845
47.666525 57.760979 5.263934
46.944826 59.193416 4.829409
46.877758 58.516285 6.202218
48.473886 57.017693 4.392434
47.666525 57.760979 5.263934
37.011747 70.518685 11.529363
36.672519 71.35191 10.113762
36.025514 71.387921 11.241702
42.582882 62.816185 13.586786
41.901371 64.077419 13.27804
43.047483 62.325985 12.493876
42.582882 62.816185 13.586786
35.324381 71.321205 12.392485
34.678656 71.175354 13.515912
35.719017 70.408844 13.780732
36.025514 71.387921 11.241702
35.324381 71.321205 12.392485
45.42917 65.158626 -2.766382
44.639755 66.003014 -1.831601
45.484674 64.595196 -1.423106
46.20583 64.262287 -3.664896
45.42917 65.158626 -2.766382
46.965978 63.352593 -4.499578
46.20583 64.262287 -3.664896
47.034239 62.841114 -3.192569
48.620621 58.864826 0.403699
48.637321 59.450344 -0.915788
47.856956 60.294609 -0.120175
49.375141 57.436149 0.914872
48.620621 58.864826 0.403699
48.594776 58.280414 1.710485
48.541445 57.644924 3.056392
48.473886 57.017693 4.392434
36.807369 72.719795 6.095709
36.051712 72.879307 7.24247
37.807249 71.760402 6.406671
37.517988 72.457882 4.962516
36.807369 72.719795 6.095709
37.377691 71.252495 8.970644
36.391458 72.121731 8.682983
36.672519 71.35191 10.113762
38.564613 67.903087 14.586013
37.661569 68.775791 14.314519
39.082825 67.79002 13.503673
38.564613 67.903087 14.586013
39.666927 67.628521 12.387619
38.829578 68.640541 12.100451
39.082825 67.79002 13.503673
40.446797 66.487389 12.681227
41.194797 65.339378 12.97652
40.19355 67.337909 11.278004
39.666927 67.628521 12.387619
40.446797 66.487389 12.681227
43.397646 63.386913 8.545486
42.708154 64.734791 8.230873
42.780334 63.959099 9.648879
44.095367 61.982177 8.886057
44.023187 62.757869 7.46805
43.397646 63.386913 8.545486
42.928196 63.14204 11.069073
43.047483 62.325985 12.493876
44.760881 60.580715 9.228256
44.095367 61.982177 8.886057
45.41132 59.924926 8.189309
44.760881 60.580715 9.228256
36.962157 73.740825 2.076734
37.281159 73.110325 3.526905
37.768841 73.391827 0.969396
36.686789 74.329277 0.643873
36.962157 73.740825 2.076734
38.818213 72.350659 1.305679
39.005209 71.734814 2.722332
39.779212 71.282097 1.625754
38.542845 72.93911 -0.127182
37.768841 73.391827 0.969396
38.818213 72.350659 1.305679
42.086975 69.439544 -1.561577
41.313949 70.128204 -0.519563
42.233231 68.859291 -0.171878
42.086975 69.439544 -1.561577
42.884442 68.710026 -2.570717
48.604656 59.983173 -2.194006
48.637321 59.450344 -0.915788
3 32 12 33
3 34 33 10
3 32 33 34
3 35 10 36
3 35 36 37
3 0 15 13
3 1 18 16
3 1 38 40
3 40 39 18
3 38 39 40
3 1 41 42
3 2 21 19
3 4 22 9
3 4 23 22
3 4 43 45
3 45 44 23
3 43 44 45
3 46 24 47
3 6 25 11
3 6 26 25
3 7 48 50
3 48 27 49
3 48 49 50
3 7 28 27
3 7 51 53
3 53 52 28
3 51 52 53
3 5 54 56
3 54 29 55
3 54 55 56
3 8 57 59
3 59 58 14
3 57 58 59
3 8 60 61
3 3 30 20
3 62 31 63
3 64 63 17
3 62 63 64
3 66 65 31
3 67 9 68
3 69 68 2
3 67 68 69
3 70 9 71
3 72 4 73
3 74 73 9
3 72 73 74
3 76 75 4
3 10 77 79
3 77 11 78
3 77 78 79
3 12 11 10
3 12 6 11
3 80 7 81
3 83 82 7
3 10 84 86
3 84 85 86
3 10 87 88
3 13 14 5
3 15 14 13
3 15 8 14
3 16 17 3
3 18 17 16
3 18 89 91
3 91 90 17
3 89 90 91
3 18 92 93
3 96 95 18
3 94 95 96
3 19 20 0
3 21 20 19
3 21 3 20
3 9 21 2
3 22 21 9
3 22 3 21
3 22 16 3
3 23 16 22
3 23 1 16
3 23 97 99
3 99 98 1
3 97 98 99
3 102 101 23
3 100 101 102
3 104 103 4
3 24 105 106
3 24 107 109
3 107 5 108
3 107 108 109
3 11 110 112
3 110 24 111
3 110 111 112
3 25 24 11
3 25 5 24
3 25 13 5
3 26 13 25
3 26 0 13
3 113 12 114
3 115 12 116
3 117 6 118
3 119 118 12
3 117 118 119
3 27 120 121
3 27 122 124
3 122 6 123
3 122 123 124
3 27 26 6
3 28 26 27
3 28 0 26
3 28 19 0
3 125 19 126
3 127 126 28
3 125 126 127
3 128 2 129
3 130 129 19
3 128 129 130
3 132 131 7
3 133 2 134
3 136 135 2
3 29 137 138
3 29 139 141
3 139 140 141
3 14 29 5
3 142 29 143
3 144 143 14
3 142 143 144
3 147 146 29
3 145 146 147
3 20 15 0
3 30 15 20
3 30 8 15
3 17 30 3
3 31 30 17
3 31 8 30
3 31 148 150
3 150 149 8
3 148 149 150
3 152 151 31
3 154 153 1
