ply
format ascii 1.0
element vertex 86
property float x
property float y
property float z
element face 68
property list uchar int vertex_index
end_header
1.029964 -12.588961 66.32
-0.223736 -6.663473 71.205116
-0.356415 -15.041361 70.70565
1.375185 -20.707771 65.81813
2.929865 -18.278969 61.535706
0.28727 -9.645607 68.775436
-0.311541 -10.875978 70.952774
0.314854 -13.812732 68.488457
0.395056 -17.91102 68.243324
1.175873 -16.692451 66.029686
2.197174 -19.498356 63.626801
1.940985 -15.469996 63.891586
-0.823837 -12.123141 73.146072
2.497108 -23.422962 63.476822
-0.440505 -7.28833 72.282601
-0.343726 -5.170716 72.374313
-0.651393 -15.658748 71.831375
-0.885104 -14.199637 73.051586
-0.590126 -13.582251 71.925861
-0.351043 -17.083628 70.612671
-0.651393 -15.658748 71.831375
0.954859 -21.307334 66.95679
0.464794 -19.908959 68.169387
0.885121 -19.309396 67.030727
1.501281 -22.655572 65.778408
0.954859 -21.307334 66.95679
1.936146 -22.065366 64.647476
2.062242 -24.013168 64.607754
1.501281 -22.655572 65.778408
3.102526 -20.253473 61.429531
2.736181 -20.863167 62.475079
2.563519 -18.888663 62.581254
3.406792 -19.648874 60.416225
3.102526 -20.253473 61.429531
-0.165625 -4.549831 71.303024
-0.343726 -5.170716 72.374313
0.039403 -6.053793 70.123352
-0.165625 -4.549831 71.303024
0.294906 -7.544861 68.908512
0.031767 -8.15454 69.990276
0.039403 -6.053793 70.123352
0.610797 -9.038723 67.701054
0.294906 -7.544861 68.908512
0.982144 -10.5104 66.473335
0.658617 -11.117284 67.547718
0.610797 -9.038723 67.701054
1.381512 -11.979926 65.265389
0.982144 -10.5104 66.473335
-0.484407 -9.394583 72.15643
-0.440505 -7.28833 72.282601
-0.267639 -8.769725 71.078945
-0.740556 -10.018165 73.253079
-0.484407 -9.394583 72.15643
-0.567689 -11.49956 72.049423
-0.900733 -10.658941 74.318244
-0.740556 -10.018165 73.253079
-1.027022 -12.756504 74.241672
-0.900733 -10.658941 74.318244
-1.027022 -12.756504 74.241672
-0.885104 -14.199637 73.051586
0.024693 -18.518458 69.381507
-0.351043 -17.083628 70.612671
0.019321 -16.476191 69.474487
0.024693 -18.518458 69.381507
0.464794 -19.908959 68.169387
2.664865 -25.319208 63.483742
2.062242 -24.013168 64.607754
3.070704 -24.742219 62.367924
2.664865 -25.319208 63.483742
2.886148 -22.82547 62.400089
2.347141 -21.460659 63.551811
2.736181 -20.863167 62.475079
3.070704 -24.742219 62.367924
2.886148 -22.82547 62.400089
1.837022 -13.420443 64.051181
1.485475 -14.029478 65.105793
1.381512 -11.979926 65.265389
2.280743 -14.857507 62.865825
1.837022 -13.420443 64.051181
2.775183 -16.261993 61.687886
2.435425 -16.874482 62.713646
2.280743 -14.857507 62.865825
3.213291 -17.664978 60.547359
2.775183 -16.261993 61.687886
3.406792 -19.648874 60.416225
3.213291 -17.664978 60.547359
3 0 7 5
3 0 9 7
3 0 11 9
3 1 14 15
3 2 12 6
3 2 16 18
3 18 17 12
3 16 17 18
3 2 19 20
3 3 21 23
3 23 22 8
3 21 22 23
3 3 24 25
3 3 26 28
3 26 13 27
3 26 27 28
3 4 29 31
3 31 30 10
3 29 30 31
3 4 32 33
3 5 6 1
3 7 6 5
3 7 2 6
3 7 8 2
3 9 8 7
3 9 3 8
3 9 10 3
3 11 10 9
3 11 4 10
3 34 1 35
3 36 1 37
3 38 5 39
3 40 39 1
3 38 39 40
3 41 5 42
3 43 0 44
3 45 44 5
3 43 44 45
3 47 46 0
3 6 48 50
3 50 49 1
3 48 49 50
3 12 51 53
3 53 52 6
3 51 52 53
3 12 54 55
3 12 56 57
3 59 58 12
3 8 60 62
3 62 61 2
3 60 61 62
3 64 63 8
3 13 65 66
3 13 67 68
3 10 13 3
3 69 13 70
3 71 70 10
3 69 70 71
3 73 72 13
3 74 11 75
3 76 75 0
3 74 75 76
3 77 11 78
3 79 4 80
3 81 80 11
3 79 80 81
3 82 4 83
3 85 84 4
