ply
format ascii 1.0
element vertex 123
property float x
property float y
property float z
element face 105
property list uchar int vertex_index
end_header
46.346249 -66.273041 50.361885
40.857025 -72.651733 52.485313
36.149734 -65.676117 53.210159
43.778881 -69.619919 51.440033
39.667984 -67.723099 51.84417
37.081551 -70.331497 53.425392
48.404037 -66.956314 50.23365
47.163193 -68.717926 50.77491
40.888451 -66.249313 51.14991
38.904766 -65.323151 51.535431
35.138096 -66.829407 54.320213
36.630173 -67.965561 53.285065
42.35347 -71.18605 51.962769
44.356075 -72.099564 51.744446
42.811523 -73.678741 52.181778
44.19717 -65.505707 50.402771
45.112392 -67.976288 50.90995
42.990921 -67.144043 50.985703
41.699501 -68.705307 51.579323
40.333717 -70.172432 52.19873
37.785973 -66.703705 52.361382
38.392338 -69.088821 52.600174
38.915291 -71.525131 52.852501
45.812653 -70.438141 51.276794
46.916601 -65.399135 50.077561
45.833703 -65.039254 50.09124
47.375143 -66.614677 50.297767
47.945495 -65.740772 50.013443
46.916601 -65.399135 50.077561
38.499935 -64.158411 51.453175
39.439804 -64.578255 51.161541
35.295452 -67.965881 54.315208
34.624544 -67.34687 54.940212
42.516144 -65.91301 50.742554
43.594046 -66.324875 50.694237
43.119269 -65.093841 50.451088
36.967854 -66.189911 52.78577
37.462061 -65.550545 52.297711
36.643941 -65.036751 52.722099
37.276134 -71.535885 53.480221
38.193005 -72.132702 53.193775
37.998421 -70.928314 53.138947
43.119269 -65.093841 50.451088
43.661905 -64.270575 50.139522
45.30888 -72.492561 51.568615
44.526685 -73.337437 51.766579
48.737426 -68.150833 50.338676
49.353431 -67.244766 50.062134
48.117005 -69.031639 50.609307
48.737426 -68.150833 50.338676
47.783615 -67.83712 50.50428
47.443653 -69.926368 50.859676
48.117005 -69.031639 50.609307
48.974693 -66.061981 49.945629
47.945495 -65.740772 50.013443
49.353431 -67.244766 50.062134
48.974693 -66.061981 49.945629
40.431646 -65.041336 50.96878
41.464909 -65.465644 50.824658
39.896608 -65.786232 51.34267
40.431646 -65.041336 50.96878
39.439804 -64.578255 51.161541
36.04149 -68.533958 53.797635
35.884135 -67.397484 53.802639
35.295452 -67.965881 54.315208
36.267179 -69.716926 53.867798
36.855862 -69.148529 53.355229
36.04149 -68.533958 53.797635
36.418991 -70.883934 53.86768
36.267179 -69.716926 53.867798
43.75441 -74.127026 51.985245
44.526685 -73.337437 51.766579
43.583799 -72.889152 51.963112
35.910099 -64.588764 53.242549
36.643941 -65.036751 52.722099
35.491718 -65.16901 53.808006
35.910099 -64.588764 53.242549
34.985899 -65.745655 54.363033
35.643915 -66.252762 53.765186
35.491718 -65.16901 53.808006
34.558517 -66.263134 55.015953
34.985899 -65.745655 54.363033
34.044966 -66.780597 55.635952
34.624544 -67.34687 54.940212
34.558517 -66.263134 55.015953
41.032671 -73.897956 52.534035
40.087913 -73.319996 52.744243
41.939686 -66.696678 51.067807
42.516144 -65.91301 50.742554
41.464909 -65.465644 50.824658
38.021457 -64.860268 51.884735
38.499935 -64.158411 51.453175
37.616626 -63.695528 51.802479
38.34537 -66.013428 51.948407
38.021457 -64.860268 51.884735
37.462061 -65.550545 52.297711
39.117047 -72.756695 52.927837
40.087913 -73.319996 52.744243
39.886158 -72.088432 52.668907
39.117047 -72.756695 52.927837
38.193005 -72.132702 53.193775
37.276134 -71.535885 53.480221
36.418991 -70.883934 53.86768
44.759163 -64.655586 50.111683
43.661905 -64.270575 50.139522
45.27171 -65.889374 50.382328
45.833703 -65.039254 50.09124
44.759163 -64.655586 50.111683
46.768383 -70.786476 51.110619
47.443653 -69.926368 50.859676
46.487923 -69.578034 51.025852
46.037168 -71.66185 51.334789
45.084364 -71.268853 51.51062
45.30888 -72.492561 51.568615
46.768383 -70.786476 51.110619
46.037168 -71.66185 51.334789
42.00992 -74.411461 52.382267
41.834274 -73.165237 52.333545
41.032671 -73.897956 52.534035
42.934792 -74.925556 52.152473
42.00992 -74.411461 52.382267
43.75441 -74.127026 51.985245
42.934792 -74.925556 52.152473
3 0 7 6
3 0 24 25
3 0 26 28
3 26 6 27
3 26 27 28
3 29 9 30
3 32 31 10
3 1 14 12
3 33 17 34
3 35 34 15
3 33 34 35
3 4 18 8
3 4 19 18
3 2 36 38
3 36 20 37
3 36 37 38
3 5 21 11
3 5 22 21
3 5 39 41
3 41 40 22
3 39 40 41
3 42 15 43
3 3 23 16
3 45 44 13
3 6 46 47
3 7 48 50
3 50 49 6
3 48 49 50
3 7 51 52
3 6 53 54
3 6 55 56
3 57 8 58
3 9 59 61
3 59 8 60
3 59 60 61
3 9 4 8
3 10 11 2
3 62 11 63
3 64 63 10
3 62 63 64
3 65 5 66
3 67 66 11
3 65 66 67
3 69 68 5
3 12 13 3
3 14 13 12
3 14 70 72
3 72 71 13
3 70 71 72
3 73 2 74
3 75 2 76
3 77 10 78
3 79 78 2
3 77 78 79
3 80 10 81
3 84 83 10
3 82 83 84
3 86 85 1
3 15 16 0
3 17 16 15
3 17 3 16
3 8 87 89
3 87 17 88
3 87 88 89
3 18 17 8
3 18 3 17
3 18 12 3
3 19 12 18
3 19 1 12
3 90 9 91
3 90 91 92
3 20 93 95
3 93 9 94
3 93 94 95
3 20 4 9
3 11 20 2
3 21 20 11
3 21 4 20
3 21 19 4
3 22 19 21
3 22 1 19
3 22 96 98
3 98 97 1
3 96 97 98
3 100 99 22
3 102 101 5
3 15 103 104
3 15 105 107
3 105 0 106
3 105 106 107
3 16 7 0
3 23 7 16
3 23 108 110
3 110 109 7
3 108 109 110
3 13 23 3
3 111 23 112
3 113 112 13
3 111 112 113
3 115 114 23
3 116 14 117
3 118 117 1
3 116 117 118
3 119 14 120
3 122 121 14
