ply
format ascii 1.0
element vertex 244
property float x
property float y
property float z
element face 240
property list uchar int vertex_index
end_header
54.75531 -52.193531 48.158661
57.449577 -61.059349 45.779381
51.873646 -42.390968 50.096649
50.562378 -59.162273 48.217094
59.823509 -45.372002 49.84993
48.552753 -62.747417 49.219048
52.484818 -63.892445 48.686943
53.136375 -47.339306 49.172897
55.979862 -43.993622 50.356178
57.179321 -48.807957 49.088737
56.359097 -56.809155 47.093742
58.389584 -53.379238 47.230042
59.282738 -57.588833 45.033058
52.57843 -55.628113 47.778496
54.443855 -60.302685 47.620789
58.921211 -40.578461 50.849731
60.648911 -49.931274 47.655285
49.545349 -65.167648 49.657608
53.922066 -49.78743 48.67337
55.211739 -48.10759 49.246437
55.934448 -50.500992 48.593689
57.002655 -58.986401 46.493782
57.939358 -57.256672 46.258018
58.364452 -59.317486 45.344711
51.558449 -57.383591 47.901878
53.570347 -58.004238 47.716145
52.5952 -59.773174 48.041924
54.142277 -64.314148 47.991844
57.958336 -44.721378 50.265648
57.452831 -42.297295 50.732689
59.371578 -42.995651 50.508629
59.912148 -53.814159 46.180542
59.488487 -51.662193 47.445724
60.981697 -52.082336 46.23912
58.565495 -61.26358 44.311157
49.568863 -60.954708 48.675804
51.615417 -61.563286 48.512146
50.607384 -63.365509 49.069534
51.433689 -65.711563 49.29567
52.440201 -44.867565 49.645973
53.935081 -43.206421 50.250465
54.533508 -45.670403 49.802559
56.562561 -46.423313 49.812859
58.482491 -47.101021 49.541428
55.587341 -54.539768 47.636177
56.663132 -52.834145 47.86919
57.350712 -55.091084 47.091251
58.902405 -55.53619 46.166252
60.228111 -55.862343 44.831646
59.471039 -59.525528 43.819466
60.383518 -57.79451 43.420292
50.330429 -44.051373 49.489815
50.997894 -46.533371 49.004936
51.80278 -49.015877 48.572968
52.700104 -51.477966 48.194611
51.54512 -53.191395 47.888283
53.639587 -53.899273 47.869019
54.561626 -56.260479 47.576782
55.396687 -58.544044 47.270966
56.070808 -60.735508 46.880325
53.480408 -62.08675 48.110115
55.123764 -62.510803 47.394386
56.517426 -62.824959 46.323006
55.462269 -41.535355 50.718193
56.995277 -39.845547 50.962097
57.800087 -51.131657 48.214409
59.000992 -49.419754 48.584511
60.25544 -47.689518 48.882248
49.984127 -57.932525 48.071979
49.478226 -58.826101 48.231728
51.060414 -58.272932 48.059486
50.482163 -57.043185 47.914372
49.984127 -57.932525 48.071979
52.663607 -41.561945 50.353058
51.675619 -41.159607 50.327053
60.495365 -44.497096 49.889332
60.269399 -43.30892 50.218682
59.597544 -44.183827 50.179279
61.102009 -53.105951 45.47092
60.446922 -52.948247 46.209831
60.567234 -53.971863 45.441631
47.973203 -61.514105 48.961925
47.465651 -62.402914 49.232185
49.060808 -61.851062 48.947426
48.481258 -60.61775 48.690303
47.973203 -61.514105 48.961925
50.868257 -66.62239 49.593143
50.489519 -65.439605 49.476639
49.924087 -66.350433 49.774113
51.713493 -66.849708 49.266689
50.868257 -66.62239 49.593143
59.444044 -60.432178 43.160325
59.018267 -60.394554 44.065311
58.991272 -61.301204 43.40617
60.817339 -57.830183 42.438359
60.354654 -58.697764 42.683895
60.85593 -56.927716 43.259432
60.817339 -57.830183 42.438359
49.587311 -44.890219 49.186844
49.290989 -43.659574 49.481922
48.547871 -44.49842 49.178951
49.921043 -46.131218 48.944405
50.664162 -45.292372 49.247376
49.587311 -44.890219 49.186844
51.171409 -49.865099 48.334885
50.712704 -48.617489 48.499852
51.620072 -51.096143 48.145707
52.251442 -50.246921 48.38379
51.171409 -49.865099 48.334885
52.061775 -54.409754 47.833389
50.997949 -54.062502 47.842944
51.514604 -55.280861 47.78805
55.337136 -63.566151 47.167429
54.633021 -63.412475 47.693115
54.846392 -64.467823 47.466158
56.033967 -63.723229 46.631739
55.820595 -62.667881 46.858696
55.337136 -63.566151 47.167429
56.604839 -63.816677 45.923975
56.033967 -63.723229 46.631739
58.711662 -39.35815 50.88409
57.748695 -38.991693 50.940273
57.958244 -40.212004 50.905914
59.633907 -39.712119 50.751019
58.711662 -39.35815 50.88409
48.019853 -63.636323 49.506142
47.465651 -62.402914 49.232185
48.516151 -64.846439 49.725422
49.049051 -63.957532 49.438328
48.019853 -63.636323 49.506142
48.974693 -66.061981 49.945629
48.516151 -64.846439 49.725422
47.945495 -65.740772 50.013443
49.924087 -66.350433 49.774113
48.974693 -66.061981 49.945629
51.004614 -56.1586 47.849741
50.482163 -57.043185 47.914372
52.068439 -56.505852 47.840187
51.514604 -55.280861 47.78805
51.004614 -56.1586 47.849741
53.624178 -65.228218 48.306598
53.313547 -64.103296 48.339393
52.795448 -65.017366 48.654148
54.337111 -65.382641 47.789423
53.624178 -65.228218 48.306598
54.846392 -64.467823 47.466158
54.337111 -65.382641 47.789423
60.067633 -42.123232 50.488816
59.842449 -40.914637 50.659367
59.146394 -41.787056 50.67918
60.067633 -42.123232 50.488816
60.269399 -43.30892 50.218682
58.105151 -62.142189 44.599787
58.007536 -61.161464 45.045269
57.547191 -62.040073 45.333899
58.533434 -62.177156 43.712993
58.105151 -62.142189 44.599787
58.991272 -61.301204 43.40617
58.533434 -62.177156 43.712993
48.981468 -59.722319 48.461083
48.481258 -60.61775 48.690303
50.065621 -60.05849 48.446449
49.478226 -58.826101 48.231728
48.981468 -59.722319 48.461083
52.269884 -65.926925 48.958512
52.795448 -65.017366 48.654148
51.959254 -64.802004 48.991307
52.269884 -65.926925 48.958512
51.713493 -66.849708 49.266689
60.725216 -54.995954 44.767184
60.567234 -53.971863 45.441631
60.07013 -54.838251 45.506094
59.898415 -59.563272 42.883482
59.444044 -60.432178 43.160325
59.927278 -58.660019 43.619879
59.898415 -59.563272 42.883482
60.354654 -58.697764 42.683895
60.778227 -55.961632 43.965109
60.305814 -56.828427 44.125969
60.85593 -56.927716 43.259432
60.725216 -54.995954 44.767184
60.778227 -55.961632 43.965109
50.858621 -41.990882 50.069435
51.675619 -41.159607 50.327053
50.087013 -42.821085 49.766018
49.290989 -43.659574 49.481922
51.102038 -43.22117 49.793232
50.858621 -41.990882 50.069435
50.087013 -42.821085 49.766018
50.31026 -47.376236 48.715835
49.921043 -46.131218 48.944405
51.400337 -47.774624 48.788952
50.31026 -47.376236 48.715835
50.712704 -48.617489 48.499852
50.447464 -52.817346 47.850102
50.997949 -54.062502 47.842944
51.04258 -51.952858 47.992542
50.447464 -52.817346 47.850102
52.122612 -52.334681 48.041447
51.620072 -51.096143 48.145707
51.04258 -51.952858 47.992542
57.081116 -62.922878 45.605711
57.547191 -62.040073 45.333899
56.983502 -61.942154 46.051193
57.081116 -62.922878 45.605711
56.604839 -63.816677 45.923975
53.694324 -41.969672 50.429966
52.663607 -41.561945 50.353058
52.904364 -42.798694 50.173557
54.457918 -41.134139 50.66383
53.694324 -41.969672 50.429966
54.698675 -42.370888 50.484329
55.254064 -40.30019 50.829696
54.457918 -41.134139 50.66383
56.020568 -39.455286 50.951649
55.254064 -40.30019 50.829696
56.228773 -40.690451 50.840145
56.808872 -38.613833 50.992592
56.020568 -39.455286 50.951649
57.56229 -37.759979 50.970768
56.808872 -38.613833 50.992592
57.748695 -38.991693 50.940273
60.555145 -40.048294 50.560654
59.633907 -39.712119 50.751019
59.842449 -40.914637 50.659367
61.628921 -52.234924 45.415864
61.102009 -53.105951 45.47092
61.545051 -51.210189 46.254253
61.628921 -52.234924 45.415864
61.378659 -50.134659 46.962335
60.815304 -51.006805 46.947203
61.545051 -51.210189 46.254253
61.251739 -49.057693 47.714144
61.378659 -50.134659 46.962335
61.055004 -47.936816 48.327625
60.452175 -48.810396 48.268766
61.251739 -49.057693 47.714144
60.895634 -46.814665 48.94976
61.055004 -47.936816 48.327625
60.679669 -45.655907 49.433602
60.039474 -46.53076 49.366089
60.895634 -46.814665 48.94976
60.495365 -44.497096 49.889332
60.679669 -45.655907 49.433602
3 0 20 18
3 1 23 21
3 3 68 69
3 3 70 72
3 70 24 71
3 70 71 72
3 3 26 24
3 2 73 74
3 4 30 28
3 4 75 77
3 77 76 30
3 75 76 77
3 78 33 79
3 80 79 31
3 78 79 80
3 5 81 82
3 5 83 85
3 83 35 84
3 83 84 85
3 5 37 35
3 86 38 87
3 88 87 17
3 86 87 88
3 90 89 38
3 7 41 39
3 9 42 19
3 9 43 42
3 10 46 44
3 12 47 22
3 12 48 47
3 91 49 92
3 93 92 34
3 91 92 93
3 94 50 95
3 97 96 50
3 98 51 99
3 98 99 100
3 101 52 102
3 103 102 51
3 101 102 103
3 104 53 105
3 106 54 107
3 108 107 53
3 106 107 108
3 13 109 111
3 109 55 110
3 109 110 111
3 13 56 55
3 13 57 56
3 14 58 25
3 14 59 58
3 6 60 36
3 112 61 113
3 114 113 27
3 112 113 114
3 115 62 116
3 117 116 61
3 115 116 117
3 119 118 62
3 8 63 40
3 15 64 29
3 15 120 122
3 122 121 64
3 120 121 122
3 15 123 124
3 11 65 45
3 16 66 32
3 16 67 66
3 125 5 126
3 127 17 128
3 129 128 5
3 127 128 129
3 130 17 131
3 130 131 132
3 134 133 17
3 18 19 7
3 20 19 18
3 20 9 19
3 21 22 10
3 23 22 21
3 23 12 22
3 24 135 136
3 24 137 139
3 137 13 138
3 137 138 139
3 24 25 13
3 26 25 24
3 26 14 25
3 140 27 141
3 142 141 6
3 140 141 142
3 143 27 144
3 146 145 27
3 28 29 8
3 30 29 28
3 30 15 29
3 30 147 149
3 149 148 15
3 147 148 149
3 151 150 30
3 31 32 11
3 33 32 31
3 33 16 32
3 152 34 153
3 154 153 1
3 152 153 154
3 155 34 156
3 158 157 34
3 35 159 160
3 35 161 163
3 161 3 162
3 161 162 163
3 35 36 3
3 37 36 35
3 37 6 36
3 17 37 5
3 38 37 17
3 38 6 37
3 38 164 166
3 166 165 6
3 164 165 166
3 168 167 38
3 39 40 2
3 41 40 39
3 41 8 40
3 19 41 7
3 42 41 19
3 42 8 41
3 42 28 8
3 43 28 42
3 43 4 28
3 44 45 0
3 46 45 44
3 46 11 45
3 22 46 10
3 47 46 22
3 47 11 46
3 47 31 11
3 48 31 47
3 48 169 171
3 171 170 31
3 169 170 171
3 34 23 1
3 49 23 34
3 49 12 23
3 172 49 173
3 50 174 176
3 174 49 175
3 174 175 176
3 50 12 49
3 50 48 12
3 177 48 178
3 179 178 50
3 177 178 179
3 181 180 48
3 182 2 183
3 51 184 185
3 51 186 188
3 186 2 187
3 186 187 188
3 51 39 2
3 52 39 51
3 52 7 39
3 189 52 190
3 53 191 193
3 191 52 192
3 191 192 193
3 53 7 52
3 53 18 7
3 54 18 53
3 54 0 18
3 55 194 195
3 55 196 197
3 55 198 200
3 198 54 199
3 198 199 200
3 56 54 55
3 56 0 54
3 56 44 0
3 57 44 56
3 57 10 44
3 25 57 13
3 58 57 25
3 58 10 57
3 58 21 10
3 59 21 58
3 59 1 21
3 36 26 3
3 60 26 36
3 60 14 26
3 27 60 6
3 61 60 27
3 61 14 60
3 61 59 14
3 62 59 61
3 62 1 59
3 62 201 203
3 203 202 1
3 201 202 203
3 205 204 62
3 40 206 208
3 208 207 2
3 206 207 208
3 63 209 211
3 211 210 40
3 209 210 211
3 63 212 213
3 29 63 8
3 64 63 29
3 64 214 216
3 216 215 63
3 214 215 216
3 64 217 218
3 221 220 64
3 219 220 221
3 224 223 15
3 222 223 224
3 45 20 0
3 65 20 45
3 65 9 20
3 32 65 11
3 66 65 32
3 66 9 65
3 66 43 9
3 67 43 66
3 67 4 43
3 225 33 226
3 227 33 228
3 229 16 230
3 231 230 33
3 229 230 231
3 232 16 233
3 234 67 235
3 236 235 16
3 234 235 236
3 237 67 238
3 239 4 240
3 241 240 67
3 239 240 241
3 243 242 4
