ply
format ascii 1.0
element vertex 135
property float x
property float y
property float z
element face 114
property list uchar int vertex_index
end_header
62.637047 -68.58847 -13.459587
62.992073 -68.947868 -9.191139
66.256828 -63.97575 -8.770992
66.40583 -62.852291 -13.046158
58.907463 -74.427849 -9.549021
65.229668 -65.084381 -4.571733
61.841198 -68.618355 -17.644152
62.877251 -68.720474 -11.324238
64.799187 -65.987099 -11.128736
64.637566 -65.655708 -13.273928
64.342583 -65.447113 -15.412872
64.21109 -67.273621 -4.771902
67.218163 -61.635082 -8.533081
62.95369 -69.229019 -7.070457
64.611343 -66.861954 -6.873793
64.800262 -66.409004 -8.992966
66.430504 -63.37952 -10.900747
61.040337 -71.6996 -7.249268
60.98217 -71.612869 -9.3696
60.803337 -71.58786 -11.498672
65.860336 -64.569321 -6.661474
58.696167 -74.599686 -11.681311
60.525261 -71.64537 -13.622599
62.290657 -68.562164 -15.576799
63.929779 -65.358849 -17.51956
63.4738 -68.387681 -4.868031
63.26906 -68.48642 -3.819943
67.105133 -61.520067 -12.911023
67.11747 -61.783682 -11.838318
66.418167 -63.115905 -11.973453
67.091388 -61.217186 -13.982761
67.105133 -61.520067 -12.911023
60.02908 -72.958466 -6.278659
60.996674 -71.750621 -6.195361
59.944817 -73.020359 -9.459311
60.0019 -72.961167 -8.395999
58.964546 -74.368657 -8.48571
64.800396 -65.269882 -3.534707
63.982456 -66.515236 -2.590334
64.411728 -66.329735 -3.62736
65.455418 -64.000494 -4.472755
64.800396 -65.269882 -3.534707
66.893513 -61.984335 -7.488159
67.395684 -60.508319 -8.411245
58.548298 -74.712506 -12.74098
57.671948 -76.181557 -11.797821
59.462845 -73.235348 -13.711624
59.610714 -73.122528 -12.651955
58.548298 -74.712506 -12.74098
60.998543 -70.196625 -16.679953
60.763132 -70.278164 -17.692505
62.065928 -68.59026 -16.610475
61.223273 -70.16853 -15.646276
60.998543 -70.196625 -16.679953
65.424664 -64.050808 -14.234903
66.308796 -62.6491 -14.121018
65.521698 -64.254 -13.160043
65.277172 -63.946511 -15.304374
65.424664 -64.050808 -14.234903
64.490075 -65.551411 -14.3434
65.107369 -63.813869 -16.37127
65.277172 -63.946511 -15.304374
57.967354 -75.759933 -8.583163
58.964546 -74.368657 -8.48571
63.902439 -67.424355 -3.727444
63.26906 -68.48642 -3.819943
64.720379 -66.179001 -4.671817
64.411728 -66.329735 -3.62736
63.902439 -67.424355 -3.727444
67.421978 -61.264633 -9.588886
66.737495 -62.805416 -8.652036
66.941311 -62.434967 -9.707842
67.736687 -60.083258 -9.452821
67.421978 -61.264633 -9.588886
67.395684 -60.508319 -8.411245
67.736687 -60.083258 -9.452821
61.558 -68.66267 -18.632004
60.763132 -70.278164 -17.692505
62.619967 -66.986637 -18.60075
61.558 -68.66267 -18.632004
63.782516 -68.045486 -6.972125
63.673927 -68.181847 -5.918977
62.845101 -69.365379 -6.017309
67.028149 -62.136852 -10.772719
66.941311 -62.434967 -9.707842
66.343666 -63.677635 -9.83587
67.028149 -62.136852 -10.772719
67.11747 -61.783682 -11.838318
67.091388 -61.217186 -13.982761
66.308796 -62.6491 -14.121018
61.95335 -70.515331 -6.105956
62.845101 -69.365379 -6.017309
61.997014 -70.464309 -7.159863
61.95335 -70.515331 -6.105956
60.996674 -71.750621 -6.195361
60.030983 -73.004532 -7.335833
60.02908 -72.958466 -6.278659
61.011254 -71.656235 -8.309434
60.030983 -73.004532 -7.335833
60.0019 -72.961167 -8.395999
64.411216 -67.067788 -5.822847
63.4738 -68.387681 -4.868031
63.673927 -68.181847 -5.918977
66.214599 -63.451454 -6.552355
66.53925 -63.102201 -7.597277
66.893513 -61.984335 -7.488159
65.899265 -63.708984 -5.507485
65.545002 -64.826851 -5.616604
66.214599 -63.451454 -6.552355
66.125015 -62.625097 -5.408507
65.455418 -64.000494 -4.472755
65.899265 -63.708984 -5.507485
57.893456 -75.9202 -9.656844
57.967354 -75.759933 -8.583163
57.787807 -76.006119 -10.722988
56.763588 -77.58799 -10.839499
57.671948 -76.181557 -11.797821
58.801815 -74.513768 -10.615166
57.893456 -75.9202 -9.656844
57.787807 -76.006119 -10.722988
60.340575 -71.710133 -14.669176
59.462845 -73.235348 -13.711624
61.407959 -70.103767 -14.599699
60.340575 -71.710133 -14.669176
61.223273 -70.16853 -15.646276
64.900966 -63.769738 -17.424614
65.107369 -63.813869 -16.37127
64.136181 -65.402981 -16.466216
63.664257 -65.356884 -18.538454
62.885489 -66.988602 -17.581856
62.619967 -66.986637 -18.60075
64.664276 -63.699816 -18.468273
63.664257 -65.356884 -18.538454
64.900966 -63.769738 -17.424614
64.664276 -63.699816 -18.468273
3 0 9 7
3 0 10 9
3 25 11 26
3 1 15 13
3 3 16 8
3 3 27 29
3 29 28 16
3 27 28 29
3 3 30 31
3 32 17 33
3 4 34 36
3 34 18 35
3 34 35 36
3 4 19 18
3 5 37 39
3 37 38 39
3 5 40 41
3 2 20 14
3 43 42 12
3 44 21 45
3 46 22 47
3 48 47 21
3 46 47 48
3 6 49 50
3 6 51 53
3 51 23 52
3 51 52 53
3 6 24 23
3 7 8 1
3 9 8 7
3 9 3 8
3 9 54 56
3 56 55 3
3 54 55 56
3 10 57 59
3 59 58 9
3 57 58 59
3 10 60 61
3 62 4 63
3 11 64 65
3 11 66 68
3 66 5 67
3 66 67 68
3 69 12 70
3 71 70 2
3 69 70 71
3 72 12 73
3 75 74 12
3 76 6 77
3 79 78 6
3 13 80 82
3 80 14 81
3 80 81 82
3 15 14 13
3 15 2 14
3 8 15 1
3 16 15 8
3 16 2 15
3 16 83 85
3 85 84 2
3 83 84 85
3 87 86 16
3 89 88 3
3 90 13 91
3 17 92 94
3 92 13 93
3 92 93 94
3 17 1 13
3 95 17 96
3 18 97 99
3 97 17 98
3 97 98 99
3 18 1 17
3 18 7 1
3 19 7 18
3 19 0 7
3 14 100 102
3 100 11 101
3 100 101 102
3 20 11 14
3 20 5 11
3 12 20 2
3 103 20 104
3 105 104 12
3 103 104 105
3 106 5 107
3 108 107 20
3 106 107 108
3 111 110 5
3 109 110 111
3 112 4 113
3 21 114 116
3 114 115 116
3 21 117 119
3 117 4 118
3 117 118 119
3 21 19 4
3 22 19 21
3 22 0 19
3 120 22 121
3 23 122 124
3 122 22 123
3 122 123 124
3 23 0 22
3 23 10 0
3 24 10 23
3 24 125 127
3 127 126 10
3 125 126 127
3 128 24 129
3 130 129 6
3 128 129 130
3 131 24 132
3 134 133 24
