ply
format ascii 1.0
element vertex 187
property float x
property float y
property float z
element face 179
property list uchar int vertex_index
end_header
60.066856 -69.387543 3.454607
54.57621 -77.284828 2.948848
53.593819 -74.139938 12.166582
49.175743 -82.48053 12.098986
51.23568 -77.991814 12.161824
57.697136 -73.235329 3.177364
61.72897 -69.765411 -0.773264
58.074192 -68.332703 7.783916
56.546593 -72.065514 7.610638
53.976295 -75.784882 7.454169
51.334396 -79.970055 7.332267
49.423531 -84.910576 7.063951
60.658218 -67.410385 3.587018
61.778179 -67.661385 1.487493
56.155907 -75.203514 3.056856
58.197426 -73.643333 1.025508
56.526909 -75.721275 0.892951
54.620384 -72.333427 12.186087
55.964722 -71.334885 9.893976
54.95575 -73.140739 9.834854
55.337814 -73.897591 7.524544
53.747963 -74.972801 9.787196
50.124344 -80.143166 12.152063
51.214493 -78.965668 9.724075
50.119942 -81.221054 9.671535
50.267555 -82.345322 7.233222
49.231392 -83.668053 9.562346
53.095795 -79.535339 2.836582
54.86866 -77.939781 0.765172
52.507935 -75.129242 14.600522
52.428867 -76.006096 12.160036
59.047077 -71.315918 3.313047
60.963722 -69.665466 1.330733
59.727673 -71.644531 1.172648
60.289524 -71.820694 -0.941565
59.084721 -68.937759 5.605398
56.69175 -69.498566 9.949953
57.483932 -70.226364 7.702845
58.285126 -70.838242 5.488815
57.135117 -72.704742 5.370707
55.747185 -74.591072 5.264881
54.263489 -76.56192 5.175166
52.45882 -76.895248 9.754154
52.599564 -77.791824 7.396065
52.827484 -78.678757 5.091443
51.554218 -80.984924 4.990171
50.504971 -83.494141 4.838979
48.416969 -84.992798 11.965643
48.538788 -86.280975 9.360888
62.772266 -67.713928 -0.59964
54.107101 -73.236683 12.176334
54.068047 -72.811359 13.381718
53.554764 -73.714615 13.371965
53.221407 -79.94128 1.727802
52.453167 -80.76191 2.76418
52.10682 -75.641697 15.861984
52.593212 -74.691925 15.829303
51.957215 -76.093277 14.617095
52.10682 -75.641697 15.861984
59.445124 -72.874108 -1.018943
59.243475 -72.732013 0.041972
58.399074 -73.785427 -0.035407
60.496376 -71.8405 -1.991829
59.445124 -72.874108 -1.018943
55.844929 -77.042026 -0.237782
54.981916 -78.233158 -0.313464
58.773786 -67.651413 6.743809
58.186983 -67.346229 7.809904
58.579456 -68.635231 6.694657
59.279051 -67.953941 5.654549
58.773786 -67.651413 6.743809
56.058239 -70.012615 11.079476
56.329544 -69.085358 11.083244
49.547811 -85.548542 5.833768
50.088532 -84.840325 4.721283
49.964251 -84.202359 5.951465
48.113369 -86.316315 11.841834
48.097071 -85.667855 13.196403
48.174278 -86.960403 10.539457
48.477879 -85.636887 10.663265
48.113369 -86.316315 11.841834
61.376651 -66.509788 2.60856
60.720958 -66.389305 3.642297
61.936632 -66.635289 1.558797
61.376651 -66.509788 2.60856
61.218198 -67.535885 2.537256
62.544768 -66.649495 0.527254
61.936632 -66.635289 1.558797
57.563816 -74.824398 -0.101685
58.399074 -73.785427 -0.035407
57.362167 -74.682304 0.95923
57.589514 -67.96302 8.883433
58.186983 -67.346229 7.809904
54.485439 -71.906666 13.373643
54.068047 -72.811359 13.381718
55.022556 -71.430046 12.197543
54.485439 -71.906666 13.373643
55.292553 -71.834156 11.040032
55.694725 -70.930775 11.051487
55.022556 -71.430046 12.197543
62.661379 -68.67025 -1.728125
62.028 -69.732315 -1.820625
54.107839 -79.143501 0.692098
53.982228 -78.73756 1.800877
53.221407 -79.94128 1.727802
54.981916 -78.233158 -0.313464
54.107839 -79.143501 0.692098
53.011822 -74.209267 14.588935
52.593212 -74.691925 15.829303
53.050877 -74.63459 13.383552
53.554764 -73.714615 13.371965
53.011822 -74.209267 14.588935
51.917681 -76.531704 13.396852
52.468401 -75.567669 13.380279
51.957215 -76.093277 14.617095
51.321087 -77.524563 13.397746
51.832273 -76.998955 12.16093
51.917681 -76.531704 13.396852
50.772883 -78.558247 13.412917
51.321087 -77.524563 13.397746
50.217214 -79.633923 13.408036
50.680012 -79.06749 12.156944
50.772883 -78.558247 13.412917
49.717438 -80.753349 13.408138
50.217214 -79.633923 13.408036
49.243138 -81.922032 13.3816
49.650043 -81.311848 12.125525
49.717438 -80.753349 13.408138
61.308277 -70.759957 -1.904775
62.028 -69.732315 -1.820625
61.009247 -70.793053 -0.857414
61.308277 -70.759957 -1.904775
60.496376 -71.8405 -1.991829
56.674053 -75.932773 -0.173893
55.697784 -76.830528 0.829062
55.844929 -77.042026 -0.237782
57.563816 -74.824398 -0.101685
56.674053 -75.932773 -0.173893
60.065799 -67.190254 4.645359
60.720958 -66.389305 3.642297
59.87147 -68.174072 4.596208
60.065799 -67.190254 4.645359
59.279051 -67.953941 5.654549
56.898293 -68.545952 9.966452
56.329544 -69.085358 11.083244
57.382971 -68.915634 8.866934
57.589514 -67.96302 8.883433
56.898293 -68.545952 9.966452
56.328236 -70.416725 9.921965
56.058239 -70.012615 11.079476
55.694725 -70.930775 11.051487
51.682378 -81.486702 3.840974
52.453167 -80.76191 2.76418
52.325007 -80.260131 3.913377
51.157755 -82.74131 3.765378
51.682378 -81.486702 3.840974
51.029595 -82.239532 4.914575
50.62982 -84.069893 3.659783
51.157755 -82.74131 3.765378
50.62982 -84.069893 3.659783
50.088532 -84.840325 4.721283
48.820538 -83.129357 13.348399
49.243138 -81.922032 13.3816
48.44115 -84.385491 13.281727
48.097071 -85.667855 13.196403
48.796356 -83.736664 12.032315
48.820538 -83.129357 13.348399
48.44115 -84.385491 13.281727
48.251827 -87.644604 9.199445
48.174278 -86.960403 10.539457
48.647345 -86.954246 8.076254
48.251827 -87.644604 9.199445
49.089716 -86.269047 6.927786
48.981159 -85.595776 8.212419
48.647345 -86.954246 8.076254
49.547811 -85.548542 5.833768
49.089716 -86.269047 6.927786
63.041811 -66.675766 -0.516312
62.544768 -66.649495 0.527254
62.275222 -67.687657 0.443927
63.183027 -67.644509 -1.641313
62.250618 -68.739669 -0.686452
62.661379 -68.67025 -1.728125
63.571695 -66.584655 -1.54866
63.183027 -67.644509 -1.641313
63.041811 -66.675766 -0.516312
63.571695 -66.584655 -1.54866
3 0 13 12
3 1 16 14
3 2 50 52
3 50 17 51
3 50 51 52
3 2 19 17
3 2 21 19
3 3 24 22
3 3 26 24
3 54 53 27
3 55 29 56
3 58 57 29
3 5 33 31
3 59 34 60
3 61 60 15
3 59 60 61
3 63 62 34
3 65 64 28
3 7 66 67
3 7 68 70
3 68 35 69
3 68 69 70
3 71 36 72
3 8 37 18
3 8 38 37
3 8 39 38
3 9 40 20
3 9 41 40
3 4 42 30
3 10 43 23
3 10 44 43
3 10 45 44
3 11 46 25
3 11 73 75
3 75 74 46
3 73 74 75
3 76 47 77
3 78 48 79
3 80 79 47
3 78 79 80
3 6 49 32
3 12 81 82
3 13 83 85
3 85 84 12
3 83 84 85
3 13 86 87
3 14 15 5
3 16 15 14
3 16 88 90
3 90 89 15
3 88 89 90
3 91 7 92
3 17 93 94
3 17 95 96
3 17 97 99
3 97 18 98
3 97 98 99
3 19 18 17
3 19 8 18
3 19 20 8
3 21 20 19
3 21 9 20
3 22 23 4
3 24 23 22
3 24 10 23
3 24 25 10
3 26 25 24
3 26 11 25
3 101 100 6
3 27 28 1
3 102 28 103
3 104 103 27
3 102 103 104
3 106 105 28
3 29 107 108
3 29 109 111
3 109 2 110
3 109 110 111
3 29 30 2
3 112 30 113
3 114 113 29
3 112 113 114
3 115 4 116
3 117 116 30
3 115 116 117
3 118 4 119
3 120 22 121
3 122 121 4
3 120 121 122
3 123 22 124
3 125 3 126
3 127 126 22
3 125 126 127
3 31 32 0
3 33 32 31
3 33 6 32
3 15 33 5
3 34 33 15
3 34 6 33
3 34 128 130
3 130 129 6
3 128 129 130
3 132 131 34
3 28 16 1
3 133 16 134
3 135 134 28
3 133 134 135
3 137 136 16
3 138 12 139
3 35 140 142
3 140 12 141
3 140 141 142
3 35 0 12
3 36 143 144
3 36 145 147
3 145 7 146
3 145 146 147
3 18 148 150
3 148 36 149
3 148 149 150
3 37 36 18
3 37 7 36
3 37 35 7
3 38 35 37
3 38 0 35
3 38 31 0
3 39 31 38
3 39 5 31
3 20 39 8
3 40 39 20
3 40 5 39
3 40 14 5
3 41 14 40
3 41 1 14
3 30 21 2
3 42 21 30
3 42 9 21
3 23 42 4
3 43 42 23
3 43 9 42
3 43 41 9
3 44 41 43
3 44 1 41
3 44 27 1
3 45 27 44
3 45 151 153
3 153 152 27
3 151 152 153
3 25 45 10
3 46 45 25
3 46 154 156
3 156 155 45
3 154 155 156
3 46 157 158
3 160 159 46
3 161 3 162
3 47 163 164
3 47 165 167
3 165 3 166
3 165 166 167
3 47 26 3
3 48 26 47
3 48 11 26
3 168 48 169
3 170 48 171
3 172 11 173
3 174 173 48
3 172 173 174
3 176 175 11
3 32 13 0
3 49 13 32
3 49 177 179
3 179 178 13
3 177 178 179
3 180 49 181
3 182 181 6
3 180 181 182
3 183 49 184
3 186 185 49
