ply
format ascii 1.0
element vertex 169
property float x
property float y
property float z
element face 158
property list uchar int vertex_index
end_header
-37.245678 -111.40596 -7.303373
-38.383682 -110.252457 -14.514956
-33.369247 -115.043015 -9.462986
-33.306656 -115.458725 -13.833199
-37.738178 -111.342117 -10.683641
-39.187763 -108.733948 -3.491049
-40.910721 -107.611206 -6.901716
-34.479118 -113.08139 -4.947506
-23.776619 -122.083832 -7.68351
-29.276161 -117.637756 -6.558498
-41.971733 -106.1828 -10.585917
-35.572151 -113.027771 -8.307093
-35.533508 -113.372574 -10.291803
-37.456135 -111.468369 -8.83049
-35.892296 -113.01886 -14.347952
-36.141113 -112.313553 -16.258785
-38.686157 -109.244492 -16.296293
-41.339542 -106.466522 -2.91692
-31.93292 -115.331009 -5.777937
-42.81221 -105.10405 -6.587679
-41.486614 -106.985565 -8.725439
-30.885925 -117.198853 -10.580093
-33.254765 -115.443954 -11.66716
-35.670628 -113.369751 -12.331533
-38.057331 -110.949142 -12.616816
-38.107407 -110.245255 -5.639561
-38.943054 -109.782227 -7.161036
-40.166275 -108.160492 -5.16375
-42.156029 -105.827499 -4.732964
-36.894848 -110.905548 -4.164789
-36.013878 -112.202835 -6.320473
-25.892433 -120.861069 -9.80621
-26.547127 -119.922836 -7.211908
-28.629427 -118.680252 -9.08025
-31.268963 -116.440323 -8.198055
-33.75367 -114.250397 -7.237442
-39.472527 -109.428497 -8.885834
-39.918404 -108.930252 -10.738447
-40.325676 -108.195175 -12.610954
-42.398312 -105.155884 -12.415257
-40.69397 -107.192108 -14.418324
-41.006889 -105.921432 -16.095854
-43.082899 -104.668068 -7.527598
-43.66565 -103.722969 -6.433998
-32.005336 -116.491165 -14.490416
-32.014381 -116.512894 -13.372705
-42.719611 -104.936394 -3.581533
-41.747785 -106.14701 -3.824942
-42.311367 -105.255905 -2.673512
-43.056282 -104.546081 -4.541742
-42.719611 -104.936394 -3.581533
-38.041305 -109.819748 -3.827919
-37.454363 -110.131447 -2.982984
-38.60082 -109.045647 -2.646113
-23.438009 -122.47818 -9.002295
-22.382444 -123.049248 -7.80881
-24.834526 -121.472451 -8.74486
-24.495916 -121.866799 -10.063645
-23.438009 -122.47818 -9.002295
-27.911644 -118.780296 -6.885203
-27.00144 -119.292214 -5.911052
-28.365957 -118.149674 -5.584347
-42.58362 -104.525398 -13.283507
-43.320078 -103.528442 -12.270046
-41.731449 -105.54351 -14.28504
-41.546141 -106.173996 -13.416791
-42.58362 -104.525398 -13.283507
-41.887909 -104.908173 -15.123805
-40.85043 -106.55677 -15.257089
-41.731449 -105.54351 -14.28504
-34.669911 -114.050377 -15.123154
-33.37709 -115.270309 -14.865777
-34.599476 -114.238793 -14.090575
-34.794319 -113.697723 -16.07857
-34.669911 -114.050377 -15.123154
-36.016705 -112.666207 -15.303368
-34.880264 -113.315842 -17.024044
-34.794319 -113.697723 -16.07857
-36.257578 -111.788315 -17.125704
-34.880264 -113.315842 -17.024044
-37.5301 -110.253784 -17.144458
-36.257578 -111.788315 -17.125704
-37.413635 -110.779022 -16.277539
-38.811407 -108.591172 -17.098631
-37.5301 -110.253784 -17.144458
-40.847813 -106.77227 -2.016822
-40.263652 -107.600235 -3.203984
-39.771923 -107.905983 -2.303886
-41.90678 -105.598434 -1.719998
-40.847813 -106.77227 -2.016822
-42.311367 -105.255905 -2.673512
-41.90678 -105.598434 -1.719998
-39.771923 -107.905983 -2.303886
-38.60082 -109.045647 -2.646113
-22.844234 -122.555366 -6.472453
-22.382444 -123.049248 -7.80881
-29.737448 -116.969467 -5.287787
-28.365957 -118.149674 -5.584347
-31.065827 -115.816093 -4.897506
-30.60454 -116.484382 -6.168217
-29.737448 -116.969467 -5.287787
-32.413609 -114.635956 -4.542711
-31.065827 -115.816093 -4.897506
-33.686708 -113.511146 -4.127496
-33.206019 -114.206199 -5.362721
-32.413609 -114.635956 -4.542711
-42.420101 -105.608825 -8.596478
-42.149412 -106.044807 -7.656559
-43.082899 -104.668068 -7.527598
-42.662661 -105.207443 -9.526718
-41.729174 -106.584182 -9.655678
-42.420101 -105.608825 -8.596478
-30.804015 -117.382958 -11.746151
-29.556051 -118.279564 -11.072188
-31.988435 -116.505508 -12.289685
-30.804015 -117.382958 -11.746151
-32.070345 -116.321404 -11.123627
-33.28071 -115.45134 -12.75018
-32.014381 -116.512894 -13.372705
-31.988435 -116.505508 -12.289685
-32.005336 -116.491165 -14.490416
-33.37709 -115.270309 -14.865777
-43.384372 -104.184357 -5.469099
-42.484119 -105.465775 -5.660322
-43.056282 -104.546081 -4.541742
-43.66565 -103.722969 -6.433998
-43.384372 -104.184357 -5.469099
-34.995136 -112.35485 -3.747193
-33.686708 -113.511146 -4.127496
-36.203001 -111.26693 -3.355835
-37.454363 -110.131447 -2.982984
-35.686983 -111.993469 -4.556147
-34.995136 -112.35485 -3.747193
-36.203001 -111.26693 -3.355835
-25.67322 -121.13665 -11.077852
-24.495916 -121.866799 -10.063645
-27.059305 -120.110672 -10.685246
-25.67322 -121.13665 -11.077852
-24.232628 -121.510528 -6.360062
-22.844234 -122.555366 -6.472453
-25.617882 -120.430031 -6.124262
-27.00144 -119.292214 -5.911052
-25.161873 -121.003334 -7.447709
-24.232628 -121.510528 -6.360062
-25.617882 -120.430031 -6.124262
-28.427802 -119.020263 -10.322266
-27.059305 -120.110672 -10.685246
-27.26093 -119.77066 -9.44323
-29.757676 -117.939552 -9.830171
-29.556051 -118.279564 -11.072188
-28.427802 -119.020263 -10.322266
-42.89764 -104.67575 -10.458058
-42.662661 -105.207443 -9.526718
-43.110929 -104.162293 -11.372729
-43.320078 -103.528442 -12.270046
-42.185023 -105.669342 -11.500587
-42.89764 -104.67575 -10.458058
-43.110929 -104.162293 -11.372729
-39.971773 -106.929642 -16.998412
-38.811407 -108.591172 -17.098631
-39.846523 -107.582962 -16.196073
-42.038956 -104.165283 -15.922844
-41.887909 -104.908173 -15.123805
-42.919975 -103.152023 -14.950795
-41.126531 -105.159797 -16.84863
-42.038956 -104.165283 -15.922844
-40.091415 -106.168007 -17.751188
-39.971773 -106.929642 -16.998412
-41.126531 -105.159797 -16.84863
3 0 13 11
3 1 15 14
3 1 16 15
3 43 42 19
3 2 22 21
3 4 23 12
3 4 24 23
3 3 44 45
3 5 27 25
3 46 28 47
3 48 47 17
3 46 47 48
3 50 49 28
3 5 51 53
3 51 29 52
3 51 52 53
3 5 25 29
3 8 54 55
3 8 56 58
3 56 31 57
3 56 57 58
3 9 59 61
3 59 32 60
3 59 60 61
3 9 33 32
3 9 34 33
3 7 35 18
3 7 30 35
3 6 36 26
3 10 37 20
3 10 38 37
3 62 39 63
3 64 40 65
3 66 65 39
3 64 65 66
3 67 41 68
3 69 68 40
3 67 68 69
3 11 12 2
3 13 12 11
3 13 4 12
3 14 70 72
3 72 71 3
3 70 71 72
3 15 73 75
3 75 74 14
3 73 74 75
3 15 76 77
3 15 78 79
3 16 80 82
3 82 81 15
3 80 81 82
3 16 83 84
3 85 17 86
3 87 86 5
3 85 86 87
3 88 17 89
3 91 90 17
3 92 5 93
3 94 8 95
3 96 9 97
3 98 18 99
3 100 99 9
3 98 99 100
3 101 18 102
3 103 7 104
3 105 104 18
3 103 104 105
3 19 20 6
3 106 20 107
3 108 107 19
3 106 107 108
3 109 10 110
3 111 110 20
3 109 110 111
3 21 112 113
3 22 114 116
3 116 115 21
3 114 115 116
3 22 117 119
3 117 3 118
3 117 118 119
3 12 22 2
3 23 22 12
3 23 3 22
3 23 14 3
3 24 14 23
3 24 1 14
3 121 120 3
3 25 26 0
3 27 26 25
3 27 6 26
3 17 27 5
3 28 27 17
3 28 6 27
3 28 19 6
3 122 19 123
3 124 123 28
3 122 123 124
3 126 125 19
3 127 7 128
3 29 129 130
3 29 131 133
3 131 7 132
3 131 132 133
3 29 30 7
3 25 30 29
3 25 0 30
3 31 134 135
3 31 136 137
3 138 8 139
3 32 140 141
3 32 142 144
3 142 8 143
3 142 143 144
3 32 31 8
3 33 31 32
3 33 145 147
3 147 146 31
3 145 146 147
3 33 148 150
3 148 21 149
3 148 149 150
3 34 21 33
3 34 2 21
3 18 34 9
3 35 34 18
3 35 2 34
3 35 11 2
3 30 11 35
3 30 0 11
3 26 13 0
3 36 13 26
3 36 4 13
3 20 36 6
3 37 36 20
3 37 4 36
3 37 24 4
3 38 24 37
3 38 1 24
3 151 10 152
3 39 153 154
3 39 155 157
3 155 10 156
3 155 156 157
3 39 38 10
3 40 38 39
3 40 1 38
3 40 16 1
3 41 16 40
3 41 158 160
3 160 159 16
3 158 159 160
3 161 41 162
3 161 162 163
3 164 41 165
3 168 167 41
3 166 167 168
