ply
format ascii 1.0
element vertex 237
property float x
property float y
property float z
element face 238
property list uchar int vertex_index
end_header
-44.161617 38.495037 28.215233
-48.528469 37.821651 20.01033
-43.675068 48.884548 30.237331
-45.284904 48.864391 20.920286
-44.400543 32.815506 26.724035
-47.101212 32.743702 22.734703
-45.777702 38.280895 24.014053
-53.560413 32.065941 14.631819
-50.571243 32.511795 18.763145
-51.680504 37.206009 16.016569
-44.296768 43.948593 29.401875
-45.105293 43.849968 24.90641
-44.424103 49.165791 25.56423
-43.011902 32.709377 31.015831
-43.512383 38.399227 32.750313
-46.769764 43.33984 20.593939
-49.362938 42.577019 16.402872
-52.017082 41.657551 12.356216
-44.165745 35.657261 27.510906
-45.087879 35.600082 25.443626
-44.81879 38.425407 26.078169
-47.85033 35.326279 21.473024
-48.807007 32.647568 20.765383
-49.525795 35.127991 19.501598
-51.201126 34.891499 17.503056
-50.132706 37.532467 18.018789
-44.140717 46.492428 29.871544
-44.46521 46.58913 27.553211
-44.091034 49.098606 27.897488
-43.070202 29.833397 30.036579
-42.625893 29.697117 32.286942
-45.303925 46.388462 23.006201
-45.804459 43.637611 22.731026
-46.008068 46.113033 20.77494
-48.151932 45.329601 16.395622
-50.766968 42.137928 14.351104
-44.958717 30.03447 25.83564
-46.400921 30.084534 23.834251
-45.599983 32.801086 24.70718
-46.333771 35.486412 23.44202
-47.03569 38.074512 22.000637
-53.156212 29.841652 15.614634
-48.086205 30.097828 21.844994
-49.885597 30.070854 19.825008
-51.634933 29.992615 17.746832
-52.216679 32.325363 16.712307
-52.691616 34.604763 15.477017
-52.984314 36.828735 14.020466
-44.255737 41.272995 28.846119
-44.705692 41.225151 26.635958
-44.630844 43.956905 27.128368
-44.81728 46.552967 25.265099
-44.785912 49.083706 23.237831
-43.839703 29.949165 27.892181
-43.543011 32.783993 28.819757
-43.56126 35.65274 29.667118
-43.218269 35.589191 31.923361
-43.755405 38.484909 30.438101
-43.95715 41.223343 31.128738
-43.997681 43.827271 31.728033
-43.736717 46.270679 32.219566
-45.392853 41.081993 24.492922
-46.363071 40.856388 22.404795
-47.605972 40.567741 20.353998
-46.966095 45.751842 18.570513
-47.983536 42.980125 18.486105
-49.047726 40.234367 18.322632
-50.55574 39.865948 16.300865
-51.956085 39.459473 14.296697
-42.566402 28.182531 32.897139
-42.74355 28.275959 31.741124
-53.92197 30.826489 14.053847
-53.71987 29.714344 14.545255
-53.358312 30.953797 15.123227
-43.684126 28.497245 28.440554
-44.19 28.586699 27.383077
-43.365326 36.994209 32.336837
-43.132778 35.532045 33.101859
-43.279835 36.937063 33.515335
-43.813873 43.715241 32.916028
-43.851597 42.455193 32.605497
-43.683391 44.936944 33.161794
-43.867199 45.048975 31.973799
-43.813873 43.715241 32.916028
-46.964855 46.932133 17.453512
-46.483647 47.141644 18.593589
-52.539265 40.328843 12.349995
-52.508766 39.229804 13.320235
-51.986584 40.558512 13.326456
-54.00147 31.884402 13.60738
-53.687974 33.155341 14.045065
-42.965704 28.344099 30.615942
-43.299375 28.439362 29.512752
-43.194878 26.950063 30.092115
-42.848047 29.765257 31.16176
-42.965704 28.344099 30.615942
-42.74355 28.275959 31.741124
-43.420601 38.322902 33.949209
-43.279835 36.937063 33.515335
-43.608948 39.741171 33.116636
-43.420601 38.322902 33.949209
-48.143383 46.480114 15.245811
-47.557773 46.721012 16.366067
-48.812271 45.096199 15.328233
-48.143383 46.480114 15.245811
-48.803722 46.246712 14.178422
-49.417774 43.719908 15.331858
-48.757435 43.95331 16.399247
-48.812271 45.096199 15.328233
-50.119789 43.500363 14.305974
-50.064953 42.357473 15.376988
-49.417774 43.719908 15.331858
-50.77266 43.246872 13.270432
-50.119789 43.500363 14.305974
-51.397717 43.006683 12.272988
-51.392025 41.89774 13.35366
-50.77266 43.246872 13.270432
-45.679819 30.059502 24.834945
-46.142141 28.731963 24.327915
-45.421039 28.70693 25.328609
-43.547871 50.175179 29.189129
-43.254649 49.997078 30.357322
-53.586483 28.640156 14.921613
-52.925697 28.711018 16.028219
-53.586483 28.640156 14.921613
-53.71987 29.714344 14.545255
-54.363028 30.644949 13.029408
-53.92197 30.826489 14.053847
-54.00147 31.884402 13.60738
-45.643051 48.697918 19.768476
-45.178213 50.081668 19.781568
-46.948386 28.793625 23.312372
-46.142141 28.731963 24.327915
-47.791027 28.800272 22.317743
-46.948386 28.793625 23.312372
-47.243563 30.091181 22.839622
-48.677716 28.842314 21.290295
-47.791027 28.800272 22.317743
-49.577411 28.828827 20.280302
-48.677716 28.842314 21.290295
-48.985901 30.084341 20.835001
-50.471676 28.845236 19.223502
-50.163491 27.603209 19.678796
-49.577411 28.828827 20.280302
-51.346344 28.806116 18.184414
-50.471676 28.845236 19.223502
-50.760265 30.031734 18.78592
-52.165058 28.786499 17.094318
-51.346344 28.806116 18.184414
-52.395573 29.917133 16.680733
-52.925697 28.711018 16.028219
-52.165058 28.786499 17.094318
-53.253576 34.424751 14.467664
-53.687974 33.155341 14.045065
-53.126014 33.335352 15.054418
-53.399925 35.536738 13.739389
-53.253576 34.424751 14.467664
-52.837965 35.716749 14.748742
-53.426163 36.603139 13.050332
-53.399925 35.536738 13.739389
-43.755854 50.282207 28.019207
-43.883051 48.991577 29.06741
-43.547871 50.175179 29.189129
-43.96162 50.382328 26.842652
-43.755854 50.282207 28.019207
-44.128155 50.41592 25.676023
-44.257569 49.132199 26.730859
-43.96162 50.382328 26.842652
-44.296329 50.432663 24.490958
-44.128155 50.41592 25.676023
-44.000382 51.682792 24.602752
-44.477234 50.391621 23.327759
-44.605007 49.124748 24.40103
-44.296329 50.432663 24.490958
-44.665804 50.327282 22.13559
-44.477234 50.391621 23.327759
-44.9153 50.217624 20.976818
-45.035408 48.974048 22.079059
-44.665804 50.327282 22.13559
-45.178213 50.081668 19.781568
-44.9153 50.217624 20.976818
-44.749507 28.629351 26.354807
-45.421039 28.70693 25.328609
-44.39921 29.991817 26.863911
-44.749507 28.629351 26.354807
-44.19 28.586699 27.383077
-43.454953 29.891281 28.96438
-43.684126 28.497245 28.440554
-43.299375 28.439362 29.512752
-42.534142 29.624834 33.46756
-42.566402 28.182531 32.897139
-42.686027 31.148706 32.80365
-42.534142 29.624834 33.46756
-42.879032 32.654837 32.168094
-42.818897 31.203247 31.651387
-42.686027 31.148706 32.80365
-42.982215 34.094743 32.621859
-43.132778 35.532045 33.101859
-43.115085 34.149284 31.469596
-42.879032 32.654837 32.168094
-42.982215 34.094743 32.621859
-43.831332 41.153229 32.305849
-43.734766 39.811285 31.939525
-43.608948 39.741171 33.116636
-43.977415 42.525307 31.428385
-43.831332 41.153229 32.305849
-43.851597 42.455193 32.605497
-43.45186 46.104195 33.406605
-43.683391 44.936944 33.161794
-43.410319 47.404221 32.401332
-43.45186 46.104195 33.406605
-43.379494 48.711155 31.410215
-43.705893 47.577613 31.228448
-43.410319 47.404221 32.401332
-43.254649 49.997078 30.357322
-43.379494 48.711155 31.410215
-46.004633 47.322239 19.695802
-45.646486 47.488712 20.847613
-45.643051 48.697918 19.768476
-46.487082 45.932438 19.672726
-46.004633 47.322239 19.695802
-46.483647 47.141644 18.593589
-47.559014 45.540722 17.483067
-46.964855 46.932133 17.453512
-47.557773 46.721012 16.366067
-53.02288 37.914434 13.18212
-52.470199 38.144104 14.158582
-52.508766 39.229804 13.320235
-53.426163 36.603139 13.050332
-53.02288 37.914434 13.18212
-51.951854 42.729769 11.289592
-51.397717 43.006683 12.272988
-52.472522 41.389274 11.41119
-51.951854 42.729769 11.289592
-52.407295 42.461492 10.344565
-52.539265 40.328843 12.349995
-52.472522 41.389274 11.41119
3 0 20 18
3 1 23 21
3 1 25 23
3 2 28 26
3 69 30 70
3 3 33 31
3 4 38 36
3 6 39 19
3 6 40 39
3 7 71 73
3 73 72 41
3 71 72 73
3 5 42 37
3 8 43 22
3 8 44 43
3 8 45 44
3 9 46 24
3 9 47 46
3 10 50 48
3 12 51 27
3 12 52 51
3 74 53 75
3 13 54 29
3 13 55 54
3 14 76 78
3 76 56 77
3 76 77 78
3 14 57 56
3 14 58 57
3 79 59 80
3 81 60 82
3 83 82 59
3 81 82 83
3 11 61 49
3 15 62 32
3 15 63 62
3 84 64 85
3 16 65 34
3 16 66 65
3 16 67 66
3 17 68 35
3 17 86 88
3 88 87 68
3 86 87 88
3 18 19 4
3 20 19 18
3 20 6 19
3 90 89 7
3 21 22 5
3 23 22 21
3 23 8 22
3 23 24 8
3 25 24 23
3 25 9 24
3 26 27 10
3 28 27 26
3 28 12 27
3 91 29 92
3 91 92 93
3 30 94 96
3 94 29 95
3 94 95 96
3 30 13 29
3 97 14 98
3 100 99 14
3 31 32 11
3 33 32 31
3 33 15 32
3 101 34 102
3 103 34 104
3 103 104 105
3 106 16 107
3 108 107 34
3 106 107 108
3 109 35 110
3 111 110 16
3 109 110 111
3 112 35 113
3 114 17 115
3 116 115 35
3 114 115 116
3 36 117 119
3 117 37 118
3 117 118 119
3 38 37 36
3 38 5 37
3 19 38 4
3 39 38 19
3 39 5 38
3 39 21 5
3 40 21 39
3 40 1 21
3 121 120 2
3 41 122 123
3 125 124 41
3 128 127 7
3 126 127 128
3 130 129 3
3 37 131 132
3 42 133 135
3 135 134 37
3 133 134 135
3 42 136 137
3 22 42 5
3 43 42 22
3 43 138 140
3 140 139 42
3 138 139 140
3 43 141 143
3 141 142 143
3 44 144 146
3 146 145 43
3 144 145 146
3 44 147 148
3 44 149 151
3 149 41 150
3 149 150 151
3 45 41 44
3 45 7 41
3 24 45 8
3 46 45 24
3 46 7 45
3 46 152 154
3 154 153 7
3 152 153 154
3 47 155 157
3 157 156 46
3 155 156 157
3 47 158 159
3 48 49 0
3 50 49 48
3 50 11 49
3 27 50 10
3 51 50 27
3 51 11 50
3 51 31 11
3 52 31 51
3 52 3 31
3 160 28 161
3 162 161 2
3 160 161 162
3 163 28 164
3 165 12 166
3 167 166 28
3 165 166 167
3 168 12 169
3 168 169 170
3 171 52 172
3 173 172 12
3 171 172 173
3 174 52 175
3 176 3 177
3 178 177 52
3 176 177 178
3 180 179 3
3 181 36 182
3 53 183 185
3 183 36 184
3 183 184 185
3 53 4 36
3 29 186 188
3 186 53 187
3 186 187 188
3 54 53 29
3 54 4 53
3 54 18 4
3 55 18 54
3 55 0 18
3 189 30 190
3 191 30 192
3 193 13 194
3 195 194 30
3 193 194 195
3 56 196 197
3 56 198 200
3 198 13 199
3 198 199 200
3 56 55 13
3 57 55 56
3 57 0 55
3 57 48 0
3 58 48 57
3 58 10 48
3 201 58 202
3 203 202 14
3 201 202 203
3 59 204 206
3 204 58 205
3 204 205 206
3 59 10 58
3 59 26 10
3 60 26 59
3 60 2 26
3 207 60 208
3 209 60 210
3 211 2 212
3 213 212 60
3 211 212 213
3 215 214 2
3 49 20 0
3 61 20 49
3 61 6 20
3 32 61 11
3 62 61 32
3 62 6 61
3 62 40 6
3 63 40 62
3 63 1 40
3 216 33 217
3 218 217 3
3 216 217 218
3 64 219 221
3 219 33 220
3 219 220 221
3 64 15 33
3 34 222 224
3 222 64 223
3 222 223 224
3 65 64 34
3 65 15 64
3 65 63 15
3 66 63 65
3 66 1 63
3 66 25 1
3 67 25 66
3 67 9 25
3 35 67 16
3 68 67 35
3 68 9 67
3 68 47 9
3 225 47 226
3 227 226 68
3 225 226 227
3 229 228 47
3 230 17 231
3 232 17 233
3 232 233 234
3 236 235 17
