ply
format ascii 1.0
element vertex 278
property float x
property float y
property float z
element face 277
property list uchar int vertex_index
end_header
-3.30654 35.183372 -24.032366
-1.974077 54.290039 -22.332415
2.806108 81.546692 -7.180216
0.62604 69.647438 -16.600058
-0.354288 67.907143 -27.704775
1.777695 76.087173 -12.251261
1.061155 75.97847 -18.566946
-0.13155 69.136848 -22.504393
0.823519 75.040977 -24.304525
-2.560465 43.371758 -27.925692
-4.001661 37.406876 -19.421984
-2.917078 45.236748 -23.594309
-2.136072 52.867111 -27.261957
2.539818 75.582596 -5.655176
1.521601 69.690842 -10.332071
0.027876 63.014549 -14.09413
-0.693697 62.391083 -20.006182
-1.246965 61.434555 -25.449194
1.455742 72.941994 -28.973886
1.696384 79.030411 -16.287409
1.528246 78.754982 -19.364958
0.854513 75.633018 -21.536043
1.524912 78.225441 -22.257833
-4.664438 33.467743 -17.295759
-2.466597 50.643791 -20.489424
-3.007318 46.120621 -21.115263
-2.504343 49.888649 -23.087442
-2.505037 49.094978 -25.520399
-2.096254 53.618279 -24.895773
2.609043 78.659286 -6.439999
1.226915 72.97419 -14.530783
1.671864 72.916611 -11.342014
1.077841 69.719994 -13.499788
0.822411 66.45089 -12.339199
0.400034 66.326859 -15.424587
-0.335938 62.735641 -17.094378
-0.021202 66.119713 -18.432318
-0.336006 68.633591 -25.222879
-0.704277 65.390457 -24.111429
-0.868271 64.800583 -26.690733
-1.345919 60.754333 -27.880297
-0.844582 64.003342 -29.012159
2.19075 76.23777 -27.222509
2.899733 74.704597 -29.175585
-3.766729 31.001934 -22.0208
-1.815226 54.910583 -19.623938
2.583572 81.767929 -10.548693
2.293577 78.95871 -9.791134
1.971336 79.08873 -13.082232
1.388035 76.118813 -15.456974
0.804859 72.900452 -17.643469
0.206802 69.461914 -19.613131
0.4569 72.671066 -20.648245
0.238018 72.249535 -23.497057
0.201633 71.591705 -26.128099
-2.913393 39.319237 -26.027655
-4.225809 32.216736 -19.74299
-3.668577 36.286221 -21.820498
-3.622164 42.337559 -19.027052
-3.412584 41.333309 -21.540731
-3.189695 40.331188 -23.891062
-2.784983 44.327553 -25.885309
-2.420748 48.237213 -27.730474
2.176672 75.905258 -8.978754
2.095911 72.737968 -8.094917
1.925476 69.556152 -7.107002
1.218561 66.48764 -9.187387
-0.814926 59.368828 -15.583076
-1.089947 58.935516 -18.495291
-1.357798 58.45253 -21.307726
-0.404577 65.816994 -21.340498
-1.012171 61.967117 -22.804972
-1.587427 57.904907 -23.992167
-1.734461 57.263351 -26.502241
-1.745813 56.490891 -28.774614
1.735237 77.400085 -24.89908
1.014322 74.157684 -26.804968
0.392078 70.652283 -28.474081
2.153557 71.363159 -30.764433
0.836205 69.392036 -30.474512
-0.143106 66.913567 -29.882856
1.929012 79.928764 -19.689209
1.906674 80.164062 -18.187866
1.927345 79.663994 -21.135647
1.526579 78.490212 -20.811396
1.929012 79.928764 -19.689209
3.081443 82.672344 -5.813155
3.033578 82.825096 -7.53225
2.905722 81.342003 -5.467797
3.081443 82.672344 -5.813155
2.707575 80.102989 -6.810107
2.80719 79.8983 -5.097688
2.905722 81.342003 -5.467797
3.828753 75.303143 -29.115307
3.345625 76.23558 -28.262529
-3.279743 32.504323 -24.058808
-3.509838 30.413604 -23.053024
-3.536634 33.092653 -23.026583
-1.732815 55.203159 -18.213592
-2.119708 53.143428 -18.694424
2.486717 81.776298 -12.193385
2.879071 82.978428 -10.897827
2.180599 80.436699 -13.460155
2.277454 80.428329 -11.815462
2.486717 81.776298 -12.193385
-2.545763 40.826777 -27.905556
-2.722227 38.800517 -26.956537
-2.736929 41.345498 -26.976674
-3.356806 44.665682 -18.759945
-3.730803 42.841383 -17.704384
-2.087606 52.435276 -28.312509
-2.229945 50.120327 -28.546768
-2.27841 50.552162 -27.496215
2.686504 75.35033 -3.971604
2.706906 76.891144 -4.348816
2.502258 74.009018 -5.226761
2.686504 75.35033 -3.971604
0.201724 63.119243 -12.556041
0.598992 64.837414 -11.678576
0.425144 64.73272 -13.216665
-0.261192 61.382034 -13.339737
0.201724 63.119243 -12.556041
-0.393525 61.191688 -14.838603
-0.682594 59.559173 -14.08421
-0.261192 61.382034 -13.339737
-1.501333 58.188065 -29.401893
-1.545866 58.622612 -28.327455
-1.301386 60.319786 -28.954735
-1.657358 56.020927 -29.756113
-1.501333 58.188065 -29.401893
2.397358 78.318184 -25.072357
2.155695 78.868279 -23.840044
2.619967 70.385044 -31.460109
2.998921 72.071987 -30.746818
0.579481 67.504615 -31.087019
1.186865 68.588192 -31.281362
0.089826 66.265381 -30.791191
0.346549 68.152802 -30.178684
0.579481 67.504615 -31.087019
-0.366834 64.935765 -30.445585
0.089826 66.265381 -30.791191
1.990743 80.301777 -16.649092
2.043123 80.407539 -15.062743
1.612315 78.892696 -17.826183
1.990743 80.301777 -16.649092
1.906674 80.164062 -18.187866
-2.374039 42.860409 -28.784852
-2.378153 45.329842 -28.786133
-4.881443 34.10461 -16.001447
-5.011322 31.495219 -16.250867
-4.49885 36.006603 -17.085282
-4.881443 34.10461 -16.001447
-4.167461 37.97617 -18.148394
-4.333049 35.437309 -18.358871
-4.49885 36.006603 -17.085282
-2.736957 48.382206 -20.802343
-3.049383 46.557213 -19.80405
-2.779022 48.818798 -19.491131
2.741519 78.429489 -4.741227
2.80719 79.8983 -5.097688
2.574431 77.120941 -6.047588
2.706906 76.891144 -4.348816
2.741519 78.429489 -4.741227
-1.050717 61.944291 -29.520666
-1.301386 60.319786 -28.954735
-1.095251 62.378838 -28.446228
2.991134 77.002167 -27.285992
2.625115 77.737026 -26.234071
2.545241 75.471183 -28.199047
2.991134 77.002167 -27.285992
3.345625 76.23558 -28.262529
-3.730612 28.264213 -22.115895
-4.029146 28.902672 -21.039907
-3.730612 28.264213 -22.115895
-3.509838 30.413604 -23.053024
-2.445393 51.010033 -19.127167
-2.779022 48.818798 -19.491131
-2.140912 52.777187 -20.056681
-2.445393 51.010033 -19.127167
-2.119708 53.143428 -18.694424
2.922311 82.935714 -9.216489
2.879071 82.978428 -10.897827
2.69484 81.65731 -8.864455
3.033578 82.825096 -7.53225
2.922311 82.935714 -9.216489
1.83386 79.059571 -14.684821
2.180599 80.436699 -13.460155
2.043123 80.407539 -15.062743
-2.892305 36.704714 -26.01524
-3.088879 34.636781 -25.017595
-3.109967 37.251305 -25.03001
-2.892305 36.704714 -26.01524
-2.722227 38.800517 -26.956537
-2.545763 40.826777 -27.905556
-2.374039 42.860409 -28.784852
-4.751062 30.803974 -17.504003
-5.011322 31.495219 -16.250867
-4.531748 30.17847 -18.727619
-4.751062 30.803974 -17.504003
-4.445123 32.842239 -18.519374
-4.258686 29.510073 -19.901002
-4.531748 30.17847 -18.727619
-3.996269 31.609335 -20.881895
-4.029146 28.902672 -21.039907
-4.258686 29.510073 -19.901002
-3.977712 40.441512 -17.950928
-3.730803 42.841383 -17.704384
-3.811913 39.872217 -19.224518
-4.167461 37.97617 -18.148394
-3.977712 40.441512 -17.950928
-3.314741 44.22909 -20.071157
-3.356806 44.665682 -18.759945
-3.049383 46.557213 -19.80405
-2.308295 47.762569 -28.688524
-2.378153 45.329842 -28.786133
-2.490607 45.804485 -27.828083
-2.308295 47.762569 -28.688524
-2.229945 50.120327 -28.546768
2.280305 72.586704 -6.446632
2.502258 74.009018 -5.226761
2.317864 74.160282 -6.875046
2.195088 70.995796 -5.952674
2.280305 72.586704 -6.446632
2.010693 71.14706 -7.60096
2.096095 69.428108 -5.468775
2.195088 70.995796 -5.952674
1.747494 67.987469 -6.541391
2.096095 69.428108 -5.468775
1.394037 66.453213 -7.581583
1.747494 67.987469 -6.541391
1.572018 68.021896 -8.147194
0.956257 64.915786 -8.530111
1.394037 66.453213 -7.581583
0.797067 64.855789 -10.102669
1.020486 66.469265 -10.763293
0.598992 64.837414 -11.678576
0.956257 64.915786 -8.530111
0.797067 64.855789 -10.102669
-1.154575 57.706398 -14.735183
-0.682594 59.559173 -14.08421
-1.232665 57.432282 -16.193161
-1.154575 57.706398 -14.735183
-1.370175 57.215626 -17.649269
-1.232665 57.432282 -16.193161
-0.952437 59.152172 -17.039184
-1.452587 56.92305 -19.059615
-1.732815 55.203159 -18.213592
-1.370175 57.215626 -17.649269
-1.892477 54.247166 -29.068838
-2.087606 52.435276 -28.312509
-1.940943 54.679001 -28.018285
-1.892477 54.247166 -29.068838
-1.657358 56.020927 -29.756113
2.050533 79.280957 -22.519421
1.927345 79.663994 -21.135647
1.630075 77.812763 -23.578457
2.050533 79.280957 -22.519421
2.155695 78.868279 -23.840044
1.962994 76.818928 -26.060795
2.397358 78.318184 -25.072357
2.625115 77.737026 -26.234071
3.372009 73.742706 -29.952395
3.828753 75.303143 -29.115307
2.526645 73.033878 -29.970009
3.372009 73.742706 -29.952395
2.998921 72.071987 -30.746818
1.845541 69.573753 -31.426322
2.619967 70.385044 -31.460109
1.494881 70.377598 -30.619473
1.845541 69.573753 -31.426322
1.186865 68.588192 -31.281362
-0.717572 63.480652 -30.010236
-0.493844 65.458455 -29.447508
-0.366834 64.935765 -30.445585
-1.050717 61.944291 -29.520666
-0.717572 63.480652 -30.010236
-3.279743 32.504323 -24.058808
-3.088879 34.636781 -25.017595
3 81 20 82
3 83 22 84
3 85 84 20
3 83 84 85
3 1 26 24
3 1 28 26
3 2 86 87
3 2 88 89
3 2 90 92
3 90 29 91
3 90 91 92
3 3 32 30
3 3 34 32
3 3 36 34
3 4 39 37
3 4 41 39
3 93 43 94
3 0 95 97
3 97 96 44
3 95 96 97
3 98 45 99
3 100 46 101
3 102 48 103
3 104 103 46
3 102 103 104
3 6 49 19
3 6 50 49
3 6 52 50
3 8 53 21
3 8 54 53
3 9 105 107
3 107 106 55
3 105 106 107
3 10 56 23
3 10 57 56
3 108 58 109
3 11 59 25
3 11 60 59
3 11 61 60
3 12 62 27
3 12 110 112
3 112 111 62
3 110 111 112
3 13 113 114
3 13 115 116
3 5 63 47
3 14 64 31
3 14 65 64
3 14 66 65
3 15 117 119
3 119 118 33
3 117 118 119
3 15 120 121
3 15 122 124
3 122 67 123
3 122 123 124
3 16 68 35
3 16 69 68
3 7 70 51
3 17 71 38
3 17 72 71
3 17 73 72
3 125 74 126
3 127 126 40
3 125 126 127
3 129 128 74
3 130 75 131
3 18 76 42
3 18 77 76
3 132 78 133
3 134 79 135
3 136 80 137
3 138 137 79
3 136 137 138
3 140 139 80
3 141 19 142
3 20 143 145
3 143 19 144
3 143 144 145
3 20 6 19
3 20 21 6
3 22 21 20
3 22 8 21
3 147 146 9
3 148 23 149
3 150 23 151
3 152 10 153
3 154 153 23
3 152 153 154
3 24 155 157
3 155 25 156
3 155 156 157
3 26 25 24
3 26 11 25
3 26 27 11
3 28 27 26
3 28 12 27
3 29 158 159
3 29 160 162
3 160 13 161
3 160 161 162
3 30 31 5
3 32 31 30
3 32 14 31
3 32 33 14
3 34 33 32
3 34 15 33
3 34 35 15
3 36 35 34
3 36 16 35
3 37 38 7
3 39 38 37
3 39 17 38
3 39 40 17
3 41 40 39
3 41 163 165
3 165 164 40
3 163 164 165
3 166 42 167
3 43 168 170
3 168 42 169
3 168 169 170
3 43 18 42
3 44 171 172
3 174 173 44
3 175 24 176
3 45 177 179
3 177 24 178
3 177 178 179
3 45 1 24
3 46 180 181
3 46 182 184
3 182 2 183
3 182 183 184
3 46 47 2
3 48 47 46
3 48 5 47
3 19 185 187
3 185 48 186
3 185 186 187
3 49 48 19
3 49 5 48
3 49 30 5
3 50 30 49
3 50 3 30
3 50 51 3
3 52 51 50
3 52 7 51
3 21 52 6
3 53 52 21
3 53 7 52
3 53 37 7
3 54 37 53
3 54 4 37
3 55 188 190
3 190 189 0
3 188 189 190
3 192 191 55
3 194 193 9
3 23 195 196
3 56 197 199
3 199 198 23
3 197 198 199
3 56 200 201
3 56 202 204
3 202 44 203
3 202 203 204
3 57 44 56
3 57 0 44
3 58 205 206
3 58 207 209
3 207 10 208
3 207 208 209
3 25 210 212
3 210 58 211
3 210 211 212
3 59 58 25
3 59 10 58
3 59 57 10
3 60 57 59
3 60 0 57
3 60 55 0
3 61 55 60
3 61 9 55
3 27 61 11
3 62 61 27
3 62 9 61
3 62 213 215
3 215 214 9
3 213 214 215
3 217 216 62
3 47 29 2
3 63 29 47
3 63 13 29
3 31 63 5
3 64 63 31
3 64 13 63
3 64 218 220
3 220 219 13
3 218 219 220
3 65 221 223
3 223 222 64
3 221 222 223
3 65 224 225
3 65 226 227
3 66 228 230
3 230 229 65
3 228 229 230
3 66 231 232
3 33 66 14
3 233 66 234
3 235 234 33
3 233 234 235
3 237 236 66
3 67 238 239
3 67 240 241
3 35 67 15
3 68 67 35
3 68 242 244
3 244 243 67
3 242 243 244
3 68 245 247
3 245 45 246
3 245 246 247
3 69 45 68
3 69 1 45
3 51 36 3
3 70 36 51
3 70 16 36
3 38 70 7
3 71 70 38
3 71 16 70
3 71 69 16
3 72 69 71
3 72 1 69
3 72 28 1
3 73 28 72
3 73 12 28
3 40 73 17
3 74 73 40
3 74 12 73
3 74 248 250
3 250 249 12
3 248 249 250
3 252 251 74
3 253 22 254
3 75 255 257
3 255 22 256
3 255 256 257
3 75 8 22
3 42 258 260
3 258 75 259
3 258 259 260
3 76 75 42
3 76 8 75
3 76 54 8
3 77 54 76
3 77 4 54
3 261 43 262
3 78 263 265
3 263 43 264
3 263 264 265
3 78 18 43
3 266 78 267
3 79 268 270
3 268 78 269
3 268 269 270
3 79 18 78
3 79 77 18
3 80 77 79
3 80 4 77
3 80 41 4
3 271 41 272
3 273 272 80
3 271 272 273
3 275 274 41
3 277 276 0
