ply
format ascii 1.0
element vertex 91
property float x
property float y
property float z
element face 69
property list uchar int vertex_index
end_header
19.201355 22.955685 -31.11706
15.703634 23.198959 -30.574759
22.668373 23.140648 -31.303686
17.240803 26.508259 -31.600164
17.450806 23.020195 -30.879213
17.876926 19.440636 -30.106688
19.591047 19.445946 -30.511503
24.34763 23.341438 -31.245607
19.057018 26.386803 -31.640184
16.125835 19.5541 -29.687994
20.886726 26.366711 -31.558802
20.946251 23.001575 -31.261377
25.157812 23.450968 -31.168194
24.40472 24.932092 -31.145924
19.122549 28.056145 -31.80662
18.168745 28.141354 -31.897756
18.234276 29.810696 -32.064191
14.713025 25.13307 -30.898106
15.581663 24.968179 -31.012124
14.831691 23.343134 -30.413519
14.713025 25.13307 -30.898106
15.914734 21.376529 -30.131377
15.042791 21.520705 -29.970137
14.831691 23.343134 -30.413519
18.178659 17.615763 -29.744999
19.031873 17.660351 -30.016859
21.777549 24.753679 -31.431244
21.792932 26.395789 -31.458811
22.683756 24.782757 -31.331253
16.350248 26.62283 -31.524826
16.334208 28.336542 -31.899966
16.45525 24.878798 -31.16435
16.350248 26.62283 -31.524826
17.345804 24.764227 -31.239688
16.57722 23.109577 -30.726986
15.581663 24.968179 -31.012124
16.45525 24.878798 -31.16435
19.888934 17.663006 -30.219267
19.031873 17.660351 -30.016859
18.733987 19.443291 -30.309095
23.523384 24.883152 -31.302214
24.40472 24.932092 -31.145924
23.508001 23.241043 -31.274646
22.683756 24.782757 -31.331253
23.523384 24.883152 -31.302214
17.260638 28.202082 -31.877745
16.334208 28.336542 -31.899966
16.354043 30.030365 -32.177548
18.14891 26.447531 -31.620174
17.260638 28.202082 -31.877745
18.168745 28.141354 -31.897756
15.230244 19.668451 -29.499778
15.042791 21.520705 -29.970137
16.409031 17.688968 -29.283951
15.230244 19.668451 -29.499778
17.303113 17.672495 -29.535652
17.00138 19.497368 -29.897341
18.178659 17.615763 -29.744999
16.409031 17.688968 -29.283951
17.303113 17.672495 -29.535652
21.000664 28.00535 -31.608942
21.792932 26.395789 -31.458811
20.037403 28.046099 -31.765929
21.000664 28.00535 -31.608942
19.971872 26.376757 -31.599493
19.122549 28.056145 -31.80662
20.037403 28.046099 -31.765929
25.182912 21.899927 -31.351579
25.157812 23.450968 -31.168194
24.417595 21.722814 -31.291716
25.182912 21.899927 -31.351579
23.577966 21.622419 -31.320755
23.508001 23.241043 -31.274646
24.417595 21.722814 -31.291716
22.785452 21.468109 -31.221859
23.577966 21.622419 -31.320755
21.924391 21.398573 -31.200705
21.807312 23.071112 -31.282531
22.785452 21.468109 -31.221859
21.107081 21.284879 -31.062059
21.924391 21.398573 -31.200705
20.234634 21.261934 -30.9899
20.073803 22.97863 -31.189218
21.107081 21.284879 -31.062059
20.429479 19.507065 -30.687122
19.396201 21.200815 -30.814281
20.234634 21.261934 -30.9899
20.702914 17.768684 -30.487198
20.429479 19.507065 -30.687122
19.888934 17.663006 -30.219267
20.702914 17.768684 -30.487198
3 0 4 3
3 0 6 4
3 12 7 13
3 14 8 15
3 14 15 16
3 1 17 18
3 1 19 20
3 1 21 23
3 21 9 22
3 21 22 23
3 25 24 5
3 2 26 28
3 26 10 27
3 26 27 28
3 2 11 10
3 3 29 30
3 4 31 33
3 33 32 3
3 31 32 33
3 4 34 36
3 34 1 35
3 34 35 36
3 4 5 1
3 6 5 4
3 6 37 39
3 39 38 5
3 37 38 39
3 7 40 41
3 7 42 44
3 42 2 43
3 42 43 44
3 45 3 46
3 45 46 47
3 8 48 50
3 48 3 49
3 48 49 50
3 8 0 3
3 9 51 52
3 9 53 54
3 5 9 1
3 55 9 56
3 57 56 5
3 55 56 57
3 59 58 9
3 10 60 61
3 10 62 63
3 10 64 66
3 64 8 65
3 64 65 66
3 11 8 10
3 11 0 8
3 67 7 68
3 69 7 70
3 71 2 72
3 73 72 7
3 71 72 73
3 74 2 75
3 76 11 77
3 78 77 2
3 76 77 78
3 79 11 80
3 81 0 82
3 83 82 11
3 81 82 83
3 84 6 85
3 86 85 0
3 84 85 86
3 87 6 88
3 90 89 6
