ply
format ascii 1.0
element vertex 300
property float x
property float y
property float z
element face 309
property list uchar int vertex_index
end_header
-14.840504 39.044949 62.182808
-19.240301 43.12989 52.385033
-21.739716 29.059074 60.244938
-16.564098 57.416904 44.157555
-11.650793 54.309956 53.778416
-23.408756 53.989567 40.704948
-19.492626 58.52869 40.102226
-20.36413 52.171185 44.212738
-17.052246 41.170166 57.145611
-15.469443 48.636868 53.042202
-13.332783 46.703075 58.169682
-9.361767 51.769917 58.703606
-11.020981 44.021069 63.139236
-20.715305 36.001476 56.505543
-18.313547 33.818649 60.953278
-12.900764 63.154705 44.149017
-17.729748 50.364147 48.27256
-13.97278 56.064701 48.771648
-10.173504 61.68713 48.935581
-7.711739 59.284672 53.717983
-18.979015 26.553875 64.127762
-15.874088 31.387791 65.689285
-13.327515 28.149254 70.435669
-12.397173 36.132339 67.072052
-21.839722 53.089283 42.419048
-15.966969 40.170383 59.660179
-15.219249 43.943062 57.666035
-14.130853 42.874306 60.22797
-12.210562 45.488239 60.700447
-12.980932 41.610218 62.743214
-23.156981 30.37841 58.506344
-22.618858 33.771919 56.556789
-21.304262 32.511078 58.457813
-19.510475 34.89674 58.674236
-20.009991 31.342178 60.491917
-17.991072 57.999668 42.068584
-16.174923 60.764774 41.999199
-14.732889 60.27383 44.20005
-20.41683 44.219082 50.250393
-19.666733 47.752224 48.181389
-18.462198 46.748142 50.318314
-13.580517 51.508564 53.459827
-14.685382 52.372295 50.932686
-12.791397 55.257572 51.25293
-12.085489 58.940456 48.950336
-10.864468 58.042744 51.426556
-8.916868 60.622952 51.355907
-9.682203 56.934078 53.892632
-17.643545 25.204079 66.264946
-17.450085 28.94339 64.883789
-16.173943 27.550526 67.192566
-12.922161 32.150352 68.830841
-23.532209 27.013699 60.244957
-22.986153 56.806164 38.552826
-21.048853 59.016285 38.212349
-21.392805 56.123486 40.343426
-19.868202 55.417927 42.181442
-18.428881 54.686268 44.128777
-18.130398 42.130783 54.699787
-17.343182 45.807606 52.644558
-16.276241 44.894199 55.115429
-14.406911 47.728062 55.595318
-12.489809 50.521183 56.020428
-10.516706 53.16608 56.28167
-11.375002 49.344379 58.546688
-10.210815 47.917217 60.983646
-21.196209 40.695854 52.360172
-23.962698 35.182251 54.796532
-21.949106 37.209682 54.481735
-20.010223 39.54174 54.460712
-18.870214 38.491096 56.724365
-17.745728 37.478085 59.105507
-16.606293 36.416103 61.551064
-18.993053 51.256138 46.150719
-17.087086 53.935635 46.231789
-16.563972 49.498753 50.581085
-15.844123 53.16901 48.506454
-15.224787 56.77557 46.394001
-13.369875 59.672771 46.525284
-11.497942 62.518772 46.51532
-8.259144 64.202774 48.642014
-8.514334 55.565403 56.288403
-22.005554 25.626022 61.798115
-20.516953 24.286842 63.505241
-20.345577 27.812 62.118172
-18.727467 30.182343 62.641491
-17.105663 32.676941 63.303822
-15.428228 35.217247 64.011841
-14.896956 25.954521 69.536682
-14.614008 29.889355 68.077042
-14.199728 33.810005 66.448448
-13.651785 37.716816 64.664703
-11.758228 40.09074 65.171082
-16.991641 24.452331 67.386585
-17.676114 23.327485 66.851067
-16.25684 25.625555 67.850395
-16.908744 26.377302 66.728756
-16.991641 24.452331 67.386585
-24.465401 26.115035 60.356331
-24.305871 27.766581 59.528757
-24.233032 54.427357 39.852192
-25.301875 53.500576 40.103554
-24.477599 53.062786 40.95631
-23.197454 55.397866 39.628887
-24.021731 55.835656 38.776131
-24.233032 54.427357 39.852192
-10.006906 45.108604 63.217268
-9.601823 47.056679 62.139473
-10.615898 45.969143 62.061441
-22.213568 39.631027 52.491709
-21.824466 41.339569 51.403898
-24.278005 33.509201 55.843744
-25.004338 34.322748 55.086559
-19.36146 60.002418 39.017738
-20.139573 60.246216 38.0728
-20.27074 58.772487 39.157288
-12.7378 64.813528 42.873669
-13.64048 63.388572 43.011753
-11.975262 64.554586 44.028217
-12.7378 64.813528 42.873669
-9.891417 63.447599 47.603144
-10.553636 63.86342 46.393013
-10.835723 62.102951 47.725451
-9.216324 62.944952 48.788798
-8.934237 64.705421 47.45636
-9.891417 63.447599 47.603144
-7.353284 61.0942 52.342395
-7.955849 61.76334 51.161358
-8.314303 59.953812 52.536945
-6.76015 60.281353 53.455373
-7.353284 61.0942 52.342395
-22.058411 23.908832 62.433283
-22.871557 24.641901 61.748423
-22.924414 22.924712 62.38359
-19.747984 25.420358 63.816502
-19.799286 23.602436 64.445232
-19.030317 24.735953 64.756493
-13.472205 26.142224 71.156327
-12.674119 27.156303 71.582618
-14.112236 27.051887 69.986176
-14.256925 25.044857 70.706833
-13.472205 26.142224 71.156327
-23.66585 52.520168 41.765583
-24.477599 53.062786 40.95631
-22.881332 52.070026 42.622633
-22.624239 53.539425 41.561998
-23.66585 52.520168 41.765583
-22.118062 51.512207 43.449392
-22.881332 52.070026 42.622633
-21.380266 51.053158 44.346237
-21.101926 52.630234 43.315893
-22.118062 51.512207 43.449392
-22.887919 32.075164 57.531566
-23.606085 32.804035 56.723873
-23.875146 31.107281 57.69865
-17.836467 59.579555 40.993848
-18.587244 59.844066 40.01067
-18.741849 58.264179 41.085405
-16.928393 60.962108 40.959156
-17.836467 59.579555 40.993848
-17.082997 59.382221 42.033891
-16.047609 62.353431 40.852926
-16.928393 60.962108 40.959156
-15.277559 62.193607 41.936844
-16.047609 62.353431 40.852926
-14.556542 61.948135 43.037269
-15.277559 62.193607 41.936844
-15.453906 60.519302 43.099624
-13.816827 61.714267 44.174533
-13.64048 63.388572 43.011753
-14.556542 61.948135 43.037269
-20.041781 45.985653 49.215891
-20.675673 46.582771 48.249168
-21.050721 44.816201 49.28367
-8.354245 52.83242 58.634743
-8.76846 50.923668 59.852583
-18.362582 24.061055 65.825085
-17.676114 23.327485 66.851067
-18.31128 25.878977 65.196354
-19.030317 24.735953 64.756493
-18.362582 24.061055 65.825085
-12.467505 29.186727 70.784195
-12.674119 27.156303 71.582618
-12.264827 31.187276 69.981781
-13.124838 30.149803 69.633255
-12.467505 29.186727 70.784195
-12.005907 33.208856 69.106437
-12.264827 31.187276 69.981781
-11.743413 35.19985 68.227043
-12.659667 34.141345 67.951447
-12.005907 33.208856 69.106437
-11.434758 37.207542 67.279648
-11.743413 35.19985 68.227043
-24.118257 29.448936 58.65945
-23.875146 31.107281 57.69865
-23.344595 28.696054 59.37565
-24.118257 29.448936 58.65945
-24.305871 27.766581 59.528757
-23.809126 57.147419 37.651457
-24.021731 55.835656 38.776131
-22.812899 58.149948 37.449612
-23.809126 57.147419 37.651457
-22.017503 57.911225 38.382587
-21.844249 59.255009 37.279373
-22.812899 58.149948 37.449612
-9.192984 48.997318 60.992603
-8.76846 50.923668 59.852583
-9.786291 49.843567 59.843626
-9.192984 48.997318 60.992603
-9.601823 47.056679 62.139473
-21.434777 43.101183 50.349008
-21.050721 44.816201 49.28367
-20.80652 42.457468 51.305283
-21.434777 43.101183 50.349008
-21.824466 41.339569 51.403898
-24.653219 35.970589 53.982579
-25.694859 35.111086 54.272606
-25.004338 34.322748 55.086559
-23.596812 36.874226 53.709888
-24.653219 35.970589 53.982579
-23.290778 34.477085 55.67666
-24.278005 33.509201 55.843744
-23.606085 32.804035 56.723873
-22.590017 37.887941 53.55249
-23.596812 36.874226 53.709888
-22.955902 36.195966 54.639133
-21.572657 38.952768 53.420953
-22.213568 39.631027 52.491709
-22.590017 37.887941 53.55249
-20.921585 60.383469 37.108021
-21.716981 60.622192 36.175045
-21.844249 59.255009 37.279373
-20.921585 60.383469 37.108021
-20.139573 60.246216 38.0728
-19.36146 60.002418 39.017738
-18.587244 59.844066 40.01067
-20.670198 50.497021 45.228665
-21.380266 51.053158 44.346237
-20.321499 48.28754 47.21299
-20.675673 46.582771 48.249168
-19.984659 50.039497 46.197655
-20.321499 48.28754 47.21299
-19.329893 49.504181 47.166054
-19.678591 51.713662 45.181729
-20.670198 50.497021 45.228665
-19.984659 50.039497 46.197655
-11.273851 64.23662 45.211369
-11.975262 64.554586 44.028217
-12.199353 62.836738 45.332169
-11.273851 64.23662 45.211369
-10.553636 63.86342 46.393013
-7.997395 65.922249 47.182541
-8.934237 64.705421 47.45636
-7.327804 65.298813 48.326071
-7.997395 65.922249 47.182541
-7.626986 63.553251 49.804411
-8.588006 62.412863 49.998961
-7.955849 61.76334 51.161358
-7.327804 65.298813 48.326071
-7.626986 63.553251 49.804411
-7.930528 54.730164 57.427142
-8.93805 53.66766 57.496004
-8.354245 52.83242 58.634743
-7.529649 56.600003 56.129479
-7.930528 54.730164 57.427142
-7.128351 58.459637 54.844268
-8.113036 57.425038 55.003193
-7.529649 56.600003 56.129479
-6.76015 60.281353 53.455373
-7.128351 58.459637 54.844268
-23.634884 25.335739 60.971843
-24.465401 26.115035 60.356331
-22.768881 26.31986 61.021536
-23.634884 25.335739 60.971843
-22.871557 24.641901 61.748423
-20.532497 22.518602 64.067402
-19.799286 23.602436 64.445232
-21.314111 23.239242 63.286846
-21.329656 21.471002 63.849007
-20.532497 22.518602 64.067402
-21.261254 24.956432 62.651678
-22.058411 23.908832 62.433283
-21.314111 23.239242 63.286846
-14.979937 23.981323 70.178791
-14.256925 25.044857 70.706833
-15.618346 24.827552 69.022453
-14.979937 23.981323 70.178791
-15.53545 26.752524 68.364624
-16.25684 25.625555 67.850395
-15.618346 24.827552 69.022453
-11.115286 39.186742 66.329163
-12.077701 38.111539 66.121567
-11.434758 37.207542 67.279648
-10.762705 41.176221 65.313904
-11.115286 39.186742 66.329163
-10.394082 43.141386 64.297981
-11.389605 42.055904 64.155159
-10.762705 41.176221 65.313904
-10.006906 45.108604 63.217268
-10.394082 43.141386 64.297981
3 0 27 25
3 0 29 27
3 2 32 30
3 2 34 32
3 3 36 35
3 3 37 36
3 1 40 38
3 4 43 41
3 4 45 43
3 4 47 45
3 93 48 94
3 95 50 96
3 97 96 48
3 95 96 97
3 98 52 99
3 5 100 102
3 100 101 102
3 5 103 105
3 103 53 104
3 103 104 105
3 5 55 53
3 7 56 24
3 7 57 56
3 8 60 58
3 10 61 26
3 10 62 61
3 10 64 62
3 12 65 28
3 12 106 108
3 108 107 65
3 106 107 108
3 109 66 110
3 111 67 112
3 13 68 31
3 13 69 68
3 13 70 69
3 14 71 33
3 14 72 71
3 6 113 115
3 115 114 54
3 113 114 115
3 15 116 117
3 15 118 119
3 16 73 39
3 16 74 73
3 9 75 59
3 17 76 42
3 17 77 76
3 17 78 77
3 18 79 44
3 18 120 122
3 122 121 79
3 120 121 122
3 18 123 125
3 123 80 124
3 123 124 125
3 19 126 128
3 128 127 46
3 126 127 128
3 19 129 130
3 11 81 63
3 131 82 132
3 131 132 133
3 20 134 136
3 134 83 135
3 134 135 136
3 20 84 83
3 20 85 84
3 21 86 49
3 21 87 86
3 22 137 138
3 22 139 141
3 139 88 140
3 139 140 141
3 22 89 88
3 23 90 51
3 23 91 90
3 23 92 91
3 142 5 143
3 144 24 145
3 146 145 5
3 144 145 146
3 147 24 148
3 149 7 150
3 151 150 24
3 149 150 151
3 25 26 8
3 27 26 25
3 27 10 26
3 27 28 10
3 29 28 27
3 29 12 28
3 30 152 154
3 152 31 153
3 152 153 154
3 32 31 30
3 32 13 31
3 32 33 13
3 34 33 32
3 34 14 33
3 35 155 157
3 157 156 6
3 155 156 157
3 36 158 160
3 160 159 35
3 158 159 160
3 36 161 162
3 36 163 164
3 37 165 167
3 167 166 36
3 165 166 167
3 37 168 170
3 168 15 169
3 168 169 170
3 38 171 173
3 171 39 172
3 171 172 173
3 40 39 38
3 40 16 39
3 41 42 9
3 43 42 41
3 43 17 42
3 43 44 17
3 45 44 43
3 45 18 44
3 45 46 18
3 47 46 45
3 47 19 46
3 175 174 11
3 48 176 177
3 48 178 180
3 178 20 179
3 178 179 180
3 48 49 20
3 50 49 48
3 50 21 49
3 181 22 182
3 183 51 184
3 185 184 22
3 183 184 185
3 186 51 187
3 188 23 189
3 190 189 51
3 188 189 190
3 192 191 23
3 193 30 194
3 52 195 197
3 195 30 196
3 195 196 197
3 52 2 30
3 53 198 199
3 53 200 201
3 53 202 204
3 202 54 203
3 202 203 204
3 55 54 53
3 55 6 54
3 24 55 5
3 56 55 24
3 56 6 55
3 56 35 6
3 57 35 56
3 57 3 35
3 58 59 1
3 60 59 58
3 60 9 59
3 26 60 8
3 61 60 26
3 61 9 60
3 61 41 9
3 62 41 61
3 62 4 41
3 62 63 4
3 64 63 62
3 64 11 63
3 28 64 10
3 65 64 28
3 65 11 64
3 65 205 207
3 207 206 11
3 205 206 207
3 209 208 65
3 210 38 211
3 66 212 214
3 212 38 213
3 212 213 214
3 66 1 38
3 67 215 217
3 215 216 217
3 67 218 219
3 31 220 222
3 220 67 221
3 220 221 222
3 68 67 31
3 68 223 225
3 225 224 67
3 223 224 225
3 68 226 228
3 226 66 227
3 226 227 228
3 69 66 68
3 69 1 66
3 69 58 1
3 70 58 69
3 70 8 58
3 33 70 13
3 71 70 33
3 71 8 70
3 71 25 8
3 72 25 71
3 72 0 25
3 54 229 231
3 229 230 231
3 233 232 54
3 235 234 6
3 236 7 237
3 39 238 239
3 73 240 242
3 242 241 39
3 240 241 242
3 73 243 245
3 243 7 244
3 243 244 245
3 73 57 7
3 74 57 73
3 74 3 57
3 59 40 1
3 75 40 59
3 75 16 40
3 42 75 9
3 76 75 42
3 76 16 75
3 76 74 16
3 77 74 76
3 77 3 74
3 77 37 3
3 78 37 77
3 78 15 37
3 44 78 17
3 79 78 44
3 79 15 78
3 79 246 248
3 248 247 15
3 246 247 248
3 250 249 79
3 80 251 252
3 80 253 254
3 46 80 18
3 255 80 256
3 257 256 46
3 255 256 257
3 259 258 80
3 63 47 4
3 81 47 63
3 81 19 47
3 260 81 261
3 262 261 11
3 260 261 262
3 263 81 264
3 265 19 266
3 267 266 81
3 265 266 267
3 269 268 19
3 270 52 271
3 82 272 274
3 272 52 273
3 272 273 274
3 82 2 52
3 83 275 276
3 83 277 279
3 277 278 279
3 83 280 282
3 280 82 281
3 280 281 282
3 84 82 83
3 84 2 82
3 84 34 2
3 85 34 84
3 85 14 34
3 49 85 20
3 86 85 49
3 86 14 85
3 86 72 14
3 87 72 86
3 87 0 72
3 88 283 284
3 88 285 286
3 88 287 289
3 287 50 288
3 287 288 289
3 89 50 88
3 89 21 50
3 51 89 22
3 90 89 51
3 90 21 89
3 90 87 21
3 91 87 90
3 91 0 87
3 91 29 0
3 92 29 91
3 92 12 29
3 290 92 291
3 292 291 23
3 290 291 292
3 293 92 294
3 295 12 296
3 297 296 92
3 295 296 297
3 299 298 12
