ply
format ascii 1.0
element vertex 139
property float x
property float y
property float z
element face 118
property list uchar int vertex_index
end_header
29.162489 -13.058142 -42.695946
28.642673 -8.074938 -47.171738
29.087294 -2.649885 -48.440498
28.849384 -18.570335 -40.381004
28.935772 -19.791952 -41.822891
28.566042 -13.796758 -44.875725
29.217052 -5.217478 -46.356506
29.181973 -23.62611 -36.633324
28.977097 -15.793559 -41.628784
28.553909 -16.201113 -42.675751
28.604658 -13.365813 -43.930229
28.903116 -5.558352 -49.249672
28.856693 -8.431789 -48.231255
29.391041 -10.369 -43.552032
28.743889 -10.586357 -44.985062
28.95521 -7.86758 -45.806519
28.827915 -5.320884 -47.95414
29.055792 -2.768017 -49.986122
29.373423 -20.882477 -38.007896
28.783377 -21.387165 -38.975838
28.726473 -22.041662 -39.667122
28.597216 -19.091518 -41.248199
28.697292 -16.75849 -43.431091
29.125443 -14.408703 -45.512924
28.549948 -10.901971 -46.133018
28.928963 -11.382061 -46.973045
29.406799 -0.076929 -48.596313
29.092708 -25.01023 -35.884293
28.97646 -23.937165 -37.031929
29.48847 -14.260092 -41.506138
29.606447 -12.925931 -41.948753
29.069793 -14.42585 -42.162365
29.395774 -15.6278 -40.972557
29.48847 -14.260092 -41.506138
29.216563 -5.775035 -49.734623
29.218152 -4.318621 -50.229
29.516323 -9.05108 -43.856544
29.832959 -10.265714 -42.708408
29.298407 -7.80037 -44.983788
29.173126 -9.11829 -44.679276
29.516323 -9.05108 -43.856544
29.111404 -19.726406 -39.19445
29.479222 -19.521373 -38.625244
29.217202 -18.365302 -39.811798
29.288429 -10.184975 -47.968872
28.892828 -9.906925 -47.60215
29.252294 -8.709839 -48.597977
29.409102 -11.724821 -47.231209
29.288429 -10.184975 -47.968872
29.593889 1.150922 -48.49818
29.613723 -0.12287 -47.552124
29.096849 -21.350001 -40.945988
28.9922 -22.474857 -39.868103
28.831122 -20.916807 -40.745007
29.554709 -5.188107 -45.421486
29.429328 -6.475319 -45.258781
29.363345 -3.932192 -46.477726
29.554709 -5.188107 -45.421486
29.298466 -2.648395 -47.519722
29.152173 -3.933681 -47.398502
29.363345 -3.932192 -46.477726
29.438879 -24.706971 -35.440124
29.60032 -23.370962 -36.108006
29.438879 -24.706971 -35.440124
29.092708 -25.01023 -35.884293
29.281059 -16.976914 -40.435688
29.395774 -15.6278 -40.972557
28.913241 -17.181947 -41.004894
29.217202 -18.365302 -39.811798
29.281059 -16.976914 -40.435688
29.193351 -7.211754 -49.225414
28.879905 -6.995071 -48.740463
29.216563 -5.775035 -49.734623
29.252294 -8.709839 -48.597977
29.193351 -7.211754 -49.225414
29.390526 -20.254215 -41.962402
29.187221 -18.654311 -42.852161
29.720723 -11.58136 -42.376796
29.832959 -10.265714 -42.708408
29.276765 -11.713571 -43.123989
29.606447 -12.925931 -41.948753
29.720723 -11.58136 -42.376796
29.086131 -6.542529 -46.081513
29.298407 -7.80037 -44.983788
29.429328 -6.475319 -45.258781
29.29449 -2.923453 -50.597225
29.218152 -4.318621 -50.229
28.979454 -4.163184 -49.617897
29.843905 -20.662721 -37.402512
29.479222 -19.521373 -38.625244
29.696045 -21.999146 -36.795292
29.843905 -20.662721 -37.402512
29.277698 -22.254294 -37.32061
29.60032 -23.370962 -36.108006
29.696045 -21.999146 -36.795292
28.777162 -22.817692 -38.203186
28.97646 -23.937165 -37.031929
28.982675 -22.506638 -37.804581
28.754925 -21.714413 -39.32148
28.74871 -23.14494 -38.548828
28.777162 -22.817692 -38.203186
29.067981 -17.13758 -43.656261
29.187221 -18.654311 -42.852161
28.816532 -18.275221 -42.626991
29.282056 -15.962687 -44.697178
29.067981 -17.13758 -43.656261
28.911368 -15.583596 -44.472008
29.685773 -14.822661 -45.673294
29.282056 -15.962687 -44.697178
29.507343 -13.238142 -46.501148
29.027203 -12.895382 -46.242984
29.409102 -11.724821 -47.231209
29.685773 -14.822661 -45.673294
29.507343 -13.238142 -46.501148
29.458219 -1.361917 -47.597629
29.613723 -0.12287 -47.552124
29.247046 -1.363407 -48.518406
29.298466 -2.648395 -47.519722
29.458219 -1.361917 -47.597629
29.523092 1.213376 -49.528141
29.593889 1.150922 -48.49818
29.354875 -0.075411 -49.498199
29.523092 1.213376 -49.528141
29.195123 -1.361889 -49.420291
29.247046 -1.363407 -48.518406
29.354875 -0.075411 -49.498199
29.179372 -1.420955 -50.193103
29.071543 -2.708951 -49.21331
29.195123 -1.361889 -49.420291
29.353769 -1.512329 -50.93541
29.179372 -1.420955 -50.193103
29.29449 -2.923453 -50.597225
29.353769 -1.512329 -50.93541
28.822806 -23.552161 -38.807392
28.74871 -23.14494 -38.548828
28.822806 -23.552161 -38.807392
28.9922 -22.474857 -39.868103
29.096849 -21.350001 -40.945988
29.390526 -20.254215 -41.962402
3 28 27 7
3 0 29 30
3 0 31 33
3 31 8 32
3 31 32 33
3 0 10 8
3 35 34 11
3 36 13 37
3 38 15 39
3 40 39 13
3 38 39 40
3 2 16 6
3 2 17 16
3 3 41 43
3 41 18 42
3 41 42 43
3 3 19 18
3 3 21 19
3 5 22 9
3 5 23 22
3 1 24 14
3 44 25 45
3 46 45 12
3 44 45 46
3 48 47 25
3 49 26 50
3 4 51 53
3 53 52 20
3 51 52 53
3 54 6 55
3 56 6 57
3 58 2 59
3 60 59 6
3 58 59 60
3 7 61 62
3 64 63 7
3 8 65 66
3 8 67 69
3 67 3 68
3 67 68 69
3 8 9 3
3 10 9 8
3 10 5 9
3 11 12 1
3 70 12 71
3 72 71 11
3 70 71 72
3 74 73 12
3 76 75 4
3 13 77 78
3 13 79 81
3 79 0 80
3 79 80 81
3 13 14 0
3 15 14 13
3 15 1 14
3 6 82 84
3 82 15 83
3 82 83 84
3 16 15 6
3 16 1 15
3 16 11 1
3 17 11 16
3 17 85 87
3 87 86 11
3 85 86 87
3 18 88 89
3 18 90 91
3 18 92 94
3 92 7 93
3 92 93 94
3 19 7 18
3 19 95 97
3 97 96 7
3 95 96 97
3 19 98 100
3 98 20 99
3 98 99 100
3 21 20 19
3 21 4 20
3 9 21 3
3 22 21 9
3 22 4 21
3 22 101 103
3 103 102 4
3 101 102 103
3 23 104 106
3 106 105 22
3 104 105 106
3 23 107 108
3 14 10 0
3 24 10 14
3 24 5 10
3 12 24 1
3 25 24 12
3 25 5 24
3 25 23 5
3 109 23 110
3 111 110 25
3 109 110 111
3 113 112 23
3 26 114 115
3 26 116 118
3 116 2 117
3 116 117 118
3 119 26 120
3 121 26 122
3 123 2 124
3 125 124 26
3 123 124 125
3 126 17 127
3 128 127 2
3 126 127 128
3 129 17 130
3 132 131 17
3 20 133 134
3 136 135 20
3 138 137 4
