ply
format ascii 1.0
element vertex 178
property float x
property float y
property float z
element face 177
property list uchar int vertex_index
end_header
22.46456 -10.954228 78.462555
29.370289 -11.074526 74.989655
20.006313 -8.217003 77.943748
23.145744 -7.671978 75.008606
19.745098 -12.545425 81.100433
16.653173 -9.50004 81.221397
23.222149 -14.185778 80.293137
19.483566 -16.855143 82.852898
25.543148 -11.206358 76.913864
27.072344 -14.725813 78.554253
26.681236 -7.446504 72.63253
33.222256 -10.494011 72.91507
30.586868 -6.950748 70.722847
21.346966 -9.818089 78.218468
21.55529 -7.857153 76.401833
22.813011 -9.534188 76.978462
21.314213 -11.656565 79.681465
19.838974 -10.407176 79.667885
22.857235 -12.414726 79.385178
21.433544 -13.541163 80.827202
23.824293 -11.110392 77.784103
24.5707 -12.779553 78.728569
24.426926 -9.476697 75.895348
31.322508 -10.833401 73.977875
32.244202 -12.59058 74.696312
30.342169 -12.829842 75.842339
25.406601 -16.406157 79.921532
27.396011 -16.558195 78.78112
28.117023 -9.301407 73.850906
28.606642 -7.248248 71.628059
30.077127 -9.074579 72.890137
32.041054 -8.744011 71.948288
20.240646 -5.908705 76.000938
21.801567 -5.684435 74.346352
23.432657 -5.553678 72.846085
17.904018 -13.556126 82.509621
18.144735 -11.18627 81.193871
18.394188 -8.77141 79.5811
23.428865 -16.074463 80.892273
21.424536 -17.552452 82.046425
21.503609 -15.518735 81.655167
19.65678 -14.68996 82.187347
27.421778 -11.199527 75.969597
28.387278 -12.955164 76.90284
26.440247 -12.94502 77.875275
25.113789 -14.555941 79.514755
25.173748 -5.442193 71.526268
24.85145 -7.568508 73.757202
26.214388 -9.425505 74.852097
29.041487 -14.735909 77.455772
27.029095 -5.284417 70.395149
28.978376 -5.040495 69.441315
25.414238 -17.358145 79.876545
24.410812 -17.215795 80.475567
20.12348 -7.062854 76.972343
19.460608 -6.094334 76.879162
19.343441 -7.248483 77.850566
19.343441 -7.248483 77.850566
18.537378 -7.525686 78.669242
19.20025 -8.494207 78.762424
15.7105 -9.944433 82.003777
16.459214 -10.807737 81.953079
19.329161 -17.942767 82.940967
20.299646 -18.291421 82.537731
20.454051 -17.203798 82.449661
33.631863 -11.379981 73.181995
34.12249 -10.29033 72.341519
32.514533 -13.492283 74.80212
31.603802 -13.60308 75.468109
28.372021 -16.561755 78.141079
27.400644 -17.499383 78.633183
30.787629 -5.824555 69.675773
29.983383 -4.869428 69.035008
29.782622 -5.995622 70.082081
31.582473 -6.754594 70.299377
30.787629 -5.824555 69.675773
33.591296 -9.411791 71.950623
33.000695 -8.536791 71.467232
32.631655 -9.619011 72.431679
34.12249 -10.29033 72.341519
33.591296 -9.411791 71.950623
15.979806 -8.515493 81.242939
16.852082 -8.159847 80.379963
18.364187 -17.542844 83.382969
18.55151 -16.378822 83.147026
30.652786 -13.722711 76.041123
31.603802 -13.60308 75.468109
31.293185 -12.710211 75.269326
26.408943 -17.434164 79.306339
26.401306 -16.482176 79.351326
25.414238 -17.358145 79.876545
27.400644 -17.499383 78.633183
26.408943 -17.434164 79.306339
19.622394 -4.798834 75.90572
19.460608 -6.094334 76.879162
20.376713 -4.682658 74.974239
19.622394 -4.798834 75.90572
21.157173 -4.570523 74.146946
20.376713 -4.682658 74.974239
21.021107 -5.79657 75.173645
21.931383 -4.504672 73.279789
21.157173 -4.570523 74.146946
22.746928 -4.439293 72.529656
21.931383 -4.504672 73.279789
22.617112 -5.619056 73.596218
23.567069 -4.394364 71.758434
22.746928 -4.439293 72.529656
17.084637 -12.835781 82.597191
16.881187 -14.116749 83.171719
17.204995 -11.650852 81.939316
17.084637 -12.835781 82.597191
18.024377 -12.371198 81.851746
17.398954 -10.343155 81.207634
16.459214 -10.807737 81.953079
17.204995 -11.650852 81.939316
17.722589 -7.795531 79.559814
16.852082 -8.159847 80.379963
17.52368 -9.135725 80.401249
17.722589 -7.795531 79.559814
18.537378 -7.525686 78.669242
22.4267 -16.813457 81.469349
22.419779 -17.788943 81.538014
23.421943 -17.049948 80.960938
18.638117 -15.29623 82.81425
18.55151 -16.378822 83.147026
19.570173 -15.772552 82.520122
17.761736 -14.729313 82.975387
18.638117 -15.29623 82.81425
18.780399 -14.123043 82.348484
16.881187 -14.116749 83.171719
17.761736 -14.729313 82.975387
23.421943 -17.049948 80.960938
24.410812 -17.215795 80.475567
24.417733 -16.24031 80.406903
24.303202 -5.497935 72.186177
24.437615 -4.338622 71.098526
23.567069 -4.394364 71.758434
15.037133 -8.959886 82.025318
15.7105 -9.944433 82.003777
15.979806 -8.515493 81.242939
21.292797 -18.583407 81.991428
22.419779 -17.788943 81.538014
21.292797 -18.583407 81.991428
20.299646 -18.291421 82.537731
19.329161 -17.942767 82.940967
18.364187 -17.542844 83.382969
33.142836 -12.428266 74.072617
33.631863 -11.379981 73.181995
32.733229 -11.542295 73.805691
33.142836 -12.428266 74.072617
32.514533 -13.492283 74.80212
30.002444 -14.675745 76.847839
30.652786 -13.722711 76.041123
29.691828 -13.782875 76.649056
29.194758 -15.650612 77.478405
28.218749 -15.647052 78.118446
28.372021 -16.561755 78.141079
30.002444 -14.675745 76.847839
29.194758 -15.650612 77.478405
25.317152 -4.283952 70.4426
24.437615 -4.338622 71.098526
26.244826 -4.205065 69.87704
25.317152 -4.283952 70.4426
26.101422 -5.363305 70.960709
27.184179 -4.116524 69.341301
26.244826 -4.205065 69.87704
28.15882 -3.994563 68.864384
27.184179 -4.116524 69.341301
28.003736 -5.162456 69.918232
29.148471 -3.859196 68.437683
28.15882 -3.994563 68.864384
29.148471 -3.859196 68.437683
29.983383 -4.869428 69.035008
32.309567 -7.651226 70.912098
31.582473 -6.754594 70.299377
31.313961 -7.84738 71.335567
32.309567 -7.651226 70.912098
33.000695 -8.536791 71.467232
3 0 15 13
3 0 13 16
3 0 16 18
3 0 18 20
3 0 20 15
3 1 25 23
3 53 52 26
3 1 30 28
3 1 23 30
3 2 54 56
3 54 32 55
3 54 55 56
3 3 33 14
3 3 34 33
3 4 36 35
3 2 37 17
3 2 57 59
3 59 58 37
3 57 58 59
3 6 40 38
3 4 41 19
3 4 35 41
3 8 44 42
3 6 45 21
3 6 38 45
3 3 47 34
3 8 48 22
3 8 42 48
3 5 60 61
3 7 62 64
3 64 63 39
3 62 63 64
3 11 65 66
3 68 67 24
3 9 49 43
3 70 69 27
3 10 50 46
3 12 51 29
3 12 71 73
3 73 72 51
3 71 72 73
3 12 74 75
3 11 76 78
3 78 77 31
3 76 77 78
3 11 79 80
3 13 14 2
3 15 14 13
3 15 3 14
3 16 17 4
3 13 17 16
3 13 2 17
3 18 19 6
3 16 19 18
3 16 4 19
3 20 21 8
3 18 21 20
3 18 6 21
3 15 22 3
3 20 22 15
3 20 8 22
3 82 81 5
3 84 83 7
3 23 24 11
3 25 24 23
3 25 85 87
3 87 86 24
3 85 86 87
3 26 27 9
3 88 27 89
3 90 89 26
3 88 89 90
3 92 91 27
3 28 29 10
3 30 29 28
3 30 12 29
3 30 31 12
3 23 31 30
3 23 11 31
3 32 93 94
3 32 95 96
3 14 32 2
3 33 32 14
3 33 97 99
3 99 98 32
3 97 98 99
3 33 100 101
3 34 102 104
3 104 103 33
3 102 103 104
3 34 105 106
3 35 107 108
3 36 109 111
3 111 110 35
3 109 110 111
3 36 112 114
3 112 5 113
3 112 113 114
3 17 36 4
3 37 36 17
3 37 5 36
3 37 115 117
3 117 116 5
3 115 116 117
3 119 118 37
3 38 120 122
3 120 39 121
3 120 121 122
3 40 39 38
3 40 7 39
3 19 40 6
3 41 40 19
3 41 7 40
3 41 123 125
3 125 124 7
3 123 124 125
3 35 126 128
3 128 127 41
3 126 127 128
3 35 129 130
3 42 43 1
3 44 43 42
3 44 9 43
3 21 44 8
3 45 44 21
3 45 9 44
3 45 26 9
3 38 26 45
3 38 131 133
3 133 132 26
3 131 132 133
3 34 134 136
3 134 46 135
3 134 135 136
3 47 46 34
3 47 10 46
3 22 47 3
3 48 47 22
3 48 10 47
3 48 28 10
3 42 28 48
3 42 1 28
3 139 138 5
3 137 138 139
3 39 140 141
3 143 142 39
3 145 144 7
3 24 146 148
3 148 147 11
3 146 147 148
3 150 149 24
3 43 25 1
3 49 25 43
3 49 151 153
3 153 152 25
3 151 152 153
3 27 49 9
3 154 49 155
3 156 155 27
3 154 155 156
3 158 157 49
3 46 159 160
3 50 161 163
3 163 162 46
3 161 162 163
3 50 164 165
3 29 50 10
3 51 50 29
3 51 166 168
3 168 167 50
3 166 167 168
3 51 169 170
3 172 171 51
3 31 173 175
3 175 174 12
3 173 174 175
3 177 176 31
