ply
format ascii 1.0
element vertex 369
property float x
property float y
property float z
element face 412
property list uchar int vertex_index
end_header
-4.192778 -53.289368 69.938187
-0.439129 -19.309406 48.04501
-4.622086 -30.344624 60.4174
-3.291842 -47.547077 51.222927
-5.24769 -42.843502 64.323936
-6.229799 -39.477226 54.966267
-4.883583 -51.376228 59.39801
-4.967514 -25.652641 52.685211
-2.414633 -34.195454 48.994167
-4.942215 -48.348068 67.063629
-5.817709 -47.315758 61.791199
-4.722544 -52.56517 64.485123
-3.918207 -23.573986 59.483421
-4.575722 -21.269646 55.621223
-5.499937 -28.308636 56.105965
-4.971087 -43.55582 53.127094
-4.827387 -36.963051 51.581001
-3.085073 -41.053482 50.011929
-1.979652 -14.955071 50.175922
-5.109741 -36.806633 62.042187
-6.151142 -35.094131 57.331894
-6.302057 -41.473831 59.298523
-5.912357 -45.713638 57.05125
-4.435017 -49.666756 54.949528
-3.286337 -57.295639 67.051216
-3.284447 -37.886078 67.238068
-3.87653 -18.335527 52.578491
-3.06027 -22.583088 50.145615
-5.849472 -32.745804 53.453724
-4.109413 -29.946407 50.558735
-1.458736 -26.949213 48.334381
-3.377518 -56.497047 61.710987
-3.308002 -55.291439 56.806473
-4.615551 -50.886299 68.507721
-5.025684 -50.507324 65.784927
-4.48456 -52.977886 67.185455
0.020735 -15.355077 47.982456
1.238115 -13.603702 46.837448
0.855446 -17.648905 46.959763
0.412491 -21.599108 47.094185
-4.286694 -26.990578 59.869232
-4.824955 -25.987673 57.7244
-5.213488 -29.413506 58.164047
-4.115389 -45.540138 52.227734
-4.124941 -42.328911 51.485741
-3.255737 -44.344616 50.605011
-2.255301 -43.127617 49.100555
-2.525454 -12.900584 51.437557
-5.22921 -39.885723 63.109924
-5.892307 -39.195908 60.597706
-5.886761 -42.235291 61.747795
-5.500021 -49.386475 60.596706
-5.98514 -46.589943 59.333389
-5.478559 -48.617653 58.21217
-5.244751 -47.708332 56.014137
-4.745298 -50.584091 57.082073
-3.086246 -34.826729 66.222076
-4.927172 -23.477858 54.05983
-4.402027 -19.871012 53.999775
-4.429026 -22.013573 52.564358
-3.596422 -20.444542 51.269894
-4.156218 -24.15538 51.323532
-6.388508 -37.329163 56.060444
-6.18877 -33.991356 55.270626
-6.117973 -36.16555 54.122562
-3.707394 -35.592415 50.216682
-4.527475 -33.503002 50.993446
-3.318356 -32.073078 49.743744
-2.845245 -28.457973 49.400368
-1.9594 -30.622105 48.613605
-0.564827 -29.17802 47.515533
-1.053261 -32.805359 47.83054
-3.341192 -56.94342 64.34153
-2.58555 -58.897625 62.787029
-5.154104 -45.666946 65.654404
-5.741568 -45.138554 63.022297
-5.452232 -47.896492 64.382317
-5.336081 -50.013092 63.134365
-4.867018 -52.035355 61.876583
-3.966818 -19.003342 57.317677
-4.399565 -22.509506 57.452637
-5.055624 -24.810678 55.780632
-5.424225 -27.046671 54.274994
-5.72213 -41.546333 54.010941
-5.687668 -38.270332 53.152489
-4.981522 -40.316879 52.302219
-3.983751 -39.012123 50.805531
-2.797741 -37.671486 49.466839
-1.512281 -36.332756 48.211246
-1.920546 -39.770142 48.641415
-0.792294 -13.160398 49.066669
-1.262051 -17.093056 49.054893
-4.902403 -33.621311 61.1413
-5.536839 -32.768188 58.789459
-5.770075 -36.034668 59.604118
-6.300323 -38.34388 58.232002
-6.430498 -40.552078 57.023735
-6.142588 -44.468109 60.498272
-6.297964 -43.643204 58.128098
-6.16432 -42.664318 55.955341
-5.574871 -44.694992 54.977871
-4.787693 -46.673439 54.020786
-3.947632 -48.644218 53.002892
-3.869549 -55.323097 68.539146
-3.521177 -27.810406 62.183159
-3.808317 -31.096943 62.82695
-4.055401 -34.303009 63.632229
-4.252224 -37.417488 64.600197
-4.389906 -40.426933 65.722961
-3.456224 -40.842201 68.398239
-4.458509 -43.31678 66.983124
-4.447023 -46.074219 68.353256
-4.346598 -48.691544 69.795929
-4.092247 -17.710943 55.592014
-3.881985 -16.248747 54.055206
-3.343193 -14.636349 52.684776
-3.042198 -16.688305 51.322914
-2.505894 -18.7966 50.124306
-1.782038 -20.960657 49.080658
-5.875452 -31.742792 56.620483
-5.856707 -30.557503 54.674164
-5.453979 -29.235687 52.975201
-5.485359 -34.87899 52.437508
-5.139809 -31.386433 51.890823
-4.683989 -27.807203 51.522156
-3.607601 -26.303139 50.280624
-2.321314 -24.751783 49.185204
-0.941908 -23.176994 48.151501
-0.068657 -25.443434 47.272469
-4.019747 -54.985741 65.803131
-4.128124 -54.547947 63.135635
-4.165279 -53.997395 60.573803
-2.605293 -58.464691 60.189808
-3.373224 -55.947575 59.191486
-4.106195 -53.326691 58.149517
-3.930735 -52.537224 55.885033
-3.624561 -51.641212 53.78804
-2.891488 -46.980112 50.396538
-2.873435 -45.378882 50.08758
-3.273789 -45.945847 50.913969
-2.689896 -11.917095 52.138803
-2.297911 -10.99764 51.5037
-2.221691 -60.061861 63.285589
-2.579949 -59.072164 64.126897
1.775845 -12.732941 46.205185
1.62528 -14.80167 46.30207
-4.158886 -23.041746 58.468029
-3.970807 -21.312008 58.343394
-3.730128 -21.844248 59.358785
-1.715516 -42.528635 48.375391
-1.919467 -44.205349 48.546192
-1.385973 -14.057735 49.621296
-1.15155 -12.115838 49.660793
-1.745229 -13.013174 50.215419
-2.941844 -26.478768 63.114334
-3.364749 -26.131961 61.936786
-2.785416 -24.800323 62.867961
-3.336432 -31.387425 64.090721
-3.214878 -29.773119 63.72953
-3.459974 -32.990458 64.49336
-3.931859 -32.699976 63.22959
-3.336432 -31.387425 64.090721
-3.525385 -42.260786 69.043472
-2.980559 -40.99982 69.751068
-4.026527 -43.498075 68.335915
-3.957367 -42.079491 67.690682
-3.525385 -42.260786 69.043472
-4.020784 -44.876795 69.020981
-4.452766 -44.695499 67.66819
-4.026527 -43.498075 68.335915
-4.035944 -48.819069 71.169884
-4.017368 -47.537579 70.43977
-4.251539 -49.930077 70.530117
-4.035944 -48.819069 71.169884
0.095465 -28.470993 46.942169
-0.147327 -30.313952 47.079639
-0.868476 -35.680858 47.585195
-1.112823 -37.424664 47.756
-2.257769 -59.484858 59.373745
-2.236558 -59.683081 60.660628
-3.340613 -55.619507 57.998979
-2.994052 -56.944542 58.445833
-2.961441 -56.616474 57.253327
-3.271823 -52.664911 53.130079
-3.393568 -53.087372 54.177817
-3.402604 -51.151482 52.818224
-3.271823 -52.664911 53.130079
0.629425 -14.479389 47.409952
0.825198 -12.465726 47.38072
0.216508 -13.341413 47.953224
1.433946 -16.824271 46.363228
1.62528 -14.80167 46.30207
1.046781 -15.626303 46.898606
1.248761 -18.843145 46.452446
1.433946 -16.824271 46.363228
1.027284 -20.818247 46.519657
1.248761 -18.843145 46.452446
0.633969 -19.624007 47.026974
0.815234 -22.779943 46.616476
1.027284 -20.818247 46.519657
-2.373217 -44.770382 49.335352
-2.755519 -43.736117 49.852783
-2.873435 -45.378882 50.08758
-1.919467 -44.205349 48.546192
-2.373217 -44.770382 49.335352
-2.01813 -11.985931 50.846237
-2.297911 -10.99764 51.5037
-2.252553 -13.927827 50.806739
-1.745229 -13.013174 50.215419
-2.01813 -11.985931 50.846237
-2.482547 -33.466357 67.09407
-2.975397 -33.252318 65.788284
-2.583247 -35.021036 67.549404
-2.482547 -33.466357 67.09407
-2.682348 -36.55071 68.0574
-3.185347 -36.356403 66.730072
-2.583247 -35.021036 67.549404
-0.391544 -32.127622 47.237143
-0.147327 -30.313952 47.079639
-0.809044 -30.991689 47.673036
-2.95777 -58.095062 64.904148
-3.313765 -57.119529 65.696373
-2.930343 -58.271172 66.258991
-2.963371 -57.920523 63.564279
-2.95777 -58.095062 64.904148
-2.579949 -59.072164 64.126897
-2.950978 -56.309213 56.069803
-2.961441 -56.616474 57.253327
-3.235289 -54.912485 55.687033
-2.950978 -56.309213 56.069803
1.389587 -11.542469 46.763699
0.825198 -12.465726 47.38072
1.389587 -11.542469 46.763699
1.775845 -12.732941 46.205185
-3.754433 -19.558926 58.275914
-3.5755 -17.823071 58.200915
-4.183191 -20.756424 57.385157
-3.754433 -19.558926 58.275914
-3.970807 -21.312008 58.343394
-1.316955 -39.143356 47.971085
-1.112823 -37.424664 47.756
-1.716414 -38.051449 48.426331
-1.548139 -40.849897 48.145821
-2.087924 -41.44888 48.870985
-1.715516 -42.528635 48.375391
-1.316955 -39.143356 47.971085
-1.548139 -40.849897 48.145821
-0.595174 -11.168874 49.069351
-1.15155 -12.115838 49.660793
-0.190007 -12.244074 48.49533
-0.595174 -11.168874 49.069351
-0.38578 -14.257738 48.524563
0.216508 -13.341413 47.953224
-0.190007 -12.244074 48.49533
-3.79026 -55.447685 69.921436
-4.031163 -54.306233 69.238666
-3.951874 -54.430821 70.620957
-3.553733 -56.443452 69.170765
-3.79026 -55.447685 69.921436
-3.262127 -57.429724 68.4268
-3.577943 -56.309368 67.795181
-3.553733 -56.443452 69.170765
-2.938648 -58.407875 67.623547
-3.262127 -57.429724 68.4268
-2.582653 -59.383408 66.831322
-2.930343 -58.271172 66.258991
-2.938648 -58.407875 67.623547
-3.40379 -22.306633 60.405804
-3.730128 -21.844248 59.358785
-3.563264 -24.013751 60.586917
-3.40379 -22.306633 60.405804
-3.747508 -25.722047 60.779823
-4.10245 -25.282282 59.676327
-3.563264 -24.013751 60.586917
-3.903935 -27.400492 61.026196
-3.747508 -25.722047 60.779823
-3.364749 -26.131961 61.936786
-3.071308 -28.12985 63.407635
-2.941844 -26.478768 63.114334
-3.664747 -29.453674 62.505054
-3.071308 -28.12985 63.407635
-3.214878 -29.773119 63.72953
-3.570823 -34.564869 64.927153
-3.459974 -32.990458 64.49336
-2.975397 -33.252318 65.788284
-2.786201 -38.062023 68.580376
-2.682348 -36.55071 68.0574
-2.87209 -39.540085 69.160461
-2.396425 -39.697704 70.513291
-2.980559 -40.99982 69.751068
-3.370336 -39.36414 67.818153
-2.786201 -38.062023 68.580376
-2.87209 -39.540085 69.160461
-4.067581 -46.228916 69.718434
-4.020784 -44.876795 69.020981
-4.39681 -47.382881 69.074592
-4.067581 -46.228916 69.718434
-4.017368 -47.537579 70.43977
-4.386016 -51.027455 69.886013
-4.481075 -49.788922 69.151825
-4.251539 -49.930077 70.530117
-4.174629 -52.228989 70.601246
-4.404165 -52.087834 69.222954
-4.386016 -51.027455 69.886013
-4.041602 -53.401382 71.320915
-4.174629 -52.228989 70.601246
-4.023454 -52.341003 71.983974
-3.951874 -54.430821 70.620957
-4.041602 -53.401382 71.320915
-3.76021 -17.253909 57.298367
-3.5755 -17.823071 58.200915
-3.822925 -16.60771 56.435536
-3.76021 -17.253909 57.298367
-4.029533 -18.357143 56.454846
-3.862055 -15.939425 55.621736
-3.592733 -14.836191 56.465258
-3.822925 -16.60771 56.435536
-3.756924 -15.208327 54.853333
-3.862055 -15.939425 55.621736
-3.987116 -16.979845 54.82361
-3.637529 -14.44279 54.119621
-3.756924 -15.208327 54.853333
-3.368133 -13.636591 53.434406
-3.637529 -14.44279 54.119621
-3.612589 -15.442548 53.369991
-3.098765 -12.784977 52.762413
-3.368133 -13.636591 53.434406
-2.934323 -13.768466 52.061166
-2.689896 -11.917095 52.138803
-3.098765 -12.784977 52.762413
0.574661 -24.702106 46.705618
0.815234 -22.779943 46.616476
0.171917 -23.521271 47.183327
0.34355 -26.6037 46.820637
-0.316742 -27.310727 47.394001
0.095465 -28.470993 46.942169
0.574661 -24.702106 46.705618
0.34355 -26.6037 46.820637
-0.638966 -33.91716 47.394842
-1.282771 -34.569057 48.020893
-0.868476 -35.680858 47.585195
-0.391544 -32.127622 47.237143
-0.638966 -33.91716 47.394842
-2.226687 -59.899547 61.959238
-2.221691 -60.061861 63.285589
-2.595422 -58.681158 61.488418
-2.226687 -59.899547 61.959238
-2.236558 -59.683081 60.660628
-2.610086 -58.2031 58.944994
-2.257769 -59.484858 59.373745
-2.989259 -57.206133 59.690647
-2.610086 -58.2031 58.944994
-2.994052 -56.944542 58.445833
-3.546655 -53.535378 55.226313
-3.619369 -53.914332 56.345753
-3.235289 -54.912485 55.687033
-3.777648 -52.089218 54.836537
-3.546655 -53.535378 55.226313
-3.393568 -53.087372 54.177817
-3.56414 -49.652985 52.42565
-3.786097 -50.142715 53.395466
-3.402604 -51.151482 52.818224
-3.236244 -49.104414 51.535668
-3.619737 -48.095647 52.11291
-3.56414 -49.652985 52.42565
-2.946584 -48.589019 50.63072
-3.236244 -49.104414 51.535668
-2.891488 -46.980112 50.396538
-2.946584 -48.589019 50.63072
3 0 35 33
3 1 38 36
3 1 39 38
3 2 42 40
3 3 45 43
3 3 137 139
3 139 138 45
3 137 138 139
3 140 47 141
3 4 50 48
3 6 53 51
3 6 55 53
3 7 59 57
3 7 61 59
3 5 64 62
3 8 67 65
3 8 69 67
3 8 71 69
3 142 73 143
3 9 76 74
3 11 77 34
3 11 78 77
3 145 144 37
3 12 146 148
3 146 80 147
3 146 147 148
3 14 81 41
3 14 82 81
3 15 85 83
3 17 86 44
3 17 87 86
3 17 89 87
3 150 149 46
3 18 151 153
3 151 90 152
3 151 152 153
3 18 91 90
3 19 94 92
3 21 95 49
3 21 96 95
3 10 97 75
3 22 98 52
3 22 99 98
3 22 100 99
3 23 101 54
3 23 102 101
3 154 104 155
3 154 155 156
3 157 105 158
3 159 106 160
3 161 160 105
3 159 160 161
3 25 107 56
3 25 108 107
3 162 109 163
3 164 110 165
3 166 165 109
3 164 165 166
3 167 111 168
3 169 168 110
3 167 168 169
3 170 112 171
3 173 172 112
3 13 113 79
3 26 114 58
3 26 115 114
3 26 116 115
3 27 117 60
3 27 118 117
3 20 119 93
3 28 120 63
3 28 121 120
3 16 122 84
3 29 123 66
3 29 124 123
3 29 125 124
3 30 126 68
3 30 127 126
3 30 128 127
3 175 174 70
3 177 176 88
3 24 129 103
3 31 130 72
3 31 131 130
3 178 132 179
3 32 180 182
3 180 133 181
3 180 181 182
3 32 134 133
3 32 135 134
3 183 136 184
3 186 185 136
3 33 34 9
3 35 34 33
3 35 11 34
3 36 187 189
3 187 37 188
3 187 188 189
3 38 37 36
3 38 190 192
3 192 191 37
3 190 191 192
3 38 193 194
3 39 195 197
3 197 196 38
3 195 196 197
3 39 198 199
3 40 41 12
3 42 41 40
3 42 14 41
3 43 44 15
3 45 44 43
3 45 17 44
3 45 46 17
3 200 46 201
3 202 201 45
3 200 201 202
3 204 203 46
3 47 205 206
3 47 207 209
3 207 18 208
3 207 208 209
3 48 49 19
3 50 49 48
3 50 21 49
3 51 52 10
3 53 52 51
3 53 22 52
3 53 54 22
3 55 54 53
3 55 23 54
3 210 56 211
3 212 56 213
3 214 25 215
3 216 215 56
3 214 215 216
3 57 58 13
3 59 58 57
3 59 26 58
3 59 60 26
3 61 60 59
3 61 27 60
3 62 63 20
3 64 63 62
3 64 28 63
3 65 66 16
3 67 66 65
3 67 29 66
3 67 68 29
3 69 68 67
3 69 30 68
3 69 70 30
3 71 70 69
3 71 217 219
3 219 218 70
3 217 218 219
3 220 72 221
3 222 221 24
3 220 221 222
3 73 223 225
3 223 72 224
3 223 224 225
3 73 31 72
3 226 32 227
3 229 228 32
3 74 75 4
3 76 75 74
3 76 10 75
3 34 76 9
3 77 76 34
3 77 10 76
3 77 51 10
3 78 51 77
3 78 6 51
3 37 230 231
3 233 232 37
3 234 79 235
3 80 236 238
3 236 79 237
3 236 237 238
3 80 13 79
3 41 80 12
3 81 80 41
3 81 13 80
3 81 57 13
3 82 57 81
3 82 7 57
3 83 84 5
3 85 84 83
3 85 16 84
3 44 85 15
3 86 85 44
3 86 16 85
3 86 65 16
3 87 65 86
3 87 8 65
3 87 88 8
3 89 88 87
3 89 239 241
3 241 240 88
3 239 240 241
3 46 89 17
3 242 89 243
3 244 243 46
3 242 243 244
3 246 245 89
3 90 247 248
3 90 249 250
3 90 251 253
3 251 36 252
3 251 252 253
3 91 36 90
3 91 1 36
3 92 93 2
3 94 93 92
3 94 20 93
3 49 94 19
3 95 94 49
3 95 20 94
3 95 62 20
3 96 62 95
3 96 5 62
3 75 50 4
3 97 50 75
3 97 21 50
3 52 97 10
3 98 97 52
3 98 21 97
3 98 96 21
3 99 96 98
3 99 5 96
3 99 83 5
3 100 83 99
3 100 15 83
3 54 100 22
3 101 100 54
3 101 15 100
3 101 43 15
3 102 43 101
3 102 3 43
3 254 103 255
3 256 255 0
3 254 255 256
3 257 103 258
3 259 24 260
3 261 260 103
3 259 260 261
3 262 24 263
3 266 265 24
3 264 265 266
3 267 12 268
3 269 12 270
3 271 40 272
3 273 272 12
3 271 272 273
3 104 274 276
3 274 40 275
3 274 275 276
3 104 2 40
3 277 104 278
3 105 279 281
3 279 104 280
3 279 280 281
3 105 2 104
3 105 92 2
3 106 92 105
3 106 19 92
3 56 282 284
3 282 106 283
3 282 283 284
3 107 106 56
3 107 19 106
3 107 48 19
3 108 48 107
3 108 4 48
3 285 25 286
3 109 287 289
3 287 288 289
3 109 290 292
3 290 25 291
3 290 291 292
3 109 108 25
3 110 108 109
3 110 4 108
3 110 74 4
3 111 74 110
3 111 9 74
3 293 111 294
3 112 295 297
3 295 111 296
3 295 296 297
3 112 9 111
3 112 33 9
3 298 33 299
3 300 299 112
3 298 299 300
3 301 0 302
3 303 302 33
3 301 302 303
3 304 0 305
3 304 305 306
3 308 307 0
3 79 309 310
3 113 311 313
3 313 312 79
3 311 312 313
3 113 314 316
3 314 315 316
3 58 113 13
3 114 113 58
3 114 317 319
3 319 318 113
3 317 318 319
3 114 320 321
3 115 322 324
3 324 323 114
3 322 323 324
3 115 325 326
3 115 327 329
3 327 47 328
3 327 328 329
3 116 47 115
3 116 18 47
3 60 116 26
3 117 116 60
3 117 18 116
3 117 91 18
3 118 91 117
3 118 1 91
3 93 42 2
3 119 42 93
3 119 14 42
3 63 119 20
3 120 119 63
3 120 14 119
3 120 82 14
3 121 82 120
3 121 7 82
3 84 64 5
3 122 64 84
3 122 28 64
3 66 122 16
3 123 122 66
3 123 28 122
3 123 121 28
3 124 121 123
3 124 7 121
3 124 61 7
3 125 61 124
3 125 27 61
3 68 125 29
3 126 125 68
3 126 27 125
3 126 118 27
3 127 118 126
3 127 1 118
3 127 39 1
3 128 39 127
3 128 330 332
3 332 331 39
3 330 331 332
3 70 128 30
3 333 128 334
3 335 334 70
3 333 334 335
3 337 336 128
3 88 71 8
3 338 71 339
3 340 339 88
3 338 339 340
3 342 341 71
3 103 35 0
3 129 35 103
3 129 11 35
3 72 129 24
3 130 129 72
3 130 11 129
3 130 78 11
3 131 78 130
3 131 6 78
3 343 73 344
3 132 345 347
3 345 73 346
3 345 346 347
3 132 31 73
3 348 132 349
3 133 350 352
3 350 132 351
3 350 351 352
3 133 31 132
3 133 131 31
3 134 131 133
3 134 6 131
3 134 55 6
3 135 55 134
3 135 23 55
3 353 135 354
3 355 354 32
3 353 354 355
3 136 356 358
3 356 135 357
3 356 357 358
3 136 23 135
3 136 102 23
3 359 102 360
3 361 360 136
3 359 360 361
3 362 3 363
3 364 363 102
3 362 363 364
3 365 3 366
3 368 367 3
