ply
format ascii 1.0
element vertex 185
property float x
property float y
property float z
element face 174
property list uchar int vertex_index
end_header
46.127853 -7.662731 54.712303
46.669403 0.63056 58.843559
41.89978 -8.213974 63.732353
45.492466 -11.511497 52.760834
46.999191 -3.534005 57.125214
49.651226 0.728001 54.911423
49.488037 -3.415765 52.546547
43.9795 -7.865468 59.383141
43.104195 -11.910221 57.156342
41.201832 -12.307315 61.738861
44.395504 -3.767977 61.207466
43.29715 -15.474652 56.030495
47.302757 -7.559752 52.369331
46.939869 -9.489521 51.350861
45.67646 -9.648007 53.583115
46.63937 -5.610596 55.953056
48.248795 -3.473438 54.878021
47.811737 -5.539137 53.607773
50.593628 2.801825 53.727455
42.95034 -8.011724 61.618835
42.539665 -10.067677 60.556412
41.610519 -10.254151 62.819717
41.902702 -6.22199 64.330017
43.150291 -5.978024 62.459854
44.334953 -5.806241 60.419533
41.865334 -14.050834 58.503204
42.98933 -13.782253 56.365807
41.974495 -15.850835 57.927589
45.729675 -13.199556 52.406624
47.039215 -1.454397 58.104469
48.201889 0.701931 56.972801
48.420746 -1.391022 56.028175
49.749725 -1.351158 53.807213
40.784019 -8.483144 65.691444
40.660179 -10.489514 64.979088
49.120857 2.830334 55.810562
45.027756 -7.756781 57.065796
44.535442 -9.784113 55.891113
43.50008 -9.917106 58.2313
42.110104 -12.101385 59.446732
40.872406 -14.31551 60.697418
45.590508 -1.567739 60.00235
45.721375 -3.624012 59.246643
45.488346 -5.691167 58.238075
44.224136 -11.718797 54.913696
44.274315 -13.501163 54.323387
44.791931 -15.082764 54.250481
47.113167 1.725639 58.272167
46.279717 1.687487 59.106399
41.391624 -16.030869 58.922187
41.919914 -14.950834 58.215396
41.337044 -15.130868 59.209995
46.203531 -11.393495 51.746338
46.927233 -10.382507 51.041352
46.216167 -10.500509 52.055847
45.61107 -12.355526 52.583729
46.322136 -12.237524 51.569233
46.203531 -11.393495 51.746338
50.264824 -2.361424 52.014557
50.395668 -1.329121 52.64489
49.618881 -2.383462 53.17688
50.110462 -3.376501 51.360996
50.264824 -2.361424 52.014557
40.209142 -9.631198 66.346012
40.173126 -8.651788 66.583202
40.173126 -8.651788 66.583202
40.672894 -7.513613 65.851719
50.156893 3.854246 54.146778
50.882295 3.803114 53.077873
40.492601 -11.514674 64.483082
40.038919 -11.647648 65.564606
44.228506 -2.760011 61.452713
43.698168 -3.876222 62.094738
44.993006 -2.667858 60.604908
44.826008 -1.659892 60.850155
44.228506 -2.760011 61.452713
47.121313 -8.524636 51.860096
47.752966 -8.458818 50.715764
47.93441 -7.493934 51.224998
48.417587 -5.495879 52.427723
49.255737 -4.434193 51.89711
48.649887 -4.477451 53.07716
48.163097 -6.506187 51.808502
48.417587 -5.495879 52.427723
47.557247 -6.549444 52.988552
47.93441 -7.493934 51.224998
48.163097 -6.506187 51.808502
50.812184 1.770055 53.210815
50.122427 1.764913 54.319439
50.340982 0.733143 53.802799
51.292322 2.785581 52.608238
50.812184 1.770055 53.210815
50.882295 3.803114 53.077873
51.292322 2.785581 52.608238
42.451767 -5.103229 63.656014
41.710312 -5.25266 64.442806
43.075562 -4.981246 62.720932
42.451767 -5.103229 63.656014
42.526497 -6.100007 63.394936
43.772897 -4.873 61.83366
43.698168 -3.876222 62.094738
43.075562 -4.981246 62.720932
47.634978 -9.392262 50.290616
47.752966 -8.458818 50.715764
47.634978 -9.392262 50.290616
46.927233 -10.382507 51.041352
46.537937 -13.036063 51.521134
46.322136 -12.237524 51.569233
46.090849 -13.937874 52.504803
46.537937 -13.036063 51.521134
50.390232 -0.306437 53.250694
50.340982 0.733143 53.802799
49.700475 -0.311579 54.359318
50.390232 -0.306437 53.250694
50.395668 -1.329121 52.64489
50.110462 -3.376501 51.360996
49.255737 -4.434193 51.89711
40.147222 -10.634384 65.989834
40.722099 -9.486329 65.335266
40.209142 -9.631198 66.346012
40.038919 -11.647648 65.564606
40.147222 -10.634384 65.989834
41.232235 -6.383036 65.171005
41.710312 -5.25266 64.442806
41.343361 -7.352567 65.01073
41.232235 -6.383036 65.171005
40.672894 -7.513613 65.851719
47.87941 1.761324 57.336788
47.113167 1.725639 58.272167
47.435646 0.666246 57.90818
48.338894 2.825526 56.755668
47.87941 1.761324 57.336788
48.661373 1.766133 56.391681
48.651319 3.906642 56.16605
48.338894 2.825526 56.755668
49.420507 3.868501 55.188332
49.857242 2.816079 54.769008
50.156893 3.854246 54.146778
48.651319 3.906642 56.16605
49.420507 3.868501 55.188332
40.84058 -15.263206 60.307102
41.337044 -15.130868 59.209995
41.36887 -14.183172 59.600311
40.967771 -11.396993 63.403396
41.135349 -10.371833 63.899403
40.492601 -11.514674 64.483082
40.763428 -12.423575 62.862969
41.406176 -11.280733 62.279289
40.967771 -11.396993 63.403396
40.58181 -13.445436 62.3227
40.763428 -12.423575 62.862969
40.417097 -14.449534 61.801979
41.037119 -13.311412 61.218139
40.58181 -13.445436 62.3227
40.317789 -15.434883 61.332043
40.417097 -14.449534 61.801979
40.84058 -15.263206 60.307102
40.317789 -15.434883 61.332043
45.856543 0.560364 59.671245
46.279717 1.687487 59.106399
45.317095 -0.538786 60.250641
44.826008 -1.659892 60.850155
46.129956 -0.468589 59.422955
45.856543 0.560364 59.671245
45.317095 -0.538786 60.250641
45.621977 -14.879478 53.426732
46.090849 -13.937874 52.504803
45.260803 -14.14116 53.328553
41.558525 -16.891554 58.752861
41.391624 -16.030869 58.922187
42.253788 -16.650568 57.89286
41.558525 -16.891554 58.752861
42.915115 -16.462477 56.944313
42.635823 -15.662744 56.979042
42.253788 -16.650568 57.89286
43.688731 -16.212272 56.134239
42.915115 -16.462477 56.944313
44.436121 -16.016328 55.244232
44.04454 -15.278708 55.140488
43.688731 -16.212272 56.134239
45.286983 -15.762472 54.488404
44.436121 -16.016328 55.244232
46.11703 -15.559185 53.664654
45.621977 -14.879478 53.426732
45.286983 -15.762472 54.488404
3 0 14 12
3 0 17 15
3 0 12 17
3 1 47 48
3 2 21 19
3 2 23 22
3 2 19 23
3 49 27 50
3 51 50 25
3 49 50 51
3 3 52 54
3 54 53 13
3 52 53 54
3 3 55 57
3 55 28 56
3 55 56 57
3 4 31 29
3 6 32 16
3 6 58 60
3 60 59 32
3 58 59 60
3 6 61 62
3 64 63 33
3 65 33 66
3 5 35 30
3 68 67 18
3 7 38 36
3 9 39 20
3 9 40 39
3 70 69 34
3 10 71 72
3 10 73 75
3 73 41 74
3 73 74 75
3 10 42 41
3 7 43 24
3 7 36 43
3 8 44 37
3 11 45 26
3 11 46 45
3 12 76 78
3 76 13 77
3 76 77 78
3 14 13 12
3 14 3 13
3 15 16 4
3 17 16 15
3 17 6 16
3 17 79 81
3 81 80 6
3 79 80 81
3 12 82 84
3 84 83 17
3 82 83 84
3 12 85 86
3 87 18 88
3 89 88 5
3 87 88 89
3 90 18 91
3 93 92 18
3 19 20 7
3 21 20 19
3 21 9 20
3 22 94 95
3 23 96 98
3 98 97 22
3 96 97 98
3 23 99 101
3 99 10 100
3 99 100 101
3 23 24 10
3 19 24 23
3 19 7 24
3 25 26 8
3 27 26 25
3 27 11 26
3 13 102 103
3 105 104 13
3 28 106 107
3 28 108 109
3 29 30 1
3 31 30 29
3 31 5 30
3 16 31 4
3 32 31 16
3 32 5 31
3 32 110 112
3 112 111 5
3 110 111 112
3 114 113 32
3 116 115 6
3 33 34 2
3 117 34 118
3 119 118 33
3 117 118 119
3 121 120 34
3 122 22 123
3 33 124 126
3 124 22 125
3 124 125 126
3 33 2 22
3 30 127 129
3 129 128 1
3 127 128 129
3 35 130 132
3 132 131 30
3 130 131 132
3 35 133 134
3 18 35 5
3 135 35 136
3 137 136 18
3 135 136 137
3 139 138 35
3 36 37 0
3 38 37 36
3 38 8 37
3 20 38 7
3 39 38 20
3 39 8 38
3 39 25 8
3 40 25 39
3 40 140 142
3 142 141 25
3 140 141 142
3 34 21 2
3 143 21 144
3 145 144 34
3 143 144 145
3 146 9 147
3 148 147 21
3 146 147 148
3 149 9 150
3 151 40 152
3 153 152 9
3 151 152 153
3 154 40 155
3 157 156 40
3 158 1 159
3 41 160 161
3 41 162 164
3 162 1 163
3 162 163 164
3 41 29 1
3 42 29 41
3 42 4 29
3 24 42 10
3 43 42 24
3 43 4 42
3 43 15 4
3 36 15 43
3 36 0 15
3 37 14 0
3 44 14 37
3 44 3 14
3 26 44 8
3 45 44 26
3 45 3 44
3 45 28 3
3 46 28 45
3 46 165 167
3 167 166 28
3 165 166 167
3 168 27 169
3 170 27 171
3 172 11 173
3 174 173 27
3 172 173 174
3 175 11 176
3 177 46 178
3 179 178 11
3 177 178 179
3 180 46 181
3 184 183 46
3 182 183 184
