ply
format ascii 1.0
element vertex 199
property float x
property float y
property float z
element face 186
property list uchar int vertex_index
end_header
9.998684 64.695969 -32.218971
15.905793 75.587906 -25.743494
29.884037 70.431129 -21.443853
22.845596 73.367645 -23.393942
27.030661 76.370193 -20.047514
7.216644 70.983757 -31.282473
12.584885 70.618546 -29.207952
15.429079 63.52523 -29.645628
18.843212 68.926353 -26.538965
25.542118 66.476395 -24.103373
9.683651 76.644913 -27.864344
23.403234 77.829636 -20.988062
8.981756 61.501335 -33.416382
10.340996 58.025032 -33.485756
11.387236 61.190804 -32.368233
8.595028 67.984352 -31.880869
7.607719 64.777328 -33.17112
14.158823 73.252342 -27.514059
15.629454 69.89743 -27.894617
17.403851 72.392441 -26.240114
26.390392 71.974266 -22.345781
24.247452 70.02243 -23.799173
27.707726 68.604263 -22.782732
28.895721 65.069221 -23.146074
14.380997 78.441849 -24.969427
11.196547 78.986122 -25.922251
12.66604 76.301247 -26.880774
11.121744 73.801521 -28.68799
18.402897 62.607178 -28.228994
17.793999 77.559502 -23.90288
19.325161 74.587433 -24.550306
21.346134 76.418159 -22.810884
24.950443 75.075882 -21.769686
28.52487 73.565216 -20.831259
5.917662 73.635696 -30.357504
11.197897 67.748833 -30.793974
12.615635 64.248375 -31.01362
14.029764 67.164825 -29.50017
17.048855 66.317917 -28.105322
20.208138 65.28138 -26.725012
20.78949 71.296936 -24.971518
22.168144 67.770897 -25.247889
7.029306 76.534935 -28.608839
8.356434 73.955803 -29.661715
9.764191 71.008995 -30.368395
13.99194 60.590721 -31.102583
30.572315 74.747337 -19.192026
31.992044 71.897446 -20.015638
33.250103 68.747559 -20.686472
30.489859 68.745807 -21.691742
29.401703 67.832375 -22.361182
28.795882 69.517696 -22.113293
19.044812 60.732532 -28.283295
19.947964 62.081707 -27.553197
20.559803 77.76321 -22.394475
19.570066 76.988831 -23.356882
18.783735 78.333881 -22.940473
18.783735 78.333881 -22.940473
17.013409 78.860119 -23.430527
11.004192 56.221867 -33.461742
11.539564 57.785904 -32.940865
6.099253 70.725448 -31.585037
5.449763 72.051418 -31.122553
6.567153 72.309726 -30.819989
24.498287 65.292812 -24.781952
22.8113 65.940064 -25.35421
23.855131 67.123646 -24.675631
26.133794 64.65588 -24.240197
24.498287 65.292812 -24.781952
29.420676 63.273846 -23.317659
30.522146 64.316479 -22.756487
9.004942 77.87463 -27.270344
9.76139 79.045234 -26.299298
10.440099 77.815517 -26.893297
8.356478 76.589924 -28.236591
7.67777 77.819641 -27.642592
9.004942 77.87463 -27.270344
32.26283 73.853272 -18.810472
31.51663 75.122742 -18.283065
32.972695 72.428326 -19.222279
31.282179 73.322392 -19.603832
32.26283 73.853272 -18.810472
34.830004 67.838669 -20.359112
34.264233 69.410473 -19.99712
33.789744 67.074318 -20.963915
34.830004 67.838669 -20.359112
22.592202 79.012058 -20.465491
21.588353 78.468948 -21.483064
24.414262 78.309116 -20.01461
22.592202 79.012058 -20.465491
26.227975 77.579395 -19.544337
25.216947 77.099914 -20.517788
24.414262 78.309116 -20.01461
9.661376 59.763183 -33.451069
9.241156 58.110782 -33.90242
8.561536 59.848934 -33.867733
12.062684 59.36879 -32.382103
11.539564 57.785904 -32.940865
10.864116 59.607918 -32.926994
7.425772 67.884834 -32.282174
6.73658 69.384536 -31.982976
7.905836 69.484054 -31.581671
6.932118 66.281322 -32.9273
7.425772 67.884834 -32.282174
8.101373 66.38084 -32.525995
6.536924 64.590912 -33.493404
6.932118 66.281322 -32.9273
7.200784 63.101478 -33.675866
6.536924 64.590912 -33.493404
7.887802 61.463482 -33.798496
7.200784 63.101478 -33.675866
8.294738 63.139331 -33.293751
8.561536 59.848934 -33.867733
7.887802 61.463482 -33.798496
29.995701 66.064853 -22.542852
28.301724 66.836742 -22.964403
29.401703 67.832375 -22.361182
30.522146 64.316479 -22.756487
29.995701 66.064853 -22.542852
12.788772 78.713986 -25.445839
12.037519 79.950214 -24.88792
13.629744 79.678078 -24.411509
17.586542 61.198425 -28.974693
16.099633 61.657452 -29.68301
16.915988 63.066204 -28.937311
17.586542 61.198425 -28.974693
19.044812 60.732532 -28.283295
22.374684 77.123897 -21.899473
20.559803 77.76321 -22.394475
21.588353 78.468948 -21.483064
15.306908 79.301293 -23.9638
13.629744 79.678078 -24.411509
16.087498 78.000675 -24.436153
15.306908 79.301293 -23.9638
17.013409 78.860119 -23.430527
9.90775 56.40115 -33.888928
9.241156 58.110782 -33.90242
9.90775 56.40115 -33.888928
11.004192 56.221867 -33.461742
4.880974 73.208256 -30.543354
4.301029 74.341251 -29.892117
5.337717 74.768692 -29.706266
4.880974 73.208256 -30.543354
5.449763 72.051418 -31.122553
6.099253 70.725448 -31.585037
6.73658 69.384536 -31.982976
20.850585 63.418808 -26.801206
19.947964 62.081707 -27.553197
19.305518 63.944279 -27.477003
21.831297 64.695305 -26.092771
21.188141 66.526139 -25.986451
22.8113 65.940064 -25.35421
20.850585 63.418808 -26.801206
21.831297 64.695305 -26.092771
27.810596 63.952293 -23.761547
26.133794 64.65588 -24.240197
27.218919 65.772808 -23.624724
27.810596 63.952293 -23.761547
29.420676 63.273846 -23.317659
10.502231 80.132405 -25.254194
12.037519 79.950214 -24.88792
9.067074 80.191517 -25.631241
10.502231 80.132405 -25.254194
9.76139 79.045234 -26.299298
6.435675 77.625664 -27.88693
7.67777 77.819641 -27.642592
5.893539 76.218311 -28.831934
6.435675 77.625664 -27.88693
6.473484 75.085316 -29.483171
5.337717 74.768692 -29.706266
5.893539 76.218311 -28.831934
13.365036 59.068748 -31.749278
12.062684 59.36879 -32.382103
12.689588 60.890763 -31.735408
15.381063 60.190197 -30.411487
14.71051 62.057975 -30.374105
16.099633 61.657452 -29.68301
14.654346 58.72506 -31.114908
15.381063 60.190197 -30.411487
13.365036 59.068748 -31.749278
14.654346 58.72506 -31.114908
28.021377 76.796566 -19.112215
26.227975 77.579395 -19.544337
29.792204 75.985138 -18.684471
30.736519 76.360543 -17.77551
31.51663 75.122742 -18.283065
28.801488 75.558765 -19.61977
28.021377 76.796566 -19.112215
29.792204 75.985138 -18.684471
33.635203 70.985416 -19.661703
32.972695 72.428326 -19.222279
32.621074 70.322502 -20.351055
33.635203 70.985416 -19.661703
34.264233 69.410473 -19.99712
32.172892 67.904022 -21.313052
30.489859 68.745807 -21.691742
31.56707 69.589344 -21.065162
32.172892 67.904022 -21.313052
33.789744 67.074318 -20.963915
3 0 14 12
3 0 16 15
3 0 12 16
3 1 19 17
3 2 22 20
3 2 49 51
3 51 50 22
3 49 50 51
3 1 26 24
3 1 17 26
3 53 52 28
3 54 31 55
3 56 55 29
3 54 55 56
3 4 32 11
3 4 33 32
3 57 29 58
3 60 59 13
3 5 61 63
3 63 62 34
3 61 62 63
3 6 37 35
3 8 38 18
3 8 39 38
3 3 40 30
3 9 41 21
3 9 64 66
3 66 65 41
3 64 65 66
3 9 67 68
3 70 69 23
3 10 71 73
3 73 72 25
3 71 72 73
3 10 74 76
3 74 42 75
3 74 75 76
3 10 43 42
3 6 44 27
3 6 35 44
3 7 45 36
3 77 46 78
3 79 47 80
3 81 80 46
3 79 80 81
3 82 48 83
3 85 84 48
3 86 11 87
3 88 11 89
3 90 4 91
3 92 91 11
3 90 91 92
3 12 93 95
3 93 13 94
3 93 94 95
3 14 13 12
3 14 96 98
3 98 97 13
3 96 97 98
3 15 99 101
3 101 100 5
3 99 100 101
3 16 102 104
3 104 103 15
3 102 103 104
3 16 105 106
3 16 107 108
3 12 109 111
3 111 110 16
3 109 110 111
3 12 112 113
3 17 18 6
3 19 18 17
3 19 8 18
3 20 21 3
3 22 21 20
3 22 9 21
3 22 23 9
3 114 23 115
3 116 115 22
3 114 115 116
3 118 117 23
3 24 119 121
3 119 25 120
3 119 120 121
3 26 25 24
3 26 10 25
3 26 27 10
3 17 27 26
3 17 6 27
3 28 122 124
3 124 123 7
3 122 123 124
3 126 125 28
3 29 30 1
3 31 30 29
3 31 3 30
3 11 127 129
3 127 31 128
3 127 128 129
3 32 31 11
3 32 3 31
3 32 20 3
3 33 20 32
3 33 2 20
3 130 24 131
3 29 132 134
3 132 24 133
3 132 133 134
3 29 1 24
3 13 135 136
3 138 137 13
3 34 139 141
3 139 140 141
3 143 142 34
3 145 144 5
3 35 36 0
3 37 36 35
3 37 7 36
3 18 37 6
3 38 37 18
3 38 7 37
3 38 28 7
3 39 28 38
3 39 146 148
3 148 147 28
3 146 147 148
3 30 19 1
3 40 19 30
3 40 8 19
3 21 40 3
3 41 40 21
3 41 8 40
3 41 39 8
3 149 39 150
3 151 150 41
3 149 150 151
3 153 152 39
3 23 154 156
3 156 155 9
3 154 155 156
3 158 157 23
3 25 159 160
3 163 162 25
3 161 162 163
3 42 164 165
3 42 166 167
3 42 168 170
3 168 34 169
3 168 169 170
3 43 34 42
3 43 5 34
3 27 43 10
3 44 43 27
3 44 5 43
3 44 15 5
3 35 15 44
3 35 0 15
3 36 14 0
3 45 14 36
3 45 171 173
3 173 172 14
3 171 172 173
3 174 45 175
3 176 175 7
3 174 175 176
3 177 45 178
3 180 179 45
3 181 4 182
3 46 183 185
3 183 184 185
3 46 186 188
3 186 4 187
3 186 187 188
3 46 33 4
3 47 33 46
3 47 2 33
3 189 47 190
3 48 191 193
3 191 47 192
3 191 192 193
3 48 2 47
3 48 194 196
3 196 195 2
3 194 195 196
3 198 197 48
