ply
format ascii 1.0
element vertex 81
property float x
property float y
property float z
element face 64
property list uchar int vertex_index
end_header
12.271032 37.570675 -33.429329
9.027424 38.302338 -33.35778
9.569941 44.743111 -34.426636
10.569931 37.984512 -33.451691
12.028358 34.299438 -32.804504
14.11977 37.129356 -33.246704
13.774815 33.870403 -32.828796
7.762884 41.540043 -33.933533
9.229492 41.500618 -34.023712
10.884567 41.210995 -33.967842
10.082851 47.995193 -34.482292
11.37953 44.420471 -34.142982
12.712152 40.785751 -33.728531
14.877738 35.308713 -32.979084
15.11059 36.923529 -33.069451
7.140444 42.992088 -34.165028
7.145846 41.351711 -33.831669
9.399717 43.121865 -34.225174
8.587515 43.150877 -34.262585
8.757739 44.772123 -34.464047
10.43215 49.611595 -34.316085
9.435222 49.733165 -34.608181
12.373421 44.186927 -33.891529
11.725317 46.012276 -34.034801
13.039732 42.369568 -33.684303
12.045841 42.603111 -33.935756
12.373421 44.186927 -33.891529
13.706468 40.550291 -33.511826
13.039732 42.369568 -33.684303
8.964238 36.730242 -32.944953
8.352218 38.382099 -33.284236
13.712857 32.196676 -32.473514
14.601215 32.017614 -32.514282
8.925007 46.438118 -34.610451
8.757739 44.772123 -34.464047
10.486113 36.360354 -33.066944
9.714859 36.519267 -33.019989
9.798678 38.143425 -33.404736
11.215326 34.517817 -32.743351
10.486113 36.360354 -33.066944
11.299145 36.141975 -33.128097
11.992565 32.624502 -32.377207
11.215326 34.517817 -32.743351
14.70526 33.679237 -32.77013
13.947292 35.49988 -33.03775
14.877738 35.308713 -32.979084
14.601215 32.017614 -32.514282
14.70526 33.679237 -32.77013
7.719948 40.000952 -33.572113
7.102911 39.81262 -33.470249
7.145846 41.351711 -33.831669
8.395154 39.92119 -33.645657
8.352218 38.382099 -33.284236
7.719948 40.000952 -33.572113
7.854211 43.170589 -34.217495
7.140444 42.992088 -34.165028
8.496188 41.520331 -33.978623
7.854211 43.170589 -34.217495
8.587515 43.150877 -34.262585
9.181462 48.064159 -34.638279
9.435222 49.733165 -34.608181
9.826396 46.369152 -34.454464
8.925007 46.438118 -34.610451
9.181462 48.064159 -34.638279
11.076977 47.799637 -34.204456
10.43215 49.611595 -34.316085
10.731191 46.207832 -34.312637
11.076977 47.799637 -34.204456
11.725317 46.012276 -34.034801
14.410277 38.722093 -33.270912
13.415961 38.957554 -33.487617
13.706468 40.550291 -33.511826
15.11059 36.923529 -33.069451
14.410277 38.722093 -33.270912
8.964238 36.730242 -32.944953
9.714859 36.519267 -33.019989
12.839628 32.411194 -32.461368
12.901587 34.084921 -32.81665
13.712857 32.196676 -32.473514
11.992565 32.624502 -32.377207
12.839628 32.411194 -32.461368
3 0 4 3
3 14 13 5
3 15 7 16
3 2 17 19
3 17 8 18
3 17 18 19
3 2 9 8
3 20 10 21
3 22 11 23
3 24 12 25
3 26 25 11
3 24 25 26
3 28 27 12
3 1 29 30
3 32 31 6
3 33 2 34
3 3 35 37
3 37 36 1
3 35 36 37
3 4 38 40
3 40 39 3
3 38 39 40
3 4 41 42
3 5 6 0
3 43 6 44
3 45 44 5
3 43 44 45
3 47 46 6
3 7 48 50
3 48 49 50
3 7 51 53
3 51 1 52
3 51 52 53
3 54 7 55
3 8 56 58
3 56 7 57
3 56 57 58
3 8 1 7
3 8 3 1
3 9 3 8
3 9 0 3
3 10 59 60
3 10 61 63
3 61 2 62
3 61 62 63
3 64 10 65
3 11 66 68
3 66 10 67
3 66 67 68
3 11 2 10
3 11 9 2
3 12 9 11
3 12 0 9
3 12 5 0
3 69 5 70
3 71 70 12
3 69 70 71
3 73 72 5
3 75 74 1
3 6 4 0
3 76 4 77
3 78 77 6
3 76 77 78
3 80 79 4
