ply
format ascii 1.0
element vertex 139
property float x
property float y
property float z
element face 118
property list uchar int vertex_index
end_header
-9.865862 86.692596 14.362285
-10.97521 88.365204 -0.395224
-6.431536 88.566956 9.91555
-14.354733 84.924896 11.403049
-10.432955 88.133942 6.815364
-6.756861 89.36438 2.155594
-13.534794 82.908524 18.579262
-8.080853 87.909271 12.160852
-6.223877 87.689926 13.896928
-7.829832 86.854935 16.092648
-12.056267 86.027695 12.785256
-12.400515 86.735931 9.122197
-10.156086 87.575882 10.554165
-8.314846 88.63118 8.289039
-9.171171 88.5457 -6.320778
-8.927727 88.966995 -2.832176
-12.740236 87.138565 5.537197
-10.700151 88.387604 3.160639
-8.723577 89.137009 0.778791
-8.526443 89.033386 4.490903
-6.609808 89.120178 5.998465
-11.70875 84.995117 16.507887
-9.571478 85.474609 18.220791
-16.231539 82.790924 13.644626
-13.940267 84.074905 14.969449
-7.577705 85.466095 20.064943
-6.88435 89.319138 -1.601868
-12.22248 87.757149 -0.865161
-12.031707 87.815026 0.82536
-11.131239 88.230835 -2.114622
-12.22248 87.757149 -0.865161
-9.951469 88.6661 -1.6137
-10.107498 88.531731 -3.333099
-11.131239 88.230835 -2.114622
-5.627924 88.243256 10.780736
-5.709684 88.589737 8.775882
-5.426647 87.297966 14.804678
-6.111912 87.086159 15.913205
-14.562943 85.19944 9.653205
-15.542263 84.203812 10.827095
-5.709684 88.589737 8.775882
-5.79882 88.866348 6.817339
-6.520672 88.843567 7.957007
-12.453008 83.27034 19.421968
-11.539987 84.313637 18.386281
-12.621772 83.95182 17.543574
-17.107236 81.605652 14.736895
-17.399816 82.019722 13.106367
-13.737531 83.491715 16.774355
-14.842258 82.942543 16.028481
-14.639522 82.359352 17.833388
-8.434586 84.695122 21.083704
-8.574592 85.470352 19.142867
-9.431473 84.699379 20.161628
-8.18085 88.488327 -7.553088
-8.09418 88.774651 -5.789057
-6.914889 86.668663 17.011065
-6.111912 87.086159 15.913205
-7.026854 87.27243 14.994788
-13.345325 82.165588 20.389679
-14.408285 81.718781 19.565174
-14.408285 81.718781 19.565174
-14.639522 82.359352 17.833388
-10.229219 88.321083 -5.0774
-10.421459 88.075042 -6.726285
-9.049449 88.756348 -4.576477
-10.229219 88.321083 -5.0774
-10.107498 88.531731 -3.333099
-7.972458 88.985298 -4.044756
-8.09418 88.774651 -5.789057
-9.049449 88.756348 -4.576477
-5.973997 89.223938 0.987521
-5.933246 89.179893 2.923589
-5.524095 87.804741 12.771425
-5.627924 88.243256 10.780736
-6.327706 88.128441 11.906239
-5.524095 87.804741 12.771425
-5.426647 87.297966 14.804678
-13.585833 86.104957 8.512779
-14.562943 85.19944 9.653205
-13.377624 85.830413 10.262623
-13.755694 86.306275 6.720279
-13.585833 86.104957 8.512779
-12.570376 86.937248 7.329697
-13.968293 86.44413 5.012642
-13.755694 86.306275 6.720279
-12.914219 87.201706 3.79157
-13.968293 86.44413 5.012642
-11.894177 87.826225 2.603292
-12.914219 87.201706 3.79157
-11.720194 87.763084 4.348918
-10.837681 88.376404 1.382707
-12.031707 87.815026 0.82536
-11.894177 87.826225 2.603292
-5.85972 89.057793 4.845025
-5.933246 89.179893 2.923589
-6.683334 89.242279 4.07703
-5.85972 89.057793 4.845025
-5.79882 88.866348 6.817339
-10.47135 84.553382 19.242733
-10.640114 85.234863 17.364339
-11.539987 84.313637 18.386281
-9.431473 84.699379 20.161628
-10.47135 84.553382 19.242733
-12.453008 83.27034 19.421968
-13.345325 82.165588 20.389679
-16.480666 83.136826 11.947883
-17.399816 82.019722 13.106367
-15.293136 83.85791 12.523837
-15.542263 84.203812 10.827095
-16.480666 83.136826 11.947883
-15.987894 82.300553 15.36607
-17.107236 81.605652 14.736895
-15.085903 83.432915 14.307037
-15.987894 82.300553 15.36607
-14.842258 82.942543 16.028481
-6.788826 85.974243 18.997212
-6.914889 86.668663 17.011065
-7.703768 86.160515 18.078795
-7.46229 84.608361 22.056891
-8.434586 84.695122 21.083704
-6.679138 85.20655 21.028854
-7.46229 84.608361 22.056891
-6.788826 85.974243 18.997212
-6.679138 85.20655 21.028854
-9.331318 88.215812 -7.989038
-10.421459 88.075042 -6.726285
-9.331318 88.215812 -7.989038
-8.18085 88.488327 -7.553088
-6.950769 89.16137 -3.429602
-7.972458 88.985298 -4.044756
-7.906039 89.143067 -2.217022
-6.037742 89.201317 -0.89121
-6.820606 89.341759 0.276863
-5.973997 89.223938 0.987521
-6.06584 89.105957 -2.785517
-6.037742 89.201317 -0.89121
-6.950769 89.16137 -3.429602
-6.06584 89.105957 -2.785517
3 0 9 7
3 0 12 10
3 0 7 12
3 1 27 28
3 1 29 30
3 1 31 33
3 31 15 32
3 31 32 33
3 2 34 35
3 37 36 8
3 3 38 39
3 4 16 11
3 4 17 16
3 4 19 17
3 2 20 13
3 2 40 42
3 42 41 20
3 40 41 42
3 6 43 45
3 45 44 21
3 43 44 45
3 46 23 47
3 6 48 50
3 48 24 49
3 48 49 50
3 6 21 24
3 51 25 52
3 53 52 22
3 51 52 53
3 55 54 14
3 5 26 18
3 7 8 2
3 9 8 7
3 9 56 58
3 58 57 8
3 56 57 58
3 10 11 3
3 12 11 10
3 12 4 11
3 12 13 4
3 7 13 12
3 7 2 13
3 60 59 6
3 61 6 62
3 63 14 64
3 15 65 67
3 65 14 66
3 65 66 67
3 15 68 70
3 70 69 14
3 68 69 70
3 72 71 5
3 8 73 75
3 75 74 2
3 73 74 75
3 77 76 8
3 11 78 80
3 80 79 3
3 78 79 80
3 16 81 83
3 83 82 11
3 81 82 83
3 16 84 85
3 16 86 87
3 17 88 90
3 90 89 16
3 88 89 90
3 17 91 93
3 91 1 92
3 91 92 93
3 17 18 1
3 19 18 17
3 19 5 18
3 13 19 4
3 20 19 13
3 20 5 19
3 20 94 96
3 96 95 5
3 94 95 96
3 98 97 20
3 21 22 0
3 99 22 100
3 101 100 21
3 99 100 101
3 103 102 22
3 105 104 6
3 23 106 107
3 23 108 110
3 108 3 109
3 108 109 110
3 111 23 112
3 24 113 115
3 113 23 114
3 113 114 115
3 24 3 23
3 24 10 3
3 21 10 24
3 21 0 10
3 22 9 0
3 25 9 22
3 25 116 118
3 118 117 9
3 116 117 118
3 119 25 120
3 121 25 122
3 124 123 25
3 14 125 126
3 128 127 14
3 18 15 1
3 26 15 18
3 26 129 131
3 131 130 15
3 129 130 131
3 132 26 133
3 134 133 5
3 132 133 134
3 135 26 136
3 138 137 26
