ply
format ascii 1.0
element vertex 36
property float x
property float y
property float z
element face 23
property list uchar int vertex_index
end_header
-15.006043 -51.941681 -12.783915
-16.447014 -50.709579 -14.269747
-17.928112 -49.379993 -15.787994
-14.968269 -52.67371 -13.360591
-14.316333 -53.32186 -12.648861
-15.688754 -52.057659 -14.103507
-15.726529 -51.32563 -13.526831
-14.968269 -52.67371 -13.360591
-17.87179 -49.952878 -16.312593
-17.137101 -50.69766 -15.581691
-18.661657 -48.663721 -16.566715
-17.87179 -49.952878 -16.312593
-14.32903 -52.51309 -12.054301
-14.316333 -53.32186 -12.648861
-14.992985 -51.259415 -12.122923
-14.32903 -52.51309 -12.054301
-15.763691 -50.727124 -12.880805
-14.992985 -51.259415 -12.122923
-16.484177 -50.111072 -13.623721
-15.763691 -50.727124 -12.880805
-15.726529 -51.32563 -13.526831
-17.265745 -49.53006 -14.402304
-16.484177 -50.111072 -13.623721
-16.396552 -51.362453 -14.822568
-15.688754 -52.057659 -14.103507
-15.638293 -52.710533 -14.656328
-17.187563 -50.044786 -15.028871
-16.396552 -51.362453 -14.822568
-17.137101 -50.69766 -15.581691
-18.006293 -48.865267 -15.161427
-17.265745 -49.53006 -14.402304
-17.187563 -50.044786 -15.028871
-18.775402 -48.231133 -15.962619
-18.006293 -48.865267 -15.161427
-18.775402 -48.231133 -15.962619
-18.661657 -48.663721 -16.566715
3 3 0 4
3 5 1 6
3 7 6 0
3 5 6 7
3 8 2 9
3 11 10 2
3 0 12 13
3 0 14 15
3 0 16 17
3 1 18 20
3 20 19 0
3 18 19 20
3 1 21 22
3 23 1 24
3 23 24 25
3 2 26 28
3 26 1 27
3 26 27 28
3 2 29 31
3 31 30 1
3 29 30 31
3 2 32 33
3 35 34 2
