ply
format ascii 1.0
element vertex 670
property float x
property float y
property float z
element face 822
property list uchar int vertex_index
end_header
-45.400036 -86.574341 31.810211
-52.850601 -74.458397 43.839745
-52.526474 -69.792984 23.190603
-63.120995 -61.587036 37.316811
-55.571117 -66.376007 47.787685
-57.831512 -67.949242 39.924309
-60.184853 -60.245617 46.474487
-49.987972 -70.74791 48.404732
-45.876541 -92.557465 22.219387
-46.866779 -83.164093 19.715252
-60.642788 -63.421463 19.423527
-47.93259 -80.802078 39.245567
-47.384155 -77.660568 27.690174
-52.697014 -73.405891 34.070724
-59.11932 -66.94075 29.727039
-65.070038 -61.299072 27.080452
-46.980003 -79.979408 47.526886
-49.385509 -74.026253 16.132332
-56.130814 -62.121929 49.662472
-57.87841 -63.510235 47.192154
-58.273586 -59.405781 49.493336
-53.617943 -64.181747 49.423161
-45.541981 -89.549271 27.168438
-46.476921 -87.842224 21.24468
-45.992783 -84.871994 25.703562
-64.36425 -60.343681 18.044706
-61.655403 -60.658489 14.354416
-44.640457 -87.874329 37.736927
-50.460625 -77.822784 41.793259
-50.152596 -77.048141 36.670296
-52.998028 -74.415344 39.276321
-60.502502 -64.706207 38.444283
-58.507629 -67.728058 34.881512
-61.55455 -64.704071 33.346054
-62.515511 -64.12191 28.2085
-64.190536 -61.810215 32.215405
-51.902527 -73.262314 47.054054
-48.76989 -75.497238 48.121307
-50.094505 -77.380058 45.845947
-47.835995 -81.10379 44.137321
-49.452171 -73.531342 25.404667
-47.823647 -75.77594 21.795273
-50.127441 -71.548882 19.738094
-54.556 -70.593796 45.775803
-55.342194 -71.262466 41.778847
-56.922287 -67.556671 44.449211
-59.308525 -64.307449 43.244682
-61.7976 -60.990402 42.211311
-53.014656 -68.794449 48.202717
-45.867462 -95.605682 17.087057
-46.984528 -90.869705 16.664846
-47.616196 -86.164597 15.537721
-48.500832 -81.537582 14.096596
-56.425537 -66.474396 21.163143
-53.431076 -67.65876 17.740812
-57.453835 -64.087036 15.906732
-46.100227 -83.662247 35.913288
-46.188248 -82.053932 29.899471
-47.614738 -79.480537 33.597424
-49.630905 -75.47052 31.101959
-52.389652 -71.767502 28.659275
-55.622501 -70.994362 36.892731
-55.7024 -70.007782 31.699839
-55.883682 -68.468536 26.443747
-59.798553 -65.528442 24.570393
-63.436756 -62.712727 23.093357
-65.873596 -59.72765 21.981937
-45.207745 -77.331078 48.873398
-45.020126 -84.194366 45.971603
-45.80864 -84.558624 41.485371
-65.044815 -58.464699 36.322525
-46.545677 -80.252274 23.826097
-47.715607 -78.552383 17.964563
-50.029831 -76.956619 12.538469
-56.290867 -60.148129 50.376442
-57.231644 -60.872608 49.626614
-57.262058 -58.956036 50.377106
-45.40501 -88.056366 29.539925
-45.800316 -87.208435 26.51063
-45.69368 -85.741776 28.758949
-65.751213 -58.71685 17.489567
-64.825638 -58.826801 15.573444
-45.060249 -87.309738 34.819191
-44.956406 -88.840195 32.54937
-45.010227 -90.363983 30.138569
-51.720222 -76.202194 42.85355
-51.731163 -76.129845 40.536346
-53.005394 -74.577698 41.679478
-61.85284 -63.135822 37.846352
-61.042519 -64.763077 35.90934
-62.434242 -63.255844 35.304932
-62.974991 -63.255051 32.741013
-63.68483 -61.766167 34.776611
-52.492802 -74.026268 45.660149
-51.082893 -75.372604 46.480728
-51.516293 -75.958817 44.866886
-50.384644 -77.773842 44.001923
-50.867725 -71.60788 24.281042
-49.658806 -72.533554 22.558054
-51.144226 -70.585609 21.492596
-55.135696 -68.512161 46.775528
-55.755054 -69.112747 45.106812
-56.314575 -67.079346 46.309311
-59.022556 -61.921558 46.848824
-58.630196 -63.966194 45.367737
-59.820305 -62.318298 44.911583
-60.552296 -62.652233 42.71172
-61.029655 -60.629913 44.458817
-54.674843 -65.41716 48.829433
-53.359158 -66.490135 48.812275
-54.341141 -67.642868 48.022064
-53.889805 -69.843071 47.216797
-45.939575 -94.07486 19.671549
-46.533714 -93.238617 16.990099
-46.439247 -91.711929 19.425671
-46.652023 -85.496109 20.52387
-46.993065 -87.000671 18.349941
-47.233643 -84.665146 17.629288
-47.990433 -83.84111 14.83821
-47.566711 -82.346519 16.846558
-58.53944 -64.931549 20.251564
-56.879089 -65.32605 18.525343
-59.021229 -63.711575 17.657492
-45.251148 -93.393921 25.022064
-45.287769 -94.907791 22.362566
-45.19136 -96.427826 19.657553
-46.885273 -82.231979 37.683998
-46.819248 -81.558266 34.794991
-47.797455 -80.236382 36.477505
-51.373238 -75.205139 35.356232
-49.884769 -76.330811 33.915588
-51.122883 -74.452026 32.628525
-50.911903 -73.572586 29.861773
-52.514946 -72.644882 31.377035
-56.569221 -69.607544 40.811756
-55.526726 -71.231201 39.403114
-56.827232 -69.554962 38.367485
-58.812782 -67.407181 32.306412
-57.202026 -68.955391 33.250862
-57.375488 -68.433052 30.657345
-55.762367 -69.299721 29.075397
-57.574638 -67.769287 28.059872
-57.823223 -66.964432 25.459406
-59.443104 -66.318321 27.148487
-63.955669 -62.729008 27.604311
-62.977364 -63.533939 25.646458
-64.412735 -62.124676 25.044468
-64.860855 -61.255527 22.498486
-65.47374 -60.658653 24.522202
-47.93079 -77.774017 47.904022
-47.031845 -76.460632 48.540962
-46.208954 -78.835938 48.460945
-45.305 -81.156639 48.166069
-45.98262 -82.117332 46.905846
-47.961578 -81.111008 41.829571
-46.74506 -82.854599 42.947678
-46.875908 -82.686752 40.429222
-46.00219 -84.235931 38.788052
-65.371483 -58.725704 33.809441
-46.698944 -79.833138 28.815769
-46.298111 -81.1521 26.852566
-46.78532 -78.904083 25.804066
-48.448738 -74.882935 18.921604
-47.604462 -77.113083 19.893995
-48.440239 -76.276962 17.055454
-48.72464 -77.751831 15.187735
-49.58707 -75.467178 14.327221
-54.197922 -66.549377 15.061831
-52.439972 -68.530502 16.001375
-55.894836 -64.227859 48.771553
-56.738129 -64.997307 47.507481
-57.044411 -62.910248 48.640263
-58.155602 -61.447586 48.441597
-59.262276 -59.838264 48.176479
-54.929981 -63.208565 49.59473
-45.724232 -91.049698 24.72221
-46.248547 -90.198303 21.828674
-46.013077 -88.696274 24.193996
-46.194977 -86.34584 23.494688
-46.361504 -84.006042 22.677969
-62.623875 -61.904076 18.687185
-61.133259 -62.113297 16.871899
-63.105804 -60.494694 16.176878
-45.135742 -91.880951 27.620611
-49.1609 -79.344391 40.605721
-49.014355 -78.918419 37.979088
-50.365372 -77.564346 39.319336
-51.596794 -75.78154 38.010818
-52.877209 -74.010422 36.717918
-59.146561 -66.310852 39.133682
-58.186913 -67.909225 37.433823
-59.603703 -66.310638 36.614548
-60.035789 -66.187866 34.05468
-60.453178 -65.928986 31.483126
-60.865051 -65.513603 28.912174
-62.043644 -64.501282 30.776123
-63.479687 -63.093437 30.171515
-64.647675 -61.670269 29.647301
-51.065952 -72.16391 47.968483
-49.458801 -73.151711 48.264088
-50.398193 -74.433449 47.621979
-49.560577 -76.620972 47.236771
-48.580551 -78.720062 46.743385
-47.517784 -80.735077 46.066963
-48.985424 -79.285866 45.086037
-49.167027 -79.483101 43.007378
-48.292953 -75.554016 26.546623
-47.485504 -76.707275 24.72739
-48.437904 -74.578369 23.640579
-48.842438 -73.624435 20.764593
-49.542267 -72.702591 17.943172
-53.800045 -72.584854 44.8018
-54.115517 -72.88736 42.798927
-55.03051 -71.059296 43.934654
-56.222733 -69.468765 43.088394
-57.418739 -67.83799 42.290352
-57.467609 -65.558701 45.83535
-58.098267 -65.947754 43.824097
-58.65078 -66.192352 41.561119
-59.927937 -64.552094 40.910156
-61.227203 -62.927521 40.33276
-62.493263 -61.316925 39.809669
-51.928726 -67.450897 48.727451
-51.56723 -69.828743 48.328281
-52.540863 -71.061783 47.617874
-53.282803 -71.981026 46.432369
-45.62426 -97.154968 14.474139
-46.281319 -96.351471 12.033022
-46.49181 -94.782898 14.524769
-47.104401 -92.400742 14.339523
-46.760231 -89.351212 18.966503
-47.311565 -88.509003 16.162409
-54.396492 -68.086182 22.146984
-52.872253 -68.740242 20.456623
-54.803345 -66.992737 19.463005
-55.379959 -65.840637 16.795874
-56.112804 -64.633232 14.164188
-59.576347 -62.370483 15.088678
-58.13102 -62.766594 13.326048
-44.154846 -98.752838 19.358707
-44.919983 -97.959259 16.921373
-45.611355 -85.108459 33.946144
-45.782757 -84.306335 30.910711
-46.144196 -82.911179 32.932899
-46.734764 -80.736496 31.824137
-47.452232 -78.601562 30.656368
-48.784996 -78.264343 35.209362
-48.539307 -77.44561 32.356178
-48.35025 -76.523987 29.459444
-49.46328 -74.521866 28.258459
-50.806549 -72.612228 27.075071
-52.377304 -70.807999 25.92807
-54.263664 -72.913811 40.517456
-54.28611 -72.696236 38.050583
-54.228481 -72.269485 35.47506
-57.028397 -69.332443 35.83017
-55.668282 -70.578842 34.311798
-54.13858 -71.668228 32.843689
-54.065102 -70.924438 30.185987
-54.055866 -70.065742 27.514526
-54.154602 -69.114204 24.833591
-56.097221 -67.524231 23.805439
-58.140762 -66.017975 22.855463
-60.19677 -64.563034 21.993515
-61.280693 -64.918869 26.34479
-61.708969 -64.12471 23.781719
-62.156273 -63.1194 21.226412
-63.898987 -61.647148 20.555872
-65.306839 -60.114834 19.976027
-66.278946 -58.506386 19.47168
-47.729065 -74.032791 48.505054
-45.898788 -74.817612 48.695545
-46.456463 -82.678017 45.140083
-45.488914 -84.562561 43.913853
-45.097431 -86.229919 39.743164
-45.395126 -85.774826 36.910316
-58.174026 -57.398384 50.263645
-59.315754 -57.732121 49.255733
-60.38311 -58.10614 47.833801
-61.354446 -58.502281 46.053055
-62.222015 -58.91161 43.987541
-62.985558 -59.321243 41.716087
-63.648048 -59.708313 39.30941
-64.60791 -58.084183 38.792618
-64.214447 -60.038105 36.822159
-64.692932 -60.265263 34.291
-65.096863 -60.337288 31.737675
-65.445549 -60.200043 29.174616
-65.762794 -59.804951 26.610683
-45.961342 -83.435913 27.848604
-46.2118 -82.550018 24.796146
-46.603947 -81.682899 21.787189
-47.06654 -77.989929 22.819902
-46.999836 -79.382751 20.852875
-47.201904 -80.848846 18.854807
-48.053104 -80.043404 16.028528
-49.180336 -79.246735 13.329049
-51.666115 -69.55928 18.726187
-50.878681 -70.582428 16.96636
-50.545574 -71.806213 15.199286
-56.817396 -58.750402 50.589066
-56.776463 -59.552082 50.376774
-56.3318 -59.346449 50.588734
-56.3318 -59.346449 50.588734
-55.831858 -59.610889 50.554508
-66.438571 -57.0565 16.029012
-65.968868 -57.906015 16.271225
-66.220917 -57.867334 17.247355
-49.134535 -71.153526 48.424481
-49.34021 -69.899582 48.416302
-53.822792 -67.019645 14.199866
-54.672337 -65.977753 13.750539
-55.530397 -62.665247 49.628601
-55.037515 -62.139688 49.924413
-55.637932 -61.59637 49.958285
-64.206907 -58.873638 14.642181
-65.047245 -57.981033 14.364971
-44.211818 -88.902626 38.037661
-44.382238 -88.031472 39.11718
-52.904499 -64.618835 49.293213
-53.009666 -63.425356 49.515175
-47.268993 -90.444939 15.312611
-47.32893 -91.210457 14.149949
-47.044465 -91.635223 15.502185
-47.78162 -86.909302 14.488984
-47.629305 -88.081505 14.801328
-47.463881 -87.3368 15.850065
-48.002167 -85.738678 14.18392
-47.78162 -86.909302 14.488984
-48.727536 -82.268951 13.132743
-48.472336 -83.420715 13.50355
-48.245632 -82.689346 14.467403
-49.092719 -81.124168 12.787431
-48.727536 -82.268951 13.132743
-58.505218 -62.070616 12.064322
-59.157366 -61.846317 12.944807
-57.925537 -62.372944 11.195105
-57.551338 -63.068922 12.45683
-58.505218 -62.070616 12.064322
-44.295609 -97.991157 20.788384
-43.730522 -99.122902 20.564912
-44.602854 -76.423801 48.858179
-44.948375 -75.167068 48.769253
-45.553267 -76.074345 48.784472
-44.267145 -77.722081 48.994326
-43.662255 -76.814804 48.979107
-44.602854 -76.423801 48.858179
-44.271662 -84.913421 46.2801
-44.702535 -83.80854 46.76836
-44.596954 -85.204559 45.325708
-44.271662 -84.913421 46.2801
-45.251865 -85.478523 41.92518
-45.092002 -85.480491 43.139421
-45.648777 -84.560592 42.699612
-45.453035 -85.394272 40.614267
-44.896261 -86.31417 41.054077
-45.251865 -85.478523 41.92518
-57.987201 -56.392788 50.479211
-57.58456 -57.280606 50.547382
-59.850447 -56.822086 49.074625
-59.228785 -56.667267 49.630529
-60.384124 -57.009096 48.363659
-59.849432 -57.919131 48.544767
-59.850447 -56.822086 49.074625
-61.925013 -57.606344 45.805076
-61.431282 -57.394455 46.722065
-62.358797 -57.811008 44.77232
-61.78823 -58.706946 45.020298
-61.925013 -57.606344 45.805076
-63.514443 -58.479225 41.452623
-63.163168 -58.244693 42.590604
-63.845688 -58.67276 40.249285
-63.316803 -59.514778 40.512749
-63.514443 -58.479225 41.452623
-64.826363 -58.274441 37.557571
-64.955578 -57.255783 38.504897
-65.174031 -57.446041 37.26985
-65.355133 -59.573526 31.504539
-65.234173 -59.531496 32.773558
-65.492443 -58.767735 32.540422
-65.529476 -59.504904 30.22301
-65.271206 -60.268665 30.456145
-65.355133 -59.573526 31.504539
-65.86911 -59.019179 26.386869
-65.782855 -59.233057 27.665103
-65.917942 -59.460878 25.332951
-65.86911 -59.019179 26.386869
-46.588161 -95.941941 10.822928
-46.682686 -95.151619 12.011007
-50.304253 -77.692501 11.650935
-49.879505 -78.837559 12.046225
-49.605083 -78.101677 12.933759
-51.392336 -70.103607 15.615009
-51.659326 -69.556465 16.483868
-52.172981 -69.077644 15.132516
-51.225783 -70.715499 14.731472
-50.712128 -71.194321 16.082823
-51.392336 -70.103607 15.615009
-55.717958 -60.609471 50.315269
-55.831858 -59.610889 50.554508
-56.210841 -61.135029 50.019457
-55.637932 -61.59637 49.958285
-55.717958 -60.609471 50.315269
-65.50608 -57.960991 15.313163
-65.288426 -58.771826 16.531506
-65.968868 -57.906015 16.271225
-65.047245 -57.981033 14.364971
-65.50608 -57.960991 15.313163
-44.740278 -88.400734 35.159385
-44.530382 -88.68303 36.618254
-44.850353 -87.592033 36.278059
-44.688356 -89.165963 34.024475
-44.740278 -88.400734 35.159385
-45.008328 -88.074966 33.68428
-44.668616 -89.960434 32.810946
-44.688356 -89.165963 34.024475
-44.983317 -89.602089 31.34397
-44.695526 -90.722328 31.605545
-44.668616 -89.960434 32.810946
-60.919557 -60.792265 13.458991
-61.92164 -59.871622 13.121402
-44.896515 -94.551186 25.032484
-44.886843 -93.788109 26.416502
-44.914825 -95.308121 23.702735
-44.896515 -94.551186 25.032484
-45.269458 -94.150856 23.692315
-44.86207 -96.068634 22.290313
-44.914825 -95.308121 23.702735
-45.239565 -95.667809 21.01006
-44.813866 -96.828652 20.937807
-44.86207 -96.068634 22.290313
-45.312855 -79.322052 48.675253
-44.812251 -78.569623 48.881479
-45.708349 -78.083508 48.667172
-44.860878 -80.482403 48.527815
-45.312855 -79.322052 48.675253
-45.756977 -79.996288 48.313507
-44.438469 -81.700344 48.400097
-44.860878 -80.482403 48.527815
-44.844972 -82.289676 47.865593
-44.438469 -81.700344 48.400097
-45.183782 -82.770023 47.235481
-44.844972 -82.289676 47.865593
-45.64381 -81.636986 47.535957
-45.501373 -83.155849 46.438724
-44.702535 -83.80854 46.76836
-45.183782 -82.770023 47.235481
-65.296394 -57.655491 36.049305
-65.174031 -57.446041 37.26985
-65.459728 -57.785994 34.792763
-65.208149 -58.595202 35.065983
-65.296394 -57.655491 36.049305
-65.519135 -57.926558 33.550505
-65.459728 -57.785994 34.792763
-65.492443 -58.767735 32.540422
-65.519135 -57.926558 33.550505
-52.943817 -68.010208 14.669638
-53.318947 -67.53994 15.531603
-53.822792 -67.019645 14.199866
-52.172981 -69.077644 15.132516
-52.943817 -68.010208 14.669638
-53.727821 -63.042917 49.706533
-53.009666 -63.425356 49.515175
-54.38384 -62.556326 49.792318
-55.037515 -62.139688 49.924413
-54.273962 -63.695156 49.508945
-53.727821 -63.042917 49.706533
-54.38384 -62.556326 49.792318
-63.346991 -59.707585 14.943897
-63.965721 -59.660747 15.875161
-64.206907 -58.873638 14.642181
-62.62179 -59.789482 14.032667
-62.380603 -60.576592 15.265647
-63.346991 -59.707585 14.943897
-61.92164 -59.871622 13.121402
-62.62179 -59.789482 14.032667
-44.211818 -88.902626 38.037661
-44.530382 -88.68303 36.618254
-44.726638 -91.503197 30.318008
-44.695526 -90.722328 31.605545
-44.789396 -92.26168 29.059029
-44.726638 -91.503197 30.318008
-45.072985 -91.122467 28.87959
-44.829139 -93.031624 27.715775
-44.789396 -92.26168 29.059029
-45.193445 -92.637436 26.321337
-44.886843 -93.788109 26.416502
-44.829139 -93.031624 27.715775
-50.180433 -69.525216 48.498063
-49.34021 -69.899582 48.416302
-49.532671 -68.676887 48.509632
-52.775106 -65.773029 48.98777
-52.904499 -64.618835 49.293213
-53.488551 -65.335941 49.117718
-52.05989 -66.25341 48.945358
-52.775106 -65.773029 48.98777
-52.643942 -66.970516 48.769863
-51.287647 -66.642959 48.784763
-52.05989 -66.25341 48.945358
-51.15081 -67.876709 48.659422
-51.287647 -66.642959 48.784763
-50.970062 -69.065632 48.459837
-51.15081 -67.876709 48.659422
-51.747978 -68.63982 48.527866
-50.777601 -70.288327 48.366506
-50.180433 -69.525216 48.498063
-50.970062 -69.065632 48.459837
-45.95279 -96.75322 13.25358
-45.732678 -97.540306 11.937743
-45.404148 -97.942054 13.158301
-46.787931 -94.367333 13.25688
-46.682686 -95.151619 12.011007
-46.386565 -95.567184 13.278896
-47.094227 -93.176254 13.164257
-46.787931 -94.367333 13.25688
-46.798106 -93.59182 14.432146
-47.391666 -91.971085 13.039532
-47.094227 -93.176254 13.164257
-47.391666 -91.971085 13.039532
-47.32893 -91.210457 14.149949
-47.432512 -89.264588 15.061392
-47.268993 -90.444939 15.312611
-47.148046 -89.689354 16.413628
-47.432512 -89.264588 15.061392
-47.629305 -88.081505 14.801328
-48.189285 -84.576934 13.834164
-48.002167 -85.738678 14.18392
-47.803314 -85.002854 15.187966
-48.189285 -84.576934 13.834164
-48.472336 -83.420715 13.50355
-55.629778 -65.01968 13.301718
-54.672337 -65.977753 13.750539
-55.155363 -65.591305 14.61301
-59.880029 -61.648262 13.826122
-60.615875 -61.514486 14.721547
-60.919557 -60.792265 13.458991
-58.853684 -62.568539 14.207363
-59.880029 -61.648262 13.826122
-59.157366 -61.846317 12.944807
-56.542231 -64.002241 12.875901
-57.121912 -63.699913 13.745118
-57.551338 -63.068922 12.45683
-55.629778 -65.01968 13.301718
-56.542231 -64.002241 12.875901
-43.48822 -99.888924 19.069904
-43.063896 -100.258987 20.276108
-43.730522 -99.122902 20.564912
-43.907471 -99.519073 17.92265
-43.48822 -99.888924 19.069904
-44.673103 -97.590332 19.50813
-44.295609 -97.991157 20.788384
-44.813866 -96.828652 20.937807
-44.290039 -99.122284 16.703983
-43.907471 -99.519073 17.92265
-44.537414 -98.356048 18.14004
-44.68177 -98.733581 15.545215
-44.290039 -99.122284 16.703983
-45.033909 -98.331436 14.321597
-44.68177 -98.733581 15.545215
-45.272121 -97.557113 15.697756
-45.404148 -97.942054 13.158301
-45.033909 -98.331436 14.321597
-66.484783 -57.762102 18.238411
-66.220917 -57.867334 17.247355
-66.01508 -58.611618 18.480624
-48.869949 -72.355427 48.354158
-49.134535 -71.153526 48.424481
-49.723387 -71.949811 48.33441
-48.005081 -72.795967 48.474642
-48.869949 -72.355427 48.354158
-48.593933 -73.592251 48.384571
-47.096767 -73.153213 48.484154
-48.005081 -72.795967 48.474642
-46.181629 -73.545624 48.579399
-47.096767 -73.153213 48.484154
-46.813927 -74.425202 48.6003
-45.232512 -73.861096 48.588255
-46.181629 -73.545624 48.579399
-45.232512 -73.861096 48.588255
-44.948375 -75.167068 48.769253
-44.267145 -77.722081 48.994326
-44.812251 -78.569623 48.881479
-44.831348 -85.388656 44.296833
-44.596954 -85.204559 45.325708
-45.25452 -84.378464 44.942728
-44.831348 -85.388656 44.296833
-45.092002 -85.480491 43.139421
-44.610726 -87.209266 40.120299
-44.896261 -86.31417 41.054077
-44.868944 -87.052124 38.740046
-44.382238 -88.031472 39.11718
-44.610726 -87.209266 40.120299
-57.128576 -58.059432 50.604113
-56.817396 -58.750402 50.589066
-57.718042 -58.17721 50.320375
-57.128576 -58.059432 50.604113
-57.58456 -57.280606 50.547382
-58.657921 -56.500399 50.134485
-57.987201 -56.392788 50.479211
-58.471096 -55.494802 50.350051
-58.74489 -57.565252 49.759689
-58.657921 -56.500399 50.134485
-59.228785 -56.667267 49.630529
-60.945614 -57.196385 47.612438
-60.384124 -57.009096 48.363659
-60.868778 -58.304211 46.943428
-60.945614 -57.196385 47.612438
-61.431282 -57.394455 46.722065
-62.781396 -58.039877 43.726332
-62.358797 -57.811008 44.77232
-62.603786 -59.116427 42.851814
-62.781396 -58.039877 43.726332
-63.163168 -58.244693 42.590604
-64.754845 -57.006199 39.691166
-64.955578 -57.255783 38.504897
-64.325619 -57.860695 39.990888
-64.754845 -57.006199 39.691166
-64.127979 -58.896248 39.051014
-63.845688 -58.67276 40.249285
-64.325619 -57.860695 39.990888
-65.624233 -59.430603 28.947069
-65.529476 -59.504904 30.22301
-65.604172 -60.002497 27.89265
-65.624233 -59.430603 28.947069
-65.782855 -59.233057 27.665103
-65.773415 -59.887729 24.28871
-65.618267 -60.231802 25.566443
-65.917942 -59.460878 25.332951
-65.973343 -59.422228 23.018577
-65.673668 -60.193151 23.252069
-65.773415 -59.887729 24.28871
-66.135101 -58.924086 21.75089
-65.973343 -59.422228 23.018577
-66.337776 -58.313454 20.495762
-66.076271 -59.117018 20.726808
-66.135101 -58.924086 21.75089
-66.511826 -57.665489 19.245017
-66.337776 -58.313454 20.495762
-66.484783 -57.762102 18.238411
-66.511826 -57.665489 19.245017
-46.080347 -97.151748 10.776601
-45.732678 -97.540306 11.937743
-46.38719 -96.742218 9.566507
-46.080347 -97.151748 10.776601
-46.588161 -95.941941 10.822928
-49.43247 -79.978745 12.403657
-49.092719 -81.124168 12.787431
-48.840584 -80.392158 13.712822
-49.43247 -79.978745 12.403657
-49.879505 -78.837559 12.046225
-51.188505 -71.359955 13.874693
-51.225783 -70.715499 14.731472
-50.587225 -72.496632 14.323149
-51.188505 -71.359955 13.874693
-50.007193 -73.606651 14.789673
-49.965542 -72.916233 15.665809
-50.587225 -72.496632 14.323149
-50.107973 -74.327114 13.887117
-49.486289 -74.746715 15.229776
-50.007193 -73.606651 14.789673
-50.307531 -75.060974 13.02421
-50.107973 -74.327114 13.887117
-50.528911 -75.805695 12.129834
-49.80845 -76.211899 13.432845
-50.307531 -75.060974 13.02421
-50.817571 -76.544205 11.278528
-50.528911 -75.805695 12.129834
-51.091993 -77.280086 10.390994
-50.304253 -77.692501 11.650935
-50.817571 -76.544205 11.278528
3 300 76 301
3 302 301 74
3 300 301 302
3 303 74 304
3 0 79 77
3 307 306 80
3 305 306 307
3 0 83 82
3 0 77 83
3 1 87 85
3 3 90 88
3 3 92 90
3 1 95 93
3 1 85 95
3 2 99 97
3 4 102 100
3 6 105 103
3 6 107 105
3 4 110 108
3 4 100 110
3 8 114 112
3 9 117 115
3 9 119 117
3 10 122 120
3 8 124 123
3 8 112 124
3 11 128 126
3 13 131 129
3 13 133 131
3 5 136 134
3 14 139 137
3 14 141 139
3 14 143 141
3 15 146 144
3 15 148 146
3 7 308 309
3 16 151 149
3 16 152 151
3 16 153 152
3 11 156 154
3 11 126 156
3 12 161 159
3 17 164 162
3 17 166 164
3 311 310 167
3 18 171 169
3 20 172 75
3 20 173 172
3 18 312 314
3 312 174 313
3 312 313 314
3 18 169 174
3 22 177 175
3 24 178 78
3 24 179 178
3 25 182 180
3 316 315 81
3 27 317 318
3 22 183 84
3 22 175 183
3 28 186 184
3 30 187 86
3 30 188 187
3 31 191 189
3 33 192 89
3 33 193 192
3 33 195 193
3 35 196 91
3 35 197 196
3 36 200 198
3 38 201 94
3 38 202 201
3 38 204 202
3 28 205 96
3 28 184 205
3 40 208 206
3 42 209 98
3 42 210 209
3 43 213 211
3 45 214 101
3 45 215 214
3 19 216 170
3 46 217 104
3 46 218 217
3 46 219 218
3 47 220 106
3 47 221 220
3 21 319 320
3 48 222 109
3 48 223 222
3 48 224 223
3 43 225 111
3 43 211 225
3 49 228 226
3 50 229 113
3 50 321 323
3 323 322 229
3 321 322 323
3 23 230 176
3 51 231 116
3 51 324 326
3 326 325 231
3 324 325 326
3 51 327 328
3 52 329 331
3 331 330 118
3 329 330 331
3 52 332 333
3 53 234 232
3 55 235 121
3 55 236 235
3 26 237 181
3 334 238 335
3 338 337 238
3 336 337 338
3 339 239 340
3 49 240 125
3 49 226 240
3 56 243 241
3 58 244 127
3 58 245 244
3 29 246 185
3 59 247 130
3 59 248 247
3 59 249 248
3 60 250 132
3 60 251 250
3 44 252 212
3 61 253 135
3 61 254 253
3 32 255 190
3 62 256 138
3 62 257 256
3 62 258 257
3 63 259 140
3 63 260 259
3 63 261 260
3 64 262 142
3 64 263 262
3 34 264 194
3 65 265 145
3 65 266 265
3 65 267 266
3 66 268 147
3 66 269 268
3 37 270 199
3 67 271 150
3 67 341 343
3 343 342 271
3 341 342 343
3 67 344 346
3 344 345 346
3 68 347 348
3 68 349 350
3 39 272 203
3 69 273 155
3 69 351 353
3 353 352 273
3 351 352 353
3 69 354 356
3 354 274 355
3 354 355 356
3 56 275 157
3 56 241 275
3 357 276 358
3 359 277 360
3 361 278 362
3 363 362 277
3 361 362 363
3 364 279 365
3 366 280 367
3 368 367 279
3 366 367 368
3 369 281 370
3 371 282 372
3 373 372 281
3 371 372 373
3 70 374 376
3 374 283 375
3 374 375 376
3 70 284 283
3 70 285 284
3 377 286 378
3 379 378 158
3 377 378 379
3 380 287 381
3 382 381 286
3 380 381 382
3 383 288 384
3 386 385 288
3 388 387 227
3 57 289 242
3 71 290 160
3 71 291 290
3 41 292 207
3 72 293 163
3 72 294 293
3 72 295 294
3 73 296 165
3 73 389 391
3 391 390 296
3 389 390 391
3 54 297 233
3 392 298 393
3 394 393 168
3 392 393 394
3 395 299 396
3 397 396 298
3 395 396 397
3 74 75 18
3 76 75 74
3 76 20 75
3 74 398 399
3 74 400 402
3 400 18 401
3 400 401 402
3 77 78 22
3 79 78 77
3 79 24 78
3 80 81 25
3 403 81 404
3 405 404 80
3 403 404 405
3 407 406 81
3 82 408 410
3 410 409 27
3 408 409 410
3 83 411 413
3 413 412 82
3 411 412 413
3 83 414 415
3 83 416 418
3 416 84 417
3 416 417 418
3 77 84 83
3 77 22 84
3 85 86 28
3 87 86 85
3 87 30 86
3 88 89 31
3 90 89 88
3 90 33 89
3 90 91 33
3 92 91 90
3 92 35 91
3 93 94 36
3 95 94 93
3 95 38 94
3 95 96 38
3 85 96 95
3 85 28 96
3 97 98 40
3 99 98 97
3 99 42 98
3 100 101 43
3 102 101 100
3 102 45 101
3 103 104 19
3 105 104 103
3 105 46 104
3 105 106 46
3 107 106 105
3 107 47 106
3 108 109 21
3 110 109 108
3 110 48 109
3 110 111 48
3 100 111 110
3 100 43 111
3 112 113 49
3 114 113 112
3 114 50 113
3 115 116 23
3 117 116 115
3 117 51 116
3 117 118 51
3 119 118 117
3 119 52 118
3 120 121 53
3 122 121 120
3 122 55 121
3 420 419 26
3 123 421 422
3 124 423 425
3 425 424 123
3 423 424 425
3 124 426 427
3 124 428 430
3 428 125 429
3 428 429 430
3 112 125 124
3 112 49 125
3 126 127 56
3 128 127 126
3 128 58 127
3 129 130 29
3 131 130 129
3 131 59 130
3 131 132 59
3 133 132 131
3 133 60 132
3 134 135 44
3 136 135 134
3 136 61 135
3 137 138 32
3 139 138 137
3 139 62 138
3 139 140 62
3 141 140 139
3 141 63 140
3 141 142 63
3 143 142 141
3 143 64 142
3 144 145 34
3 146 145 144
3 146 65 145
3 146 147 65
3 148 147 146
3 148 66 147
3 149 150 37
3 151 150 149
3 151 67 150
3 151 431 433
3 433 432 67
3 431 432 433
3 152 434 436
3 436 435 151
3 434 435 436
3 152 437 438
3 152 439 440
3 153 441 443
3 443 442 152
3 441 442 443
3 153 444 446
3 444 68 445
3 444 445 446
3 154 155 39
3 156 155 154
3 156 69 155
3 156 157 69
3 126 157 156
3 126 56 157
3 447 70 448
3 449 158 450
3 451 450 70
3 449 450 451
3 452 158 453
3 455 454 158
3 159 160 57
3 161 160 159
3 161 71 160
3 162 163 41
3 164 163 162
3 164 72 163
3 164 165 72
3 166 165 164
3 166 73 165
3 167 168 54
3 456 168 457
3 458 457 167
3 456 457 458
3 460 459 168
3 169 170 4
3 171 170 169
3 171 19 170
3 75 171 18
3 172 171 75
3 172 19 171
3 172 103 19
3 173 103 172
3 173 6 103
3 461 21 462
3 174 463 464
3 174 465 467
3 465 21 466
3 465 466 467
3 174 108 21
3 169 108 174
3 169 4 108
3 175 176 8
3 177 176 175
3 177 23 176
3 78 177 22
3 178 177 78
3 178 23 177
3 178 115 23
3 179 115 178
3 179 9 115
3 180 181 10
3 182 181 180
3 182 26 181
3 81 182 25
3 468 182 469
3 470 469 81
3 468 469 470
3 471 26 472
3 473 472 182
3 471 472 473
3 475 474 26
3 477 476 27
3 84 478 479
3 183 480 482
3 482 481 84
3 480 481 482
3 183 483 484
3 183 485 487
3 485 123 486
3 485 486 487
3 175 123 183
3 175 8 123
3 184 185 11
3 186 185 184
3 186 29 185
3 86 186 28
3 187 186 86
3 187 29 186
3 187 129 29
3 188 129 187
3 188 13 129
3 189 190 5
3 191 190 189
3 191 32 190
3 89 191 31
3 192 191 89
3 192 32 191
3 192 137 32
3 193 137 192
3 193 14 137
3 193 194 14
3 195 194 193
3 195 34 194
3 91 195 33
3 196 195 91
3 196 34 195
3 196 144 34
3 197 144 196
3 197 15 144
3 198 199 7
3 200 199 198
3 200 37 199
3 94 200 36
3 201 200 94
3 201 37 200
3 201 149 37
3 202 149 201
3 202 16 149
3 202 203 16
3 204 203 202
3 204 39 203
3 96 204 38
3 205 204 96
3 205 39 204
3 205 154 39
3 184 154 205
3 184 11 154
3 206 207 12
3 208 207 206
3 208 41 207
3 98 208 40
3 209 208 98
3 209 41 208
3 209 162 41
3 210 162 209
3 210 17 162
3 211 212 1
3 213 212 211
3 213 44 212
3 101 213 43
3 214 213 101
3 214 44 213
3 214 134 44
3 215 134 214
3 215 5 134
3 170 102 4
3 216 102 170
3 216 45 102
3 104 216 19
3 217 216 104
3 217 45 216
3 217 215 45
3 218 215 217
3 218 5 215
3 218 189 5
3 219 189 218
3 219 31 189
3 106 219 46
3 220 219 106
3 220 31 219
3 220 88 31
3 221 88 220
3 221 3 88
3 488 7 489
3 488 489 490
3 109 491 493
3 493 492 21
3 491 492 493
3 222 494 496
3 496 495 109
3 494 495 496
3 222 497 498
3 222 499 500
3 223 501 503
3 503 502 222
3 501 502 503
3 223 504 506
3 504 7 505
3 504 505 506
3 223 198 7
3 224 198 223
3 224 36 198
3 111 224 48
3 225 224 111
3 225 36 224
3 225 93 36
3 211 93 225
3 211 1 93
3 226 507 509
3 507 227 508
3 507 508 509
3 228 227 226
3 228 510 512
3 512 511 227
3 510 511 512
3 113 228 49
3 229 228 113
3 229 513 515
3 515 514 228
3 513 514 515
3 229 516 517
3 519 518 229
3 176 114 8
3 230 114 176
3 230 50 114
3 116 230 23
3 231 230 116
3 231 50 230
3 231 520 522
3 522 521 50
3 520 521 522
3 524 523 231
3 118 525 527
3 527 526 51
3 525 526 527
3 529 528 118
3 232 233 2
3 234 233 232
3 234 54 233
3 121 234 53
3 235 234 121
3 235 54 234
3 235 167 54
3 236 167 235
3 236 530 532
3 532 531 167
3 530 531 532
3 181 122 10
3 237 122 181
3 237 55 122
3 533 237 534
3 535 534 26
3 533 534 535
3 238 536 538
3 536 237 537
3 536 537 538
3 238 55 237
3 238 236 55
3 539 236 540
3 541 540 238
3 539 540 541
3 543 542 236
3 239 544 546
3 544 545 546
3 239 547 548
3 125 549 551
3 549 239 550
3 549 550 551
3 240 239 125
3 240 552 554
3 554 553 239
3 552 553 554
3 240 555 556
3 226 557 559
3 559 558 240
3 557 558 559
3 226 560 561
3 241 242 0
3 243 242 241
3 243 57 242
3 127 243 56
3 244 243 127
3 244 57 243
3 244 159 57
3 245 159 244
3 245 12 159
3 185 128 11
3 246 128 185
3 246 58 128
3 130 246 29
3 247 246 130
3 247 58 246
3 247 245 58
3 248 245 247
3 248 12 245
3 248 206 12
3 249 206 248
3 249 40 206
3 132 249 59
3 250 249 132
3 250 40 249
3 250 97 40
3 251 97 250
3 251 2 97
3 212 87 1
3 252 87 212
3 252 30 87
3 135 252 44
3 253 252 135
3 253 30 252
3 253 188 30
3 254 188 253
3 254 13 188
3 190 136 5
3 255 136 190
3 255 61 136
3 138 255 32
3 256 255 138
3 256 61 255
3 256 254 61
3 257 254 256
3 257 13 254
3 257 133 13
3 258 133 257
3 258 60 133
3 140 258 62
3 259 258 140
3 259 60 258
3 259 251 60
3 260 251 259
3 260 2 251
3 260 232 2
3 261 232 260
3 261 53 232
3 142 261 63
3 262 261 142
3 262 53 261
3 262 120 53
3 263 120 262
3 263 10 120
3 194 143 14
3 264 143 194
3 264 64 143
3 145 264 34
3 265 264 145
3 265 64 264
3 265 263 64
3 266 263 265
3 266 10 263
3 266 180 10
3 267 180 266
3 267 25 180
3 147 267 65
3 268 267 147
3 268 25 267
3 268 80 25
3 269 80 268
3 269 562 564
3 564 563 80
3 562 563 564
3 199 565 567
3 567 566 7
3 565 566 567
3 270 568 570
3 570 569 199
3 568 569 570
3 270 571 572
3 150 270 37
3 271 270 150
3 271 573 575
3 575 574 270
3 573 574 575
3 271 576 577
3 579 578 271
3 581 580 67
3 203 153 16
3 272 153 203
3 272 68 153
3 155 272 39
3 273 272 155
3 273 68 272
3 273 582 584
3 584 583 68
3 582 583 584
3 586 585 273
3 274 587 588
3 274 589 591
3 589 27 590
3 589 590 591
3 157 274 69
3 275 274 157
3 275 27 274
3 275 82 27
3 241 82 275
3 241 0 82
3 592 76 593
3 276 594 596
3 594 76 595
3 594 595 596
3 276 20 76
3 597 276 598
3 597 598 599
3 277 600 602
3 600 276 601
3 600 601 602
3 277 20 276
3 277 173 20
3 278 173 277
3 278 6 173
3 603 278 604
3 279 605 607
3 605 278 606
3 605 606 607
3 279 6 278
3 279 107 6
3 280 107 279
3 280 47 107
3 608 280 609
3 281 610 612
3 610 280 611
3 610 611 612
3 281 47 280
3 281 221 47
3 282 221 281
3 282 3 221
3 283 613 614
3 283 615 616
3 283 617 619
3 617 282 618
3 617 618 619
3 284 282 283
3 284 3 282
3 284 92 3
3 285 92 284
3 285 35 92
3 158 285 70
3 286 285 158
3 286 35 285
3 286 197 35
3 287 197 286
3 287 15 197
3 620 287 621
3 288 622 624
3 622 287 623
3 622 623 624
3 288 15 287
3 288 148 15
3 625 148 626
3 627 626 288
3 625 626 627
3 628 66 629
3 630 629 148
3 628 629 630
3 631 66 632
3 633 269 634
3 635 634 66
3 633 634 635
3 636 269 637
3 639 638 269
3 227 640 641
3 644 643 227
3 642 643 644
3 242 79 0
3 289 79 242
3 289 24 79
3 160 289 57
3 290 289 160
3 290 24 289
3 290 179 24
3 291 179 290
3 291 9 179
3 207 161 12
3 292 161 207
3 292 71 161
3 163 292 41
3 293 292 163
3 293 71 292
3 293 291 71
3 294 291 293
3 294 9 291
3 294 119 9
3 295 119 294
3 295 52 119
3 165 295 72
3 296 295 165
3 296 52 295
3 296 645 647
3 647 646 52
3 645 646 647
3 649 648 296
3 233 99 2
3 297 99 233
3 297 42 99
3 168 297 54
3 298 297 168
3 298 42 297
3 298 210 42
3 299 210 298
3 299 17 210
3 650 299 651
3 652 299 653
3 654 17 655
3 656 655 299
3 654 655 656
3 657 166 658
3 659 658 17
3 657 658 659
3 660 166 661
3 662 73 663
3 664 663 166
3 662 663 664
3 665 73 666
3 669 668 73
3 667 668 669
