ply
format ascii 1.0
element vertex 187
property float x
property float y
property float z
element face 170
property list uchar int vertex_index
end_header
-9.189144 68.571259 43.400539
-15.785893 69.663742 34.590538
-8.782251 74.703659 36.986538
-5.623676 72.875931 41.42654
-3.141357 69.493515 45.622978
-6.396465 66.394852 48.010128
-12.389486 69.593185 38.839821
-19.070847 64.235077 35.652496
-15.920295 63.942089 39.706654
-8.9161 71.745499 40.305943
-7.127401 73.974655 39.212761
-7.358772 70.908585 42.580765
-5.937212 69.728592 44.831066
-7.735647 67.641724 45.723068
-14.119094 72.444565 33.752563
-12.334942 72.490234 35.859917
-14.082095 69.735001 36.667557
-3.537016 66.249771 49.06131
-20.618031 64.303238 33.725929
-20.794317 61.750652 36.003693
-17.681862 61.159443 39.919113
-14.380195 63.62244 41.874489
-17.460646 69.415482 32.622963
-8.77264 77.422012 33.462898
-7.030077 76.814392 35.63575
-5.449903 75.809799 37.810539
-4.061623 74.391281 39.938644
-4.292053 71.386841 43.578793
-4.662411 68.18132 47.006561
-5.172398 64.802368 50.210033
-10.554104 75.085083 34.79274
-10.586403 72.264832 38.053314
-10.747564 69.212982 41.092743
-19.010986 66.773468 33.264668
-17.420666 66.897095 35.206757
-19.230293 61.476147 37.93325
-17.494347 64.134796 37.638988
-15.793173 66.917618 37.242657
-14.165929 66.78598 39.372978
-12.574835 66.472351 41.59832
-11.049761 65.954468 43.907417
-9.609329 65.208069 46.270706
-6.994829 62.903728 50.966808
-14.952493 71.054153 34.171551
-15.007278 72.29985 32.753679
-15.840677 70.909439 33.172667
-3.048588 65.090277 50.010774
-3.799175 64.547079 50.669811
-21.716981 60.622192 36.175045
-21.57254 61.89761 35.047482
-18.263604 69.23024 31.708839
-17.54372 70.537301 31.261663
-11.476398 75.112885 33.730533
-10.594569 76.368484 33.06473
-2.524985 69.887841 44.749201
-3.010824 71.02089 43.798069
-19.36146 60.002418 39.017738
-20.139573 60.246216 38.0728
-12.7378 64.813528 42.873669
-13.477515 65.047395 41.736404
-13.64048 63.388572 43.011753
-11.975262 64.554586 44.028217
-11.812298 66.21341 42.752869
-12.7378 64.813528 42.873669
-9.891417 63.447599 47.603144
-10.553636 63.86342 46.393013
-8.934237 64.705421 47.45636
-9.891417 63.447599 47.603144
-7.353284 61.0942 52.342395
-7.955849 61.76334 51.161358
-6.401695 62.090881 52.079786
-7.353284 61.0942 52.342395
-14.193859 73.668983 32.198563
-15.007278 72.29985 32.753679
-13.258892 73.792625 33.210445
-14.193859 73.668983 32.198563
-13.227018 72.467399 34.80624
-12.366816 73.81546 34.264122
-13.258892 73.792625 33.210445
-2.854438 66.722237 48.291544
-2.656608 68.344109 46.572378
-3.339187 67.871643 47.342144
-2.854438 66.722237 48.291544
-3.048588 65.090277 50.010774
-21.484397 63.173902 33.9086
-21.361519 64.368789 32.780271
-22.227885 63.239454 32.962942
-20.706174 63.026945 34.864811
-21.484397 63.173902 33.9086
-21.57254 61.89761 35.047482
-17.836467 59.579555 40.993848
-18.587244 59.844066 40.01067
-16.928393 60.962108 40.959156
-17.836467 59.579555 40.993848
-16.047609 62.353431 40.852926
-16.801078 62.550766 39.812883
-16.928393 60.962108 40.959156
-15.277559 62.193607 41.936844
-15.150245 63.782264 40.790571
-16.047609 62.353431 40.852926
-14.556542 61.948135 43.037269
-15.277559 62.193607 41.936844
-13.64048 63.388572 43.011753
-14.556542 61.948135 43.037269
-16.678054 70.785309 32.188879
-17.54372 70.537301 31.261663
-16.623269 69.539612 33.606751
-15.840677 70.909439 33.172667
-16.678054 70.785309 32.188879
-7.910753 78.413337 32.673513
-8.820604 78.650413 31.618351
-7.039472 78.109527 33.75994
-7.910753 78.413337 32.673513
-7.901359 77.118202 34.549324
-6.215407 77.659996 34.824717
-7.039472 78.109527 33.75994
-5.42532 77.1577 35.912111
-6.215407 77.659996 34.824717
-6.23999 76.312095 36.723145
-4.705074 76.489204 36.962047
-4.680491 77.837105 35.06362
-5.42532 77.1577 35.912111
-4.010934 75.779945 38.0261
-4.705074 76.489204 36.962047
-4.755763 75.10054 38.874591
-3.404745 74.889221 39.03747
-4.010934 75.779945 38.0261
-3.470957 73.469773 40.955902
-3.404745 74.889221 39.03747
-3.586172 71.967553 42.775976
-3.470957 73.469773 40.955902
-4.176838 72.889061 41.758719
-3.716705 70.440178 44.600886
-3.010824 71.02089 43.798069
-3.586172 71.967553 42.775976
-4.616867 63.823377 51.244173
-3.799175 64.547079 50.669811
-4.354707 65.52607 49.635672
-9.703837 77.536949 32.399809
-8.820604 78.650413 31.618351
-9.663372 76.253547 34.127819
-9.703837 77.536949 32.399809
-10.594569 76.368484 33.06473
-11.444523 73.787658 35.326329
-11.476398 75.112885 33.730533
-12.366816 73.81546 34.264122
-2.524985 69.887841 44.749201
-2.656608 68.344109 46.572378
-20.570428 65.46524 32.575327
-21.361519 64.368789 32.780271
-19.766906 66.700356 32.344696
-20.570428 65.46524 32.575327
-19.814508 65.538353 33.495299
-19.038774 67.909233 32.029692
-19.766906 66.700356 32.344696
-18.235816 68.094475 32.943815
-18.263604 69.23024 31.708839
-19.038774 67.909233 32.029692
-20.921585 60.383469 37.108021
-21.716981 60.622192 36.175045
-20.012305 61.613399 36.968471
-20.921585 60.383469 37.108021
-20.139573 60.246216 38.0728
-18.456077 61.317795 38.926181
-19.36146 60.002418 39.017738
-18.587244 59.844066 40.01067
-11.273851 64.23662 45.211369
-11.975262 64.554586 44.028217
-10.329545 65.581268 45.089061
-11.273851 64.23662 45.211369
-10.553636 63.86342 46.393013
-7.997395 65.922249 47.182541
-8.672488 66.424896 45.996887
-8.934237 64.705421 47.45636
-7.327804 65.298813 48.326071
-7.066056 67.018288 46.866598
-7.997395 65.922249 47.182541
-7.626986 63.553251 49.804411
-7.955849 61.76334 51.161358
-6.695647 64.64929 49.488468
-7.327804 65.298813 48.326071
-7.626986 63.553251 49.804411
-5.49048 63.040201 51.701398
-6.083614 63.853048 50.58842
-6.401695 62.090881 52.079786
-4.616867 63.823377 51.244173
-5.49048 63.040201 51.701398
3 0 11 9
3 0 13 11
3 1 43 45
3 43 14 44
3 43 44 45
3 1 16 14
3 47 46 17
3 48 19 49
3 50 22 51
3 2 24 23
3 3 25 10
3 3 26 25
3 3 27 26
3 5 28 12
3 5 29 28
3 52 30 53
3 6 31 15
3 6 32 31
3 4 54 55
3 7 33 18
3 7 34 33
3 56 35 57
3 8 36 20
3 8 37 36
3 8 38 37
3 58 39 59
3 60 59 21
3 58 59 60
3 61 40 62
3 63 62 39
3 61 62 63
3 64 41 65
3 67 66 41
3 68 42 69
3 71 70 42
3 9 10 2
3 11 10 9
3 11 3 10
3 11 12 3
3 13 12 11
3 13 5 12
3 14 72 73
3 14 74 75
3 14 76 78
3 76 15 77
3 76 77 78
3 16 15 14
3 16 6 15
3 17 79 81
3 81 80 4
3 79 80 81
3 83 82 17
3 84 18 85
3 84 85 86
3 19 87 89
3 87 18 88
3 87 88 89
3 19 7 18
3 90 20 91
3 92 20 93
3 94 8 95
3 96 95 20
3 94 95 96
3 97 21 98
3 99 98 8
3 97 98 99
3 100 21 101
3 103 102 21
3 22 104 105
3 22 106 108
3 106 1 107
3 106 107 108
3 23 109 110
3 24 111 113
3 113 112 23
3 111 112 113
3 24 114 115
3 10 24 2
3 25 24 10
3 25 116 118
3 118 117 24
3 116 117 118
3 25 119 121
3 119 120 121
3 26 122 124
3 124 123 25
3 122 123 124
3 26 125 126
3 26 127 128
3 27 129 131
3 131 130 26
3 129 130 131
3 27 132 134
3 132 4 133
3 132 133 134
3 12 27 3
3 28 27 12
3 28 4 27
3 28 17 4
3 29 17 28
3 29 135 137
3 137 136 17
3 135 136 137
3 138 23 139
3 30 140 142
3 140 23 141
3 140 141 142
3 30 2 23
3 15 143 145
3 143 30 144
3 143 144 145
3 31 30 15
3 31 2 30
3 31 9 2
3 32 9 31
3 32 0 9
3 147 146 4
3 18 148 149
3 33 150 152
3 152 151 18
3 150 151 152
3 33 153 154
3 33 155 157
3 155 22 156
3 155 156 157
3 34 22 33
3 34 1 22
3 158 19 159
3 35 160 162
3 160 19 161
3 160 161 162
3 35 7 19
3 20 163 165
3 163 35 164
3 163 164 165
3 36 35 20
3 36 7 35
3 36 34 7
3 37 34 36
3 37 1 34
3 37 16 1
3 38 16 37
3 38 6 16
3 21 38 8
3 39 38 21
3 39 6 38
3 39 32 6
3 40 32 39
3 40 0 32
3 166 40 167
3 41 168 170
3 168 40 169
3 168 169 170
3 41 0 40
3 41 13 0
3 171 13 172
3 173 172 41
3 171 172 173
3 174 5 175
3 176 175 13
3 174 175 176
3 42 177 178
3 42 179 181
3 179 5 180
3 179 180 181
3 42 29 5
3 182 29 183
3 184 183 42
3 182 183 184
3 186 185 29
