ply
format ascii 1.0
element vertex 256
property float x
property float y
property float z
element face 233
property list uchar int vertex_index
end_header
52.572174 43.289768 1.791972
47.220535 54.726784 -13.422504
33.918861 44.344112 -23.644773
41.055084 51.244164 -19.044291
52.395519 48.531067 -1.839567
49.964645 50.027313 -5.5121
49.53849 45.153931 -1.149675
44.469658 50.284889 -12.244444
44.364254 53.565018 -16.51309
41.613773 48.615288 -15.16765
38.707893 45.933609 -17.840536
49.58989 54.651321 -9.730436
47.265182 50.726288 -9.000563
54.253468 46.600441 2.075733
37.473827 48.083733 -21.32102
35.844086 42.545109 -20.449896
52.556923 45.955856 0.040083
51.235985 46.863358 -1.648607
51.105911 44.271839 0.306839
42.603634 48.036148 -11.284437
43.049595 49.595665 -13.746052
41.26543 47.211983 -12.789064
50.595505 54.216858 -7.710747
48.345703 48.2575 -4.929871
48.633774 50.501419 -7.280508
46.865776 48.640694 -6.548836
45.405853 48.749802 -8.154474
53.619774 49.236572 0.446042
32.351017 45.161896 -24.891676
42.758698 52.531967 -17.833628
43.572968 55.216896 -18.132196
39.281555 49.747719 -20.19145
37.260448 44.312897 -19.141905
52.046261 51.057182 -3.751574
51.034378 51.789078 -5.751032
51.230717 49.353737 -3.700119
49.816032 47.647354 -3.299397
47.927841 45.887032 -2.605169
34.200504 47.214584 -23.727808
46.061764 52.492554 -12.990051
45.853981 54.303963 -15.047789
44.635525 51.934845 -14.533268
43.139183 51.073418 -15.955599
41.578556 49.939369 -17.274729
39.967213 48.575226 -18.521833
40.163994 47.380447 -16.524488
48.464745 54.834641 -11.643148
49.912292 52.344902 -7.687168
48.702293 52.675423 -9.550917
47.417305 52.735413 -11.32498
45.874989 50.661659 -10.659872
43.983135 48.552231 -9.736996
53.726795 44.965534 1.786997
52.918591 50.194466 -1.688112
53.417175 47.602737 0.081573
35.672207 46.279297 -22.46715
38.326935 47.023857 -19.733564
36.686649 45.318504 -20.942461
35.080662 43.477268 -22.169054
52.528307 41.895149 2.559607
51.732979 42.416077 1.933612
51.732979 42.416077 1.933612
50.999848 42.907112 1.191046
51.839042 43.780804 1.049405
40.965725 46.433166 -11.513089
41.934532 47.624066 -12.036751
41.634827 46.845249 -10.760776
40.376497 45.949604 -12.289484
40.965725 46.433166 -11.513089
51.034565 53.897713 -6.658722
50.623818 55.174557 -7.521276
46.596019 47.528473 -5.31501
47.605739 48.449097 -5.739353
47.335983 47.336876 -4.505528
45.821092 47.664947 -6.06843
46.596019 47.528473 -5.31501
33.087317 43.308673 -24.245995
32.303394 43.717565 -24.869446
33.134939 44.753004 -24.268225
33.732708 42.923694 -23.53124
33.087317 43.308673 -24.245995
46.906669 55.734867 -14.321313
47.53469 55.873818 -13.451311
41.445015 52.627316 -19.194212
42.296822 53.271218 -18.588881
41.906891 51.888065 -18.43896
40.51968 51.904538 -19.75049
41.445015 52.627316 -19.194212
40.168319 50.495942 -19.617871
39.632915 51.156315 -20.32407
40.51968 51.904538 -19.75049
48.499994 44.248152 -0.778801
47.69467 44.614702 -1.506548
48.733165 45.520482 -1.877422
34.243368 48.701988 -23.687908
33.250408 47.671482 -24.253577
49.264611 55.81921 -10.647652
49.730976 55.663585 -9.617377
49.027317 54.742981 -10.686792
48.702038 55.91087 -11.604008
49.264611 55.81921 -10.647652
43.645617 47.608483 -8.430454
44.694494 48.651016 -8.945735
44.356976 47.707268 -7.639194
42.960111 47.436138 -9.207595
43.645617 47.608483 -8.430454
54.474033 45.259901 2.841366
54.210697 44.442448 2.696998
53.990132 45.782987 1.931365
52.850939 51.031056 -1.437566
52.563921 51.488511 -2.559684
44.764982 54.851692 -16.640888
45.509845 55.221165 -15.908237
45.109117 53.934491 -15.780439
43.761704 56.613484 -18.13262
42.900027 56.060055 -18.760922
36.796762 48.610676 -21.964602
37.768641 49.505867 -21.424509
36.573017 47.181515 -21.894085
35.895952 47.708458 -22.537667
36.796762 48.610676 -21.964602
35.165798 41.594358 -21.112924
34.784087 42.060438 -21.972504
35.462374 43.011189 -21.309475
50.152019 43.388495 0.574332
49.368309 43.829541 -0.153925
50.322201 44.712885 -0.421418
50.152019 43.388495 0.574332
50.999848 42.907112 1.191046
40.61426 46.660274 -13.520353
40.788431 47.361927 -14.709646
41.439602 47.913635 -13.978357
40.61426 46.660274 -13.520353
40.376497 45.949604 -12.289484
50.233784 55.446354 -8.607532
50.623818 55.174557 -7.521276
50.092697 54.434089 -8.720591
49.730976 55.663585 -9.617377
50.233784 55.446354 -8.607532
45.091131 47.719501 -6.871249
46.135814 48.695248 -7.351655
45.821092 47.664947 -6.06843
44.356976 47.707268 -7.639194
45.091131 47.719501 -6.871249
54.559939 46.07148 3.111752
54.1875 47.403797 2.36608
53.399037 50.04945 0.787428
53.201531 50.552109 -0.370488
53.870653 48.721863 1.551234
53.399037 50.04945 0.787428
54.1875 47.403797 2.36608
53.936621 47.918506 1.260887
53.870653 48.721863 1.551234
31.482074 44.065794 -25.485306
31.37997 45.549663 -25.427061
31.482074 44.065794 -25.485306
32.303394 43.717565 -24.869446
42.703957 54.613682 -18.738164
43.165833 53.874432 -17.982912
42.296822 53.271218 -18.588881
42.900027 56.060055 -18.760922
42.703957 54.613682 -18.738164
38.672505 50.33786 -20.859724
39.632915 51.156315 -20.32407
38.377691 48.915726 -20.756235
37.768641 49.505867 -21.424509
38.672505 50.33786 -20.859724
37.357107 43.768007 -18.119065
37.98417 45.123253 -18.491221
38.08083 44.578363 -17.46838
36.758003 42.914545 -18.826822
37.357107 43.768007 -18.119065
36.049822 42.030651 -19.480818
36.552267 43.429003 -19.795901
36.758003 42.914545 -18.826822
35.478972 41.106899 -20.196258
36.049822 42.030651 -19.480818
51.540319 51.42313 -4.751303
51.254002 52.683823 -5.678864
51.759943 52.317875 -4.679136
47.127052 46.151642 -3.343177
47.335983 47.336876 -4.505528
48.136772 47.072266 -3.76752
46.836176 44.943032 -2.155711
47.127052 46.151642 -3.343177
46.836176 44.943032 -2.155711
47.69467 44.614702 -1.506548
48.499994 44.248152 -0.778801
49.368309 43.829541 -0.153925
32.325665 46.645138 -24.83551
31.37997 45.549663 -25.427061
33.275761 46.18824 -24.309742
32.325665 46.645138 -24.83551
33.250408 47.671482 -24.253577
40.063541 46.744506 -15.388065
40.888884 47.997867 -15.846069
40.788431 47.361927 -14.709646
39.428154 46.072904 -16.103251
40.063541 46.744506 -15.388065
38.700103 45.349486 -16.761274
39.435944 46.657028 -17.182512
39.428154 46.072904 -16.103251
38.08083 44.578363 -17.46838
38.700103 45.349486 -16.761274
48.156796 55.927746 -12.561633
48.702038 55.91087 -11.604008
47.84264 54.780712 -12.532826
47.53469 55.873818 -13.451311
48.156796 55.927746 -12.561633
50.814942 53.002968 -6.730889
51.034565 53.897713 -6.658722
51.254002 52.683823 -5.678864
42.270361 47.178096 -9.981316
43.293385 48.29419 -10.510717
42.960111 47.436138 -9.207595
41.634827 46.845249 -10.760776
42.270361 47.178096 -9.981316
53.802267 43.605095 2.559158
53.224956 42.767212 2.561646
53.149484 44.127651 1.789484
53.802267 43.605095 2.559158
54.210697 44.442448 2.696998
54.474033 45.259901 2.841366
54.559939 46.07148 3.111752
52.127756 51.919868 -3.591416
51.759943 52.317875 -4.679136
52.482426 50.625824 -2.719843
52.127756 51.919868 -3.591416
52.563921 51.488511 -2.559684
53.269182 49.715519 -0.621035
52.850939 51.031056 -1.437566
53.201531 50.552109 -0.370488
52.528307 41.895149 2.559607
53.224956 42.767212 2.561646
46.223393 55.523457 -15.133955
46.906669 55.734867 -14.321313
46.537258 54.515374 -14.235146
46.223393 55.523457 -15.133955
45.509845 55.221165 -15.908237
44.369339 55.677632 -17.450441
44.764982 54.851692 -16.640888
43.968611 54.390957 -17.322643
44.369339 55.677632 -17.450441
43.761704 56.613484 -18.13262
35.160101 48.176102 -23.167995
34.243368 48.701988 -23.687908
34.936356 46.746941 -23.097479
35.160101 48.176102 -23.167995
35.895952 47.708458 -22.537667
34.313609 42.490273 -22.79338
33.732708 42.923694 -23.53124
34.499761 43.91069 -22.906914
34.313609 42.490273 -22.79338
34.784087 42.060438 -21.972504
35.165798 41.594358 -21.112924
35.478972 41.106899 -20.196258
3 0 59 60
3 0 18 16
3 0 61 63
3 63 62 18
3 61 62 63
3 64 21 65
3 66 65 19
3 64 65 66
3 68 67 21
3 69 22 70
3 71 25 72
3 73 72 23
3 71 72 73
3 75 74 25
3 2 76 78
3 78 77 28
3 76 77 78
3 2 79 80
3 1 81 82
3 3 83 85
3 85 84 29
3 83 84 85
3 3 86 87
3 3 88 90
3 88 31 89
3 88 89 90
3 4 35 33
3 6 36 17
3 6 37 36
3 6 91 93
3 93 92 37
3 91 92 93
3 94 38 95
3 7 41 39
3 9 42 20
3 9 43 42
3 9 45 43
3 11 96 97
3 11 98 100
3 98 46 99
3 98 99 100
3 5 47 34
3 12 48 24
3 12 49 48
3 12 50 49
3 101 51 102
3 103 102 26
3 101 102 103
3 105 104 51
3 13 106 108
3 108 107 52
3 106 107 108
3 109 53 110
3 13 54 27
3 13 52 54
3 8 111 113
3 113 112 40
3 111 112 113
3 115 114 30
3 14 116 117
3 14 118 120
3 118 55 119
3 118 119 120
3 10 56 44
3 15 57 32
3 15 58 57
3 15 121 123
3 123 122 58
3 121 122 123
3 16 17 4
3 18 17 16
3 18 6 17
3 18 124 126
3 126 125 6
3 124 125 126
3 128 127 18
3 19 20 7
3 21 20 19
3 21 9 20
3 21 129 131
3 131 130 9
3 129 130 131
3 133 132 21
3 22 134 135
3 22 136 138
3 136 11 137
3 136 137 138
3 23 24 5
3 25 24 23
3 25 12 24
3 25 26 12
3 139 26 140
3 141 140 25
3 139 140 141
3 143 142 26
3 145 144 13
3 146 27 147
3 148 27 149
3 150 13 151
3 152 151 27
3 150 151 152
3 28 153 154
3 156 155 28
3 29 30 8
3 157 30 158
3 159 158 29
3 157 158 159
3 161 160 30
3 31 162 163
3 31 164 166
3 164 14 165
3 164 165 166
3 167 32 168
3 169 168 10
3 167 168 169
3 170 32 171
3 172 15 173
3 174 173 32
3 172 173 174
3 176 175 15
3 33 177 179
3 177 34 178
3 177 178 179
3 35 34 33
3 35 5 34
3 17 35 4
3 36 35 17
3 36 5 35
3 36 23 5
3 37 23 36
3 37 180 182
3 182 181 23
3 180 181 182
3 37 183 184
3 186 185 37
3 188 187 6
3 189 28 190
3 38 191 193
3 191 28 192
3 191 192 193
3 38 2 28
3 39 40 1
3 41 40 39
3 41 8 40
3 20 41 7
3 42 41 20
3 42 8 41
3 42 29 8
3 43 29 42
3 43 3 29
3 43 44 3
3 45 44 43
3 45 10 44
3 194 45 195
3 196 195 9
3 194 195 196
3 197 45 198
3 199 10 200
3 201 200 45
3 199 200 201
3 203 202 10
3 46 204 205
3 46 206 208
3 206 1 207
3 206 207 208
3 34 209 211
3 209 22 210
3 209 210 211
3 47 22 34
3 47 11 22
3 24 47 5
3 48 47 24
3 48 11 47
3 48 46 11
3 49 46 48
3 49 1 46
3 49 39 1
3 50 39 49
3 50 7 39
3 26 50 12
3 51 50 26
3 51 7 50
3 51 19 7
3 212 19 213
3 214 213 51
3 212 213 214
3 216 215 19
3 52 217 219
3 219 218 0
3 217 218 219
3 221 220 52
3 223 222 13
3 224 33 225
3 53 226 228
3 226 33 227
3 226 227 228
3 53 4 33
3 27 229 231
3 229 53 230
3 229 230 231
3 54 53 27
3 54 4 53
3 54 16 4
3 52 16 54
3 52 0 16
3 233 232 0
3 40 234 236
3 236 235 1
3 234 235 236
3 238 237 40
3 30 239 241
3 241 240 8
3 239 240 241
3 243 242 30
3 244 38 245
3 55 246 248
3 246 38 247
3 246 247 248
3 55 2 38
3 44 31 3
3 56 31 44
3 56 14 31
3 32 56 10
3 57 56 32
3 57 14 56
3 57 55 14
3 58 55 57
3 58 2 55
3 58 249 251
3 251 250 2
3 249 250 251
3 253 252 58
3 255 254 15
