ply
format ascii 1.0
element vertex 140
property float x
property float y
property float z
element face 127
property list uchar int vertex_index
end_header
-58.475807 -36.340179 4.606539
-67.883591 -32.648102 -1.001509
-64.184425 -34.20919 1.686685
-65.362694 -29.355476 -1.351751
-68.092354 -28.005259 -4.053421
-68.828156 -40.980148 3.137252
-63.067299 -38.85675 5.282812
-67.343163 -37.306404 2.407663
-62.950218 -30.420668 -0.019646
-68.076141 -41.330105 4.700514
-60.314857 -39.727283 6.827744
-60.844032 -37.550293 4.876603
-66.377975 -33.315147 0.345636
-65.93576 -35.68544 2.022873
-67.643661 -34.984245 0.651734
-68.50238 -36.801796 0.972343
-68.599449 -34.52227 -0.757822
-68.602737 -32.245731 -2.407114
-59.21022 -34.043602 2.912386
-61.477108 -35.254128 3.086132
-62.19072 -32.867668 1.457767
-64.782356 -31.795483 0.104684
-66.781708 -30.924267 -1.214903
-68.041397 -30.3146 -2.563416
-67.114609 -28.535158 -2.678019
-62.591591 -41.041977 7.299557
-65.030884 -40.284843 5.760192
-63.604218 -36.571121 3.410837
-65.480438 -38.015106 3.8267
-66.999542 -39.60025 4.272516
-68.324043 -39.074127 2.790046
-68.907974 -38.758816 1.270571
-68.499008 -29.987309 -3.985582
-67.351769 -41.590502 5.474849
-67.923542 -42.443995 5.704233
-59.65992 -36.945236 4.741571
-59.365307 -38.026443 5.673934
-58.181194 -37.421386 5.538902
-61.124459 -32.257188 1.421803
-60.70047 -33.455635 2.185077
-59.634208 -32.845156 2.149112
-68.836433 -41.992437 3.288158
-68.742791 -42.087684 4.110741
-68.841354 -40.90842 2.33397
-68.836433 -41.992437 3.288158
-68.898487 -37.647531 0.374441
-68.705177 -37.780306 1.121457
-68.69569 -36.669021 0.225327
-68.830276 -38.715281 0.478895
-68.898487 -37.647531 0.374441
-61.962265 -29.802123 -0.005957
-61.504207 -31.033689 0.683096
-63.329668 -29.181806 -0.695843
-61.962265 -29.802123 -0.005957
-64.535906 -28.64921 -1.361895
-64.156456 -29.888072 -0.685698
-63.329668 -29.181806 -0.695843
-65.622105 -28.135633 -2.032155
-64.535906 -28.64921 -1.361895
-68.366783 -42.262663 4.892372
-67.923542 -42.443995 5.704233
-68.452149 -41.155127 3.918883
-68.742791 -42.087684 4.110741
-68.366783 -42.262663 4.892372
-59.100719 -39.114939 6.649504
-58.888624 -40.113279 7.661674
-60.579445 -38.638788 5.852174
-59.100719 -39.114939 6.649504
-59.365307 -38.026443 5.673934
-68.744225 -35.529258 -0.639755
-68.69569 -36.669021 0.225327
-68.550915 -35.662033 0.10726
-68.682675 -34.419289 -1.501093
-68.744225 -35.529258 -0.639755
-68.684319 -33.281019 -2.325739
-68.682675 -34.419289 -1.501093
-68.601093 -33.384 -1.582468
-68.569221 -32.176096 -3.154522
-68.684319 -33.281019 -2.325739
-68.184215 -27.887998 -4.781556
-68.051915 -26.876689 -4.777684
-62.570469 -31.644168 0.71906
-61.124459 -32.257188 1.421803
-61.504207 -31.033689 0.683096
-66.498063 -27.725474 -2.695289
-66.238652 -28.945317 -2.014885
-65.622105 -28.135633 -2.032155
-67.22728 -27.354319 -3.37658
-66.498063 -27.725474 -2.695289
-67.716152 -27.08937 -4.064281
-67.603482 -28.270208 -3.36572
-67.22728 -27.354319 -3.37658
-68.051915 -26.876689 -4.777684
-67.716152 -27.08937 -4.064281
-56.94611 -36.837188 5.448828
-58.181194 -37.421386 5.538902
-57.272694 -35.768833 4.565967
-56.94611 -36.837188 5.448828
-57.6399 -34.620545 3.71889
-58.843013 -35.19189 3.759462
-57.272694 -35.768833 4.565967
-58.056959 -33.48041 2.920913
-57.6399 -34.620545 3.71889
-59.634208 -32.845156 2.149112
-58.056959 -33.48041 2.920913
-60.110065 -40.742521 7.877717
-58.888624 -40.113279 7.661674
-61.248432 -41.399868 8.113624
-60.110065 -40.742521 7.877717
-61.453224 -40.38463 7.06365
-62.391602 -42.072197 8.375124
-61.248432 -41.399868 8.113624
-63.596958 -41.758129 7.560291
-62.391602 -42.072197 8.375124
-64.816604 -41.379562 6.790608
-63.596958 -41.758129 7.560291
-63.811238 -40.66341 6.529875
-65.82914 -41.067871 6.004688
-64.816604 -41.379562 6.790608
-66.813469 -40.725575 5.26085
-65.82914 -41.067871 6.004688
-66.015213 -39.942547 5.016354
-67.537842 -40.465178 4.486515
-67.351769 -41.590502 5.474849
-66.813469 -40.725575 5.26085
-68.881263 -39.797754 1.400629
-68.841354 -40.90842 2.33397
-68.868065 -39.869482 2.203912
-68.881263 -39.797754 1.400629
-68.830276 -38.715281 0.478895
-68.517357 -31.046885 -3.943756
-68.569221 -32.176096 -3.154522
-68.550872 -31.11652 -3.196348
-68.387542 -28.879023 -4.747637
-68.295681 -28.996284 -4.019502
-68.184215 -27.887998 -4.781556
-68.348762 -29.955088 -4.742995
-68.387542 -28.879023 -4.747637
-68.517357 -31.046885 -3.943756
-68.348762 -29.955088 -4.742995
3 33 9 34
3 0 35 37
3 35 11 36
3 35 36 37
3 1 14 12
3 1 16 14
3 1 17 16
3 38 20 39
3 40 39 18
3 38 39 40
3 3 21 8
3 3 22 21
3 3 24 22
3 5 41 42
3 5 43 44
3 6 25 10
3 6 26 25
3 2 27 19
3 7 28 13
3 7 29 28
3 7 30 29
3 45 31 46
3 47 46 15
3 45 46 47
3 49 48 31
3 4 32 23
3 50 8 51
3 52 8 53
3 54 3 55
3 56 55 8
3 54 55 56
3 58 57 3
3 9 59 60
3 9 61 63
3 61 5 62
3 61 62 63
3 64 10 65
3 11 66 68
3 66 10 67
3 66 67 68
3 11 6 10
3 12 13 2
3 14 13 12
3 14 7 13
3 14 15 7
3 16 15 14
3 16 69 71
3 71 70 15
3 69 70 71
3 16 72 73
3 17 74 76
3 76 75 16
3 74 75 76
3 17 77 78
3 80 79 4
3 18 19 0
3 20 19 18
3 20 2 19
3 8 81 83
3 81 20 82
3 81 82 83
3 21 20 8
3 21 2 20
3 21 12 2
3 22 12 21
3 22 1 12
3 22 23 1
3 24 23 22
3 24 4 23
3 84 24 85
3 86 85 3
3 84 85 86
3 87 24 88
3 89 4 90
3 91 90 24
3 89 90 91
3 93 92 4
3 94 0 95
3 96 0 97
3 98 18 99
3 100 99 0
3 98 99 100
3 101 18 102
3 104 103 18
3 10 105 106
3 25 107 109
3 109 108 10
3 107 108 109
3 25 110 111
3 25 112 113
3 26 114 116
3 116 115 25
3 114 115 116
3 26 117 118
3 19 11 0
3 27 11 19
3 27 6 11
3 13 27 2
3 28 27 13
3 28 6 27
3 28 26 6
3 29 26 28
3 29 119 121
3 121 120 26
3 119 120 121
3 29 122 124
3 122 9 123
3 122 123 124
3 30 9 29
3 30 5 9
3 15 30 7
3 31 30 15
3 31 5 30
3 31 125 127
3 127 126 5
3 125 126 127
3 129 128 31
3 23 17 1
3 32 17 23
3 32 130 132
3 132 131 17
3 130 131 132
3 133 32 134
3 135 134 4
3 133 134 135
3 136 32 137
3 139 138 32
