ply
format ascii 1.0
element vertex 423
property float x
property float y
property float z
element face 457
property list uchar int vertex_index
end_header
69.877029 -9.418596 30.266304
58.054901 -6.176364 38.924961
65.689178 6.592344 24.91814
70.800636 -9.901105 23.503925
54.099701 -13.066685 47.26701
46.452023 -14.676192 52.602982
65.229988 -6.698997 33.957001
61.456291 -12.492791 42.893238
58.328865 -18.218994 51.321281
63.198608 1.128195 31.983908
68.987556 -2.326021 25.565765
70.742874 -9.539621 27.122898
61.710403 -6.153815 36.267662
63.219818 -9.549216 38.402786
59.599289 -9.421154 40.547737
52.99865 -16.057346 52.064995
56.680897 -15.455918 49.723038
60.712139 -2.455576 35.372002
64.079971 -2.947977 32.227051
68.176796 3.710842 20.856949
69.844948 -1.085993 21.697767
67.758705 2.193176 24.562481
55.759415 -9.772485 42.852219
51.972431 -10.378533 45.560928
50.155891 -13.840148 49.710983
68.155853 -7.891078 31.894928
68.620956 -11.495734 33.741329
66.325073 -10.276974 36.187469
64.454025 -13.045429 40.52774
62.630909 -15.916327 44.654137
57.951881 -12.546091 45.072647
59.902653 -15.376598 47.275612
62.62315 8.093658 29.726557
62.01738 5.106325 33.128986
64.963394 4.245872 28.544853
66.266815 -0.075745 28.353424
67.284409 -4.212481 29.667625
69.714226 -6.351835 27.852922
70.681694 -5.640094 23.92355
70.35463 -9.438058 28.865263
70.01255 -10.839113 30.507259
59.877197 -6.105158 37.543381
60.602875 -7.794695 38.375408
58.720901 -7.847017 39.558609
59.367825 -4.316869 37.113777
61.118229 -4.350797 35.606266
66.945152 5.991402 20.893122
67.043129 5.323008 22.748264
68.115379 3.04682 22.693609
66.865837 4.455215 24.604469
47.346199 -12.87257 50.635643
49.100342 -12.521448 49.018333
48.252373 -14.258938 51.092056
49.543869 -15.450846 52.018539
66.801094 -7.217981 32.894905
67.259415 -9.009179 34.014824
65.823921 -8.479 35.091263
62.303978 -11.0225 40.650978
63.920052 -11.25169 39.540951
63.025406 -12.690048 41.743416
63.539688 -14.477184 42.630035
62.166283 -14.131823 43.90028
54.846786 -11.463203 44.998749
56.801228 -11.191536 43.864285
56.055603 -12.76075 46.153305
57.680912 -16.751846 50.702782
58.355545 -15.342672 48.518326
59.13736 -16.794682 49.358963
60.473129 -16.997902 47.98114
61.686966 1.383793 34.022079
61.265465 3.34454 34.686169
62.713634 3.169043 32.433395
63.485168 4.810801 30.789845
64.19873 2.767113 30.282345
65.68837 2.100618 28.271671
64.740402 0.650681 30.083345
64.625343 -4.869088 32.949326
65.735939 -3.475372 30.868301
66.272758 -5.391932 31.788717
67.753593 -6.101869 30.746269
69.552094 -1.628599 23.593857
70.35778 -3.427909 22.64912
70.005806 -3.85339 24.587891
70.302094 -5.921188 25.872986
69.411575 -4.424891 26.595619
70.916115 -9.702675 25.292957
63.512291 -6.346219 35.077946
64.201294 -8.097267 36.166065
62.444443 -7.871947 37.253483
61.455063 -9.414222 39.471127
60.560486 -10.94645 41.722549
53.49696 -14.589584 49.635704
55.43055 -14.257945 48.510719
54.887794 -15.700594 50.900375
56.093178 -16.864801 52.007507
56.965302 -18.170078 52.777367
62.014076 -0.627287 33.671547
63.618393 -0.934984 31.896507
62.387627 -2.61541 33.73053
62.886459 -4.527224 34.220795
69.128883 1.321808 21.105392
68.933289 0.69808 22.9594
68.445877 -0.097515 24.873915
56.8368 -8.003616 40.8311
54.982666 -8.234541 42.218739
53.843445 -10.059367 44.142609
52.887493 -11.794628 46.218178
50.959599 -12.155943 47.550617
52.119576 -13.435398 48.443672
51.520168 -14.99485 50.796753
69.217216 -8.672034 30.985012
69.365623 -10.320383 31.814941
68.45475 -9.651948 32.929085
67.590485 -10.846105 35.002777
66.670937 -12.163605 37.124413
64.855865 -9.837471 37.315346
65.383713 -11.636215 38.370762
65.730087 -13.551054 39.233978
57.689075 -9.549517 41.664001
58.716454 -11.010079 42.783169
59.759571 -12.449501 43.995167
57.285141 -14.024773 47.396637
59.034897 -13.913984 46.269814
60.664215 -13.945383 45.109741
61.324604 -15.567338 45.988464
64.193146 7.510134 27.272259
59.499847 6.866646 36.397171
60.584023 5.185743 35.525208
60.966198 6.876812 33.930592
62.466 6.700438 31.479548
63.977478 6.267616 29.072262
65.462631 5.528027 26.757671
66.408905 3.377712 26.447235
67.128746 1.147825 26.450563
67.710678 -1.0662 26.833563
65.228981 -1.452036 30.275421
66.785812 -2.198523 28.831348
68.210091 -3.186859 27.593338
68.640465 -5.168156 28.649071
68.983643 -6.994239 29.849236
69.874458 -8.065342 29.167057
70.787323 -7.711588 21.799143
70.410172 -3.125113 20.815788
70.78627 -5.46803 22.055101
70.955254 -7.667588 23.571524
70.814194 -7.683619 25.444366
70.427673 -7.795396 27.337048
58.711363 -5.246617 38.019369
58.517736 -4.356735 37.932926
57.861275 -5.286482 38.838518
66.366153 5.957676 23.833202
66.349903 6.38104 22.891915
65.672928 7.015708 23.976853
70.514865 -11.095778 23.590637
70.573253 -10.0064 22.674181
47.033906 -15.307282 52.962925
47.934081 -15.098655 52.207462
47.352198 -14.467565 51.847519
58.954067 -18.326949 50.583847
59.358314 -17.614793 49.602688
58.733113 -17.506838 50.340122
58.468879 -19.058124 51.43502
58.954067 -18.326949 50.583847
70.707115 -10.556819 27.137596
70.793735 -10.638346 26.222625
70.829495 -9.621148 26.207928
55.781811 -17.57722 53.102142
55.235113 -16.993989 52.639675
56.217873 -18.229859 53.487072
56.52924 -17.51744 52.392437
55.781811 -17.57722 53.102142
56.563925 -18.901928 53.735096
56.217873 -18.229859 53.487072
60.583608 -1.47773 35.477453
59.900158 -2.447443 36.259964
61.363107 -1.541432 34.521774
61.234577 -0.563586 34.627226
60.583608 -1.47773 35.477453
68.059646 3.957558 19.964061
67.443825 5.097837 19.982148
67.560974 4.851122 20.875036
68.592865 2.748775 20.094677
68.059646 3.957558 19.964061
68.652839 2.516325 20.98117
69.068908 1.554258 20.218899
68.592865 2.748775 20.094677
54.771524 -7.396578 42.147395
55.62894 -7.286429 41.324907
52.907938 -10.21895 44.851768
53.514206 -9.283482 43.942619
52.578699 -9.443064 44.651779
50.296181 -15.978302 52.626579
49.312769 -16.238438 53.223534
64.618931 -14.01026 40.909981
65.256961 -14.263072 40.263099
65.092056 -13.298241 39.880859
63.231428 -16.166336 43.963234
63.685817 -15.446765 42.951183
63.085299 -15.196756 43.642086
62.746493 -16.891627 44.903137
63.231428 -16.166336 43.963234
61.090496 -17.178306 47.278874
60.608845 -17.903773 48.175949
62.575384 8.681623 28.798656
61.72962 8.895326 30.057609
63.408148 7.801896 28.499408
63.360382 8.389861 27.571506
62.575384 8.681623 28.798656
59.346565 5.99172 37.1767
58.787748 6.808725 37.632148
70.675431 -6.543918 21.060288
70.527988 -7.751105 20.9952
70.12756 -2.105553 21.256777
70.11649 -1.904535 20.359977
69.833877 -0.884975 20.800967
69.012192 -11.822108 33.049093
69.384525 -11.234432 32.085899
68.99329 -10.908058 32.778135
70.403119 -10.324899 28.887404
70.59724 -10.375681 28.016222
70.548752 -9.48884 27.99408
70.232079 -11.025427 29.708402
70.403119 -10.324899 28.887404
70.18359 -10.138585 29.686261
69.977916 -11.794076 30.655216
70.232079 -11.025427 29.708402
53.687849 -16.590261 52.668419
52.774792 -16.785007 53.282123
59.228001 -3.378089 37.130851
58.517736 -4.356735 37.932926
60.039982 -3.386222 36.24289
59.900158 -2.447443 36.259964
59.228001 -3.378089 37.130851
66.300915 6.715237 21.964344
66.170391 7.041694 21.011329
66.99414 5.657205 21.820693
66.300915 6.715237 21.964344
66.349903 6.38104 22.891915
51.718959 -9.585064 45.488954
52.578699 -9.443064 44.651779
48.22327 -12.697009 49.826988
48.791118 -11.762919 48.934146
47.914047 -11.938481 49.742801
48.579829 -15.694609 52.670704
48.898121 -14.854892 51.555297
47.934081 -15.098655 52.207462
49.312769 -16.238438 53.223534
48.579829 -15.694609 52.670704
60.026199 -17.716403 48.913776
59.805245 -16.896292 48.670051
59.358314 -17.614793 49.602688
60.608845 -17.903773 48.175949
60.026199 -17.716403 48.913776
61.828199 8.240369 30.97252
61.72962 8.895326 30.057609
61.476215 2.364167 34.354124
60.747688 2.40058 35.429282
60.958439 1.420206 35.097236
68.624691 -12.50229 34.044874
68.18998 -12.149623 34.765061
70.765103 -10.82033 25.333196
70.707363 -10.919545 24.438679
70.858375 -9.80189 24.398441
70.765103 -10.82033 25.333196
70.793735 -10.638346 26.222625
70.707115 -10.556819 27.137596
70.59724 -10.375681 28.016222
47.130398 -12.074032 50.683743
47.914047 -11.938481 49.742801
46.537937 -13.036063 51.521134
47.130398 -12.074032 50.683743
46.090849 -13.937874 52.504803
46.899111 -13.774381 51.619312
46.537937 -13.036063 51.521134
54.632421 -16.411886 52.086109
53.943222 -15.87897 51.482685
53.687849 -16.590261 52.668419
55.490486 -16.282698 51.453941
54.632421 -16.411886 52.086109
55.235113 -16.993989 52.639675
57.201178 -18.92339 52.948967
57.882959 -18.947848 52.220924
57.647084 -18.194536 52.049324
57.201178 -18.92339 52.948967
56.563925 -18.901928 53.735096
61.071022 0.441955 34.802492
60.958439 1.420206 35.097236
61.850521 0.378253 33.846813
61.071022 0.441955 34.802492
61.234577 -0.563586 34.627226
66.769851 6.241073 19.976571
66.170391 7.041694 21.011329
66.769851 6.241073 19.976571
67.443825 5.097837 19.982148
69.475845 0.318925 20.504779
69.068908 1.554258 20.218899
69.486916 0.117908 21.401579
69.833877 -0.884975 20.800967
69.475845 0.318925 20.504779
70.514865 -11.095778 23.590637
70.707363 -10.919545 24.438679
56.556007 -7.170966 40.631088
57.44585 -7.08999 39.878031
57.165058 -6.25734 39.678019
55.909733 -8.119079 41.524919
56.556007 -7.170966 40.631088
55.62894 -7.286429 41.324907
54.083816 -8.371068 42.980684
54.771524 -7.396578 42.147395
54.413055 -9.146954 43.180674
54.083816 -8.371068 42.980684
53.514206 -9.283482 43.942619
51.074206 -10.539782 46.343689
51.718959 -9.585064 45.488954
49.638161 -11.611239 48.072391
48.791118 -11.762919 48.934146
50.56779 -11.428486 47.338533
49.638161 -11.611239 48.072391
50.02997 -12.338696 48.284475
51.466015 -11.267238 46.555773
51.074206 -10.539782 46.343689
50.56779 -11.428486 47.338533
51.28433 -15.750304 52.015686
50.532018 -15.222848 51.407646
50.296181 -15.978302 52.626579
52.023571 -16.281552 52.649807
52.259409 -15.526098 51.430874
51.28433 -15.750304 52.015686
52.774792 -16.785007 53.282123
52.023571 -16.281552 52.649807
57.165058 -6.25734 39.678019
57.861275 -5.286482 38.838518
64.923545 7.560722 25.156128
65.672928 7.015708 23.976853
67.674744 -11.824808 35.395785
68.18998 -12.149623 34.765061
68.105721 -11.17092 34.372053
67.21497 -12.483559 36.456603
67.674744 -11.824808 35.395785
67.130711 -11.504855 36.063595
66.755127 -13.17472 37.489429
67.21497 -12.483559 36.456603
66.284702 -13.868445 38.544212
66.755127 -13.17472 37.489429
66.200512 -12.85733 38.179195
65.811691 -14.579855 39.558731
66.284702 -13.868445 38.544212
65.811691 -14.579855 39.558731
65.256961 -14.263072 40.263099
64.161762 -14.726137 41.961128
64.618931 -14.01026 40.909981
63.996856 -13.761306 41.578888
64.161762 -14.726137 41.961128
63.685817 -15.446765 42.951183
61.516233 -16.463024 46.282536
60.898866 -16.28262 46.984802
61.090496 -17.178306 47.278874
62.169386 -16.637519 45.615372
61.977756 -15.741833 45.3213
61.516233 -16.463024 46.282536
62.746493 -16.891627 44.903137
62.169386 -16.637519 45.615372
58.468879 -19.058124 51.43502
57.882959 -18.947848 52.220924
45.621977 -14.879478 53.426732
46.090849 -13.937874 52.504803
46.11703 -15.559185 53.664654
45.621977 -14.879478 53.426732
47.033906 -15.307282 52.962925
46.11703 -15.559185 53.664654
64.175529 8.019617 26.333187
63.360382 8.389861 27.571506
64.941162 7.051239 26.095199
64.923545 7.560722 25.156128
64.175529 8.019617 26.333187
58.717888 7.629342 36.79377
58.787748 6.808725 37.632148
59.481192 7.662554 35.554165
58.717888 7.629342 36.79377
60.566536 3.345415 35.849783
60.747688 2.40058 35.429282
60.225815 4.266017 36.269302
60.566536 3.345415 35.849783
60.924744 4.265142 35.105688
59.888653 5.151268 36.740719
60.225815 4.266017 36.269302
60.041935 6.026195 35.96119
59.346565 5.99172 37.1767
59.888653 5.151268 36.740719
60.214367 7.667637 34.320875
59.481192 7.662554 35.554165
60.233023 6.871729 35.163882
60.999724 7.631946 33.074537
60.214367 7.667637 34.320875
61.749624 7.54376 31.849016
60.999724 7.631946 33.074537
61.716099 6.788625 32.70507
62.544575 7.397048 30.603053
61.828199 8.240369 30.97252
61.749624 7.54376 31.849016
70.566597 -8.911641 21.82179
70.307263 -8.951158 21.017847
70.527988 -7.751105 20.9952
70.79398 -8.806347 22.651534
70.573253 -10.0064 22.674181
70.566597 -8.911641 21.82179
70.267434 -3.024032 19.970374
70.11649 -1.904535 20.359977
70.486855 -4.25068 20.56861
70.267434 -3.024032 19.970374
70.674904 -5.422139 21.188267
70.486855 -4.25068 20.56861
70.598221 -4.296571 21.435445
70.786797 -6.589809 21.927122
70.675431 -6.543918 21.060288
70.674904 -5.422139 21.188267
69.707988 -11.493797 31.432058
69.689087 -10.579748 31.1611
69.384525 -11.234432 32.085899
69.977916 -11.794076 30.655216
69.707988 -11.493797 31.432058
69.012192 -11.822108 33.049093
68.624691 -12.50229 34.044874
3 0 40 39
3 1 43 41
3 1 147 149
3 147 44 148
3 147 148 149
3 1 41 44
3 2 150 152
3 150 47 151
3 150 151 152
3 2 49 47
3 3 153 154
3 5 52 50
3 5 155 157
3 157 156 52
3 155 156 157
3 6 56 54
3 7 59 57
3 7 61 59
3 4 64 62
3 8 67 65
3 8 158 160
3 160 159 67
3 158 159 160
3 8 161 162
3 9 71 69
3 9 73 71
3 9 75 73
3 6 78 76
3 6 54 78
3 10 82 80
3 10 84 82
3 11 163 165
3 165 164 85
3 163 164 165
3 12 88 86
3 14 89 42
3 14 90 89
3 15 93 91
3 166 94 167
3 168 95 169
3 170 169 94
3 168 169 170
3 172 171 95
3 17 173 174
3 17 175 177
3 175 96 176
3 175 176 177
3 17 98 96
3 12 99 45
3 12 86 99
3 19 178 180
3 180 179 46
3 178 179 180
3 19 181 182
3 19 183 185
3 183 100 184
3 183 184 185
3 21 101 48
3 21 102 101
3 186 104 187
3 23 188 190
3 188 105 189
3 188 189 190
3 23 106 105
3 24 107 51
3 24 108 107
3 24 109 108
3 192 191 53
3 25 112 110
3 27 113 55
3 27 114 113
3 13 115 87
3 28 116 58
3 28 117 116
3 28 193 195
3 195 194 117
3 193 194 195
3 29 196 198
3 198 197 60
3 196 197 198
3 29 199 200
3 22 118 103
3 30 119 63
3 30 120 119
3 16 121 92
3 31 122 66
3 31 123 122
3 31 124 123
3 202 201 68
3 32 203 204
3 32 205 207
3 205 125 206
3 205 206 207
3 208 126 209
3 33 127 70
3 33 128 127
3 33 129 128
3 34 130 72
3 34 131 130
3 34 132 131
3 35 133 74
3 35 134 133
3 18 135 97
3 36 136 77
3 36 137 136
3 36 138 137
3 25 139 79
3 25 110 139
3 210 141 211
3 20 212 214
3 212 142 213
3 212 213 214
3 38 143 81
3 38 144 143
3 38 145 144
3 37 146 83
3 37 140 146
3 26 215 217
3 217 216 111
3 215 216 217
3 39 218 220
3 220 219 11
3 218 219 220
3 40 221 223
3 223 222 39
3 221 222 223
3 40 224 225
3 41 42 12
3 43 42 41
3 43 14 42
3 227 226 15
3 44 228 229
3 44 230 232
3 230 17 231
3 230 231 232
3 44 45 17
3 41 45 44
3 41 12 45
3 233 46 234
3 47 235 237
3 235 46 236
3 235 236 237
3 47 19 46
3 47 48 19
3 49 48 47
3 49 21 48
3 238 23 239
3 50 240 242
3 240 51 241
3 240 241 242
3 52 51 50
3 52 24 51
3 52 53 24
3 243 53 244
3 245 244 52
3 243 244 245
3 247 246 53
3 54 55 25
3 56 55 54
3 56 27 55
3 57 58 13
3 59 58 57
3 59 28 58
3 59 60 28
3 61 60 59
3 61 29 60
3 62 63 22
3 64 63 62
3 64 30 63
3 65 66 16
3 67 66 65
3 67 31 66
3 67 68 31
3 248 68 249
3 250 249 67
3 248 249 250
3 252 251 68
3 253 32 254
3 69 255 257
3 255 70 256
3 255 256 257
3 71 70 69
3 71 33 70
3 71 72 33
3 73 72 71
3 73 34 72
3 73 74 34
3 75 74 73
3 75 35 74
3 76 77 18
3 78 77 76
3 78 36 77
3 78 79 36
3 54 79 78
3 54 25 79
3 80 81 20
3 82 81 80
3 82 38 81
3 82 83 38
3 84 83 82
3 84 37 83
3 259 258 26
3 85 260 262
3 262 261 3
3 260 261 262
3 264 263 85
3 266 265 11
3 267 50 268
3 269 50 270
3 271 5 272
3 273 272 50
3 271 272 273
3 86 87 6
3 88 87 86
3 88 13 87
3 42 88 12
3 89 88 42
3 89 13 88
3 89 57 13
3 90 57 89
3 90 7 57
3 91 92 4
3 93 92 91
3 93 16 92
3 274 93 275
3 276 275 15
3 274 275 276
3 94 277 279
3 277 93 278
3 277 278 279
3 94 16 93
3 94 65 16
3 95 65 94
3 95 8 65
3 95 280 282
3 282 281 8
3 280 281 282
3 284 283 95
3 285 69 286
3 96 287 289
3 287 69 288
3 287 288 289
3 96 9 69
3 96 97 9
3 98 97 96
3 98 18 97
3 45 98 17
3 99 98 45
3 99 18 98
3 99 76 18
3 86 76 99
3 86 6 76
3 46 290 291
3 293 292 46
3 100 294 295
3 100 296 298
3 296 20 297
3 296 297 298
3 48 100 19
3 101 100 48
3 101 20 100
3 101 80 20
3 102 80 101
3 102 10 80
3 300 299 3
3 301 103 302
3 303 302 1
3 301 302 303
3 104 304 306
3 304 103 305
3 304 305 306
3 104 22 103
3 307 104 308
3 105 309 311
3 309 104 310
3 309 310 311
3 105 22 104
3 105 62 22
3 106 62 105
3 106 4 62
3 312 23 313
3 51 314 315
3 107 316 318
3 318 317 51
3 316 317 318
3 107 319 321
3 319 23 320
3 319 320 321
3 107 106 23
3 108 106 107
3 108 4 106
3 108 91 4
3 109 91 108
3 109 15 91
3 53 109 24
3 322 109 323
3 324 323 53
3 322 323 324
3 325 15 326
3 327 326 109
3 325 326 327
3 329 328 15
3 330 1 331
3 332 2 333
3 110 111 0
3 112 111 110
3 112 26 111
3 55 112 25
3 113 112 55
3 113 26 112
3 113 334 336
3 336 335 26
3 334 335 336
3 114 337 339
3 339 338 113
3 337 338 339
3 114 340 341
3 87 56 6
3 115 56 87
3 115 27 56
3 58 115 13
3 116 115 58
3 116 27 115
3 116 114 27
3 117 114 116
3 117 342 344
3 344 343 114
3 342 343 344
3 117 345 346
3 348 347 117
3 60 349 351
3 351 350 28
3 349 350 351
3 353 352 60
3 103 43 1
3 118 43 103
3 118 14 43
3 63 118 22
3 119 118 63
3 119 14 118
3 119 90 14
3 120 90 119
3 120 7 90
3 92 64 4
3 121 64 92
3 121 30 64
3 66 121 16
3 122 121 66
3 122 30 121
3 122 120 30
3 123 120 122
3 123 7 120
3 123 61 7
3 124 61 123
3 124 29 61
3 68 124 31
3 354 124 355
3 356 355 68
3 354 355 356
3 357 29 358
3 359 358 124
3 357 358 359
3 361 360 29
3 363 362 8
3 364 5 365
3 366 5 367
3 369 368 5
3 125 370 371
3 125 372 374
3 372 2 373
3 372 373 374
3 126 375 376
3 126 377 378
3 70 379 380
3 127 381 383
3 383 382 70
3 381 382 383
3 127 384 385
3 127 386 388
3 386 126 387
3 386 387 388
3 128 126 127
3 128 389 391
3 391 390 126
3 389 390 391
3 128 392 393
3 129 394 396
3 396 395 128
3 394 395 396
3 129 397 399
3 397 32 398
3 397 398 399
3 72 129 33
3 130 129 72
3 130 32 129
3 130 125 32
3 131 125 130
3 131 2 125
3 131 49 2
3 132 49 131
3 132 21 49
3 74 132 34
3 133 132 74
3 133 21 132
3 133 102 21
3 134 102 133
3 134 10 102
3 97 75 9
3 135 75 97
3 135 35 75
3 77 135 18
3 136 135 77
3 136 35 135
3 136 134 35
3 137 134 136
3 137 10 134
3 137 84 10
3 138 84 137
3 138 37 84
3 79 138 36
3 139 138 79
3 139 37 138
3 139 140 37
3 110 140 139
3 110 0 140
3 141 400 402
3 400 401 402
3 141 403 405
3 403 3 404
3 403 404 405
3 142 406 407
3 142 408 409
3 81 142 20
3 143 142 81
3 143 410 412
3 412 411 142
3 410 411 412
3 143 413 415
3 413 141 414
3 413 414 415
3 144 141 143
3 144 3 141
3 144 85 3
3 145 85 144
3 145 11 85
3 83 145 38
3 146 145 83
3 146 11 145
3 146 39 11
3 140 39 146
3 140 0 39
3 111 40 0
3 416 40 417
3 418 417 111
3 416 417 418
3 420 419 40
3 422 421 26
