ply
format ascii 1.0
element vertex 156
property float x
property float y
property float z
element face 145
property list uchar int vertex_index
end_header
39.299358 -98.953766 28.362278
31.964926 -101.650589 23.236652
36.857925 -96.724815 32.024693
35.942253 -100.499229 25.438274
33.465862 -97.13353 29.040127
31.983717 -108.416977 14.748684
38.285667 -102.192688 21.814672
34.304031 -104.369843 19.627928
29.72348 -106.458405 18.532627
29.584484 -97.851234 27.321144
35.22464 -96.966492 30.438332
33.936932 -95.013985 32.271141
29.532814 -109.889183 14.581644
38.873936 -100.590263 25.021294
34.027908 -101.060127 24.185587
35.219418 -102.415504 22.415213
33.14278 -103.194298 21.412516
32.07505 -105.384811 18.905083
30.925457 -104.028442 20.747658
30.322813 -95.287415 30.128166
28.377766 -95.816093 29.724365
38.100552 -98.070808 30.230206
37.698009 -99.837135 26.873627
36.478882 -98.608025 28.662113
34.718151 -98.985527 27.209696
32.813896 -99.347351 26.009335
37.133663 -101.584656 23.656759
36.382378 -103.336845 20.629721
35.442867 -105.115242 17.816792
33.213463 -106.369843 17.08098
30.857067 -107.621712 16.644438
28.401276 -108.912842 16.54809
32.183441 -95.059914 31.006607
31.580267 -97.383263 27.965126
30.778048 -99.832954 25.179884
27.509592 -98.621849 27.174711
28.636835 -100.54612 24.806402
29.776005 -102.382248 22.68737
28.596104 -104.994881 20.48815
34.098732 -93.9981 33.944374
34.757742 -95.002926 33.034388
28.840293 -111.027992 13.614232
28.269118 -110.625336 14.652763
40.031599 -98.358959 29.072592
39.450888 -98.104622 30.070168
39.87018 -99.147919 27.377118
40.031599 -98.358959 29.072592
39.086647 -99.772014 26.691786
39.657469 -99.966167 25.706626
39.87018 -99.147919 27.377118
27.760635 -94.822193 31.075539
28.704092 -94.497341 31.140469
37.621 -96.493561 32.839737
36.990274 -95.777344 33.733404
37.479239 -97.397812 31.127449
38.242314 -97.166557 31.942493
37.621 -96.493561 32.839737
32.544055 -108.616085 13.770972
33.160472 -107.677208 14.981562
38.84048 -102.258 20.850309
39.141342 -101.521878 22.445757
37.899795 -102.991753 20.298047
38.84048 -102.258 20.850309
31.522768 -93.976117 32.093645
32.396521 -93.96769 32.621226
26.451659 -99.165359 27.358136
26.946779 -97.661739 28.505782
28.064848 -101.933597 23.700584
27.531357 -101.038521 24.867329
28.634433 -102.851662 22.641069
29.20642 -101.464184 23.746886
28.064848 -101.933597 23.700584
28.044483 -104.157978 21.541459
29.186055 -103.688565 21.58776
28.634433 -102.851662 22.641069
36.218238 -95.858341 32.911164
36.990274 -95.777344 33.733404
35.401596 -95.97918 32.117983
36.041283 -96.845653 31.231513
36.218238 -95.858341 32.911164
34.580786 -95.990239 31.354737
35.401596 -95.97918 32.117983
34.757742 -95.002926 33.034388
30.096429 -110.197689 13.581012
31.32188 -109.461586 13.664532
30.758266 -109.15308 14.665164
30.096429 -110.197689 13.581012
28.840293 -111.027992 13.614232
39.435477 -100.720665 24.049067
39.657469 -99.966167 25.706626
38.579802 -101.391475 23.417983
39.141342 -101.521878 22.445757
39.435477 -100.720665 24.049067
29.676616 -94.233002 31.342369
30.592454 -94.089867 31.654425
29.35029 -95.551754 29.926265
29.676616 -94.233002 31.342369
28.704092 -94.497341 31.140469
38.851484 -97.663143 31.004131
38.242314 -97.166557 31.942493
38.699955 -98.512287 29.296242
39.450888 -98.104622 30.070168
38.851484 -97.663143 31.004131
32.544055 -108.616085 13.770972
31.32188 -109.461586 13.664532
36.948151 -103.563831 19.705571
37.899795 -102.991753 20.298047
37.334023 -102.764767 21.222197
36.478396 -104.453029 18.299107
36.948151 -103.563831 19.705571
35.912622 -104.226044 19.223256
36.002641 -105.264656 16.876792
36.478396 -104.453029 18.299107
34.890047 -106.026341 16.515615
36.002641 -105.264656 16.876792
33.775345 -106.653641 16.14771
34.890047 -106.026341 16.515615
34.328165 -105.742542 17.448886
32.59859 -107.39341 15.914832
33.160472 -107.677208 14.981562
33.775345 -106.653641 16.14771
27.70335 -110.137165 15.635986
28.269118 -110.625336 14.652763
28.967045 -109.401013 15.564867
33.273266 -93.944725 33.253493
34.098732 -93.9981 33.944374
33.060187 -95.03695 31.638874
33.273266 -93.944725 33.253493
32.396521 -93.96769 32.621226
31.253127 -95.173665 30.567386
31.522768 -93.976117 32.093645
30.592454 -94.089867 31.654425
27.380865 -96.258861 29.780609
27.760635 -94.822193 31.075539
27.943679 -97.218971 28.449538
27.380865 -96.258861 29.780609
26.946779 -97.661739 28.505782
26.967736 -100.076386 26.051484
26.451659 -99.165359 27.358136
28.073214 -99.583984 25.990556
26.967736 -100.076386 26.051484
27.531357 -101.038521 24.867329
27.39129 -105.557511 20.574276
28.044483 -104.157978 21.541459
27.93697 -106.312424 19.517507
27.39129 -105.557511 20.574276
28.500658 -107.044186 18.539746
29.159792 -105.726643 19.510389
27.93697 -106.312424 19.517507
27.839556 -108.271404 17.547477
29.062378 -107.685623 17.540358
28.500658 -107.044186 18.539746
27.135018 -109.579613 16.672764
27.839556 -108.271404 17.547477
27.70335 -110.137165 15.635986
27.135018 -109.579613 16.672764
3 39 11 40
3 42 41 12
3 0 43 44
3 0 45 46
3 0 47 49
3 47 13 48
3 47 48 49
3 1 16 14
3 1 18 16
3 50 20 51
3 2 52 53
3 2 54 56
3 54 21 55
3 54 55 56
3 2 23 21
3 4 24 10
3 4 25 24
3 5 57 58
3 6 59 60
3 6 61 62
3 3 26 22
3 7 27 15
3 7 28 27
3 7 29 28
3 8 30 17
3 8 31 30
3 63 32 64
3 9 33 19
3 9 34 33
3 65 35 66
3 67 36 68
3 69 37 70
3 71 70 36
3 69 70 71
3 72 38 73
3 74 73 37
3 72 73 74
3 75 2 76
3 77 10 78
3 79 78 2
3 77 78 79
3 11 80 82
3 80 10 81
3 80 81 82
3 11 4 10
3 12 83 85
3 85 84 5
3 83 84 85
3 87 86 12
3 13 88 89
3 13 90 92
3 90 6 91
3 90 91 92
3 14 15 3
3 16 15 14
3 16 7 15
3 16 17 7
3 18 17 16
3 18 8 17
3 93 19 94
3 20 95 97
3 95 19 96
3 95 96 97
3 20 9 19
3 21 98 99
3 21 100 102
3 100 0 101
3 100 101 102
3 21 22 0
3 23 22 21
3 23 3 22
3 10 23 2
3 24 23 10
3 24 3 23
3 24 14 3
3 25 14 24
3 25 1 14
3 104 103 5
3 22 13 0
3 26 13 22
3 26 6 13
3 15 26 3
3 27 26 15
3 27 6 26
3 27 105 107
3 107 106 6
3 105 106 107
3 28 108 110
3 110 109 27
3 108 109 110
3 28 111 112
3 28 113 114
3 29 115 117
3 117 116 28
3 115 116 117
3 29 118 120
3 118 5 119
3 118 119 120
3 17 29 7
3 30 29 17
3 30 5 29
3 30 12 5
3 31 12 30
3 31 121 123
3 123 122 12
3 121 122 123
3 124 11 125
3 32 126 128
3 126 11 127
3 126 127 128
3 32 4 11
3 19 129 131
3 129 32 130
3 129 130 131
3 33 32 19
3 33 4 32
3 33 25 4
3 34 25 33
3 34 1 25
3 132 20 133
3 35 134 136
3 134 20 135
3 134 135 136
3 35 9 20
3 137 35 138
3 36 139 141
3 139 35 140
3 139 140 141
3 36 9 35
3 36 34 9
3 37 34 36
3 37 1 34
3 37 18 1
3 38 18 37
3 38 8 18
3 142 38 143
3 144 38 145
3 146 8 147
3 148 147 38
3 146 147 148
3 149 31 150
3 151 150 8
3 149 150 151
3 152 31 153
3 155 154 31
