ply
format ascii 1.0
element vertex 257
property float x
property float y
property float z
element face 265
property list uchar int vertex_index
end_header
-56.372734 -58.544769 50.801025
-43.988167 -62.895863 47.434593
-51.03627 -60.906868 49.464764
-52.481033 -51.332165 49.960815
-38.383617 -54.800991 49.298542
-44.84671 -52.58292 48.166451
-54.071205 -59.690575 50.454288
-40.319141 -63.752697 47.329033
-49.805656 -46.939514 48.781826
-48.607845 -51.831539 48.946651
-47.628677 -61.975304 48.293869
-47.220993 -67.129433 48.161678
-50.646568 -65.835022 48.842075
-54.85593 -55.447693 50.87421
-57.800377 -55.387192 50.694778
-56.262386 -51.156418 50.495491
-40.849228 -58.638035 47.547562
-41.375538 -53.573799 48.170269
-44.357025 -57.716244 47.709957
-47.978943 -56.864769 48.68713
-51.536098 -56.068302 49.957664
-55.372849 -59.07365 50.732574
-55.14505 -61.070812 50.254097
-42.14077 -63.325333 47.264442
-41.868462 -65.940659 47.378128
-43.758259 -65.51078 47.489895
-49.370682 -61.46233 48.870979
-49.198463 -63.989853 48.650394
-50.851898 -63.364426 49.145012
-53.743542 -53.456234 50.513988
-55.487122 -53.321121 50.787403
-54.397766 -51.196686 50.335823
-39.208351 -59.143337 47.888084
-39.500465 -56.650337 48.200253
-43.439484 -50.500336 48.312183
-41.742165 -51.04142 48.516121
-43.063347 -53.048447 48.043755
-42.792507 -55.604126 47.759884
-44.565041 -55.14407 47.941624
-46.166008 -57.284374 48.125912
-46.387642 -54.721722 48.328209
-50.542046 -51.547779 49.466236
-50.095333 -53.98843 49.454338
-51.9384 -53.68882 50.0373
-53.238083 -55.718372 50.504944
-52.610275 -60.311886 50.012794
-52.40139 -62.668964 49.607189
-53.8377 -61.904087 49.989906
-51.139252 -49.142212 49.334572
-53.173782 -49.001858 49.710339
-51.897301 -46.782536 49.049465
-45.250057 -50.039593 48.346825
-46.702171 -52.177238 48.488369
-47.151749 -49.660423 48.572056
-49.122669 -49.361816 48.926273
-45.827072 -62.450043 47.795418
-45.630295 -65.052063 47.770889
-47.452118 -64.549377 48.174759
-48.986404 -66.523438 48.494766
-50.372894 -68.302521 48.591393
-52.191055 -65.055923 49.163265
-55.759266 -57.211555 50.967381
-56.995094 -57.162827 50.83112
-56.374363 -55.323521 50.967262
-57.149986 -53.312218 50.764809
-40.598591 -61.183086 47.363144
-42.369099 -60.736084 47.317719
-38.775188 -52.346493 49.759602
-40.180538 -51.658863 48.992451
-39.807896 -54.158367 48.581856
-41.095261 -56.104954 47.833786
-42.575554 -58.165096 47.500435
-44.177528 -60.299019 47.522682
-45.993134 -59.860783 47.930035
-47.790192 -59.412556 48.481796
-49.548004 -58.949535 49.112713
-48.237961 -54.335739 48.856903
-49.775547 -56.457035 49.323574
-51.248581 -58.473495 49.752522
-52.871845 -57.996964 50.327393
-54.389008 -57.551704 50.76025
-56.817396 -58.750402 50.589066
-56.3318 -59.346449 50.588734
-56.3318 -59.346449 50.588734
-55.831858 -59.610889 50.554508
-55.872792 -58.80921 50.7668
-38.209038 -56.022631 49.089378
-37.752029 -55.15062 49.810827
-38.942041 -55.725664 48.749398
-38.767461 -56.947304 48.540234
-38.209038 -56.022631 49.089378
-55.037515 -62.139688 49.924413
-55.637932 -61.59637 49.958285
-40.158712 -65.055174 47.401741
-39.439684 -63.972624 47.494889
-41.702991 -67.263611 47.522257
-42.666304 -67.043091 47.542768
-45.534723 -48.783608 48.404922
-44.611683 -49.005047 48.445202
-46.485569 -48.594023 48.517538
-46.200903 -49.850008 48.45944
-45.534723 -48.783608 48.404922
-49.464163 -48.150665 48.85405
-48.446804 -48.273672 48.744171
-48.788297 -47.062521 48.671948
-52.904499 -64.618835 49.293213
-52.296222 -63.862444 49.385227
-53.009666 -63.425356 49.515175
-46.295765 -67.397294 48.023497
-45.500416 -66.358609 47.828102
-46.425644 -66.090748 47.966284
-57.152593 -51.189324 50.425093
-57.596393 -52.267224 50.559752
-56.706186 -52.234318 50.63015
-54.183228 -48.972992 49.83515
-53.593285 -47.855123 49.495419
-39.023681 -51.111723 50.000382
-38.408127 -51.509764 50.552655
-57.987201 -56.392788 50.479211
-57.58456 -57.280606 50.547382
-57.397735 -56.275009 50.762949
-55.717958 -60.609471 50.315269
-55.258949 -60.072231 50.493336
-55.831858 -59.610889 50.554508
-55.637932 -61.59637 49.958285
-55.717958 -60.609471 50.315269
-43.611203 -66.828151 47.598652
-42.666304 -67.043091 47.542768
-42.813361 -65.725719 47.434011
-50.235821 -45.759025 48.648197
-49.193375 -45.854275 48.619475
-49.193375 -45.854275 48.619475
-48.788297 -47.062521 48.671948
-47.060812 -68.418473 48.213644
-47.956721 -68.090344 48.294775
-38.621404 -58.193804 48.384149
-38.445572 -59.416435 48.215486
-39.354408 -57.896837 48.044168
-38.621404 -58.193804 48.384149
-38.767461 -56.947304 48.540234
-42.590824 -50.770878 48.414152
-41.997866 -49.777775 48.682363
-42.846525 -49.507233 48.580394
-58.471096 -55.494802 50.350051
-58.258007 -54.411118 50.534488
-53.727821 -63.042917 49.706533
-53.009666 -63.425356 49.515175
-53.119545 -62.286525 49.798547
-54.38384 -62.556326 49.792318
-54.491375 -61.487449 50.122001
-55.037515 -62.139688 49.924413
-53.727821 -63.042917 49.706533
-54.38384 -62.556326 49.792318
-40.933373 -66.149155 47.426288
-40.158712 -65.055174 47.401741
-41.093801 -64.846678 47.35358
-40.933373 -66.149155 47.426288
-41.702991 -67.263611 47.522257
-52.955044 -46.745463 49.164982
-53.593285 -47.855123 49.495419
-52.535542 -47.892197 49.379902
-51.281643 -45.680537 48.782016
-50.851478 -46.861025 48.915645
-50.235821 -45.759025 48.648197
-52.355118 -45.631609 48.832414
-51.281643 -45.680537 48.782016
-51.73946 -44.529609 48.564966
-52.955044 -46.745463 49.164982
-52.355118 -45.631609 48.832414
-37.962261 -53.949016 50.058958
-37.752029 -55.15062 49.810827
-43.706396 -49.235418 48.427881
-42.846525 -49.507233 48.580394
-44.34477 -50.269965 48.329504
-43.706396 -49.235418 48.427881
-44.611683 -49.005047 48.445202
-47.461344 -48.422975 48.567063
-46.485569 -48.594023 48.517538
-48.137209 -49.511119 48.749165
-47.461344 -48.422975 48.567063
-48.446804 -48.273672 48.744171
-48.839426 -67.787346 48.461319
-47.956721 -68.090344 48.294775
-48.103699 -66.826436 48.328222
-49.532671 -68.676887 48.509632
-48.839426 -67.787346 48.461319
-49.679649 -67.41298 48.543079
-50.180433 -69.525216 48.498063
-49.532671 -68.676887 48.509632
-52.775106 -65.773029 48.98777
-52.904499 -64.618835 49.293213
-52.05989 -66.25341 48.945358
-52.775106 -65.773029 48.98777
-51.287647 -66.642959 48.784763
-51.418812 -65.445472 49.00267
-52.05989 -66.25341 48.945358
-51.15081 -67.876709 48.659422
-50.509731 -67.068771 48.716734
-51.287647 -66.642959 48.784763
-50.970062 -69.065632 48.459837
-51.15081 -67.876709 48.659422
-50.180433 -69.525216 48.498063
-50.970062 -69.065632 48.459837
-44.564398 -66.587967 47.687605
-44.694277 -65.281421 47.630392
-45.500416 -66.358609 47.828102
-43.611203 -66.828151 47.598652
-44.564398 -66.587967 47.687605
-46.295765 -67.397294 48.023497
-47.060812 -68.418473 48.213644
-57.932811 -53.373631 50.569504
-58.258007 -54.411118 50.534488
-57.475181 -54.349705 50.729793
-57.932811 -53.373631 50.569504
-57.596393 -52.267224 50.559752
-54.79522 -50.070406 50.147892
-53.785774 -50.099272 50.023081
-54.183228 -48.972992 49.83515
-55.72753 -50.050272 50.227726
-55.330076 -51.176552 50.415657
-54.79522 -50.070406 50.147892
-56.709184 -50.065556 50.243629
-55.72753 -50.050272 50.227726
-57.152593 -51.189324 50.425093
-56.709184 -50.065556 50.243629
-39.609453 -62.702396 47.511578
-39.439684 -63.972624 47.494889
-39.054058 -60.397717 47.791103
-38.445572 -59.416435 48.215486
-39.749178 -61.417591 47.528633
-39.054058 -60.397717 47.791103
-39.903471 -60.163212 47.625614
-40.458866 -62.467892 47.346089
-39.609453 -62.702396 47.511578
-39.749178 -61.417591 47.528633
-38.158046 -52.721767 50.289488
-38.408127 -51.509764 50.552655
-38.579403 -53.573742 49.529072
-37.962261 -53.949016 50.058958
-38.158046 -52.721767 50.289488
-41.211314 -50.09721 48.962572
-41.997866 -49.777775 48.682363
-40.4305 -50.405931 49.200737
-41.211314 -50.09721 48.962572
-40.961351 -51.350141 48.754286
-39.726356 -50.767908 49.616806
-40.4305 -50.405931 49.200737
-39.477863 -52.002678 49.376027
-39.023681 -51.111723 50.000382
-39.726356 -50.767908 49.616806
-57.128576 -58.059432 50.604113
-56.817396 -58.750402 50.589066
-56.683914 -57.853798 50.816073
-57.128576 -58.059432 50.604113
-57.58456 -57.280606 50.547382
-57.987201 -56.392788 50.479211
-58.471096 -55.494802 50.350051
3 0 81 82
3 0 83 85
3 85 84 21
3 83 84 85
3 1 25 23
3 2 28 26
3 3 31 29
3 4 86 87
3 4 88 90
3 88 33 89
3 88 89 90
3 5 36 34
3 5 38 36
3 5 40 38
3 3 43 41
3 3 29 43
3 6 47 45
3 92 91 22
3 7 93 94
3 96 95 24
3 8 50 48
3 97 51 98
3 99 53 100
3 101 100 51
3 99 100 101
3 8 102 104
3 102 54 103
3 102 103 104
3 8 48 54
3 10 57 55
3 12 58 27
3 12 59 58
3 105 60 106
3 107 106 46
3 105 106 107
3 11 108 110
3 110 109 56
3 108 109 110
3 13 63 61
3 15 64 30
3 15 111 113
3 113 112 64
3 111 112 113
3 115 114 49
3 16 65 32
3 16 66 65
3 116 67 117
3 17 68 35
3 17 69 68
3 17 70 69
3 18 71 37
3 18 72 71
3 18 73 72
3 19 74 39
3 19 75 74
3 9 76 52
3 20 77 42
3 20 78 77
3 20 79 78
3 13 80 44
3 13 61 80
3 14 118 120
3 120 119 62
3 118 119 120
3 21 22 6
3 121 22 122
3 123 122 21
3 121 122 123
3 125 124 22
3 23 24 7
3 25 24 23
3 25 126 128
3 128 127 24
3 126 127 128
3 130 129 8
3 131 8 132
3 26 27 10
3 28 27 26
3 28 12 27
3 134 133 11
3 29 30 13
3 31 30 29
3 31 15 30
3 135 32 136
3 33 137 139
3 137 32 138
3 137 138 139
3 33 16 32
3 34 140 142
3 140 35 141
3 140 141 142
3 36 35 34
3 36 17 35
3 36 37 17
3 38 37 36
3 38 18 37
3 38 39 18
3 40 39 38
3 40 19 39
3 41 42 9
3 43 42 41
3 43 20 42
3 43 44 20
3 29 44 43
3 29 13 44
3 144 143 14
3 45 46 2
3 47 46 45
3 47 145 147
3 147 146 46
3 145 146 147
3 22 47 6
3 148 47 149
3 150 149 22
3 148 149 150
3 152 151 47
3 24 153 155
3 155 154 7
3 153 154 155
3 157 156 24
3 48 49 3
3 50 49 48
3 50 158 160
3 160 159 49
3 158 159 160
3 161 50 162
3 163 162 8
3 161 162 163
3 164 50 165
3 164 165 166
3 168 167 50
3 169 4 170
3 171 34 172
3 51 173 175
3 173 34 174
3 173 174 175
3 51 5 34
3 51 52 5
3 53 52 51
3 53 9 52
3 176 53 177
3 54 178 180
3 178 53 179
3 178 179 180
3 54 9 53
3 54 41 9
3 48 41 54
3 48 3 41
3 55 56 1
3 57 56 55
3 57 11 56
3 27 57 10
3 58 57 27
3 58 11 57
3 58 181 183
3 183 182 11
3 181 182 183
3 59 184 186
3 186 185 58
3 184 185 186
3 59 187 188
3 46 28 2
3 60 28 46
3 60 12 28
3 189 60 190
3 191 60 192
3 193 12 194
3 195 194 60
3 193 194 195
3 196 59 197
3 198 197 12
3 196 197 198
3 199 59 200
3 202 201 59
3 56 25 1
3 203 25 204
3 205 204 56
3 203 204 205
3 207 206 25
3 209 208 11
3 61 62 0
3 63 62 61
3 63 14 62
3 30 63 13
3 64 63 30
3 64 14 63
3 64 210 212
3 212 211 14
3 210 211 212
3 214 213 64
3 49 31 3
3 215 31 216
3 217 216 49
3 215 216 217
3 218 15 219
3 220 219 31
3 218 219 220
3 221 15 222
3 224 223 15
3 225 7 226
3 32 227 228
3 65 229 231
3 231 230 32
3 229 230 231
3 65 232 234
3 232 7 233
3 232 233 234
3 65 23 7
3 66 23 65
3 66 1 23
3 67 235 236
3 67 237 239
3 237 4 238
3 237 238 239
3 35 240 241
3 68 242 244
3 244 243 35
3 242 243 244
3 68 245 246
3 68 247 249
3 247 67 248
3 247 248 249
3 69 67 68
3 69 4 67
3 69 33 4
3 70 33 69
3 70 16 33
3 37 70 17
3 71 70 37
3 71 16 70
3 71 66 16
3 72 66 71
3 72 1 66
3 72 55 1
3 73 55 72
3 73 10 55
3 39 73 18
3 74 73 39
3 74 10 73
3 74 26 10
3 75 26 74
3 75 2 26
3 52 40 5
3 76 40 52
3 76 19 40
3 42 76 9
3 77 76 42
3 77 19 76
3 77 75 19
3 78 75 77
3 78 2 75
3 78 45 2
3 79 45 78
3 79 6 45
3 44 79 20
3 80 79 44
3 80 6 79
3 80 21 6
3 61 21 80
3 61 0 21
3 62 250 252
3 252 251 0
3 250 251 252
3 254 253 62
3 256 255 14
