ply
format ascii 1.0
element vertex 144
property float x
property float y
property float z
element face 132
property list uchar int vertex_index
end_header
-24.534115 48.004314 44.954773
-33.646557 42.445 47.799778
-29.061016 44.949375 46.373817
-32.439713 47.787487 43.128723
-27.790401 50.532063 41.825935
-30.516312 39.011921 51.037827
-25.991259 41.688114 49.360577
-21.684612 45.413319 48.316948
-23.230927 38.5662 52.623245
-26.765606 46.361721 45.610672
-28.392807 47.789616 44.090096
-26.114897 49.298977 43.399956
-25.546442 52.136005 41.207672
-23.922943 51.05077 42.826218
-22.396402 49.935131 44.479736
-29.002588 37.124165 52.500683
-28.245138 40.255928 50.172966
-26.768944 38.472775 51.643921
-24.57513 40.072742 50.926842
-25.34374 36.758926 53.168625
-35.257385 43.860229 45.956062
-31.374733 43.678513 47.140656
-33.028664 45.168789 45.465004
-30.716278 46.445164 44.811722
-30.105677 49.11208 42.495102
-29.546146 51.684811 40.169704
-32.063313 40.812542 49.485558
-29.779018 42.019867 48.693089
-27.485455 43.34074 47.866856
-25.232464 44.873943 47.126823
-23.05616 46.690868 46.568878
-23.795561 43.391975 48.716702
-22.452724 41.983284 50.447624
-20.976265 48.822857 46.244591
-28.258631 36.184723 53.214699
-29.356032 35.539829 53.643383
-27.14181 36.859028 52.786318
-27.885766 37.79847 52.072302
-28.258631 36.184723 53.214699
-26.429208 36.002104 53.54867
-26.056342 37.615851 52.406273
-27.14181 36.859028 52.786318
-34.451971 43.152614 46.87792
-35.529857 42.503021 47.104602
-34.724443 41.795406 48.02646
-27.522183 51.85389 40.689243
-28.400056 52.430264 39.861128
-28.668273 51.108437 40.99782
-25.301875 53.500576 40.103554
-24.477599 53.062786 40.95631
-31.634362 38.430965 51.430071
-30.874382 37.473112 52.201218
-31.289813 39.912232 50.261692
-32.407862 39.331276 50.653937
-31.634362 38.430965 51.430071
-22.213568 39.631027 52.491709
-21.824466 41.339569 51.403898
-22.841825 40.274742 51.535434
-33.581314 47.124855 43.383846
-33.87579 45.815506 44.551986
-32.734189 46.478138 44.296864
-23.66585 52.520168 41.765583
-24.477599 53.062786 40.95631
-24.734693 51.593387 42.016945
-22.881332 52.070026 42.622633
-23.66585 52.520168 41.765583
-22.118062 51.512207 43.449392
-22.881332 52.070026 42.622633
-23.159672 50.49295 43.652977
-21.380266 51.053158 44.346237
-22.118062 51.512207 43.449392
-30.11752 36.529234 52.932646
-29.356032 35.539829 53.643383
-29.75945 38.068043 51.769255
-30.874382 37.473112 52.201218
-30.11752 36.529234 52.932646
-36.286487 43.144968 46.084606
-35.529857 42.503021 47.104602
-36.063423 44.453626 44.955032
-37.092526 43.738366 45.083576
-36.286487 43.144968 46.084606
-33.32188 48.378113 42.214689
-32.162329 49.050202 41.954033
-20.675673 46.582771 48.249168
-21.050721 44.816201 49.28367
-30.995311 49.712498 41.637223
-32.162329 49.050202 41.954033
-31.272695 48.449783 42.811913
-30.715545 50.998863 40.474524
-30.995311 49.712498 41.637223
-29.825912 50.398446 41.332403
-30.451412 52.224282 39.282965
-30.715545 50.998863 40.474524
-29.28654 52.931256 38.990381
-30.191806 53.470726 38.103642
-30.451412 52.224282 39.282965
-29.28654 52.931256 38.990381
-28.400056 52.430264 39.861128
-26.400203 52.655861 40.380111
-27.522183 51.85389 40.689243
-26.668422 51.334034 41.516804
-26.400203 52.655861 40.380111
-25.301875 53.500576 40.103554
-33.961294 41.027253 48.961994
-34.724443 41.795406 48.02646
-33.169672 40.211023 49.804884
-33.514221 38.729757 50.973263
-32.407862 39.331276 50.653937
-32.854935 41.628771 48.642668
-33.961294 41.027253 48.961994
-33.169672 40.211023 49.804884
-21.434777 43.101183 50.349008
-21.050721 44.816201 49.28367
-22.068668 43.698301 49.382286
-21.434777 43.101183 50.349008
-21.824466 41.339569 51.403898
-25.694859 35.111086 54.272606
-26.429208 36.002104 53.54867
-24.653219 35.970589 53.982579
-25.694859 35.111086 54.272606
-23.596812 36.874226 53.709888
-24.287334 37.662563 52.895935
-24.653219 35.970589 53.982579
-22.590017 37.887941 53.55249
-23.596812 36.874226 53.709888
-22.213568 39.631027 52.491709
-22.590017 37.887941 53.55249
-34.99015 45.161226 44.797516
-34.143024 44.514509 45.710533
-33.87579 45.815506 44.551986
-36.063423 44.453626 44.955032
-34.99015 45.161226 44.797516
-33.581314 47.124855 43.383846
-33.32188 48.378113 42.214689
-20.670198 50.497021 45.228665
-21.380266 51.053158 44.346237
-21.686333 49.378994 45.362164
-20.321499 48.28754 47.21299
-21.330438 47.118088 47.280769
-20.675673 46.582771 48.249168
-19.984659 50.039497 46.197655
-20.321499 48.28754 47.21299
-20.670198 50.497021 45.228665
-19.984659 50.039497 46.197655
3 0 11 9
3 0 13 11
3 0 14 13
3 34 15 35
3 36 17 37
3 38 37 15
3 36 37 38
3 39 19 40
3 41 40 17
3 39 40 41
3 1 42 44
3 42 20 43
3 42 43 44
3 2 23 21
3 4 24 10
3 4 25 24
3 4 45 47
3 47 46 25
3 45 46 47
3 49 48 12
3 5 50 51
3 5 52 54
3 52 26 53
3 52 53 54
3 5 27 26
3 6 28 16
3 6 29 28
3 6 31 29
3 8 32 18
3 8 55 57
3 57 56 32
3 55 56 57
3 3 58 60
3 60 59 22
3 58 59 60
3 7 33 30
3 9 10 2
3 11 10 9
3 11 4 10
3 11 12 4
3 13 12 11
3 13 61 63
3 63 62 12
3 61 62 63
3 13 64 65
3 14 66 68
3 68 67 13
3 66 67 68
3 14 69 70
3 15 71 72
3 15 73 75
3 73 5 74
3 73 74 75
3 15 16 5
3 17 16 15
3 17 6 16
3 17 18 6
3 19 18 17
3 19 8 18
3 20 76 77
3 20 78 80
3 78 79 80
3 82 81 3
3 84 83 7
3 21 22 1
3 23 22 21
3 23 3 22
3 10 23 2
3 24 23 10
3 24 3 23
3 24 85 87
3 87 86 3
3 85 86 87
3 25 88 90
3 90 89 24
3 88 89 90
3 25 91 92
3 25 93 95
3 93 94 95
3 97 96 25
3 12 98 100
3 100 99 4
3 98 99 100
3 102 101 12
3 103 1 104
3 26 105 107
3 105 106 107
3 26 108 110
3 108 1 109
3 108 109 110
3 26 21 1
3 27 21 26
3 27 2 21
3 16 27 5
3 28 27 16
3 28 2 27
3 28 9 2
3 29 9 28
3 29 0 9
3 29 30 0
3 31 30 29
3 31 7 30
3 18 31 6
3 32 31 18
3 32 7 31
3 32 111 113
3 113 112 7
3 111 112 113
3 115 114 32
3 116 19 117
3 118 19 119
3 120 8 121
3 122 121 19
3 120 121 122
3 123 8 124
3 126 125 8
3 22 20 1
3 127 20 128
3 129 128 22
3 127 128 129
3 131 130 20
3 133 132 3
3 30 14 0
3 33 14 30
3 33 134 136
3 136 135 14
3 134 135 136
3 137 33 138
3 139 138 7
3 137 138 139
3 140 33 141
3 143 142 33
