ply
format ascii 1.0
element vertex 451
property float x
property float y
property float z
element face 490
property list uchar int vertex_index
end_header
-50.03611 -18.363789 52.024513
-63.238308 5.367624 27.159096
-63.462109 -10.884666 36.379906
-56.710747 -14.422417 44.189655
-57.6213 -6.125966 38.506592
-63.946579 -2.911917 30.482533
-44.545242 -14.997023 53.931679
-57.31921 -20.931379 51.780083
-62.795837 -18.543581 43.269489
-68.455841 -10.123235 28.280315
-68.118729 -2.290648 22.040606
-42.148163 -16.867058 57.946869
-64.777206 5.884729 22.372076
-54.100731 -19.478422 52.2887
-60.164597 -12.424605 40.310364
-60.297421 -16.14883 44.090767
-63.322918 -14.706044 40.015602
-65.353012 -17.833714 39.101227
-66.050964 -13.885603 35.903809
-68.150314 -13.866045 31.76462
-66.346962 -10.100071 32.357616
-66.459145 -2.31184 26.279926
-66.042793 1.872766 24.193571
-67.27153 1.950277 19.71611
-49.676132 -15.027849 48.371872
-53.277462 -16.486399 48.080593
-53.151428 -12.801967 44.558506
-56.746273 -10.489757 40.775803
-60.299988 -8.442832 36.955986
-63.629345 -6.993871 33.041672
-60.919128 -4.20877 34.55571
-43.894623 -18.85218 56.230953
-46.524136 -17.002491 52.271408
-47.486752 -13.042665 50.003906
-57.179214 -17.844881 48.172802
-60.072609 -19.681036 47.485615
-69.365601 -10.727224 24.316719
-66.467468 -6.313323 29.00639
-68.451828 -6.342663 24.911015
-69.18174 -6.793775 20.96237
-68.569458 -2.541527 18.01358
-64.070374 5.691893 24.77351
-50.586723 -19.744148 54.192154
-52.61792 -20.248001 54.351025
-52.089001 -18.915461 52.175789
-61.846401 -11.574287 38.355164
-61.849869 -13.486458 40.206745
-63.412235 -12.796133 38.20343
-64.74173 -14.200263 37.965828
-64.887032 -12.285248 36.182106
-66.23378 -11.978456 34.142166
-64.976471 -10.387932 34.380486
-65.11821 1.666307 26.447107
-64.735199 3.727045 25.609154
-65.538872 3.928232 23.279558
-50.043404 -13.028059 47.077316
-51.387451 -13.942684 46.457016
-51.77422 -11.877894 45.178123
-55.921349 -7.251048 40.44632
-55.316322 -9.496781 41.392284
-57.090889 -8.348205 39.488483
-58.538277 -9.409753 38.874451
-58.845772 -7.287028 37.568314
-60.562172 -6.352867 35.625816
-59.292664 -5.101027 36.544411
-43.274467 -15.92696 55.935543
-42.819614 -17.955505 56.892002
-43.996021 -17.019695 54.896873
-45.136971 -17.926363 54.250702
-45.320797 -16.089357 52.905743
-46.786858 -15.13026 50.935841
-45.956604 -14.04529 51.952457
-55.952728 -21.549337 53.945827
-54.981567 -15.468048 46.130081
-55.281765 -17.141605 48.159363
-56.92939 -16.192513 46.166565
-61.719421 -17.233715 43.803932
-60.271652 -17.932522 45.885113
-61.44376 -19.080273 45.368401
-68.34584 -11.980862 30.037704
-68.830765 -14.129259 29.719084
-69.001892 -12.243855 28.010431
-69.319496 -12.624096 26.040024
-69.086304 -10.375987 26.267891
-63.781021 -4.980326 31.652861
-65.130486 -6.555433 31.038246
-65.219124 -4.57158 29.617012
-67.418976 -2.244375 24.153076
-67.544434 -4.284999 25.472662
-68.334503 -4.355374 23.400616
-68.996628 -6.540443 22.899338
-68.811356 -4.512878 21.370331
-68.934494 -4.706059 19.424326
-68.513992 -2.406359 19.97921
-66.58078 4.014481 18.674128
-67.503685 1.895124 17.569689
-65.32724 5.965994 19.983051
-54.457146 -20.827845 54.314552
-55.890137 -20.128994 52.197502
-58.445076 -13.39107 42.25246
-58.585621 -15.23555 44.181099
-60.232521 -14.316195 42.196945
-61.831886 -15.370681 42.055397
-63.135628 -16.621872 41.728821
-64.108818 -18.114948 41.182709
-64.495895 -16.143848 39.653774
-65.766663 -15.837138 37.57444
-66.904854 -15.72323 35.491051
-67.858871 -15.803915 33.411087
-67.204781 -13.776244 33.832993
-67.404556 -11.881639 32.089371
-67.524582 -10.018782 30.318832
-64.061417 -0.802538 29.508694
-65.286552 -2.52722 28.394936
-65.277191 -0.435852 27.354073
-66.330109 -0.225706 25.17421
-67.177361 -0.149385 22.987417
-67.775284 -0.172426 20.823038
-66.773529 1.956259 21.938896
-66.165222 4.013859 20.955311
-49.693615 -16.804897 50.045074
-51.620693 -17.452679 50.045433
-51.352032 -15.803491 48.101662
-53.076645 -14.740159 46.177109
-54.842056 -13.633626 44.26619
-53.538513 -10.688178 43.28624
-54.944389 -11.636566 42.667717
-56.626312 -12.520506 42.361237
-58.409401 -11.448342 40.453697
-60.170521 -10.467669 38.534992
-61.885303 -9.624884 36.597191
-63.52383 -8.956789 34.633987
-62.007019 -7.628088 35.013512
-62.216904 -5.577016 33.65543
-62.479496 -3.473929 32.536179
-48.548042 -19.23831 54.011566
-46.683041 -18.653299 53.98378
-48.128975 -17.747215 52.00795
-48.045296 -16.045015 50.309551
-48.37109 -14.114219 48.993851
-49.105103 -11.972094 48.081993
-53.661339 -18.052372 50.162739
-55.627098 -18.679749 50.226959
-57.345016 -19.410131 50.08242
-58.740986 -16.989473 46.128162
-58.809326 -18.670841 47.977352
-58.694962 -20.30662 49.623756
-69.253479 -11.121075 22.469164
-65.049561 -8.486805 32.642166
-66.419212 -8.22254 30.623608
-67.583633 -8.15454 28.587481
-66.489326 -4.346123 27.552578
-67.59182 -6.252501 26.957075
-68.48996 -8.256469 26.55212
-69.085358 -8.487204 24.545952
-69.32222 -8.79514 22.606802
-69.164436 -9.124437 20.779158
-68.084557 -0.251707 18.721012
-68.076172 -0.339624 16.729141
-62.792094 6.290306 26.748474
-63.208126 6.45244 25.555681
-63.654341 5.529758 25.966303
-63.986753 4.547334 26.384125
-64.26249 3.55751 26.764347
-63.514044 4.377799 27.539318
-51.277476 -11.355805 45.677263
-50.908812 -12.452977 46.127719
-50.412068 -11.930888 46.62686
-57.16815 -21.694247 52.47751
-56.484909 -22.003226 53.560383
-56.635969 -21.240358 52.862955
-57.820818 -21.430324 51.383341
-57.16815 -21.694247 52.47751
-62.528723 -19.504872 43.928217
-61.852684 -19.773218 44.977673
-62.119799 -18.811927 44.318945
-63.173023 -19.323439 42.890459
-62.528723 -19.504872 43.928217
-66.669872 3.98954 17.580821
-66.136391 4.987318 18.162184
-64.262787 6.794028 21.898105
-64.537803 6.834661 20.703592
-65.052223 5.925362 21.177563
-64.658264 0.438974 28.016151
-64.669304 -0.619195 28.431383
-64.050377 0.255632 29.093461
-53.872244 -9.563016 42.826868
-53.013042 -10.166675 43.780643
-47.860933 -19.674494 55.00219
-48.860466 -19.904214 55.105312
-41.961654 -17.896344 58.406056
-41.646962 -17.354195 58.943382
-43.340454 -19.33274 57.209004
-42.802949 -18.884403 57.539528
-43.357118 -18.403842 56.561477
-44.040573 -19.676551 57.068115
-43.340454 -19.33274 57.209004
-44.632471 -19.205507 56.094167
-44.040573 -19.676551 57.068115
-59.853933 -20.546205 48.153698
-59.16511 -20.858996 49.222769
-59.383786 -19.993828 48.554686
-65.071785 -18.848474 39.776797
-64.449688 -18.989091 40.817538
-64.730915 -17.974331 40.141968
-68.360786 -14.963447 31.557895
-68.215065 -15.932382 32.381129
-68.004593 -14.83498 32.587854
-68.90694 -15.293847 29.528424
-69.010411 -14.32671 28.722592
-69.309906 -11.897165 24.241599
-69.286854 -12.845601 25.103251
-69.342548 -11.67566 25.178371
-69.30954 -10.924149 23.392941
-69.253845 -12.094091 23.317822
-69.309906 -11.897165 24.241599
-69.078659 -6.920886 20.054237
-69.070007 -8.086217 19.962632
-69.173088 -7.959106 20.870764
-68.623573 -3.711848 17.81152
-68.806092 -4.794114 18.516893
-68.751976 -3.623793 18.718953
-68.417244 -2.593548 17.102525
-68.623573 -3.711848 17.81152
-67.762032 0.747394 16.141194
-67.789929 0.77775 17.149415
-67.475788 1.864768 16.561468
-67.906307 -0.363606 15.813429
-67.762032 0.747394 16.141194
-63.585108 6.606514 24.330401
-63.938524 6.702932 23.129683
-64.42379 5.788311 23.572793
-63.585108 6.606514 24.330401
-63.208126 6.45244 25.555681
-51.602322 -19.996074 54.27159
-51.90678 -20.631917 55.376207
-50.891182 -20.37999 55.296772
-64.453995 2.52714 27.183324
-64.578774 1.490054 27.562667
-64.926704 2.696676 26.02813
-64.453995 2.52714 27.183324
-64.26249 3.55751 26.764347
-55.618836 -8.373914 40.919302
-54.761149 -8.967317 41.87989
-55.063662 -7.844451 41.406908
-55.837511 -22.27631 54.658828
-55.278103 -21.862397 55.026207
-55.837511 -22.27631 54.658828
-56.484909 -22.003226 53.560383
-61.19748 -19.997384 46.028412
-60.511904 -20.297765 47.087019
-60.758184 -19.380654 46.427008
-61.19748 -19.997384 46.028412
-61.852684 -19.773218 44.977673
-65.648949 -18.804402 38.750943
-65.920616 -17.780164 38.061135
-69.095974 -13.384008 27.868265
-69.010411 -14.32671 28.722592
-68.916328 -13.186557 28.864757
-69.160694 -12.433975 27.025227
-69.254776 -13.574129 26.883062
-69.095974 -13.384008 27.868265
-67.131325 2.929861 17.028601
-67.042233 2.954802 18.121908
-66.669872 3.98954 17.580821
-67.475788 1.864768 16.561468
-67.131325 2.929861 17.028601
-55.487114 -6.67758 41.101067
-55.063662 -7.844451 41.406908
-56.290581 -6.098914 40.116032
-55.487114 -6.67758 41.101067
-57.140557 -5.536373 39.146168
-56.771324 -6.688507 39.476456
-56.290581 -6.098914 40.116032
-57.931518 -4.994037 38.148264
-57.140557 -5.536373 39.146168
-41.980289 -16.241388 58.639313
-41.646962 -17.354195 58.943382
-42.530236 -15.768951 57.627994
-41.980289 -16.241388 58.639313
-43.093388 -15.298902 56.622332
-42.711315 -16.397009 56.941206
-42.530236 -15.768951 57.627994
-43.710577 -14.834475 55.617064
-43.093388 -15.298902 56.622332
-44.345965 -14.369507 54.615132
-43.909855 -15.461991 54.933611
-43.710577 -14.834475 55.617064
-45.029598 -13.898606 53.624085
-44.345965 -14.369507 54.615132
-64.794975 6.870241 19.481849
-65.509621 5.963075 18.816645
-64.794975 6.870241 19.481849
-64.537803 6.834661 20.703592
-64.262787 6.794028 21.898105
-63.938524 6.702932 23.129683
-52.838583 -20.888141 55.385683
-51.90678 -20.631917 55.376207
-53.758196 -21.178064 55.367446
-52.838583 -20.888141 55.385683
-53.537533 -20.537923 54.332788
-54.530311 -21.501651 55.210569
-53.758196 -21.178064 55.367446
-55.204937 -21.188591 54.13019
-55.278103 -21.862397 55.026207
-54.530311 -21.501651 55.210569
-66.127442 -16.781876 37.297741
-65.920616 -17.780164 38.061135
-65.559838 -16.835426 38.337834
-66.696537 -16.724922 36.256046
-66.127442 -16.781876 37.297741
-66.335758 -15.780184 36.532746
-67.184616 -16.7629 35.21776
-66.696537 -16.724922 36.256046
-67.381862 -15.763572 34.451069
-67.661624 -16.803242 34.177778
-67.184616 -16.7629 35.21776
-65.1977 0.615228 26.90059
-64.658264 0.438974 28.016151
-64.578774 1.490054 27.562667
-65.509621 5.963075 18.816645
-66.136391 4.987318 18.162184
-65.95401 4.990238 19.328589
-62.376789 6.068853 27.958776
-62.775158 5.134578 28.336296
-52.130896 -10.761533 44.726585
-51.277476 -11.355805 45.677263
-52.656367 -11.283036 44.232181
-52.130896 -10.761533 44.726585
-53.013042 -10.166675 43.780643
-54.427418 -10.092479 42.339262
-53.872244 -9.563016 42.826868
-54.761149 -8.967317 41.87989
-58.767201 -4.481568 37.167173
-58.456982 -5.613497 37.525501
-57.931518 -4.994037 38.148264
-59.54094 -3.991446 36.155777
-58.767201 -4.481568 37.167173
-60.354171 -3.545318 35.161426
-60.105896 -4.654898 35.550061
-59.54094 -3.991446 36.155777
-61.103916 -3.120821 34.135254
-60.354171 -3.545318 35.161426
-61.8841 -2.7534 33.125489
-61.699312 -3.84135 33.545944
-61.103916 -3.120821 34.135254
-62.600359 -2.404775 32.082814
-61.8841 -2.7534 33.125489
-63.3339 -2.123769 31.055991
-63.213037 -3.192923 31.509356
-62.600359 -2.404775 32.082814
-63.39132 -1.069079 30.569072
-64.003998 -1.857228 29.995613
-63.3339 -2.123769 31.055991
-63.451891 0.000996 30.192383
-63.39132 -1.069079 30.569072
-64.050377 0.255632 29.093461
-63.451891 0.000996 30.192383
-62.775158 5.134578 28.336296
-63.514044 4.377799 27.539318
-49.879807 -20.157133 55.195606
-50.891182 -20.37999 55.296772
-49.567383 -19.491229 54.10186
-49.879807 -20.157133 55.195606
-48.860466 -19.904214 55.105312
-42.29738 -18.440567 57.878622
-41.961654 -17.896344 58.406056
-42.483888 -17.411282 57.419435
-42.29738 -18.440567 57.878622
-42.802949 -18.884403 57.539528
-45.253645 -18.742598 55.104042
-44.632471 -19.205507 56.094167
-44.515797 -18.389271 55.240827
-46.02668 -19.106067 54.970581
-45.253645 -18.742598 55.104042
-45.910006 -18.289831 54.117241
-46.928432 -19.381988 54.988297
-46.02668 -19.106067 54.970581
-47.615542 -18.945805 53.997673
-47.860933 -19.674494 55.00219
-46.928432 -19.381988 54.988297
-49.942917 -11.402905 47.129198
-50.412068 -11.930888 46.62686
-49.574253 -12.500077 47.579655
-45.735279 -13.422739 52.634473
-45.250923 -14.521157 52.942068
-45.029598 -13.898606 53.624085
-46.474954 -12.931005 51.659933
-45.735279 -13.422739 52.634473
-47.240029 -12.429692 50.685658
-46.721678 -13.543978 50.978182
-46.474954 -12.931005 51.659933
-48.020239 -11.907357 49.724457
-47.240029 -12.429692 50.685658
-48.829414 -11.372072 48.7635
-48.295928 -12.507379 49.042949
-48.020239 -11.907357 49.724457
-49.634068 -10.816717 47.809007
-48.829414 -11.372072 48.7635
-49.942917 -11.402905 47.129198
-49.634068 -10.816717 47.809007
-62.792094 6.290306 26.748474
-62.376789 6.068853 27.958776
-58.508694 -21.117944 50.305177
-57.820818 -21.430324 51.383341
-58.007086 -20.619 50.70192
-58.508694 -21.117944 50.305177
-59.16511 -20.858996 49.222769
-59.853933 -20.546205 48.153698
-60.511904 -20.297765 47.087019
-63.829514 -19.109123 41.847069
-63.173023 -19.323439 42.890459
-63.452327 -18.329265 42.226099
-63.829514 -19.109123 41.847069
-64.449688 -18.989091 40.817538
-65.071785 -18.848474 39.776797
-65.648949 -18.804402 38.750943
-68.041325 -16.927393 33.147028
-67.661624 -16.803242 34.177778
-68.041325 -16.927393 33.147028
-68.215065 -15.932382 32.381129
-68.701012 -15.095054 30.535127
-68.360786 -14.963447 31.557895
-68.490539 -13.997652 30.741852
-68.701012 -15.095054 30.535127
-68.90694 -15.293847 29.528424
-69.249275 -13.811649 25.93166
-69.254776 -13.574129 26.883062
-69.249275 -13.811649 25.93166
-69.286854 -12.845601 25.103251
-69.015129 -12.31958 22.451484
-69.253845 -12.094091 23.317822
-68.989895 -11.312064 21.619968
-69.015129 -12.31958 22.451484
-68.945373 -10.313745 20.774964
-68.989895 -11.312064 21.619968
-69.208957 -10.122756 21.624161
-68.879131 -9.273291 19.944273
-68.945373 -10.313745 20.774964
-68.879131 -9.273291 19.944273
-69.070007 -8.086217 19.962632
-68.955036 -5.877028 19.285215
-69.078659 -6.920886 20.054237
-69.058117 -5.749917 20.193348
-68.955036 -5.877028 19.285215
-68.806092 -4.794114 18.516893
-68.170601 -1.492597 16.460306
-68.417244 -2.593548 17.102525
-68.322815 -1.440576 17.371361
-68.170601 -1.492597 16.460306
-67.906307 -0.363606 15.813429
3 1 159 161
3 161 160 41
3 159 160 161
3 0 44 42
3 2 47 45
3 2 49 47
3 2 51 49
3 1 162 164
3 162 53 163
3 162 163 164
3 1 41 53
3 165 57 166
3 167 166 55
3 165 166 167
3 4 60 58
3 4 62 60
3 4 64 62
3 6 67 65
3 6 69 67
3 6 71 69
3 7 168 170
3 170 169 72
3 168 169 170
3 7 171 172
3 3 75 73
3 8 78 76
3 8 173 175
3 175 174 78
3 173 174 175
3 8 176 177
3 9 81 79
3 9 83 81
3 5 86 84
3 10 89 87
3 10 91 89
3 10 93 91
3 179 178 94
3 12 180 182
3 182 181 96
3 180 181 182
3 13 97 43
3 13 98 97
3 14 101 99
3 16 102 46
3 16 103 102
3 16 105 103
3 18 106 48
3 18 107 106
3 18 109 107
3 20 110 50
3 20 111 110
3 183 114 184
3 185 184 112
3 183 184 185
3 22 115 52
3 22 116 115
3 22 118 116
3 12 119 54
3 12 96 119
3 24 122 120
3 26 123 56
3 26 124 123
3 186 125 187
3 27 126 59
3 27 127 126
3 27 128 127
3 28 129 61
3 28 130 129
3 28 132 130
3 30 133 63
3 30 134 133
3 188 135 189
3 11 190 191
3 31 192 194
3 194 193 66
3 192 193 194
3 31 195 196
3 31 197 198
3 32 136 68
3 32 137 136
3 32 138 137
3 33 139 70
3 33 140 139
3 25 141 121
3 34 142 74
3 34 143 142
3 15 144 100
3 35 145 77
3 35 146 145
3 35 199 201
3 201 200 146
3 199 200 201
3 17 202 204
3 204 203 104
3 202 203 204
3 19 205 207
3 207 206 108
3 205 206 207
3 209 208 80
3 36 210 212
3 212 211 82
3 210 211 212
3 36 213 215
3 213 147 214
3 213 214 215
3 29 148 131
3 37 149 85
3 37 150 149
3 21 151 113
3 38 152 88
3 38 153 152
3 38 154 153
3 39 155 90
3 39 156 155
3 39 216 218
3 218 217 156
3 216 217 218
3 40 219 221
3 221 220 92
3 219 220 221
3 40 222 223
3 23 157 117
3 224 158 225
3 226 225 95
3 224 225 226
3 228 227 158
3 41 229 231
3 231 230 12
3 229 230 231
3 233 232 41
3 42 234 236
3 234 43 235
3 234 235 236
3 44 43 42
3 44 13 43
3 45 46 14
3 47 46 45
3 47 16 46
3 47 48 16
3 49 48 47
3 49 18 48
3 49 50 18
3 51 50 49
3 51 20 50
3 237 52 238
3 53 239 241
3 239 52 240
3 239 240 241
3 53 22 52
3 53 54 22
3 41 54 53
3 41 12 54
3 55 56 24
3 57 56 55
3 57 26 56
3 58 242 244
3 242 59 243
3 242 243 244
3 60 59 58
3 60 27 59
3 60 61 27
3 62 61 60
3 62 28 61
3 62 63 28
3 64 63 62
3 64 30 63
3 65 66 11
3 67 66 65
3 67 31 66
3 67 68 31
3 69 68 67
3 69 32 68
3 69 70 32
3 71 70 69
3 71 33 70
3 72 245 246
3 248 247 72
3 73 74 25
3 75 74 73
3 75 34 74
3 76 77 15
3 78 77 76
3 78 35 77
3 78 249 251
3 251 250 35
3 249 250 251
3 253 252 78
3 255 254 17
3 79 80 19
3 81 80 79
3 81 256 258
3 258 257 80
3 256 257 258
3 81 259 261
3 259 82 260
3 259 260 261
3 83 82 81
3 83 36 82
3 84 85 29
3 86 85 84
3 86 37 85
3 87 88 21
3 89 88 87
3 89 38 88
3 89 90 38
3 91 90 89
3 91 39 90
3 91 92 39
3 93 92 91
3 93 40 92
3 94 95 23
3 262 95 263
3 264 263 94
3 262 263 264
3 266 265 95
3 267 58 268
3 269 58 270
3 271 4 272
3 273 272 58
3 271 272 273
3 275 274 4
3 276 11 277
3 278 11 279
3 280 65 281
3 282 281 11
3 280 281 282
3 283 65 284
3 285 6 286
3 287 286 65
3 285 286 287
3 289 288 6
3 96 290 291
3 293 292 96
3 295 294 12
3 43 296 297
3 97 298 300
3 300 299 43
3 298 299 300
3 97 301 302
3 97 303 305
3 303 72 304
3 303 304 305
3 98 72 97
3 98 7 72
3 99 100 3
3 101 100 99
3 101 15 100
3 46 101 14
3 102 101 46
3 102 15 101
3 102 76 15
3 103 76 102
3 103 8 76
3 103 104 8
3 105 104 103
3 105 17 104
3 48 105 16
3 106 105 48
3 106 17 105
3 106 306 308
3 308 307 17
3 306 307 308
3 107 309 311
3 311 310 106
3 309 310 311
3 107 312 313
3 107 314 316
3 314 108 315
3 314 315 316
3 109 108 107
3 109 19 108
3 50 109 18
3 110 109 50
3 110 19 109
3 110 79 19
3 111 79 110
3 111 9 79
3 112 113 5
3 114 113 112
3 114 21 113
3 52 317 319
3 317 114 318
3 317 318 319
3 115 114 52
3 115 21 114
3 115 87 21
3 116 87 115
3 116 10 87
3 116 117 10
3 118 117 116
3 118 23 117
3 54 118 22
3 119 118 54
3 119 23 118
3 119 94 23
3 96 94 119
3 96 320 322
3 322 321 94
3 320 321 322
3 324 323 1
3 120 121 0
3 122 121 120
3 122 25 121
3 56 122 24
3 123 122 56
3 123 25 122
3 123 73 25
3 124 73 123
3 124 3 73
3 325 57 326
3 125 327 329
3 327 57 328
3 327 328 329
3 125 26 57
3 59 330 332
3 330 125 331
3 330 331 332
3 126 125 59
3 126 26 125
3 126 124 26
3 127 124 126
3 127 3 124
3 127 99 3
3 128 99 127
3 128 14 99
3 61 128 27
3 129 128 61
3 129 14 128
3 129 45 14
3 130 45 129
3 130 2 45
3 130 131 2
3 132 131 130
3 132 29 131
3 63 132 28
3 133 132 63
3 133 29 132
3 133 84 29
3 134 84 133
3 134 5 84
3 333 64 334
3 335 334 4
3 333 334 335
3 336 64 337
3 338 30 339
3 340 339 64
3 338 339 340
3 341 30 342
3 343 134 344
3 345 344 30
3 343 344 345
3 346 134 347
3 348 5 349
3 350 349 134
3 348 349 350
3 351 112 352
3 353 352 5
3 351 352 353
3 354 112 355
3 357 356 112
3 358 1 359
3 360 42 361
3 135 362 364
3 362 42 363
3 362 363 364
3 135 0 42
3 66 365 367
3 367 366 11
3 365 366 367
3 369 368 66
3 68 370 372
3 372 371 31
3 370 371 372
3 136 373 375
3 375 374 68
3 373 374 375
3 136 376 377
3 136 378 380
3 378 135 379
3 378 379 380
3 137 135 136
3 137 0 135
3 137 120 0
3 138 120 137
3 138 24 120
3 70 138 32
3 139 138 70
3 139 24 138
3 139 55 24
3 140 55 139
3 140 381 383
3 383 382 55
3 381 382 383
3 384 71 385
3 386 385 6
3 384 385 386
3 387 71 388
3 389 33 390
3 391 390 71
3 389 390 391
3 392 33 393
3 394 140 395
3 396 395 33
3 394 395 396
3 397 140 398
3 400 399 140
3 402 401 1
3 121 44 0
3 141 44 121
3 141 13 44
3 74 141 25
3 142 141 74
3 142 13 141
3 142 98 13
3 143 98 142
3 143 7 98
3 100 75 3
3 144 75 100
3 144 34 75
3 77 144 15
3 145 144 77
3 145 34 144
3 145 143 34
3 146 143 145
3 146 7 143
3 146 403 405
3 405 404 7
3 403 404 405
3 407 406 146
3 409 408 35
3 104 410 412
3 412 411 8
3 410 411 412
3 414 413 104
3 416 415 17
3 108 417 418
3 420 419 108
3 80 421 423
3 423 422 19
3 421 422 423
3 425 424 80
3 82 426 427
3 429 428 82
3 147 430 431
3 147 432 433
3 131 51 2
3 148 51 131
3 148 20 51
3 85 148 29
3 149 148 85
3 149 20 148
3 149 111 20
3 150 111 149
3 150 9 111
3 113 86 5
3 151 86 113
3 151 37 86
3 88 151 21
3 152 151 88
3 152 37 151
3 152 150 37
3 153 150 152
3 153 9 150
3 153 83 9
3 154 83 153
3 154 36 83
3 90 154 38
3 155 154 90
3 155 36 154
3 155 147 36
3 156 147 155
3 156 434 436
3 436 435 147
3 434 435 436
3 156 437 438
3 440 439 156
3 92 441 443
3 443 442 39
3 441 442 443
3 445 444 92
3 117 93 10
3 157 93 117
3 157 40 93
3 95 157 23
3 158 157 95
3 158 40 157
3 158 446 448
3 448 447 40
3 446 447 448
3 450 449 158
