ply
format ascii 1.0
element vertex 418
property float x
property float y
property float z
element face 463
property list uchar int vertex_index
end_header
-21.638996 -104.221436 24.208786
-8.880409 -106.06105 39.195499
-14.256497 -107.14679 31.642313
-6.270067 -114.203445 27.254539
-14.005286 -115.831711 19.727238
-15.990278 -122.60614 8.701454
-24.108671 -113.045563 15.184969
-30.017879 -102.797394 24.016659
-34.128521 -108.646484 16.748699
-17.722828 -105.799225 27.33717
-13.947025 -111.467178 25.496651
-18.129524 -110.380005 21.71978
-18.897633 -114.736343 16.749163
-22.765997 -108.977631 19.365032
-33.853561 -102.490463 26.544121
-32.149452 -106.588074 20.298494
-36.25523 -104.9263 22.797335
-5.852997 -107.084015 35.701668
-11.285627 -107.406738 35.964355
-7.619226 -110.08815 33.454704
-10.386681 -111.531235 29.772507
-9.712397 -115.789062 23.516399
-9.794542 -119.950836 17.263462
-10.708435 -123.485428 10.962181
-14.709544 -119.756241 14.219709
-20.073219 -118.195206 12.083235
-25.560204 -115.71434 11.184525
-11.539417 -103.423752 41.951065
-14.278686 -103.085556 38.02713
-17.269833 -101.473816 33.626919
-20.574678 -99.498322 29.95853
-24.180958 -98.139542 28.030033
-25.845947 -103.172073 23.049791
-27.563839 -107.747177 18.92532
-29.291946 -111.054276 15.263133
-12.372656 -125.788925 4.532166
-19.630177 -104.982773 25.563988
-17.899279 -108.081558 24.437405
-19.989899 -107.340622 22.839212
-20.405678 -109.676727 20.321377
-22.177822 -106.637161 21.679955
-35.608749 -102.07634 28.071447
-35.074883 -103.942001 24.668268
-36.877052 -103.138229 26.128387
-7.913792 -104.763962 40.199364
-6.628277 -105.104279 38.305603
-7.37159 -106.770615 37.556419
-12.706097 -107.456345 33.877777
-10.859877 -109.449509 32.884544
-12.397369 -109.537292 30.74548
-13.901736 -113.66774 22.566093
-11.848242 -113.827423 24.58017
-11.768862 -115.985382 21.569841
-9.64595 -117.909454 20.390125
-11.876167 -118.084686 18.601965
-12.17543 -120.052277 15.65732
-14.276582 -117.888535 16.956785
-21.484108 -113.93721 15.765991
-19.44348 -116.621262 14.406096
-22.130508 -115.676437 13.615027
-22.820255 -117.046555 11.467495
-24.830465 -114.588974 13.192254
-11.201159 -101.485291 44.826294
-12.575977 -101.540527 43.169197
-12.879963 -103.45546 40.118271
-13.973102 -101.175385 41.22131
-16.861559 -99.490555 36.943687
-18.379108 -98.398666 34.910385
-18.879982 -100.465576 31.62842
-19.962708 -97.320312 33.144241
-30.828121 -100.527359 27.09527
-28.946684 -100.429199 26.063141
-26.996378 -100.442322 25.47765
-27.95899 -102.923569 23.287027
-26.695765 -105.570511 20.899437
-28.931341 -105.207809 21.282932
-33.168495 -107.852005 18.526405
-30.857635 -108.77919 17.629169
-31.769527 -109.921112 15.863333
-30.112507 -112.054901 13.453334
-6.8923 -112.127869 30.409962
-5.750971 -110.772491 31.874098
-13.296169 -123.268295 9.735656
-11.448538 -124.821838 7.763455
-14.093466 -124.374817 6.720985
-15.929918 -106.559402 29.41058
-14.091192 -109.28244 28.52562
-15.928566 -108.76416 26.374954
-15.969252 -111.008026 23.480537
-16.112839 -113.239944 20.726675
-16.392204 -115.390991 18.091629
-18.456909 -112.625931 19.169447
-20.90337 -111.906662 17.980646
-23.4132 -111.146271 17.220407
-31.988752 -102.692947 25.14448
-31.091286 -104.881638 22.111246
-33.144577 -104.494278 23.282438
-34.271709 -105.860275 21.467161
-35.344215 -106.757324 19.657846
-5.368052 -105.092896 36.209633
-4.411572 -107.033417 33.624393
-18.746286 -121.552719 7.8909
-10.006359 -106.947357 37.768902
-8.328367 -108.071259 36.382866
-9.496641 -108.967682 34.801826
-8.89028 -111.012054 31.752338
-8.312862 -113.089874 28.631271
-12.080076 -111.666458 27.640547
-9.976055 -113.650131 26.645615
-7.867241 -115.20047 25.451385
-7.62121 -117.323471 22.225319
-7.606588 -119.414246 18.962738
-7.827702 -121.405975 15.668017
-8.274389 -123.218063 12.340301
-10.153381 -121.836792 14.125523
-12.654169 -121.806335 12.710018
-15.285964 -121.352295 11.477978
-16.811749 -117.378845 15.536228
-17.356071 -119.11705 13.012241
-18.004539 -120.527435 10.474068
-20.768358 -119.390381 9.732809
-23.541862 -117.997025 9.2788
-9.146513 -104.04834 41.899094
-10.25783 -102.950821 43.428673
-10.293362 -104.942245 40.645782
-11.546213 -105.398758 38.992592
-12.899862 -105.428558 37.011848
-14.349496 -105.078125 34.821251
-15.397791 -100.458206 39.098358
-15.739241 -102.389557 35.811897
-15.894108 -104.427612 32.56794
-17.536484 -103.584641 30.41016
-19.279331 -102.673172 28.500217
-21.11903 -101.817566 26.970524
-22.34827 -98.693222 28.732674
-23.040075 -101.123657 25.922813
-26.039547 -97.87793 27.886248
-25.012861 -100.659821 25.419666
-23.723759 -103.602539 23.356108
-24.428219 -106.038818 21.025089
-25.168327 -108.331818 18.897081
-25.94034 -110.37886 16.91802
-29.904264 -107.188843 19.416513
-28.436531 -109.601974 17.068075
-26.7258 -112.086197 15.022023
-27.503016 -113.381439 13.14455
-28.261562 -114.226059 11.235451
-37.367413 -105.445053 20.904303
-6.601221 -108.76741 34.786377
-4.919916 -109.056732 32.952637
-8.934401 -124.768295 8.977233
-9.801403 -125.985031 5.582063
-10.87756 -126.816605 2.171957
-36.433589 -101.720978 28.826088
-35.771471 -101.152244 29.82736
-37.067741 -102.251923 27.854558
-36.242901 -102.607284 27.099917
-36.433589 -101.720978 28.826088
-12.986653 -100.446937 43.76899
-12.26879 -100.614723 44.656482
-13.685215 -100.264366 42.795046
-13.274539 -101.357956 42.195253
-12.986653 -100.446937 43.76899
-18.81572 -96.861167 35.696978
-18.060006 -97.448288 36.603399
-19.60752 -96.32199 34.813906
-19.170908 -97.859489 34.027313
-18.81572 -96.861167 35.696978
-33.378584 -109.621223 15.410926
-32.199087 -110.258537 14.968243
-32.949024 -109.283798 16.306016
-5.616376 -113.50592 28.033853
-5.927492 -112.468132 29.611565
-6.581183 -113.165657 28.832251
-33.236999 -101.551018 27.499851
-34.08672 -101.520065 28.27288
-32.921157 -102.591705 25.844301
-32.304595 -101.652259 26.800031
-33.236999 -101.551018 27.499851
-19.168129 -121.859161 6.573457
-20.136706 -120.86058 7.609485
-25.92874 -116.054847 10.154679
-24.919569 -117.19619 9.201816
-24.551033 -116.855683 10.231663
-9.092232 -103.041336 43.201565
-8.625901 -103.394737 42.316872
-15.835303 -99.054039 39.704271
-15.114224 -99.550217 40.7402
-23.264614 -98.416382 28.381353
-22.838332 -97.199905 29.805704
-23.754676 -96.923066 29.454384
-26.961584 -97.883827 28.086966
-26.432255 -96.58841 29.298957
-29.57966 -113.410836 11.417516
-29.187035 -113.14048 12.344392
-30.505133 -112.325256 12.526457
-28.63747 -114.424942 10.25185
-29.57966 -113.410836 11.417516
-37.881998 -105.492561 19.937212
-38.295065 -104.668022 21.522952
-36.856143 -106.319153 19.363017
-37.881998 -105.492561 19.937212
-4.453272 -110.053169 31.495401
-5.335444 -109.914612 32.413367
-4.868799 -110.911048 30.956132
-4.145935 -109.018608 31.916429
-4.453272 -110.053169 31.495401
-34.964314 -101.313004 29.036542
-35.771471 -101.152244 29.82736
-34.731155 -102.283401 27.307784
-34.08672 -101.520065 28.27288
-34.964314 -101.313004 29.036542
-7.271034 -104.934121 39.252483
-6.86301 -104.102722 39.54837
-7.505768 -103.932564 40.495251
-11.581381 -100.587105 45.485031
-10.861239 -100.537018 46.219557
-11.888568 -101.512909 43.997745
-11.581381 -100.587105 45.485031
-12.26879 -100.614723 44.656482
-17.301232 -97.994233 37.62005
-16.567186 -98.570213 38.626936
-17.620334 -98.944611 35.927036
-17.301232 -97.994233 37.62005
-18.060006 -97.448288 36.603399
-24.62863 -96.740494 29.276995
-23.754676 -96.923066 29.454384
-30.252609 -99.312759 28.133299
-31.112842 -99.455315 28.7639
-29.311891 -99.263679 27.617235
-30.252609 -99.312759 28.133299
-29.887403 -100.478279 26.579206
-28.415153 -99.159462 27.175413
-29.311891 -99.263679 27.617235
-27.971531 -100.435761 25.770395
-27.439999 -99.166023 26.882668
-28.415153 -99.159462 27.175413
-31.370577 -111.325432 13.763243
-30.941017 -110.988006 14.658334
-32.199087 -110.258537 14.968243
-30.505133 -112.325256 12.526457
-31.370577 -111.325432 13.763243
-5.356828 -111.790443 30.343633
-6.321635 -111.45018 31.14203
-5.927492 -112.468132 29.611565
-4.868799 -110.911048 30.956132
-5.356828 -111.790443 30.343633
-31.72428 -100.569466 27.775426
-31.112842 -99.455315 28.7639
-31.408437 -101.610153 26.119875
-31.72428 -100.569466 27.775426
-32.304595 -101.652259 26.800031
-6.352717 -104.117913 38.486145
-6.86301 -104.102722 39.54837
-5.722605 -104.112221 37.43816
-6.352717 -104.117913 38.486145
-5.998164 -105.098588 37.257618
-5.238894 -103.977127 36.288877
-5.722605 -104.112221 37.43816
-4.787943 -104.930306 35.065281
-5.238894 -103.977127 36.288877
-4.309703 -105.900566 33.772661
-4.787943 -104.930306 35.065281
-4.889812 -106.063156 34.917013
-3.767416 -106.85006 32.482225
-3.665547 -105.717208 32.630493
-4.309703 -105.900566 33.772661
-5.308759 -114.546227 26.431681
-6.05527 -115.258003 25.627832
-17.783637 -122.51149 6.884541
-16.405633 -123.0382 7.289818
-17.368282 -122.07943 8.296177
-17.783637 -122.51149 6.884541
-19.168129 -121.859161 6.573457
-6.853857 -115.756516 24.726255
-6.05527 -115.258003 25.627832
-7.068654 -114.701957 26.352962
-6.730842 -116.818016 23.113222
-6.853857 -115.756516 24.726255
-7.744225 -116.26197 23.838352
-6.636637 -117.876075 21.445951
-6.730842 -116.818016 23.113222
-6.629327 -118.921463 19.814661
-6.636637 -117.876075 21.445951
-7.613899 -118.368859 20.594029
-6.663476 -119.956475 18.115186
-6.629327 -118.921463 19.814661
-6.774033 -120.952339 16.467825
-6.663476 -119.956475 18.115186
-7.717145 -120.410111 17.315378
-6.934123 -121.927009 14.742555
-6.774033 -120.952339 16.467825
-8.051046 -122.312019 14.004159
-7.157466 -122.833054 13.078697
-6.934123 -121.927009 14.742555
-21.147742 -119.779412 8.530439
-20.136706 -120.86058 7.609485
-19.757322 -120.47155 8.811854
-22.534494 -119.082733 8.303435
-21.147742 -119.779412 8.530439
-22.15511 -118.693703 9.505804
-23.923987 -118.255661 8.154354
-22.534494 -119.082733 8.303435
-23.923987 -118.255661 8.154354
-24.919569 -117.19619 9.201816
-8.00954 -103.752549 41.467007
-7.505768 -103.932564 40.495251
-8.530152 -104.406151 41.049229
-8.00954 -103.752549 41.467007
-8.625901 -103.394737 42.316872
-10.525603 -101.231835 45.472687
-10.861239 -100.537018 46.219557
-10.053939 -101.9646 44.773877
-10.525603 -101.231835 45.472687
-10.729495 -102.218056 44.127483
-9.64789 -102.492577 43.966355
-10.053939 -101.9646 44.773877
-9.702172 -103.499581 42.663883
-9.092232 -103.041336 43.201565
-9.64789 -102.492577 43.966355
-14.401879 -99.908806 41.801676
-13.685215 -100.264366 42.795046
-14.685447 -100.816796 40.159834
-14.401879 -99.908806 41.801676
-15.114224 -99.550217 40.7402
-16.129675 -99.97438 38.021023
-15.835303 -99.054039 39.704271
-16.567186 -98.570213 38.626936
-20.390408 -95.792442 34.071713
-19.60752 -96.32199 34.813906
-20.789254 -96.853851 32.456927
-20.390408 -95.792442 34.071713
-21.095239 -97.942856 30.864072
-20.268693 -98.409317 31.551386
-20.789254 -96.853851 32.456927
-21.982036 -97.540306 30.251143
-22.838332 -97.199905 29.805704
-21.461474 -99.095772 29.345602
-21.095239 -97.942856 30.864072
-21.982036 -97.540306 30.251143
-25.557925 -96.609688 29.205103
-26.432255 -96.58841 29.298957
-25.110253 -98.008736 27.95814
-24.62863 -96.740494 29.276995
-25.557925 -96.609688 29.205103
-26.517962 -99.160126 26.681949
-26.961584 -97.883827 28.086966
-27.439999 -99.166023 26.882668
-27.279419 -115.310707 10.180142
-25.92874 -116.054847 10.154679
-26.910883 -114.9702 11.209988
-27.279419 -115.310707 10.180142
-28.63747 -114.424942 10.25185
-37.713173 -102.58451 26.827015
-37.067741 -102.251923 27.854558
-37.484039 -103.434608 25.142197
-37.713173 -102.58451 26.827015
-37.173128 -104.328644 23.476671
-36.566141 -104.032264 24.462861
-37.484039 -103.434608 25.142197
-37.729219 -104.58802 22.530155
-38.295065 -104.668022 21.522952
-36.811321 -105.185676 21.850819
-37.173128 -104.328644 23.476671
-37.729219 -104.58802 22.530155
-35.844544 -106.975289 18.739788
-36.355814 -106.101189 20.281074
-36.856143 -106.319153 19.363017
-35.236697 -107.919869 17.285214
-34.736368 -107.701904 18.203272
-35.844544 -106.975289 18.739788
-34.576633 -108.81675 15.840686
-35.236697 -107.919869 17.285214
-33.378584 -109.621223 15.410926
-34.576633 -108.81675 15.840686
-3.891763 -108.006951 32.252308
-4.665744 -108.045074 33.288515
-4.145935 -109.018608 31.916429
-3.767416 -106.85006 32.482225
-3.891763 -108.006951 32.252308
-5.616376 -113.50592 28.033853
-5.308759 -114.546227 26.431681
-7.437424 -123.704757 11.331779
-7.157466 -122.833054 13.078697
-7.76743 -124.479873 9.650245
-7.437424 -123.704757 11.331779
-8.604395 -123.993179 10.658767
-8.162066 -125.207313 7.885542
-7.76743 -124.479873 9.650245
-8.595567 -125.815682 6.187957
-8.162066 -125.207313 7.885542
-9.367902 -125.376663 7.279648
-9.102424 -126.364807 4.412892
-8.595567 -125.815682 6.187957
-9.640502 -126.780594 2.707839
-9.102424 -126.364807 4.412892
-10.339482 -126.400818 3.87701
-10.259732 -127.128212 0.937652
-9.022673 -127.092201 1.473534
-9.640502 -126.780594 2.707839
-15.457227 -123.922539 6.299583
-15.041872 -123.490478 7.71122
-16.405633 -123.0382 7.289818
-14.573041 -124.730637 5.196661
-15.457227 -123.922539 6.299583
-13.712636 -125.437691 4.102252
-13.233061 -125.081871 5.626575
-14.573041 -124.730637 5.196661
-12.931957 -126.071198 2.911608
-13.712636 -125.437691 4.102252
-12.18441 -126.585037 1.731503
-11.625108 -126.302765 3.352062
-12.931957 -126.071198 2.911608
-11.524765 -127.025666 0.478181
-12.18441 -126.585037 1.731503
-10.906937 -127.337272 -0.756124
-10.259732 -127.128212 0.937652
-11.524765 -127.025666 0.478181
3 0 38 36
3 0 40 38
3 153 41 154
3 155 43 156
3 157 156 41
3 155 156 157
3 1 46 44
3 2 49 47
3 4 52 50
3 4 54 52
3 4 56 54
3 6 59 57
3 6 61 59
3 158 63 159
3 160 65 161
3 162 161 63
3 160 161 162
3 163 67 164
3 165 69 166
3 167 166 67
3 165 166 167
3 7 71 70
3 7 73 71
3 7 75 73
3 8 78 76
3 8 168 170
3 170 169 78
3 168 169 170
3 3 171 173
3 173 172 80
3 171 172 173
3 5 84 82
3 9 87 85
3 11 88 37
3 11 89 88
3 11 91 89
3 13 92 39
3 13 93 92
3 14 174 175
3 14 176 178
3 176 94 177
3 176 177 178
3 14 96 94
3 16 97 42
3 16 98 97
3 17 99 45
3 17 100 99
3 180 179 101
3 18 104 102
3 20 105 48
3 20 106 105
3 10 107 86
3 21 108 51
3 21 109 108
3 21 110 109
3 22 111 53
3 22 112 111
3 22 114 112
3 24 115 55
3 24 116 115
3 12 117 90
3 25 118 58
3 25 119 118
3 25 120 119
3 26 121 60
3 26 181 183
3 183 182 121
3 181 182 183
3 184 122 185
3 27 123 62
3 27 124 123
3 27 125 124
3 28 126 64
3 28 127 126
3 186 128 187
3 29 129 66
3 29 130 129
3 29 131 130
3 30 132 68
3 30 133 132
3 31 188 190
3 188 134 189
3 188 189 190
3 31 135 134
3 191 136 192
3 32 137 72
3 32 138 137
3 32 139 138
3 33 140 74
3 33 141 140
3 15 142 95
3 34 143 77
3 34 144 143
3 34 145 144
3 193 146 194
3 195 194 79
3 193 194 195
3 197 196 146
3 198 147 199
3 201 200 147
3 19 148 103
3 202 149 203
3 204 203 81
3 202 203 204
3 206 205 149
3 23 150 113
3 35 151 83
3 35 152 151
3 36 37 9
3 38 37 36
3 38 11 37
3 38 39 11
3 40 39 38
3 40 13 39
3 41 207 208
3 41 209 211
3 209 14 210
3 209 210 211
3 41 42 14
3 43 42 41
3 43 16 42
3 44 212 214
3 212 45 213
3 212 213 214
3 46 45 44
3 46 17 45
3 47 48 18
3 49 48 47
3 49 20 48
3 50 51 10
3 52 51 50
3 52 21 51
3 52 53 21
3 54 53 52
3 54 22 53
3 54 55 22
3 56 55 54
3 56 24 55
3 57 58 12
3 59 58 57
3 59 25 58
3 59 60 25
3 61 60 59
3 61 26 60
3 215 62 216
3 63 217 219
3 217 62 218
3 217 218 219
3 63 27 62
3 63 64 27
3 65 64 63
3 65 28 64
3 220 66 221
3 67 222 224
3 222 66 223
3 222 223 224
3 67 29 66
3 67 68 29
3 69 68 67
3 69 30 68
3 225 31 226
3 70 227 228
3 71 229 231
3 231 230 70
3 229 230 231
3 71 232 233
3 71 234 236
3 234 72 235
3 234 235 236
3 73 72 71
3 73 32 72
3 73 74 32
3 75 74 73
3 75 33 74
3 76 77 15
3 78 77 76
3 78 34 77
3 78 79 34
3 237 79 238
3 239 238 78
3 237 238 239
3 241 240 79
3 80 81 19
3 242 81 243
3 244 243 80
3 242 243 244
3 246 245 81
3 82 83 23
3 84 83 82
3 84 35 83
3 85 86 2
3 87 86 85
3 87 10 86
3 37 87 9
3 88 87 37
3 88 10 87
3 88 50 10
3 89 50 88
3 89 4 50
3 89 90 4
3 91 90 89
3 91 12 90
3 39 91 11
3 92 91 39
3 92 12 91
3 92 57 12
3 93 57 92
3 93 6 57
3 247 70 248
3 94 249 251
3 249 70 250
3 249 250 251
3 94 7 70
3 94 95 7
3 96 95 94
3 96 15 95
3 42 96 14
3 97 96 42
3 97 15 96
3 97 76 15
3 98 76 97
3 98 8 76
3 45 252 253
3 99 254 256
3 256 255 45
3 254 255 256
3 99 257 258
3 99 259 260
3 100 261 263
3 263 262 99
3 261 262 263
3 100 264 266
3 264 265 266
3 268 267 3
3 101 269 271
3 271 270 5
3 269 270 271
3 273 272 101
3 102 103 1
3 104 103 102
3 104 19 103
3 48 104 18
3 105 104 48
3 105 19 104
3 105 80 19
3 106 80 105
3 106 3 80
3 86 49 2
3 107 49 86
3 107 20 49
3 51 107 10
3 108 107 51
3 108 20 107
3 108 106 20
3 109 106 108
3 109 3 106
3 109 274 276
3 276 275 3
3 274 275 276
3 110 277 279
3 279 278 109
3 277 278 279
3 110 280 281
3 53 110 21
3 111 110 53
3 111 282 284
3 284 283 110
3 282 283 284
3 111 285 286
3 112 287 289
3 289 288 111
3 287 288 289
3 112 290 291
3 112 292 294
3 292 113 293
3 292 293 294
3 114 113 112
3 114 23 113
3 55 114 22
3 115 114 55
3 115 23 114
3 115 82 23
3 116 82 115
3 116 5 82
3 90 56 4
3 117 56 90
3 117 24 56
3 58 117 12
3 118 117 58
3 118 24 117
3 118 116 24
3 119 116 118
3 119 5 116
3 119 101 5
3 120 101 119
3 120 295 297
3 297 296 101
3 295 296 297
3 60 120 25
3 121 120 60
3 121 298 300
3 300 299 120
3 298 299 300
3 121 301 302
3 304 303 121
3 305 44 306
3 122 307 309
3 307 44 308
3 307 308 309
3 122 1 44
3 62 310 311
3 123 312 314
3 314 313 62
3 312 313 314
3 123 315 316
3 123 317 319
3 317 122 318
3 317 318 319
3 124 122 123
3 124 1 122
3 124 102 1
3 125 102 124
3 125 18 102
3 64 125 27
3 126 125 64
3 126 18 125
3 126 47 18
3 127 47 126
3 127 2 47
3 320 65 321
3 128 322 324
3 322 65 323
3 322 323 324
3 128 28 65
3 66 325 327
3 325 128 326
3 325 326 327
3 129 128 66
3 129 28 128
3 129 127 28
3 130 127 129
3 130 2 127
3 130 85 2
3 131 85 130
3 131 9 85
3 68 131 29
3 132 131 68
3 132 9 131
3 132 36 9
3 133 36 132
3 133 0 36
3 328 69 329
3 330 69 331
3 332 30 333
3 334 333 69
3 332 333 334
3 134 335 336
3 134 337 339
3 337 30 338
3 337 338 339
3 134 133 30
3 135 133 134
3 135 0 133
3 136 340 341
3 136 342 344
3 342 31 343
3 342 343 344
3 72 345 347
3 345 136 346
3 345 346 347
3 137 136 72
3 137 31 136
3 137 135 31
3 138 135 137
3 138 0 135
3 138 40 0
3 139 40 138
3 139 13 40
3 74 139 32
3 140 139 74
3 140 13 139
3 140 93 13
3 141 93 140
3 141 6 93
3 95 75 7
3 142 75 95
3 142 33 75
3 77 142 15
3 143 142 77
3 143 33 142
3 143 141 33
3 144 141 143
3 144 6 141
3 144 61 6
3 145 61 144
3 145 26 61
3 79 145 34
3 146 145 79
3 146 26 145
3 146 348 350
3 350 349 26
3 348 349 350
3 352 351 146
3 353 43 354
3 355 43 356
3 357 16 358
3 359 358 43
3 357 358 359
3 147 360 361
3 147 362 364
3 362 16 363
3 362 363 364
3 147 98 16
3 365 98 366
3 367 366 147
3 365 366 367
3 368 8 369
3 370 369 98
3 368 369 370
3 371 8 372
3 374 373 8
3 103 46 1
3 148 46 103
3 148 17 46
3 81 148 19
3 149 148 81
3 149 17 148
3 149 100 17
3 375 100 376
3 377 376 149
3 375 376 377
3 379 378 100
3 381 380 3
3 113 382 383
3 150 384 386
3 386 385 113
3 384 385 386
3 150 387 388
3 83 150 23
3 151 150 83
3 151 389 391
3 391 390 150
3 389 390 391
3 151 392 393
3 152 394 396
3 396 395 151
3 394 395 396
3 152 397 399
3 397 398 399
3 400 84 401
3 402 401 5
3 400 401 402
3 403 84 404
3 405 35 406
3 407 406 84
3 405 406 407
3 408 35 409
3 410 152 411
3 412 411 35
3 410 411 412
3 413 152 414
3 417 416 152
3 415 416 417
