ply
format ascii 1.0
element vertex 119
property float x
property float y
property float z
element face 105
property list uchar int vertex_index
end_header
62.446362 -33.611233 -40.036118
64.823593 -26.858294 -40.445419
59.808037 -31.161064 -42.473549
67.175034 -28.743587 -36.608345
64.816742 -35.748047 -37.003578
63.98642 -44.625038 -33.868416
61.547638 -42.537163 -36.370773
63.753418 -30.264317 -40.386261
63.559731 -25.853842 -42.267258
62.500114 -29.174833 -41.967957
61.154518 -28.02302 -43.366333
61.177349 -32.419445 -41.354324
67.232239 -33.134247 -35.108727
66.106697 -32.238731 -36.911942
65.968895 -36.681892 -35.372787
62.769501 -43.646603 -35.162109
66.026978 -27.817215 -38.542145
64.947784 -31.285065 -38.683411
63.648621 -34.723534 -38.569984
65.65451 -41.10405 -33.909019
64.481468 -40.208782 -35.40464
63.301773 -39.196915 -36.829826
62.107414 -38.076614 -38.167412
60.306679 -41.314758 -37.484009
60.872536 -36.860672 -39.38739
59.56448 -35.563221 -40.452057
67.165989 -35.331745 -34.403549
67.766266 -33.560778 -34.20131
66.534317 -37.105567 -34.535579
66.600567 -34.908069 -35.240757
67.165989 -35.331745 -34.403549
64.610698 -24.679008 -41.359142
65.254917 -25.155618 -40.35199
63.291932 -23.688136 -43.227104
62.886112 -25.326952 -43.104446
59.74781 -28.992757 -43.496692
60.421051 -27.423735 -43.943084
60.481278 -29.592042 -42.919941
59.063316 -30.50777 -42.912384
59.74781 -28.992757 -43.496692
67.586533 -27.048759 -36.383476
67.711704 -29.20022 -35.642594
67.033715 -26.570217 -37.407146
67.586533 -27.048759 -36.383476
66.601006 -28.280401 -37.575245
66.459687 -26.107031 -38.374046
67.033715 -26.570217 -37.407146
64.589939 -45.042603 -33.178166
63.67466 -46.790287 -33.116799
64.820465 -42.864544 -33.888717
65.423985 -43.282108 -33.198467
64.589939 -45.042603 -33.178166
59.663725 -40.656168 -37.982216
59.278771 -42.875076 -37.030121
59.946653 -38.429125 -38.933907
60.589607 -39.087715 -38.435699
59.663725 -40.656168 -37.982216
59.292625 -37.7804 -39.46624
60.218508 -36.211946 -39.919724
59.946653 -38.429125 -38.933907
62.356304 -26.987448 -42.954796
62.886112 -25.326952 -43.104446
63.029922 -27.514337 -42.117607
61.827316 -28.598926 -42.667145
61.683506 -26.411541 -43.653984
62.356304 -26.987448 -42.954796
67.740307 -31.39555 -34.892785
67.766266 -33.560778 -34.20131
67.203637 -30.938917 -35.858536
67.711704 -29.20022 -35.642594
67.740307 -31.39555 -34.892785
63.042611 -46.329666 -33.709786
63.67466 -46.790287 -33.116799
62.730851 -48.494915 -32.958168
62.434151 -45.840449 -34.356632
63.377961 -44.135821 -34.515263
63.042611 -46.329666 -33.709786
61.798527 -45.302774 -34.903114
62.434151 -45.840449 -34.356632
61.187596 -44.748054 -35.507446
62.158569 -43.091883 -35.766441
61.798527 -45.302774 -34.903114
63.978767 -24.176782 -42.270061
64.610698 -24.679008 -41.359142
64.191662 -26.356068 -41.356338
63.978767 -24.176782 -42.270061
63.291932 -23.688136 -43.227104
60.953903 -25.863943 -44.380748
61.683506 -26.411541 -43.653984
60.953903 -25.863943 -44.380748
60.421051 -27.423735 -43.943084
65.856609 -25.635078 -39.400352
66.459687 -26.107031 -38.374046
65.425286 -27.337755 -39.493782
65.254917 -25.155618 -40.35199
65.856609 -25.635078 -39.400352
66.230072 -41.493683 -33.128147
65.423985 -43.282108 -33.198467
66.377125 -39.316647 -33.803696
66.230072 -41.493683 -33.128147
65.811702 -38.892971 -34.640903
66.534317 -37.105567 -34.535579
66.377125 -39.316647 -33.803696
60.548662 -44.144402 -36.012135
61.187596 -44.748054 -35.507446
59.928183 -43.533199 -36.568753
59.278771 -42.875076 -37.030121
60.927159 -41.925961 -36.927391
60.548662 -44.144402 -36.012135
59.928183 -43.533199 -36.568753
58.614058 -37.081781 -39.893185
59.292625 -37.7804 -39.46624
58.861063 -34.880872 -40.888993
58.614058 -37.081781 -39.893185
58.982841 -32.679794 -41.899738
59.686259 -33.362142 -41.462803
58.861063 -34.880872 -40.888993
59.063316 -30.50777 -42.912384
58.982841 -32.679794 -41.899738
3 0 9 7
3 0 11 9
3 26 12 27
3 28 14 29
3 30 29 12
3 28 29 30
3 1 31 32
3 34 33 8
3 2 35 37
3 37 36 10
3 35 36 37
3 2 38 39
3 3 40 41
3 3 42 43
3 3 44 46
3 44 16 45
3 44 45 46
3 4 17 13
3 4 18 17
3 5 47 48
3 5 49 51
3 49 19 50
3 49 50 51
3 5 20 19
3 6 21 15
3 6 22 21
3 52 23 53
3 54 24 55
3 56 55 23
3 54 55 56
3 57 25 58
3 59 58 24
3 57 58 59
3 7 8 1
3 9 8 7
3 9 60 62
3 62 61 8
3 60 61 62
3 9 63 65
3 63 10 64
3 63 64 65
3 11 10 9
3 11 2 10
3 12 66 67
3 12 68 70
3 68 3 69
3 68 69 70
3 12 13 3
3 14 13 12
3 14 4 13
3 71 5 72
3 71 72 73
3 74 15 75
3 76 75 5
3 74 75 76
3 77 15 78
3 79 6 80
3 81 80 15
3 79 80 81
3 8 82 84
3 84 83 1
3 82 83 84
3 86 85 8
3 10 87 88
3 90 89 10
3 16 91 92
3 16 93 95
3 93 1 94
3 93 94 95
3 13 16 3
3 17 16 13
3 17 1 16
3 17 7 1
3 18 7 17
3 18 0 7
3 19 96 97
3 19 98 99
3 19 100 102
3 100 14 101
3 100 101 102
3 20 14 19
3 20 4 14
3 15 20 5
3 21 20 15
3 21 4 20
3 21 18 4
3 22 18 21
3 22 0 18
3 103 6 104
3 23 105 106
3 23 107 109
3 107 6 108
3 107 108 109
3 23 22 6
3 24 22 23
3 24 0 22
3 24 11 0
3 25 11 24
3 25 2 11
3 110 25 111
3 112 25 113
3 114 2 115
3 116 115 25
3 114 115 116
3 118 117 2
