ply
format ascii 1.0
element vertex 181
property float x
property float y
property float z
element face 167
property list uchar int vertex_index
end_header
-38.808308 -51.995644 -33.808342
-45.519737 -35.388405 -40.111782
-38.319729 -37.201416 -37.301041
-35.33242 -60.499786 -30.279285
-35.541592 -52.555443 -32.039616
-38.653214 -44.428875 -35.555264
-35.39999 -68.411499 -28.653664
-39.132774 -59.580032 -32.019409
-42.934227 -50.916077 -35.078606
-42.367123 -43.577065 -36.940136
-41.616817 -36.332886 -38.695103
-37.357262 -30.888704 -39.111149
-37.044262 -56.253963 -32.103672
-35.405304 -56.521881 -31.148338
-37.040043 -52.366821 -32.9842
-37.082932 -48.500145 -33.867153
-38.723896 -48.196426 -34.68692
-37.263779 -64.001968 -30.378166
-44.457973 -43.094299 -37.550652
-44.03315 -39.450417 -38.483475
-42.035294 -39.918503 -37.822285
-43.509125 -35.844093 -39.39452
-37.086765 -40.995979 -35.655682
-36.910015 -37.472137 -36.584545
-37.934673 -33.886345 -38.199852
-33.659161 -64.68309 -28.360817
-35.698082 -48.63253 -32.948689
-37.121433 -44.692604 -34.754379
-38.540241 -40.742016 -36.422375
-33.556412 -68.727821 -27.584175
-35.335758 -64.467407 -29.443424
-37.120129 -60.136654 -31.231541
-38.941479 -55.795216 -32.917664
-41.026424 -55.204754 -33.576778
-40.798229 -51.490879 -34.50547
-42.656593 -47.253365 -36.030346
-40.600845 -47.762451 -35.405106
-40.412659 -44.040535 -36.279976
-40.191582 -40.366791 -37.140934
-39.881889 -36.803978 -38.002529
-42.844868 -32.344864 -40.305279
-41.061142 -32.897598 -39.574657
-39.426228 -33.433556 -38.876026
-38.780701 -30.352577 -39.758457
-45.824909 -37.200661 -39.62276
-46.559509 -35.19643 -40.475156
-44.776443 -37.419411 -39.297629
-45.081615 -39.231667 -38.808607
-45.824909 -37.200661 -39.62276
-34.579363 -60.560225 -29.737721
-33.742733 -62.651877 -28.778486
-34.49579 -62.591438 -29.320051
-34.798468 -54.558225 -31.058512
-34.730324 -56.541444 -30.612873
-35.473448 -54.538662 -31.593977
-34.92734 -52.543867 -31.51801
-34.798468 -54.558225 -31.058512
-35.619837 -50.593986 -32.494152
-35.005584 -50.582411 -31.972546
-34.92734 -52.543867 -31.51801
-34.447771 -70.575814 -27.766375
-35.445121 -70.367607 -28.287043
-34.478201 -68.56966 -28.118919
-33.525982 -70.733975 -27.231631
-34.447771 -70.575814 -27.766375
-41.980325 -53.060416 -34.327692
-42.119833 -54.880045 -33.827152
-43.073735 -52.735706 -34.578066
-43.32506 -30.384224 -41.178394
-43.800217 -32.088205 -40.69174
-40.691508 -31.302363 -40.020071
-41.530394 -30.969645 -40.401239
-39.87405 -31.570343 -39.670755
-40.243685 -33.165577 -39.225341
-40.691508 -31.302363 -40.020071
-39.551287 -30.029853 -40.111971
-39.103465 -31.893067 -39.317242
-39.87405 -31.570343 -39.670755
-36.671657 -31.047096 -38.83092
-36.950594 -32.538224 -38.330731
-36.986156 -29.607994 -39.552139
-36.671657 -31.047096 -38.83092
-36.42416 -68.128231 -29.103764
-35.445121 -70.367607 -28.287043
-37.356054 -65.923466 -29.966015
-36.331885 -66.206734 -29.515915
-36.42416 -68.128231 -29.103764
-38.315758 -63.67447 -30.74971
-37.356054 -65.923466 -29.966015
-39.250255 -61.463503 -31.570332
-38.198276 -61.791 -31.198788
-38.315758 -63.67447 -30.74971
-44.03545 -50.627985 -35.306497
-43.073735 -52.735706 -34.578066
-45.294027 -41.053608 -38.342196
-45.538607 -42.869958 -37.834311
-44.245562 -41.272358 -38.017063
-45.294027 -41.053608 -38.342196
-45.081615 -39.231667 -38.808607
-36.440498 -41.044441 -35.251135
-36.447187 -42.895588 -34.767935
-36.352123 -39.28252 -35.715566
-36.440498 -41.044441 -35.251135
-36.99839 -39.234058 -36.120114
-36.252161 -37.524665 -36.223806
-36.352123 -39.28252 -35.715566
-36.726971 -35.82994 -37.067428
-36.252161 -37.524665 -36.223806
-37.2393 -34.037045 -37.875082
-36.726971 -35.82994 -37.067428
-37.422344 -35.679241 -37.392198
-37.645967 -32.387524 -38.655501
-36.950594 -32.538224 -38.330731
-37.2393 -34.037045 -37.875082
-46.137754 -33.393479 -40.999567
-46.559509 -35.19643 -40.475156
-45.137652 -33.609975 -40.594991
-46.137754 -33.393479 -40.999567
-32.964168 -64.649388 -27.771036
-32.817214 -66.71614 -27.384056
-32.964168 -64.649388 -27.771036
-33.742733 -62.651877 -28.778486
-34.615804 -58.571272 -30.172247
-34.579363 -60.560225 -29.737721
-35.368862 -58.510834 -30.713811
-34.615804 -58.571272 -30.172247
-34.730324 -56.541444 -30.612873
-35.118243 -48.601454 -32.450897
-35.005584 -50.582411 -31.972546
-35.752846 -46.713864 -33.414439
-35.118243 -48.601454 -32.450897
-36.464522 -44.743901 -34.317284
-35.752846 -46.713864 -33.414439
-36.409757 -46.662567 -33.851534
-37.104099 -42.844291 -35.20503
-36.447187 -42.895588 -34.767935
-36.464522 -44.743901 -34.317284
-32.639567 -70.792347 -26.649772
-33.525982 -70.733975 -27.231631
-32.765839 -68.738506 -26.995735
-32.639567 -70.792347 -26.649772
-33.607787 -66.705455 -27.972496
-32.817214 -66.71614 -27.384056
-32.765839 -68.738506 -26.995735
-40.209023 -59.239889 -32.320048
-39.250255 -61.463503 -31.570332
-41.155848 -57.05225 -33.098732
-42.119833 -54.880045 -33.827152
-40.079599 -57.392393 -32.798094
-40.209023 -59.239889 -32.320048
-41.155848 -57.05225 -33.098732
-43.876144 -48.823448 -35.826029
-44.03545 -50.627985 -35.306497
-44.638018 -44.91256 -37.062052
-45.538607 -42.869958 -37.834311
-43.737327 -46.992092 -36.301899
-44.638018 -44.91256 -37.062052
-43.557283 -45.173832 -36.790499
-42.79541 -49.084721 -35.554476
-43.876144 -48.823448 -35.826029
-43.737327 -46.992092 -36.301899
-44.132345 -33.837819 -40.236361
-44.514431 -35.616249 -39.753151
-45.137652 -33.609975 -40.594991
-43.176997 -34.094479 -39.849899
-44.132345 -33.837819 -40.236361
-43.800217 -32.088205 -40.69174
-42.422257 -30.693278 -40.76655
-43.32506 -30.384224 -41.178394
-41.953005 -32.621231 -39.939968
-42.422257 -30.693278 -40.76655
-41.530394 -30.969645 -40.401239
-39.0737 -28.609598 -40.554189
-39.551287 -30.029853 -40.111971
-38.354599 -29.013929 -40.188291
-39.0737 -28.609598 -40.554189
-37.642879 -29.281993 -39.864638
-38.068981 -30.620641 -39.434803
-38.354599 -29.013929 -40.188291
-36.986156 -29.607994 -39.552139
-37.642879 -29.281993 -39.864638
3 0 14 12
3 0 16 14
3 1 44 45
3 1 46 48
3 46 19 47
3 46 47 48
3 1 21 19
3 2 23 22
3 2 24 23
3 3 49 51
3 51 50 25
3 49 50 51
3 4 52 54
3 54 53 13
3 52 53 54
3 4 55 56
3 4 57 59
3 57 26 58
3 57 58 59
3 5 27 15
3 5 28 27
3 6 60 61
3 6 62 64
3 62 29 63
3 62 63 64
3 6 30 29
3 7 31 17
3 7 32 31
3 8 65 67
3 65 33 66
3 65 66 67
3 8 34 33
3 9 35 18
3 9 36 35
3 9 37 36
3 10 38 20
3 10 39 38
3 68 40 69
3 70 41 71
3 72 42 73
3 74 73 41
3 72 73 74
3 75 43 76
3 77 76 42
3 75 76 77
3 11 78 79
3 11 80 81
3 12 13 3
3 14 13 12
3 14 4 13
3 14 15 4
3 16 15 14
3 16 5 15
3 82 6 83
3 84 17 85
3 86 85 6
3 84 85 86
3 87 17 88
3 89 7 90
3 91 90 17
3 89 90 91
3 92 8 93
3 94 18 95
3 19 96 98
3 96 18 97
3 96 97 98
3 19 9 18
3 19 20 9
3 21 20 19
3 21 10 20
3 22 99 100
3 23 101 103
3 103 102 22
3 101 102 103
3 23 104 105
3 23 106 107
3 24 108 110
3 110 109 23
3 108 109 110
3 24 111 113
3 111 11 112
3 111 112 113
3 114 1 115
3 117 116 1
3 25 118 119
3 121 120 25
3 13 122 124
3 124 123 3
3 122 123 124
3 126 125 13
3 26 127 128
3 26 129 130
3 15 26 4
3 27 26 15
3 27 131 133
3 133 132 26
3 131 132 133
3 27 134 136
3 134 22 135
3 134 135 136
3 28 22 27
3 28 2 22
3 29 137 138
3 29 139 140
3 29 141 143
3 141 25 142
3 141 142 143
3 30 25 29
3 30 3 25
3 17 30 6
3 31 30 17
3 31 3 30
3 31 12 3
3 32 12 31
3 32 0 12
3 144 7 145
3 33 146 147
3 33 148 150
3 148 7 149
3 148 149 150
3 33 32 7
3 34 32 33
3 34 0 32
3 151 8 152
3 18 153 154
3 35 155 157
3 157 156 18
3 155 156 157
3 35 158 160
3 158 8 159
3 158 159 160
3 35 34 8
3 36 34 35
3 36 0 34
3 36 16 0
3 37 16 36
3 37 5 16
3 20 37 9
3 38 37 20
3 38 5 37
3 38 28 5
3 39 28 38
3 39 2 28
3 161 21 162
3 163 162 1
3 161 162 163
3 40 164 166
3 164 21 165
3 164 165 166
3 40 10 21
3 167 40 168
3 41 169 171
3 169 40 170
3 169 170 171
3 41 10 40
3 41 39 10
3 42 39 41
3 42 2 39
3 42 24 2
3 43 24 42
3 43 11 24
3 172 43 173
3 174 43 175
3 176 11 177
3 178 177 43
3 176 177 178
3 180 179 11
