ply
format ascii 1.0
element vertex 228
property float x
property float y
property float z
element face 212
property list uchar int vertex_index
end_header
28.197561 35.128887 -28.282503
25.967995 23.560497 -31.09078
31.101881 34.144939 -25.800409
29.683651 29.174137 -28.311827
32.364414 28.050583 -26.178377
19.18808 29.725487 -31.973055
24.51651 35.665569 -30.217726
23.015848 29.622494 -31.224421
26.579617 29.575916 -30.009108
29.01964 23.844486 -30.493513
34.755039 25.974072 -23.818705
30.723396 40.053993 -26.048525
33.223351 38.611008 -23.119425
34.717876 22.398308 -28.197157
32.267502 33.402584 -24.356188
31.589304 31.102646 -25.836115
32.759056 30.275845 -24.492353
26.444876 35.433441 -29.310087
25.512585 32.595745 -30.096678
27.264812 32.423824 -29.225996
30.701048 26.278469 -28.698309
29.261549 26.540627 -29.447439
30.613131 42.969692 -26.078936
32.255772 42.273235 -24.847216
32.122898 39.389713 -24.676451
33.546555 41.503277 -23.417707
24.461811 26.522747 -31.04624
22.699139 26.424866 -31.35882
35.992023 22.896984 -25.013117
34.729645 24.129402 -25.990412
29.750673 34.710869 -27.114447
28.86034 32.145088 -28.224672
30.297297 31.716484 -27.090193
31.068354 28.720619 -27.289843
32.084194 25.807491 -27.857447
22.456692 35.870789 -31.028357
21.639883 32.817039 -31.492228
23.624554 32.709854 -30.848574
24.848589 29.617176 -30.675016
26.149162 26.61097 -30.623907
28.191528 29.444935 -29.221609
27.748507 26.63501 -30.091066
27.523375 23.746414 -30.840425
33.830807 29.215092 -23.099581
35.861774 24.547276 -22.636404
25.671041 38.472305 -29.355574
27.625319 38.112179 -28.344133
29.025787 40.623501 -27.247923
29.359486 37.674206 -27.208952
30.846704 37.127197 -25.919924
32.084831 36.445034 -24.468039
33.094421 35.60376 -22.870531
34.487511 40.643608 -21.775953
21.114603 29.64399 -31.659082
33.589661 27.139927 -25.009642
33.425209 25.097317 -26.94639
33.017712 31.367607 -23.654809
32.513279 31.839214 -24.42427
32.771935 32.930977 -23.586727
30.586497 25.039926 -29.373995
31.299719 24.92396 -29.105393
33.087317 43.308673 -24.245995
32.303394 43.717565 -24.869446
33.732708 42.923694 -23.53124
32.901163 41.888256 -24.132461
33.087317 43.308673 -24.245995
25.157812 23.450968 -31.168194
24.40472 24.932092 -31.145924
25.214903 25.041622 -31.06851
36.048429 22.158788 -26.229491
36.722578 21.537552 -25.830787
18.234276 29.810696 -32.064191
18.3904 31.454008 -32.206761
19.122549 28.056145 -31.80662
18.234276 29.810696 -32.064191
28.978052 22.480477 -30.979129
28.22992 22.431441 -31.152586
28.271507 23.79545 -30.666969
36.381893 23.704643 -22.060242
35.805191 25.442158 -21.484058
36.529499 22.97567 -23.334122
36.381893 23.704643 -22.060242
26.365385 39.795869 -28.83478
25.275384 40.020071 -29.327647
27.342524 39.615806 -28.329059
26.64818 38.292242 -28.849854
26.365385 39.795869 -28.83478
35.165798 41.594358 -21.112924
34.784087 42.060438 -21.972504
21.792932 26.395789 -31.458811
22.683756 24.782757 -31.331253
34.015239 22.754373 -28.543917
33.368906 24.103878 -27.918533
34.071542 23.747813 -27.571773
19.399361 31.344458 -32.000226
18.3904 31.454008 -32.206761
29.866747 25.171005 -29.74856
29.981299 26.409548 -29.072874
30.586497 25.039926 -29.373995
29.745793 23.822935 -30.271597
29.140594 25.192557 -29.970476
29.866747 25.171005 -29.74856
29.687963 22.579588 -30.918835
29.745793 23.822935 -30.271597
31.482074 44.065794 -25.485306
30.511027 44.453561 -26.020691
31.434452 42.621464 -25.463076
31.482074 44.065794 -25.485306
32.303394 43.717565 -24.869446
23.523384 24.883152 -31.302214
23.580475 26.473807 -31.20253
24.40472 24.932092 -31.145924
22.683756 24.782757 -31.331253
23.523384 24.883152 -31.302214
35.41724 22.774997 -26.718138
35.360834 23.513193 -25.501765
36.048429 22.158788 -26.229491
35.411356 21.90945 -27.821511
34.72376 23.263855 -27.093784
35.41724 22.774997 -26.718138
31.991292 24.688471 -28.684962
31.299719 24.92396 -29.105393
31.392621 26.04298 -28.277878
25.993094 22.009456 -31.274166
26.732533 22.18676 -31.295698
22.048288 34.343914 -31.260292
20.98226 34.455383 -31.62278
21.390664 35.982258 -31.390845
27.510224 22.279719 -31.170521
26.732533 22.18676 -31.295698
26.745685 23.653455 -30.965602
27.510224 22.279719 -31.170521
28.22992 22.431441 -31.152586
28.978052 22.480477 -30.979129
29.687963 22.579588 -30.918835
33.996343 30.254151 -22.16532
33.553587 30.837231 -22.958424
34.327324 28.560188 -22.400059
33.996343 30.254151 -22.16532
34.78944 26.939678 -22.759621
34.292923 27.594582 -23.459143
34.327324 28.560188 -22.400059
35.342807 26.226281 -22.16847
35.805191 25.442158 -21.484058
35.308406 25.260674 -23.227555
34.78944 26.939678 -22.759621
35.342807 26.226281 -22.16847
36.594623 22.150524 -24.522478
35.926899 23.72213 -23.824761
36.529499 22.97567 -23.334122
36.722578 21.537552 -25.830787
36.594623 22.150524 -24.522478
21.885987 37.489645 -31.088116
21.390664 35.982258 -31.390845
23.001274 37.331067 -30.654633
21.885987 37.489645 -31.088116
24.031183 37.228457 -30.249318
23.486601 35.768179 -30.623041
23.001274 37.331067 -30.654633
24.608449 38.631825 -29.818241
25.275384 40.020071 -29.327647
25.093775 37.068937 -29.78665
24.031183 37.228457 -30.249318
24.608449 38.631825 -29.818241
29.631719 43.287529 -26.619486
30.511027 44.453561 -26.020691
28.838047 42.114433 -27.20398
29.631719 43.287529 -26.619486
29.819459 41.796596 -26.663429
28.042758 40.871467 -27.780954
28.838047 42.114433 -27.20398
28.325553 39.36784 -27.796028
27.342524 39.615806 -28.329059
28.042758 40.871467 -27.780954
33.185394 34.031565 -22.843899
32.771935 32.930977 -23.586727
32.680961 34.503172 -23.61336
34.313609 42.490273 -22.79338
33.732708 42.923694 -23.53124
34.017033 41.073442 -22.59683
34.313609 42.490273 -22.79338
34.784087 42.060438 -21.972504
34.800684 40.156149 -20.859287
35.165798 41.594358 -21.112924
34.269483 39.169319 -21.585987
34.800684 40.156149 -20.859287
33.637404 38.153019 -22.257723
33.855431 39.627308 -22.447689
34.269483 39.169319 -21.585987
33.572938 36.649395 -22.133276
33.158886 37.107384 -22.994978
33.637404 38.153019 -22.257723
33.503564 35.09108 -22.018961
33.572938 36.649395 -22.133276
33.185394 34.031565 -22.843899
33.503564 35.09108 -22.018961
20.625262 32.890234 -31.759813
20.98226 34.455383 -31.62278
20.362622 31.303709 -31.84324
20.625262 32.890234 -31.759813
21.377243 31.230514 -31.575655
20.151342 29.684739 -31.816069
19.399361 31.344458 -32.000226
20.362622 31.303709 -31.84324
21.000664 28.00535 -31.608942
21.906871 28.034428 -31.508951
21.792932 26.395789 -31.458811
20.037403 28.046099 -31.765929
20.151342 29.684739 -31.816069
21.000664 28.00535 -31.608942
19.122549 28.056145 -31.80662
20.037403 28.046099 -31.765929
25.157812 23.450968 -31.168194
25.993094 22.009456 -31.274166
33.294932 29.745469 -23.795967
33.017712 31.367607 -23.654809
33.553587 30.837231 -22.958424
32.698398 24.458965 -28.374061
32.754701 25.452404 -27.401919
33.368906 24.103878 -27.918533
31.991292 24.688471 -28.684962
32.698398 24.458965 -28.374061
35.437345 21.263782 -29.053963
35.411356 21.90945 -27.821511
34.69968 21.594864 -29.306324
35.437345 21.263782 -29.053963
34.015239 22.754373 -28.543917
34.69968 21.594864 -29.306324
3 56 16 57
3 58 57 14
3 56 57 58
3 0 19 17
3 60 59 20
3 61 23 62
3 63 25 64
3 65 64 23
3 63 64 65
3 1 66 68
3 68 67 26
3 66 67 68
3 70 69 28
3 2 32 30
3 4 33 15
3 4 34 33
3 5 71 72
3 5 73 74
3 6 37 35
3 8 38 18
3 8 39 38
3 3 40 31
3 9 41 21
3 9 42 41
3 9 75 77
3 77 76 42
3 75 76 77
3 78 44 79
3 81 80 44
3 82 45 83
3 84 46 85
3 86 85 45
3 84 85 86
3 11 47 22
3 11 48 47
3 11 49 48
3 12 50 24
3 12 51 50
3 87 52 88
3 7 53 36
3 90 89 27
3 10 54 43
3 13 55 29
3 13 91 93
3 93 92 55
3 91 92 93
3 14 15 2
3 16 15 14
3 16 4 15
3 94 5 95
3 17 18 6
3 19 18 17
3 19 8 18
3 20 21 3
3 96 21 97
3 98 97 20
3 96 97 98
3 99 9 100
3 101 100 21
3 99 100 101
3 103 102 9
3 104 22 105
3 23 106 108
3 106 22 107
3 106 107 108
3 23 11 22
3 23 24 11
3 25 24 23
3 25 12 24
3 26 27 7
3 109 27 110
3 111 110 26
3 109 110 111
3 113 112 27
3 28 29 10
3 114 29 115
3 116 115 28
3 114 115 116
3 117 13 118
3 119 118 29
3 117 118 119
3 30 31 0
3 32 31 30
3 32 3 31
3 15 32 2
3 33 32 15
3 33 3 32
3 33 20 3
3 34 20 33
3 34 120 122
3 122 121 20
3 120 121 122
3 124 123 1
3 35 125 127
3 125 36 126
3 125 126 127
3 37 36 35
3 37 7 36
3 18 37 6
3 38 37 18
3 38 7 37
3 38 26 7
3 39 26 38
3 39 1 26
3 31 19 0
3 40 19 31
3 40 8 19
3 21 40 3
3 41 40 21
3 41 8 40
3 41 39 8
3 42 39 41
3 42 1 39
3 42 128 130
3 130 129 1
3 128 129 130
3 132 131 42
3 134 133 9
3 135 43 136
3 137 43 138
3 139 10 140
3 141 140 43
3 139 140 141
3 44 142 143
3 44 144 146
3 144 10 145
3 144 145 146
3 44 28 10
3 147 28 148
3 149 148 44
3 147 148 149
3 151 150 28
3 152 35 153
3 154 35 155
3 156 6 157
3 158 157 35
3 156 157 158
3 45 159 160
3 45 161 163
3 161 6 162
3 161 162 163
3 45 17 6
3 46 17 45
3 46 0 17
3 22 164 165
3 47 166 168
3 168 167 22
3 166 167 168
3 47 169 170
3 47 171 173
3 171 46 172
3 171 172 173
3 48 46 47
3 48 0 46
3 48 30 0
3 49 30 48
3 49 2 30
3 24 49 11
3 50 49 24
3 50 2 49
3 50 14 2
3 51 14 50
3 51 174 176
3 176 175 14
3 174 175 176
3 177 25 178
3 52 179 181
3 179 25 180
3 179 180 181
3 52 12 25
3 182 52 183
3 184 52 185
3 186 12 187
3 188 187 52
3 186 187 188
3 189 51 190
3 191 190 12
3 189 190 191
3 192 51 193
3 195 194 51
3 36 196 197
3 53 198 200
3 200 199 36
3 198 199 200
3 53 201 203
3 201 5 202
3 201 202 203
3 27 53 7
3 204 53 205
3 206 205 27
3 204 205 206
3 207 5 208
3 209 208 53
3 207 208 209
3 211 210 5
3 213 212 1
3 43 214 216
3 214 16 215
3 214 215 216
3 54 16 43
3 54 4 16
3 29 54 10
3 55 54 29
3 55 4 54
3 55 34 4
3 217 34 218
3 219 218 55
3 217 218 219
3 221 220 34
3 222 13 223
3 224 13 225
3 227 226 13
