ply
format ascii 1.0
element vertex 154
property float x
property float y
property float z
element face 141
property list uchar int vertex_index
end_header
19.302233 7.603266 70.308922
16.067013 19.669823 71.992294
21.490425 19.652138 64.015129
13.149437 18.766926 76.050735
15.159091 13.141968 75.577225
20.332695 13.62775 66.986198
17.774721 13.645672 71.190445
18.673702 19.818108 67.642906
13.670097 12.582254 77.554756
14.555752 9.796743 77.244164
14.672411 19.334606 74.109657
13.526888 22.17709 74.257065
15.018457 22.628967 72.246696
16.406435 22.8587 70.1036
17.278084 10.508259 72.958694
18.528955 10.612295 70.728043
20.898006 16.642239 65.463287
19.521126 16.719772 67.314713
20.024363 19.744282 65.673103
19.095724 22.85799 65.87812
20.529556 22.752079 64.064568
22.093029 22.658199 62.612
14.229349 15.987453 75.884239
15.657749 16.432846 73.822227
19.801693 10.611893 68.600655
21.165434 10.561068 66.704071
21.762115 13.558022 65.273872
22.416473 16.57095 63.973175
23.108461 19.594158 62.762321
11.908432 21.468868 76.054703
15.974702 10.249981 75.166367
16.510166 13.483963 73.423676
16.972679 16.671535 71.628555
19.024078 13.675346 68.999794
18.235764 16.74894 69.415001
17.378489 19.813347 69.795357
17.743103 22.915058 67.936752
14.199616 8.100016 78.031616
13.770022 9.45813 78.178196
18.915594 9.107781 70.518483
18.277499 9.074844 71.609489
18.664138 7.570329 71.399929
21.623019 9.057182 66.617531
20.899631 9.075946 67.494335
22.556128 13.536467 64.612804
22.216399 12.034872 65.208805
22.883306 15.042931 63.962455
22.089294 15.064486 64.623524
22.556128 13.536467 64.612804
23.258131 16.560434 63.441139
22.883306 15.042931 63.962455
12.528935 20.117897 76.052719
11.69744 19.704527 76.900848
12.317943 18.353556 76.898865
12.871893 23.564558 74.251037
13.666934 23.859223 73.311901
16.354138 8.796154 74.937077
15.665402 8.612487 76.006691
18.586277 24.421608 65.968345
19.29881 24.366917 64.996746
23.458755 21.109468 62.175815
23.997873 19.600979 62.356021
13.327194 10.850886 78.333492
12.84725 12.181121 78.421245
14.112925 11.189498 77.39946
13.327194 10.850886 78.333492
13.770022 9.45813 78.178196
14.412719 24.085161 72.306716
13.666934 23.859223 73.311901
14.272672 22.403028 73.25188
15.153655 24.254224 71.278835
14.412719 24.085161 72.306716
15.847644 24.369091 70.207287
15.153655 24.254224 71.278835
15.712446 22.743834 71.175148
16.550103 24.433615 69.136181
15.847644 24.369091 70.207287
17.652064 9.022825 72.724815
17.005829 8.925293 73.83324
17.90352 10.560277 71.843368
17.652064 9.022825 72.724815
18.277499 9.074844 71.609489
20.015726 24.313961 64.08997
19.29881 24.366917 64.996746
19.81264 22.805034 64.971344
20.777468 24.25011 63.266697
20.015726 24.313961 64.08997
21.559204 24.20317 62.540413
20.777468 24.25011 63.266697
21.311293 22.705139 63.338284
22.388345 24.159959 61.914208
21.559204 24.20317 62.540413
12.901513 17.034752 76.891308
12.317943 18.353556 76.898865
13.161843 13.942416 77.643318
12.84725 12.181121 78.421245
13.441469 15.645015 76.808059
13.161843 13.942416 77.643318
13.949723 14.284854 76.719497
13.689393 17.37719 75.967487
12.901513 17.034752 76.891308
13.441469 15.645015 76.808059
20.21776 9.101358 68.442627
19.551963 9.107579 69.454789
19.96803 7.597045 69.296761
20.483564 10.586481 67.652363
20.21776 9.101358 68.442627
20.899631 9.075946 67.494335
21.918059 10.536396 65.923904
21.623019 9.057182 66.617531
21.463774 12.059545 65.988971
21.918059 10.536396 65.923904
22.216399 12.034872 65.208805
23.604125 18.072038 62.835712
22.762467 18.082554 63.367748
23.258131 16.560434 63.441139
23.997873 19.600979 62.356021
23.604125 18.072038 62.835712
19.063887 6.10923 71.204719
18.664138 7.570329 71.399929
19.732631 6.133005 70.161999
19.063887 6.10923 71.204719
19.96803 7.597045 69.296761
19.732631 6.133005 70.161999
11.042298 20.977001 76.819039
11.69744 19.704527 76.900848
11.214573 22.777123 75.9679
11.042298 20.977001 76.819039
12.062665 23.210447 75.149856
12.71766 21.822979 75.155884
12.871893 23.564558 74.251037
11.214573 22.777123 75.9679
12.062665 23.210447 75.149856
14.955927 8.385868 77.04559
14.199616 8.100016 78.031616
15.265227 10.023362 76.205265
14.955927 8.385868 77.04559
15.665402 8.612487 76.006691
16.626393 10.37912 74.06253
16.354138 8.796154 74.937077
17.005829 8.925293 73.83324
17.218437 24.461794 68.052757
16.550103 24.433615 69.136181
17.074769 22.886879 69.020176
17.909967 24.450142 66.997661
18.419414 22.886524 66.907436
18.586277 24.421608 65.968345
17.218437 24.461794 68.052757
17.909967 24.450142 66.997661
22.95104 22.641489 62.100655
22.600745 21.126179 62.687161
23.458755 21.109468 62.175815
22.388345 24.159959 61.914208
22.95104 22.641489 62.100655
3 37 9 38
3 1 12 10
3 1 13 12
3 0 39 41
3 39 15 40
3 39 40 41
3 2 18 16
3 2 20 18
3 2 21 20
3 4 22 8
3 4 23 22
3 42 25 43
3 44 26 45
3 46 27 47
3 48 47 26
3 46 47 48
3 50 49 27
3 3 51 53
3 51 29 52
3 51 52 53
3 55 54 11
3 56 30 57
3 6 31 14
3 6 32 31
3 5 33 24
3 7 34 17
3 7 35 34
3 7 36 35
3 59 58 19
3 61 60 28
3 62 8 63
3 9 64 66
3 64 8 65
3 64 65 66
3 9 4 8
3 10 11 3
3 12 11 10
3 12 67 69
3 69 68 11
3 67 68 69
3 12 70 71
3 13 72 74
3 74 73 12
3 72 73 74
3 13 75 76
3 77 14 78
3 15 79 81
3 79 14 80
3 79 80 81
3 15 6 14
3 16 17 5
3 18 17 16
3 18 7 17
3 18 19 7
3 20 19 18
3 20 82 84
3 84 83 19
3 82 83 84
3 20 85 86
3 21 87 89
3 89 88 20
3 87 88 89
3 21 90 91
3 92 3 93
3 8 94 95
3 22 96 98
3 98 97 8
3 96 97 98
3 22 99 101
3 99 3 100
3 99 100 101
3 22 10 3
3 23 10 22
3 23 1 10
3 102 24 103
3 104 103 0
3 102 103 104
3 25 105 107
3 105 24 106
3 105 106 107
3 25 5 24
3 108 25 109
3 26 110 112
3 110 25 111
3 110 111 112
3 26 5 25
3 26 16 5
3 27 16 26
3 27 2 16
3 27 28 2
3 113 28 114
3 115 114 27
3 113 114 115
3 117 116 28
3 118 0 119
3 120 0 121
3 123 122 0
3 29 124 125
3 29 126 127
3 11 29 3
3 128 29 129
3 130 129 11
3 128 129 130
3 132 131 29
3 133 9 134
3 30 135 137
3 135 9 136
3 135 136 137
3 30 4 9
3 14 138 140
3 138 30 139
3 138 139 140
3 31 30 14
3 31 4 30
3 31 23 4
3 32 23 31
3 32 1 23
3 24 15 0
3 33 15 24
3 33 6 15
3 17 33 5
3 34 33 17
3 34 6 33
3 34 32 6
3 35 32 34
3 35 1 32
3 35 13 1
3 36 13 35
3 36 141 143
3 143 142 13
3 141 142 143
3 19 36 7
3 144 36 145
3 146 145 19
3 144 145 146
3 148 147 36
3 28 21 2
3 149 21 150
3 151 150 28
3 149 150 151
3 153 152 21
