ply
format ascii 1.0
element vertex 192
property float x
property float y
property float z
element face 189
property list uchar int vertex_index
end_header
62.929413 -19.970882 45.467152
58.108303 -26.096977 50.846519
63.288826 -29.135048 46.9468
58.153072 -35.688576 50.810493
57.829395 -30.816097 50.561684
63.961235 -33.785286 48.053635
60.704067 -22.964016 48.54068
62.957024 -24.482977 46.006824
60.605087 -27.56864 48.737709
60.959946 -32.329895 49.447952
61.687065 -37.118721 50.115494
60.74456 -18.809645 48.370758
58.585106 -21.789787 51.452217
59.459484 -24.510048 49.80275
60.614845 -25.231842 48.581718
59.311829 -26.809168 49.718918
57.917015 -33.243496 50.651093
59.370888 -31.577808 49.986839
59.607704 -33.99799 50.284218
61.296928 -34.72448 49.852295
59.947559 -36.423981 50.551392
59.579269 -18.434904 49.846413
59.712669 -20.281416 50.006386
58.608894 -19.897255 51.548759
63.069893 -26.805841 46.416168
64.078835 -25.311533 44.811859
64.256989 -27.626049 45.359875
56.644669 -27.724815 51.653351
57.902168 -28.424793 50.622925
56.38765 -30.072155 51.27697
56.291866 -32.479172 51.077034
63.598045 -31.461334 47.532639
64.521935 -29.929123 45.986389
64.844276 -32.222351 46.590454
61.854782 -21.453848 47.085957
62.93045 -22.19142 45.714264
61.816944 -23.694132 47.236778
61.831902 -26.00432 47.470078
61.952911 -28.348249 47.839104
59.27034 -29.17519 49.776901
60.719551 -29.941307 49.041016
62.190289 -30.704201 48.323761
62.520531 -33.063374 48.835526
62.902626 -35.423325 49.24144
62.862076 -17.866926 45.152138
61.707863 -17.358711 46.576607
61.854286 -19.328312 46.9086
60.785202 -20.808571 48.515358
59.631714 -22.318983 49.943726
58.374054 -23.870424 51.166107
57.530323 -21.407135 53.052917
57.339336 -23.349846 52.680267
56.99836 -25.470268 52.160301
58.502113 -38.13784 50.918449
60.346603 -38.845776 50.652306
63.451 -20.342719 44.755894
63.438877 -19.238279 44.589422
58.954067 -18.326949 50.583847
59.358314 -17.614793 49.602688
58.468879 -19.058124 51.43502
59.094082 -19.16608 50.697586
58.954067 -18.326949 50.583847
55.729134 -29.730518 51.745914
56.51616 -28.898485 51.46516
55.857644 -28.556849 51.934105
55.483114 -33.315552 51.199711
55.534797 -32.110484 51.376571
56.333833 -33.700449 51.04977
55.483114 -33.315552 51.199711
62.490425 -37.44936 49.757088
63.098205 -36.601662 49.320061
62.294845 -36.271023 49.678467
62.746493 -16.891627 44.903137
63.347012 -17.141636 44.212235
61.226212 -18.084178 47.473683
61.090496 -17.178306 47.278874
60.608845 -17.903773 48.175949
56.977869 -21.302233 53.884628
57.483688 -20.541919 53.086742
56.649717 -24.160979 53.175232
56.828613 -23.1673 53.504593
56.479229 -25.22119 52.915249
57.168848 -24.410057 52.420284
56.649717 -24.160979 53.175232
56.248478 -26.295395 52.536755
56.479229 -25.22119 52.915249
63.475445 -23.740348 45.194862
63.462158 -22.594569 45.048582
62.943737 -23.337198 45.860544
64.537712 -24.582419 43.93861
64.593331 -25.739968 44.209903
64.91055 -29.196338 45.11562
65.036057 -30.333734 45.442667
58.711662 -39.35815 50.88409
57.748695 -38.991693 50.940273
59.633907 -39.712119 50.751019
59.424358 -38.491808 50.785378
58.711662 -39.35815 50.88409
64.574661 -34.148485 47.544399
64.149543 -34.946759 48.209862
60.026199 -17.716403 48.913776
59.358314 -17.614793 49.602688
60.161914 -18.622274 49.108586
60.608845 -17.903773 48.175949
60.026199 -17.716403 48.913776
64.682408 -26.897226 44.483912
64.593331 -25.739968 44.209903
64.167912 -26.468791 45.085867
55.58269 -30.906976 51.47654
55.729134 -29.730518 51.745914
56.339758 -31.275664 51.177002
55.58269 -30.906976 51.47654
55.534797 -32.110484 51.376571
57.146408 -34.082611 50.8368
57.10444 -32.861334 50.864064
56.333833 -33.700449 51.04977
57.264437 -35.305151 50.9165
58.035044 -34.466036 50.730793
57.146408 -34.082611 50.8368
65.197227 -31.480348 45.744699
65.036057 -30.333734 45.442667
64.683105 -31.075737 46.288421
65.016181 -33.367018 46.812809
64.402755 -33.003819 47.322045
64.574661 -34.148485 47.544399
65.337993 -32.611801 46.018856
65.016181 -33.367018 46.812809
65.197227 -31.480348 45.744699
65.337993 -32.611801 46.018856
63.620239 -35.765778 48.803764
64.149543 -34.946759 48.209862
63.43193 -34.604305 48.647537
63.620239 -35.765778 48.803764
63.098205 -36.601662 49.320061
63.405209 -18.186301 44.431916
63.347012 -17.141636 44.212235
62.895744 -18.918904 45.309645
63.438877 -19.238279 44.589422
63.405209 -18.186301 44.431916
61.516233 -16.463024 46.282536
61.090496 -17.178306 47.278874
62.169386 -16.637519 45.615372
61.516233 -16.463024 46.282536
62.28497 -17.612818 45.864373
62.746493 -16.891627 44.903137
62.169386 -16.637519 45.615372
58.022974 -19.786979 52.334663
58.468879 -19.058124 51.43502
58.069609 -20.652195 52.300838
58.022974 -19.786979 52.334663
57.483688 -20.541919 53.086742
56.924107 -22.195945 53.690917
56.977869 -21.302233 53.884628
57.43483 -22.37849 52.866592
56.924107 -22.195945 53.690917
56.828613 -23.1673 53.504593
56.071632 -27.422669 52.283279
56.821514 -26.597541 51.906826
56.248478 -26.295395 52.536755
55.857644 -28.556849 51.934105
56.071632 -27.422669 52.283279
63.451519 -21.452988 44.87945
63.451 -20.342719 44.755894
62.929931 -21.081151 45.590708
63.451519 -21.452988 44.87945
63.462158 -22.594569 45.048582
64.03635 -24.154626 44.59738
63.475445 -23.740348 45.194862
63.517929 -24.897255 45.409341
64.03635 -24.154626 44.59738
64.537712 -24.582419 43.93861
64.778076 -28.044801 44.802363
64.389462 -28.777586 45.673132
64.91055 -29.196338 45.11562
64.682408 -26.897226 44.483912
64.778076 -28.044801 44.802363
57.38777 -36.535347 50.91679
57.264437 -35.305151 50.9165
57.56229 -37.759979 50.970768
57.748695 -38.991693 50.940273
58.327593 -36.913208 50.864471
57.38777 -36.535347 50.91679
57.56229 -37.759979 50.970768
60.555145 -40.048294 50.560654
59.633907 -39.712119 50.751019
61.217106 -39.174719 50.377873
60.555145 -40.048294 50.560654
61.887337 -38.311191 50.109466
61.016834 -37.982248 50.3839
61.217106 -39.174719 50.377873
62.490425 -37.44936 49.757088
61.887337 -38.311191 50.109466
3 0 55 56
3 1 15 13
3 3 18 16
3 3 20 18
3 57 21 58
3 59 23 60
3 61 60 21
3 59 60 61
3 2 26 24
3 62 29 63
3 64 63 27
3 62 63 64
3 65 30 66
3 68 67 30
3 5 33 31
3 6 36 34
3 8 37 14
3 8 38 37
3 4 39 28
3 9 40 17
3 9 41 40
3 9 42 41
3 10 43 19
3 10 69 71
3 71 70 43
3 69 70 71
3 72 44 73
3 11 74 76
3 74 45 75
3 74 75 76
3 11 46 45
3 11 47 46
3 12 48 22
3 12 49 48
3 77 50 78
3 79 51 80
3 81 52 82
3 83 82 51
3 81 82 83
3 85 84 52
3 7 86 88
3 88 87 35
3 86 87 88
3 90 89 25
3 92 91 32
3 93 53 94
3 95 54 96
3 97 96 53
3 95 96 97
3 99 98 5
3 13 14 6
3 15 14 13
3 15 8 14
3 16 17 4
3 18 17 16
3 18 9 17
3 18 19 9
3 20 19 18
3 20 10 19
3 21 100 101
3 21 102 104
3 102 11 103
3 102 103 104
3 21 22 11
3 23 22 21
3 23 12 22
3 24 25 7
3 26 25 24
3 26 105 107
3 107 106 25
3 105 106 107
3 27 28 1
3 29 28 27
3 29 4 28
3 108 29 109
3 30 110 112
3 110 29 111
3 110 111 112
3 30 4 29
3 30 16 4
3 113 16 114
3 115 114 30
3 113 114 115
3 116 3 117
3 118 117 16
3 116 117 118
3 31 32 2
3 33 32 31
3 33 119 121
3 121 120 32
3 119 120 121
3 122 33 123
3 124 123 5
3 122 123 124
3 125 33 126
3 128 127 33
3 34 35 0
3 36 35 34
3 36 7 35
3 14 36 6
3 37 36 14
3 37 7 36
3 37 24 7
3 38 24 37
3 38 2 24
3 28 15 1
3 39 15 28
3 39 8 15
3 17 39 4
3 40 39 17
3 40 8 39
3 40 38 8
3 41 38 40
3 41 2 38
3 41 31 2
3 42 31 41
3 42 5 31
3 19 42 9
3 43 42 19
3 43 5 42
3 43 129 131
3 131 130 5
3 129 130 131
3 133 132 43
3 44 134 135
3 44 136 138
3 136 0 137
3 136 137 138
3 45 139 140
3 45 141 142
3 45 143 145
3 143 44 144
3 143 144 145
3 46 44 45
3 46 0 44
3 46 34 0
3 47 34 46
3 47 6 34
3 22 47 11
3 48 47 22
3 48 6 47
3 48 13 6
3 49 13 48
3 49 1 13
3 146 23 147
3 50 148 150
3 148 23 149
3 148 149 150
3 50 12 23
3 151 50 152
3 51 153 155
3 153 50 154
3 153 154 155
3 51 12 50
3 51 49 12
3 52 49 51
3 52 1 49
3 52 27 1
3 156 27 157
3 158 157 52
3 156 157 158
3 160 159 27
3 35 161 163
3 163 162 0
3 161 162 163
3 165 164 35
3 25 166 168
3 168 167 7
3 166 167 168
3 170 169 25
3 32 26 2
3 171 26 172
3 173 172 32
3 171 172 173
3 175 174 26
3 176 3 177
3 53 178 179
3 53 180 182
3 180 3 181
3 180 181 182
3 53 20 3
3 54 20 53
3 54 10 20
3 183 54 184
3 185 54 186
3 187 10 188
3 189 188 54
3 187 188 189
3 191 190 10
