ply
format ascii 1.0
element vertex 295
property float x
property float y
property float z
element face 304
property list uchar int vertex_index
end_header
3.022797 54.22295 -14.312969
4.95668 26.397987 -21.151928
-0.003195 68.215622 -10.65538
1.607151 62.96619 -23.496674
5.861725 37.297432 -14.221491
3.464291 46.257603 -24.194122
4.581264 46.177761 -14.629206
6.367924 40.99585 -9.739462
4.780293 49.378681 -9.482582
1.943552 58.668644 -19.034969
2.570744 54.929028 -24.480408
3.225574 50.712337 -19.631618
4.401314 42.002594 -19.153545
3.799892 30.362846 -25.525734
2.56995 23.08213 -27.004913
4.092785 19.135284 -23.618511
1.387388 61.495144 -12.986744
2.849934 56.776836 -8.498795
0.92247 63.345654 -6.581097
0.740891 66.059937 -17.304745
4.771458 51.555759 -3.798845
2.948895 50.221645 -28.769985
3.438866 40.77092 -27.537083
4.244949 36.74905 -22.867279
5.408394 32.519882 -18.025387
3.828182 50.306995 -14.587454
4.689842 47.89909 -12.126661
3.843548 51.875202 -11.907249
2.37875 56.472858 -16.692478
2.588493 54.773716 -19.47905
3.112999 52.582767 -17.044579
3.820892 48.502277 -17.129166
4.354954 28.369465 -23.37273
3.956284 24.823658 -24.505772
4.612675 22.87257 -22.470055
0.641258 64.909775 -11.939058
1.151491 62.550152 -9.824078
0.360023 65.791702 -8.639843
-0.174744 70.628525 -12.641994
0.230726 69.589966 -16.060778
0.343882 67.255737 -14.017904
0.959192 63.783344 -15.165951
2.432232 17.262833 -26.064709
6.37645 32.631939 -13.918001
2.712765 57.654789 -5.431107
3.787155 54.253323 -6.174549
3.652939 55.024723 -3.133179
3.031567 50.686314 -24.492657
2.820805 52.702526 -26.812389
3.185024 48.277409 -26.583794
3.21595 45.608654 -28.296577
3.512794 43.647896 -26.048817
3.810333 38.788818 -25.2701
3.867043 41.616547 -23.627708
5.082912 39.72604 -16.647068
4.925354 37.343925 -18.631771
5.622906 35.064106 -16.20997
6.102165 30.306614 -15.746349
5.603695 24.495125 -18.947041
5.293842 21.01767 -20.377689
-0.521723 71.430054 -9.156481
5.262341 41.833462 -14.484976
6.118195 39.264668 -12.062605
5.453678 43.690956 -12.158628
5.630928 45.309978 -9.677937
1.706623 60.834721 -21.317112
2.091309 59.014515 -24.14489
2.261387 56.914043 -21.861206
2.816257 52.847416 -22.099442
3.352524 48.607868 -22.033524
3.858906 44.170067 -21.690811
3.83374 46.460247 -19.50906
4.481213 44.215961 -16.978134
3.262436 32.335884 -27.522545
3.314564 26.806938 -26.411194
3.338104 21.094456 -25.402695
2.195873 57.943264 -13.781096
2.943401 55.626186 -11.460716
2.029711 59.17384 -10.767313
1.857929 60.147015 -7.659634
1.173218 64.63121 -20.483128
1.318369 62.423382 -18.304142
1.648808 60.197186 -16.063597
3.840683 53.196644 -9.100908
4.818584 50.603916 -6.704346
2.420643 56.95332 -26.706356
3.629471 35.688744 -26.576145
4.088013 33.690643 -24.341217
4.606255 31.66357 -22.008739
4.332798 39.518986 -21.127506
4.778088 34.660374 -20.423981
5.200676 29.630058 -19.670811
5.854202 27.606594 -17.412498
1.80665 15.337759 -26.282272
2.324171 14.337722 -25.708424
6.268889 35.980528 -13.067626
6.526251 33.647782 -12.915881
6.119088 34.964686 -14.069746
3.079626 56.632675 -2.696613
3.182852 56.339756 -4.282143
2.609539 57.947708 -3.845576
1.798882 62.010955 -24.881546
1.572364 63.995332 -24.504278
5.793834 21.915984 -18.622141
5.934546 23.605145 -17.89374
-0.664237 71.709992 -7.385424
-0.71834 72.990265 -8.310256
-0.71834 72.990265 -8.310256
-0.558499 72.664078 -10.10882
5.269938 48.032662 -8.266527
5.695256 45.99831 -8.364204
5.205611 47.34433 -9.58026
3.705498 17.208976 -24.101436
3.328157 18.188562 -24.993529
3.715445 20.11487 -24.510603
5.07179 19.147098 -21.043562
5.448372 18.310734 -20.05347
1.288697 62.094559 -5.520118
1.756426 60.495239 -6.059387
1.3902 61.746335 -7.120366
0.709094 67.187127 -18.344311
0.454011 68.952141 -17.722327
0.485808 67.824951 -16.682761
0.957055 65.345574 -18.893937
0.925257 66.472763 -19.933502
0.709094 67.187127 -18.344311
2.161919 24.060144 -27.688671
2.611269 25.925087 -27.558277
6.673314 38.730064 -9.737606
6.548449 37.864474 -10.899178
6.24306 40.130259 -10.901034
5.287947 49.68082 -4.041522
5.31151 49.204899 -5.494273
4.795021 51.079837 -5.251596
2.789689 52.430233 -28.839359
2.725644 53.670673 -27.860561
2.88485 51.462086 -27.791187
2.802015 51.141338 -29.716845
2.789689 52.430233 -28.839359
2.920153 48.849648 -29.523021
2.802015 51.141338 -29.716845
3.250835 41.723217 -28.553554
3.139378 44.142084 -28.933301
3.327408 43.189787 -27.91683
3.310351 39.20102 -28.077063
3.250835 41.723217 -28.553554
3.534168 38.229832 -27.056614
3.405653 36.659931 -27.596594
3.310351 39.20102 -28.077063
6.312016 27.94977 -15.532822
6.453712 29.133638 -14.700098
0.027991 70.109246 -14.351386
0.010467 71.299179 -15.328768
-0.192268 71.818458 -13.619376
1.972884 18.260809 -26.697496
2.041742 21.170457 -27.167598
2.501091 20.172481 -26.534811
1.972884 18.260809 -26.697496
1.80665 15.337759 -26.282272
6.750838 31.302489 -12.856989
6.590855 30.296301 -13.785924
6.750838 31.302489 -12.856989
6.526251 33.647782 -12.915881
6.809742 39.526993 -8.565759
6.472422 41.747462 -8.49936
6.590855 30.296301 -13.785924
6.453712 29.133638 -14.700098
6.239308 31.469276 -14.832175
5.638908 20.177256 -19.337465
5.448768 22.756397 -19.662365
5.793834 21.915984 -18.622141
5.448372 18.310734 -20.05347
5.638908 20.177256 -19.337465
-0.41134 70.180855 -8.193378
-0.152076 68.573639 -8.942827
-0.262459 69.822838 -9.905931
-0.41134 70.180855 -8.193378
-0.664237 71.709992 -7.385424
-0.385009 72.263313 -11.851577
-0.192268 71.818458 -13.619376
-0.348234 71.02929 -10.899237
-0.385009 72.263313 -11.851577
-0.558499 72.664078 -10.10882
6.103924 43.904526 -8.468597
6.472422 41.747462 -8.49936
5.999426 43.152914 -9.708699
6.103924 43.904526 -8.468597
5.695256 45.99831 -8.364204
2.957512 30.551964 -27.817093
2.975447 33.292248 -28.399954
2.983576 27.787491 -27.261418
2.957512 30.551964 -27.817093
3.2885 29.571411 -26.96687
2.942257 24.944534 -26.708053
2.611269 25.925087 -27.558277
2.983576 27.787491 -27.261418
2.875221 16.272751 -25.324535
2.885168 19.178645 -25.733702
3.328157 18.188562 -24.993529
2.324171 14.337722 -25.708424
2.875221 16.272751 -25.324535
4.731207 20.074548 -22.089745
4.953259 21.94512 -21.423872
5.07179 19.147098 -21.043562
4.471262 18.205906 -22.663973
4.35273 21.003927 -23.044283
4.731207 20.074548 -22.089745
4.140234 16.263805 -23.271286
4.471262 18.205906 -22.663973
3.705498 17.208976 -24.101436
4.140234 16.263805 -23.271286
2.183845 59.249127 -4.945123
2.285347 58.900902 -6.54537
1.756426 60.495239 -6.059387
2.609539 57.947708 -3.845576
2.183845 59.249127 -4.945123
0.029533 67.361679 -7.935059
0.178414 67.003662 -9.647612
-0.152076 68.573639 -8.942827
0.230719 66.103546 -6.955308
0.029533 67.361679 -7.935059
0.511943 64.880522 -5.925935
0.641247 64.568678 -7.61047
0.230719 66.103546 -6.955308
0.801084 63.605351 -4.918486
0.511943 64.880522 -5.925935
1.288697 62.094559 -5.520118
0.801084 63.605351 -4.918486
1.368662 64.881067 -23.027958
1.572364 63.995332 -24.504278
0.226065 70.734101 -17.053143
0.010467 71.299179 -15.328768
0.226065 70.734101 -17.053143
0.454011 68.952141 -17.722327
1.151696 65.713577 -21.521185
0.925257 66.472763 -19.933502
1.390185 63.7987 -21.989901
1.368662 64.881067 -23.027958
1.151696 65.713577 -21.521185
2.161919 24.060144 -27.688671
2.041742 21.170457 -27.167598
6.397124 36.964146 -11.988183
6.268889 35.980528 -13.067626
5.98996 38.28105 -13.142048
6.397124 36.964146 -11.988183
6.548449 37.864474 -10.899178
6.673314 38.730064 -9.737606
6.809742 39.526993 -8.565759
5.289084 48.645279 -6.877409
5.269938 48.032662 -8.266527
4.799439 49.991298 -8.093464
5.289084 48.645279 -6.877409
5.31151 49.204899 -5.494273
3.535299 55.258911 -1.558771
3.079626 56.632675 -2.696613
4.133268 53.619678 -1.954545
3.535299 55.258911 -1.558771
4.692528 51.885196 -2.287378
4.212198 53.290241 -3.466012
4.133268 53.619678 -1.954545
5.253944 50.101906 -2.594594
4.692528 51.885196 -2.287378
5.287947 49.68082 -4.041522
5.253944 50.101906 -2.594594
2.040961 60.035118 -25.205654
1.798882 62.010955 -24.881546
1.84923 60.990353 -23.820782
2.205628 59.00452 -26.486387
2.040961 60.035118 -25.205654
2.255976 57.983918 -25.425623
2.339854 57.920631 -27.702446
2.205628 59.00452 -26.486387
2.525563 55.79607 -27.807544
2.620724 54.827923 -26.759372
2.725644 53.670673 -27.860561
2.339854 57.920631 -27.702446
2.525563 55.79607 -27.807544
3.053681 46.543152 -29.286317
2.920153 48.849648 -29.523021
3.082422 47.915149 -28.533281
3.053681 46.543152 -29.286317
3.139378 44.142084 -28.933301
3.222136 34.983502 -28.069794
2.975447 33.292248 -28.399954
3.445953 34.012314 -27.049345
3.222136 34.983502 -28.069794
3.405653 36.659931 -27.596594
6.059799 25.160879 -17.126469
5.934546 23.605145 -17.89374
5.728948 26.05086 -18.179769
6.188034 26.59976 -16.365896
5.978184 28.956604 -16.579424
6.312016 27.94977 -15.532822
6.059799 25.160879 -17.126469
6.188034 26.59976 -16.365896
3 0 27 25
3 0 30 28
3 0 25 30
3 1 34 32
3 2 37 35
3 2 40 38
3 2 35 40
3 94 93 42
3 4 95 97
3 97 96 43
3 95 96 97
3 98 46 99
3 100 99 44
3 98 99 100
3 3 101 102
3 5 49 47
3 5 51 49
3 5 53 51
3 4 56 54
3 4 43 56
3 104 103 58
3 106 105 60
3 107 60 108
3 6 63 61
3 8 64 26
3 8 109 111
3 111 110 64
3 109 110 111
3 9 67 65
3 11 68 29
3 11 69 68
3 11 71 69
3 6 72 31
3 6 61 72
3 13 74 73
3 15 75 33
3 15 112 114
3 114 113 75
3 112 113 114
3 116 115 59
3 16 78 76
3 18 79 36
3 18 117 119
3 119 118 79
3 117 118 119
3 19 120 122
3 122 121 39
3 120 121 122
3 19 123 125
3 123 80 124
3 123 124 125
3 19 81 80
3 16 82 41
3 16 76 82
3 14 126 127
3 7 128 130
3 130 129 62
3 128 129 130
3 17 83 77
3 20 84 45
3 20 131 133
3 133 132 84
3 131 132 133
3 10 85 66
3 21 134 136
3 136 135 48
3 134 135 136
3 21 137 138
3 21 139 140
3 22 141 143
3 143 142 50
3 141 142 143
3 22 144 145
3 22 146 148
3 146 86 147
3 146 147 148
3 23 87 52
3 23 88 87
3 12 89 70
3 24 90 55
3 24 91 90
3 24 92 91
3 150 149 57
3 25 26 6
3 27 26 25
3 27 8 26
3 28 29 9
3 30 29 28
3 30 11 29
3 30 31 11
3 25 31 30
3 25 6 31
3 32 33 13
3 34 33 32
3 34 15 33
3 35 36 16
3 37 36 35
3 37 18 36
3 38 151 153
3 151 39 152
3 151 152 153
3 40 39 38
3 40 19 39
3 40 41 19
3 35 41 40
3 35 16 41
3 42 154 156
3 156 155 14
3 154 155 156
3 158 157 42
3 43 159 160
3 162 161 43
3 164 163 7
3 44 45 17
3 46 45 44
3 46 20 45
3 47 48 10
3 49 48 47
3 49 21 48
3 49 50 21
3 51 50 49
3 51 22 50
3 51 52 22
3 53 52 51
3 53 23 52
3 54 55 12
3 56 55 54
3 56 24 55
3 56 57 24
3 43 57 56
3 43 165 167
3 167 166 57
3 165 166 167
3 58 59 1
3 168 59 169
3 170 169 58
3 168 169 170
3 172 171 59
3 60 173 175
3 175 174 2
3 173 174 175
3 177 176 60
3 178 38 179
3 60 180 182
3 180 38 181
3 180 181 182
3 60 2 38
3 61 62 4
3 63 62 61
3 63 7 62
3 26 63 6
3 64 63 26
3 64 7 63
3 64 183 185
3 185 184 7
3 183 184 185
3 187 186 64
3 65 66 3
3 67 66 65
3 67 10 66
3 29 67 9
3 68 67 29
3 68 10 67
3 68 47 10
3 69 47 68
3 69 5 47
3 69 70 5
3 71 70 69
3 71 12 70
3 31 71 11
3 72 71 31
3 72 12 71
3 72 54 12
3 61 54 72
3 61 4 54
3 73 188 189
3 74 190 192
3 192 191 73
3 190 191 192
3 74 193 195
3 193 14 194
3 193 194 195
3 33 74 13
3 75 74 33
3 75 14 74
3 75 42 14
3 196 42 197
3 198 197 75
3 196 197 198
3 200 199 42
3 59 34 1
3 201 34 202
3 203 202 59
3 201 202 203
3 204 15 205
3 206 205 34
3 204 205 206
3 207 15 208
3 210 209 15
3 76 77 0
3 78 77 76
3 78 17 77
3 36 78 16
3 79 78 36
3 79 17 78
3 79 44 17
3 211 44 212
3 213 212 79
3 211 212 213
3 215 214 44
3 216 37 217
3 218 217 2
3 216 217 218
3 219 37 220
3 221 18 222
3 223 222 37
3 221 222 223
3 224 18 225
3 227 226 18
3 228 3 229
3 39 230 231
3 233 232 39
3 80 234 235
3 80 236 238
3 236 3 237
3 236 237 238
3 80 65 3
3 81 65 80
3 81 9 65
3 41 81 19
3 82 81 41
3 82 9 81
3 82 28 9
3 76 28 82
3 76 0 28
3 240 239 14
3 62 241 243
3 243 242 4
3 241 242 243
3 245 244 62
3 247 246 7
3 77 27 0
3 83 27 77
3 83 8 27
3 45 83 17
3 84 83 45
3 84 8 83
3 84 248 250
3 250 249 8
3 248 249 250
3 252 251 84
3 253 46 254
3 255 46 256
3 257 20 258
3 259 258 46
3 257 258 259
3 260 20 261
3 263 262 20
3 66 264 266
3 266 265 3
3 264 265 266
3 85 267 269
3 269 268 66
3 267 268 269
3 85 270 271
3 48 85 10
3 272 85 273
3 274 273 48
3 272 273 274
3 276 275 85
3 50 277 279
3 279 278 21
3 277 278 279
3 281 280 50
3 282 73 283
3 86 284 286
3 284 73 285
3 284 285 286
3 86 13 73
3 52 86 22
3 87 86 52
3 87 13 86
3 87 32 13
3 88 32 87
3 88 1 32
3 70 53 5
3 89 53 70
3 89 23 53
3 55 89 12
3 90 89 55
3 90 23 89
3 90 88 23
3 91 88 90
3 91 1 88
3 91 58 1
3 92 58 91
3 92 287 289
3 289 288 58
3 287 288 289
3 57 92 24
3 290 92 291
3 292 291 57
3 290 291 292
3 294 293 92
