ply
format ascii 1.0
element vertex 275
property float x
property float y
property float z
element face 278
property list uchar int vertex_index
end_header
-19.327742 -15.787083 80.933395
-34.363857 -10.456978 71.63517
-28.283237 -17.002899 78.005753
-25.23595 -8.86697 72.710938
-11.378931 -12.873217 84.281868
-4.65131 -21.84561 88.470695
-12.131546 -23.519651 85.44059
-17.073544 -5.428226 75.861572
-31.487209 -13.62298 75.259018
-15.129586 -14.583048 82.537804
-11.734674 -18.446795 85.496506
-15.8414 -19.478762 83.667847
-22.424364 -12.293877 77.155319
-20.816875 -7.504124 73.873734
-18.141125 -10.9973 78.550812
-14.421834 -9.069293 80.471352
-23.817635 -16.531656 79.489449
-20.197693 -20.142345 81.716194
-29.977304 -9.706079 72.150665
-27.040215 -13.06997 76.180862
-8.019697 -17.06053 86.999046
-8.168959 -22.789295 87.388237
-17.178923 -15.250395 81.709518
-15.506075 -17.090555 83.290817
-17.628759 -17.598351 82.435181
-20.924818 -14.024978 79.163063
-20.220444 -11.722923 77.786049
-18.749882 -13.468541 79.864571
-16.687057 -12.768375 80.660637
-26.080273 -16.788553 78.768669
-24.294376 -18.562359 79.865791
-31.435308 -8.050941 70.091148
-32.266926 -10.058258 71.931358
-29.942276 -15.286181 76.771294
-29.326633 -13.350655 75.742516
-27.75596 -15.051201 77.386292
-25.478325 -14.786103 77.960495
-9.724012 -14.903644 85.788956
-11.933338 -21.040068 85.661041
-9.951588 -20.548275 86.57045
-10.107763 -23.188982 86.491409
-26.633347 -7.15003 70.477249
-24.305161 -6.534941 70.87854
-18.852314 -6.556345 74.766434
-15.470058 -4.138949 77.120422
-12.951174 -10.93854 82.499702
-4.697077 -18.742825 88.17836
-34.812237 -12.430641 73.007996
-32.947277 -12.014906 73.520218
-33.422012 -13.942514 74.670479
-31.949945 -15.527704 76.073578
-13.194386 -13.78512 83.406998
-11.541536 -15.731068 85.000763
-13.472097 -16.46678 84.153259
-13.747223 -19.012911 84.603333
-13.994992 -21.447594 84.655701
-23.848795 -10.57857 74.973816
-22.955879 -8.269276 73.193985
-21.610336 -9.994827 75.53315
-19.506771 -9.24823 76.261627
-17.564365 -8.327788 77.168777
-15.789714 -7.23925 78.238266
-16.206938 -10.109699 79.45311
-14.752942 -11.920774 81.54821
-21.551937 -16.20665 80.200867
-19.819798 -17.999868 81.588448
-22.052784 -18.313873 80.738625
-22.414146 -20.374353 80.692139
-29.038774 -7.636618 70.238861
-27.601908 -9.329688 72.383926
-30.81731 -11.686935 73.896088
-28.527184 -11.378008 74.214355
-26.176245 -11.026083 74.551384
-24.715666 -12.731799 76.634018
-23.182068 -14.455084 78.538986
-6.347256 -16.299963 87.484673
-6.310707 -19.369631 87.895729
-9.820408 -17.788305 86.31311
-8.070036 -19.983269 87.336258
-6.340437 -22.333443 88.07077
-17.998592 -19.850142 82.705284
-16.117695 -21.772903 83.584915
-22.118534 -5.752351 71.49231
-35.071771 -9.700419 70.66592
-35.26374 -10.715465 71.402515
-34.041592 -9.459508 70.789509
-35.071771 -9.700419 70.66592
-27.392988 -17.883812 78.476822
-26.291506 -17.776639 78.85828
-27.181755 -16.895726 78.387211
-33.315392 -10.257618 71.783264
-32.993126 -9.260148 70.937603
-34.041592 -9.459508 70.789509
-10.551471 -13.888431 85.035412
-9.702649 -13.392111 85.445755
-10.530109 -12.376897 84.692211
-11.21695 -24.610374 85.757343
-10.205059 -24.44504 86.282753
-11.119654 -23.354316 85.966
-17.692432 -4.525364 74.644268
-18.581817 -5.089423 74.096699
-17.962929 -5.992286 75.314003
-16.888077 -3.858598 75.287468
-17.692432 -4.525364 74.644268
-16.271801 -4.783588 76.490997
-16.086334 -3.213959 75.916893
-16.888077 -3.858598 75.287468
-11.326325 -11.362437 83.87146
-12.112447 -10.395098 82.980377
-12.165052 -11.905879 83.390785
-10.530109 -12.376897 84.692211
-11.326325 -11.362437 83.87146
-3.891973 -21.601865 88.496021
-3.914857 -20.050472 88.349853
-4.674193 -20.294218 88.324528
-34.920542 -13.403064 73.465851
-35.566271 -12.717927 72.647042
-34.22543 -14.159 74.297092
-34.117125 -13.186577 73.839237
-34.920542 -13.403064 73.465851
-32.084373 -16.453014 76.162495
-32.814351 -15.671717 75.668778
-31.15345 -16.361519 76.622765
-32.084373 -16.453014 76.162495
-23.516237 -20.468483 80.156803
-23.354261 -19.468356 80.278965
-24.456352 -19.562486 79.743629
-22.541244 -21.383184 80.38871
-23.516237 -20.468483 80.156803
-7.183477 -16.680247 87.24186
-7.186349 -15.160036 86.968483
-8.022569 -15.540319 86.72567
-7.305926 -23.982498 87.679974
-6.391666 -23.754572 88.02124
-7.254698 -22.561369 87.729503
-16.235731 -22.876314 83.316806
-17.200544 -21.900404 83.024468
-15.168496 -22.776608 83.933654
-16.235731 -22.876314 83.316806
-14.296043 -7.53733 79.948696
-14.979983 -6.622308 78.832154
-15.105774 -8.154272 79.354809
-25.398557 -18.663542 79.406841
-25.187324 -17.675456 79.31723
-26.291506 -17.776639 78.85828
-24.456352 -19.562486 79.743629
-25.398557 -18.663542 79.406841
-32.577317 -8.25649 70.017498
-32.189311 -7.230804 69.11153
-31.851117 -9.0546 71.011253
-32.577317 -8.25649 70.017498
-32.993126 -9.260148 70.937603
-8.874727 -14.461876 86.120624
-9.702649 -13.392111 85.445755
-8.871855 -15.982087 86.394001
-8.022569 -15.540319 86.72567
-8.874727 -14.461876 86.120624
-9.215708 -24.327658 86.811016
-8.246305 -24.127815 87.25943
-9.138361 -22.989138 86.939823
-9.215708 -24.327658 86.811016
-10.205059 -24.44504 86.282753
-19.240543 -21.085125 82.090107
-20.335715 -21.185769 81.506946
-26.171776 -5.967001 69.590965
-27.361566 -6.285893 69.431206
-25.007683 -5.659457 69.79161
-26.171776 -5.967001 69.590965
-25.469254 -6.842486 70.677895
-23.885566 -5.259587 70.057586
-25.007683 -5.659457 69.79161
-19.483496 -5.669222 73.554611
-20.465776 -6.143111 73.108261
-19.834595 -7.030235 74.320084
-19.483496 -5.669222 73.554611
-18.581817 -5.089423 74.096699
-15.365066 -2.475557 76.631397
-16.086334 -3.213959 75.916893
-14.740633 -3.431082 77.798538
-15.365066 -2.475557 76.631397
-12.862637 -9.420493 82.02821
-13.597967 -8.485869 81.014035
-13.686504 -10.003916 81.485527
-12.862637 -9.420493 82.02821
-12.112447 -10.395098 82.980377
-3.974945 -18.44334 88.147697
-4.757512 -17.147202 87.93636
-3.974945 -18.44334 88.147697
-3.914857 -20.050472 88.349853
-35.487931 -11.702296 72.088929
-35.566271 -12.717927 72.647042
-34.588047 -11.44381 72.321583
-35.26374 -10.715465 71.402515
-35.487931 -11.702296 72.088929
-28.454704 -17.967689 77.985905
-29.320096 -17.099117 77.588852
-33.550384 -14.879122 74.967228
-34.22543 -14.159 74.297092
-32.685979 -14.735109 75.372028
-33.550384 -14.879122 74.967228
-32.814351 -15.671717 75.668778
-30.149615 -16.240758 76.971622
-30.94611 -15.406942 76.422436
-31.15345 -16.361519 76.622765
-29.320096 -17.099117 77.588852
-29.112756 -16.14454 77.388523
-30.149615 -16.240758 76.971622
-3.877651 -23.166094 88.599571
-4.671236 -23.343759 88.499034
-21.443941 -21.301773 80.994919
-20.335715 -21.185769 81.506946
-21.30592 -20.258349 81.204166
-21.443941 -21.301773 80.994919
-22.541244 -21.383184 80.38871
-27.392988 -17.883812 78.476822
-28.454704 -17.967689 77.985905
-30.983733 -6.997069 69.155895
-32.189311 -7.230804 69.11153
-29.785466 -6.789907 69.229751
-30.983733 -6.997069 69.155895
-30.237041 -7.84378 70.165005
-28.564279 -6.529186 69.312011
-29.785466 -6.789907 69.229751
-27.836061 -7.393324 70.358055
-27.361566 -6.285893 69.431206
-28.564279 -6.529186 69.312011
-6.398747 -14.713629 87.198021
-7.186349 -15.160036 86.968483
-5.582601 -15.925771 87.589516
-6.398747 -14.713629 87.198021
-5.522166 -17.521394 87.831516
-4.757512 -17.147202 87.93636
-5.582601 -15.925771 87.589516
-5.515799 -23.587675 88.299072
-4.671236 -23.343759 88.499034
-5.495874 -22.089526 88.270733
-5.515799 -23.587675 88.299072
-6.391666 -23.754572 88.02124
-7.305926 -23.982498 87.679974
-8.246305 -24.127815 87.25943
-18.140992 -20.939024 82.584652
-19.098143 -19.996243 82.210739
-19.240543 -21.085125 82.090107
-17.058143 -20.811523 83.1451
-18.140992 -20.939024 82.584652
-17.200544 -21.900404 83.024468
-14.107145 -22.613954 84.469047
-15.056344 -21.610248 84.120308
-15.168496 -22.776608 83.933654
-13.175422 -23.649982 84.861492
-13.063269 -22.483622 85.048146
-14.107145 -22.613954 84.469047
-12.242838 -24.698493 85.152313
-13.175422 -23.649982 84.861492
-11.21695 -24.610374 85.757343
-12.242838 -24.698493 85.152313
-22.792253 -4.868292 70.364472
-23.885566 -5.259587 70.057586
-23.211847 -6.143646 71.185425
-21.116605 -5.267225 71.91755
-21.467704 -6.628238 72.683022
-20.465776 -6.143111 73.108261
-21.762325 -4.374421 70.753117
-21.116605 -5.267225 71.91755
-22.792253 -4.868292 70.364472
-21.762325 -4.374421 70.753117
-14.820155 -5.072158 78.273232
-15.629886 -5.6891 77.679344
-14.979983 -6.622308 78.832154
-14.740633 -3.431082 77.798538
-14.820155 -5.072158 78.273232
-14.296043 -7.53733 79.948696
-13.597967 -8.485869 81.014035
-3.891973 -21.601865 88.496021
-3.877651 -23.166094 88.599571
3 0 24 22
3 0 27 25
3 0 22 27
3 1 83 84
3 1 85 86
3 2 87 89
3 89 88 29
3 87 88 89
3 1 90 92
3 90 32 91
3 90 91 92
3 2 35 33
3 2 29 35
3 4 93 95
3 93 37 94
3 93 94 95
3 6 40 38
3 6 96 98
3 98 97 40
3 96 97 98
3 3 42 41
3 7 99 101
3 101 100 43
3 99 100 101
3 7 102 103
3 7 104 106
3 104 44 105
3 104 105 106
3 4 107 109
3 109 108 45
3 107 108 109
3 4 110 111
3 5 112 114
3 114 113 46
3 112 113 114
3 115 47 116
3 117 49 118
3 119 118 47
3 117 118 119
3 120 50 121
3 123 122 50
3 9 53 51
3 11 54 23
3 11 55 54
3 12 58 56
3 14 59 26
3 14 60 59
3 14 62 60
3 9 63 28
3 9 51 63
3 16 66 64
3 124 67 125
3 126 125 30
3 124 125 126
3 128 127 67
3 18 68 31
3 18 69 68
3 8 70 48
3 19 71 34
3 19 72 71
3 19 73 72
3 16 74 36
3 16 64 74
3 20 129 131
3 129 75 130
3 129 130 131
3 20 76 75
3 10 77 52
3 21 78 39
3 21 79 78
3 21 132 134
3 134 133 79
3 132 133 134
3 17 80 65
3 135 81 136
3 138 137 81
3 13 82 57
3 15 139 141
3 141 140 61
3 139 140 141
3 22 23 9
3 24 23 22
3 24 11 23
3 25 26 12
3 27 26 25
3 27 14 26
3 27 28 14
3 22 28 27
3 22 9 28
3 29 30 16
3 142 30 143
3 144 143 29
3 142 143 144
3 146 145 30
3 147 31 148
3 32 149 151
3 149 31 150
3 149 150 151
3 32 18 31
3 33 34 8
3 35 34 33
3 35 19 34
3 35 36 19
3 29 36 35
3 29 16 36
3 37 152 153
3 37 154 156
3 154 20 155
3 154 155 156
3 38 39 10
3 40 39 38
3 40 21 39
3 40 157 159
3 159 158 21
3 157 158 159
3 161 160 40
3 163 162 17
3 41 164 165
3 42 166 168
3 168 167 41
3 166 167 168
3 42 169 170
3 43 171 173
3 173 172 13
3 171 172 173
3 175 174 43
3 44 176 177
3 44 178 179
3 45 180 182
3 182 181 15
3 180 181 182
3 184 183 45
3 46 185 186
3 188 187 46
3 47 189 190
3 47 191 193
3 191 1 192
3 191 192 193
3 195 194 2
3 47 48 1
3 49 48 47
3 49 8 48
3 196 49 197
3 50 198 200
3 198 49 199
3 198 199 200
3 50 8 49
3 50 33 8
3 201 33 202
3 203 202 50
3 201 202 203
3 204 2 205
3 206 205 33
3 204 205 206
3 51 52 4
3 53 52 51
3 53 10 52
3 23 53 9
3 54 53 23
3 54 10 53
3 54 38 10
3 55 38 54
3 55 6 38
3 56 57 3
3 58 57 56
3 58 13 57
3 26 58 12
3 59 58 26
3 59 13 58
3 59 43 13
3 60 43 59
3 60 7 43
3 60 61 7
3 62 61 60
3 62 15 61
3 28 62 14
3 63 62 28
3 63 15 62
3 63 45 15
3 51 45 63
3 51 4 45
3 208 207 5
3 64 65 0
3 66 65 64
3 66 17 65
3 30 66 16
3 67 66 30
3 67 17 66
3 67 209 211
3 211 210 17
3 209 210 211
3 213 212 67
3 215 214 2
3 31 216 217
3 68 218 220
3 220 219 31
3 218 219 220
3 68 221 222
3 68 223 225
3 223 41 224
3 223 224 225
3 69 41 68
3 69 3 41
3 48 32 1
3 70 32 48
3 70 18 32
3 34 70 8
3 71 70 34
3 71 18 70
3 71 69 18
3 72 69 71
3 72 3 69
3 72 56 3
3 73 56 72
3 73 12 56
3 36 73 19
3 74 73 36
3 74 12 73
3 74 25 12
3 64 25 74
3 64 0 25
3 75 226 227
3 75 228 229
3 75 230 232
3 230 46 231
3 230 231 232
3 76 46 75
3 76 5 46
3 52 37 4
3 77 37 52
3 77 20 37
3 39 77 10
3 78 77 39
3 78 20 77
3 78 76 20
3 79 76 78
3 79 5 76
3 79 233 235
3 235 234 5
3 233 234 235
3 237 236 79
3 239 238 21
3 65 24 0
3 80 24 65
3 80 11 24
3 240 80 241
3 242 241 17
3 240 241 242
3 81 243 245
3 243 80 244
3 243 244 245
3 81 11 80
3 81 55 11
3 246 55 247
3 248 247 81
3 246 247 248
3 249 6 250
3 251 250 55
3 249 250 251
3 252 6 253
3 255 254 6
3 57 42 3
3 82 42 57
3 82 256 258
3 258 257 42
3 256 257 258
3 259 82 260
3 261 260 13
3 259 260 261
3 262 82 263
3 265 264 82
3 61 44 7
3 266 44 267
3 268 267 61
3 266 267 268
3 270 269 44
3 272 271 15
3 274 273 5
