ply
format ascii 1.0
element vertex 178
property float x
property float y
property float z
element face 157
property list uchar int vertex_index
end_header
-67.995499 -45.98307 -27.300617
-62.551167 -48.075054 -33.13303
-60.754177 -33.761993 -41.249744
-67.497253 -39.13784 -31.28994
-65.573318 -47.107933 -30.464642
-64.875778 -40.14679 -34.528336
-61.876205 -41.009869 -37.223728
-58.611336 -41.487835 -38.931076
-57.486267 -34.17865 -42.624947
-62.86396 -54.816353 -28.905182
-68.059517 -49.247879 -25.203838
-67.023621 -49.842628 -26.830135
-66.258598 -39.635277 -32.947021
-65.76207 -36.089733 -34.940334
-62.265129 -33.414818 -40.053448
-62.900295 -37.031746 -38.009438
-61.38575 -37.40242 -39.2421
-60.283035 -41.298248 -38.221371
-59.805737 -37.674152 -40.187428
-58.13689 -37.852982 -40.806309
-59.169823 -34.013508 -42.119335
-64.113373 -47.635124 -31.882534
-64.319191 -51.019459 -29.788776
-62.7551 -51.497841 -31.041149
-60.908936 -48.401947 -34.181652
-67.810364 -42.60463 -29.320229
-66.88855 -46.538994 -28.922295
-66.633484 -43.127602 -30.951824
-65.278305 -43.664085 -32.507996
-63.808147 -44.160187 -33.938015
-64.363007 -36.580837 -36.55146
-63.406612 -40.618935 -35.974564
-62.258949 -44.572403 -35.190235
-60.642063 -44.877285 -36.220016
-68.793602 -48.717651 -23.535892
-68.815804 -45.491936 -25.641048
-65.75679 -50.451698 -28.372711
-66.111404 -34.071842 -35.081169
-66.406052 -35.850649 -34.092981
-60.131453 -50.249886 -33.574021
-60.051676 -48.509025 -34.594738
-64.044003 -34.783941 -37.573994
-64.748963 -34.548401 -36.755453
-58.782133 -43.282364 -37.964332
-59.617982 -43.18757 -37.60948
-59.447186 -41.393041 -38.576223
-57.896299 -43.343132 -38.222343
-58.782133 -43.282364 -37.964332
-57.727703 -41.547045 -39.136631
-57.896299 -43.343132 -38.222343
-56.923362 -36.073078 -41.858269
-57.248674 -37.910244 -40.94895
-57.811578 -36.015816 -41.715628
-56.587227 -34.233202 -42.696133
-56.923362 -36.073078 -41.858269
-69.031964 -46.910495 -23.756361
-68.975155 -48.501525 -22.698913
-69.213516 -46.69437 -22.919382
-69.043064 -45.297638 -24.808939
-68.804703 -47.104793 -24.58847
-69.031964 -46.910495 -23.756361
-63.640834 -54.551878 -28.273413
-64.36845 -52.653431 -28.71521
-63.591576 -52.917906 -29.346979
-62.86647 -56.410561 -27.813698
-63.640834 -54.551878 -28.273413
-67.549565 -51.132251 -24.931612
-68.034427 -50.814455 -24.111225
-67.031617 -51.429626 -25.74476
-67.549565 -51.132251 -24.931612
-67.541569 -49.545254 -26.016987
-66.423752 -51.756624 -26.522474
-67.031617 -51.429626 -25.74476
-66.654316 -37.623421 -33.096325
-66.877926 -39.386558 -32.118481
-67.273643 -37.374702 -32.267784
-66.010334 -37.862505 -33.943677
-66.654316 -37.623421 -33.096325
-66.406052 -35.850649 -34.092981
-62.582712 -35.223282 -39.031443
-63.312646 -35.009395 -38.302982
-62.995064 -33.200931 -39.324988
-62.599018 -31.398455 -40.362769
-62.995064 -33.200931 -39.324988
-61.864044 -31.598453 -41.081358
-62.599018 -31.398455 -40.362769
-61.108568 -31.772041 -41.679506
-61.509653 -33.588405 -40.651596
-61.864044 -31.598453 -41.081358
-60.34537 -31.931551 -42.248146
-61.108568 -31.772041 -41.679506
-61.001404 -50.129987 -33.142811
-61.822519 -49.966541 -32.6185
-61.730052 -48.238501 -33.657341
-61.001404 -50.129987 -33.142811
-60.131453 -50.249886 -33.574021
-65.448494 -34.302849 -35.94989
-66.111404 -34.071842 -35.081169
-65.062538 -36.335285 -35.745897
-65.448494 -34.302849 -35.94989
-64.748963 -34.548401 -36.755453
-63.631651 -36.806292 -37.280449
-64.044003 -34.783941 -37.573994
-63.312646 -35.009395 -38.302982
-59.918239 -46.746695 -35.61392
-60.051676 -48.509025 -34.594738
-60.775499 -46.639616 -35.200834
-59.797497 -44.977089 -36.608802
-60.462549 -43.087767 -37.220693
-59.617982 -43.18757 -37.60948
-59.918239 -46.746695 -35.61392
-59.797497 -44.977089 -36.608802
-57.49048 -39.729619 -40.074247
-57.727703 -41.547045 -39.136631
-58.374113 -39.670408 -39.868692
-57.49048 -39.729619 -40.074247
-57.248674 -37.910244 -40.94895
-59.553193 -32.057309 -42.682941
-59.962 -33.88775 -41.684539
-60.34537 -31.931551 -42.248146
-58.748791 -32.171244 -43.068559
-59.553193 -32.057309 -42.682941
-57.907013 -32.253814 -43.321365
-58.328045 -34.096079 -42.372141
-58.748791 -32.171244 -43.068559
-57.049972 -32.32892 -43.508345
-57.907013 -32.253814 -43.321365
-56.587227 -34.233202 -42.696133
-57.049972 -32.32892 -43.508345
-68.731022 -50.264207 -22.436433
-68.912575 -50.048082 -21.599455
-68.975155 -48.501525 -22.698913
-68.40147 -50.549341 -23.277252
-68.731022 -50.264207 -22.436433
-68.426559 -48.982765 -24.369865
-68.034427 -50.814455 -24.111225
-68.40147 -50.549341 -23.277252
-69.051006 -43.645096 -25.817829
-69.043064 -45.297638 -24.808939
-68.770215 -43.819924 -26.648986
-69.051006 -43.645096 -25.817829
-68.360062 -44.06549 -27.478771
-68.405652 -45.737503 -26.470833
-68.770215 -43.819924 -26.648986
-68.267494 -42.376271 -28.488577
-67.902931 -44.29385 -28.310423
-68.360062 -44.06549 -27.478771
-68.157978 -40.656483 -29.463265
-68.267494 -42.376271 -28.488577
-68.001422 -38.923088 -30.44812
-67.653808 -40.871235 -30.305084
-68.157978 -40.656483 -29.463265
-67.820953 -37.169777 -31.407379
-68.001422 -38.923088 -30.44812
-67.597343 -35.406639 -32.385223
-67.273643 -37.374702 -32.267784
-67.820953 -37.169777 -31.407379
-65.790336 -52.061159 -27.293762
-66.423752 -51.756624 -26.522474
-66.390206 -50.147163 -27.601423
-65.087249 -52.369551 -28.007177
-65.037991 -50.735579 -29.080743
-64.36845 -52.653431 -28.71521
-65.790336 -52.061159 -27.293762
-65.087249 -52.369551 -28.007177
-61.924486 -51.677934 -31.572559
-62.653133 -49.786448 -32.087089
-61.822519 -49.966541 -32.6185
-61.975008 -53.361339 -30.513272
-61.924486 -51.677934 -31.572559
-62.029438 -55.020595 -29.445288
-62.80953 -53.157097 -29.973166
-61.975008 -53.361339 -30.513272
-62.034346 -56.646509 -28.366618
-62.029438 -55.020595 -29.445288
-62.036856 -58.240716 -27.275134
-62.86647 -56.410561 -27.813698
-62.034346 -56.646509 -28.366618
3 0 11 10
3 37 13 38
3 2 16 14
3 2 18 16
3 2 20 18
3 1 23 21
3 40 39 24
3 3 27 25
3 5 28 12
3 5 29 28
3 41 30 42
3 6 31 15
3 6 32 31
3 6 33 32
3 7 43 45
3 45 44 17
3 43 44 45
3 7 46 47
3 7 48 49
3 8 50 52
3 52 51 19
3 50 51 52
3 8 53 54
3 55 34 56
3 55 56 57
3 58 35 59
3 60 59 34
3 58 59 60
3 4 36 26
3 9 61 63
3 63 62 22
3 61 62 63
3 9 64 65
3 10 66 67
3 11 68 70
3 70 69 10
3 68 69 70
3 11 71 72
3 73 12 74
3 75 74 3
3 73 74 75
3 13 76 78
3 76 12 77
3 76 77 78
3 13 5 12
3 14 79 81
3 79 15 80
3 79 80 81
3 16 15 14
3 16 6 15
3 16 17 6
3 18 17 16
3 18 7 17
3 18 19 7
3 20 19 18
3 20 8 19
3 21 22 4
3 23 22 21
3 23 9 22
3 82 14 83
3 84 14 85
3 86 2 87
3 88 87 14
3 86 87 88
3 90 89 2
3 24 91 93
3 93 92 1
3 91 92 93
3 95 94 24
3 25 26 0
3 27 26 25
3 27 4 26
3 12 27 3
3 28 27 12
3 28 4 27
3 28 21 4
3 29 21 28
3 29 1 21
3 96 13 97
3 30 98 100
3 98 13 99
3 98 99 100
3 30 5 13
3 15 101 103
3 101 30 102
3 101 102 103
3 31 30 15
3 31 5 30
3 31 29 5
3 32 29 31
3 32 1 29
3 32 24 1
3 33 24 32
3 33 104 106
3 106 105 24
3 104 105 106
3 17 33 6
3 107 33 108
3 109 108 17
3 107 108 109
3 111 110 33
3 19 112 114
3 114 113 7
3 112 113 114
3 116 115 19
3 117 20 118
3 119 118 2
3 117 118 119
3 120 20 121
3 122 8 123
3 124 123 20
3 122 123 124
3 125 8 126
3 128 127 8
3 34 129 131
3 129 130 131
3 34 132 133
3 34 134 136
3 134 10 135
3 134 135 136
3 35 10 34
3 35 0 10
3 137 35 138
3 139 35 140
3 141 0 142
3 143 142 35
3 141 142 143
3 144 25 145
3 146 145 0
3 144 145 146
3 147 25 148
3 149 3 150
3 151 150 25
3 149 150 151
3 152 3 153
3 156 155 3
3 154 155 156
3 26 11 0
3 36 11 26
3 36 157 159
3 159 158 11
3 157 158 159
3 22 36 4
3 160 36 161
3 162 161 22
3 160 161 162
3 164 163 36
3 165 23 166
3 167 166 1
3 165 166 167
3 168 23 169
3 170 9 171
3 172 171 23
3 170 171 172
3 173 9 174
3 177 176 9
3 175 176 177
