ply
format ascii 1.0
element vertex 227
property float x
property float y
property float z
element face 213
property list uchar int vertex_index
end_header
-46.019119 16.391922 -40.99157
-37.521198 17.4846 -48.532227
-34.942738 13.366093 -56.411888
-35.846458 16.589481 -53.094086
-32.037037 13.327522 -53.827911
-31.489237 9.686392 -56.29969
-36.557899 15.115383 -39.38665
-41.911884 17.890045 -45.422741
-40.440544 18.335308 -50.48185
-39.285702 15.925457 -54.57061
-39.11599 11.206589 -57.295738
-35.194626 8.47121 -58.141647
-42.765945 15.304737 -39.756935
-39.0886 16.349297 -43.09481
-35.323471 15.576321 -44.973034
-39.709087 17.927326 -47.174072
-41.195663 18.456867 -48.04726
-38.877983 18.127308 -49.707985
-35.258732 15.243511 -54.932091
-37.430214 16.547157 -54.035995
-37.019512 14.804241 -55.730949
-39.058407 13.787865 -56.12442
-36.895569 12.558992 -57.054573
-37.065277 9.947214 -57.968956
-34.925423 11.067625 -57.493393
-41.227226 14.78854 -38.590359
-40.978844 16.053616 -41.583233
-39.556725 15.41082 -40.148159
-36.054214 15.359661 -42.235275
-35.436634 16.585873 -49.454445
-36.635994 17.336582 -50.944756
-34.553051 16.120426 -51.722588
-33.814766 15.123245 -53.700638
-33.311497 13.609463 -55.340675
-33.09341 11.648247 -56.597511
-31.623741 11.691582 -55.265182
-30.209347 9.535055 -54.736877
-38.17186 15.018719 -38.406345
-44.041523 17.371319 -43.338417
-45.703365 17.689014 -43.681526
-43.49955 18.309086 -46.016354
-42.846081 18.544708 -48.551102
-38.079144 17.67432 -52.011848
-39.769547 17.477493 -52.674393
-41.683792 16.694698 -52.967827
-39.447563 8.327955 -58.047279
-33.168312 9.340063 -57.433632
-46.059807 14.601009 -38.238472
-44.380451 14.13274 -37.681503
-44.361259 15.898724 -40.554218
-42.467812 16.769348 -42.649746
-40.446568 17.177078 -44.45377
-38.378506 17.107292 -45.901733
-37.806709 15.600975 -41.377224
-37.175751 16.184547 -44.236748
-36.350872 16.569042 -46.943733
-46.87574 16.506794 -41.053478
-46.900395 15.6917 -39.723743
-40.477226 14.654673 -37.842625
-41.191997 14.212595 -37.044205
-39.641976 14.965812 -38.621525
-40.391976 15.09968 -39.369259
-40.477226 14.654673 -37.842625
-34.043827 15.697685 -50.822094
-34.994843 16.35315 -50.588516
-34.485619 15.930408 -49.688023
-32.925901 14.225383 -53.764274
-33.256159 14.826462 -52.865597
-32.367294 13.9286 -52.929233
-29.776994 9.250303 -53.749592
-30.376545 10.396216 -54.118015
-29.637661 8.357731 -54.274059
-29.776994 9.250303 -53.749592
-41.321953 18.167752 -50.685268
-42.524721 18.272452 -49.719894
-41.643313 18.440008 -49.516476
-40.329976 15.325033 -54.652802
-41.529021 15.709653 -53.85141
-40.484747 16.310077 -53.769219
-40.219946 11.718512 -56.720821
-40.191154 13.009151 -56.135162
-39.087198 12.497227 -56.710079
-40.32901 10.286734 -57.229259
-40.219946 11.718512 -56.720821
-39.281776 9.767272 -57.671509
-40.494796 8.847417 -57.60503
-40.32901 10.286734 -57.229259
-36.347279 7.785903 -58.290176
-37.282604 8.523905 -58.20383
-36.129952 9.209212 -58.055301
-35.451652 7.080296 -58.234607
-36.347279 7.785903 -58.290176
-45.914875 13.593622 -36.831749
-46.787373 13.764633 -37.005814
-43.573198 14.718739 -38.719219
-43.564509 13.944908 -37.221063
-42.757255 14.530907 -38.25878
-34.88565 15.585316 -46.262474
-35.399351 16.081677 -47.247823
-35.837171 16.072682 -45.958383
-46.573095 17.639166 -43.708933
-45.455524 17.990957 -44.980686
-31.576963 12.975689 -52.856285
-32.367294 13.9286 -52.929233
-31.29039 12.292449 -53.663532
-31.576963 12.975689 -52.856285
-31.558222 8.541951 -56.599495
-30.809829 8.599177 -55.929688
-41.987896 14.272808 -37.675491
-41.191997 14.212595 -37.044205
-41.996586 15.046639 -39.173647
-42.757255 14.530907 -38.25878
-41.987896 14.272808 -37.675491
-35.504862 15.089377 -41.121418
-36.306056 15.237522 -40.810963
-35.756704 14.967237 -39.697106
-35.214487 15.03541 -42.468723
-35.504862 15.089377 -41.121418
-34.849115 15.14374 -43.837603
-35.688842 15.467991 -43.604154
-35.214487 15.03541 -42.468723
-34.465801 15.07001 -45.133026
-34.849115 15.14374 -43.837603
-33.625302 15.325052 -51.876572
-34.043827 15.697685 -50.822094
-34.183909 15.621835 -52.711613
-33.625302 15.325052 -51.876572
-33.256159 14.826462 -52.865597
-31.083742 11.474479 -54.382168
-31.830389 12.509552 -54.546547
-31.29039 12.292449 -53.663532
-30.916544 10.613319 -55.00103
-31.083742 11.474479 -54.382168
-30.376545 10.396216 -54.118015
-30.169884 8.523509 -55.148281
-30.809829 8.599177 -55.929688
-30.849292 9.610723 -55.518283
-30.169884 8.523509 -55.148281
-29.637661 8.357731 -54.274059
-38.206558 14.829974 -36.885572
-38.949543 14.769762 -37.750618
-37.48094 15.02051 -37.439762
-38.206558 14.829974 -36.885572
-36.673959 15.068842 -37.929915
-37.36488 15.067051 -38.896498
-37.48094 15.02051 -37.439762
-35.92728 15.077961 -38.32326
-36.673959 15.068842 -37.929915
-36.04334 15.03142 -36.866524
-35.756704 14.967237 -39.697106
-35.92728 15.077961 -38.32326
-44.353617 18.300993 -46.1481
-45.455524 17.990957 -44.980686
-44.601457 17.99905 -44.84894
-44.026882 18.418804 -47.415474
-44.353617 18.300993 -46.1481
-43.172815 18.426897 -47.283728
-43.747099 18.319309 -48.642174
-44.026882 18.418804 -47.415474
-43.747099 18.319309 -48.642174
-42.524721 18.272452 -49.719894
-40.986455 17.738844 -51.78154
-41.321953 18.167752 -50.685268
-40.105046 17.906401 -51.578122
-41.943577 17.347447 -51.928257
-40.986455 17.738844 -51.78154
-40.726669 17.086095 -52.82111
-42.912235 16.889137 -51.970383
-41.943577 17.347447 -51.928257
-42.734293 16.017204 -52.951065
-42.912235 16.889137 -51.970383
-42.734293 16.017204 -52.951065
-41.529021 15.709653 -53.85141
-40.216328 14.256237 -55.429707
-40.329976 15.325033 -54.652802
-39.172055 14.856661 -55.347515
-40.216328 14.256237 -55.429707
-40.191154 13.009151 -56.135162
-40.72546 7.30237 -57.899155
-40.494796 8.847417 -57.60503
-39.729565 6.803681 -58.195705
-41.007462 5.778097 -58.04758
-40.72546 7.30237 -57.899155
-38.473747 7.714276 -58.242992
-38.25642 9.137584 -58.008117
-37.282604 8.523905 -58.20383
-39.729565 6.803681 -58.195705
-38.473747 7.714276 -58.242992
-32.397759 8.368787 -57.166466
-32.328775 9.513227 -56.866661
-31.558222 8.541951 -56.599495
-33.339136 8.065213 -57.627007
-32.397759 8.368787 -57.166466
-34.352293 7.630786 -57.981014
-34.181469 8.905636 -57.787639
-33.339136 8.065213 -57.627007
-35.451652 7.080296 -58.234607
-34.352293 7.630786 -57.981014
-46.920738 14.796243 -38.347195
-47.648304 13.959868 -37.114536
-46.787373 13.764633 -37.005814
-46.039463 15.496465 -39.615021
-46.900395 15.6917 -39.723743
-46.920738 14.796243 -38.347195
-44.223038 13.246173 -36.201664
-43.564509 13.944908 -37.221063
-45.075197 13.359488 -36.553264
-44.223038 13.246173 -36.201664
-45.220129 14.366874 -37.959987
-45.914875 13.593622 -36.831749
-45.075197 13.359488 -36.553264
-38.864293 15.214769 -39.277252
-39.641976 14.965812 -38.621525
-38.949543 14.769762 -37.750618
-34.942232 16.090092 -48.50318
-35.893753 16.577458 -48.199089
-35.399351 16.081677 -47.247823
-34.485619 15.930408 -49.688023
-34.942232 16.090092 -48.50318
-34.88565 15.585316 -46.262474
-34.465801 15.07001 -45.133026
-46.717863 17.15534 -42.398456
-46.87574 16.506794 -41.053478
-45.861242 17.040468 -42.336548
-47.587593 17.105491 -42.425863
-46.717863 17.15534 -42.398456
-46.573095 17.639166 -43.708933
3 0 56 57
3 1 17 15
3 2 20 18
3 2 22 20
3 2 24 22
3 58 25 59
3 60 27 61
3 62 61 25
3 60 61 62
3 63 31 64
3 65 64 29
3 63 64 65
3 4 66 68
3 66 32 67
3 66 67 68
3 4 33 32
3 4 35 33
3 69 36 70
3 72 71 36
3 7 40 38
3 8 41 16
3 8 73 75
3 75 74 41
3 73 74 75
3 3 42 30
3 9 43 19
3 9 44 43
3 9 76 78
3 78 77 44
3 76 77 78
3 10 79 81
3 81 80 21
3 79 80 81
3 10 82 83
3 10 84 86
3 84 45 85
3 84 85 86
3 11 87 89
3 89 88 23
3 87 88 89
3 11 90 91
3 5 46 34
3 92 47 93
3 12 94 96
3 94 48 95
3 94 95 96
3 12 49 48
3 12 50 49
3 13 51 26
3 13 52 51
3 6 53 37
3 14 54 28
3 14 55 54
3 14 97 99
3 99 98 55
3 97 98 99
3 101 100 39
3 102 4 103
3 105 104 4
3 15 16 7
3 17 16 15
3 17 8 16
3 18 19 3
3 20 19 18
3 20 9 19
3 20 21 9
3 22 21 20
3 22 10 21
3 22 23 10
3 24 23 22
3 24 11 23
3 107 106 5
3 25 108 109
3 25 110 112
3 110 12 111
3 110 111 112
3 25 26 12
3 27 26 25
3 27 13 26
3 113 28 114
3 115 114 6
3 113 114 115
3 116 28 117
3 118 14 119
3 120 119 28
3 118 119 120
3 122 121 14
3 29 30 1
3 31 30 29
3 31 3 30
3 123 31 124
3 32 125 127
3 125 31 126
3 125 126 127
3 32 3 31
3 32 18 3
3 33 18 32
3 33 2 18
3 33 34 2
3 35 34 33
3 35 5 34
3 128 35 129
3 130 129 4
3 128 129 130
3 36 131 133
3 131 35 132
3 131 132 133
3 36 5 35
3 36 134 136
3 136 135 5
3 134 135 136
3 138 137 36
3 139 37 140
3 141 37 142
3 143 6 144
3 145 144 37
3 143 144 145
3 146 6 147
3 146 147 148
3 150 149 6
3 38 39 0
3 40 39 38
3 40 151 153
3 153 152 39
3 151 152 153
3 16 40 7
3 41 40 16
3 41 154 156
3 156 155 40
3 154 155 156
3 41 157 158
3 160 159 41
3 30 17 1
3 42 17 30
3 42 8 17
3 19 42 3
3 43 42 19
3 43 8 42
3 43 161 163
3 163 162 8
3 161 162 163
3 44 164 166
3 166 165 43
3 164 165 166
3 44 167 168
3 44 169 170
3 172 171 44
3 21 173 175
3 175 174 9
3 173 174 175
3 177 176 21
3 45 178 179
3 45 180 182
3 180 181 182
3 23 45 10
3 183 45 184
3 185 184 23
3 183 184 185
3 187 186 45
3 34 24 2
3 46 24 34
3 46 11 24
3 188 46 189
3 190 189 5
3 188 189 190
3 191 46 192
3 193 11 194
3 195 194 46
3 193 194 195
3 197 196 11
3 47 198 200
3 198 199 200
3 47 201 203
3 201 0 202
3 201 202 203
3 48 204 205
3 48 206 207
3 48 208 210
3 208 47 209
3 208 209 210
3 49 47 48
3 49 0 47
3 49 38 0
3 50 38 49
3 50 7 38
3 26 50 12
3 51 50 26
3 51 7 50
3 51 15 7
3 52 15 51
3 52 1 15
3 37 211 213
3 211 27 212
3 211 212 213
3 53 27 37
3 53 13 27
3 28 53 6
3 54 53 28
3 54 13 53
3 54 52 13
3 55 52 54
3 55 1 52
3 55 29 1
3 214 29 215
3 216 215 55
3 214 215 216
3 218 217 29
3 220 219 14
3 39 221 223
3 223 222 0
3 221 222 223
3 226 225 39
3 224 225 226
