ply
format ascii 1.0
element vertex 172
property float x
property float y
property float z
element face 156
property list uchar int vertex_index
end_header
1.485544 47.925331 27.065704
2.691233 60.673286 23.156269
-1.441568 47.585472 18.319355
-4.083036 42.669525 16.306097
2.54048 56.449348 29.637058
-0.492823 44.721798 24.300434
0.870848 51.417725 21.060843
2.507483 50.139954 30.824898
2.30562 54.325829 24.79949
2.093412 57.816711 18.423006
-0.588524 50.963318 16.484455
-1.88933 48.746414 15.242553
0.585905 46.448486 25.574833
0.183834 48.113045 22.614086
1.176294 49.742287 24.107464
-5.358316 39.773987 15.458668
2.577557 50.884789 33.132088
2.616333 58.664848 26.435268
2.573288 55.480705 27.082943
2.563524 57.501419 23.903858
2.199242 56.166115 21.643198
2.551949 59.326485 20.654377
1.789 46.0093 29.903934
-2.228003 44.091564 20.252853
-3.516455 41.671902 19.305584
-2.755613 45.270691 17.243265
-3.251757 46.248703 14.181438
2.463554 54.028786 32.738937
-1.681803 42.737606 23.205526
-0.973789 46.23455 21.341606
-0.209023 49.628006 19.579136
0.573729 52.921318 17.946762
-4.782438 38.96833 18.453808
2.330635 47.066841 31.618816
2.140802 49.155556 28.806721
2.579599 53.272285 30.168293
2.410574 52.310966 27.869816
1.93593 51.137459 25.852264
1.728184 52.97673 22.794424
1.523623 54.64669 19.659843
-0.769027 51.528751 14.912347
-0.150665 52.596306 15.632072
1.035724 47.186909 26.320269
0.788442 45.561665 27.007238
1.238261 46.300087 27.752673
2.480889 51.145287 34.424465
2.568913 49.603924 34.538189
1.929143 45.033678 31.237906
1.588091 44.430296 30.540093
-2.779022 47.9706 13.149711
-2.570543 47.497558 14.711996
-2.097809 49.219456 13.680269
-3.475064 46.624737 12.626797
-2.779022 47.9706 13.149711
-0.808655 42.980259 25.197321
-0.248167 43.902113 25.741455
-1.087313 43.729702 23.75298
-1.403145 41.988163 24.649867
-0.808655 42.980259 25.197321
-5.664854 37.876492 16.554274
-5.938392 38.178177 15.054727
2.419059 48.603397 31.221857
2.457776 47.449733 32.622747
2.5462 48.98629 32.225788
1.708689 56.971664 17.445169
1.423795 55.386654 18.063588
1.808517 56.231701 19.041424
-1.41943 50.420299 14.291396
-1.238927 49.854866 15.863504
-0.769027 51.528751 14.912347
-2.097809 49.219456 13.680269
-1.41943 50.420299 14.291396
0.291197 44.765457 26.378655
0.788442 45.561665 27.007238
0.046541 45.585142 24.937634
-0.248167 43.902113 25.741455
0.291197 44.765457 26.378655
-4.978859 41.614317 14.356429
-4.720676 41.221756 15.882383
-4.341219 43.062086 14.780144
-5.608334 40.06478 13.934109
-4.978859 41.614317 14.356429
-5.938392 38.178177 15.054727
-5.608334 40.06478 13.934109
2.581237 49.358707 33.379383
2.568913 49.603924 34.538189
2.54252 50.512372 31.978493
2.5462 48.98629 32.225788
2.581237 49.358707 33.379383
1.389989 45.342072 29.171788
1.588091 44.430296 30.540093
1.637272 46.967315 28.484819
1.238261 46.300087 27.752673
1.389989 45.342072 29.171788
-2.872229 42.881733 19.779218
-3.218351 41.07948 20.778005
-2.574126 42.28931 21.25164
-3.925579 44.851675 13.717814
-4.341219 43.062086 14.780144
-3.667396 44.459114 15.243768
-3.925579 44.851675 13.717814
-3.475064 46.624737 12.626797
2.292896 54.30682 34.147261
2.423888 52.717286 34.22789
2.360725 55.629875 32.589104
2.292896 54.30682 34.147261
2.399188 56.840156 31.038164
2.502017 55.239067 31.187998
2.360725 55.629875 32.589104
2.469906 58.052692 29.427169
2.399188 56.840156 31.038164
2.507833 59.160442 27.826273
2.578406 57.557098 28.036163
2.469906 58.052692 29.427169
2.580401 60.262524 26.172992
2.507833 59.160442 27.826273
2.617851 61.266742 24.533493
2.653783 59.669067 24.795769
2.580401 60.262524 26.172992
-1.995173 40.939319 24.171763
-1.403145 41.988163 24.649867
-2.301025 41.612331 22.727976
-1.995173 40.939319 24.171763
-1.954903 43.414585 21.72919
-2.574126 42.28931 21.25164
-2.301025 41.612331 22.727976
0.430462 53.575306 16.363225
-0.150665 52.596306 15.632072
-0.007398 51.942318 17.215609
-3.836975 39.817763 20.349348
-3.218351 41.07948 20.778005
-4.469966 38.465976 19.92346
-3.836975 39.817763 20.349348
-4.149446 40.320116 18.879696
-5.065345 37.066647 19.521918
-4.469966 38.465976 19.92346
-5.376915 37.473663 18.051843
-5.070377 39.371158 16.956238
-5.664854 37.876492 16.554274
-5.065345 37.066647 19.521918
-5.376915 37.473663 18.051843
2.408199 45.991472 32.924512
2.457776 47.449733 32.622747
2.19996 45.562449 32.095346
2.408199 45.991472 32.924512
2.059817 46.538071 30.761375
1.929143 45.033678 31.237906
2.19996 45.562449 32.095346
2.520555 52.456787 32.935513
2.480889 51.145287 34.424465
2.423888 52.717286 34.22789
0.948848 54.523967 17.207048
1.048676 53.784004 18.803303
1.423795 55.386654 18.063588
0.430462 53.575306 16.363225
0.948848 54.523967 17.207048
2.690586 62.259799 22.848145
2.617851 61.266742 24.533493
2.726881 61.573452 21.488323
2.690586 62.259799 22.848145
2.657239 60.900052 20.237377
2.621591 59.999885 21.905323
2.726881 61.573452 21.488323
2.544126 60.137692 19.004043
2.657239 60.900052 20.237377
2.314858 59.382804 17.888357
2.32268 58.571598 19.538691
2.544126 60.137692 19.004043
2.039813 58.540676 16.789476
2.314858 59.382804 17.888357
1.708689 56.971664 17.445169
2.039813 58.540676 16.789476
3 41 40 10
3 0 42 44
3 42 12 43
3 42 43 44
3 0 14 12
3 45 16 46
3 1 19 17
3 1 21 19
3 47 22 48
3 2 25 23
3 49 26 50
3 51 50 11
3 49 50 51
3 53 52 26
3 5 54 55
3 5 56 58
3 56 28 57
3 56 57 58
3 5 29 28
3 6 30 13
3 6 31 30
3 3 32 24
3 60 59 15
3 7 61 63
3 61 33 62
3 61 62 63
3 7 34 33
3 4 35 27
3 8 36 18
3 8 37 36
3 8 38 37
3 9 39 20
3 9 64 66
3 66 65 39
3 64 65 66
3 10 11 2
3 67 11 68
3 69 68 10
3 67 68 69
3 71 70 11
3 12 72 73
3 12 74 76
3 74 5 75
3 74 75 76
3 12 13 5
3 14 13 12
3 14 6 13
3 77 15 78
3 79 78 3
3 77 78 79
3 80 15 81
3 83 82 15
3 16 84 85
3 16 86 88
3 86 7 87
3 86 87 88
3 17 18 4
3 19 18 17
3 19 8 18
3 19 20 8
3 21 20 19
3 21 9 20
3 22 89 90
3 22 91 93
3 91 0 92
3 91 92 93
3 23 94 96
3 94 24 95
3 94 95 96
3 25 24 23
3 25 3 24
3 11 25 2
3 26 25 11
3 26 3 25
3 26 97 99
3 99 98 3
3 97 98 99
3 101 100 26
3 102 27 103
3 104 27 105
3 106 4 107
3 108 107 27
3 106 107 108
3 109 4 110
3 111 17 112
3 113 112 4
3 111 112 113
3 114 17 115
3 116 1 117
3 118 117 17
3 116 117 118
3 28 119 120
3 28 121 122
3 28 123 125
3 123 23 124
3 123 124 125
3 29 23 28
3 29 2 23
3 13 29 5
3 30 29 13
3 30 2 29
3 30 10 2
3 31 10 30
3 31 126 128
3 128 127 10
3 126 127 128
3 24 129 130
3 32 131 133
3 133 132 24
3 131 132 133
3 32 134 135
3 15 32 3
3 136 32 137
3 138 137 15
3 136 137 138
3 140 139 32
3 33 141 142
3 33 143 144
3 33 145 147
3 145 22 146
3 145 146 147
3 34 22 33
3 34 0 22
3 27 148 150
3 148 16 149
3 148 149 150
3 35 16 27
3 35 7 16
3 18 35 4
3 36 35 18
3 36 7 35
3 36 34 7
3 37 34 36
3 37 0 34
3 37 14 0
3 38 14 37
3 38 6 14
3 20 38 8
3 39 38 20
3 39 6 38
3 39 31 6
3 151 31 152
3 153 152 39
3 151 152 153
3 155 154 31
3 156 1 157
3 158 1 159
3 160 21 161
3 162 161 1
3 160 161 162
3 163 21 164
3 165 9 166
3 167 166 21
3 165 166 167
3 168 9 169
3 171 170 9
