ply
format ascii 1.0
element vertex 118
property float x
property float y
property float z
element face 103
property list uchar int vertex_index
end_header
37.802086 6.137817 2.243454
36.417244 20.926556 -1.394264
37.07827 13.653709 0.75845
39.057888 -1.493828 -1.25633
37.773491 11.909159 -4.119274
38.432858 5.043913 -2.411694
38.36076 2.128016 0.556534
38.710777 -1.318478 0.928539
38.151619 2.404671 2.731031
36.661045 19.859722 -3.768175
37.435951 15.318039 -5.144032
36.977585 16.40876 -2.60845
37.442104 9.902306 1.584244
37.672153 9.259663 -0.723122
38.019833 5.667048 -0.001287
38.743591 1.705875 -1.749531
37.433975 10.35268 3.684016
36.728706 17.345051 -0.232969
36.721935 18.070786 1.940898
37.071606 14.246887 2.899754
38.737843 7.590601 -5.83452
37.32029 12.857479 -1.593992
38.108887 8.465044 -3.207081
39.039223 4.327358 -4.966879
39.313812 1.165739 -4.184519
36.292631 22.635949 -2.063378
36.175252 24.830072 -1.638249
36.299865 23.12068 -0.969135
36.539144 20.393139 -2.58122
36.414532 22.102532 -3.250333
36.292631 22.635949 -2.063378
37.547836 10.475496 4.615504
37.376818 12.482328 4.239008
36.704517 20.22106 2.351313
36.568443 19.923792 1.36896
37.195633 14.429432 3.846877
37.027438 16.399545 3.385745
37.376818 12.482328 4.239008
37.252791 12.299784 3.291885
37.195633 14.429432 3.846877
39.242457 -3.015588 -1.123374
39.449688 -3.002721 -2.141313
38.907409 -2.980819 1.01702
38.605081 -1.286144 1.98703
38.093266 11.397229 -5.44926
37.924496 13.101669 -5.96164
37.604721 13.613599 -4.631653
38.255667 9.74988 -4.976897
38.575441 9.23795 -6.306883
38.093266 11.397229 -5.44926
39.313387 -1.651951 -2.385255
39.156239 -0.052099 -2.631856
38.90074 0.106024 -1.50293
39.449688 -3.002721 -2.141313
39.313387 -1.651951 -2.385255
38.325502 0.575431 2.888276
38.605081 -1.286144 1.98703
38.431198 0.543096 1.829785
36.523724 21.507089 -4.423297
36.414532 22.102532 -3.250333
36.883702 19.246988 -5.026168
36.523724 21.507089 -4.423297
37.048498 17.588881 -4.456104
37.271155 16.976146 -5.714097
36.883702 19.246988 -5.026168
37.610036 8.393614 3.992417
37.794092 6.286182 3.272136
37.618031 8.245248 2.963735
37.610036 8.393614 3.992417
37.547836 10.475496 4.615504
36.416097 21.351677 -0.298621
36.299865 23.12068 -0.969135
36.571829 19.560924 0.282027
36.572975 19.135804 -0.813616
36.416097 21.351677 -0.298621
36.725321 17.707918 0.853965
36.571829 19.560924 0.282027
36.568443 19.923792 1.36896
36.852602 18.311495 2.906317
36.704517 20.22106 2.351313
36.896771 16.158836 2.420326
36.852602 18.311495 2.906317
37.027438 16.399545 3.385745
39.068901 -2.927913 -0.030939
39.242457 -3.015588 -1.123374
38.884332 -1.406153 -0.163895
39.068901 -2.927913 -0.030939
38.907409 -2.980819 1.01702
37.968858 4.419609 3.515924
37.976852 4.271244 2.487242
37.794092 6.286182 3.272136
38.134166 2.472319 3.743654
37.968858 4.419609 3.515924
38.325502 0.575431 2.888276
38.134166 2.472319 3.743654
37.75313 14.73385 -6.473107
37.271155 16.976146 -5.714097
37.75313 14.73385 -6.473107
37.924496 13.101669 -5.96164
39.141699 7.163885 -7.202001
38.575441 9.23795 -6.306883
39.287764 5.604197 -6.73692
39.141699 7.163885 -7.202001
39.438454 3.972576 -6.3031
39.287764 5.604197 -6.73692
38.888533 5.958979 -5.400699
39.563751 2.461654 -5.855772
39.438454 3.972576 -6.3031
39.701046 0.880844 -5.464592
39.563751 2.461654 -5.855772
39.176518 2.746549 -4.575699
39.804126 -0.535094 -5.037452
39.701046 0.880844 -5.464592
39.441349 -0.322167 -3.84935
39.028701 1.435807 -2.967025
39.156239 -0.052099 -2.631856
39.804126 -0.535094 -5.037452
39.441349 -0.322167 -3.84935
3 0 8 6
3 1 25 27
3 25 26 27
3 1 28 30
3 28 9 29
3 28 29 30
3 1 11 9
3 0 14 12
3 0 6 14
3 32 31 16
3 33 18 34
3 35 19 36
3 37 16 38
3 39 38 19
3 37 38 39
3 3 40 41
3 43 42 7
3 4 44 46
3 46 45 10
3 44 45 46
3 4 47 49
3 47 20 48
3 47 48 49
3 2 21 17
3 5 22 13
3 5 23 22
3 5 24 23
3 3 50 52
3 52 51 15
3 50 51 52
3 3 53 54
3 6 7 3
3 8 7 6
3 8 55 57
3 57 56 7
3 55 56 57
3 9 58 59
3 9 60 61
3 9 62 64
3 62 10 63
3 62 63 64
3 11 10 9
3 11 4 10
3 12 13 2
3 14 13 12
3 14 5 13
3 14 15 5
3 6 15 14
3 6 3 15
3 16 65 67
3 67 66 0
3 65 66 67
3 69 68 16
3 70 1 71
3 72 17 73
3 74 73 1
3 72 73 74
3 18 75 77
3 75 17 76
3 75 76 77
3 18 2 17
3 78 18 79
3 19 80 82
3 80 18 81
3 80 81 82
3 19 2 18
3 19 12 2
3 16 12 19
3 16 0 12
3 7 83 85
3 85 84 3
3 83 84 85
3 87 86 7
3 88 8 89
3 90 89 0
3 88 89 90
3 91 8 92
3 94 93 8
3 10 95 96
3 98 97 10
3 20 99 100
3 20 101 102
3 17 11 1
3 21 11 17
3 21 4 11
3 13 21 2
3 22 21 13
3 22 4 21
3 22 20 4
3 23 20 22
3 23 103 105
3 105 104 20
3 103 104 105
3 23 106 107
3 24 108 110
3 110 109 23
3 108 109 110
3 24 111 112
3 15 24 5
3 113 24 114
3 115 114 15
3 113 114 115
3 117 116 24
