ply
format ascii 1.0
element vertex 124
property float x
property float y
property float z
element face 109
property list uchar int vertex_index
end_header
0.865461 4.054701 66.983788
3.081182 -7.746293 58.332222
0.021975 1.778646 71.477951
0.882 -4.254745 66.882256
2.355394 -10.159456 62.170074
1.969002 -1.955137 62.624168
1.751017 6.165474 62.397148
0.411201 2.943499 69.253563
0.348358 -1.239647 69.221474
0.862968 -0.086048 67.020546
1.458942 -3.093626 64.73893
1.381401 1.030321 64.814232
1.842539 2.120527 62.619644
1.331226 5.1231 64.690758
2.825466 -8.95323 60.207581
3.139957 -13.018445 59.886093
3.432821 -11.788519 58.039879
3.08098 -6.527262 56.548676
0.302542 -5.444114 69.041588
0.934324 -8.43184 66.626671
1.733059 -11.37089 64.210777
1.57369 -7.23516 64.516434
2.13842 -6.054155 62.454491
2.560879 -4.883133 60.451279
2.783976 -3.71067 58.516273
2.34906 -0.828014 60.55098
2.620501 -14.245018 61.840065
3.266968 -9.147685 57.319744
3.442788 -11.168798 57.173572
3.257002 -9.767406 58.186051
3.081081 -7.136777 57.440449
3.266868 -8.53817 56.427971
3.266968 -9.147685 57.319744
-0.04277 -0.328772 71.439442
-0.119098 1.166489 72.557259
1.969501 4.68361 61.425365
2.015262 2.661137 61.536614
1.796778 4.143 62.508396
1.910955 6.684836 61.260402
1.969501 4.68361 61.425365
3.318337 -15.034716 59.722553
3.483801 -14.416702 58.798042
2.777345 -3.115179 57.585262
2.66551 -1.702786 58.523445
3.630232 -13.80174 57.874935
3.483801 -14.416702 58.798042
3.286389 -12.403482 58.962986
3.652363 -13.178581 57.018619
3.630232 -13.80174 57.874935
3.652363 -13.178581 57.018619
3.442788 -11.168798 57.173572
3.131877 -7.908216 55.616665
3.266868 -8.53817 56.427971
2.946251 -5.903654 55.700577
3.131877 -7.908216 55.616665
0.120422 -1.837918 70.311203
-0.04277 -0.328772 71.439442
0.185167 0.2695 70.349713
0.097513 -3.940152 70.22126
0.120422 -1.837918 70.311203
0.32545 -3.34188 69.131531
0.039403 -6.053793 70.123352
0.097513 -3.940152 70.22126
0.294906 -7.544861 68.908512
0.039403 -6.053793 70.123352
0.610797 -9.038723 67.701054
0.294906 -7.544861 68.908512
0.618433 -6.937977 67.83413
0.982144 -10.5104 66.473335
0.610797 -9.038723 67.701054
1.333692 -9.901365 65.418724
1.381512 -11.979926 65.265389
0.982144 -10.5104 66.473335
2.448053 -0.261458 59.540799
2.66551 -1.702786 58.523445
2.566518 -2.269342 59.533626
2.268522 1.186866 60.502282
2.0958 0.646257 61.585312
2.015262 2.661137 61.536614
2.448053 -0.261458 59.540799
2.268522 1.186866 60.502282
-0.020109 3.270391 72.529697
-0.119098 1.166489 72.557259
0.08619 3.870423 71.429184
-0.020109 3.270391 72.529697
0.280803 4.45285 70.31699
0.216588 2.361073 70.365757
0.08619 3.870423 71.429184
0.444477 5.017133 69.170372
0.280803 4.45285 70.31699
0.671607 5.572734 68.035484
0.638331 3.4991 68.118675
0.444477 5.017133 69.170372
0.871318 6.106469 66.856244
0.671607 5.572734 68.035484
1.837022 -13.420443 64.051181
1.381512 -11.979926 65.265389
2.280743 -14.857507 62.865825
1.837022 -13.420443 64.051181
2.17678 -12.807954 63.025421
2.775183 -16.261993 61.687886
2.280743 -14.857507 62.865825
3.058609 -15.648003 60.699539
2.880229 -13.631732 60.863079
3.318337 -15.034716 59.722553
2.775183 -16.261993 61.687886
3.058609 -15.648003 60.699539
2.925847 -4.523475 56.601464
2.932478 -5.118966 57.532474
2.777345 -3.115179 57.585262
2.946251 -5.903654 55.700577
2.925847 -4.523475 56.601464
1.104201 6.640669 65.709729
1.098343 4.5889 65.837273
0.871318 6.106469 66.856244
1.314157 7.151966 64.51234
1.104201 6.640669 65.709729
1.524053 7.673153 63.365536
1.541122 5.644287 63.543953
1.314157 7.151966 64.51234
1.717375 8.172902 62.164074
1.524053 7.673153 63.365536
1.910955 6.684836 61.260402
1.717375 8.172902 62.164074
3 0 9 7
3 0 11 9
3 0 13 11
3 1 16 14
3 1 27 29
3 29 28 16
3 27 28 29
3 1 30 32
3 30 17 31
3 30 31 32
3 2 33 34
3 3 18 8
3 3 19 18
3 3 21 19
3 5 22 10
3 5 23 22
3 5 25 23
3 6 35 37
3 37 36 12
3 35 36 37
3 6 38 39
3 4 26 20
3 41 40 15
3 43 42 24
3 7 8 2
3 9 8 7
3 9 3 8
3 9 10 3
3 11 10 9
3 11 5 10
3 11 12 5
3 13 12 11
3 13 6 12
3 14 15 4
3 16 15 14
3 16 44 46
3 46 45 15
3 44 45 46
3 16 47 48
3 50 49 16
3 17 51 52
3 17 53 54
3 8 55 57
3 57 56 2
3 55 56 57
3 18 58 60
3 60 59 8
3 58 59 60
3 18 61 62
3 18 63 64
3 19 65 67
3 67 66 18
3 65 66 67
3 19 68 69
3 19 70 72
3 70 20 71
3 70 71 72
3 21 20 19
3 21 4 20
3 10 21 3
3 22 21 10
3 22 4 21
3 22 14 4
3 23 14 22
3 23 1 14
3 23 24 1
3 25 24 23
3 25 73 75
3 75 74 24
3 73 74 75
3 12 25 5
3 76 25 77
3 78 77 12
3 76 77 78
3 80 79 25
3 81 2 82
3 83 2 84
3 85 7 86
3 87 86 2
3 85 86 87
3 88 7 89
3 90 0 91
3 92 91 7
3 90 91 92
3 94 93 0
3 20 95 96
3 26 97 99
3 99 98 20
3 97 98 99
3 26 100 101
3 15 26 4
3 102 26 103
3 104 103 15
3 102 103 104
3 106 105 26
3 24 17 1
3 107 17 108
3 109 108 24
3 107 108 109
3 111 110 17
3 112 13 113
3 114 113 0
3 112 113 114
3 115 13 116
3 117 6 118
3 119 118 13
3 117 118 119
3 120 6 121
3 123 122 6
