ply
format ascii 1.0
element vertex 103
property float x
property float y
property float z
element face 81
property list uchar int vertex_index
end_header
0.837196 37.18626 31.773525
-1.199747 47.994343 32.503166
-0.070536 44.671894 28.762617
-0.801781 40.420868 35.141296
4.606735 36.010853 23.389292
2.067709 40.843422 25.762974
-1.038538 44.19519 33.852306
0.362598 40.942715 30.298248
0.906322 42.852737 27.174282
1.419853 39.105896 28.794781
2.613262 37.04208 27.457111
-0.453808 48.37788 27.168121
-0.787977 46.366817 30.537983
-0.477789 42.618145 31.981834
-0.103258 38.870178 33.366058
3.328236 38.580029 24.510496
1.391574 36.245184 31.063004
1.682902 37.205002 29.573631
1.128525 38.146078 30.284153
1.089132 35.289402 32.481493
1.391574 36.245184 31.063004
-1.245548 49.903778 31.800038
-1.2513 48.793518 33.578531
-1.115651 49.055679 30.769948
-1.245548 49.903778 31.800038
-0.993862 47.18058 31.520575
-0.909766 48.241917 29.787357
-1.115651 49.055679 30.769948
-0.644863 38.544148 35.75629
-0.295601 37.768803 34.868671
-0.452519 39.645523 34.253677
5.220295 34.557184 22.875751
4.979092 36.552612 21.931325
4.849783 34.015423 24.283463
5.220295 34.557184 22.875751
0.173198 45.610592 27.12744
-0.018438 47.463585 26.330192
-0.262172 46.524887 27.965369
1.792624 42.706314 24.883051
1.211931 43.710971 25.588705
1.487015 41.848079 26.468628
2.415845 41.607137 24.224965
1.792624 42.706314 24.883051
2.697972 39.711726 25.136735
3.046108 40.475441 23.598726
2.415845 41.607137 24.224965
3.237299 35.867924 26.859676
2.877792 35.102201 28.270454
-1.246007 46.859105 34.20631
-1.2513 48.793518 33.578531
-1.165402 44.959528 34.88088
-1.119142 46.094766 33.177736
-1.246007 46.859105 34.20631
-1.124344 43.045768 35.477758
-1.165402 44.959528 34.88088
-1.005966 41.158608 36.122253
-0.92016 42.308029 34.496801
-1.124344 43.045768 35.477758
-0.92355 39.266998 36.688519
-1.005966 41.158608 36.122253
4.337631 37.95245 22.45521
4.979092 36.552612 21.931325
2.279606 36.173094 28.904796
2.016558 38.073988 28.125946
1.682902 37.205002 29.573631
2.877792 35.102201 28.270454
2.279606 36.173094 28.904796
-0.742681 49.247448 28.102425
-0.617058 50.218761 26.344789
-0.620893 47.372349 28.853052
-0.742681 49.247448 28.102425
-0.909766 48.241917 29.787357
0.112806 36.99237 34.029089
0.583033 36.150411 33.232822
0.366969 38.028219 32.569792
0.112806 36.99237 34.029089
-0.295601 37.768803 34.868671
-0.644863 38.544148 35.75629
-0.92355 39.266998 36.688519
-0.245725 49.287109 25.461172
-0.617058 50.218761 26.344789
-0.245725 49.287109 25.461172
-0.018438 47.463585 26.330192
0.661627 44.701014 26.333273
0.173198 45.610592 27.12744
0.417893 43.762315 27.968449
0.661627 44.701014 26.333273
1.211931 43.710971 25.588705
3.698381 39.237038 23.015812
3.046108 40.475441 23.598726
3.967485 37.295441 23.949894
4.337631 37.95245 22.45521
3.698381 39.237038 23.015812
3.594786 36.636899 25.386368
2.970749 37.811054 25.983804
3.237299 35.867924 26.859676
4.234036 35.352311 24.825767
3.967485 37.295441 23.949894
3.594786 36.636899 25.386368
4.849783 34.015423 24.283463
4.234036 35.352311 24.825767
1.089132 35.289402 32.481493
0.583033 36.150411 33.232822
3 0 9 7
3 0 16 18
3 18 17 9
3 16 17 18
3 0 19 20
3 1 21 22
3 1 23 24
3 1 25 27
3 25 12 26
3 25 26 27
3 3 13 6
3 3 14 13
3 3 28 30
3 30 29 14
3 28 29 30
3 4 31 32
3 4 33 34
3 2 35 37
3 37 36 11
3 35 36 37
3 5 38 40
3 40 39 8
3 38 39 40
3 5 41 42
3 5 43 45
3 43 15 44
3 43 44 45
3 47 46 10
3 48 1 49
3 50 6 51
3 52 51 1
3 50 51 52
3 53 6 54
3 55 3 56
3 57 56 6
3 55 56 57
3 59 58 3
3 60 4 61
3 7 8 2
3 9 8 7
3 9 5 8
3 9 10 5
3 62 10 63
3 64 63 9
3 62 63 64
3 66 65 10
3 67 11 68
3 12 69 71
3 69 11 70
3 69 70 71
3 12 2 11
3 6 12 1
3 13 12 6
3 13 2 12
3 13 7 2
3 14 7 13
3 14 0 7
3 14 72 74
3 74 73 0
3 72 73 74
3 76 75 14
3 78 77 3
3 11 79 80
3 82 81 11
3 8 83 85
3 85 84 2
3 83 84 85
3 87 86 8
3 15 88 89
3 15 90 92
3 90 4 91
3 90 91 92
3 10 15 5
3 93 15 94
3 95 94 10
3 93 94 95
3 96 4 97
3 98 97 15
3 96 97 98
3 100 99 4
3 102 101 0
