ply
format ascii 1.0
element vertex 249
property float x
property float y
property float z
element face 254
property list uchar int vertex_index
end_header
-52.61248 -1.717314 -19.98835
-45.10107 0.935953 -20.564217
-50.705627 -12.07436 -10.388014
-41.352806 -13.170429 -2.149315
-43.700638 -6.905521 -11.4102
-48.922939 -16.526711 -5.77117
-38.813641 -8.892638 2.896078
-39.403046 -6.690345 -1.380789
-42.597069 -10.266764 -6.787601
-40.106728 -4.218551 -5.78743
-40.819466 -1.484697 -10.242615
-48.752422 -1.011925 -20.881912
-48.703331 3.93075 -25.706257
-51.970734 -7.07341 -15.119719
-43.765949 -17.685381 -2.076567
-45.524006 -14.31044 -6.770746
-47.020962 -10.343378 -11.469019
-48.133499 -5.854087 -16.156614
-44.575981 -3.137569 -15.998495
-41.454166 1.512341 -14.682423
-50.762737 -17.147137 -5.07748
-47.882908 -18.52696 -3.517826
-39.748833 -5.487418 -3.573498
-38.735764 -1.675419 -2.891964
-38.979027 -0.512676 -5.039742
-46.883541 -0.241838 -20.88726
-48.825142 1.466234 -23.279686
-46.957512 2.057243 -23.226555
-52.619534 -12.509777 -9.566864
-51.409691 -9.633301 -12.739878
-39.860451 -11.365086 0.387534
-39.425713 -12.473486 2.599043
-40.723278 -14.448427 0.156204
-41.711281 -17.046587 0.111597
-42.488029 -15.677099 -2.22296
-44.666466 -16.07163 -4.419439
-43.260292 -14.176809 -4.570131
-43.172394 -8.641204 -9.103058
-44.686069 -10.76811 -9.260826
-45.306229 -8.866022 -11.593813
-47.631176 -8.155394 -13.812273
-45.849701 -6.84502 -13.918201
-46.305153 -4.720288 -16.237938
-44.172485 -5.067474 -13.708248
-41.154228 -0.018843 -12.467945
-51.755081 -14.898102 -7.290554
-49.871292 -14.375799 -8.063707
-39.084198 -7.825894 0.780001
-40.335213 -10.164865 -1.856916
-41.985279 -11.777136 -4.467405
-40.823242 -8.871334 -4.120893
-41.305664 -7.485022 -6.394264
-41.770092 -6.007836 -8.669552
-42.207539 -4.442558 -10.941385
-40.466557 -2.884411 -8.013256
-50.676132 -1.466999 -20.565739
-50.740204 1.15576 -23.019131
-50.600082 3.759148 -25.518478
-52.376488 -4.423308 -17.532864
-45.198421 -19.231279 -1.748085
-46.209908 -17.497705 -4.045454
-47.169365 -15.614933 -6.367205
-48.049141 -13.576836 -8.703979
-43.999619 -12.540364 -6.918528
-46.314445 -12.399262 -9.122004
-48.829205 -11.386551 -11.049812
-49.49498 -9.056627 -13.403311
-50.034195 -6.607779 -15.768087
-50.433563 -4.06715 -18.152084
-48.513664 -3.463366 -18.510094
-46.656975 -2.511162 -18.558956
-44.893578 -1.129946 -18.28323
-42.608467 -2.79287 -13.206066
-42.959156 -1.064251 -15.461081
-43.239384 0.73423 -17.704384
-53.574772 -0.412061 -20.886259
-53.563209 -1.799033 -19.604934
-47.332123 -19.456517 -2.415027
-48.774445 -18.893368 -3.226219
-48.223659 -19.822924 -2.12342
-38.205349 -0.117652 -1.50996
-38.630045 -2.237452 -1.836021
-38.249819 0.411862 -2.524598
-38.205349 -0.117652 -1.50996
-52.02248 -11.032392 -11.143884
-52.979433 -11.250101 -10.733309
-51.662581 -12.292068 -9.977439
-51.057659 -10.853831 -11.563946
-52.374512 -9.811863 -12.319816
-52.02248 -11.032392 -11.143884
-39.243622 -7.258119 -0.300394
-38.720371 -5.85477 1.031812
-38.879795 -5.286996 -0.048583
-38.574995 2.130119 -5.724851
-39.111851 0.088652 -6.12546
-38.442171 1.52879 -4.639133
-49.465944 5.113029 -26.884348
-50.41432 5.027228 -26.790458
-49.651707 3.844949 -25.612368
-53.134118 -5.858963 -15.922059
-52.936447 -7.216338 -14.702569
-52.173611 -5.748359 -16.326291
-53.336995 -4.533912 -17.128632
-53.134118 -5.858963 -15.922059
-38.71645 -9.391381 3.923864
-38.518373 -7.40585 4.054727
-39.245342 -12.983708 3.679597
-39.777297 -14.04507 2.516856
-43.310581 -18.42331 -0.915395
-42.283247 -18.103913 0.178686
-42.738615 -17.365984 -0.982485
-44.482185 -18.45833 -1.912326
-44.026817 -19.19626 -0.751155
-43.310581 -18.42331 -0.915395
-41.574854 2.308247 -15.781056
-42.467462 1.919192 -17.292036
-42.346775 1.123285 -16.193404
-50.214359 -18.203456 -4.006046
-51.711395 -17.369934 -4.736368
-49.322823 -17.837049 -4.297653
-50.214359 -18.203456 -4.006046
-48.774445 -18.893368 -3.226219
-38.963686 -4.744915 -1.080433
-38.879795 -5.286996 -0.048583
-39.136579 -4.143452 -2.176788
-39.57594 -6.088881 -2.477143
-38.963686 -4.744915 -1.080433
-39.242299 -3.581418 -3.232731
-39.136579 -4.143452 -2.176788
-38.630045 -2.237452 -1.836021
-38.371451 0.993234 -3.598487
-38.857396 -1.094048 -3.965853
-38.249819 0.411862 -2.524598
-38.442171 1.52879 -4.639133
-38.371451 0.993234 -3.598487
-53.933594 -11.376624 -10.273129
-53.578883 -12.659432 -9.127913
-53.933594 -11.376624 -10.273129
-52.979433 -11.250101 -10.733309
-52.655926 -8.496284 -13.512648
-52.374512 -9.811863 -12.319816
-51.690213 -8.353355 -13.929799
-52.936447 -7.216338 -14.702569
-52.655926 -8.496284 -13.512648
-40.426079 -15.03254 1.295436
-39.777297 -14.04507 2.516856
-40.074495 -13.460956 1.377623
-41.21728 -15.747507 0.133901
-40.92008 -16.33162 1.273133
-40.426079 -15.03254 1.295436
-40.338331 0.958572 -10.930997
-40.986847 -0.75177 -11.35528
-40.17095 0.225645 -9.818332
-40.476095 1.605406 -12.02222
-40.338331 0.958572 -10.930997
-40.626064 2.370998 -13.129459
-41.304197 0.746749 -13.575184
-40.476095 1.605406 -12.02222
-40.7523 3.043143 -14.214931
-40.626064 2.370998 -13.129459
-45.1348 1.98464 -21.702471
-44.261536 1.761733 -20.248766
-52.216562 -16.203881 -5.7847
-53.16522 -16.426678 -5.443587
-51.711395 -17.369934 -4.736368
-52.712734 -15.079363 -6.891236
-52.216562 -16.203881 -5.7847
-51.258909 -16.02262 -6.184017
-53.146656 -13.853594 -7.989758
-52.712734 -15.079363 -6.891236
-52.187308 -13.70394 -8.428709
-53.578883 -12.659432 -9.127913
-53.146656 -13.853594 -7.989758
-38.531263 -6.908711 3.091162
-38.518373 -7.40585 4.054727
-38.666542 -6.375339 2.033123
-38.302715 -4.404215 2.284934
-38.720371 -5.85477 1.031812
-38.94892 -8.359266 1.83804
-38.531263 -6.908711 3.091162
-38.666542 -6.375339 2.033123
-39.855616 -1.097215 -7.612217
-39.722792 -1.698543 -6.526499
-39.111851 0.088652 -6.12546
-40.032071 -0.397358 -8.726897
-40.643012 -2.184554 -9.127935
-39.855616 -1.097215 -7.612217
-40.17095 0.225645 -9.818332
-40.032071 -0.397358 -8.726897
-51.668232 -0.230542 -21.531065
-52.636406 -0.3557 -21.24237
-51.644306 -1.592156 -20.277045
-51.700268 1.080837 -22.757761
-51.668232 -0.230542 -21.531065
-50.708168 -0.15562 -21.792435
-51.618943 2.429738 -24.04197
-51.700268 1.080837 -22.757761
-51.548882 3.731432 -25.291643
-51.618943 2.429738 -24.04197
-50.670143 2.457454 -24.268805
-51.349957 5.044069 -26.606752
-51.548882 3.731432 -25.291643
-51.164195 6.312149 -27.878732
-51.349957 5.044069 -26.606752
-50.41432 5.027228 -26.790458
-46.063021 2.545285 -23.03364
-46.029291 1.496598 -21.895386
-45.1348 1.98464 -21.702471
-46.902778 3.20254 -24.401013
-46.063021 2.545285 -23.03364
-47.775688 4.139293 -25.640864
-47.830421 2.993997 -24.466406
-46.902778 3.20254 -24.401013
-48.53058 5.132286 -26.931356
-47.775688 4.139293 -25.640864
-49.465944 5.113029 -26.884348
-48.53058 5.132286 -26.931356
-53.445214 -3.15203 -18.377192
-53.336995 -4.533912 -17.128632
-52.494484 -3.070311 -18.760607
-53.563209 -1.799033 -19.604934
-53.445214 -3.15203 -18.377192
-39.022486 -11.181805 3.775346
-38.71645 -9.391381 3.923864
-39.119677 -10.683062 2.747561
-38.842115 -11.692027 4.8559
-39.022486 -11.181805 3.775346
-39.245342 -12.983708 3.679597
-41.339213 -17.670983 1.264886
-40.92008 -16.33162 1.273133
-41.339213 -17.670983 1.264886
-42.283247 -18.103913 0.178686
-44.684744 -20.030171 -0.617274
-43.51314 -19.995151 0.379657
-44.026817 -19.19626 -0.751155
-45.98988 -19.808677 -1.530157
-44.684744 -20.030171 -0.617274
-46.540665 -18.87912 -2.632956
-47.332123 -19.456517 -2.415027
-45.98988 -19.808677 -1.530157
-43.330692 1.660872 -18.818849
-44.261536 1.761733 -20.248766
-44.170227 0.835092 -19.134301
-43.330692 1.660872 -18.818849
-42.467462 1.919192 -17.292036
-41.574854 2.308247 -15.781056
-40.7523 3.043143 -14.214931
-53.574772 -0.412061 -20.886259
-52.636406 -0.3557 -21.24237
3 0 75 76
3 77 21 78
3 77 78 79
3 80 23 81
3 83 82 23
3 1 27 25
3 2 84 86
3 86 85 28
3 84 85 86
3 2 87 89
3 87 29 88
3 87 88 89
3 3 32 30
3 3 34 32
3 3 36 34
3 4 39 37
3 4 41 39
3 4 43 41
3 5 45 20
3 5 46 45
3 7 90 92
3 90 47 91
3 90 91 92
3 7 48 47
3 7 50 48
3 9 51 22
3 9 52 51
3 9 54 52
3 95 94 24
3 93 94 95
3 11 56 55
3 12 57 26
3 12 96 98
3 98 97 57
3 96 97 98
3 13 99 100
3 13 101 103
3 101 58 102
3 101 102 103
3 6 104 105
3 107 106 31
3 14 108 110
3 110 109 33
3 108 109 110
3 14 111 113
3 111 59 112
3 111 112 113
3 14 60 59
3 15 61 35
3 15 62 61
3 8 63 49
3 16 64 38
3 16 65 64
3 16 66 65
3 17 67 40
3 17 68 67
3 17 69 68
3 18 70 42
3 18 71 70
3 10 72 53
3 19 73 44
3 19 74 73
3 19 114 116
3 116 115 74
3 114 115 116
3 117 20 118
3 21 119 121
3 119 20 120
3 119 120 121
3 21 5 20
3 122 7 123
3 124 22 125
3 126 125 7
3 124 125 126
3 23 127 129
3 127 22 128
3 127 128 129
3 23 9 22
3 23 24 9
3 130 24 131
3 132 131 23
3 130 131 132
3 134 133 24
3 25 26 11
3 27 26 25
3 27 12 26
3 28 135 136
3 138 137 28
3 29 139 140
3 29 141 143
3 141 13 142
3 141 142 143
3 30 31 6
3 32 31 30
3 32 144 146
3 146 145 31
3 144 145 146
3 32 147 149
3 147 33 148
3 147 148 149
3 34 33 32
3 34 14 33
3 34 35 14
3 36 35 34
3 36 15 35
3 37 38 8
3 39 38 37
3 39 16 38
3 39 40 16
3 41 40 39
3 41 17 40
3 41 42 17
3 43 42 41
3 43 18 42
3 150 44 151
3 152 151 10
3 150 151 152
3 153 44 154
3 155 19 156
3 157 156 44
3 155 156 157
3 159 158 19
3 161 160 1
3 20 162 164
3 162 163 164
3 45 165 167
3 167 166 20
3 165 166 167
3 45 168 169
3 45 170 172
3 170 28 171
3 170 171 172
3 46 28 45
3 46 2 28
3 173 6 174
3 47 175 177
3 175 176 177
3 47 178 180
3 178 6 179
3 178 179 180
3 47 30 6
3 48 30 47
3 48 3 30
3 48 49 3
3 50 49 48
3 50 8 49
3 22 50 7
3 51 50 22
3 51 8 50
3 51 37 8
3 52 37 51
3 52 4 37
3 52 53 4
3 54 53 52
3 54 10 53
3 24 54 9
3 181 54 182
3 183 182 24
3 181 182 183
3 184 10 185
3 186 185 54
3 184 185 186
3 188 187 10
3 55 189 191
3 191 190 0
3 189 190 191
3 56 192 194
3 194 193 55
3 192 193 194
3 56 195 196
3 26 56 11
3 57 56 26
3 57 197 199
3 199 198 56
3 197 198 199
3 57 200 201
3 204 203 57
3 202 203 204
3 205 27 206
3 207 206 1
3 205 206 207
3 208 27 209
3 210 12 211
3 212 211 27
3 210 211 212
3 213 12 214
3 216 215 12
3 58 217 218
3 58 219 221
3 219 0 220
3 219 220 221
3 31 222 224
3 224 223 6
3 222 223 224
3 227 226 31
3 225 226 227
3 33 228 229
3 231 230 33
3 59 232 234
3 232 233 234
3 59 235 236
3 59 237 239
3 237 21 238
3 237 238 239
3 60 21 59
3 60 5 21
3 35 60 14
3 61 60 35
3 61 5 60
3 61 46 5
3 62 46 61
3 62 2 46
3 49 36 3
3 63 36 49
3 63 15 36
3 38 63 8
3 64 63 38
3 64 15 63
3 64 62 15
3 65 62 64
3 65 2 62
3 65 29 2
3 66 29 65
3 66 13 29
3 40 66 16
3 67 66 40
3 67 13 66
3 67 58 13
3 68 58 67
3 68 0 58
3 68 55 0
3 69 55 68
3 69 11 55
3 42 69 17
3 70 69 42
3 70 11 69
3 70 25 11
3 71 25 70
3 71 1 25
3 53 43 4
3 72 43 53
3 72 18 43
3 44 72 10
3 73 72 44
3 73 18 72
3 73 71 18
3 74 71 73
3 74 1 71
3 74 240 242
3 242 241 1
3 240 241 242
3 244 243 74
3 246 245 19
3 248 247 0
