ply
format ascii 1.0
element vertex 162
property float x
property float y
property float z
element face 150
property list uchar int vertex_index
end_header
6.478184 -116.194283 21.28437
11.189243 -123.543571 9.532655
3.271881 -119.705025 10.213242
8.397411 -120.125687 15.205566
6.70495 -122.472626 10.023925
4.207327 -118.182709 16.0077
10.008675 -125.728996 4.325311
1.360279 -114.69828 16.249866
7.298084 -118.179901 18.190746
6.159304 -119.364273 15.669941
5.188503 -117.244675 18.728922
8.02845 -115.007576 23.64539
8.702148 -116.849815 20.518723
9.662771 -118.686577 17.514202
12.752546 -124.834091 6.821157
10.440817 -124.780952 7.018332
4.832306 -121.285973 10.152919
6.338854 -123.336464 7.196893
4.66674 -121.976105 7.219231
1.976881 -114.194725 19.270283
0.959902 -112.164482 19.243093
12.213722 -122.051147 11.856512
13.670547 -123.406677 9.151277
9.715889 -121.945145 12.325394
8.84449 -123.231277 9.819958
7.397856 -121.392776 12.701983
5.328787 -120.405403 12.980656
3.566088 -119.009201 13.156673
12.210609 -118.757828 16.737173
10.854977 -120.449059 14.634664
5.987562 -114.231911 24.457912
4.541676 -115.118088 21.861588
8.281036 -124.279602 7.13518
8.038897 -125.057495 4.294373
3.397961 -115.904007 19.096224
2.595142 -116.612816 16.203505
2.150434 -117.243568 13.228168
0.525629 -112.492302 16.149469
1.106327 -115.158875 13.19822
2.05094 -117.776649 10.211599
3.284617 -119.972546 8.713435
3.982046 -121.108086 7.21643
3.96931 -120.840565 8.716236
0.977397 -110.939335 20.696852
1.360719 -111.997837 20.774851
11.677042 -117.915226 18.17671
12.970595 -117.814415 17.685646
5.125362 -113.636696 24.737671
5.921376 -113.277794 26.052957
5.921376 -113.277794 26.052957
6.833094 -113.71558 25.656153
10.929113 -126.234188 2.9829
11.070051 -125.84272 4.321966
9.95307 -126.043884 2.899821
10.929113 -126.234188 2.9829
7.162391 -124.504345 4.273721
7.188875 -124.196979 5.745633
6.31237 -123.64383 5.724981
8.065878 -125.296784 2.814414
7.162391 -124.504345 4.273721
3.175885 -114.776924 20.653083
3.969818 -115.511047 20.478906
3.747743 -114.383964 22.035765
0.312987 -111.274224 16.03272
0.446152 -111.181045 17.586188
1.144008 -115.358284 11.677814
0.775717 -113.986507 13.137339
1.616314 -116.667171 10.184503
1.578634 -116.467762 11.704909
1.144008 -115.358284 11.677814
2.147962 -117.979568 8.700926
1.616314 -116.667171 10.184503
9.17324 -115.179062 23.14294
8.903363 -114.323715 24.721909
9.510089 -116.100182 21.579607
9.17324 -115.179062 23.14294
8.365299 -115.928696 22.082057
9.922812 -116.961219 20.067485
9.510089 -116.100182 21.579607
9.18246 -117.768196 19.016463
10.403123 -117.879601 18.565224
9.922812 -116.961219 20.067485
12.441987 -125.395268 5.569889
13.544825 -125.293132 5.522405
11.286122 -125.368698 5.668477
12.441987 -125.395268 5.569889
11.596681 -124.807522 6.919745
10.224746 -125.254974 5.671822
11.070051 -125.84272 4.321966
11.286122 -125.368698 5.668477
5.476313 -122.96365 5.73615
6.31237 -123.64383 5.724981
5.502797 -122.656284 7.208062
4.728956 -122.209633 5.717997
5.476313 -122.96365 5.73615
4.728956 -122.209633 5.717997
3.982046 -121.108086 7.21643
1.869209 -113.012958 20.788446
2.465345 -113.922283 20.740113
1.468392 -113.179604 19.256688
1.869209 -113.012958 20.788446
1.360719 -111.997837 20.774851
13.516983 -121.883362 11.580129
12.83629 -121.192101 12.918316
14.245396 -122.561127 10.227512
13.516983 -121.883362 11.580129
12.942134 -122.728912 10.503895
14.948415 -123.119182 8.910626
14.245396 -122.561127 10.227512
14.412989 -123.926861 7.830407
14.948415 -123.119182 8.910626
13.953988 -124.640568 6.665348
14.412989 -123.926861 7.830407
13.211547 -124.120384 7.986217
13.544825 -125.293132 5.522405
13.953988 -124.640568 6.665348
13.540139 -118.582214 16.318973
12.970595 -117.814415 17.685646
12.834733 -119.545441 15.358646
13.540139 -118.582214 16.318973
10.93669 -118.722203 17.125687
11.677042 -117.915226 18.17671
10.403123 -117.879601 18.565224
12.156917 -120.391057 14.307392
12.834733 -119.545441 15.358646
11.532793 -119.603443 15.685918
11.53435 -121.250103 13.245588
12.83629 -121.192101 12.918316
12.156917 -120.391057 14.307392
4.402418 -114.079785 23.439509
5.264619 -114.674999 23.15975
5.125362 -113.636696 24.737671
3.747743 -114.383964 22.035765
4.402418 -114.079785 23.439509
7.853538 -114.103412 25.249892
8.903363 -114.323715 24.721909
7.008006 -114.619743 24.051651
7.853538 -114.103412 25.249892
6.833094 -113.71558 25.656153
8.968181 -125.708134 2.884353
9.95307 -126.043884 2.899821
9.023786 -125.393246 4.309842
8.968181 -125.708134 2.884353
8.065878 -125.296784 2.814414
2.687421 -115.049366 19.183253
3.175885 -114.776924 20.653083
2.465345 -113.922283 20.740113
0.663288 -111.017135 19.133
0.977397 -110.939335 20.696852
0.742765 -112.328392 17.696281
0.663288 -111.017135 19.133
0.446152 -111.181045 17.586188
0.485368 -112.653221 14.612964
0.312987 -111.274224 16.03272
0.815978 -113.825588 14.673844
0.485368 -112.653221 14.612964
0.775717 -113.986507 13.137339
2.674146 -119.008358 8.712613
3.284617 -119.972546 8.713435
2.661411 -118.740837 10.212421
2.674146 -119.008358 8.712613
2.147962 -117.979568 8.700926
3 0 10 8
3 0 12 11
3 0 8 12
3 1 15 14
3 2 18 16
3 2 40 42
3 42 41 18
3 40 41 42
3 43 20 44
3 1 22 21
3 1 14 22
3 3 25 23
3 5 26 9
3 5 27 26
3 45 28 46
3 3 29 13
3 3 23 29
3 48 47 30
3 49 30 50
3 6 51 52
3 6 53 54
3 4 32 24
3 55 33 56
3 57 56 17
3 55 56 57
3 59 58 33
3 60 34 61
3 62 61 31
3 60 61 62
3 7 35 19
3 7 36 35
3 63 37 64
3 65 38 66
3 67 39 68
3 69 68 38
3 67 68 69
3 71 70 39
3 8 9 3
3 10 9 8
3 10 5 9
3 11 72 73
3 12 74 76
3 76 75 11
3 74 75 76
3 12 77 78
3 12 79 81
3 79 13 80
3 79 80 81
3 8 13 12
3 8 3 13
3 14 82 83
3 15 84 86
3 86 85 14
3 84 85 86
3 15 87 89
3 87 6 88
3 87 88 89
3 16 17 4
3 18 17 16
3 18 90 92
3 92 91 17
3 90 91 92
3 18 93 94
3 96 95 18
3 97 19 98
3 20 99 101
3 99 19 100
3 99 100 101
3 20 7 19
3 21 102 103
3 22 104 106
3 106 105 21
3 104 105 106
3 22 107 108
3 22 109 110
3 14 111 113
3 113 112 22
3 111 112 113
3 14 114 115
3 23 24 1
3 25 24 23
3 25 4 24
3 9 25 3
3 26 25 9
3 26 4 25
3 26 16 4
3 27 16 26
3 27 2 16
3 28 116 117
3 28 118 119
3 13 120 122
3 120 28 121
3 120 121 122
3 29 28 13
3 29 123 125
3 125 124 28
3 123 124 125
3 29 126 128
3 126 21 127
3 126 127 128
3 23 21 29
3 23 1 21
3 30 31 0
3 129 31 130
3 131 130 30
3 129 130 131
3 133 132 31
3 134 11 135
3 30 136 138
3 136 11 137
3 136 137 138
3 30 0 11
3 24 15 1
3 32 15 24
3 32 6 15
3 17 32 4
3 33 32 17
3 33 6 32
3 33 139 141
3 141 140 6
3 139 140 141
3 143 142 33
3 31 10 0
3 34 10 31
3 34 5 10
3 19 144 146
3 144 34 145
3 144 145 146
3 35 34 19
3 35 5 34
3 35 27 5
3 36 27 35
3 36 2 27
3 147 20 148
3 37 149 151
3 149 20 150
3 149 150 151
3 37 7 20
3 152 37 153
3 38 154 156
3 154 37 155
3 154 155 156
3 38 7 37
3 38 36 7
3 39 36 38
3 39 2 36
3 39 157 159
3 159 158 2
3 157 158 159
3 161 160 39
