ply
format ascii 1.0
element vertex 170
property float x
property float y
property float z
element face 157
property list uchar int vertex_index
end_header
30.329344 -49.452221 68.779091
25.28447 -51.364849 76.116203
30.159941 -57.704418 71.2435
31.706411 -56.403355 67.002663
30.149702 -53.497471 70.039055
21.921888 -52.394897 78.952087
24.994198 -55.923443 76.853355
28.109283 -50.392769 72.757088
27.966805 -54.668076 73.830894
27.703959 -59.13266 74.695061
30.962727 -52.948273 67.882385
30.147018 -51.449802 69.367432
20.946453 -48.274559 80.143944
31.035063 -57.03437 69.205132
29.927296 -59.840675 71.575035
26.771292 -50.872948 74.511375
27.984617 -52.497692 73.269493
26.640673 -53.045197 74.962227
24.761328 -58.281223 77.129189
26.439772 -57.572689 75.840424
26.123039 -59.885288 76.074654
27.255238 -61.386597 74.808746
31.021803 -54.978058 68.591774
30.199106 -55.585835 70.699471
23.661942 -51.871765 77.588066
25.126675 -53.610268 76.48568
23.458733 -54.19334 77.856354
23.24431 -56.580135 78.096252
29.293242 -49.920238 70.845833
27.100163 -48.788536 74.165138
25.598139 -49.210217 75.822693
23.977859 -49.640976 77.362244
22.255463 -50.085659 78.808464
20.448788 -50.546532 80.189888
29.151587 -51.966194 71.402733
29.157372 -54.071812 72.02829
29.168211 -56.223228 72.623322
26.575443 -55.285416 75.437927
27.914295 -56.886097 74.340424
29.052519 -58.405117 73.081657
28.715872 -60.599888 73.310226
30.238181 -50.451011 69.073262
30.569374 -51.199934 68.273003
30.660537 -50.201144 67.978832
30.783797 -49.220411 67.673893
31.024167 -48.250332 67.454357
30.569713 -48.482141 68.559555
30.660537 -50.201144 67.978832
31.114991 -49.969334 66.873635
30.783797 -49.220411 67.673893
30.52563 -58.407749 70.434971
30.963191 -58.072725 69.415787
30.597502 -57.369394 70.224316
30.043619 -58.772546 71.409267
30.409307 -59.475877 70.600739
30.52563 -58.407749 70.434971
25.228119 -60.272745 76.652569
25.442183 -59.083255 76.601922
24.547264 -59.470712 77.179836
25.842065 -61.042518 76.070068
25.228119 -60.272745 76.652569
22.299515 -56.915104 78.648006
22.451907 -55.686206 78.5993
23.075523 -57.793757 78.163361
22.299515 -56.915104 78.648006
26.637834 -47.977802 74.908028
27.414942 -47.798344 74.065609
25.886822 -48.188643 75.736805
26.349151 -48.999376 74.993915
26.637834 -47.977802 74.908028
23.372585 -48.766758 78.037415
24.246863 -48.583265 77.29332
22.511387 -48.989099 78.760525
23.116661 -49.863318 78.085354
23.372585 -48.766758 78.037415
19.759036 -49.610989 80.867485
20.69762 -49.410545 80.166916
20.007869 -48.475003 80.844513
19.512859 -50.784769 80.861942
19.759036 -49.610989 80.867485
31.94475 -57.088164 66.126324
31.96452 -56.11478 65.841912
27.686426 -62.086354 74.026199
26.899399 -62.505108 74.716865
30.977229 -51.949169 67.530479
31.298147 -52.689878 66.734592
30.554873 -52.199038 68.624909
30.977229 -51.949169 67.530479
30.569374 -51.199934 68.273003
21.790696 -53.593587 79.027218
21.00391 -52.6637 79.595726
21.302664 -47.209849 80.12648
21.856882 -48.08355 79.428265
20.340777 -47.372067 80.830967
21.302664 -47.209849 80.12648
20.007869 -48.475003 80.844513
20.340777 -47.372067 80.830967
31.332231 -57.725903 68.353543
31.667905 -57.410395 67.252308
31.370737 -56.718863 68.103898
31.332231 -57.725903 68.353543
30.963191 -58.072725 69.415787
30.225404 -60.519497 70.678547
30.409307 -59.475877 70.600739
29.686646 -60.90932 71.599037
30.225404 -60.519497 70.678547
26.408165 -61.793173 75.437115
26.689138 -60.635942 75.4417
25.842065 -61.042518 76.070068
26.899399 -62.505108 74.716865
26.408165 -61.793173 75.437115
31.688356 -55.40587 66.667744
31.96452 -56.11478 65.841912
31.316513 -53.67833 67.107605
31.298147 -52.689878 66.734592
31.346052 -54.693222 67.4623
31.316513 -53.67833 67.107605
30.992265 -53.963166 68.237079
31.364107 -55.690706 67.797218
31.688356 -55.40587 66.667744
31.346052 -54.693222 67.4623
22.559118 -54.492809 78.479351
22.69031 -53.294118 78.404221
21.790696 -53.593587 79.027218
23.351521 -55.386737 77.976303
22.559118 -54.492809 78.479351
22.451907 -55.686206 78.5993
23.834032 -58.6443 77.679829
24.002819 -57.430679 77.61272
23.075523 -57.793757 78.163361
24.547264 -59.470712 77.179836
23.834032 -58.6443 77.679829
29.499795 -48.932907 70.637856
29.811293 -49.686229 69.812462
30.017845 -48.698898 69.604484
28.882335 -49.144777 71.608486
29.499795 -48.932907 70.637856
28.290356 -49.381042 72.564114
28.701262 -50.156503 71.80146
28.882335 -49.144777 71.608486
27.785795 -48.578926 73.268139
27.414942 -47.798344 74.065609
27.604723 -49.590653 73.461113
28.290356 -49.381042 72.564114
27.785795 -48.578926 73.268139
25.057003 -48.367886 76.523544
25.886822 -48.188643 75.736805
24.787999 -49.425596 76.592468
25.057003 -48.367886 76.523544
24.246863 -48.583265 77.29332
21.600958 -49.180109 79.476204
22.511387 -48.989099 78.760525
21.856882 -48.08355 79.428265
20.26736 -51.739517 80.214627
21.00391 -52.6637 79.595726
21.185338 -51.470714 79.570988
20.26736 -51.739517 80.214627
19.512859 -50.784769 80.861942
30.017845 -48.698898 69.604484
30.569713 -48.482141 68.559555
31.94475 -57.088164 66.126324
31.667905 -57.410395 67.252308
29.080934 -61.288927 72.466633
29.686646 -60.90932 71.599037
29.321584 -60.220281 72.442631
28.416744 -61.692999 73.276939
27.985555 -60.993243 74.059486
27.686426 -62.086354 74.026199
29.080934 -61.288927 72.466633
28.416744 -61.692999 73.276939
3 0 41 43
3 41 11 42
3 41 42 43
3 0 44 46
3 44 45 46
3 0 47 49
3 47 48 49
3 2 50 52
3 52 51 13
3 50 51 52
3 2 53 55
3 53 14 54
3 53 54 55
3 1 17 15
3 56 20 57
3 58 57 18
3 56 57 58
3 60 59 20
3 4 22 10
3 4 23 22
3 5 26 24
3 61 27 62
3 64 63 27
3 65 29 66
3 67 30 68
3 69 68 29
3 67 68 69
3 70 31 71
3 72 32 73
3 74 73 31
3 72 73 74
3 75 33 76
3 77 76 12
3 75 76 77
3 79 78 33
3 3 80 81
3 7 34 28
3 8 35 16
3 8 36 35
3 6 37 25
3 9 38 19
3 9 39 38
3 9 40 39
3 83 82 21
3 84 10 85
3 11 86 88
3 86 10 87
3 86 87 88
3 11 4 10
3 90 89 5
3 91 12 92
3 93 12 94
3 96 95 12
3 13 97 99
3 99 98 3
3 97 98 99
3 101 100 13
3 14 102 103
3 14 104 105
3 15 16 7
3 17 16 15
3 17 8 16
3 18 19 6
3 20 19 18
3 20 9 19
3 20 21 9
3 106 21 107
3 108 107 20
3 106 107 108
3 110 109 21
3 111 3 112
3 10 113 114
3 22 115 117
3 117 116 10
3 115 116 117
3 22 118 120
3 118 3 119
3 118 119 120
3 22 13 3
3 23 13 22
3 23 2 13
3 24 25 1
3 26 25 24
3 26 6 25
3 121 26 122
3 123 122 5
3 121 122 123
3 27 124 126
3 124 26 125
3 124 125 126
3 27 6 26
3 27 18 6
3 127 18 128
3 129 128 27
3 127 128 129
3 131 130 18
3 132 28 133
3 134 133 0
3 132 133 134
3 135 28 136
3 137 7 138
3 139 138 28
3 137 138 139
3 29 140 141
3 29 142 144
3 142 7 143
3 142 143 144
3 29 15 7
3 30 15 29
3 30 1 15
3 145 30 146
3 31 147 149
3 147 30 148
3 147 148 149
3 31 1 30
3 31 24 1
3 32 24 31
3 32 5 24
3 12 150 152
3 150 32 151
3 150 151 152
3 33 32 12
3 33 5 32
3 33 153 155
3 155 154 5
3 153 154 155
3 157 156 33
3 158 0 159
3 161 160 3
3 28 11 0
3 34 11 28
3 34 4 11
3 16 34 7
3 35 34 16
3 35 4 34
3 35 23 4
3 36 23 35
3 36 2 23
3 25 17 1
3 37 17 25
3 37 8 17
3 19 37 6
3 38 37 19
3 38 8 37
3 38 36 8
3 39 36 38
3 39 2 36
3 39 14 2
3 40 14 39
3 40 162 164
3 164 163 14
3 162 163 164
3 21 40 9
3 165 40 166
3 167 166 21
3 165 166 167
3 169 168 40
