ply
format ascii 1.0
element vertex 196
property float x
property float y
property float z
element face 181
property list uchar int vertex_index
end_header
1.210854 64.257591 35.340961
1.856609 75.259636 34.371651
2.384222 51.405785 35.716843
0.762917 63.298347 48.56794
2.451483 67.417542 47.580414
1.808317 57.815788 35.454044
2.183002 62.874031 28.887966
1.053059 70.282173 35.09396
1.723036 69.21936 28.373798
0.800081 58.319107 41.929703
0.220629 57.77726 48.597351
0.554888 64.498886 42.085846
1.203768 69.757935 41.682022
3.084658 73.449783 40.455139
1.486536 61.056374 35.39299
1.989946 60.461494 32.217461
1.703568 63.686378 32.047852
1.304993 72.945061 34.809544
0.363167 60.673836 48.685623
0.366138 61.245445 45.410606
0.528986 64.091179 45.397667
0.741608 67.2864 41.976089
0.957079 66.641609 45.188755
2.734077 70.546715 44.069736
4.511806 74.568703 39.540691
1.278566 62.115013 51.522934
1.453241 65.569328 48.206039
2.122238 54.584854 35.555584
2.257896 57.230965 32.43927
2.399332 59.656036 29.217279
1.043821 67.357948 35.256653
1.456352 66.860512 31.894958
1.316776 69.923416 31.716145
1.642189 54.939362 38.57819
1.290098 58.186142 38.635605
0.990707 61.408211 38.692047
0.421743 58.190231 45.273865
0.5931 61.481972 42.054192
0.801617 64.542786 38.709137
0.784437 67.515022 38.64061
1.000433 70.24044 38.439743
1.503586 72.632301 38.068718
1.6861 68.81559 44.750183
1.978855 71.833466 41.176384
2.332449 74.611931 37.507706
3.50342 76.118874 36.76075
1.936798 66.075897 28.619385
1.75524 75.330647 32.739899
1.479432 74.173359 32.958846
1.580801 74.102349 34.590598
0.563042 61.986092 48.626781
0.491893 60.213444 50.243305
0.691768 61.5257 50.184463
2.480889 51.145287 34.424465
2.568913 49.603924 34.538189
2.472246 49.864422 35.830567
1.680057 61.333355 52.861046
1.219187 60.298096 53.102798
1.756793 63.096535 51.243404
1.680057 61.333355 52.861046
2.363735 62.367115 27.399341
2.4719 60.758117 27.563998
2.291167 61.265034 29.052622
1.569627 53.3905 40.074711
1.81858 53.330193 38.561888
1.04509 58.252624 40.282654
1.204782 56.635315 40.196453
0.959774 56.701797 41.843502
0.171013 55.951721 50.113388
0.232915 57.42025 50.210121
0.256356 56.235023 48.474159
0.171013 55.951721 50.113388
0.321186 57.983745 46.935608
0.356912 56.441509 46.812416
0.256356 56.235023 48.474159
4.757054 75.844208 37.699001
5.368009 74.876416 39.010786
1.3319 72.872151 33.138209
1.205933 71.540706 33.280417
1.179026 71.613617 34.951752
1.3319 72.872151 33.138209
1.479432 74.173359 32.958846
0.722184 56.663223 43.482979
0.959774 56.701797 41.843502
0.304184 58.868538 50.254257
0.491893 60.213444 50.243305
0.291898 59.225548 48.641487
0.232915 57.42025 50.210121
0.304184 58.868538 50.254257
3.243717 69.670452 45.382902
2.59278 68.982129 45.825075
3.10242 68.105865 47.138241
3.414529 71.16911 43.61548
3.243717 69.670452 45.382902
3.58982 72.620643 41.808182
2.909368 71.998249 42.262438
3.414529 71.16911 43.61548
4.303394 73.180104 41.350957
3.798232 74.009243 39.997915
3.58982 72.620643 41.808182
5.124393 73.553402 40.803861
4.303394 73.180104 41.350957
5.368009 74.876416 39.010786
5.124393 73.553402 40.803861
1.952013 68.725257 26.750689
1.863965 70.281242 26.586051
2.058988 76.451344 32.493096
2.30167 76.203968 34.069844
0.949593 60.934033 51.66196
1.219187 60.298096 53.102798
1.020741 62.70668 50.045437
0.691768 61.5257 50.184463
0.949593 60.934033 51.66196
1.84413 64.823692 49.584957
1.365903 63.84217 49.864486
1.756793 63.096535 51.243404
2.343252 65.747799 49.272144
1.952362 66.493435 47.893226
1.84413 64.823692 49.584957
2.968816 66.503071 48.850666
2.343252 65.747799 49.272144
3.10242 68.105865 47.138241
2.968816 66.503071 48.850666
2.292896 54.30682 34.147261
2.423888 52.717286 34.22789
2.25323 52.99532 35.636213
2.360725 55.629875 32.589104
2.292896 54.30682 34.147261
2.190067 55.90791 33.997427
2.399188 56.840156 31.038164
2.360725 55.629875 32.589104
2.469906 58.052692 29.427169
2.399188 56.840156 31.038164
2.328614 58.4435 30.828274
2.507833 59.160442 27.826273
2.469906 58.052692 29.427169
2.507833 59.160442 27.826273
2.4719 60.758117 27.563998
1.337792 71.361328 31.591509
1.184918 70.102795 33.405053
1.205933 71.540706 33.280417
1.466706 71.083828 29.91237
1.337792 71.361328 31.591509
1.669836 70.7318 28.241197
1.519906 69.571388 30.044972
1.466706 71.083828 29.91237
1.863965 70.281242 26.586051
1.669836 70.7318 28.241197
1.75524 75.330647 32.739899
2.058988 76.451344 32.493096
2.34303 49.993554 37.132733
2.472246 49.864422 35.830567
2.431054 48.452191 37.246456
2.189597 51.563405 37.131214
2.34303 49.993554 37.132733
2.058605 53.152939 37.050585
2.25323 52.99532 35.636213
2.189597 51.563405 37.131214
1.882213 54.762108 37.066887
2.058605 53.152939 37.050585
1.81858 53.330193 38.561888
1.380828 55.011925 40.167745
1.569627 53.3905 40.074711
1.466143 56.562752 38.606898
1.380828 55.011925 40.167745
1.204782 56.635315 40.196453
0.533015 56.598785 45.15506
0.356912 56.441509 46.812416
0.610912 58.254669 43.601784
0.722184 56.663223 43.482979
0.533015 56.598785 45.15506
2.53959 75.880116 35.637871
2.30167 76.203968 34.069844
2.094529 74.935783 35.939678
3.125076 76.633587 35.264393
2.53959 75.880116 35.637871
2.917935 75.365403 37.134228
3.746081 77.33567 34.885292
3.125076 76.633587 35.264393
4.252861 76.619293 36.309031
4.007613 75.343789 38.150721
4.757054 75.844208 37.699001
3.746081 77.33567 34.885292
4.252861 76.619293 36.309031
2.480889 51.145287 34.424465
2.423888 52.717286 34.22789
2.058894 67.153526 26.873482
1.829917 67.647628 28.496592
1.952013 68.725257 26.750689
2.160104 65.566249 27.052437
2.058894 67.153526 26.873482
2.283206 63.965317 27.186727
2.0599 64.474964 28.753675
2.160104 65.566249 27.052437
2.363735 62.367115 27.399341
2.283206 63.965317 27.186727
3 0 16 14
3 1 47 49
3 49 48 17
3 47 48 49
3 3 50 52
3 50 18 51
3 50 51 52
3 3 20 18
3 3 22 20
3 2 53 55
3 53 54 55
3 56 25 57
3 59 58 25
3 5 28 27
3 6 29 15
3 6 60 62
3 62 61 29
3 60 61 62
3 7 32 30
3 63 33 64
3 9 65 67
3 65 34 66
3 65 66 67
3 9 35 34
3 10 68 69
3 10 70 71
3 10 72 74
3 72 36 73
3 72 73 74
3 11 37 19
3 11 38 37
3 11 39 38
3 12 40 21
3 12 41 40
3 4 42 26
3 13 43 23
3 13 44 43
3 13 45 44
3 76 75 24
3 8 46 31
3 14 15 5
3 16 15 14
3 16 6 15
3 17 77 79
3 79 78 7
3 77 78 79
3 81 80 17
3 82 9 83
3 18 84 85
3 18 86 88
3 86 10 87
3 86 87 88
3 18 19 10
3 20 19 18
3 20 11 19
3 20 21 11
3 22 21 20
3 22 12 21
3 89 23 90
3 91 90 4
3 89 90 91
3 92 23 93
3 94 13 95
3 96 95 23
3 94 95 96
3 97 24 98
3 99 98 13
3 97 98 99
3 100 24 101
3 103 102 24
3 105 104 8
3 107 106 1
3 25 108 109
3 25 110 112
3 110 3 111
3 110 111 112
3 25 26 3
3 113 26 114
3 115 114 25
3 113 114 115
3 116 4 117
3 118 117 26
3 116 117 118
3 119 4 120
3 122 121 4
3 27 123 125
3 125 124 2
3 123 124 125
3 28 126 128
3 128 127 27
3 126 127 128
3 28 129 130
3 15 28 5
3 29 28 15
3 29 131 133
3 133 132 28
3 131 132 133
3 29 134 135
3 137 136 29
3 30 31 0
3 32 31 30
3 32 8 31
3 138 32 139
3 140 139 7
3 138 139 140
3 141 32 142
3 143 8 144
3 145 144 32
3 143 144 145
3 147 146 8
3 149 148 1
3 150 2 151
3 150 151 152
3 153 2 154
3 155 27 156
3 157 156 2
3 155 156 157
3 33 158 160
3 158 27 159
3 158 159 160
3 33 5 27
3 161 33 162
3 34 163 165
3 163 33 164
3 163 164 165
3 34 5 33
3 34 14 5
3 35 14 34
3 35 0 14
3 36 166 167
3 36 168 170
3 168 9 169
3 168 169 170
3 19 36 10
3 37 36 19
3 37 9 36
3 37 35 9
3 38 35 37
3 38 0 35
3 38 30 0
3 39 30 38
3 39 7 30
3 21 39 11
3 40 39 21
3 40 7 39
3 40 17 7
3 41 17 40
3 41 1 17
3 26 22 3
3 42 22 26
3 42 12 22
3 23 42 4
3 43 42 23
3 43 12 42
3 43 41 12
3 44 41 43
3 44 1 41
3 44 171 173
3 173 172 1
3 171 172 173
3 45 174 176
3 176 175 44
3 174 175 176
3 45 177 178
3 24 45 13
3 179 45 180
3 181 180 24
3 179 180 181
3 183 182 45
3 185 184 2
3 31 16 0
3 46 16 31
3 46 6 16
3 186 46 187
3 188 187 8
3 186 187 188
3 189 46 190
3 191 6 192
3 193 192 46
3 191 192 193
3 195 194 6
