ply
format ascii 1.0
element vertex 138
property float x
property float y
property float z
element face 128
property list uchar int vertex_index
end_header
2.858896 9.788843 80.984573
9.709633 16.84161 79.149872
6.548876 1.790724 83.961632
3.741726 17.777973 79.093872
12.024403 11.779989 79.287735
10.368538 4.574377 82.022865
8.373051 9.406078 81.836754
6.984262 21.486843 78.240837
4.69837 6.011152 82.891403
6.069262 13.828461 80.908386
11.258648 8.201044 80.714943
8.377481 19.219791 78.7994
10.176163 20.485134 77.583374
4.690159 0.041166 84.353302
3.868404 2.0474 83.655457
5.634979 3.95278 83.52359
9.109274 13.149036 80.56897
7.249327 11.673868 81.475113
7.877481 15.469208 80.218018
6.584539 17.676311 79.660164
3.344814 13.800827 80.139244
10.933588 14.358925 79.307739
11.486448 17.940186 77.746994
12.653589 15.302578 77.73188
8.469183 3.302456 83.170258
7.511648 5.616776 82.961105
9.413227 7.033798 82.010841
10.241085 10.722414 80.728264
3.760138 7.95747 82.048996
6.49678 7.833532 82.572311
5.437876 9.939871 81.982643
4.370401 11.930094 81.176521
4.88039 15.864918 80.120773
5.286676 19.764374 78.877655
2.227095 8.606303 80.64925
2.574495 7.764839 81.313755
6.034045 -0.133356 84.412876
6.994983 0.667184 84.095692
5.619518 0.915945 84.157467
5.104687 -1.008135 84.608711
6.034045 -0.133356 84.412876
3.07914 16.662951 78.974625
2.880683 14.674378 79.49731
3.54327 15.7894 79.616558
9.874928 2.744779 82.627056
10.816572 3.316207 81.967174
9.41886 3.938416 82.596562
8.925251 2.108819 83.200752
9.874928 2.744779 82.627056
7.130021 23.37669 77.450584
6.287999 22.560461 77.846847
11.69744 19.704527 76.900848
12.317943 18.353556 76.898865
3.879293 4.979899 82.823208
3.464309 2.998023 83.205235
4.283387 4.029276 83.27343
4.229254 6.984311 82.4702
3.410176 5.953057 82.402005
3.879293 4.979899 82.823208
6.287999 22.560461 77.846847
5.439206 21.699227 78.165256
6.135469 20.625608 78.559246
3.227481 18.669168 78.450504
3.895012 19.751524 78.470764
13.327194 10.850886 78.333492
12.84725 12.181121 78.421245
12.504347 10.449753 79.199982
11.272196 5.09052 81.291248
10.816572 3.316207 81.967174
11.717251 6.903854 80.637287
10.813593 6.38771 81.368904
11.272196 5.09052 81.291248
12.121469 8.660281 79.913586
11.717251 6.903854 80.637287
12.504347 10.449753 79.199982
11.641526 9.990517 80.001339
12.121469 8.660281 79.913586
8.56633 21.074979 78.013321
7.86972 22.208506 77.734039
7.680872 20.353317 78.520118
9.465671 21.707651 77.405308
8.56633 21.074979 78.013321
9.276822 19.852463 78.191387
10.348439 22.285255 76.732235
9.465671 21.707651 77.405308
4.193605 -1.92315 84.721428
4.608132 -2.972452 84.976837
5.104687 -1.008135 84.608711
3.832526 -0.950221 84.328766
4.193605 -1.92315 84.721428
4.279281 1.044283 84.004379
3.421648 0.052897 83.979844
3.832526 -0.950221 84.328766
2.693669 12.652211 79.913524
2.45071 10.646219 80.336189
3.101855 11.794835 80.561909
2.693669 12.652211 79.913524
2.880683 14.674378 79.49731
3.07914 16.662951 78.974625
3.227481 18.669168 78.450504
12.901513 17.034752 76.891308
12.317943 18.353556 76.898865
12.070018 16.621382 77.739437
13.161843 13.942416 77.643318
12.338996 13.541284 78.509807
12.84725 12.181121 78.421245
13.441469 15.645015 76.808059
13.161843 13.942416 77.643318
12.901513 17.034752 76.891308
13.441469 15.645015 76.808059
7.955137 1.42305 83.700005
8.925251 2.108819 83.200752
7.509029 2.54659 83.565945
6.994983 0.667184 84.095692
7.955137 1.42305 83.700005
2.227095 8.606303 80.64925
2.45071 10.646219 80.336189
7.130021 23.37669 77.450584
7.86972 22.208506 77.734039
11.042298 20.977001 76.819039
10.831305 19.21266 77.665184
11.69744 19.704527 76.900848
10.348439 22.285255 76.732235
11.042298 20.977001 76.819039
3.078956 0.978633 83.489201
3.421648 0.052897 83.979844
3.078956 0.978633 83.489201
3.464309 2.998023 83.205235
3.025116 6.849152 81.845967
3.410176 5.953057 82.402005
3.309517 8.873157 81.516784
2.574495 7.764839 81.313755
3.025116 6.849152 81.845967
4.667487 20.744725 78.362656
3.895012 19.751524 78.470764
4.514201 18.771173 78.985764
4.667487 20.744725 78.362656
5.439206 21.699227 78.165256
3 0 34 35
3 1 12 11
3 2 36 37
3 2 38 40
3 38 13 39
3 38 39 40
3 2 15 13
3 1 18 16
3 1 11 18
3 3 41 43
3 43 42 20
3 41 42 43
3 4 23 21
3 5 44 45
3 5 46 48
3 46 24 47
3 46 47 48
3 5 26 24
3 4 27 10
3 4 21 27
3 7 49 50
3 52 51 22
3 8 53 55
3 55 54 14
3 53 54 55
3 8 56 58
3 56 28 57
3 56 57 58
3 6 29 25
3 9 30 17
3 9 31 30
3 9 32 31
3 7 33 19
3 7 59 61
3 61 60 33
3 59 60 61
3 63 62 3
3 66 65 4
3 64 65 66
3 67 5 68
3 69 10 70
3 71 70 5
3 69 70 71
3 72 10 73
3 74 4 75
3 76 75 10
3 74 75 76
3 11 77 79
3 79 78 7
3 77 78 79
3 12 80 82
3 82 81 11
3 80 81 82
3 12 83 84
3 13 85 87
3 85 86 87
3 13 88 89
3 13 90 92
3 90 14 91
3 90 91 92
3 15 14 13
3 15 8 14
3 16 17 6
3 18 17 16
3 18 9 17
3 18 19 9
3 11 19 18
3 11 7 19
3 20 93 95
3 95 94 0
3 93 94 95
3 97 96 20
3 99 98 3
3 21 22 1
3 23 22 21
3 23 100 102
3 102 101 22
3 100 101 102
3 103 23 104
3 105 104 4
3 103 104 105
3 106 23 107
3 109 108 23
3 24 110 111
3 24 112 114
3 112 2 113
3 112 113 114
3 24 25 2
3 26 25 24
3 26 6 25
3 10 26 5
3 27 26 10
3 27 6 26
3 27 16 6
3 21 16 27
3 21 1 16
3 116 115 0
3 118 117 7
3 22 12 1
3 119 12 120
3 121 120 22
3 119 120 121
3 123 122 12
3 14 124 125
3 127 126 14
3 28 128 129
3 28 130 132
3 130 0 131
3 130 131 132
3 25 15 2
3 29 15 25
3 29 8 15
3 17 29 6
3 30 29 17
3 30 8 29
3 30 28 8
3 31 28 30
3 31 0 28
3 31 20 0
3 32 20 31
3 32 3 20
3 19 32 9
3 33 32 19
3 33 3 32
3 33 133 135
3 135 134 3
3 133 134 135
3 137 136 33
