ply
format ascii 1.0
element vertex 225
property float x
property float y
property float z
element face 200
property list uchar int vertex_index
end_header
40.055321 61.472893 24.367535
47.481964 55.660614 9.429482
43.255672 60.191452 17.780977
37.077663 68.749542 15.412534
53.383507 49.784485 3.517124
41.702991 61.308571 21.643847
38.646358 64.899513 20.517519
40.493336 64.984352 16.528133
50.653206 52.823265 6.016113
44.979881 58.199158 13.505424
40.852142 61.492821 23.218401
42.158302 59.519547 23.985432
41.133919 59.871887 25.243652
39.431385 63.026962 22.705627
40.263897 63.26564 21.018003
49.033916 54.270821 7.620022
50.424339 51.525711 8.702747
48.842583 52.882248 10.385209
46.10173 58.496719 8.569998
47.599457 57.083847 6.636743
49.21418 55.597275 4.893744
44.051758 59.285179 15.655032
45.254967 56.539124 16.355444
44.472519 57.545998 18.461472
41.937489 62.696487 17.135395
41.416176 64.481979 14.381429
42.779198 61.959511 14.998921
43.708401 60.979111 12.813101
54.121532 48.207153 2.656427
52.187668 52.47274 2.112988
42.497871 60.875114 19.803398
43.763401 58.390656 20.494297
43.019272 59.047432 22.365921
37.842567 66.842842 18.05257
38.883751 67.004135 15.955522
39.571781 65.135139 18.575466
41.110725 63.143288 19.157965
52.167847 51.325691 4.642399
53.396786 48.642746 5.969716
52.006054 50.112526 7.22681
49.349297 56.851738 2.221659
50.803993 54.055511 3.376315
46.115215 56.978485 11.408318
47.411415 54.179344 12.251036
46.213799 55.405891 14.260533
39.920174 66.778 13.790841
43.469826 62.611221 9.963493
44.800854 59.808296 10.647892
39.743353 62.249927 23.536581
39.082184 62.649227 23.553535
39.394152 61.872192 24.384489
37.661569 68.775791 14.314519
36.721203 69.652119 14.034919
36.075478 69.506268 15.158347
36.493818 68.530182 16.495151
36.721203 69.652119 14.034919
36.075478 69.506268 15.158347
53.893215 48.451286 4.22855
54.262228 47.662621 3.798201
53.75252 48.995819 3.086775
53.280903 50.323406 2.322968
52.682984 51.667534 1.620901
52.785588 51.128613 2.815056
53.75252 48.995819 3.086775
53.649916 49.53474 1.89262
53.280903 50.323406 2.322968
42.78343 58.372284 24.406172
42.270454 58.641048 25.112536
37.726742 65.589672 20.310386
38.200576 64.56984 21.464835
38.244462 65.871178 19.285044
37.324846 66.561337 19.077912
37.726742 65.589672 20.310386
51.072365 50.180683 9.272502
50.282522 50.846276 10.056667
48.541445 57.644924 3.056392
48.594776 58.280414 1.710485
45.818191 55.162426 16.725125
45.420299 55.687935 17.760611
44.33524 57.081863 20.848962
43.991978 57.480999 21.807209
41.194797 65.339378 12.97652
41.901371 64.077419 13.27804
42.928196 63.14204 11.069073
42.780334 63.959099 9.648879
53.924349 47.307106 6.62474
53.310076 48.040619 7.217397
48.035258 52.808075 12.706421
47.402141 53.412674 13.661319
41.758263 58.817218 25.741647
42.270454 58.641048 25.112536
41.64611 59.695717 24.614542
38.59309 63.633564 22.558889
39.082184 62.649227 23.553535
39.038871 63.963237 21.611573
38.200576 64.56984 21.464835
38.59309 63.633564 22.558889
49.491644 51.524544 10.897898
50.282522 50.846276 10.056667
49.633461 52.20398 9.543978
46.128895 59.222721 7.168845
45.41132 59.924926 8.189309
46.877758 58.516285 6.202218
46.128895 59.222721 7.168845
46.850594 57.790283 7.603371
47.666525 57.760979 5.263934
46.877758 58.516285 6.202218
48.406818 56.340561 5.765244
48.473886 57.017693 4.392434
47.666525 57.760979 5.263934
45.029075 56.191372 18.813626
45.420299 55.687935 17.760611
44.863743 57.042561 17.408458
42.582882 62.816185 13.586786
41.901371 64.077419 13.27804
42.097687 63.220745 14.690175
43.2438 61.469311 13.906011
43.047483 62.325985 12.493876
42.582882 62.816185 13.586786
54.493971 46.874836 3.402099
54.559939 46.07148 3.111752
54.1875 47.403797 2.36608
54.493971 46.874836 3.402099
54.262228 47.662621 3.798201
52.118839 53.009277 0.881382
51.517916 53.843273 1.454743
52.118839 53.009277 0.881382
52.682984 51.667534 1.620901
53.870653 48.721863 1.551234
53.399037 50.04945 0.787428
53.649916 49.53474 1.89262
54.1875 47.403797 2.36608
53.870653 48.721863 1.551234
43.619913 57.809387 22.743021
43.991978 57.480999 21.807209
43.391337 58.719044 21.430109
43.213915 58.136226 23.596417
42.588787 59.28349 23.175677
42.78343 58.372284 24.406172
43.619913 57.809387 22.743021
43.213915 58.136226 23.596417
36.87627 67.576832 17.815169
37.324846 66.561337 19.077912
37.460115 67.796192 16.732552
36.493818 68.530182 16.495151
36.87627 67.576832 17.815169
52.61471 48.775509 7.845944
53.310076 48.040619 7.217397
52.70142 49.377636 6.598263
51.863222 49.474091 8.534533
51.215197 50.819119 7.964779
51.072365 50.180683 9.272502
52.61471 48.775509 7.845944
51.863222 49.474091 8.534533
49.375141 57.436149 0.914872
48.594776 58.280414 1.710485
50.098731 56.032772 1.509078
49.375141 57.436149 0.914872
49.281739 56.224507 3.557701
48.541445 57.644924 3.056392
48.473886 57.017693 4.392434
50.826078 54.634659 2.086406
50.098731 56.032772 1.509078
50.076645 55.453625 2.798987
51.49583 53.264126 2.744651
51.517916 53.843273 1.454743
50.826078 54.634659 2.086406
46.803334 54.025948 14.666068
47.402141 53.412674 13.661319
46.812607 54.792617 13.255785
46.297607 54.59581 15.67767
45.734383 55.972507 15.307989
45.818191 55.162426 16.725125
46.803334 54.025948 14.666068
46.297607 54.59581 15.67767
44.689798 56.659534 19.832549
44.11796 57.968327 19.477885
44.33524 57.081863 20.848962
45.029075 56.191372 18.813626
44.689798 56.659534 19.832549
38.564613 67.903087 14.586013
37.661569 68.775791 14.314519
37.980707 67.876839 15.684028
39.082825 67.79002 13.503673
38.564613 67.903087 14.586013
39.401962 66.891068 14.873182
39.666927 67.628521 12.387619
39.082825 67.79002 13.503673
40.446797 66.487389 12.681227
40.668175 65.629989 14.086135
41.194797 65.339378 12.97652
39.666927 67.628521 12.387619
40.446797 66.487389 12.681227
43.397646 63.386913 8.545486
42.780334 63.959099 9.648879
44.095367 61.982177 8.886057
43.397646 63.386913 8.545486
43.589113 61.795166 11.388297
42.928196 63.14204 11.069073
43.047483 62.325985 12.493876
44.760881 60.580715 9.228256
44.095367 61.982177 8.886057
44.13534 61.209758 10.305692
45.451292 59.152507 9.608945
45.41132 59.924926 8.189309
44.760881 60.580715 9.228256
53.899855 47.880417 5.454846
53.893215 48.451286 4.22855
53.390147 49.213616 4.74342
53.899855 47.880417 5.454846
53.924349 47.307106 6.62474
48.750841 52.159527 11.773507
48.126999 53.530796 11.318122
48.035258 52.808075 12.706421
49.491644 51.524544 10.897898
48.750841 52.159527 11.773507
39.940651 60.905048 25.175106
39.394152 61.872192 24.384489
40.47995 60.104546 25.613164
40.59462 60.67239 24.805594
39.940651 60.905048 25.175106
41.104484 59.068794 26.264538
40.47995 60.104546 25.613164
41.758263 58.817218 25.741647
41.104484 59.068794 26.264538
3 0 12 10
3 0 10 13
3 0 48 50
3 48 13 49
3 48 49 50
3 1 17 15
3 1 19 18
3 1 15 19
3 2 23 21
3 3 51 52
3 2 26 24
3 2 21 26
3 3 53 54
3 3 55 56
3 4 57 59
3 59 58 28
3 57 58 59
3 4 60 62
3 62 61 29
3 60 61 62
3 4 63 65
3 63 28 64
3 63 64 65
3 5 32 30
3 67 66 11
3 6 35 33
3 5 36 14
3 5 30 36
3 6 68 69
3 6 70 72
3 70 33 71
3 70 71 72
3 8 39 37
3 74 73 16
3 75 40 76
3 8 41 20
3 8 37 41
3 9 44 42
3 78 77 22
3 80 79 31
3 7 45 34
3 82 81 25
3 83 46 84
3 9 47 27
3 9 42 47
3 86 85 38
3 88 87 43
3 10 11 5
3 12 11 10
3 12 89 91
3 91 90 11
3 89 90 91
3 13 14 6
3 10 14 13
3 10 5 14
3 13 92 93
3 13 94 96
3 94 6 95
3 94 95 96
3 15 16 8
3 17 16 15
3 17 97 99
3 99 98 16
3 97 98 99
3 18 100 101
3 19 102 104
3 104 103 18
3 102 103 104
3 19 105 106
3 19 107 109
3 107 20 108
3 107 108 109
3 15 20 19
3 15 8 20
3 21 22 9
3 23 22 21
3 23 110 112
3 112 111 22
3 110 111 112
3 24 25 7
3 26 25 24
3 26 113 115
3 115 114 25
3 113 114 115
3 26 116 118
3 116 27 117
3 116 117 118
3 21 27 26
3 21 9 27
3 28 119 121
3 119 120 121
3 123 122 28
3 29 124 125
3 127 126 29
3 28 128 130
3 128 129 130
3 28 131 132
3 30 31 2
3 32 31 30
3 32 133 135
3 135 134 31
3 133 134 135
3 11 32 5
3 136 32 137
3 138 137 11
3 136 137 138
3 140 139 32
3 33 34 3
3 35 34 33
3 35 7 34
3 14 35 6
3 36 35 14
3 36 7 35
3 36 24 7
3 30 24 36
3 30 2 24
3 33 141 142
3 33 143 145
3 143 3 144
3 143 144 145
3 37 38 4
3 39 38 37
3 39 146 148
3 148 147 38
3 146 147 148
3 16 39 8
3 149 39 150
3 151 150 16
3 149 150 151
3 153 152 39
3 40 154 155
3 40 156 157
3 20 158 160
3 158 40 159
3 158 159 160
3 41 40 20
3 41 161 163
3 163 162 40
3 161 162 163
3 41 164 166
3 164 29 165
3 164 165 166
3 37 29 41
3 37 4 29
3 42 43 1
3 44 43 42
3 44 167 169
3 169 168 43
3 167 168 169
3 22 44 9
3 170 44 171
3 172 171 22
3 170 171 172
3 174 173 44
3 31 23 2
3 175 23 176
3 177 176 31
3 175 176 177
3 179 178 23
3 34 180 182
3 182 181 3
3 180 181 182
3 45 183 185
3 185 184 34
3 183 184 185
3 45 186 187
3 25 45 7
3 188 45 189
3 190 189 25
3 188 189 190
3 192 191 45
3 46 193 194
3 46 195 196
3 27 197 199
3 197 46 198
3 197 198 199
3 47 46 27
3 47 200 202
3 202 201 46
3 200 201 202
3 47 203 205
3 203 18 204
3 203 204 205
3 42 18 47
3 42 1 18
3 38 206 208
3 208 207 4
3 206 207 208
3 210 209 38
3 43 17 1
3 211 17 212
3 213 212 43
3 211 212 213
3 215 214 17
3 216 0 217
3 218 12 219
3 220 219 0
3 218 219 220
3 221 12 222
3 224 223 12
