ply
format ascii 1.0
element vertex 396
property float x
property float y
property float z
element face 402
property list uchar int vertex_index
end_header
9.06921 -52.275688 -2.067638
2.908205 -60.620811 8.917184
8.735958 -81.36293 23.037193
5.815357 -72.919754 19.305347
9.198866 -71.454178 10.394329
5.887709 -56.510582 2.250235
10.740429 -56.459698 -2.904028
4.21475 -73.775299 23.895916
3.319933 -68.425476 17.775221
10.255133 -80.572342 18.037167
6.218931 -66.373032 9.390229
10.738132 -70.414017 6.338008
7.68952 -64.808426 5.612819
8.963499 -62.602951 2.223299
4.319586 -58.736343 5.363585
7.18257 -82.447838 28.067638
6.010986 -78.074486 25.932846
7.786041 -77.110931 21.148092
9.545931 -76.408653 16.37076
11.210724 -76.004349 11.750689
7.51008 -72.170807 14.760096
4.721724 -67.500122 13.476692
1.722212 -62.116783 12.799814
-1.642012 -57.312771 16.778313
-1.145981 -55.917542 12.749779
-0.137772 -54.210735 8.94194
7.543495 -54.177197 -0.309404
9.951553 -59.751122 -0.679556
9.795219 -54.097164 -2.477957
10.204737 -52.544216 -3.028381
4.566645 -63.583813 9.083595
6.968016 -65.661247 7.457677
5.275217 -62.767124 7.210954
5.989471 -61.825188 5.429104
3.589193 -59.727955 7.092041
5.16156 -78.57592 28.30155
4.369364 -76.397163 27.216486
4.995184 -73.340508 21.601402
6.025917 -75.466576 22.555475
6.901375 -75.029121 20.209646
8.673855 -76.716248 18.750525
7.783739 -74.644501 17.867266
8.661585 -74.321655 15.545259
6.657803 -72.529419 17.019527
2.033276 -65.952461 17.241131
4.003477 -67.977356 15.606018
2.606108 -65.457458 15.125646
3.223114 -64.908615 13.05318
1.218895 -62.737129 14.829077
-2.786963 -54.617287 18.979067
-2.792166 -54.006989 16.924768
-1.446516 -56.658054 14.745887
0.593584 -53.277988 7.170091
7.959454 -81.89019 25.556923
8.12248 -84.153305 26.579914
8.756145 -83.596909 23.988197
10.365566 -73.781815 11.044214
11.160528 -73.466599 8.903913
11.378366 -69.628883 4.449506
7.374716 -59.555229 2.186047
9.491554 -61.248383 0.701971
8.028233 -58.255756 0.753713
8.65485 -56.888252 -0.525295
6.708836 -55.334297 0.892603
3.495916 -74.20034 26.182232
3.177452 -71.561989 22.978251
3.860821 -71.150742 20.724167
4.59869 -70.734322 18.477625
2.683474 -68.851318 19.971926
9.502956 -80.910912 20.524166
9.388737 -83.106056 21.409657
7.789425 -68.992004 9.833341
10.000668 -71.003769 8.321571
8.57395 -68.405632 7.832114
9.308315 -67.673454 5.918331
9.963511 -66.756058 4.098805
10.515583 -65.627777 2.379565
8.360571 -63.792004 3.864721
6.693394 -60.752178 3.749848
5.088911 -57.656399 3.745294
5.849586 -80.767258 29.417103
6.687803 -80.236717 26.992928
7.5474 -79.704712 24.548801
5.174555 -75.932617 24.893108
6.892941 -77.574409 23.546156
8.409924 -79.209854 22.093418
9.261288 -78.791458 19.639898
10.092686 -78.477974 17.206129
10.897852 -78.274887 14.813752
10.394873 -76.182777 14.030046
9.526091 -74.046936 13.263981
8.361666 -71.825272 12.54561
5.373304 -70.322235 16.250191
6.171488 -69.910477 14.056471
6.981686 -69.47876 11.912421
5.464357 -66.974915 11.400454
3.878906 -64.290794 11.035105
2.284781 -61.414753 10.824647
7.883535 -50.959183 -1.164774
-1.759336 -57.879616 18.833906
-0.453653 -60.407097 16.755156
-0.136921 -59.804134 14.711788
0.254677 -59.118122 12.708153
0.73568 -58.346729 10.758186
-0.715401 -55.097519 10.808251
1.31666 -57.490803 8.878752
2.00112 -56.557301 7.087353
2.785641 -55.56168 5.399714
3.662315 -54.529205 3.828325
2.501038 -51.399323 3.961356
4.62154 -53.495483 2.382312
5.652967 -52.507545 1.068084
6.743963 -51.629017 -0.111109
8.365395 -53.110451 -1.325375
10.953352 -64.280991 0.769003
11.283947 -62.72736 -0.718756
11.533964 -60.995472 -2.061695
10.361128 -58.144783 -1.893421
9.252663 -55.494312 -1.619255
3.614971 -75.494823 27.8374
4.001145 -76.615051 28.370276
1.688781 -64.371384 16.013306
2.319692 -65.70496 16.183388
1.402365 -64.618885 17.071049
0.995175 -63.011219 15.865022
1.912501 -64.097294 14.977362
1.688781 -64.371384 16.013306
-3.341164 -52.254395 17.031301
-3.293554 -52.578585 18.065433
-2.741026 -53.657635 15.905602
-3.341164 -52.254395 17.031301
12.17491 -70.571796 3.752022
11.635274 -69.117267 3.554134
11.356102 -56.805653 -3.550666
11.243099 -57.791922 -3.067446
2.644468 -70.406361 22.581922
2.401692 -70.587242 23.693228
2.986152 -70.200737 21.45488
3.519137 -71.356365 21.851209
2.644468 -70.406361 22.581922
2.397479 -69.051025 21.07876
3.272147 -70.00103 20.348047
2.986152 -70.200737 21.45488
10.138183 -81.649956 18.451723
9.762094 -81.819241 19.695222
9.879044 -80.741627 19.280667
5.108104 -79.908123 30.033383
5.450541 -81.016644 30.616551
7.845679 -49.913554 -1.167907
7.098214 -50.082363 -0.582814
-0.426586 -54.654127 9.875096
-1.365024 -53.392713 10.871878
-1.07621 -52.949321 9.938723
2.130869 -53.945099 5.453465
1.689612 -54.419834 6.284903
1.034841 -52.803253 6.338653
2.569206 -53.428861 4.66777
3.223978 -55.045443 4.61402
2.130869 -53.945099 5.453465
3.078872 -50.96669 3.247607
2.075715 -49.848839 4.027185
4.139123 -52.01477 2.458086
3.561289 -52.447403 3.171834
3.078872 -50.96669 3.247607
4.654837 -51.520802 1.800972
5.137253 -53.001514 1.725198
4.139123 -52.01477 2.458086
6.528428 -50.417281 -0.055981
5.837299 -50.706041 0.553931
7.098214 -50.082363 -0.582814
7.313749 -51.2941 -0.637941
6.528428 -50.417281 -0.055981
7.335666 -83.58733 28.616378
6.800129 -82.721798 29.312349
8.273374 -86.215294 26.301865
8.088044 -85.328797 27.108425
8.30781 -85.039803 25.773354
9.16686 -84.251602 21.862559
9.403935 -84.038211 20.559186
11.797581 -77.034096 10.996357
11.43918 -77.080345 12.118105
11.310237 -71.721779 6.596829
10.941505 -72.016655 7.58861
10.3694 -70.708893 7.32979
10.450785 -54.394316 -3.077386
10.92339 -55.575583 -3.290421
10.267824 -55.278431 -2.690993
10.655544 -53.617841 -3.352598
10.450785 -54.394316 -3.077386
9.999978 -53.32069 -2.753169
10.854836 -52.683927 -3.623347
10.655544 -53.617841 -3.352598
10.453979 -81.5322 17.209167
10.621567 -80.46875 16.817709
4.397244 -77.70443 28.912808
4.764091 -78.812454 29.475606
4.765462 -77.486542 27.759018
4.397244 -77.70443 28.912808
4.001145 -76.615051 28.370276
-3.290953 -52.883734 19.092583
-3.194681 -53.16345 20.123753
-2.789565 -54.312138 17.951918
-3.290953 -52.883734 19.092583
-3.293554 -52.578585 18.065433
-2.068201 -54.983168 14.816161
-2.119341 -55.332521 15.835328
-2.741026 -53.657635 15.905602
-1.917933 -54.612911 13.818107
-1.296248 -56.287798 13.747833
-2.068201 -54.983168 14.816161
-0.765012 -52.509107 9.005461
-1.07621 -52.949321 9.938723
-0.399334 -52.042734 8.119536
0.227906 -53.744361 8.056016
-0.765012 -52.509107 9.005461
0.012261 -51.599958 7.235605
-0.399334 -52.042734 8.119536
1.034841 -52.803253 6.338653
0.012261 -51.599958 7.235605
8.624643 -84.761605 24.477496
8.30781 -85.039803 25.773354
8.439312 -83.875107 25.284056
11.170577 -74.796856 10.298386
11.593156 -75.908123 10.651623
10.788145 -74.893082 11.397451
11.568058 -74.639248 9.228235
11.170577 -74.796856 10.298386
10.763047 -73.624207 9.974063
11.911126 -74.495953 8.17697
11.568058 -74.639248 9.228235
11.937542 -71.013889 4.67757
11.617425 -71.406456 5.621821
11.058249 -70.02145 5.393757
11.937542 -71.013889 4.67757
12.17491 -70.571796 3.752022
11.356102 -56.805653 -3.550666
10.92339 -55.575583 -3.290421
2.778445 -73.249866 26.832466
3.178247 -74.396412 27.320273
3.033139 -73.075615 25.707254
2.778445 -73.249866 26.832466
3.392556 -72.863095 24.564096
3.855333 -73.98782 25.039074
3.033139 -73.075615 25.707254
2.873907 -71.756439 24.105264
2.401692 -70.587242 23.693228
3.696101 -72.668644 23.437083
3.392556 -72.863095 24.564096
2.873907 -71.756439 24.105264
1.871733 -67.826744 20.766968
2.397479 -69.051025 21.07876
2.098227 -67.62611 19.680716
1.871733 -67.826744 20.766968
2.416456 -67.413189 18.582364
3.001703 -68.638397 18.873573
2.098227 -67.62611 19.680716
1.773128 -66.176682 18.315319
2.676604 -67.188969 17.508176
2.416456 -67.413189 18.582364
1.206525 -64.859829 18.123821
1.773128 -66.176682 18.315319
1.402365 -64.618885 17.071049
1.206525 -64.859829 18.123821
9.704985 -82.916813 20.137968
9.445847 -82.008484 20.966912
9.762094 -81.819241 19.695222
9.403935 -84.038211 20.559186
9.704985 -82.916813 20.137968
10.138183 -81.649956 18.451723
10.453979 -81.5322 17.209167
10.927846 -67.680855 3.378784
11.635274 -69.117267 3.554134
10.670939 -68.19247 4.274155
10.239547 -66.191917 3.239185
11.203882 -67.116715 2.519164
10.927846 -67.680855 3.378784
6.133637 -81.881508 29.987082
5.450541 -81.016644 30.616551
6.516078 -81.607548 28.74237
6.800129 -82.721798 29.312349
6.133637 -81.881508 29.987082
5.505573 -79.671589 28.859327
5.108104 -79.908123 30.033383
4.764091 -78.812454 29.475606
3.93264 -75.298752 26.699359
3.614971 -75.494823 27.8374
3.178247 -74.396412 27.320273
10.540344 -79.421566 16.40219
10.621567 -80.46875 16.817709
10.17391 -79.525158 17.621648
10.942927 -79.320022 15.206002
10.540344 -79.421566 16.40219
10.495269 -78.37643 16.00994
11.295224 -79.275154 14.021854
10.942927 -79.320022 15.206002
11.282744 -78.215615 13.649636
11.295224 -79.275154 14.021854
11.031254 -77.169559 13.257784
11.282744 -78.215615 13.649636
10.646363 -77.228832 14.421899
10.802799 -76.093563 12.890367
11.43918 -77.080345 12.118105
11.031254 -77.169559 13.257784
8.517144 -50.822851 -1.683854
9.109981 -51.481104 -2.135286
8.476373 -51.617435 -1.616206
8.517144 -50.822851 -1.683854
7.845679 -49.913554 -1.167907
-2.749585 -54.876779 20.008717
-3.194681 -53.16345 20.123753
-2.235771 -56.507944 19.936137
-2.749585 -54.876779 20.008717
-2.27315 -56.248452 18.906486
-1.789157 -58.119158 19.8696
-2.235771 -56.507944 19.936137
-1.233739 -59.404684 18.831151
-1.789157 -58.119158 19.8696
-0.580898 -60.668425 17.791776
-1.233739 -59.404684 18.831151
-1.106494 -59.143356 17.794531
0.158901 -61.846203 16.828062
-0.580898 -60.668425 17.791776
0.382621 -61.572113 15.792116
0.995175 -63.011219 15.865022
0.158901 -61.846203 16.828062
-1.79354 -54.223688 12.816067
-1.917933 -54.612911 13.818107
-1.57825 -53.813677 11.845303
-1.365024 -53.392713 10.871878
-0.930691 -55.507531 11.779015
-1.79354 -54.223688 12.816067
-1.57825 -53.813677 11.845303
1.475105 -50.235226 4.801729
2.075715 -49.848839 4.027185
1.988567 -51.863921 4.734286
1.475105 -50.235226 4.801729
3.081676 -52.964264 3.89484
2.569206 -53.428861 4.66777
1.988567 -51.863921 4.734286
5.291801 -51.145305 1.143527
4.654837 -51.520802 1.800972
6.198465 -52.068281 0.478488
5.291801 -51.145305 1.143527
5.837299 -50.706041 0.553931
7.805621 -84.440064 27.872516
7.335666 -83.58733 28.616378
7.652525 -83.300572 27.323776
7.805621 -84.440064 27.872516
8.088044 -85.328797 27.108425
8.850564 -84.497028 23.151829
9.072441 -83.351483 22.698927
9.16686 -84.251602 21.862559
8.624643 -84.761605 24.477496
8.850564 -84.497028 23.151829
11.797581 -77.034096 10.996357
11.593156 -75.908123 10.651623
11.521434 -73.24807 7.879781
10.580598 -72.235184 8.612742
10.941505 -72.016655 7.58861
11.911126 -74.495953 8.17697
11.521434 -73.24807 7.879781
11.310237 -71.721779 6.596829
11.617425 -71.406456 5.621821
11.389392 -66.47454 1.674041
11.203882 -67.116715 2.519164
11.608277 -65.801147 0.86876
11.389392 -66.47454 1.674041
10.734468 -64.954384 1.574284
11.724381 -65.028183 0.077253
11.608277 -65.801147 0.86876
11.889678 -64.251368 -0.666627
11.724381 -65.028183 0.077253
11.11865 -63.504176 0.025124
11.950368 -63.358396 -1.397512
12.556099 -64.882404 -1.345384
11.889678 -64.251368 -0.666627
12.075377 -62.492452 -2.068982
11.950368 -63.358396 -1.397512
11.408955 -61.861416 -1.390225
12.105935 -61.499544 -2.728194
12.075377 -62.492452 -2.068982
11.639867 -60.059809 -2.646279
12.105935 -61.499544 -2.728194
11.053449 -58.634464 -2.562143
11.639867 -60.059809 -2.646279
10.947546 -59.570127 -1.977558
10.550778 -57.30224 -2.398725
11.243099 -57.791922 -3.067446
11.053449 -58.634464 -2.562143
9.677745 -51.615368 -2.615658
9.636973 -52.409952 -2.54801
9.109981 -51.481104 -2.135286
10.389411 -51.647097 -3.187698
9.677745 -51.615368 -2.615658
10.854836 -52.683927 -3.623347
10.389411 -51.647097 -3.187698
3 0 29 28
3 1 32 30
3 1 34 32
3 119 36 120
3 3 39 37
3 3 41 39
3 3 43 41
3 121 46 122
3 123 122 44
3 121 122 123
3 124 48 125
3 126 125 46
3 124 125 126
3 127 50 128
3 130 129 50
3 2 55 53
3 4 57 56
3 132 131 58
3 5 61 59
3 5 63 61
3 6 133 134
3 135 65 136
3 137 66 138
3 139 138 65
3 137 138 139
3 140 68 141
3 142 141 66
3 140 141 142
3 9 143 145
3 145 144 69
3 143 144 145
3 10 73 71
3 12 74 31
3 12 75 74
3 12 77 75
3 14 78 33
3 14 79 78
3 146 80 147
3 16 81 35
3 16 82 81
3 7 83 64
3 17 84 38
3 17 85 84
3 17 86 85
3 18 87 40
3 18 88 87
3 18 89 88
3 20 90 42
3 20 91 90
3 8 92 67
3 21 93 45
3 21 94 93
3 21 95 94
3 22 96 47
3 22 97 96
3 149 148 98
3 23 99 49
3 23 100 99
3 23 101 100
3 24 102 51
3 24 103 102
3 25 150 152
3 150 104 151
3 150 151 152
3 25 105 104
3 25 106 105
3 153 107 154
3 155 154 52
3 153 154 155
3 156 108 157
3 158 157 107
3 156 157 158
3 159 109 160
3 161 110 162
3 163 162 109
3 161 162 163
3 164 111 165
3 166 165 110
3 164 165 166
3 167 112 168
3 169 98 170
3 171 170 112
3 169 170 171
3 15 172 173
3 176 175 54
3 174 175 176
3 178 177 70
3 19 179 180
3 11 181 183
3 183 182 72
3 181 182 183
3 13 114 76
3 27 115 60
3 27 116 115
3 27 117 116
3 26 118 62
3 26 113 118
3 28 184 186
3 186 185 6
3 184 185 186
3 29 187 189
3 189 188 28
3 187 188 189
3 29 190 191
3 193 192 9
3 30 31 10
3 32 31 30
3 32 12 31
3 32 33 12
3 34 33 32
3 34 14 33
3 194 35 195
3 36 196 198
3 196 35 197
3 196 197 198
3 36 16 35
3 37 38 7
3 39 38 37
3 39 17 38
3 39 40 17
3 41 40 39
3 41 18 40
3 41 42 18
3 43 42 41
3 43 20 42
3 44 45 8
3 46 45 44
3 46 21 45
3 46 47 21
3 48 47 46
3 48 22 47
3 199 49 200
3 50 201 203
3 201 49 202
3 201 202 203
3 50 23 49
3 50 51 23
3 204 51 205
3 206 205 50
3 204 205 206
3 207 24 208
3 209 208 51
3 207 208 209
3 210 25 211
3 212 52 213
3 214 213 25
3 212 213 214
3 215 52 216
3 218 217 52
3 53 54 15
3 55 54 53
3 55 219 221
3 221 220 54
3 219 220 221
3 56 222 224
3 224 223 19
3 222 223 224
3 57 225 227
3 227 226 56
3 225 226 227
3 57 228 229
3 58 230 232
3 232 231 11
3 230 231 232
3 234 233 58
3 59 60 13
3 61 60 59
3 61 27 60
3 61 62 27
3 63 62 61
3 63 26 62
3 236 235 6
3 237 64 238
3 239 64 240
3 241 7 242
3 243 242 64
3 241 242 243
3 65 244 245
3 65 246 248
3 246 7 247
3 246 247 248
3 65 37 7
3 66 37 65
3 66 3 37
3 66 67 3
3 68 67 66
3 68 8 67
3 249 68 250
3 251 68 252
3 253 8 254
3 255 254 68
3 253 254 255
3 256 44 257
3 258 257 8
3 256 257 258
3 259 44 260
3 262 261 44
3 69 70 2
3 263 70 264
3 265 264 69
3 263 264 265
3 267 266 70
3 269 268 9
3 71 72 4
3 73 72 71
3 73 11 72
3 31 73 10
3 74 73 31
3 74 11 73
3 74 58 11
3 75 58 74
3 75 270 272
3 272 271 58
3 270 271 272
3 75 273 275
3 273 76 274
3 273 274 275
3 77 76 75
3 77 13 76
3 33 77 12
3 78 77 33
3 78 13 77
3 78 59 13
3 79 59 78
3 79 5 59
3 80 276 277
3 80 278 280
3 278 15 279
3 278 279 280
3 35 281 283
3 281 80 282
3 281 282 283
3 81 80 35
3 81 15 80
3 81 53 15
3 82 53 81
3 82 2 53
3 64 284 286
3 284 36 285
3 284 285 286
3 83 36 64
3 83 16 36
3 38 83 7
3 84 83 38
3 84 16 83
3 84 82 16
3 85 82 84
3 85 2 82
3 85 69 2
3 86 69 85
3 86 9 69
3 40 86 17
3 87 86 40
3 87 9 86
3 87 287 289
3 289 288 9
3 287 288 289
3 88 290 292
3 292 291 87
3 290 291 292
3 88 293 294
3 88 295 296
3 89 297 299
3 299 298 88
3 297 298 299
3 89 300 302
3 300 19 301
3 300 301 302
3 42 89 18
3 90 89 42
3 90 19 89
3 90 56 19
3 91 56 90
3 91 4 56
3 67 43 3
3 92 43 67
3 92 20 43
3 45 92 8
3 93 92 45
3 93 20 92
3 93 91 20
3 94 91 93
3 94 4 91
3 94 71 4
3 95 71 94
3 95 10 71
3 47 95 21
3 96 95 47
3 96 10 95
3 96 30 10
3 97 30 96
3 97 1 30
3 98 303 305
3 305 304 0
3 303 304 305
3 307 306 98
3 49 308 309
3 99 310 312
3 312 311 49
3 310 311 312
3 99 313 314
3 99 315 316
3 100 317 319
3 319 318 99
3 317 318 319
3 100 320 321
3 100 322 324
3 322 48 323
3 322 323 324
3 101 48 100
3 101 22 48
3 51 101 23
3 102 101 51
3 102 22 101
3 102 97 22
3 103 97 102
3 103 1 97
3 325 24 326
3 104 327 328
3 104 329 331
3 329 24 330
3 329 330 331
3 104 103 24
3 105 103 104
3 105 1 103
3 105 34 1
3 106 34 105
3 106 14 34
3 52 106 25
3 107 106 52
3 107 14 106
3 107 79 14
3 108 79 107
3 108 5 79
3 109 332 333
3 109 334 335
3 109 336 338
3 336 108 337
3 336 337 338
3 110 108 109
3 110 5 108
3 110 63 5
3 111 63 110
3 111 26 63
3 339 111 340
3 112 341 343
3 341 111 342
3 341 342 343
3 112 26 111
3 112 113 26
3 98 113 112
3 98 0 113
3 54 344 346
3 346 345 15
3 344 345 346
3 348 347 54
3 70 55 2
3 349 55 350
3 351 350 70
3 349 350 351
3 353 352 55
3 355 354 19
3 72 57 4
3 356 57 357
3 358 357 72
3 356 357 358
3 360 359 57
3 362 361 11
3 76 363 364
3 114 365 367
3 367 366 76
3 365 366 367
3 114 368 369
3 60 114 13
3 115 114 60
3 115 370 372
3 372 371 114
3 370 371 372
3 115 373 375
3 373 374 375
3 116 376 378
3 378 377 115
3 376 377 378
3 116 379 380
3 116 381 382
3 117 383 385
3 385 384 116
3 383 384 385
3 117 386 388
3 386 6 387
3 386 387 388
3 62 117 27
3 118 117 62
3 118 6 117
3 118 28 6
3 113 28 118
3 113 0 28
3 389 29 390
3 391 390 0
3 389 390 391
3 392 29 393
3 395 394 29
