ply
format ascii 1.0
element vertex 177
property float x
property float y
property float z
element face 166
property list uchar int vertex_index
end_header
13.843479 6.40329 78.819069
17.470814 -4.064771 77.721771
10.290787 -7.31743 84.373138
12.149246 -0.470617 81.728188
8.334629 -2.75621 84.361687
15.489931 0.973516 78.117928
16.733574 7.342327 74.707787
18.362827 1.66383 73.954834
14.120764 -5.329515 81.365822
6.221287 -10.044644 86.411964
4.462816 -5.909849 85.690804
12.984291 9.119518 79.112228
13.033079 2.974533 80.309166
11.264606 2.058037 81.911484
12.175854 5.606663 80.559631
16.411934 -1.626471 77.851181
16.966194 1.402176 76.068367
17.910294 -1.234228 75.842178
17.050991 -6.819653 79.538528
15.306439 -7.530945 81.264481
15.855063 -4.608092 79.597672
14.811732 -2.195559 79.768883
18.026043 7.537392 72.490936
8.257723 -8.586701 85.533691
7.44109 -0.456356 84.229752
6.369003 -4.223276 85.211617
5.519215 -2.057436 84.86412
18.680569 -6.279963 77.757385
19.004143 -3.688964 75.810501
11.224516 -3.909232 83.085526
9.268997 -5.062381 84.397057
10.283026 -1.506191 83.186813
9.381319 0.915182 83.231247
14.656071 3.670572 78.464417
15.356103 6.974993 76.847015
16.135708 4.158913 76.42907
17.506115 4.462317 74.275795
18.825542 4.615194 72.100517
19.357977 -0.994179 73.825447
13.432512 -8.411742 82.871552
12.259552 -6.232339 82.971428
13.082106 -2.954556 81.529785
13.889803 0.353769 80.024063
7.269081 -6.416968 85.425194
5.293982 -7.977202 86.125519
14.199616 8.100016 78.031616
13.770022 9.45813 78.178196
13.413885 7.761404 78.965649
18.277499 9.074844 71.609489
18.664138 7.570329 71.399929
9.274255 -7.952065 84.953415
8.815053 -9.630223 85.54512
9.831585 -8.995587 84.964844
6.034045 -0.133356 84.412876
6.480152 -1.256896 84.546936
6.994983 0.667184 84.095692
5.104687 -1.008135 84.608711
6.034045 -0.133356 84.412876
19.460608 -6.094334 76.879162
19.343441 -7.248483 77.850566
19.343441 -7.248483 77.850566
18.537378 -7.525686 78.669242
9.874928 2.744779 82.627056
10.322962 1.48661 82.571365
10.816572 3.316207 81.967174
8.925251 2.108819 83.200752
9.874928 2.744779 82.627056
19.935378 -2.225395 73.886494
19.18106 -2.341572 74.817974
19.758461 -3.572788 74.87902
16.354138 8.796154 74.937077
15.665402 8.612487 76.006691
16.044839 7.15866 75.777401
5.720861 -11.831934 86.850544
6.748876 -11.051379 86.487144
5.236987 -10.871001 86.686577
5.720861 -11.831934 86.850544
3.941247 -7.828475 86.070641
4.35683 -8.862151 86.287999
4.878399 -6.943525 85.908162
3.578601 -6.863125 85.722786
3.941247 -7.828475 86.070641
13.327194 10.850886 78.333492
12.504347 10.449753 79.199982
13.327194 10.850886 78.333492
13.770022 9.45813 78.178196
11.272196 5.09052 81.291248
10.816572 3.316207 81.967174
11.72023 3.83235 81.235557
11.717251 6.903854 80.637287
11.272196 5.09052 81.291248
12.121469 8.660281 79.913586
11.717251 6.903854 80.637287
12.580072 7.363091 79.835929
12.504347 10.449753 79.199982
12.121469 8.660281 79.913586
16.178715 -7.175299 80.401505
15.979806 -8.515493 81.242939
16.852082 -8.159847 80.379963
17.652064 9.022825 72.724815
17.005829 8.925293 73.83324
17.379809 7.439859 73.599362
17.652064 9.022825 72.724815
18.277499 9.074844 71.609489
7.767093 -10.322408 86.048008
8.815053 -9.630223 85.54512
7.239505 -9.315672 85.972827
6.748876 -11.051379 86.487144
7.767093 -10.322408 86.048008
4.608132 -2.972452 84.976837
4.079933 -4.898658 85.390179
4.991015 -3.983643 85.277462
4.608132 -2.972452 84.976837
5.104687 -1.008135 84.608711
19.622394 -4.798834 75.90572
18.842356 -4.984464 76.783943
19.460608 -6.094334 76.879162
19.758461 -3.572788 74.87902
19.622394 -4.798834 75.90572
17.722589 -7.795531 79.559814
16.852082 -8.159847 80.379963
17.86578 -6.549808 78.647956
17.722589 -7.795531 79.559814
18.537378 -7.525686 78.669242
7.955137 1.42305 83.700005
8.411205 0.229413 83.7305
8.925251 2.108819 83.200752
6.994983 0.667184 84.095692
7.955137 1.42305 83.700005
19.063887 6.10923 71.204719
18.664138 7.570329 71.399929
18.425793 6.076293 72.295727
20.088017 -0.930802 72.859848
19.935378 -2.225395 73.886494
19.549877 0.4004 72.8502
20.088017 -0.930802 72.859848
19.052302 1.729405 72.914894
18.860402 0.334825 73.890141
19.549877 0.4004 72.8502
19.283659 3.205087 71.987735
18.594184 3.139512 73.027676
19.052302 1.729405 72.914894
19.494286 4.638968 71.057796
19.283659 3.205087 71.987735
19.063887 6.10923 71.204719
19.494286 4.638968 71.057796
10.866598 -8.388437 84.343666
9.831585 -8.995587 84.964844
15.037133 -8.959886 82.025318
15.979806 -8.515493 81.242939
14.10017 -9.400284 82.828854
15.037133 -8.959886 82.025318
14.369476 -7.971343 82.068016
13.092275 -9.920827 83.547177
14.10017 -9.400284 82.828854
12.43746 -8.935593 83.592873
13.092275 -9.920827 83.547177
11.85098 -7.845891 83.642811
12.43746 -8.935593 83.592873
12.846032 -7.32204 82.92149
11.27517 -6.774884 83.672283
10.866598 -8.388437 84.343666
11.85098 -7.845891 83.642811
14.955927 8.385868 77.04559
14.199616 8.100016 78.031616
14.599791 6.689141 77.833042
14.955927 8.385868 77.04559
15.665402 8.612487 76.006691
16.354138 8.796154 74.937077
17.005829 8.925293 73.83324
4.773334 -9.83728 86.543354
5.236987 -10.871001 86.686577
5.757634 -9.010923 86.268742
4.773334 -9.83728 86.543354
4.35683 -8.862151 86.287999
3.578601 -6.863125 85.722786
4.079933 -4.898658 85.390179
3 0 45 47
3 47 46 11
3 45 46 47
3 0 14 12
3 0 11 14
3 1 17 15
3 1 20 18
3 1 15 20
3 49 48 22
3 2 50 52
3 50 23 51
3 50 51 52
3 53 26 54
3 55 54 24
3 53 54 55
3 57 56 26
3 59 58 27
3 60 27 61
3 3 31 29
3 62 32 63
3 64 63 13
3 62 63 64
3 66 65 32
3 5 35 33
3 7 36 16
3 7 37 36
3 67 38 68
3 69 68 28
3 67 68 69
3 8 39 19
3 8 40 39
3 8 41 40
3 5 42 21
3 5 33 42
3 6 70 72
3 72 71 34
3 70 71 72
3 9 73 74
3 9 75 76
3 4 43 30
3 10 44 25
3 10 77 79
3 79 78 44
3 77 78 79
3 10 80 81
3 11 82 83
3 85 84 11
3 12 13 3
3 14 13 12
3 14 86 88
3 88 87 13
3 86 87 88
3 14 89 90
3 11 91 93
3 93 92 14
3 91 92 93
3 11 94 95
3 15 16 5
3 17 16 15
3 17 7 16
3 18 96 98
3 96 19 97
3 96 97 98
3 20 19 18
3 20 8 19
3 20 21 8
3 15 21 20
3 15 5 21
3 22 99 101
3 101 100 6
3 99 100 101
3 103 102 22
3 23 104 105
3 23 106 108
3 106 9 107
3 106 107 108
3 24 25 4
3 26 25 24
3 26 10 25
3 26 109 111
3 111 110 10
3 109 110 111
3 113 112 26
3 27 28 1
3 114 28 115
3 116 115 27
3 114 115 116
3 118 117 28
3 119 18 120
3 27 121 123
3 121 18 122
3 121 122 123
3 27 1 18
3 29 30 2
3 31 30 29
3 31 4 30
3 13 31 3
3 32 31 13
3 32 4 31
3 32 24 4
3 124 24 125
3 126 125 32
3 124 125 126
3 128 127 24
3 33 34 0
3 35 34 33
3 35 6 34
3 16 35 5
3 36 35 16
3 36 6 35
3 36 22 6
3 37 22 36
3 37 129 131
3 131 130 22
3 129 130 131
3 28 17 1
3 38 17 28
3 38 7 17
3 132 38 133
3 134 38 135
3 136 7 137
3 138 137 38
3 136 137 138
3 139 37 140
3 141 140 7
3 139 140 141
3 142 37 143
3 145 144 37
3 146 2 147
3 19 148 149
3 39 150 152
3 152 151 19
3 150 151 152
3 39 153 154
3 39 155 156
3 40 157 159
3 159 158 39
3 157 158 159
3 40 160 162
3 160 2 161
3 160 161 162
3 40 29 2
3 41 29 40
3 41 3 29
3 21 41 8
3 42 41 21
3 42 3 41
3 42 12 3
3 33 12 42
3 33 0 12
3 34 163 165
3 165 164 0
3 163 164 165
3 167 166 34
3 169 168 6
3 30 23 2
3 43 23 30
3 43 9 23
3 25 43 4
3 44 43 25
3 44 9 43
3 44 170 172
3 172 171 9
3 170 171 172
3 174 173 44
3 176 175 10
