ply
format ascii 1.0
element vertex 146
property float x
property float y
property float z
element face 132
property list uchar int vertex_index
end_header
-43.890938 -9.451494 60.235973
-46.669216 -7.498188 56.492294
-48.75684 -2.412584 56.196465
-45.872223 -4.548947 59.466537
-41.688187 -14.254192 60.929089
-44.011105 -12.362003 56.899895
-41.428703 -11.482846 64.165771
-42.912666 -6.758967 62.874313
-45.249325 -8.475169 58.341103
-46.42292 -5.995783 58.097134
-44.9785 -7.015429 59.866913
-42.747932 -11.865789 60.579296
-42.789581 -13.296598 58.905224
-43.982925 -10.910835 58.5951
-45.320435 -9.964748 56.651451
-40.975471 -10.219332 65.527214
-47.901646 -0.905598 57.544605
-47.87059 -4.976654 56.357655
-47.346542 -3.47273 57.835407
-46.46109 -2.038544 59.050713
-40.824074 -16.595936 61.341373
-41.812416 -15.615719 59.331757
-42.912308 -14.670844 57.30912
-44.146687 -13.741991 55.298584
-45.513954 -12.800188 53.31649
-45.352226 -11.42488 54.928017
-46.739594 -9.003122 54.74749
-42.616489 -10.448052 62.181454
-43.575527 -8.048458 61.692608
-42.239223 -9.111679 63.582893
-41.498901 -7.913506 64.696785
-40.683548 -15.249734 62.946861
-41.616325 -12.851427 62.590763
-44.380104 -5.641602 61.135277
-47.965931 0.39904 57.383921
-47.292174 -0.189262 58.094825
-47.269903 -6.237421 56.424975
-47.993074 -5.740246 55.513941
-47.392387 -7.001014 55.58126
-47.392387 -7.001014 55.58126
-47.427577 -7.753481 54.708858
-46.704405 -8.250655 55.619892
-40.823717 -8.514696 65.645038
-41.237186 -9.066419 65.111999
-40.562002 -9.667609 66.060253
-40.916172 -7.401426 65.093205
-40.823717 -8.514696 65.645038
-40.207296 -15.765141 63.938007
-40.292177 -16.431457 63.128265
-41.522514 -12.167136 63.378267
-41.091322 -13.365092 63.597635
-40.997511 -12.680802 64.385139
-49.410356 -1.894198 55.349043
-49.018499 -3.182824 55.404215
-46.25363 -12.308454 52.341949
-46.153251 -11.629162 53.154173
-40.642324 -11.391423 65.844746
-41.202087 -10.851089 64.846493
-40.86894 -12.02318 65.164024
-40.372911 -10.797918 66.511685
-40.642324 -11.391423 65.844746
-40.562002 -9.667609 66.060253
-40.372911 -10.797918 66.511685
-40.86894 -12.02318 65.164024
-40.997511 -12.680802 64.385139
-48.556235 -0.362119 56.759203
-48.983831 -1.115612 56.085133
-48.329243 -1.659091 56.870535
-48.556235 -0.362119 56.759203
-47.965931 0.39904 57.383921
-43.144177 -5.578702 62.487812
-42.371727 -6.191502 63.307865
-48.575374 -4.464859 55.48481
-47.993074 -5.740246 55.513941
-48.313715 -3.694619 56.27706
-49.018499 -3.182824 55.404215
-48.575374 -4.464859 55.48481
-46.571895 -0.755734 58.84788
-47.292174 -0.189262 58.094825
-47.181368 -1.472071 58.297659
-40.984917 -17.218635 60.640634
-40.522808 -17.726309 61.613647
-41.479088 -16.728526 59.635827
-40.984917 -17.218635 60.640634
-41.318245 -16.105828 60.336565
-41.980289 -16.241388 58.639313
-41.479088 -16.728526 59.635827
-42.530236 -15.768951 57.627994
-41.980289 -16.241388 58.639313
-42.362362 -15.143282 58.320439
-43.093388 -15.298902 56.622332
-42.530236 -15.768951 57.627994
-43.710577 -14.834475 55.617064
-43.093388 -15.298902 56.622332
-43.529498 -14.206418 56.303852
-44.345965 -14.369507 54.615132
-43.710577 -14.834475 55.617064
-44.83032 -13.27109 54.307537
-45.029598 -13.898606 53.624085
-44.345965 -14.369507 54.615132
-46.072388 -10.941508 53.959936
-46.153251 -11.629162 53.154173
-45.43309 -12.112534 54.122253
-46.766071 -9.730628 53.869673
-46.072388 -10.941508 53.959936
-46.04591 -10.214001 54.837753
-47.473511 -8.504876 53.808397
-46.766071 -9.730628 53.869673
-47.473511 -8.504876 53.808397
-47.427577 -7.753481 54.708858
-41.664845 -6.768771 64.219101
-42.371727 -6.191502 63.307865
-42.205783 -7.336237 63.785549
-41.664845 -6.768771 64.219101
-40.916172 -7.401426 65.093205
-40.36244 -17.104558 62.325521
-40.522808 -17.726309 61.613647
-40.753811 -15.922835 62.144117
-40.36244 -17.104558 62.325521
-40.292177 -16.431457 63.128265
-40.624933 -14.564246 63.775684
-40.207296 -15.765141 63.938007
-41.149937 -14.05058 62.768812
-40.624933 -14.564246 63.775684
-41.091322 -13.365092 63.597635
-49.410356 -1.894198 55.349043
-48.983831 -1.115612 56.085133
-43.877896 -5.020019 61.618294
-43.646385 -6.200285 62.004795
-43.144177 -5.578702 62.487812
-44.657545 -4.42302 60.843239
-43.877896 -5.020019 61.618294
-45.403605 -3.876692 60.008869
-45.126164 -5.095275 60.300907
-44.657545 -4.42302 60.843239
-45.698038 -2.621491 59.800957
-46.166657 -3.293745 59.258625
-45.403605 -3.876692 60.008869
-45.821669 -1.375306 59.523899
-45.698038 -2.621491 59.800957
-46.571895 -0.755734 58.84788
-45.821669 -1.375306 59.523899
-45.735279 -13.422739 52.634473
-45.029598 -13.898606 53.624085
-45.735279 -13.422739 52.634473
-46.25363 -12.308454 52.341949
3 0 10 8
3 0 13 11
3 0 8 13
3 35 34 16
3 1 36 38
3 36 17 37
3 36 37 38
3 3 18 9
3 3 19 18
3 4 21 20
3 5 22 12
3 5 23 22
3 5 25 23
3 1 26 14
3 1 39 41
3 41 40 26
3 39 40 41
3 6 29 27
3 42 30 43
3 44 43 15
3 42 43 44
3 46 45 30
3 47 31 48
3 6 49 51
3 49 32 50
3 49 50 51
3 6 27 32
3 2 52 53
3 7 33 28
3 55 54 24
3 8 9 1
3 10 9 8
3 10 3 9
3 11 12 4
3 13 12 11
3 13 5 12
3 13 14 5
3 8 14 13
3 8 1 14
3 56 15 57
3 58 57 6
3 56 57 58
3 59 15 60
3 62 61 15
3 63 6 64
3 16 65 67
3 67 66 2
3 65 66 67
3 69 68 16
3 71 70 7
3 17 72 73
3 17 74 76
3 74 2 75
3 74 75 76
3 9 17 1
3 18 17 9
3 18 2 17
3 18 16 2
3 19 16 18
3 19 77 79
3 79 78 16
3 77 78 79
3 20 80 81
3 21 82 84
3 84 83 20
3 82 83 84
3 21 85 86
3 12 21 4
3 22 21 12
3 22 87 89
3 89 88 21
3 87 88 89
3 22 90 91
3 23 92 94
3 94 93 22
3 92 93 94
3 23 95 96
3 23 97 99
3 97 24 98
3 97 98 99
3 25 24 23
3 25 100 102
3 102 101 24
3 100 101 102
3 14 25 5
3 26 25 14
3 26 103 105
3 105 104 25
3 103 104 105
3 26 106 107
3 109 108 26
3 27 28 0
3 29 28 27
3 29 7 28
3 15 29 6
3 30 29 15
3 30 7 29
3 30 110 112
3 112 111 7
3 110 111 112
3 114 113 30
3 115 20 116
3 31 117 119
3 117 20 118
3 117 118 119
3 31 4 20
3 120 31 121
3 32 122 124
3 122 31 123
3 122 123 124
3 32 4 31
3 32 11 4
3 27 11 32
3 27 0 11
3 126 125 2
3 28 10 0
3 33 10 28
3 33 3 10
3 127 33 128
3 129 128 7
3 127 128 129
3 130 33 131
3 132 3 133
3 134 133 33
3 132 133 134
3 135 19 136
3 137 136 3
3 135 136 137
3 138 19 139
3 141 140 19
3 24 142 143
3 145 144 24
