ply
format ascii 1.0
element vertex 111
property float x
property float y
property float z
element face 90
property list uchar int vertex_index
end_header
-39.664848 -20.809399 14.168738
-39.208244 -17.659943 6.829954
-38.944008 -19.37776 10.828504
-40.50581 -22.907892 6.925001
-41.975414 -20.513515 2.532507
-40.12888 -15.616653 2.434668
-38.971882 -18.555414 8.894548
-39.392601 -21.444553 8.955249
-39.758186 -20.482676 6.865612
-41.17466 -21.757935 4.765804
-40.299843 -19.43639 4.677371
-39.16412 -20.130053 12.597511
-38.72216 -15.296715 8.837772
-39.252159 -22.327009 10.91534
-38.817013 -14.432506 6.848727
-39.064972 -13.493931 4.760151
-39.609135 -16.68372 4.667158
-40.967144 -18.29538 2.418175
-42.855213 -19.16124 0.245776
-39.523202 -21.96868 13.44114
-39.741413 -22.32369 14.243943
-38.773127 -13.893525 9.687494
-38.770561 -15.695383 9.766945
-40.264839 -23.439464 7.955738
-39.708235 -22.707794 8.970862
-39.949205 -22.176223 7.940125
-40.988928 -23.938409 6.940743
-40.264839 -23.439464 7.955738
-41.379711 -23.296168 5.90223
-40.988928 -23.938409 6.940743
-42.573843 -21.410799 2.629789
-42.173466 -22.033009 3.746437
-41.575037 -21.135725 3.649155
-43.07324 -20.671289 1.523022
-42.573843 -21.410799 2.629789
-38.67533 -12.626093 6.887877
-38.704029 -13.058615 7.823457
-39.596926 -14.555292 3.597409
-39.245342 -12.983708 3.679597
-39.777297 -14.04507 2.516856
-43.310581 -18.42331 -0.915395
-42.283247 -18.103913 0.178686
-44.026817 -19.19626 -0.751155
-43.310581 -18.42331 -0.915395
-40.426079 -15.03254 1.295436
-39.777297 -14.04507 2.516856
-40.92008 -16.33162 1.273133
-40.426079 -15.03254 1.295436
-39.440674 -18.818355 13.242925
-39.414484 -20.469726 13.383125
-39.691038 -19.158028 14.028538
-39.15279 -18.480081 12.493953
-39.440674 -18.818355 13.242925
-39.042734 -18.103935 11.60945
-39.054064 -19.753906 11.713007
-39.15279 -18.480081 12.493953
-38.881485 -17.735906 10.762311
-39.042734 -18.103935 11.60945
-38.895422 -17.324732 9.795333
-38.957945 -18.966587 9.861526
-38.881485 -17.735906 10.762311
-38.847021 -16.926064 8.86616
-38.895422 -17.324732 9.795333
-38.770561 -15.695383 9.766945
-40.067224 -21.108161 14.841951
-39.741413 -22.32369 14.243943
-40.115369 -19.464883 14.665947
-40.067224 -21.108161 14.841951
-39.691038 -19.158028 14.028538
-40.115369 -19.464883 14.665947
-39.272838 -21.629007 12.655527
-39.523202 -21.96868 13.44114
-39.414484 -20.469726 13.383125
-39.316858 -22.727485 11.814442
-39.272838 -21.629007 12.655527
-39.20814 -21.228531 11.756426
-39.51754 -23.636957 10.91968
-39.316858 -22.727485 11.814442
-39.638014 -23.149022 9.950907
-39.32238 -21.885781 9.935295
-39.708235 -22.707794 8.970862
-39.51754 -23.636957 10.91968
-39.638014 -23.149022 9.950907
-41.714137 -22.72119 4.822631
-41.379711 -23.296168 5.90223
-40.840235 -22.332914 5.845403
-41.714137 -22.72119 4.822631
-42.173466 -22.033009 3.746437
-38.656603 -13.490719 8.817979
-38.773127 -13.893525 9.687494
-38.769587 -14.864611 7.843249
-38.656603 -13.490719 8.817979
-38.704029 -13.058615 7.823457
-38.842115 -11.692027 4.8559
-39.245342 -12.983708 3.679597
-38.799309 -12.156806 5.843589
-38.842115 -11.692027 4.8559
-38.940993 -13.963218 5.804439
-38.67533 -12.626093 6.887877
-38.799309 -12.156806 5.843589
-41.339213 -17.670983 1.264886
-40.548012 -16.956017 2.426422
-40.92008 -16.33162 1.273133
-41.911178 -18.72831 1.331975
-41.339213 -17.670983 1.264886
-42.283247 -18.103913 0.178686
-43.51314 -19.995151 0.379657
-43.07324 -20.671289 1.523022
-42.415313 -19.837378 1.389142
-43.51314 -19.995151 0.379657
-44.026817 -19.19626 -0.751155
3 0 19 20
3 1 8 6
3 1 10 8
3 21 12 22
3 2 13 11
3 3 23 25
3 25 24 7
3 23 24 25
3 3 26 27
3 3 28 29
3 4 30 32
3 32 31 9
3 30 31 32
3 4 33 34
3 35 14 36
3 5 37 39
3 37 15 38
3 37 38 39
3 5 16 15
3 5 17 16
3 40 18 41
3 43 42 18
3 6 7 2
3 8 7 6
3 8 3 7
3 8 9 3
3 10 9 8
3 10 4 9
3 44 5 45
3 47 46 5
3 48 11 49
3 50 49 0
3 48 49 50
3 51 11 52
3 53 2 54
3 55 54 11
3 53 54 55
3 56 2 57
3 58 6 59
3 60 59 2
3 58 59 60
3 12 61 63
3 61 6 62
3 61 62 63
3 12 1 6
3 64 0 65
3 66 0 67
3 69 68 0
3 11 70 72
3 72 71 0
3 70 71 72
3 13 73 75
3 75 74 11
3 73 74 75
3 13 76 77
3 7 13 2
3 78 13 79
3 80 79 7
3 78 79 80
3 82 81 13
3 9 83 85
3 85 84 3
3 83 84 85
3 87 86 9
3 88 12 89
3 14 90 92
3 90 12 91
3 90 91 92
3 14 1 12
3 15 93 94
3 15 95 96
3 15 97 99
3 97 14 98
3 97 98 99
3 16 14 15
3 16 1 14
3 16 10 1
3 17 10 16
3 17 4 10
3 100 17 101
3 102 101 5
3 100 101 102
3 18 103 105
3 103 17 104
3 103 104 105
3 18 4 17
3 18 106 108
3 108 107 4
3 106 107 108
3 110 109 18
