ply
format ascii 1.0
element vertex 119
property float x
property float y
property float z
element face 104
property list uchar int vertex_index
end_header
-58.996483 -47.820793 22.357529
-55.393402 -44.357903 20.686062
-57.647255 -46.355511 17.639103
-61.710487 -49.565384 18.985971
-58.310749 -44.542534 24.704941
-61.097977 -48.295609 26.900536
-53.718132 -40.898857 21.060274
-57.188744 -46.083107 21.505474
-56.762154 -44.547935 22.726341
-58.364136 -46.36002 23.690413
-59.706635 -46.421021 25.816097
-59.971935 -48.177521 24.656128
-61.531609 -49.998798 25.568369
-60.757515 -49.577568 23.184277
-53.655491 -42.628189 19.963211
-54.250656 -43.948601 18.587429
-56.224461 -45.573696 19.267191
-58.214722 -47.214714 20.0124
-60.155968 -48.887871 20.762522
-59.747189 -47.933064 18.320854
-55.20443 -42.733227 21.82902
-56.94331 -42.659447 23.632513
-59.971474 -44.365669 26.631174
-61.149422 -46.286263 27.887943
-61.969891 -50.597214 21.470097
-52.863468 -40.883938 20.226333
-53.02107 -39.960159 20.761665
-52.166406 -39.94524 19.927724
-53.805996 -43.62347 17.51746
-53.298221 -43.130974 18.311087
-56.935858 -45.964603 18.453147
-55.859419 -45.196424 18.130527
-56.570816 -45.587332 17.316483
-58.557026 -43.489172 25.046185
-57.873306 -42.547629 24.509971
-57.627029 -43.600991 24.168727
-59.141112 -44.454102 25.668058
-59.387389 -43.40074 26.009302
-58.557026 -43.489172 25.046185
-61.703181 -48.244605 27.9966
-61.728903 -47.239931 28.490304
-61.1237 -47.290936 27.394239
-61.766419 -49.227311 27.4032
-61.703181 -48.244605 27.9966
-62.251683 -50.906208 25.979256
-61.96456 -50.673975 24.756077
-57.472222 -45.800297 16.452281
-56.570816 -45.587332 17.316483
-56.395782 -45.032118 16.129662
-58.58958 -46.540053 16.761996
-57.472222 -45.800297 16.452281
-54.04612 -39.86652 21.458068
-53.02107 -39.960159 20.761665
-54.671957 -40.83057 21.862829
-54.04612 -39.86652 21.458068
-61.577513 -50.46336 23.564031
-61.96456 -50.673975 24.756077
-61.144562 -49.788183 24.376323
-62.578193 -50.408642 19.292625
-62.588749 -49.731685 18.048631
-53.000639 -42.470768 18.998978
-52.832147 -41.748604 19.677802
-53.953074 -43.288395 19.27532
-53.000639 -42.470768 18.998978
-53.298221 -43.130974 18.311087
-54.872517 -44.383877 17.790647
-53.805996 -43.62347 17.51746
-55.237558 -44.761148 18.92731
-54.872517 -44.383877 17.790647
-55.859419 -45.196424 18.130527
-59.639547 -47.328829 17.102871
-58.697222 -47.144288 17.979979
-58.58958 -46.540053 16.761996
-60.683693 -48.102942 17.417669
-59.639547 -47.328829 17.102871
-61.665342 -48.919102 17.750228
-60.728838 -48.749224 18.653413
-60.683693 -48.102942 17.417669
-62.588749 -49.731685 18.048631
-61.665342 -48.919102 17.750228
-53.686811 -41.763523 20.511743
-52.863468 -40.883938 20.226333
-52.832147 -41.748604 19.677802
-55.415106 -41.747755 22.247202
-54.671957 -40.83057 21.862829
-54.461281 -41.816042 21.444647
-56.284546 -41.710865 23.148948
-55.415106 -41.747755 22.247202
-56.07387 -42.696337 22.730767
-57.302492 -41.576359 23.92953
-56.284546 -41.710865 23.148948
-57.302492 -41.576359 23.92953
-57.873306 -42.547629 24.509971
-60.333844 -43.226602 26.874049
-59.387389 -43.40074 26.009302
-60.814054 -44.203254 27.577001
-60.333844 -43.226602 26.874049
-61.403029 -45.163551 28.205385
-60.814054 -44.203254 27.577001
-60.560448 -45.325966 27.259559
-61.877617 -46.132908 28.903267
-61.403029 -45.163551 28.205385
-61.877617 -46.132908 28.903267
-61.728903 -47.239931 28.490304
-61.983235 -50.078905 26.737117
-61.766419 -49.227311 27.4032
-61.314793 -49.147204 26.234452
-61.983235 -50.078905 26.737117
-62.251683 -50.906208 25.979256
-62.183701 -50.973183 22.706941
-61.577513 -50.46336 23.564031
-61.363703 -50.087391 22.327187
-62.707895 -50.924557 20.534688
-61.840189 -50.081299 20.228034
-62.578193 -50.408642 19.292625
-62.768751 -51.46582 21.788685
-62.707895 -50.924557 20.534688
-62.183701 -50.973183 22.706941
-62.768751 -51.46582 21.788685
3 25 6 26
3 25 26 27
3 0 9 7
3 0 11 9
3 0 13 11
3 28 15 29
3 2 30 32
3 30 16 31
3 30 31 32
3 2 17 16
3 2 19 17
3 1 20 14
3 4 21 8
3 4 33 35
3 35 34 21
3 33 34 35
3 4 36 38
3 36 22 37
3 36 37 38
3 5 23 10
3 5 39 41
3 41 40 23
3 39 40 41
3 5 42 43
3 45 44 12
3 3 24 18
3 46 2 47
3 46 47 48
3 50 49 2
3 6 51 52
3 6 53 54
3 7 8 1
3 9 8 7
3 9 4 8
3 9 10 4
3 11 10 9
3 11 5 10
3 11 12 5
3 13 12 11
3 13 55 57
3 57 56 12
3 55 56 57
3 59 58 3
3 60 14 61
3 15 62 64
3 62 14 63
3 62 63 64
3 15 1 14
3 65 15 66
3 16 67 69
3 67 15 68
3 67 68 69
3 16 1 15
3 16 7 1
3 17 7 16
3 17 0 7
3 17 18 0
3 19 18 17
3 19 3 18
3 70 19 71
3 72 71 2
3 70 71 72
3 73 19 74
3 75 3 76
3 77 76 19
3 75 76 77
3 79 78 3
3 14 80 82
3 80 6 81
3 80 81 82
3 20 6 14
3 20 83 85
3 85 84 6
3 83 84 85
3 8 20 1
3 21 20 8
3 21 86 88
3 88 87 20
3 86 87 88
3 21 89 90
3 92 91 21
3 22 93 94
3 22 95 96
3 10 22 4
3 23 22 10
3 23 97 99
3 99 98 22
3 97 98 99
3 23 100 101
3 103 102 23
3 12 104 106
3 106 105 5
3 104 105 106
3 108 107 12
3 18 13 0
3 24 13 18
3 24 109 111
3 111 110 13
3 109 110 111
3 112 24 113
3 114 113 3
3 112 113 114
3 115 24 116
3 118 117 24
