ply
format ascii 1.0
element vertex 88
property float x
property float y
property float z
element face 72
property list uchar int vertex_index
end_header
-1.752775 50.997208 -31.126356
-0.480284 48.487 -33.425438
-1.256853 59.885239 -30.029173
0.322758 65.617195 -31.699526
-0.367008 57.448639 -33.228409
-1.238134 49.82769 -32.490967
-0.082632 61.633736 -32.624748
0.677835 60.013878 -33.832123
0.450562 55.846489 -34.208359
-2.039141 52.003441 -29.363062
-1.568903 55.550964 -30.737612
-0.590561 62.957962 -31.008314
-0.937735 58.791481 -31.828566
-1.162792 54.414543 -32.3256
-0.508722 53.064934 -33.495728
0.384417 51.499557 -34.240616
-1.765726 48.611172 -31.162216
-1.974308 49.142567 -30.386465
-1.495455 50.412449 -31.808661
-1.508406 48.026413 -31.844521
-1.765726 48.611172 -31.162216
1.33614 61.029335 -33.98449
0.861216 62.004921 -33.475628
1.168604 59.056076 -34.23415
1.33614 61.029335 -33.98449
-0.365882 46.106289 -33.23114
-0.807072 46.76215 -32.879341
0.013253 47.734016 -33.682651
-0.365882 46.106289 -33.23114
-2.087606 52.435276 -28.312509
-2.229945 50.120327 -28.546768
-1.501333 58.188065 -29.401893
-1.301386 60.319786 -28.954735
-1.412878 57.718102 -30.383392
-1.657358 56.020927 -29.756113
-1.501333 58.188065 -29.401893
0.579481 67.504615 -31.087019
0.930141 66.700772 -31.893868
0.089826 66.265381 -30.791191
0.579481 67.504615 -31.087019
-0.133902 64.287578 -31.35392
-0.366834 64.935765 -30.445585
0.089826 66.265381 -30.791191
0.932126 52.744907 -34.514057
0.41749 53.673023 -34.224488
0.965199 54.918373 -34.497929
0.930818 50.614861 -34.418484
0.932126 52.744907 -34.514057
-1.185997 47.432495 -32.412105
-1.508406 48.026413 -31.844521
-0.859209 49.157345 -32.958202
-0.807072 46.76215 -32.879341
-1.185997 47.432495 -32.412105
-1.050717 61.944291 -29.520666
-1.301386 60.319786 -28.954735
0.683677 64.806579 -32.409329
0.930141 66.700772 -31.893868
0.480982 62.81485 -32.87194
0.120063 63.625465 -32.162137
0.683677 64.806579 -32.409329
0.297601 60.823807 -33.228436
0.480982 62.81485 -32.87194
0.861216 62.004921 -33.475628
1.054968 56.972381 -34.422268
0.564199 57.930183 -34.020241
1.168604 59.056076 -34.23415
0.965199 54.918373 -34.497929
1.054968 56.972381 -34.422268
-2.117491 49.645684 -29.504818
-2.229945 50.120327 -28.546768
-1.895958 51.500325 -30.244709
-1.974308 49.142567 -30.386465
-2.117491 49.645684 -29.504818
-1.892477 54.247166 -29.068838
-2.087606 52.435276 -28.312509
-1.804022 53.777203 -30.050337
-1.892477 54.247166 -29.068838
-1.657358 56.020927 -29.756113
-0.717572 63.480652 -30.010236
-0.366834 64.935765 -30.445585
-0.923707 61.4216 -30.518743
-1.050717 61.944291 -29.520666
-0.717572 63.480652 -30.010236
0.445603 49.240295 -34.090241
0.013253 47.734016 -33.682651
-0.047933 49.993279 -33.833027
0.445603 49.240295 -34.090241
0.930818 50.614861 -34.418484
3 0 16 17
3 0 18 20
3 18 5 19
3 18 19 20
3 21 7 22
3 24 23 7
3 1 25 26
3 1 27 28
3 29 9 30
3 2 31 32
3 2 33 35
3 33 10 34
3 33 34 35
3 3 36 37
3 3 38 39
3 3 40 42
3 40 11 41
3 40 41 42
3 4 12 6
3 4 13 12
3 4 14 13
3 43 15 44
3 45 44 8
3 43 44 45
3 47 46 15
3 5 48 49
3 5 50 52
3 50 1 51
3 50 51 52
3 53 2 54
3 55 3 56
3 57 6 58
3 59 58 3
3 57 58 59
3 7 60 62
3 60 6 61
3 60 61 62
3 7 4 6
3 7 8 4
3 63 8 64
3 65 64 7
3 63 64 65
3 67 66 8
3 9 68 69
3 9 70 72
3 70 0 71
3 70 71 72
3 73 9 74
3 10 75 77
3 75 9 76
3 75 76 77
3 10 0 9
3 11 78 79
3 11 80 82
3 80 2 81
3 80 81 82
3 6 11 3
3 12 11 6
3 12 2 11
3 12 10 2
3 13 10 12
3 13 0 10
3 13 5 0
3 14 5 13
3 14 1 5
3 8 14 4
3 15 14 8
3 15 1 14
3 15 83 85
3 85 84 1
3 83 84 85
3 87 86 15
