ply
format ascii 1.0
element vertex 132
property float x
property float y
property float z
element face 118
property list uchar int vertex_index
end_header
56.280018 38.873962 8.346491
52.334118 37.569599 4.579227
56.718315 32.942413 9.046719
54.964775 41.15818 4.940167
55.225182 44.434402 6.28862
55.120007 35.313824 6.700931
55.01091 29.03587 7.163147
50.893784 41.542385 2.075253
50.645348 38.652325 3.584949
52.48444 40.50053 3.327242
54.866409 45.542519 4.147772
55.780342 40.036697 6.617798
55.094482 38.292984 5.989019
55.993767 37.144405 7.413429
56.119217 31.055309 7.940697
52.156197 34.493114 5.518784
56.432926 37.655426 10.095437
56.55632 35.955647 8.883872
56.752602 34.710011 10.375437
53.877739 42.244656 3.331319
54.694599 43.919361 3.606999
55.414047 42.829643 5.502057
55.846329 41.695747 7.457454
55.963745 40.507114 9.442381
53.905552 39.411999 4.626633
53.847473 36.453159 5.611998
53.739452 33.367561 6.270094
56.092361 34.147984 7.848783
55.079903 32.223915 7.073769
53.613377 30.165581 6.636653
52.528307 41.895149 2.559607
51.689112 41.021457 2.701248
51.732979 42.416077 1.933612
51.732979 42.416077 1.933612
50.999848 42.907112 1.191046
51.365167 36.58213 4.688173
50.520782 37.123493 4.191033
51.489733 38.110962 4.082088
52.245157 36.031357 5.049005
51.276207 35.043888 5.157951
51.365167 36.58213 4.688173
56.490366 35.536789 11.102232
56.592764 36.182719 10.235437
56.330528 37.009496 10.962232
54.474033 45.259901 2.841366
54.210697 44.442448 2.696998
55.535559 41.274859 10.052204
55.636375 41.889274 8.957611
55.858566 39.877786 10.429561
55.535559 41.274859 10.052204
54.252544 27.949787 6.980549
53.553778 28.514643 6.717302
54.312144 29.600725 6.8999
50.769566 40.097355 2.830101
49.74693 39.163123 3.091282
49.871147 40.608153 2.336434
50.045956 42.023768 1.458539
50.999848 42.907112 1.191046
49.871147 40.608153 2.336434
50.045956 42.023768 1.458539
54.493971 46.874836 3.402099
54.559939 46.07148 3.111752
54.634666 46.330303 4.543874
54.493971 46.874836 3.402099
54.814053 45.776245 5.614298
55.045795 44.988461 5.218196
54.634666 46.330303 4.543874
56.467409 30.451656 8.407148
56.418766 31.998861 8.493708
56.766958 31.395208 8.960158
56.118084 29.468761 7.853518
56.467409 30.451656 8.407148
55.56393 28.459042 7.464742
55.565064 30.045589 7.551922
56.118084 29.468761 7.853518
54.977215 27.40123 7.119356
55.56393 28.459042 7.464742
49.586565 37.651218 3.82745
49.74693 39.163123 3.091282
49.586565 37.651218 3.82745
50.520782 37.123493 4.191033
51.163761 33.434839 5.617284
51.276207 35.043888 5.157951
52.067432 32.886425 5.841641
51.163761 33.434839 5.617284
56.66536 34.050347 11.118961
56.490366 35.536789 11.102232
56.863108 33.195284 10.32809
56.66536 34.050347 11.118961
56.845964 32.311485 9.663731
56.735459 33.826212 9.711078
56.863108 33.195284 10.32809
56.766958 31.395208 8.960158
56.845964 32.311485 9.663731
53.802267 43.605095 2.559158
53.224956 42.767212 2.561646
54.286169 43.082009 3.469159
53.802267 43.605095 2.559158
54.210697 44.442448 2.696998
54.780504 44.73094 3.877385
54.474033 45.259901 2.841366
54.559939 46.07148 3.111752
54.838547 45.202934 6.784192
54.814053 45.776245 5.614298
55.267094 43.852919 7.380731
54.838547 45.202934 6.784192
55.577667 42.483591 7.965148
55.535755 43.065074 6.873037
55.267094 43.852919 7.380731
55.905037 41.10143 8.449917
55.577667 42.483591 7.965148
55.636375 41.889274 8.957611
56.093156 38.451943 10.756089
56.198335 39.08127 9.768909
55.858566 39.877786 10.429561
56.330528 37.009496 10.962232
56.093156 38.451943 10.756089
53.181089 41.372593 3.329281
52.528307 41.895149 2.559607
53.224956 42.767212 2.561646
52.85906 32.323649 6.217296
52.067432 32.886425 5.841641
52.947824 33.930338 5.894439
52.796022 30.722659 6.400576
52.85906 32.323649 6.217296
53.676414 31.766571 6.453373
52.717264 29.055952 6.609922
52.796022 30.722659 6.400576
52.717264 29.055952 6.609922
53.553778 28.514643 6.717302
54.252544 27.949787 6.980549
54.977215 27.40123 7.119356
3 30 9 31
3 32 31 7
3 30 31 32
3 33 7 34
3 0 13 11
3 1 35 37
3 37 36 8
3 35 36 37
3 1 38 40
3 38 15 39
3 38 39 40
3 41 18 42
3 43 42 16
3 41 42 43
3 44 20 45
3 4 21 10
3 4 22 21
3 46 23 47
3 49 48 23
3 3 24 19
3 5 25 12
3 5 26 25
3 2 27 17
3 6 28 14
3 6 29 28
3 6 50 52
3 52 51 29
3 50 51 52
3 7 53 55
3 53 8 54
3 53 54 55
3 9 8 7
3 9 1 8
3 7 56 57
3 7 58 59
3 60 10 61
3 62 10 63
3 64 4 65
3 66 65 10
3 64 65 66
3 11 12 3
3 13 12 11
3 13 5 12
3 67 14 68
3 69 68 2
3 67 68 69
3 70 14 71
3 72 6 73
3 74 73 14
3 72 73 74
3 76 75 6
3 8 77 78
3 80 79 8
3 15 81 82
3 15 83 84
3 16 17 0
3 18 17 16
3 18 2 17
3 85 18 86
3 87 18 88
3 89 2 90
3 91 90 18
3 89 90 91
3 93 92 2
3 94 19 95
3 20 96 98
3 96 19 97
3 96 97 98
3 20 3 19
3 10 99 101
3 99 20 100
3 99 100 101
3 21 20 10
3 21 3 20
3 21 11 3
3 22 11 21
3 22 0 11
3 102 4 103
3 104 4 105
3 106 22 107
3 108 107 4
3 106 107 108
3 23 109 111
3 109 22 110
3 109 110 111
3 23 0 22
3 23 16 0
3 112 16 113
3 114 113 23
3 112 113 114
3 116 115 16
3 19 117 119
3 117 9 118
3 117 118 119
3 24 9 19
3 24 1 9
3 12 24 3
3 25 24 12
3 25 1 24
3 25 15 1
3 26 15 25
3 26 120 122
3 122 121 15
3 120 121 122
3 17 13 0
3 27 13 17
3 27 5 13
3 14 27 2
3 28 27 14
3 28 5 27
3 28 26 5
3 29 26 28
3 29 123 125
3 125 124 26
3 123 124 125
3 29 126 127
3 129 128 29
3 131 130 6
