ply
format ascii 1.0
element vertex 337
property float x
property float y
property float z
element face 347
property list uchar int vertex_index
end_header
-66.69062 -57.017818 17.005142
-63.708206 -43.193531 45.653805
-63.518108 -47.897957 31.240265
-66.492767 -45.524002 39.416168
-59.704243 -51.395832 49.852551
-64.490814 -53.032997 44.206909
-65.698174 -55.170097 35.143204
-64.958023 -54.874928 25.195692
-62.526024 -52.045017 47.694038
-64.431473 -48.097107 45.722828
-65.552834 -46.866043 35.42675
-65.950912 -50.591415 38.000122
-65.038635 -51.634842 33.492805
-65.364182 -55.538822 30.221212
-63.648396 -51.998089 28.799236
-65.894882 -44.212227 42.954048
-60.385139 -55.912052 48.893517
-62.495579 -56.710407 45.557098
-64.043327 -57.637207 41.189159
-65.840927 -49.287403 42.189034
-65.512276 -54.186073 39.878616
-65.613403 -58.809765 31.271404
-65.975426 -58.233406 26.163055
-66.392212 -56.443417 21.081524
-62.397511 -51.349152 23.943785
-64.8601 -52.978268 20.146708
-67.001472 -53.472652 16.138891
-63.240185 -47.623722 47.103275
-64.16024 -45.623085 45.860867
-64.631561 -47.442345 33.351135
-65.189247 -49.326118 34.64336
-64.349754 -49.786697 32.440598
-64.363174 -51.925995 31.16711
-63.401657 -50.077881 30.195553
-58.715637 -53.435043 50.374199
-59.141815 -55.602413 50.005325
-60.163078 -53.671982 49.578838
-63.62516 -52.503944 46.088623
-62.603329 -54.411293 46.819206
-63.557819 -54.884037 44.952911
-63.340778 -57.168144 43.465122
-64.323425 -55.399906 42.853668
-66.398758 -44.844849 41.265129
-65.923447 -46.745258 42.758511
-66.246124 -47.405869 40.894489
-65.780334 -52.973793 36.736626
-65.857132 -52.406948 39.023064
-65.694626 -54.725719 37.543098
-65.303246 -56.427383 38.217175
-65.547974 -56.846283 35.776085
-65.666786 -57.127411 33.291569
-65.142014 -55.355576 27.717484
-65.694489 -57.045113 28.245602
-65.696167 -56.585705 25.702656
-66.16375 -57.496689 23.612656
-65.744522 -55.81049 23.160635
-63.4459 -51.2519 19.599279
-66.069702 -53.333782 18.139055
-61.210079 -51.672428 48.962357
-62.247337 -49.646626 48.13929
-63.52504 -50.069565 46.811104
-64.533997 -50.582203 45.175392
-66.195908 -46.211906 37.456825
-66.204117 -48.086639 38.893425
-65.832657 -48.74295 36.799591
-65.593262 -51.172291 35.773689
-65.511551 -53.43195 34.390152
-65.569382 -55.460339 32.698902
-65.1129 -53.724125 31.998497
-64.654434 -53.796719 29.568737
-64.206108 -53.605637 27.105366
-64.576096 -41.226494 44.152615
-64.987823 -43.655678 44.431286
-65.711647 -41.724113 42.844185
-66.443161 -42.308525 41.31562
-66.742355 -42.958031 39.609833
-66.606873 -43.641781 37.776764
-66.061905 -44.323479 35.863171
-65.159744 -44.964893 33.904716
-63.976517 -45.52858 31.921659
-61.466644 -54.002399 48.38147
-61.508118 -56.286629 47.391075
-65.224396 -46.142044 44.432003
-65.303375 -48.659431 44.065788
-65.257355 -51.165092 43.291458
-66.048508 -49.946175 40.150581
-65.693466 -51.787254 41.222103
-65.117599 -53.606079 42.116234
-64.901779 -55.928215 40.589714
-65.70015 -57.211727 30.778238
-65.802917 -58.661163 28.719522
-66.07309 -59.116806 24.055218
-66.396606 -58.120522 21.519844
-66.744705 -56.824593 19.018354
-62.605812 -45.979553 29.918591
-62.308384 -48.1936 29.092665
-62.43486 -50.159012 27.905865
-62.971756 -51.813618 26.390144
-63.828972 -53.121742 24.614639
-63.567612 -52.334427 22.107273
-64.855438 -54.080704 22.667042
-65.865791 -54.719177 20.633848
-66.672363 -55.089806 18.584934
-67.117264 -55.259956 16.565498
-66.438571 -57.0565 16.029012
-66.220917 -57.867334 17.247355
-66.895229 -56.160755 15.800621
-66.438571 -57.0565 16.029012
-63.934223 -44.408308 45.757336
-63.461725 -45.413055 46.431196
-63.235708 -44.198279 46.327665
-62.004585 -48.448595 48.151291
-61.489339 -49.484612 48.628031
-65.532146 -40.510807 42.690426
-65.143872 -41.475304 43.4984
-64.964371 -40.261997 43.344641
-66.658798 -41.366687 40.434406
-66.38501 -41.065693 41.226263
-66.808395 -41.69144 39.581513
-66.592758 -42.633278 40.462727
-66.658798 -41.366687 40.434406
-66.60947 -42.698667 36.895321
-66.788021 -42.360529 37.802944
-66.336986 -43.039516 35.938524
-66.334389 -43.98263 36.819968
-66.60947 -42.698667 36.895321
-64.924767 -44.003769 33.090111
-65.496353 -43.692813 34.028358
-65.261375 -42.73169 33.213752
-64.333153 -44.285612 32.098582
-64.56813 -45.246736 32.913187
-64.924767 -44.003769 33.090111
-59.850447 -56.822086 49.074625
-59.228785 -56.667267 49.630529
-59.763477 -55.757233 49.449421
-60.384124 -57.009096 48.363659
-59.850447 -56.822086 49.074625
-61.925013 -57.606344 45.805076
-61.431282 -57.394455 46.722065
-62.001849 -56.498518 46.474086
-62.358797 -57.811008 44.77232
-61.925013 -57.606344 45.805076
-63.514443 -58.479225 41.452623
-63.163168 -58.244693 42.590604
-63.692053 -57.402676 42.32714
-63.845688 -58.67276 40.249285
-63.514443 -58.479225 41.452623
-64.955578 -57.255783 38.504897
-65.174031 -57.446041 37.26985
-65.355133 -59.573526 31.504539
-65.492443 -58.767735 32.540422
-65.529476 -59.504904 30.22301
-65.355133 -59.573526 31.504539
-65.86911 -59.019179 26.386869
-65.782855 -59.233057 27.665103
-65.889172 -58.447285 27.441288
-66.024258 -58.675106 25.109136
-65.917942 -59.460878 25.332951
-65.86911 -59.019179 26.386869
-62.131224 -45.010197 29.220709
-62.935246 -44.785587 30.159096
-61.703181 -48.244605 27.9966
-61.728903 -47.239931 28.490304
-61.766419 -49.227311 27.4032
-62.371622 -49.176306 28.499265
-61.703181 -48.244605 27.9966
-62.684634 -51.581385 25.166964
-62.251683 -50.906208 25.979256
-61.96456 -50.673975 24.756077
-67.252144 -53.473423 15.157127
-67.31004 -54.367075 15.37043
-67.059368 -54.366304 16.352195
-63.001697 -46.413374 47.0524
-62.501009 -47.437144 47.633283
-63.700212 -46.623404 46.482071
-63.001697 -46.413374 47.0524
-63.461725 -45.413055 46.431196
-58.928726 -54.518728 50.189762
-58.471096 -55.494802 50.350051
-58.258007 -54.411118 50.534488
-65.296394 -57.655491 36.049305
-65.174031 -57.446041 37.26985
-65.42561 -56.636833 36.99663
-65.459728 -57.785994 34.792763
-65.296394 -57.655491 36.049305
-65.519135 -57.926558 33.550505
-65.459728 -57.785994 34.792763
-65.60738 -56.986847 34.533827
-65.640095 -57.968588 32.281486
-65.492443 -58.767735 32.540422
-65.519135 -57.926558 33.550505
-61.577513 -50.46336 23.564031
-61.96456 -50.673975 24.756077
-63.456455 -50.574944 18.355286
-62.578193 -50.408642 19.292625
-62.588749 -49.731685 18.048631
-64.212238 -51.42214 18.626241
-63.456455 -50.574944 18.355286
-64.919339 -52.285325 18.899956
-64.153 -52.115084 19.872993
-64.212238 -51.42214 18.626241
-65.52414 -52.463082 17.89613
-65.464901 -53.156025 19.142882
-64.919339 -52.285325 18.899956
-66.209721 -52.513792 16.916551
-65.52414 -52.463082 17.89613
-66.675606 -52.583227 15.916469
-66.535587 -53.403217 17.138973
-66.209721 -52.513792 16.916551
-67.182888 -52.557418 14.948697
-66.675606 -52.583227 15.916469
-60.97071 -50.497513 49.039564
-60.457161 -51.53413 49.407454
-60.217793 -50.359215 49.484662
-61.728708 -50.659527 48.550823
-60.97071 -50.497513 49.039564
-61.489339 -49.484612 48.628031
-62.743761 -48.635174 47.621282
-62.004585 -48.448595 48.151291
-62.501009 -47.437144 47.633283
-66.019253 -40.773487 41.990546
-65.532146 -40.510807 42.690426
-66.077404 -42.016319 42.079903
-66.019253 -40.773487 41.990546
-66.38501 -41.065693 41.226263
-66.855762 -42.018654 38.719479
-66.808395 -41.69144 39.581513
-66.674614 -43.299906 38.693298
-66.855762 -42.018654 38.719479
-66.788021 -42.360529 37.802944
-65.947433 -43.372107 35.007586
-66.336986 -43.039516 35.938524
-65.610825 -44.644186 34.883944
-65.947433 -43.372107 35.007586
-65.496353 -43.692813 34.028358
-66.484783 -57.762102 18.238411
-66.220917 -57.867334 17.247355
-57.932811 -53.373631 50.569504
-58.258007 -54.411118 50.534488
-58.379219 -52.328636 50.364446
-57.932811 -53.373631 50.569504
-57.596393 -52.267224 50.559752
-58.873522 -51.30903 50.103623
-59.20994 -52.415437 50.113375
-58.379219 -52.328636 50.364446
-59.361307 -50.247602 49.790297
-58.873522 -51.30903 50.103623
-60.217793 -50.359215 49.484662
-59.361307 -50.247602 49.790297
-62.907543 -43.012621 46.125774
-63.235708 -44.198279 46.327665
-63.397648 -42.009585 45.434574
-62.907543 -43.012621 46.125774
-63.831593 -41.026066 44.683979
-64.142151 -42.210013 44.90321
-63.397648 -42.009585 45.434574
-64.288735 -40.044731 43.93862
-63.831593 -41.026066 44.683979
-64.677009 -39.080235 43.130646
-64.964371 -40.261997 43.344641
-64.288735 -40.044731 43.93862
-58.657921 -56.500399 50.134485
-58.471096 -55.494802 50.350051
-58.657921 -56.500399 50.134485
-59.228785 -56.667267 49.630529
-60.945614 -57.196385 47.612438
-60.384124 -57.009096 48.363659
-60.946629 -56.09934 48.142296
-60.945614 -57.196385 47.612438
-61.431282 -57.394455 46.722065
-62.781396 -58.039877 43.726332
-62.358797 -57.811008 44.77232
-62.918178 -56.939275 44.51111
-62.781396 -58.039877 43.726332
-63.163168 -58.244693 42.590604
-64.754845 -57.006199 39.691166
-65.102513 -56.177799 39.403444
-64.955578 -57.255783 38.504897
-64.325619 -57.860695 39.990888
-64.472553 -56.782711 40.889437
-64.754845 -57.006199 39.691166
-63.845688 -58.67276 40.249285
-64.325619 -57.860695 39.990888
-65.624233 -59.430603 28.947069
-65.529476 -59.504904 30.22301
-65.70816 -58.735464 29.995463
-65.624233 -59.430603 28.947069
-65.782855 -59.233057 27.665103
-65.773415 -59.887729 24.28871
-65.917942 -59.460878 25.332951
-65.973343 -59.422228 23.018577
-65.773415 -59.887729 24.28871
-66.135101 -58.924086 21.75089
-65.973343 -59.422228 23.018577
-66.234848 -58.618664 22.787531
-66.337776 -58.313454 20.495762
-66.135101 -58.924086 21.75089
-66.511826 -57.665489 19.245017
-66.337776 -58.313454 20.495762
-66.570656 -57.472558 20.269099
-66.717662 -56.921205 18.011748
-66.484783 -57.762102 18.238411
-66.511826 -57.665489 19.245017
-63.620598 -44.560101 31.16063
-64.333153 -44.285612 32.098582
-63.291165 -45.754067 30.920125
-63.620598 -44.560101 31.16063
-62.935246 -44.785587 30.159096
-61.877617 -46.132908 28.903267
-62.131224 -45.010197 29.220709
-61.403029 -45.163551 28.205385
-62.457098 -47.086577 29.505628
-61.877617 -46.132908 28.903267
-61.728903 -47.239931 28.490304
-61.983235 -50.078905 26.737117
-61.766419 -49.227311 27.4032
-62.703308 -50.986315 27.148004
-61.983235 -50.078905 26.737117
-62.251683 -50.906208 25.979256
-62.183701 -50.973183 22.706941
-61.577513 -50.46336 23.564031
-62.707895 -50.924557 20.534688
-62.578193 -50.408642 19.292625
-62.768751 -51.46582 21.788685
-62.707895 -50.924557 20.534688
-63.506756 -51.793163 20.853276
-62.982562 -51.841789 23.025529
-62.183701 -50.973183 22.706941
-62.768751 -51.46582 21.788685
-67.108551 -55.281824 15.580799
-66.895229 -56.160755 15.800621
-66.903942 -56.138887 16.78532
-67.301327 -54.388943 14.385731
-67.108551 -55.281824 15.580799
-67.31004 -54.367075 15.37043
-67.252144 -53.473423 15.157127
-67.182888 -52.557418 14.948697
3 0 104 105
3 0 106 107
3 1 108 110
3 108 28 109
3 108 109 110
3 2 31 29
3 2 33 31
3 4 36 34
3 5 39 37
3 5 41 39
3 3 44 42
3 6 47 45
3 6 49 47
3 6 50 49
3 7 53 51
3 7 55 53
3 111 59 112
3 9 60 27
3 9 61 60
3 10 64 62
3 12 65 30
3 12 66 65
3 12 68 66
3 14 69 32
3 14 70 69
3 113 73 114
3 115 114 71
3 113 114 115
3 116 74 117
3 118 75 119
3 120 119 74
3 118 119 120
3 121 76 122
3 123 77 124
3 125 124 76
3 123 124 125
3 126 78 127
3 126 127 128
3 129 79 130
3 131 130 78
3 129 130 131
3 16 132 134
3 134 133 35
3 132 133 134
3 16 135 136
3 8 80 58
3 17 81 38
3 17 137 139
3 139 138 81
3 137 138 139
3 17 140 141
3 18 142 144
3 144 143 40
3 142 143 144
3 18 145 146
3 15 82 72
3 19 83 43
3 19 84 83
3 11 85 63
3 20 86 46
3 20 87 86
3 20 88 87
3 148 147 48
3 21 149 150
3 21 151 152
3 13 89 67
3 22 90 52
3 22 153 155
3 155 154 90
3 153 154 155
3 22 156 158
3 156 91 157
3 156 157 158
3 23 92 54
3 23 93 92
3 159 94 160
3 161 95 162
3 163 96 164
3 165 164 95
3 163 164 165
3 24 166 168
3 166 97 167
3 166 167 168
3 24 98 97
3 25 99 56
3 25 100 99
3 25 101 100
3 26 102 57
3 26 103 102
3 26 169 171
3 171 170 103
3 169 170 171
3 172 27 173
3 28 174 176
3 174 27 175
3 174 175 176
3 28 9 27
3 29 30 10
3 31 30 29
3 31 12 30
3 31 32 12
3 33 32 31
3 33 14 32
3 34 177 179
3 177 35 178
3 177 178 179
3 36 35 34
3 36 16 35
3 37 38 8
3 39 38 37
3 39 17 38
3 39 40 17
3 41 40 39
3 41 18 40
3 42 43 15
3 44 43 42
3 44 19 43
3 45 46 11
3 47 46 45
3 47 20 46
3 47 48 20
3 49 48 47
3 49 180 182
3 182 181 48
3 180 181 182
3 49 183 184
3 50 185 187
3 187 186 49
3 185 186 187
3 50 188 190
3 188 21 189
3 188 189 190
3 51 52 13
3 53 52 51
3 53 22 52
3 53 54 22
3 55 54 53
3 55 23 54
3 191 24 192
3 193 56 194
3 193 194 195
3 196 56 197
3 198 25 199
3 200 199 56
3 198 199 200
3 201 57 202
3 203 202 25
3 201 202 203
3 204 57 205
3 206 26 207
3 208 207 57
3 206 207 208
3 210 209 26
3 211 58 212
3 213 212 4
3 211 212 213
3 59 214 216
3 214 58 215
3 214 215 216
3 59 8 58
3 27 217 219
3 217 59 218
3 217 218 219
3 60 59 27
3 60 8 59
3 60 37 8
3 61 37 60
3 61 5 37
3 62 63 3
3 64 63 62
3 64 11 63
3 30 64 10
3 65 64 30
3 65 11 64
3 65 45 11
3 66 45 65
3 66 6 45
3 66 67 6
3 68 67 66
3 68 13 67
3 32 68 12
3 69 68 32
3 69 13 68
3 69 51 13
3 70 51 69
3 70 7 51
3 71 72 1
3 73 72 71
3 73 15 72
3 220 73 221
3 74 222 224
3 222 73 223
3 222 223 224
3 74 15 73
3 74 42 15
3 75 42 74
3 75 3 42
3 225 75 226
3 76 227 229
3 227 75 228
3 227 228 229
3 76 3 75
3 76 62 3
3 77 62 76
3 77 10 62
3 230 77 231
3 78 232 234
3 232 77 233
3 232 233 234
3 78 10 77
3 78 29 10
3 79 29 78
3 79 2 29
3 235 0 236
3 237 34 238
3 239 34 240
3 239 240 241
3 242 4 243
3 244 243 34
3 242 243 244
3 245 4 246
3 248 247 4
3 249 1 250
3 251 1 252
3 253 71 254
3 255 254 1
3 253 254 255
3 256 71 257
3 260 259 71
3 258 259 260
3 35 261 262
3 264 263 35
3 58 36 4
3 80 36 58
3 80 16 36
3 38 80 8
3 81 80 38
3 81 16 80
3 81 265 267
3 267 266 16
3 265 266 267
3 269 268 81
3 40 270 272
3 272 271 17
3 270 271 272
3 274 273 40
3 72 28 1
3 82 28 72
3 82 9 28
3 43 82 15
3 83 82 43
3 83 9 82
3 83 61 9
3 84 61 83
3 84 5 61
3 63 44 3
3 85 44 63
3 85 19 44
3 46 85 11
3 86 85 46
3 86 19 85
3 86 84 19
3 87 84 86
3 87 5 84
3 87 41 5
3 88 41 87
3 88 18 41
3 48 88 20
3 275 88 276
3 277 276 48
3 275 276 277
3 278 18 279
3 280 279 88
3 278 279 280
3 282 281 18
3 67 50 6
3 89 50 67
3 89 21 50
3 52 89 13
3 90 89 52
3 90 21 89
3 90 283 285
3 285 284 21
3 283 284 285
3 287 286 90
3 91 288 289
3 91 290 291
3 54 91 22
3 92 91 54
3 92 292 294
3 294 293 91
3 292 293 294
3 92 295 296
3 93 297 299
3 299 298 92
3 297 298 299
3 93 300 302
3 300 0 301
3 300 301 302
3 303 79 304
3 94 305 307
3 305 79 306
3 305 306 307
3 94 2 79
3 308 94 309
3 308 309 310
3 95 311 313
3 311 94 312
3 311 312 313
3 95 2 94
3 95 33 2
3 96 33 95
3 96 14 33
3 314 96 315
3 97 316 318
3 316 96 317
3 316 317 318
3 97 14 96
3 97 70 14
3 98 70 97
3 98 7 70
3 319 24 320
3 56 321 322
3 99 323 325
3 325 324 56
3 323 324 325
3 99 326 328
3 326 24 327
3 326 327 328
3 99 98 24
3 100 98 99
3 100 7 98
3 100 55 7
3 101 55 100
3 101 23 55
3 57 101 25
3 102 101 57
3 102 23 101
3 102 93 23
3 103 93 102
3 103 0 93
3 103 329 331
3 331 330 0
3 329 330 331
3 334 333 103
3 332 333 334
3 336 335 26
