ply
format ascii 1.0
element vertex 169
property float x
property float y
property float z
element face 154
property list uchar int vertex_index
end_header
-30.503439 11.655523 -49.549889
-33.429058 14.160198 -40.264404
-33.534603 15.274944 -49.9216
-29.344641 8.965551 -52.762306
-32.090881 13.202682 -45.214054
-30.789661 11.956657 -39.791725
-29.789589 9.699902 -44.047489
-28.657169 7.135633 -47.76437
-27.80097 3.901894 -50.332184
-31.876966 13.609802 -49.941818
-32.697552 14.529678 -52.030556
-31.11689 12.623856 -51.884659
-30.543743 11.257376 -53.499153
-29.83573 10.464384 -51.326286
-34.955509 14.819092 -40.007561
-34.37476 14.711159 -42.702171
-33.608131 14.563698 -45.293018
-32.833405 13.700035 -42.784405
-29.723061 10.531515 -39.162262
-30.33474 10.830856 -41.946381
-29.410162 9.101324 -41.142296
-28.592781 6.231283 -44.903111
-28.164932 4.682693 -46.504719
-28.175949 5.610525 -49.223091
-27.768871 3.013121 -47.814533
-34.44783 15.594311 -47.551914
-32.741241 14.233917 -47.725391
-31.283539 12.551037 -47.491062
-31.477814 12.384949 -42.514771
-30.812086 11.558914 -44.778851
-30.104364 10.613611 -46.89922
-29.020571 7.688334 -43.085972
-29.211161 8.487459 -46.01429
-29.431011 9.477383 -48.801697
-28.858702 8.109322 -50.415977
-28.434656 6.499628 -51.682663
-28.183363 4.663523 -52.559296
-27.428381 1.210726 -48.778114
-27.550816 2.017929 -51.055794
-29.274473 9.749557 -38.755837
-29.298293 10.653192 -37.881466
-29.118024 9.034461 -39.745854
-29.566612 9.81642 -40.152279
-29.274473 9.749557 -38.755837
-28.046232 3.422581 -45.792088
-28.194534 4.2884 -45.064434
-27.848202 2.587795 -46.446995
-27.966901 3.847907 -47.159626
-28.046232 3.422581 -45.792088
-34.043827 15.697685 -50.822094
-34.485619 15.930408 -49.688023
-33.256159 14.826462 -52.865597
-32.367294 13.9286 -52.929233
-29.776994 9.250303 -53.749592
-30.376545 10.396216 -54.118015
-29.944192 10.111463 -53.13073
-29.205308 8.072979 -53.286774
-29.637661 8.357731 -54.274059
-29.776994 9.250303 -53.749592
-34.88565 15.585316 -46.262474
-35.399351 16.081677 -47.247823
-30.949962 12.55905 -38.722723
-30.359426 12.001065 -38.508549
-31.409582 12.571615 -39.984907
-30.949962 12.55905 -38.722723
-31.133737 12.170803 -41.153248
-31.753659 12.785761 -41.34643
-31.409582 12.571615 -39.984907
-28.753032 6.632967 -42.520308
-28.856415 7.470377 -41.624842
-27.364705 -0.16365 -47.926401
-27.521117 0.783494 -47.511921
-27.492045 0.99773 -51.219475
-27.355932 0.647571 -50.211857
-27.771434 1.304421 -52.203796
-27.830205 2.324621 -52.040115
-27.492045 0.99773 -51.219475
-31.576963 12.975689 -52.856285
-32.367294 13.9286 -52.929233
-31.907221 13.576767 -51.957607
-30.830317 11.940616 -52.691906
-31.29039 12.292449 -53.663532
-31.576963 12.975689 -52.856285
-35.504862 15.089377 -41.121418
-35.756704 14.967237 -39.697106
-35.214487 15.03541 -42.468723
-35.504862 15.089377 -41.121418
-34.665135 14.765125 -41.354866
-34.849115 15.14374 -43.837603
-35.214487 15.03541 -42.468723
-33.991445 14.637429 -43.997595
-34.465801 15.07001 -45.133026
-34.849115 15.14374 -43.837603
-29.826127 11.288494 -38.193817
-29.298293 10.653192 -37.881466
-30.256361 11.244086 -39.476993
-30.359426 12.001065 -38.508549
-29.826127 11.288494 -38.193817
-28.408459 5.062696 -44.26363
-28.539137 5.904442 -43.428877
-28.378856 5.456988 -45.703915
-28.408459 5.062696 -44.26363
-28.194534 4.2884 -45.064434
-33.625302 15.325052 -51.876572
-34.043827 15.697685 -50.822094
-33.116078 14.902311 -50.976078
-33.625302 15.325052 -51.876572
-33.256159 14.826462 -52.865597
-31.083742 11.474479 -54.382168
-31.29039 12.292449 -53.663532
-31.083742 11.474479 -54.382168
-30.376545 10.396216 -54.118015
-35.126085 14.929816 -38.633715
-35.756704 14.967237 -39.697106
-35.92728 15.077961 -38.32326
-34.388307 14.765062 -38.858685
-35.126085 14.929816 -38.633715
-33.625082 14.435616 -38.987106
-34.192284 14.489645 -40.135982
-34.388307 14.765062 -38.858685
-34.942232 16.090092 -48.50318
-35.399351 16.081677 -47.247823
-33.991217 15.434627 -48.736757
-34.485619 15.930408 -49.688023
-34.942232 16.090092 -48.50318
-34.02798 15.079004 -46.422466
-34.88565 15.585316 -46.262474
-34.465801 15.07001 -45.133026
-32.921426 14.114311 -39.04768
-33.625082 14.435616 -38.987106
-32.729281 13.673385 -40.221246
-32.921426 14.114311 -39.04768
-32.431454 13.443304 -41.481247
-33.131231 13.930117 -41.524405
-32.729281 13.673385 -40.221246
-32.155609 13.042492 -42.649588
-32.431454 13.443304 -41.481247
-31.753659 12.785761 -41.34643
-29.05121 8.176872 -40.653004
-29.118024 9.034461 -39.745854
-29.215367 8.394829 -42.114134
-29.05121 8.176872 -40.653004
-28.856415 7.470377 -41.624842
-28.806676 6.959809 -43.994541
-28.753032 6.632967 -42.520308
-28.539137 5.904442 -43.428877
-28.750315 6.840018 -52.746952
-29.205308 8.072979 -53.286774
-28.889648 7.732589 -52.222485
-28.624669 5.921965 -53.185269
-28.750315 6.840018 -52.746952
-28.30901 5.581575 -52.12098
-28.595322 4.907697 -53.500755
-28.624669 5.921965 -53.185269
-27.691362 1.684692 -47.03013
-27.848202 2.587795 -46.446995
-27.598626 2.111924 -48.296323
-27.691362 1.684692 -47.03013
-27.521117 0.783494 -47.511921
-27.294714 0.243969 -49.073017
-27.364705 -0.16365 -47.926401
-27.489598 1.614327 -49.916954
-27.294714 0.243969 -49.073017
-27.355932 0.647571 -50.211857
-28.146479 3.647418 -52.791866
-27.867089 3.340726 -51.807545
-27.830205 2.324621 -52.040115
-28.595322 4.907697 -53.500755
-28.146479 3.647418 -52.791866
3 0 11 9
3 0 13 11
3 1 15 14
3 1 17 15
3 39 18 40
3 41 20 42
3 43 42 18
3 41 42 43
3 44 22 45
3 46 24 47
3 48 47 22
3 46 47 48
3 2 49 50
3 52 51 10
3 3 53 55
3 55 54 12
3 53 54 55
3 3 56 58
3 56 57 58
3 59 25 60
3 4 26 16
3 4 27 26
3 5 61 62
3 5 63 64
3 5 65 67
3 65 28 66
3 65 66 67
3 6 29 19
3 6 30 29
3 68 31 69
3 7 32 21
3 7 33 32
3 7 34 33
3 8 35 23
3 8 36 35
3 70 37 71
3 72 38 73
3 76 75 38
3 74 75 76
3 9 10 2
3 11 10 9
3 11 77 79
3 79 78 10
3 77 78 79
3 11 80 82
3 80 12 81
3 80 81 82
3 13 12 11
3 13 3 12
3 14 83 84
3 15 85 87
3 87 86 14
3 85 86 87
3 15 88 89
3 15 90 92
3 90 16 91
3 90 91 92
3 17 16 15
3 17 4 16
3 18 93 94
3 18 95 97
3 95 5 96
3 95 96 97
3 18 19 5
3 20 19 18
3 20 6 19
3 98 21 99
3 22 100 102
3 100 21 101
3 100 101 102
3 22 7 21
3 22 23 7
3 24 23 22
3 24 8 23
3 10 103 105
3 105 104 2
3 103 104 105
3 107 106 10
3 12 108 109
3 111 110 12
3 112 14 113
3 112 113 114
3 115 14 116
3 117 1 118
3 119 118 14
3 117 118 119
3 25 120 121
3 25 122 124
3 122 2 123
3 122 123 124
3 16 125 127
3 125 25 126
3 125 126 127
3 26 25 16
3 26 2 25
3 26 9 2
3 27 9 26
3 27 0 9
3 128 1 129
3 130 1 131
3 132 17 133
3 134 133 1
3 132 133 134
3 28 135 137
3 135 17 136
3 135 136 137
3 28 4 17
3 19 28 5
3 29 28 19
3 29 4 28
3 29 27 4
3 30 27 29
3 30 0 27
3 138 20 139
3 31 140 142
3 140 20 141
3 140 141 142
3 31 6 20
3 21 143 145
3 143 31 144
3 143 144 145
3 32 31 21
3 32 6 31
3 32 30 6
3 33 30 32
3 33 0 30
3 33 13 0
3 34 13 33
3 34 3 13
3 23 34 7
3 35 34 23
3 35 3 34
3 35 146 148
3 148 147 3
3 146 147 148
3 36 149 151
3 151 150 35
3 149 150 151
3 36 152 153
3 154 24 155
3 37 156 158
3 156 24 157
3 156 157 158
3 37 8 24
3 159 37 160
3 38 161 163
3 161 37 162
3 161 162 163
3 38 8 37
3 38 36 8
3 164 36 165
3 166 165 38
3 164 165 166
3 168 167 36
