ply
format ascii 1.0
element vertex 134
property float x
property float y
property float z
element face 113
property list uchar int vertex_index
end_header
-12.566252 56.237873 -31.080734
-7.822794 71.090042 -29.747959
-16.271576 61.786274 -28.413769
-9.915268 49.851917 -32.723759
-14.025398 69.24855 -27.699356
-10.126091 63.906078 -30.837967
-15.448972 55.269833 -29.957672
-13.790543 52.369228 -31.090435
-12.402924 49.262905 -31.942829
-11.107119 53.153217 -32.070045
-6.796902 74.324417 -28.675041
-8.667059 76.785904 -26.760147
-9.696545 73.705154 -27.977303
-12.899733 72.734756 -27.032875
-10.80265 70.322357 -28.815948
-11.953348 66.710358 -29.346115
-8.94379 67.593399 -30.443321
-14.291384 59.115467 -29.831573
-17.409466 67.93898 -26.523266
-15.154634 65.570221 -28.129444
-13.122427 62.949604 -29.654495
-11.340641 60.099949 -31.021084
-8.557993 60.860836 -32.100204
-9.821453 57.032627 -32.144962
-8.565392 53.747334 -32.950989
-16.819283 59.87952 -28.526125
-17.896727 61.132202 -27.822437
-15.28148 60.450871 -29.122671
-15.829187 58.544117 -29.235027
-16.819283 59.87952 -28.526125
-10.602465 47.894264 -32.583586
-11.846293 47.599758 -32.193121
-11.159096 49.557411 -32.333294
-9.450857 48.084644 -32.85969
-10.602465 47.894264 -32.583586
-9.715125 77.798371 -25.723678
-10.234447 76.365257 -26.40449
-15.168081 70.367065 -26.831043
-14.605248 72.110168 -26.497802
-13.462566 70.991653 -27.366115
-15.717432 68.593765 -27.111311
-16.860115 69.71228 -26.242998
-15.168081 70.367065 -26.831043
-7.903996 59.224163 -32.581136
-7.275383 61.095455 -32.537048
-8.535726 57.310058 -32.603516
-9.189723 58.946731 -32.122583
-7.903996 59.224163 -32.581136
-7.907696 55.667412 -33.006529
-9.193423 55.389981 -32.547975
-8.535726 57.310058 -32.603516
-17.376897 63.013139 -27.665096
-17.896727 61.132202 -27.822437
-16.019064 53.364075 -30.023756
-16.941922 54.729123 -29.414177
-15.18985 51.913773 -30.590137
-16.019064 53.364075 -30.023756
-14.619757 53.81953 -30.524054
-14.399777 50.449871 -31.094187
-15.18985 51.913773 -30.590137
-13.096733 50.816067 -31.516632
-13.705967 48.89671 -31.520384
-14.399777 50.449871 -31.094187
-7.731981 75.55516 -27.717594
-7.283425 77.011154 -26.965933
-6.348347 75.78041 -27.92338
-10.749189 74.824883 -27.013067
-10.234447 76.365257 -26.40449
-9.181802 75.245529 -27.368725
-11.298139 73.219955 -27.505089
-12.350783 74.339684 -26.540854
-10.749189 74.824883 -27.013067
-16.407981 56.6213 -29.298077
-16.941922 54.729123 -29.414177
-14.870178 57.19265 -29.894622
-16.407981 56.6213 -29.298077
-15.829187 58.544117 -29.235027
-5.545467 74.424706 -28.850065
-6.348347 75.78041 -27.92338
-5.984597 72.903099 -29.529566
-5.545467 74.424706 -28.850065
-4.733162 73.003388 -29.70459
-6.497542 71.285911 -30.066025
-7.309848 72.707229 -29.2115
-5.984597 72.903099 -29.529566
-7.010981 69.619384 -30.526884
-6.497542 71.285911 -30.066025
-13.055267 47.328263 -31.87343
-13.705967 48.89671 -31.520384
-13.055267 47.328263 -31.87343
-11.846293 47.599758 -32.193121
-8.207471 78.148751 -25.940706
-7.283425 77.011154 -26.965933
-8.207471 78.148751 -25.940706
-9.715125 77.798371 -25.723678
-14.049943 73.76065 -26.090553
-12.350783 74.339684 -26.540854
-14.049943 73.76065 -26.090553
-14.605248 72.110168 -26.497802
-18.625322 68.981178 -25.707359
-16.860115 69.71228 -26.242998
-19.145741 67.197174 -25.966076
-18.625322 68.981178 -25.707359
-17.945842 66.089493 -26.719845
-19.145741 67.197174 -25.966076
-16.818426 64.905113 -27.522934
-17.945842 66.089493 -26.719845
-16.28205 66.754601 -27.326355
-15.713105 63.678247 -28.271606
-17.376897 63.013139 -27.665096
-16.818426 64.905113 -27.522934
-7.571478 67.871063 -30.874565
-8.383292 69.341721 -30.09564
-7.010981 69.619384 -30.526884
-8.141834 66.089989 -31.146961
-7.571478 67.871063 -30.874565
-8.732985 64.246328 -31.344284
-9.534941 65.749739 -30.640644
-8.141834 66.089989 -31.146961
-7.948935 62.723707 -31.975403
-7.275383 61.095455 -32.537048
-9.342042 62.383457 -31.469085
-8.732985 64.246328 -31.344284
-7.948935 62.723707 -31.975403
-7.379815 53.916851 -33.309957
-7.907696 55.667412 -33.006529
-8.065573 51.990452 -33.168819
-7.379815 53.916851 -33.309957
-6.879996 52.15997 -33.527788
-8.740511 50.042744 -33.055205
-9.24033 51.799626 -32.837374
-8.065573 51.990452 -33.168819
-9.450857 48.084644 -32.85969
-8.740511 50.042744 -33.055205
3 0 7 6
3 0 9 7
3 1 12 10
3 1 14 12
3 1 16 14
3 2 25 26
3 2 27 29
3 27 17 28
3 27 28 29
3 3 30 32
3 32 31 8
3 30 31 32
3 3 33 34
3 36 35 11
3 4 37 39
3 39 38 13
3 37 38 39
3 4 40 42
3 40 18 41
3 40 41 42
3 4 19 18
3 5 20 15
3 5 21 20
3 43 22 44
3 45 23 46
3 47 46 22
3 45 46 47
3 48 24 49
3 50 49 23
3 48 49 50
3 51 2 52
3 6 53 54
3 7 55 57
3 57 56 6
3 55 56 57
3 7 58 59
3 7 60 62
3 60 8 61
3 60 61 62
3 9 8 7
3 9 3 8
3 10 63 65
3 63 11 64
3 63 64 65
3 12 11 10
3 12 66 68
3 68 67 11
3 66 67 68
3 12 69 71
3 69 13 70
3 69 70 71
3 14 13 12
3 14 4 13
3 14 15 4
3 16 15 14
3 16 5 15
3 72 6 73
3 17 74 76
3 74 6 75
3 74 75 76
3 17 0 6
3 77 10 78
3 79 10 80
3 79 80 81
3 82 1 83
3 84 83 10
3 82 83 84
3 86 85 1
3 8 87 88
3 90 89 8
3 11 91 92
3 94 93 11
3 13 95 96
3 98 97 13
3 18 99 100
3 18 101 102
3 18 103 104
3 19 105 107
3 107 106 18
3 105 106 107
3 19 108 110
3 108 2 109
3 108 109 110
3 15 19 4
3 20 19 15
3 20 2 19
3 20 17 2
3 21 17 20
3 21 0 17
3 111 16 112
3 113 112 1
3 111 112 113
3 114 16 115
3 116 5 117
3 118 117 16
3 116 117 118
3 22 119 120
3 22 121 123
3 121 5 122
3 121 122 123
3 22 21 5
3 23 21 22
3 23 0 21
3 23 9 0
3 24 9 23
3 24 3 9
3 124 24 125
3 126 24 127
3 126 127 128
3 129 3 130
3 131 130 24
3 129 130 131
3 133 132 3
