ply
format ascii 1.0
element vertex 338
property float x
property float y
property float z
element face 352
property list uchar int vertex_index
end_header
51.639511 -32.794903 52.631256
38.294834 -47.216866 51.11499
44.337627 -39.800705 51.59536
46.994091 -32.164223 59.064026
38.970741 -40.016441 58.660324
33.640358 -47.715473 59.406143
55.070618 -29.388882 52.214859
54.674362 -34.151932 51.322388
41.009239 -43.448776 51.057022
44.684074 -44.312164 49.278549
42.9142 -36.12851 58.937027
40.735016 -37.146191 63.534851
33.739655 -44.72805 63.486992
32.05669 -48.534645 64.239517
47.979713 -36.264526 52.291237
51.291225 -37.49733 51.088821
47.888275 -40.857765 50.216095
55.960098 -24.972113 53.670197
52.786957 -28.408407 54.911247
49.136597 -32.040131 55.255493
45.224823 -35.762276 54.980782
41.385513 -39.521675 54.516556
38.037437 -43.33247 54.33934
36.793819 -40.977081 63.37014
35.722729 -43.862556 58.707764
35.581139 -47.192764 54.806671
34.178684 -51.015198 55.982506
55.04586 -39.065025 50.9412
53.396317 -31.08157 52.535004
54.777729 -31.741796 51.676109
53.088905 -33.424568 51.829567
39.559013 -45.32114 50.99292
41.301807 -45.622452 49.787338
39.988129 -47.483738 49.785416
31.80183 -47.067959 66.112602
31.238251 -48.988602 66.568695
46.138798 -38.021721 51.95649
47.790955 -38.518555 51.143471
46.043953 -40.245422 50.714996
54.441307 -26.659859 54.412704
53.434685 -26.38516 56.128319
49.955383 -30.076591 56.944168
48.038651 -31.987366 57.04158
47.195 -33.895233 55.171349
46.048496 -33.914219 56.987251
40.891624 -38.081917 58.786522
42.035076 -37.766525 56.642502
40.124943 -39.686333 56.472939
39.622509 -41.41914 54.364716
38.363403 -41.607132 56.384644
33.602463 -46.184185 61.371056
34.717113 -44.274864 61.088554
34.518818 -45.787945 58.966286
35.526226 -45.466724 56.639824
34.53484 -47.400856 57.035561
34.753937 -49.1171 55.316757
33.840752 -49.325428 57.60659
51.477592 -39.928246 50.557457
53.128876 -38.267075 50.936188
53.453568 -40.732922 50.609467
56.375801 -34.921726 51.022507
42.614632 -41.608253 51.274734
44.358719 -42.00116 50.301628
42.767616 -43.792946 49.97287
43.221794 -46.096127 48.970459
44.968853 -34.153587 59.049736
41.833191 -36.580666 61.200508
39.796051 -38.538712 61.084892
34.038551 -43.339378 65.718475
32.735115 -45.187748 65.833504
32.716312 -46.619858 63.774513
32.836479 -48.103127 61.832458
37.234814 -49.119827 51.433556
49.824276 -34.52314 52.535019
51.343433 -35.114586 51.762169
49.567734 -36.811073 51.514862
49.578461 -39.171558 50.699585
49.843597 -41.590797 50.042221
46.247959 -42.567833 49.716431
48.251549 -43.267776 49.47403
55.498596 -27.120522 52.913208
53.877571 -28.817524 53.423317
52.147087 -30.55335 53.701813
51.762856 -28.202045 56.650764
51.011017 -30.206625 55.182426
50.327232 -32.31831 53.772797
48.445236 -34.103867 53.672928
46.534397 -35.904987 53.450302
44.633171 -37.721169 53.162148
44.029629 -35.842758 56.834442
43.271301 -37.637337 54.741974
42.784496 -39.555691 52.871155
41.03466 -41.413216 52.64019
39.430943 -43.296459 52.5261
38.016941 -45.202988 52.573166
38.696499 -39.082054 63.447945
37.877827 -40.464439 60.988922
35.115799 -42.852165 63.364845
36.160145 -42.371658 60.972977
37.224758 -41.940376 58.617393
36.813026 -43.533699 56.428192
36.67905 -45.259804 54.479881
36.826035 -47.123367 52.807236
35.873848 -49.041431 53.231865
35.152508 -50.936211 53.827255
52.998951 -35.825523 51.314453
54.770821 -36.59864 51.10807
56.622467 -37.382118 51.023087
30.783797 -49.220411 67.673893
31.024167 -48.250332 67.454357
31.114991 -49.969334 66.873635
30.783797 -49.220411 67.673893
53.685528 -25.450406 56.651798
54.194714 -25.514191 55.742428
47.966295 -31.17129 58.994339
47.453922 -31.33449 60.053795
47.516371 -32.075795 58.052803
48.488575 -31.082861 57.983116
47.966295 -31.17129 58.994339
52.663607 -41.561945 50.353058
52.46558 -40.330584 50.583462
51.675619 -41.159607 50.327053
55.729134 -29.730518 51.745914
55.857644 -28.556849 51.934105
55.483114 -33.315552 51.199711
55.534797 -32.110484 51.376571
54.726045 -32.946864 51.499248
55.525081 -34.536829 51.172447
56.333833 -33.700449 51.04977
55.483114 -33.315552 51.199711
42.552452 -47.006831 48.90604
42.2618 -45.85929 49.378898
41.592458 -46.769993 49.31448
43.580496 -47.295755 48.619751
42.552452 -47.006831 48.90604
41.284104 -36.863428 62.36768
42.327213 -35.868199 62.383053
41.778126 -36.150961 63.550224
32.196073 -45.409544 66.955311
32.809255 -44.495154 66.905255
32.270214 -44.716949 68.027062
32.226703 -49.282133 63.347424
32.616598 -49.066374 62.143894
32.446585 -48.318886 63.035988
37.554839 -50.178821 50.906056
36.806728 -50.063837 51.684792
48.547871 -44.49842 49.178951
47.487717 -44.120125 49.206894
49.290989 -43.659574 49.481922
48.547871 -44.49842 49.178951
56.649717 -24.160979 53.175232
56.828613 -23.1673 53.504593
56.138994 -23.978434 53.999558
56.479229 -25.22119 52.915249
56.649717 -24.160979 53.175232
55.729347 -26.046318 53.291702
56.248478 -26.295395 52.536755
56.479229 -25.22119 52.915249
51.262138 -28.212278 57.61784
52.098103 -27.2642 57.330017
37.745159 -40.029567 63.409042
38.118769 -39.369084 64.621357
37.167429 -40.316597 64.582454
34.404094 -51.900366 55.267525
34.891007 -51.860872 54.189899
34.665596 -50.975704 54.904881
40.93562 -47.700636 49.313519
41.592458 -46.769993 49.31448
40.644968 -46.553095 49.786377
41.193107 -36.479517 64.690697
41.778126 -36.150961 63.550224
31.305957 -47.290011 67.22631
31.729431 -46.349649 67.09486
31.520041 -48.028281 66.340649
31.305957 -47.290011 67.22631
31.024167 -48.250332 67.454357
31.480902 -49.730694 65.71518
31.890121 -49.503715 64.55059
31.647471 -48.761623 65.404106
31.480902 -49.730694 65.71518
31.114991 -49.969334 66.873635
45.70398 -44.642319 49.109153
44.982399 -45.513203 48.898331
55.45742 -24.807668 54.513367
56.138994 -23.978434 53.999558
54.698025 -25.651541 54.88462
55.200703 -25.815986 54.04145
55.45742 -24.807668 54.513367
53.937996 -26.522509 55.270511
54.698025 -25.651541 54.88462
54.194714 -25.514191 55.742428
49.446941 -30.127474 57.93441
50.358402 -29.149551 57.764541
48.997017 -31.031979 56.992874
49.446941 -30.127474 57.93441
48.488575 -31.082861 57.983116
36.230167 -41.240694 64.547886
37.167429 -40.316597 64.582454
55.58269 -30.906976 51.47654
55.729134 -29.730518 51.745914
54.924174 -30.565339 51.945484
55.58269 -30.906976 51.47654
55.534797 -32.110484 51.376571
57.146408 -34.082611 50.8368
56.333833 -33.700449 51.04977
57.264437 -35.305151 50.9165
57.146408 -34.082611 50.8368
44.251259 -46.405184 48.744286
44.982399 -45.513203 48.898331
43.952934 -45.204146 49.124504
44.251259 -46.405184 48.744286
43.580496 -47.295755 48.619751
46.475296 -32.357937 60.151459
47.453922 -31.33449 60.053795
45.462677 -33.352619 60.144314
45.981472 -33.158905 59.056881
46.475296 -32.357937 60.151459
44.439492 -34.368454 60.161076
45.462677 -33.352619 60.144314
43.412165 -35.355915 60.104721
43.941527 -35.141048 58.993381
44.439492 -34.368454 60.161076
42.871661 -35.581993 61.236462
42.327213 -35.868199 62.383053
42.373695 -36.354588 60.068767
43.412165 -35.355915 60.104721
42.871661 -35.581993 61.236462
33.460973 -43.570969 66.84774
34.244941 -42.672798 66.855968
33.386833 -44.263563 65.77599
33.460973 -43.570969 66.84774
32.809255 -44.495154 66.905255
32.268473 -46.127854 65.973053
32.196073 -45.409544 66.955311
31.729431 -46.349649 67.09486
32.957325 -48.871056 60.923057
33.359264 -48.677229 59.7099
33.238418 -47.9093 60.619301
32.957325 -48.871056 60.923057
32.616598 -49.066374 62.143894
32.226703 -49.282133 63.347424
31.890121 -49.503715 64.55059
38.039627 -49.241226 50.709042
38.569637 -48.289746 50.549759
37.764824 -48.168346 51.274273
38.039627 -49.241226 50.709042
37.554839 -50.178821 50.906056
50.858621 -41.990882 50.069435
51.675619 -41.159607 50.327053
50.660595 -40.759522 50.299839
46.485922 -43.770153 49.328094
45.466017 -43.439999 49.49749
45.70398 -44.642319 49.109153
47.249754 -42.917805 49.59523
46.485922 -43.770153 49.328094
47.487717 -44.120125 49.206894
50.087013 -42.821085 49.766018
49.047573 -42.429287 49.758125
49.290989 -43.659574 49.481922
50.858621 -41.990882 50.069435
50.087013 -42.821085 49.766018
39.416285 -48.423181 49.884972
39.141481 -47.350302 50.450203
38.569637 -48.289746 50.549759
40.335909 -48.624674 49.351318
39.416285 -48.423181 49.884972
40.93562 -47.700636 49.313519
40.335909 -48.624674 49.351318
56.071632 -27.422669 52.283279
56.248478 -26.295395 52.536755
55.284607 -28.254702 52.564033
55.857644 -28.556849 51.934105
56.071632 -27.422669 52.283279
52.934017 -26.355757 57.068794
53.685528 -25.450406 56.651798
52.598771 -27.293602 56.389541
52.934017 -26.355757 57.068794
52.098103 -27.2642 57.330017
50.859119 -29.139318 56.797466
51.262138 -28.212278 57.61784
50.358402 -29.149551 57.764541
40.151474 -37.456278 64.696293
41.193107 -36.479517 64.690697
40.609566 -36.789604 65.852138
39.132216 -38.42421 64.65284
38.118769 -39.369084 64.621357
39.715758 -38.114123 63.491398
40.151474 -37.456278 64.696293
39.132216 -38.42421 64.65284
34.852533 -42.421842 65.722054
34.244941 -42.672798 66.855968
35.391157 -42.178236 64.545239
34.852533 -42.421842 65.722054
34.577175 -43.095771 64.54166
35.954809 -41.914623 63.367492
36.230167 -41.240694 64.547886
35.391157 -42.178236 64.545239
36.126245 -50.024639 52.583946
36.806728 -50.063837 51.684792
36.554331 -49.080629 52.332711
35.765575 -50.972029 52.881642
36.126245 -50.024639 52.583946
35.513178 -49.988821 53.52956
35.428903 -51.895972 53.208573
35.765575 -50.972029 52.881642
35.428903 -51.895972 53.208573
34.891007 -51.860872 54.189899
33.459462 -49.482207 58.810124
33.740555 -48.520451 58.506366
33.359264 -48.677229 59.7099
33.626078 -50.276561 57.962036
33.459462 -49.482207 58.810124
33.795044 -51.121446 57.149994
34.009718 -50.170313 56.794548
33.626078 -50.276561 57.962036
33.993583 -51.942667 56.367908
33.795044 -51.121446 57.149994
34.404094 -51.900366 55.267525
33.993583 -51.942667 56.367908
57.38777 -36.535347 50.91679
57.264437 -35.305151 50.9165
56.499134 -36.151922 51.022797
53.694324 -41.969672 50.429966
52.663607 -41.561945 50.353058
54.457918 -41.134139 50.66383
53.694324 -41.969672 50.429966
55.254064 -40.30019 50.829696
54.249714 -39.898973 50.775334
54.457918 -41.134139 50.66383
56.020568 -39.455286 50.951649
55.254064 -40.30019 50.829696
56.808872 -38.613833 50.992592
55.834164 -38.223571 50.982143
56.020568 -39.455286 50.951649
57.56229 -37.759979 50.970768
56.808872 -38.613833 50.992592
57.38777 -36.535347 50.91679
57.56229 -37.759979 50.970768
3 0 30 28
3 1 33 31
3 108 35 109
3 111 110 35
3 2 38 36
3 112 40 113
3 3 114 115
3 3 116 118
3 116 42 117
3 116 117 118
3 3 44 42
3 4 47 45
3 4 49 47
3 5 52 50
3 5 54 52
3 5 56 54
3 119 59 120
3 121 120 57
3 119 120 121
3 6 122 123
3 7 124 126
3 126 125 29
3 124 125 126
3 7 127 129
3 127 60 128
3 127 128 129
3 8 63 61
3 130 64 131
3 132 131 32
3 130 131 132
3 134 133 64
3 11 135 137
3 135 66 136
3 135 136 137
3 11 67 66
3 138 69 139
3 138 139 140
3 13 70 34
3 13 71 70
3 13 141 143
3 143 142 71
3 141 142 143
3 145 144 72
3 14 75 73
3 16 76 37
3 16 77 76
3 9 78 62
3 146 79 147
3 149 148 79
3 17 150 152
3 150 151 152
3 17 153 154
3 17 155 157
3 155 80 156
3 155 156 157
3 18 81 39
3 18 82 81
3 158 83 159
3 19 84 41
3 19 85 84
3 19 86 85
3 20 87 43
3 20 88 87
3 10 89 65
3 21 90 46
3 21 91 90
3 21 92 91
3 22 93 48
3 22 94 93
3 23 160 162
3 160 95 161
3 160 161 162
3 23 96 95
3 12 97 68
3 24 98 51
3 24 99 98
3 24 100 99
3 25 101 53
3 25 102 101
3 25 103 102
3 26 104 55
3 26 163 165
3 165 164 104
3 163 164 165
3 15 105 74
3 27 106 58
3 27 107 106
3 28 29 6
3 30 29 28
3 30 7 29
3 31 32 8
3 33 32 31
3 33 166 168
3 168 167 32
3 166 167 168
3 169 11 170
3 171 34 172
3 35 173 175
3 173 34 174
3 173 174 175
3 35 13 34
3 35 176 178
3 178 177 13
3 176 177 178
3 180 179 35
3 36 37 14
3 38 37 36
3 38 16 37
3 182 181 9
3 183 17 184
3 185 39 186
3 187 186 17
3 185 186 187
3 40 188 190
3 188 39 189
3 188 189 190
3 40 18 39
3 191 41 192
3 42 193 195
3 193 41 194
3 193 194 195
3 42 19 41
3 42 43 19
3 44 43 42
3 44 20 43
3 45 46 10
3 47 46 45
3 47 21 46
3 47 48 21
3 49 48 47
3 49 22 48
3 196 23 197
3 50 51 12
3 52 51 50
3 52 24 51
3 52 53 24
3 54 53 52
3 54 25 53
3 54 55 25
3 56 55 54
3 56 26 55
3 57 58 15
3 59 58 57
3 59 27 58
3 29 198 200
3 200 199 6
3 198 199 200
3 202 201 29
3 60 203 204
3 60 205 206
3 61 62 2
3 63 62 61
3 63 9 62
3 32 63 8
3 64 63 32
3 64 9 63
3 64 207 209
3 209 208 9
3 207 208 209
3 211 210 64
3 212 3 213
3 214 65 215
3 216 215 3
3 214 215 216
3 217 65 218
3 219 10 220
3 221 220 65
3 219 220 221
3 66 222 223
3 66 224 226
3 224 10 225
3 224 225 226
3 66 45 10
3 67 45 66
3 67 4 45
3 227 68 228
3 69 229 231
3 229 68 230
3 229 230 231
3 69 12 68
3 34 232 234
3 232 69 233
3 232 233 234
3 70 69 34
3 70 12 69
3 70 50 12
3 71 50 70
3 71 5 50
3 71 235 237
3 237 236 5
3 235 236 237
3 239 238 71
3 241 240 13
3 72 242 244
3 244 243 1
3 242 243 244
3 246 245 72
3 73 74 0
3 75 74 73
3 75 15 74
3 37 75 14
3 76 75 37
3 76 15 75
3 76 57 15
3 77 57 76
3 77 247 249
3 249 248 57
3 247 248 249
3 62 38 2
3 78 38 62
3 78 16 38
3 250 78 251
3 252 251 9
3 250 251 252
3 79 253 255
3 253 78 254
3 253 254 255
3 79 16 78
3 79 77 16
3 256 77 257
3 258 257 79
3 256 257 258
3 260 259 77
3 261 33 262
3 263 262 1
3 261 262 263
3 264 33 265
3 267 266 33
3 80 268 269
3 80 270 272
3 270 6 271
3 270 271 272
3 39 80 17
3 81 80 39
3 81 6 80
3 81 28 6
3 82 28 81
3 82 0 28
3 273 40 274
3 83 275 277
3 275 40 276
3 275 276 277
3 83 18 40
3 41 278 280
3 278 83 279
3 278 279 280
3 84 83 41
3 84 18 83
3 84 82 18
3 85 82 84
3 85 0 82
3 85 73 0
3 86 73 85
3 86 14 73
3 43 86 19
3 87 86 43
3 87 14 86
3 87 36 14
3 88 36 87
3 88 2 36
3 65 44 3
3 89 44 65
3 89 20 44
3 46 89 10
3 90 89 46
3 90 20 89
3 90 88 20
3 91 88 90
3 91 2 88
3 91 61 2
3 92 61 91
3 92 8 61
3 48 92 21
3 93 92 48
3 93 8 92
3 93 31 8
3 94 31 93
3 94 1 31
3 281 11 282
3 281 282 283
3 95 284 285
3 95 286 288
3 286 11 287
3 286 287 288
3 95 67 11
3 96 67 95
3 96 4 67
3 68 289 290
3 97 291 293
3 293 292 68
3 291 292 293
3 97 294 296
3 294 23 295
3 294 295 296
3 51 97 12
3 98 97 51
3 98 23 97
3 98 96 23
3 99 96 98
3 99 4 96
3 99 49 4
3 100 49 99
3 100 22 49
3 53 100 24
3 101 100 53
3 101 22 100
3 101 94 22
3 102 94 101
3 102 1 94
3 102 72 1
3 103 72 102
3 103 297 299
3 299 298 72
3 297 298 299
3 55 103 25
3 104 103 55
3 104 300 302
3 302 301 103
3 300 301 302
3 104 303 304
3 306 305 104
3 307 56 308
3 309 308 5
3 307 308 309
3 310 56 311
3 312 26 313
3 314 313 56
3 312 313 314
3 315 26 316
3 318 317 26
3 74 30 0
3 105 30 74
3 105 7 30
3 58 105 15
3 106 105 58
3 106 7 105
3 106 60 7
3 107 60 106
3 107 319 321
3 321 320 60
3 319 320 321
3 322 59 323
3 324 59 325
3 326 27 327
3 328 327 59
3 326 327 328
3 329 27 330
3 331 107 332
3 333 332 27
3 331 332 333
3 334 107 335
3 337 336 107
