ply
format ascii 1.0
element vertex 301
property float x
property float y
property float z
element face 313
property list uchar int vertex_index
end_header
-31.693153 -66.990677 53.388084
-28.197975 -70.202805 60.565228
-36.900009 -64.658722 48.27784
-28.241192 -65.987274 70.816872
-31.873178 -61.78997 63.33712
-34.314186 -57.922359 55.025318
-29.880175 -68.496178 56.952164
-30.373589 -63.877594 67.360672
-31.496712 -59.38398 68.002129
-34.16259 -55.316704 59.994633
-35.367405 -53.365047 56.073906
-36.026451 -56.254658 51.64119
-26.232882 -72.074753 63.845905
-33.988754 -65.716232 50.359692
-26.2146 -70.213242 69.197464
-28.511967 -68.107788 66.011642
-30.192709 -66.067047 62.21069
-31.573677 -64.146698 58.088554
-32.99675 -57.336014 64.081848
-33.050453 -59.782635 59.078362
-33.082115 -62.42033 54.109337
-35.069321 -60.935467 50.790714
-37.682793 -59.689533 48.542889
-30.744452 -67.715706 55.134109
-31.016977 -69.320969 53.078068
-36.106483 -52.428352 54.297237
-27.273075 -71.119339 62.2635
-26.18844 -73.043823 61.028118
-27.200544 -72.198959 59.511192
-35.369183 -65.163353 49.18251
-34.88303 -67.677429 49.236938
-36.471416 -67.21315 48.394547
-26.895422 -67.040245 72.269859
-25.93663 -69.205002 71.524689
-27.316536 -68.141922 70.132278
-27.451443 -69.154526 67.692139
-28.510393 -67.080704 68.548592
-31.186981 -62.828003 65.402344
-30.372204 -64.977631 64.869835
-31.095703 -63.946991 62.833611
-30.894329 -65.087151 60.163834
-31.739643 -62.941479 60.724415
-32.671074 -56.039902 66.330193
-33.410885 -55.036373 64.413742
-34.21151 -56.596027 57.484512
-33.643112 -57.56776 59.537533
-33.646122 -58.830585 56.996445
-33.004078 -61.044861 56.517429
-33.729008 -60.170422 54.546555
-34.001122 -61.646683 52.337536
-34.573158 -59.352356 52.74778
-37.120441 -55.500248 50.323112
-36.718563 -57.890591 49.877037
-38.034458 -57.24427 48.880215
-29.049683 -69.327042 58.78059
-38.560226 -64.192551 47.660744
-38.186874 -66.777176 47.807732
-39.998283 -66.357651 47.474449
-28.943586 -63.749397 71.26033
-29.398602 -64.932144 69.174683
-30.07597 -62.707966 69.584274
-31.031578 -61.664574 67.752029
-31.829865 -60.622803 65.792297
-34.734879 -54.329865 57.989746
-34.84613 -55.657993 55.535076
-35.097134 -57.062698 53.222843
-35.591515 -54.758759 53.742718
-36.482418 -53.903278 52.156971
-37.540905 -53.097042 50.819374
-32.766235 -66.324188 51.77726
-32.157063 -68.725922 51.615974
-33.442596 -68.179428 50.320839
-26.278786 -71.151993 66.605995
-27.396782 -70.126602 65.031754
-28.363218 -69.126091 63.30777
-29.5222 -66.02446 66.786575
-29.414295 -67.076691 64.174347
-29.209673 -68.153999 61.458202
-29.98164 -67.216316 59.520233
-30.733158 -66.321022 57.54393
-31.519945 -65.476578 55.589733
-32.308022 -58.358715 66.080658
-32.502357 -59.588116 63.740974
-33.599892 -56.320389 62.040092
-33.090603 -58.56736 61.640224
-32.477184 -60.771858 61.211304
-32.357597 -61.970997 58.598236
-32.286221 -63.255211 56.048065
-32.392483 -64.690048 53.723766
-33.390308 -63.965717 52.011799
-34.538391 -63.304279 50.513084
-35.845722 -62.702801 49.275219
-35.564899 -58.592564 51.176422
-36.297733 -60.284657 49.515305
-37.305954 -62.155048 48.330547
-38.899765 -61.652096 47.694122
-27.568307 -66.513759 71.543365
-27.261676 -65.913593 72.51474
-27.934561 -65.387108 71.788246
-33.621909 -53.869526 64.607033
-33.208214 -54.358856 65.515564
-33.419238 -53.192009 65.708855
-38.209038 -56.022631 49.089378
-37.57745 -56.372259 49.601664
-37.752029 -55.15062 49.810827
-38.767461 -56.947304 48.540234
-38.209038 -56.022631 49.089378
-29.466977 -69.578716 56.618531
-29.051732 -69.994148 57.532743
-29.464929 -68.91161 57.866377
-40.158712 -65.055174 47.401741
-39.279255 -65.275101 47.567597
-39.439684 -63.972624 47.494889
-29.176575 -62.589419 71.378357
-28.528114 -63.098102 72.14125
-29.742767 -62.068703 70.540329
-29.509778 -63.228682 70.422302
-29.176575 -62.589419 71.378357
-31.264145 -60.524277 67.877079
-30.783732 -61.036417 68.784034
-31.016299 -59.89612 68.909085
-35.051142 -53.847456 57.031826
-35.009829 -53.17994 58.260773
-35.326092 -52.69753 57.302853
-36.735928 -52.715452 52.43227
-36.29445 -53.165815 53.227104
-36.54796 -51.977989 53.502403
-37.265171 -52.312334 51.763472
-37.011662 -53.50016 51.488173
-36.735928 -52.715452 52.43227
-25.649589 -73.009338 63.147398
-25.641435 -72.571827 64.570493
-25.663203 -73.96566 60.303888
-26.21631 -73.583595 59.645504
-34.641852 -68.961388 49.319547
-35.455702 -68.749859 48.945463
-37.984152 -68.094494 47.96351
-38.908455 -67.890557 47.801476
-25.507369 -70.747009 69.858338
-25.368384 -70.242889 71.02195
-26.075615 -69.709122 70.361076
-25.60448 -71.206627 68.607551
-25.507369 -70.747009 69.858338
-26.246693 -70.682617 67.901729
-25.636573 -71.676003 67.311817
-25.60448 -71.206627 68.607551
-33.881241 -55.818546 61.017363
-33.83209 -55.176167 62.246864
-34.113439 -54.674324 61.224135
-31.870114 -69.943169 51.546875
-32.537211 -69.707542 50.984074
-30.370289 -68.840935 54.893736
-29.93815 -69.231171 55.802763
-30.312314 -68.105942 56.043137
-30.506552 -69.643567 53.865715
-30.370289 -68.840935 54.893736
-30.880714 -68.518338 54.106088
-30.701641 -70.492825 52.909275
-30.506552 -69.643567 53.865715
-31.156059 -58.711436 68.970058
-31.016299 -59.89612 68.909085
-35.65896 -52.202944 56.363222
-35.326092 -52.69753 57.302853
-36.028499 -51.734596 55.474888
-35.736944 -52.896699 55.185572
-35.65896 -52.202944 56.363222
-36.411819 -51.248852 54.593996
-36.028499 -51.734596 55.474888
-36.54796 -51.977989 53.502403
-36.411819 -51.248852 54.593996
-26.722361 -73.161163 58.887041
-26.21631 -73.583595 59.645504
-26.694492 -72.621391 60.269655
-36.249895 -68.517719 48.524268
-35.455702 -68.749859 48.945463
-35.677223 -67.44529 48.815742
-26.515227 -66.429691 73.170059
-27.261676 -65.913593 72.51474
-26.132518 -67.564346 72.897724
-25.752322 -66.953793 73.797924
-26.515227 -66.429691 73.170059
-26.416026 -68.122624 71.897274
-25.653122 -68.646725 72.525139
-26.132518 -67.564346 72.897724
-32.838308 -54.86062 66.473789
-32.367598 -55.345671 67.348957
-33.040979 -55.538137 65.371967
-32.838308 -54.86062 66.473789
-33.208214 -54.358856 65.515564
-38.621404 -58.193804 48.384149
-38.445572 -59.416435 48.215486
-37.858626 -58.466901 48.711552
-38.621404 -58.193804 48.384149
-38.767461 -56.947304 48.540234
-28.594638 -70.366257 58.349849
-28.168784 -70.804138 59.242168
-28.623829 -69.764924 59.672909
-28.594638 -70.366257 58.349849
-29.051732 -69.994148 57.532743
-29.466977 -69.578716 56.618531
-29.93815 -69.231171 55.802763
-39.814159 -67.680794 47.634834
-38.908455 -67.890557 47.801476
-39.092579 -66.567414 47.641091
-40.933373 -66.149155 47.426288
-40.158712 -65.055174 47.401741
-40.767902 -67.472107 47.570418
-40.933373 -66.149155 47.426288
-39.814159 -67.680794 47.634834
-40.767902 -67.472107 47.570418
-28.285758 -64.268169 72.009975
-28.528114 -63.098102 72.14125
-28.592389 -64.868336 71.038601
-27.934561 -65.387108 71.788246
-28.285758 -64.268169 72.009975
-30.305929 -61.558113 69.700157
-29.742767 -62.068703 70.540329
-30.553774 -62.18627 68.668151
-30.305929 -61.558113 69.700157
-30.783732 -61.036417 68.784034
-34.417713 -54.17273 60.237498
-34.113439 -54.674324 61.224135
-34.703857 -53.67931 59.235054
-35.009829 -53.17994 58.260773
-34.448735 -54.823284 58.992189
-34.417713 -54.17273 60.237498
-34.703857 -53.67931 59.235054
-37.962261 -53.949016 50.058958
-37.752029 -55.15062 49.810827
-37.330673 -54.298645 50.571243
-25.627368 -73.493874 61.738505
-25.649589 -73.009338 63.147398
-26.210661 -72.559288 62.437011
-25.627368 -73.493874 61.738505
-25.663203 -73.96566 60.303888
-27.670068 -71.802216 58.715151
-27.69926 -71.200882 60.03821
-28.168784 -70.804138 59.242168
-27.238701 -72.813789 58.202163
-27.670068 -71.802216 58.715151
-26.722361 -73.161163 58.887041
-27.238701 -72.813789 58.202163
-33.179977 -69.434295 50.336506
-32.537211 -69.707542 50.984074
-32.79983 -68.452675 50.968407
-33.921634 -69.212387 49.861498
-34.162813 -67.928428 49.778889
-34.641852 -68.961388 49.319547
-33.179977 -69.434295 50.336506
-33.921634 -69.212387 49.861498
-37.126423 -68.312481 48.256918
-37.329145 -66.995163 48.10114
-37.984152 -68.094494 47.96351
-36.249895 -68.517719 48.524268
-37.126423 -68.312481 48.256918
-25.159185 -69.735641 72.1231
-25.653122 -68.646725 72.525139
-25.159185 -69.735641 72.1231
-25.368384 -70.242889 71.02195
-25.664387 -72.110447 65.950538
-25.636573 -71.676003 67.311817
-26.255834 -71.613373 65.22595
-25.641435 -72.571827 64.570493
-25.664387 -72.110447 65.950538
-31.654834 -58.212499 68.090336
-31.156059 -58.711436 68.970058
-32.242015 -56.54046 67.254368
-32.367598 -55.345671 67.348957
-32.060489 -57.699867 67.129601
-32.242015 -56.54046 67.254368
-32.489548 -57.199309 66.205425
-31.902367 -58.871347 67.041393
-31.654834 -58.212499 68.090336
-32.060489 -57.699867 67.129601
-33.737587 -54.534159 63.433689
-33.621909 -53.869526 64.607033
-33.505388 -55.678381 63.226917
-33.737587 -54.534159 63.433689
-33.83209 -55.176167 62.246864
-39.609453 -62.702396 47.511578
-39.439684 -63.972624 47.494889
-38.729996 -62.922323 47.677433
-39.054058 -60.397717 47.791103
-38.291279 -60.670814 48.118505
-38.445572 -59.416435 48.215486
-39.749178 -61.417591 47.528633
-39.054058 -60.397717 47.791103
-39.609453 -62.702396 47.511578
-39.749178 -61.417591 47.528633
-37.790985 -51.885039 51.082541
-37.265171 -52.312334 51.763472
-38.158046 -52.721767 50.289488
-37.790985 -51.885039 51.082541
-38.408127 -51.509764 50.552655
-37.962261 -53.949016 50.058958
-38.158046 -52.721767 50.289488
-31.300071 -70.240692 52.277922
-31.58702 -69.023446 52.347021
-31.870114 -69.943169 51.546875
-30.701641 -70.492825 52.909275
-31.300071 -70.240692 52.277922
3 0 24 23
3 1 28 26
3 2 31 29
3 3 96 98
3 96 32 97
3 96 97 98
3 3 34 32
3 3 36 34
3 4 39 37
3 4 41 39
3 99 43 100
3 99 100 101
3 5 46 44
3 5 48 46
3 5 50 48
3 102 53 103
3 104 103 51
3 102 103 104
3 106 105 53
3 6 107 109
3 109 108 54
3 107 108 109
3 110 57 111
3 112 111 55
3 110 111 112
3 113 58 114
3 115 60 116
3 117 116 58
3 115 116 117
3 8 118 120
3 118 61 119
3 118 119 120
3 8 62 61
3 10 121 123
3 121 63 122
3 121 122 123
3 10 64 63
3 10 66 64
3 124 67 125
3 126 125 25
3 124 125 126
3 127 68 128
3 129 128 67
3 127 128 129
3 12 130 131
3 133 132 27
3 13 71 69
3 135 134 30
3 137 136 56
3 14 138 140
3 140 139 33
3 138 139 140
3 14 141 142
3 14 143 145
3 143 72 144
3 143 144 145
3 15 73 35
3 15 74 73
3 7 75 59
3 16 76 38
3 16 77 76
3 16 78 77
3 17 79 40
3 17 80 79
3 18 81 42
3 18 82 81
3 9 146 148
3 146 83 147
3 146 147 148
3 19 84 45
3 19 85 84
3 19 86 85
3 20 87 47
3 20 88 87
3 20 89 88
3 21 90 49
3 21 91 90
3 11 92 65
3 22 93 52
3 22 94 93
3 22 95 94
3 150 149 70
3 23 151 153
3 153 152 6
3 151 152 153
3 24 154 156
3 156 155 23
3 154 155 156
3 24 157 158
3 159 8 160
3 161 10 162
3 163 25 164
3 165 164 10
3 163 164 165
3 166 25 167
3 169 168 25
3 26 27 12
3 28 27 26
3 28 170 172
3 172 171 27
3 170 171 172
3 29 30 13
3 31 30 29
3 31 173 175
3 175 174 30
3 173 174 175
3 32 176 177
3 32 178 180
3 178 179 180
3 32 181 183
3 181 33 182
3 181 182 183
3 34 33 32
3 34 14 33
3 34 35 14
3 36 35 34
3 36 15 35
3 37 38 7
3 39 38 37
3 39 16 38
3 39 40 16
3 41 40 39
3 41 17 40
3 184 42 185
3 43 186 188
3 186 42 187
3 186 187 188
3 43 18 42
3 44 45 9
3 46 45 44
3 46 19 45
3 46 47 19
3 48 47 46
3 48 20 47
3 48 49 20
3 50 49 48
3 50 21 49
3 51 52 11
3 53 52 51
3 53 22 52
3 53 189 191
3 191 190 22
3 189 190 191
3 193 192 53
3 54 194 196
3 196 195 1
3 194 195 196
3 198 197 54
3 200 199 6
3 55 56 2
3 57 56 55
3 57 201 203
3 203 202 56
3 201 202 203
3 204 57 205
3 206 57 207
3 209 208 57
3 58 210 211
3 58 212 214
3 212 3 213
3 212 213 214
3 58 59 3
3 60 59 58
3 60 7 59
3 215 60 216
3 61 217 219
3 217 60 218
3 217 218 219
3 61 7 60
3 61 37 7
3 62 37 61
3 62 4 37
3 220 9 221
3 63 222 223
3 63 224 226
3 224 9 225
3 224 225 226
3 63 44 9
3 64 44 63
3 64 5 44
3 64 65 5
3 66 65 64
3 66 11 65
3 25 66 10
3 67 66 25
3 67 11 66
3 67 51 11
3 68 51 67
3 68 227 229
3 229 228 51
3 227 228 229
3 27 230 232
3 232 231 12
3 230 231 232
3 234 233 27
3 235 28 236
3 237 236 1
3 235 236 237
3 238 28 239
3 241 240 28
3 69 70 0
3 71 70 69
3 71 242 244
3 244 243 70
3 242 243 244
3 30 71 13
3 245 71 246
3 247 246 30
3 245 246 247
3 249 248 71
3 56 31 2
3 250 31 251
3 252 251 56
3 250 251 252
3 254 253 31
3 33 255 256
3 258 257 33
3 72 259 260
3 72 261 263
3 261 12 262
3 261 262 263
3 35 72 14
3 73 72 35
3 73 12 72
3 73 26 12
3 74 26 73
3 74 1 26
3 59 36 3
3 75 36 59
3 75 15 36
3 38 75 7
3 76 75 38
3 76 15 75
3 76 74 15
3 77 74 76
3 77 1 74
3 77 54 1
3 78 54 77
3 78 6 54
3 40 78 16
3 79 78 40
3 79 6 78
3 79 23 6
3 80 23 79
3 80 0 23
3 264 8 265
3 42 266 267
3 81 268 270
3 270 269 42
3 268 269 270
3 81 271 273
3 271 8 272
3 271 272 273
3 81 62 8
3 82 62 81
3 82 4 62
3 274 43 275
3 83 276 278
3 276 43 277
3 276 277 278
3 83 18 43
3 45 83 9
3 84 83 45
3 84 18 83
3 84 82 18
3 85 82 84
3 85 4 82
3 85 41 4
3 86 41 85
3 86 17 41
3 47 86 19
3 87 86 47
3 87 17 86
3 87 80 17
3 88 80 87
3 88 0 80
3 88 69 0
3 89 69 88
3 89 13 69
3 49 89 20
3 90 89 49
3 90 13 89
3 90 29 13
3 91 29 90
3 91 2 29
3 65 50 5
3 92 50 65
3 92 21 50
3 52 92 11
3 93 92 52
3 93 21 92
3 93 91 21
3 94 91 93
3 94 2 91
3 94 55 2
3 95 55 94
3 95 279 281
3 281 280 55
3 279 280 281
3 282 95 283
3 284 283 22
3 282 283 284
3 285 95 286
3 288 287 95
3 289 68 290
3 291 68 292
3 291 292 293
3 295 294 68
3 70 24 0
3 296 24 297
3 298 297 70
3 296 297 298
3 300 299 24
