ply
format ascii 1.0
element vertex 109
property float x
property float y
property float z
element face 93
property list uchar int vertex_index
end_header
62.341675 -24.61515 -19.588839
62.202553 -22.10713 -16.28372
63.529869 -16.105694 -16.806616
62.554878 -18.272442 -20.782682
61.247261 -28.124676 -15.359861
62.732853 -30.864164 -18.0693
61.906631 -23.335852 -18.024637
62.276489 -20.234844 -18.499407
62.37822 -21.451777 -20.230139
61.646065 -26.821552 -13.781019
62.848083 -19.092159 -16.596766
62.754105 -17.133772 -18.873953
63.447075 -25.933084 -20.943701
63.166222 -22.713804 -21.74365
64.510948 -24.032074 -23.023428
62.355507 -23.896029 -14.150843
61.653614 -25.123381 -15.870771
61.683357 -26.419786 -17.457567
61.629105 -29.478363 -16.801008
62.459976 -27.753448 -18.868204
63.853851 -29.127346 -20.081125
63.017273 -19.473639 -22.473715
62.525318 -20.599645 -16.440243
62.994361 -20.033944 -15.507221
62.671596 -21.541429 -15.350699
62.69796 -16.683802 -21.006958
62.797573 -16.114466 -20.052594
62.654492 -17.703107 -19.828318
64.771748 -25.673946 -22.554424
63.979011 -24.982579 -21.983564
64.239811 -26.624451 -21.514561
62.545097 -24.755736 -13.130529
62.992096 -23.346441 -13.249657
62.180979 -30.171264 -17.435154
61.689604 -30.993979 -16.426315
62.241478 -31.686879 -17.060461
64.098545 -15.686566 -15.729592
63.733009 -17.096224 -15.695107
63.548912 -20.101817 -23.194206
63.091747 -21.093722 -22.108683
63.623386 -21.7219 -22.829174
61.766014 -27.632986 -12.77185
62.190376 -26.218498 -12.945616
61.355366 -28.278818 -13.543314
61.766014 -27.632986 -12.77185
61.155964 -28.93038 -14.332735
61.446663 -27.473114 -14.57044
61.355366 -28.278818 -13.543314
62.939546 -32.406734 -17.627264
62.241478 -31.686879 -17.060461
63.550684 -31.580613 -18.610901
62.939546 -32.406734 -17.627264
63.853134 -14.646956 -16.859581
63.407776 -15.083368 -17.972689
63.392117 -18.589456 -15.590182
62.994361 -20.033944 -15.507221
63.188976 -17.598926 -16.701691
63.733009 -17.096224 -15.695107
63.392117 -18.589456 -15.590182
63.019894 -15.597407 -19.006358
63.407776 -15.083368 -17.972689
63.141987 -16.619733 -17.840284
63.019894 -15.597407 -19.006358
62.797573 -16.114466 -20.052594
64.295749 -22.381035 -23.469063
63.623386 -21.7219 -22.829174
63.838585 -23.372939 -22.383539
65.343491 -24.743478 -23.554322
64.771748 -25.673946 -22.554424
65.034832 -23.054015 -24.065722
65.343491 -24.743478 -23.554322
64.295749 -22.381035 -23.469063
65.034832 -23.054015 -24.065722
62.748074 -22.435879 -14.28426
62.992096 -23.346441 -13.249657
62.27903 -23.001579 -15.217281
62.671596 -21.541429 -15.350699
62.748074 -22.435879 -14.28426
62.000786 -25.35879 -13.965931
62.545097 -24.755736 -13.130529
62.190376 -26.218498 -12.945616
61.130512 -29.613802 -15.054548
61.155964 -28.93038 -14.332735
61.321434 -30.290646 -15.775122
61.689604 -30.993979 -16.426315
61.438183 -28.80152 -16.080434
61.130512 -29.613802 -15.054548
61.321434 -30.290646 -15.775122
64.443199 -28.221583 -21.083273
64.239811 -26.624451 -21.514561
63.650463 -27.530215 -20.512413
64.111183 -30.712204 -19.616813
63.293352 -29.995755 -19.075212
63.550684 -31.580613 -18.610901
64.739269 -29.853119 -20.591831
64.111183 -30.712204 -19.616813
64.443199 -28.221583 -21.083273
64.739269 -29.853119 -20.591831
64.098545 -15.686566 -15.729592
63.853134 -14.646956 -16.859581
63.384659 -18.444725 -23.608871
63.548912 -20.101817 -23.194206
63.004978 -17.848268 -22.795071
63.384659 -18.444725 -23.608871
62.773781 -17.24767 -21.949554
62.786076 -18.873041 -21.628198
63.004978 -17.848268 -22.795071
62.69796 -16.683802 -21.006958
62.773781 -17.24767 -21.949554
3 0 8 6
3 1 22 24
3 22 10 23
3 22 23 24
3 3 11 7
3 3 25 27
3 27 26 11
3 25 26 27
3 28 14 29
3 30 29 12
3 28 29 30
3 31 15 32
3 4 16 9
3 4 17 16
3 5 33 35
3 33 18 34
3 33 34 35
3 5 19 18
3 5 20 19
3 2 36 37
3 38 21 39
3 40 39 13
3 38 39 40
3 6 7 1
3 8 7 6
3 8 3 7
3 41 9 42
3 43 9 44
3 45 4 46
3 47 46 9
3 45 46 47
3 48 5 49
3 51 50 5
3 53 52 2
3 10 54 55
3 10 56 58
3 56 2 57
3 56 57 58
3 7 10 1
3 11 10 7
3 11 2 10
3 11 59 61
3 61 60 2
3 59 60 61
3 63 62 11
3 12 13 0
3 14 13 12
3 14 64 66
3 66 65 13
3 64 65 66
3 67 14 68
3 69 14 70
3 72 71 14
3 15 73 74
3 15 75 77
3 75 1 76
3 75 76 77
3 9 78 80
3 78 15 79
3 78 79 80
3 16 15 9
3 16 1 15
3 16 6 1
3 17 6 16
3 17 0 6
3 81 4 82
3 18 83 84
3 18 85 87
3 85 4 86
3 85 86 87
3 18 17 4
3 19 17 18
3 19 0 17
3 19 12 0
3 20 12 19
3 20 88 90
3 90 89 12
3 88 89 90
3 91 20 92
3 93 92 5
3 91 92 93
3 94 20 95
3 97 96 20
3 99 98 2
3 13 8 0
3 21 8 13
3 21 3 8
3 100 21 101
3 102 21 103
3 104 3 105
3 106 105 21
3 104 105 106
3 108 107 3
