ply
format ascii 1.0
element vertex 110
property float x
property float y
property float z
element face 88
property list uchar int vertex_index
end_header
35.952534 33.097992 -7.83791
36.206745 37.328918 -12.015253
35.961433 29.880692 -12.10582
36.60025 35.454918 -3.875713
36.001148 27.546677 -4.253658
36.056816 35.381397 -9.869726
35.895714 31.570412 -9.940203
36.222023 27.465477 -10.456001
36.002636 29.055214 -8.166969
36.053226 28.632404 -2.092106
36.168018 24.345341 -2.732492
36.386402 23.154457 -5.078419
36.416782 36.794899 -7.943682
36.546768 25.776745 -12.817923
36.172867 34.408283 -5.809036
36.047665 31.678196 -3.850132
35.929008 30.478352 -5.958437
36.165169 26.236771 -6.544268
36.292631 22.635949 -2.063378
36.175252 24.830072 -1.638249
36.414532 22.102532 -3.250333
36.292631 22.635949 -2.063378
36.91316 38.450114 -8.191821
36.579809 37.81457 -9.076885
35.990549 36.481642 -12.934425
36.275674 38.147911 -13.117028
35.832659 30.935149 -12.989215
35.895546 31.821494 -11.976104
36.039129 28.986444 -13.220643
35.832659 30.935149 -12.989215
36.2541 27.828719 -12.461872
36.331796 26.934471 -13.576695
36.039129 28.986444 -13.220643
36.587898 25.326526 -10.932835
36.359718 26.112856 -9.695593
36.773502 36.705585 -4.977912
37.141646 37.140671 -4.088576
36.386558 34.931601 -4.842375
36.55981 36.182268 -5.944573
36.773502 36.705585 -4.977912
36.589306 22.477345 -6.312095
36.74638 20.894355 -5.68129
35.943237 34.571846 -10.858057
36.018202 35.545607 -11.93082
36.13178 36.355158 -10.94249
35.862686 32.666353 -10.893296
35.943237 34.571846 -10.858057
35.976265 33.475904 -9.904965
35.928573 30.725552 -11.023011
35.895546 31.821494 -11.976104
35.862686 32.666353 -10.893296
36.250025 26.907725 -8.551077
36.359718 26.112856 -9.695593
36.11233 28.260345 -9.311485
36.936428 35.828512 -2.972751
37.141646 37.140671 -4.088576
36.117857 26.973604 -1.318056
36.209274 29.041187 -1.095173
36.110622 26.488872 -2.412299
36.117857 26.973604 -1.318056
36.175252 24.830072 -1.638249
36.523724 21.507089 -4.423297
36.27721 23.749899 -3.905456
36.414532 22.102532 -3.250333
36.74638 20.894355 -5.68129
36.523724 21.507089 -4.423297
36.646896 38.939529 -12.280171
36.275674 38.147911 -13.117028
36.47479 38.081579 -11.112671
36.646896 38.939529 -12.280171
36.399826 37.107819 -10.039907
36.13178 36.355158 -10.94249
36.47479 38.081579 -11.112671
36.236799 36.088148 -8.906704
36.399826 37.107819 -10.039907
36.579809 37.81457 -9.076885
35.990549 36.481642 -12.934425
36.018202 35.545607 -11.93082
36.746 24.921886 -14.036115
36.331796 26.934471 -13.576695
37.022293 23.68923 -13.38971
36.746 24.921886 -14.036115
36.75027 24.48216 -12.113796
36.384395 26.621111 -11.636962
36.587898 25.326526 -10.932835
37.022293 23.68923 -13.38971
36.75027 24.48216 -12.113796
36.681768 37.375576 -7.011896
36.91316 38.450114 -8.191821
36.294824 35.601591 -6.876359
36.681768 37.375576 -7.011896
36.55981 36.182268 -5.944573
36.502243 34.032158 -2.874589
36.936428 35.828512 -2.972751
36.228731 30.620901 -1.982785
36.209274 29.041187 -1.095173
36.22595 32.143797 -2.861798
36.228731 30.620901 -1.982785
36.050446 30.1553 -2.971119
36.323958 33.566557 -3.862922
36.502243 34.032158 -2.874589
36.22595 32.143797 -2.861798
36.331291 25.498503 -7.739726
36.250025 26.907725 -8.551077
36.083903 27.645992 -7.355619
36.47869 24.018501 -7.04502
36.275785 24.695614 -5.811343
36.589306 22.477345 -6.312095
36.331291 25.498503 -7.739726
36.47869 24.018501 -7.04502
3 0 6 5
3 0 8 6
3 18 10 19
3 21 20 10
3 22 12 23
3 1 24 25
3 2 26 27
3 2 28 29
3 2 30 32
3 30 13 31
3 30 31 32
3 34 33 7
3 3 35 36
3 3 37 39
3 37 14 38
3 37 38 39
3 4 15 9
3 4 16 15
3 4 17 16
3 41 40 11
3 5 42 44
3 44 43 1
3 42 43 44
3 6 45 47
3 47 46 5
3 45 46 47
3 6 48 50
3 48 2 49
3 48 49 50
3 6 7 2
3 8 7 6
3 8 51 53
3 53 52 7
3 51 52 53
3 54 3 55
3 56 9 57
3 10 58 60
3 58 9 59
3 58 59 60
3 10 4 9
3 10 11 4
3 61 11 62
3 63 62 10
3 61 62 63
3 65 64 11
3 66 1 67
3 68 1 69
3 70 5 71
3 72 71 1
3 70 71 72
3 12 73 75
3 73 5 74
3 73 74 75
3 12 0 5
3 77 76 1
3 13 78 79
3 13 80 81
3 7 13 2
3 82 13 83
3 84 83 7
3 82 83 84
3 86 85 13
3 87 12 88
3 14 89 91
3 89 12 90
3 89 90 91
3 14 0 12
3 92 3 93
3 9 94 95
3 15 96 98
3 98 97 9
3 96 97 98
3 15 99 101
3 99 3 100
3 99 100 101
3 15 14 3
3 16 14 15
3 16 0 14
3 16 8 0
3 17 8 16
3 17 102 104
3 104 103 8
3 102 103 104
3 11 17 4
3 105 17 106
3 107 106 11
3 105 106 107
3 109 108 17
