ply
format ascii 1.0
element vertex 282
property float x
property float y
property float z
element face 278
property list uchar int vertex_index
end_header
5.51931 27.925911 26.882267
-1.320612 43.338524 39.24865
2.835175 21.626522 37.068356
6.453518 10.582523 32.656815
-0.755529 28.28548 43.049576
1.716337 17.547356 41.703934
3.591499 13.324459 39.260078
-0.10317 32.921547 37.545689
-1.215002 35.725754 41.263435
-1.234495 38.341412 45.719856
4.093853 25.142521 32.121613
6.157364 19.438412 30.007553
4.79958 16.735088 34.808678
3.142323 33.162323 29.083796
1.856918 29.546383 34.546524
0.807287 25.362377 39.738136
-1.364536 30.804504 47.123985
6.250172 29.001095 24.16185
6.595768 24.795059 25.86755
1.165018 15.357613 43.894577
2.094152 13.502743 42.576569
-1.257505 47.23341 38.145744
-1.292267 45.723866 35.909454
-1.21015 41.896347 37.10321
-1.045319 38.113129 38.235741
-1.311373 39.502815 40.286903
3.44083 23.466412 34.632549
4.484684 20.988747 33.516083
3.848007 19.338211 35.904877
3.844372 9.033394 40.192451
4.427235 10.787756 38.131676
4.58329 6.38936 39.053478
1.945951 35.304108 30.352482
2.470272 31.438431 31.84705
1.341068 33.392544 33.189461
-0.462465 30.636669 40.331696
0.336805 29.161869 38.667736
-0.069937 26.898567 41.302917
0.355087 23.122383 42.22435
-0.423185 24.569054 43.866875
-1.140291 35.770844 48.855972
-1.341909 34.538498 46.455017
6.351223 15.052299 31.400448
7.144806 11.617321 30.313456
2.266537 19.645378 39.426765
3.2509 17.525284 38.213104
2.674927 15.571857 40.438728
3.005215 11.401533 41.355064
0.328869 35.114563 34.69212
-0.487944 36.667427 36.371284
-0.793823 34.366085 39.310425
-1.026831 31.994434 42.18277
-1.171267 44.767246 41.566345
-1.297503 40.869263 42.518349
-1.058416 42.222801 44.914303
-0.929707 39.621407 48.191463
4.791893 26.634811 29.537266
5.877296 23.731228 28.496151
5.165127 22.458244 31.04653
5.460949 18.182686 32.453232
5.670246 13.812763 33.739868
4.180485 15.109699 37.077072
5.028683 12.38685 35.981579
5.833855 33.103516 22.362211
5.092831 32.019993 25.177635
3.861336 34.693768 26.262241
4.353104 30.712582 27.939445
3.641075 29.198284 30.640593
2.975143 27.496716 33.276001
2.362926 25.62991 35.841988
0.80505 31.335583 35.962498
1.304501 27.512188 37.177979
1.801029 23.621822 38.335472
1.277754 21.497452 40.753204
0.778301 19.28149 43.091507
-1.352205 37.043194 43.403374
-1.318937 33.284061 44.225471
-1.193993 29.574284 44.989414
-1.301085 27.118149 47.731277
-0.988871 25.886883 45.6996
1.324885 13.351105 44.256935
0.882475 14.229063 44.943836
4.293352 5.530798 40.02511
4.213831 7.711377 39.622964
3.923893 6.852816 40.594596
4.616375 4.16497 39.443559
4.293352 5.530798 40.02511
1.391574 36.245184 31.063004
1.682902 37.205002 29.573631
1.089132 35.289402 32.481493
1.643509 34.348326 31.770972
1.391574 36.245184 31.063004
-1.213829 33.884846 49.149946
-1.080105 34.465952 50.391697
2.696817 10.384253 42.3549
2.549683 12.452138 41.965817
2.241286 11.434857 42.965653
3.124194 9.274184 41.757354
2.696817 10.384253 42.3549
-0.644863 38.544148 35.75629
-0.295601 37.768803 34.868671
-1.005593 45.472637 42.800506
-1.084458 46.747757 41.055494
-0.949167 44.200414 44.474486
-1.114842 43.495024 43.240324
-1.005593 45.472637 42.800506
-0.730823 40.241962 49.486967
-0.805871 41.585943 47.819124
-0.860617 38.297421 49.795688
-0.730823 40.241962 49.486967
5.098107 10.172462 36.49978
4.727959 11.587303 37.056628
4.797382 9.372915 37.574829
5.408506 10.873444 35.435051
5.098107 10.172462 36.49978
5.220295 34.557184 22.875751
5.592652 35.098944 21.417784
4.849783 34.015423 24.283463
5.463343 32.561754 23.769923
5.220295 34.557184 22.875751
3.50183 33.928045 27.673018
3.237299 35.867924 26.859676
2.877792 35.102201 28.270454
0.358133 20.048008 43.862879
0.566694 21.201937 42.657928
0.146526 21.968454 43.4293
0.534637 18.139059 44.218979
0.358133 20.048008 43.862879
-1.233745 25.284504 48.006103
-1.326051 25.872785 49.068674
-1.077638 24.668871 46.990265
-1.144978 26.502516 46.715438
-1.233745 25.284504 48.006103
-0.858947 24.038739 46.029064
-1.077638 24.668871 46.990265
6.510886 19.964908 28.739155
6.370852 22.111317 27.983454
6.01733 21.58482 29.251852
6.76907 27.320358 23.664793
6.601807 29.424616 22.77317
6.941868 25.21734 24.517643
6.76907 27.320358 23.664793
6.42297 26.898077 25.0147
7.071621 23.064243 25.357428
6.941868 25.21734 24.517643
1.789451 12.42367 43.597931
1.629585 14.430178 43.235573
1.324885 13.351105 44.256935
2.241286 11.434857 42.965653
1.789451 12.42367 43.597931
-1.280179 48.413051 36.39982
-1.199861 49.204476 37.561763
-1.29756 47.658279 35.281675
-1.280179 48.413051 36.39982
-1.274886 46.478638 37.027599
-1.246007 46.859105 34.20631
-1.29756 47.658279 35.281675
-1.165402 44.959528 34.88088
-1.246007 46.859105 34.20631
-1.124344 43.045768 35.477758
-1.165402 44.959528 34.88088
-1.251209 43.810107 36.506332
-1.005966 41.158608 36.122253
-1.124344 43.045768 35.477758
-1.127735 40.004738 37.669475
-0.92355 39.266998 36.688519
-1.005966 41.158608 36.122253
4.87541 7.173718 38.03573
4.797382 9.372915 37.574829
4.505262 8.588558 38.592577
4.900299 4.930473 38.479833
4.87541 7.173718 38.03573
4.900299 4.930473 38.479833
4.616375 4.16497 39.443559
2.279606 36.173094 28.904796
1.682902 37.205002 29.573631
2.544137 34.233216 29.718139
2.877792 35.102201 28.270454
2.279606 36.173094 28.904796
-0.24261 22.69179 44.250563
0.146526 21.968454 43.4293
-0.034049 23.845719 43.045613
-1.314638 33.268673 47.949468
-1.2411 35.154671 47.655495
-1.213829 33.884846 49.149946
-1.325951 31.401676 48.283952
-1.353222 32.671501 46.789501
-1.314638 33.268673 47.949468
6.700268 15.574171 30.179354
6.603338 17.767228 29.482906
6.254294 17.245355 30.704
7.09706 13.856682 29.635858
6.700268 15.574171 30.179354
6.748015 13.33481 30.856952
7.484644 12.038346 29.083866
7.09706 13.856682 29.635858
3.543772 8.090115 41.176048
3.424793 10.217464 40.773758
3.124194 9.274184 41.757354
3.923893 6.852816 40.594596
3.543772 8.090115 41.176048
0.112806 36.99237 34.029089
0.583033 36.150411 33.232822
-0.079537 35.890995 35.531702
0.112806 36.99237 34.029089
-0.295601 37.768803 34.868671
-0.766632 37.390278 37.303512
-0.644863 38.544148 35.75629
-0.92355 39.266998 36.688519
6.800739 8.825481 32.088085
6.458346 8.313925 33.208569
-1.127578 47.980839 39.345194
-1.199861 49.204476 37.561763
-1.214386 46.000328 39.856044
-1.127578 47.980839 39.345194
-1.084458 46.747757 41.055494
-0.870225 42.88664 46.180544
-0.949167 44.200414 44.474486
-0.994061 40.922104 46.552883
-0.870225 42.88664 46.180544
-0.805871 41.585943 47.819124
-0.965909 36.372139 50.127943
-1.034999 37.696125 48.523718
-0.860617 38.297421 49.795688
-1.080105 34.465952 50.391697
-0.965909 36.372139 50.127943
5.729288 11.5864 34.314195
5.349464 13.099806 34.860724
5.408506 10.873444 35.435051
6.120924 9.97128 33.772669
6.061882 12.197643 33.198341
5.729288 11.5864 34.314195
6.458346 8.313925 33.208569
6.120924 9.97128 33.772669
6.189878 33.526136 20.932362
5.592652 35.098944 21.417784
6.393648 31.475827 21.873351
6.189878 33.526136 20.932362
6.042013 31.052305 23.262031
6.601807 29.424616 22.77317
6.393648 31.475827 21.873351
3.594786 36.636899 25.386368
3.237299 35.867924 26.859676
4.234036 35.352311 24.825767
3.594786 36.636899 25.386368
4.477083 33.356881 25.719938
4.849783 34.015423 24.283463
4.234036 35.352311 24.825767
0.834969 34.253553 33.940791
1.089132 35.289402 32.481493
0.583033 36.150411 33.232822
0.727996 16.177121 44.620514
0.97166 17.319552 43.493042
0.534637 18.139059 44.218979
0.882475 14.229063 44.943836
0.727996 16.177121 44.620514
-1.36071 29.54829 48.541582
-1.325951 31.401676 48.283952
-1.328985 27.705112 48.845228
-1.326051 25.872785 49.068674
-1.33281 28.961326 47.427631
-1.36071 29.54829 48.541582
-1.328985 27.705112 48.845228
-0.576104 23.379824 45.112702
-0.706028 25.227969 44.783237
-0.858947 24.038739 46.029064
-0.24261 22.69179 44.250563
-0.576104 23.379824 45.112702
6.730087 22.643232 26.669154
6.236532 24.263143 27.181851
6.370852 22.111317 27.983454
7.071621 23.064243 25.357428
6.730087 22.643232 26.669154
6.510886 19.964908 28.739155
6.603338 17.767228 29.482906
7.146383 9.34288 30.916406
6.799162 11.099922 31.485135
6.800739 8.825481 32.088085
7.488926 9.763587 29.732858
7.146383 9.34288 30.916406
7.484644 12.038346 29.083866
7.488926 9.763587 29.732858
3 0 18 17
3 81 80 19
3 1 22 21
3 1 23 22
3 1 25 23
3 2 28 26
3 82 31 83
3 84 83 29
3 82 83 84
3 86 85 31
3 87 32 88
3 89 34 90
3 91 90 32
3 89 90 91
3 4 37 35
3 4 39 37
3 93 92 40
3 3 43 42
3 5 46 44
3 94 47 95
3 96 95 20
3 94 95 96
3 98 97 47
3 99 49 100
3 8 50 24
3 8 51 50
3 101 52 102
3 103 54 104
3 105 104 52
3 103 104 105
3 106 55 107
3 109 108 55
3 10 58 56
3 12 59 27
3 12 60 59
3 6 61 45
3 110 62 111
3 112 111 30
3 110 111 112
3 114 113 62
3 115 63 116
3 117 64 118
3 119 118 63
3 117 118 119
3 13 120 122
3 120 65 121
3 120 121 122
3 13 66 65
3 13 67 66
3 14 68 33
3 14 69 68
3 7 70 48
3 15 71 36
3 15 72 71
3 15 73 72
3 123 74 124
3 125 124 38
3 123 124 125
3 127 126 74
3 9 75 53
3 16 76 41
3 16 77 76
3 128 78 129
3 130 79 131
3 132 131 78
3 130 131 132
3 134 133 79
3 11 135 137
3 137 136 57
3 135 136 137
3 17 138 139
3 18 140 142
3 142 141 17
3 140 141 142
3 18 143 144
3 19 20 5
3 145 20 146
3 147 146 19
3 145 146 147
3 149 148 20
3 21 150 151
3 22 152 154
3 154 153 21
3 152 153 154
3 22 155 156
3 22 157 158
3 23 159 161
3 161 160 22
3 159 160 161
3 23 162 163
3 23 164 166
3 164 24 165
3 164 165 166
3 25 24 23
3 25 8 24
3 26 27 10
3 28 27 26
3 28 12 27
3 29 30 6
3 31 30 29
3 31 167 169
3 169 168 30
3 167 168 169
3 31 170 171
3 173 172 31
3 32 174 175
3 32 176 178
3 176 13 177
3 176 177 178
3 32 33 13
3 34 33 32
3 34 14 33
3 35 36 7
3 37 36 35
3 37 15 36
3 37 38 15
3 39 38 37
3 39 179 181
3 181 180 38
3 179 180 181
3 40 41 9
3 182 41 183
3 184 183 40
3 182 183 184
3 185 16 186
3 187 186 41
3 185 186 187
3 42 188 190
3 190 189 11
3 188 189 190
3 43 191 193
3 193 192 42
3 191 192 193
3 43 194 195
3 44 45 2
3 46 45 44
3 46 6 45
3 20 46 5
3 47 46 20
3 47 6 46
3 47 29 6
3 196 29 197
3 198 197 47
3 196 197 198
3 200 199 29
3 201 48 202
3 49 203 205
3 203 48 204
3 203 204 205
3 49 7 48
3 24 206 208
3 206 49 207
3 206 207 208
3 50 49 24
3 50 7 49
3 50 35 7
3 51 35 50
3 51 4 35
3 210 209 3
3 211 21 212
3 52 213 215
3 213 21 214
3 213 214 215
3 52 1 21
3 52 53 1
3 54 53 52
3 54 9 53
3 216 54 217
3 55 218 220
3 218 54 219
3 218 219 220
3 55 9 54
3 55 40 9
3 221 40 222
3 223 222 55
3 221 222 223
3 225 224 40
3 56 57 0
3 58 57 56
3 58 11 57
3 27 58 10
3 59 58 27
3 59 11 58
3 59 42 11
3 60 42 59
3 60 3 42
3 45 28 2
3 61 28 45
3 61 12 28
3 30 61 6
3 62 61 30
3 62 12 61
3 62 60 12
3 226 60 227
3 228 227 62
3 226 227 228
3 229 3 230
3 231 230 60
3 229 230 231
3 233 232 3
3 63 234 235
3 63 236 237
3 63 238 240
3 238 17 239
3 238 239 240
3 64 17 63
3 64 0 17
3 65 241 242
3 65 243 244
3 65 245 247
3 245 64 246
3 245 246 247
3 66 64 65
3 66 0 64
3 66 56 0
3 67 56 66
3 67 10 56
3 33 67 13
3 68 67 33
3 68 10 67
3 68 26 10
3 69 26 68
3 69 2 26
3 48 248 250
3 248 34 249
3 248 249 250
3 70 34 48
3 70 14 34
3 36 70 7
3 71 70 36
3 71 14 70
3 71 69 14
3 72 69 71
3 72 2 69
3 72 44 2
3 73 44 72
3 73 5 44
3 38 73 15
3 74 73 38
3 74 5 73
3 74 19 5
3 251 19 252
3 253 252 74
3 251 252 253
3 255 254 19
3 53 25 1
3 75 25 53
3 75 8 25
3 41 75 9
3 76 75 41
3 76 8 75
3 76 51 8
3 77 51 76
3 77 4 51
3 256 16 257
3 78 258 259
3 78 260 262
3 260 16 261
3 260 261 262
3 78 77 16
3 79 77 78
3 79 4 77
3 79 39 4
3 263 39 264
3 265 264 79
3 263 264 265
3 267 266 39
3 57 18 0
3 268 18 269
3 270 269 57
3 268 269 270
3 272 271 18
3 274 273 11
3 275 43 276
3 277 276 3
3 275 276 277
3 278 43 279
3 281 280 43
