ply
format ascii 1.0
element vertex 182
property float x
property float y
property float z
element face 175
property list uchar int vertex_index
end_header
46.587601 64.070152 -11.347015
37.203312 73.832993 -14.605633
40.755836 71.730392 -4.651949
41.794807 62.963242 -18.702749
42.484344 69.252289 -13.130596
39.980633 68.870346 -17.06378
44.71077 64.217583 -15.493031
39.425827 73.270241 -9.917042
43.937813 68.348541 -8.37896
44.584251 66.566444 -3.174877
47.571175 62.837631 -6.557182
33.953346 72.959206 -18.428919
36.409904 66.929779 -20.031752
44.680553 66.71032 -12.304174
43.739349 66.826241 -14.438482
45.773697 64.303749 -13.523983
38.515862 73.969048 -5.37463
37.742599 74.784042 -8.076014
40.186836 72.595657 -7.333649
41.80806 70.911186 -9.163982
42.375633 70.173134 -6.588022
46.137569 64.773766 -4.971905
34.137535 75.827347 -15.345377
32.460945 75.498146 -17.374105
35.703808 73.599464 -16.633005
41.03437 65.985764 -17.993704
38.313961 68.096893 -18.658953
39.283657 64.992149 -19.403395
39.121368 73.000427 -2.602858
39.991467 71.638611 -13.880539
38.687298 71.514198 -15.929674
41.37339 69.24659 -15.218395
42.526276 66.595421 -16.342276
43.383354 63.77552 -17.221487
48.214554 61.39534 -10.213362
35.574879 75.775703 -13.102478
36.77108 75.405586 -10.666632
38.440037 73.703178 -12.356117
41.024174 71.418411 -11.611252
43.329369 68.934578 -10.834568
45.373108 66.295563 -9.982391
39.592216 71.897942 0.209101
41.167694 70.708458 -1.909262
42.762627 69.24942 -3.927542
44.344269 67.545631 -5.812847
45.848022 65.634361 -7.523504
47.17762 63.564949 -9.009121
37.108006 70.999115 -17.735979
35.278362 70.073387 -19.307768
40.884567 62.379452 -19.334396
39.628992 63.393906 -19.684719
40.539232 63.977695 -19.053072
38.30742 73.490353 -1.533161
37.974688 74.018479 -2.95538
48.525352 60.290329 -10.646897
48.891253 60.067203 -9.544549
34.711556 76.554771 -12.264436
34.012375 76.715046 -13.485131
40.526211 70.722947 0.539619
39.779212 71.282097 1.625754
41.313949 70.128204 -0.519563
40.379955 71.3032 -0.850081
40.526211 70.722947 0.539619
43.795254 67.368538 -2.194384
44.639755 66.003014 -1.831601
43.673439 67.907932 -3.551209
42.884442 68.710026 -2.570717
43.795254 67.368538 -2.194384
48.165646 61.823139 -7.217071
47.968868 62.186798 -8.443041
47.374398 63.20129 -7.783152
32.26283 73.853272 -18.810472
31.51663 75.122742 -18.283065
33.207146 74.228676 -17.901512
32.972695 72.428326 -19.222279
32.26283 73.853272 -18.810472
34.830004 67.838669 -20.359112
34.264233 69.410473 -19.99712
35.844133 68.501583 -19.66976
35.369644 66.165428 -20.636555
34.830004 67.838669 -20.359112
38.12923 74.376545 -6.725322
36.879516 75.375938 -7.091407
37.266148 74.968441 -5.740715
45.42917 65.158626 -2.766382
44.639755 66.003014 -1.831601
46.20583 64.262287 -3.664896
45.36091 65.670105 -4.073391
45.42917 65.158626 -2.766382
46.965978 63.352593 -4.499578
46.20583 64.262287 -3.664896
47.682781 62.384525 -5.292216
46.854372 63.805698 -5.764544
46.965978 63.352593 -4.499578
48.349691 61.431697 -6.00204
47.682781 62.384525 -5.292216
33.29924 75.662746 -16.359741
31.64659 76.568325 -16.747737
32.484885 76.732925 -15.733373
38.301645 64.315349 -20.010345
36.864768 65.284165 -20.324524
37.84678 65.960964 -19.717574
38.301645 64.315349 -20.010345
39.628992 63.393906 -19.684719
37.671934 74.502789 -4.341266
37.266148 74.968441 -5.740715
38.818615 73.484737 -3.988744
37.671934 74.502789 -4.341266
37.974688 74.018479 -2.95538
47.843441 61.56718 -11.315262
47.029964 62.904586 -11.882089
47.401077 62.732746 -10.780189
47.843441 61.56718 -11.315262
48.525352 60.290329 -10.646897
33.293703 76.740868 -14.606581
32.484885 76.732925 -15.733373
34.856207 75.801525 -14.223927
33.293703 76.740868 -14.606581
34.012375 76.715046 -13.485131
36.386921 75.766804 -8.451168
36.879516 75.375938 -7.091407
35.901161 76.077575 -9.746476
36.386921 75.766804 -8.451168
37.256839 75.094814 -9.371323
35.309656 76.369712 -11.046513
35.901161 76.077575 -9.746476
36.172979 75.590644 -11.884555
34.711556 76.554771 -12.264436
35.309656 76.369712 -11.046513
38.818213 72.350659 1.305679
39.779212 71.282097 1.625754
38.542845 72.93911 -0.127182
38.818213 72.350659 1.305679
39.356792 72.449185 -1.196878
38.30742 73.490353 -1.533161
38.542845 72.93911 -0.127182
42.086975 69.439544 -1.561577
41.313949 70.128204 -0.519563
41.96516 69.978939 -2.918402
42.086975 69.439544 -1.561577
42.884442 68.710026 -2.570717
48.487336 61.101993 -9.045161
47.696087 62.480144 -9.611242
47.968868 62.186798 -8.443041
49.164034 59.773857 -8.376348
48.891253 60.067203 -9.544549
48.487336 61.101993 -9.045161
48.165646 61.823139 -7.217071
48.349691 61.431697 -6.00204
30.736519 76.360543 -17.77551
31.64659 76.568325 -16.747737
30.736519 76.360543 -17.77551
31.51663 75.122742 -18.283065
33.635203 70.985416 -19.661703
32.972695 72.428326 -19.222279
34.615854 71.516296 -18.868344
33.635203 70.985416 -19.661703
34.264233 69.410473 -19.99712
35.369644 66.165428 -20.636555
36.864768 65.284165 -20.324524
46.623013 63.021385 -12.970572
46.180649 64.18695 -12.435499
47.029964 62.904586 -11.882089
46.142956 63.047775 -13.983642
46.623013 63.021385 -12.970572
45.611492 63.004692 -14.968166
45.242233 64.260666 -14.508507
46.142956 63.047775 -13.983642
45.013567 62.865853 -15.872899
45.611492 63.004692 -14.968166
44.349859 62.644821 -16.737127
44.047062 63.996552 -16.357259
45.013567 62.865853 -15.872899
43.630226 62.329876 -17.523812
44.349859 62.644821 -16.737127
42.835952 61.923737 -18.264443
42.58908 63.369381 -17.962118
43.630226 62.329876 -17.523812
42.001071 61.434872 -18.93799
42.835952 61.923737 -18.264443
40.884567 62.379452 -19.334396
42.001071 61.434872 -18.93799
3 0 15 13
3 2 18 16
3 2 20 18
3 1 24 22
3 3 27 25
3 3 49 51
3 51 50 27
3 49 50 51
3 52 28 53
3 4 31 29
3 6 32 14
3 6 33 32
3 55 54 34
3 56 35 57
3 7 36 17
3 7 37 36
3 7 38 37
3 8 39 19
3 8 40 39
3 58 41 59
3 60 42 61
3 62 61 41
3 60 61 62
3 9 63 64
3 9 65 67
3 65 43 66
3 65 66 67
3 9 44 43
3 10 45 21
3 10 46 45
3 10 68 70
3 70 69 46
3 68 69 70
3 11 71 73
3 73 72 23
3 71 72 73
3 11 74 75
3 5 47 30
3 12 48 26
3 12 76 78
3 78 77 48
3 76 77 78
3 12 79 80
3 13 14 4
3 15 14 13
3 15 6 14
3 16 81 83
3 81 17 82
3 81 82 83
3 18 17 16
3 18 7 17
3 18 19 7
3 20 19 18
3 20 8 19
3 84 9 85
3 86 21 87
3 88 87 9
3 86 87 88
3 89 21 90
3 91 10 92
3 93 92 21
3 91 92 93
3 95 94 10
3 22 96 98
3 96 23 97
3 96 97 98
3 24 23 22
3 24 11 23
3 25 26 5
3 27 26 25
3 27 12 26
3 27 99 101
3 101 100 12
3 99 100 101
3 103 102 27
3 104 16 105
3 28 106 108
3 106 16 107
3 106 107 108
3 28 2 16
3 29 30 1
3 31 30 29
3 31 5 30
3 14 31 4
3 32 31 14
3 32 5 31
3 32 25 5
3 33 25 32
3 33 3 25
3 34 109 111
3 111 110 0
3 109 110 111
3 113 112 34
3 114 22 115
3 35 116 118
3 116 22 117
3 116 117 118
3 35 1 22
3 17 119 120
3 36 121 123
3 123 122 17
3 121 122 123
3 36 124 125
3 36 126 128
3 126 35 127
3 126 127 128
3 37 35 36
3 37 1 35
3 37 29 1
3 38 29 37
3 38 4 29
3 19 38 7
3 39 38 19
3 39 4 38
3 39 13 4
3 40 13 39
3 40 0 13
3 41 129 130
3 41 131 132
3 41 133 135
3 133 28 134
3 133 134 135
3 42 28 41
3 42 2 28
3 136 42 137
3 43 138 140
3 138 42 139
3 138 139 140
3 43 2 42
3 43 20 2
3 44 20 43
3 44 8 20
3 21 44 9
3 45 44 21
3 45 8 44
3 45 40 8
3 46 40 45
3 46 0 40
3 46 34 0
3 141 34 142
3 143 142 46
3 141 142 143
3 146 145 34
3 144 145 146
3 148 147 10
3 23 149 150
3 152 151 23
3 30 24 1
3 47 24 30
3 47 11 24
3 26 47 5
3 48 47 26
3 48 11 47
3 48 153 155
3 155 154 11
3 153 154 155
3 157 156 48
3 159 158 12
3 160 15 161
3 162 161 0
3 160 161 162
3 163 15 164
3 165 6 166
3 167 166 15
3 165 166 167
3 168 6 169
3 170 33 171
3 172 171 6
3 170 171 172
3 173 33 174
3 175 3 176
3 177 176 33
3 175 176 177
3 178 3 179
3 181 180 3
