ply
format ascii 1.0
element vertex 117
property float x
property float y
property float z
element face 101
property list uchar int vertex_index
end_header
-5.059523 -86.424789 29.708662
-4.091846 -88.044296 34.619877
-5.333174 -91.203537 30.17598
-4.811018 -92.920624 35.313354
-1.981215 -84.504852 38.810139
-2.896481 -83.331879 33.906906
-3.668541 -88.736023 37.138145
-4.528849 -90.4534 34.963966
-4.218355 -91.162079 37.522018
-1.589149 -84.958221 41.326401
-2.625132 -86.917908 39.254997
-3.052805 -86.344315 36.743172
-5.563433 -85.539673 27.331499
-6.285263 -86.917786 25.117659
-5.800114 -87.851288 27.496227
-4.030437 -84.938461 31.844267
-3.369612 -82.623322 31.533464
-4.533892 -84.131271 29.470724
-4.562325 -87.268082 32.139931
-5.335358 -88.774078 29.936138
-4.905991 -89.650681 32.429626
-5.03311 -92.105347 32.731487
-2.42506 -83.961807 36.333977
-3.528858 -85.681442 34.269875
-3.763822 -90.247063 38.601192
-3.943448 -89.949051 37.330082
-3.488916 -89.034035 38.409256
-2.967211 -88.124977 39.467682
-2.4447 -87.157829 40.523832
-3.488916 -89.034035 38.409256
-3.146837 -87.826966 38.196571
-2.967211 -88.124977 39.467682
-4.884483 -93.775368 34.185497
-4.995529 -93.367729 32.894564
-4.922064 -92.512985 34.02242
-1.516236 -83.494701 39.82585
-1.320203 -83.721385 41.08398
-1.785182 -84.731537 40.06827
-1.707948 -83.282196 38.582022
-1.516236 -83.494701 39.82585
-2.203137 -84.233329 37.572058
-1.929871 -83.010673 37.343941
-1.707948 -83.282196 38.582022
-6.436451 -87.623406 23.985613
-6.203284 -88.095596 25.170556
-5.516588 -90.725021 28.921944
-5.51768 -89.510292 28.802023
-5.334266 -89.988808 30.056059
-2.578594 -82.139481 33.722572
-2.371685 -82.439072 34.912241
-3.010462 -81.446846 31.374837
-3.595497 -82.237389 30.373129
-1.926709 -86.177986 41.559534
-1.428583 -85.140289 42.598667
-2.10714 -85.938064 40.290699
-1.926709 -86.177986 41.559534
-2.4447 -87.157829 40.523832
-5.924348 -86.22873 26.224579
-6.172154 -85.78154 25.063538
-5.81124 -85.092484 26.170459
-5.96071 -88.562348 26.359841
-6.203284 -88.095596 25.170556
-6.042688 -87.384537 26.306943
-5.308619 -91.970138 29.025588
-5.202158 -92.46106 30.312931
-4.177637 -82.991364 29.34176
-3.595497 -82.237389 30.373129
-3.951752 -83.377296 30.502094
-4.776617 -83.70739 28.309651
-4.177637 -82.991364 29.34176
-5.291387 -84.41159 27.240038
-4.776617 -83.70739 28.309651
-5.048662 -84.835472 28.401111
-5.81124 -85.092484 26.170459
-5.291387 -84.41159 27.240038
-5.052126 -92.911964 31.590684
-5.202158 -92.46106 30.312931
-5.183142 -91.654442 31.453733
-5.052126 -92.911964 31.590684
-4.995529 -93.367729 32.894564
-1.155378 -83.890682 42.348759
-1.428583 -85.140289 42.598667
-1.155378 -83.890682 42.348759
-1.320203 -83.721385 41.08398
-2.135974 -82.754036 36.125777
-1.929871 -83.010673 37.343941
-2.66077 -83.646843 35.120441
-2.371685 -82.439072 34.912241
-2.135974 -82.754036 36.125777
-6.533471 -86.465904 23.960901
-6.172154 -85.78154 25.063538
-6.533471 -86.465904 23.960901
-6.436451 -87.623406 23.985613
-5.750058 -89.048897 27.582068
-5.567736 -88.312683 28.716183
-5.51768 -89.510292 28.802023
-5.96071 -88.562348 26.359841
-5.750058 -89.048897 27.582068
-5.516588 -90.725021 28.921944
-5.308619 -91.970138 29.025588
-2.815159 -81.785202 32.535851
-2.578594 -82.139481 33.722572
-3.133046 -82.9776 32.720185
-2.815159 -81.785202 32.535851
-3.010462 -81.446846 31.374837
-4.100766 -91.462113 38.802937
-3.763822 -90.247063 38.601192
-4.445707 -92.393677 37.709637
-4.100766 -91.462113 38.802937
-4.742038 -93.27295 36.605305
-4.514686 -92.041352 36.417686
-4.445707 -92.393677 37.709637
-4.879552 -94.177971 35.49098
-4.742038 -93.27295 36.605305
-4.810572 -94.530296 36.78293
-4.884483 -93.775368 34.185497
-4.879552 -94.177971 35.49098
3 24 8 25
3 26 25 6
3 24 25 26
3 27 10 28
3 29 6 30
3 31 30 10
3 29 30 31
3 0 14 12
3 0 17 15
3 0 12 17
3 1 20 18
3 3 21 7
3 3 32 34
3 34 33 21
3 32 33 34
3 4 35 37
3 37 36 9
3 35 36 37
3 4 38 39
3 4 40 42
3 40 22 41
3 40 41 42
3 1 23 11
3 1 18 23
3 44 43 13
3 2 45 47
3 47 46 19
3 45 46 47
3 5 48 49
3 51 50 16
3 6 7 1
3 8 7 6
3 8 3 7
3 52 9 53
3 10 54 56
3 54 9 55
3 54 55 56
3 10 4 9
3 10 11 4
3 6 11 10
3 6 1 11
3 12 57 59
3 57 13 58
3 57 58 59
3 14 13 12
3 14 60 62
3 62 61 13
3 60 61 62
3 64 63 2
3 15 16 5
3 17 16 15
3 17 65 67
3 67 66 16
3 65 66 67
3 17 68 69
3 12 70 72
3 72 71 17
3 70 71 72
3 12 73 74
3 18 19 0
3 20 19 18
3 20 2 19
3 7 20 1
3 21 20 7
3 21 2 20
3 21 75 77
3 77 76 2
3 75 76 77
3 79 78 21
3 9 80 81
3 83 82 9
3 22 84 85
3 22 86 88
3 86 5 87
3 86 87 88
3 11 22 4
3 23 22 11
3 23 5 22
3 23 15 5
3 18 15 23
3 18 0 15
3 13 89 90
3 92 91 13
3 19 14 0
3 93 14 94
3 95 94 19
3 93 94 95
3 97 96 14
3 99 98 2
3 16 100 102
3 102 101 5
3 100 101 102
3 104 103 16
3 105 8 106
3 107 8 108
3 109 3 110
3 111 110 8
3 109 110 111
3 112 3 113
3 112 113 114
3 116 115 3
