ply
format ascii 1.0
element vertex 300
property float x
property float y
property float z
element face 299
property list uchar int vertex_index
end_header
-38.96447 10.508842 -16.933002
-33.726894 17.953491 -30.275623
-37.710556 15.284595 -24.606236
-51.442852 8.82959 -30.3783
-44.213547 9.104225 -29.549736
-39.727226 14.520805 -37.094891
-38.302097 5.764004 -8.492546
-41.847797 4.745193 -19.053162
-45.063114 5.126181 -25.107212
-41.74395 8.081278 -23.293098
-35.986618 17.037182 -27.811638
-39.168457 13.751034 -30.80999
-36.747116 15.240807 -33.540661
-38.698368 12.994392 -20.918373
-35.859253 19.319298 -18.98877
-47.763062 8.619852 -30.614326
-45.769943 12.586235 -35.425026
-40.88554 11.225382 -27.286137
-42.404228 12.402458 -33.671101
-38.733177 8.069372 -12.760927
-40.367569 7.402119 -18.015003
-41.875835 6.414776 -21.194759
-40.3605 8.859388 -20.092018
-34.906254 17.612095 -29.15316
-36.460976 15.890686 -30.636711
-35.236847 16.352737 -31.789516
-35.383228 15.515911 -34.505859
-44.753242 7.168386 -27.350918
-46.524521 6.582767 -27.924828
-45.96117 8.705946 -30.255184
-46.901802 10.726297 -33.051193
-45.142033 10.653969 -32.535313
-38.301434 14.184303 -22.808861
-39.841141 11.715202 -24.068939
-39.283371 13.026211 -25.929802
-39.588615 13.90432 -33.9688
-40.776718 12.839817 -32.331356
-41.156769 13.63665 -35.498051
-42.748566 13.757076 -36.760624
-39.522434 1.935987 -9.394049
-39.797962 3.229654 -11.576494
-40.050434 4.573944 -13.747438
-38.525463 6.899702 -10.632519
-43.422001 2.587513 -19.933315
-45.16853 3.033327 -22.840725
-43.474495 4.472094 -22.143028
-43.362354 6.354168 -24.324467
-43.053669 8.18906 -26.462276
-36.931931 16.249847 -26.284397
-38.52066 14.191422 -27.668839
-37.569397 15.160477 -29.250702
-38.026115 14.645863 -32.296329
-38.241257 14.641228 -35.364799
-36.79002 15.022301 -36.473179
-39.244675 0.689981 -7.211178
-38.089108 4.656555 -6.35582
-50.507858 11.148186 -33.092793
-37.624866 13.973915 -15.931187
-38.911293 11.757429 -18.954769
-37.516411 15.015736 -17.911957
-37.248257 16.040462 -19.835583
-36.803238 17.018341 -21.689957
-34.576176 22.681282 -18.467892
-35.374302 20.091648 -20.833618
-36.179333 17.913265 -23.458317
-35.388798 18.686817 -25.117455
-34.454308 19.303642 -26.637737
-33.403194 19.737087 -27.985466
-50.228558 6.295307 -28.062439
-46.848045 4.347836 -25.57547
-48.35783 6.333822 -28.156456
-49.600677 8.709929 -30.638836
-48.698326 10.942558 -33.22226
-47.514938 12.928257 -35.773155
-40.194649 10.310305 -22.115513
-41.420948 9.702082 -25.331478
-42.524406 9.922419 -28.532822
-40.131088 12.594038 -29.125332
-41.763489 11.493418 -30.503159
-43.429966 10.870813 -31.670933
-44.065624 12.359606 -34.721825
-41.695541 3.104153 -16.879688
-40.251736 5.96759 -15.896782
-38.89217 9.274378 -14.864838
-37.327251 10.909674 -9.74588
-37.490902 11.913649 -11.837379
-37.603649 12.936031 -13.903051
-33.834322 17.244106 -31.477399
-34.589298 16.443729 -32.234346
-34.48187 17.153114 -31.03257
-40.477226 14.654673 -37.842625
-41.191997 14.212595 -37.044205
-40.441997 14.078727 -36.296471
-39.641976 14.965812 -38.621525
-40.477226 14.654673 -37.842625
-52.346163 8.834323 -30.142285
-51.771342 7.57929 -29.036663
-35.339945 15.278225 -35.882864
-34.685335 15.493803 -34.837032
-38.574995 2.130119 -5.724851
-39.111851 0.088652 -6.12546
-37.997212 4.113406 -5.297171
-38.666892 2.673268 -6.783499
-38.574995 2.130119 -5.724851
-50.782135 12.23468 -34.335057
-49.896783 12.185715 -34.447478
-36.932698 16.342616 -16.520222
-37.570639 14.494826 -16.921572
-36.986925 15.821705 -15.529837
-36.553755 17.67988 -19.412177
-36.714804 17.27239 -18.45995
-36.020302 18.911808 -18.036543
-34.024151 24.328584 -18.391127
-34.211296 24.116302 -17.440703
-35.052961 20.441839 -21.719467
-34.724221 21.676769 -20.578293
-35.455477 19.352647 -23.031816
-35.776817 19.002457 -22.145968
-35.052961 20.441839 -21.719467
-35.060209 19.739424 -23.861385
-35.784065 18.300041 -24.287886
-35.455477 19.352647 -23.031816
-33.745018 20.577955 -26.235254
-34.200094 20.346061 -25.45985
-33.219461 20.794677 -26.909118
-33.928751 19.520364 -27.311602
-33.745018 20.577955 -26.235254
-49.465944 5.113029 -26.884348
-50.41432 5.027228 -26.790458
-45.914875 13.593622 -36.831749
-46.787373 13.764633 -37.005814
-46.64244 12.757246 -35.599091
-43.564509 13.944908 -37.221063
-42.757255 14.530907 -38.25878
-41.574854 2.308247 -15.781056
-42.467462 1.919192 -17.292036
-36.700395 12.605949 -8.348613
-37.238979 10.415001 -8.694548
-36.907156 13.951734 -11.463672
-36.848295 13.531688 -10.431701
-36.963529 14.462925 -12.496507
-37.547275 12.42484 -12.870215
-36.907156 13.951734 -11.463672
-36.994255 14.882665 -13.51542
-36.963529 14.462925 -12.496507
-34.662489 16.025316 -33.592517
-35.310037 15.934324 -33.147688
-34.589298 16.443729 -32.234346
-34.685335 15.493803 -34.837032
-34.662489 16.025316 -33.592517
-35.398678 20.694468 -17.777864
-36.020302 18.911808 -18.036543
-41.987896 14.272808 -37.675491
-41.952667 13.696863 -36.129337
-41.191997 14.212595 -37.044205
-42.757255 14.530907 -38.25878
-41.987896 14.272808 -37.675491
-40.338331 0.958572 -10.930997
-40.17095 0.225645 -9.818332
-40.476095 1.605406 -12.02222
-40.338331 0.958572 -10.930997
-39.660198 2.58282 -10.485271
-40.626064 2.370998 -13.129459
-40.476095 1.605406 -12.02222
-39.924198 3.901799 -12.661966
-40.7523 3.043143 -14.214931
-40.626064 2.370998 -13.129459
-44.295265 2.81042 -21.38702
-45.1348 1.98464 -21.702471
-44.261536 1.761733 -20.248766
-38.206558 14.829974 -36.885572
-38.949543 14.769762 -37.750618
-38.984241 14.581017 -36.229845
-37.48094 15.02051 -37.439762
-38.206558 14.829974 -36.885572
-37.515638 14.831765 -35.918989
-36.673959 15.068842 -37.929915
-37.48094 15.02051 -37.439762
-36.04334 15.03142 -36.866524
-36.086624 15.269106 -35.489519
-35.339945 15.278225 -35.882864
-36.673959 15.068842 -37.929915
-36.04334 15.03142 -36.866524
-39.855616 -1.097215 -7.612217
-39.111851 0.088652 -6.12546
-40.032071 -0.397358 -8.726897
-39.855616 -1.097215 -7.612217
-39.383555 1.312984 -8.302613
-40.17095 0.225645 -9.818332
-40.032071 -0.397358 -8.726897
-51.402275 11.173284 -32.913088
-51.869772 10.013986 -31.555841
-50.975355 9.988888 -31.735546
-51.402275 11.173284 -32.913088
-50.782135 12.23468 -34.335057
-36.848881 16.760027 -17.498137
-36.932698 16.342616 -16.520222
-37.382334 15.528099 -18.87377
-36.848881 16.760027 -17.498137
-36.714804 17.27239 -18.45995
-34.757139 22.375459 -17.517426
-34.211296 24.116302 -17.440703
-35.217714 21.00029 -18.728331
-35.398678 20.694468 -17.777864
-34.757139 22.375459 -17.517426
-34.325158 22.971586 -19.39543
-34.024151 24.328584 -18.391127
-34.975239 21.386465 -19.650755
-34.325158 22.971586 -19.39543
-34.724221 21.676769 -20.578293
-34.667339 20.037649 -24.699709
-35.060209 19.739424 -23.861385
-34.921553 18.99523 -25.877596
-34.667339 20.037649 -24.699709
-34.200094 20.346061 -25.45985
-51.164195 6.312149 -27.878732
-50.41432 5.027228 -26.790458
-50.835705 7.562449 -29.22037
-51.771342 7.57929 -29.036663
-51.164195 6.312149 -27.878732
-46.063021 2.545285 -23.03364
-45.1348 1.98464 -21.702471
-46.902778 3.20254 -24.401013
-46.063021 2.545285 -23.03364
-46.008287 3.690581 -24.208098
-47.775688 4.139293 -25.640864
-46.902778 3.20254 -24.401013
-48.53058 5.132286 -26.931356
-47.775688 4.139293 -25.640864
-47.602937 5.340829 -26.865963
-49.293194 6.314564 -28.109448
-49.465944 5.113029 -26.884348
-48.53058 5.132286 -26.931356
-48.992018 12.082901 -34.512211
-49.896783 12.185715 -34.447478
-49.603092 11.045372 -33.157527
-48.400323 13.07575 -35.787659
-48.992018 12.082901 -34.512211
-48.106632 11.935408 -34.497708
-47.648304 13.959868 -37.114536
-48.400323 13.07575 -35.787659
-47.648304 13.959868 -37.114536
-46.787373 13.764633 -37.005814
-44.223038 13.246173 -36.201664
-43.407095 13.058341 -35.741225
-43.564509 13.944908 -37.221063
-45.075197 13.359488 -36.553264
-44.917783 12.472921 -35.073425
-44.223038 13.246173 -36.201664
-45.914875 13.593622 -36.831749
-45.075197 13.359488 -36.553264
-39.641976 14.965812 -38.621525
-38.949543 14.769762 -37.750618
-43.330692 1.660872 -18.818849
-44.261536 1.761733 -20.248766
-42.558771 2.845833 -18.406502
-43.330692 1.660872 -18.818849
-42.467462 1.919192 -17.292036
-40.872988 3.839049 -15.313563
-41.574854 2.308247 -15.781056
-40.7523 3.043143 -14.214931
-37.484079 6.304945 -4.916893
-37.997212 4.113406 -5.297171
-37.54114 6.797202 -5.951507
-37.484079 6.304945 -4.916893
-37.647635 7.350926 -7.01987
-38.195603 5.21028 -7.424183
-37.54114 6.797202 -5.951507
-37.726402 7.842166 -8.067882
-37.647635 7.350926 -7.01987
-37.071939 9.429088 -6.595206
-37.838085 8.410015 -9.137868
-38.41378 6.331853 -9.562532
-37.726402 7.842166 -8.067882
-37.926357 8.904688 -10.1892
-37.838085 8.410015 -9.137868
-37.238979 10.415001 -8.694548
-36.766469 13.029701 -9.385952
-36.700395 12.605949 -8.348613
-37.409076 11.411662 -10.791629
-36.766469 13.029701 -9.385952
-36.848295 13.531688 -10.431701
-37.004863 15.401608 -14.529488
-37.614257 13.454973 -14.917119
-36.994255 14.882665 -13.51542
-36.986925 15.821705 -15.529837
-37.004863 15.401608 -14.529488
-32.71072 20.950435 -27.603319
-33.219461 20.794677 -26.909118
-32.832323 19.855381 -28.556591
-32.71072 20.950435 -27.603319
-32.994173 18.963583 -29.70167
-33.565044 18.845289 -29.130544
-32.832323 19.855381 -28.556591
-33.104703 18.00515 -30.714264
-32.994173 18.963583 -29.70167
-33.834322 17.244106 -31.477399
-33.104703 18.00515 -30.714264
-52.346163 8.834323 -30.142285
-51.869772 10.013986 -31.555841
3 0 22 20
3 1 25 23
3 1 87 89
3 89 88 25
3 87 88 89
3 4 29 27
3 4 31 29
3 2 34 32
3 5 37 35
3 5 90 92
3 92 91 37
3 90 91 92
3 5 93 94
3 6 40 39
3 6 42 40
3 3 95 96
3 7 45 43
3 9 46 21
3 9 47 46
3 10 50 48
3 12 51 24
3 12 52 51
3 12 53 52
3 98 97 26
3 99 54 100
3 101 55 102
3 103 102 54
3 101 102 103
3 105 104 56
3 106 59 107
3 108 107 57
3 106 107 108
3 14 109 111
3 109 60 110
3 109 110 111
3 14 61 60
3 112 62 113
3 114 63 115
3 116 64 117
3 118 117 63
3 116 117 118
3 119 65 120
3 121 120 64
3 119 120 121
3 122 66 123
3 124 67 125
3 126 125 66
3 124 125 126
3 127 68 128
3 8 69 44
3 15 70 28
3 15 71 70
3 15 72 71
3 16 73 30
3 16 129 131
3 131 130 73
3 129 130 131
3 13 74 58
3 17 75 33
3 17 76 75
3 11 77 49
3 18 78 36
3 18 79 78
3 18 80 79
3 133 132 38
3 134 81 135
3 19 82 41
3 19 83 82
3 136 84 137
3 138 85 139
3 140 86 141
3 142 141 85
3 140 141 142
3 144 143 86
3 20 21 7
3 22 21 20
3 22 9 21
3 23 24 10
3 25 24 23
3 25 12 24
3 25 26 12
3 145 26 146
3 147 146 25
3 145 146 147
3 149 148 26
3 150 14 151
3 27 28 8
3 29 28 27
3 29 15 28
3 29 30 15
3 31 30 29
3 31 16 30
3 32 33 13
3 34 33 32
3 34 17 33
3 35 36 11
3 37 36 35
3 37 18 36
3 37 38 18
3 152 38 153
3 154 153 37
3 152 153 154
3 156 155 38
3 39 157 158
3 40 159 161
3 161 160 39
3 159 160 161
3 40 162 163
3 40 164 166
3 164 41 165
3 164 165 166
3 42 41 40
3 42 19 41
3 43 167 169
3 167 44 168
3 167 168 169
3 45 44 43
3 45 8 44
3 21 45 7
3 46 45 21
3 46 8 45
3 46 27 8
3 47 27 46
3 47 4 27
3 48 49 2
3 50 49 48
3 50 11 49
3 24 50 10
3 51 50 24
3 51 11 50
3 51 35 11
3 52 35 51
3 52 5 35
3 52 170 172
3 172 171 5
3 170 171 172
3 53 173 175
3 175 174 52
3 173 174 175
3 53 176 177
3 26 53 12
3 178 53 179
3 180 179 26
3 178 179 180
3 182 181 53
3 54 183 184
3 54 185 186
3 54 187 189
3 187 39 188
3 187 188 189
3 55 39 54
3 55 6 39
3 56 190 192
3 192 191 3
3 190 191 192
3 194 193 56
3 57 58 0
3 59 58 57
3 59 13 58
3 195 59 196
3 60 197 199
3 197 59 198
3 197 198 199
3 60 13 59
3 60 32 13
3 61 32 60
3 61 2 32
3 62 200 201
3 62 202 204
3 202 14 203
3 202 203 204
3 205 62 206
3 63 207 209
3 207 62 208
3 207 208 209
3 63 14 62
3 63 61 14
3 64 61 63
3 64 2 61
3 64 48 2
3 65 48 64
3 65 10 48
3 210 65 211
3 66 212 214
3 212 65 213
3 212 213 214
3 66 10 65
3 66 23 10
3 67 23 66
3 67 1 23
3 68 215 216
3 68 217 219
3 217 3 218
3 217 218 219
3 44 220 221
3 69 222 224
3 224 223 44
3 222 223 224
3 69 225 226
3 28 69 8
3 70 69 28
3 70 227 229
3 229 228 69
3 227 228 229
3 70 230 232
3 230 68 231
3 230 231 232
3 71 68 70
3 71 3 68
3 71 56 3
3 72 56 71
3 72 233 235
3 235 234 56
3 233 234 235
3 30 72 15
3 73 72 30
3 73 236 238
3 238 237 72
3 236 237 238
3 73 239 240
3 242 241 73
3 58 22 0
3 74 22 58
3 74 9 22
3 33 74 13
3 75 74 33
3 75 9 74
3 75 47 9
3 76 47 75
3 76 4 47
3 49 34 2
3 77 34 49
3 77 17 34
3 36 77 11
3 78 77 36
3 78 17 77
3 78 76 17
3 79 76 78
3 79 4 76
3 79 31 4
3 80 31 79
3 80 16 31
3 38 80 18
3 243 80 244
3 245 244 38
3 243 244 245
3 246 16 247
3 248 247 80
3 246 247 248
3 250 249 16
3 252 251 5
3 253 43 254
3 81 255 257
3 255 43 256
3 255 256 257
3 81 7 43
3 41 258 260
3 258 81 259
3 258 259 260
3 82 81 41
3 82 7 81
3 82 20 7
3 83 20 82
3 83 0 20
3 261 55 262
3 263 55 264
3 265 6 266
3 267 266 55
3 265 266 267
3 268 6 269
3 268 269 270
3 271 42 272
3 273 272 6
3 271 272 273
3 84 274 276
3 274 42 275
3 274 275 276
3 84 19 42
3 277 84 278
3 85 279 281
3 279 84 280
3 279 280 281
3 85 19 84
3 85 83 19
3 86 83 85
3 86 0 83
3 86 57 0
3 282 57 283
3 284 283 86
3 282 283 284
3 286 285 57
3 287 67 288
3 289 67 290
3 291 1 292
3 293 292 67
3 291 292 293
3 294 1 295
3 297 296 1
3 299 298 3
