ply
format ascii 1.0
element vertex 251
property float x
property float y
property float z
element face 250
property list uchar int vertex_index
end_header
4.267363 25.649288 76.407906
4.48394 56.391495 58.548798
0.717403 32.140217 69.220367
4.478069 41.241253 68.881798
10.917162 31.189419 72.118217
2.066057 29.226871 73.437523
2.066851 37.229538 69.799721
4.476078 33.459206 72.987389
1.846334 21.203747 76.24247
1.943775 53.061653 60.15921
1.975941 45.21244 65.369888
4.429745 48.94046 64.077377
7.471426 29.023182 74.92997
10.520714 24.085377 75.881096
7.641748 36.491383 71.046577
7.648455 43.891064 66.587784
7.658613 51.11702 61.498322
3.07486 27.518036 75.077042
3.149996 31.479416 73.413376
4.406029 29.558472 74.784904
4.048298 21.725075 77.847656
2.713236 19.560364 77.807137
2.931725 23.547646 76.544922
1.988634 25.221066 74.948334
3.089418 54.934952 59.515739
1.986582 56.86834 57.268776
3.15164 39.391495 69.525299
2.023054 41.227489 67.682915
3.115299 43.336426 67.304329
3.080988 47.257599 64.896461
4.450037 45.109268 66.569313
0.740643 28.099209 70.859444
8.755178 22.930168 77.227242
9.198818 30.260571 73.669716
7.587233 32.763653 73.057899
9.300785 33.894955 71.700737
9.364826 41.107689 67.377907
9.36834 44.668171 65.008522
7.64278 47.536186 64.124657
9.380785 48.175255 62.490608
1.275593 30.767635 71.481354
1.253292 34.796379 69.69503
2.087353 33.228546 71.719078
3.16984 35.437069 71.561592
4.493647 37.354443 71.019829
1.176409 22.702255 74.392761
1.253576 26.738327 73.050018
1.075321 50.814468 60.47287
1.093756 54.70211 57.670006
1.20307 38.825642 67.69709
1.144325 42.849472 65.491661
1.096266 46.853447 63.082169
1.944269 49.165863 62.861267
3.067148 51.133034 62.299896
4.435669 52.71051 61.403206
5.591736 23.634079 77.452858
5.802938 27.481503 75.856758
7.27578 25.266537 76.660332
9.023312 26.607719 75.513756
10.761009 27.650688 74.05619
12.216898 24.952026 74.24501
5.932035 31.314053 74.099373
5.994701 35.136841 72.186684
6.009651 38.950165 70.119102
9.349268 37.512413 69.60569
7.655149 40.203815 68.89241
5.997448 42.747475 67.892151
5.979113 46.514709 65.498856
5.974955 50.231033 62.933182
6.003792 53.871338 60.193588
11.143629 48.454559 60.657043
3.82222 57.511876 57.549168
3.124959 56.783604 58.032639
3.786679 55.663224 59.032269
4.535997 58.172959 57.035629
3.82222 57.511876 57.549168
0.689828 34.161356 68.2882
0.552334 32.746811 67.953567
0.581342 30.726141 68.812893
0.592963 28.705637 69.632431
0.729023 30.119713 70.039906
0.552334 32.746811 67.953567
0.581342 30.726141 68.812893
10.236635 44.880774 64.107704
10.22586 43.169044 65.315525
10.242857 46.634315 62.848747
9.374562 46.421713 63.749565
10.236635 44.880774 64.107704
1.741137 19.184835 76.776749
2.174588 18.363144 77.559082
2.279785 20.382055 77.024803
1.442918 19.927042 75.871621
1.741137 19.184835 76.776749
1.511372 21.953001 75.317615
1.107955 20.676296 74.946766
1.442918 19.927042 75.871621
1.620678 59.516437 54.440911
1.573195 57.674759 55.975719
2.034066 58.710019 55.733967
7.130021 23.37669 77.450584
6.433758 24.450308 77.056595
6.287999 22.560461 77.846847
13.011939 25.24669 73.305873
12.871893 23.564558 74.251037
13.666934 23.859223 73.311901
12.324891 26.675455 73.288169
13.011939 25.24669 73.305873
6.287999 22.560461 77.846847
5.439206 21.699227 78.165256
10.203817 37.8577 68.756584
10.179436 36.10969 69.837829
11.181776 50.094082 59.317249
12.022493 48.436928 59.680611
12.06064 50.07645 58.340817
10.283189 50.030895 60.240177
11.181776 50.094082 59.317249
3.380767 20.642719 77.827396
3.227481 18.669168 78.450504
3.895012 19.751524 78.470764
2.573541 57.750298 56.909157
2.538 55.901646 58.392257
3.124959 56.783604 58.032639
2.034066 58.710019 55.733967
2.573541 57.750298 56.909157
0.60465 26.684715 70.373516
0.729604 26.077288 71.562694
0.45697 27.291144 69.146503
0.60465 26.684715 70.373516
0.592963 28.705637 69.632431
8.56633 21.074979 78.013321
7.86972 22.208506 77.734039
9.465671 21.707651 77.405308
8.56633 21.074979 78.013321
10.348439 22.285255 76.732235
9.637946 23.507773 76.554169
9.465671 21.707651 77.405308
10.224103 41.388804 66.500217
10.211597 39.655338 67.642692
9.366583 42.88793 66.193214
10.224103 41.388804 66.500217
10.22586 43.169044 65.315525
2.564895 17.554146 78.331257
3.07914 16.662951 78.974625
3.227481 18.669168 78.450504
2.564895 17.554146 78.331257
2.174588 18.363144 77.559082
0.910352 21.351298 73.912185
0.841898 19.325339 74.466191
1.107955 20.676296 74.946766
0.947487 23.378811 73.329353
0.910352 21.351298 73.912185
0.986071 25.396847 72.657982
0.947487 23.378811 73.329353
1.214993 24.720291 73.721389
0.99711 27.418768 71.954731
0.729604 26.077288 71.562694
0.986071 25.396847 72.657982
0.781415 51.503399 59.119049
0.782955 49.533451 60.471306
0.790632 53.44722 57.717617
0.781415 51.503399 59.119049
1.084538 52.758289 59.071438
0.811584 55.37033 56.270764
0.790632 53.44722 57.717617
1.126781 56.591644 56.176334
1.540169 55.785225 57.469391
1.573195 57.674759 55.975719
0.811584 55.37033 56.270764
1.126781 56.591644 56.176334
10.963383 32.948193 71.094093
11.747355 31.503613 71.219787
0.957773 35.489437 68.525531
0.689828 34.161356 68.2882
0.985348 33.468298 69.457698
0.932662 37.504069 67.526561
0.957773 35.489437 68.525531
1.228181 36.811011 68.69606
0.898213 39.524691 66.484726
0.932662 37.504069 67.526561
0.868841 41.536606 65.382012
0.898213 39.524691 66.484726
1.173698 40.837557 66.594375
0.837307 43.55151 64.233242
0.868841 41.536606 65.382012
0.813277 45.553498 63.028496
0.837307 43.55151 64.233242
1.120296 44.85146 64.286915
0.793427 47.552941 61.775955
0.813277 45.553498 63.028496
1.085793 48.833957 61.777519
0.782955 49.533451 60.471306
0.793427 47.552941 61.775955
8.015479 24.098352 76.943787
7.130021 23.37669 77.450584
7.86972 22.208506 77.734039
11.214573 22.777123 75.9679
10.348439 22.285255 76.732235
11.042298 20.977001 76.819039
12.062665 23.210447 75.149856
12.871893 23.564558 74.251037
11.368806 24.518701 75.063053
11.214573 22.777123 75.9679
12.062665 23.210447 75.149856
11.596946 28.024786 73.193759
11.488954 26.301357 74.1506
12.324891 26.675455 73.288169
11.675023 29.794151 72.224773
10.839085 29.420054 73.087204
11.596946 28.024786 73.193759
11.747355 31.503613 71.219787
11.675023 29.794151 72.224773
4.667487 20.744725 78.362656
3.895012 19.751524 78.470764
4.820017 22.679577 77.650257
4.667487 20.744725 78.362656
5.439206 21.699227 78.165256
10.155195 34.300961 70.885353
10.108973 32.542187 71.909477
10.963383 32.948193 71.094093
9.325026 35.703684 70.653213
10.155195 34.300961 70.885353
10.179436 36.10969 69.837829
9.357047 39.310051 68.491798
10.203817 37.8577 68.756584
10.211597 39.655338 67.642692
11.984905 46.828472 60.955463
12.022493 48.436928 59.680611
11.124279 46.773967 61.931964
11.984905 46.828472 60.955463
10.262207 48.314907 61.573825
10.242857 46.634315 62.848747
11.124279 46.773967 61.931964
9.401767 49.891243 61.156959
10.262207 48.314907 61.573825
10.283189 50.030895 60.240177
8.540681 51.362125 60.660816
8.519699 49.646137 61.994465
9.401767 49.891243 61.156959
7.686913 52.863281 60.104664
8.540681 51.362125 60.660816
6.859502 54.240441 59.452297
6.831202 52.494179 60.845955
7.686913 52.863281 60.104664
6.0431 55.640381 58.739521
6.859502 54.240441 59.452297
5.283174 56.900459 57.917126
5.243866 55.131417 59.371193
6.0431 55.640381 58.739521
5.335231 58.681923 56.403958
4.535997 58.172959 57.035629
5.283174 56.900459 57.917126
3 0 19 17
3 0 22 20
3 0 17 22
3 1 71 73
3 73 72 24
3 71 72 73
3 1 74 75
3 2 76 77
3 3 28 26
3 3 30 28
3 2 78 80
3 80 79 31
3 78 79 80
3 2 81 82
3 4 35 33
3 83 37 84
3 85 39 86
3 87 86 37
3 85 86 87
3 5 42 40
3 7 43 18
3 7 44 43
3 8 88 90
3 90 89 21
3 88 89 90
3 8 91 92
3 8 93 95
3 93 45 94
3 93 94 95
3 5 46 23
3 5 40 46
3 9 48 47
3 98 97 25
3 96 97 98
3 6 49 41
3 10 50 27
3 10 51 50
3 10 52 51
3 11 53 29
3 11 54 53
3 99 57 100
3 101 100 55
3 99 100 101
3 13 58 32
3 13 59 58
3 102 60 103
3 102 103 104
3 106 105 60
3 107 55 108
3 12 61 56
3 14 62 34
3 14 63 62
3 109 64 110
3 15 65 36
3 15 66 65
3 15 67 66
3 16 68 38
3 16 69 68
3 111 70 112
3 111 112 113
3 115 114 70
3 17 18 5
3 19 18 17
3 19 7 18
3 20 116 118
3 116 21 117
3 116 117 118
3 22 21 20
3 22 8 21
3 22 23 8
3 17 23 22
3 17 5 23
3 24 25 9
3 119 25 120
3 121 120 24
3 119 120 121
3 123 122 25
3 26 27 6
3 28 27 26
3 28 10 27
3 28 29 10
3 30 29 28
3 30 11 29
3 31 124 125
3 128 127 31
3 126 127 128
3 129 32 130
3 131 32 132
3 133 13 134
3 135 134 32
3 133 134 135
3 33 34 12
3 35 34 33
3 35 14 34
3 136 36 137
3 37 138 140
3 138 36 139
3 138 139 140
3 37 15 36
3 37 38 15
3 39 38 37
3 39 16 38
3 40 41 2
3 42 41 40
3 42 6 41
3 18 42 5
3 43 42 18
3 43 6 42
3 43 26 6
3 44 26 43
3 44 3 26
3 21 141 143
3 141 142 143
3 145 144 21
3 45 146 148
3 146 147 148
3 45 149 150
3 23 45 8
3 46 45 23
3 46 151 153
3 153 152 45
3 151 152 153
3 46 154 156
3 154 31 155
3 154 155 156
3 40 31 46
3 40 2 31
3 47 157 158
3 48 159 161
3 161 160 47
3 159 160 161
3 48 162 163
3 25 48 9
3 164 48 165
3 166 165 25
3 164 165 166
3 168 167 48
3 170 169 4
3 41 171 173
3 173 172 2
3 171 172 173
3 49 174 176
3 176 175 41
3 174 175 176
3 49 177 178
3 27 49 6
3 50 49 27
3 50 179 181
3 181 180 49
3 179 180 181
3 50 182 183
3 51 184 186
3 186 185 50
3 184 185 186
3 51 187 188
3 51 189 191
3 189 47 190
3 189 190 191
3 52 47 51
3 52 9 47
3 29 52 10
3 53 52 29
3 53 9 52
3 53 24 9
3 54 24 53
3 54 1 24
3 55 56 0
3 57 56 55
3 57 12 56
3 32 192 194
3 192 57 193
3 192 193 194
3 58 57 32
3 58 12 57
3 58 33 12
3 59 33 58
3 59 4 33
3 195 13 196
3 195 196 197
3 60 198 199
3 60 200 202
3 200 13 201
3 200 201 202
3 60 59 13
3 203 59 204
3 205 204 60
3 203 204 205
3 206 4 207
3 208 207 59
3 206 207 208
3 210 209 4
3 211 20 212
3 55 213 215
3 213 20 214
3 213 214 215
3 55 0 20
3 56 19 0
3 61 19 56
3 61 7 19
3 34 61 12
3 62 61 34
3 62 7 61
3 62 44 7
3 63 44 62
3 63 3 44
3 216 35 217
3 218 217 4
3 216 217 218
3 64 219 221
3 219 35 220
3 219 220 221
3 64 14 35
3 36 222 224
3 222 64 223
3 222 223 224
3 65 64 36
3 65 14 64
3 65 63 14
3 66 63 65
3 66 3 63
3 66 30 3
3 67 30 66
3 67 11 30
3 38 67 15
3 68 67 38
3 68 11 67
3 68 54 11
3 69 54 68
3 69 1 54
3 70 225 226
3 70 227 228
3 70 229 231
3 229 39 230
3 229 230 231
3 232 39 233
3 234 233 70
3 232 233 234
3 235 16 236
3 237 236 39
3 235 236 237
3 238 16 239
3 240 69 241
3 242 241 16
3 240 241 242
3 243 69 244
3 245 1 246
3 247 246 69
3 245 246 247
3 250 249 1
3 248 249 250
