ply
format ascii 1.0
element vertex 184
property float x
property float y
property float z
element face 171
property list uchar int vertex_index
end_header
17.561028 85.886665 -9.737833
23.954544 81.487411 2.167412
13.798399 86.247391 -15.313969
26.309021 78.22686 8.123588
15.343995 87.343376 -4.126703
10.251995 89.243301 -3.772657
11.710186 88.186226 -10.012045
23.780708 77.539314 13.808842
21.463161 81.7323 7.980089
18.674107 85.064819 1.933063
21.035484 84.124634 -3.852858
16.374691 86.690887 -7.043436
13.539497 87.97316 -7.100777
14.528393 87.21489 -9.961462
10.82955 86.961922 -15.550562
26.028671 75.861359 13.75661
25.192976 79.931984 5.165218
23.872635 79.926659 7.984209
22.653488 81.69323 5.001317
20.138826 83.514061 4.971479
21.298031 83.277618 1.981733
19.792988 84.664085 -1.04925
22.571205 82.891624 -0.847057
18.918215 84.936897 -12.179604
15.690479 86.278656 -12.573114
27.337387 76.364365 11.023839
26.625414 79.783554 2.483613
25.37429 81.153404 -0.511421
14.432953 87.812889 -1.018339
12.690836 88.536652 -4.028584
10.923134 88.832008 -6.988049
12.659805 87.324181 -12.802189
9.917555 87.930428 -12.844931
24.984348 77.982033 10.908309
22.665987 79.736649 10.933066
20.373133 81.563225 11.087981
19.073273 83.552666 8.10471
17.649807 85.278305 5.073688
16.097866 86.711174 2.02357
17.068928 86.355652 -1.108122
18.143642 85.819099 -4.065702
19.356644 85.143913 -6.824348
23.974247 82.395111 -3.501226
22.421871 83.479271 -6.459515
20.727962 84.351204 -9.360111
27.174829 75.100167 13.804156
26.54005 74.717873 15.137222
17.975423 85.046089 -13.539496
19.675591 84.375709 -13.2609
27.950615 78.986489 2.700114
27.184768 79.037174 3.971738
27.394917 79.643619 1.212884
27.950615 78.986489 2.700114
10.449987 88.420014 -9.946468
10.056461 88.742905 -8.43447
11.31666 88.509117 -8.500047
9.068995 87.550667 -14.214866
10.373552 87.446175 -14.197747
9.524993 87.066414 -15.567681
8.733307 87.950913 -12.769027
9.068995 87.550667 -14.214866
23.241753 77.213154 15.309811
24.315182 76.347897 15.200637
22.676118 78.436275 13.902901
23.241753 77.213154 15.309811
25.443962 81.554157 -3.264995
24.674268 81.774258 -2.006324
26.143983 80.933303 -1.770093
23.188061 83.10498 -7.656325
23.966418 82.641152 -6.214724
22.341107 83.540947 -9.106623
21.574917 83.915237 -7.909813
23.188061 83.10498 -7.656325
21.490774 83.889927 -10.505722
22.341107 83.540947 -9.106623
9.94766 89.319778 -2.088224
11.093442 89.058434 -2.276513
11.386505 86.34885 -16.749004
12.313975 86.604657 -15.432265
12.870929 85.991585 -16.630708
9.962397 86.52721 -16.871477
11.386505 86.34885 -16.749004
9.524993 87.066414 -15.567681
9.962397 86.52721 -16.871477
25.439163 75.508919 15.174521
25.950542 74.365433 16.555133
26.54005 74.717873 15.137222
24.904689 76.700336 13.782726
24.315182 76.347897 15.200637
25.439163 75.508919 15.174521
9.178025 89.292766 -3.572623
9.427858 89.185871 -5.240653
16.361555 85.716969 -13.736251
17.304347 85.607776 -12.376359
17.975423 85.046089 -13.539496
15.415515 85.701336 -15.106679
14.744439 86.263024 -13.943542
16.361555 85.716969 -13.736251
14.460538 85.590431 -16.410285
15.415515 85.701336 -15.106679
12.870929 85.991585 -16.630708
14.460538 85.590431 -16.410285
28.521908 75.625874 11.151258
27.829186 75.351669 12.43777
29.013708 74.613179 12.565189
28.047981 76.514203 9.710447
28.521908 75.625874 11.151258
27.533798 77.44545 8.260321
26.823204 77.295613 9.573714
28.047981 76.514203 9.710447
27.026572 78.258827 6.791726
27.533798 77.44545 8.260321
26.468549 79.111389 5.312541
25.750999 79.079422 6.644403
27.026572 78.258827 6.791726
25.909195 79.857769 3.824416
26.468549 79.111389 5.312541
27.184768 79.037174 3.971738
26.769355 80.328544 -0.284633
25.999852 80.468479 0.986096
27.394917 79.643619 1.212884
26.143983 80.933303 -1.770093
26.769355 80.328544 -0.284633
13.183921 88.343227 -0.899354
14.015109 87.935154 0.616861
12.312862 88.705109 -2.404477
13.183921 88.343227 -0.899354
13.561894 88.17477 -2.523462
11.471415 88.889977 -3.900621
11.093442 89.058434 -2.276513
12.312862 88.705109 -2.404477
9.763427 88.980224 -6.848349
9.427858 89.185871 -5.240653
10.587564 89.037655 -5.380353
9.763427 88.980224 -6.848349
10.056461 88.742905 -8.43447
9.553671 88.292114 -11.362911
10.449987 88.420014 -9.946468
10.813871 88.058327 -11.428488
9.553671 88.292114 -11.362911
8.733307 87.950913 -12.769027
26.683029 76.112862 12.390225
27.174829 75.100167 13.804156
27.829186 75.351669 12.43777
22.118757 79.534943 12.465013
22.676118 78.436275 13.902901
23.223348 78.637981 12.370954
20.97233 80.448231 12.54247
22.118757 79.534943 12.465013
21.51956 80.649937 11.010523
19.872979 81.357902 12.695067
20.97233 80.448231 12.54247
19.22793 82.456474 11.223506
19.872979 81.357902 12.695067
18.578 83.451195 9.731871
19.22793 82.456474 11.223506
19.723203 82.557946 9.596345
17.88254 84.404194 8.227104
18.578 83.451195 9.731871
17.170807 85.267014 6.711593
17.88254 84.404194 8.227104
18.36154 84.415486 6.589199
16.421394 86.0579 5.188816
17.170807 85.267014 6.711593
15.645423 86.774334 3.663757
16.421394 86.0579 5.188816
16.873836 85.99474 3.548629
14.847565 87.384297 2.137815
15.645423 86.774334 3.663757
15.26541 87.262032 0.502615
14.015109 87.935154 0.616861
14.847565 87.384297 2.137815
24.742606 82.099072 -4.73558
25.443962 81.554157 -3.264995
23.198059 82.937191 -4.98037
24.742606 82.099072 -4.73558
23.966418 82.641152 -6.214724
20.585901 84.182773 -11.915468
19.823089 84.64405 -10.769858
21.490774 83.889927 -10.505722
19.675591 84.375709 -13.2609
20.585901 84.182773 -11.915468
9.94766 89.319778 -2.088224
9.178025 89.292766 -3.572623
3 0 13 11
3 45 15 46
3 1 18 16
3 1 20 18
3 1 22 20
3 48 47 23
3 49 26 50
3 52 51 26
3 4 29 28
3 6 30 12
3 6 53 55
3 55 54 30
3 53 54 55
3 2 31 24
3 56 32 57
3 58 57 14
3 56 57 58
3 60 59 32
3 7 61 62
3 7 63 64
3 3 33 25
3 8 34 17
3 8 35 34
3 8 36 35
3 9 37 19
3 9 38 37
3 9 39 38
3 10 40 21
3 10 41 40
3 65 42 66
3 67 66 27
3 65 66 67
3 68 43 69
3 70 44 71
3 72 71 43
3 70 71 72
3 74 73 44
3 5 75 76
3 11 12 4
3 13 12 11
3 13 6 12
3 77 14 78
3 79 78 2
3 77 78 79
3 80 14 81
3 83 82 14
3 15 84 86
3 84 85 86
3 15 87 89
3 87 7 88
3 87 88 89
3 16 17 3
3 18 17 16
3 18 8 17
3 18 19 8
3 20 19 18
3 20 9 19
3 20 21 9
3 22 21 20
3 22 10 21
3 91 90 5
3 23 24 0
3 92 24 93
3 94 93 23
3 92 93 94
3 95 2 96
3 97 96 24
3 95 96 97
3 98 2 99
3 101 100 2
3 102 25 103
3 102 103 104
3 105 25 106
3 107 3 108
3 109 108 25
3 107 108 109
3 110 3 111
3 112 16 113
3 114 113 3
3 112 113 114
3 26 115 117
3 115 16 116
3 115 116 117
3 26 1 16
3 26 27 1
3 118 27 119
3 120 119 26
3 118 119 120
3 122 121 27
3 28 123 124
3 29 125 127
3 127 126 28
3 125 126 127
3 29 128 130
3 128 5 129
3 128 129 130
3 12 29 4
3 30 29 12
3 30 5 29
3 30 131 133
3 133 132 5
3 131 132 133
3 135 134 30
3 24 13 0
3 31 13 24
3 31 6 13
3 14 31 2
3 32 31 14
3 32 6 31
3 32 136 138
3 138 137 6
3 136 137 138
3 140 139 32
3 25 141 143
3 141 15 142
3 141 142 143
3 33 15 25
3 33 7 15
3 17 33 3
3 34 33 17
3 34 7 33
3 34 144 146
3 146 145 7
3 144 145 146
3 35 147 149
3 149 148 34
3 147 148 149
3 35 150 151
3 35 152 153
3 36 154 156
3 156 155 35
3 154 155 156
3 36 157 158
3 19 36 8
3 37 36 19
3 37 159 161
3 161 160 36
3 159 160 161
3 37 162 163
3 38 164 166
3 166 165 37
3 164 165 166
3 38 167 168
3 38 169 171
3 169 28 170
3 169 170 171
3 39 28 38
3 39 4 28
3 21 39 9
3 40 39 21
3 40 4 39
3 40 11 4
3 41 11 40
3 41 0 11
3 27 22 1
3 42 22 27
3 42 10 22
3 172 42 173
3 43 174 176
3 174 42 175
3 174 175 176
3 43 10 42
3 43 41 10
3 44 41 43
3 44 0 41
3 44 23 0
3 177 23 178
3 179 178 44
3 177 178 179
3 181 180 23
3 183 182 5
