ply
format ascii 1.0
element vertex 262
property float x
property float y
property float z
element face 258
property list uchar int vertex_index
end_header
-54.744564 -1.248976 45.047081
-59.216125 2.721642 36.364483
-50.780731 -10.833717 46.176403
-49.550568 -5.483945 52.846188
-57.028214 0.819054 40.780106
-52.924957 -6.076126 45.334351
-54.205975 -8.437853 42.367496
-55.924675 -3.745888 41.362747
-58.814728 -1.60169 37.260559
-46.792549 -10.458135 52.991856
-64.039337 1.313801 28.678228
-61.319092 4.295185 31.831287
-61.557823 0.139931 33.037682
-52.274174 -3.378356 49.077675
-53.223793 1.502495 48.769699
-51.24387 -0.37328 52.71106
-49.187042 2.793705 55.669102
-49.842064 -8.366648 49.18071
-55.902966 -0.201895 42.937271
-56.022614 2.005209 42.617958
-55.068108 1.052635 44.813736
-53.97514 -3.640663 45.183586
-54.437767 -4.902213 43.36594
-55.325157 -2.51795 43.151752
-56.640732 -1.421303 41.075882
-63.78978 3.387974 27.91954
-60.281834 3.561539 34.113617
-58.804241 4.707403 35.812538
-59.18639 0.607683 36.819111
-60.209549 -0.668434 35.16481
-60.415108 1.494255 34.645042
-61.60379 2.26486 32.438972
-50.943008 -4.439528 50.98996
-51.861389 -1.909058 50.955997
-50.617195 -2.927988 52.821705
-49.210823 0.18136 55.973801
-48.207428 -8.006631 52.869305
-48.300339 -9.441444 51.081802
-49.688637 -6.965951 50.994621
-51.15403 -5.882976 49.099735
-52.163975 3.022606 50.467167
-58.130955 1.799816 38.586971
-57.880322 3.845922 38.107449
-56.955261 2.939289 40.377987
-51.794296 -8.495593 45.625534
-52.487572 -9.645172 44.275047
-53.428326 -7.298999 43.701309
-55.052879 -6.104112 41.755814
-56.659813 -4.94678 39.785744
-58.241737 -3.862108 37.789936
-57.384453 -2.636307 39.326767
-57.927162 -0.371967 38.963219
-48.115559 -6.503839 54.670227
-49.280159 -3.953063 54.611965
-62.312008 4.901533 29.513496
-59.789215 -2.881865 35.767143
-61.288704 -2.032871 33.714798
-62.721222 -1.335621 31.62945
-62.842365 0.804529 30.876072
-62.736298 2.900118 30.197577
-53.539219 -2.311209 47.096825
-54.071293 0.083364 46.946617
-53.009109 -0.903896 48.997978
-52.292534 0.586546 50.801571
-51.33868 2.15366 52.454903
-50.063873 -1.375813 54.501621
-50.35907 1.205557 54.287788
-50.138901 3.775919 53.940609
-46.993305 -11.81672 51.367409
-48.553726 -10.77205 49.445007
-50.163033 -9.661339 47.536022
-51.389824 -7.239191 47.269859
-52.58522 -4.768884 47.165985
-54.064476 2.382086 46.629211
-64.26249 3.55751 26.764347
-63.514044 4.377799 27.539318
-51.277476 -11.355805 45.677263
-50.412068 -11.930888 46.62686
-51.828707 4.208924 50.197918
-51.530405 3.831593 51.245121
-55.812562 3.044824 42.370098
-55.434807 2.62186 43.511207
-47.993074 -5.740246 55.513941
-47.392387 -7.001014 55.58126
-47.392387 -7.001014 55.58126
-47.427577 -7.753481 54.708858
-64.658264 0.438974 28.016151
-64.050377 0.255632 29.093461
-60.976763 5.244722 31.487112
-61.473221 5.547897 30.328216
-61.81555 4.598359 30.672391
-57.501921 4.800169 37.78676
-57.118136 4.385581 38.956164
-53.872244 -9.563016 42.826868
-53.013042 -10.166675 43.780643
-53.346773 -9.041512 43.321272
-49.410356 -1.894198 55.349043
-49.672016 -2.664438 54.556793
-49.018499 -3.182824 55.404215
-48.951978 4.106451 55.470255
-49.427908 4.597558 54.606009
-49.662971 3.284812 54.804856
-46.892927 -11.137428 52.179632
-46.25363 -12.308454 52.341949
-46.153251 -11.629162 53.154173
-54.957554 2.145573 44.609096
-55.434807 2.62186 43.511207
-55.545361 1.528922 43.715847
-64.453995 2.52714 27.183324
-64.578774 1.490054 27.562667
-63.914558 2.350887 28.298884
-64.453995 2.52714 27.183324
-64.26249 3.55751 26.764347
-60.003603 4.530321 33.803116
-60.522232 4.897144 32.661951
-60.800463 3.928362 32.972452
-59.264806 5.103254 34.652577
-60.003603 4.530321 33.803116
-59.543037 4.134471 34.963077
-58.358133 5.630285 35.461349
-59.264806 5.103254 34.652577
-54.761149 -8.967317 41.87989
-55.063662 -7.844451 41.406908
-48.556235 -0.362119 56.759203
-48.983831 -1.115612 56.085133
-48.62052 0.942519 56.598518
-48.556235 -0.362119 56.759203
-48.608629 2.248692 56.446169
-49.198932 1.487533 55.821452
-48.62052 0.942519 56.598518
-48.465134 3.573266 56.269848
-48.608629 2.248692 56.446169
-52.515179 3.422734 49.402884
-53.045088 2.662678 48.55415
-52.693884 2.262551 49.618433
-52.515179 3.422734 49.402884
-51.828707 4.208924 50.197918
-56.655605 3.932264 40.091432
-57.118136 4.385581 38.956164
-57.417791 3.392606 39.242718
-56.278885 3.511864 41.250113
-56.488937 2.472249 41.497973
-55.812562 3.044824 42.370098
-56.655605 3.932264 40.091432
-56.278885 3.511864 41.250113
-55.487114 -6.67758 41.101067
-55.063662 -7.844451 41.406908
-54.629427 -7.270983 42.061655
-56.290581 -6.098914 40.116032
-55.487114 -6.67758 41.101067
-55.856346 -5.525446 40.770779
-57.140557 -5.536373 39.146168
-56.290581 -6.098914 40.116032
-57.450775 -4.404444 38.78784
-57.931518 -4.994037 38.148264
-57.140557 -5.536373 39.146168
-48.575374 -4.464859 55.48481
-48.697859 -5.228451 54.641096
-47.993074 -5.740246 55.513941
-49.018499 -3.182824 55.404215
-48.575374 -4.464859 55.48481
-46.072388 -10.941508 53.959936
-46.153251 -11.629162 53.154173
-46.766071 -9.730628 53.869673
-46.072388 -10.941508 53.959936
-47.473511 -8.504876 53.808397
-47.499989 -9.232383 52.93058
-46.766071 -9.730628 53.869673
-48.161493 -7.255235 53.769766
-47.473511 -8.504876 53.808397
-47.427577 -7.753481 54.708858
-64.658264 0.438974 28.016151
-64.578774 1.490054 27.562667
-61.913639 5.835807 29.135976
-62.775158 5.134578 28.336296
-61.913639 5.835807 29.135976
-61.473221 5.547897 30.328216
-60.976763 5.244722 31.487112
-60.522232 4.897144 32.661951
-57.963881 5.23091 36.639305
-58.342281 4.276663 36.959994
-57.501921 4.800169 37.78676
-58.358133 5.630285 35.461349
-57.963881 5.23091 36.639305
-52.130896 -10.761533 44.726585
-51.277476 -11.355805 45.677263
-51.634152 -10.239445 45.225725
-52.130896 -10.761533 44.726585
-53.013042 -10.166675 43.780643
-53.872244 -9.563016 42.826868
-54.761149 -8.967317 41.87989
-58.767201 -4.481568 37.167173
-57.931518 -4.994037 38.148264
-59.54094 -3.991446 36.155777
-58.767201 -4.481568 37.167173
-59.015476 -3.371987 36.778539
-60.354171 -3.545318 35.161426
-59.54094 -3.991446 36.155777
-61.103916 -3.120821 34.135254
-60.354171 -3.545318 35.161426
-60.53896 -2.457368 34.740971
-61.8841 -2.7534 33.125489
-61.103916 -3.120821 34.135254
-62.600359 -2.404775 32.082814
-61.8841 -2.7534 33.125489
-62.004963 -1.684246 32.672124
-63.3339 -2.123769 31.055991
-62.600359 -2.404775 32.082814
-63.39132 -1.069079 30.569072
-63.3339 -2.123769 31.055991
-63.451891 0.000996 30.192383
-63.39132 -1.069079 30.569072
-62.781793 -0.265546 31.252761
-63.440851 1.059165 29.77715
-64.050377 0.255632 29.093461
-63.451891 0.000996 30.192383
-62.775158 5.134578 28.336296
-63.514044 4.377799 27.539318
-63.050894 4.144754 28.716518
-51.117757 3.397119 52.238989
-51.530405 3.831593 51.245121
-51.751328 2.588133 51.461035
-49.637348 -0.597226 55.237711
-49.410356 -1.894198 55.349043
-48.983831 -1.115612 56.085133
-50.517868 4.208249 52.981842
-51.117757 3.397119 52.238989
-50.73879 2.96479 53.197756
-49.798576 5.054813 53.694847
-50.517868 4.208249 52.981842
-49.798576 5.054813 53.694847
-49.427908 4.597558 54.606009
-48.951978 4.106451 55.470255
-48.465134 3.573266 56.269848
-49.942917 -11.402905 47.129198
-50.412068 -11.930888 46.62686
-46.474954 -12.931005 51.659933
-45.735279 -13.422739 52.634473
-46.25363 -12.308454 52.341949
-47.240029 -12.429692 50.685658
-46.474954 -12.931005 51.659933
-48.020239 -11.907357 49.724457
-47.240029 -12.429692 50.685658
-47.773516 -11.294385 50.406208
-48.829414 -11.372072 48.7635
-48.020239 -11.907357 49.724457
-49.634068 -10.816717 47.809007
-48.829414 -11.372072 48.7635
-49.358379 -10.216694 48.490515
-50.471882 -10.247528 46.856212
-49.942917 -11.402905 47.129198
-49.634068 -10.816717 47.809007
-54.455738 2.810298 45.516834
-54.957554 2.145573 44.609096
-54.566292 1.717361 45.721474
-53.465429 3.102474 47.483905
-53.644134 1.94229 47.699455
-53.045088 2.662678 48.55415
-53.775516 3.479202 46.363765
-53.465429 3.102474 47.483905
-54.455738 2.810298 45.516834
-53.775516 3.479202 46.363765
3 0 20 18
3 0 23 21
3 0 18 23
3 75 74 25
3 1 27 26
3 2 76 77
3 1 30 28
3 1 26 30
3 3 34 32
3 3 38 36
3 3 32 38
3 79 78 40
3 4 43 41
3 81 80 19
3 5 46 44
3 7 47 22
3 7 48 47
3 7 50 48
3 4 51 24
3 4 41 51
3 83 82 52
3 84 52 85
3 10 86 87
3 11 88 90
3 90 89 54
3 88 89 90
3 92 91 42
3 6 93 95
3 95 94 45
3 93 94 95
3 8 55 49
3 12 56 29
3 12 57 56
3 12 58 57
3 11 59 31
3 11 54 59
3 13 62 60
3 15 63 33
3 15 64 63
3 96 65 97
3 98 97 53
3 96 97 98
3 16 66 35
3 16 67 66
3 16 99 101
3 101 100 67
3 99 100 101
3 9 102 104
3 102 68 103
3 102 103 104
3 17 69 37
3 17 70 69
3 17 71 70
3 13 72 39
3 13 60 72
3 14 73 61
3 18 19 4
3 20 19 18
3 20 105 107
3 107 106 19
3 105 106 107
3 21 22 5
3 23 22 21
3 23 7 22
3 23 24 7
3 18 24 23
3 18 4 24
3 25 108 110
3 110 109 10
3 108 109 110
3 112 111 25
3 26 113 115
3 115 114 11
3 113 114 115
3 27 116 118
3 118 117 26
3 116 117 118
3 27 119 120
3 122 121 6
3 28 29 8
3 30 29 28
3 30 12 29
3 30 31 12
3 26 31 30
3 26 11 31
3 32 33 13
3 34 33 32
3 34 15 33
3 123 35 124
3 125 35 126
3 127 16 128
3 129 128 35
3 127 128 129
3 131 130 16
3 36 37 9
3 38 37 36
3 38 17 37
3 38 39 17
3 32 39 38
3 32 13 39
3 40 132 134
3 134 133 14
3 132 133 134
3 136 135 40
3 41 42 1
3 43 42 41
3 43 137 139
3 139 138 42
3 137 138 139
3 19 43 4
3 140 43 141
3 142 141 19
3 140 141 142
3 144 143 43
3 44 45 2
3 46 45 44
3 46 6 45
3 22 46 5
3 47 46 22
3 47 6 46
3 47 145 147
3 147 146 6
3 145 146 147
3 48 148 150
3 150 149 47
3 148 149 150
3 48 151 152
3 48 153 155
3 153 49 154
3 153 154 155
3 50 49 48
3 50 8 49
3 24 50 7
3 51 50 24
3 51 8 50
3 51 28 8
3 41 28 51
3 41 1 28
3 52 53 3
3 156 53 157
3 158 157 52
3 156 157 158
3 160 159 53
3 161 9 162
3 163 9 164
3 165 36 166
3 167 166 9
3 165 166 167
3 52 168 170
3 168 36 169
3 168 169 170
3 52 3 36
3 172 171 10
3 54 173 174
3 176 175 54
3 178 177 11
3 42 27 1
3 179 27 180
3 181 180 42
3 179 180 181
3 183 182 27
3 45 184 186
3 186 185 2
3 184 185 186
3 188 187 45
3 190 189 6
3 49 191 192
3 55 193 195
3 195 194 49
3 193 194 195
3 55 196 197
3 29 55 8
3 56 55 29
3 56 198 200
3 200 199 55
3 198 199 200
3 56 201 202
3 57 203 205
3 205 204 56
3 203 204 205
3 57 206 207
3 57 208 209
3 58 210 212
3 212 211 57
3 210 211 212
3 58 213 215
3 213 10 214
3 213 214 215
3 31 58 12
3 59 58 31
3 59 10 58
3 59 25 10
3 54 25 59
3 54 216 218
3 218 217 25
3 216 217 218
3 60 61 0
3 62 61 60
3 62 14 61
3 33 62 13
3 63 62 33
3 63 14 62
3 63 40 14
3 64 40 63
3 64 219 221
3 221 220 40
3 219 220 221
3 53 34 3
3 65 34 53
3 65 15 34
3 35 222 224
3 222 65 223
3 222 223 224
3 66 65 35
3 66 15 65
3 66 64 15
3 67 64 66
3 67 225 227
3 227 226 64
3 225 226 227
3 67 228 229
3 231 230 67
3 233 232 16
3 234 2 235
3 68 236 238
3 236 237 238
3 68 239 240
3 37 68 9
3 69 68 37
3 69 241 243
3 243 242 68
3 241 242 243
3 69 244 245
3 70 246 248
3 248 247 69
3 246 247 248
3 70 249 251
3 249 2 250
3 249 250 251
3 70 44 2
3 71 44 70
3 71 5 44
3 39 71 17
3 72 71 39
3 72 5 71
3 72 21 5
3 60 21 72
3 60 0 21
3 61 20 0
3 73 20 61
3 73 252 254
3 254 253 20
3 252 253 254
3 255 73 256
3 257 256 14
3 255 256 257
3 258 73 259
3 261 260 73
