ply
format ascii 1.0
element vertex 272
property float x
property float y
property float z
element face 283
property list uchar int vertex_index
end_header
-68.003006 -27.671547 32.635239
-66.604118 -35.499146 39.126747
-66.352745 -37.944107 32.335854
-68.606339 -19.486288 27.058084
-64.855545 -26.093304 39.93103
-67.464378 -17.80257 34.944469
-67.461227 -31.657665 35.746399
-67.41066 -36.667393 35.842896
-67.554977 -32.827187 32.23822
-62.979744 -30.138847 42.021713
-65.352646 -39.297501 42.536667
-66.874435 -40.42485 39.553192
-66.612068 -41.755554 36.013878
-68.35347 -23.570541 29.819033
-67.400574 -28.837246 29.082268
-64.210228 -34.619717 41.876534
-65.757217 -30.715813 39.051846
-66.987862 -26.686222 36.331604
-66.360672 -21.935173 37.638931
-67.961021 -22.543808 33.664902
-68.705017 -18.442923 30.858631
-69.190056 -14.524161 27.726099
-67.764069 -29.68429 34.148975
-67.734833 -32.226421 33.997829
-67.861252 -30.256207 32.352554
-66.029587 -37.394291 40.847446
-66.326859 -39.822861 41.136906
-66.832855 -37.939384 39.352257
-67.116035 -37.305183 34.093006
-67.091133 -39.198898 35.971069
-66.524521 -39.858906 34.179314
-65.832962 -42.420734 34.152
-65.528191 -40.501293 32.379028
-68.489502 -21.517826 28.453156
-67.953323 -24.149708 28.03512
-67.948891 -22.091818 26.710823
-63.312084 -36.561058 43.299526
-62.587154 -34.313591 43.030735
-63.961723 -28.132851 40.988983
-64.46447 -30.37859 40.57402
-65.284546 -28.373444 39.360809
-66.4086 -28.720032 37.677895
-66.025475 -26.331915 38.148361
-66.48822 -17.726614 37.021042
-65.944885 -19.775089 38.400658
-66.964478 -19.853266 36.352028
-67.2789 -22.17202 35.648624
-67.791489 -20.094149 34.311054
-68.36245 -20.476494 32.293846
-68.223778 -18.050871 32.882969
-67.078735 -33.592556 37.414574
-67.231995 -36.056747 37.536575
-67.529617 -34.157257 35.737156
-67.52771 -34.763847 34.00132
-67.049644 -35.386841 32.256302
-68.700577 -17.48287 25.597168
-67.945175 -20.044811 25.364159
-61.917389 -32.119774 43.047028
-62.511883 -27.996307 42.584747
-63.547188 -25.972803 41.691284
-67.194969 -38.549446 37.711731
-66.96917 -41.079277 37.829124
-68.194611 -25.628204 31.200016
-67.926605 -28.246832 30.818127
-67.950882 -26.206625 29.388714
-64.833755 -36.932243 42.166267
-65.574936 -35.015862 40.578316
-63.564243 -32.353573 41.797405
-65.025848 -32.677773 40.454449
-66.222534 -33.09354 38.994064
-66.780746 -31.146793 37.440361
-67.259109 -29.163479 35.935448
-67.670273 -27.141178 34.486046
-64.470268 -23.919798 40.715919
-65.271538 -21.847424 39.627556
-65.656441 -24.022743 38.823429
-66.689796 -24.259285 36.918926
-67.50338 -24.62162 35.001228
-68.027161 -25.088297 33.084858
-68.339882 -23.022305 31.710041
-68.613861 -20.965225 30.328539
-68.848999 -18.937189 28.903744
-68.571259 -16.06085 31.35117
-68.983116 -16.458435 29.337765
-69.040298 -16.949507 27.406084
-69.179054 -14.999201 25.823296
-67.506157 -30.851418 30.592617
-61.687276 -34.202877 43.551911
-62.065012 -35.296097 43.646925
-68.320614 -17.747032 24.775165
-68.731469 -16.49177 24.825115
-62.336761 -26.978673 43.018753
-61.755392 -27.974825 43.383117
-62.854414 -25.966921 42.572022
-63.029535 -26.984555 42.138016
-62.336761 -26.978673 43.018753
-65.532146 -40.510807 42.690426
-64.964371 -40.261997 43.344641
-66.658798 -41.366687 40.434406
-66.38501 -41.065693 41.226263
-66.600647 -40.123856 40.345049
-66.808395 -41.69144 39.581513
-66.658798 -41.366687 40.434406
-66.60947 -42.698667 36.895321
-66.788021 -42.360529 37.802944
-66.790619 -41.417415 36.921501
-66.336986 -43.039516 35.938524
-66.60947 -42.698667 36.895321
-65.496353 -43.692813 34.028358
-65.261375 -42.73169 33.213752
-67.60746 -25.470695 27.866418
-67.53321 -24.437817 27.218961
-67.459934 -21.34823 25.253664
-67.401314 -20.310469 24.612623
-64.270001 -22.913127 41.167171
-63.830429 -23.931779 41.662944
-68.360786 -14.963447 31.557895
-68.215065 -15.932382 32.381129
-69.086586 -15.491298 28.531932
-68.90694 -15.293847 29.528424
-69.010411 -14.32671 28.722592
-65.10899 -41.771969 32.327267
-65.261375 -42.73169 33.213752
-65.680577 -41.461013 33.265514
-67.530994 -23.408872 26.556812
-67.53321 -24.437817 27.218961
-67.951107 -23.120763 27.372971
-62.427477 -36.419831 43.78132
-62.826271 -37.541611 43.997835
-62.949619 -35.437325 43.165131
-62.427477 -36.419831 43.78132
-62.065012 -35.296097 43.646925
-66.216553 -18.750852 37.71085
-65.648949 -18.804402 38.750943
-65.920616 -17.780164 38.061135
-69.095974 -13.384008 27.868265
-69.010411 -14.32671 28.722592
-69.254776 -13.574129 26.883062
-69.095974 -13.384008 27.868265
-67.04031 -30.141529 29.00044
-66.905983 -29.128107 28.278371
-67.942913 -19.028002 24.658661
-68.322876 -18.763841 25.480663
-68.320614 -17.747032 24.775165
-67.401314 -20.310469 24.612623
-67.942913 -19.028002 24.658661
-61.040047 -32.044266 43.645825
-61.352394 -33.105969 43.560057
-61.647557 -31.055532 43.237167
-61.040047 -32.044266 43.645825
-60.770214 -30.980024 43.835964
-62.178734 -30.065069 42.72451
-62.448566 -31.12931 42.53437
-61.647557 -31.055532 43.237167
-61.944803 -28.993799 43.006027
-61.755392 -27.974825 43.383117
-62.745813 -29.067577 42.30323
-62.178734 -30.065069 42.72451
-61.944803 -28.993799 43.006027
-66.127442 -16.781876 37.297741
-65.920616 -17.780164 38.061135
-66.696537 -16.724922 36.256046
-66.127442 -16.781876 37.297741
-67.184616 -16.7629 35.21776
-66.976299 -17.764592 35.982755
-66.696537 -16.724922 36.256046
-67.661624 -16.803242 34.177778
-67.184616 -16.7629 35.21776
-66.019253 -40.773487 41.990546
-65.532146 -40.510807 42.690426
-65.839753 -39.560181 41.836787
-66.019253 -40.773487 41.990546
-66.38501 -41.065693 41.226263
-66.855762 -42.018654 38.719479
-66.808395 -41.69144 39.581513
-66.921803 -40.752063 38.691158
-66.855762 -42.018654 38.719479
-66.788021 -42.360529 37.802944
-65.947433 -43.372107 35.007586
-66.336986 -43.039516 35.938524
-66.222515 -42.088144 35.082939
-65.947433 -43.372107 35.007586
-65.496353 -43.692813 34.028358
-67.606239 -26.499153 28.543215
-67.952102 -25.178166 28.711917
-67.60746 -25.470695 27.866418
-67.331086 -27.814464 28.389992
-67.675728 -27.521935 29.235491
-67.606239 -26.499153 28.543215
-66.905983 -29.128107 28.278371
-67.331086 -27.814464 28.389992
-67.461792 -22.371733 25.926996
-67.947033 -21.068314 26.037491
-67.459934 -21.34823 25.253664
-67.530994 -23.408872 26.556812
-67.461792 -22.371733 25.926996
-64.677009 -39.080235 43.130646
-64.964371 -40.261997 43.344641
-63.656728 -37.712013 43.512076
-62.826271 -37.541611 43.997835
-64.417564 -37.897605 42.945446
-63.656728 -37.712013 43.512076
-64.072919 -36.746651 42.732896
-65.0932 -38.114872 42.351467
-64.677009 -39.080235 43.130646
-64.417564 -37.897605 42.945446
-62.252271 -33.216683 43.038882
-61.687276 -34.202877 43.551911
-61.352394 -33.105969 43.560057
-63.368889 -24.958281 42.150627
-62.854414 -25.966921 42.572022
-64.008728 -24.9463 41.203602
-63.368889 -24.958281 42.150627
-63.830429 -23.931779 41.662944
-65.367722 -19.819161 39.426512
-65.071785 -18.848474 39.776797
-65.648949 -18.804402 38.750943
-65.031048 -20.855329 40.039961
-65.367722 -19.819161 39.426512
-65.608212 -20.811256 39.014107
-64.670636 -21.87694 40.62299
-65.031048 -20.855329 40.039961
-64.870903 -22.883611 40.171737
-64.270001 -22.913127 41.167171
-64.670636 -21.87694 40.62299
-68.041325 -16.927393 33.147028
-67.844078 -17.926721 33.913719
-67.661624 -16.803242 34.177778
-68.397518 -17.055861 32.117069
-68.041325 -16.927393 33.147028
-68.215065 -15.932382 32.381129
-68.701012 -15.095054 30.535127
-68.360786 -14.963447 31.557895
-68.777187 -16.259642 30.344468
-68.701012 -15.095054 30.535127
-68.90694 -15.293847 29.528424
-68.970707 -15.249935 24.938179
-68.731469 -16.49177 24.825115
-68.939815 -16.241035 25.710232
-69.249275 -13.811649 25.93166
-69.184555 -14.761681 26.774698
-69.254776 -13.574129 26.883062
-69.216633 -14.033154 24.994887
-69.249275 -13.811649 25.93166
-69.286854 -12.845601 25.103251
-68.970707 -15.249935 24.938179
-69.216633 -14.033154 24.994887
-67.093102 -31.148615 29.755615
-67.453366 -29.844332 29.837443
-67.04031 -30.141529 29.00044
-67.202965 -32.143318 30.55518
-67.093102 -31.148615 29.755615
-67.227375 -33.131203 31.377981
-67.530567 -31.839303 31.415419
-67.202965 -32.143318 30.55518
-66.974708 -34.41103 31.387022
-67.302311 -34.107014 32.247261
-67.227375 -33.131203 31.377981
-66.575615 -35.695202 31.403261
-66.974708 -34.41103 31.387022
-66.227165 -36.973835 31.443037
-66.701194 -36.665474 32.296078
-66.575615 -35.695202 31.403261
-65.754574 -38.252796 31.473719
-66.227165 -36.973835 31.443037
-65.342297 -39.531389 31.495306
-65.940468 -39.2227 32.357441
-65.754574 -38.252796 31.473719
-64.846226 -40.801108 31.488685
-65.342297 -39.531389 31.495306
-65.10899 -41.771969 32.327267
-64.846226 -40.801108 31.488685
3 0 24 22
3 1 27 25
3 2 30 28
3 2 32 30
3 3 35 33
3 87 37 88
3 4 40 38
3 4 42 40
3 5 45 43
3 5 47 45
3 5 49 47
3 6 52 50
3 8 53 23
3 8 54 53
3 90 89 55
3 91 58 92
3 93 59 94
3 95 94 58
3 93 94 95
3 10 96 97
3 11 98 100
3 100 99 26
3 98 99 100
3 11 101 102
3 7 60 51
3 12 61 29
3 12 103 105
3 105 104 61
3 103 104 105
3 12 106 107
3 109 108 31
3 13 64 62
3 111 110 34
3 113 112 56
3 15 65 36
3 15 66 65
3 9 67 57
3 16 68 39
3 16 69 68
3 16 70 69
3 17 71 41
3 17 72 71
3 114 73 115
3 18 74 44
3 18 75 74
3 18 76 75
3 19 77 46
3 19 78 77
3 19 79 78
3 20 80 48
3 20 81 80
3 116 82 117
3 21 118 120
3 118 83 119
3 118 119 120
3 21 84 83
3 21 85 84
3 14 86 63
3 22 23 6
3 24 23 22
3 24 8 23
3 25 26 10
3 27 26 25
3 27 11 26
3 28 29 7
3 30 29 28
3 30 12 29
3 30 31 12
3 32 31 30
3 32 121 123
3 123 122 31
3 121 122 123
3 33 34 13
3 35 34 33
3 35 124 126
3 126 125 34
3 124 125 126
3 127 36 128
3 37 129 131
3 129 36 130
3 129 130 131
3 37 15 36
3 38 39 9
3 40 39 38
3 40 16 39
3 40 41 16
3 42 41 40
3 42 17 41
3 43 132 134
3 132 44 133
3 132 133 134
3 45 44 43
3 45 18 44
3 45 46 18
3 47 46 45
3 47 19 46
3 47 48 19
3 49 48 47
3 49 20 48
3 135 21 136
3 138 137 21
3 140 139 14
3 50 51 1
3 52 51 50
3 52 7 51
3 23 52 6
3 53 52 23
3 53 7 52
3 53 28 7
3 54 28 53
3 54 2 28
3 55 56 3
3 141 56 142
3 143 142 55
3 141 142 143
3 145 144 56
3 146 57 147
3 148 57 149
3 148 149 150
3 151 9 152
3 153 152 57
3 151 152 153
3 58 154 155
3 58 156 158
3 156 9 157
3 156 157 158
3 58 38 9
3 59 38 58
3 59 4 38
3 159 43 160
3 161 43 162
3 163 5 164
3 165 164 43
3 163 164 165
3 167 166 5
3 26 168 170
3 170 169 10
3 168 169 170
3 172 171 26
3 51 27 1
3 60 27 51
3 60 11 27
3 29 60 7
3 61 60 29
3 61 11 60
3 61 173 175
3 175 174 11
3 173 174 175
3 177 176 61
3 31 178 180
3 180 179 12
3 178 179 180
3 182 181 31
3 62 63 0
3 64 63 62
3 64 14 63
3 34 64 13
3 183 64 184
3 185 184 34
3 183 184 185
3 186 14 187
3 188 187 64
3 186 187 188
3 190 189 14
3 56 35 3
3 191 35 192
3 193 192 56
3 191 192 193
3 195 194 35
3 196 10 197
3 36 198 199
3 65 200 202
3 202 201 36
3 200 201 202
3 65 203 205
3 203 10 204
3 203 204 205
3 65 25 10
3 66 25 65
3 66 1 25
3 57 206 208
3 206 37 207
3 206 207 208
3 67 37 57
3 67 15 37
3 39 67 9
3 68 67 39
3 68 15 67
3 68 66 15
3 69 66 68
3 69 1 66
3 69 50 1
3 70 50 69
3 70 6 50
3 41 70 16
3 71 70 41
3 71 6 70
3 71 22 6
3 72 22 71
3 72 0 22
3 209 59 210
3 73 211 213
3 211 59 212
3 211 212 213
3 73 4 59
3 44 214 216
3 214 215 216
3 74 217 219
3 219 218 44
3 217 218 219
3 74 220 221
3 74 222 224
3 222 73 223
3 222 223 224
3 75 73 74
3 75 4 73
3 75 42 4
3 76 42 75
3 76 17 42
3 46 76 18
3 77 76 46
3 77 17 76
3 77 72 17
3 78 72 77
3 78 0 72
3 78 62 0
3 79 62 78
3 79 13 62
3 48 79 19
3 80 79 48
3 80 13 79
3 80 33 13
3 81 33 80
3 81 3 33
3 225 49 226
3 227 226 5
3 225 226 227
3 82 228 230
3 228 49 229
3 228 229 230
3 82 20 49
3 231 82 232
3 83 233 235
3 233 82 234
3 233 234 235
3 83 20 82
3 83 81 20
3 84 81 83
3 84 3 81
3 84 55 3
3 85 55 84
3 85 236 238
3 238 237 55
3 236 237 238
3 239 85 240
3 241 240 21
3 239 240 241
3 242 85 243
3 242 243 244
3 246 245 85
3 63 24 0
3 86 24 63
3 86 8 24
3 247 86 248
3 249 248 14
3 247 248 249
3 250 86 251
3 252 8 253
3 254 253 86
3 252 253 254
3 255 54 256
3 257 256 8
3 255 256 257
3 258 54 259
3 260 2 261
3 262 261 54
3 260 261 262
3 263 2 264
3 265 32 266
3 267 266 2
3 265 266 267
3 268 32 269
3 271 270 32
