ply
format ascii 1.0
element vertex 190
property float x
property float y
property float z
element face 184
property list uchar int vertex_index
end_header
46.569439 -28.34927 10.645838
50.03035 -22.791098 19.90122
47.663784 -31.927483 17.362925
51.089848 -27.731915 21.274376
47.493118 -28.084768 19.563187
49.899406 -32.307278 20.288174
43.283768 -26.770521 14.591257
46.146851 -22.971796 18.906128
44.799057 -27.784782 17.380707
46.52964 -30.572464 14.119224
51.656757 -35.140442 17.564596
50.960258 -33.52092 13.706636
51.261585 -30.827135 9.94408
44.635418 -26.863194 10.970401
46.987526 -26.996532 8.848829
49.255531 -28.135283 8.499973
50.157524 -30.184748 21.006313
51.359657 -32.17395 21.63221
42.838333 -25.007126 16.145405
47.996582 -22.932144 19.464258
47.190487 -30.248381 18.685408
46.012825 -28.025188 18.543653
46.077995 -29.975201 17.363522
45.256008 -29.48402 15.923429
46.949196 -31.371445 15.776329
56.321548 -34.444744 11.474128
53.500969 -34.721561 13.615512
53.599297 -33.428284 11.592176
50.990356 -32.294369 11.803787
53.908958 -31.877621 9.647736
50.460579 -25.358465 20.573868
48.483795 -25.557131 19.965101
49.200356 -27.978306 20.462107
48.562782 -30.310841 19.894356
48.656364 -32.234833 18.867754
43.002125 -26.031092 12.974881
44.541275 -27.900448 12.71567
46.690899 -25.634172 19.251799
45.127396 -25.57148 18.394096
43.833019 -25.361271 17.363804
43.883106 -27.362516 16.063063
44.743221 -28.78442 14.370593
46.407455 -29.553778 12.405173
51.492287 -34.079319 20.768745
50.394009 -33.987888 19.124863
49.535301 -33.64463 17.421097
51.182426 -34.474773 15.63486
48.938202 -33.030384 15.668342
48.616501 -32.145935 13.884108
48.572323 -31.011305 12.086658
48.793945 -29.660686 10.289846
51.750534 -29.161432 8.134933
52.179865 -32.024034 22.274923
51.646282 -31.038778 21.839936
43.004551 -23.860619 16.704034
42.475034 -23.714329 16.136173
49.013466 -22.861621 19.682739
48.888914 -21.487929 19.331844
49.905798 -21.417406 19.550325
55.128389 -33.135754 10.511194
54.960422 -33.936514 11.533152
56.489515 -33.643984 10.45217
55.28322 -32.360422 9.538974
53.754127 -32.652952 10.619956
55.128389 -33.135754 10.511194
55.529612 -31.445793 8.577306
55.28322 -32.360422 9.538974
43.142947 -26.400807 13.783069
42.58147 -25.276683 13.855825
42.722292 -25.646397 14.664013
45.994473 -21.543081 18.688654
46.933979 -21.545621 18.904038
45.33617 -22.935755 18.544531
45.994473 -21.543081 18.688654
52.405941 -34.861295 21.053577
52.147602 -34.016373 21.560372
51.025383 -34.564165 18.344729
51.384121 -34.755064 19.298371
52.015495 -35.331341 18.518237
44.815527 -26.283746 10.058083
43.828732 -26.016737 11.099115
45.991581 -26.350415 8.997297
44.815527 -26.283746 10.058083
45.811472 -26.929863 9.909615
47.304146 -26.263542 7.93272
45.991581 -26.350415 8.997297
48.453163 -26.736365 7.781907
47.304146 -26.263542 7.93272
49.587165 -27.30574 7.607479
48.453163 -26.736365 7.781907
48.121528 -27.565908 8.674401
50.838827 -27.738704 7.435992
49.587165 -27.30574 7.607479
51.045215 -30.044177 21.526987
50.623686 -28.958331 21.140344
51.511378 -28.81776 21.661019
50.75859 -31.179349 21.319261
51.045215 -30.044177 21.526987
51.646282 -31.038778 21.839936
42.499574 -24.7647 15.441088
42.475034 -23.714329 16.136173
43.061051 -25.888824 15.368331
42.722292 -25.646397 14.664013
42.499574 -24.7647 15.441088
47.858845 -21.525795 19.183104
48.888914 -21.487929 19.331844
47.071716 -22.95197 19.185193
46.933979 -21.545621 18.904038
47.858845 -21.525795 19.183104
52.817339 -35.790506 17.683027
52.015495 -35.331341 18.518237
54.911259 -34.583152 12.54482
54.832359 -35.251333 13.619678
56.242649 -35.112924 12.548986
54.158588 -30.993946 8.720175
52.834902 -30.468703 8.868346
52.585271 -31.352378 9.795908
54.158588 -30.993946 8.720175
55.529612 -31.445793 8.577306
57.693848 -34.913241 11.466055
56.242649 -35.112924 12.548986
57.868504 -34.10169 10.391241
57.693848 -34.913241 11.466055
56.489515 -33.643984 10.45217
57.868504 -34.10169 10.391241
42.401471 -24.978359 13.061225
42.58147 -25.276683 13.855825
43.012085 -25.600686 12.101356
42.401471 -24.978359 13.061225
43.818771 -26.447143 11.972641
43.828732 -26.016737 11.099115
43.012085 -25.600686 12.101356
51.00403 -21.343765 19.659758
49.905798 -21.417406 19.550325
51.115467 -22.678395 20.085456
51.00403 -21.343765 19.659758
51.330582 -23.962078 20.421779
50.245464 -24.074782 20.237544
51.115467 -22.678395 20.085456
51.516613 -25.210831 20.85033
51.330582 -23.962078 20.421779
51.831248 -26.397557 21.200584
50.775214 -26.54519 20.924122
51.516613 -25.210831 20.85033
52.101897 -27.55502 21.65847
51.831248 -26.397557 21.200584
51.511378 -28.81776 21.661019
52.101897 -27.55502 21.65847
44.826443 -24.235598 18.288515
45.33617 -22.935755 18.544531
45.637124 -24.271638 18.650112
44.179254 -24.130493 17.773369
44.826443 -24.235598 18.288515
44.480207 -25.466375 17.87895
43.501894 -24.037692 17.313233
44.179254 -24.130493 17.773369
43.335676 -25.184199 16.754604
43.004551 -23.860619 16.704034
43.501894 -24.037692 17.313233
52.081287 -33.063688 21.992104
52.179865 -32.024034 22.274923
51.425972 -33.126634 21.200477
52.081287 -33.063688 21.992104
52.147602 -34.016373 21.560372
51.93326 -34.800779 20.120311
52.405941 -34.861295 21.053577
50.943148 -34.033603 19.946804
51.93326 -34.800779 20.120311
51.384121 -34.755064 19.298371
52.641367 -35.434826 16.62986
52.817339 -35.790506 17.683027
53.563473 -35.225386 14.655318
54.832359 -35.251333 13.619678
52.404201 -35.101991 15.664992
53.563473 -35.225386 14.655318
52.341697 -34.598167 14.625186
51.419591 -34.807608 16.599728
52.641367 -35.434826 16.62986
52.404201 -35.101991 15.664992
52.086329 -28.251779 7.253472
50.838827 -27.738704 7.435992
50.503033 -28.648358 8.317453
53.079376 -29.635852 7.963773
51.506059 -29.994284 9.039506
52.834902 -30.468703 8.868346
53.408006 -28.666871 7.078858
53.079376 -29.635852 7.963773
54.736849 -29.141291 6.907698
52.086329 -28.251779 7.253472
53.408006 -28.666871 7.078858
3 0 14 13
3 0 15 14
3 52 17 53
3 54 18 55
3 1 56 58
3 56 19 57
3 56 57 58
3 2 22 20
3 2 24 22
3 59 27 60
3 61 60 25
3 59 60 61
3 62 29 63
3 64 63 27
3 62 63 64
3 66 65 29
3 3 32 30
3 5 33 16
3 5 34 33
3 6 67 69
3 67 35 68
3 67 68 69
3 6 36 35
3 7 70 71
3 7 72 73
3 4 37 31
3 8 38 21
3 8 39 38
3 8 40 39
3 9 41 23
3 9 42 41
3 74 43 75
3 10 76 78
3 76 44 77
3 76 77 78
3 10 45 44
3 11 46 26
3 11 47 46
3 11 48 47
3 12 49 28
3 12 50 49
3 12 51 50
3 13 79 80
3 14 81 83
3 83 82 13
3 81 82 83
3 14 84 85
3 14 86 87
3 15 88 90
3 90 89 14
3 88 89 90
3 15 91 92
3 93 16 94
3 95 94 3
3 93 94 95
3 17 96 98
3 96 16 97
3 96 97 98
3 17 5 16
3 18 99 100
3 18 101 103
3 101 6 102
3 101 102 103
3 19 104 105
3 19 106 108
3 106 7 107
3 106 107 108
3 20 21 4
3 22 21 20
3 22 8 21
3 22 23 8
3 24 23 22
3 24 9 23
3 109 10 110
3 25 111 113
3 111 26 112
3 111 112 113
3 27 26 25
3 27 11 26
3 27 28 11
3 29 28 27
3 29 12 28
3 29 114 116
3 116 115 12
3 114 115 116
3 118 117 29
3 30 31 1
3 32 31 30
3 32 4 31
3 16 32 3
3 33 32 16
3 33 4 32
3 33 20 4
3 34 20 33
3 34 2 20
3 119 25 120
3 121 25 122
3 124 123 25
3 35 125 126
3 35 127 128
3 35 129 131
3 129 13 130
3 129 130 131
3 36 13 35
3 36 0 13
3 132 1 133
3 134 1 135
3 136 30 137
3 138 137 1
3 136 137 138
3 139 30 140
3 141 3 142
3 143 142 30
3 141 142 143
3 144 3 145
3 147 146 3
3 31 19 1
3 37 19 31
3 37 7 19
3 21 37 4
3 38 37 21
3 38 7 37
3 38 148 150
3 150 149 7
3 148 149 150
3 39 151 153
3 153 152 38
3 151 152 153
3 39 154 155
3 39 156 158
3 156 18 157
3 156 157 158
3 40 18 39
3 40 6 18
3 23 40 8
3 41 40 23
3 41 6 40
3 41 36 6
3 42 36 41
3 42 0 36
3 159 17 160
3 43 161 163
3 161 17 162
3 161 162 163
3 43 5 17
3 164 43 165
3 44 166 168
3 166 43 167
3 166 167 168
3 44 5 43
3 44 34 5
3 45 34 44
3 45 2 34
3 169 10 170
3 26 171 172
3 46 173 175
3 175 174 26
3 173 174 175
3 46 176 178
3 176 10 177
3 176 177 178
3 46 45 10
3 47 45 46
3 47 2 45
3 47 24 2
3 48 24 47
3 48 9 24
3 28 48 11
3 49 48 28
3 49 9 48
3 49 42 9
3 50 42 49
3 50 0 42
3 50 15 0
3 51 15 50
3 51 179 181
3 181 180 15
3 179 180 181
3 182 51 183
3 184 183 12
3 182 183 184
3 185 51 186
3 185 186 187
3 189 188 51
