ply
format ascii 1.0
element vertex 211
property float x
property float y
property float z
element face 189
property list uchar int vertex_index
end_header
19.206142 55.129341 46.049522
27.156483 51.93084 43.421219
11.559464 57.976219 52.291214
18.44816 49.924446 50.817863
14.81884 51.131866 54.142555
15.373301 56.813339 48.812698
22.23782 48.719284 48.641853
23.117477 53.434311 44.337093
26.23373 47.795509 47.611588
11.219923 51.733604 57.977455
7.829826 57.990852 55.773315
24.154634 57.521973 39.807472
18.794022 52.588135 48.439941
16.915882 53.337067 49.845657
17.284506 55.998695 47.307671
24.213163 48.222679 48.014214
13.204145 54.581581 53.307686
13.021276 51.55072 56.049324
11.352987 54.912453 55.181763
9.51367 54.942726 57.014328
9.670889 58.162933 54.080193
25.119699 52.658585 43.815674
23.619793 55.555527 42.110085
25.625507 54.628075 41.608501
18.162968 47.152306 53.173958
16.393034 47.684311 54.851555
16.621717 50.561508 52.365982
15.05685 54.028259 51.495529
13.464886 57.499702 50.502754
11.851873 60.912766 49.330734
29.227196 51.234344 43.064697
27.670059 53.752861 41.196117
19.980961 46.618828 51.78759
20.316456 49.293602 49.567886
20.704464 51.846451 47.326485
21.147865 54.26255 45.064259
22.655441 51.153809 46.50927
24.648222 50.525391 45.946152
26.678106 49.952019 45.557137
28.73634 49.407097 45.24086
14.646999 48.13549 56.731659
9.422749 51.607231 59.823311
7.715212 54.609543 58.711006
6.082407 57.409424 57.285454
21.642584 56.530495 42.770668
22.178688 58.644348 40.424919
18.467779 56.831688 45.405033
17.506961 57.266365 46.034108
18.245324 55.564018 46.678596
19.444412 56.3321 44.847212
18.467779 56.831688 45.405033
10.734007 59.61422 51.667522
9.78972 59.707577 52.562012
10.615177 58.069576 53.185704
14.593266 58.553951 48.23523
13.639059 58.897132 49.080258
14.419093 57.15652 49.657726
29.493805 52.079814 41.932961
30.277137 50.890865 42.864002
20.752266 45.031596 52.295345
19.83494 45.229094 52.881962
21.277138 49.006443 49.104869
21.089745 47.718521 50.154339
22.050427 47.431362 49.691322
29.540233 48.208095 46.142017
28.510138 48.406529 46.284088
29.773722 49.131637 45.067859
29.540233 48.208095 46.142017
12.06064 50.07645 58.340817
12.961317 49.985008 57.376751
12.1206 51.642162 57.01339
11.181776 50.094082 59.317249
12.06064 50.07645 58.340817
10.321336 51.670417 58.900383
10.283189 50.030895 60.240177
11.181776 50.094082 59.317249
7.027451 59.40549 54.997543
6.153742 59.114777 55.753613
6.956117 57.700138 56.529384
11.236543 63.954483 47.127079
11.044041 62.555202 48.630623
12.044375 62.312046 47.827191
23.449331 59.063973 38.904655
22.461358 59.62516 39.213379
23.166661 58.083161 40.116196
26.915971 55.102874 40.253202
27.944534 54.603077 40.037279
16.529339 57.737438 46.709614
15.573737 58.14476 47.462127
16.328903 56.406017 48.060184
16.529339 57.737438 46.709614
17.506961 57.266365 46.034108
23.02507 47.237915 49.335247
22.050427 47.431362 49.691322
24.012742 46.989612 49.021428
23.225492 48.470982 48.328034
23.02507 47.237915 49.335247
25.015991 46.839287 48.802658
24.012742 46.989612 49.021428
26.026274 46.625702 48.601345
25.223447 48.009094 47.812901
25.015991 46.839287 48.802658
8.843993 59.701771 53.391976
7.923462 59.61573 54.238536
8.750357 58.076892 54.926754
8.843993 59.701771 53.391976
9.78972 59.707577 52.562012
17.278001 47.418309 54.012756
17.160007 45.985565 55.17218
18.044973 45.719563 54.333382
12.832552 60.603664 48.494248
12.658379 59.206234 49.916744
13.639059 58.897132 49.080258
12.044375 62.312046 47.827191
12.832552 60.603664 48.494248
14.593266 58.553951 48.23523
15.573737 58.14476 47.462127
28.715236 53.339073 40.998671
28.448628 52.493603 42.130407
29.493805 52.079814 41.932961
28.989711 54.189289 39.839832
27.944534 54.603077 40.037279
28.715236 53.339073 40.998671
18.925943 45.495833 53.575146
18.044973 45.719563 54.333382
19.071964 46.885567 52.480774
18.925943 45.495833 53.575146
19.83494 45.229094 52.881962
20.921997 46.381134 51.26419
20.752266 45.031596 52.295345
20.148708 47.956215 50.677738
20.921997 46.381134 51.26419
21.089745 47.718521 50.154339
27.048054 46.502808 48.467652
26.026274 46.625702 48.601345
27.258833 47.600735 47.469452
27.048054 46.502808 48.467652
27.481021 48.67899 46.442227
26.455918 48.873764 46.584362
27.258833 47.600735 47.469452
27.707223 49.679558 45.398998
27.481021 48.67899 46.442227
28.510138 48.406529 46.284088
30.01915 50.045261 43.979778
28.981768 50.320721 44.152778
29.773722 49.131637 45.067859
30.277137 50.890865 42.864002
30.01915 50.045261 43.979778
16.304381 46.201615 56.067192
17.160007 45.985565 55.17218
15.431364 46.427204 57.007244
16.304381 46.201615 56.067192
15.520017 47.9099 55.791607
14.585932 46.59399 57.986946
15.431364 46.427204 57.007244
13.774178 48.277393 57.717918
13.834138 49.843105 56.390491
12.961317 49.985008 57.376751
14.585932 46.59399 57.986946
13.774178 48.277393 57.717918
9.401767 49.891243 61.156959
10.283189 50.030895 60.240177
8.540681 51.362125 60.660816
9.401767 49.891243 61.156959
7.686913 52.863281 60.104664
8.540681 51.362125 60.660816
8.568981 53.108387 59.267158
6.859502 54.240441 59.452297
7.686913 52.863281 60.104664
6.0431 55.640381 58.739521
6.859502 54.240441 59.452297
6.89881 56.009484 57.99823
5.283174 56.900459 57.917126
6.0431 55.640381 58.739521
5.335231 58.681923 56.403958
5.283174 56.900459 57.917126
5.335231 58.681923 56.403958
6.153742 59.114777 55.753613
7.027451 59.40549 54.997543
7.923462 59.61573 54.238536
10.880211 61.082493 50.187282
10.734007 59.61422 51.667522
11.705668 59.444492 50.810974
10.880211 61.082493 50.187282
11.044041 62.555202 48.630623
20.415273 55.898704 44.35458
19.444412 56.3321 44.847212
20.177003 54.695945 45.556891
20.662633 57.032677 43.207785
20.415273 55.898704 44.35458
21.395224 55.396523 43.917463
20.928373 58.161843 41.991043
20.662633 57.032677 43.207785
21.196424 59.218769 40.818168
20.928373 58.161843 41.991043
21.910636 57.587422 41.597794
21.482258 60.270477 39.574696
21.196424 59.218769 40.818168
21.482258 60.270477 39.574696
22.461358 59.62516 39.213379
25.893695 55.540481 40.459394
26.647783 54.190468 41.402309
26.915971 55.102874 40.253202
25.158259 56.987431 39.55888
24.890071 56.075024 40.707986
25.893695 55.540481 40.459394
24.434773 58.435589 38.608993
25.158259 56.987431 39.55888
23.72947 59.977588 37.706177
23.449331 59.063973 38.904655
24.434773 58.435589 38.608993
3 0 14 12
3 0 46 48
3 48 47 14
3 46 47 48
3 0 49 50
3 2 18 16
3 2 20 18
3 2 51 53
3 53 52 20
3 51 52 53
3 1 23 21
3 3 26 24
3 5 27 13
3 5 28 27
3 5 54 56
3 56 55 28
3 54 55 56
3 58 57 30
3 59 32 60
3 6 61 63
3 61 33 62
3 61 62 63
3 6 34 33
3 6 36 34
3 8 37 15
3 8 38 37
3 64 39 65
3 67 66 39
3 4 40 25
3 9 68 70
3 70 69 17
3 68 69 70
3 9 71 72
3 9 73 75
3 73 41 74
3 73 74 75
3 10 42 19
3 10 43 42
3 10 76 78
3 78 77 43
3 76 77 78
3 81 80 29
3 79 80 81
3 7 44 35
3 11 45 22
3 11 82 84
3 84 83 45
3 82 83 84
3 86 85 31
3 12 13 3
3 14 13 12
3 14 5 13
3 14 87 89
3 89 88 5
3 87 88 89
3 91 90 14
3 92 6 93
3 94 15 95
3 96 95 6
3 94 95 96
3 97 15 98
3 99 8 100
3 101 100 15
3 99 100 101
3 16 17 4
3 18 17 16
3 18 9 17
3 18 19 9
3 20 19 18
3 20 10 19
3 20 102 104
3 104 103 10
3 102 103 104
3 106 105 20
3 21 22 7
3 23 22 21
3 23 11 22
3 24 107 109
3 107 25 108
3 107 108 109
3 26 25 24
3 26 4 25
3 13 26 3
3 27 26 13
3 27 4 26
3 27 16 4
3 28 16 27
3 28 2 16
3 28 29 2
3 110 29 111
3 112 111 28
3 110 111 112
3 114 113 29
3 116 115 5
3 30 31 1
3 117 31 118
3 119 118 30
3 117 118 119
3 122 121 31
3 120 121 122
3 123 24 124
3 32 125 127
3 125 24 126
3 125 126 127
3 32 3 24
3 128 32 129
3 33 130 132
3 130 32 131
3 130 131 132
3 33 3 32
3 33 12 3
3 34 12 33
3 34 0 12
3 34 35 0
3 36 35 34
3 36 7 35
3 15 36 6
3 37 36 15
3 37 7 36
3 37 21 7
3 38 21 37
3 38 1 21
3 133 8 134
3 135 8 136
3 137 38 138
3 139 138 8
3 137 138 139
3 39 140 142
3 140 38 141
3 140 141 142
3 39 1 38
3 39 30 1
3 143 30 144
3 145 144 39
3 143 144 145
3 147 146 30
3 25 148 149
3 40 150 152
3 152 151 25
3 150 151 152
3 40 153 154
3 17 40 4
3 155 40 156
3 157 156 17
3 155 156 157
3 159 158 40
3 41 160 161
3 41 162 163
3 19 41 9
3 42 41 19
3 42 164 166
3 166 165 41
3 164 165 166
3 42 167 168
3 43 169 171
3 171 170 42
3 169 170 171
3 43 172 173
3 43 174 175
3 177 176 43
3 179 178 10
3 29 180 182
3 182 181 2
3 180 181 182
3 184 183 29
3 35 185 187
3 187 186 0
3 185 186 187
3 44 188 190
3 190 189 35
3 188 189 190
3 44 191 192
3 22 44 7
3 45 44 22
3 45 193 195
3 195 194 44
3 193 194 195
3 45 196 197
3 199 198 45
3 31 23 1
3 200 23 201
3 202 201 31
3 200 201 202
3 203 11 204
3 205 204 23
3 203 204 205
3 206 11 207
3 210 209 11
3 208 209 210
