ply
format ascii 1.0
element vertex 236
property float x
property float y
property float z
element face 233
property list uchar int vertex_index
end_header
38.095104 -62.993671 51.370918
35.175903 -54.638546 53.348465
41.726608 -56.387402 48.658722
46.104839 -49.182121 48.015335
36.515747 -58.615379 51.767296
41.88311 -47.917534 48.841621
44.157181 -61.324924 49.277763
46.150311 -57.781826 48.247894
42.041367 -64.681976 50.499405
36.378643 -51.007847 51.936028
39.628971 -51.621685 49.196945
37.908073 -55.257996 50.266014
39.91695 -59.853901 49.875992
48.844193 -45.729065 48.883873
50.540039 -50.714321 48.096802
43.738102 -52.770187 47.940857
48.228569 -54.203594 47.750244
45.321156 -63.805466 49.820595
46.378548 -62.058411 49.245323
47.486954 -64.52523 49.793236
39.974842 -63.833359 50.787651
35.705299 -52.855732 52.58989
37.066505 -53.083542 50.941093
36.390396 -54.872791 51.632515
37.286423 -60.753845 51.429634
38.074684 -59.187366 50.638794
39.018501 -61.474174 50.591461
40.994179 -62.246803 50.095917
45.280724 -46.714241 48.518112
46.723885 -44.972473 48.939758
47.4314 -47.436985 48.368492
49.622627 -48.219101 48.426735
48.323853 -49.935974 47.99493
40.605946 -53.971348 48.758949
41.602421 -52.142021 48.396187
42.694454 -54.58569 48.216274
48.394073 -58.489929 48.246361
47.167221 -55.987797 47.907036
49.405876 -56.702778 47.926865
50.450779 -54.933609 47.797604
34.743084 -56.332558 54.158684
35.807587 -56.579208 52.409424
35.279556 -58.175674 53.234612
43.939198 -48.495384 48.269043
42.933212 -58.845947 48.856064
43.901745 -57.069256 48.346336
45.155876 -59.567429 48.722015
47.393654 -60.280792 48.704803
38.84444 -49.362625 49.984528
37.874863 -51.237816 50.378555
38.71106 -53.461437 49.658623
39.704662 -55.772392 49.279259
37.187897 -56.984585 50.979485
38.871372 -57.519268 49.91684
40.810432 -58.151249 49.224571
41.973179 -60.578484 49.449173
43.12664 -63.035442 49.876274
40.683689 -49.76561 48.917221
42.711559 -50.309566 48.226509
44.872944 -50.963184 47.868542
44.90633 -55.270176 47.964722
45.969528 -53.470211 47.758919
47.106323 -51.687908 47.76516
49.349808 -52.443298 47.81192
34.629505 -52.785534 54.552544
34.253487 -54.569344 55.350555
33.966671 -56.271023 56.153404
46.916601 -65.399135 50.077561
46.404055 -64.165348 49.806916
45.833703 -65.039254 50.09124
47.945495 -65.740772 50.013443
46.916601 -65.399135 50.077561
38.499935 -64.158411 51.453175
39.439804 -64.578255 51.161541
39.034973 -63.413515 51.079284
49.984127 -57.932525 48.071979
48.899974 -57.596353 48.086613
49.478226 -58.826101 48.231728
50.482163 -57.043185 47.914372
49.984127 -57.932525 48.071979
34.822204 -58.043561 54.101017
35.01132 -57.254116 53.696648
34.553968 -57.122003 54.563053
42.552452 -47.006831 48.90604
41.592458 -46.769993 49.31448
42.911154 -48.206459 48.555332
43.580496 -47.295755 48.619751
42.552452 -47.006831 48.90604
47.973203 -61.514105 48.961925
46.886101 -61.169601 48.975063
47.465651 -62.402914 49.232185
48.481258 -60.61775 48.690303
47.973203 -61.514105 48.961925
42.516144 -65.91301 50.742554
43.119269 -65.093841 50.451088
37.126753 -51.122832 51.157291
37.554839 -50.178821 50.906056
36.806728 -50.063837 51.684792
43.119269 -65.093841 50.451088
43.661905 -64.270575 50.139522
42.584004 -63.858709 50.18784
48.547871 -44.49842 49.178951
47.487717 -44.120125 49.206894
47.784039 -45.350769 48.911816
49.587311 -44.890219 49.186844
48.547871 -44.49842 49.178951
49.921043 -46.131218 48.944405
49.587311 -44.890219 49.186844
51.171409 -49.865099 48.334885
50.712704 -48.617489 48.499852
50.081333 -49.466711 48.261769
51.620072 -51.096143 48.145707
51.171409 -49.865099 48.334885
50.997949 -54.062502 47.842944
51.514604 -55.280861 47.78805
34.404094 -51.900366 55.267525
34.891007 -51.860872 54.189899
33.915173 -54.619393 56.455219
34.030985 -53.71974 56.051933
33.771765 -55.470232 56.856644
34.110079 -55.420184 55.75198
33.915173 -54.619393 56.455219
40.93562 -47.700636 49.313519
41.592458 -46.769993 49.31448
48.019853 -63.636323 49.506142
47.465651 -62.402914 49.232185
46.932751 -63.291821 49.519279
48.516151 -64.846439 49.725422
48.019853 -63.636323 49.506142
48.516151 -64.846439 49.725422
47.945495 -65.740772 50.013443
40.431646 -65.041336 50.96878
41.464909 -65.465644 50.824658
41.008105 -64.257667 50.643528
40.431646 -65.041336 50.96878
39.439804 -64.578255 51.161541
46.002305 -45.843357 48.728935
45.70398 -44.642319 49.109153
44.982399 -45.513203 48.898331
51.004614 -56.1586 47.849741
49.928327 -55.818193 47.862234
50.482163 -57.043185 47.914372
51.514604 -55.280861 47.78805
51.004614 -56.1586 47.849741
37.616626 -63.695528 51.802479
37.291422 -62.595623 51.834168
35.029341 -58.901483 53.661125
34.822204 -58.043561 54.101017
35.571295 -59.149717 52.925331
35.029341 -58.901483 53.661125
36.18939 -59.369569 52.191674
35.897651 -58.395527 52.500954
35.571295 -59.149717 52.925331
36.574728 -60.438802 52.022842
36.901085 -59.684612 51.598465
36.18939 -59.369569 52.191674
36.887082 -61.47571 51.863526
36.574728 -60.438802 52.022842
37.291422 -62.595623 51.834168
37.690764 -61.873758 51.400276
36.887082 -61.47571 51.863526
44.251259 -46.405184 48.744286
44.982399 -45.513203 48.898331
44.609961 -47.604813 48.393578
44.251259 -46.405184 48.744286
43.580496 -47.295755 48.619751
48.981468 -59.722319 48.461083
47.893863 -59.38536 48.475582
48.481258 -60.61775 48.690303
49.478226 -58.826101 48.231728
48.981468 -59.722319 48.461083
42.516144 -65.91301 50.742554
41.464909 -65.465644 50.824658
38.499935 -64.158411 51.453175
37.616626 -63.695528 51.802479
38.039627 -49.241226 50.709042
38.569637 -48.289746 50.549759
38.359651 -50.300221 50.181541
38.039627 -49.241226 50.709042
37.554839 -50.178821 50.906056
44.759163 -64.655586 50.111683
44.223898 -63.420454 49.848434
43.661905 -64.270575 50.139522
45.833703 -65.039254 50.09124
44.759163 -64.655586 50.111683
46.485922 -43.770153 49.328094
45.70398 -44.642319 49.109153
46.485922 -43.770153 49.328094
47.487717 -44.120125 49.206894
50.31026 -47.376236 48.715835
49.921043 -46.131218 48.944405
49.23341 -46.974083 48.655304
50.31026 -47.376236 48.715835
50.712704 -48.617489 48.499852
39.416285 -48.423181 49.884972
38.569637 -48.289746 50.549759
40.335909 -48.624674 49.351318
39.416285 -48.423181 49.884972
39.764065 -49.564118 49.450874
41.2834 -48.841572 48.879421
40.93562 -47.700636 49.313519
40.335909 -48.624674 49.351318
50.447464 -52.817346 47.850102
49.900294 -53.688453 47.804762
50.997949 -54.062502 47.842944
51.04258 -51.952858 47.992542
49.944924 -51.578809 47.954361
50.447464 -52.817346 47.850102
51.620072 -51.096143 48.145707
51.04258 -51.952858 47.992542
36.126245 -50.024639 52.583946
36.806728 -50.063837 51.684792
35.765575 -50.972029 52.881642
36.126245 -50.024639 52.583946
35.428903 -51.895972 53.208573
36.041971 -51.93179 52.262959
35.765575 -50.972029 52.881642
35.167402 -52.820633 53.571217
35.428903 -51.895972 53.208573
34.891007 -51.860872 54.189899
34.218994 -52.827835 55.652927
34.404094 -51.900366 55.267525
33.993583 -51.942667 56.367908
34.441496 -53.677439 54.951549
34.218994 -52.827835 55.652927
34.030985 -53.71974 56.051933
34.165762 -57.091236 55.560413
34.553968 -57.122003 54.563053
34.354878 -56.30179 55.156044
33.689882 -56.339779 57.236618
33.771765 -55.470232 56.856644
33.844485 -57.074123 56.519039
33.689882 -56.339779 57.236618
33.567696 -57.142879 57.602253
34.165762 -57.091236 55.560413
33.844485 -57.074123 56.519039
3 67 19 68
3 69 68 17
3 67 68 69
3 71 70 19
3 0 72 74
3 74 73 20
3 72 73 74
3 1 23 21
3 0 26 24
3 0 20 26
3 3 30 28
3 3 32 30
3 2 35 33
3 75 38 76
3 77 76 36
3 75 76 77
3 79 78 38
3 80 42 81
3 82 81 40
3 80 81 82
3 5 83 84
3 5 85 87
3 85 43 86
3 85 86 87
3 6 46 44
3 88 47 89
3 90 89 18
3 88 89 90
3 92 91 47
3 8 93 94
3 9 95 97
3 95 49 96
3 95 96 97
3 11 50 22
3 11 51 50
3 4 52 41
3 12 53 25
3 12 54 53
3 12 55 54
3 8 56 27
3 8 98 100
3 100 99 56
3 98 99 100
3 13 101 103
3 103 102 29
3 101 102 103
3 13 104 105
3 13 106 107
3 14 108 110
3 110 109 31
3 108 109 110
3 14 111 112
3 10 57 48
3 15 58 34
3 15 59 58
3 7 60 45
3 16 61 37
3 16 62 61
3 16 63 62
3 114 113 39
3 115 64 116
3 117 65 118
3 119 66 120
3 121 120 65
3 119 120 121
3 122 5 123
3 17 18 6
3 19 18 17
3 19 124 126
3 126 125 18
3 124 125 126
3 19 127 128
3 130 129 19
3 20 131 133
3 133 132 8
3 131 132 133
3 135 134 20
3 21 22 9
3 23 22 21
3 23 11 22
3 24 25 4
3 26 25 24
3 26 12 25
3 26 27 12
3 20 27 26
3 20 8 27
3 28 136 138
3 136 29 137
3 136 137 138
3 30 29 28
3 30 13 29
3 30 31 13
3 32 31 30
3 32 14 31
3 33 34 10
3 35 34 33
3 35 15 34
3 36 37 7
3 38 37 36
3 38 16 37
3 38 39 16
3 139 39 140
3 141 140 38
3 139 140 141
3 143 142 39
3 145 144 0
3 40 41 1
3 42 41 40
3 42 4 41
3 146 42 147
3 148 42 149
3 150 4 151
3 152 151 42
3 150 151 152
3 153 24 154
3 155 154 4
3 153 154 155
3 156 24 157
3 158 0 159
3 160 159 24
3 158 159 160
3 161 28 162
3 43 163 165
3 163 28 164
3 163 164 165
3 43 3 28
3 44 45 2
3 46 45 44
3 46 7 45
3 18 46 6
3 47 46 18
3 47 7 46
3 47 36 7
3 166 36 167
3 168 167 47
3 166 167 168
3 170 169 36
3 172 171 8
3 174 173 0
3 175 48 176
3 49 177 179
3 177 48 178
3 177 178 179
3 49 10 48
3 22 49 9
3 50 49 22
3 50 10 49
3 50 33 10
3 51 33 50
3 51 2 33
3 41 23 1
3 52 23 41
3 52 11 23
3 25 52 4
3 53 52 25
3 53 11 52
3 53 51 11
3 54 51 53
3 54 2 51
3 54 44 2
3 55 44 54
3 55 6 44
3 27 55 12
3 56 55 27
3 56 6 55
3 56 17 6
3 180 17 181
3 182 181 56
3 180 181 182
3 184 183 17
3 29 185 186
3 188 187 29
3 31 189 191
3 191 190 13
3 189 190 191
3 193 192 31
3 48 194 195
3 57 196 198
3 198 197 48
3 196 197 198
3 57 199 201
3 199 5 200
3 199 200 201
3 34 57 10
3 58 57 34
3 58 5 57
3 58 43 5
3 59 43 58
3 59 3 43
3 45 35 2
3 60 35 45
3 60 15 35
3 37 60 7
3 61 60 37
3 61 15 60
3 61 59 15
3 62 59 61
3 62 3 59
3 62 32 3
3 63 32 62
3 63 14 32
3 39 63 16
3 202 63 203
3 204 203 39
3 202 203 204
3 205 14 206
3 207 206 63
3 205 206 207
3 209 208 14
3 210 9 211
3 212 9 213
3 214 21 215
3 216 215 9
3 214 215 216
3 64 217 219
3 217 21 218
3 217 218 219
3 64 1 21
3 220 64 221
3 220 221 222
3 65 223 225
3 223 64 224
3 223 224 225
3 65 1 64
3 65 40 1
3 66 40 65
3 66 226 228
3 228 227 40
3 226 227 228
3 229 66 230
3 231 66 232
3 231 232 233
3 235 234 66
