ply
format ascii 1.0
element vertex 269
property float x
property float y
property float z
element face 271
property list uchar int vertex_index
end_header
66.415741 -9.123349 -37.322098
65.808983 -16.631737 -28.29756
69.805908 -24.550688 -31.535799
66.350418 -20.12406 -39.887909
63.190933 -11.949158 -21.559767
63.413284 -3.071595 -31.696463
61.158287 4.898516 -41.802475
66.776787 -12.644592 -32.755951
64.5354 -9.757874 -30.280653
64.86628 -5.568439 -35.109871
62.880089 1.194704 -36.798134
63.918472 -1.88969 -39.938835
64.080551 -20.729996 -23.914698
68.477928 -19.935482 -30.153124
68.426849 -16.695812 -34.375946
66.97744 -14.026842 -38.802094
68.522362 -22.164593 -35.620018
63.524567 -14.100807 -25.484938
63.305367 -7.552051 -26.577795
62.336975 3.159151 -32.338257
60.861244 7.378521 -37.604462
66.783615 -10.807759 -35.024651
65.838348 -9.075702 -33.991852
65.713364 -7.188378 -36.340385
64.576439 -3.64617 -37.526466
65.214218 -5.460441 -38.701408
69.989563 -25.90642 -29.569532
69.205353 -23.640093 -28.875204
69.37928 -22.057795 -30.874533
68.633995 -18.249666 -32.239899
69.199234 -20.593662 -32.922287
68.681427 -19.259155 -35.02562
69.302063 -23.305214 -33.551178
64.993904 -18.6901 -26.098913
63.752045 -17.415812 -24.744028
64.49572 -15.305319 -27.03348
63.957939 -6.379697 -31.078821
63.708969 -8.591102 -28.586824
63.398056 -5.306206 -29.133074
63.247627 -4.388325 -26.885359
63.107506 -2.118835 -29.496874
62.88279 0.127003 -32.114983
62.189564 3.137457 -39.316963
61.877476 4.385962 -37.312279
60.968559 6.311493 -39.867073
66.795372 -16.955204 -39.390854
62.841042 -15.095161 -21.231234
66.430977 -14.600533 -30.514872
65.153175 -13.180582 -29.338354
65.629303 -11.087871 -31.657747
64.829781 -7.620414 -32.693352
64.041847 -4.212818 -33.57177
63.267006 -0.88969 -34.254974
63.876823 -2.13674 -36.057976
63.395767 -0.195572 -38.530975
62.557957 1.572666 -40.984238
61.354561 3.138227 -43.409302
65.686241 -23.452942 -40.25856
65.558716 -22.075956 -25.108015
66.492737 -20.10047 -27.202845
67.979729 -21.72427 -28.106676
67.220284 -18.148849 -29.316637
67.662796 -16.266947 -31.459139
67.763847 -14.496752 -33.638641
67.494293 -12.870119 -35.86013
66.854019 -11.40379 -38.123299
67.864204 -15.288528 -36.564499
67.863548 -18.051613 -37.184883
67.521095 -21.112352 -37.7379
68.963112 -26.349596 -34.141975
67.998032 -25.353931 -36.158607
66.892395 -24.396847 -38.205948
62.992683 -16.222898 -23.116426
63.07048 -12.980146 -23.648283
64.069199 -11.933146 -27.87591
63.384567 -10.803409 -26.105654
63.214149 -9.77467 -24.046835
63.374359 -6.648967 -24.298784
62.496788 2.309753 -34.724396
61.712547 5.328056 -34.98423
66.041507 -8.366862 -38.483761
65.440746 -6.535408 -39.173416
65.814979 -7.291895 -38.011753
63.498146 -11.503933 -20.424103
63.238308 -13.005101 -20.349265
63.36858 -10.413153 -21.659168
63.498146 -11.503933 -20.424103
60.448441 6.471562 -42.089546
60.353577 7.178051 -41.121845
61.063423 5.605004 -40.834774
60.469189 5.671358 -43.022827
60.448441 6.471562 -42.089546
65.939121 -18.034703 -40.754707
66.161598 -16.450274 -40.50618
66.572895 -18.539632 -39.639381
62.69796 -16.683802 -21.006958
62.797573 -16.114466 -20.052594
63.400447 -1.10716 -41.139705
62.72019 0.624018 -41.662407
63.238214 -0.158512 -40.461536
65.042023 -22.976332 -41.265713
65.254917 -25.155618 -40.35199
66.373444 -22.826928 -25.598221
65.867375 -23.765419 -24.596615
66.840454 -21.839185 -26.645636
66.025727 -21.088213 -26.15543
66.373444 -22.826928 -25.598221
69.083488 -28.464816 -33.452846
69.347744 -26.87852 -33.15414
67.586533 -27.048759 -36.383476
68.123203 -27.505392 -35.417725
67.033715 -26.570217 -37.407146
67.445213 -24.875389 -37.182277
67.586533 -27.048759 -36.383476
66.459687 -26.107031 -38.374046
67.033715 -26.570217 -37.407146
63.548912 -20.101817 -23.194206
63.623386 -21.7219 -22.829174
63.326828 -2.515283 -25.719263
63.369896 -4.02461 -25.646258
63.204559 -2.878999 -26.958365
62.378402 3.438178 -31.025559
62.567169 2.036574 -31.009936
62.037541 4.554002 -32.36525
62.378402 3.438178 -31.025559
60.874437 7.733313 -36.332168
61.300089 6.708081 -35.022053
61.286895 6.353288 -36.294346
60.338856 8.736315 -37.65144
60.874437 7.733313 -36.332168
60.581293 3.809165 -44.600872
61.422432 2.08617 -44.064892
66.423527 -12.062814 -39.611981
66.361817 -10.751289 -39.272583
66.915729 -12.715316 -38.462696
64.773033 -4.68714 -39.885796
64.12516 -2.901765 -40.504509
64.566345 -3.675066 -39.320121
64.773033 -4.68714 -39.885796
65.440746 -6.535408 -39.173416
69.597458 -24.773257 -29.222368
69.517353 -25.503151 -28.258751
69.909458 -26.636315 -28.605915
63.134498 -1.744254 -28.264122
63.204559 -2.878999 -26.958365
63.177566 -3.25358 -28.191116
62.952434 -0.602419 -29.589245
63.134498 -1.744254 -28.264122
62.840076 0.5205 -30.8983
62.952434 -0.602419 -29.589245
62.995148 -0.995916 -30.805929
62.609882 1.643077 -32.22662
62.567169 2.036574 -31.009936
62.840076 0.5205 -30.8983
60.352089 7.78909 -40.025784
60.298431 8.322604 -38.894478
60.914901 6.845007 -38.735767
60.352089 7.78909 -40.025784
60.353577 7.178051 -41.121845
66.304337 -14.925672 -40.233425
66.39537 -13.461491 -39.939045
66.886406 -15.491023 -39.096474
66.304337 -14.925672 -40.233425
66.161598 -16.450274 -40.50618
70.223183 -27.840434 -28.94919
69.909458 -26.636315 -28.605915
70.118179 -27.226009 -29.900264
70.223183 -27.840434 -28.94919
70.026352 -26.548144 -30.883398
69.897736 -25.228554 -30.552665
70.118179 -27.226009 -29.900264
69.769142 -25.979066 -31.851053
70.026352 -26.548144 -30.883398
63.063362 -14.578102 -20.184998
63.019894 -15.597407 -19.006358
62.797573 -16.114466 -20.052594
63.015988 -13.52216 -21.395501
63.238308 -13.005101 -20.349265
63.063362 -14.578102 -20.184998
62.118492 1.406799 -42.874939
61.956259 2.355447 -42.19677
62.72019 0.624018 -41.662407
61.422432 2.08617 -44.064892
62.118492 1.406799 -42.874939
63.400447 -1.10716 -41.139705
64.12516 -2.901765 -40.504509
65.368107 -21.312785 -41.147789
65.700196 -19.648344 -40.962463
66.018329 -21.788501 -40.073234
65.368107 -21.312785 -41.147789
65.042023 -22.976332 -41.265713
64.295749 -22.381035 -23.469063
63.623386 -21.7219 -22.829174
65.034832 -23.054015 -24.065722
65.867375 -23.765419 -24.596615
64.819634 -21.402976 -24.511357
64.295749 -22.381035 -23.469063
65.034832 -23.054015 -24.065722
68.947643 -24.478372 -27.893849
69.517353 -25.503151 -28.258751
68.334832 -23.52046 -27.509585
68.947643 -24.478372 -27.893849
68.592541 -22.682181 -28.49094
67.58395 -22.651085 -27.097552
68.334832 -23.52046 -27.509585
67.236233 -20.91237 -27.654761
66.840454 -21.839185 -26.645636
67.58395 -22.651085 -27.097552
69.51722 -25.356329 -32.858742
69.553986 -23.927951 -32.543489
69.769142 -25.979066 -31.851053
69.132587 -24.827405 -33.846576
69.51722 -25.356329 -32.858742
69.347744 -26.87852 -33.15414
68.605743 -28.003225 -34.409408
69.083488 -28.464816 -33.452846
68.480572 -25.851763 -35.150291
68.605743 -28.003225 -34.409408
68.123203 -27.505392 -35.417725
65.856609 -25.635078 -39.400352
66.289318 -23.924895 -39.232254
66.459687 -26.107031 -38.374046
65.254917 -25.155618 -40.35199
65.856609 -25.635078 -39.400352
63.384659 -18.444725 -23.608871
63.548912 -20.101817 -23.194206
63.916298 -19.072904 -24.329363
63.004978 -17.848268 -22.795071
63.384659 -18.444725 -23.608871
63.372364 -16.819355 -23.930227
62.773781 -17.24767 -21.949554
63.004978 -17.848268 -22.795071
62.916863 -15.659029 -22.17383
62.69796 -16.683802 -21.006958
62.773781 -17.24767 -21.949554
63.380188 -9.325909 -22.902703
63.36858 -10.413153 -21.659168
63.202541 -10.861914 -22.803301
63.460293 -7.763058 -23.028677
63.380188 -9.325909 -22.902703
63.294254 -8.211818 -24.172809
63.607174 -6.292958 -23.065018
63.460293 -7.763058 -23.028677
63.433262 -5.15493 -24.35297
63.310993 -5.518646 -25.592072
63.369896 -4.02461 -25.646258
63.607174 -6.292958 -23.065018
63.433262 -5.15493 -24.35297
61.725327 5.638454 -33.688236
62.037541 4.554002 -32.36525
62.024761 4.243603 -33.661243
61.725327 5.638454 -33.688236
61.300089 6.708081 -35.022053
60.338856 8.736315 -37.65144
60.298431 8.322604 -38.894478
60.567325 4.791213 -43.82624
60.469189 5.671358 -43.022827
61.256424 4.018371 -42.605888
60.567325 4.791213 -43.82624
60.581293 3.809165 -44.600872
66.260647 -9.507083 -38.884361
66.041507 -8.366862 -38.483761
66.63488 -10.263569 -37.722698
66.260647 -9.507083 -38.884361
66.361817 -10.751289 -39.272583
66.423527 -12.062814 -39.611981
66.39537 -13.461491 -39.939045
65.939121 -18.034703 -40.754707
65.700196 -19.648344 -40.962463
3 0 23 21
3 0 25 23
3 0 80 82
3 82 81 25
3 80 81 82
3 2 28 26
3 2 30 28
3 2 32 30
3 4 83 84
3 4 85 86
3 1 35 33
3 5 38 36
3 5 40 38
3 5 41 40
3 6 44 42
3 6 87 89
3 89 88 44
3 87 88 89
3 6 90 91
3 3 92 94
3 94 93 45
3 92 93 94
3 95 46 96
3 7 49 47
3 9 50 22
3 9 51 50
3 9 53 51
3 11 54 24
3 11 55 54
3 11 97 99
3 99 98 55
3 97 98 99
3 101 100 57
3 102 58 103
3 104 59 105
3 106 105 58
3 104 105 106
3 13 60 27
3 13 61 60
3 13 62 61
3 14 63 29
3 14 64 63
3 14 66 64
3 16 67 31
3 16 68 67
3 107 69 108
3 109 70 110
3 111 71 112
3 113 112 70
3 111 112 113
3 115 114 71
3 12 116 117
3 17 72 34
3 17 73 72
3 8 74 48
3 18 75 37
3 18 76 75
3 18 77 76
3 120 119 39
3 118 119 120
3 19 121 122
3 19 123 124
3 10 78 52
3 20 79 43
3 20 125 127
3 127 126 79
3 125 126 127
3 20 128 129
3 131 130 56
3 15 132 134
3 134 133 65
3 132 133 134
3 21 22 7
3 23 22 21
3 23 9 22
3 23 24 9
3 25 24 23
3 25 11 24
3 25 135 137
3 137 136 11
3 135 136 137
3 139 138 25
3 26 140 142
3 140 27 141
3 140 141 142
3 28 27 26
3 28 13 27
3 28 29 13
3 30 29 28
3 30 14 29
3 30 31 14
3 32 31 30
3 32 16 31
3 33 34 12
3 35 34 33
3 35 17 34
3 36 37 8
3 38 37 36
3 38 18 37
3 38 39 18
3 40 39 38
3 40 143 145
3 145 144 39
3 143 144 145
3 40 146 147
3 41 148 150
3 150 149 40
3 148 149 150
3 41 151 153
3 151 19 152
3 151 152 153
3 42 43 10
3 44 43 42
3 44 20 43
3 44 154 156
3 156 155 20
3 154 155 156
3 158 157 44
3 45 159 161
3 161 160 15
3 159 160 161
3 163 162 45
3 164 26 165
3 166 26 167
3 168 2 169
3 170 169 26
3 168 169 170
3 172 171 2
3 46 173 175
3 173 174 175
3 46 176 178
3 176 4 177
3 176 177 178
3 47 48 1
3 49 48 47
3 49 8 48
3 22 49 7
3 50 49 22
3 50 8 49
3 50 36 8
3 51 36 50
3 51 5 36
3 51 52 5
3 53 52 51
3 53 10 52
3 24 53 9
3 54 53 24
3 54 10 53
3 54 42 10
3 55 42 54
3 55 6 42
3 55 56 6
3 179 56 180
3 181 180 55
3 179 180 181
3 183 182 56
3 185 184 11
3 57 186 188
3 188 187 3
3 186 187 188
3 190 189 57
3 191 12 192
3 58 193 194
3 58 195 197
3 195 12 196
3 195 196 197
3 58 33 12
3 59 33 58
3 59 1 33
3 27 198 199
3 60 200 202
3 202 201 27
3 200 201 202
3 60 203 204
3 60 205 207
3 205 59 206
3 205 206 207
3 61 59 60
3 61 1 59
3 61 47 1
3 62 47 61
3 62 7 47
3 29 62 13
3 63 62 29
3 63 7 62
3 63 21 7
3 64 21 63
3 64 0 21
3 64 65 0
3 66 65 64
3 66 15 65
3 31 66 14
3 67 66 31
3 67 15 66
3 67 45 15
3 68 45 67
3 68 3 45
3 208 32 209
3 210 209 2
3 208 209 210
3 69 211 213
3 211 32 212
3 211 212 213
3 69 16 32
3 214 69 215
3 70 216 218
3 216 69 217
3 216 217 218
3 70 16 69
3 70 68 16
3 71 68 70
3 71 3 68
3 71 57 3
3 219 57 220
3 221 220 71
3 219 220 221
3 223 222 57
3 34 224 226
3 226 225 12
3 224 225 226
3 72 227 229
3 229 228 34
3 227 228 229
3 72 230 231
3 72 232 234
3 232 46 233
3 232 233 234
3 73 46 72
3 73 4 46
3 48 35 1
3 74 35 48
3 74 17 35
3 37 74 8
3 75 74 37
3 75 17 74
3 75 73 17
3 76 73 75
3 76 4 73
3 76 235 237
3 237 236 4
3 235 236 237
3 77 238 240
3 240 239 76
3 238 239 240
3 77 241 242
3 39 77 18
3 243 77 244
3 245 244 39
3 243 244 245
3 247 246 77
3 52 41 5
3 78 41 52
3 78 19 41
3 43 78 10
3 79 78 43
3 79 19 78
3 79 248 250
3 250 249 19
3 248 249 250
3 252 251 79
3 254 253 20
3 56 255 257
3 257 256 6
3 255 256 257
3 259 258 56
3 65 260 262
3 262 261 0
3 260 261 262
3 264 263 65
3 266 265 15
3 268 267 3
