ply
format ascii 1.0
element vertex 168
property float x
property float y
property float z
element face 146
property list uchar int vertex_index
end_header
3.484844 43.662945 19.576954
-0.780308 52.059643 25.521458
2.215927 50.828671 15.497937
-1.142218 51.175541 36.977783
-1.321043 55.638798 29.641382
6.065094 37.92791 17.524588
-1.235807 59.328579 22.129601
-0.036783 55.287884 18.406719
0.974173 48.21944 22.182144
-1.302853 49.592693 34.653896
4.200966 44.697578 16.444555
5.509666 41.769287 15.454922
4.806076 40.963116 18.498789
5.351448 37.094372 20.473358
4.068527 39.894047 21.521128
-1.208155 53.863049 27.485775
-1.318268 57.593975 25.898251
-1.043083 55.712376 23.835779
-0.794136 57.334377 20.165419
-0.445686 53.792248 21.972271
0.450701 51.79269 20.310604
-0.037642 50.196339 23.754223
3.542217 48.28632 14.323052
2.863472 47.309925 17.564339
-1.256418 53.489468 33.339748
-1.291349 51.813213 31.096909
-1.031555 50.117016 29.03673
6.545902 33.948757 19.502514
0.992252 53.140476 16.853611
1.582621 49.654194 18.845686
2.178293 46.06348 20.795679
0.416931 46.54929 25.492264
1.51754 44.569206 24.003128
2.763981 42.370853 22.686956
2.879072 49.557496 14.910495
3.191948 50.003968 13.239272
2.528803 51.275143 13.826714
-1.199318 52.332504 35.158766
-1.126383 54.315438 34.543331
-1.069282 53.158474 36.362348
-1.245548 49.903778 31.800038
-1.297101 50.702953 32.875402
-1.2513 48.793518 33.578531
-1.115651 49.055679 30.769948
-1.161452 50.965114 30.06682
-1.245548 49.903778 31.800038
-0.909766 48.241917 29.787357
-1.115651 49.055679 30.769948
6.391184 38.212906 16.039991
6.11347 40.133595 15.005159
5.78738 39.848598 16.489755
6.632048 36.235859 17.067478
6.391184 38.212906 16.039991
6.305498 35.938333 18.513551
6.872452 34.246282 18.056441
6.632048 36.235859 17.067478
5.220295 34.557184 22.875751
5.592652 35.098944 21.417784
4.979092 36.552612 21.931325
-1.309468 57.545079 28.894739
-1.244765 56.515236 30.807495
-1.300299 60.311439 23.21
-1.341529 59.444137 25.094326
-1.277038 58.461277 24.013926
-1.295887 61.113399 21.276345
-1.300299 60.311439 23.21
-1.15328 60.074211 20.243315
-1.295887 61.113399 21.276345
-0.253391 56.996792 17.450953
-0.632068 58.020038 18.330303
-0.415459 56.311131 19.286069
0.19511 55.905418 16.625349
-0.253391 56.996792 17.450953
0.477735 54.21418 17.630165
0.709628 54.831715 15.848795
0.19511 55.905418 16.625349
0.173198 45.610592 27.12744
-0.018438 47.463585 26.330192
1.792624 42.706314 24.883051
1.211931 43.710971 25.588705
2.415845 41.607137 24.224965
2.14076 43.470029 23.345042
1.792624 42.706314 24.883051
3.046108 40.475441 23.598726
2.415845 41.607137 24.224965
1.8877 52.522697 14.44948
2.528803 51.275143 13.826714
-1.280179 48.413051 36.39982
-1.222535 50.384117 35.81584
-1.199861 49.204476 37.561763
-1.29756 47.658279 35.281675
-1.280179 48.413051 36.39982
-1.246007 46.859105 34.20631
-1.2513 48.793518 33.578531
-1.29756 47.658279 35.281675
4.855316 43.233432 15.949739
5.194721 43.61268 14.37906
4.540371 45.076826 14.873877
4.337631 37.95245 22.45521
4.979092 36.552612 21.931325
4.709988 38.494209 20.997243
3.861324 48.630268 12.705412
3.191948 50.003968 13.239272
4.210997 46.871197 13.813125
3.861324 48.630268 12.705412
3.871592 46.491949 15.383804
4.540371 45.076826 14.873877
4.210997 46.871197 13.813125
-1.212452 55.440571 32.656678
-1.126383 54.315438 34.543331
-1.288731 54.564133 31.490565
-1.244765 56.515236 30.807495
-1.212452 55.440571 32.656678
-0.742681 49.247448 28.102425
-0.617058 50.218761 26.344789
-0.905932 51.08833 27.279094
-0.742681 49.247448 28.102425
-0.909766 48.241917 29.787357
-0.972779 51.952709 38.214855
-1.069282 53.158474 36.362348
-1.069934 49.951904 38.761213
-0.972779 51.952709 38.214855
-1.199861 49.204476 37.561763
-1.069934 49.951904 38.761213
5.82872 42.033625 13.929177
5.194721 43.61268 14.37906
5.82872 42.033625 13.929177
6.11347 40.133595 15.005159
7.072209 32.202931 19.032274
6.872452 34.246282 18.056441
6.749672 31.898447 20.443503
7.072209 32.202931 19.032274
6.189878 33.526136 20.932362
5.948675 35.521564 19.987936
5.592652 35.098944 21.417784
6.749672 31.898447 20.443503
6.189878 33.526136 20.932362
-1.308081 58.522667 27.023173
-1.309468 57.545079 28.894739
-1.319656 56.616387 27.769816
-1.308081 58.522667 27.023173
-1.341529 59.444137 25.094326
-0.932445 59.07711 19.261224
-1.15328 60.074211 20.243315
-1.014972 58.331478 21.14751
-0.932445 59.07711 19.261224
-0.632068 58.020038 18.330303
1.275863 53.6786 15.127318
0.709628 54.831715 15.848795
1.60409 51.984573 16.175774
1.8877 52.522697 14.44948
1.275863 53.6786 15.127318
-0.245725 49.287109 25.461172
-0.408975 51.127991 24.63784
-0.617058 50.218761 26.344789
0.189644 48.372815 24.623244
-0.245725 49.287109 25.461172
-0.018438 47.463585 26.330192
0.661627 44.701014 26.333273
0.173198 45.610592 27.12744
0.967235 45.559248 24.747696
0.661627 44.701014 26.333273
1.211931 43.710971 25.588705
3.698381 39.237038 23.015812
3.416254 41.13245 22.104042
3.046108 40.475441 23.598726
4.337631 37.95245 22.45521
3.698381 39.237038 23.015812
3 0 12 10
3 0 14 12
3 1 17 15
3 1 19 17
3 1 21 19
3 2 34 36
3 34 22 35
3 34 35 36
3 2 23 22
3 3 37 39
3 37 24 38
3 37 38 39
3 40 25 41
3 42 41 9
3 40 41 42
3 43 26 44
3 45 44 25
3 43 44 45
3 47 46 26
3 5 48 50
3 50 49 11
3 48 49 50
3 5 51 52
3 5 53 55
3 53 27 54
3 53 54 55
3 58 57 13
3 56 57 58
3 4 59 60
3 6 61 63
3 63 62 16
3 61 62 63
3 6 64 65
3 6 66 67
3 7 68 70
3 70 69 18
3 68 69 70
3 7 71 72
3 7 73 75
3 73 28 74
3 73 74 75
3 8 29 20
3 8 30 29
3 76 31 77
3 78 32 79
3 80 33 81
3 82 81 32
3 80 81 82
3 84 83 33
3 85 2 86
3 87 9 88
3 89 88 3
3 87 88 89
3 90 9 91
3 94 93 9
3 92 93 94
3 10 95 97
3 95 11 96
3 95 96 97
3 12 11 10
3 12 5 11
3 12 13 5
3 14 13 12
3 14 98 100
3 100 99 13
3 98 99 100
3 15 16 4
3 17 16 15
3 17 6 16
3 17 18 6
3 19 18 17
3 19 7 18
3 19 20 7
3 21 20 19
3 21 8 20
3 22 101 102
3 22 103 104
3 22 105 107
3 105 10 106
3 105 106 107
3 23 10 22
3 23 0 10
3 24 108 109
3 24 110 112
3 110 4 111
3 110 111 112
3 9 24 3
3 25 24 9
3 25 4 24
3 25 15 4
3 26 15 25
3 26 1 15
3 26 113 115
3 115 114 1
3 113 114 115
3 117 116 26
3 118 3 119
3 120 3 121
3 123 122 3
3 11 124 125
3 127 126 11
3 27 128 129
3 27 130 131
3 13 27 5
3 132 27 133
3 134 133 13
3 132 133 134
3 136 135 27
3 16 137 139
3 139 138 4
3 137 138 139
3 141 140 16
3 18 142 144
3 144 143 6
3 142 143 144
3 146 145 18
3 28 147 148
3 28 149 151
3 149 2 150
3 149 150 151
3 20 28 7
3 29 28 20
3 29 2 28
3 29 23 2
3 30 23 29
3 30 0 23
3 152 21 153
3 154 153 1
3 152 153 154
3 31 155 157
3 155 21 156
3 155 156 157
3 31 8 21
3 158 31 159
3 32 160 162
3 160 31 161
3 160 161 162
3 32 8 31
3 32 30 8
3 33 30 32
3 33 0 30
3 33 14 0
3 163 14 164
3 165 164 33
3 163 164 165
3 167 166 14
