ply
format ascii 1.0
element vertex 95
property float x
property float y
property float z
element face 78
property list uchar int vertex_index
end_header
6.600822 -108.632172 33.725662
5.018684 -105.385651 33.477936
5.85519 -112.323677 27.648003
2.95381 -113.649841 22.209942
3.281422 -109.381973 28.233801
6.076414 -110.466797 30.767588
4.372355 -111.037689 28.118172
4.84873 -109.09623 31.07518
8.436607 -107.911659 36.167221
7.939188 -109.680885 33.206596
7.65992 -111.430992 30.072166
7.326538 -106.778572 36.447128
5.619446 -107.18222 33.810593
9.027622 -106.087257 38.882538
4.263161 -113.041481 25.017429
2.912912 -111.470589 25.283159
4.017124 -107.366707 30.983761
6.940983 -106.01577 36.360415
7.715719 -105.824745 37.666466
8.566261 -105.479087 38.88417
9.292055 -105.13784 40.096039
7.715719 -105.824745 37.666466
8.17708 -106.432914 37.664833
8.566261 -105.479087 38.88417
5.059176 -112.682579 26.332716
5.125362 -113.636696 24.737671
5.921376 -113.277794 26.052957
2.629639 -109.474239 26.737376
2.445384 -110.518547 25.262056
3.097167 -110.426281 26.75848
6.766908 -112.761463 27.251198
7.669273 -112.315121 28.463279
6.757555 -111.877335 28.860084
5.921376 -113.277794 26.052957
6.766908 -112.761463 27.251198
3.175885 -114.776924 20.653083
3.747743 -114.383964 22.035765
4.307398 -105.361019 32.000633
4.905579 -104.345097 33.132248
9.14558 -108.257992 35.80112
9.337816 -107.39022 37.286743
8.89687 -109.142605 34.320808
9.14558 -108.257992 35.80112
8.187898 -108.796272 34.686909
8.763241 -109.984928 32.744934
8.89687 -109.142605 34.320808
7.799554 -110.555938 31.639381
8.623607 -110.859982 31.177719
8.763241 -109.984928 32.744934
1.869209 -113.012958 20.788446
2.465345 -113.922283 20.740113
2.357673 -112.740516 22.258276
6.087437 -106.217594 35.042147
6.472992 -106.980396 35.128861
6.940983 -106.01577 36.360415
5.787056 -105.31931 34.875819
5.319065 -106.283935 33.644264
6.087437 -106.217594 35.042147
5.572475 -104.390144 34.586314
5.787056 -105.31931 34.875819
4.905579 -104.345097 33.132248
5.572475 -104.390144 34.586314
9.81617 -105.573757 40.005555
9.292055 -105.13784 40.096039
9.633323 -106.478019 38.644402
9.81617 -105.573757 40.005555
8.732114 -106.999458 37.524879
9.337816 -107.39022 37.286743
9.633323 -106.478019 38.644402
4.402418 -114.079785 23.439509
5.125362 -113.636696 24.737671
3.608486 -113.345661 23.613686
3.747743 -114.383964 22.035765
4.402418 -114.079785 23.439509
2.337224 -111.650891 23.794885
2.357673 -112.740516 22.258276
2.933361 -112.560215 23.746551
2.337224 -111.650891 23.794885
2.445384 -110.518547 25.262056
3.806617 -106.351548 30.753545
4.517904 -106.376179 32.230849
4.307398 -105.361019 32.000633
3.314977 -107.388073 29.491419
3.806617 -106.351548 30.753545
2.947126 -108.395706 28.116439
3.649273 -108.37434 29.608781
3.314977 -107.388073 29.491419
2.629639 -109.474239 26.737376
2.947126 -108.395706 28.116439
8.600561 -111.693996 29.555911
8.623607 -110.859982 31.177719
8.600561 -111.693996 29.555911
7.669273 -112.315121 28.463279
3.175885 -114.776924 20.653083
2.465345 -113.922283 20.740113
3 0 7 5
3 0 9 8
3 0 5 9
3 18 17 11
3 19 13 20
3 21 11 22
3 23 22 13
3 21 22 23
3 2 24 26
3 24 14 25
3 24 25 26
3 4 15 6
3 4 27 29
3 29 28 15
3 27 28 29
3 1 16 12
3 2 30 32
3 32 31 10
3 30 31 32
3 2 33 34
3 3 35 36
3 5 6 2
3 7 6 5
3 7 4 6
3 38 37 1
3 8 39 40
3 9 41 43
3 43 42 8
3 41 42 43
3 9 44 45
3 9 46 48
3 46 10 47
3 46 47 48
3 5 10 9
3 5 2 10
3 51 50 3
3 49 50 51
3 11 12 0
3 52 12 53
3 54 53 11
3 52 53 54
3 55 1 56
3 57 56 12
3 55 56 57
3 58 1 59
3 61 60 1
3 13 62 63
3 13 64 65
3 13 66 68
3 66 8 67
3 66 67 68
3 11 8 13
3 11 0 8
3 14 69 70
3 14 71 73
3 71 3 72
3 71 72 73
3 6 14 2
3 15 14 6
3 15 3 14
3 15 74 76
3 76 75 3
3 74 75 76
3 78 77 15
3 12 7 0
3 16 7 12
3 16 4 7
3 79 16 80
3 81 80 1
3 79 80 81
3 82 16 83
3 84 4 85
3 86 85 16
3 84 85 86
3 88 87 4
3 10 89 90
3 92 91 10
3 94 93 3
