ply
format ascii 1.0
element vertex 96
property float x
property float y
property float z
element face 80
property list uchar int vertex_index
end_header
-9.238657 -79.194824 -4.195185
-10.192057 -68.211891 -1.730318
-10.937693 -73.606667 -3.327477
-11.805273 -74.602173 -0.507802
-11.360451 -80.205429 -1.616863
-10.343712 -76.389252 -3.834414
-10.287394 -72.867233 -4.681444
-9.478024 -75.627609 -5.138252
-11.931114 -77.382721 -1.153193
-12.198822 -80.377754 -0.278955
-10.898516 -70.871796 -2.630997
-10.237005 -67.508362 -3.214449
-10.569216 -70.153831 -4.049448
-11.056395 -71.453049 -1.170298
-11.48317 -74.188019 -1.939278
-11.21357 -76.981949 -2.512024
-10.319681 -79.80262 -2.916212
-8.956104 -82.625443 -3.208572
-8.768743 -78.805428 -4.83675
-8.888426 -77.02182 -5.308283
-9.358341 -77.411216 -4.666718
-12.458134 -80.345692 0.41171
-12.286913 -78.980175 -0.014653
-9.741159 -66.580558 -1.952811
-9.533701 -66.930496 -1.180297
-10.232713 -71.086983 -5.058255
-9.981832 -72.427746 -5.349355
-11.387228 -73.251571 -0.086782
-11.818141 -74.729065 0.228688
-11.430834 -73.027611 -0.83905
-11.012789 -71.677009 -0.418031
-11.387228 -73.251571 -0.086782
-9.905419 -65.838028 -3.4432
-10.199362 -67.102021 -3.935614
-8.795275 -84.239953 -2.697577
-9.578916 -82.83104 -2.573664
-9.577147 -73.807934 -5.577758
-9.981832 -72.427746 -5.349355
-9.882709 -74.247421 -4.909848
-9.130128 -75.175907 -5.791304
-9.229252 -73.356232 -6.230811
-9.577147 -73.807934 -5.577758
-9.130128 -75.175907 -5.791304
-8.888426 -77.02182 -5.308283
-12.090139 -76.092384 -0.129076
-11.818141 -74.729065 0.228688
-12.153059 -77.482658 -0.451772
-11.868194 -75.992447 -0.830497
-12.090139 -76.092384 -0.129076
-12.064968 -78.880237 -0.716074
-12.153059 -77.482658 -0.451772
-12.286913 -78.980175 -0.014653
-10.365467 -68.424755 -4.353113
-10.199362 -67.102021 -3.935614
-10.403111 -68.831097 -3.631949
-10.373624 -69.730281 -4.742257
-10.428305 -71.510532 -4.365446
-10.232713 -71.086983 -5.058255
-10.365467 -68.424755 -4.353113
-10.373624 -69.730281 -4.742257
-10.075117 -68.510059 -0.965293
-9.533701 -66.930496 -1.180297
-10.507286 -70.130639 -0.685283
-11.012789 -71.677009 -0.418031
-10.624226 -69.83247 -1.450308
-10.075117 -68.510059 -0.965293
-10.507286 -70.130639 -0.685283
-9.763632 -66.228794 -2.694877
-9.741159 -66.580558 -1.952811
-10.214531 -67.860127 -2.472384
-9.763632 -66.228794 -2.694877
-9.905419 -65.838028 -3.4432
-12.228189 -81.736061 0.203146
-12.458134 -80.345692 0.41171
-11.7771 -81.789379 -0.462724
-12.228189 -81.736061 0.203146
-11.357915 -81.703216 -1.131679
-11.779636 -80.291591 -0.947909
-11.7771 -81.789379 -0.462724
-10.781089 -81.621032 -1.777809
-11.357915 -81.703216 -1.131679
-10.260704 -81.419628 -2.427484
-10.840066 -80.004024 -2.266538
-10.781089 -81.621032 -1.777809
-9.637892 -81.214032 -3.062392
-10.260704 -81.419628 -2.427484
-9.578916 -82.83104 -2.573664
-8.142264 -84.031197 -3.340244
-8.795275 -84.239953 -2.697577
-8.382191 -82.315651 -3.845357
-8.142264 -84.031197 -3.340244
-8.523467 -80.600341 -4.338663
-9.09738 -80.910134 -3.701879
-8.382191 -82.315651 -3.845357
-8.768743 -78.805428 -4.83675
-8.523467 -80.600341 -4.338663
3 0 7 5
3 0 18 20
3 20 19 7
3 18 19 20
3 21 9 22
3 1 23 24
3 2 12 10
3 26 25 6
3 3 27 28
3 3 29 31
3 29 13 30
3 29 30 31
3 3 14 13
3 4 15 8
3 4 16 15
3 33 32 11
3 34 17 35
3 5 6 2
3 7 6 5
3 7 36 38
3 38 37 6
3 36 37 38
3 7 39 41
3 39 40 41
3 43 42 7
3 44 3 45
3 46 8 47
3 48 47 3
3 46 47 48
3 9 49 51
3 49 8 50
3 49 50 51
3 9 4 8
3 10 11 1
3 12 11 10
3 12 52 54
3 54 53 11
3 52 53 54
3 6 12 2
3 55 12 56
3 57 56 6
3 55 56 57
3 59 58 12
3 60 1 61
3 13 62 63
3 13 64 66
3 64 1 65
3 64 65 66
3 13 10 1
3 14 10 13
3 14 2 10
3 8 14 3
3 15 14 8
3 15 2 14
3 15 5 2
3 16 5 15
3 16 0 5
3 11 67 69
3 69 68 1
3 67 68 69
3 71 70 11
3 72 9 73
3 74 9 75
3 76 4 77
3 78 77 9
3 76 77 78
3 79 4 80
3 81 16 82
3 83 82 4
3 81 82 83
3 17 84 86
3 84 16 85
3 84 85 86
3 17 0 16
3 87 17 88
3 89 17 90
3 91 0 92
3 93 92 17
3 91 92 93
3 95 94 0
