ply
format ascii 1.0
element vertex 473
property float x
property float y
property float z
element face 543
property list uchar int vertex_index
end_header
3.129343 -18.759716 51.199524
3.590025 -52.441551 72.396652
4.827971 -46.932961 53.494423
1.928841 -28.353233 65.833199
3.38047 -41.620026 68.261215
4.698549 -34.067749 51.210289
0.016348 -29.78319 46.657738
-1.336836 -13.380199 46.330704
2.373075 -59.354347 65.54631
2.890562 -57.12809 56.97525
5.43852 -49.703064 62.152931
6.019957 -38.019035 58.297752
4.680784 -23.700863 57.22081
4.010357 -26.638889 50.960297
2.487127 -31.955694 48.85424
1.72654 -24.23772 48.742546
3.435705 -56.015579 68.990715
4.102388 -54.675198 64.167747
4.671547 -51.051052 67.229904
2.645782 -35.345467 66.642044
4.985376 -39.847824 63.055847
4.387995 -33.289349 61.725357
5.478487 -31.161673 57.339058
3.644299 -26.061476 61.259026
2.645437 -57.468365 73.69693
4.07704 -52.323246 55.226311
3.324001 -51.169178 51.459854
3.816372 -47.249786 70.375893
5.019217 -40.856728 52.07991
3.409195 -45.444855 50.229843
3.088934 -39.053322 49.341743
0.801565 -37.216389 46.937435
2.248291 -10.689334 51.584404
0.923079 -16.126425 48.854965
0.220676 -7.893178 48.879723
2.763222 -58.081535 61.21627
4.353294 -53.465591 59.499626
5.541294 -48.349174 57.483086
5.172564 -45.732811 65.051636
6.073835 -44.193687 60.022057
6.083179 -42.577122 55.615578
5.981609 -36.094109 54.291222
5.396347 -28.944668 53.726494
4.535473 -21.271809 53.87529
3.827644 -15.81496 57.709991
3.608416 -13.305792 54.419708
-0.706306 -21.750168 46.497726
3.582405 -22.739752 51.035614
2.937452 -25.450813 49.816277
2.514416 -21.491041 49.88916
3.665129 -54.251228 70.703911
4.132284 -53.560764 68.198181
4.143803 -51.740288 69.820648
2.27253 -31.937986 66.130173
3.559628 -34.324211 64.133041
3.192137 -30.854053 63.703255
4.021627 -29.754566 61.384621
2.832621 -27.215454 63.490662
3.190886 -54.958607 73.168961
3.03182 -56.732815 71.375824
4.519255 -49.708843 54.338844
3.752943 -51.750427 53.281464
4.03459 -49.05312 52.500801
4.91507 -37.549416 51.56797
4.135246 -39.962757 50.632713
3.946428 -36.578663 50.236572
1.237356 -30.874313 47.776615
1.604874 -34.591335 47.921722
0.402842 -33.586304 46.778717
1.87085 -6.651355 51.683167
1.27507 -9.315526 50.242935
0.949034 -5.250346 50.225601
1.752264 -60.917419 63.847572
1.951067 -60.26403 61.827591
2.599062 -58.674911 63.375656
4.846445 -52.2435 63.209259
4.29122 -54.056526 61.797897
5.01354 -51.609592 60.80127
5.018871 -50.981628 58.500877
5.588375 -49.031006 59.747063
3.661053 -44.505241 69.28907
4.520149 -46.491245 67.695763
4.435835 -43.690147 66.613441
5.609753 -38.943581 60.601807
5.734022 -42.040482 61.471085
6.122597 -41.19294 59.080956
6.20978 -43.397915 57.720779
6.258703 -40.321823 56.867203
6.105011 -39.423912 54.866486
6.156466 -37.069767 56.183403
5.098274 -27.497847 57.182602
5.60458 -30.064388 55.424484
5.210602 -26.339207 55.352661
4.987148 -25.160757 53.725662
4.773809 -22.495005 55.456253
3.871906 -14.568644 55.99736
3.452755 -10.549077 56.307266
3.182774 -9.289171 54.684654
2.10388 -60.106518 67.711723
2.526873 -44.688065 48.786644
2.714294 -47.710819 49.225143
-0.244789 -14.762459 47.643948
0.107683 -18.909472 47.653828
-1.036413 -17.588482 46.428303
4.38982 -30.424147 51.010788
3.671904 -33.021282 49.971573
3.32955 -29.304409 49.835648
2.119722 -28.162817 48.757271
0.859608 -27.001698 47.693657
2.971148 -57.719265 67.266884
3.256433 -57.032352 64.964951
3.806637 -55.327969 66.576622
4.540941 -52.891945 65.687622
5.119438 -50.373734 64.660942
3.026581 -38.57135 67.361961
4.218014 -40.738014 65.620598
3.912252 -37.618752 64.779419
4.719353 -36.655067 62.2873
5.371698 -35.674786 59.918755
5.795219 -34.673012 57.710602
5.052738 -32.236256 59.449631
4.682142 -28.636314 59.201576
4.285175 -24.889889 59.161339
2.641182 -58.453033 69.552353
3.523022 -54.791183 56.117722
3.355558 -54.30175 54.096169
3.800932 -49.883743 71.439941
2.539742 -42.496468 70.947357
1.28738 -40.453133 72.684631
2.132023 -39.516483 70.006065
1.717724 -36.357262 69.225273
1.334627 -33.010345 68.640633
4.993906 -43.984337 52.730507
4.190645 -46.19598 51.7827
4.221361 -43.168087 51.152985
3.29261 -42.337105 49.737732
2.265678 -41.499634 48.423782
2.81506 -35.590996 49.047142
1.95224 -38.135201 48.136154
2.676044 -14.732854 51.402184
2.080996 -17.460001 50.017738
1.65991 -13.391956 50.154243
0.549076 -12.010609 48.903168
-0.562185 -10.594247 47.589325
-0.828156 -6.430799 47.442932
-1.596735 -9.15842 46.16724
1.400322 -61.810005 60.355026
2.106785 -59.744236 59.80307
2.859396 -57.572304 59.079185
3.466658 -56.400501 62.675102
3.583834 -55.823765 60.422775
3.601694 -55.292759 58.230637
4.28087 -52.891792 57.301971
4.852732 -50.350502 56.339928
5.285746 -47.65094 55.39315
4.430498 -49.164783 68.791939
5.019835 -48.451725 66.155403
5.511156 -47.741318 63.567062
5.14954 -42.870476 63.995468
5.71076 -44.969509 62.480057
5.849798 -47.026375 61.067451
5.989428 -46.298615 58.699409
5.89801 -45.551071 56.503319
5.562981 -44.779751 54.509659
5.681629 -41.729553 53.733421
5.650644 -38.499046 53.100708
5.487234 -35.092785 52.636795
5.929108 -33.646965 55.698738
5.736694 -32.596169 53.910118
5.213333 -31.521553 52.35331
4.852972 -27.80299 52.246521
4.430984 -23.961786 52.296486
3.972677 -20.028431 52.467361
3.275188 -22.227978 61.323357
3.88372 -21.01878 59.296745
3.496716 -17.050987 59.559013
4.249994 -19.796406 57.414833
4.319586 -18.560846 55.690804
4.067375 -17.309422 54.127022
3.503971 -16.036161 52.708984
3.051132 -12.016472 52.960213
2.639406 -7.9946 53.154366
3.423311 -48.38485 50.808456
1.322054 -20.213486 48.786575
0.479919 -23.00164 47.659882
-0.354076 -25.82748 46.567825
3.390455 -53.700079 72.782806
3.128534 -54.053296 74.045559
3.328104 -52.794767 73.659404
-0.347969 -31.184193 46.103632
-0.154722 -33.085751 46.164122
0.209595 -31.684747 46.718227
1.2567 -3.940889 50.932083
1.409942 -5.95085 50.954384
1.717608 -4.641393 51.660866
3.266968 -9.147685 57.319744
3.442788 -11.168798 57.173572
3.266868 -8.53817 56.427971
3.266968 -9.147685 57.319744
1.946366 -60.51938 65.707928
1.811769 -60.895466 66.790634
2.238478 -59.730432 66.629017
2.06267 -60.135883 64.696941
1.63596 -61.300916 64.858559
1.946366 -60.51938 65.707928
2.598088 -58.073458 56.346046
2.556503 -58.235752 57.370022
2.232293 -45.865155 48.243782
2.058636 -44.312401 48.088942
2.488802 -57.836483 74.806896
2.548665 -56.937862 75.736748
2.705299 -56.569744 74.626781
2.333878 -58.734226 73.820949
2.488802 -57.836483 74.806896
2.476797 -58.343984 72.743374
2.333878 -58.734226 73.820949
3.215838 -52.490606 51.813396
3.430308 -52.781231 52.724201
3.538472 -51.459803 52.370659
3.054417 -52.243545 50.88874
3.215838 -52.490606 51.813396
2.146656 -42.93022 72.298813
2.714258 -43.906727 71.469001
1.060996 -38.906958 72.270866
0.665296 -39.402466 73.59711
1.483317 -38.438633 70.931583
1.709701 -39.984808 71.345348
1.060996 -38.906958 72.270866
1.276168 -36.859022 70.541187
1.924873 -37.936872 69.615669
1.483317 -38.438633 70.931583
0.726194 -31.801564 69.702228
0.88589 -33.54216 69.925636
1.169626 -31.244085 68.452763
0.726194 -31.801564 69.702228
1.002381 -38.940899 47.038424
1.577719 -39.400305 47.637783
1.376902 -37.675795 47.536794
0.484136 -38.530756 46.376909
1.002381 -38.940899 47.038424
-1.316185 -5.689542 46.668972
-0.928262 -4.359914 47.300111
-1.700474 -7.053352 46.031126
-1.212446 -7.794609 46.805086
-1.316185 -5.689542 46.668972
-2.053246 -8.443182 45.390096
-1.700474 -7.053352 46.031126
1.30242 -62.104561 61.27753
1.097322 -62.785598 60.50943
3.102526 -20.253473 61.429531
2.736181 -20.863167 62.475079
3.406792 -19.648874 60.416225
3.579454 -21.623379 60.310051
3.102526 -20.253473 61.429531
3.66218 -16.432973 58.634502
3.318337 -15.034716 59.722553
3.483801 -14.416702 58.798042
2.725465 -6.637322 54.003422
2.91109 -8.641886 53.91951
2.997149 -7.284608 54.768566
2.464994 -5.990606 53.190278
2.725465 -6.637322 54.003422
2.760263 -49.14649 49.481194
2.464221 -48.854742 48.650856
2.978024 -55.314865 74.362797
3.128534 -54.053296 74.045559
2.918162 -56.213486 73.432945
2.705299 -56.569744 74.626781
2.978024 -55.314865 74.362797
0.056044 -34.946343 46.227001
0.255405 -36.761385 46.30636
0.602204 -35.401347 46.858076
0.056044 -34.946343 46.227001
-0.154722 -33.085751 46.164122
1.851666 -60.590725 62.837581
1.577792 -61.331573 62.013813
1.478391 -61.658268 63.023803
3.630232 -13.80174 57.874935
3.483801 -14.416702 58.798042
3.652363 -13.178581 57.018619
3.849775 -15.191802 56.853676
3.630232 -13.80174 57.874935
3.66233 -12.558861 56.152313
3.652363 -13.178581 57.018619
3.442788 -11.168798 57.173572
3.131877 -7.908216 55.616665
3.317765 -9.919124 55.49596
3.266868 -8.53817 56.427971
2.946251 -5.903654 55.700577
2.997149 -7.284608 54.768566
3.131877 -7.908216 55.616665
1.689812 -61.318483 67.797413
1.963331 -60.508533 68.779625
1.689812 -61.318483 67.797413
1.811769 -60.895466 66.790634
1.367424 -62.04562 63.946331
1.63596 -61.300916 64.858559
1.478391 -61.658268 63.023803
1.367424 -62.04562 63.946331
2.326003 -47.376531 48.463031
2.620584 -46.199442 49.005893
2.232293 -45.865155 48.243782
2.464221 -48.854742 48.650856
2.326003 -47.376531 48.463031
2.669989 -57.976209 71.582821
2.476797 -58.343984 72.743374
2.838628 -57.10059 72.536377
2.47467 -58.836318 70.671086
2.669989 -57.976209 71.582821
2.836501 -57.592924 70.464089
2.231981 -59.681791 69.69994
2.47467 -58.836318 70.671086
2.372531 -59.279775 68.632038
1.963331 -60.508533 68.779625
2.231981 -59.681791 69.69994
3.192989 -55.756237 55.517055
2.876759 -56.92469 55.945819
3.206792 -55.959637 56.546486
3.109256 -55.511521 54.506279
3.192989 -55.756237 55.517055
3.43929 -54.546466 55.106946
3.067935 -55.314729 53.503487
3.109256 -55.511521 54.506279
3.231616 -54.056893 53.131554
3.554251 -53.026089 53.688817
3.430308 -52.781231 52.724201
3.067935 -55.314729 53.503487
3.231616 -54.056893 53.131554
-1.690952 -14.824025 45.700661
-1.817255 -12.690313 45.607357
3.494755 -50.244578 72.752426
3.695479 -51.162647 71.918296
3.389302 -51.523482 73.230782
3.461145 -48.945789 72.249427
3.494755 -50.244578 72.752426
3.468865 -47.628811 71.717404
3.808652 -48.566765 70.907917
3.461145 -48.945789 72.249427
3.352574 -46.283386 71.183269
3.468865 -47.628811 71.717404
3.274914 -44.911113 70.639858
3.738713 -45.877513 69.832482
3.352574 -46.283386 71.183269
3.100397 -43.500855 70.118213
3.274914 -44.911113 70.639858
2.714258 -43.906727 71.469001
0.914019 -40.913285 74.026382
0.291935 -39.862617 74.938862
0.665296 -39.402466 73.59711
1.520474 -41.908552 73.16745
0.914019 -40.913285 74.026382
1.913561 -41.474801 71.815994
2.146656 -42.93022 72.298813
1.520474 -41.908552 73.16745
1.077438 -35.215618 70.217956
1.276168 -36.859022 70.541187
1.526175 -34.683803 68.932953
1.077438 -35.215618 70.217956
0.88589 -33.54216 69.925636
1.638578 -30.707905 67.197533
1.803578 -32.474165 67.385403
1.169626 -31.244085 68.452763
1.466733 -28.915529 67.049046
2.100685 -30.145609 65.981686
1.638578 -30.707905 67.197533
3.389302 -51.523482 73.230782
3.328104 -52.794767 73.659404
1.928038 -42.718186 47.907511
2.058636 -44.312401 48.088942
2.396275 -43.09385 48.605213
1.734437 -41.082521 47.781597
2.108959 -39.817418 48.279968
1.577719 -39.400305 47.637783
1.928038 -42.718186 47.907511
1.734437 -41.082521 47.781597
0.484136 -38.530756 46.376909
0.255405 -36.761385 46.30636
0.824294 -3.228493 50.136971
1.2567 -3.940889 50.932083
0.452882 -4.521171 49.478684
0.824294 -3.228493 50.136971
0.088703 -5.842586 48.805745
0.584855 -6.571762 49.552662
0.452882 -4.521171 49.478684
-0.435713 -5.111397 48.087349
-0.928262 -4.359914 47.300111
-0.30374 -7.161988 48.161327
0.088703 -5.842586 48.805745
-0.435713 -5.111397 48.087349
-1.947205 -10.579424 45.525625
-1.817255 -12.690313 45.607357
-1.466785 -11.269309 46.248972
-1.947205 -10.579424 45.525625
-2.053246 -8.443182 45.390096
1.1926 -62.572079 59.68972
1.097322 -62.785598 60.50943
1.484266 -61.619609 59.406029
1.1926 -62.572079 59.68972
1.675695 -61.037017 61.091308
1.30242 -62.104561 61.27753
1.577792 -61.331573 62.013813
1.837497 -60.586725 59.13005
1.484266 -61.619609 59.406029
1.753553 -60.77712 60.079048
2.164614 -59.543825 58.783931
1.837497 -60.586725 59.13005
2.54092 -58.457859 58.421989
2.164614 -59.543825 58.783931
2.48309 -58.65827 59.441128
2.874979 -57.350197 58.027218
2.556503 -58.235752 57.370022
2.54092 -58.457859 58.421989
1.333029 -27.061926 66.962013
1.466733 -28.915529 67.049046
1.778109 -26.478303 65.785943
1.333029 -27.061926 66.962013
2.229999 -25.909413 64.614674
2.380731 -27.784343 64.66193
1.778109 -26.478303 65.785943
2.664865 -25.319208 63.483742
2.229999 -25.909413 64.614674
2.062242 -24.013168 64.607754
3.070704 -24.742219 62.367924
3.23846 -26.638465 62.374844
2.664865 -25.319208 63.483742
2.886148 -22.82547 62.400089
2.736181 -20.863167 62.475079
3.459744 -24.144727 61.291191
3.070704 -24.742219 62.367924
2.886148 -22.82547 62.400089
3.058609 -15.648003 60.699539
3.318337 -15.034716 59.722553
3.213291 -17.664978 60.547359
2.775183 -16.261993 61.687886
3.058609 -15.648003 60.699539
3.690218 -19.034883 59.427879
3.406792 -19.648874 60.416225
3.213291 -17.664978 60.547359
2.080716 -5.318983 52.454678
2.255128 -7.322978 52.418767
2.464994 -5.990606 53.190278
1.717608 -4.641393 51.660866
2.080716 -5.318983 52.454678
2.598088 -58.073458 56.346046
2.876759 -56.92469 55.945819
3.114771 -49.483505 50.27285
3.068803 -48.047835 50.0168
2.760263 -49.14649 49.481194
3.065116 -50.87567 50.598549
3.373656 -49.777014 51.134155
3.114771 -49.483505 50.27285
3.054417 -52.243545 50.88874
3.065116 -50.87567 50.598549
-1.540741 -16.928166 45.74946
-1.186624 -15.48434 46.379503
-1.690952 -14.824025 45.700661
-1.397686 -19.043101 45.818171
-1.540741 -16.928166 45.74946
-1.232633 -21.123945 45.852882
-0.87136 -19.669325 46.463014
-1.397686 -19.043101 45.818171
-1.074505 -23.201159 45.910518
-1.232633 -21.123945 45.852882
-0.89839 -25.239815 45.945568
-0.530191 -23.788824 46.532775
-1.074505 -23.201159 45.910518
-0.724631 -27.260008 46.000889
-0.89839 -25.239815 45.945568
-0.539419 -29.237862 46.045845
-0.168864 -27.805335 46.612781
-0.724631 -27.260008 46.000889
-0.347969 -31.184193 46.103632
-0.539419 -29.237862 46.045845
3 0 49 47
3 1 52 50
3 3 55 53
3 3 57 55
3 1 186 188
3 186 58 187
3 186 187 188
3 1 50 58
3 2 62 60
3 5 65 63
3 6 68 66
3 6 189 191
3 191 190 68
3 189 190 191
3 192 71 193
3 194 193 69
3 192 193 194
3 8 74 72
3 10 77 75
3 10 79 77
3 4 82 80
3 11 85 83
3 11 87 85
3 11 89 87
3 12 92 90
3 12 94 92
3 195 96 196
3 198 197 96
3 8 199 201
3 201 200 98
3 199 200 201
3 8 202 204
3 202 72 203
3 202 203 204
3 9 205 206
3 208 207 99
3 7 103 101
3 13 106 104
3 15 107 48
3 15 108 107
3 16 111 109
3 18 112 51
3 18 113 112
3 19 116 114
3 21 117 54
3 21 118 117
3 21 120 118
3 23 121 56
3 23 122 121
3 24 209 211
3 209 210 211
3 24 212 213
3 24 214 215
3 16 123 59
3 16 109 123
3 25 125 124
3 26 216 218
3 218 217 61
3 216 217 218
3 26 219 220
3 221 127 222
3 223 128 224
3 225 129 226
3 227 226 128
3 225 226 227
3 228 130 229
3 230 229 129
3 228 229 230
3 231 131 232
3 234 233 131
3 28 134 132
3 30 135 64
3 30 136 135
3 14 137 105
3 31 138 67
3 31 235 237
3 237 236 138
3 235 236 237
3 31 238 239
3 32 141 139
3 34 142 70
3 34 143 142
3 240 144 241
3 242 145 243
3 244 243 144
3 242 243 244
3 246 245 145
3 247 146 248
3 35 147 73
3 35 148 147
3 17 149 110
3 36 150 76
3 36 151 150
3 36 152 151
3 37 153 78
3 37 154 153
3 27 155 126
3 38 156 81
3 38 157 156
3 20 158 115
3 39 159 84
3 39 160 159
3 39 161 160
3 40 162 86
3 40 163 162
3 40 164 163
3 41 165 88
3 41 166 165
3 22 167 119
3 42 168 91
3 42 169 168
3 42 170 169
3 43 171 93
3 43 172 171
3 249 173 250
3 251 174 252
3 253 252 173
3 251 252 253
3 44 254 256
3 254 175 255
3 254 255 256
3 44 176 175
3 44 177 176
3 45 178 95
3 45 179 178
3 45 180 179
3 257 181 258
3 259 258 97
3 257 258 259
3 261 260 181
3 29 182 133
3 263 262 100
3 33 183 140
3 46 184 102
3 46 185 184
3 47 48 13
3 49 48 47
3 49 15 48
3 50 51 16
3 52 51 50
3 52 18 51
3 53 54 19
3 55 54 53
3 55 21 54
3 55 56 21
3 57 56 55
3 57 23 56
3 58 264 265
3 58 266 268
3 266 24 267
3 266 267 268
3 58 59 24
3 50 59 58
3 50 16 59
3 60 61 25
3 62 61 60
3 62 26 61
3 63 64 28
3 65 64 63
3 65 30 64
3 66 67 14
3 68 67 66
3 68 31 67
3 68 269 271
3 271 270 31
3 269 270 271
3 273 272 68
3 69 70 32
3 71 70 69
3 71 34 70
3 72 274 276
3 274 73 275
3 274 275 276
3 74 73 72
3 74 35 73
3 75 76 17
3 77 76 75
3 77 36 76
3 77 78 36
3 79 78 77
3 79 37 78
3 80 81 27
3 82 81 80
3 82 38 81
3 83 84 20
3 85 84 83
3 85 39 84
3 85 86 39
3 87 86 85
3 87 40 86
3 87 88 40
3 89 88 87
3 89 41 88
3 90 91 22
3 92 91 90
3 92 42 91
3 92 93 42
3 94 93 92
3 94 43 93
3 277 44 278
3 279 95 280
3 281 280 44
3 279 280 281
3 96 282 284
3 282 95 283
3 282 283 284
3 96 45 95
3 96 97 45
3 285 97 286
3 287 286 96
3 285 286 287
3 290 289 97
3 288 289 290
3 98 291 292
3 294 293 98
3 72 295 296
3 72 297 298
3 99 100 29
3 299 100 300
3 301 300 99
3 299 300 301
3 303 302 100
3 101 102 33
3 103 102 101
3 103 46 102
3 104 105 5
3 106 105 104
3 106 14 105
3 48 106 13
3 107 106 48
3 107 14 106
3 107 66 14
3 108 66 107
3 108 6 66
3 109 110 8
3 111 110 109
3 111 17 110
3 51 111 16
3 112 111 51
3 112 17 111
3 112 75 17
3 113 75 112
3 113 10 75
3 114 115 4
3 116 115 114
3 116 20 115
3 54 116 19
3 117 116 54
3 117 20 116
3 117 83 20
3 118 83 117
3 118 11 83
3 118 119 11
3 120 119 118
3 120 22 119
3 56 120 21
3 121 120 56
3 121 22 120
3 121 90 22
3 122 90 121
3 122 12 90
3 59 304 306
3 306 305 24
3 304 305 306
3 123 307 309
3 309 308 59
3 307 308 309
3 123 310 311
3 123 312 314
3 312 98 313
3 312 313 314
3 109 98 123
3 109 8 98
3 124 315 317
3 317 316 9
3 315 316 317
3 125 318 320
3 320 319 124
3 318 319 320
3 125 321 322
3 61 125 25
3 323 125 324
3 325 324 61
3 323 324 325
3 327 326 125
3 329 328 7
3 330 126 331
3 332 331 1
3 330 331 332
3 333 126 334
3 335 27 336
3 337 336 126
3 335 336 337
3 338 27 339
3 340 80 341
3 342 341 27
3 340 341 342
3 127 343 345
3 343 80 344
3 343 344 345
3 127 4 80
3 128 346 348
3 346 347 348
3 128 349 350
3 128 351 353
3 351 127 352
3 351 352 353
3 129 127 128
3 129 4 127
3 129 114 4
3 130 114 129
3 130 19 114
3 354 130 355
3 131 356 358
3 356 130 357
3 356 357 358
3 131 19 130
3 131 53 19
3 359 53 360
3 361 360 131
3 359 360 361
3 362 3 363
3 364 363 53
3 362 363 364
3 365 1 366
3 132 133 2
3 134 133 132
3 134 29 133
3 64 134 28
3 135 134 64
3 135 29 134
3 135 99 29
3 136 99 135
3 136 367 369
3 369 368 99
3 367 368 369
3 105 65 5
3 137 65 105
3 137 30 65
3 67 137 14
3 138 137 67
3 138 30 137
3 138 136 30
3 370 136 371
3 372 371 138
3 370 371 372
3 374 373 136
3 376 375 31
3 139 140 0
3 141 140 139
3 141 33 140
3 70 141 32
3 142 141 70
3 142 33 141
3 142 101 33
3 143 101 142
3 143 7 101
3 377 71 378
3 379 71 380
3 381 34 382
3 383 382 71
3 381 382 383
3 144 384 385
3 144 386 388
3 386 34 387
3 386 387 388
3 144 143 34
3 145 143 144
3 145 7 143
3 145 389 391
3 391 390 7
3 389 390 391
3 393 392 145
3 146 394 395
3 146 396 397
3 73 398 400
3 398 146 399
3 398 399 400
3 147 146 73
3 147 401 403
3 403 402 146
3 401 402 403
3 147 404 405
3 148 406 408
3 408 407 147
3 406 407 408
3 148 409 411
3 409 9 410
3 409 410 411
3 110 74 8
3 149 74 110
3 149 35 74
3 76 149 17
3 150 149 76
3 150 35 149
3 150 148 35
3 151 148 150
3 151 9 148
3 151 124 9
3 152 124 151
3 152 25 124
3 78 152 36
3 153 152 78
3 153 25 152
3 153 60 25
3 154 60 153
3 154 2 60
3 126 52 1
3 155 52 126
3 155 18 52
3 81 155 27
3 156 155 81
3 156 18 155
3 156 113 18
3 157 113 156
3 157 10 113
3 115 82 4
3 158 82 115
3 158 38 82
3 84 158 20
3 159 158 84
3 159 38 158
3 159 157 38
3 160 157 159
3 160 10 157
3 160 79 10
3 161 79 160
3 161 37 79
3 86 161 39
3 162 161 86
3 162 37 161
3 162 154 37
3 163 154 162
3 163 2 154
3 163 132 2
3 164 132 163
3 164 28 132
3 88 164 40
3 165 164 88
3 165 28 164
3 165 63 28
3 166 63 165
3 166 5 63
3 119 89 11
3 167 89 119
3 167 41 89
3 91 167 22
3 168 167 91
3 168 41 167
3 168 166 41
3 169 166 168
3 169 5 166
3 169 104 5
3 170 104 169
3 170 13 104
3 93 170 42
3 171 170 93
3 171 13 170
3 171 47 13
3 172 47 171
3 172 0 47
3 412 3 413
3 414 3 415
3 416 57 417
3 418 417 3
3 416 417 418
3 419 57 420
3 419 420 421
3 422 23 423
3 424 423 57
3 422 423 424
3 173 425 426
3 173 427 429
3 427 23 428
3 427 428 429
3 173 122 23
3 174 122 173
3 174 12 122
3 175 430 431
3 175 432 434
3 432 433 434
3 175 435 437
3 435 174 436
3 435 436 437
3 176 174 175
3 176 12 174
3 176 94 12
3 177 94 176
3 177 43 94
3 95 177 44
3 178 177 95
3 178 43 177
3 178 172 43
3 179 172 178
3 179 0 172
3 179 139 0
3 180 139 179
3 180 32 139
3 97 180 45
3 181 180 97
3 181 32 180
3 181 69 32
3 438 69 439
3 440 439 181
3 438 439 440
3 442 441 69
3 444 443 9
3 133 62 2
3 182 62 133
3 182 26 62
3 100 182 29
3 445 182 446
3 447 446 100
3 445 446 447
3 448 26 449
3 450 449 182
3 448 449 450
3 452 451 26
3 140 49 0
3 183 49 140
3 183 15 49
3 102 183 33
3 184 183 102
3 184 15 183
3 184 108 15
3 185 108 184
3 185 6 108
3 453 103 454
3 455 454 7
3 453 454 455
3 456 103 457
3 458 46 459
3 460 459 103
3 458 459 460
3 461 46 462
3 463 185 464
3 465 464 46
3 463 464 465
3 466 185 467
3 468 6 469
3 470 469 185
3 468 469 470
3 472 471 6
