ply
format ascii 1.0
element vertex 191
property float x
property float y
property float z
element face 181
property list uchar int vertex_index
end_header
6.655773 38.4352 -33.075203
6.982426 51.358734 -35.054306
1.994446 62.044792 -34.136856
1.679049 45.329498 -34.090981
8.141315 58.196533 -34.319084
3.086376 69.406929 -32.155785
5.466129 64.404495 -33.815689
4.368822 57.214745 -35.105469
6.518005 44.444134 -34.396523
1.479836 53.990257 -34.787498
3.940144 49.594948 -34.981316
4.307619 41.744358 -33.690582
2.826559 36.159054 -32.36145
6.256516 67.785316 -32.683479
6.793848 61.425629 -34.180611
6.664667 47.884926 -34.875374
7.945538 44.801136 -34.501457
8.280073 48.133125 -34.794266
2.471519 65.819588 -33.301941
1.537525 67.784348 -32.088211
1.044596 63.995964 -33.119133
1.659374 58.098274 -34.636177
5.67098 54.396614 -35.174988
4.065756 53.448029 -35.216072
5.365828 50.768097 -35.127563
5.240414 47.108398 -34.752869
2.117462 40.801373 -33.32283
3.489079 39.262829 -33.09684
2.972023 43.566246 -33.971123
7.474808 54.807175 -34.87339
8.787592 51.471138 -34.73407
9.474504 54.777267 -34.292099
3.844286 72.780815 -30.729204
4.981863 70.46714 -31.887602
4.209927 67.078972 -33.159874
3.59141 63.507164 -34.135635
3.123047 59.775795 -34.781418
4.837427 60.873352 -34.634338
6.148441 57.957581 -34.858925
6.528809 41.16338 -33.729805
1.477219 49.730164 -34.596352
2.809877 55.901299 -35.076431
2.665207 51.897682 -35.019661
2.709816 47.780502 -34.634789
4.01066 45.683868 -34.448151
5.306242 43.476582 -34.126823
5.592566 39.955971 -33.357826
4.30208 34.860321 -32.086075
4.886131 37.766064 -32.78933
7.09493 37.02686 -32.758049
6.44457 37.445785 -32.800812
1.33614 61.029335 -33.98449
0.861216 62.004921 -33.475628
1.519521 63.020378 -33.627994
1.82691 60.071533 -34.386516
1.168604 59.056076 -34.23415
1.33614 61.029335 -33.98449
1.898256 43.065435 -33.706906
1.482868 41.552832 -33.331566
1.263661 43.816895 -33.715642
6.099253 70.725448 -31.585037
5.449763 72.051418 -31.122553
7.140444 42.992088 -34.165028
7.145846 41.351711 -33.831669
6.523407 42.803757 -34.063164
8.587515 43.150877 -34.262585
8.757739 44.772123 -34.464047
9.435222 49.733165 -34.608181
9.784521 51.349568 -34.441975
2.619967 70.385044 -31.460109
2.998921 72.071987 -30.746818
3.465331 71.093872 -31.442495
0.579481 67.504615 -31.087019
1.186865 68.588192 -31.281362
0.930141 66.700772 -31.893868
0.932126 52.744907 -34.514057
0.965199 54.918373 -34.497929
1.478527 51.860211 -34.691925
0.930818 50.614861 -34.418484
0.932126 52.744907 -34.514057
2.569709 34.36412 -31.928313
2.133447 36.824568 -32.430645
3.331787 33.78978 -31.82387
2.569709 34.36412 -31.928313
3.564319 35.509687 -32.223762
4.069548 33.140414 -31.686183
3.331787 33.78978 -31.82387
9.241156 58.110782 -33.90242
8.561536 59.848934 -33.867733
7.425772 67.884834 -32.282174
6.73658 69.384536 -31.982976
6.932118 66.281322 -32.9273
7.425772 67.884834 -32.282174
6.536924 64.590912 -33.493404
5.861322 66.094905 -33.249584
6.932118 66.281322 -32.9273
7.200784 63.101478 -33.675866
6.129988 62.915062 -33.99815
6.536924 64.590912 -33.493404
7.887802 61.463482 -33.798496
7.200784 63.101478 -33.675866
8.561536 59.848934 -33.867733
7.467581 59.811081 -34.249848
7.887802 61.463482 -33.798496
8.925007 46.438118 -34.610451
8.757739 44.772123 -34.464047
8.112806 46.46713 -34.647862
0.683677 64.806579 -32.409329
0.930141 66.700772 -31.893868
1.29106 65.890156 -32.603672
0.480982 62.81485 -32.87194
0.683677 64.806579 -32.409329
0.480982 62.81485 -32.87194
0.861216 62.004921 -33.475628
1.054968 56.972381 -34.422268
1.168604 59.056076 -34.23415
1.569605 56.044266 -34.711838
0.965199 54.918373 -34.497929
1.054968 56.972381 -34.422268
1.778899 39.145727 -32.911335
1.482868 41.552832 -33.331566
2.472011 38.480213 -32.84214
2.133447 36.824568 -32.430645
1.778899 39.145727 -32.911335
10.127977 53.002632 -34.220989
9.784521 51.349568 -34.441975
9.131048 53.124203 -34.513085
9.90775 56.40115 -33.888928
8.80791 56.4869 -34.305591
9.241156 58.110782 -33.90242
10.570946 54.597984 -33.864914
9.90775 56.40115 -33.888928
10.127977 53.002632 -34.220989
10.570946 54.597984 -33.864914
4.880974 73.208256 -30.543354
4.301029 74.341251 -29.892117
4.413074 71.623977 -31.308403
4.880974 73.208256 -30.543354
5.449763 72.051418 -31.122553
5.61919 69.126228 -32.28554
6.099253 70.725448 -31.585037
6.73658 69.384536 -31.982976
1.09292 46.155265 -34.015423
1.263661 43.816895 -33.715642
7.102911 39.81262 -33.470249
7.166393 38.448531 -33.142948
6.592291 39.79929 -33.402504
7.102911 39.81262 -33.470249
7.145846 41.351711 -33.831669
7.854211 43.170589 -34.217495
7.140444 42.992088 -34.165028
7.231771 44.622635 -34.44899
7.854211 43.170589 -34.217495
8.587515 43.150877 -34.262585
9.181462 48.064159 -34.638279
8.533832 49.802132 -34.764168
9.435222 49.733165 -34.608181
8.925007 46.438118 -34.610451
9.181462 48.064159 -34.638279
3.372009 73.742706 -29.952395
3.828753 75.303143 -29.115307
4.301029 74.341251 -29.892117
3.372009 73.742706 -29.952395
2.998921 72.071987 -30.746818
1.845541 69.573753 -31.426322
2.619967 70.385044 -31.460109
2.311951 68.595639 -32.121998
1.845541 69.573753 -31.426322
1.186865 68.588192 -31.281362
0.992004 48.355598 -34.268108
0.930818 50.614861 -34.418484
1.578134 47.529831 -34.343666
1.09292 46.155265 -34.015423
0.992004 48.355598 -34.268108
4.871587 32.604286 -31.548285
4.069548 33.140414 -31.686183
5.052922 34.266339 -31.946067
4.871587 32.604286 -31.548285
5.344947 35.71921 -32.297694
5.052922 34.266339 -31.946067
4.594105 36.313192 -32.437703
5.559749 37.111217 -32.657876
5.344947 35.71921 -32.297694
5.912967 38.206171 -32.942124
5.559749 37.111217 -32.657876
5.239349 38.861018 -33.073578
6.124169 39.195585 -33.216515
6.44457 37.445785 -32.800812
5.912967 38.206171 -32.942124
7.09493 37.02686 -32.758049
7.166393 38.448531 -33.142948
3 0 49 50
3 1 17 15
3 2 20 18
3 2 51 53
3 53 52 20
3 51 52 53
3 2 54 56
3 54 21 55
3 54 55 56
3 1 24 22
3 1 15 24
3 3 57 59
3 57 26 58
3 57 58 59
3 3 28 26
3 4 31 29
3 60 33 61
3 6 34 13
3 6 35 34
3 6 37 35
3 4 38 14
3 4 29 38
3 8 62 64
3 64 63 39
3 62 63 64
3 66 65 16
3 68 67 30
3 5 69 71
3 71 70 32
3 69 70 71
3 74 73 19
3 72 73 74
3 9 75 76
3 9 77 79
3 77 40 78
3 77 78 79
3 7 41 36
3 10 42 23
3 10 43 42
3 10 44 43
3 8 45 25
3 8 39 45
3 12 80 81
3 12 82 83
3 12 84 86
3 84 47 85
3 84 85 86
3 11 48 27
3 11 46 48
3 88 87 4
3 89 13 90
3 91 13 92
3 93 6 94
3 95 94 13
3 93 94 95
3 96 14 97
3 98 97 6
3 96 97 98
3 99 14 100
3 101 4 102
3 103 102 14
3 101 102 103
3 15 16 8
3 17 16 15
3 17 104 106
3 106 105 16
3 104 105 106
3 18 19 5
3 20 19 18
3 20 107 109
3 109 108 19
3 107 108 109
3 20 110 111
3 113 112 20
3 21 114 115
3 21 116 118
3 116 9 117
3 116 117 118
3 22 23 7
3 24 23 22
3 24 10 23
3 24 25 10
3 15 25 24
3 15 8 25
3 26 119 120
3 26 121 123
3 121 12 122
3 121 122 123
3 26 27 12
3 28 27 26
3 28 11 27
3 29 30 1
3 31 30 29
3 31 124 126
3 126 125 30
3 124 125 126
3 127 31 128
3 129 128 4
3 127 128 129
3 130 31 131
3 133 132 31
3 134 32 135
3 33 136 138
3 136 32 137
3 136 137 138
3 33 5 32
3 13 139 141
3 139 33 140
3 139 140 141
3 34 33 13
3 34 5 33
3 34 18 5
3 35 18 34
3 35 2 18
3 35 36 2
3 37 36 35
3 37 7 36
3 14 37 6
3 38 37 14
3 38 7 37
3 38 22 7
3 29 22 38
3 29 1 22
3 142 3 143
3 39 144 146
3 146 145 0
3 144 145 146
3 148 147 39
3 16 149 151
3 151 150 8
3 149 150 151
3 153 152 16
3 30 17 1
3 154 17 155
3 156 155 30
3 154 155 156
3 158 157 17
3 32 159 161
3 159 160 161
3 163 162 32
3 19 164 166
3 166 165 5
3 164 165 166
3 168 167 19
3 40 169 170
3 40 171 173
3 171 3 172
3 171 172 173
3 36 21 2
3 41 21 36
3 41 9 21
3 23 41 7
3 42 41 23
3 42 9 41
3 42 40 9
3 43 40 42
3 43 3 40
3 43 28 3
3 44 28 43
3 44 11 28
3 25 44 10
3 45 44 25
3 45 11 44
3 45 46 11
3 39 46 45
3 39 0 46
3 47 174 175
3 47 176 177
3 27 47 12
3 48 47 27
3 48 178 180
3 180 179 47
3 178 179 180
3 48 181 182
3 46 183 185
3 185 184 48
3 183 184 185
3 46 186 188
3 186 0 187
3 186 187 188
3 190 189 0
