ply
format ascii 1.0
element vertex 181
property float x
property float y
property float z
element face 171
property list uchar int vertex_index
end_header
53.700081 8.191698 44.557236
48.454414 9.121408 53.820717
45.536674 16.442116 46.387421
49.82391 14.198208 36.610695
59.462536 8.458462 34.711159
51.09248 8.523088 49.355904
47.420082 12.917963 50.42662
49.549088 11.872765 45.63213
47.253506 15.022583 41.450905
52.059422 11.319004 40.769127
55.114471 11.235775 35.914516
56.466133 8.276426 39.656025
51.170963 4.804403 52.428291
52.385651 8.304857 46.979923
50.470383 10.236261 47.567471
51.708023 9.951761 45.155411
50.740456 11.522957 43.199059
53.016884 9.796719 42.724068
54.414406 9.765585 40.286648
55.055969 8.190758 42.112007
52.554955 4.716606 50.149139
46.538521 14.70322 48.47187
48.418049 14.537083 39.017555
57.488129 9.883509 35.384319
56.827503 11.222994 33.462395
49.793159 8.812092 51.6502
48.083511 11.062717 52.215988
49.275185 10.623283 49.933594
48.456757 12.352701 48.051544
47.430187 14.024017 46.031944
46.308647 15.665207 43.912109
48.435295 13.458824 43.581261
49.599976 13.042786 41.141945
50.950592 12.778402 38.721008
52.492355 12.632843 36.310867
53.518593 11.241228 38.344437
55.906624 9.817892 37.843136
57.935928 8.392038 37.190369
49.720158 4.906668 54.566101
49.949394 6.905991 53.190529
51.33868 6.714468 50.977112
52.684589 6.562977 48.648308
54.012024 6.488667 46.244659
55.342251 6.508017 43.799603
56.692463 6.609249 41.336273
58.075649 6.750805 38.867126
47.651989 10.30793 54.094937
47.747398 9.259353 54.821629
45.203166 16.872606 47.617859
45.70409 16.003159 48.660083
46.037598 15.572668 47.429646
44.766222 17.78195 46.548565
45.203166 16.872606 47.617859
45.031066 17.301004 45.30201
44.766222 17.78195 46.548565
48.574699 15.114818 36.735361
47.871769 15.284256 37.938791
49.12098 14.367646 37.814125
49.315794 14.901522 35.54097
48.574699 15.114818 36.735361
50.644983 14.08061 35.413021
49.315794 14.901522 35.54097
59.301997 9.166236 33.805464
58.314793 9.87876 34.142044
58.475333 9.170986 35.047739
60.247892 8.422771 33.464821
59.301997 9.166236 33.805464
50.44556 4.855536 53.497196
50.156893 3.854246 54.146778
50.882295 3.803114 53.077873
53.28919 5.621236 48.209992
52.619772 5.639791 49.398724
53.224373 4.69805 48.960407
53.952907 5.584081 47.008167
53.348306 6.525822 47.446483
53.28919 5.621236 48.209992
54.610256 5.601755 45.790229
53.952907 5.584081 47.008167
46.902161 13.21227 51.570839
47.233875 12.284647 52.465523
47.751796 11.99034 51.321304
46.233702 16.162916 41.591574
45.761273 16.484228 42.822176
46.781076 15.343895 42.681507
54.661839 11.889173 34.903814
53.35078 12.587706 35.10199
53.803413 11.934309 36.112691
56.445948 11.823359 32.45437
57.724821 11.166723 32.218474
56.605513 5.715485 42.105137
56.017357 6.558633 42.567938
55.930407 5.664868 43.336802
58.634466 5.933799 38.411678
57.958702 5.861823 39.638206
59.346565 5.99172 37.1767
58.787748 6.808725 37.632148
58.634466 5.933799 38.411678
51.58099 3.78687 51.958656
50.882295 3.803114 53.077873
51.292322 2.785581 52.608238
52.272986 3.742971 50.81908
51.862959 4.760504 51.288715
51.58099 3.78687 51.958656
52.943127 3.741355 49.643695
52.272986 3.742971 50.81908
53.224373 4.69805 48.960407
52.943127 3.741355 49.643695
46.118225 15.070574 49.668392
46.559005 14.177945 50.645767
46.979302 13.810592 49.449245
46.118225 15.070574 49.668392
45.70409 16.003159 48.660083
47.275151 15.563763 39.147675
46.692879 15.806513 40.36435
47.835778 14.779833 40.23423
47.275151 15.563763 39.147675
47.871769 15.284256 37.938791
57.98448 10.548502 33.181082
57.157816 10.553252 34.423357
58.314793 9.87876 34.142044
57.724821 11.166723 32.218474
57.98448 10.548502 33.181082
48.472082 8.106158 54.53313
47.747398 9.259353 54.821629
49.420507 3.868501 55.188332
50.156893 3.854246 54.146778
48.95097 4.944809 55.543819
49.420507 3.868501 55.188332
49.104954 5.998788 54.905822
48.95097 4.944809 55.543819
49.219572 6.998449 54.218036
49.104954 5.998788 54.905822
49.834776 5.90633 53.878315
49.201904 8.0137 53.505623
48.472082 8.106158 54.53313
49.219572 6.998449 54.218036
55.275369 5.611429 44.567701
54.677138 6.498342 45.022131
54.610256 5.601755 45.790229
55.930407 5.664868 43.336802
55.275369 5.611429 44.567701
47.466538 11.278585 53.292572
47.651989 10.30793 54.094937
48.268963 10.092063 53.018353
47.466538 11.278585 53.292572
47.233875 12.284647 52.465523
46.902161 13.21227 51.570839
46.559005 14.177945 50.645767
45.417053 16.91255 44.064354
45.031066 17.301004 45.30201
45.92266 16.053662 45.149765
45.417053 16.91255 44.064354
45.761273 16.484228 42.822176
46.233702 16.162916 41.591574
46.692879 15.806513 40.36435
51.979206 13.297928 35.263107
50.644983 14.08061 35.413021
51.158133 13.415525 36.460781
51.979206 13.297928 35.263107
53.35078 12.587706 35.10199
55.518355 11.882782 33.677754
54.661839 11.889173 34.903814
55.970987 11.229385 34.688456
55.518355 11.882782 33.677754
56.445948 11.823359 32.45437
57.267109 5.791045 40.87278
56.605513 5.715485 42.105137
57.384056 6.680027 40.101699
57.267109 5.791045 40.87278
57.958702 5.861823 39.638206
58.717888 7.629342 36.79377
58.005788 7.571421 38.028747
58.787748 6.808725 37.632148
59.481192 7.662554 35.554165
58.699232 8.42525 35.950764
58.717888 7.629342 36.79377
60.214367 7.667637 34.320875
59.481192 7.662554 35.554165
60.999724 7.631946 33.074537
60.247892 8.422771 33.464821
60.214367 7.667637 34.320875
3 0 15 13
3 0 17 15
3 0 19 17
3 1 46 47
3 2 48 50
3 50 49 21
3 48 49 50
3 2 51 52
3 2 53 54
3 3 55 57
3 57 56 22
3 55 56 57
3 3 58 59
3 3 60 61
3 4 62 64
3 64 63 23
3 62 63 64
3 4 65 66
3 5 27 25
3 7 28 14
3 7 29 28
3 7 31 29
3 9 32 16
3 9 33 32
3 9 35 33
3 11 36 18
3 11 37 36
3 12 67 69
3 67 38 68
3 67 68 69
3 12 39 38
3 12 40 39
3 70 41 71
3 72 71 20
3 70 71 72
3 73 42 74
3 75 74 41
3 73 74 75
3 77 76 42
3 6 78 80
3 80 79 26
3 78 79 80
3 8 81 83
3 83 82 30
3 81 82 83
3 10 84 86
3 86 85 34
3 84 85 86
3 88 87 24
3 89 44 90
3 91 90 43
3 89 90 91
3 92 45 93
3 96 95 45
3 94 95 96
3 13 14 5
3 15 14 13
3 15 7 14
3 15 16 7
3 17 16 15
3 17 9 16
3 17 18 9
3 19 18 17
3 19 11 18
3 97 12 98
3 97 98 99
3 100 20 101
3 102 101 12
3 100 101 102
3 103 20 104
3 106 105 20
3 21 107 109
3 109 108 6
3 107 108 109
3 111 110 21
3 22 112 114
3 114 113 8
3 112 113 114
3 116 115 22
3 23 24 10
3 117 24 118
3 119 118 23
3 117 118 119
3 121 120 24
3 25 26 1
3 27 26 25
3 27 6 26
3 14 27 5
3 28 27 14
3 28 6 27
3 28 21 6
3 29 21 28
3 29 2 21
3 29 30 2
3 31 30 29
3 31 8 30
3 16 31 7
3 32 31 16
3 32 8 31
3 32 22 8
3 33 22 32
3 33 3 22
3 33 34 3
3 35 34 33
3 35 10 34
3 18 35 9
3 36 35 18
3 36 10 35
3 36 23 10
3 37 23 36
3 37 4 23
3 122 1 123
3 38 124 125
3 38 126 127
3 38 128 129
3 39 130 132
3 132 131 38
3 130 131 132
3 39 133 135
3 133 1 134
3 133 134 135
3 39 25 1
3 40 25 39
3 40 5 25
3 20 40 12
3 41 40 20
3 41 5 40
3 41 13 5
3 42 13 41
3 42 0 13
3 42 43 0
3 136 43 137
3 138 137 42
3 136 137 138
3 140 139 43
3 26 141 143
3 143 142 1
3 141 142 143
3 145 144 26
3 147 146 6
3 30 148 150
3 150 149 2
3 148 149 150
3 152 151 30
3 154 153 8
3 34 155 157
3 157 156 3
3 155 156 157
3 159 158 34
3 24 160 162
3 162 161 10
3 160 161 162
3 164 163 24
3 43 19 0
3 44 19 43
3 44 11 19
3 165 44 166
3 45 167 169
3 167 44 168
3 167 168 169
3 45 11 44
3 45 37 11
3 170 37 171
3 172 171 45
3 170 171 172
3 173 4 174
3 175 174 37
3 173 174 175
3 176 4 177
3 180 179 4
3 178 179 180
