ply
format ascii 1.0
element vertex 142
property float x
property float y
property float z
element face 130
property list uchar int vertex_index
end_header
-29.321566 22.250866 61.233482
-27.514675 35.245281 53.928715
-33.360901 19.755928 61.645329
-32.860847 26.33979 59.376591
-31.88426 32.792587 55.597324
-28.711063 28.771687 58.154007
-24.593311 31.836151 56.890957
-25.398594 25.21637 60.467705
-31.33914 20.975025 61.538815
-33.162079 23.053028 60.72876
-31.135815 24.256042 60.398788
-30.799919 27.519089 58.840645
-29.092922 25.518604 59.883163
-27.064882 26.916313 59.309376
-27.333807 23.644558 60.835228
-29.709476 33.955494 54.786083
-31.232452 35.934303 53.364609
-35.139828 21.841431 60.778637
-34.854805 25.14994 59.64447
-34.474846 28.429298 58.102753
-33.988728 31.650486 56.221523
-32.434544 29.591599 57.636509
-30.31991 30.753471 56.935623
-28.176508 32.012226 56.133369
-26.045979 33.463245 55.376587
-26.631508 30.18541 57.458237
-25.079533 28.519463 58.812557
-33.40593 34.79425 54.095306
-32.752411 37.85001 51.822315
-31.446449 17.695625 62.24369
-29.423723 18.97411 62.161777
-27.453655 20.363205 61.973797
-25.55426 21.910995 61.784245
-23.73756 23.65778 61.69873
-28.258631 36.184723 53.214699
-29.356032 35.539829 53.643383
-28.612075 34.600387 54.357399
-27.14181 36.859028 52.786318
-28.258631 36.184723 53.214699
-26.429208 36.002104 53.54867
-27.14181 36.859028 52.786318
-34.250365 20.798679 61.211983
-35.250498 20.190914 61.132185
-34.361035 19.148163 61.565531
-24.465401 26.115035 60.356331
-24.305871 27.766581 59.528757
-25.239064 26.867916 59.640131
-31.634362 38.430965 51.430071
-31.992432 36.892156 52.593462
-30.874382 37.473112 52.201218
-32.407862 39.331276 50.653937
-31.634362 38.430965 51.430071
-24.278005 33.509201 55.843744
-25.004338 34.322748 55.086559
-25.319645 32.649698 56.133772
-30.448287 16.699907 62.465704
-31.479944 16.070612 62.404449
-29.436924 17.339149 62.424747
-30.435086 18.334868 62.202734
-30.448287 16.699907 62.465704
-28.445189 18.02453 62.439058
-29.436924 17.339149 62.424747
-25.566243 20.252708 62.258069
-26.503957 21.1371 61.879021
-26.51594 19.478813 62.352845
-22.924414 22.924712 62.38359
-23.765504 21.975778 62.261415
-22.871557 24.641901 61.748423
-22.924414 22.924712 62.38359
-30.11752 36.529234 52.932646
-30.470964 34.944899 54.075346
-29.356032 35.539829 53.643383
-30.874382 37.473112 52.201218
-30.11752 36.529234 52.932646
-23.606085 32.804035 56.723873
-23.875146 31.107281 57.69865
-36.090298 21.20497 60.640618
-35.250498 20.190914 61.132185
-35.942332 22.861523 60.175078
-36.090298 21.20497 60.640618
-35.79982 24.515777 59.607994
-35.942332 22.861523 60.175078
-34.997316 23.495686 60.211554
-35.624809 26.166325 58.941457
-35.79982 24.515777 59.607994
-35.43483 27.806003 58.170599
-35.624809 26.166325 58.941457
-34.664825 26.789619 58.873611
-35.22195 29.430458 57.324358
-35.43483 27.806003 58.170599
-34.231787 30.039892 57.162138
-34.978892 31.041052 56.383743
-35.22195 29.430458 57.324358
-24.118257 29.448936 58.65945
-23.875146 31.107281 57.69865
-24.836422 30.177807 57.851757
-24.118257 29.448936 58.65945
-24.305871 27.766581 59.528757
-34.72618 32.623822 55.396114
-34.978892 31.041052 56.383743
-34.434781 34.195704 54.333005
-34.72618 32.623822 55.396114
-33.697329 33.222368 55.158414
-34.148587 35.726913 53.248798
-34.434781 34.195704 54.333005
-33.821827 37.254793 52.112302
-34.148587 35.726913 53.248798
-33.079171 36.32213 52.95881
-33.514221 38.729757 50.973263
-33.821827 37.254793 52.112302
-33.514221 38.729757 50.973263
-32.407862 39.331276 50.653937
-25.694859 35.111086 54.272606
-26.429208 36.002104 53.54867
-26.780327 34.354263 54.652651
-25.694859 35.111086 54.272606
-25.004338 34.322748 55.086559
-24.278005 33.509201 55.843744
-23.606085 32.804035 56.723873
-33.430744 18.11815 61.892523
-34.361035 19.148163 61.565531
-34.430878 17.510385 61.812725
-32.473518 17.087999 62.191704
-31.479944 16.070612 62.404449
-32.403675 18.725777 61.944509
-33.430744 18.11815 61.892523
-32.473518 17.087999 62.191704
-27.460155 18.719078 62.345068
-28.438689 19.668658 62.067787
-28.445189 18.02453 62.439058
-26.51594 19.478813 62.352845
-27.460155 18.719078 62.345068
-24.673853 21.102386 62.304172
-25.566243 20.252708 62.258069
-24.64591 22.784388 61.741487
-24.673853 21.102386 62.304172
-23.765504 21.975778 62.261415
-23.634884 25.335739 60.971843
-24.465401 26.115035 60.356331
-24.568077 24.437075 61.083218
-23.634884 25.335739 60.971843
-22.871557 24.641901 61.748423
3 0 10 8
3 0 12 10
3 0 14 12
3 1 34 36
3 36 35 15
3 34 35 36
3 1 37 38
3 1 39 40
3 2 41 43
3 41 17 42
3 41 42 43
3 3 18 9
3 3 19 18
3 3 21 19
3 5 22 11
3 5 23 22
3 5 25 23
3 7 26 13
3 7 44 46
3 46 45 26
3 44 45 46
3 4 27 20
3 47 28 48
3 49 48 16
3 47 48 49
3 51 50 28
3 6 52 54
3 54 53 24
3 52 53 54
3 55 29 56
3 57 30 58
3 59 58 29
3 57 58 59
3 61 60 30
3 62 32 63
3 64 63 31
3 62 63 64
3 65 33 66
3 68 67 33
3 8 9 2
3 10 9 8
3 10 3 9
3 10 11 3
3 12 11 10
3 12 5 11
3 12 13 5
3 14 13 12
3 14 7 13
3 15 16 4
3 69 16 70
3 71 70 15
3 69 70 71
3 73 72 16
3 75 74 6
3 17 76 77
3 17 78 79
3 9 17 2
3 18 17 9
3 18 80 82
3 82 81 17
3 80 81 82
3 18 83 84
3 19 85 87
3 87 86 18
3 85 86 87
3 19 88 89
3 19 90 92
3 90 20 91
3 90 91 92
3 21 20 19
3 21 4 20
3 11 21 3
3 22 21 11
3 22 4 21
3 22 15 4
3 23 15 22
3 23 1 15
3 23 24 1
3 25 24 23
3 25 6 24
3 13 25 5
3 26 25 13
3 26 6 25
3 26 93 95
3 95 94 6
3 93 94 95
3 97 96 26
3 20 98 99
3 27 100 102
3 102 101 20
3 100 101 102
3 27 103 104
3 16 27 4
3 28 27 16
3 28 105 107
3 107 106 27
3 105 106 107
3 28 108 109
3 111 110 28
3 24 112 114
3 114 113 1
3 112 113 114
3 116 115 24
3 118 117 6
3 119 2 120
3 119 120 121
3 29 122 123
3 29 124 126
3 124 2 125
3 124 125 126
3 29 8 2
3 30 8 29
3 30 0 8
3 30 31 0
3 127 31 128
3 129 128 30
3 127 128 129
3 131 130 31
3 31 14 0
3 32 14 31
3 32 7 14
3 132 32 133
3 33 134 136
3 134 32 135
3 134 135 136
3 33 7 32
3 33 137 139
3 139 138 7
3 137 138 139
3 141 140 33
