ply
format ascii 1.0
element vertex 199
property float x
property float y
property float z
element face 186
property list uchar int vertex_index
end_header
0.244276 -6.560209 82.803253
-0.410208 -0.732138 75.710823
1.358374 13.099163 78.149918
1.650761 1.660257 82.140617
-0.304628 -3.500741 79.535019
0.619043 4.859737 79.176422
0.121572 7.67001 75.449753
1.134918 -9.937715 85.371284
2.974892 -1.941607 84.30423
-0.977629 -9.194741 75.490417
-0.466644 -10.669547 83.043007
-0.678848 -9.148891 81.382141
2.290094 5.740835 81.642937
1.083031 3.309477 80.757332
1.595293 7.423763 80.313927
0.843393 14.572845 76.368263
0.591906 10.461725 76.997566
0.340811 11.815952 75.018944
0.117153 8.93273 73.329399
3.69705 -3.887467 85.089554
-0.421879 -2.082739 77.682961
-0.805332 -6.30378 77.651207
-0.69779 -4.966269 75.633102
2.042524 11.503595 79.687805
2.416553 15.547928 78.855377
1.635939 17.165924 77.311028
1.039501 18.650337 75.500771
-0.26017 0.554333 73.636566
-0.463715 -3.677959 73.54351
-0.107515 -2.43619 71.400932
0.960199 -2.444468 82.514214
-0.076555 -4.991323 81.248154
0.519154 -0.832869 81.054291
0.173403 0.690018 79.418106
-0.050928 2.128321 77.61779
1.017326 8.997583 78.765106
0.291006 6.312893 77.403946
-0.132357 3.485041 75.666962
-0.062193 4.762136 73.581444
0.150404 5.9622 71.380417
0.64752 -8.210383 84.182541
2.694386 -7.816401 85.754768
2.051514 -5.942226 84.868431
1.474613 -4.148052 83.787743
2.289509 -0.090134 83.322945
3.060215 3.948645 82.755013
-0.794727 -7.695665 79.57592
-1.180845 -10.512376 77.574905
-0.657274 -7.913188 73.360085
2.227095 8.606303 80.64925
1.942693 6.582299 80.978432
2.574495 7.764839 81.313755
0.428977 13.869886 74.684265
0.592102 13.194398 75.693603
0.680268 15.248333 75.358925
0.304046 12.439272 73.932548
0.428977 13.869886 74.684265
3.07914 16.662951 78.974625
2.880683 14.674378 79.49731
1.741137 19.184835 76.776749
2.174588 18.363144 77.559082
1.442918 19.927042 75.871621
1.33772 17.90813 76.4059
1.741137 19.184835 76.776749
1.107955 20.676296 74.946766
1.442918 19.927042 75.871621
-0.04277 -0.328772 71.439442
-0.183843 -0.940928 72.518749
-0.119098 1.166489 72.557259
0.207792 8.033857 71.222942
0.133778 7.447465 72.354908
0.191166 9.519122 72.197433
0.314078 6.526483 70.233799
0.207792 8.033857 71.222942
0.488794 -11.098239 84.951618
0.698105 -11.923078 85.597583
0.891219 -9.074049 84.776913
0.245095 -10.234573 84.357247
0.488794 -11.098239 84.951618
3.578601 -6.863125 85.722786
3.057032 -8.781751 86.102623
3.941247 -7.828475 86.070641
3.879293 4.979899 82.823208
3.464309 2.998023 83.205235
3.410176 5.953057 82.402005
3.879293 4.979899 82.823208
-1.103918 -11.292303 75.413845
-1.205526 -11.951121 76.456089
-1.079237 -9.853559 76.532661
-0.440505 -7.28833 72.282601
-0.560495 -5.795573 73.451797
-0.343726 -5.170716 72.374313
-0.86288 -11.976946 82.26812
-0.803478 -12.710337 83.151489
-0.968981 -11.216618 81.437687
-0.86288 -11.976946 82.26812
-0.572746 -9.909219 82.212574
-0.975698 -10.510957 80.484326
-0.968981 -11.216618 81.437687
0.192217 10.997661 73.087776
0.228982 10.374341 74.174171
0.304046 12.439272 73.932548
0.191166 9.519122 72.197433
0.192217 10.997661 73.087776
1.427634 -10.832304 85.864731
0.698105 -11.923078 85.597583
4.608132 -2.972452 84.976837
4.079933 -4.898658 85.390179
4.193605 -1.92315 84.721428
4.608132 -2.972452 84.976837
3.832526 -0.950221 84.328766
3.335971 -2.914537 84.696892
4.193605 -1.92315 84.721428
3.421648 0.052897 83.979844
3.832526 -0.950221 84.328766
2.693669 12.652211 79.913524
2.45071 10.646219 80.336189
2.229538 13.525762 79.271591
2.693669 12.652211 79.913524
2.880683 14.674378 79.49731
2.564895 17.554146 78.331257
3.07914 16.662951 78.974625
2.026246 16.356926 78.083202
2.564895 17.554146 78.331257
2.174588 18.363144 77.559082
0.778322 17.287078 74.925179
0.680268 15.248333 75.358925
0.941447 16.611591 75.934517
0.841898 19.325339 74.466191
0.778322 17.287078 74.925179
0.841898 19.325339 74.466191
1.107955 20.676296 74.946766
-0.165625 -4.549831 71.303024
-0.343726 -5.170716 72.374313
-0.285615 -3.057074 72.472221
0.120422 -1.837918 70.311203
-0.04277 -0.328772 71.439442
0.097513 -3.940152 70.22126
0.120422 -1.837918 70.311203
0.039403 -6.053793 70.123352
-0.165625 -4.549831 71.303024
0.097513 -3.940152 70.22126
1.818909 9.463679 80.000866
2.227095 8.606303 80.64925
2.45071 10.646219 80.336189
-0.020109 3.270391 72.529697
-0.119098 1.166489 72.557259
-0.161182 2.658234 73.609005
0.08619 3.870423 71.429184
-0.020109 3.270391 72.529697
0.044106 5.362168 72.48093
0.280803 4.45285 70.31699
0.08619 3.870423 71.429184
0.280803 4.45285 70.31699
0.314078 6.526483 70.233799
-0.311987 -11.464154 83.78748
-0.803478 -12.710337 83.151489
0.090438 -9.439965 83.612774
-0.311987 -11.464154 83.78748
0.245095 -10.234573 84.357247
2.207368 -9.771648 86.056472
3.057032 -8.781751 86.102623
1.914652 -8.877058 85.563026
1.427634 -10.832304 85.864731
2.207368 -9.771648 86.056472
3.195718 -5.851934 85.422161
3.578601 -6.863125 85.722786
4.079933 -4.898658 85.390179
3.078956 0.978633 83.489201
2.6322 -1.015871 83.813588
3.421648 0.052897 83.979844
2.674862 1.929256 83.038979
3.078956 0.978633 83.489201
3.464309 2.998023 83.205235
3.025116 6.849152 81.845967
2.675154 4.84474 82.198975
3.410176 5.953057 82.402005
2.574495 7.764839 81.313755
3.025116 6.849152 81.845967
-1.033637 -9.784344 79.581215
-0.975698 -10.510957 80.484326
-0.736787 -8.422278 80.47903
-1.226696 -11.1927 78.580708
-1.033637 -9.784344 79.581215
-0.987786 -9.104021 78.575412
-1.353254 -12.597212 77.538032
-1.226696 -11.1927 78.580708
-1.353254 -12.597212 77.538032
-1.205526 -11.951121 76.456089
-0.484407 -9.394583 72.15643
-0.440505 -7.28833 72.282601
-0.740556 -10.018165 73.253079
-0.484407 -9.394583 72.15643
-0.900733 -10.658941 74.318244
-0.817451 -8.553964 74.425251
-0.740556 -10.018165 73.253079
-1.027022 -12.756504 74.241672
-1.103918 -11.292303 75.413845
-0.900733 -10.658941 74.318244
3 0 11 10
3 49 14 50
3 51 50 12
3 49 50 51
3 52 17 53
3 54 53 15
3 52 53 54
3 56 55 17
3 1 22 20
3 57 24 58
3 59 25 60
3 61 26 62
3 63 62 25
3 61 62 63
3 65 64 26
3 66 29 67
3 68 67 27
3 66 67 68
3 3 32 30
3 5 33 13
3 5 34 33
3 2 35 23
3 6 36 16
3 6 37 36
3 6 38 37
3 69 39 70
3 71 70 18
3 69 70 71
3 73 72 39
3 7 74 75
3 7 76 78
3 76 40 77
3 76 77 78
3 79 41 80
3 79 80 81
3 8 42 19
3 8 43 42
3 8 44 43
3 82 45 83
3 85 84 45
3 4 46 31
3 9 47 21
3 9 86 88
3 88 87 47
3 86 87 88
3 89 48 90
3 91 90 28
3 89 90 91
3 10 92 93
3 11 94 96
3 96 95 10
3 94 95 96
3 11 97 98
3 12 13 3
3 14 13 12
3 14 5 13
3 15 16 2
3 17 16 15
3 17 6 16
3 17 18 6
3 99 18 100
3 101 100 17
3 99 100 101
3 103 102 18
3 104 7 105
3 106 19 107
3 108 19 109
3 110 8 111
3 112 111 19
3 110 111 112
3 114 113 8
3 20 21 4
3 22 21 20
3 22 9 21
3 115 23 116
3 24 117 119
3 117 23 118
3 117 118 119
3 24 2 23
3 120 24 121
3 25 122 124
3 122 24 123
3 122 123 124
3 25 2 24
3 25 15 2
3 26 15 25
3 26 125 127
3 127 126 15
3 125 126 127
3 26 128 129
3 131 130 26
3 27 28 1
3 29 28 27
3 29 132 134
3 134 133 28
3 132 133 134
3 135 29 136
3 137 29 138
3 141 140 29
3 139 140 141
3 30 31 0
3 32 31 30
3 32 4 31
3 13 32 3
3 33 32 13
3 33 4 32
3 33 20 4
3 34 20 33
3 34 1 20
3 23 142 144
3 142 14 143
3 142 143 144
3 35 14 23
3 35 5 14
3 16 35 2
3 36 35 16
3 36 5 35
3 36 34 5
3 37 34 36
3 37 1 34
3 37 27 1
3 38 27 37
3 38 145 147
3 147 146 27
3 145 146 147
3 18 38 6
3 39 38 18
3 39 148 150
3 150 149 38
3 148 149 150
3 39 151 152
3 154 153 39
3 155 10 156
3 40 157 159
3 157 10 158
3 157 158 159
3 40 0 10
3 41 160 161
3 41 162 164
3 162 7 163
3 162 163 164
3 19 165 167
3 165 41 166
3 165 166 167
3 42 41 19
3 42 7 41
3 42 40 7
3 43 40 42
3 43 0 40
3 43 30 0
3 44 30 43
3 44 3 30
3 168 44 169
3 170 169 8
3 168 169 170
3 45 171 173
3 171 44 172
3 171 172 173
3 45 3 44
3 45 12 3
3 174 12 175
3 176 175 45
3 174 175 176
3 178 177 12
3 31 11 0
3 46 11 31
3 46 179 181
3 181 180 11
3 179 180 181
3 21 46 4
3 47 46 21
3 47 182 184
3 184 183 46
3 182 183 184
3 47 185 186
3 188 187 47
3 28 22 1
3 48 22 28
3 48 9 22
3 189 48 190
3 191 48 192
3 193 9 194
3 195 194 48
3 193 194 195
3 198 197 9
3 196 197 198
