ply
format ascii 1.0
element vertex 249
property float x
property float y
property float z
element face 249
property list uchar int vertex_index
end_header
0.997042 -6.024637 75.093018
-0.880171 -6.559622 83.195709
-0.890516 8.181854 79.688126
0.598814 8.648355 71.229996
-2.800684 -7.429359 85.592766
-0.399723 -13.473104 84.756157
-2.247421 -14.270407 87.031746
-3.161278 -0.296206 84.056458
0.773708 -5.810991 70.394394
0.342068 1.111197 77.921944
0.369465 8.622175 75.87381
0.863297 1.312092 73.496506
0.501152 1.392668 68.770065
0.419939 -6.185523 79.527596
1.126669 -13.095175 76.524101
0.713388 -13.161424 81.080406
-3.083195 7.193428 82.28566
-1.059973 0.650566 81.586273
-3.959959 -8.09773 86.204071
-2.527287 -10.879588 86.329895
-3.692904 -11.515074 86.90567
-4.206556 -4.599544 85.480415
0.986399 -5.936182 72.748535
0.754768 -2.465189 76.608429
0.718136 1.232023 75.775589
0.939571 -2.377747 74.342682
0.907507 -2.292021 72.009109
-0.146133 -6.326545 81.490707
0.539515 -9.710632 80.30043
0.020958 -9.829652 82.277603
0.503256 -16.660482 83.836235
-5.713772 9.382927 82.448769
-4.241467 10.31221 82.016167
-4.417728 6.450333 83.044891
-1.95343 -3.37641 83.79995
-2.039494 0.251753 82.995132
-1.016741 -2.997625 82.403847
-0.23917 -2.742306 80.700226
1.222099 -16.513041 77.257263
0.606667 8.68108 73.625504
0.251722 -2.092745 67.348053
0.059647 1.386005 66.428955
-1.769445 -6.919297 84.580009
-0.665094 -10.045419 83.981194
-1.515808 -10.389552 85.347748
-1.230335 -13.804432 86.092583
-4.465733 2.672709 83.934738
-4.387875 -1.011105 84.732697
-3.025015 -3.905602 84.837395
0.376577 -5.639241 68.077576
-0.212742 4.670099 78.970673
-0.130316 8.461107 77.912521
0.35393 4.85598 76.988068
0.67473 4.961983 74.805794
0.752403 5.003523 72.482132
0.606838 4.987202 70.078064
0.783306 1.364847 71.142807
0.668406 -2.196808 69.661575
0.805183 -6.097419 77.373138
1.054239 -9.600748 75.80751
0.88632 -9.648351 78.120255
1.006433 -13.11841 78.875488
1.162548 -16.521477 79.641403
0.246351 -13.267254 83.064743
0.926331 -16.557228 81.859886
-2.872986 11.056519 81.20015
-1.88867 7.765524 81.157364
-3.183174 3.404594 83.220734
-2.015659 3.968563 82.131157
-1.011974 4.382544 80.700691
-0.25692 0.926945 79.877556
0.357462 -2.576496 78.747948
-4.4635 -10.214289 86.659577
-3.826431 -9.806402 86.55487
-4.597027 -8.505617 86.308777
-4.597027 -8.505617 86.308777
-4.717745 -6.776744 85.960872
1.015981 -7.777064 74.260354
1.01066 -7.732836 73.088112
0.991721 -5.98041 73.920777
-5.77142 7.455408 82.931157
-6.464647 8.826411 82.468525
-5.123399 5.989111 83.229218
-5.06575 7.91663 82.74683
-5.77142 7.455408 82.931157
1.190605 -18.184332 76.373542
1.279901 -18.191676 77.630752
-0.806806 10.100505 79.085949
-1.285627 9.901859 79.851963
0.551376 10.494875 71.701321
0.555302 10.511238 72.899075
0.60274 8.664718 72.42775
0.501695 10.424051 70.459545
0.551376 10.494875 71.701321
0.49031 8.587706 69.992012
0.501695 10.424051 70.459545
-0.019457 -2.04258 66.229484
0.043722 -3.757319 66.593059
-1.600066 -15.72495 86.908394
-1.091523 -15.491962 86.438813
-1.738878 -14.03742 86.562164
-5.035762 -1.454089 84.868359
-5.100552 0.376965 84.491208
0.602821 -7.507935 69.540844
0.404255 -7.42206 68.382435
0.575143 -5.725116 69.235985
1.039683 -18.238185 82.239517
0.714794 -16.608855 82.848061
0.828145 -18.289812 83.227691
1.133274 -18.217588 81.132889
1.039683 -18.238185 82.239517
1.098833 -13.072023 75.310009
1.062618 -11.32481 74.951713
1.090454 -11.347962 76.165806
0.166556 10.442152 76.254002
-0.083334 10.361618 77.273357
0.119575 8.541641 76.893166
0.388576 3.151007 68.211643
0.441418 4.948274 68.865643
0.553995 3.189935 69.424065
-0.062365 3.070578 65.845391
-0.209708 1.354135 65.296585
-4.841043 -5.027651 85.599044
-4.945102 -3.248308 85.242218
-4.083258 -6.348637 85.842243
-4.841043 -5.027651 85.599044
-4.717745 -6.776744 85.960872
0.905425 -7.670214 71.893394
0.799079 -7.607619 70.716324
0.880054 -5.873587 71.571465
0.905425 -7.670214 71.893394
1.01066 -7.732836 73.088112
0.191838 -16.76136 84.667019
0.051767 -15.066793 84.296196
-0.259652 -15.167671 85.12698
0.630715 -18.344088 84.201115
0.191838 -16.76136 84.667019
0.828145 -18.289812 83.227691
0.630715 -18.344088 84.201115
-6.378571 10.790576 81.943188
-7.129446 10.234061 81.962944
-6.464647 8.826411 82.468525
-5.59166 11.349169 81.881291
-6.256459 12.756818 81.375709
-6.378571 10.790576 81.943188
-4.977619 9.847569 82.232468
-4.855508 11.81381 81.664989
-5.59166 11.349169 81.881291
1.165984 -16.500635 76.018887
1.118269 -14.791701 75.652306
1.174384 -14.804108 76.890682
1.13449 -18.171926 75.135166
1.165984 -16.500635 76.018887
1.190605 -18.184332 76.373542
0.487497 10.523158 74.06823
0.368896 10.493706 75.192383
0.488066 8.651628 74.749657
0.487497 10.523158 74.06823
0.555302 10.511238 72.899075
-0.115494 -0.303206 65.769936
0.155685 -0.35337 66.888504
-0.019457 -2.04258 66.229484
-0.209708 1.354135 65.296585
-0.115494 -0.303206 65.769936
-0.674958 -15.333335 85.795193
-0.259652 -15.167671 85.12698
-0.815029 -13.638768 85.42437
-0.536146 -17.020865 86.141423
-0.674958 -15.333335 85.795193
-1.091523 -15.491962 86.438813
-5.139481 2.218871 84.092228
-5.147401 4.100299 83.674141
-4.426804 0.830802 84.333718
-5.139481 2.218871 84.092228
-5.100552 0.376965 84.491208
-4.297216 -2.805324 85.106556
-5.035762 -1.454089 84.868359
-4.945102 -3.248308 85.242218
0.132199 -7.280327 67.245712
0.106149 -5.530567 66.957821
0.132199 -7.280327 67.245712
0.404255 -7.42206 68.382435
0.602821 -7.507935 69.540844
0.799079 -7.607619 70.716324
0.106149 -5.530567 66.957821
0.043722 -3.757319 66.593059
0.314149 -3.865993 67.712814
1.250125 -18.195895 78.822823
1.279901 -18.191676 77.630752
1.192324 -16.517259 78.449333
1.251383 -18.199712 80.023647
1.044439 -16.539352 80.750644
1.133274 -18.217588 81.132889
1.250125 -18.195895 78.822823
1.251383 -18.199712 80.023647
-4.097055 12.276324 81.410652
-4.855508 11.81381 81.664989
-3.412814 12.648478 81.002644
-4.097055 12.276324 81.410652
-3.557227 10.684365 81.608159
-2.725582 13.013281 80.557827
-3.412814 12.648478 81.002644
-2.276862 11.339192 80.607975
-2.725582 13.013281 80.557827
-1.784704 9.693694 80.586582
-2.276862 11.339192 80.607975
-2.380828 9.411022 81.178757
-1.389593 7.973689 80.422745
-1.285627 9.901859 79.851963
-1.784704 9.693694 80.586582
-4.441731 4.561521 83.489814
-5.123399 5.989111 83.229218
-5.147401 4.100299 83.674141
1.044579 -9.565119 74.617599
1.015981 -7.777064 74.260354
1.02564 -7.812692 75.450264
1.044579 -9.565119 74.617599
1.062618 -11.32481 74.951713
1.098833 -13.072023 75.310009
1.118269 -14.791701 75.652306
-4.348259 -11.89575 86.995449
-4.4635 -10.214289 86.659577
-3.569816 -13.188402 87.232586
-4.348259 -11.89575 86.995449
-4.22517 -13.569078 87.322365
-2.847074 -14.566068 87.295624
-2.970162 -12.892741 86.968708
-3.569816 -13.188402 87.232586
-2.123404 -15.941381 87.346215
-2.847074 -14.566068 87.295624
-1.600066 -15.72495 86.908394
-2.123404 -15.941381 87.346215
-0.426706 10.240132 78.198147
-0.806806 10.100505 79.085949
-0.510416 8.32148 78.800323
-0.426706 10.240132 78.198147
-0.083334 10.361618 77.273357
0.166556 10.442152 76.254002
0.368896 10.493706 75.192383
0.494322 6.757129 69.416046
0.49031 8.587706 69.992012
0.602826 6.817779 70.65403
0.494322 6.757129 69.416046
0.441418 4.948274 68.865643
0.167823 3.147676 67.041088
0.388576 3.151007 68.211643
0.2804 1.389336 67.59951
0.167823 3.147676 67.041088
-0.062365 3.070578 65.845391
3 72 20 73
3 74 73 18
3 72 73 74
3 75 18 76
3 0 77 79
3 79 78 22
3 77 78 79
3 0 25 23
3 0 22 25
3 1 29 27
3 80 31 81
3 82 33 83
3 84 83 31
3 82 83 84
3 1 36 34
3 1 27 36
3 86 85 38
3 2 87 88
3 3 89 91
3 91 90 39
3 89 90 91
3 3 92 93
3 3 94 95
3 97 96 40
3 4 44 42
3 6 45 19
3 6 98 100
3 100 99 45
3 98 99 100
3 101 47 102
3 4 48 21
3 4 42 48
3 8 103 105
3 105 104 49
3 103 104 105
3 9 52 50
3 11 53 24
3 11 54 53
3 11 56 54
3 8 57 26
3 8 49 57
3 13 60 58
3 15 61 28
3 15 62 61
3 5 63 43
3 106 64 107
3 108 107 30
3 106 107 108
3 110 109 64
3 16 65 32
3 16 66 65
3 7 67 46
3 17 68 35
3 17 69 68
3 17 70 69
3 13 71 37
3 13 58 71
3 14 111 113
3 113 112 59
3 111 112 113
3 10 114 116
3 116 115 51
3 114 115 116
3 12 117 119
3 119 118 55
3 117 118 119
3 121 120 41
3 18 19 4
3 20 19 18
3 20 6 19
3 122 21 123
3 18 124 126
3 124 21 125
3 124 125 126
3 18 4 21
3 22 127 129
3 129 128 8
3 127 128 129
3 131 130 22
3 23 24 9
3 25 24 23
3 25 11 24
3 25 26 11
3 22 26 25
3 22 8 26
3 27 28 13
3 29 28 27
3 29 15 28
3 132 30 133
3 134 133 5
3 132 133 134
3 135 30 136
3 138 137 30
3 31 139 141
3 139 140 141
3 31 142 144
3 142 143 144
3 31 145 147
3 145 32 146
3 145 146 147
3 33 32 31
3 33 16 32
3 34 35 7
3 36 35 34
3 36 17 35
3 36 37 17
3 27 37 36
3 27 13 37
3 38 148 150
3 150 149 14
3 148 149 150
3 153 152 38
3 151 152 153
3 39 154 156
3 156 155 10
3 154 155 156
3 158 157 39
3 40 41 12
3 159 41 160
3 161 160 40
3 159 160 161
3 163 162 41
3 42 43 1
3 44 43 42
3 44 5 43
3 19 44 4
3 45 44 19
3 45 5 44
3 45 164 166
3 166 165 5
3 164 165 166
3 169 168 45
3 167 168 169
3 170 46 171
3 47 172 174
3 172 46 173
3 172 173 174
3 47 7 46
3 21 175 177
3 175 47 176
3 175 176 177
3 48 47 21
3 48 7 47
3 48 34 7
3 42 34 48
3 42 1 34
3 49 178 179
3 181 180 49
3 183 182 8
3 50 51 2
3 52 51 50
3 52 10 51
3 24 52 9
3 53 52 24
3 53 10 52
3 53 39 10
3 54 39 53
3 54 3 39
3 54 55 3
3 56 55 54
3 56 12 55
3 26 56 11
3 57 56 26
3 57 12 56
3 57 40 12
3 49 40 57
3 49 184 186
3 186 185 40
3 184 185 186
3 58 59 0
3 60 59 58
3 60 14 59
3 28 60 13
3 61 60 28
3 61 14 60
3 61 38 14
3 62 38 61
3 62 187 189
3 189 188 38
3 187 188 189
3 43 29 1
3 63 29 43
3 63 15 29
3 30 63 5
3 64 63 30
3 64 15 63
3 64 62 15
3 190 62 191
3 192 191 64
3 190 191 192
3 194 193 62
3 32 195 196
3 65 197 199
3 199 198 32
3 197 198 199
3 65 200 201
3 65 202 203
3 66 204 206
3 206 205 65
3 204 205 206
3 66 207 209
3 207 2 208
3 207 208 209
3 46 210 212
3 210 33 211
3 210 211 212
3 67 33 46
3 67 16 33
3 35 67 7
3 68 67 35
3 68 16 67
3 68 66 16
3 69 66 68
3 69 2 66
3 69 50 2
3 70 50 69
3 70 9 50
3 37 70 17
3 71 70 37
3 71 9 70
3 71 23 9
3 58 23 71
3 58 0 23
3 59 213 215
3 215 214 0
3 213 214 215
3 217 216 59
3 219 218 14
3 220 20 221
3 222 20 223
3 222 223 224
3 225 6 226
3 227 226 20
3 225 226 227
3 228 6 229
3 231 230 6
3 51 232 234
3 234 233 2
3 232 233 234
3 236 235 51
3 238 237 10
3 55 239 241
3 241 240 3
3 239 240 241
3 243 242 55
3 41 244 246
3 246 245 12
3 244 245 246
3 248 247 41
