ply
format ascii 1.0
element vertex 555
property float x
property float y
property float z
element face 615
property list uchar int vertex_index
end_header
-64.724747 -68.124832 -9.054024
-54.715004 -74.522293 -20.293007
-55.546261 -48.833969 -35.993275
-56.959625 -79.001694 -7.084108
-52.84655 -83.425293 -13.322186
-61.124302 -71.402557 -15.592134
-53.77689 -34.384087 -42.585415
-58.336761 -75.270706 -0.11709
-47.610806 -77.6539 -24.318581
-55.633617 -62.564529 -28.156464
-48.015984 -63.967682 -30.39204
-47.339684 -49.824242 -35.877884
-61.166805 -73.735023 -7.970545
-59.375809 -75.505219 -11.313135
-63.432701 -69.710548 -12.451773
-53.947174 -79.346909 -16.732754
-51.128731 -75.976105 -22.274342
-59.194416 -48.616104 -35.007824
-59.436462 -55.506958 -30.879799
-55.735588 -55.8088 -32.174561
-51.841789 -63.070328 -29.403946
-51.869286 -56.133366 -32.957771
-47.807648 -56.89962 -33.286873
-51.591667 -49.122726 -36.217682
-49.697868 -34.712936 -41.538445
-53.010132 -84.349411 -6.372038
-51.393353 -86.96434 -9.78533
-55.129444 -81.096375 -10.372124
-56.903885 -77.398956 -14.241854
-58.142891 -73.043076 -18.183308
-54.971722 -41.698032 -39.471813
-66.558853 -63.482475 -13.70623
-39.771881 -88.699387 -25.209599
-58.146896 -77.12661 -3.567379
-61.912693 -72.064476 -4.536953
-44.033661 -79.662048 -26.066391
-64.851982 -65.016159 -17.053249
-62.207565 -66.588379 -20.007538
-58.930531 -67.907143 -22.325527
-59.356384 -62.009865 -26.611012
-55.274654 -68.886276 -24.130878
-51.555832 -69.783859 -25.767029
-47.922935 -70.975952 -27.338482
-44.161335 -72.63295 -28.443813
-43.959484 -65.409531 -30.794994
-43.489864 -58.176537 -33.026566
-50.928139 -41.996025 -39.061478
-46.61924 -42.645618 -38.11797
-63.081665 -70.987282 -8.483915
-62.409184 -71.806213 -10.197062
-64.234406 -68.902107 -10.758574
-54.363419 -77.036385 -18.480682
-52.338844 -80.351471 -17.900181
-52.645798 -77.898155 -19.552074
-50.905258 -78.792053 -20.635921
-52.921951 -75.236176 -21.277493
-57.407654 -48.744308 -35.607712
-57.547058 -52.24287 -33.632854
-55.680145 -52.341297 -34.119442
-53.821617 -55.937328 -32.621529
-53.755718 -52.453098 -34.447289
-51.771389 -52.636692 -34.635296
-53.607971 -48.942238 -36.187519
-54.902573 -81.634476 -6.703579
-54.086475 -82.764961 -8.398478
-56.107723 -80.01844 -8.770384
-60.340347 -73.53846 -13.438522
-58.209698 -76.442146 -12.839762
-59.035027 -74.429932 -14.88414
-57.588253 -75.314026 -16.191601
-59.703438 -72.241104 -16.961853
-56.5923 -77.646133 0.388523
-56.488853 -78.616745 -1.369684
-58.387482 -76.218018 -1.815485
-60.113449 -74.639633 -4.020653
-60.19138 -73.756981 -2.320267
-52.152725 -85.247513 -11.586397
-47.439331 -80.762245 -22.881458
-45.696404 -81.853531 -23.96452
-43.895016 -83.001541 -24.909496
-45.852413 -78.620193 -25.272873
-65.849167 -64.228729 -15.40362
-62.545212 -63.90451 -22.253593
-60.633919 -67.293304 -21.247421
-60.927292 -64.531143 -23.44009
-57.600967 -59.054783 -29.53035
-59.438816 -58.8204 -28.756992
-57.5168 -62.322617 -27.436813
-57.358856 -65.457703 -25.342621
-55.483002 -65.796738 -26.131664
-53.405743 -69.320343 -24.95237
-53.597275 -66.115463 -26.869591
-49.942848 -63.450508 -29.94405
-49.869881 -66.919418 -28.261997
-48.006302 -67.492165 -28.873825
-46.08091 -71.749718 -27.989323
-46.096432 -68.201111 -29.353718
-44.103092 -69.028778 -29.629597
-46.029255 -64.628609 -30.694824
-47.603073 -53.368011 -34.626476
-45.677326 -57.488861 -33.242622
-45.423923 -53.921787 -34.424286
-43.213242 -54.555336 -34.077526
-45.136673 -50.339893 -35.534389
-54.47049 -38.061256 -41.069733
-52.995674 -41.813408 -39.360233
-52.47575 -38.181641 -40.794598
-47.599281 -35.004456 -40.838531
-48.268661 -38.645279 -39.762794
-46.130081 -39.012917 -39.133739
-59.086525 -76.389999 -7.506145
-58.23777 -77.319061 -9.200636
-60.375233 -74.600754 -9.677826
-61.477928 -72.658173 -11.864937
-62.379295 -70.550125 -14.078815
-53.446156 -81.468414 -15.02496
-51.980835 -82.604782 -16.300243
-49.359192 -76.774651 -23.296913
-61.093872 -51.858028 -32.10397
-59.35397 -52.097824 -32.966389
-57.610741 -55.68581 -31.601833
-55.719139 -59.224464 -30.179157
-53.736885 -62.792976 -28.805786
-53.813766 -59.390106 -30.732388
-51.891579 -59.615189 -31.205498
-49.943298 -59.952404 -31.593288
-47.948051 -60.432194 -31.869858
-49.869194 -56.445862 -33.184135
-49.721592 -52.935581 -34.69458
-49.499176 -49.412773 -36.108566
-52.856117 -30.689104 -44.036793
-51.77005 -34.513279 -42.147884
-50.849144 -30.83778 -43.444073
-48.801743 -31.06735 -42.697952
-50.616859 -88.596893 -7.899054
-52.247051 -85.614624 -8.101744
-53.168716 -83.969574 -10.023726
-54.040558 -82.232468 -11.884289
-57.226341 -78.296684 -10.80929
-56.080727 -79.317551 -12.311308
-54.817009 -80.375046 -13.708483
-55.47686 -78.36676 -15.528709
-56.022202 -76.181183 -17.377365
-56.468887 -73.800034 -19.279011
-58.95293 -45.076893 -36.997589
-57.181263 -45.198429 -37.513611
-55.318748 -45.287857 -37.780186
-56.84407 -41.606255 -39.342186
-56.360458 -37.967506 -41.091591
-55.688187 -34.287754 -42.767319
-54.786327 -30.584595 -44.380386
-66.011551 -65.156693 -9.684584
-65.76104 -65.886154 -11.364401
-66.919754 -62.784107 -12.014193
-53.67746 -83.167633 -4.595659
-55.599258 -80.576439 -4.949163
-56.142948 -79.579453 -3.160078
-57.654297 -78.043266 -5.337376
-59.729271 -75.50428 -5.763977
-61.697243 -72.898926 -6.240202
-63.437462 -70.186829 -6.779066
-57.984978 -74.236343 1.507616
-59.93964 -72.808701 -0.693878
-61.77771 -71.189438 -2.900919
-63.430828 -69.371735 -5.129217
-64.849892 -67.357529 -7.38891
-41.838745 -87.448486 -24.659527
-41.984032 -84.177872 -25.613697
-42.103577 -80.750168 -26.601097
-65.150818 -66.646927 -13.066628
-64.239944 -67.446564 -14.738503
-63.087463 -68.270279 -16.325552
-63.623859 -65.816299 -18.602051
-61.73996 -69.087494 -17.782539
-60.230339 -69.863892 -19.083519
-58.585205 -70.574875 -20.228634
-56.834602 -71.215263 -21.244831
-61.194916 -55.224838 -29.985394
-61.204731 -58.476665 -27.828053
-61.116699 -61.58662 -25.640789
-59.18697 -65.046776 -24.459953
-57.130463 -68.429817 -23.271229
-55.017147 -71.802162 -22.178589
-53.176506 -72.370636 -23.081158
-51.350151 -72.964233 -23.989826
-49.555695 -73.623817 -24.911022
-51.725826 -66.472252 -27.581318
-49.734367 -70.324631 -26.574833
-47.782143 -74.378143 -25.811497
-45.991653 -75.237541 -26.621605
-44.132774 -76.191071 -27.250572
-42.160851 -77.206116 -27.609272
-42.131496 -73.587456 -28.625439
-45.884697 -61.055489 -31.995808
-43.746864 -61.791588 -31.930073
-53.362755 -45.398865 -37.826878
-51.317375 -45.579865 -37.693104
-49.194275 -45.862263 -37.41927
-50.397793 -38.368599 -40.335537
-48.791496 -42.272415 -38.631672
-47.01553 -46.252678 -37.038914
-44.818062 -46.73082 -36.573452
-51.939718 -85.012764 -13.215296
-51.592806 -85.923874 -12.347402
-52.499637 -84.336403 -12.454292
-62.65459 -62.472208 -23.37647
-63.406655 -62.145168 -22.717165
-61.84563 -62.785525 -23.969719
-61.736252 -64.217827 -22.846842
-62.65459 -62.472208 -23.37647
-45.824909 -37.200661 -39.62276
-46.864681 -37.008686 -39.986135
-46.559509 -35.19643 -40.475156
-45.081615 -39.231667 -38.808607
-45.824909 -37.200661 -39.62276
-51.388197 -82.073563 -17.738064
-51.509415 -80.874859 -18.487776
-50.148449 -77.859024 -22.013134
-50.036713 -79.266998 -21.193924
-51.016995 -77.384079 -21.455132
-50.243961 -76.375378 -22.785628
-49.263679 -78.258297 -22.52442
-50.148449 -77.859024 -22.013134
-59.274193 -50.356964 -33.987106
-60.131453 -50.249886 -33.574021
-60.051676 -48.509025 -34.594738
-51.266138 -28.927692 -44.443049
-51.852631 -30.763442 -43.740433
-52.269624 -28.853355 -44.739409
-48.245039 -29.280212 -43.268206
-49.246796 -29.136661 -43.701898
-47.778757 -31.232951 -42.292652
-48.245039 -29.280212 -43.268206
-52.628591 -84.982018 -7.236891
-51.791292 -86.400536 -7.103333
-52.172832 -85.767929 -6.23848
-58.782133 -43.282364 -37.964332
-59.617982 -43.18757 -37.60948
-57.896299 -43.343132 -38.222343
-58.067097 -45.137661 -37.2556
-58.782133 -43.282364 -37.964332
-57.727703 -41.547045 -39.136631
-57.012667 -43.402342 -38.427898
-57.896299 -43.343132 -38.222343
-56.923362 -36.073078 -41.858269
-57.248674 -37.910244 -40.94895
-56.587227 -34.233202 -42.696133
-56.024322 -36.12763 -41.929455
-56.923362 -36.073078 -41.858269
-55.133356 -28.682755 -45.246006
-55.700002 -30.531893 -44.386065
-54.204855 -28.73787 -45.161484
-55.133356 -28.682755 -45.246006
-66.902336 -62.45029 -11.192613
-66.465653 -63.9704 -10.849388
-66.448234 -63.636584 -10.027808
-38.655319 -89.287247 -25.29554
-38.555021 -90.920853 -25.013794
-39.848749 -87.020325 -25.599186
-38.655319 -89.287247 -25.29554
-53.952675 -82.614914 -3.690473
-53.08909 -83.898941 -3.517658
-54.913574 -81.319317 -3.867225
-54.638359 -81.872036 -4.772411
-53.952675 -82.614914 -3.690473
-57.676613 -73.658501 2.283571
-56.988865 -74.861794 2.616491
-56.6805 -74.283951 3.392447
-60.61788 -71.519093 -1.023266
-59.658834 -72.280952 0.077352
-60.337074 -70.991344 -0.252036
-61.536915 -70.709462 -2.126787
-60.858675 -71.999069 -1.797398
-60.61788 -71.519093 -1.023266
-64.007345 -67.967422 -5.464507
-63.240465 -68.935547 -4.346634
-64.716877 -66.960319 -6.594354
-64.14036 -68.364632 -6.259063
-64.007345 -67.967422 -5.464507
-65.357079 -65.893898 -7.728583
-64.716877 -66.960319 -6.594354
-50.598772 -88.53093 -9.72881
-50.210526 -89.347206 -8.785673
-51.005106 -87.780617 -8.842192
-42.796312 -86.808937 -24.227217
-41.771946 -88.988503 -24.201922
-62.915712 -66.202339 -19.304794
-63.817781 -64.502004 -19.748276
-63.109634 -64.888045 -20.45102
-42.984616 -67.669747 -30.217526
-43.056419 -69.47937 -29.634827
-44.031288 -67.219155 -30.212295
-42.884163 -65.833695 -30.721058
-42.984616 -67.669747 -30.217526
-42.523026 -60.379065 -32.334406
-42.651526 -62.18659 -31.78616
-43.618364 -59.984063 -32.478319
-42.387568 -58.538142 -32.823626
-42.523026 -60.379065 -32.334406
-42.119833 -54.880045 -33.827152
-43.073735 -52.735706 -34.578066
-51.662892 -79.648201 -19.313723
-51.509415 -80.874859 -18.487776
-52.492321 -79.124813 -18.726128
-51.775528 -78.345104 -20.093998
-50.792622 -80.09515 -19.855646
-51.662892 -79.648201 -19.313723
-39.69066 -90.288926 -24.837658
-38.555021 -90.920853 -25.013794
-38.4738 -92.510391 -24.641853
-56.540577 -78.131439 -0.49058
-55.659666 -79.302059 -0.263591
-55.711389 -78.816753 0.615512
-51.29663 -86.823288 -11.511181
-50.916944 -87.681702 -10.610647
-51.773039 -86.105927 -10.685863
-51.29663 -86.823288 -11.511181
-51.592806 -85.923874 -12.347402
-46.497709 -82.831539 -22.796383
-47.365257 -82.217365 -22.196666
-45.626245 -83.377182 -23.337914
-46.497709 -82.831539 -22.796383
-46.567868 -81.307888 -23.422989
-44.725142 -84.01146 -23.879714
-45.626245 -83.377182 -23.337914
-44.79571 -82.427536 -24.437008
-43.824448 -84.585465 -24.352201
-44.725142 -84.01146 -23.879714
-66.498936 -62.576892 -15.735292
-66.20401 -63.855602 -14.554925
-66.853779 -62.203766 -14.886596
-66.104668 -62.941389 -16.57978
-66.498936 -62.576892 -15.735292
-65.606075 -63.335104 -17.404594
-65.350574 -64.622444 -16.228434
-66.104668 -62.941389 -16.57978
-63.278458 -63.54611 -21.574047
-63.406655 -62.145168 -22.717165
-62.376389 -65.246444 -21.130565
-63.109634 -64.888045 -20.45102
-63.278458 -63.54611 -21.574047
-44.03545 -50.627985 -35.306497
-43.073735 -52.735706 -34.578066
-44.174958 -52.447615 -34.805957
-45.294027 -41.053608 -38.342196
-45.538607 -42.869958 -37.834311
-46.37466 -40.829268 -38.625855
-45.294027 -41.053608 -38.342196
-45.081615 -39.231667 -38.808607
-55.698639 -78.291427 1.498982
-55.711389 -78.816753 0.615512
-56.508678 -77.131889 1.239164
-55.698639 -78.291427 1.498982
-57.380909 -75.944176 0.986357
-57.464531 -76.45842 0.135717
-56.508678 -77.131889 1.239164
-52.497786 -83.073433 -14.870934
-52.197983 -84.051873 -14.019547
-53.146353 -82.446854 -14.173573
-51.765125 -83.641617 -15.508575
-52.497786 -83.073433 -14.870934
-52.713496 -82.036598 -15.662601
-51.066578 -84.301727 -16.202482
-51.765125 -83.641617 -15.508575
-51.209193 -83.200218 -16.938095
-52.15984 -81.478127 -17.100212
-51.388197 -82.073563 -17.738064
-51.066578 -84.301727 -16.202482
-51.209193 -83.200218 -16.938095
-49.949888 -80.647522 -20.459339
-50.792622 -80.09515 -19.855646
-49.949888 -80.647522 -20.459339
-50.036713 -79.266998 -21.193924
-48.303749 -80.252094 -22.316692
-47.365257 -82.217365 -22.196666
-48.399262 -78.768448 -23.089185
-48.303749 -80.252094 -22.316692
-49.263679 -78.258297 -22.52442
-61.001404 -50.129987 -33.142811
-61.822519 -49.966541 -32.6185
-60.223921 -51.977926 -32.535179
-61.001404 -50.129987 -33.142811
-60.131453 -50.249886 -33.574021
-50.270497 -29.021876 -44.074959
-51.266138 -28.927692 -44.443049
-49.825444 -30.952565 -43.071013
-50.270497 -29.021876 -44.074959
-49.246796 -29.136661 -43.701898
-47.177526 -33.201504 -41.362942
-48.200512 -33.035903 -41.768242
-47.778757 -31.232951 -42.292652
-46.559509 -35.19643 -40.475156
-47.177526 -33.201504 -41.362942
-50.976196 -87.89167 -7.001988
-50.246688 -89.374557 -6.910685
-51.431955 -87.105759 -8.000399
-50.976196 -87.89167 -7.001988
-51.791292 -86.400536 -7.103333
-59.918239 -46.746695 -35.61392
-60.051676 -48.509025 -34.594738
-59.797497 -44.977089 -36.608802
-59.617982 -43.18757 -37.60948
-59.073673 -46.846498 -36.002707
-59.918239 -46.746695 -35.61392
-59.797497 -44.977089 -36.608802
-57.49048 -39.729619 -40.074247
-57.727703 -41.547045 -39.136631
-56.602264 -39.78688 -40.216888
-57.49048 -39.729619 -40.074247
-57.248674 -37.910244 -40.94895
-56.150932 -32.383472 -43.579531
-56.587227 -34.233202 -42.696133
-55.237257 -32.436174 -43.573853
-56.150932 -32.383472 -43.579531
-55.700002 -30.531893 -44.386065
-53.23975 -28.790124 -44.989687
-53.821222 -30.63685 -44.20859
-54.204855 -28.73787 -45.161484
-52.269624 -28.853355 -44.739409
-53.23975 -28.790124 -44.989687
-67.292259 -61.211486 -12.357788
-66.902336 -62.45029 -11.192613
-67.260407 -61.519521 -13.190778
-67.292259 -61.211486 -12.357788
-67.079956 -61.868706 -14.036796
-66.739304 -63.133291 -12.860212
-67.260407 -61.519521 -13.190778
-66.853779 -62.203766 -14.886596
-67.079956 -61.868706 -14.036796
-52.488366 -85.107452 -5.327998
-52.172832 -85.767929 -6.23848
-52.822029 -84.516563 -4.439808
-53.08909 -83.898941 -3.517658
-53.343796 -83.758522 -5.483849
-52.488366 -85.107452 -5.327998
-52.822029 -84.516563 -4.439808
-55.557512 -79.815213 -1.166654
-55.659666 -79.302059 -0.263591
-55.384559 -80.296566 -2.06185
-55.557512 -79.815213 -1.166654
-56.3159 -79.098099 -2.264881
-55.185419 -80.820824 -2.972682
-55.384559 -80.296566 -2.06185
-55.871103 -80.077946 -4.054621
-54.913574 -81.319317 -3.867225
-55.185419 -80.820824 -2.972682
-57.205017 -75.426994 1.79871
-56.988865 -74.861794 2.616491
-58.16087 -74.753524 0.695263
-57.380909 -75.944176 0.986357
-57.205017 -75.426994 1.79871
-58.681503 -72.994774 1.178099
-57.676613 -73.658501 2.283571
-58.962309 -73.522522 0.406869
-58.681503 -72.994774 1.178099
-59.658834 -72.280952 0.077352
-62.413906 -69.844398 -3.232485
-61.536915 -70.709462 -2.126787
-62.604269 -70.280586 -4.015068
-62.413906 -69.844398 -3.232485
-63.240465 -68.935547 -4.346634
-65.937908 -64.79348 -8.87642
-65.430722 -66.257111 -8.536747
-65.357079 -65.893898 -7.728583
-66.448234 -63.636584 -10.027808
-65.937908 -64.79348 -8.87642
-49.892704 -90.151176 -7.852731
-50.246688 -89.374557 -6.910685
-49.48637 -90.901489 -8.739349
-49.892704 -90.151176 -7.852731
-50.210526 -89.347206 -8.785673
-50.598772 -88.53093 -9.72881
-50.916944 -87.681702 -10.610647
-51.939718 -85.012764 -13.215296
-52.197983 -84.051873 -14.019547
-40.724092 -89.663475 -24.562622
-41.771946 -88.988503 -24.201922
-40.805313 -88.073937 -24.934563
-39.69066 -90.288926 -24.837658
-40.724092 -89.663475 -24.562622
-42.866881 -85.225014 -24.784512
-42.796312 -86.808937 -24.227217
-43.824448 -84.585465 -24.352201
-40.954825 -84.759568 -25.801235
-39.848749 -87.020325 -25.599186
-40.877956 -86.438629 -25.411648
-41.014597 -83.045716 -26.294935
-40.954825 -84.759568 -25.801235
-42.043805 -82.46402 -26.107397
-41.067572 -81.294311 -26.700235
-39.978592 -83.589859 -26.394073
-41.014597 -83.045716 -26.294935
-65.074321 -63.718885 -18.217672
-65.606075 -63.335104 -17.404594
-64.46026 -64.118955 -18.992073
-63.817781 -64.502004 -19.748276
-64.237921 -65.416229 -17.82765
-65.074321 -63.718885 -18.217672
-64.46026 -64.118955 -18.992073
-61.924486 -51.677934 -31.572559
-61.822519 -49.966541 -32.6185
-61.975008 -53.361339 -30.513272
-61.924486 -51.677934 -31.572559
-61.144394 -53.541433 -31.044682
-62.029438 -55.020595 -29.445288
-61.975008 -53.361339 -30.513272
-62.034346 -56.646509 -28.366618
-62.029438 -55.020595 -29.445288
-61.199824 -56.850752 -28.906723
-62.036856 -58.240716 -27.275134
-62.034346 -56.646509 -28.366618
-61.99284 -59.795694 -26.181502
-62.036856 -58.240716 -27.275134
-61.160715 -60.031643 -26.734421
-61.940334 -61.313263 -25.070069
-61.99284 -59.795694 -26.181502
-61.021996 -63.058881 -24.54044
-61.84563 -62.785525 -23.969719
-61.940334 -61.313263 -25.070069
-41.096209 -79.522285 -27.204323
-41.067572 -81.294311 -26.700235
-42.132214 -78.978142 -27.105185
-41.109499 -77.717956 -27.621471
-41.096209 -79.522285 -27.204323
-41.094821 -75.908626 -28.129555
-41.109499 -77.717956 -27.621471
-42.146174 -75.396786 -28.117356
-41.061018 -74.069965 -28.555365
-41.094821 -75.908626 -28.129555
-42.070622 -71.758709 -29.132748
-43.117294 -71.308117 -29.127518
-43.056419 -69.47937 -29.634827
-41.061018 -74.069965 -28.555365
-42.070622 -71.758709 -29.132748
-42.777853 -64.024723 -31.288597
-42.884163 -65.833695 -30.721058
-43.853174 -63.60056 -31.362533
-42.777853 -64.024723 -31.288597
-42.651526 -62.18659 -31.78616
-42.249257 -56.727541 -33.349106
-42.387568 -58.538142 -32.823626
-43.351553 -56.365937 -33.552046
-41.155848 -57.05225 -33.098732
-42.249257 -56.727541 -33.349106
-42.119833 -54.880045 -33.827152
-43.876144 -48.823448 -35.826029
-44.03545 -50.627985 -35.306497
-44.977367 -48.535357 -36.053921
-44.638018 -44.91256 -37.062052
-45.718651 -44.688219 -37.345711
-45.538607 -42.869958 -37.834311
-43.737327 -46.992092 -36.301899
-44.638018 -44.91256 -37.062052
-43.876144 -48.823448 -35.826029
-43.737327 -46.992092 -36.301899
3 0 50 48
3 1 53 51
3 1 55 53
3 2 58 56
3 2 60 58
3 2 62 60
3 3 65 63
3 5 68 66
3 5 70 68
3 7 73 71
3 7 75 73
3 4 202 204
3 204 203 76
3 202 203 204
3 8 78 77
3 8 80 78
3 205 82 206
3 207 84 208
3 209 208 82
3 207 208 209
3 9 87 85
3 9 89 87
3 9 91 89
3 10 94 92
3 10 96 94
3 10 98 96
3 11 101 99
3 11 103 101
3 6 106 104
3 210 109 211
3 212 211 107
3 210 211 212
3 214 213 109
3 12 112 110
3 14 113 49
3 14 114 113
3 15 116 115
3 216 215 52
3 16 217 219
3 219 218 54
3 217 218 219
3 16 220 222
3 220 117 221
3 220 221 222
3 17 223 225
3 223 119 224
3 223 224 225
3 19 120 57
3 19 121 120
3 19 123 121
3 21 124 59
3 21 125 124
3 21 127 125
3 23 128 61
3 23 129 128
3 226 132 227
3 228 227 130
3 226 227 228
3 229 133 230
3 232 231 133
3 25 233 235
3 233 135 234
3 233 234 235
3 27 136 64
3 27 137 136
3 13 138 111
3 28 139 67
3 28 140 139
3 28 141 140
3 29 142 69
3 29 143 142
3 236 144 237
3 238 145 239
3 240 239 144
3 238 239 240
3 241 147 242
3 243 242 145
3 241 242 243
3 244 148 245
3 246 149 247
3 248 247 148
3 246 247 248
3 249 150 250
3 252 251 150
3 253 153 254
3 255 254 151
3 253 254 255
3 32 256 257
3 32 258 259
3 260 154 261
3 262 155 263
3 264 263 154
3 262 263 264
3 33 156 72
3 33 157 156
3 33 158 157
3 34 159 74
3 34 160 159
3 265 161 266
3 265 266 267
3 268 162 269
3 268 269 270
3 271 163 272
3 273 272 162
3 271 272 273
3 274 164 275
3 276 165 277
3 278 277 164
3 276 277 278
3 280 279 165
3 26 281 283
3 283 282 134
3 281 282 283
3 284 166 285
3 35 167 79
3 35 168 167
3 31 169 152
3 36 170 81
3 36 171 170
3 37 286 288
3 286 172 287
3 286 287 288
3 37 173 172
3 37 174 173
3 38 175 83
3 38 176 175
3 18 177 118
3 39 178 86
3 39 179 178
3 39 180 179
3 40 181 88
3 40 182 181
3 40 183 182
3 41 184 90
3 41 185 184
3 20 186 122
3 42 187 93
3 42 188 187
3 42 189 188
3 43 190 95
3 43 191 190
3 43 192 191
3 44 289 291
3 291 290 97
3 289 290 291
3 44 292 293
3 22 193 126
3 45 194 100
3 45 294 296
3 296 295 194
3 294 295 296
3 45 297 298
3 300 299 102
3 30 195 146
3 46 196 105
3 46 197 196
3 24 198 131
3 47 199 108
3 47 200 199
3 47 201 200
3 48 49 12
3 50 49 48
3 50 14 49
3 51 52 15
3 53 52 51
3 53 301 303
3 303 302 52
3 301 302 303
3 53 304 306
3 304 54 305
3 304 305 306
3 55 54 53
3 55 16 54
3 56 57 17
3 58 57 56
3 58 19 57
3 58 59 19
3 60 59 58
3 60 21 59
3 60 61 21
3 62 61 60
3 62 23 61
3 63 64 25
3 65 64 63
3 65 27 64
3 66 67 13
3 68 67 66
3 68 28 67
3 68 69 28
3 70 69 68
3 70 29 69
3 307 32 308
3 307 308 309
3 71 310 312
3 310 72 311
3 310 311 312
3 73 72 71
3 73 33 72
3 73 74 33
3 75 74 73
3 75 34 74
3 76 313 315
3 315 314 26
3 313 314 315
3 317 316 76
3 77 318 319
3 78 320 322
3 322 321 77
3 320 321 322
3 78 323 324
3 78 325 327
3 325 79 326
3 325 326 327
3 80 79 78
3 80 35 79
3 328 81 329
3 330 329 31
3 328 329 330
3 331 81 332
3 333 36 334
3 335 334 81
3 333 334 335
3 82 336 337
3 82 338 340
3 338 37 339
3 338 339 340
3 82 83 37
3 84 83 82
3 84 38 83
3 85 86 18
3 87 86 85
3 87 39 86
3 87 88 39
3 89 88 87
3 89 40 88
3 89 90 40
3 91 90 89
3 91 41 90
3 92 93 20
3 94 93 92
3 94 42 93
3 94 95 42
3 96 95 94
3 96 43 95
3 96 97 43
3 98 97 96
3 98 44 97
3 99 100 22
3 101 100 99
3 101 45 100
3 101 102 45
3 103 102 101
3 103 341 343
3 343 342 102
3 341 342 343
3 104 105 30
3 106 105 104
3 106 46 105
3 107 108 24
3 109 108 107
3 109 47 108
3 109 344 346
3 346 345 47
3 344 345 346
3 348 347 109
3 110 111 3
3 112 111 110
3 112 13 111
3 49 112 12
3 113 112 49
3 113 13 112
3 113 66 13
3 114 66 113
3 114 5 66
3 349 71 350
3 351 71 352
3 353 7 354
3 355 354 71
3 353 354 355
3 115 356 358
3 358 357 4
3 356 357 358
3 116 359 361
3 361 360 115
3 359 360 361
3 116 362 363
3 52 116 15
3 364 116 365
3 366 365 52
3 364 365 366
3 368 367 116
3 54 369 370
3 372 371 54
3 373 77 374
3 117 375 377
3 375 77 376
3 375 376 377
3 117 8 77
3 378 118 379
3 119 380 382
3 380 118 381
3 380 381 382
3 119 18 118
3 57 119 17
3 120 119 57
3 120 18 119
3 120 85 18
3 121 85 120
3 121 9 85
3 121 122 9
3 123 122 121
3 123 20 122
3 59 123 19
3 124 123 59
3 124 20 123
3 124 92 20
3 125 92 124
3 125 10 92
3 125 126 10
3 127 126 125
3 127 22 126
3 61 127 21
3 128 127 61
3 128 22 127
3 128 99 22
3 129 99 128
3 129 11 99
3 130 131 6
3 132 131 130
3 132 24 131
3 383 132 384
3 133 385 387
3 385 132 386
3 385 386 387
3 133 24 132
3 133 107 24
3 388 107 389
3 390 389 133
3 388 389 390
3 392 391 107
3 393 134 394
3 135 395 397
3 395 134 396
3 395 396 397
3 135 26 134
3 64 135 25
3 136 135 64
3 136 26 135
3 136 76 26
3 137 76 136
3 137 4 76
3 111 65 3
3 138 65 111
3 138 27 65
3 67 138 13
3 139 138 67
3 139 27 138
3 139 137 27
3 140 137 139
3 140 4 137
3 140 115 4
3 141 115 140
3 141 15 115
3 69 141 28
3 142 141 69
3 142 15 141
3 142 51 15
3 143 51 142
3 143 1 51
3 398 17 399
3 144 400 401
3 144 402 404
3 402 17 403
3 402 403 404
3 144 56 17
3 145 56 144
3 145 2 56
3 145 146 2
3 147 146 145
3 147 30 146
3 405 147 406
3 148 407 409
3 407 147 408
3 407 408 409
3 148 30 147
3 148 104 30
3 149 104 148
3 149 6 104
3 410 149 411
3 150 412 414
3 412 149 413
3 412 413 414
3 150 6 149
3 150 130 6
3 415 130 416
3 417 416 150
3 415 416 417
3 419 418 130
3 151 152 0
3 153 152 151
3 153 31 152
3 420 153 421
3 422 153 423
3 424 31 425
3 426 425 153
3 424 425 426
3 428 427 31
3 429 25 430
3 154 431 432
3 154 433 435
3 433 25 434
3 433 434 435
3 154 63 25
3 155 63 154
3 155 3 63
3 72 436 437
3 156 438 440
3 440 439 72
3 438 439 440
3 156 441 442
3 156 443 445
3 443 155 444
3 443 444 445
3 157 155 156
3 157 3 155
3 157 110 3
3 158 110 157
3 158 12 110
3 74 158 33
3 159 158 74
3 159 12 158
3 159 48 12
3 160 48 159
3 160 0 48
3 161 446 447
3 161 448 450
3 448 7 449
3 448 449 450
3 451 161 452
3 162 453 455
3 453 161 454
3 453 454 455
3 162 7 161
3 162 75 7
3 163 75 162
3 163 34 75
3 456 163 457
3 164 458 460
3 458 163 459
3 458 459 460
3 164 34 163
3 164 160 34
3 165 160 164
3 165 0 160
3 165 151 0
3 461 151 462
3 463 462 165
3 461 462 463
3 465 464 151
3 134 466 467
3 470 469 134
3 468 469 470
3 472 471 26
3 474 473 4
3 166 475 476
3 166 477 479
3 477 32 478
3 477 478 479
3 79 480 482
3 480 166 481
3 480 481 482
3 167 166 79
3 167 32 166
3 167 483 485
3 485 484 32
3 483 484 485
3 168 486 488
3 488 487 167
3 486 487 488
3 168 489 491
3 489 490 491
3 152 50 0
3 169 50 152
3 169 14 50
3 81 169 31
3 170 169 81
3 170 14 169
3 170 114 14
3 171 114 170
3 171 5 114
3 492 36 493
3 172 494 495
3 172 496 498
3 496 36 497
3 496 497 498
3 172 171 36
3 173 171 172
3 173 5 171
3 173 70 5
3 174 70 173
3 174 29 70
3 83 174 37
3 175 174 83
3 175 29 174
3 175 143 29
3 176 143 175
3 176 1 143
3 118 499 500
3 177 501 503
3 503 502 118
3 501 502 503
3 177 504 505
3 86 177 18
3 178 177 86
3 178 506 508
3 508 507 177
3 506 507 508
3 178 509 510
3 179 511 513
3 513 512 178
3 511 512 513
3 179 514 515
3 179 516 518
3 516 84 517
3 516 517 518
3 180 84 179
3 180 38 84
3 88 180 39
3 181 180 88
3 181 38 180
3 181 176 38
3 182 176 181
3 182 1 176
3 182 55 1
3 183 55 182
3 183 16 55
3 90 183 40
3 184 183 90
3 184 16 183
3 184 117 16
3 185 117 184
3 185 8 117
3 122 91 9
3 186 91 122
3 186 41 91
3 93 186 20
3 187 186 93
3 187 41 186
3 187 185 41
3 188 185 187
3 188 8 185
3 188 80 8
3 189 80 188
3 189 35 80
3 95 189 42
3 190 189 95
3 190 35 189
3 190 168 35
3 191 168 190
3 191 519 521
3 521 520 168
3 519 520 521
3 191 522 523
3 192 524 526
3 526 525 191
3 524 525 526
3 192 527 528
3 97 192 43
3 529 192 530
3 531 530 97
3 529 530 531
3 533 532 192
3 126 98 10
3 193 98 126
3 193 44 98
3 100 193 22
3 194 193 100
3 194 44 193
3 194 534 536
3 536 535 44
3 534 535 536
3 538 537 194
3 102 539 541
3 541 540 45
3 539 540 541
3 544 543 102
3 542 543 544
3 146 62 2
3 195 62 146
3 195 23 62
3 105 195 30
3 196 195 105
3 196 23 195
3 196 129 23
3 197 129 196
3 197 11 129
3 131 106 6
3 198 106 131
3 198 46 106
3 108 198 24
3 199 198 108
3 199 46 198
3 199 197 46
3 200 197 199
3 200 11 197
3 200 103 11
3 201 103 200
3 201 545 547
3 547 546 103
3 545 546 547
3 548 201 549
3 550 549 47
3 548 549 550
3 551 201 552
3 554 553 201
