ply
format ascii 1.0
element vertex 123
property float x
property float y
property float z
element face 107
property list uchar int vertex_index
end_header
-51.981369 -23.585251 60.335072
-44.753723 -21.999798 59.846783
-51.195641 -21.015833 56.40139
-54.603477 -22.175457 56.106586
-49.423916 -25.428459 64.291924
-48.560707 -22.70433 60.389679
-47.173824 -20.110678 55.992813
-49.351368 -27.009609 65.722992
-47.322327 -23.691872 62.280037
-46.622215 -22.372169 60.101822
-47.85498 -21.433882 58.17717
-45.915638 -21.020514 57.946877
-51.915165 -25.043118 61.799252
-53.173492 -24.261883 59.707344
-51.706745 -22.266695 58.49704
-53.278801 -22.841208 58.243546
-53.059246 -21.528282 56.420341
-50.650444 -25.95857 63.810772
-50.703705 -24.441587 62.35849
-47.858658 -25.059698 64.331451
-49.12886 -24.010225 62.475697
-50.4011 -23.083412 60.523254
-49.844322 -21.821392 58.421795
-49.17289 -20.570118 56.199059
-45.370319 -19.558834 55.957382
-54.440826 -23.593208 57.557014
-45.687969 -22.185983 59.974303
-46.031826 -22.888959 61.02391
-45.09758 -22.702773 60.896391
-46.972624 -24.924408 64.200019
-47.20095 -25.63948 65.201103
-47.860933 -19.674494 55.00219
-48.860466 -19.904214 55.105312
-48.173357 -20.340398 56.095936
-44.632471 -19.205507 56.094167
-44.778421 -20.029878 56.93133
-51.90678 -20.631917 55.376207
-50.891182 -20.37999 55.296772
-48.66519 -27.591887 66.621963
-49.10718 -27.889686 66.208378
-48.728272 -26.77532 65.919586
-48.66519 -27.591887 66.621963
-48.764545 -25.984745 65.204052
-49.387642 -26.219034 65.007458
-48.728272 -26.77532 65.919586
-46.381882 -23.54881 62.113018
-46.704459 -24.240495 63.174312
-46.972271 -23.032021 61.190929
-46.381882 -23.54881 62.113018
-46.031826 -22.888959 61.02391
-52.297869 -25.441817 61.268111
-51.680872 -25.862068 62.306239
-52.927033 -25.051199 60.222156
-52.297869 -25.441817 61.268111
-52.544329 -24.652501 60.753298
-53.540829 -24.69873 59.151121
-52.927033 -25.051199 60.222156
-55.162886 -22.58937 55.739208
-55.278103 -21.862397 55.026207
-44.198981 -22.530725 60.755429
-45.09758 -22.702773 60.896391
-52.838583 -20.888141 55.385683
-52.127443 -21.272058 56.410865
-51.90678 -20.631917 55.376207
-53.758196 -21.178064 55.367446
-52.838583 -20.888141 55.385683
-54.530311 -21.501651 55.210569
-53.831361 -21.851869 56.263464
-53.758196 -21.178064 55.367446
-55.278103 -21.862397 55.026207
-54.530311 -21.501651 55.210569
-49.767969 -27.336169 65.263469
-49.10718 -27.889686 66.208378
-50.417507 -26.81065 64.307359
-49.767969 -27.336169 65.263469
-50.000906 -26.48409 64.766882
-51.048512 -26.319794 63.311999
-50.417507 -26.81065 64.307359
-51.282804 -25.500844 62.805012
-51.680872 -25.862068 62.306239
-51.048512 -26.319794 63.311999
-47.981916 -25.800365 65.223816
-47.20095 -25.63948 65.201103
-48.641287 -25.244079 64.311688
-48.764545 -25.984745 65.204052
-47.981916 -25.800365 65.223816
-47.590492 -24.375785 63.305744
-46.972624 -24.924408 64.200019
-46.704459 -24.240495 63.174312
-49.879807 -20.157133 55.195606
-50.891182 -20.37999 55.296772
-50.184266 -20.792976 56.300224
-49.879807 -20.157133 55.195606
-48.860466 -19.904214 55.105312
-43.928312 -21.752679 59.822735
-44.198981 -22.530725 60.755429
-44.470123 -21.25036 58.87603
-43.928312 -21.752679 59.822735
-45.05108 -20.760717 57.926077
-45.334681 -21.510156 58.89683
-44.470123 -21.25036 58.87603
-45.642978 -20.289674 56.952129
-45.05108 -20.760717 57.926077
-44.778421 -20.029878 56.93133
-45.253645 -18.742598 55.104042
-44.632471 -19.205507 56.094167
-46.02668 -19.106067 54.970581
-45.253645 -18.742598 55.104042
-46.928432 -19.381988 54.988297
-46.272072 -19.834756 55.975098
-46.02668 -19.106067 54.970581
-47.860933 -19.674494 55.00219
-46.928432 -19.381988 54.988297
-54.174495 -24.364393 58.075956
-53.540829 -24.69873 59.151121
-53.807159 -23.927546 58.632179
-55.08156 -23.298246 56.464422
-54.522151 -22.884332 56.8318
-55.162886 -22.58937 55.739208
-54.791206 -24.068243 56.983802
-55.08156 -23.298246 56.464422
-54.174495 -24.364393 58.075956
-54.791206 -24.068243 56.983802
3 1 26 28
3 26 9 27
3 26 27 28
3 1 11 9
3 0 13 12
3 2 16 14
3 4 17 7
3 4 18 17
3 29 19 30
3 5 20 8
3 5 21 20
3 5 22 21
3 6 23 10
3 6 31 33
3 33 32 23
3 31 32 33
3 34 24 35
3 3 25 15
3 37 36 2
3 38 7 39
3 40 7 41
3 42 4 43
3 44 43 7
3 42 43 44
3 45 8 46
3 9 47 49
3 47 8 48
3 47 48 49
3 9 5 8
3 9 10 5
3 11 10 9
3 11 6 10
3 12 50 51
3 13 52 54
3 54 53 12
3 52 53 54
3 13 55 56
3 58 57 3
3 59 1 60
3 14 15 0
3 16 15 14
3 16 3 15
3 61 16 62
3 63 62 2
3 61 62 63
3 64 16 65
3 66 3 67
3 68 67 16
3 66 67 68
3 70 69 3
3 7 71 72
3 17 73 75
3 75 74 7
3 73 74 75
3 17 76 77
3 17 78 80
3 78 12 79
3 78 79 80
3 18 12 17
3 18 0 12
3 19 81 82
3 19 83 85
3 83 4 84
3 83 84 85
3 8 86 88
3 86 19 87
3 86 87 88
3 20 19 8
3 20 4 19
3 20 18 4
3 21 18 20
3 21 0 18
3 21 14 0
3 22 14 21
3 22 2 14
3 10 22 5
3 23 22 10
3 23 2 22
3 23 89 91
3 91 90 2
3 89 90 91
3 93 92 23
3 94 1 95
3 96 1 97
3 98 11 99
3 100 99 1
3 98 99 100
3 24 101 103
3 101 11 102
3 101 102 103
3 24 6 11
3 104 24 105
3 106 24 107
3 108 6 109
3 110 109 24
3 108 109 110
3 112 111 6
3 15 13 0
3 25 13 15
3 25 113 115
3 115 114 13
3 113 114 115
3 116 25 117
3 118 117 3
3 116 117 118
3 119 25 120
3 122 121 25
