ply
format ascii 1.0
element vertex 178
property float x
property float y
property float z
element face 159
property list uchar int vertex_index
end_header
42.395203 -34.521881 67.832436
53.936371 -24.515652 57.175278
56.425415 -21.19733 54.716339
53.917336 -21.361418 58.067551
46.088963 -30.360872 66.730743
48.642082 -28.939919 62.730072
44.875946 -33.110538 63.477745
51.688416 -24.924677 60.963203
50.761421 -28.222511 58.584915
42.830807 -33.268951 69.311844
44.568878 -31.206131 68.529037
44.327061 -32.469212 67.407089
45.651001 -31.70142 65.358574
43.7033 -33.787464 65.698395
42.821236 -35.155731 63.565598
41.651199 -35.812843 65.846542
55.264793 -22.8057 56.075172
56.31789 -22.984755 54.328918
54.954742 -24.643223 55.356537
51.535759 -23.528503 61.374893
50.39238 -25.451563 62.801819
47.913754 -30.504757 61.043564
49.736214 -28.473923 60.63855
48.938499 -30.178356 58.924652
57.437054 -19.676702 53.120567
56.162548 -19.633778 54.692825
55.230865 -21.179045 56.402512
54.137283 -22.833347 57.868568
47.638496 -28.239887 65.775925
49.02536 -27.485329 63.936462
47.437927 -29.585537 64.782295
46.833199 -31.027588 63.215057
45.956501 -32.551651 61.238892
43.91013 -34.583321 61.272415
52.901531 -23.076063 59.653099
52.860241 -24.608337 59.066368
50.267136 -26.890858 61.986832
51.391415 -26.496675 59.98716
52.43335 -26.326355 58.00927
53.685528 -25.450406 56.651798
54.194714 -25.514191 55.742428
54.445557 -24.579437 56.265907
49.672705 -25.805515 63.665108
50.211129 -24.811245 62.895263
47.966295 -31.17129 58.994339
48.426126 -30.341557 59.984108
47.453922 -31.33449 60.053795
48.488575 -31.082861 57.983116
47.966295 -31.17129 58.994339
55.816496 -18.961709 54.444801
56.563925 -18.901928 53.735096
56.217873 -18.229859 53.487072
54.574101 -21.270232 57.235032
54.995891 -20.47694 56.318478
54.339127 -20.568126 57.150998
46.087874 -29.730866 67.096436
45.327831 -30.153496 67.995583
45.32892 -30.783501 67.62989
46.86373 -29.300379 66.253334
46.86264 -28.670374 66.619027
46.087874 -29.730866 67.096436
42.327213 -35.868199 62.383053
41.778126 -36.150961 63.550224
56.977869 -21.302233 53.884628
57.483688 -20.541919 53.086742
56.931235 -20.437016 53.918453
56.828613 -23.1673 53.504593
56.138994 -23.978434 53.999558
51.262138 -28.212278 57.61784
52.098103 -27.2642 57.330017
51.597386 -27.274433 58.297093
53.570274 -20.730061 57.892243
54.339127 -20.568126 57.150998
43.699843 -32.237541 68.92044
43.715491 -31.63211 69.339912
42.846455 -32.663521 69.731315
41.193107 -36.479517 64.690697
41.778126 -36.150961 63.550224
42.236217 -35.484287 64.70607
55.45742 -24.807668 54.513367
56.138994 -23.978434 53.999558
55.636316 -23.813989 54.842728
54.698025 -25.651541 54.88462
55.45742 -24.807668 54.513367
54.698025 -25.651541 54.88462
54.194714 -25.514191 55.742428
50.782818 -23.849715 62.181801
51.210861 -22.920127 61.274326
50.96407 -24.490033 62.088356
50.782818 -23.849715 62.181801
50.211129 -24.811245 62.895263
49.446941 -30.127474 57.93441
50.358402 -29.149551 57.764541
49.84996 -29.200434 58.754784
49.446941 -30.127474 57.93441
48.488575 -31.082861 57.983116
57.201178 -18.92339 52.948967
57.882959 -18.947848 52.220924
56.799801 -19.65524 53.906696
57.201178 -18.92339 52.948967
56.563925 -18.901928 53.735096
55.461733 -19.704306 55.463634
55.816496 -18.961709 54.444801
55.696707 -20.406411 55.547669
55.461733 -19.704306 55.463634
54.995891 -20.47694 56.318478
44.464039 -30.606137 68.750206
43.715491 -31.63211 69.339912
44.464039 -30.606137 68.750206
45.327831 -30.153496 67.995583
47.498924 -27.621823 65.940185
46.86264 -28.670374 66.619027
48.295763 -27.199676 65.152161
47.498924 -27.621823 65.940185
48.331928 -27.862608 64.856194
48.989195 -26.822398 64.232429
48.295763 -27.199676 65.152161
46.475296 -32.357937 60.151459
47.453922 -31.33449 60.053795
46.935128 -31.528204 61.141228
45.462677 -33.352619 60.144314
46.475296 -32.357937 60.151459
44.439492 -34.368454 60.161076
45.462677 -33.352619 60.144314
44.933316 -33.567486 61.255654
43.412165 -35.355915 60.104721
44.439492 -34.368454 60.161076
42.871661 -35.581993 61.236462
43.365683 -34.869526 62.419007
42.327213 -35.868199 62.383053
43.412165 -35.355915 60.104721
42.871661 -35.581993 61.236462
41.987639 -33.654933 70.177902
42.846455 -32.663521 69.731315
41.874857 -34.261341 69.570747
41.987639 -33.654933 70.177902
41.657055 -34.887806 68.831043
42.613005 -33.895416 68.57214
41.874857 -34.261341 69.570747
41.375163 -35.508251 67.93951
41.657055 -34.887806 68.831043
58.022974 -19.786979 52.334663
58.468879 -19.058124 51.43502
57.882959 -18.947848 52.220924
58.022974 -19.786979 52.334663
57.483688 -20.541919 53.086742
56.924107 -22.195945 53.690917
56.977869 -21.302233 53.884628
56.371652 -22.091043 54.522628
56.924107 -22.195945 53.690917
56.828613 -23.1673 53.504593
53.193326 -21.552272 58.868496
53.570274 -20.730061 57.892243
52.002537 -22.635815 60.522167
51.210861 -22.920127 61.274326
52.685423 -22.409595 59.66127
52.002537 -22.635815 60.522167
52.218645 -23.302283 60.513996
53.409433 -22.218741 58.860325
53.193326 -21.552272 58.868496
52.685423 -22.409595 59.66127
49.70887 -26.468446 63.369141
49.672705 -25.805515 63.665108
48.989195 -26.822398 64.232429
52.934017 -26.355757 57.068794
53.685528 -25.450406 56.651798
53.18486 -25.421003 57.592274
52.934017 -26.355757 57.068794
52.098103 -27.2642 57.330017
51.262138 -28.212278 57.61784
50.358402 -29.149551 57.764541
41.00316 -36.153732 66.946563
42.023201 -35.167362 66.839489
41.375163 -35.508251 67.93951
40.609566 -36.789604 65.852138
41.00316 -36.153732 66.946563
41.193107 -36.479517 64.690697
40.609566 -36.789604 65.852138
3 0 11 9
3 0 13 11
3 0 15 13
3 1 18 16
3 1 39 41
3 41 40 18
3 39 40 41
3 42 20 43
3 44 23 45
3 46 45 21
3 44 45 46
3 48 47 23
3 49 25 50
3 49 50 51
3 3 52 54
3 52 26 53
3 52 53 54
3 3 27 26
3 4 55 57
3 57 56 10
3 55 56 57
3 4 58 60
3 58 28 59
3 58 59 60
3 4 30 28
3 6 31 12
3 6 32 31
3 6 33 32
3 62 61 14
3 2 63 65
3 65 64 24
3 63 64 65
3 67 66 17
3 7 34 19
3 7 35 34
3 5 36 29
3 8 37 22
3 8 38 37
3 8 68 70
3 70 69 38
3 68 69 70
3 71 3 72
3 9 73 75
3 73 10 74
3 73 74 75
3 11 10 9
3 11 4 10
3 11 12 4
3 13 12 11
3 13 6 12
3 13 14 6
3 15 14 13
3 15 76 78
3 78 77 14
3 76 77 78
3 16 17 2
3 18 17 16
3 18 79 81
3 81 80 17
3 79 80 81
3 18 82 83
3 85 84 18
3 86 19 87
3 20 88 90
3 88 19 89
3 88 89 90
3 20 7 19
3 21 22 5
3 23 22 21
3 23 8 22
3 23 91 93
3 93 92 8
3 91 92 93
3 95 94 23
3 96 24 97
3 25 98 100
3 98 24 99
3 98 99 100
3 25 2 24
3 101 25 102
3 26 103 105
3 103 25 104
3 103 104 105
3 26 2 25
3 26 16 2
3 27 16 26
3 27 1 16
3 10 106 107
3 109 108 10
3 28 110 111
3 28 112 113
3 28 114 116
3 114 29 115
3 114 115 116
3 30 29 28
3 30 5 29
3 12 30 4
3 31 30 12
3 31 5 30
3 31 21 5
3 32 21 31
3 32 117 119
3 119 118 21
3 117 118 119
3 32 120 121
3 33 122 124
3 124 123 32
3 122 123 124
3 33 125 126
3 14 33 6
3 127 33 128
3 129 128 14
3 127 128 129
3 131 130 33
3 132 9 133
3 134 9 135
3 136 0 137
3 138 137 9
3 136 137 138
3 140 139 0
3 24 141 143
3 141 142 143
3 145 144 24
3 17 146 148
3 148 147 2
3 146 147 148
3 150 149 17
3 151 3 152
3 19 153 154
3 34 155 157
3 157 156 19
3 155 156 157
3 34 158 160
3 158 3 159
3 158 159 160
3 34 27 3
3 35 27 34
3 35 1 27
3 29 161 163
3 161 20 162
3 161 162 163
3 36 20 29
3 36 7 20
3 22 36 5
3 37 36 22
3 37 7 36
3 37 35 7
3 38 35 37
3 38 1 35
3 38 164 166
3 166 165 1
3 164 165 166
3 168 167 38
3 170 169 8
3 171 15 172
3 173 172 0
3 171 172 173
3 174 15 175
3 177 176 15
