ply
format ascii 1.0
element vertex 189
property float x
property float y
property float z
element face 176
property list uchar int vertex_index
end_header
0.917259 57.477436 11.303925
2.506313 58.240627 -2.260046
-0.989561 69.514893 3.449585
-0.558563 69.393494 -3.742357
1.842192 58.484745 4.369421
4.33252 52.565205 2.350189
3.424545 52.315868 8.836615
4.879776 45.456074 13.303198
0.408689 64.095261 0.155144
-0.216171 63.662457 7.234134
-0.831696 62.048771 14.602974
1.4002 58.135227 7.806239
2.634575 55.482166 6.584925
2.118738 55.002224 9.971655
2.841679 51.721615 12.155491
1.559473 54.216724 13.401024
-0.786314 69.590775 -0.184869
-0.149817 66.76767 -1.827171
-0.402893 66.838364 1.696908
0.106583 64.028458 3.65305
-0.656658 66.621307 5.304435
5.203667 49.433903 4.711808
5.537601 49.19495 1.615105
-0.300957 68.931656 -7.230274
-0.806751 71.989929 -5.614367
-1.0345 72.300568 -2.013386
2.216015 58.519787 1.009703
3.41766 55.493099 0.015636
3.075127 55.646908 3.260194
3.93066 52.599186 5.561209
4.74416 49.359615 7.876988
5.488358 45.923641 10.169037
4.180431 48.974216 11.087772
1.654924 60.843464 -4.459139
0.101416 66.41539 -5.270773
0.679699 63.865047 -3.255875
1.400478 61.246639 -1.165211
1.086153 61.345661 2.220531
0.718157 61.136326 5.692205
0.31629 60.620785 9.23913
4.613598 52.214634 -0.775911
6.147774 42.297962 12.403431
-0.899036 66.114624 8.992825
-0.538034 63.000111 10.889021
-0.09041 59.806545 12.846262
-0.469999 58.7057 16.495188
0.427004 56.522953 14.843978
3.079626 56.632675 -2.696613
2.609539 57.947708 -3.845576
5.792435 47.692654 4.357737
5.600189 47.762051 5.886705
-0.860854 73.270203 -6.539199
-0.664237 71.709992 -7.385424
-1.185785 73.71563 -1.059081
-1.098142 73.631989 -2.913223
-1.123024 72.326851 -0.179517
-1.185785 73.71563 -1.059081
3.191948 50.003968 13.239272
2.528803 51.275143 13.826714
1.288697 62.094559 -5.520118
1.756426 60.495239 -6.059387
5.637016 48.921501 0.112381
6.082617 47.352386 1.317519
-1.101363 67.318557 9.975318
-1.03228 67.6372 8.078755
-0.684865 62.524441 12.745997
-0.824124 64.160296 11.821002
-0.970955 63.684626 13.677979
-0.253391 56.996792 17.450953
-0.632068 58.020038 18.330303
0.19511 55.905418 16.625349
-0.021498 57.614327 15.669583
-0.253391 56.996792 17.450953
0.709628 54.831715 15.848795
0.19511 55.905418 16.625349
1.8877 52.522697 14.44948
2.528803 51.275143 13.826714
2.200576 52.969169 12.778257
5.959402 47.573177 2.809385
5.370634 49.314426 3.163457
5.792435 47.692654 4.357737
6.082617 47.352386 1.317519
5.959402 47.573177 2.809385
5.194721 43.61268 14.37906
4.540371 45.076826 14.873877
-1.050027 63.146876 15.586341
-0.970955 63.684626 13.677979
-0.41134 70.180855 -8.193378
-0.152076 68.573639 -8.942827
-0.553854 70.460792 -6.42232
-0.41134 70.180855 -8.193378
-0.664237 71.709992 -7.385424
-0.984267 73.476669 -4.713714
-0.860854 73.270203 -6.539199
-0.920625 72.145249 -3.813877
-0.984267 73.476669 -4.713714
-1.098142 73.631989 -2.913223
-0.998931 70.971954 0.734742
-0.910407 70.945672 -1.099128
-1.123024 72.326851 -0.179517
-1.100555 70.934013 2.551969
-0.887938 69.552834 1.632358
-0.998931 70.971954 0.734742
5.370436 47.724907 7.469295
5.600189 47.762051 5.886705
4.973914 49.396759 6.294398
5.116259 47.641628 9.023013
5.742535 46.00692 8.61532
5.370436 47.724907 7.469295
3.861324 48.630268 12.705412
3.511055 50.347915 11.621631
3.191948 50.003968 13.239272
4.210997 46.871197 13.813125
4.530103 47.215145 12.195485
3.861324 48.630268 12.705412
4.540371 45.076826 14.873877
4.210997 46.871197 13.813125
2.183845 59.249127 -4.945123
1.756426 60.495239 -6.059387
2.080618 59.542046 -3.359593
2.609539 57.947708 -3.845576
2.183845 59.249127 -4.945123
0.029533 67.361679 -7.935059
-0.152076 68.573639 -8.942827
0.230719 66.103546 -6.955308
0.029533 67.361679 -7.935059
-0.09977 67.673523 -6.250523
0.511943 64.880522 -5.925935
0.230719 66.103546 -6.955308
0.801084 63.605351 -4.918486
0.511943 64.880522 -5.925935
0.390558 65.140219 -4.263324
1.167312 62.354255 -3.857507
1.288697 62.094559 -5.520118
0.801084 63.605351 -4.918486
3.535299 55.258911 -1.558771
3.079626 56.632675 -2.696613
2.961987 56.866863 -1.122205
4.133268 53.619678 -1.954545
3.535299 55.258911 -1.558771
4.015629 53.853866 -0.380138
4.692528 51.885196 -2.287378
4.133268 53.619678 -1.954545
5.175014 50.431343 -1.083127
5.0756 50.704792 0.419597
5.637016 48.921501 0.112381
4.692528 51.885196 -2.287378
5.175014 50.431343 -1.083127
6.089861 44.231037 9.765324
5.742535 46.00692 8.61532
6.419569 42.418197 10.882521
6.089861 44.231037 9.765324
5.818066 44.110802 11.286234
6.7141 40.545936 11.992324
6.419569 42.418197 10.882521
5.82872 42.033625 13.929177
5.513775 43.877018 12.853314
5.194721 43.61268 14.37906
6.432524 40.397932 13.479413
5.82872 42.033625 13.929177
6.7141 40.545936 11.992324
6.432524 40.397932 13.479413
-1.16552 70.826943 4.423044
-1.100555 70.934013 2.551969
-1.077543 69.337334 5.307135
-1.16552 70.826943 4.423044
-0.911091 67.890541 6.234559
-0.823109 68.0681 4.37701
-1.077543 69.337334 5.307135
-0.777847 66.367965 7.14863
-0.911091 67.890541 6.234559
-1.03228 67.6372 8.078755
-1.004625 65.717552 10.872904
-1.101363 67.318557 9.975318
-0.718535 64.557367 9.940923
-1.004625 65.717552 10.872904
-0.824124 64.160296 11.821002
-0.951225 61.434307 16.480002
-1.050027 63.146876 15.586341
-0.770376 59.762771 17.426108
-0.632068 58.020038 18.330303
-0.650848 60.377235 15.549081
-0.951225 61.434307 16.480002
-0.770376 59.762771 17.426108
1.275863 53.6786 15.127318
0.993239 55.369839 14.122501
0.709628 54.831715 15.848795
1.8877 52.522697 14.44948
1.275863 53.6786 15.127318
3 0 13 11
3 0 15 13
3 2 18 16
3 2 20 18
3 1 47 48
3 50 49 21
3 51 24 52
3 53 25 54
3 56 55 25
3 4 28 26
3 6 29 12
3 6 30 29
3 6 32 30
3 58 57 14
3 59 33 60
3 3 34 23
3 8 35 17
3 8 36 35
3 8 37 36
3 9 38 19
3 9 39 38
3 5 40 27
3 62 61 22
3 7 41 31
3 63 42 64
3 10 65 67
3 65 43 66
3 65 66 67
3 10 44 43
3 68 45 69
3 70 46 71
3 72 71 45
3 70 71 72
3 74 73 46
3 11 12 4
3 13 12 11
3 13 6 12
3 13 14 6
3 15 14 13
3 15 75 77
3 77 76 14
3 75 76 77
3 16 17 3
3 18 17 16
3 18 8 17
3 18 19 8
3 20 19 18
3 20 9 19
3 21 22 5
3 78 22 79
3 80 79 21
3 78 79 80
3 82 81 22
3 84 83 7
3 85 10 86
3 87 23 88
3 24 89 91
3 89 23 90
3 89 90 91
3 24 3 23
3 92 24 93
3 25 94 96
3 94 24 95
3 94 95 96
3 25 3 24
3 25 16 3
3 97 16 98
3 99 98 25
3 97 98 99
3 100 2 101
3 102 101 16
3 100 101 102
3 26 27 1
3 28 27 26
3 28 5 27
3 12 28 4
3 29 28 12
3 29 5 28
3 29 21 5
3 30 21 29
3 30 103 105
3 105 104 21
3 103 104 105
3 30 106 108
3 106 31 107
3 106 107 108
3 32 31 30
3 32 7 31
3 14 32 6
3 109 32 110
3 111 110 14
3 109 110 111
3 112 7 113
3 114 113 32
3 112 113 114
3 116 115 7
3 33 117 118
3 33 119 121
3 119 1 120
3 119 120 121
3 23 122 123
3 34 124 126
3 126 125 23
3 124 125 126
3 34 127 128
3 17 34 3
3 35 34 17
3 35 129 131
3 131 130 34
3 129 130 131
3 35 132 134
3 132 33 133
3 132 133 134
3 36 33 35
3 36 1 33
3 36 26 1
3 37 26 36
3 37 4 26
3 19 37 8
3 38 37 19
3 38 4 37
3 38 11 4
3 39 11 38
3 39 0 11
3 27 135 137
3 137 136 1
3 135 136 137
3 40 138 140
3 140 139 27
3 138 139 140
3 40 141 142
3 22 40 5
3 143 40 144
3 145 144 22
3 143 144 145
3 147 146 40
3 31 148 149
3 41 150 152
3 152 151 31
3 150 151 152
3 41 153 154
3 155 41 156
3 157 156 7
3 155 156 157
3 158 41 159
3 161 160 41
3 162 2 163
3 164 2 165
3 166 20 167
3 168 167 2
3 166 167 168
3 42 169 171
3 169 20 170
3 169 170 171
3 42 9 20
3 172 42 173
3 43 174 176
3 174 42 175
3 174 175 176
3 43 9 42
3 43 39 9
3 44 39 43
3 44 0 39
3 177 10 178
3 45 179 180
3 45 181 183
3 181 10 182
3 181 182 183
3 45 44 10
3 46 44 45
3 46 0 44
3 46 15 0
3 184 15 185
3 186 185 46
3 184 185 186
3 188 187 15
