ply
format ascii 1.0
element vertex 198
property float x
property float y
property float z
element face 187
property list uchar int vertex_index
end_header
66.836197 -10.679463 18.143646
58.69133 -11.097974 16.332146
63.053459 -10.950062 16.854584
58.821213 -16.59837 18.902336
63.230438 -16.123981 19.75316
69.526329 -10.31741 20.376677
66.877167 -15.534645 21.439915
54.199905 -11.082246 16.302776
54.167183 -16.954111 18.592485
54.428219 -4.766189 13.588854
58.553806 -5.184176 13.588564
62.597244 -5.37534 14.140505
65.05024 -10.827762 17.388725
63.174942 -13.595743 18.272356
65.16523 -13.397348 18.884125
70.345871 -10.111694 21.844437
69.484314 -12.617367 22.140612
56.439461 -11.112702 16.275143
54.150932 -14.080045 17.499733
56.449596 -14.013468 17.52368
58.902031 -19.159214 20.187729
56.589851 -19.441004 19.855314
65.126884 -18.163898 22.188084
56.522934 -1.821543 12.088439
56.488388 -5.003106 13.530422
58.468452 -2.110189 12.175824
64.499123 -5.398694 14.665077
60.913284 -11.041954 16.513327
58.754631 -13.906996 17.630476
61.016018 -13.76627 17.86623
61.087227 -16.374071 19.238014
61.14003 -18.852852 20.663364
68.345947 -10.508337 19.138161
66.918671 -13.17007 19.727526
68.373558 -12.910926 20.814909
68.257065 -15.18115 22.634268
51.884506 -17.069969 18.514376
56.495834 -16.793972 18.703644
65.182686 -15.846216 20.480564
63.237808 -18.52294 21.321348
54.298431 -7.973455 14.991878
56.455948 -8.104837 14.94019
58.625839 -8.185379 14.984212
60.39024 -2.332895 12.425665
60.600815 -5.30697 13.786505
60.774895 -8.216352 15.155202
62.860313 -8.20313 15.480062
64.827957 -8.153894 15.984282
66.614365 -8.078172 16.692268
68.153252 -7.985741 17.62446
69.385269 -7.886375 18.792042
70.287483 -11.201072 22.760893
70.573253 -10.0064 22.674181
57.82534 -20.550755 20.608936
58.959408 -20.36902 20.859972
57.441299 -0.40063 11.44624
56.533121 -0.198552 11.38607
58.414058 -0.544953 11.489932
57.495693 -1.965866 12.132131
57.441299 -0.40063 11.44624
68.77052 -14.980112 23.340677
68.870689 -13.899259 22.38744
69.384144 -13.69822 23.093849
68.145054 -16.248076 23.603982
68.77052 -14.980112 23.340677
53.050713 -12.591925 16.905428
53.103988 -11.043906 16.336469
53.072447 -18.425272 19.005391
51.931109 -18.483201 18.966336
53.025845 -17.01204 18.55343
55.426792 -19.565899 19.736312
55.523701 -20.858622 20.241112
63.233219 -19.653956 22.159737
64.182346 -18.343419 21.754716
64.177757 -19.474435 22.593105
62.21853 -19.858171 21.749389
63.233219 -19.653956 22.159737
53.410688 -4.624008 13.658889
54.49806 -3.120176 12.867482
53.30453 -6.280452 14.344507
53.410688 -4.624008 13.658889
54.363325 -6.369822 14.290366
53.239636 -7.884086 15.046019
53.30453 -6.280452 14.344507
61.131342 -0.95233 12.022455
60.264646 -0.8231 11.770937
61.59903 -5.341155 13.963505
61.434219 -3.898579 13.315366
62.432434 -3.932764 13.492366
65.539276 -6.772214 15.680143
64.66354 -6.776294 15.32468
65.374859 -5.394614 15.02054
66.43248 -6.734354 16.034136
65.721161 -8.116033 16.338275
65.539276 -6.772214 15.680143
68.60157 -6.66529 17.521547
67.970772 -6.676305 16.957038
69.217579 -6.615607 18.105338
68.769261 -7.936058 18.208251
68.60157 -6.66529 17.521547
69.856705 -12.453909 22.90898
69.915093 -11.364531 21.992525
70.287483 -11.201072 22.760893
69.384144 -13.69822 23.093849
69.856705 -12.453909 22.90898
56.669251 -20.69165 20.442729
57.745941 -19.300109 20.021521
57.82534 -20.550755 20.608936
55.523701 -20.858622 20.241112
56.669251 -20.69165 20.442729
65.934807 -17.964561 22.731277
66.002026 -16.849272 21.814
66.809948 -16.649935 22.357193
65.081718 -19.254281 23.100088
65.934807 -17.964561 22.731277
64.177757 -19.474435 22.593105
65.081718 -19.254281 23.100088
55.545418 -1.647853 12.117274
56.533121 -0.198552 11.38607
55.475577 -3.293866 12.838646
54.49806 -3.120176 12.867482
55.545418 -1.647853 12.117274
63.333065 -3.982942 13.787043
62.432434 -3.932764 13.492366
64.284005 -3.994619 14.049329
63.548184 -5.387017 14.402791
63.333065 -3.982942 13.787043
65.124154 -4.024055 14.431155
64.284005 -3.994619 14.049329
65.374859 -5.394614 15.02054
65.124154 -4.024055 14.431155
60.078407 -20.215838 21.09779
58.959408 -20.36902 20.859972
60.021031 -19.006033 20.425547
67.499897 -16.473187 22.954369
66.809948 -16.649935 22.357193
67.567116 -15.357897 22.037091
67.499897 -16.473187 22.954369
68.145054 -16.248076 23.603982
53.026226 -14.090825 17.503906
53.050713 -12.591925 16.905428
54.175418 -12.581145 16.901255
51.893013 -15.585787 18.011228
53.026226 -14.090825 17.503906
53.017719 -15.575007 18.007054
50.788504 -17.10145 18.463013
51.893013 -15.585787 18.011228
50.832876 -18.556842 18.856903
50.788504 -17.10145 18.463013
50.832876 -18.556842 18.856903
51.931109 -18.483201 18.966336
55.379784 -18.242383 19.160477
56.542843 -18.117488 19.279479
55.426792 -19.565899 19.736312
54.215458 -18.322453 19.104897
55.331508 -16.874042 18.648065
55.379784 -18.242383 19.160477
53.072447 -18.425272 19.005391
54.215458 -18.322453 19.104897
61.169641 -20.023128 21.420397
62.188919 -18.687896 20.992356
62.21853 -19.858171 21.749389
60.078407 -20.215838 21.09779
61.169641 -20.023128 21.420397
53.153251 -9.48951 15.681019
53.239636 -7.884086 15.046019
54.249168 -9.52785 15.647327
53.103988 -11.043906 16.336469
53.153251 -9.48951 15.681019
59.303753 -0.711747 11.646016
58.414058 -0.544953 11.489932
59.429346 -2.221542 12.300745
59.303753 -0.711747 11.646016
60.264646 -0.8231 11.770937
61.328932 -2.411542 12.634946
61.131342 -0.95233 12.022455
60.495527 -3.819933 13.106085
61.328932 -2.411542 12.634946
61.434219 -3.898579 13.315366
67.201329 -6.72252 16.490942
66.43248 -6.734354 16.034136
67.383809 -8.031956 17.158364
67.201329 -6.72252 16.490942
67.970772 -6.676305 16.957038
69.684986 -6.61414 18.779213
69.217579 -6.615607 18.105338
69.826961 -7.838499 19.49165
69.684986 -6.61414 18.779213
69.897492 -9.054016 20.283967
69.455799 -9.101892 19.584359
69.826961 -7.838499 19.49165
70.307263 -8.951158 21.017847
69.9361 -10.214552 21.110557
69.897492 -9.054016 20.283967
70.566597 -8.911641 21.82179
70.307263 -8.951158 21.017847
70.573253 -10.0064 22.674181
70.566597 -8.911641 21.82179
3 0 14 12
3 52 51 15
3 1 19 17
3 54 53 20
3 55 23 56
3 57 25 58
3 59 58 23
3 57 58 59
3 2 29 27
3 4 30 13
3 4 31 30
3 5 34 32
3 60 35 61
3 62 61 16
3 60 61 62
3 64 63 35
3 7 65 66
3 8 36 18
3 8 67 69
3 69 68 36
3 67 68 69
3 3 37 28
3 71 70 21
3 6 38 33
3 72 39 73
3 74 73 22
3 72 73 74
3 76 75 39
3 9 77 78
3 9 79 80
3 9 81 83
3 81 40 82
3 81 82 83
3 10 41 24
3 10 42 41
3 84 43 85
3 11 86 88
3 86 44 87
3 86 87 88
3 11 45 44
3 11 46 45
3 89 47 90
3 91 90 26
3 89 90 91
3 92 48 93
3 94 93 47
3 92 93 94
3 95 49 96
3 97 50 98
3 99 98 49
3 97 98 99
3 12 13 2
3 14 13 12
3 14 4 13
3 15 16 5
3 100 16 101
3 102 101 15
3 100 101 102
3 104 103 16
3 17 18 7
3 19 18 17
3 19 8 18
3 20 21 3
3 105 21 106
3 107 106 20
3 105 106 107
3 109 108 21
3 110 22 111
3 112 111 6
3 110 111 112
3 113 22 114
3 116 115 22
3 23 117 118
3 23 119 121
3 119 9 120
3 119 120 121
3 23 24 9
3 25 24 23
3 25 10 24
3 122 11 123
3 124 26 125
3 126 125 11
3 124 125 126
3 127 26 128
3 130 129 26
3 27 28 1
3 29 28 27
3 29 3 28
3 13 29 2
3 30 29 13
3 30 3 29
3 30 20 3
3 31 20 30
3 31 131 133
3 133 132 20
3 131 132 133
3 32 33 0
3 34 33 32
3 34 6 33
3 16 34 5
3 35 34 16
3 35 6 34
3 35 134 136
3 136 135 6
3 134 135 136
3 138 137 35
3 18 139 141
3 141 140 7
3 139 140 141
3 36 142 144
3 144 143 18
3 142 143 144
3 36 145 146
3 36 147 148
3 150 149 36
3 28 19 1
3 37 19 28
3 37 8 19
3 21 37 3
3 151 37 152
3 153 152 21
3 151 152 153
3 154 8 155
3 156 155 37
3 154 155 156
3 158 157 8
3 33 14 0
3 38 14 33
3 38 4 14
3 22 38 6
3 39 38 22
3 39 4 38
3 39 31 4
3 159 31 160
3 161 160 39
3 159 160 161
3 163 162 31
3 40 164 165
3 40 166 168
3 166 7 167
3 166 167 168
3 24 40 9
3 41 40 24
3 41 7 40
3 41 17 7
3 42 17 41
3 42 1 17
3 169 25 170
3 43 171 173
3 171 25 172
3 171 172 173
3 43 10 25
3 174 43 175
3 44 176 178
3 176 43 177
3 176 177 178
3 44 10 43
3 44 42 10
3 45 42 44
3 45 1 42
3 45 27 1
3 46 27 45
3 46 2 27
3 26 46 11
3 47 46 26
3 47 2 46
3 47 12 2
3 48 12 47
3 48 0 12
3 179 48 180
3 49 181 183
3 181 48 182
3 181 182 183
3 49 0 48
3 49 32 0
3 50 32 49
3 50 5 32
3 184 50 185
3 186 50 187
3 188 5 189
3 190 189 50
3 188 189 190
3 191 15 192
3 193 192 5
3 191 192 193
3 194 15 195
3 197 196 15
