ply
format ascii 1.0
element vertex 207
property float x
property float y
property float z
element face 202
property list uchar int vertex_index
end_header
-3.30929 -89.332047 39.680367
-3.242828 -89.619781 58.933296
-2.636934 -90.613846 49.752094
-7.665945 -98.023895 49.475182
-1.268017 -85.322357 43.870934
-2.753765 -90.456375 54.506634
-4.972383 -94.861435 50.042152
-5.352936 -93.97287 54.246788
-2.81909 -90.208206 44.769264
-4.617689 -94.199997 40.457996
-4.710571 -94.892456 45.417953
-6.777948 -99.024216 45.512135
-9.037951 -102.034332 44.504036
-8.380043 -95.902084 52.945812
-10.521318 -99.588745 47.61282
-2.264269 -87.397751 41.792667
-2.942324 -90.128937 56.765598
-3.979553 -92.382034 54.486046
-4.205259 -91.853195 56.598022
-2.137705 -87.74704 59.035107
-1.865816 -88.082977 56.733391
-2.690859 -90.474548 47.281937
-3.737942 -92.589981 45.137295
-3.714357 -92.793701 47.591465
-6.287443 -96.613831 49.895851
-6.008638 -96.957962 47.791943
-7.24589 -98.665283 47.563236
-7.879774 -100.706329 45.182625
-8.529045 -100.02565 47.023865
-7.146093 -94.063278 55.5215
-1.645456 -88.32048 51.907467
-1.672222 -88.249069 49.413933
-1.784491 -88.066818 46.887047
-5.212233 -96.613525 40.777935
-2.656284 -90.612961 52.16489
-3.746492 -92.838043 49.975765
-3.832481 -92.706268 52.277142
-5.144321 -94.531113 52.198608
-6.557877 -96.016281 51.87677
-1.707058 -88.269699 54.352455
-4.535723 -91.11647 58.615009
-3.024818 -89.82489 42.229828
-3.983177 -91.762146 40.083855
-3.824722 -92.241882 42.628834
-4.635307 -94.627914 42.971832
-5.450071 -96.939194 43.222191
-4.826958 -94.976273 47.779144
-5.723959 -97.060638 45.564846
-6.282404 -99.112549 43.319771
-5.621164 -93.183136 56.19342
-6.834221 -95.162506 53.744846
-8.037271 -97.098557 51.26088
-9.548178 -97.732925 50.315033
-9.084137 -99.029572 48.72501
-9.850048 -100.978378 46.11908
-1.982204 -87.78154 44.341671
-4.673058 -93.625275 37.897255
-3.763822 -90.247063 38.601192
-3.488916 -89.034035 38.409256
-2.967211 -88.124977 39.467682
-2.4447 -87.157829 40.523832
-2.786779 -88.364899 40.736517
-3.488916 -89.034035 38.409256
-2.967211 -88.124977 39.467682
-2.690266 -88.683411 58.984201
-2.341174 -87.500008 60.139414
-2.893736 -88.436378 60.088509
-5.28101 -97.585678 39.662588
-5.502714 -97.781364 40.885511
-0.994812 -84.07275 43.621026
-0.866565 -84.200882 44.901018
-6.967996 -100.048386 44.348726
-6.720225 -100.092553 43.252544
-6.530176 -99.068382 44.415953
-8.57162 -102.387733 43.619343
-7.992531 -101.723732 43.958638
-8.458863 -101.37033 44.843331
-9.092232 -103.041336 43.201565
-8.625901 -103.394737 42.316872
-8.57162 -102.387733 43.619343
-5.801188 -92.677384 57.123877
-5.078444 -92.149803 57.404215
-5.258467 -91.644051 58.334671
-10.034748 -98.660835 48.963926
-10.305003 -97.817429 49.67361
-10.791574 -98.745339 48.322504
-1.926709 -86.177986 41.559534
-1.428583 -85.140289 42.598667
-1.766143 -86.360054 42.8318
-1.926709 -86.177986 41.559534
-2.4447 -87.157829 40.523832
-1.874575 -86.491928 60.159262
-2.341174 -87.500008 60.139414
-1.68872 -86.663101 58.993729
-1.874575 -86.491928 60.159262
-2.001761 -87.915008 57.884249
-1.552776 -86.83107 57.842871
-1.68872 -86.663101 58.993729
-7.339633 -93.404731 56.379958
-6.563652 -93.117455 56.787917
-7.939234 -94.264046 55.044774
-7.339633 -93.404731 56.379958
-8.556209 -95.183448 53.756929
-7.763068 -94.982681 54.233656
-7.939234 -94.264046 55.044774
-11.241461 -99.638832 46.878294
-10.791574 -98.745339 48.322504
-11.581381 -100.587105 45.485031
-10.861239 -100.537018 46.219557
-11.241461 -99.638832 46.878294
-1.235124 -87.104393 51.72406
-1.253221 -87.106979 52.984636
-1.248508 -87.068688 50.477293
-1.235124 -87.104393 51.72406
-1.658839 -88.284774 50.6607
-1.277002 -87.018616 49.20291
-1.248508 -87.068688 50.477293
-1.728357 -88.157944 48.15049
-1.333136 -86.92749 47.939467
-1.277002 -87.018616 49.20291
-5.124835 -96.359146 39.514843
-4.827562 -95.152382 39.354873
-4.914961 -95.406761 40.617965
-5.124835 -96.359146 39.514843
-5.28101 -97.585678 39.662588
-0.994812 -84.07275 43.621026
-1.428583 -85.140289 42.598667
-1.430676 -86.938645 56.635975
-1.552776 -86.83107 57.842871
-1.351298 -87.032005 55.445507
-1.430676 -86.938645 56.635975
-1.786437 -88.176338 55.542923
-1.284021 -87.081589 54.20713
-1.351298 -87.032005 55.445507
-1.676257 -88.29509 53.129961
-1.253221 -87.106979 52.984636
-1.284021 -87.081589 54.20713
-4.108398 -90.021744 59.810127
-3.889276 -90.368126 58.774152
-3.461951 -89.273399 59.969271
-4.768299 -90.649132 59.580105
-4.108398 -90.021744 59.810127
-4.340974 -89.554405 60.775222
-5.258467 -91.644051 58.334671
-4.768299 -90.649132 59.580105
-3.461951 -89.273399 59.969271
-2.893736 -88.436378 60.088509
-5.621633 -97.944198 42.10764
-5.502714 -97.781364 40.885511
-5.331152 -96.776359 42.000063
-6.037799 -99.030876 42.15643
-5.621633 -97.944198 42.10764
-5.866238 -98.025871 43.270981
-6.343746 -100.125061 42.173651
-6.037799 -99.030876 42.15643
-6.343746 -100.125061 42.173651
-6.720225 -100.092553 43.252544
-7.51891 -100.889443 44.183971
-6.967996 -100.048386 44.348726
-7.328861 -99.865273 45.34738
-7.51891 -100.889443 44.183971
-7.992531 -101.723732 43.958638
-6.383629 -93.623207 55.85746
-5.801188 -92.677384 57.123877
-6.563652 -93.117455 56.787917
-9.164786 -96.035759 52.391243
-8.556209 -95.183448 53.756929
-9.748854 -96.951179 51.075854
-10.305003 -97.817429 49.67361
-8.964111 -96.817504 51.630422
-9.164786 -96.035759 52.391243
-9.748854 -96.951179 51.075854
-10.525603 -101.231835 45.472687
-10.185683 -100.283562 46.86595
-10.861239 -100.537018 46.219557
-10.053939 -101.9646 44.773877
-10.525603 -101.231835 45.472687
-9.64789 -102.492577 43.966355
-9.444 -101.506355 45.311558
-10.053939 -101.9646 44.773877
-9.092232 -103.041336 43.201565
-9.64789 -102.492577 43.966355
-1.149113 -85.460594 45.15078
-0.866565 -84.200882 44.901018
-1.407351 -86.832825 46.658836
-1.333136 -86.92749 47.939467
-1.506207 -86.690186 45.386148
-1.407351 -86.832825 46.658836
-1.883348 -87.924179 45.614359
-1.62511 -86.551949 44.106302
-1.149113 -85.460594 45.15078
-1.506207 -86.690186 45.386148
-4.100766 -91.462113 38.802937
-3.763822 -90.247063 38.601192
-3.646234 -90.547097 39.882111
-4.445707 -92.393677 37.709637
-4.100766 -91.462113 38.802937
-4.328118 -92.693711 38.990555
-4.742038 -93.27295 36.605305
-4.445707 -92.393677 37.709637
-4.855247 -94.865021 38.074503
-4.645373 -93.912636 39.177626
-4.827562 -95.152382 39.354873
-4.810572 -94.530296 36.78293
-4.855247 -94.865021 38.074503
-4.742038 -93.27295 36.605305
-4.810572 -94.530296 36.78293
3 0 57 58
3 0 59 61
3 61 60 15
3 59 60 61
3 0 62 63
3 1 18 16
3 1 64 66
3 64 19 65
3 64 65 66
3 1 16 19
3 2 23 21
3 3 26 24
3 3 28 26
3 2 31 30
3 2 21 31
3 68 67 33
3 4 69 70
3 5 36 34
3 7 37 17
3 7 38 37
3 5 39 20
3 5 34 39
3 8 43 41
3 10 44 22
3 10 45 44
3 6 46 35
3 11 47 25
3 11 48 47
3 11 71 73
3 73 72 48
3 71 72 73
3 12 74 76
3 76 75 27
3 74 75 76
3 12 77 79
3 77 78 79
3 80 49 81
3 82 81 40
3 80 81 82
3 13 50 29
3 13 51 50
3 14 83 85
3 83 52 84
3 83 84 85
3 14 53 52
3 14 54 53
3 8 55 32
3 8 41 55
3 9 56 42
3 15 86 88
3 88 87 4
3 86 87 88
3 90 89 15
3 16 17 5
3 18 17 16
3 18 7 17
3 19 91 92
3 19 93 94
3 19 95 97
3 95 20 96
3 95 96 97
3 16 20 19
3 16 5 20
3 21 22 8
3 23 22 21
3 23 10 22
3 24 25 6
3 26 25 24
3 26 11 25
3 26 27 11
3 28 27 26
3 28 12 27
3 98 29 99
3 100 29 101
3 102 13 103
3 104 103 29
3 102 103 104
3 105 14 106
3 109 108 14
3 107 108 109
3 30 110 111
3 31 112 114
3 114 113 30
3 112 113 114
3 31 115 116
3 31 117 119
3 117 32 118
3 117 118 119
3 21 32 31
3 21 8 32
3 33 120 122
3 122 121 9
3 120 121 122
3 124 123 33
3 126 125 4
3 34 35 2
3 36 35 34
3 36 6 35
3 17 36 5
3 37 36 17
3 37 6 36
3 37 24 6
3 38 24 37
3 38 3 24
3 20 127 128
3 39 129 131
3 131 130 20
3 129 130 131
3 39 132 133
3 39 134 136
3 134 30 135
3 134 135 136
3 34 30 39
3 34 2 30
3 137 40 138
3 139 138 1
3 137 138 139
3 140 40 141
3 140 141 142
3 144 143 40
3 145 1 146
3 41 42 0
3 43 42 41
3 43 9 42
3 22 43 8
3 44 43 22
3 44 9 43
3 44 33 9
3 45 33 44
3 45 147 149
3 149 148 33
3 147 148 149
3 35 23 2
3 46 23 35
3 46 10 23
3 25 46 6
3 47 46 25
3 47 10 46
3 47 45 10
3 48 45 47
3 48 150 152
3 152 151 45
3 150 151 152
3 48 153 154
3 156 155 48
3 27 157 159
3 159 158 11
3 157 158 159
3 161 160 27
3 40 18 1
3 49 18 40
3 49 7 18
3 29 162 164
3 162 49 163
3 162 163 164
3 50 49 29
3 50 7 49
3 50 38 7
3 51 38 50
3 51 3 38
3 165 13 166
3 52 167 168
3 52 169 171
3 169 13 170
3 169 170 171
3 52 51 13
3 53 51 52
3 53 3 51
3 53 28 3
3 54 28 53
3 54 12 28
3 172 54 173
3 174 173 14
3 172 173 174
3 175 54 176
3 177 12 178
3 179 178 54
3 177 178 179
3 181 180 12
3 182 4 183
3 32 184 185
3 55 186 188
3 188 187 32
3 186 187 188
3 55 189 191
3 189 4 190
3 189 190 191
3 55 15 4
3 41 15 55
3 41 0 15
3 42 192 194
3 194 193 0
3 192 193 194
3 56 195 197
3 197 196 42
3 195 196 197
3 56 198 199
3 200 56 201
3 202 201 9
3 200 201 202
3 203 56 204
3 206 205 56
