ply
format ascii 1.0
element vertex 115
property float x
property float y
property float z
element face 96
property list uchar int vertex_index
end_header
34.72068 -76.917175 54.325111
34.110992 -67.864334 55.560211
37.769234 -75.163292 53.498634
34.43158 -72.39119 55.228088
31.785057 -73.83989 57.035683
31.751146 -77.839119 54.858788
36.232468 -76.146423 53.946617
35.452808 -69.102356 54.310204
35.756432 -71.436371 54.309967
34.265987 -70.110397 55.418793
31.865314 -71.742737 57.739067
39.318802 -73.988258 53.003174
39.580677 -76.457092 52.928848
37.470718 -72.740273 53.535049
36.02388 -73.794624 54.226357
34.5895 -74.670135 54.898865
33.07288 -70.988892 56.575546
33.110634 -73.190292 56.146515
33.169506 -75.360718 55.528084
31.753069 -75.87867 56.102089
33.231812 -77.473625 54.625542
35.544115 -77.691848 53.840103
36.300009 -77.306472 53.650856
35.476574 -76.531799 54.135864
34.765612 -78.013206 53.864341
35.544115 -77.691848 53.840103
34.7819 -68.483345 54.935208
35.295452 -67.965881 54.315208
34.624544 -67.34687 54.940212
37.276134 -71.535885 53.480221
38.193005 -72.132702 53.193775
32.538574 -70.302369 57.430962
33.071186 -69.889554 56.736992
31.752108 -76.858894 55.480438
31.036592 -76.068691 56.364044
31.035631 -77.048916 55.742393
32.516106 -78.675465 54.105911
33.256439 -78.492717 53.989289
32.491479 -77.656372 54.742165
37.09621 -76.861343 53.570297
37.864593 -76.369777 53.346305
37.000851 -75.654857 53.722626
37.09621 -76.861343 53.570297
36.300009 -77.306472 53.650856
36.04149 -68.533958 53.797635
35.295452 -67.965881 54.315208
36.267179 -69.716926 53.867798
36.04149 -68.533958 53.797635
35.60462 -70.269363 54.310085
36.418991 -70.883934 53.86768
36.267179 -69.716926 53.867798
31.38061 -71.047684 58.706181
31.934792 -70.679291 58.012722
31.245224 -72.06477 58.30624
31.38061 -71.047684 58.706181
30.76052 -71.369717 59.273353
31.205095 -73.113347 57.954548
31.825185 -72.791314 57.387375
31.245224 -72.06477 58.30624
31.003644 -77.951847 54.956673
31.035631 -77.048916 55.742393
30.288129 -77.161644 55.840278
31.755371 -78.776356 54.049545
31.003644 -77.951847 54.956673
34.044966 -66.780597 55.635952
34.624544 -67.34687 54.940212
40.263559 -74.566219 52.792965
40.087913 -73.319996 52.744243
40.394497 -75.800636 52.755802
40.263559 -74.566219 52.792965
39.449739 -75.222675 52.966011
40.479997 -77.04586 52.651695
40.394497 -75.800636 52.755802
38.770315 -77.016678 53.061413
38.674955 -75.810192 53.213741
37.864593 -76.369777 53.346305
39.63893 -77.684944 52.720833
38.770315 -77.016678 53.061413
40.479997 -77.04586 52.651695
39.63893 -77.684944 52.720833
39.117047 -72.756695 52.927837
40.087913 -73.319996 52.744243
38.39476 -73.364266 53.269112
39.117047 -72.756695 52.927837
38.193005 -72.132702 53.193775
36.613575 -72.088322 53.922508
37.276134 -71.535885 53.480221
36.418991 -70.883934 53.86768
33.607675 -67.249153 56.365516
34.044966 -66.780597 55.635952
33.590242 -68.327275 56.229325
33.607675 -67.249153 56.365516
33.667739 -69.450306 56.158615
34.18849 -68.987366 55.489502
33.590242 -68.327275 56.229325
33.669433 -70.549644 55.997169
33.667739 -69.450306 56.158615
33.071186 -69.889554 56.736992
32.469097 -71.365814 57.157307
32.538574 -70.302369 57.430962
31.934792 -70.679291 58.012722
31.110744 -74.101269 57.456989
31.205095 -73.113347 57.954548
31.09475 -75.120659 56.990192
31.036592 -76.068691 56.364044
31.769063 -74.85928 56.568886
31.110744 -74.101269 57.456989
31.09475 -75.120659 56.990192
34.021178 -78.291432 54.014557
34.765612 -78.013206 53.864341
33.976246 -77.1954 54.475327
34.021178 -78.291432 54.014557
33.256439 -78.492717 53.989289
32.516106 -78.675465 54.105911
31.755371 -78.776356 54.049545
3 0 21 23
3 23 22 6
3 21 22 23
3 0 24 25
3 1 26 28
3 26 7 27
3 26 27 28
3 1 9 7
3 2 12 11
3 29 13 30
3 3 14 8
3 3 15 14
3 31 16 32
3 4 17 10
3 4 18 17
3 5 33 35
3 33 19 34
3 33 34 35
3 5 20 19
3 5 36 38
3 38 37 20
3 36 37 38
3 6 39 41
3 41 40 2
3 39 40 41
3 43 42 6
3 7 44 45
3 7 46 47
3 7 48 50
3 48 8 49
3 48 49 50
3 9 8 7
3 9 3 8
3 51 10 52
3 53 10 54
3 53 54 55
3 56 4 57
3 58 57 10
3 56 57 58
3 59 5 60
3 59 60 61
3 63 62 5
3 64 1 65
3 11 66 67
3 12 68 70
3 70 69 11
3 68 69 70
3 12 71 72
3 73 12 74
3 75 74 2
3 73 74 75
3 76 12 77
3 79 78 12
3 80 11 81
3 13 82 84
3 82 11 83
3 82 83 84
3 13 2 11
3 8 85 87
3 85 13 86
3 85 86 87
3 14 13 8
3 14 2 13
3 14 6 2
3 15 6 14
3 15 0 6
3 88 1 89
3 90 1 91
3 92 9 93
3 94 93 1
3 92 93 94
3 16 95 97
3 95 9 96
3 95 96 97
3 16 3 9
3 10 98 100
3 98 16 99
3 98 99 100
3 17 16 10
3 17 3 16
3 17 15 3
3 18 15 17
3 18 0 15
3 101 4 102
3 19 103 104
3 19 105 107
3 105 4 106
3 105 106 107
3 19 18 4
3 20 18 19
3 20 0 18
3 20 108 110
3 110 109 0
3 108 109 110
3 112 111 20
3 114 113 5
