ply
format ascii 1.0
element vertex 133
property float x
property float y
property float z
element face 112
property list uchar int vertex_index
end_header
-16.312473 8.330641 72.170395
-11.259075 15.798031 77.578339
-13.919956 4.42948 76.845886
-13.934153 12.141594 75.218506
-11.430294 7.842094 79.56498
-8.594629 10.898981 81.176552
-12.670467 2.38784 79.073128
-12.70085 6.156097 78.304825
-7.043369 12.198225 81.437607
-15.260074 -0.812164 76.142372
-12.660854 14.014408 76.526474
-9.714399 17.450382 78.318909
-15.117566 6.412867 74.510727
-15.12801 10.229177 73.734238
-13.930521 8.235058 76.06366
-12.707314 10.042795 77.473663
-11.389194 11.783592 78.648705
-10.065334 9.436874 80.541748
-9.945345 13.411674 79.519417
-8.382582 14.890739 80.042938
-17.56292 6.498526 70.627182
-16.340691 4.630802 72.918518
-15.150681 2.717678 75.290146
-13.936005 0.764378 77.629501
-15.1461 14.123352 72.893074
-16.326655 10.228331 71.795319
-16.935912 9.252243 71.053322
-12.036346 3.194518 79.719902
-12.003107 1.33854 80.091271
-11.899521 16.91943 76.503372
-12.600411 16.027618 75.97744
-11.959964 14.906219 77.052406
-9.545122 19.490421 77.625348
-8.884158 18.194288 78.517822
-9.329981 10.167927 80.85915
-9.374797 8.210553 81.338871
-8.639444 8.941606 81.656273
-6.895023 14.196313 80.818112
-6.256459 12.756818 81.375709
-18.254736 5.639183 69.910637
-18.218281 7.407101 69.578804
-16.401307 2.853156 73.331116
-17.005778 3.785608 72.153298
-15.806302 1.896594 74.51693
-15.745686 3.67424 74.104332
-16.401307 2.853156 73.331116
-13.973607 -0.979419 78.053078
-14.598039 -0.023893 76.885936
-14.635641 -1.76769 77.309513
-13.293436 -0.232079 78.735141
-13.973607 -0.979419 78.053078
-12.051538 5.078646 79.33575
-12.685659 4.271968 78.688976
-12.036346 3.194518 79.719902
-11.416259 5.921645 79.965828
-12.065572 6.999096 78.934902
-12.051538 5.078646 79.33575
-7.905076 9.584438 81.832416
-8.639444 8.941606 81.656273
-7.129446 10.234061 81.962944
-7.818999 11.548603 81.30708
-7.905076 9.584438 81.832416
-6.378571 10.790576 81.943188
-7.129446 10.234061 81.962944
-6.256459 12.756818 81.375709
-6.378571 10.790576 81.943188
-15.981342 -1.550566 75.427868
-15.860998 0.131673 74.943042
-15.365066 -2.475557 76.631397
-15.981342 -1.550566 75.427868
-14.740633 -3.431082 77.798538
-14.635641 -1.76769 77.309513
-15.365066 -2.475557 76.631397
-13.280502 15.063484 75.392498
-13.917151 14.127077 74.738514
-13.297504 13.078001 75.87249
-13.280502 15.063484 75.392498
-12.600411 16.027618 75.97744
-10.372383 18.655321 77.326638
-11.144721 17.829145 76.956353
-10.486737 16.624206 77.948624
-10.372383 18.655321 77.326638
-9.545122 19.490421 77.625348
-10.756107 6.695665 80.488923
-11.416259 5.921645 79.965828
-10.073628 7.493055 80.977306
-9.374797 8.210553 81.338871
-10.747814 8.639484 80.053364
-10.756107 6.695665 80.488923
-10.073628 7.493055 80.977306
-8.218249 16.914466 79.379837
-8.884158 18.194288 78.517822
-9.04849 16.170561 79.180924
-7.564629 15.54257 80.120777
-7.712975 13.544482 80.740273
-6.895023 14.196313 80.818112
-8.218249 16.914466 79.379837
-7.564629 15.54257 80.120777
-17.561135 8.336185 70.281716
-18.218281 7.407101 69.578804
-16.937697 7.414583 71.398788
-16.935912 9.252243 71.053322
-17.561135 8.336185 70.281716
-17.616892 4.719469 71.00763
-18.254736 5.639183 69.910637
-16.951805 5.564664 71.77285
-17.616892 4.719469 71.00763
-17.005778 3.785608 72.153298
-15.205378 0.952757 75.716259
-15.806302 1.896594 74.51693
-15.860998 0.131673 74.943042
-12.660667 0.579652 79.456955
-13.303236 1.576109 78.351315
-13.293436 -0.232079 78.735141
-12.003107 1.33854 80.091271
-12.660667 0.579652 79.456955
-15.734423 11.177599 72.57724
-16.326655 10.228331 71.795319
-15.720242 9.279909 72.952316
-15.743468 13.124687 72.156658
-15.734423 11.177599 72.57724
-15.137055 12.176265 73.313656
-15.764963 15.048222 71.743885
-15.743468 13.124687 72.156658
-14.523125 15.117956 73.575798
-14.540126 13.132473 74.05579
-13.917151 14.127077 74.738514
-15.140958 16.091028 72.413391
-14.523125 15.117956 73.575798
-15.764963 15.048222 71.743885
-15.140958 16.091028 72.413391
-11.899521 16.91943 76.503372
-11.144721 17.829145 76.956353
3 0 25 26
3 28 27 6
3 1 29 31
3 31 30 10
3 29 30 31
3 33 32 11
3 2 14 12
3 4 15 7
3 4 16 15
3 5 34 36
3 34 17 35
3 34 35 36
3 5 18 17
3 5 19 18
3 38 37 8
3 39 20 40
3 41 21 42
3 43 22 44
3 45 44 21
3 43 44 45
3 46 23 47
3 48 47 9
3 46 47 48
3 50 49 23
3 3 24 13
3 6 7 2
3 51 7 52
3 53 52 6
3 51 52 53
3 54 4 55
3 56 55 7
3 54 55 56
3 57 5 58
3 59 8 60
3 61 60 5
3 59 60 61
3 62 8 63
3 65 64 8
3 66 9 67
3 68 9 69
3 72 71 9
3 70 71 72
3 10 73 75
3 75 74 3
3 73 74 75
3 77 76 10
3 11 78 80
3 80 79 1
3 78 79 80
3 82 81 11
3 12 13 0
3 14 13 12
3 14 3 13
3 7 14 2
3 15 14 7
3 15 3 14
3 15 10 3
3 16 10 15
3 16 1 10
3 83 4 84
3 17 85 86
3 17 87 89
3 87 4 88
3 87 88 89
3 17 16 4
3 18 16 17
3 18 1 16
3 18 11 1
3 19 11 18
3 19 90 92
3 92 91 11
3 90 91 92
3 8 19 5
3 93 19 94
3 95 94 8
3 93 94 95
3 97 96 19
3 20 98 99
3 20 100 102
3 100 0 101
3 100 101 102
3 103 20 104
3 21 105 107
3 105 20 106
3 105 106 107
3 21 0 20
3 21 12 0
3 22 12 21
3 22 2 12
3 9 108 110
3 108 22 109
3 108 109 110
3 23 22 9
3 23 2 22
3 23 6 2
3 111 6 112
3 113 112 23
3 111 112 113
3 115 114 6
3 13 116 118
3 118 117 0
3 116 117 118
3 24 119 121
3 121 120 13
3 119 120 121
3 24 122 123
3 124 24 125
3 126 125 3
3 124 125 126
3 127 24 128
3 130 129 24
3 132 131 1
