ply
format ascii 1.0
element vertex 249
property float x
property float y
property float z
element face 254
property list uchar int vertex_index
end_header
1.548695 -32.919533 81.037666
1.337702 -19.870312 78.004242
0.137815 -20.225912 86.174049
-0.925852 -32.407429 70.630714
0.17182 -33.094994 87.887283
1.559549 -26.470516 79.50589
0.784613 -26.372211 74.3564
0.660759 -32.74979 75.982437
-1.333529 -38.49987 72.62413
0.218931 -38.837097 77.934677
1.153034 -19.919142 82.619148
1.509706 -26.579889 84.005356
-2.362511 -25.147129 64.045509
0.813507 -19.79155 72.930206
-0.615904 -26.020967 69.085541
-2.864548 -31.677906 65.354492
0.434307 -26.851961 87.225822
1.453245 -33.035179 85.223625
0.625574 -38.880646 86.464256
0.976744 -38.979362 82.75676
1.603621 -29.722427 80.260643
1.272787 -29.665257 77.755287
1.210432 -32.845894 78.578323
0.494165 -35.843395 76.908409
1.036922 -35.948799 79.466911
-0.119581 -16.862238 85.497803
0.758173 -20.027693 84.565994
1.360537 -23.260782 83.33786
0.973824 -23.375719 85.229156
-1.266718 -22.335825 65.961273
1.159111 -19.855623 75.489822
0.056635 -29.458168 72.472672
0.149475 -26.246237 71.710358
-0.765587 -29.247017 69.808258
-1.677555 -28.920561 67.183968
-1.878849 -32.105984 67.966064
-2.080248 -35.215343 68.876732
0.394411 -30.049755 87.592987
1.122536 -29.944229 86.321785
0.96595 -33.075832 86.781334
-0.155285 -41.425774 87.144547
0.278706 -41.635021 85.634766
0.954601 -38.965988 84.793289
0.401817 -41.739632 83.729118
0.236353 -41.753822 81.511536
1.458895 -23.185532 78.7556
1.215277 -23.166533 76.22197
1.262398 -26.435013 76.975174
0.747034 -29.586763 75.13829
-0.064127 -32.612175 73.316025
-1.110386 -35.496567 71.565681
-0.235971 -35.698097 74.256531
-0.480776 -38.694561 75.309242
1.340218 -19.877947 80.405891
1.514473 -23.205643 81.153519
1.651093 -26.510643 81.876076
1.708363 -29.780472 82.578911
0.310503 -19.638586 70.382004
0.800913 -23.109728 73.622665
0.231802 -22.975561 71.016479
-0.469866 -22.727676 68.450424
-1.472466 -25.663507 66.520111
-2.621439 -28.449295 64.632111
-2.287956 -38.237968 69.922684
0.335148 -23.562927 86.755203
1.10984 -26.692642 85.812599
1.556313 -29.852997 84.626816
1.640163 -32.981701 83.281441
-0.275772 -35.918484 88.153831
-0.905739 -41.104866 88.192284
-0.022104 -38.712906 87.694237
0.596031 -36.020557 87.227692
1.155159 -36.06591 85.826797
1.401279 -36.063332 84.011337
1.351774 -36.022186 81.862129
0.719082 -38.933132 80.441963
-0.182678 -41.69392 79.069199
-0.798736 -20.849616 66.92569
-1.169519 -20.638236 65.725231
1.248406 -19.862967 76.747032
1.190605 -18.184332 76.373542
1.279901 -18.191676 77.630752
0.283116 -31.572375 87.740135
-0.114476 -30.104184 87.992935
-0.225772 -31.626804 88.140083
-0.048336 -42.949343 85.197178
-0.174017 -42.834699 86.073704
0.013219 -43.001648 84.244354
0.340261 -41.687326 84.681942
-0.048336 -42.949343 85.197178
-0.006265 -43.055993 83.19453
0.013219 -43.001648 84.244354
-0.296598 -40.204991 77.20774
-0.646451 -40.133723 75.895023
-0.130922 -38.765829 76.62196
1.039683 -18.238185 82.239517
0.828145 -18.289812 83.227691
1.246626 -19.898544 81.512519
1.133274 -18.217588 81.132889
1.039683 -18.238185 82.239517
-2.785416 -24.800323 62.867961
-2.23121 -23.462395 63.812051
-2.941844 -26.478768 63.114334
-2.785416 -24.800323 62.867961
0.820516 -18.098372 72.60302
0.961688 -18.139889 73.855358
0.562005 -19.715068 71.656105
0.569014 -18.02189 71.328919
0.820516 -18.098372 72.60302
-3.336432 -31.387425 64.090721
-3.214878 -29.773119 63.72953
-2.742993 -30.0636 64.993302
-3.459974 -32.990458 64.49336
-3.336432 -31.387425 64.090721
-0.064912 -25.336628 87.543415
-0.042701 -26.951054 87.709262
0.384728 -25.207444 86.990512
-0.114492 -23.692111 87.308105
-0.064912 -25.336628 87.543415
-0.628604 -37.188368 88.29396
-0.858244 -35.836554 88.366081
-1.045177 -42.388904 88.017216
-1.476992 -42.142372 88.443535
-0.447908 -43.036551 79.68449
0.026838 -41.723871 80.290368
-0.238393 -43.066502 80.905659
-0.706744 -42.99888 78.415207
-0.447908 -43.036551 79.68449
0.191838 -16.76136 84.667019
-0.259652 -15.167671 85.12698
0.630715 -18.344088 84.201115
0.191838 -16.76136 84.667019
0.319296 -18.444966 85.031899
0.955603 -19.973418 83.592571
0.828145 -18.289812 83.227691
0.630715 -18.344088 84.201115
-1.683313 -22.056742 64.769934
-1.169519 -20.638236 65.725231
-1.814615 -23.741477 65.003391
-2.23121 -23.462395 63.812051
-1.683313 -22.056742 64.769934
1.13449 -18.171926 75.135166
1.190605 -18.184332 76.373542
0.986309 -19.823587 74.210014
0.961688 -18.139889 73.855358
1.13449 -18.171926 75.135166
-2.482547 -33.466357 67.09407
-2.975397 -33.252318 65.788284
-2.371698 -31.891945 66.660278
-2.583247 -35.021036 67.549404
-2.482547 -33.466357 67.09407
-1.979548 -33.660663 68.421398
-2.682348 -36.55071 68.0574
-2.583247 -35.021036 67.549404
-1.919212 -39.828655 71.864013
-1.46866 -39.947844 73.217003
-0.062649 -28.549951 87.892845
-0.114476 -30.104184 87.992935
0.414359 -28.450858 87.409404
-0.042701 -26.951054 87.709262
-0.062649 -28.549951 87.892845
-0.391013 -42.730076 86.828595
-0.66995 -42.549358 87.493347
0.061711 -41.530397 86.389657
-0.391013 -42.730076 86.828595
-0.174017 -42.834699 86.073704
-0.088997 -43.063087 82.08574
0.319085 -41.746727 82.620327
-0.006265 -43.055993 83.19453
-0.238393 -43.066502 80.905659
-0.088997 -43.063087 82.08574
-0.674958 -15.333335 85.795193
-0.259652 -15.167671 85.12698
-0.536146 -17.020865 86.141423
-0.674958 -15.333335 85.795193
-0.407448 -18.702703 86.479546
0.009117 -18.544075 85.835926
-0.536146 -17.020865 86.141423
-1.042284 -40.045189 74.559559
-1.46866 -39.947844 73.217003
-0.907153 -38.597216 73.966686
-1.042284 -40.045189 74.559559
-0.646451 -40.133723 75.895023
-0.372385 -33.088764 88.194755
-0.225772 -31.626804 88.140083
1.250125 -18.195895 78.822823
1.279901 -18.191676 77.630752
1.251383 -18.199712 80.023647
1.133274 -18.217588 81.132889
1.33896 -19.874129 79.205067
1.250125 -18.195895 78.822823
1.251383 -18.199712 80.023647
0.345542 -17.93334 70.0895
0.569014 -18.02189 71.328919
-0.010126 -19.500996 69.136055
0.345542 -17.93334 70.0895
-0.400311 -21.045541 68.170265
-0.010126 -19.500996 69.136055
-0.079682 -21.183131 69.416214
-0.868292 -22.531751 67.205849
-0.798736 -20.849616 66.92569
-0.400311 -21.045541 68.170265
-3.071308 -28.12985 63.407635
-2.941844 -26.478768 63.114334
-2.491975 -26.798212 64.33881
-3.071308 -28.12985 63.407635
-3.214878 -29.773119 63.72953
-3.459974 -32.990458 64.49336
-2.975397 -33.252318 65.788284
-2.786201 -38.062023 68.580376
-2.682348 -36.55071 68.0574
-2.184102 -36.726655 69.399708
-2.396425 -39.697704 70.513291
-1.810742 -38.368919 71.273407
-1.919212 -39.828655 71.864013
-2.87209 -39.540085 69.160461
-2.396425 -39.697704 70.513291
-2.786201 -38.062023 68.580376
-2.87209 -39.540085 69.160461
-0.290871 -20.373663 86.780117
-0.407448 -18.702703 86.479546
-0.192205 -22.04217 87.070694
-0.114492 -23.692111 87.308105
0.236482 -21.894419 86.464626
-0.290871 -20.373663 86.780117
-0.192205 -22.04217 87.070694
-0.596181 -34.500509 88.328029
-0.858244 -35.836554 88.366081
-0.051976 -34.506739 88.020557
-0.372385 -33.088764 88.194755
-0.596181 -34.500509 88.328029
-1.432766 -40.890436 88.467895
-1.476992 -42.142372 88.443535
-0.943588 -39.781559 88.313187
-1.432766 -40.890436 88.467895
-0.530512 -41.26532 87.668416
-1.045177 -42.388904 88.017216
-0.66995 -42.549358 87.493347
-0.50177 -38.585579 88.064164
-0.943588 -39.781559 88.313187
-0.463921 -39.908886 87.943261
-0.148938 -37.315695 87.924034
-0.628604 -37.188368 88.29396
-0.50177 -38.585579 88.064164
-0.497402 -41.633402 77.775002
-0.296598 -40.204991 77.20774
0.018126 -40.265508 78.501938
-0.497402 -41.633402 77.775002
-0.706744 -42.99888 78.415207
3 0 22 20
3 0 24 22
3 2 26 25
3 2 28 26
3 77 29 78
3 1 79 81
3 79 30 80
3 79 80 81
3 3 33 31
3 3 35 33
3 3 36 35
3 4 82 84
3 82 37 83
3 82 83 84
3 4 39 37
3 85 41 86
3 87 43 88
3 89 88 41
3 87 88 89
3 91 90 43
3 5 47 45
3 7 48 21
3 7 49 48
3 7 51 49
3 9 52 23
3 9 92 94
3 94 93 52
3 92 93 94
3 10 95 96
3 10 97 99
3 97 53 98
3 97 98 99
3 10 54 53
3 11 55 27
3 11 56 55
3 12 100 101
3 12 102 103
3 13 104 105
3 13 106 108
3 106 57 107
3 106 107 108
3 6 58 46
3 14 59 32
3 14 60 59
3 14 61 60
3 15 62 34
3 15 109 111
3 111 110 62
3 109 110 111
3 15 112 113
3 8 63 50
3 16 114 115
3 16 116 118
3 116 64 117
3 116 117 118
3 16 65 64
3 17 66 38
3 17 67 66
3 119 68 120
3 121 69 122
3 18 70 40
3 18 71 70
3 18 72 71
3 19 73 42
3 19 74 73
3 19 75 74
3 123 76 124
3 125 124 44
3 123 124 125
3 127 126 76
3 20 21 5
3 22 21 20
3 22 7 21
3 22 23 7
3 24 23 22
3 24 9 23
3 25 128 129
3 26 130 132
3 132 131 25
3 130 131 132
3 26 133 135
3 133 10 134
3 133 134 135
3 26 27 10
3 28 27 26
3 28 11 27
3 29 136 137
3 29 138 140
3 138 12 139
3 138 139 140
3 30 141 142
3 30 143 145
3 143 13 144
3 143 144 145
3 31 32 6
3 33 32 31
3 33 14 32
3 33 34 14
3 35 34 33
3 35 15 34
3 35 146 148
3 148 147 15
3 146 147 148
3 36 149 151
3 151 150 35
3 149 150 151
3 36 152 153
3 155 154 8
3 37 156 157
3 37 158 160
3 158 16 159
3 158 159 160
3 37 38 16
3 39 38 37
3 39 17 38
3 161 40 162
3 41 163 165
3 163 40 164
3 163 164 165
3 41 18 40
3 41 42 18
3 43 42 41
3 43 19 42
3 43 44 19
3 166 44 167
3 168 167 43
3 166 167 168
3 170 169 44
3 171 25 172
3 173 25 174
3 175 2 176
3 177 176 25
3 175 176 177
3 45 46 1
3 47 46 45
3 47 6 46
3 21 47 5
3 48 47 21
3 48 6 47
3 48 31 6
3 49 31 48
3 49 3 31
3 49 50 3
3 51 50 49
3 51 8 50
3 23 51 7
3 52 51 23
3 52 8 51
3 52 178 180
3 180 179 8
3 178 179 180
3 182 181 52
3 183 4 184
3 185 1 186
3 53 187 188
3 53 189 191
3 189 1 190
3 189 190 191
3 53 45 1
3 54 45 53
3 54 5 45
3 27 54 10
3 55 54 27
3 55 5 54
3 55 20 5
3 56 20 55
3 56 0 20
3 57 192 193
3 57 194 195
3 46 30 1
3 58 30 46
3 58 13 30
3 32 58 6
3 59 58 32
3 59 13 58
3 59 57 13
3 60 57 59
3 60 196 198
3 198 197 57
3 196 197 198
3 60 199 201
3 199 29 200
3 199 200 201
3 61 29 60
3 61 12 29
3 34 61 14
3 62 61 34
3 62 12 61
3 62 202 204
3 204 203 12
3 202 203 204
3 206 205 62
3 208 207 15
3 50 36 3
3 63 36 50
3 63 209 211
3 211 210 36
3 209 210 211
3 212 63 213
3 214 213 8
3 212 213 214
3 215 63 216
3 218 217 63
3 219 2 220
3 64 221 222
3 64 223 225
3 223 2 224
3 223 224 225
3 64 28 2
3 65 28 64
3 65 11 28
3 38 65 16
3 66 65 38
3 66 11 65
3 66 56 11
3 67 56 66
3 67 0 56
3 68 226 227
3 68 228 230
3 228 4 229
3 228 229 230
3 69 231 232
3 69 233 234
3 40 235 237
3 235 69 236
3 235 236 237
3 70 69 40
3 70 238 240
3 240 239 69
3 238 239 240
3 70 241 243
3 241 68 242
3 241 242 243
3 71 68 70
3 71 4 68
3 71 39 4
3 72 39 71
3 72 17 39
3 42 72 18
3 73 72 42
3 73 17 72
3 73 67 17
3 74 67 73
3 74 0 67
3 74 24 0
3 75 24 74
3 75 9 24
3 44 75 19
3 76 75 44
3 76 9 75
3 76 244 246
3 246 245 9
3 244 245 246
3 248 247 76
