ply
format ascii 1.0
element vertex 205
property float x
property float y
property float z
element face 187
property list uchar int vertex_index
end_header
-5.421814 -92.310623 20.632877
-4.6152 -96.307098 30.761295
-5.793194 -98.949203 40.993088
-2.775496 -97.619965 20.883301
-7.097744 -103.101166 40.791138
-5.109737 -102.861359 36.368122
-7.095104 -87.457977 20.564932
-6.121305 -89.273407 25.223454
-4.7651 -94.285706 25.549335
-2.749964 -99.668945 26.049568
-6.548208 -90.780945 16.169851
-4.988951 -97.965622 36.005394
-3.559452 -101.58287 31.34782
-5.071142 -93.718582 30.449881
-5.284065 -92.73674 27.875195
-4.624491 -95.318176 28.132982
-3.769922 -96.938477 25.791348
-3.834888 -97.974045 28.427231
-6.447115 -89.830444 20.579815
-6.993227 -89.033401 18.338438
-5.928801 -91.472702 18.339657
-5.037436 -96.104767 38.251751
-5.349787 -98.557831 38.547241
-4.207834 -104.767715 33.920929
-4.255182 -102.329483 33.916737
-4.957949 -94.630112 33.05764
-4.145756 -94.906586 20.7384
-4.577662 -94.026993 18.382238
-3.097246 -96.705597 18.459837
-6.405088 -101.137573 41.027531
-5.672529 -100.924072 38.715672
-6.077158 -103.131546 38.666687
-6.587639 -88.329025 22.853567
-5.978472 -90.742706 22.923035
-5.700003 -90.246506 27.667908
-5.589088 -91.728241 25.359512
-5.032478 -93.264511 23.041372
-3.874643 -95.895447 23.216656
-2.657841 -98.628067 23.425648
-7.158045 -101.072556 43.185318
-8.105288 -102.741135 42.73465
-5.161077 -93.294403 16.163227
-4.948086 -95.435318 35.668606
-4.738621 -97.203522 33.398098
-5.012218 -100.461975 36.267044
-4.467737 -99.787277 33.709885
-4.069624 -98.94191 31.081944
-3.052441 -100.675766 28.707878
-5.57149 -98.753517 39.770164
-5.28101 -97.585678 39.662588
-5.502714 -97.781364 40.885511
-3.708531 -104.472961 32.694139
-3.665547 -105.717208 32.630493
-4.884483 -93.775368 34.185497
-4.995529 -93.367729 32.894564
-6.354472 -88.801216 24.038511
-6.436451 -87.623406 23.985613
-6.203284 -88.095596 25.170556
-5.516588 -90.725021 28.921944
-5.51768 -89.510292 28.802023
-2.145199 -100.556663 24.830911
-2.099137 -100.036225 23.51895
-2.703902 -99.148506 24.737608
-6.967996 -100.048386 44.348726
-6.720225 -100.092553 43.252544
-8.57162 -102.387733 43.619343
-7.992531 -101.723732 43.958638
-8.625901 -103.394737 42.316872
-8.57162 -102.387733 43.619343
-7.370525 -87.076866 19.463323
-7.191905 -86.318641 20.561152
-7.082513 -89.577706 16.186597
-7.305023 -88.703934 17.27089
-6.770717 -89.907173 17.254145
-6.909652 -90.508744 15.147465
-7.082513 -89.577706 16.186597
-4.386009 -94.612137 16.171645
-4.869369 -93.660698 17.272733
-4.094302 -94.978432 17.281151
-2.214787 -98.564919 19.71116
-2.125136 -99.031441 20.953606
-6.86301 -104.102722 39.54837
-7.505768 -103.932564 40.495251
-5.96071 -88.562348 26.359841
-6.203284 -88.095596 25.170556
-5.177604 -93.227661 29.162538
-5.308619 -91.970138 29.025588
-5.202158 -92.46106 30.312931
-5.124835 -96.359146 39.514843
-4.827562 -95.152382 39.354873
-5.193611 -97.331299 38.399496
-5.124835 -96.359146 39.514843
-5.28101 -97.585678 39.662588
-3.732204 -103.253845 32.692043
-4.231508 -103.548599 33.918833
-3.708531 -104.472961 32.694139
-3.384339 -102.880539 31.407585
-3.907317 -101.956176 32.632278
-3.732204 -103.253845 32.692043
-2.987805 -102.482986 30.120556
-3.384339 -102.880539 31.407585
-5.052126 -92.911964 31.590684
-5.202158 -92.46106 30.312931
-5.014546 -94.174347 31.75376
-5.052126 -92.911964 31.590684
-4.995529 -93.367729 32.894564
-3.354094 -96.317734 17.31995
-4.094302 -94.978432 17.281151
-3.837454 -95.366295 18.421038
-2.375663 -98.107734 18.499428
-2.936371 -97.162781 19.671569
-2.214787 -98.564919 19.71116
-2.580979 -97.701111 17.326861
-2.375663 -98.107734 18.499428
-3.354094 -96.317734 17.31995
-2.580979 -97.701111 17.326861
-6.352717 -104.117913 38.486145
-6.587451 -103.116356 39.728912
-6.86301 -104.102722 39.54837
-5.722605 -104.112221 37.43816
-6.352717 -104.117913 38.486145
-5.238894 -103.977127 36.288877
-5.593447 -102.996453 37.517404
-5.722605 -104.112221 37.43816
-4.787943 -104.930306 35.065281
-4.658786 -103.814537 35.144526
-5.238894 -103.977127 36.288877
-4.309703 -105.900566 33.772661
-4.787943 -104.930306 35.065281
-3.665547 -105.717208 32.630493
-4.309703 -105.900566 33.772661
-6.938391 -86.736 21.684538
-7.191905 -86.318641 20.561152
-6.684659 -87.171524 22.828856
-6.436451 -87.623406 23.985613
-6.841372 -87.893501 21.709249
-6.938391 -86.736 21.684538
-6.684659 -87.171524 22.828856
-5.750058 -89.048897 27.582068
-5.51768 -89.510292 28.802023
-5.910654 -89.759957 26.445681
-5.96071 -88.562348 26.359841
-5.750058 -89.048897 27.582068
-5.492034 -91.491623 27.771552
-5.516588 -90.725021 28.921944
-5.308619 -91.970138 29.025588
-2.066309 -99.535492 22.22478
-2.125136 -99.031441 20.953606
-2.716668 -98.124016 22.154474
-2.066309 -99.535492 22.22478
-2.099137 -100.036225 23.51895
-5.621633 -97.944198 42.10764
-5.502714 -97.781364 40.885511
-6.037799 -99.030876 42.15643
-5.621633 -97.944198 42.10764
-6.343746 -100.125061 42.173651
-6.099141 -100.043388 41.01031
-6.037799 -99.030876 42.15643
-6.781567 -101.105064 42.106425
-6.343746 -100.125061 42.173651
-6.720225 -100.092553 43.252544
-7.51891 -100.889443 44.183971
-6.967996 -100.048386 44.348726
-7.631666 -101.906846 42.959984
-7.51891 -100.889443 44.183971
-7.992531 -101.723732 43.958638
-8.00954 -103.752549 41.467007
-7.505768 -103.932564 40.495251
-7.601516 -102.921151 41.762894
-8.00954 -103.752549 41.467007
-8.625901 -103.394737 42.316872
-7.319586 -87.864578 18.350076
-7.370525 -87.076866 19.463323
-7.044166 -88.245689 19.451685
-7.319586 -87.864578 18.350076
-7.305023 -88.703934 17.27089
-4.728199 -94.302399 15.109289
-4.386009 -94.612137 16.171645
-5.520734 -93.006188 15.124645
-4.728199 -94.302399 15.109289
-6.214299 -91.749459 15.127958
-5.854642 -92.037674 16.166539
-5.520734 -93.006188 15.124645
-6.909652 -90.508744 15.147465
-6.214299 -91.749459 15.127958
-4.855247 -94.865021 38.074503
-4.827562 -95.152382 39.354873
-4.810572 -94.530296 36.78293
-4.855247 -94.865021 38.074503
-4.992761 -95.770042 36.960178
-4.879552 -94.177971 35.49098
-4.810572 -94.530296 36.78293
-4.953017 -95.032715 34.363123
-4.884483 -93.775368 34.185497
-4.879552 -94.177971 35.49098
-2.734299 -102.029434 28.800584
-3.305947 -101.129318 30.027849
-2.987805 -102.482986 30.120556
-2.453943 -101.562027 27.481299
-2.734299 -102.029434 28.800584
-2.302705 -101.058616 26.152144
-2.901203 -100.172355 27.378723
-2.453943 -101.562027 27.481299
-2.145199 -100.556663 24.830911
-2.302705 -101.058616 26.152144
3 1 15 13
3 1 17 15
3 0 20 18
3 2 48 50
3 48 22 49
3 48 49 50
3 52 51 23
3 53 25 54
3 3 28 26
3 4 31 29
3 7 55 57
3 55 32 56
3 55 56 57
3 7 33 32
3 58 34 59
3 8 35 14
3 8 36 35
3 8 37 36
3 9 38 16
3 9 60 62
3 62 61 38
3 60 61 62
3 63 39 64
3 65 40 66
3 68 67 40
3 6 69 70
3 10 71 73
3 73 72 19
3 71 72 73
3 10 74 75
3 76 41 77
3 78 77 27
3 76 77 78
3 11 42 21
3 11 43 42
3 5 44 30
3 12 45 24
3 12 46 45
3 12 47 46
3 80 79 3
3 82 81 4
3 83 7 84
3 13 85 87
3 85 14 86
3 85 86 87
3 15 14 13
3 15 8 14
3 15 16 8
3 17 16 15
3 17 9 16
3 18 19 6
3 20 19 18
3 20 10 19
3 88 21 89
3 22 90 92
3 90 21 91
3 90 91 92
3 22 11 21
3 23 24 5
3 93 24 94
3 95 94 23
3 93 94 95
3 96 12 97
3 98 97 24
3 96 97 98
3 100 99 12
3 101 13 102
3 25 103 105
3 103 13 104
3 103 104 105
3 25 1 13
3 26 27 0
3 28 27 26
3 28 106 108
3 108 107 27
3 106 107 108
3 109 28 110
3 111 110 3
3 109 110 111
3 112 28 113
3 115 114 28
3 29 30 2
3 31 30 29
3 31 5 30
3 116 31 117
3 118 117 4
3 116 117 118
3 119 31 120
3 121 5 122
3 123 122 31
3 121 122 123
3 124 23 125
3 126 125 5
3 124 125 126
3 127 23 128
3 130 129 23
3 131 6 132
3 32 133 134
3 32 135 137
3 135 6 136
3 135 136 137
3 32 18 6
3 33 18 32
3 33 0 18
3 34 138 139
3 34 140 142
3 140 7 141
3 140 141 142
3 14 143 145
3 143 34 144
3 143 144 145
3 35 34 14
3 35 7 34
3 35 33 7
3 36 33 35
3 36 0 33
3 36 26 0
3 37 26 36
3 37 3 26
3 16 37 8
3 38 37 16
3 38 3 37
3 38 146 148
3 148 147 3
3 146 147 148
3 150 149 38
3 151 2 152
3 153 2 154
3 155 29 156
3 157 156 2
3 155 156 157
3 39 158 160
3 158 29 159
3 158 159 160
3 39 4 29
3 161 39 162
3 40 163 165
3 163 39 164
3 163 164 165
3 40 4 39
3 40 166 168
3 168 167 4
3 166 167 168
3 170 169 40
3 19 171 173
3 173 172 6
3 171 172 173
3 175 174 19
3 27 20 0
3 41 20 27
3 41 10 20
3 176 41 177
3 178 41 179
3 180 10 181
3 182 181 41
3 180 181 182
3 184 183 10
3 21 185 186
3 42 187 189
3 189 188 21
3 187 188 189
3 42 190 191
3 42 192 194
3 192 25 193
3 192 193 194
3 43 25 42
3 43 1 25
3 30 22 2
3 44 22 30
3 44 11 22
3 24 44 5
3 45 44 24
3 45 11 44
3 45 43 11
3 46 43 45
3 46 1 43
3 46 17 1
3 47 17 46
3 47 9 17
3 195 47 196
3 197 196 12
3 195 196 197
3 198 47 199
3 200 9 201
3 202 201 47
3 200 201 202
3 204 203 9
