ply
format ascii 1.0
element vertex 262
property float x
property float y
property float z
element face 256
property list uchar int vertex_index
end_header
33.521976 42.330093 50.433167
39.96909 39.689045 46.100708
38.768085 31.851524 55.085793
37.016335 20.778332 61.015808
42.631516 35.200233 38.404007
36.406982 37.379368 53.223007
35.681694 32.4333 57.042152
40.957127 34.181957 47.082581
41.788704 37.522495 42.5112
41.669304 31.75206 42.74926
39.393333 14.976948 60.995399
40.31358 20.617443 59.062683
42.703201 14.813931 58.527649
37.123756 41.360439 48.836754
39.231331 36.173855 50.730858
40.732979 30.352982 51.681137
34.604614 26.655514 59.894485
38.135414 26.645126 58.667984
40.682606 25.82151 55.858452
34.273289 35.147263 55.805901
41.269619 31.211796 47.277161
41.415874 32.994823 44.973583
41.532097 29.984612 45.014
41.663536 28.72406 42.665955
41.142475 14.971249 59.93045
35.395676 41.934608 49.782715
37.658669 34.692589 54.28566
37.945461 36.887592 52.146446
38.992409 34.12635 52.971382
40.038765 33.334549 51.322838
39.90052 31.211594 53.540878
40.532887 41.253193 43.796997
42.30899 36.360718 40.505173
42.46183 39.122993 40.307587
35.841434 23.734074 60.615433
36.469479 26.736687 59.473312
37.64431 23.772091 60.01326
41.609318 20.260132 57.518997
40.561104 23.292591 57.61264
41.62273 22.743225 55.859398
35.01931 39.915573 51.926071
34.65913 37.653378 53.947205
36.069267 35.026245 55.228752
37.348965 32.255886 56.260132
40.550594 37.01421 46.69677
41.015007 38.646816 44.38953
41.282738 35.891857 44.774445
41.76054 34.697716 42.708656
42.039482 33.480167 40.541939
42.208755 32.279522 38.309364
41.804947 30.504593 40.453178
38.181889 17.840572 61.120491
38.774578 20.784012 60.235352
39.921906 17.831512 60.182976
41.453659 17.65897 58.876495
38.6618 40.605385 47.598495
36.74292 39.48526 51.0765
38.263878 38.848354 49.900452
39.542171 38.014503 48.424126
40.236893 35.258743 49.022377
40.790264 32.347305 49.401634
33.878502 23.564423 60.8685
35.084728 20.636425 61.42765
36.266846 17.714577 61.692757
41.635311 40.21167 42.127468
35.202763 29.628716 58.611748
36.96545 29.592651 58.008316
38.499153 29.350628 57.007095
39.230667 23.633774 59.01152
39.550079 26.344578 57.454491
39.75787 28.878872 55.608864
40.719944 28.178947 53.857407
41.567406 29.065962 46.159787
41.400858 30.598204 46.145581
41.436167 29.679554 47.291367
41.652729 28.44973 44.970276
41.567406 29.065962 46.159787
32.736464 43.501628 49.611317
32.534444 42.452004 50.630371
33.727366 43.301908 49.364281
32.736464 43.501628 49.611317
34.458826 42.132351 50.107941
34.664215 43.104166 49.039055
33.727366 43.301908 49.364281
40.250989 40.471119 44.948853
39.851862 41.73114 44.5396
39.569964 40.949066 45.691456
42.830608 36.611515 38.384784
42.669346 37.191757 39.435367
42.470253 35.780475 39.45459
43.014798 36.069316 37.365654
42.830608 36.611515 38.384784
42.740332 34.634592 37.32074
43.014798 36.069316 37.365654
42.144258 21.228934 55.75795
41.616024 21.501678 56.689197
42.137552 19.987387 56.58775
42.02841 22.373298 54.839107
42.144258 21.228934 55.75795
33.706778 37.697229 54.150406
33.899723 38.90435 53.204742
41.837061 26.580437 41.384279
41.718407 28.10355 41.470793
41.78219 27.200947 42.579442
42.735271 16.063078 57.880317
42.110501 17.485598 58.05474
42.07843 16.236451 58.702072
37.355045 42.202501 47.691086
36.474423 42.547882 48.195473
37.892778 40.982912 48.217624
38.124067 41.824974 47.071956
37.355045 42.202501 47.691086
41.008143 29.833384 50.629787
41.036785 30.830545 49.490036
40.761622 31.350144 50.541386
33.458164 21.985632 61.207821
32.848713 23.441744 60.872738
34.061278 20.521633 61.487396
34.481615 22.100424 61.148075
33.458164 21.985632 61.207821
35.850201 16.172474 61.904114
35.246578 17.604685 61.82116
36.872042 16.28322 61.703392
35.850201 16.172474 61.904114
42.422146 40.443565 40.112923
42.857706 39.930294 39.232622
42.296365 31.701553 37.175815
42.071847 30.786569 38.215099
34.903689 28.142115 59.253117
34.23695 29.56692 58.741539
33.937876 28.080319 59.382908
33.301045 35.124234 55.94104
33.513857 36.444172 55.079754
34.047369 33.78287 56.633099
33.301045 35.124234 55.94104
34.751571 32.425888 57.251224
34.977491 33.790282 56.424026
34.047369 33.78287 56.633099
41.718449 27.819454 43.796253
41.597817 29.354336 43.839978
41.652729 28.44973 44.970276
41.78219 27.200947 42.579442
41.718449 27.819454 43.796253
40.914863 13.603217 60.330162
40.267904 14.974099 60.462924
40.040292 13.606067 60.862637
41.802726 13.609022 59.746769
40.914863 13.603217 60.330162
42.583089 13.530362 59.045368
41.922838 14.89259 59.22905
41.802726 13.609022 59.746769
35.610383 42.834967 48.668453
34.664215 43.104166 49.039055
36.259716 41.647523 49.309735
36.474423 42.547882 48.195473
35.610383 42.834967 48.668453
40.165768 42.487887 43.389305
39.851862 41.73114 44.5396
40.878577 42.011109 42.665249
40.165768 42.487887 43.389305
42.745766 38.572895 39.336574
42.38541 37.741855 40.40638
42.669346 37.191757 39.435367
42.857706 39.930294 39.232622
42.745766 38.572895 39.336574
41.577278 23.914503 54.899102
41.107216 25.453646 54.898629
41.152668 24.282367 55.858925
41.577278 23.914503 54.899102
42.02841 22.373298 54.839107
33.331146 41.242708 51.447723
32.534444 42.452004 50.630371
34.079813 40.035448 52.194176
34.270643 41.122833 51.179619
33.331146 41.242708 51.447723
34.83922 38.784475 52.936638
34.079813 40.035448 52.194176
33.899723 38.90435 53.204742
34.466209 36.40032 54.876553
33.706778 37.697229 54.150406
33.513857 36.444172 55.079754
41.869943 29.899105 39.287006
42.071847 30.786569 38.215099
42.006851 31.392057 39.381271
41.789112 28.993817 40.364404
41.734241 29.614327 41.559567
41.718407 28.10355 41.470793
41.869943 29.899105 39.287006
41.789112 28.993817 40.364404
42.18833 18.786178 57.375991
41.531489 18.959551 58.197746
42.110501 17.485598 58.05474
42.137552 19.987387 56.58775
42.18833 18.786178 57.375991
38.916319 41.407236 46.440349
38.124067 41.824974 47.071956
39.315445 40.147215 46.849601
39.569964 40.949066 45.691456
38.916319 41.407236 46.440349
41.276463 30.262791 48.427799
41.029941 31.77955 48.339398
41.036785 30.830545 49.490036
41.436167 29.679554 47.291367
41.276463 30.262791 48.427799
33.604157 26.555349 59.953002
33.937876 28.080319 59.382908
33.241101 25.009804 60.44001
32.848713 23.441744 60.872738
34.241558 25.109969 60.381493
33.604157 26.555349 59.953002
33.241101 25.009804 60.44001
34.655519 19.065609 61.688606
34.061278 20.521633 61.487396
35.675787 19.175501 61.560204
34.655519 19.065609 61.688606
35.246578 17.604685 61.82116
37.829563 16.346218 61.417259
37.224367 17.777575 61.406624
36.872042 16.28322 61.703392
38.435285 14.914406 61.354713
38.787611 16.40876 61.057945
37.829563 16.346218 61.417259
39.075642 13.537859 61.285927
38.435285 14.914406 61.354713
39.722601 12.166978 61.153164
40.040292 13.606067 60.862637
39.075642 13.537859 61.285927
41.429789 41.490347 41.830484
40.878577 42.011109 42.665249
41.084099 40.732432 42.962232
42.008887 40.987904 41.022863
42.04857 39.667332 41.217528
42.422146 40.443565 40.112923
41.429789 41.490347 41.830484
42.008887 40.987904 41.022863
42.528951 33.174236 37.273419
42.740332 34.634592 37.32074
42.420136 33.739877 38.356685
42.528951 33.174236 37.273419
42.296365 31.701553 37.175815
34.512106 31.023596 58.036023
34.23695 29.56692 58.741539
35.442228 31.031008 57.82695
34.751571 32.425888 57.251224
34.512106 31.023596 58.036023
41.125885 26.632364 53.898106
40.701275 27.000228 54.857929
41.107216 25.453646 54.898629
41.05747 27.727457 52.839382
41.125885 26.632364 53.898106
41.063988 28.814475 51.751247
40.726461 29.265965 52.769272
41.05747 27.727457 52.839382
41.008143 29.833384 50.629787
41.063988 28.814475 51.751247
43.388222 13.467284 58.308746
42.583089 13.530362 59.045368
43.26811 12.183715 58.826465
43.390083 14.65798 57.675033
43.388222 13.467284 58.308746
42.735271 16.063078 57.880317
43.390083 14.65798 57.675033
3 72 22 73
3 74 73 20
3 72 73 74
3 76 75 22
3 0 77 78
3 0 79 80
3 0 81 83
3 81 25 82
3 81 82 83
3 2 28 26
3 2 30 28
3 1 84 86
3 84 31 85
3 84 85 86
3 4 87 89
3 89 88 32
3 87 88 89
3 4 90 91
3 4 92 93
3 3 36 34
3 94 39 95
3 96 95 37
3 94 95 96
3 98 97 39
3 99 41 100
3 6 42 19
3 6 43 42
3 7 46 44
3 9 47 21
3 9 48 47
3 9 50 48
3 103 102 23
3 101 102 103
3 10 53 51
3 12 54 24
3 12 104 106
3 106 105 54
3 104 105 106
3 13 107 108
3 13 109 111
3 109 55 110
3 109 110 111
3 5 56 40
3 14 57 27
3 14 58 57
3 14 59 58
3 15 60 29
3 15 112 114
3 114 113 60
3 112 113 114
3 115 61 116
3 117 62 118
3 119 118 61
3 117 118 119
3 120 63 121
3 123 122 63
3 8 64 45
3 125 124 33
3 127 126 49
3 16 128 130
3 128 65 129
3 128 129 130
3 17 66 35
3 17 67 66
3 11 68 52
3 18 69 38
3 18 70 69
3 18 71 70
3 131 19 132
3 133 19 134
3 135 6 136
3 137 136 19
3 135 136 137
3 20 21 7
3 22 21 20
3 22 9 21
3 22 23 9
3 138 23 139
3 140 139 22
3 138 139 140
3 142 141 23
3 143 24 144
3 145 144 10
3 143 144 145
3 146 24 147
3 148 12 149
3 150 149 24
3 148 149 150
3 25 151 152
3 25 153 155
3 153 13 154
3 153 154 155
3 26 27 5
3 28 27 26
3 28 14 27
3 28 29 14
3 30 29 28
3 30 15 29
3 31 156 157
3 31 158 159
3 32 33 8
3 160 33 161
3 162 161 32
3 160 161 162
3 164 163 33
3 34 35 16
3 36 35 34
3 36 17 35
3 37 38 11
3 39 38 37
3 39 18 38
3 39 165 167
3 167 166 18
3 165 166 167
3 169 168 39
3 170 0 171
3 172 40 173
3 174 173 0
3 172 173 174
3 41 175 177
3 175 40 176
3 175 176 177
3 41 5 40
3 19 178 180
3 178 41 179
3 178 179 180
3 42 41 19
3 42 5 41
3 42 26 5
3 43 26 42
3 43 2 26
3 44 45 1
3 46 45 44
3 46 8 45
3 21 46 7
3 47 46 21
3 47 8 46
3 47 32 8
3 48 32 47
3 48 4 32
3 48 49 4
3 50 49 48
3 50 181 183
3 183 182 49
3 181 182 183
3 23 50 9
3 184 50 185
3 186 185 23
3 184 185 186
3 188 187 50
3 51 52 3
3 53 52 51
3 53 11 52
3 24 53 10
3 54 53 24
3 54 11 53
3 54 37 11
3 189 37 190
3 191 190 54
3 189 190 191
3 193 192 37
3 55 194 195
3 55 196 198
3 196 1 197
3 196 197 198
3 40 25 0
3 56 25 40
3 56 13 25
3 27 56 5
3 57 56 27
3 57 13 56
3 57 55 13
3 58 55 57
3 58 1 55
3 58 44 1
3 59 44 58
3 59 7 44
3 29 59 14
3 60 59 29
3 60 7 59
3 60 20 7
3 199 20 200
3 201 200 60
3 199 200 201
3 203 202 20
3 204 16 205
3 61 206 207
3 61 208 210
3 208 16 209
3 208 209 210
3 61 34 16
3 62 34 61
3 62 3 34
3 211 62 212
3 63 213 215
3 213 62 214
3 213 214 215
3 63 3 62
3 63 51 3
3 216 51 217
3 218 217 63
3 216 217 218
3 219 10 220
3 221 220 51
3 219 220 221
3 222 10 223
3 226 225 10
3 224 225 226
3 45 31 1
3 64 31 45
3 64 227 229
3 229 228 31
3 227 228 229
3 33 64 8
3 230 64 231
3 232 231 33
3 230 231 232
3 234 233 64
3 49 235 237
3 237 236 4
3 235 236 237
3 239 238 49
3 65 240 241
3 65 242 244
3 242 6 243
3 242 243 244
3 35 65 16
3 66 65 35
3 66 6 65
3 66 43 6
3 67 43 66
3 67 2 43
3 52 36 3
3 68 36 52
3 68 17 36
3 38 68 11
3 69 68 38
3 69 17 68
3 69 67 17
3 70 67 69
3 70 2 67
3 70 30 2
3 71 30 70
3 71 15 30
3 245 71 246
3 247 246 18
3 245 246 247
3 248 71 249
3 250 15 251
3 252 251 71
3 250 251 252
3 254 253 15
3 255 12 256
3 255 256 257
3 258 12 259
3 261 260 12
