ply
format ascii 1.0
element vertex 127
property float x
property float y
property float z
element face 115
property list uchar int vertex_index
end_header
2.159775 -99.487511 19.652565
0.994892 -109.714188 22.150612
0.767963 -104.826469 21.184561
0.100344 -110.056145 15.915972
0.465427 -104.749847 15.134365
2.372601 -105.179817 27.452108
3.080078 -100.20063 25.692106
1.279316 -102.182587 20.463631
0.45499 -104.739136 18.107199
1.105423 -102.030746 17.481457
2.11401 -99.306725 16.790951
3.596111 -105.336388 30.523329
3.572163 -103.067986 29.758026
2.542353 -102.756027 26.656956
3.905777 -100.625229 28.773388
1.761536 -111.831192 22.30661
0.665716 -107.358223 21.763477
0.366674 -109.869789 19.022907
0.201334 -107.373253 18.633293
0.083733 -107.454002 15.569869
1.977856 -109.566505 25.240952
2.612831 -107.409439 27.999077
1.478706 -107.385483 24.905861
1.414503 -104.988823 24.319002
1.763971 -102.439789 23.539516
2.485424 -99.800407 22.634258
4.534891 -98.070297 27.660778
3.923494 -97.573311 24.636816
3.517496 -97.128143 21.667215
3.349241 -96.796242 18.797987
4.239253 -102.036159 30.79089
4.182319 -103.186264 31.272293
4.40606 -100.814781 30.298572
3.73897 -101.846608 29.265707
4.239253 -102.036159 30.79089
0.977397 -110.939335 20.696852
1.360719 -111.997837 20.774851
1.378214 -110.77269 22.228611
0.36949 -106.174331 13.873362
0.178644 -107.526409 14.091114
0.27458 -106.101924 15.352117
0.606775 -104.801628 13.715147
0.36949 -106.174331 13.873362
2.629639 -109.474239 26.737376
2.445384 -110.518547 25.262056
0.312987 -111.274224 16.03272
0.446152 -111.181045 17.586188
0.233509 -109.962967 17.46944
5.216767 -97.037483 28.568559
4.917931 -98.310269 29.174847
4.457548 -96.25103 24.098157
4.651463 -96.517361 25.569824
4.254549 -96.028446 22.613357
3.720495 -97.350727 23.152015
4.457548 -96.25103 24.098157
4.057532 -95.47575 18.367318
4.064017 -95.63514 19.744536
3.3856 -96.707238 17.43143
4.057532 -95.47575 18.367318
1.16447 -102.017745 16.05643
0.844472 -103.377296 14.882884
0.785425 -103.390297 16.307911
1.668763 -100.655735 15.711177
1.16447 -102.017745 16.05643
1.609716 -100.668735 17.136204
2.217345 -99.290047 15.434852
1.668763 -100.655735 15.711177
4.194293 -104.320465 31.654944
4.307398 -105.361019 32.000633
3.584137 -104.202187 30.140678
4.194293 -104.320465 31.654944
4.182319 -103.186264 31.272293
1.869209 -113.012958 20.788446
2.357673 -112.740516 22.258276
1.869209 -113.012958 20.788446
1.360719 -111.997837 20.774851
0.272726 -111.435142 14.496215
0.134611 -110.164498 14.396205
0.126306 -108.863426 14.223154
0.134611 -110.164498 14.396205
0.092038 -108.755074 15.742921
0.126306 -108.863426 14.223154
0.178644 -107.526409 14.091114
0.606775 -104.801628 13.715147
0.844472 -103.377296 14.882884
2.337224 -111.650891 23.794885
2.357673 -112.740516 22.258276
1.869696 -110.698848 23.773781
2.337224 -111.650891 23.794885
2.445384 -110.518547 25.262056
3.806617 -106.351548 30.753545
4.307398 -105.361019 32.000633
3.314977 -107.388073 29.491419
3.806617 -106.351548 30.753545
3.104471 -106.372914 29.261203
2.947126 -108.395706 28.116439
3.314977 -107.388073 29.491419
2.295343 -108.487972 26.620014
2.629639 -109.474239 26.737376
2.947126 -108.395706 28.116439
0.663288 -111.017135 19.133
0.977397 -110.939335 20.696852
0.680783 -109.791989 20.586759
0.663288 -111.017135 19.133
0.446152 -111.181045 17.586188
0.312987 -111.274224 16.03272
0.272726 -111.435142 14.496215
4.603375 -99.587735 29.731152
4.40606 -100.814781 30.298572
4.220334 -99.347763 28.217083
4.603375 -99.587735 29.731152
4.917931 -98.310269 29.174847
4.957161 -96.765854 27.081805
5.216767 -97.037483 28.568559
4.229192 -97.821804 26.148797
4.957161 -96.765854 27.081805
4.651463 -96.517361 25.569824
4.148144 -95.80109 21.17915
4.254549 -96.028446 22.613357
3.433369 -96.962193 20.232601
4.148144 -95.80109 21.17915
4.064017 -95.63514 19.744536
2.767984 -97.962479 16.427912
2.731625 -98.051484 17.794469
3.3856 -96.707238 17.43143
2.217345 -99.290047 15.434852
2.767984 -97.962479 16.427912
3 0 9 7
3 0 10 9
3 30 12 31
3 32 14 33
3 34 33 12
3 32 33 34
3 1 35 37
3 37 36 15
3 35 36 37
3 2 18 16
3 4 19 8
3 4 38 40
3 40 39 19
3 38 39 40
3 4 41 42
3 43 20 44
3 5 21 11
3 5 22 21
3 5 23 22
3 6 24 13
3 6 25 24
3 3 45 47
3 47 46 17
3 45 46 47
3 48 26 49
3 50 27 51
3 52 28 53
3 54 53 27
3 52 53 54
3 55 29 56
3 58 57 29
3 7 8 2
3 9 8 7
3 9 4 8
3 9 59 61
3 61 60 4
3 59 60 61
3 10 62 64
3 64 63 9
3 62 63 64
3 10 65 66
3 67 11 68
3 12 69 71
3 69 11 70
3 69 70 71
3 12 5 11
3 12 13 5
3 14 13 12
3 14 6 13
3 15 72 73
3 75 74 15
3 77 76 3
3 16 17 1
3 18 17 16
3 18 3 17
3 8 18 2
3 19 18 8
3 19 3 18
3 19 78 80
3 80 79 3
3 78 79 80
3 82 81 19
3 84 83 4
3 85 15 86
3 20 87 89
3 87 15 88
3 87 88 89
3 20 1 15
3 11 90 91
3 21 92 94
3 94 93 11
3 92 93 94
3 21 95 96
3 21 97 99
3 97 20 98
3 97 98 99
3 22 20 21
3 22 1 20
3 22 16 1
3 23 16 22
3 23 2 16
3 13 23 5
3 24 23 13
3 24 2 23
3 24 7 2
3 25 7 24
3 25 0 7
3 17 100 102
3 102 101 1
3 100 101 102
3 104 103 17
3 106 105 3
3 107 14 108
3 26 109 111
3 109 14 110
3 109 110 111
3 26 6 14
3 112 26 113
3 27 114 116
3 114 26 115
3 114 115 116
3 27 6 26
3 27 25 6
3 28 25 27
3 28 0 25
3 117 28 118
3 29 119 121
3 119 28 120
3 119 120 121
3 29 0 28
3 29 10 0
3 122 10 123
3 124 123 29
3 122 123 124
3 126 125 10
