ply
format ascii 1.0
element vertex 100
property float x
property float y
property float z
element face 82
property list uchar int vertex_index
end_header
7.34086 -90.860718 27.094389
4.991602 -94.928749 23.559498
7.399645 -89.768486 21.516331
4.765823 -94.155258 17.936649
7.395464 -91.44001 29.926849
6.936024 -93.973526 31.166027
6.61009 -93.424889 28.261686
5.379431 -95.461411 26.502832
6.345728 -92.850952 25.362753
7.570206 -89.376381 18.839775
6.168472 -91.880081 19.74235
6.306145 -91.599365 17.092562
4.947517 -94.005539 15.324634
7.792007 -88.939346 28.748539
7.997351 -88.352051 25.99651
7.331318 -90.28318 24.279009
6.186977 -92.314491 22.509996
4.778793 -94.474037 20.691086
7.710064 -89.262673 17.558428
8.21536 -88.177608 18.412917
7.078034 -90.374165 16.684822
6.938175 -90.487873 17.966169
7.710064 -89.262673 17.558428
6.446407 -91.546943 15.838
7.078034 -90.374165 16.684822
7.704254 -88.010036 29.524943
7.692236 -89.220951 30.120154
6.715705 -95.234024 31.800377
6.417333 -94.989098 30.321184
4.457548 -96.25103 24.098157
4.651463 -96.517361 25.569824
5.185517 -95.19508 25.031165
4.254549 -96.028446 22.613357
4.457548 -96.25103 24.098157
8.245246 -87.139175 25.481653
8.025479 -87.428169 26.816723
7.815322 -88.780079 22.390868
7.956822 -88.542492 21.051001
7.365481 -90.025833 22.89767
7.781159 -89.037426 23.772208
7.815322 -88.780079 22.390868
4.057532 -95.47575 18.367318
4.064017 -95.63514 19.744536
4.772308 -94.314648 19.313868
4.093891 -95.386746 17.000761
4.057532 -95.47575 18.367318
4.323528 -95.303249 14.406838
5.11373 -94.012604 14.097316
7.165744 -92.706768 30.546438
7.19778 -92.971722 31.953886
7.4275 -91.704963 31.334297
6.254366 -94.714779 28.869014
6.417333 -94.989098 30.321184
6.773057 -93.699207 29.713856
5.99476 -94.44315 27.382259
5.639036 -95.73304 27.989587
6.254366 -94.714779 28.869014
8.042102 -88.34644 19.712723
8.21536 -88.177608 18.412917
7.484925 -89.572433 20.178053
7.956822 -88.542492 21.051001
8.042102 -88.34644 19.712723
5.767093 -92.750031 14.954037
5.626831 -92.802452 16.208598
6.446407 -91.546943 15.838
5.11373 -94.012604 14.097316
5.767093 -92.750031 14.954037
7.493965 -90.471283 30.709309
7.4275 -91.704963 31.334297
7.593735 -90.189678 29.337694
7.493965 -90.471283 30.709309
7.692236 -89.220951 30.120154
7.105728 -94.20943 32.601511
7.19778 -92.971722 31.953886
7.105728 -94.20943 32.601511
6.715705 -95.234024 31.800377
4.957161 -96.765854 27.081805
5.639036 -95.73304 27.989587
4.957161 -96.765854 27.081805
4.651463 -96.517361 25.569824
7.922808 -87.721817 28.192737
7.704254 -88.010036 29.524943
7.894679 -88.645699 27.372525
7.922808 -87.721817 28.192737
8.025479 -87.428169 26.816723
8.114175 -88.071862 24.630958
8.245246 -87.139175 25.481653
7.664334 -89.317616 25.13776
8.114175 -88.071862 24.630958
7.781159 -89.037426 23.772208
4.148144 -95.80109 21.17915
4.254549 -96.028446 22.613357
4.885198 -94.701393 22.125292
4.148144 -95.80109 21.17915
4.064017 -95.63514 19.744536
4.184738 -95.311886 15.694753
4.093891 -95.386746 17.000761
4.85667 -94.080399 16.630641
4.184738 -95.311886 15.694753
4.323528 -95.303249 14.406838
3 0 6 4
3 0 8 6
3 18 9 19
3 20 11 21
3 22 21 9
3 20 21 22
3 24 23 11
3 25 13 26
3 28 27 5
3 1 29 31
3 31 30 7
3 29 30 31
3 1 32 33
3 34 14 35
3 2 36 37
3 2 38 40
3 38 15 39
3 38 39 40
3 2 16 15
3 3 17 10
3 3 41 43
3 43 42 17
3 41 42 43
3 3 44 45
3 47 46 12
3 4 48 50
3 48 5 49
3 48 49 50
3 6 5 4
3 6 51 53
3 53 52 5
3 51 52 53
3 6 54 56
3 54 7 55
3 54 55 56
3 8 7 6
3 8 1 7
3 9 57 58
3 9 59 61
3 59 2 60
3 59 60 61
3 9 10 2
3 11 10 9
3 11 3 10
3 11 12 3
3 62 12 63
3 64 63 11
3 62 63 64
3 66 65 12
3 67 4 68
3 13 69 71
3 69 4 70
3 69 70 71
3 13 0 4
3 5 72 73
3 75 74 5
3 7 76 77
3 79 78 7
3 80 13 81
3 14 82 84
3 82 13 83
3 82 83 84
3 14 0 13
3 85 14 86
3 15 87 89
3 87 14 88
3 87 88 89
3 15 0 14
3 15 8 0
3 16 8 15
3 16 1 8
3 10 16 2
3 17 16 10
3 17 1 16
3 17 90 92
3 92 91 1
3 90 91 92
3 94 93 17
3 12 95 97
3 97 96 3
3 95 96 97
3 99 98 12
