ply
format ascii 1.0
element vertex 107
property float x
property float y
property float z
element face 88
property list uchar int vertex_index
end_header
-65.449791 -16.288424 -13.854515
-65.158791 -20.961359 -13.381517
-66.83609 -19.627863 -10.07749
-63.859512 -18.704556 -17.398903
-67.443512 -23.612722 -8.511353
-66.836182 -21.763218 -10.080647
-67.383743 -21.527878 -8.456919
-65.368828 -18.635441 -13.649317
-64.435677 -19.786037 -15.301596
-64.652466 -17.300026 -15.712763
-65.365707 -13.988445 -14.006876
-64.756157 -14.809889 -16.040709
-64.879158 -23.154484 -13.064585
-65.91098 -22.313971 -11.657475
-66.126045 -20.108778 -11.776525
-66.170334 -17.885715 -11.866533
-66.606796 -17.561737 -10.04479
-66.022713 -15.713946 -11.916056
-65.672501 -13.646954 -11.943205
-67.581085 -22.552513 -7.704327
-67.413627 -22.5703 -8.484136
-67.610969 -23.594935 -7.731544
-67.610969 -23.594935 -7.731544
-67.68438 -24.62178 -7.75842
-65.037743 -13.178497 -15.157069
-65.232067 -12.887528 -14.070621
-66.259262 -23.117553 -10.869636
-65.728741 -23.364243 -11.612798
-66.379089 -16.586583 -10.016503
-66.542065 -17.623578 -9.153307
-66.087047 -15.662688 -10.952136
-66.314754 -16.637842 -10.980423
-66.379089 -16.586583 -10.016503
-65.911941 -14.629191 -10.965711
-65.847607 -14.68045 -11.929631
-66.087047 -15.662688 -10.952136
-64.663937 -21.579212 -14.08682
-64.524121 -22.675774 -13.928354
-65.018974 -22.057921 -13.223051
-63.722831 -20.009825 -17.071537
-64.010914 -20.550565 -16.022883
-64.147594 -19.245297 -16.35025
-63.562427 -19.578521 -18.119601
-63.722831 -20.009825 -17.071537
-64.413837 -15.433909 -16.991743
-64.462941 -14.115645 -17.218633
-67.139847 -22.68797 -9.296
-66.721863 -22.842177 -10.081222
-67.025528 -23.766928 -9.296575
-67.334171 -24.692532 -8.539186
-67.68438 -24.62178 -7.75842
-67.025528 -23.766928 -9.296575
-67.334171 -24.692532 -8.539186
-64.732968 -13.589219 -16.173985
-65.060932 -14.399167 -15.023792
-65.037743 -13.178497 -15.157069
-64.462941 -14.115645 -17.218633
-64.732968 -13.589219 -16.173985
-65.212829 -23.7845 -12.316353
-64.754086 -24.046689 -12.911043
-65.395069 -22.734227 -12.36103
-65.212829 -23.7845 -12.316353
-65.728741 -23.364243 -11.612798
-66.373581 -22.038594 -10.869061
-66.259262 -23.117553 -10.869636
-66.721863 -22.842177 -10.081222
-67.357475 -21.588183 -7.660275
-67.581085 -22.552513 -7.704327
-67.219795 -20.534408 -8.41601
-67.357475 -21.588183 -7.660275
-66.945968 -19.5844 -9.226295
-67.109916 -20.577871 -9.267204
-67.219795 -20.534408 -8.41601
-66.831322 -18.551337 -9.209945
-66.542065 -17.623578 -9.153307
-66.721443 -18.5948 -10.06114
-66.945968 -19.5844 -9.226295
-66.831322 -18.551337 -9.209945
-65.385464 -12.716782 -13.038785
-65.232067 -12.887528 -14.070621
-65.519104 -13.817699 -12.975041
-65.575173 -13.732691 -10.942088
-65.911941 -14.629191 -10.965711
-65.395485 -12.688247 -11.965186
-65.575173 -13.732691 -10.942088
-65.298157 -12.773984 -10.964069
-65.385464 -12.716782 -13.038785
-65.395485 -12.688247 -11.965186
-64.416406 -23.79645 -13.61072
-64.754086 -24.046689 -12.911043
-64.416406 -23.79645 -13.61072
-64.524121 -22.675774 -13.928354
-64.30238 -20.991551 -15.04686
-64.663937 -21.579212 -14.08682
-64.797234 -20.373698 -14.341556
-64.30238 -20.991551 -15.04686
-64.010914 -20.550565 -16.022883
-64.361992 -16.678977 -16.827769
-64.704312 -16.054958 -15.876736
-64.413837 -15.433909 -16.991743
-63.965515 -17.381242 -17.670839
-64.255989 -18.002291 -16.555833
-64.361992 -16.678977 -16.827769
-63.691728 -18.187511 -18.509674
-63.965515 -17.381242 -17.670839
-63.562427 -19.578521 -18.119601
-63.691728 -18.187511 -18.509674
3 19 6 20
3 21 20 4
3 19 20 21
3 22 4 23
3 0 9 7
3 25 24 10
3 26 13 27
3 2 14 5
3 2 15 14
3 28 16 29
3 30 17 31
3 32 31 16
3 30 31 32
3 33 18 34
3 35 34 17
3 33 34 35
3 1 36 38
3 38 37 12
3 36 37 38
3 3 39 41
3 41 40 8
3 39 40 41
3 3 42 43
3 45 44 11
3 4 46 48
3 46 5 47
3 46 47 48
3 6 5 4
3 6 2 5
3 4 49 50
3 4 51 52
3 7 8 1
3 9 8 7
3 9 3 8
3 10 11 0
3 53 11 54
3 55 54 10
3 53 54 55
3 57 56 11
3 58 12 59
3 13 60 62
3 60 12 61
3 60 61 62
3 13 1 12
3 5 63 65
3 63 13 64
3 63 64 65
3 14 13 5
3 14 1 13
3 14 7 1
3 15 7 14
3 15 0 7
3 66 6 67
3 68 6 69
3 70 2 71
3 72 71 6
3 70 71 72
3 16 73 74
3 16 75 77
3 75 2 76
3 75 76 77
3 16 15 2
3 17 15 16
3 17 0 15
3 17 10 0
3 18 10 17
3 18 78 80
3 80 79 10
3 78 79 80
3 81 18 82
3 83 18 84
3 83 84 85
3 87 86 18
3 12 88 89
3 91 90 12
3 8 92 94
3 94 93 1
3 92 93 94
3 96 95 8
3 11 9 0
3 97 9 98
3 99 98 11
3 97 98 99
3 100 3 101
3 102 101 9
3 100 101 102
3 103 3 104
3 106 105 3
