ply
format ascii 1.0
element vertex 204
property float x
property float y
property float z
element face 198
property list uchar int vertex_index
end_header
-53.247913 -33.944904 48.152992
-56.059772 -42.279228 47.926651
-60.787399 -34.092163 44.073086
-54.012787 -46.708389 49.280499
-51.697372 -42.290276 48.138386
-56.470978 -30.010551 47.806686
-56.966141 -33.870522 46.02533
-59.725143 -29.925747 44.833031
-61.761833 -47.250565 48.163292
-58.139378 -46.802513 49.275806
-60.249344 -42.565536 47.265923
-54.178123 -37.947601 47.154438
-58.406837 -38.092331 46.09922
-62.340458 -38.522163 44.696144
-58.076435 -29.933014 46.281471
-62.76321 -45.203026 47.001526
-54.982895 -44.464352 48.679028
-56.110321 -46.714394 49.384682
-57.125763 -44.524025 48.620247
-59.181335 -44.661503 48.359013
-58.208946 -42.384605 47.689957
-51.64809 -36.000332 48.269939
-52.112251 -37.990875 47.714508
-53.561176 -35.895199 47.388382
-58.890244 -33.946548 45.052513
-57.589386 -35.945389 45.85379
-59.608742 -36.076355 45.096046
-60.448288 -38.268745 45.472672
-61.54287 -36.278603 44.263115
-52.812935 -44.480682 48.615364
-53.870056 -42.245934 48.049618
-54.875404 -31.95418 48.006824
-55.071835 -33.865871 47.044914
-56.593456 -31.885143 46.681496
-58.369347 -31.891815 45.440018
-60.162704 -31.968758 44.244621
-60.731342 -49.322598 49.116772
-53.239601 -32.114525 49.437603
-54.932655 -30.165874 49.427994
-56.531212 -28.26833 49.301464
-58.042801 -51.222229 50.354694
-55.192673 -48.944126 49.959961
-57.155983 -48.974693 49.991768
-59.018372 -49.099373 49.728043
-60.042957 -46.978683 48.88343
-61.082977 -44.884567 47.831924
-62.10688 -42.831711 46.597744
-52.878937 -40.080482 47.676079
-55.041862 -40.081879 47.37949
-55.554893 -35.882671 46.598442
-56.294167 -37.985138 46.637238
-57.212498 -40.156441 47.054543
-59.32724 -40.300579 46.627686
-61.311832 -40.520065 46.031548
-63.08709 -40.825638 45.215343
-64.001373 -38.862968 43.724625
-63.461725 -45.413055 46.431196
-63.235708 -44.198279 46.327665
-61.687276 -34.202877 43.551911
-62.065012 -35.296097 43.646925
-61.165135 -35.185383 44.168101
-52.255154 -43.385479 48.376875
-51.73946 -44.529609 48.564966
-51.181679 -43.434406 48.326477
-60.551434 -29.958519 44.130169
-60.770214 -30.980024 43.835964
-59.943923 -30.947253 44.538826
-62.004585 -48.448595 48.151291
-61.489339 -49.484612 48.628031
-61.246588 -48.286581 48.640032
-53.355618 -31.265442 50.292727
-52.468125 -32.251718 50.207857
-54.202145 -30.291117 50.287922
-54.086128 -31.1402 49.432799
-53.355618 -31.265442 50.292727
-56.588821 -27.473555 50.150701
-55.838039 -28.392284 50.2377
-55.895649 -27.59751 51.086937
-57.252895 -27.337834 49.154697
-56.588821 -27.473555 50.150701
-57.152593 -51.189324 50.425093
-57.596393 -52.267224 50.559752
-54.60273 -47.826257 49.62023
-54.183228 -48.972992 49.83515
-53.593285 -47.855123 49.495419
-50.641953 -42.358084 48.203279
-51.181679 -43.434406 48.326477
-58.027189 -29.01447 46.898716
-57.273707 -29.971782 47.044078
-57.224461 -29.053238 47.661323
-58.775684 -28.961582 46.048334
-58.027189 -29.01447 46.898716
-59.600038 -28.957949 45.324114
-58.900789 -29.929381 45.557251
-58.775684 -28.961582 46.048334
-60.362022 -28.939545 44.50726
-59.600038 -28.957949 45.324114
-63.001697 -46.413374 47.0524
-62.501009 -47.437144 47.633283
-62.262522 -46.226796 47.582409
-63.001697 -46.413374 47.0524
-63.461725 -45.413055 46.431196
-51.880171 -36.995604 47.992224
-51.123497 -38.062954 48.041857
-50.891417 -37.067683 48.319572
-62.427477 -36.419831 43.78132
-62.826271 -37.541611 43.997835
-61.941664 -37.400383 44.47963
-62.427477 -36.419831 43.78132
-62.065012 -35.296097 43.646925
-52.955044 -46.745463 49.164982
-53.593285 -47.855123 49.495419
-52.355118 -45.631609 48.832414
-51.73946 -44.529609 48.564966
-53.412861 -45.594535 48.947931
-52.955044 -46.745463 49.164982
-52.355118 -45.631609 48.832414
-61.040047 -32.044266 43.645825
-61.352394 -33.105969 43.560057
-60.475051 -33.030461 44.158854
-61.040047 -32.044266 43.645825
-60.770214 -30.980024 43.835964
-60.551434 -29.958519 44.130169
-60.362022 -28.939545 44.50726
-60.97071 -50.497513 49.039564
-60.217793 -50.359215 49.484662
-60.97071 -50.497513 49.039564
-61.489339 -49.484612 48.628031
-62.004585 -48.448595 48.151291
-62.501009 -47.437144 47.633283
-50.744234 -36.11116 48.771505
-50.891417 -37.067683 48.319572
-51.583593 -35.064583 48.822279
-50.744234 -36.11116 48.771505
-52.383505 -34.036869 48.763806
-52.448002 -34.972618 48.211466
-51.583593 -35.064583 48.822279
-52.379348 -33.121679 49.406111
-52.468125 -32.251718 50.207857
-53.243757 -33.029714 48.795298
-52.383505 -34.036869 48.763806
-52.379348 -33.121679 49.406111
-55.038761 -29.341057 50.300964
-54.202145 -30.291117 50.287922
-55.731933 -29.217102 49.364729
-55.038761 -29.341057 50.300964
-55.838039 -28.392284 50.2377
-57.254577 -28.182128 48.408713
-57.224461 -29.053238 47.661323
-56.501095 -29.13944 48.554075
-57.254577 -28.182128 48.408713
-57.252895 -27.337834 49.154697
-58.379219 -52.328636 50.364446
-57.596393 -52.267224 50.559752
-58.873522 -51.30903 50.103623
-58.379219 -52.328636 50.364446
-54.79522 -50.070406 50.147892
-54.183228 -48.972992 49.83515
-55.72753 -50.050272 50.227726
-54.79522 -50.070406 50.147892
-56.709184 -50.065556 50.243629
-55.72753 -50.050272 50.227726
-56.174328 -48.959409 49.975865
-57.599392 -50.098461 50.173231
-57.152593 -51.189324 50.425093
-56.709184 -50.065556 50.243629
-59.361307 -50.247602 49.790297
-58.873522 -51.30903 50.103623
-58.530586 -50.160801 50.041369
-59.874857 -49.210985 49.422407
-60.217793 -50.359215 49.484662
-59.361307 -50.247602 49.790297
-62.907543 -43.012621 46.125774
-63.235708 -44.198279 46.327665
-62.435045 -44.017369 46.799635
-51.235437 -41.228035 48.076044
-50.641953 -42.358084 48.203279
-51.442876 -39.078334 47.864105
-51.123497 -38.062954 48.041857
-51.82622 -40.123138 47.844891
-51.442876 -39.078334 47.864105
-52.495594 -39.035679 47.695294
-52.288155 -41.185379 47.907232
-51.235437 -41.228035 48.076044
-51.82622 -40.123138 47.844891
-63.397648 -42.009585 45.434574
-62.907543 -43.012621 46.125774
-62.596985 -41.828674 45.906543
-63.831593 -41.026066 44.683979
-63.397648 -42.009585 45.434574
-64.288735 -40.044731 43.93862
-63.831593 -41.026066 44.683979
-63.544232 -39.844303 44.469984
-64.677009 -39.080235 43.130646
-64.288735 -40.044731 43.93862
-63.656728 -37.712013 43.512076
-63.170915 -38.692566 44.210385
-62.826271 -37.541611 43.997835
-64.417564 -37.897605 42.945446
-63.656728 -37.712013 43.512076
-64.677009 -39.080235 43.130646
-64.417564 -37.897605 42.945446
-61.687276 -34.202877 43.551911
-61.352394 -33.105969 43.560057
3 57 56 15
3 1 18 16
3 1 20 18
3 0 23 21
3 2 26 24
3 2 28 26
3 2 58 60
3 60 59 28
3 58 59 60
3 4 61 63
3 61 29 62
3 61 62 63
3 4 30 29
3 5 33 31
3 7 34 14
3 7 35 34
3 7 64 66
3 66 65 35
3 64 65 66
3 8 67 69
3 69 68 36
3 67 68 69
3 70 37 71
3 72 38 73
3 74 73 37
3 72 73 74
3 75 39 76
3 75 76 77
3 79 78 39
3 80 40 81
3 3 82 84
3 82 41 83
3 82 83 84
3 9 42 17
3 9 43 42
3 9 44 43
3 10 45 19
3 10 46 45
3 11 47 22
3 11 48 47
3 6 49 32
3 12 50 25
3 12 51 50
3 12 52 51
3 13 53 27
3 13 54 53
3 13 55 54
3 85 4 86
3 87 14 88
3 89 88 5
3 87 88 89
3 90 14 91
3 92 7 93
3 94 93 14
3 92 93 94
3 96 95 7
3 15 97 99
3 99 98 8
3 97 98 99
3 101 100 15
3 16 17 3
3 18 17 16
3 18 9 17
3 18 19 9
3 20 19 18
3 20 10 19
3 21 102 104
3 102 22 103
3 102 103 104
3 23 22 21
3 23 11 22
3 24 25 6
3 26 25 24
3 26 12 25
3 26 27 12
3 28 27 26
3 28 13 27
3 28 105 107
3 107 106 13
3 105 106 107
3 109 108 28
3 110 3 111
3 29 112 113
3 29 114 116
3 114 3 115
3 114 115 116
3 29 16 3
3 30 16 29
3 30 1 16
3 31 32 0
3 33 32 31
3 33 6 32
3 14 33 5
3 34 33 14
3 34 6 33
3 34 24 6
3 35 24 34
3 35 2 24
3 35 117 119
3 119 118 2
3 117 118 119
3 121 120 35
3 123 122 7
3 36 124 125
3 127 126 36
3 129 128 8
3 130 21 131
3 132 21 133
3 134 0 135
3 136 135 21
3 134 135 136
3 37 137 138
3 37 139 141
3 139 0 140
3 139 140 141
3 37 31 0
3 38 31 37
3 38 5 31
3 142 38 143
3 39 144 146
3 144 38 145
3 144 145 146
3 39 5 38
3 39 147 149
3 149 148 5
3 147 148 149
3 151 150 39
3 40 152 153
3 40 154 155
3 41 156 157
3 41 158 159
3 17 41 3
3 42 41 17
3 42 160 162
3 162 161 41
3 160 161 162
3 42 163 165
3 163 40 164
3 163 164 165
3 43 40 42
3 43 166 168
3 168 167 40
3 166 167 168
3 43 169 171
3 169 36 170
3 169 170 171
3 44 36 43
3 44 8 36
3 19 44 9
3 45 44 19
3 45 8 44
3 45 15 8
3 46 15 45
3 46 172 174
3 174 173 15
3 172 173 174
3 175 4 176
3 22 177 178
3 47 179 181
3 181 180 22
3 179 180 181
3 47 182 184
3 182 4 183
3 182 183 184
3 47 30 4
3 48 30 47
3 48 1 30
3 32 23 0
3 49 23 32
3 49 11 23
3 25 49 6
3 50 49 25
3 50 11 49
3 50 48 11
3 51 48 50
3 51 1 48
3 51 20 1
3 52 20 51
3 52 10 20
3 27 52 12
3 53 52 27
3 53 10 52
3 53 46 10
3 54 46 53
3 54 185 187
3 187 186 46
3 185 186 187
3 54 188 189
3 55 190 192
3 192 191 54
3 190 191 192
3 55 193 194
3 195 55 196
3 197 196 13
3 195 196 197
3 198 55 199
3 201 200 55
3 203 202 2
