ply
format ascii 1.0
element vertex 256
property float x
property float y
property float z
element face 264
property list uchar int vertex_index
end_header
40.589478 -6.579755 -4.454247
45.850586 -6.430392 -13.278677
44.972565 -13.850804 -5.837412
40.294441 -2.235928 -5.890385
42.469429 -2.732096 -10.996986
42.613075 -7.433816 -8.522423
48.81871 1.62187 -21.140982
51.709564 6.614716 -25.945211
48.617195 -15.240624 -5.6171
49.653946 -11.649286 -9.99984
41.981277 2.739061 -13.180706
45.471447 -1.63825 -16.186369
49.702347 -2.976322 -17.80208
39.918991 -7.438541 -0.967287
42.24913 -10.650789 -5.337324
41.422836 -12.61747 -1.262924
43.767197 -16.331703 -1.394981
45.705967 -10.585133 -9.857903
50.014893 -7.500249 -14.09271
40.458908 -4.73409 -5.098663
41.38102 -5.095816 -7.369076
41.407192 -7.149447 -6.269772
51.052647 1.790031 -21.785975
50.375923 3.967873 -23.543276
51.369476 -13.502932 -7.517155
40.822994 3.043713 -10.391378
44.055328 -4.92879 -12.312204
43.888023 -2.442308 -13.610357
45.718655 -4.087561 -14.786394
47.508041 -2.658897 -17.190008
47.747334 -5.002324 -15.584345
40.576767 -10.164588 -1.098511
40.180603 -10.737924 1.037992
41.893295 -15.569008 0.876721
43.07534 -17.348095 0.882526
43.488586 -12.461996 -5.67309
43.835892 -11.011548 -7.606091
45.410511 -12.329144 -7.918276
52.166183 -9.452844 -11.889381
49.922184 -9.637642 -12.09156
52.289337 -7.272428 -14.008064
52.228622 -5.021706 -16.062201
40.08828 0.595949 -6.744665
41.07365 0.139156 -9.403404
41.262978 -2.610895 -8.400562
42.592445 -5.22704 -9.812035
44.113747 -7.22855 -10.902822
46.677528 2.107124 -20.115427
46.689804 -14.768611 -5.811869
47.213455 -13.156054 -7.985981
49.214024 -13.518174 -7.833792
51.857162 -11.535187 -9.719418
43.284229 2.822908 -15.969393
42.261799 -0.050018 -12.112957
43.627388 0.16111 -14.82313
45.123219 0.866159 -17.496542
47.147057 -0.276274 -18.696756
49.324409 -0.668163 -19.515249
51.596176 -0.454086 -19.95273
39.841488 -4.511615 -3.026295
40.271172 -7.024467 -2.909723
39.427025 -4.537348 -0.990417
39.568886 -1.810074 -3.514181
41.26392 -8.562925 -4.889688
40.954979 -9.467862 -3.116899
41.873997 -11.737461 -3.381014
43.025196 -13.672136 -3.578571
40.939049 -13.351053 0.938419
42.479622 -14.694677 -1.376806
44.413754 -15.175083 -3.648832
46.03952 -16.215124 -3.574673
42.503723 -9.248674 -7.054981
44.045139 -9.270623 -9.346254
45.850925 -8.61164 -11.642277
47.586956 -11.364799 -10.065775
47.798798 -9.39447 -12.029196
47.849129 -7.262215 -13.867558
49.937584 -5.267019 -15.996096
51.993095 -2.736271 -18.044611
51.814602 3.175689 -22.917089
52.179045 2.096159 -21.935251
40.33034 3.330754 -9.015349
40.184275 4.890441 -9.480431
39.736084 -9.437861 2.137932
39.880938 -9.272032 1.078391
42.731676 -17.798149 2.014754
42.194673 -16.83605 2.008095
43.447738 -18.467806 2.051912
43.791403 -18.017752 0.919685
42.731676 -17.798149 2.014754
53.44513 -7.01013 -13.85334
52.22776 -8.362636 -12.948722
53.383552 -8.100338 -12.793999
53.41712 -5.861642 -14.934884
53.44513 -7.01013 -13.85334
48.507835 2.743595 -21.911983
47.437244 2.986222 -21.399206
47.748119 1.864497 -20.628205
50.642752 6.336517 -25.583166
49.975931 5.013096 -24.382199
51.042744 5.291294 -24.744243
51.210993 7.580189 -26.855093
50.642752 6.336517 -25.583166
52.219314 7.99447 -27.170172
51.210993 7.580189 -26.855093
52.997067 -11.34931 -9.512898
51.613319 -12.51906 -8.618286
52.753224 -12.333182 -8.411767
53.160904 -10.264468 -10.613779
52.997067 -11.34931 -9.512898
41.807693 4.155845 -13.698087
41.075862 5.798127 -12.795089
41.249446 4.381342 -12.277709
42.632753 2.780984 -14.57505
42.459169 4.197769 -15.09243
41.807693 4.155845 -13.698087
39.242457 -3.015588 -1.123374
39.634256 -4.524482 -2.008356
39.449688 -3.002721 -2.141313
39.313387 -1.651951 -2.385255
39.156239 -0.052099 -2.631856
39.449688 -3.002721 -2.141313
39.705187 -3.160845 -3.270238
39.313387 -1.651951 -2.385255
40.703729 -13.662133 2.048726
40.374398 -12.28787 2.072396
40.139078 -12.598951 3.182704
53.147893 -2.436147 -18.015026
52.110858 -3.878989 -17.053406
53.265657 -3.578864 -17.023821
52.939127 -1.288126 -19.05315
53.147893 -2.436147 -18.015026
51.47624 4.26461 -23.79574
50.714285 2.878952 -22.664625
51.814602 3.175689 -22.917089
52.143061 5.588031 -24.996707
51.042744 5.291294 -24.744243
51.47624 4.26461 -23.79574
52.752979 7.032538 -26.151772
52.143061 5.588031 -24.996707
51.045038 -14.42712 -6.410959
49.993336 -14.371778 -6.567127
49.668897 -15.295966 -5.460932
52.498455 -13.372643 -7.314678
51.045038 -14.42712 -6.410959
52.753224 -12.333182 -8.411767
52.498455 -13.372643 -7.314678
40.670305 4.533669 -10.883045
40.184275 4.890441 -9.480431
41.402135 2.891387 -11.786042
41.249446 4.381342 -12.277709
40.670305 4.533669 -10.883045
40.07902 -8.985364 0.010139
40.247879 -8.801564 -1.032899
39.750131 -7.62234 0.075751
40.378685 -10.451256 -0.030259
40.07902 -8.985364 0.010139
39.880938 -9.272032 1.078391
41.603651 -15.946506 2.005193
41.180853 -14.771111 2.017877
42.484318 -16.458551 0.879624
41.603651 -15.946506 2.005193
42.194673 -16.83605 2.008095
44.186344 -17.431273 -0.212752
44.532273 -16.923077 -1.351505
43.421268 -16.839899 -0.256227
44.186344 -17.431273 -0.212752
43.791403 -18.017752 0.919685
53.386763 -4.736281 -15.961953
52.25898 -6.147067 -15.035132
53.41712 -5.861642 -14.934884
53.265657 -3.578864 -17.023821
53.386763 -4.736281 -15.961953
40.580965 0.367552 -8.074034
40.455668 1.878475 -8.521362
39.962982 2.106872 -7.191992
46.392437 3.283792 -20.784596
45.680435 2.744982 -19.423187
46.392437 3.283792 -20.784596
47.437244 2.986222 -21.399206
49.286441 3.916596 -23.11313
48.507835 2.743595 -21.911983
49.597317 2.794872 -22.342129
49.286441 3.916596 -23.11313
49.975931 5.013096 -24.382199
53.262729 8.412292 -27.376732
52.219314 7.99447 -27.170172
52.752979 7.032538 -26.151772
53.315414 -9.223296 -11.698761
52.011673 -10.494015 -10.804399
53.160904 -10.264468 -10.613779
53.383552 -8.100338 -12.793999
53.315414 -9.223296 -11.698761
43.073654 4.159216 -16.516441
42.459169 4.197769 -15.09243
43.983786 3.102874 -17.35017
43.073654 4.159216 -16.516441
40.948322 1.591434 -9.897391
40.33034 3.330754 -9.015349
40.455668 1.878475 -8.521362
44.903281 2.1245 -18.113745
43.983786 3.102874 -17.35017
44.203724 1.844534 -16.732968
45.900374 1.486642 -18.805985
45.680435 2.744982 -19.423187
44.903281 2.1245 -18.113745
52.450809 0.974101 -21.018629
52.179045 2.096159 -21.935251
51.324411 0.667972 -20.869352
39.068901 -2.927913 -0.030939
39.242457 -3.015588 -1.123374
39.265534 -4.590255 0.057542
39.068901 -2.927913 -0.030939
38.907409 -2.980819 1.01702
39.511516 -6.040851 0.069107
39.673008 -5.987944 -0.978852
39.265534 -4.590255 0.057542
39.750131 -7.62234 0.075751
39.511516 -6.040851 0.069107
39.563751 2.461654 -5.855772
39.962982 2.106872 -7.191992
39.438454 3.972576 -6.3031
39.701046 0.880844 -5.464592
39.563751 2.461654 -5.855772
39.804126 -0.535094 -5.037452
40.191361 -0.819989 -6.317525
39.701046 0.880844 -5.464592
39.441349 -0.322167 -3.84935
39.156239 -0.052099 -2.631856
39.931663 -2.023001 -4.702283
39.804126 -0.535094 -5.037452
39.441349 -0.322167 -3.84935
39.995174 -10.981305 2.122183
39.736084 -9.437861 2.137932
40.559826 -12.044488 0.988206
39.995174 -10.981305 2.122183
40.374398 -12.28787 2.072396
41.416172 -14.460031 0.90757
40.703729 -13.662133 2.048726
41.180853 -14.771111 2.017877
45.668434 -16.864788 -2.441351
44.903359 -16.273414 -2.484827
44.532273 -16.923077 -1.351505
46.964516 -16.519391 -3.475731
45.668434 -16.864788 -2.441351
48.253353 -16.032141 -4.496944
47.328358 -15.727874 -4.595886
46.964516 -16.519391 -3.475731
49.305055 -16.087483 -4.340776
49.668897 -15.295966 -5.460932
48.253353 -16.032141 -4.496944
52.740668 -0.147033 -20.00721
51.794635 -1.595178 -18.99867
52.939127 -1.288126 -19.05315
52.450809 0.974101 -21.018629
52.740668 -0.147033 -20.00721
3 0 21 19
3 80 79 22
3 81 25 82
3 1 28 26
3 1 30 28
3 83 32 84
3 85 34 86
3 89 88 34
3 87 88 89
3 2 37 35
3 90 40 91
3 92 91 38
3 90 91 92
3 94 93 40
3 3 44 42
3 5 45 20
3 5 46 45
3 6 95 97
3 97 96 47
3 95 96 97
3 7 98 100
3 100 99 23
3 98 99 100
3 7 101 102
3 7 103 104
3 8 50 48
3 105 51 106
3 107 106 24
3 105 106 107
3 109 108 51
3 10 110 112
3 110 111 112
3 10 113 115
3 113 52 114
3 113 114 115
3 4 53 43
3 11 54 27
3 11 55 54
3 11 56 55
3 12 57 29
3 12 58 57
3 116 61 117
3 118 117 59
3 116 117 118
3 119 62 120
3 121 59 122
3 123 122 62
3 121 122 123
3 13 64 60
3 15 65 31
3 15 66 65
3 124 67 125
3 124 125 126
3 16 68 33
3 16 69 68
3 16 70 69
3 14 71 63
3 17 72 36
3 17 73 72
3 9 74 49
3 18 75 39
3 18 76 75
3 18 77 76
3 127 78 128
3 129 128 41
3 127 128 129
3 131 130 78
3 19 20 3
3 21 20 19
3 21 5 20
3 22 23 6
3 132 23 133
3 134 133 22
3 132 133 134
3 135 7 136
3 137 136 23
3 135 136 137
3 139 138 7
3 140 24 141
3 142 141 8
3 140 141 142
3 143 24 144
3 146 145 24
3 25 147 148
3 25 149 151
3 149 10 150
3 149 150 151
3 26 27 4
3 28 27 26
3 28 11 27
3 28 29 11
3 30 29 28
3 30 12 29
3 152 31 153
3 154 153 13
3 152 153 154
3 32 155 157
3 155 31 156
3 155 156 157
3 32 15 31
3 158 33 159
3 34 160 162
3 160 33 161
3 160 161 162
3 34 16 33
3 34 163 165
3 165 164 16
3 163 164 165
3 167 166 34
3 35 36 14
3 37 36 35
3 37 17 36
3 38 39 9
3 40 39 38
3 40 18 39
3 40 41 18
3 168 41 169
3 170 169 40
3 168 169 170
3 172 171 41
3 42 173 175
3 173 43 174
3 173 174 175
3 44 43 42
3 44 4 43
3 20 44 3
3 45 44 20
3 45 4 44
3 45 26 4
3 46 26 45
3 46 1 26
3 47 176 177
3 179 178 47
3 23 180 182
3 182 181 6
3 180 181 182
3 184 183 23
3 187 186 7
3 185 186 187
3 48 49 2
3 50 49 48
3 50 9 49
3 24 50 8
3 51 50 24
3 51 9 50
3 51 38 9
3 188 38 189
3 190 189 51
3 188 189 190
3 192 191 38
3 52 193 194
3 52 195 196
3 43 197 199
3 197 25 198
3 197 198 199
3 53 25 43
3 53 10 25
3 27 53 4
3 54 53 27
3 54 10 53
3 54 52 10
3 55 52 54
3 55 200 202
3 202 201 52
3 200 201 202
3 55 203 205
3 203 47 204
3 203 204 205
3 56 47 55
3 56 6 47
3 29 56 11
3 57 56 29
3 57 6 56
3 57 22 6
3 58 22 57
3 58 206 208
3 208 207 22
3 206 207 208
3 59 60 0
3 61 60 59
3 61 13 60
3 209 61 210
3 211 61 212
3 211 212 213
3 214 13 215
3 216 215 61
3 214 215 216
3 218 217 13
3 219 42 220
3 219 220 221
3 222 42 223
3 224 3 225
3 226 225 42
3 224 225 226
3 62 227 228
3 62 229 231
3 229 3 230
3 229 230 231
3 62 19 3
3 59 19 62
3 59 0 19
3 60 63 0
3 64 63 60
3 64 14 63
3 31 64 13
3 65 64 31
3 65 14 64
3 65 35 14
3 66 35 65
3 66 2 35
3 232 32 233
3 67 234 236
3 234 32 235
3 234 235 236
3 67 15 32
3 33 237 239
3 237 67 238
3 237 238 239
3 68 67 33
3 68 15 67
3 68 66 15
3 69 66 68
3 69 2 66
3 69 48 2
3 70 48 69
3 70 8 48
3 240 70 241
3 242 241 16
3 240 241 242
3 243 70 244
3 245 8 246
3 247 246 70
3 245 246 247
3 250 249 8
3 248 249 250
3 63 21 0
3 71 21 63
3 71 5 21
3 36 71 14
3 72 71 36
3 72 5 71
3 72 46 5
3 73 46 72
3 73 1 46
3 49 37 2
3 74 37 49
3 74 17 37
3 39 74 9
3 75 74 39
3 75 17 74
3 75 73 17
3 76 73 75
3 76 1 73
3 76 30 1
3 77 30 76
3 77 12 30
3 41 77 18
3 78 77 41
3 78 12 77
3 78 58 12
3 251 58 252
3 253 252 78
3 251 252 253
3 255 254 58
