ply
format ascii 1.0
element vertex 215
property float x
property float y
property float z
element face 216
property list uchar int vertex_index
end_header
-34.838139 -17.697729 74.318756
-39.223728 -13.681883 68.131622
-36.004425 -22.755848 68.849792
-29.227224 -24.415007 74.788963
-37.012348 -15.910945 71.764709
-37.585518 -11.669472 70.455299
-35.028847 -14.375486 73.923706
-35.403557 -20.016413 71.952713
-37.757736 -18.334642 68.671265
-32.491695 -20.805395 74.756042
-32.948921 -23.949772 71.878586
-32.2188 -17.378323 76.251411
-28.836123 -20.826729 77.30513
-39.731045 -16.280548 64.929153
-30.272539 -27.525627 72.321213
-24.618328 -20.562614 79.621468
-35.870132 -16.915148 73.261482
-36.227177 -15.009932 72.970261
-35.017162 -16.212839 74.336159
-35.146042 -18.720139 73.363289
-36.341969 -17.984966 71.941055
-33.861824 -19.089426 74.609634
-34.030849 -20.540932 73.398903
-33.768669 -17.552721 75.259949
-32.367428 -19.137777 75.783875
-33.678757 -15.81573 75.263977
-40.309177 -12.563513 66.162277
-39.770351 -11.376505 67.496155
-38.541847 -16.014133 68.501663
-38.774139 -17.323204 66.846397
-39.557602 -14.941669 66.58757
-40.566319 -13.878757 64.604507
-27.534084 -26.175982 74.877457
-28.123146 -27.749752 73.720825
-29.621138 -26.048449 73.425842
-34.568546 -23.448271 70.388687
-33.436745 -25.376402 70.549805
-26.502739 -18.764725 78.947891
-29.001095 -22.6633 76.169861
-26.965759 -22.621595 77.518661
-27.181705 -24.453941 76.227402
-38.133739 -14.812038 70.021904
-38.595963 -12.575209 69.442009
-37.421448 -13.794986 71.297363
-36.320305 -13.005213 72.286087
-35.655491 -21.398472 70.36866
-36.901932 -20.596758 68.746857
-36.641064 -19.255966 70.379295
-37.476944 -17.050489 70.303085
-30.910084 -22.610918 74.785126
-31.16028 -24.26195 73.340591
-32.662323 -22.410803 73.366074
-34.24419 -22.012268 71.901489
-30.356955 -17.195335 77.171951
-28.626171 -18.93248 77.966057
-30.603354 -19.06415 76.909966
-30.756548 -20.873207 76.056747
-38.85194 -10.369659 68.531357
-37.998932 -19.660181 67.027031
-38.980637 -18.647783 65.211121
-39.900806 -17.61318 63.309669
-31.601353 -25.794182 71.986679
-26.773708 -20.715216 78.49411
-24.842594 -22.524302 78.825302
-36.630247 -22.328112 68.045318
-36.280008 -23.377747 68.224403
-35.549599 -23.765988 68.972724
-34.831659 -24.112199 69.742172
-35.286485 -23.102059 69.619239
-36.280008 -23.377747 68.224403
-35.549599 -23.765988 68.972724
-27.392988 -17.883812 78.476822
-26.291506 -17.776639 78.85828
-34.920542 -13.403064 73.465851
-35.566271 -12.717927 72.647042
-35.674576 -13.690349 73.104896
-34.22543 -14.159 74.297092
-34.920542 -13.403064 73.465851
-32.084373 -16.453014 76.162495
-32.814351 -15.671717 75.668778
-32.948779 -16.597027 75.757694
-31.287878 -17.286829 76.711681
-31.15345 -16.361519 76.622765
-32.084373 -16.453014 76.162495
-40.207296 -15.765141 63.938007
-40.292177 -16.431457 63.128265
-39.815926 -16.946864 64.119411
-41.091322 -13.365092 63.597635
-40.997511 -12.680802 64.385139
-29.644612 -28.333647 72.635231
-28.569916 -28.44571 73.335037
-29.197843 -27.63769 73.021019
-30.754615 -28.168642 71.981834
-29.644612 -28.333647 72.635231
-32.87455 -26.270554 70.748222
-33.818018 -26.006543 70.064469
-23.516237 -20.468483 80.156803
-24.456352 -19.562486 79.743629
-23.643335 -21.477314 79.853375
-22.541244 -21.383184 80.38871
-23.516237 -20.468483 80.156803
-24.95066 -23.473042 78.238381
-25.904176 -22.572948 78.171981
-26.012242 -23.521689 77.58506
-23.866704 -23.436857 78.939239
-24.95066 -23.473042 78.238381
-40.642324 -11.391423 65.844746
-40.86894 -12.02318 65.164024
-40.372911 -10.797918 66.511685
-40.642324 -11.391423 65.844746
-40.039764 -11.970009 66.829216
-39.959442 -10.246195 67.044724
-40.372911 -10.797918 66.511685
-37.549984 -10.616689 69.853591
-36.874571 -11.321712 70.81258
-40.86894 -12.02318 65.164024
-40.997511 -12.680802 64.385139
-40.437748 -13.221135 65.383392
-27.828615 -26.962867 74.299141
-27.014908 -27.813541 74.437271
-26.720377 -27.026657 75.015587
-34.265759 -25.076265 69.822731
-34.002645 -24.412336 70.469246
-34.831659 -24.112199 69.742172
-33.818018 -26.006543 70.064469
-34.265759 -25.076265 69.822731
-25.398557 -18.663542 79.406841
-26.291506 -17.776639 78.85828
-25.560533 -19.663669 79.284679
-24.456352 -19.562486 79.743629
-25.398557 -18.663542 79.406841
-26.120215 -24.437862 76.939431
-26.012242 -23.521689 77.58506
-27.073732 -23.537768 76.873031
-26.279747 -25.3365 76.284832
-26.120215 -24.437862 76.939431
-26.455937 -26.197521 75.609859
-26.279747 -25.3365 76.284832
-27.357895 -25.314962 75.55243
-26.720377 -27.026657 75.015587
-26.455937 -26.197521 75.609859
-36.241964 -11.989583 71.727974
-36.874571 -11.321712 70.81258
-36.952911 -12.337343 71.370693
-36.241964 -11.989583 71.727974
-35.566271 -12.717927 72.647042
-29.491563 -18.063907 77.569004
-28.454704 -17.967689 77.985905
-29.320096 -17.099117 77.588852
-33.550384 -14.879122 74.967228
-34.22543 -14.159 74.297092
-34.353802 -15.095608 74.593841
-33.550384 -14.879122 74.967228
-32.814351 -15.671717 75.668778
-30.149615 -16.240758 76.971622
-31.15345 -16.361519 76.622765
-29.320096 -17.099117 77.588852
-30.149615 -16.240758 76.971622
-39.500236 -9.742772 67.562325
-39.959442 -10.246195 67.044724
-39.311145 -10.873082 68.013756
-38.183195 -9.966783 68.891621
-38.218729 -11.019566 69.493328
-37.549984 -10.616689 69.853591
-38.874424 -9.285697 67.934708
-38.183195 -9.966783 68.891621
-39.500236 -9.742772 67.562325
-38.874424 -9.285697 67.934708
-37.079 -21.248568 67.993851
-36.630247 -22.328112 68.045318
-36.453178 -21.676303 68.798325
-37.6275 -20.780279 67.133938
-37.079 -21.248568 67.993851
-37.450432 -20.12847 67.886944
-38.171297 -20.29482 66.286747
-37.6275 -20.780279 67.133938
-38.662149 -19.788621 65.378792
-38.171297 -20.29482 66.286747
-38.489784 -19.153982 66.119076
-39.145882 -19.27292 64.485583
-38.662149 -19.788621 65.378792
-39.605967 -18.755618 63.534857
-39.145882 -19.27292 64.485583
-39.440722 -18.130482 64.260395
-40.061174 -18.234931 62.597795
-39.605967 -18.755618 63.534857
-40.36244 -17.104558 62.325521
-40.061174 -18.234931 62.597795
-40.36244 -17.104558 62.325521
-40.292177 -16.431457 63.128265
-40.624933 -14.564246 63.775684
-40.207296 -15.765141 63.938007
-40.148682 -15.079652 64.76683
-40.624933 -14.564246 63.775684
-41.091322 -13.365092 63.597635
-27.42402 -28.556114 74.008965
-27.014908 -27.813541 74.437271
-27.42402 -28.556114 74.008965
-28.569916 -28.44571 73.335037
-31.956854 -26.479444 71.466659
-32.519049 -25.585292 71.268242
-32.87455 -26.270554 70.748222
-31.292447 -27.345167 71.633927
-30.936946 -26.659904 72.153946
-31.956854 -26.479444 71.466659
-30.754615 -28.168642 71.981834
-31.292447 -27.345167 71.633927
-27.564455 -18.848602 78.456974
-27.392988 -17.883812 78.476822
-28.454704 -17.967689 77.985905
-23.755468 -22.458158 79.455291
-23.643335 -21.477314 79.853375
-24.730461 -21.543458 79.223385
-23.755468 -22.458158 79.455291
-23.866704 -23.436857 78.939239
3 0 18 16
3 0 16 19
3 0 19 21
3 0 21 23
3 0 23 18
3 1 27 26
3 2 64 65
3 1 30 28
3 1 26 30
3 3 34 32
3 2 66 68
3 68 67 35
3 66 67 68
3 2 69 70
3 71 37 72
3 3 40 38
3 3 32 40
3 4 43 41
3 6 44 17
3 6 73 75
3 75 74 44
3 73 74 75
3 7 47 45
3 4 48 20
3 4 41 48
3 9 51 49
3 7 52 22
3 7 45 52
3 11 55 53
3 9 56 24
3 9 49 56
3 6 76 77
3 11 78 80
3 80 79 25
3 78 79 80
3 11 81 83
3 81 53 82
3 81 82 83
3 5 57 42
3 8 58 46
3 13 59 29
3 13 60 59
3 13 84 86
3 86 85 60
3 84 85 86
3 88 87 31
3 14 89 91
3 91 90 33
3 89 90 91
3 14 92 93
3 10 61 50
3 95 94 36
3 15 96 97
3 15 98 100
3 98 99 100
3 12 62 54
3 101 63 102
3 103 102 39
3 101 102 103
3 105 104 63
3 16 17 4
3 18 17 16
3 18 6 17
3 19 20 7
3 16 20 19
3 16 4 20
3 21 22 9
3 19 22 21
3 19 7 22
3 23 24 11
3 21 24 23
3 21 9 24
3 18 25 6
3 23 25 18
3 23 11 25
3 26 106 107
3 27 108 110
3 110 109 26
3 108 109 110
3 27 111 112
3 114 113 5
3 28 29 8
3 30 29 28
3 30 13 29
3 30 31 13
3 26 31 30
3 26 115 117
3 117 116 31
3 115 116 117
3 32 118 120
3 118 33 119
3 118 119 120
3 34 33 32
3 34 14 33
3 35 36 10
3 121 36 122
3 123 122 35
3 121 122 123
3 125 124 36
3 37 126 127
3 37 128 130
3 128 15 129
3 128 129 130
3 38 39 12
3 40 39 38
3 40 131 133
3 133 132 39
3 131 132 133
3 40 134 135
3 32 136 138
3 138 137 40
3 136 137 138
3 32 139 140
3 41 42 1
3 43 42 41
3 43 5 42
3 17 43 4
3 44 43 17
3 44 5 43
3 44 141 143
3 143 142 5
3 141 142 143
3 145 144 44
3 45 46 2
3 47 46 45
3 47 8 46
3 20 47 7
3 48 47 20
3 48 8 47
3 48 28 8
3 41 28 48
3 41 1 28
3 49 50 3
3 51 50 49
3 51 10 50
3 22 51 9
3 52 51 22
3 52 10 51
3 52 35 10
3 45 35 52
3 45 2 35
3 53 146 148
3 146 54 147
3 146 147 148
3 55 54 53
3 55 12 54
3 24 55 11
3 56 55 24
3 56 12 55
3 56 38 12
3 49 38 56
3 49 3 38
3 25 149 151
3 151 150 6
3 149 150 151
3 153 152 25
3 53 154 155
3 53 156 157
3 42 27 1
3 57 27 42
3 57 158 160
3 160 159 27
3 158 159 160
3 161 57 162
3 163 162 5
3 161 162 163
3 164 57 165
3 167 166 57
3 46 168 170
3 170 169 2
3 168 169 170
3 58 171 173
3 173 172 46
3 171 172 173
3 58 174 175
3 29 58 8
3 59 58 29
3 59 176 178
3 178 177 58
3 176 177 178
3 59 179 180
3 60 181 183
3 183 182 59
3 181 182 183
3 60 184 185
3 60 186 187
3 189 188 60
3 31 190 192
3 192 191 13
3 190 191 192
3 194 193 31
3 33 195 196
3 198 197 33
3 50 34 3
3 61 34 50
3 61 14 34
3 36 61 10
3 199 61 200
3 201 200 36
3 199 200 201
3 202 14 203
3 204 203 61
3 202 203 204
3 206 205 14
3 54 207 209
3 207 37 208
3 207 208 209
3 62 37 54
3 62 15 37
3 39 62 12
3 63 62 39
3 63 15 62
3 63 210 212
3 212 211 15
3 210 211 212
3 214 213 63
