ply
format ascii 1.0
element vertex 176
property float x
property float y
property float z
element face 168
property list uchar int vertex_index
end_header
13.597265 88.057419 2.25206
16.027031 76.885803 27.557369
10.408382 86.19754 16.409613
12.004593 87.726654 9.16751
7.800879 88.162239 10.338911
9.050196 89.272079 3.087247
11.655838 79.130829 29.269833
8.844297 83.519165 23.793076
13.21949 82.298882 22.242203
14.898492 84.368851 15.198197
16.691807 85.255722 8.349497
12.796946 88.037804 5.656244
10.519577 88.744446 6.119684
11.223671 88.951172 2.611775
13.861509 78.17115 28.380627
12.421621 80.843376 25.767639
14.633566 79.749878 24.980129
16.273411 82.114883 18.115108
17.152912 82.875076 14.706627
15.778865 84.959526 11.734126
18.082727 83.349724 11.359032
9.61599 84.994453 20.093561
7.578024 85.000557 20.851347
8.318127 86.356422 17.103746
16.792694 78.339333 24.25499
11.207937 87.112259 12.760219
9.064478 87.441376 13.387027
9.80127 88.240845 9.718894
8.440533 88.86058 6.675055
11.934889 88.873566 -0.780369
9.478746 79.697662 30.21278
8.107254 81.788177 27.492956
10.217451 81.543205 26.611383
10.99551 83.139061 22.993919
11.802896 84.467331 19.373482
15.435945 81.069626 21.550179
14.045637 83.479141 18.710741
12.630701 85.510345 15.768923
13.471842 86.254303 12.204294
14.323814 86.693764 8.706625
15.192981 86.837494 5.303944
13.119814 76.351044 31.738008
15.28929 75.194595 30.807537
6.86178 83.388702 24.614273
7.134413 87.18573 14.060675
9.643324 89.396255 -0.40379
18.262869 82.013828 14.50439
17.802117 81.677818 16.149463
18.727776 82.251152 12.830592
17.617819 83.1124 13.032829
18.262869 82.013828 14.50439
8.104361 89.110412 3.370011
7.799529 88.904663 5.163915
8.745365 89.066329 4.881151
16.516011 80.305431 21.236286
16.11432 79.704479 22.902584
17.194386 78.940285 22.588692
13.848871 74.815976 32.867718
12.767361 75.329056 33.393836
14.933609 74.237751 32.402483
14.204552 75.772819 31.272773
13.848871 74.815976 32.867718
6.680996 84.726543 21.233341
7.01685 85.472595 19.337822
9.94766 89.319778 -2.088224
10.789106 89.13491 -0.592079
11.093442 89.058434 -2.276513
17.362366 81.297721 17.853704
16.934744 80.82806 19.518751
16.713161 82.494979 16.410867
17.362366 81.297721 17.853704
17.802117 81.677818 16.149463
7.386901 86.150527 17.464022
7.01685 85.472595 19.337822
7.948075 85.678489 18.977547
6.945787 87.811508 10.667894
7.223037 88.250251 8.816259
17.454009 76.846436 25.528509
16.409863 77.612568 25.90618
17.071178 76.119671 27.179699
17.833952 77.521286 23.924547
17.454009 76.846436 25.528509
17.194386 78.940285 22.588692
17.833952 77.521286 23.924547
7.542864 88.599422 6.984331
7.223037 88.250251 8.816259
8.120706 88.511409 8.506983
7.542864 88.599422 6.984331
7.799529 88.904663 5.163915
13.183921 88.343227 -0.899354
12.766077 88.465492 0.735846
14.015109 87.935154 0.616861
12.312862 88.705109 -2.404477
13.183921 88.343227 -0.899354
11.093442 89.058434 -2.276513
12.312862 88.705109 -2.404477
8.793 80.742919 28.852868
7.762486 80.801891 29.337083
8.448232 79.756633 30.696995
15.854678 81.592254 19.832643
16.516011 80.305431 21.236286
16.934744 80.82806 19.518751
19.22793 82.456474 11.223506
18.727776 82.251152 12.830592
19.872979 81.357902 12.695067
18.578 83.451195 9.731871
19.22793 82.456474 11.223506
17.88254 84.404194 8.227104
17.387267 84.302723 9.854264
18.578 83.451195 9.731871
17.170807 85.267014 6.711593
17.88254 84.404194 8.227104
16.421394 86.0579 5.188816
15.942394 86.046608 6.826721
17.170807 85.267014 6.711593
15.645423 86.774334 3.663757
16.421394 86.0579 5.188816
14.847565 87.384297 2.137815
14.395123 87.447457 3.778002
15.645423 86.774334 3.663757
14.015109 87.935154 0.616861
14.847565 87.384297 2.137815
9.134452 78.657772 32.001432
8.448232 79.756633 30.696995
10.204061 78.43864 31.476334
9.134452 78.657772 32.001432
11.292606 78.155224 31.00486
10.567292 79.414245 29.741307
10.204061 78.43864 31.476334
12.024594 76.765332 32.238948
12.767361 75.329056 33.393836
12.387826 77.740937 30.50392
11.292606 78.155224 31.00486
12.024594 76.765332 32.238948
15.989783 73.593731 31.922537
14.933609 74.237751 32.402483
16.340205 74.487312 30.381643
15.989783 73.593731 31.922537
16.709076 75.332916 28.75656
15.658161 76.040199 29.182453
16.340205 74.487312 30.381643
17.071178 76.119671 27.179699
16.709076 75.332916 28.75656
7.146397 81.660587 27.935791
6.80163 80.674301 29.779918
7.762486 80.801891 29.337083
6.523661 82.460849 26.49645
7.146397 81.660587 27.935791
7.484517 82.588439 26.053615
6.000271 83.054176 25.017094
6.523661 82.460849 26.49645
6.322874 83.920616 23.114804
7.219902 84.194629 22.73281
6.680996 84.726543 21.233341
5.461365 83.58609 23.517624
6.000271 83.054176 25.017094
6.322874 83.920616 23.114804
6.795044 86.565181 15.942486
7.386901 86.150527 17.464022
7.72627 86.771076 15.582211
6.612554 87.323253 12.528776
7.467646 87.673985 12.199793
6.945787 87.811508 10.667894
6.31934 86.757031 14.404601
6.612554 87.323253 12.528776
6.795044 86.565181 15.942486
6.31934 86.757031 14.404601
8.87369 89.369243 -1.888189
9.94766 89.319778 -2.088224
8.639931 89.340152 -0.156671
8.87369 89.369243 -1.888189
8.343367 89.278064 1.588847
9.34676 89.334167 1.341729
8.639931 89.340152 -0.156671
8.104361 89.110412 3.370011
8.343367 89.278064 1.588847
3 0 13 11
3 1 16 14
3 46 18 47
3 48 20 49
3 50 49 18
3 48 49 50
3 2 23 21
3 3 27 25
3 5 28 12
3 5 51 53
3 53 52 28
3 51 52 53
3 6 32 30
3 8 33 15
3 8 34 33
3 54 35 55
3 56 55 24
3 54 55 56
3 9 36 17
3 9 37 36
3 9 38 37
3 10 39 19
3 10 40 39
3 57 41 58
3 59 42 60
3 61 60 41
3 59 60 61
3 7 43 31
3 63 62 22
3 4 44 26
3 64 45 65
3 66 65 29
3 64 65 66
3 11 12 3
3 13 12 11
3 13 5 12
3 14 15 6
3 16 15 14
3 16 8 15
3 67 17 68
3 18 69 71
3 69 17 70
3 69 70 71
3 18 9 17
3 18 19 9
3 20 19 18
3 20 10 19
3 21 22 7
3 23 22 21
3 23 72 74
3 74 73 22
3 72 73 74
3 76 75 4
3 77 24 78
3 79 78 1
3 77 78 79
3 80 24 81
3 83 82 24
3 25 26 2
3 27 26 25
3 27 4 26
3 12 27 3
3 28 27 12
3 28 4 27
3 28 84 86
3 86 85 4
3 84 85 86
3 88 87 28
3 89 29 90
3 91 90 0
3 89 90 91
3 92 29 93
3 95 94 29
3 30 96 98
3 96 31 97
3 96 97 98
3 32 31 30
3 32 7 31
3 15 32 6
3 33 32 15
3 33 7 32
3 33 21 7
3 34 21 33
3 34 2 21
3 24 16 1
3 35 16 24
3 35 8 16
3 17 99 101
3 99 35 100
3 99 100 101
3 36 35 17
3 36 8 35
3 36 34 8
3 37 34 36
3 37 2 34
3 37 25 2
3 38 25 37
3 38 3 25
3 19 38 9
3 39 38 19
3 39 3 38
3 39 11 3
3 40 11 39
3 40 0 11
3 102 20 103
3 102 103 104
3 105 20 106
3 107 10 108
3 109 108 20
3 107 108 109
3 110 10 111
3 112 40 113
3 114 113 10
3 112 113 114
3 115 40 116
3 117 0 118
3 119 118 40
3 117 118 119
3 121 120 0
3 122 30 123
3 124 30 125
3 126 6 127
3 128 127 30
3 126 127 128
3 41 129 130
3 41 131 133
3 131 6 132
3 131 132 133
3 41 14 6
3 42 14 41
3 42 1 14
3 134 42 135
3 136 42 137
3 138 1 139
3 140 139 42
3 138 139 140
3 142 141 1
3 31 143 145
3 143 144 145
3 43 146 148
3 148 147 31
3 146 147 148
3 43 149 150
3 22 43 7
3 151 43 152
3 153 152 22
3 151 152 153
3 156 155 43
3 154 155 156
3 26 23 2
3 44 23 26
3 44 157 159
3 159 158 23
3 157 158 159
3 160 44 161
3 162 161 4
3 160 161 162
3 163 44 164
3 166 165 44
3 29 13 0
3 45 13 29
3 45 5 13
3 167 45 168
3 169 45 170
3 171 5 172
3 173 172 45
3 171 172 173
3 175 174 5
