ply
format ascii 1.0
element vertex 140
property float x
property float y
property float z
element face 120
property list uchar int vertex_index
end_header
-29.544294 9.298367 62.950287
-22.003092 15.277103 64.747856
-37.963593 10.976219 61.269012
-33.636559 13.261986 62.295071
-29.450125 15.704189 62.687717
-25.578226 18.594421 62.731892
-25.468596 11.956388 63.686535
-22.111269 22.191643 63.068451
-31.779814 8.171505 62.591892
-33.824345 10.13666 62.256306
-31.604462 11.2586 62.623947
-31.513439 14.445599 62.565208
-29.46702 12.467312 62.900654
-27.435631 13.795044 63.119278
-27.433546 10.551716 63.302338
-23.745773 16.914829 63.623318
-23.793447 20.293777 62.8241
-22.091866 18.742268 64.041664
-29.742678 6.237965 63.021637
-27.531075 7.384308 63.431458
-37.614929 14.078503 61.255188
-36.094994 9.065392 61.79092
-35.795605 12.117239 61.858723
-35.563797 15.286449 61.809612
-33.500587 16.480373 62.139717
-27.466656 17.074951 62.716339
-25.526075 15.270042 63.336971
-23.659184 13.529068 64.152512
-29.92261 4.782698 63.160314
-30.913156 5.729614 62.841149
-28.76359 5.288373 63.355242
-29.92261 4.782698 63.160314
-38.799791 11.9016 60.889873
-39.037092 10.390595 60.913042
-37.789261 12.527361 61.2621
-38.625459 13.452742 60.882961
-38.799791 11.9016 60.889873
-35.101082 8.101757 61.998272
-36.287775 7.611326 61.787449
-30.448287 16.699907 62.465704
-31.479944 16.070612 62.404449
-30.481782 15.074894 62.626463
-29.436924 17.339149 62.424747
-30.448287 16.699907 62.465704
-28.458391 16.38957 62.702028
-28.445189 18.02453 62.439058
-29.436924 17.339149 62.424747
-26.505713 8.035732 63.675246
-26.579386 6.446162 63.816711
-25.566243 20.252708 62.258069
-26.51594 19.478813 62.352845
-22.924414 22.924712 62.38359
-23.765504 21.975778 62.261415
-22.952358 21.24271 62.946275
-22.058411 23.908832 62.433283
-22.924414 22.924712 62.38359
-38.169936 9.490728 61.254011
-39.037092 10.390595 60.913042
-32.802079 9.154082 62.424099
-33.965758 8.637391 62.230965
-32.943492 7.654814 62.398758
-31.931723 6.696383 62.626276
-32.943492 7.654814 62.398758
-30.761246 7.204735 62.806764
-31.931723 6.696383 62.626276
-30.913156 5.729614 62.841149
-27.657789 5.861544 63.560153
-28.636876 6.811136 63.226547
-28.76359 5.288373 63.355242
-26.579386 6.446162 63.816711
-27.657789 5.861544 63.560153
-21.243567 16.23649 65.124775
-21.193973 14.454328 65.459457
-38.415514 15.022613 60.795321
-38.625459 13.452742 60.882961
-37.466331 15.682827 61.147991
-38.415514 15.022613 60.795321
-37.235636 8.535314 61.514965
-36.287775 7.611326 61.787449
-37.029294 10.020805 61.529966
-38.169936 9.490728 61.254011
-37.235636 8.535314 61.514965
-34.95967 9.601026 62.023613
-35.101082 8.101757 61.998272
-33.965758 8.637391 62.230965
-36.440765 16.2868 61.425203
-37.466331 15.682827 61.147991
-36.589363 14.682476 61.5324
-35.462483 16.913424 61.647672
-36.440765 16.2868 61.425203
-34.430878 17.510385 61.812725
-35.462483 16.913424 61.647672
-34.532192 15.883411 61.974665
-33.430744 18.11815 61.892523
-34.430878 17.510385 61.812725
-32.473518 17.087999 62.191704
-32.507013 15.462986 62.352463
-31.479944 16.070612 62.404449
-33.430744 18.11815 61.892523
-32.473518 17.087999 62.191704
-27.460155 18.719078 62.345068
-28.445189 18.02453 62.439058
-26.522441 17.834686 62.724115
-26.51594 19.478813 62.352845
-27.460155 18.719078 62.345068
-26.456948 9.619436 63.610686
-27.482311 8.968012 63.366898
-26.505713 8.035732 63.675246
-25.474473 10.321772 63.802784
-26.451071 11.254052 63.494436
-26.456948 9.619436 63.610686
-24.537818 11.059069 64.102735
-25.474473 10.321772 63.802784
-23.633112 11.845409 64.335724
-24.56389 12.742728 63.919523
-24.537818 11.059069 64.102735
-22.786133 12.670672 64.708039
-23.633112 11.845409 64.335724
-21.958087 13.544689 65.00571
-22.831138 14.403085 64.450184
-22.786133 12.670672 64.708039
-21.193973 14.454328 65.459457
-21.958087 13.544689 65.00571
-24.673853 21.102386 62.304172
-25.566243 20.252708 62.258069
-24.685837 19.444099 62.777996
-24.673853 21.102386 62.304172
-23.765504 21.975778 62.261415
-21.287954 17.969072 64.771679
-22.047479 17.009685 64.39476
-21.243567 16.23649 65.124775
-21.319954 19.746315 64.335613
-21.287954 17.969072 64.771679
-21.329656 21.471002 63.849007
-22.101568 20.466955 63.555058
-21.319954 19.746315 64.335613
-21.314111 23.239242 63.286846
-21.329656 21.471002 63.849007
-22.058411 23.908832 62.433283
-21.314111 23.239242 63.286846
3 0 10 8
3 0 12 10
3 0 14 12
3 1 17 15
3 28 18 29
3 31 30 18
3 2 32 33
3 2 34 36
3 34 20 35
3 34 35 36
3 37 21 38
3 3 22 9
3 3 23 22
3 3 24 23
3 4 39 41
3 41 40 11
3 39 40 41
3 4 42 43
3 4 44 46
3 44 25 45
3 44 45 46
3 6 26 13
3 6 27 26
3 48 47 19
3 5 49 50
3 7 51 53
3 53 52 16
3 51 52 53
3 7 54 55
3 56 2 57
3 8 58 60
3 58 9 59
3 58 59 60
3 10 9 8
3 10 3 9
3 10 11 3
3 12 11 10
3 12 4 11
3 12 13 4
3 14 13 12
3 14 6 13
3 15 16 5
3 17 16 15
3 17 7 16
3 61 8 62
3 18 63 65
3 63 8 64
3 63 64 65
3 18 0 8
3 18 19 0
3 66 19 67
3 68 67 18
3 66 67 68
3 70 69 19
3 72 71 1
3 20 73 74
3 20 75 76
3 21 77 78
3 21 79 81
3 79 2 80
3 79 80 81
3 9 82 84
3 82 21 83
3 82 83 84
3 22 21 9
3 22 2 21
3 22 20 2
3 23 20 22
3 23 85 87
3 87 86 20
3 85 86 87
3 23 88 89
3 24 90 92
3 92 91 23
3 90 91 92
3 24 93 94
3 11 24 3
3 95 24 96
3 97 96 11
3 95 96 97
3 99 98 24
3 25 100 101
3 25 102 104
3 102 5 103
3 102 103 104
3 13 25 4
3 26 25 13
3 26 5 25
3 26 15 5
3 27 15 26
3 27 1 15
3 19 14 0
3 105 14 106
3 107 106 19
3 105 106 107
3 108 6 109
3 110 109 14
3 108 109 110
3 111 6 112
3 113 27 114
3 115 114 6
3 113 114 115
3 116 27 117
3 118 1 119
3 120 119 27
3 118 119 120
3 122 121 1
3 16 123 125
3 125 124 5
3 123 124 125
3 127 126 16
3 128 17 129
3 130 129 1
3 128 129 130
3 131 17 132
3 133 7 134
3 135 134 17
3 133 134 135
3 136 7 137
3 139 138 7
