ply
format ascii 1.0
element vertex 120
property float x
property float y
property float z
element face 100
property list uchar int vertex_index
end_header
-46.807205 -32.965546 18.749395
-43.56284 -32.577934 16.591103
-46.049332 -36.671402 16.033232
-44.433163 -35.199921 12.940783
-49.088966 -37.145409 18.799646
-45.326813 -28.153057 18.694958
-42.483212 -32.061962 15.289163
-43.64246 -34.156982 14.910655
-42.989182 -33.360123 13.414003
-44.209293 -34.084503 11.320089
-47.857994 -35.124664 18.736408
-46.978359 -25.529217 19.028362
-45.016945 -32.874592 17.742004
-46.108864 -35.028183 17.577715
-44.690384 -34.712257 16.302402
-45.048962 -36.066151 14.519658
-47.408901 -37.022972 17.462715
-48.04998 -30.58691 19.502865
-49.261028 -25.468685 19.434418
-47.410423 -28.14225 19.321884
-45.957397 -30.64764 18.760242
-44.152153 -30.541162 17.875061
-42.393908 -32.345061 13.627751
-42.736197 -32.711043 14.351583
-42.140923 -31.69598 14.565331
-42.861374 -32.848826 12.622227
-42.393908 -32.345061 13.627751
-47.3326 -34.045105 18.742902
-48.370047 -34.00168 19.185302
-47.844652 -32.922121 19.191795
-45.275263 -36.038222 12.723845
-45.583163 -36.471336 13.513282
-44.741062 -35.633036 13.73022
-45.178556 -35.43649 11.87597
-45.275263 -36.038222 12.723845
-45.153765 -34.156578 10.230306
-44.286404 -33.415943 10.499481
-50.064694 -37.110287 19.424104
-49.487595 -36.090193 19.295449
-49.784172 -38.098319 18.902525
-50.7599 -38.063197 19.526983
-50.064694 -37.110287 19.424104
-48.887062 -29.294077 19.66837
-49.209697 -30.488542 19.823242
-49.12475 -24.123478 19.165493
-50.327284 -24.095821 19.288373
-43.471429 -33.211016 11.57527
-43.599238 -33.722313 12.367046
-42.861374 -32.848826 12.622227
-44.286404 -33.415943 10.499481
-43.471429 -33.211016 11.57527
-48.872108 -35.07982 19.26383
-48.370047 -34.00168 19.185302
-48.47348 -36.135036 18.768027
-49.487595 -36.090193 19.295449
-48.872108 -35.07982 19.26383
-46.835045 -37.575575 15.949086
-46.367813 -37.243004 15.117306
-46.868426 -24.132357 18.803305
-47.983415 -24.153744 18.962465
-45.952531 -25.498115 18.761991
-46.868426 -24.132357 18.803305
-45.126759 -26.810035 18.595289
-46.152586 -26.841137 18.86166
-45.952531 -25.498115 18.761991
-44.428177 -28.081421 18.300702
-45.126759 -26.810035 18.595289
-45.867629 -36.940378 14.360519
-46.367813 -37.243004 15.117306
-45.549147 -36.368776 15.276445
-45.867629 -36.940378 14.360519
-45.583163 -36.471336 13.513282
-45.066621 -34.87878 11.065623
-45.178556 -35.43649 11.87597
-44.321228 -34.642212 12.130436
-45.066621 -34.87878 11.065623
-45.153765 -34.156578 10.230306
-47.51483 -37.75136 16.663828
-46.729117 -36.847187 16.747974
-46.835045 -37.575575 15.949086
-48.152809 -37.952982 17.467199
-47.51483 -37.75136 16.663828
-48.992841 -38.014201 18.135664
-48.248933 -37.084191 18.13118
-48.152809 -37.952982 17.467199
-49.784172 -38.098319 18.902525
-48.992841 -38.014201 18.135664
-48.466039 -31.732803 19.56853
-49.209697 -30.488542 19.823242
-47.428593 -31.776228 19.12613
-47.844652 -32.922121 19.191795
-48.466039 -31.732803 19.56853
-50.487377 -25.388457 19.60436
-50.327284 -24.095821 19.288373
-49.492586 -26.734965 19.634146
-50.487377 -25.388457 19.60436
-48.119693 -25.498951 19.23139
-49.12475 -24.123478 19.165493
-47.983415 -24.153744 18.962465
-48.567284 -28.071747 19.577879
-49.492586 -26.734965 19.634146
-48.335726 -26.805467 19.378151
-47.730201 -29.36458 19.412374
-48.887062 -29.294077 19.66837
-48.567284 -28.071747 19.577879
-43.840847 -29.275474 17.890753
-44.739483 -29.34711 18.28501
-44.428177 -28.081421 18.300702
-43.41761 -30.393902 17.347158
-43.840847 -29.275474 17.890753
-43.122954 -31.412288 16.705179
-43.857496 -31.559548 17.233082
-43.41761 -30.393902 17.347158
-42.58314 -31.154303 16.054209
-43.023026 -32.319948 15.940133
-43.122954 -31.412288 16.705179
-42.033808 -30.909762 15.434177
-42.58314 -31.154303 16.054209
-42.140923 -31.69598 14.565331
-42.033808 -30.909762 15.434177
3 22 8 23
3 24 23 6
3 22 23 24
3 26 25 8
3 0 27 29
3 27 10 28
3 27 28 29
3 1 14 12
3 3 15 7
3 3 30 32
3 32 31 15
3 30 31 32
3 3 33 34
3 36 35 9
3 4 37 38
3 4 39 41
3 39 40 41
3 2 16 13
3 42 17 43
3 44 18 45
3 5 19 11
3 5 20 19
3 5 21 20
3 6 7 1
3 8 7 6
3 8 3 7
3 8 9 3
3 46 9 47
3 48 47 8
3 46 47 48
3 50 49 9
3 10 51 52
3 10 53 55
3 53 4 54
3 53 54 55
3 57 56 2
3 58 11 59
3 60 11 61
3 62 5 63
3 64 63 11
3 62 63 64
3 66 65 5
3 12 13 0
3 14 13 12
3 14 2 13
3 7 14 1
3 15 14 7
3 15 2 14
3 15 67 69
3 69 68 2
3 67 68 69
3 71 70 15
3 9 72 74
3 74 73 3
3 72 73 74
3 76 75 9
3 13 10 0
3 16 10 13
3 16 4 10
3 77 16 78
3 79 78 2
3 77 78 79
3 80 16 81
3 82 4 83
3 84 83 16
3 82 83 84
3 86 85 4
3 17 87 88
3 17 89 91
3 89 0 90
3 89 90 91
3 18 92 93
3 18 94 95
3 11 96 98
3 96 18 97
3 96 97 98
3 19 18 11
3 19 99 101
3 101 100 18
3 99 100 101
3 19 102 104
3 102 17 103
3 102 103 104
3 20 17 19
3 20 0 17
3 20 12 0
3 21 12 20
3 21 1 12
3 105 21 106
3 107 106 5
3 105 106 107
3 108 21 109
3 110 1 111
3 112 111 21
3 110 111 112
3 113 6 114
3 115 114 1
3 113 114 115
3 116 6 117
3 119 118 6
