ply
format ascii 1.0
element vertex 99
property float x
property float y
property float z
element face 80
property list uchar int vertex_index
end_header
36.002796 -6.775681 -52.556732
32.694553 -10.782574 -49.414574
29.647896 -8.987889 -48.964699
34.260761 -8.695303 -51.044472
34.674992 -12.032234 -49.142342
36.375446 -10.073765 -50.636436
38.214085 -8.314295 -52.022812
31.342646 -12.979372 -47.677467
31.802067 -16.298082 -45.844551
33.13953 -14.125712 -47.546677
29.889242 -12.067581 -47.489372
30.967186 -9.768545 -49.35981
32.319477 -7.554974 -51.121017
33.90065 -5.479382 -52.759697
33.618916 -2.363556 -54.211876
35.669483 -3.598784 -54.246536
37.890327 -5.083832 -53.923431
34.89246 -13.771359 -48.133026
35.715015 -12.776236 -48.858921
29.288429 -10.184975 -47.968872
29.252294 -8.709839 -48.597977
29.768569 -10.527735 -48.227035
29.409102 -11.724821 -47.231209
29.288429 -10.184975 -47.968872
32.17824 -5.991269 -51.8633
31.508713 -7.104319 -50.983849
32.968826 -4.953474 -52.68264
33.110063 -6.517178 -51.940357
32.17824 -5.991269 -51.8633
34.510745 -1.439438 -54.914894
33.527079 -0.847543 -54.770462
35.536028 -2.057052 -54.932224
34.644199 -2.98117 -54.229206
34.510745 -1.439438 -54.914894
38.895689 -4.377797 -54.509426
37.742023 -3.525061 -54.728222
39.030862 -5.950161 -53.599216
38.895689 -4.377797 -54.509426
32.055487 -18.018676 -44.870605
32.710802 -16.949292 -45.706574
36.565242 -11.797001 -49.605968
35.715015 -12.776236 -48.858921
35.525219 -11.053 -49.889389
37.454178 -10.88347 -50.28627
36.565242 -11.797001 -49.605968
38.373497 -10.003735 -50.979458
37.454178 -10.88347 -50.28627
37.294765 -9.19403 -51.329624
39.320498 -9.206459 -51.61322
38.373497 -10.003735 -50.979458
29.588953 -7.489803 -49.592137
29.252294 -8.709839 -48.597977
30.172922 -7.820776 -49.90569
29.588953 -7.489803 -49.592137
31.572356 -14.638727 -46.761009
31.024085 -15.767351 -45.839107
30.794374 -14.107996 -46.755566
33.379534 -15.863107 -46.557637
32.710802 -16.949292 -45.706574
32.470799 -15.211897 -46.695614
34.124729 -14.818098 -47.335194
33.907261 -13.078973 -48.34451
34.89246 -13.771359 -48.133026
33.379534 -15.863107 -46.557637
34.124729 -14.818098 -47.335194
29.507343 -13.238142 -46.501148
29.409102 -11.724821 -47.231209
30.067673 -13.6521 -46.661518
29.507343 -13.238142 -46.501148
30.615944 -12.523477 -47.58342
30.794374 -14.107996 -46.755566
30.067673 -13.6521 -46.661518
30.832567 -8.211104 -50.103245
30.307541 -9.378217 -49.162255
30.172922 -7.820776 -49.90569
31.643332 -8.661759 -50.240414
30.832567 -8.211104 -50.103245
31.508713 -7.104319 -50.983849
32.74 -1.876132 -54.008335
33.527079 -0.847543 -54.770462
32.827959 -3.395561 -53.408729
32.74 -1.876132 -54.008335
33.759783 -3.921469 -53.485787
32.968826 -4.953474 -52.68264
32.827959 -3.395561 -53.408729
36.631601 -2.782537 -54.889774
35.536028 -2.057052 -54.932224
36.779905 -4.341308 -54.084983
36.631601 -2.782537 -54.889774
37.742023 -3.525061 -54.728222
39.192741 -7.565392 -52.648907
38.052206 -6.699063 -52.973122
39.030862 -5.950161 -53.599216
39.320498 -9.206459 -51.61322
39.192741 -7.565392 -52.648907
31.248936 -17.401827 -44.937176
31.024085 -15.767351 -45.839107
31.248936 -17.401827 -44.937176
32.055487 -18.018676 -44.870605
3 0 5 3
3 0 6 5
3 1 9 7
3 18 17 4
3 2 19 20
3 2 21 23
3 21 10 22
3 21 22 23
3 2 11 10
3 24 12 25
3 26 13 27
3 28 27 12
3 26 27 28
3 29 14 30
3 31 15 32
3 33 32 14
3 31 32 33
3 34 16 35
3 37 36 16
3 39 38 8
3 3 4 1
3 5 4 3
3 5 40 42
3 42 41 4
3 40 41 42
3 5 43 44
3 6 45 47
3 47 46 5
3 45 46 47
3 6 48 49
3 50 2 51
3 53 52 2
3 7 54 56
3 54 8 55
3 54 55 56
3 9 8 7
3 9 57 59
3 59 58 8
3 57 58 59
3 4 9 1
3 60 9 61
3 62 61 4
3 60 61 62
3 64 63 9
3 10 65 66
3 10 67 68
3 10 69 71
3 69 7 70
3 69 70 71
3 11 7 10
3 11 1 7
3 72 11 73
3 74 73 2
3 72 73 74
3 12 75 77
3 75 11 76
3 75 76 77
3 12 1 11
3 12 3 1
3 13 3 12
3 13 0 3
3 14 78 79
3 14 80 81
3 14 82 84
3 82 13 83
3 82 83 84
3 15 13 14
3 15 0 13
3 85 15 86
3 16 87 89
3 87 15 88
3 87 88 89
3 16 0 15
3 16 6 0
3 90 6 91
3 92 91 16
3 90 91 92
3 94 93 6
3 8 95 96
3 98 97 8
