ply
format ascii 1.0
element vertex 162
property float x
property float y
property float z
element face 142
property list uchar int vertex_index
end_header
25.445385 7.587471 64.112534
28.84304 19.897362 61.44178
33.732109 8.571697 62.718834
23.35014 13.514912 63.951736
24.887285 19.6078 61.949722
27.018826 13.636684 62.546623
31.167946 14.071674 62.299515
29.411558 7.938459 63.082924
35.433556 14.630371 62.115471
38.061451 9.240513 62.049919
22.670683 10.511723 65.143738
24.342346 10.507118 63.981026
25.107082 13.534687 63.053246
26.17923 10.576418 63.218811
28.159586 10.731396 62.79921
26.810537 19.710415 61.542854
25.673599 22.68066 60.999557
32.400505 11.256781 62.530914
33.312431 14.355206 62.272522
34.569374 11.57016 62.40609
36.704651 11.864759 62.117981
35.918209 8.921202 62.475563
24.099789 16.549919 62.909103
25.944059 16.606846 62.271255
27.923649 16.749847 61.992554
29.997993 16.967148 61.95034
29.053495 13.821472 62.340187
30.247894 10.965687 62.615204
31.548195 8.231886 62.880241
23.80905 22.624779 61.58931
32.117325 17.229465 61.989311
34.226311 17.494793 61.949562
37.477238 14.851864 61.714027
38.75795 12.09877 61.576454
24.893866 9.047294 64.04678
24.011343 9.023332 64.555237
24.562863 7.563508 64.620991
26.405121 7.653297 63.784218
26.772044 9.147771 63.337356
25.812308 9.081945 63.665672
28.251607 21.364162 61.108528
27.235355 21.270689 61.159065
27.826788 19.803888 61.492317
29.284647 21.477106 61.115421
28.251607 21.364162 61.108528
29.890138 20.020359 61.470425
29.284647 21.477106 61.115421
22.556128 13.536467 64.612804
22.216399 12.034872 65.208805
23.010412 12.013317 64.547737
22.883306 15.042931 63.962455
22.556128 13.536467 64.612804
23.724964 15.032415 63.430419
23.258131 16.560434 63.441139
22.883306 15.042931 63.962455
24.348167 21.11629 61.769516
23.458755 21.109468 62.175815
23.997873 19.600979 62.356021
25.080413 24.169706 60.699543
26.047576 24.218958 60.494693
35.850201 16.172474 61.904114
35.246578 17.604685 61.82116
34.829934 16.062582 62.032516
36.455397 14.741118 61.914749
36.872042 16.28322 61.703392
35.850201 16.172474 61.904114
39.090807 9.366278 61.711479
39.439056 10.795407 61.474746
38.4097 10.669642 61.813187
23.175511 9.025634 65.136593
22.375644 9.032509 65.837365
23.506515 10.509421 64.562382
23.175511 9.025634 65.136593
24.011343 9.023332 64.555237
27.762222 9.22526 63.127556
27.169408 10.653907 63.009011
26.772044 9.147771 63.337356
28.388208 7.828791 63.269413
28.785572 9.334927 62.941067
27.762222 9.22526 63.127556
26.666886 22.755812 60.887417
26.242068 21.195538 61.271206
27.235355 21.270689 61.159065
26.047576 24.218958 60.494693
26.666886 22.755812 60.887417
21.918059 10.536396 65.923904
21.623019 9.057182 66.617531
22.375644 9.032509 65.837365
21.918059 10.536396 65.923904
22.216399 12.034872 65.208805
23.604125 18.072038 62.835712
23.258131 16.560434 63.441139
24.493537 18.07886 62.429412
23.997873 19.600979 62.356021
23.604125 18.072038 62.835712
25.142614 6.138789 64.706486
24.562863 7.563508 64.620991
26.073214 6.196913 64.262249
25.142614 6.138789 64.706486
22.95104 22.641489 62.100655
23.458755 21.109468 62.175815
23.246356 24.143249 61.402862
22.95104 22.641489 62.100655
24.148138 24.141765 60.994419
24.741324 22.652719 61.294433
25.080413 24.169706 60.699543
23.246356 24.143249 61.402862
24.148138 24.141765 60.994419
30.467615 18.555252 61.724705
29.890138 20.020359 61.470425
29.420516 18.432255 61.69606
31.527281 18.686411 61.74419
30.467615 18.555252 61.724705
31.057659 17.098306 61.969825
32.577576 18.818153 61.768226
31.527281 18.686411 61.74419
33.632069 18.950817 61.748352
32.577576 18.818153 61.768226
33.171818 17.362129 61.969437
34.655519 19.065609 61.688606
33.632069 18.950817 61.748352
34.655519 19.065609 61.688606
35.246578 17.604685 61.82116
37.829563 16.346218 61.417259
36.872042 16.28322 61.703392
38.435285 14.914406 61.354713
37.829563 16.346218 61.417259
39.075642 13.537859 61.285927
38.435285 14.914406 61.354713
38.117594 13.475317 61.64524
39.722601 12.166978 61.153164
39.075642 13.537859 61.285927
39.722601 12.166978 61.153164
39.439056 10.795407 61.474746
26.405121 7.653297 63.784218
26.073214 6.196913 64.262249
29.055166 6.476062 63.456539
28.388208 7.828791 63.269413
30.106749 6.622784 63.27499
29.055166 6.476062 63.456539
31.175067 6.769498 63.173648
30.479876 8.085172 62.981583
30.106749 6.622784 63.27499
32.260515 6.948629 63.045436
31.175067 6.769498 63.173648
33.352473 7.118535 62.964733
32.640152 8.401791 62.799537
32.260515 6.948629 63.045436
34.451487 7.313724 62.831592
33.352473 7.118535 62.964733
35.544536 7.488476 62.709957
34.825159 8.74645 62.597199
34.451487 7.313724 62.831592
36.636568 7.680707 62.520001
35.544536 7.488476 62.709957
37.708189 7.840362 62.307179
36.98983 9.080858 62.262741
36.636568 7.680707 62.520001
38.773607 8.010891 62.020534
37.708189 7.840362 62.307179
39.090807 9.366278 61.711479
38.773607 8.010891 62.020534
3 0 34 36
3 34 11 35
3 34 35 36
3 0 13 11
3 0 37 39
3 39 38 13
3 37 38 39
3 1 40 42
3 42 41 15
3 40 41 42
3 1 43 44
3 1 45 46
3 2 19 17
3 2 21 19
3 3 47 49
3 49 48 10
3 47 48 49
3 3 50 51
3 3 52 54
3 52 22 53
3 52 53 54
3 5 23 12
3 5 24 23
3 5 26 24
3 7 27 14
3 7 28 27
3 4 55 57
3 55 29 56
3 55 56 57
3 59 58 16
3 6 30 25
3 8 31 18
3 8 60 62
3 62 61 31
3 60 61 62
3 8 63 65
3 63 32 64
3 63 64 65
3 9 33 20
3 9 66 68
3 68 67 33
3 66 67 68
3 69 10 70
3 11 71 73
3 71 10 72
3 71 72 73
3 11 3 10
3 11 12 3
3 13 12 11
3 13 5 12
3 13 14 5
3 74 14 75
3 76 75 13
3 74 75 76
3 77 7 78
3 79 78 14
3 77 78 79
3 15 16 4
3 80 16 81
3 82 81 15
3 80 81 82
3 84 83 16
3 17 18 6
3 19 18 17
3 19 8 18
3 19 20 8
3 21 20 19
3 21 9 20
3 10 85 87
3 85 86 87
3 89 88 10
3 22 90 91
3 22 92 94
3 92 4 93
3 92 93 94
3 12 22 3
3 23 22 12
3 23 4 22
3 23 15 4
3 24 15 23
3 24 1 15
3 24 25 1
3 26 25 24
3 26 6 25
3 14 26 5
3 27 26 14
3 27 6 26
3 27 17 6
3 28 17 27
3 28 2 17
3 95 0 96
3 98 97 0
3 29 99 100
3 29 101 102
3 16 29 4
3 103 29 104
3 105 104 16
3 103 104 105
3 107 106 29
3 25 108 110
3 110 109 1
3 108 109 110
3 30 111 113
3 113 112 25
3 111 112 113
3 30 114 115
3 18 30 6
3 31 30 18
3 31 116 118
3 118 117 30
3 116 117 118
3 31 119 120
3 122 121 31
3 32 123 124
3 32 125 126
3 20 32 8
3 33 32 20
3 33 127 129
3 129 128 32
3 127 128 129
3 33 130 131
3 133 132 33
3 135 134 0
3 136 7 137
3 138 7 139
3 140 28 141
3 142 141 7
3 140 141 142
3 143 28 144
3 145 2 146
3 147 146 28
3 145 146 147
3 148 2 149
3 150 21 151
3 152 151 2
3 150 151 152
3 153 21 154
3 155 9 156
3 157 156 21
3 155 156 157
3 158 9 159
3 161 160 9
