ply
format ascii 1.0
element vertex 104
property float x
property float y
property float z
element face 88
property list uchar int vertex_index
end_header
-26.274776 79.937592 -12.695824
-21.97467 82.212433 -2.672215
-27.971775 78.902847 -2.53882
-30.323353 78.181503 -7.552744
-23.931526 81.514999 -8.002705
-32.043655 76.96907 -4.826382
-24.984402 80.530014 -2.681458
-26.033253 80.292648 -5.305302
-22.896294 81.944656 -5.407232
-20.672699 83.15979 -8.079908
-29.658247 78.185562 -12.383175
-30.85643 77.28392 -2.297367
-24.037416 80.622208 0.04731
-22.796949 81.595764 -12.989065
-31.587093 77.416016 -9.892088
-28.397707 79.189072 -10.176632
-29.109858 78.655212 -5.094921
-27.178141 79.867142 -7.809702
-25.067308 80.869949 -10.439726
-21.683685 82.503708 -10.634926
-32.803566 76.278312 -3.41695
-33.405872 76.059181 -4.682826
-34.165783 75.368424 -3.273395
-20.878762 82.918838 -4.010651
-21.339574 82.78495 -5.378159
-22.435482 82.078544 -4.039724
-26.894471 79.290848 -13.720753
-28.586206 78.414833 -13.564428
-27.966511 79.061577 -12.539499
-24.996433 79.766556 1.428567
-25.479273 79.799858 0.073803
-21.59969 81.782287 -14.227072
-21.059043 82.386818 -13.098861
-30.955223 77.79876 -8.722416
-32.438116 76.902802 -8.58294
-31.806246 77.285545 -7.413268
-19.507753 83.62693 -9.392957
-19.081538 83.970841 -8.03425
-32.666397 76.679328 -6.050087
-33.405872 76.059181 -4.682826
-31.183504 77.575287 -6.189563
-31.806246 77.285545 -7.413268
-32.666397 76.679328 -6.050087
-20.227777 83.392517 -6.714498
-21.784497 82.552223 -6.74357
-21.339574 82.78495 -5.378159
-19.081538 83.970841 -8.03425
-20.227777 83.392517 -6.714498
-30.288708 77.489525 -13.39265
-31.262299 77.240616 -12.234731
-30.288708 77.489525 -13.39265
-28.586206 78.414833 -13.564428
-31.63973 76.531746 -0.861965
-32.209953 76.435737 -2.152443
-30.299226 77.336135 -1.001513
-31.63973 76.531746 -0.861965
-28.856898 78.145599 -1.122239
-29.414102 78.093383 -2.418093
-30.299226 77.336135 -1.001513
-27.446452 78.940178 -1.219261
-28.856898 78.145599 -1.122239
-25.952765 79.753761 -1.290581
-26.478088 79.716431 -2.610139
-27.446452 78.940178 -1.219261
-24.510909 80.576111 -1.317074
-25.952765 79.753761 -1.290581
-25.479273 79.799858 0.073803
-23.387621 80.97895 -14.052239
-25.126534 80.149865 -13.905619
-24.535863 80.766678 -12.842444
-23.387621 80.97895 -14.052239
-21.59969 81.782287 -14.227072
-33.076837 76.452416 -9.753141
-32.438116 76.902802 -8.58294
-32.226723 76.855843 -10.989187
-33.076837 76.452416 -9.753141
-30.62267 77.800789 -11.137631
-31.262299 77.240616 -12.234731
-32.226723 76.855843 -10.989187
-31.450043 77.126495 -3.561875
-32.803566 76.278312 -3.41695
-32.209953 76.435737 -2.152443
-20.50241 82.84079 -11.921791
-21.059043 82.386818 -13.098861
-22.240317 82.049736 -11.811996
-20.013246 83.298889 -10.670466
-21.178192 82.831749 -9.357417
-19.507753 83.62693 -9.392957
-20.50241 82.84079 -11.921791
-20.013246 83.298889 -10.670466
-23.61013 80.604065 1.457756
-24.996433 79.766556 1.428567
-22.600024 81.483452 0.116711
-23.61013 80.604065 1.457756
-22.172738 81.465309 1.527157
-21.568651 82.278565 -1.243051
-23.006043 81.417321 -1.312453
-22.600024 81.483452 0.116711
-20.494812 83.074425 -2.56837
-21.568651 82.278565 -1.243051
-20.878762 82.918838 -4.010651
-20.494812 83.074425 -2.56837
-26.894471 79.290848 -13.720753
-25.126534 80.149865 -13.905619
3 20 5 21
3 20 21 22
3 1 8 6
3 1 23 25
3 25 24 8
3 23 24 25
3 0 26 28
3 28 27 10
3 26 27 28
3 29 12 30
3 32 31 13
3 3 33 35
3 33 14 34
3 33 34 35
3 3 15 14
3 2 16 11
3 4 17 7
3 4 18 17
3 4 19 18
3 37 36 9
3 5 38 39
3 5 40 42
3 40 3 41
3 40 41 42
3 6 7 2
3 8 7 6
3 8 4 7
3 8 9 4
3 43 9 44
3 45 44 8
3 43 44 45
3 47 46 9
3 10 48 49
3 51 50 10
3 52 11 53
3 54 11 55
3 56 2 57
3 58 57 11
3 56 57 58
3 59 2 60
3 61 6 62
3 63 62 2
3 61 62 63
3 12 64 66
3 64 6 65
3 64 65 66
3 12 1 6
3 13 67 69
3 69 68 0
3 67 68 69
3 71 70 13
3 14 72 73
3 14 74 75
3 14 76 78
3 76 10 77
3 76 77 78
3 15 10 14
3 15 0 10
3 11 79 81
3 79 5 80
3 79 80 81
3 16 5 11
3 16 3 5
3 7 16 2
3 17 16 7
3 17 3 16
3 17 15 3
3 18 15 17
3 18 0 15
3 18 13 0
3 19 13 18
3 19 82 84
3 84 83 13
3 82 83 84
3 9 19 4
3 85 19 86
3 87 86 9
3 85 86 87
3 89 88 19
3 90 12 91
3 92 12 93
3 92 93 94
3 95 1 96
3 97 96 12
3 95 96 97
3 98 1 99
3 101 100 1
3 103 102 0
