ply
format ascii 1.0
element vertex 100
property float x
property float y
property float z
element face 81
property list uchar int vertex_index
end_header
22.677483 -52.117405 -20.03034
25.3927 -45.528236 -23.086138
27.244276 -39.476257 -26.36537
27.981943 -43.291882 -26.234266
21.035839 -52.552109 -18.869101
24.149979 -46.406712 -21.600355
27.954481 -38.025928 -28.245279
27.42075 -41.188805 -26.420259
28.440105 -39.792877 -28.196386
24.441334 -51.518257 -21.222101
21.347637 -49.923382 -18.901976
22.681633 -49.411217 -20.213148
24.152699 -48.756805 -21.52434
25.702587 -47.939072 -22.87945
26.413668 -42.437431 -24.707029
26.684875 -44.492222 -24.620382
27.262743 -46.942566 -24.321947
20.313598 -52.7027 -18.280308
20.133823 -54.18397 -18.20707
28.323635 -37.236055 -29.205862
28.144732 -36.507368 -29.152328
28.566447 -38.119529 -29.181415
28.197293 -38.909402 -28.220833
28.323635 -37.236055 -29.205862
28.947998 -39.023868 -29.118183
28.566447 -38.119529 -29.181415
22.782318 -53.661127 -19.843866
21.823364 -53.853838 -19.313142
23.559408 -51.817831 -20.62622
23.664244 -53.361553 -20.439747
22.782318 -53.661127 -19.843866
22.171151 -48.531115 -19.514594
21.648543 -48.831016 -18.768887
22.838149 -48.275032 -20.170179
22.014635 -49.667299 -19.557562
22.171151 -48.531115 -19.514594
27.383103 -38.805732 -26.19715
27.581761 -38.050689 -27.198978
26.900455 -40.132649 -25.443048
27.383103 -38.805732 -26.19715
26.828972 -40.956844 -25.536199
26.485151 -41.613236 -24.613878
26.900455 -40.132649 -25.443048
28.374872 -44.525644 -26.058888
28.015272 -46.350987 -25.102728
27.622343 -45.117224 -25.278106
21.002542 -54.07119 -18.732523
20.133823 -54.18397 -18.20707
21.856661 -52.334757 -19.44972
21.823364 -53.853838 -19.313142
21.002542 -54.07119 -18.732523
24.330128 -45.448885 -21.495126
23.572322 -46.772779 -20.863783
24.794168 -44.972156 -22.319458
24.330128 -45.448885 -21.495126
25.415529 -44.532919 -23.062349
24.771339 -45.967474 -22.343246
24.794168 -44.972156 -22.319458
27.936864 -37.325525 -28.138933
28.144732 -36.507368 -29.152328
27.599379 -38.751092 -27.305324
27.581761 -38.050689 -27.198978
27.936864 -37.325525 -28.138933
28.841807 -40.859626 -28.070772
28.612726 -42.609129 -27.089712
28.211024 -41.542379 -27.215326
28.841807 -40.859626 -28.070772
28.947998 -39.023868 -29.118183
24.659467 -53.072063 -21.003607
23.882377 -54.91536 -20.221252
23.664244 -53.361553 -20.439747
25.339291 -51.124185 -21.859539
24.659467 -53.072063 -21.003607
20.767787 -50.120443 -18.229401
21.648543 -48.831016 -18.768887
20.469496 -51.388336 -18.296746
20.767787 -50.120443 -18.229401
21.191738 -51.237746 -18.885539
20.313598 -52.7027 -18.280308
20.469496 -51.388336 -18.296746
23.415806 -47.908964 -20.906751
22.838149 -48.275032 -20.170179
23.572322 -46.772779 -20.863783
25.969917 -49.334593 -22.688213
25.339291 -51.124185 -21.859539
25.071961 -49.728665 -22.050776
25.926013 -42.987516 -23.872795
26.485151 -41.613236 -24.613878
25.903184 -43.982833 -23.896583
25.415529 -44.532919 -23.062349
25.926013 -42.987516 -23.872795
26.749995 -48.83634 -23.409462
25.969917 -49.334593 -22.688213
26.482665 -47.440819 -23.600699
27.619167 -48.339926 -24.111242
26.749995 -48.83634 -23.409462
27.619167 -48.339926 -24.111242
28.015272 -46.350987 -25.102728
28.374872 -44.525644 -26.058888
28.612726 -42.609129 -27.089712
3 17 4 18
3 19 6 20
3 21 8 22
3 23 22 6
3 21 22 23
3 25 24 8
3 0 26 27
3 0 28 30
3 28 9 29
3 28 29 30
3 31 10 32
3 33 11 34
3 35 34 10
3 33 34 35
3 1 12 5
3 1 13 12
3 2 36 37
3 2 38 39
3 2 40 42
3 40 14 41
3 40 41 42
3 3 15 7
3 3 16 15
3 3 43 45
3 45 44 16
3 43 44 45
3 4 46 47
3 4 48 50
3 48 0 49
3 48 49 50
3 51 5 52
3 53 5 54
3 55 1 56
3 57 56 5
3 55 56 57
3 6 58 59
3 6 60 62
3 60 2 61
3 60 61 62
3 6 7 2
3 8 7 6
3 8 3 7
3 8 63 65
3 65 64 3
3 63 64 65
3 67 66 8
3 9 68 70
3 68 69 70
3 9 71 72
3 10 73 74
3 10 75 76
3 10 77 79
3 77 4 78
3 77 78 79
3 11 4 10
3 11 0 4
3 5 80 82
3 80 11 81
3 80 81 82
3 12 11 5
3 12 0 11
3 12 9 0
3 13 9 12
3 13 83 85
3 85 84 9
3 83 84 85
3 14 86 87
3 14 88 90
3 88 1 89
3 88 89 90
3 7 14 2
3 15 14 7
3 15 1 14
3 15 13 1
3 16 13 15
3 16 91 93
3 93 92 13
3 91 92 93
3 16 94 95
3 97 96 16
3 99 98 3
