ply
format ascii 1.0
element vertex 146
property float x
property float y
property float z
element face 131
property list uchar int vertex_index
end_header
35.176552 5.436583 -57.136673
44.215004 -1.799307 -56.575638
33.109623 12.046621 -54.015938
35.575718 10.999767 -56.834152
43.967274 4.0723 -57.937431
35.402573 -0.51532 -55.617912
39.378979 8.224506 -58.116219
39.450535 2.369883 -57.568108
39.901051 -3.671761 -55.095421
34.152336 11.747091 -55.618629
33.448647 6.481318 -56.348587
33.370121 3.621405 -56.053444
33.435242 0.66847 -55.329048
35.228409 2.495169 -56.597542
44.062439 1.143999 -57.515999
41.663635 3.367552 -57.976387
41.812977 0.414455 -57.23748
39.648804 -0.621851 -56.554192
42.01619 -2.573503 -56.004959
44.377579 -4.782035 -55.150009
32.509518 9.720861 -54.802071
33.699974 9.210577 -56.201553
35.280746 8.288214 -57.214577
46.369446 1.585596 -57.342674
46.47176 -1.335859 -56.737556
46.58577 -4.271431 -55.618416
37.340282 9.811249 -57.664169
37.19017 6.977215 -57.842255
41.613667 6.295397 -58.202072
39.346375 5.32214 -58.091774
37.208252 4.053587 -57.540367
37.355225 1.072222 -56.760178
37.593719 -1.96629 -55.533012
32.777174 11.997578 -53.026432
33.509626 13.053465 -53.427605
32.420991 10.942279 -53.520043
32.777174 11.997578 -53.026432
32.80957 10.883741 -54.409004
32.120939 9.7794 -53.913109
32.420991 10.942279 -53.520043
47.562905 0.216492 -56.893067
47.536246 1.676112 -57.022155
47.614062 -1.244235 -56.590508
46.420603 0.124869 -57.040115
47.562905 0.216492 -56.893067
47.649158 -2.704007 -56.205749
47.614062 -1.244235 -56.590508
34.510745 -1.439438 -54.914894
33.527079 -0.847543 -54.770462
34.418908 0.076575 -55.47348
35.536028 -2.057052 -54.932224
34.510745 -1.439438 -54.914894
38.359631 9.017878 -57.890194
38.463645 10.420903 -57.664005
39.482994 9.627532 -57.89003
42.79047 5.183848 -58.069751
42.795383 6.637523 -58.026405
43.972187 5.525975 -57.894085
38.895689 -4.377797 -54.509426
37.742023 -3.525061 -54.728222
38.747385 -2.819025 -55.314217
40.036225 -5.244125 -54.185212
39.030862 -5.950161 -53.599216
38.895689 -4.377797 -54.509426
46.624832 -5.761922 -54.827328
47.722671 -5.639115 -55.012963
33.965172 13.027434 -54.318672
33.509626 13.053465 -53.427605
34.486528 12.877669 -55.120018
33.630979 11.896856 -54.817284
33.965172 13.027434 -54.318672
35.119238 12.619849 -55.818337
34.486528 12.877669 -55.120018
35.830929 12.246187 -56.426098
34.864027 11.373429 -56.226391
35.119238 12.619849 -55.818337
32.663218 5.452343 -55.737236
32.77701 6.819691 -55.762005
32.623956 4.022386 -55.589664
32.663218 5.452343 -55.737236
33.409384 5.051362 -56.201015
32.586636 2.5932 -55.356762
32.623956 4.022386 -55.589664
33.402681 2.144938 -55.691246
32.619197 1.116732 -54.994564
32.586636 2.5932 -55.356762
40.542715 8.698597 -58.024605
39.482994 9.627532 -57.89003
42.123943 -4.101809 -55.173298
41.066374 -4.650938 -54.718529
40.958621 -3.122632 -55.55019
43.304638 -5.206075 -54.745823
42.123943 -4.101809 -55.173298
43.196884 -3.677769 -55.577484
44.443523 -6.313969 -54.235893
43.304638 -5.206075 -54.745823
31.852467 8.592992 -54.213105
32.120939 9.7794 -53.913109
32.307446 8.439462 -54.988747
31.852467 8.592992 -54.213105
32.902673 8.184321 -55.688488
32.307446 8.439462 -54.988747
33.104746 9.465719 -55.501812
33.57431 7.845948 -56.27507
32.77701 6.819691 -55.762005
32.902673 8.184321 -55.688488
45.148714 4.286714 -57.685478
43.972187 5.525975 -57.894085
46.3498 3.043362 -57.3881
47.536246 1.676112 -57.022155
45.16836 2.828948 -57.640052
45.148714 4.286714 -57.685478
46.3498 3.043362 -57.3881
47.706164 -4.171793 -55.64618
46.528765 -2.803645 -56.177986
47.649158 -2.704007 -56.205749
47.722671 -5.639115 -55.012963
47.706164 -4.171793 -55.64618
32.648163 -0.360119 -54.566921
32.619197 1.116732 -54.994564
32.648163 -0.360119 -54.566921
33.527079 -0.847543 -54.770462
36.633432 11.744969 -56.931804
35.830929 12.246187 -56.426098
37.515715 11.15071 -57.346813
38.463645 10.420903 -57.664005
36.458 10.405508 -57.249161
36.633432 11.744969 -56.931804
37.515715 11.15071 -57.346813
41.660059 7.734043 -58.067532
42.795383 6.637523 -58.026405
40.496323 7.259951 -58.159146
40.542715 8.698597 -58.024605
41.660059 7.734043 -58.067532
36.631601 -2.782537 -54.889774
35.536028 -2.057052 -54.932224
36.498146 -1.240805 -55.575462
36.631601 -2.782537 -54.889774
37.742023 -3.525061 -54.728222
40.036225 -5.244125 -54.185212
41.066374 -4.650938 -54.718529
45.520737 -6.017224 -54.593125
45.481674 -4.526733 -55.384213
46.624832 -5.761922 -54.827328
44.443523 -6.313969 -54.235893
45.520737 -6.017224 -54.593125
3 0 11 10
3 0 13 11
3 1 16 14
3 1 18 16
3 1 19 18
3 2 33 34
3 2 35 36
3 2 37 39
3 37 20 38
3 37 38 39
3 3 21 9
3 3 22 21
3 40 23 41
3 42 24 43
3 44 43 23
3 42 43 44
3 46 45 24
3 5 47 49
3 49 48 12
3 47 48 49
3 5 50 51
3 6 52 54
3 52 26 53
3 52 53 54
3 6 27 26
3 4 55 57
3 55 28 56
3 55 56 57
3 7 29 15
3 7 30 29
3 7 31 30
3 8 32 17
3 8 58 60
3 60 59 32
3 58 59 60
3 8 61 63
3 61 62 63
3 65 64 25
3 66 2 67
3 68 9 69
3 70 69 2
3 68 69 70
3 71 9 72
3 73 3 74
3 75 74 9
3 73 74 75
3 10 76 77
3 11 78 80
3 80 79 10
3 78 79 80
3 11 81 82
3 11 83 85
3 83 12 84
3 83 84 85
3 13 12 11
3 13 5 12
3 86 6 87
3 14 15 4
3 16 15 14
3 16 7 15
3 16 17 7
3 18 17 16
3 18 8 17
3 18 88 90
3 90 89 8
3 88 89 90
3 19 91 93
3 93 92 18
3 91 92 93
3 19 94 95
3 20 96 97
3 20 98 99
3 9 20 2
3 21 20 9
3 21 100 102
3 102 101 20
3 100 101 102
3 21 103 105
3 103 10 104
3 103 104 105
3 22 10 21
3 22 0 10
3 106 4 107
3 23 108 109
3 23 110 112
3 110 4 111
3 110 111 112
3 23 14 4
3 24 14 23
3 24 1 14
3 24 25 1
3 113 25 114
3 115 114 24
3 113 114 115
3 117 116 25
3 12 118 119
3 121 120 12
3 122 3 123
3 26 124 125
3 26 126 128
3 126 3 127
3 126 127 128
3 26 22 3
3 27 22 26
3 27 0 22
3 28 129 130
3 28 131 133
3 131 6 132
3 131 132 133
3 15 28 4
3 29 28 15
3 29 6 28
3 29 27 6
3 30 27 29
3 30 0 27
3 30 13 0
3 31 13 30
3 31 5 13
3 17 31 7
3 32 31 17
3 32 5 31
3 32 134 136
3 136 135 5
3 134 135 136
3 138 137 32
3 140 139 8
3 25 19 1
3 141 19 142
3 143 142 25
3 141 142 143
3 145 144 19
