ply
format ascii 1.0
element vertex 616
property float x
property float y
property float z
element face 728
property list uchar int vertex_index
end_header
3.62484 -98.800415 1.014847
13.334026 -74.56987 -2.105564
4.467888 -120.595085 -1.732639
11.692596 -80.275421 13.229957
2.215578 -110.527573 -0.653854
5.712626 -117.393219 -11.676729
2.458542 -106.336746 -8.564226
8.464184 -86.885422 0.577958
7.99288 -78.167175 -5.72003
10.066988 -126.653198 -1.48901
0.504147 -110.498337 9.934438
3.166445 -99.522499 9.137257
7.849922 -89.148964 16.277082
9.259214 -89.393875 7.417199
13.704596 -79.669525 4.778914
11.892181 -68.605652 2.658763
12.0634 -124.464005 -12.638765
2.450436 -104.762596 0.245845
2.265038 -109.154083 -5.053541
2.148937 -102.971313 -3.50868
11.309196 -80.837891 -0.692741
7.766632 -83.216057 -2.506655
10.676249 -76.54631 -3.876448
1.209015 -105.015068 9.603779
2.320681 -99.273369 14.078753
9.419134 -84.970367 19.708715
10.444981 -84.566612 14.727353
8.627937 -89.176605 11.560843
11.447102 -84.665405 10.18141
12.06287 -84.619576 6.140661
12.929182 -80.21273 8.780594
6.871096 -124.336121 -1.787933
10.938772 -126.227127 -7.416
7.777819 -123.529396 -7.561543
6.80835 -113.818031 -14.895702
9.712988 -118.141617 -15.938604
13.797455 -68.181259 -3.121788
2.903324 -115.879265 -1.351109
5.197063 -119.589027 -7.175062
3.314762 -114.743439 -6.339998
3.611425 -112.318214 -10.393084
4.878407 -108.418213 -13.251961
5.703695 -92.829529 1.206652
3.048992 -96.448593 -2.237713
4.998421 -89.834267 -1.836802
5.270361 -85.354935 -4.85932
6.285885 -123.951195 4.253069
3.574671 -120.582787 4.195117
1.181688 -115.557693 10.157408
1.990078 -116.045143 4.227386
1.524126 -110.806213 4.392855
2.1555 -105.243256 4.646094
3.805567 -99.642326 4.796871
8.493141 -85.9263 24.966795
5.279943 -94.019669 12.869998
6.043673 -94.297218 8.432982
6.277014 -94.188919 4.572034
9.201134 -88.884415 3.800022
11.973747 -83.532745 2.568504
13.802053 -77.900253 1.193374
12.661724 -75.525307 7.450027
13.661898 -74.336029 3.553209
14.008818 -71.924179 0.042767
12.495409 -65.775375 -0.614498
8.603985 -121.494148 -12.426931
13.373617 -121.355095 -16.493017
2.328968 -99.64048 -6.568405
2.920362 -101.792244 0.675177
2.322983 -104.055443 -1.719412
2.696606 -100.960114 -1.137346
12.481852 -77.731682 -1.417446
10.942091 -78.872086 -2.281313
12.145452 -75.627533 -3.016037
1.223516 -102.004745 14.631403
10.988001 -80.365158 15.598252
10.652824 -82.492058 16.381166
11.275173 -82.399796 13.976517
10.967567 -84.581116 12.393229
11.866972 -82.412079 11.671248
12.392609 -82.45166 9.479191
12.349901 -80.252419 10.952389
5.565819 -122.614929 -1.801954
7.325418 -124.083466 -4.74901
6.014402 -122.29364 -4.697701
2.446497 -113.267746 -1.039286
3.173569 -115.453659 -3.939552
2.62483 -112.803551 -3.490126
2.264393 -107.936264 -6.931314
2.722021 -110.919609 -7.775217
2.910652 -109.433151 -9.534975
4.057529 -110.554489 -11.976999
3.40011 -107.567749 -11.013613
7.026041 -89.859726 0.993984
5.297098 -91.536224 -0.337931
6.605696 -88.395615 -0.535057
7.722197 -80.83728 -4.087997
6.27158 -84.297592 -3.586653
6.576427 -81.756538 -5.174473
4.791172 -122.443161 4.216763
3.297352 -120.240067 7.213628
0.168879 -110.27285 12.876438
0.445107 -112.81414 13.076459
0.666769 -113.110565 10.061674
1.512682 -115.864647 7.159228
1.098518 -113.348816 7.129273
1.618189 -113.487213 4.293205
0.999264 -110.693771 7.105012
2.046038 -102.248528 9.393064
1.721817 -105.172585 7.055979
2.517368 -102.394333 7.001493
2.86224 -102.43277 4.751196
3.568848 -99.651375 6.896229
8.860514 -86.978836 17.986059
8.513998 -87.316498 20.585672
6.586668 -91.494522 14.583439
9.001888 -89.314407 9.418742
7.348808 -91.686234 10.021674
7.653753 -91.812317 7.964351
6.265377 -94.351784 6.434971
7.790993 -91.799446 6.04579
7.714254 -91.526779 4.255749
9.334444 -89.288788 5.548388
13.069986 -82.183792 5.456623
12.111958 -84.255013 4.30302
13.15303 -81.658539 3.617907
13.056374 -80.761322 1.87487
13.841389 -78.971962 2.941034
11.975588 -75.811897 9.552557
12.496719 -72.398895 4.905633
12.971453 -71.514709 3.054538
13.920546 -73.300568 1.753277
13.286192 -70.337738 1.300183
13.441221 -68.854202 -0.358341
12.263201 -67.321304 0.968516
11.489302 -125.512032 -10.166645
5.445272 -118.652725 -9.570232
6.742176 -120.787132 -9.916603
7.072973 -119.570358 -12.113071
11.466768 -119.894211 -16.2778
2.9849 -94.680077 -3.713945
2.402369 -98.115334 -4.320337
2.665468 -96.12516 -5.735722
2.215895 -107.683807 -0.213852
2.294422 -110.005745 -2.950329
2.19133 -107.080986 -2.344959
2.085176 -106.123116 -4.286915
2.051821 -104.783485 -6.02103
9.92923 -83.885117 -0.003981
8.050226 -85.24826 -0.961967
9.535164 -82.078217 -1.568441
9.261568 -79.890427 -3.145144
9.202028 -77.376053 -4.755344
0.273554 -107.598816 12.612359
0.688482 -107.781342 9.781874
0.748123 -104.853409 12.295929
1.571676 -102.092834 11.934004
2.708195 -99.365578 11.528292
10.021233 -82.72757 18.866278
9.921095 -84.688408 17.171816
9.269831 -86.808395 15.49091
8.219166 -89.09446 13.8475
9.718979 -86.797546 13.117979
10.160742 -86.893951 10.877611
10.530489 -87.004349 8.773277
10.761808 -87.009613 6.802726
11.82971 -84.717972 8.097502
12.807673 -82.413666 7.40766
13.392836 -80.053421 6.72268
8.377954 -125.699051 -1.685291
10.442335 -126.608574 -4.486588
8.805931 -125.540565 -4.684271
9.29277 -125.061012 -7.567156
9.784971 -124.261414 -10.237341
6.124538 -115.786667 -13.457554
7.502993 -118.018394 -13.974655
8.149637 -116.114632 -15.483189
13.78348 -71.373878 -2.69133
13.034046 -72.359116 -3.68811
13.533152 -69.099518 -4.222702
11.667635 -78.156342 12.485521
3.579201 -118.3339 -1.582422
4.879831 -120.228584 -4.543024
3.929354 -117.936806 -4.290421
4.159973 -117.266426 -6.814556
4.328499 -116.289406 -9.102764
2.678513 -112.034508 -5.749233
3.414524 -113.708771 -8.50518
4.550886 -114.97422 -11.107677
4.969242 -113.297714 -12.795763
5.713406 -111.250885 -14.153496
4.558155 -95.809082 1.206823
3.318495 -97.826485 -0.671345
4.189539 -94.680305 -0.38895
3.897465 -93.142715 -1.90234
3.841341 -91.221489 -3.372385
6.31192 -86.527443 -2.048807
4.952444 -87.758453 -3.332134
11.888533 -73.192871 -4.602966
8.092859 -125.536072 1.334455
6.49234 -124.289772 1.237905
5.125292 -122.661522 1.191267
4.002266 -120.707573 1.197783
2.244984 -118.182487 7.190253
2.641453 -118.42952 4.19626
3.124041 -118.48893 1.26047
2.489561 -116.06279 1.382415
2.099564 -113.477669 1.56463
1.95612 -110.773079 1.802267
1.210091 -107.952667 7.084181
1.705326 -108.045578 4.516973
2.060305 -107.982246 2.080703
2.410133 -105.135513 2.373048
2.999653 -102.261917 2.640475
3.818533 -99.387688 2.83629
8.944983 -85.397148 22.315462
8.230999 -87.791672 23.265406
3.421959 -96.618233 16.064873
3.699539 -96.60096 13.489043
4.102879 -96.709244 11.07645
6.961134 -91.545532 12.226169
5.680735 -94.147324 10.574906
4.520969 -96.866875 8.82156
4.835949 -96.967171 6.714516
4.956825 -96.891808 4.747017
4.850515 -96.532417 2.913518
6.06971 -93.704552 2.834467
7.43511 -90.898857 2.579584
8.885311 -88.097176 2.152826
10.806782 -86.78669 4.958284
10.653673 -86.230957 3.22552
10.336044 -85.272896 1.581878
11.683119 -82.398308 0.913405
12.81213 -79.45282 0.205173
13.614492 -76.429573 -0.482485
12.384439 -78.063843 10.242024
13.020103 -77.913193 8.098582
13.540014 -77.607903 6.063081
11.882341 -73.029541 6.85565
13.234896 -75.058914 5.450236
13.9104 -77.055977 4.135717
14.108797 -76.184433 2.308861
14.13282 -74.949181 0.569772
14.007088 -73.33902 -1.093899
13.950823 -70.20816 -1.582958
13.462547 -67.076385 -1.916433
6.408199 -121.688797 -7.425409
8.195843 -122.669548 -10.143696
10.276794 -123.138985 -12.611786
9.076221 -119.989586 -14.365036
10.811666 -121.686455 -14.633444
12.674538 -123.080132 -14.759495
2.466993 -99.734489 -2.797476
2.094252 -101.496254 -5.119896
2.26232 -103.059074 -7.545086
2.862503 -100.966614 -8.875204
3.001184 -104.360054 -9.952648
7.631744 -78.560577 -6.26805
6.923517 -80.355259 -5.995271
7.284654 -79.961857 -5.447252
3.284617 -119.972546 8.713435
3.982046 -121.108086 7.21643
7.710064 -89.262673 17.558428
8.21536 -88.177608 18.412917
8.355218 -88.0639 17.131571
7.078034 -90.374165 16.684822
7.710064 -89.262673 17.558428
7.218295 -90.321743 15.43026
6.446407 -91.546943 15.838
7.078034 -90.374165 16.684822
12.431817 -70.060181 2.85665
12.17491 -70.571796 3.752022
11.635274 -69.117267 3.554134
11.135644 -126.949303 -2.814706
10.981138 -126.910743 -1.344126
12.999185 -124.94167 -12.550047
12.712136 -125.465683 -11.313987
11.776351 -124.988019 -11.402705
13.346331 -124.296448 -13.668055
12.999185 -124.94167 -12.550047
2.970578 -94.339401 -5.437131
2.825184 -95.402618 -4.724833
3.130294 -93.61686 -4.426242
0.36949 -106.174331 13.873362
0.178644 -107.526409 14.091114
0.606775 -104.801628 13.715147
0.510838 -106.226112 12.454144
0.36949 -106.174331 13.873362
10.138183 -81.649956 18.451723
9.762094 -81.819241 19.695222
5.871522 -108.63063 -14.222478
6.289022 -110.046966 -14.673246
5.295907 -109.834549 -13.702728
4.71158 -87.156022 -4.849337
4.552621 -88.357781 -4.085744
5.111403 -86.556694 -4.095727
5.08973 -85.873752 -5.594997
4.71158 -87.156022 -4.849337
12.34255 -71.524982 -4.916421
12.461289 -72.775993 -4.145538
12.915306 -71.108105 -4.458993
7.162391 -124.504345 4.273721
6.31237 -123.64383 5.724981
7.189372 -124.743634 2.793762
8.065878 -125.296784 2.814414
7.162391 -124.504345 4.273721
1.144008 -115.358284 11.677814
0.775717 -113.986507 13.137339
0.813397 -114.185916 11.616934
1.616314 -116.667171 10.184503
1.144008 -115.358284 11.677814
1.713336 -116.87009 8.673831
2.147962 -117.979568 8.700926
1.616314 -116.667171 10.184503
8.273374 -86.215294 26.301865
8.30781 -85.039803 25.773354
8.245246 -87.139175 25.481653
8.273374 -86.215294 26.301865
9.182059 -85.183757 21.012089
9.16686 -84.251602 21.862559
9.403935 -84.038211 20.559186
7.815322 -88.780079 22.390868
8.372499 -87.554085 21.925539
7.956822 -88.542492 21.051001
7.781159 -89.037426 23.772208
7.815322 -88.780079 22.390868
4.093891 -95.386746 17.000761
3.3856 -96.707238 17.43143
4.057532 -95.47575 18.367318
4.489741 -95.310315 13.179521
4.323528 -95.303249 14.406838
5.11373 -94.012604 14.097316
11.797581 -77.034096 10.996357
12.026037 -78.110093 11.363772
11.43918 -77.080345 12.118105
11.310237 -71.721779 6.596829
10.941505 -72.016655 7.58861
12.556099 -64.882404 -1.345384
13.039668 -65.532909 -1.996351
12.978978 -66.42588 -1.265465
11.815641 -126.602104 -7.247378
11.567423 -126.792828 -5.782672
10.690554 -126.417851 -5.951294
14.382989 -121.923916 -16.519531
14.033449 -122.786435 -15.65277
13.024078 -122.217613 -15.626256
3.428956 -101.496456 -9.996552
3.40156 -99.75 -9.459184
3.498296 -103.193176 -10.535274
2.931843 -102.663334 -9.413926
3.428956 -101.496456 -9.996552
3.653815 -104.847126 -11.085674
3.498296 -103.193176 -10.535274
1.16447 -102.017745 16.05643
0.844472 -103.377296 14.882884
1.668763 -100.655735 15.711177
1.16447 -102.017745 16.05643
2.217345 -99.290047 15.434852
1.772099 -100.639057 14.355078
1.668763 -100.655735 15.711177
10.820412 -81.428608 15.989709
10.453979 -81.5322 17.209167
10.621567 -80.46875 16.817709
8.481827 -112.67313 -16.322015
7.958414 -113.837513 -15.770881
7.331764 -112.653648 -15.446837
13.709051 -67.038501 -3.841947
13.599623 -66.610794 -3.241467
6.293845 -82.213001 -5.804661
5.640812 -84.0122 -5.647085
5.923394 -83.555736 -5.016896
6.293845 -82.213001 -5.804661
6.923517 -80.355259 -5.995271
5.476313 -122.96365 5.73615
6.31237 -123.64383 5.724981
4.728956 -122.209633 5.717997
5.538528 -123.197178 4.234916
5.476313 -122.96365 5.73615
4.044262 -121.341614 5.715196
4.728956 -122.209633 5.717997
3.982046 -121.108086 7.21643
0.306993 -111.543495 12.976449
0.272726 -111.435142 14.496215
0.134611 -110.164498 14.396205
8.624643 -84.761605 24.477496
8.30781 -85.039803 25.773354
8.042102 -88.34644 19.712723
8.687256 -87.147667 19.285865
8.21536 -88.177608 18.412917
7.956822 -88.542492 21.051001
8.042102 -88.34644 19.712723
5.767093 -92.750031 14.954037
6.446407 -91.546943 15.838
5.933306 -92.757095 13.726719
5.11373 -94.012604 14.097316
5.767093 -92.750031 14.954037
11.170577 -74.796856 10.298386
11.593156 -75.908123 10.651623
11.568058 -74.639248 9.228235
11.170577 -74.796856 10.298386
11.911126 -74.495953 8.17697
12.318656 -75.668602 8.501292
11.568058 -74.639248 9.228235
11.937542 -71.013889 4.67757
11.617425 -71.406456 5.621821
12.734086 -71.956802 3.980085
11.937542 -71.013889 4.67757
12.17491 -70.571796 3.752022
12.387363 -125.940003 -10.028968
12.112098 -126.29755 -8.653645
11.214037 -125.86958 -8.791322
12.387363 -125.940003 -10.028968
12.712136 -125.465683 -11.313987
11.89627 -118.827031 -16.915653
10.589878 -119.017914 -16.108202
11.019381 -117.950733 -16.746056
12.847113 -119.591144 -17.060187
11.89627 -118.827031 -16.915653
13.800538 -120.321586 -17.167795
12.420192 -120.624653 -16.385408
12.847113 -119.591144 -17.060187
14.821855 -120.933067 -17.245859
13.800538 -120.321586 -17.167795
0.126306 -108.863426 14.223154
0.134611 -110.164498 14.396205
0.221217 -108.935833 12.744398
0.126306 -108.863426 14.223154
0.178644 -107.526409 14.091114
0.98582 -103.429077 13.463666
0.606775 -104.801628 13.715147
0.844472 -103.377296 14.882884
9.704985 -82.916813 20.137968
9.762094 -81.819241 19.695222
9.720184 -83.848968 19.287497
9.403935 -84.038211 20.559186
9.704985 -82.916813 20.137968
10.337029 -82.609814 17.623722
10.138183 -81.649956 18.451723
10.453979 -81.5322 17.209167
10.927846 -67.680855 3.378784
11.635274 -69.117267 3.554134
11.203882 -67.116715 2.519164
10.927846 -67.680855 3.378784
8.629057 -114.985814 -16.064624
7.478993 -114.966331 -15.189445
7.958414 -113.837513 -15.770881
9.378619 -116.030769 -16.319951
8.629057 -114.985814 -16.064624
10.160294 -117.044262 -16.547659
8.931313 -117.128124 -15.710897
9.378619 -116.030769 -16.319951
11.019381 -117.950733 -16.746056
10.160294 -117.044262 -16.547659
13.164859 -69.478306 -4.726289
12.915306 -71.108105 -4.458993
13.283599 -70.729317 -3.955406
13.576899 -67.497631 -4.392404
13.665304 -68.640389 -3.672245
13.709051 -67.038501 -3.841947
13.435976 -67.841034 -4.949404
13.576899 -67.497631 -4.392404
13.164859 -69.478306 -4.726289
13.435976 -67.841034 -4.949404
10.540344 -79.421566 16.40219
10.621567 -80.46875 16.817709
10.942927 -79.320022 15.206002
10.540344 -79.421566 16.40219
11.295224 -79.275154 14.021854
11.340298 -80.32029 14.414105
10.942927 -79.320022 15.206002
11.282744 -78.215615 13.649636
11.680115 -79.215881 12.857739
11.295224 -79.275154 14.021854
11.031254 -77.169559 13.257784
11.282744 -78.215615 13.649636
11.43918 -77.080345 12.118105
11.031254 -77.169559 13.257784
6.784292 -111.370075 -15.075734
7.331764 -112.653648 -15.446837
6.260878 -112.534458 -14.524599
7.359907 -110.166156 -15.595484
6.784292 -111.370075 -15.075734
6.289022 -110.046966 -14.673246
3.558515 -91.887565 -4.255463
3.130294 -93.61686 -4.426242
3.41312 -92.950783 -3.543165
3.997069 -90.089299 -4.105869
4.396892 -89.489971 -3.352259
4.552621 -88.357781 -4.085744
3.558515 -91.887565 -4.255463
3.997069 -90.089299 -4.105869
5.460181 -84.531017 -6.382761
5.08973 -85.873752 -5.594997
5.640812 -84.0122 -5.647085
11.839564 -71.844352 -5.388768
12.34255 -71.524982 -4.916421
11.241851 -73.55708 -5.045008
11.839564 -71.844352 -5.388768
10.635709 -75.233799 -4.68175
11.282391 -74.869591 -4.239707
11.241851 -73.55708 -5.045008
9.898599 -75.648671 -5.121198
9.939139 -76.961182 -4.315896
10.635709 -75.233799 -4.68175
9.312197 -75.986264 -5.577854
9.898599 -75.648671 -5.121198
8.707624 -76.381824 -6.060197
8.597454 -77.771614 -5.237687
9.312197 -75.986264 -5.577854
8.303279 -76.714264 -6.556809
8.707624 -76.381824 -6.060197
7.942143 -77.107666 -7.104828
7.631744 -78.560577 -6.26805
8.303279 -76.714264 -6.556809
9.982226 -126.505985 -0.007339
10.981138 -126.910743 -1.344126
8.995162 -125.947422 1.404393
8.968181 -125.708134 2.884353
8.065878 -125.296784 2.814414
9.079923 -126.094635 -0.077277
9.982226 -126.505985 -0.007339
8.995162 -125.947422 1.404393
0.485368 -112.653221 14.612964
0.312987 -111.274224 16.03272
0.272726 -111.435142 14.496215
0.485368 -112.653221 14.612964
0.775717 -113.986507 13.137339
2.674146 -119.008358 8.712613
3.284617 -119.972546 8.713435
2.771168 -119.211277 7.201941
2.674146 -119.008358 8.712613
2.147962 -117.979568 8.700926
8.850564 -84.497028 23.151829
9.16686 -84.251602 21.862559
8.719062 -85.661724 23.641129
8.624643 -84.761605 24.477496
8.850564 -84.497028 23.151829
8.114175 -88.071862 24.630958
8.245246 -87.139175 25.481653
8.36207 -86.858986 24.116101
8.114175 -88.071862 24.630958
7.781159 -89.037426 23.772208
2.767984 -97.962479 16.427912
3.3856 -96.707238 17.43143
2.87132 -97.945801 15.071813
2.217345 -99.290047 15.434852
2.767984 -97.962479 16.427912
4.184738 -95.311886 15.694753
4.093891 -95.386746 17.000761
3.560749 -96.609597 14.776958
4.184738 -95.311886 15.694753
4.323528 -95.303249 14.406838
12.180014 -76.93787 9.897291
11.797581 -77.034096 10.996357
11.593156 -75.908123 10.651623
11.521434 -73.24807 7.879781
10.941505 -72.016655 7.58861
12.272032 -74.277424 7.152838
11.911126 -74.495953 8.17697
11.521434 -73.24807 7.879781
12.18953 -72.714218 5.880641
11.310237 -71.721779 6.596829
11.617425 -71.406456 5.621821
13.432169 -66.058357 -2.638789
13.599623 -66.610794 -3.241467
13.630001 -67.628822 -2.519111
13.432169 -66.058357 -2.638789
13.039668 -65.532909 -1.996351
11.389392 -66.47454 1.674041
12.077691 -67.963478 1.81364
11.203882 -67.116715 2.519164
11.608277 -65.801147 0.86876
11.389392 -66.47454 1.674041
11.724381 -65.028183 0.077253
12.379305 -66.548339 0.177009
11.608277 -65.801147 0.86876
11.889678 -64.251368 -0.666627
11.724381 -65.028183 0.077253
12.556099 -64.882404 -1.345384
11.889678 -64.251368 -0.666627
11.323317 -126.926991 -4.313495
11.135644 -126.949303 -2.814706
10.254662 -126.630886 -2.987799
11.323317 -126.926991 -4.313495
11.567423 -126.792828 -5.782672
11.815641 -126.602104 -7.247378
12.112098 -126.29755 -8.653645
13.6519 -123.604512 -14.72842
13.346331 -124.296448 -13.668055
12.368969 -123.772069 -13.69913
13.6519 -123.604512 -14.72842
14.033449 -122.786435 -15.65277
15.831226 -121.501889 -17.272373
14.382989 -121.923916 -16.519531
14.821855 -120.933067 -17.245859
3.018931 -94.96191 -6.407415
2.970578 -94.339401 -5.437131
2.825671 -96.77813 -6.809401
3.018931 -94.96191 -6.407415
2.657421 -98.535789 -7.225743
2.497218 -97.88282 -6.152064
2.825671 -96.77813 -6.809401
2.924188 -99.198857 -8.379143
3.40156 -99.75 -9.459184
2.595735 -100.303547 -7.721805
2.657421 -98.535789 -7.225743
2.924188 -99.198857 -8.379143
3.853278 -106.450974 -11.616156
3.200647 -105.963902 -10.48313
3.653815 -104.847126 -11.085674
4.592427 -106.876205 -12.73533
4.139259 -107.992981 -12.132787
3.853278 -106.450974 -11.616156
5.510205 -107.171841 -13.745787
4.592427 -106.876205 -12.73533
5.871522 -108.63063 -14.222478
5.510205 -107.171841 -13.745787
3 0 69 67
3 1 72 70
3 3 76 74
3 3 78 76
3 3 80 78
3 2 83 81
3 4 86 84
3 6 89 87
3 6 91 89
3 7 94 92
3 8 97 95
3 8 256 258
3 258 257 97
3 256 257 258
3 259 99 260
3 10 102 100
3 10 104 102
3 10 106 104
3 11 109 107
3 11 111 109
3 12 261 263
3 263 262 112
3 261 262 263
3 12 264 265
3 12 266 268
3 266 114 267
3 266 267 268
3 13 117 115
3 13 119 117
3 13 121 119
3 14 124 122
3 14 126 124
3 15 269 271
3 269 129 270
3 269 270 271
3 15 131 129
3 15 133 131
3 9 272 273
3 16 274 276
3 276 275 134
3 274 275 276
3 16 277 278
3 5 137 135
3 279 141 280
3 281 280 139
3 279 280 281
3 17 144 142
3 19 145 68
3 19 146 145
3 20 149 147
3 22 150 71
3 22 151 150
3 282 152 283
3 284 154 285
3 286 285 152
3 284 285 286
3 24 155 73
3 24 156 155
3 287 157 288
3 26 158 75
3 26 159 158
3 26 161 159
3 28 162 77
3 28 163 162
3 28 165 163
3 30 166 79
3 30 167 166
3 31 170 168
3 33 171 82
3 33 172 171
3 34 175 173
3 36 178 176
3 37 182 180
3 39 183 85
3 39 184 183
3 18 185 143
3 40 186 88
3 40 187 186
3 40 188 187
3 41 189 90
3 41 289 291
3 291 290 189
3 289 290 291
3 42 192 190
3 44 193 93
3 44 194 193
3 21 195 148
3 45 196 96
3 45 292 294
3 294 293 196
3 292 293 294
3 45 295 296
3 297 197 298
3 299 298 177
3 297 298 299
3 46 300 301
3 46 302 304
3 302 198 303
3 302 303 304
3 46 199 198
3 47 200 98
3 47 201 200
3 48 305 307
3 307 306 101
3 305 306 307
3 48 308 309
3 48 310 312
3 310 202 311
3 310 311 312
3 49 203 103
3 49 204 203
3 49 205 204
3 50 206 105
3 50 207 206
3 23 208 153
3 51 209 108
3 51 210 209
3 51 211 210
3 52 212 110
3 52 213 212
3 53 313 314
3 53 315 316
3 25 317 319
3 317 214 318
3 317 318 319
3 320 215 321
3 322 321 113
3 320 321 322
3 324 323 215
3 325 216 326
3 325 326 327
3 54 328 330
3 328 217 329
3 328 329 330
3 54 218 217
3 27 219 160
3 55 220 116
3 55 221 220
3 55 222 221
3 56 223 118
3 56 224 223
3 56 225 224
3 57 226 120
3 57 227 226
3 29 228 164
3 58 229 123
3 58 230 229
3 58 231 230
3 59 232 125
3 59 233 232
3 331 234 332
3 333 332 179
3 331 332 333
3 60 235 127
3 60 236 235
3 334 237 335
3 61 238 128
3 61 239 238
3 61 240 239
3 62 241 130
3 62 242 241
3 62 243 242
3 63 244 132
3 63 336 338
3 338 337 244
3 336 337 338
3 32 339 341
3 341 340 169
3 339 340 341
3 38 245 181
3 64 246 136
3 64 247 246
3 35 248 174
3 65 249 138
3 65 250 249
3 65 342 344
3 344 343 250
3 342 343 344
3 43 251 191
3 66 252 140
3 66 253 252
3 345 254 346
3 347 255 348
3 349 348 254
3 347 348 349
3 351 350 255
3 67 68 17
3 69 68 67
3 69 19 68
3 70 71 20
3 72 71 70
3 72 22 71
3 352 73 353
3 354 73 355
3 356 24 357
3 358 357 73
3 356 357 358
3 74 359 361
3 359 75 360
3 359 360 361
3 76 75 74
3 76 26 75
3 76 77 26
3 78 77 76
3 78 28 77
3 78 79 28
3 80 79 78
3 80 30 79
3 81 82 31
3 83 82 81
3 83 33 82
3 364 363 34
3 362 363 364
3 366 365 36
3 84 85 37
3 86 85 84
3 86 39 85
3 87 88 18
3 89 88 87
3 89 40 88
3 89 90 40
3 91 90 89
3 91 41 90
3 92 93 42
3 94 93 92
3 94 44 93
3 95 96 21
3 97 96 95
3 97 45 96
3 97 367 369
3 369 368 45
3 367 368 369
3 371 370 97
3 372 46 373
3 374 98 375
3 376 375 46
3 374 375 376
3 99 377 379
3 377 98 378
3 377 378 379
3 99 47 98
3 100 380 382
3 380 101 381
3 380 381 382
3 102 101 100
3 102 48 101
3 102 103 48
3 104 103 102
3 104 49 103
3 104 105 49
3 106 105 104
3 106 50 105
3 107 108 23
3 109 108 107
3 109 51 108
3 109 110 51
3 111 110 109
3 111 52 110
3 383 53 384
3 112 113 25
3 385 113 386
3 387 386 112
3 385 386 387
3 389 388 113
3 114 390 391
3 114 392 394
3 392 54 393
3 392 393 394
3 115 116 27
3 117 116 115
3 117 55 116
3 117 118 55
3 119 118 117
3 119 56 118
3 119 120 56
3 121 120 119
3 121 57 120
3 122 123 29
3 124 123 122
3 124 58 123
3 124 125 58
3 126 125 124
3 126 59 125
3 395 127 396
3 397 127 398
3 399 60 400
3 401 400 127
3 399 400 401
3 402 128 403
3 129 404 406
3 404 128 405
3 404 405 406
3 129 61 128
3 129 130 61
3 131 130 129
3 131 62 130
3 131 132 62
3 133 132 131
3 133 63 132
3 134 407 409
3 409 408 32
3 407 408 409
3 411 410 134
3 135 136 38
3 137 136 135
3 137 64 136
3 412 138 413
3 414 413 35
3 412 413 414
3 415 138 416
3 417 65 418
3 419 418 138
3 417 418 419
3 421 420 65
3 139 140 43
3 141 140 139
3 141 66 140
3 142 143 4
3 144 143 142
3 144 18 143
3 68 144 17
3 145 144 68
3 145 18 144
3 145 87 18
3 146 87 145
3 146 6 87
3 147 148 7
3 149 148 147
3 149 21 148
3 71 149 20
3 150 149 71
3 150 21 149
3 150 95 21
3 151 95 150
3 151 8 95
3 422 100 423
3 152 424 426
3 424 100 425
3 424 425 426
3 152 10 100
3 152 153 10
3 154 153 152
3 154 23 153
3 73 427 429
3 427 154 428
3 427 428 429
3 155 154 73
3 155 23 154
3 155 107 23
3 156 107 155
3 156 11 107
3 157 430 431
3 157 432 434
3 432 25 433
3 432 433 434
3 75 435 437
3 435 157 436
3 435 436 437
3 158 157 75
3 158 25 157
3 158 112 25
3 159 112 158
3 159 12 112
3 159 160 12
3 161 160 159
3 161 27 160
3 77 161 26
3 162 161 77
3 162 27 161
3 162 115 27
3 163 115 162
3 163 13 115
3 163 164 13
3 165 164 163
3 165 29 164
3 79 165 28
3 166 165 79
3 166 29 165
3 166 122 29
3 167 122 166
3 167 14 122
3 438 15 439
3 441 440 15
3 168 169 9
3 170 169 168
3 170 32 169
3 82 170 31
3 171 170 82
3 171 32 170
3 171 134 32
3 172 134 171
3 172 16 134
3 173 174 5
3 175 174 173
3 175 35 174
3 442 175 443
3 444 443 34
3 442 443 444
3 445 175 446
3 447 35 448
3 449 448 175
3 447 448 449
3 451 450 35
3 176 177 1
3 178 177 176
3 178 452 454
3 454 453 177
3 452 453 454
3 455 178 456
3 457 456 36
3 455 456 457
3 458 178 459
3 461 460 178
3 462 74 463
3 464 74 465
3 466 3 467
3 468 467 74
3 466 467 468
3 469 179 470
3 471 470 3
3 469 470 471
3 472 179 473
3 475 474 179
3 180 181 2
3 182 181 180
3 182 38 181
3 85 182 37
3 183 182 85
3 183 38 182
3 183 135 38
3 184 135 183
3 184 5 135
3 143 86 4
3 185 86 143
3 185 39 86
3 88 185 18
3 186 185 88
3 186 39 185
3 186 184 39
3 187 184 186
3 187 5 184
3 187 173 5
3 188 173 187
3 188 34 173
3 90 188 40
3 189 188 90
3 189 34 188
3 189 476 478
3 478 477 34
3 476 477 478
3 481 480 189
3 479 480 481
3 190 191 0
3 192 191 190
3 192 43 191
3 93 192 42
3 193 192 93
3 193 43 192
3 193 139 43
3 194 139 193
3 194 482 484
3 484 483 139
3 482 483 484
3 148 94 7
3 195 94 148
3 195 44 94
3 96 195 21
3 196 195 96
3 196 44 195
3 196 194 44
3 485 194 486
3 487 486 196
3 485 486 487
3 489 488 194
3 492 491 45
3 490 491 492
3 177 72 1
3 197 72 177
3 197 22 72
3 493 197 494
3 495 197 496
3 497 22 498
3 499 498 197
3 497 498 499
3 500 151 501
3 502 501 22
3 500 501 502
3 503 151 504
3 505 8 506
3 507 506 151
3 505 506 507
3 508 8 509
3 512 511 8
3 510 511 512
3 513 9 514
3 198 515 517
3 515 516 517
3 198 518 520
3 518 9 519
3 518 519 520
3 198 168 9
3 199 168 198
3 199 31 168
3 98 199 46
3 200 199 98
3 200 31 199
3 200 81 31
3 201 81 200
3 201 2 81
3 101 521 523
3 521 522 523
3 525 524 101
3 526 99 527
3 202 528 530
3 528 99 529
3 528 529 530
3 202 47 99
3 103 202 48
3 203 202 103
3 203 47 202
3 203 201 47
3 204 201 203
3 204 2 201
3 204 180 2
3 205 180 204
3 205 37 180
3 105 205 49
3 206 205 105
3 206 37 205
3 206 84 37
3 207 84 206
3 207 4 84
3 153 106 10
3 208 106 153
3 208 50 106
3 108 208 23
3 209 208 108
3 209 50 208
3 209 207 50
3 210 207 209
3 210 4 207
3 210 142 4
3 211 142 210
3 211 17 142
3 110 211 51
3 212 211 110
3 212 17 211
3 212 67 17
3 213 67 212
3 213 0 67
3 214 531 532
3 214 533 535
3 533 53 534
3 533 534 535
3 113 214 25
3 215 214 113
3 215 53 214
3 215 536 538
3 538 537 53
3 536 537 538
3 540 539 215
3 216 541 542
3 216 543 545
3 543 24 544
3 543 544 545
3 546 216 547
3 217 548 550
3 548 216 549
3 548 549 550
3 217 24 216
3 217 156 24
3 218 156 217
3 218 11 156
3 160 114 12
3 219 114 160
3 219 54 114
3 116 219 27
3 220 219 116
3 220 54 219
3 220 218 54
3 221 218 220
3 221 11 218
3 221 111 11
3 222 111 221
3 222 52 111
3 118 222 55
3 223 222 118
3 223 52 222
3 223 213 52
3 224 213 223
3 224 0 213
3 224 190 0
3 225 190 224
3 225 42 190
3 120 225 56
3 226 225 120
3 226 42 225
3 226 92 42
3 227 92 226
3 227 7 92
3 164 121 13
3 228 121 164
3 228 57 121
3 123 228 29
3 229 228 123
3 229 57 228
3 229 227 57
3 230 227 229
3 230 7 227
3 230 147 7
3 231 147 230
3 231 20 147
3 125 231 58
3 232 231 125
3 232 20 231
3 232 70 20
3 233 70 232
3 233 1 70
3 179 80 3
3 234 80 179
3 234 30 80
3 127 551 553
3 551 234 552
3 551 552 553
3 235 234 127
3 235 30 234
3 235 167 30
3 236 167 235
3 236 14 167
3 237 554 555
3 237 556 558
3 556 60 557
3 556 557 558
3 128 559 561
3 559 237 560
3 559 560 561
3 238 237 128
3 238 60 237
3 238 236 60
3 239 236 238
3 239 14 236
3 239 126 14
3 240 126 239
3 240 59 126
3 130 240 61
3 241 240 130
3 241 59 240
3 241 233 59
3 242 233 241
3 242 1 233
3 242 176 1
3 243 176 242
3 243 36 176
3 132 243 62
3 244 243 132
3 244 36 243
3 244 562 564
3 564 563 36
3 562 563 564
3 566 565 244
3 567 133 568
3 569 568 15
3 567 568 569
3 570 133 571
3 572 63 573
3 574 573 133
3 572 573 574
3 575 63 576
3 578 577 63
3 169 579 581
3 581 580 9
3 579 580 581
3 583 582 169
3 585 584 32
3 181 83 2
3 245 83 181
3 245 33 83
3 136 245 38
3 246 245 136
3 246 33 245
3 246 172 33
3 247 172 246
3 247 16 172
3 174 137 5
3 248 137 174
3 248 64 137
3 138 248 35
3 249 248 138
3 249 64 248
3 249 247 64
3 250 247 249
3 250 16 247
3 250 586 588
3 588 587 16
3 586 587 588
3 590 589 250
3 593 592 65
3 591 592 593
3 191 69 0
3 251 69 191
3 251 19 69
3 140 251 43
3 252 251 140
3 252 19 251
3 252 146 19
3 253 146 252
3 253 6 146
3 594 141 595
3 596 141 597
3 598 66 599
3 600 599 141
3 598 599 600
3 254 601 602
3 254 603 605
3 603 66 604
3 603 604 605
3 254 253 66
3 255 253 254
3 255 6 253
3 255 91 6
3 606 91 607
3 608 607 255
3 606 607 608
3 609 41 610
3 611 610 91
3 609 610 611
3 612 41 613
3 615 614 41
