ply
format ascii 1.0
element vertex 230
property float x
property float y
property float z
element face 222
property list uchar int vertex_index
end_header
-27.519571 -84.422577 45.103256
-19.252331 -95.323669 36.48357
-21.650375 -84.9104 45.583496
-25.764318 -92.772156 33.340504
-16.272814 -97.649872 40.310184
-17.517391 -91.955933 43.412331
-25.706051 -80.528801 49.710033
-24.645496 -84.140076 44.789719
-23.645123 -88.286606 39.168137
-26.737583 -88.310913 39.441677
-31.397564 -98.38327 30.432529
-20.534122 -89.611893 40.568939
-22.437347 -93.439713 33.943855
-29.017675 -93.327957 34.681599
-27.883621 -97.889725 28.287685
-16.036079 -93.23822 45.171001
-26.552221 -82.337814 47.318264
-25.161026 -82.309311 47.396553
-26.098387 -84.179718 44.824593
-25.656727 -86.086609 42.041069
-27.132235 -86.330795 42.406837
-17.740904 -96.49791 38.296413
-22.26775 -82.937752 48.184299
-20.128201 -85.747391 46.425385
-19.55658 -88.095444 44.034004
-21.083593 -87.123779 43.004715
-24.700928 -90.409531 36.165817
-23.09338 -90.727921 36.440063
-24.095097 -92.931778 33.382942
-23.328394 -95.706589 30.878735
-25.076303 -95.341446 30.523958
-29.382141 -91.254623 37.968903
-30.567116 -93.834824 35.899651
-29.677097 -98.09816 29.171328
-14.830657 -98.642227 42.382042
-15.495035 -95.959152 43.677605
-16.95462 -94.777115 41.733185
-18.433212 -93.5327 39.924149
-24.350471 -80.730606 50.122864
-23.733629 -82.493706 47.678207
-23.15999 -84.372238 45.036682
-22.618683 -86.448868 42.319145
-24.148512 -86.106995 42.000137
-25.203945 -88.140579 39.102676
-26.298698 -90.438446 36.363884
-27.029203 -80.482834 49.430187
-27.920752 -82.509949 47.410439
-18.042414 -89.285843 45.356773
-19.012875 -90.704514 41.844856
-19.94693 -92.363876 38.374954
-22.081898 -88.783371 39.661129
-21.502432 -91.396713 37.189041
-20.818108 -94.264572 34.999184
-21.615801 -96.38739 31.769613
-28.922256 -84.778046 45.572357
-28.575565 -86.74791 43.038403
-28.233757 -88.716293 40.12925
-27.863047 -90.755035 36.991058
-27.413378 -92.932312 33.795052
-30.19591 -95.913513 32.500893
-28.539501 -95.524719 31.399372
-26.824963 -95.298889 30.711666
-18.81572 -96.861167 35.696978
-18.060006 -97.448288 36.603399
-18.496617 -95.910789 37.389992
-19.60752 -96.32199 34.813906
-18.81572 -96.861167 35.696978
-21.209648 -84.283386 47.252127
-21.518335 -83.297062 48.552528
-21.959063 -83.924076 46.883898
-20.889288 -85.328895 46.004441
-20.448561 -84.701881 47.673071
-21.209648 -84.283386 47.252127
-31.31757 -94.072777 36.611881
-30.713398 -92.820328 37.546042
-15.023141 -95.187927 45.341515
-14.765109 -96.452423 44.65075
-25.028261 -80.629704 49.916449
-24.681101 -79.86409 51.203823
-25.358891 -79.763188 50.997408
-27.687202 -80.507199 49.346052
-27.281999 -79.51979 50.277139
-28.132976 -81.520756 48.336178
-27.474978 -81.496392 48.420313
-27.687202 -80.507199 49.346052
-15.835303 -99.054039 39.704271
-15.114224 -99.550217 40.7402
-15.551735 -98.14605 41.346113
-18.32199 -88.060242 46.445768
-17.556909 -88.687126 47.10993
-22.838332 -97.199905 29.805704
-23.754676 -96.923066 29.454384
-29.626335 -84.96302 45.870705
-29.106599 -83.761773 46.602495
-29.134783 -87.995575 42.060835
-29.288111 -86.987603 43.448863
-28.963878 -88.979766 40.606258
-28.404661 -87.732101 41.583827
-29.134783 -87.995575 42.060835
-30.796737 -97.148392 31.466711
-30.99121 -96.120948 33.198662
-31.592036 -97.355827 32.16448
-26.961584 -97.883827 28.086966
-26.432255 -96.58841 29.298957
-27.354292 -96.594307 29.499676
-15.529944 -92.554146 46.870128
-15.293662 -93.827461 46.088212
-16.285936 -91.91214 46.035062
-15.529944 -92.554146 46.870128
-17.026592 -91.270996 45.155727
-16.776735 -92.597077 44.291666
-16.285936 -91.91214 46.035062
-17.301232 -97.994233 37.62005
-16.567186 -98.570213 38.626936
-17.006859 -97.073891 39.303298
-17.301232 -97.994233 37.62005
-18.060006 -97.448288 36.603399
-21.881592 -82.357232 49.795896
-22.607951 -82.037537 49.434956
-21.881592 -82.357232 49.795896
-21.518335 -83.297062 48.552528
-19.686573 -85.187797 48.151079
-20.448561 -84.701881 47.673071
-19.364883 -86.291016 46.980074
-19.686573 -85.187797 48.151079
-19.842391 -86.921417 45.229695
-19.079073 -87.465043 45.784384
-19.364883 -86.291016 46.980074
-24.62863 -96.740494 29.276995
-23.754676 -96.923066 29.454384
-24.202348 -95.524017 30.701346
-30.120911 -91.530227 38.580667
-29.53807 -90.248931 39.526085
-29.974629 -92.544724 36.934277
-30.120911 -91.530227 38.580667
-30.713398 -92.820328 37.546042
-30.252609 -99.312759 28.133299
-30.53733 -98.240715 29.801928
-31.112842 -99.455315 28.7639
-29.311891 -99.263679 27.617235
-30.252609 -99.312759 28.133299
-28.415153 -99.159462 27.175413
-28.780359 -97.993943 28.729506
-29.311891 -99.263679 27.617235
-27.439999 -99.166023 26.882668
-28.415153 -99.159462 27.175413
-14.43292 -97.79396 44.002968
-14.113993 -98.997788 43.375412
-15.162846 -97.30069 43.029823
-14.43292 -97.79396 44.002968
-14.765109 -96.452423 44.65075
-15.765557 -94.598686 44.424303
-15.023141 -95.187927 45.341515
-15.293662 -93.827461 46.088212
-24.020387 -80.077553 51.555041
-24.681101 -79.86409 51.203823
-23.649311 -80.933964 50.404238
-24.020387 -80.077553 51.555041
-23.34089 -81.815514 49.18191
-23.649311 -80.933964 50.404238
-24.04205 -81.612156 48.900536
-23.00069 -82.715729 47.931253
-22.607951 -82.037537 49.434956
-23.34089 -81.815514 49.18191
-32.218637 -98.494179 31.18479
-31.592036 -97.355827 32.16448
-32.009001 -99.497421 29.444055
-32.218637 -98.494179 31.18479
-31.72428 -100.569466 27.775426
-31.112842 -99.455315 28.7639
-32.009001 -99.497421 29.444055
-25.99531 -79.625763 50.688118
-25.358891 -79.763188 50.997408
-26.656886 -79.602779 50.548195
-27.281999 -79.51979 50.277139
-26.367627 -80.505818 49.57011
-25.99531 -79.625763 50.688118
-26.656886 -79.602779 50.548195
-14.401879 -99.908806 41.801676
-14.113993 -98.997788 43.375412
-14.401879 -99.908806 41.801676
-15.114224 -99.550217 40.7402
-15.835303 -99.054039 39.704271
-16.567186 -98.570213 38.626936
-17.289104 -89.935952 46.127949
-17.556909 -88.687126 47.10993
-17.779902 -90.620888 44.384552
-17.026592 -91.270996 45.155727
-17.289104 -89.935952 46.127949
-18.799497 -88.690643 44.695388
-18.32199 -88.060242 46.445768
-19.079073 -87.465043 45.784384
-20.390408 -95.792442 34.071713
-19.60752 -96.32199 34.813906
-20.03522 -94.79412 35.741377
-20.789254 -96.853851 32.456927
-20.390408 -95.792442 34.071713
-21.216954 -95.325981 33.384399
-21.095239 -97.942856 30.864072
-20.789254 -96.853851 32.456927
-21.982036 -97.540306 30.251143
-22.472098 -96.046989 31.324174
-22.838332 -97.199905 29.805704
-21.095239 -97.942856 30.864072
-21.982036 -97.540306 30.251143
-28.605846 -82.627724 47.521536
-28.132976 -81.520756 48.336178
-28.421504 -83.643998 46.491398
-28.605846 -82.627724 47.521536
-29.106599 -83.761773 46.602495
-29.461456 -86.00267 44.71584
-29.626335 -84.96302 45.870705
-28.748911 -85.762978 44.30538
-29.461456 -86.00267 44.71584
-29.288111 -86.987603 43.448863
-28.807949 -89.985458 39.049076
-28.963878 -88.979766 40.606258
-29.53807 -90.248931 39.526085
-31.176812 -95.081604 34.898041
-31.31757 -94.072777 36.611881
-30.381513 -94.874168 34.200272
-31.176812 -95.081604 34.898041
-30.99121 -96.120948 33.198662
-25.557925 -96.609688 29.205103
-25.950633 -95.320167 30.617812
-26.432255 -96.58841 29.298957
-24.62863 -96.740494 29.276995
-25.557925 -96.609688 29.205103
-26.961584 -97.883827 28.086966
-27.439999 -99.166023 26.882668
3 0 18 16
3 0 20 18
3 1 62 64
3 64 63 21
3 62 63 64
3 1 65 66
3 2 67 69
3 69 68 22
3 67 68 69
3 2 70 72
3 70 23 71
3 70 71 72
3 2 25 23
3 3 28 26
3 3 30 28
3 73 32 74
3 75 35 76
3 5 36 15
3 5 37 36
3 6 77 79
3 77 38 78
3 77 78 79
3 7 39 17
3 7 40 39
3 7 42 40
3 9 43 19
3 9 44 43
3 80 45 81
3 82 46 83
3 84 83 45
3 82 83 84
3 4 85 87
3 87 86 34
3 85 86 87
3 88 47 89
3 11 48 24
3 11 49 48
3 8 50 41
3 12 51 27
3 12 52 51
3 12 53 52
3 91 90 29
3 92 54 93
3 94 55 95
3 96 56 97
3 98 97 55
3 96 97 98
3 13 57 31
3 13 58 57
3 10 99 101
3 99 59 100
3 99 100 101
3 14 60 33
3 14 61 60
3 14 102 104
3 104 103 61
3 102 103 104
3 105 15 106
3 107 15 108
3 109 5 110
3 111 110 15
3 109 110 111
3 16 17 6
3 18 17 16
3 18 7 17
3 18 19 7
3 20 19 18
3 20 9 19
3 21 112 114
3 114 113 4
3 112 113 114
3 116 115 21
3 22 117 118
3 120 119 22
3 23 121 122
3 23 123 124
3 23 125 127
3 125 24 126
3 125 126 127
3 25 24 23
3 25 11 24
3 26 27 8
3 28 27 26
3 28 12 27
3 28 29 12
3 30 29 28
3 30 128 130
3 130 129 29
3 128 129 130
3 131 31 132
3 32 133 135
3 133 31 134
3 133 134 135
3 32 13 31
3 136 33 137
3 138 137 10
3 136 137 138
3 139 33 140
3 141 14 142
3 143 142 33
3 141 142 143
3 145 144 14
3 146 34 147
3 35 148 150
3 148 34 149
3 148 149 150
3 35 4 34
3 15 151 153
3 151 35 152
3 151 152 153
3 36 35 15
3 36 4 35
3 36 21 4
3 37 21 36
3 37 1 21
3 38 154 155
3 38 156 157
3 17 38 6
3 39 38 17
3 39 158 160
3 160 159 38
3 158 159 160
3 39 161 163
3 161 22 162
3 161 162 163
3 40 22 39
3 40 2 22
3 40 41 2
3 42 41 40
3 42 8 41
3 19 42 7
3 43 42 19
3 43 8 42
3 43 26 8
3 44 26 43
3 44 3 26
3 164 10 165
3 166 10 167
3 170 169 10
3 168 169 170
3 171 6 172
3 45 173 174
3 45 175 177
3 175 6 176
3 175 176 177
3 45 16 6
3 46 16 45
3 46 0 16
3 34 178 179
3 181 180 34
3 183 182 4
3 47 184 185
3 47 186 188
3 186 5 187
3 186 187 188
3 24 189 191
3 189 47 190
3 189 190 191
3 48 47 24
3 48 5 47
3 48 37 5
3 49 37 48
3 49 1 37
3 41 25 2
3 50 25 41
3 50 11 25
3 27 50 8
3 51 50 27
3 51 11 50
3 51 49 11
3 52 49 51
3 52 1 49
3 52 192 194
3 194 193 1
3 192 193 194
3 53 195 197
3 197 196 52
3 195 196 197
3 53 198 199
3 29 53 12
3 200 53 201
3 202 201 29
3 200 201 202
3 204 203 53
3 205 46 206
3 54 207 209
3 207 46 208
3 207 208 209
3 54 0 46
3 210 54 211
3 55 212 214
3 212 54 213
3 212 213 214
3 55 0 54
3 55 20 0
3 56 20 55
3 56 9 20
3 31 215 217
3 215 56 216
3 215 216 217
3 57 56 31
3 57 9 56
3 57 44 9
3 58 44 57
3 58 3 44
3 218 32 219
3 59 220 222
3 220 32 221
3 220 221 222
3 59 13 32
3 33 59 10
3 60 59 33
3 60 13 59
3 60 58 13
3 61 58 60
3 61 3 58
3 61 30 3
3 223 30 224
3 225 224 61
3 223 224 225
3 227 226 30
3 229 228 14
