ply
format ascii 1.0
element vertex 285
property float x
property float y
property float z
element face 282
property list uchar int vertex_index
end_header
-3.323248 -69.764748 75.747986
-6.82461 -77.075073 74.58252
-1.857832 -61.226097 63.784149
-0.541838 -70.362297 66.749084
-5.248362 -61.158401 82.943802
-8.928799 -79.84594 73.438499
-6.028347 -81.688416 70.980728
-2.47871 -65.872444 75.567108
-1.361021 -65.937981 70.753082
-1.570805 -70.19474 71.620148
-4.866179 -73.569977 75.34201
-2.528969 -74.452789 71.894508
-4.049301 -78.458832 71.684151
-2.002644 -61.685795 69.208115
-0.824091 -65.781631 65.488159
-0.064501 -70.371902 61.512379
-3.537397 -61.78191 79.264694
-4.320095 -65.438721 79.476501
-6.884586 -64.497246 82.061935
-5.868011 -68.960434 78.765182
-7.954462 -72.379822 77.650696
-8.530849 -81.770287 71.732422
-2.797531 -67.825546 75.751953
-1.986311 -67.981743 73.613312
-2.348194 -70.020393 73.801704
-5.810368 -75.383377 75.00267
-4.422043 -75.984619 73.55648
-5.348413 -77.793915 73.264572
-2.195713 -61.826401 71.900269
-0.901293 -68.082672 68.772781
-1.030903 -65.88121 68.151146
-0.585648 -68.060242 66.176468
-0.392181 -68.003036 63.525265
-0.244904 -70.38269 64.155434
-1.661728 -74.775726 69.812584
-4.306007 -61.544014 81.27063
-3.829859 -63.632988 79.514473
-4.823858 -63.313148 81.259224
-6.388708 -66.728561 80.432228
-7.405998 -68.401176 79.779984
-6.865616 -70.687164 78.231949
-8.532785 -70.056793 79.073097
-2.574348 -59.246704 65.466766
-7.876585 -78.583664 74.066826
-6.355949 -79.410454 72.866074
-7.424467 -80.760132 72.352264
-7.167706 -82.815514 70.434555
-2.382107 -63.90081 75.159523
-1.909992 -63.893005 72.674088
-1.836422 -65.940796 73.243782
-1.360632 -68.061363 71.268791
-0.97599 -70.303635 69.252754
-1.223299 -63.285007 62.006523
-1.867823 -60.90147 61.131447
-4.025097 -71.685547 75.598267
-2.895538 -72.050613 73.837387
-3.59656 -74.051529 73.749115
-3.227386 -76.514832 71.847427
-4.98558 -80.210312 71.398079
-1.896904 -61.485783 66.488274
-1.579807 -63.817928 70.065163
-1.368706 -63.688808 67.387451
-1.255741 -63.511436 64.688187
-0.721407 -65.643555 62.806843
-1.969179 -72.332489 71.822876
-1.236851 -72.541359 69.59687
-0.679512 -72.689728 67.204773
-0.273336 -72.789917 64.691483
0.004959 -72.851761 62.098488
-3.01722 -63.821743 77.460823
-3.304375 -65.712006 77.66391
-3.804974 -67.574005 77.631104
-5.99032 -62.847279 82.642738
-5.519796 -65.036377 80.954613
-5.007025 -67.211418 79.20314
-4.499739 -69.414284 77.414215
-5.354059 -71.231361 77.070847
-6.32633 -73.010757 76.647301
-7.373661 -74.722076 76.164879
-9.085726 -74.011322 77.032516
-8.453377 -76.320679 75.61515
-2.347816 -61.863428 73.206993
-2.497292 -60.841915 72.768158
-4.777185 -61.351208 82.107216
-4.476636 -60.478756 82.083011
-4.947813 -60.28595 82.919598
-8.244416 -68.071194 80.117535
-7.664853 -67.262969 80.539715
-8.80781 -68.899002 79.764092
-7.969392 -69.228984 79.426541
-8.244416 -68.071194 80.117535
-2.221691 -60.061861 63.285589
-2.579949 -59.072164 64.126897
-2.21609 -60.236401 64.625458
-7.782074 -83.169872 70.110848
-7.849277 -82.292901 71.083489
-8.463646 -82.647259 70.759781
-7.161485 -83.773526 69.361176
-7.782074 -83.169872 70.110848
-1.239634 -63.144728 60.689892
-0.965175 -64.375231 61.074137
-3.496483 -78.755218 70.776516
-3.085526 -77.783219 70.858154
-3.638343 -77.486832 71.765789
-2.296801 -60.602953 68.701996
-2.329976 -60.704759 70.071297
-1.949774 -61.585789 67.848195
-2.243931 -60.502947 67.342075
-2.296801 -60.602953 68.701996
-0.1838 -69.142937 61.184793
-0.34764 -67.958504 62.191237
-0.228341 -69.187469 62.518822
-0.024556 -70.351799 60.182963
-0.1838 -69.142937 61.184793
-1.108969 -73.784035 68.569892
-1.449289 -73.658543 69.704727
-1.321408 -74.901218 68.67775
-0.830299 -73.85822 67.373844
-0.958182 -72.615544 68.400822
-1.108969 -73.784035 68.569892
-0.181537 -74.070488 63.648205
-0.369279 -74.002526 64.909199
-0.042389 -74.10141 62.351708
-0.134189 -72.820839 63.394986
-0.181537 -74.070488 63.648205
-3.478401 -60.827284 78.985237
-3.743269 -60.74807 80.104988
-3.238682 -61.837349 78.127353
-3.478401 -60.827284 78.985237
-3.277309 -62.801827 78.362759
-2.978594 -62.857265 77.225418
-3.238682 -61.837349 78.127353
-7.09654 -63.364151 82.845405
-7.63515 -64.16078 82.421886
-6.437453 -63.672263 82.352337
-6.649407 -62.539168 83.135807
-7.09654 -63.364151 82.845405
-9.647205 -74.777085 76.691207
-10.001564 -73.634484 77.320453
-9.331031 -75.931763 75.982524
-8.769551 -75.166 76.323833
-9.647205 -74.777085 76.691207
-8.986911 -77.038048 75.290669
-9.331031 -75.931763 75.982524
-2.236558 -59.683081 60.660628
-1.889034 -60.703247 59.844565
-9.228457 -81.287018 72.21846
-8.729824 -80.808113 72.58546
-9.427432 -80.324844 73.071498
-9.09554 -82.066761 71.398102
-9.228457 -81.287018 72.21846
-8.463646 -82.647259 70.759781
-9.09554 -82.066761 71.398102
-5.403782 -82.138016 70.17889
-5.965651 -82.778877 69.942127
-2.426511 -60.775062 71.417374
-2.497292 -60.841915 72.768158
-2.099178 -61.756098 70.554192
-2.329976 -60.704759 70.071297
-2.426511 -60.775062 71.417374
-1.947555 -75.870964 69.858364
-2.095349 -74.614258 70.853546
-2.381176 -75.709496 70.899326
-1.547819 -76.055924 68.786487
-1.947555 -75.870964 69.858364
-1.321408 -74.901218 68.67775
-1.547819 -76.055924 68.786487
-4.127574 -60.629122 81.107956
-4.298203 -59.563864 81.920338
-4.476636 -60.478756 82.083011
-3.921702 -61.662962 80.267662
-3.743269 -60.74807 80.104988
-4.127574 -60.629122 81.107956
-7.404147 -65.311004 81.68069
-7.63515 -64.16078 82.421886
-7.156208 -66.426662 80.865837
-6.636647 -65.612904 81.247082
-7.404147 -65.311004 81.68069
-6.897353 -67.564869 80.106106
-7.156208 -66.426662 80.865837
-7.664853 -67.262969 80.539715
-2.95777 -58.095062 64.904148
-2.930343 -58.271172 66.258991
-2.95777 -58.095062 64.904148
-2.579949 -59.072164 64.126897
-6.53533 -83.342426 69.66904
-5.965651 -82.778877 69.942127
-6.598026 -82.251965 70.707641
-6.53533 -83.342426 69.66904
-7.161485 -83.773526 69.361176
-2.14605 -63.896907 73.916805
-2.204956 -62.89673 73.593903
-2.441013 -62.900633 74.83662
-5.382543 -60.055031 83.716995
-4.947813 -60.28595 82.919598
-1.561897 -61.952959 60.252353
-1.545561 -62.093238 61.568985
-1.239634 -63.144728 60.689892
-1.889034 -60.703247 59.844565
-1.561897 -61.952959 60.252353
-2.730384 -76.740517 70.875786
-2.381176 -75.709496 70.899326
-2.878178 -75.483811 71.870968
-2.730384 -76.740517 70.875786
-3.085526 -77.783219 70.858154
-4.882398 -81.398964 70.387565
-5.506963 -80.949364 71.189403
-5.403782 -82.138016 70.17889
-4.388733 -80.582207 70.547604
-4.882398 -81.398964 70.387565
-3.920594 -79.706467 70.69064
-4.51744 -79.334572 71.541115
-4.388733 -80.582207 70.547604
-3.496483 -78.755218 70.776516
-3.920594 -79.706467 70.69064
-2.582653 -59.383408 66.831322
-2.930343 -58.271172 66.258991
-2.235626 -60.366243 65.97752
-2.582653 -59.383408 66.831322
-2.243931 -60.502947 67.342075
-2.052853 -62.859703 72.287178
-2.347816 -61.863428 73.206993
-2.204956 -62.89673 73.593903
-0.71423 -65.554505 61.474297
-0.965175 -64.375231 61.074137
-0.972353 -64.464281 62.406683
-0.512253 -66.778763 61.832026
-0.556794 -66.823296 63.166054
-0.34764 -67.958504 62.191237
-0.71423 -65.554505 61.474297
-0.512253 -66.778763 61.832026
-0.572367 -73.952431 66.165844
-0.830299 -73.85822 67.373844
-0.476424 -72.739823 65.948128
-0.572367 -73.952431 66.165844
-0.369279 -74.002526 64.909199
0.086074 -74.147332 61.056115
-0.042389 -74.10141 62.351708
0.089626 -72.866364 60.780147
0.086074 -74.147332 61.056115
0.054897 -71.626434 60.487093
-0.029771 -71.611831 61.805434
0.089626 -72.866364 60.780147
-0.024556 -70.351799 60.182963
0.054897 -71.626434 60.487093
-2.661037 -62.896799 76.074768
-2.441013 -62.900633 74.83662
-2.699663 -63.861277 76.310173
-2.661037 -62.896799 76.074768
-2.978594 -62.857265 77.225418
-5.801557 -60.885707 83.58725
-5.382543 -60.055031 83.716995
-5.935738 -59.782337 84.360444
-6.172536 -61.730147 83.436718
-6.649407 -62.539168 83.135807
-5.619341 -62.00284 82.79327
-5.801557 -60.885707 83.58725
-6.172536 -61.730147 83.436718
-9.427776 -69.702118 79.337387
-8.80781 -68.899002 79.764092
-9.126904 -70.870487 78.712356
-9.427776 -69.702118 79.337387
-8.837742 -72.032002 78.001156
-8.243623 -71.218308 78.361897
-9.126904 -70.870487 78.712356
-9.403374 -72.847752 77.692066
-10.001564 -73.634484 77.320453
-8.520094 -73.195572 77.341606
-8.837742 -72.032002 78.001156
-9.403374 -72.847752 77.692066
-8.698515 -78.16954 74.516507
-8.164981 -77.452171 74.840988
-8.986911 -77.038048 75.290669
-9.224622 -78.800679 74.202343
-8.402692 -79.214802 73.752662
-8.698515 -78.16954 74.516507
-9.724811 -79.414589 73.806942
-9.224622 -78.800679 74.202343
-9.427432 -80.324844 73.071498
-9.724811 -79.414589 73.806942
-2.226687 -59.899547 61.959238
-2.221691 -60.061861 63.285589
-1.862827 -61.063783 62.457798
-2.226687 -59.899547 61.959238
-2.236558 -59.683081 60.660628
3 0 24 22
3 1 27 25
3 81 28 82
3 3 31 29
3 3 33 31
3 4 83 85
3 83 35 84
3 83 84 85
3 4 37 35
3 86 39 87
3 88 41 89
3 90 89 39
3 88 89 90
3 2 91 93
3 93 92 42
3 91 92 93
3 5 45 43
3 94 46 95
3 96 95 21
3 94 95 96
3 98 97 46
3 7 49 47
3 9 50 23
3 9 51 50
3 100 99 52
3 10 56 54
3 12 57 26
3 12 101 103
3 103 102 57
3 101 102 103
3 6 58 44
3 13 104 105
3 13 106 108
3 106 59 107
3 106 107 108
3 8 60 48
3 14 61 30
3 14 62 61
3 14 63 62
3 15 109 111
3 111 110 32
3 109 110 111
3 15 112 113
3 11 64 55
3 114 65 115
3 116 115 34
3 114 115 116
3 117 66 118
3 119 118 65
3 117 118 119
3 120 67 121
3 122 68 123
3 124 123 67
3 122 123 124
3 16 125 126
3 16 127 128
3 16 129 131
3 129 69 130
3 129 130 131
3 17 70 36
3 17 71 70
3 18 132 133
3 18 134 136
3 134 72 135
3 134 135 136
3 18 73 72
3 19 74 38
3 19 75 74
3 19 76 75
3 20 77 40
3 20 78 77
3 137 79 138
3 139 80 140
3 141 140 79
3 139 140 141
3 143 142 80
3 145 144 53
3 146 21 147
3 148 147 5
3 146 147 148
3 149 21 150
3 152 151 21
3 22 23 7
3 24 23 22
3 24 9 23
3 25 26 10
3 27 26 25
3 27 12 26
3 154 153 6
3 28 155 156
3 28 157 159
3 157 13 158
3 157 158 159
3 29 30 8
3 31 30 29
3 31 14 30
3 31 32 14
3 33 32 31
3 33 15 32
3 160 34 161
3 162 161 11
3 160 161 162
3 163 34 164
3 166 165 34
3 35 167 169
3 167 168 169
3 35 170 172
3 170 16 171
3 170 171 172
3 35 36 16
3 37 36 35
3 37 17 36
3 173 18 174
3 175 38 176
3 177 176 18
3 175 176 177
3 39 178 180
3 178 38 179
3 178 179 180
3 39 19 38
3 39 40 19
3 41 40 39
3 41 20 40
3 42 181 182
3 184 183 42
3 43 44 1
3 45 44 43
3 45 6 44
3 21 45 5
3 46 45 21
3 46 6 45
3 46 185 187
3 187 186 6
3 185 186 187
3 189 188 46
3 47 190 192
3 190 48 191
3 190 191 192
3 49 48 47
3 49 8 48
3 23 49 7
3 50 49 23
3 50 8 49
3 50 29 8
3 51 29 50
3 51 3 29
3 193 4 194
3 52 53 2
3 195 53 196
3 197 196 52
3 195 196 197
3 199 198 53
3 54 55 0
3 56 55 54
3 56 11 55
3 26 56 10
3 57 56 26
3 57 11 56
3 57 200 202
3 202 201 11
3 200 201 202
3 204 203 57
3 44 27 1
3 58 27 44
3 58 12 27
3 205 58 206
3 207 206 6
3 205 206 207
3 208 58 209
3 210 12 211
3 212 211 58
3 210 211 212
3 214 213 12
3 215 42 216
3 59 217 219
3 217 42 218
3 217 218 219
3 59 2 42
3 48 220 222
3 220 28 221
3 220 221 222
3 60 28 48
3 60 13 28
3 30 60 8
3 61 60 30
3 61 13 60
3 61 59 13
3 62 59 61
3 62 2 59
3 62 52 2
3 63 52 62
3 63 223 225
3 225 224 52
3 223 224 225
3 32 63 14
3 226 63 227
3 228 227 32
3 226 227 228
3 230 229 63
3 55 24 0
3 64 24 55
3 64 9 24
3 34 64 11
3 65 64 34
3 65 9 64
3 65 51 9
3 66 51 65
3 66 3 51
3 231 66 232
3 67 233 235
3 233 66 234
3 233 234 235
3 67 3 66
3 67 33 3
3 68 33 67
3 68 15 33
3 236 68 237
3 238 68 239
3 240 15 241
3 242 241 68
3 240 241 242
3 244 243 15
3 245 47 246
3 69 247 249
3 247 47 248
3 247 248 249
3 69 7 47
3 36 69 16
3 70 69 36
3 70 7 69
3 70 22 7
3 71 22 70
3 71 0 22
3 250 4 251
3 250 251 252
3 72 253 254
3 72 255 257
3 255 4 256
3 255 256 257
3 72 37 4
3 73 37 72
3 73 17 37
3 38 73 18
3 74 73 38
3 74 17 73
3 74 71 17
3 75 71 74
3 75 0 71
3 75 54 0
3 76 54 75
3 76 10 54
3 40 76 19
3 77 76 40
3 77 10 76
3 77 25 10
3 78 25 77
3 78 1 25
3 258 41 259
3 260 41 261
3 262 20 263
3 264 263 41
3 262 263 264
3 79 265 266
3 79 267 269
3 267 20 268
3 267 268 269
3 79 78 20
3 80 78 79
3 80 1 78
3 80 43 1
3 270 43 271
3 272 271 80
3 270 271 272
3 273 5 274
3 275 274 43
3 273 274 275
3 276 5 277
3 279 278 5
3 53 280 282
3 282 281 2
3 280 281 282
3 284 283 53
