ply
format ascii 1.0
element vertex 193
property float x
property float y
property float z
element face 190
property list uchar int vertex_index
end_header
51.377678 -7.044213 45.806515
52.356445 0.762735 50.362938
57.494011 1.25563 40.735809
48.566063 -7.428116 50.080666
48.481895 -11.004391 48.84996
51.998051 -3.222055 47.808472
57.533897 -2.531191 39.055077
60.229912 1.456619 36.172394
54.560383 -6.558615 42.07605
53.893791 4.679495 47.771675
56.518562 4.82172 42.874001
54.919083 0.93594 45.534302
54.64558 -2.88179 43.236679
59.193283 5.116793 37.95623
49.023438 -5.452621 51.247673
57.667648 -4.396601 38.752075
59.088177 -2.43931 37.147926
52.924873 -6.803998 43.867783
53.184967 -8.507596 43.74263
51.465488 -8.791595 45.416981
51.030739 0.738285 52.694176
51.991016 2.769337 51.489021
53.331299 2.766104 49.138252
54.634228 2.815857 46.718544
53.646179 0.825056 47.962166
51.614296 -5.172217 46.652603
53.297688 -3.066645 45.484856
53.011154 -4.975589 44.486687
54.484238 -4.760957 42.440529
57.208527 3.077631 41.820549
57.841755 4.972841 40.409286
58.518921 3.23629 39.396488
49.923992 -7.256316 47.883606
49.842266 -9.06006 47.24752
48.330086 -9.295003 49.23037
46.914597 -11.275493 50.731842
51.041611 -1.307083 51.482567
52.312637 -1.235317 49.098732
50.732887 -3.337238 50.175446
50.287659 -5.332918 48.916481
57.536469 -0.628527 39.761299
58.834263 1.395824 38.415665
58.961136 -0.515026 37.616875
60.455078 -0.499884 35.582905
56.275215 -6.338317 40.431076
50.17598 -10.70103 47.12645
55.208488 4.714842 45.3358
55.919975 2.924932 44.268875
56.195053 1.088215 43.115902
53.579857 -1.122412 46.699387
54.861069 -0.969513 44.323441
56.17429 -0.794136 42.002701
56.054398 -2.691833 41.087978
56.036865 -4.556543 40.527237
59.867607 3.346291 37.013397
58.517736 -4.356735 37.932926
57.861275 -5.286482 38.838518
46.203531 -11.393495 51.746338
46.927233 -10.382507 51.041352
46.322136 -12.237524 51.569233
46.203531 -11.393495 51.746338
50.264824 -2.361424 52.014557
50.395668 -1.329121 52.64489
50.110462 -3.376501 51.360996
50.887249 -2.32216 50.829007
50.264824 -2.361424 52.014557
60.583608 -1.47773 35.477453
59.771628 -1.469597 36.365415
59.900158 -2.447443 36.259964
61.234577 -0.563586 34.627226
60.583608 -1.47773 35.477453
54.771524 -7.396578 42.147395
55.62894 -7.286429 41.324907
55.417799 -6.448466 41.253563
53.514206 -9.283482 43.942619
52.578699 -9.443064 44.651779
53.28919 5.621236 48.209992
53.224373 4.69805 48.960407
53.952907 5.584081 47.008167
53.28919 5.621236 48.209992
54.55114 4.697169 46.553737
54.610256 5.601755 45.790229
53.952907 5.584081 47.008167
56.605513 5.715485 42.105137
55.930407 5.664868 43.336802
58.634466 5.933799 38.411678
57.958702 5.861823 39.638206
58.517519 5.044817 39.182758
59.346565 5.99172 37.1767
58.634466 5.933799 38.411678
47.752966 -8.458818 50.715764
47.93441 -7.493934 51.224998
48.417587 -5.495879 52.427723
49.255737 -4.434193 51.89711
48.163097 -6.506187 51.808502
48.417587 -5.495879 52.427723
47.93441 -7.493934 51.224998
48.79475 -6.440368 50.664169
48.163097 -6.506187 51.808502
59.228001 -3.378089 37.130851
58.377913 -3.417956 37.950001
58.517736 -4.356735 37.932926
59.900158 -2.447443 36.259964
59.228001 -3.378089 37.130851
51.718959 -9.585064 45.488954
52.578699 -9.443064 44.651779
52.325227 -8.649596 44.579805
48.791118 -11.762919 48.934146
47.914047 -11.938481 49.742801
50.812184 1.770055 53.210815
50.340982 0.733143 53.802799
51.292322 2.785581 52.608238
50.812184 1.770055 53.210815
51.510877 1.753811 52.091599
51.58099 3.78687 51.958656
51.292322 2.785581 52.608238
52.272986 3.742971 50.81908
51.58099 3.78687 51.958656
52.943127 3.741355 49.643695
52.272986 3.742971 50.81908
52.661158 2.767721 50.313637
53.612545 3.722799 48.454964
53.224373 4.69805 48.960407
52.943127 3.741355 49.643695
60.747688 2.40058 35.429282
60.958439 1.420206 35.097236
47.634978 -9.392262 50.290616
48.448075 -8.36156 49.655518
47.752966 -8.458818 50.715764
47.622342 -10.285248 49.981106
47.634978 -9.392262 50.290616
46.927233 -10.382507 51.041352
47.130398 -12.074032 50.683743
47.914047 -11.938481 49.742801
47.698246 -11.139942 49.790901
46.537937 -13.036063 51.521134
47.130398 -12.074032 50.683743
46.322136 -12.237524 51.569233
50.390232 -0.306437 53.250694
50.340982 0.733143 53.802799
51.036175 -0.284399 52.088372
50.390232 -0.306437 53.250694
50.395668 -1.329121 52.64489
49.878163 -4.394929 50.711559
50.110462 -3.376501 51.360996
49.255737 -4.434193 51.89711
61.071022 0.441955 34.802492
60.958439 1.420206 35.097236
60.342495 0.478368 35.877649
61.071022 0.441955 34.802492
61.234577 -0.563586 34.627226
56.556007 -7.170966 40.631088
57.165058 -6.25734 39.678019
56.556007 -7.170966 40.631088
55.62894 -7.286429 41.324907
54.083816 -8.371068 42.980684
54.771524 -7.396578 42.147395
53.872675 -7.533105 42.90934
54.083816 -8.371068 42.980684
53.514206 -9.283482 43.942619
51.074206 -10.539782 46.343689
51.718959 -9.585064 45.488954
50.820734 -9.746312 46.271715
49.638161 -11.611239 48.072391
49.328938 -10.852711 47.988205
48.791118 -11.762919 48.934146
50.56779 -11.428486 47.338533
49.638161 -11.611239 48.072391
51.074206 -10.539782 46.343689
50.56779 -11.428486 47.338533
55.275369 5.611429 44.567701
54.610256 5.601755 45.790229
55.863525 4.768281 44.1049
55.930407 5.664868 43.336802
55.275369 5.611429 44.567701
57.165058 -6.25734 39.678019
57.861275 -5.286482 38.838518
56.971432 -5.367459 39.591575
57.267109 5.791045 40.87278
56.605513 5.715485 42.105137
57.180159 4.89728 41.641644
57.267109 5.791045 40.87278
57.958702 5.861823 39.638206
60.566536 3.345415 35.849783
60.04876 2.401455 36.592895
60.747688 2.40058 35.429282
60.225815 4.266017 36.269302
60.566536 3.345415 35.849783
59.888653 5.151268 36.740719
59.530445 4.231542 37.484814
60.225815 4.266017 36.269302
59.346565 5.99172 37.1767
59.888653 5.151268 36.740719
3 56 55 15
3 0 19 17
3 1 21 20
3 1 22 21
3 1 24 22
3 0 27 25
3 0 17 27
3 2 31 29
3 3 34 32
3 57 35 58
3 60 59 35
3 61 36 62
3 63 38 64
3 65 64 36
3 63 64 65
3 3 39 14
3 3 32 39
3 6 42 40
3 66 43 67
3 68 67 16
3 66 67 68
3 70 69 43
3 8 71 73
3 73 72 44
3 71 72 73
3 75 74 18
3 4 45 33
3 9 76 77
3 9 78 79
3 9 80 82
3 80 46 81
3 80 81 82
3 11 47 23
3 11 48 47
3 5 49 37
3 12 50 26
3 12 51 50
3 12 52 51
3 8 53 28
3 8 44 53
3 10 83 84
3 13 85 87
3 87 86 30
3 85 86 87
3 13 88 89
3 7 54 41
3 91 90 3
3 92 14 93
3 94 14 95
3 96 3 97
3 98 97 14
3 96 97 98
3 15 16 6
3 99 16 100
3 101 100 15
3 99 100 101
3 103 102 16
3 17 18 8
3 19 18 17
3 19 104 106
3 106 105 18
3 104 105 106
3 108 107 4
3 20 109 110
3 21 111 113
3 113 112 20
3 111 112 113
3 21 114 115
3 21 116 117
3 22 118 120
3 120 119 21
3 118 119 120
3 22 121 123
3 121 9 122
3 121 122 123
3 22 23 9
3 24 23 22
3 24 11 23
3 25 26 5
3 27 26 25
3 27 12 26
3 27 28 12
3 17 28 27
3 17 8 28
3 29 30 10
3 31 30 29
3 31 13 30
3 125 124 7
3 32 33 0
3 34 33 32
3 34 4 33
3 126 34 127
3 128 127 3
3 126 127 128
3 35 129 131
3 129 34 130
3 129 130 131
3 35 4 34
3 35 132 134
3 134 133 4
3 132 133 134
3 137 136 35
3 135 136 137
3 138 20 139
3 36 140 142
3 140 20 141
3 140 141 142
3 36 1 20
3 36 37 1
3 38 37 36
3 38 5 37
3 14 143 145
3 143 38 144
3 143 144 145
3 39 38 14
3 39 5 38
3 39 25 5
3 32 25 39
3 32 0 25
3 40 41 2
3 42 41 40
3 42 7 41
3 16 42 6
3 43 42 16
3 43 7 42
3 43 146 148
3 148 147 7
3 146 147 148
3 150 149 43
3 44 151 152
3 154 153 44
3 18 155 157
3 157 156 8
3 155 156 157
3 159 158 18
3 33 19 0
3 45 19 33
3 45 160 162
3 162 161 19
3 160 161 162
3 163 45 164
3 165 164 4
3 163 164 165
3 166 45 167
3 169 168 45
3 46 170 171
3 46 172 174
3 172 10 173
3 172 173 174
3 23 46 9
3 47 46 23
3 47 10 46
3 47 29 10
3 48 29 47
3 48 2 29
3 37 24 1
3 49 24 37
3 49 11 24
3 26 49 5
3 50 49 26
3 50 11 49
3 50 48 11
3 51 48 50
3 51 2 48
3 51 40 2
3 52 40 51
3 52 6 40
3 28 52 12
3 53 52 28
3 53 6 52
3 53 15 6
3 44 15 53
3 44 175 177
3 177 176 15
3 175 176 177
3 30 178 180
3 180 179 10
3 178 179 180
3 182 181 30
3 41 31 2
3 54 31 41
3 54 13 31
3 183 54 184
3 185 184 7
3 183 184 185
3 186 54 187
3 188 13 189
3 190 189 54
3 188 189 190
3 192 191 13
