ply
format ascii 1.0
element vertex 269
property float x
property float y
property float z
element face 282
property list uchar int vertex_index
end_header
-13.942536 -69.073807 -14.557272
-18.331291 -53.325268 -18.17971
-22.938126 -60.164352 -19.15147
-7.826767 -75.291138 -9.489393
-7.773224 -85.735275 -12.029026
-18.462151 -77.27034 -16.544888
-12.663895 -64.365326 -13.926355
-15.08784 -56.810707 -15.548372
-16.290157 -60.793224 -16.307512
-20.198038 -56.690266 -18.727962
-18.529377 -64.901497 -16.746834
-4.440205 -88.507919 -9.014091
-15.212479 -85.777084 -16.17296
-10.098413 -67.368698 -11.369484
-10.07453 -72.5327 -12.156101
-5.538982 -83.069984 -7.575583
-7.211342 -80.691277 -10.464201
-11.016287 -77.515366 -13.116955
-9.431906 -90.209839 -14.074911
-12.827229 -81.953323 -14.510761
-16.028145 -73.460526 -15.349876
-21.178299 -68.668358 -17.469349
-13.179621 -66.729843 -14.252155
-14.392218 -62.651234 -15.132292
-15.184581 -64.876671 -15.401566
-17.311733 -62.866219 -16.524796
-16.206333 -67.069595 -15.658192
-16.686882 -55.122322 -16.852787
-16.384926 -53.481354 -16.24036
-17.913414 -51.837337 -17.634754
-21.516975 -58.44492 -18.90823
-8.976742 -71.319626 -10.452326
-9.979685 -69.942467 -11.773462
-8.70274 -73.99102 -10.844162
-4.500536 -86.800018 -6.677965
-5.827847 -87.244492 -10.570679
-5.780022 -84.654037 -9.702944
-7.341202 -83.276169 -11.166941
-8.896204 -79.213379 -11.840982
-9.401962 -81.665268 -12.529955
-16.871246 -81.542343 -16.304024
-13.962676 -83.938278 -15.327538
-15.643669 -79.709793 -15.553829
-14.488407 -77.729675 -14.869843
-17.227646 -75.439514 -15.89772
-18.647232 -71.142624 -16.386724
-19.918629 -72.973427 -16.923134
-12.399185 -62.052261 -13.503651
-13.614653 -58.386829 -14.240818
-13.870346 -60.465397 -14.770094
-15.5384 -58.75156 -16.009296
-17.312849 -56.913811 -17.245895
-19.105019 -54.961506 -18.517387
-18.256523 -58.801159 -17.489502
-19.453768 -60.715725 -17.673527
-20.803156 -62.592701 -17.888618
-3.691689 -89.546692 -7.417042
-3.25996 -92.232101 -8.397511
-4.431414 -91.102417 -10.05158
-6.207365 -89.7117 -11.608942
-13.550535 -89.959167 -16.131052
-14.913335 -55.022346 -14.865278
-16.34609 -52.015327 -15.375389
-11.206211 -63.516773 -12.20142
-11.204403 -65.934875 -12.671511
-11.409269 -68.417244 -13.045021
-11.858021 -70.896622 -13.39657
-6.666355 -79.222504 -8.519711
-4.817133 -85.820511 -8.188753
-6.070066 -81.968201 -9.025955
-7.385523 -78.014801 -9.918314
-8.66301 -76.640518 -11.287857
-10.420628 -75.075783 -12.587589
-12.546535 -73.306061 -13.79302
-8.481552 -88.048782 -13.01734
-12.256163 -88.112915 -15.195356
-11.116673 -86.117493 -14.25165
-10.154194 -83.969421 -13.346045
-11.832222 -79.813156 -13.762356
-13.439915 -75.593307 -14.27903
-14.91226 -71.332237 -14.908476
-17.386997 -69.17041 -15.971323
-19.848669 -66.845757 -17.045887
-22.192543 -64.383766 -18.208813
-22.450804 -70.357986 -18.037155
-23.525581 -66.060501 -18.680859
-24.338356 -61.802849 -19.530376
-18.880189 -51.709078 -18.625093
-18.67125 -50.965113 -18.352615
-18.122352 -52.581302 -17.907232
-19.13843 -52.376058 -18.87066
-18.880189 -51.709078 -18.625093
-23.182758 -58.117046 -19.717678
-22.472183 -57.25733 -19.596058
-22.22755 -59.304636 -19.02985
-23.903824 -58.897199 -19.87047
-23.182758 -58.117046 -19.717678
-8.401754 -73.305382 -9.970859
-8.71384 -71.943528 -9.780303
-8.138853 -73.929283 -9.298837
-4.052191 -88.590072 -6.255786
-4.655579 -87.203201 -5.944417
-2.776078 -94.015129 -8.118831
-3.004206 -92.675148 -7.552482
-4.605109 -92.340385 -10.656242
-3.825105 -92.965607 -9.825995
-5.493084 -91.645027 -11.434923
-5.319389 -90.407059 -10.830261
-4.605109 -92.340385 -10.656242
-17.080779 -51.270545 -16.106291
-16.365508 -52.74834 -15.807875
-17.100197 -52.003559 -16.538776
-17.137101 -50.69766 -15.581691
-17.080779 -51.270545 -16.106291
-20.517173 -54.798361 -19.29718
-19.970664 -53.933981 -19.191893
-19.651528 -55.825886 -18.622675
-10.224612 -66.118961 -11.119089
-9.750266 -68.024956 -10.702818
-10.652312 -65.442735 -11.785452
-10.778511 -64.192999 -11.535057
-10.224612 -66.118961 -11.119089
-6.035863 -81.678196 -7.354332
-5.582099 -83.543407 -6.865536
-6.102669 -81.146244 -8.047647
-6.599549 -79.754456 -7.826396
-6.035863 -81.678196 -7.354332
-8.161407 -91.123795 -13.419572
-8.63823 -92.211006 -14.020195
-8.956729 -89.129311 -13.546126
-7.68623 -90.043266 -12.890787
-8.161407 -91.123795 -13.419572
-23.043708 -71.134651 -18.392309
-21.804784 -72.511276 -17.80743
-24.574712 -64.695614 -19.384018
-24.134294 -66.834457 -19.001579
-24.9811 -62.566788 -19.808777
-23.931968 -63.931675 -19.105618
-24.574712 -64.695614 -19.384018
-25.287267 -60.457013 -20.293959
-24.9811 -62.566788 -19.808777
-17.864441 -51.181551 -17.235974
-17.100197 -52.003559 -16.538776
-17.14917 -52.659346 -16.937557
-18.594923 -50.386343 -17.98522
-17.864441 -51.181551 -17.235974
-18.594923 -50.386343 -17.98522
-18.67125 -50.965113 -18.352615
-21.776676 -56.460279 -19.490911
-21.117207 -55.582953 -19.400778
-20.857506 -57.567593 -18.818096
-21.776676 -56.460279 -19.490911
-22.472183 -57.25733 -19.596058
-9.189431 -70.000419 -10.244239
-8.71384 -71.943528 -9.780303
-9.537578 -69.344162 -10.910905
-9.750266 -68.024956 -10.702818
-9.189431 -70.000419 -10.244239
-5.062876 -85.408424 -6.416727
-5.217919 -85.811607 -5.683179
-4.655579 -87.203201 -5.944417
-5.019759 -84.935001 -7.126774
-5.582099 -83.543407 -6.865536
-5.062876 -85.408424 -6.416727
-10.012708 -91.213516 -14.607197
-8.63823 -92.211006 -14.020195
-13.006919 -60.219545 -13.872235
-12.979097 -59.1198 -13.578216
-12.371363 -60.952517 -13.209633
-7.657333 -75.873051 -8.808385
-8.138853 -73.929283 -9.298837
-7.969418 -74.511197 -8.617828
-3.22007 -91.332443 -7.062247
-3.647768 -89.963409 -6.625324
-3.176149 -91.749161 -6.27053
-3.475824 -90.889397 -7.907277
-3.22007 -91.332443 -7.062247
-3.004206 -92.675148 -7.552482
-3.239378 -93.530449 -8.99896
-2.776078 -94.015129 -8.118831
-3.845687 -91.667259 -9.224545
-3.239378 -93.530449 -8.99896
-3.825105 -92.965607 -9.825995
-14.271163 -90.803482 -16.582723
-12.748168 -92.012069 -16.147129
-15.059074 -88.715194 -16.575336
-14.271163 -90.803482 -16.582723
-15.779701 -89.559509 -17.027006
-15.890045 -86.624153 -16.596289
-14.381507 -87.868125 -16.152006
-15.059074 -88.715194 -16.575336
-16.684952 -84.506126 -16.633568
-15.890045 -86.624153 -16.596289
-17.514336 -82.388756 -16.699101
-16.041863 -83.659714 -16.238492
-16.684952 -84.506126 -16.633568
-18.289267 -80.251857 -16.788458
-17.514336 -82.388756 -16.699101
-19.084719 -78.115856 -16.90889
-17.666698 -79.406341 -16.424456
-18.289267 -80.251857 -16.788458
-19.810457 -75.967453 -17.061297
-19.084719 -78.115856 -16.90889
-13.591512 -57.424188 -13.867281
-12.979097 -59.1198 -13.578216
-14.240853 -55.741947 -14.179511
-13.591512 -57.424188 -13.867281
-14.263994 -56.704588 -14.553048
-14.921915 -54.214042 -14.401273
-14.240853 -55.741947 -14.179511
-15.638293 -52.710533 -14.656328
-14.921915 -54.214042 -14.401273
-15.629713 -53.518836 -15.120334
-16.396552 -51.362453 -14.822568
-15.638293 -52.710533 -14.656328
-16.396552 -51.362453 -14.822568
-17.137101 -50.69766 -15.581691
-19.525294 -53.194177 -19.039499
-19.13843 -52.376058 -18.87066
-18.718155 -54.143387 -18.348548
-19.525294 -53.194177 -19.039499
-19.970664 -53.933981 -19.191893
-20.517173 -54.798361 -19.29718
-21.117207 -55.582953 -19.400778
-11.270677 -62.366236 -11.885538
-10.778511 -64.192999 -11.535057
-11.774876 -61.684773 -12.558518
-11.270677 -62.366236 -11.885538
-11.802698 -62.784517 -12.852536
-12.371363 -60.952517 -13.209633
-11.774876 -61.684773 -12.558518
-7.077127 -77.838734 -8.323544
-6.599549 -79.754456 -7.826396
-7.246561 -77.256821 -9.004552
-7.657333 -75.873051 -8.808385
-7.077127 -77.838734 -8.323544
-4.096113 -88.173355 -7.047504
-4.052191 -88.590072 -6.255786
-3.647768 -89.963409 -6.625324
-6.549136 -90.874725 -12.186588
-5.493084 -91.645027 -11.434923
-7.344459 -88.880241 -12.313141
-6.549136 -90.874725 -12.186588
-7.68623 -90.043266 -12.890787
-12.072022 -91.08818 -15.635267
-11.269655 -93.141083 -15.651344
-12.748168 -92.012069 -16.147129
-11.424837 -90.165054 -15.167419
-12.072022 -91.08818 -15.635267
-12.903349 -89.036041 -15.663204
-10.844034 -89.161377 -14.635134
-10.012708 -91.213516 -14.607197
-11.424837 -90.165054 -15.167419
-20.538697 -73.818996 -17.250419
-19.19039 -75.121883 -16.734011
-19.810457 -75.967453 -17.061297
-21.184717 -71.665706 -17.480145
-20.538697 -73.818996 -17.250419
-21.804784 -72.511276 -17.80743
-23.596906 -68.9832 -18.679727
-23.043708 -71.134651 -18.392309
-22.988193 -68.209243 -18.359007
-23.596906 -68.9832 -18.679727
-24.134294 -66.834457 -19.001579
-24.603939 -59.716448 -20.059923
-23.903824 -58.897199 -19.87047
-23.638241 -60.983601 -19.340923
-24.603939 -59.716448 -20.059923
-25.287267 -60.457013 -20.293959
3 0 24 22
3 0 26 24
3 1 29 27
3 1 87 89
3 89 88 29
3 87 88 89
3 1 90 91
3 2 92 94
3 94 93 30
3 92 93 94
3 2 95 96
3 3 97 99
3 97 31 98
3 97 98 99
3 3 33 31
3 100 34 101
3 4 37 35
3 4 39 37
3 5 42 40
3 5 44 42
3 5 46 44
3 6 49 47
3 8 50 23
3 8 51 50
3 8 53 51
3 10 54 25
3 10 55 54
3 102 57 103
3 104 58 105
3 106 59 107
3 108 107 58
3 106 107 108
3 7 61 48
3 109 62 110
3 111 110 28
3 109 110 111
3 113 112 62
3 9 114 116
3 116 115 52
3 114 115 116
3 13 117 118
3 13 119 121
3 119 63 120
3 119 120 121
3 13 64 63
3 14 65 32
3 14 66 65
3 15 122 123
3 15 124 126
3 124 67 125
3 124 125 126
3 11 68 56
3 16 69 36
3 16 70 69
3 16 71 70
3 17 72 38
3 17 73 72
3 18 127 128
3 18 129 131
3 129 74 130
3 129 130 131
3 12 75 60
3 19 76 41
3 19 77 76
3 19 78 77
3 20 79 43
3 20 80 79
3 20 81 80
3 21 82 45
3 21 83 82
3 132 84 133
3 134 85 135
3 136 86 137
3 138 137 85
3 136 137 138
3 140 139 86
3 22 23 6
3 24 23 22
3 24 8 23
3 24 25 8
3 26 25 24
3 26 10 25
3 27 28 7
3 29 28 27
3 29 141 143
3 143 142 28
3 141 142 143
3 29 144 145
3 147 146 29
3 30 148 150
3 150 149 9
3 148 149 150
3 152 151 30
3 31 153 154
3 31 155 157
3 155 13 156
3 155 156 157
3 31 32 13
3 33 32 31
3 33 14 32
3 34 158 160
3 158 159 160
3 34 161 163
3 161 15 162
3 161 162 163
3 35 36 11
3 37 36 35
3 37 16 36
3 37 38 16
3 39 38 37
3 39 17 38
3 164 18 165
3 40 41 12
3 42 41 40
3 42 19 41
3 42 43 19
3 44 43 42
3 44 20 43
3 44 45 20
3 46 45 44
3 46 21 45
3 47 166 168
3 166 48 167
3 166 167 168
3 49 48 47
3 49 7 48
3 23 49 6
3 50 49 23
3 50 7 49
3 50 27 7
3 51 27 50
3 51 1 27
3 51 52 1
3 53 52 51
3 53 9 52
3 25 53 8
3 54 53 25
3 54 9 53
3 54 30 9
3 55 30 54
3 55 2 30
3 169 3 170
3 169 170 171
3 172 56 173
3 172 173 174
3 57 175 177
3 175 56 176
3 175 176 177
3 57 11 56
3 178 57 179
3 58 180 182
3 180 57 181
3 180 181 182
3 58 11 57
3 58 35 11
3 59 35 58
3 59 4 35
3 183 60 184
3 185 60 186
3 185 186 187
3 188 12 189
3 190 189 60
3 188 189 190
3 191 12 192
3 193 40 194
3 195 194 12
3 193 194 195
3 196 40 197
3 198 5 199
3 200 199 40
3 198 199 200
3 202 201 5
3 48 203 204
3 61 205 207
3 207 206 48
3 205 206 207
3 61 208 209
3 28 61 7
3 62 61 28
3 62 210 212
3 212 211 61
3 210 211 212
3 62 213 214
3 216 215 62
3 52 217 219
3 219 218 1
3 217 218 219
3 221 220 52
3 223 222 9
3 63 224 225
3 63 226 227
3 63 228 230
3 228 47 229
3 228 229 230
3 64 47 63
3 64 6 47
3 32 64 13
3 65 64 32
3 65 6 64
3 65 22 6
3 66 22 65
3 66 0 22
3 67 231 232
3 67 233 235
3 233 3 234
3 233 234 235
3 56 236 238
3 236 34 237
3 236 237 238
3 68 34 56
3 68 15 34
3 36 68 11
3 69 68 36
3 69 15 68
3 69 67 15
3 70 67 69
3 70 3 67
3 70 33 3
3 71 33 70
3 71 14 33
3 38 71 16
3 72 71 38
3 72 14 71
3 72 66 14
3 73 66 72
3 73 0 66
3 239 59 240
3 74 241 243
3 241 59 242
3 241 242 243
3 74 4 59
3 60 244 246
3 244 245 246
3 75 247 249
3 249 248 60
3 247 248 249
3 75 250 252
3 250 18 251
3 250 251 252
3 41 75 12
3 76 75 41
3 76 18 75
3 76 74 18
3 77 74 76
3 77 4 74
3 77 39 4
3 78 39 77
3 78 17 39
3 43 78 19
3 79 78 43
3 79 17 78
3 79 73 17
3 80 73 79
3 80 0 73
3 80 26 0
3 81 26 80
3 81 10 26
3 45 81 20
3 82 81 45
3 82 10 81
3 82 55 10
3 83 55 82
3 83 2 55
3 253 46 254
3 255 254 5
3 253 254 255
3 84 256 258
3 256 46 257
3 256 257 258
3 84 21 46
3 259 84 260
3 85 261 263
3 261 84 262
3 261 262 263
3 85 21 84
3 85 83 21
3 86 83 85
3 86 2 83
3 86 264 266
3 266 265 2
3 264 265 266
3 268 267 86
