ply
format ascii 1.0
element vertex 111
property float x
property float y
property float z
element face 97
property list uchar int vertex_index
end_header
-45.80938 15.642223 38.344353
-42.506912 26.667946 33.507336
-43.366798 20.822346 35.900383
-45.876213 15.14904 43.508587
-43.487549 20.452229 41.017708
-42.456795 26.347042 38.4487
-45.963043 15.970592 35.839409
-44.569653 18.420578 34.637428
-44.403778 18.129902 37.11277
-43.009186 23.913776 32.329765
-42.861206 26.854801 31.195305
-43.667656 20.294842 43.674423
-42.966537 23.197048 42.388062
-42.796932 23.343662 39.74498
-42.586319 26.199898 41.058758
-43.573528 21.081505 33.470032
-42.737278 23.687149 34.703903
-45.799194 15.376507 40.906685
-44.686279 17.528641 44.919975
-44.528351 17.714497 42.273582
-44.411263 17.900677 39.662632
-43.362015 20.616367 38.419674
-42.692841 23.49844 37.178299
-42.400375 26.497818 35.927216
-45.886212 15.806407 37.091881
-46.815933 14.854321 36.452495
-46.739102 14.690136 37.704967
-42.566402 28.182531 32.897139
-42.74355 28.275959 31.741124
-42.684059 26.761373 32.35132
-42.83592 24.607695 43.062233
-43.044759 23.103471 43.734684
-42.645811 26.109119 42.397581
-42.776428 24.698473 41.72341
-42.83592 24.607695 43.062233
-46.656898 14.093765 42.822241
-46.659082 13.94757 44.106718
-45.837704 15.262773 42.207636
-46.618389 14.207498 41.52129
-46.656898 14.093765 42.822241
-44.257357 18.807873 45.638367
-44.750776 17.404604 46.240492
-46.978666 15.074657 35.218129
-46.815933 14.854321 36.452495
-46.13467 16.166431 34.61871
-46.978666 15.074657 35.218129
-45.266348 17.195585 35.238419
-45.437975 17.391424 34.017719
-46.13467 16.166431 34.61871
-43.290591 24.04033 31.192779
-43.525219 22.649799 31.730023
-43.2166 25.510843 30.625549
-43.290591 24.04033 31.192779
-42.935196 25.384288 31.762535
-43.194878 26.950063 30.092115
-43.2166 25.510843 30.625549
-42.965704 28.344099 30.615942
-43.194878 26.950063 30.092115
-42.965704 28.344099 30.615942
-42.74355 28.275959 31.741124
-45.926929 15.030435 44.813261
-46.659082 13.94757 44.106718
-43.395319 21.652369 44.377865
-43.748045 20.190973 45.015591
-43.317097 21.745945 43.031242
-43.395319 21.652369 44.377865
-43.044759 23.103471 43.734684
-44.765723 18.594769 33.43881
-45.437975 17.391424 34.017719
-44.26766 19.925232 32.855112
-44.765723 18.594769 33.43881
-44.07159 19.751041 34.05373
-43.80739 21.233663 32.300156
-44.26766 19.925232 32.855112
-43.291357 22.49764 32.899899
-43.525219 22.649799 31.730023
-43.80739 21.233663 32.300156
-46.652948 14.500883 38.963074
-46.739102 14.690136 37.704967
-46.647855 14.368025 40.24424
-46.618389 14.207498 41.52129
-45.804287 15.509365 39.625519
-46.652948 14.500883 38.963074
-46.647855 14.368025 40.24424
-45.331963 16.220236 45.518955
-44.750776 17.404604 46.240492
-45.281246 16.33884 44.214281
-45.926929 15.030435 44.813261
-45.331963 16.220236 45.518955
-44.176968 18.911741 44.297199
-44.257357 18.807873 45.638367
-43.748045 20.190973 45.015591
-42.568154 27.63427 41.689562
-42.645811 26.109119 42.397581
-42.541387 27.727179 40.368879
-42.568154 27.63427 41.689562
-42.476625 27.80075 39.063851
-42.521557 26.27347 39.753729
-42.541387 27.727179 40.368879
-42.443959 27.877044 37.782273
-42.476625 27.80075 39.063851
-42.415748 27.952433 36.52153
-42.428585 26.42243 37.187958
-42.443959 27.877044 37.782273
-42.421382 28.025185 35.287697
-42.415748 27.952433 36.52153
-42.474651 28.110249 34.077757
-42.453643 26.582882 34.717276
-42.421382 28.025185 35.287697
-42.566402 28.182531 32.897139
-42.474651 28.110249 34.077757
3 0 24 26
3 24 6 25
3 24 25 26
3 0 8 6
3 1 10 9
3 1 27 29
3 29 28 10
3 27 28 29
3 30 12 31
3 32 14 33
3 34 33 12
3 32 33 34
3 2 15 7
3 2 16 15
3 3 35 36
3 3 37 39
3 37 17 38
3 37 38 39
3 40 18 41
3 4 19 11
3 4 20 19
3 4 21 20
3 5 22 13
3 5 23 22
3 6 42 43
3 6 44 45
3 6 46 48
3 46 7 47
3 46 47 48
3 8 7 6
3 8 2 7
3 9 49 50
3 10 51 53
3 53 52 9
3 51 52 53
3 10 54 55
3 10 56 57
3 59 58 10
3 60 3 61
3 62 11 63
3 12 64 66
3 64 11 65
3 64 65 66
3 12 4 11
3 12 13 4
3 14 13 12
3 14 5 13
3 7 67 68
3 15 69 71
3 71 70 7
3 69 70 71
3 15 72 73
3 15 74 76
3 74 9 75
3 74 75 76
3 16 9 15
3 16 1 9
3 77 0 78
3 17 79 80
3 17 81 83
3 81 0 82
3 81 82 83
3 18 84 85
3 18 86 88
3 86 3 87
3 86 87 88
3 11 89 91
3 89 18 90
3 89 90 91
3 19 18 11
3 19 3 18
3 19 17 3
3 20 17 19
3 20 0 17
3 20 8 0
3 21 8 20
3 21 2 8
3 13 21 4
3 22 21 13
3 22 2 21
3 22 16 2
3 23 16 22
3 23 1 16
3 92 14 93
3 94 14 95
3 96 5 97
3 98 97 14
3 96 97 98
3 99 5 100
3 101 23 102
3 103 102 5
3 101 102 103
3 104 23 105
3 106 1 107
3 108 107 23
3 106 107 108
3 110 109 1
