ply
format ascii 1.0
element vertex 120
property float x
property float y
property float z
element face 104
property list uchar int vertex_index
end_header
-40.317791 -4.66053 64.306519
-46.682701 0.527075 58.645046
-39.76709 0.000277 62.275642
-46.065807 5.848356 57.927944
-43.582825 -1.994761 61.350338
-43.234386 3.065159 60.228954
-42.203144 8.572918 59.754978
-48.030216 1.703678 57.223236
-46.533501 3.154596 58.270065
-41.830788 -5.624036 63.741417
-43.375687 -4.398436 62.101311
-41.943733 -3.311235 62.770561
-39.322247 2.514891 61.648499
-41.545975 1.553225 61.236565
-41.118256 4.165165 60.814346
-42.76836 5.75901 59.926296
-40.11665 -2.379883 63.190464
-44.934986 -3.204438 60.551201
-45.182247 -0.712069 59.997086
-41.83876 -0.931046 61.903584
-43.525822 0.48514 60.706982
-45.111732 1.855011 59.523678
-44.760685 4.509016 59.155861
-44.202911 7.257303 58.880356
-47.356459 1.115376 57.934141
-47.965931 0.39904 57.383921
-47.292174 -0.189262 58.094825
-39.979662 4.673654 61.069059
-40.220252 3.340028 61.231423
-39.081657 3.848517 61.486136
-40.868901 5.540311 60.715087
-39.979662 4.673654 61.069059
-46.589742 6.446147 57.203167
-46.904516 5.100592 57.399269
-45.719263 7.23129 57.761791
-46.589742 6.446147 57.203167
-42.866753 9.33918 59.200002
-43.866636 8.681373 58.762692
-43.203028 7.91511 59.317667
-41.907751 10.040476 59.690275
-42.866753 9.33918 59.200002
-48.62052 0.942519 56.598518
-48.556235 -0.362119 56.759203
-47.965931 0.39904 57.383921
-48.608629 2.248692 56.446169
-48.62052 0.942519 56.598518
-47.886721 3.028252 57.046915
-48.465134 3.573266 56.269848
-48.608629 2.248692 56.446169
-47.138363 3.753711 57.570329
-47.886721 3.028252 57.046915
-47.281858 2.429137 57.746651
-46.299654 4.501476 58.099004
-46.904516 5.100592 57.399269
-47.138363 3.753711 57.570329
-42.603237 -5.011236 62.921364
-43.144177 -5.578702 62.487812
-42.371727 -6.191502 63.307865
-41.693953 6.337233 60.271062
-41.943308 4.962087 60.370321
-40.868901 5.540311 60.715087
-41.411344 7.744187 60.185403
-42.485752 7.165964 59.840637
-41.693953 6.337233 60.271062
-41.156868 9.188944 60.156025
-41.411344 7.744187 60.185403
-46.571895 -0.755734 58.84788
-47.292174 -0.189262 58.094825
-39.266587 -3.118287 63.907888
-40.21722 -3.520206 63.748492
-39.367157 -4.25861 64.465916
-39.042904 -1.978796 63.312677
-39.266587 -3.118287 63.907888
-38.868124 -0.788716 62.855266
-39.94187 -1.189803 62.733053
-39.042904 -1.978796 63.312677
-38.612915 0.418056 62.407578
-38.868124 -0.788716 62.855266
-38.390493 1.675363 62.094006
-39.544669 1.257584 61.96207
-38.612915 0.418056 62.407578
-38.133944 2.963192 61.823304
-38.390493 1.675363 62.094006
-39.081657 3.848517 61.486136
-38.133944 2.963192 61.823304
-41.664845 -6.768771 64.219101
-42.371727 -6.191502 63.307865
-41.082116 -6.256692 64.615521
-41.664845 -6.768771 64.219101
-40.916172 -7.401426 65.093205
-40.325617 -5.774938 64.898072
-41.074289 -5.142283 64.023968
-41.082116 -6.256692 64.615521
-39.529763 -5.353576 65.144165
-40.325617 -5.774938 64.898072
-39.367157 -4.25861 64.465916
-39.529763 -5.353576 65.144165
-43.877896 -5.020019 61.618294
-43.144177 -5.578702 62.487812
-44.657545 -4.42302 60.843239
-43.877896 -5.020019 61.618294
-44.155337 -3.801437 61.326256
-45.403605 -3.876692 60.008869
-44.657545 -4.42302 60.843239
-45.698038 -2.621491 59.800957
-45.403605 -3.876692 60.008869
-45.821669 -1.375306 59.523899
-45.698038 -2.621491 59.800957
-45.058616 -1.958254 60.274144
-45.932474 -0.092497 59.321066
-46.571895 -0.755734 58.84788
-45.821669 -1.375306 59.523899
-44.787815 7.935763 58.237997
-45.719263 7.23129 57.761791
-45.134359 6.552829 58.40415
-44.787815 7.935763 58.237997
-43.866636 8.681373 58.762692
-40.861475 10.656502 60.091322
-41.907751 10.040476 59.690275
-41.156868 9.188944 60.156025
3 1 24 26
3 24 7 25
3 24 25 26
3 1 8 7
3 0 11 9
3 27 14 28
3 29 28 12
3 27 28 29
3 31 30 14
3 3 32 33
3 3 34 35
3 4 17 10
3 4 18 17
3 2 19 16
3 5 20 13
3 5 21 20
3 5 22 21
3 6 23 15
3 6 36 38
3 38 37 23
3 36 37 38
3 6 39 40
3 7 41 43
3 41 42 43
3 7 44 45
3 7 46 48
3 46 47 48
3 8 49 51
3 51 50 7
3 49 50 51
3 8 52 54
3 52 3 53
3 52 53 54
3 9 55 57
3 55 10 56
3 55 56 57
3 11 10 9
3 11 4 10
3 12 13 2
3 14 13 12
3 14 5 13
3 14 15 5
3 58 15 59
3 60 59 14
3 58 59 60
3 61 6 62
3 63 62 15
3 61 62 63
3 65 64 6
3 66 1 67
3 68 16 69
3 70 69 0
3 68 69 70
3 71 16 72
3 73 2 74
3 75 74 16
3 73 74 75
3 76 2 77
3 78 12 79
3 80 79 2
3 78 79 80
3 81 12 82
3 84 83 12
3 85 9 86
3 87 9 88
3 87 88 89
3 90 0 91
3 92 91 9
3 90 91 92
3 93 0 94
3 96 95 0
3 10 97 98
3 17 99 101
3 101 100 10
3 99 100 101
3 17 102 103
3 17 104 105
3 18 106 108
3 108 107 17
3 106 107 108
3 18 109 111
3 109 1 110
3 109 110 111
3 16 11 0
3 19 11 16
3 19 4 11
3 13 19 2
3 20 19 13
3 20 4 19
3 20 18 4
3 21 18 20
3 21 1 18
3 21 8 1
3 22 8 21
3 22 3 8
3 15 22 5
3 23 22 15
3 23 3 22
3 23 112 114
3 114 113 3
3 112 113 114
3 116 115 23
3 119 118 6
3 117 118 119
