ply
format ascii 1.0
element vertex 167
property float x
property float y
property float z
element face 153
property list uchar int vertex_index
end_header
67.054916 -47.874947 14.167121
70.77404 -41.502659 11.127046
60.274921 -55.048592 17.892046
57.599243 -56.642025 14.747515
69.707367 -44.55489 12.474018
69.556877 -41.709824 7.597552
66.831978 -45.224129 9.326433
63.412018 -48.877068 11.289751
63.625626 -51.381451 16.056986
60.12043 -52.676071 13.188691
68.533524 -46.187855 13.283364
68.496323 -44.850979 10.821667
67.002808 -46.57692 11.722975
65.155899 -47.033932 10.296001
65.320923 -48.344185 12.677906
61.918327 -54.326027 19.431036
63.621071 -52.542942 18.50576
61.89362 -53.195118 16.997913
61.827255 -51.997009 14.611154
60.212082 -53.885098 15.517117
70.847008 -40.006798 8.657257
68.032722 -41.998871 6.083841
69.277237 -40.184631 5.284491
58.785618 -55.815033 16.3424
70.479477 -42.98838 11.753277
70.503677 -41.553307 9.275522
69.694908 -43.172794 10.000082
68.333542 -43.447784 8.417397
66.53273 -43.840118 6.985398
64.877953 -45.703674 7.959088
70.3582 -44.307907 14.300835
69.612839 -45.836288 15.006004
68.460609 -47.436066 15.795167
67.001984 -49.093395 16.656971
65.35051 -50.797783 17.570196
65.381332 -49.607628 15.101945
63.560722 -50.150608 13.652984
61.703026 -50.756477 12.267102
58.736961 -54.638386 14.022362
70.408455 -40.020699 6.886709
61.096624 -54.687309 18.661541
61.122837 -55.235979 19.872991
60.301134 -55.597262 19.103496
70.810524 -40.754728 9.892152
70.69495 -40.0593 9.62617
70.658466 -40.80723 10.861065
67.810219 -41.260212 4.960147
67.067379 -42.221573 5.397735
63.291488 -48.233674 10.128125
64.163429 -47.312106 9.63125
64.283959 -47.9555 10.792876
62.461253 -49.190556 10.626701
63.291488 -48.233674 10.128125
70.382721 -44.19437 15.301578
70.488663 -43.586906 13.991365
69.520946 -46.416714 16.297999
69.88686 -45.66529 15.955767
68.944831 -47.216602 16.69258
69.036724 -46.636177 15.400586
69.520946 -46.416714 16.297999
66.930538 -49.651352 17.926546
67.647621 -48.833597 17.506819
60.05315 -52.063238 12.047341
60.844448 -51.103441 11.586547
60.911728 -51.716274 12.727896
69.72559 -39.296688 4.946361
69.06176 -39.39946 4.181363
61.918335 -54.848971 20.672545
61.122837 -55.235979 19.872991
62.740951 -53.970056 20.217862
61.918335 -54.848971 20.672545
62.769699 -53.434484 18.968398
63.592323 -53.078514 19.755224
62.740951 -53.970056 20.217862
57.606918 -56.05072 13.616523
57.217659 -57.082237 13.917583
70.760834 -39.277721 8.402833
70.69495 -40.0593 9.62617
70.829537 -39.201235 7.476852
70.760834 -39.277721 8.402833
68.432476 -40.353092 4.560472
68.654979 -41.091751 5.684166
67.810219 -41.260212 4.960147
69.06176 -39.39946 4.181363
68.432476 -40.353092 4.560472
59.555364 -55.994682 18.302437
60.301134 -55.597262 19.103496
58.810713 -56.377903 17.527614
59.53027 -55.431812 17.117223
59.555364 -55.994682 18.302437
58.188339 -56.799052 16.705375
58.810713 -56.377903 17.527614
57.595152 -57.212547 15.907932
58.192431 -56.228529 15.544958
58.188339 -56.799052 16.705375
57.16074 -57.660646 15.051699
57.595152 -57.212547 15.907932
57.217659 -57.082237 13.917583
57.16074 -57.660646 15.051699
66.317383 -43.142196 5.848514
67.067379 -42.221573 5.397735
67.282726 -42.919494 6.534619
65.509518 -44.108249 6.329818
66.317383 -43.142196 5.848514
64.682129 -45.040028 6.816663
65.509518 -44.108249 6.329818
65.705342 -44.771896 7.472243
63.857869 -46.010742 7.322422
64.682129 -45.040028 6.816663
64.024456 -46.646977 8.462794
65.016926 -46.368803 9.127545
64.163429 -47.312106 9.63125
63.857869 -46.010742 7.322422
64.024456 -46.646977 8.462794
70.561267 -41.513254 12.135887
70.658466 -40.80723 10.861065
70.696583 -42.184283 12.404471
70.561267 -41.513254 12.135887
70.549301 -42.927143 12.717586
70.626758 -42.24552 11.440162
70.696583 -42.184283 12.404471
70.418838 -43.648144 13.027056
70.549301 -42.927143 12.717586
70.488663 -43.586906 13.991365
70.25954 -44.9011 15.603182
70.382721 -44.19437 15.301578
69.985519 -45.072097 14.65342
70.25954 -44.9011 15.603182
69.88686 -45.66529 15.955767
68.376934 -48.004932 17.075917
68.944831 -47.216602 16.69258
67.731296 -48.26473 16.226069
68.376934 -48.004932 17.075917
67.647621 -48.833597 17.506819
64.432568 -52.21743 19.29698
63.592323 -53.078514 19.755224
65.297287 -51.34485 18.829198
64.432568 -52.21743 19.29698
64.485791 -51.670362 18.037978
66.104802 -50.503546 18.383159
65.297287 -51.34485 18.829198
66.176247 -49.945589 17.113583
66.930538 -49.651352 17.926546
66.104802 -50.503546 18.383159
61.606757 -50.13026 11.115376
62.461253 -49.190556 10.626701
62.557522 -49.816772 11.778427
61.606757 -50.13026 11.115376
60.844448 -51.103441 11.586547
58.175777 -55.048901 13.253947
58.168102 -55.640205 14.384939
57.606918 -56.05072 13.616523
58.703786 -54.036467 12.888751
58.175777 -55.048901 13.253947
59.395521 -53.055309 12.471916
59.428696 -53.657229 13.605526
58.703786 -54.036467 12.888751
60.05315 -52.063238 12.047341
59.395521 -53.055309 12.471916
70.61026 -39.208185 6.591578
70.829537 -39.201235 7.476852
70.627732 -40.013749 7.771983
70.291199 -39.214722 5.74747
69.842846 -40.102665 6.0856
69.72559 -39.296688 4.946361
70.61026 -39.208185 6.591578
70.291199 -39.214722 5.74747
3 0 12 10
3 0 14 12
3 2 40 42
3 40 15 41
3 40 41 42
3 2 17 15
3 2 19 17
3 1 43 45
3 43 20 44
3 43 44 45
3 47 46 21
3 4 26 24
3 6 27 11
3 6 28 27
3 6 29 28
3 7 48 50
3 50 49 13
3 48 49 50
3 7 51 52
3 53 30 54
3 55 31 56
3 57 32 58
3 59 58 31
3 57 58 59
3 60 33 61
3 8 34 16
3 8 35 34
3 8 36 35
3 9 37 18
3 9 62 64
3 64 63 37
3 62 63 64
3 3 38 23
3 5 39 25
3 66 65 22
3 10 11 4
3 12 11 10
3 12 6 11
3 12 13 6
3 14 13 12
3 14 7 13
3 15 67 68
3 15 69 70
3 15 71 73
3 71 16 72
3 71 72 73
3 17 16 15
3 17 8 16
3 17 18 8
3 19 18 17
3 19 9 18
3 75 74 3
3 20 76 77
3 20 78 79
3 21 22 5
3 80 22 81
3 82 81 21
3 80 81 82
3 84 83 22
3 85 2 86
3 87 23 88
3 89 88 2
3 87 88 89
3 90 23 91
3 92 3 93
3 94 93 23
3 92 93 94
3 95 3 96
3 98 97 3
3 24 25 1
3 26 25 24
3 26 5 25
3 11 26 4
3 27 26 11
3 27 5 26
3 27 21 5
3 28 21 27
3 28 99 101
3 101 100 21
3 99 100 101
3 28 102 103
3 29 104 106
3 106 105 28
3 104 105 106
3 29 107 108
3 13 29 6
3 109 29 110
3 111 110 13
3 109 110 111
3 113 112 29
3 114 1 115
3 116 1 117
3 118 24 119
3 120 119 1
3 118 119 120
3 30 121 123
3 121 24 122
3 121 122 123
3 30 4 24
3 124 30 125
3 31 126 128
3 126 30 127
3 126 127 128
3 31 4 30
3 31 10 4
3 32 10 31
3 32 0 10
3 129 32 130
3 33 131 133
3 131 32 132
3 131 132 133
3 33 0 32
3 16 134 135
3 34 136 138
3 138 137 16
3 136 137 138
3 34 139 140
3 34 141 143
3 141 33 142
3 141 142 143
3 35 33 34
3 35 0 33
3 35 14 0
3 36 14 35
3 36 7 14
3 18 36 8
3 37 36 18
3 37 7 36
3 37 144 146
3 146 145 7
3 144 145 146
3 148 147 37
3 23 19 2
3 38 19 23
3 38 9 19
3 149 38 150
3 151 150 3
3 149 150 151
3 152 38 153
3 154 9 155
3 156 155 38
3 154 155 156
3 158 157 9
3 25 20 1
3 39 20 25
3 39 159 161
3 161 160 20
3 159 160 161
3 22 39 5
3 162 39 163
3 164 163 22
3 162 163 164
3 166 165 39
