ply
format ascii 1.0
element vertex 204
property float x
property float y
property float z
element face 190
property list uchar int vertex_index
end_header
-0.05378 48.812092 49.262585
0.134115 36.959774 62.484024
-0.293903 58.124332 52.176723
0.154806 56.73666 47.317196
0.174728 50.795872 54.427067
0.120089 43.052589 56.087883
-0.067562 44.443829 60.991795
-0.839918 46.178028 44.034668
-0.531939 40.862518 50.782471
-0.263294 35.312492 57.219738
-0.02375 29.428425 63.250408
-1.379 64.50708 49.251606
-0.522032 54.898457 55.577621
0.013277 54.544575 53.381039
-0.14472 51.36211 56.760437
0.083525 47.668758 57.778152
-0.372078 48.073589 59.985092
0.098154 52.803707 48.347733
-0.206072 51.566982 45.69976
-0.609404 50.187504 43.077534
-0.429873 47.542667 46.617935
-0.682035 43.55048 47.446785
-0.274372 44.817616 50.071697
0.144884 40.052948 59.344875
-0.047138 39.164261 56.718098
0.028297 36.224926 59.899014
-0.141132 32.423855 60.299236
0.083261 33.187271 62.960709
-2.17186 67.194702 47.521778
-2.56016 63.930782 50.960239
-1.731291 61.239727 52.682476
-0.154129 61.218296 48.601871
0.093485 60.545231 46.159126
0.094063 57.611439 49.845924
0.199713 53.822437 50.93951
0.179657 49.921192 51.895493
0.054972 45.971241 52.725636
0.203566 46.945423 55.326229
0.173243 43.881165 58.638206
0.09409 40.723553 61.825825
-0.791527 36.973434 51.399914
-0.146948 42.024723 53.439133
-0.392633 38.119141 54.042015
-0.646069 34.276173 54.537674
-0.492495 31.514301 57.5938
-0.329029 28.663227 60.544384
-0.560198 64.572937 47.195721
-0.755552 61.466328 50.802895
-1.051283 58.211765 54.22081
-0.028212 37.461189 64.87532
-0.486767 51.45903 57.782767
-0.333376 53.130284 56.169029
-0.675423 53.227204 57.191358
-0.600446 49.814769 59.395094
-0.258399 49.717849 58.372765
-0.486767 51.45903 57.782767
-3.310747 63.387585 51.619276
-3.048588 65.090277 50.010774
-2.811902 62.22348 52.571815
-3.310747 63.387585 51.619276
0.097975 58.12751 45.441847
0.067315 60.031796 44.862812
0.124145 58.640946 46.738161
-0.918784 47.453148 42.289656
-0.803527 49.457886 41.811088
-0.724661 48.182766 43.556101
-1.005593 45.472637 42.800506
-0.918784 47.453148 42.289656
-0.949167 44.200414 44.474486
-1.005593 45.472637 42.800506
-0.730823 40.241962 49.486967
-0.805871 41.585943 47.819124
-0.606987 42.206499 49.114628
-0.661733 38.917976 51.091193
-0.860617 38.297421 49.795688
-0.730823 40.241962 49.486967
-0.089621 27.561678 63.300855
-0.242261 27.179079 61.947844
-0.17639 29.045826 61.897396
-1.259375 66.059326 47.435858
-1.655806 67.403137 46.570944
-1.77543 65.850891 48.386692
-0.969599 64.540008 48.223664
-0.849974 66.092254 46.407916
-1.259375 66.059326 47.435858
-1.618187 58.022251 55.064492
-1.391287 59.725746 53.451643
-1.958191 59.536232 54.295324
-1.243726 56.520401 55.834328
-1.618187 58.022251 55.064492
-0.274823 37.569954 65.927376
-0.149819 39.288835 64.469192
0.028922 54.19086 46.516617
0.057248 56.157337 46.001349
0.12648 54.770184 47.832465
-0.123191 53.572498 45.19263
0.028922 54.19086 46.516617
-0.053959 52.185344 47.023747
-0.301397 52.892166 43.869549
-0.123191 53.572498 45.19263
-0.407738 50.877243 44.388647
-0.503063 52.202427 42.558436
-0.301397 52.892166 43.869549
-2.854438 66.722237 48.291544
-2.656608 68.344109 46.572378
-2.36601 65.562742 49.241008
-2.854438 66.722237 48.291544
-3.048588 65.090277 50.010774
-2.397467 60.877952 53.432934
-2.145726 62.585255 51.821358
-2.811902 62.22348 52.571815
-1.958191 59.536232 54.295324
-2.397467 60.877952 53.432934
-0.030322 60.881764 47.380499
-0.006813 62.351969 45.510086
-0.13062 62.688502 46.731459
0.053423 61.933712 44.24577
-0.006813 62.351969 45.510086
0.053423 61.933712 44.24577
0.067315 60.031796 44.862812
0.097975 58.12751 45.441847
0.057248 56.157337 46.001349
-0.706372 51.458691 41.26473
-0.503063 52.202427 42.558436
-0.706372 51.458691 41.26473
-0.803527 49.457886 41.811088
-0.870225 42.88664 46.180544
-0.949167 44.200414 44.474486
-0.760976 44.864254 45.740727
-0.870225 42.88664 46.180544
-0.805871 41.585943 47.819124
-0.965909 36.372139 50.127943
-0.860617 38.297421 49.795688
-0.905722 35.067247 51.663668
-1.080105 34.465952 50.391697
-0.965909 36.372139 50.127943
-0.832994 33.718616 53.232548
-0.905722 35.067247 51.663668
-0.718798 35.624803 52.968794
-0.760512 32.389238 54.732983
-0.832994 33.718616 53.232548
-0.683725 31.008302 56.261046
-0.760512 32.389238 54.732983
-0.569282 32.895237 56.065737
-0.598688 29.643805 57.717682
-0.683725 31.008302 56.261046
-0.516954 28.218267 59.192974
-0.598688 29.643805 57.717682
-0.410762 30.088764 59.069092
-0.41918 26.804508 60.590344
-0.516954 28.218267 59.192974
-0.41918 26.804508 60.590344
-0.242261 27.179079 61.947844
-2.040236 68.738434 45.6986
-2.656608 68.344109 46.572378
-2.040236 68.738434 45.6986
-1.655806 67.403137 46.570944
-0.51461 66.040024 45.303812
-0.849974 66.092254 46.407916
-0.333654 64.365822 46.028384
-0.51461 66.040024 45.303812
-0.357163 62.895617 47.898796
-0.13062 62.688502 46.731459
-0.333654 64.365822 46.028384
-0.979101 54.863747 56.512733
-0.786658 56.555111 54.899215
-1.243726 56.520401 55.834328
-0.675423 53.227204 57.191358
-0.979101 54.863747 56.512733
-0.787057 48.089432 60.924837
-0.600446 49.814769 59.395094
-0.515835 46.377412 61.520849
-0.787057 48.089432 60.924837
-0.363577 44.562533 62.024201
-0.21982 46.258709 60.488444
-0.515835 46.377412 61.520849
-0.169494 42.780155 62.52743
-0.363577 44.562533 62.024201
-0.088668 40.920018 62.944445
0.013264 42.583691 61.40881
-0.169494 42.780155 62.52743
0.032939 39.092371 63.350572
-0.088668 40.920018 62.944445
-0.149819 39.288835 64.469192
-0.108559 35.771282 66.318993
-0.274823 37.569954 65.927376
0.031955 35.608446 65.178314
-0.108559 35.771282 66.318993
0.113119 35.357738 63.982666
0.052952 37.210482 63.679672
0.031955 35.608446 65.178314
0.087692 33.471487 64.221008
0.108688 35.073523 62.722366
0.113119 35.357738 63.982666
0.101731 31.608376 64.414792
0.087692 33.471487 64.221008
0.048226 29.728952 64.559641
0.029756 31.307848 63.105559
0.101731 31.608376 64.414792
0.032423 27.865208 64.640219
0.048226 29.728952 64.559641
-0.033448 25.998461 64.690666
-0.089621 27.561678 63.300855
0.032423 27.865208 64.640219
3 50 14 51
3 52 51 12
3 50 51 52
3 53 16 54
3 55 54 14
3 53 54 55
3 0 18 17
3 0 20 18
3 0 22 20
3 1 25 23
3 1 27 25
3 56 29 57
3 59 58 29
3 2 33 31
3 4 34 13
3 4 35 34
3 4 37 35
3 6 38 15
3 6 39 38
3 3 60 62
3 62 61 32
3 60 61 62
3 7 63 65
3 65 64 19
3 63 64 65
3 7 66 67
3 7 68 69
3 8 70 72
3 72 71 21
3 70 71 72
3 8 73 75
3 73 40 74
3 73 74 75
3 5 41 36
3 9 42 24
3 9 43 42
3 9 44 43
3 10 45 26
3 10 76 78
3 78 77 45
3 76 77 78
3 11 79 81
3 81 80 28
3 79 80 81
3 11 82 84
3 82 46 83
3 82 83 84
3 11 47 46
3 85 48 86
3 87 86 30
3 85 86 87
3 89 88 48
3 90 49 91
3 12 13 2
3 14 13 12
3 14 4 13
3 14 15 4
3 16 15 14
3 16 6 15
3 17 92 94
3 94 93 3
3 92 93 94
3 18 95 97
3 97 96 17
3 95 96 97
3 18 98 99
3 18 100 102
3 100 19 101
3 100 101 102
3 20 19 18
3 20 7 19
3 20 21 7
3 22 21 20
3 22 8 21
3 23 24 5
3 25 24 23
3 25 9 24
3 25 26 9
3 27 26 25
3 27 10 26
3 103 28 104
3 29 105 107
3 105 28 106
3 105 106 107
3 29 11 28
3 29 30 11
3 108 30 109
3 110 109 29
3 108 109 110
3 112 111 30
3 31 113 115
3 113 32 114
3 113 114 115
3 33 32 31
3 33 3 32
3 13 33 2
3 34 33 13
3 34 3 33
3 34 17 3
3 35 17 34
3 35 0 17
3 35 36 0
3 37 36 35
3 37 5 36
3 15 37 4
3 38 37 15
3 38 5 37
3 38 23 5
3 39 23 38
3 39 1 23
3 32 116 117
3 119 118 32
3 121 120 3
3 19 122 123
3 125 124 19
3 21 126 128
3 128 127 7
3 126 127 128
3 130 129 21
3 40 131 132
3 40 133 135
3 133 134 135
3 36 22 0
3 41 22 36
3 41 8 22
3 24 41 5
3 42 41 24
3 42 8 41
3 42 40 8
3 43 40 42
3 43 136 138
3 138 137 40
3 136 137 138
3 43 139 140
3 44 141 143
3 143 142 43
3 141 142 143
3 44 144 145
3 26 44 9
3 45 44 26
3 45 146 148
3 148 147 44
3 146 147 148
3 45 149 150
3 152 151 45
3 28 153 154
3 156 155 28
3 46 157 158
3 46 159 160
3 46 161 163
3 161 31 162
3 161 162 163
3 47 31 46
3 47 2 31
3 30 47 11
3 48 47 30
3 48 2 47
3 48 12 2
3 164 12 165
3 166 165 48
3 164 165 166
3 168 167 12
3 169 16 170
3 171 16 172
3 173 6 174
3 175 174 16
3 173 174 175
3 176 6 177
3 178 39 179
3 180 179 6
3 178 179 180
3 49 181 183
3 181 39 182
3 181 182 183
3 49 1 39
3 184 49 185
3 186 49 187
3 188 1 189
3 190 189 49
3 188 189 190
3 191 27 192
3 193 192 1
3 191 192 193
3 194 27 195
3 196 10 197
3 198 197 27
3 196 197 198
3 199 10 200
3 203 202 10
3 201 202 203
