ply
format ascii 1.0
element vertex 140
property float x
property float y
property float z
element face 116
property list uchar int vertex_index
end_header
28.770947 -24.248219 -37.430534
30.246103 -15.23662 -45.833664
29.339888 -28.460693 -32.806541
28.473654 -33.857342 -29.679007
28.815264 -30.154228 -33.97776
29.625711 -26.123791 -38.184998
31.200338 -21.889322 -42.102455
29.003443 -26.39435 -35.135262
28.821264 -29.197807 -33.528481
28.79203 -27.164589 -35.759483
29.139482 -28.172203 -36.104424
28.919138 -25.06266 -37.947662
28.334984 -34.988808 -30.059378
27.919247 -36.625122 -28.032587
29.438669 -17.51667 -43.881432
29.84528 -20.716478 -42.101913
30.695805 -18.505573 -44.0298
28.938755 -31.144342 -31.277784
28.609863 -32.05468 -31.829504
28.79896 -33.240063 -32.104736
29.340639 -31.392605 -34.155014
28.35375 -35.544121 -27.539541
29.257927 -22.908051 -40.069084
30.306589 -24.024065 -40.192635
28.887195 -25.321284 -36.282898
29.092708 -25.01023 -35.884293
28.97646 -23.937165 -37.031929
28.323635 -37.236055 -29.205862
28.144732 -36.507368 -29.152328
28.513886 -35.717495 -30.112911
29.777539 -28.154851 -32.327008
29.517836 -27.124263 -33.526733
29.51351 -29.44267 -31.638577
29.777539 -28.154851 -32.327008
29.139322 -29.802518 -32.042163
29.312943 -30.784495 -30.874198
29.51351 -29.44267 -31.638577
29.807437 -27.792245 -37.185978
29.564322 -28.816451 -36.145691
29.382596 -27.147997 -37.144711
30.198624 -26.791735 -38.177491
29.807437 -27.792245 -37.185978
28.413702 -34.700732 -28.609274
28.712093 -34.26367 -28.283668
28.772044 -33.420281 -29.353401
27.720589 -37.380165 -27.030758
27.581761 -38.050689 -27.198978
29.096849 -21.350001 -40.945988
28.9922 -22.474857 -39.868103
31.454763 -23.647796 -41.08662
31.007888 -24.715168 -40.13171
30.753463 -22.956694 -41.147545
29.349614 -26.091091 -34.691093
29.092708 -25.01023 -35.884293
29.171665 -27.427521 -33.970901
29.517836 -27.124263 -33.526733
29.349614 -26.091091 -34.691093
27.936864 -37.325525 -28.138933
28.127115 -35.806965 -29.045983
28.144732 -36.507368 -29.152328
27.581761 -38.050689 -27.198978
27.936864 -37.325525 -28.138933
29.641974 -19.116574 -42.991672
29.390526 -20.254215 -41.962402
29.187221 -18.654311 -42.852161
29.004595 -32.063781 -30.15279
29.312943 -30.784495 -30.874198
28.706204 -32.500842 -30.478395
28.772044 -33.420281 -29.353401
29.004595 -32.063781 -30.15279
28.745874 -34.843122 -31.13559
28.513886 -35.717495 -30.112911
28.566972 -34.114435 -31.082057
29.132873 -33.993568 -32.113895
28.745874 -34.843122 -31.13559
29.403712 -33.06984 -33.139035
29.132873 -33.993568 -32.113895
29.0698 -32.316334 -33.129875
29.815123 -32.167017 -34.125279
29.403712 -33.06984 -33.139035
29.664901 -30.426652 -35.170986
29.24006 -29.782404 -35.129719
29.564322 -28.816451 -36.145691
29.815123 -32.167017 -34.125279
29.664901 -30.426652 -35.170986
31.024085 -15.767351 -45.839107
30.794374 -14.107996 -46.755566
28.777162 -22.817692 -38.203186
28.97646 -23.937165 -37.031929
28.74871 -23.14494 -38.548828
28.777162 -22.817692 -38.203186
29.067981 -17.13758 -43.656261
29.187221 -18.654311 -42.852161
29.282056 -15.962687 -44.697178
29.067981 -17.13758 -43.656261
29.685773 -14.822661 -45.673294
29.842386 -16.376645 -44.857548
29.282056 -15.962687 -44.697178
30.067673 -13.6521 -46.661518
29.685773 -14.822661 -45.673294
29.507343 -13.238142 -46.501148
30.794374 -14.107996 -46.755566
30.067673 -13.6521 -46.661518
28.747787 -35.117249 -27.167654
28.712093 -34.26367 -28.283668
28.275148 -36.319527 -26.479414
28.747787 -35.117249 -27.167654
27.937841 -36.839664 -26.784235
28.136499 -36.084621 -27.786064
27.720589 -37.380165 -27.030758
28.275148 -36.319527 -26.479414
27.937841 -36.839664 -26.784235
28.822806 -23.552161 -38.807392
28.845042 -24.655439 -37.689098
28.74871 -23.14494 -38.548828
29.088532 -23.985356 -39.008373
28.822806 -23.552161 -38.807392
28.9922 -22.474857 -39.868103
29.551603 -21.812264 -41.085498
29.096849 -21.350001 -40.945988
29.390526 -20.254215 -41.962402
30.539062 -25.741872 -39.181309
30.198624 -26.791735 -38.177491
29.96615 -25.073928 -39.188817
30.539062 -25.741872 -39.181309
31.007888 -24.715168 -40.13171
31.248936 -17.401827 -44.937176
30.470954 -16.871097 -44.931732
31.024085 -15.767351 -45.839107
31.502356 -19.122422 -43.96323
31.248936 -17.401827 -44.937176
32.055487 -18.018676 -44.870605
31.754622 -20.814296 -42.999557
30.948071 -20.197447 -43.066128
31.502356 -19.122422 -43.96323
32.007348 -22.60436 -41.981194
31.754622 -20.814296 -42.999557
32.561633 -21.529334 -42.878296
31.454763 -23.647796 -41.08662
32.007348 -22.60436 -41.981194
3 0 24 26
3 24 7 25
3 24 25 26
3 0 9 7
3 0 11 9
3 29 28 12
3 27 28 29
3 1 16 14
3 2 30 31
3 2 32 33
3 2 34 36
3 34 17 35
3 34 35 36
3 4 18 8
3 4 19 18
3 4 20 19
3 5 37 39
3 39 38 10
3 37 38 39
3 5 40 41
3 3 42 44
3 42 21 43
3 42 43 44
3 46 45 13
3 47 22 48
3 6 23 15
3 6 49 51
3 51 50 23
3 49 50 51
3 7 52 53
3 7 54 56
3 54 2 55
3 54 55 56
3 7 8 2
3 9 8 7
3 9 4 8
3 9 10 4
3 11 10 9
3 11 5 10
3 12 13 3
3 57 13 58
3 59 58 12
3 57 58 59
3 61 60 13
3 14 62 64
3 62 15 63
3 62 63 64
3 16 15 14
3 16 6 15
3 17 65 66
3 17 67 69
3 67 3 68
3 67 68 69
3 8 17 2
3 18 17 8
3 18 3 17
3 18 12 3
3 19 12 18
3 19 70 72
3 72 71 12
3 70 71 72
3 19 73 74
3 20 75 77
3 77 76 19
3 75 76 77
3 20 78 79
3 10 20 4
3 80 20 81
3 82 81 10
3 80 81 82
3 84 83 20
3 86 85 1
3 87 0 88
3 90 89 0
3 91 14 92
3 93 14 94
3 95 1 96
3 97 96 14
3 95 96 97
3 98 1 99
3 98 99 100
3 102 101 1
3 21 103 104
3 21 105 106
3 13 21 3
3 107 21 108
3 109 108 13
3 107 108 109
3 111 110 21
3 112 11 113
3 114 113 0
3 112 113 114
3 22 115 117
3 115 11 116
3 115 116 117
3 22 5 11
3 15 118 120
3 118 22 119
3 118 119 120
3 23 22 15
3 23 5 22
3 23 121 123
3 123 122 5
3 121 122 123
3 125 124 23
3 126 16 127
3 128 127 1
3 126 127 128
3 129 16 130
3 129 130 131
3 132 6 133
3 134 133 16
3 132 133 134
3 135 6 136
3 135 136 137
3 139 138 6
