ply
format ascii 1.0
element vertex 179
property float x
property float y
property float z
element face 173
property list uchar int vertex_index
end_header
53.287331 -1.474695 -54.474251
52.845589 -13.260794 -51.396118
60.501053 -16.359247 -47.876183
48.859573 -7.0068 -54.407509
53.237244 -7.380136 -53.857033
62.212494 -24.800062 -43.941635
59.161499 -22.590216 -46.558418
51.798691 -19.070889 -47.735252
57.59901 -2.498753 -50.994232
61.146751 -10.065785 -47.777718
57.38308 -8.521705 -51.504974
56.881767 -14.576948 -50.458977
55.603432 -20.479523 -47.84008
51.066803 -4.141141 -55.270172
53.274544 -4.429379 -54.398491
50.96991 -10.005982 -52.986427
48.810394 -9.985215 -52.714859
50.749607 -12.970045 -51.235298
52.407299 -16.188616 -49.638115
62.12735 -17.296717 -46.107735
62.549553 -14.083942 -45.984642
60.879608 -13.200961 -47.984901
59.318062 -9.257927 -49.77095
59.096252 -12.351741 -49.751534
57.200367 -11.559086 -51.195312
58.752846 -15.440285 -49.352097
58.088875 -25.606464 -45.380928
57.436913 -21.495089 -47.380577
56.373795 -24.411522 -45.928352
48.826557 -4.072154 -55.673943
51.062595 -7.068329 -54.361969
53.11198 -10.322845 -52.83992
63.024132 -21.522429 -44.186951
61.548092 -20.518196 -45.924599
59.949913 -19.499342 -47.404259
60.753288 -23.704865 -45.395164
59.687584 -26.824451 -44.519836
55.482262 -1.91095 -52.885445
59.47765 -6.198169 -49.463364
57.49807 -5.488594 -51.419075
55.424698 -4.890806 -53.092682
55.351513 -7.882296 -52.891022
55.199265 -10.863755 -52.240616
54.902603 -13.825422 -51.145271
58.218925 -18.495949 -48.551498
56.363674 -17.55773 -49.313881
54.412491 -16.756962 -49.671333
53.706318 -19.630442 -47.947517
52.162365 -1.343107 -55.077152
52.160346 0.12102 -55.043945
53.280938 -2.952037 -54.436371
52.155971 -2.820449 -55.039272
52.162365 -1.343107 -55.077152
56.543408 -26.468595 -44.947307
57.231335 -25.008993 -45.65464
57.400948 -27.066066 -44.673595
55.698912 -25.811486 -45.128357
56.543408 -26.468595 -44.947307
48.79146 -2.612383 -56.058701
47.649158 -2.704007 -56.205749
62.618313 -23.161245 -44.064293
63.291932 -23.688136 -43.227104
62.886112 -25.326952 -43.104446
59.74781 -28.992757 -43.496692
60.421051 -27.423735 -43.943084
59.063316 -30.50777 -42.912384
59.00309 -28.339464 -43.935527
59.74781 -28.992757 -43.496692
47.761734 -7.129606 -54.221874
46.624832 -5.761922 -54.827328
47.722671 -5.639115 -55.012963
47.740196 -10.152228 -52.404758
48.731283 -11.510451 -51.717964
50.853615 -19.01846 -47.48294
51.093685 -17.517328 -48.49551
51.431608 -20.436972 -46.820388
50.486532 -20.384543 -46.568077
50.853615 -19.01846 -47.48294
56.584333 -0.741567 -51.660728
57.655954 -1.053863 -50.639805
56.540636 -2.204851 -51.939838
55.525959 -0.447665 -52.606335
56.584333 -0.741567 -51.660728
62.001503 -10.500854 -46.696323
62.702904 -12.509933 -45.799785
61.848152 -12.074863 -46.88118
61.2444 -8.536909 -47.54628
62.001503 -10.500854 -46.696323
60.312201 -8.131977 -48.620541
60.409849 -6.603101 -48.389103
61.2444 -8.536909 -47.54628
51.052101 -2.67633 -55.475113
49.911583 -2.646876 -55.856815
52.170673 -4.28526 -54.834332
51.052101 -2.67633 -55.475113
52.155971 -2.820449 -55.039272
62.356304 -26.987448 -42.954796
62.886112 -25.326952 -43.104446
61.683506 -26.411541 -43.653984
62.356304 -26.987448 -42.954796
49.70089 -13.002866 -50.978184
48.731283 -11.510451 -51.717964
49.78 -11.47763 -51.975078
50.569143 -14.466906 -50.245533
49.70089 -13.002866 -50.978184
51.39799 -16.076192 -49.446942
50.569143 -14.466906 -50.245533
51.578453 -14.579331 -50.436706
52.102995 -17.629753 -48.686684
51.093685 -17.517328 -48.49551
51.39799 -16.076192 -49.446942
58.604177 -2.86276 -49.940799
57.655954 -1.053863 -50.639805
62.338452 -15.69033 -46.046188
63.095303 -16.159334 -45.059105
62.884201 -17.765721 -45.120651
55.479628 -23.857325 -46.05077
55.094447 -21.891325 -47.006633
55.988613 -22.445523 -46.884216
55.479628 -23.857325 -46.05077
55.698912 -25.811486 -45.128357
47.706164 -4.171793 -55.64618
47.649158 -2.704007 -56.205749
48.843065 -5.539477 -55.040726
47.722671 -5.639115 -55.012963
47.706164 -4.171793 -55.64618
49.94668 -4.106648 -55.472058
48.79146 -2.612383 -56.058701
49.911583 -2.646876 -55.856815
63.710968 -22.011075 -43.229908
63.291932 -23.688136 -43.227104
63.332592 -19.878577 -44.160259
63.710968 -22.011075 -43.229908
62.575741 -19.409573 -45.147343
62.884201 -17.765721 -45.120651
63.332592 -19.878577 -44.160259
60.953903 -25.863943 -44.380748
61.482891 -24.252464 -44.668399
61.683506 -26.411541 -43.653984
60.220436 -25.264658 -44.9575
60.953903 -25.863943 -44.380748
60.421051 -27.423735 -43.943084
58.203736 -27.73047 -44.366073
58.88823 -26.215457 -44.950382
59.00309 -28.339464 -43.935527
57.515808 -29.190073 -43.658741
57.400948 -27.066066 -44.673595
58.203736 -27.73047 -44.366073
53.309594 -0.007017 -54.302529
52.160346 0.12102 -55.043945
47.737144 -8.618814 -53.375549
47.761734 -7.129606 -54.221874
48.834983 -8.496008 -53.561184
47.737144 -8.618814 -53.375549
47.740196 -10.152228 -52.404758
54.407059 -0.225144 -53.508125
55.525959 -0.447665 -52.606335
54.384797 -1.692823 -53.679848
53.309594 -0.007017 -54.302529
54.407059 -0.225144 -53.508125
63.32642 -14.539665 -44.911564
63.095303 -16.159334 -45.059105
63.32642 -14.539665 -44.911564
62.702904 -12.509933 -45.799785
59.543497 -4.712467 -49.175365
60.409849 -6.603101 -48.389103
58.53833 -4.348461 -50.228798
58.604177 -2.86276 -49.940799
59.543497 -4.712467 -49.175365
54.14589 -21.466784 -47.060352
54.654875 -20.054983 -47.893799
55.094447 -21.891325 -47.006633
53.248396 -21.004322 -47.050647
54.14589 -21.466784 -47.060352
52.294583 -20.724546 -46.944515
52.752505 -19.350665 -47.841385
53.248396 -21.004322 -47.050647
51.431608 -20.436972 -46.820388
52.294583 -20.724546 -46.944515
3 0 48 49
3 0 50 52
3 50 14 51
3 50 51 52
3 1 17 15
3 1 18 17
3 2 21 19
3 2 23 21
3 2 25 23
3 53 28 54
3 55 54 26
3 53 54 55
3 57 56 28
3 58 29 59
3 4 30 13
3 4 31 30
3 5 60 62
3 60 32 61
3 60 61 62
3 5 33 32
3 5 35 33
3 63 36 64
3 67 66 36
3 65 66 67
3 3 68 70
3 68 69 70
3 72 71 16
3 7 73 74
3 7 75 77
3 75 76 77
3 8 78 79
3 8 80 82
3 80 37 81
3 80 81 82
3 9 83 85
3 85 84 20
3 83 84 85
3 9 86 87
3 9 88 90
3 88 38 89
3 88 89 90
3 10 39 22
3 10 40 39
3 10 41 40
3 11 42 24
3 11 43 42
3 6 44 34
3 12 45 27
3 12 46 45
3 12 47 46
3 91 13 92
3 14 93 95
3 93 13 94
3 93 94 95
3 14 4 13
3 96 5 97
3 99 98 5
3 15 16 3
3 17 16 15
3 17 100 102
3 102 101 16
3 100 101 102
3 17 103 104
3 18 105 107
3 107 106 17
3 105 106 107
3 18 108 110
3 108 7 109
3 108 109 110
3 111 8 112
3 19 113 115
3 113 20 114
3 113 114 115
3 21 20 19
3 21 9 20
3 21 22 9
3 23 22 21
3 23 10 22
3 23 24 10
3 25 24 23
3 25 11 24
3 26 27 6
3 28 27 26
3 28 12 27
3 28 116 118
3 118 117 12
3 116 117 118
3 120 119 28
3 29 121 122
3 29 123 125
3 123 3 124
3 123 124 125
3 13 126 128
3 126 29 127
3 126 127 128
3 30 29 13
3 30 3 29
3 30 15 3
3 31 15 30
3 31 1 15
3 32 129 130
3 32 131 132
3 32 133 135
3 133 19 134
3 133 134 135
3 33 19 32
3 33 2 19
3 33 34 2
3 35 34 33
3 35 6 34
3 136 35 137
3 138 137 5
3 136 137 138
3 36 139 141
3 139 35 140
3 139 140 141
3 36 6 35
3 36 26 6
3 142 26 143
3 144 143 36
3 142 143 144
3 147 146 26
3 145 146 147
3 148 0 149
3 16 150 152
3 152 151 3
3 150 151 152
3 154 153 16
3 37 155 156
3 37 157 159
3 157 0 158
3 157 158 159
3 20 160 161
3 163 162 20
3 38 164 165
3 38 166 168
3 166 8 167
3 166 167 168
3 22 38 9
3 39 38 22
3 39 8 38
3 39 37 8
3 40 37 39
3 40 0 37
3 40 14 0
3 41 14 40
3 41 4 14
3 24 41 10
3 42 41 24
3 42 4 41
3 42 31 4
3 43 31 42
3 43 1 31
3 34 25 2
3 44 25 34
3 44 11 25
3 27 44 6
3 45 44 27
3 45 11 44
3 45 43 11
3 46 43 45
3 46 1 43
3 46 18 1
3 47 18 46
3 47 7 18
3 169 47 170
3 171 170 12
3 169 170 171
3 172 47 173
3 174 7 175
3 176 175 47
3 174 175 176
3 178 177 7
