ply
format ascii 1.0
element vertex 124
property float x
property float y
property float z
element face 110
property list uchar int vertex_index
end_header
33.276367 32.45937 -22.817266
36.338005 26.27586 -16.636595
36.391624 40.342949 -16.410173
34.954346 29.883949 -19.646624
34.655254 36.612198 -19.550478
35.426826 33.796955 -15.731264
35.675732 28.214886 -18.105574
35.748608 26.33704 -20.331713
36.606377 24.50753 -19.01792
36.255558 41.516193 -18.51174
35.113857 39.66869 -19.942621
35.486851 38.540943 -17.966852
35.093971 35.326012 -17.641764
35.681747 37.212917 -15.914225
35.829659 33.762295 -11.846388
36.344604 38.966904 -14.218803
34.16188 31.293209 -21.231058
34.823841 27.905285 -21.700537
34.051456 37.69503 -21.396021
33.912708 34.5784 -21.167391
34.584827 33.341431 -19.411821
35.154549 31.864033 -17.658812
35.657249 30.120125 -15.955477
35.774353 35.634365 -13.853598
35.703884 31.989605 -13.87261
36.116825 28.092197 -14.335466
33.017712 31.367607 -23.654809
32.771935 32.930977 -23.586727
36.323591 40.929571 -17.460957
36.854662 42.369656 -17.803982
36.922695 41.783034 -16.753198
36.381893 23.704643 -22.060242
35.805191 25.442158 -21.484058
36.32531 24.599525 -20.907896
35.990549 36.481642 -12.934425
36.059478 37.300635 -14.0362
36.275674 38.147911 -13.117028
35.832659 30.935149 -12.989215
35.766772 32.87595 -12.859499
35.895546 31.821494 -11.976104
36.039129 28.986444 -13.220643
35.910354 30.040901 -14.104038
35.832659 30.935149 -12.989215
36.331796 26.934471 -13.576695
36.039129 28.986444 -13.220643
36.754194 23.68477 -20.250999
36.32531 24.599525 -20.907896
36.177492 25.422285 -19.674816
36.758003 42.914545 -18.826822
37.357107 43.768007 -18.119065
36.854662 42.369656 -17.803982
36.049822 42.030651 -19.480818
36.758003 42.914545 -18.826822
35.684708 40.592441 -19.22718
35.478972 41.106899 -20.196258
36.049822 42.030651 -19.480818
35.943237 34.571846 -10.858057
36.018202 35.545607 -11.93082
35.862686 32.666353 -10.893296
35.943237 34.571846 -10.858057
35.895546 31.821494 -11.976104
35.862686 32.666353 -10.893296
36.865089 24.348933 -17.203707
36.641618 25.171444 -15.945451
36.875631 41.167198 -15.639862
36.922695 41.783034 -16.753198
36.852121 40.479175 -14.544177
36.368114 39.654927 -15.314488
36.875631 41.167198 -15.639862
36.715826 39.758522 -13.381946
36.852121 40.479175 -14.544177
36.646896 38.939529 -12.280171
36.275674 38.147911 -13.117028
36.715826 39.758522 -13.381946
33.996343 30.254151 -22.16532
33.553587 30.837231 -22.958424
33.719123 31.876289 -22.024162
34.327324 28.560188 -22.400059
33.996343 30.254151 -22.16532
34.49286 29.599247 -21.465798
34.78944 26.939678 -22.759621
34.327324 28.560188 -22.400059
35.342807 26.226281 -22.16847
35.286225 27.121162 -21.016125
35.805191 25.442158 -21.484058
34.78944 26.939678 -22.759621
35.342807 26.226281 -22.16847
36.999275 23.464768 -18.394369
36.472191 25.391695 -17.827258
36.865089 24.348933 -17.203707
37.23449 22.717989 -19.6948
36.999275 23.464768 -18.394369
37.382307 21.895229 -20.927879
36.754194 23.68477 -20.250999
37.23449 22.717989 -19.6948
33.185394 34.031565 -22.843899
32.771935 32.930977 -23.586727
34.800684 40.156149 -20.859287
35.165798 41.594358 -21.112924
35.478972 41.106899 -20.196258
34.269483 39.169319 -21.585987
34.800684 40.156149 -20.859287
34.582656 38.68186 -20.669321
33.637404 38.153019 -22.257723
34.269483 39.169319 -21.585987
33.572938 36.649395 -22.133276
33.637404 38.153019 -22.257723
33.503564 35.09108 -22.018961
33.572938 36.649395 -22.133276
33.982082 36.136715 -21.281706
33.594538 33.518885 -21.992328
33.185394 34.031565 -22.843899
33.503564 35.09108 -22.018961
35.802006 34.69833 -12.849993
35.990549 36.481642 -12.934425
36.018202 35.545607 -11.93082
36.531028 26.079612 -14.794887
36.641618 25.171444 -15.945451
36.227415 27.184029 -15.486031
36.746 24.921886 -14.036115
36.531028 26.079612 -14.794887
36.331796 26.934471 -13.576695
33.017712 31.367607 -23.654809
33.553587 30.837231 -22.958424
3 0 26 27
3 1 8 6
3 2 28 30
3 28 9 29
3 28 29 30
3 2 11 9
3 2 13 11
3 3 17 16
3 33 32 7
3 31 32 33
3 4 18 10
3 4 19 18
3 4 20 19
3 5 21 12
3 5 22 21
3 34 23 35
3 36 35 15
3 34 35 36
3 37 24 38
3 39 38 14
3 37 38 39
3 40 25 41
3 42 41 24
3 40 41 42
3 44 43 25
3 6 7 3
3 8 7 6
3 8 45 47
3 47 46 7
3 45 46 47
3 9 48 50
3 48 49 50
3 9 51 52
3 9 53 55
3 53 10 54
3 53 54 55
3 11 10 9
3 11 4 10
3 11 12 4
3 13 12 11
3 13 5 12
3 56 14 57
3 58 14 59
3 61 60 14
3 63 62 1
3 64 2 65
3 66 15 67
3 68 67 2
3 66 67 68
3 69 15 70
3 73 72 15
3 71 72 73
3 16 74 76
3 76 75 0
3 74 75 76
3 17 77 79
3 79 78 16
3 77 78 79
3 17 80 81
3 7 17 3
3 82 17 83
3 84 83 7
3 82 83 84
3 86 85 17
3 87 8 88
3 89 88 1
3 87 88 89
3 90 8 91
3 94 93 8
3 92 93 94
3 95 0 96
3 10 97 99
3 97 98 99
3 18 100 102
3 102 101 10
3 100 101 102
3 18 103 104
3 18 105 106
3 19 107 109
3 109 108 18
3 107 108 109
3 19 110 112
3 110 0 111
3 110 111 112
3 19 16 0
3 20 16 19
3 20 3 16
3 12 20 4
3 21 20 12
3 21 3 20
3 21 6 3
3 22 6 21
3 22 1 6
3 15 13 2
3 23 13 15
3 23 5 13
3 14 113 115
3 113 23 114
3 113 114 115
3 24 23 14
3 24 5 23
3 24 22 5
3 25 22 24
3 25 1 22
3 25 116 118
3 118 117 1
3 116 117 118
3 121 120 25
3 119 120 121
3 123 122 0
