ply
format ascii 1.0
element vertex 200
property float x
property float y
property float z
element face 187
property list uchar int vertex_index
end_header
40.785374 -21.031933 11.463001
43.170769 -22.714113 17.262663
42.388012 -18.248203 3.146982
42.647972 -16.794044 16.657242
40.46841 -13.973214 3.159034
39.765442 -14.968496 7.462966
43.022045 -25.170279 11.22783
43.828804 -23.174189 7.405369
47.620766 -25.530552 7.016611
39.709198 -15.728201 11.3211
40.618076 -16.329836 14.45454
41.364368 -22.0345 14.772934
41.247524 -19.777491 7.511464
39.324909 -12.011314 7.404475
39.302402 -12.333635 9.3453
44.995636 -25.704298 9.145765
42.788338 -19.854437 17.035799
41.676685 -19.610516 15.976662
42.111736 -22.421532 16.126942
42.160816 -24.522274 14.73677
41.314007 -16.324005 3.133664
40.123764 -18.533096 11.435215
40.148762 -18.0742 9.53767
40.905937 -20.435228 9.553389
46.334236 -23.121124 5.290779
44.51981 -22.065834 5.360881
44.075512 -16.963053 17.391092
44.185875 -20.025076 17.860691
39.509041 -11.644907 5.344604
40.060207 -14.506775 5.348002
40.794205 -16.981911 5.353147
41.741386 -23.236586 11.394954
41.950909 -22.470449 9.50028
43.31218 -24.212042 9.366004
45.57914 -24.450779 7.250484
39.481663 -12.620571 11.13028
40.028709 -16.045881 12.994076
40.352989 -18.942858 13.159227
41.491016 -16.580536 15.679523
40.865318 -19.303669 14.680503
40.927906 -21.567307 13.211535
41.800816 -23.925627 13.14757
39.633598 -15.371908 9.465992
40.388191 -17.56057 7.499146
41.759892 -19.052471 5.366401
42.385994 -21.635605 7.486606
42.994911 -20.732546 5.376825
43.721313 -19.754219 3.19295
44.52549 -22.899715 18.182934
39.338806 -10.781486 10.107003
39.197031 -10.659273 9.259636
39.233435 -9.107124 10.021339
43.004551 -23.860619 16.704034
42.475034 -23.714329 16.136173
42.641253 -22.567822 16.694803
42.731676 -17.798149 2.014754
42.194673 -16.83605 2.008095
41.85101 -17.286104 3.140323
43.447738 -18.467806 2.051912
42.731676 -17.798149 2.014754
46.769293 -22.422508 4.280854
47.830253 -22.740018 4.262443
44.911986 -17.021222 17.646469
44.952354 -15.423185 17.281362
44.967167 -18.552233 17.881268
44.130694 -18.494065 17.625892
44.911986 -17.021222 17.646469
39.258083 -10.184186 6.328449
39.297949 -10.043467 5.332135
48.01981 -24.7547 6.081741
46.998997 -24.214814 6.198677
46.599953 -24.990665 7.133548
49.178343 -25.124597 5.971002
48.01981 -24.7547 6.081741
40.323392 -16.187859 13.724308
40.296394 -14.582424 13.54775
40.591077 -14.724401 14.277981
42.069494 -16.68729 16.168382
42.095427 -15.062972 15.899686
42.673905 -15.169726 16.388546
42.58147 -25.276683 13.855825
42.722292 -25.646397 14.664013
40.703729 -13.662133 2.048726
40.139078 -12.598951 3.182704
44.161646 -20.809791 4.311545
43.757361 -21.39919 5.368853
44.924095 -21.476436 4.303572
44.524847 -20.320628 3.219607
43.358112 -20.243382 4.284887
44.161646 -20.809791 4.311545
44.958856 -19.692107 2.133898
44.524847 -20.320628 3.219607
45.33617 -22.935755 18.544531
45.183792 -21.507041 18.327057
45.994473 -21.543081 18.688654
39.208284 -10.498112 8.289224
39.166017 -10.36739 7.358385
39.313655 -12.172474 8.374887
39.208284 -10.498112 8.289224
39.197031 -10.659273 9.259636
44.815527 -26.283746 10.058083
44.00884 -25.437289 10.186798
43.828732 -26.016737 11.099115
45.991581 -26.350415 8.997297
44.815527 -26.283746 10.058083
47.304146 -26.263542 7.93272
46.308201 -25.617425 8.081188
45.991581 -26.350415 8.997297
48.453163 -26.736365 7.781907
48.769783 -26.003375 6.865798
47.304146 -26.263542 7.93272
41.058857 -14.835295 14.845398
40.591077 -14.724401 14.277981
42.499574 -24.7647 15.441088
42.136276 -23.471903 15.431856
42.475034 -23.714329 16.136173
42.722292 -25.646397 14.664013
42.499574 -24.7647 15.441088
41.603651 -15.946506 2.005193
41.180853 -14.771111 2.017877
40.891208 -15.148609 3.146349
41.603651 -15.946506 2.005193
42.194673 -16.83605 2.008095
45.86208 -21.894863 4.315905
45.427023 -22.593479 5.32583
46.769293 -22.422508 4.280854
46.266365 -21.305464 3.258597
44.924095 -21.476436 4.303572
45.86208 -21.894863 4.315905
43.399456 -15.261366 16.707352
42.673905 -15.169726 16.388546
44.113226 -15.345871 17.074278
44.952354 -15.423185 17.281362
43.361742 -16.878549 17.024167
43.399456 -15.261366 16.707352
44.113226 -15.345871 17.074278
39.659394 -11.434797 4.275489
39.297949 -10.043467 5.332135
39.988726 -12.809061 4.251819
40.139078 -12.598951 3.182704
39.659394 -11.434797 4.275489
39.416975 -11.828111 6.37454
39.258083 -10.184186 6.328449
39.166017 -10.36739 7.358385
47.376545 -23.549986 5.218825
45.956688 -23.785951 6.270632
46.998997 -24.214814 6.198677
47.830253 -22.740018 4.262443
47.376545 -23.549986 5.218825
49.178343 -25.124597 5.971002
48.769783 -26.003375 6.865798
39.683239 -11.040723 11.747445
39.428437 -10.924955 10.999493
39.688277 -12.750366 11.927888
39.683239 -11.040723 11.747445
39.802044 -14.304181 12.023297
39.59543 -14.174386 11.22569
39.688277 -12.750366 11.927888
39.961799 -14.463021 12.859786
40.296394 -14.582424 13.54775
39.868954 -15.887041 12.157588
39.802044 -14.304181 12.023297
39.961799 -14.463021 12.859786
41.495327 -14.960645 15.45789
42.095427 -15.062972 15.899686
41.054546 -16.455186 15.067031
41.058857 -14.835295 14.845398
41.495327 -14.960645 15.45789
42.401471 -24.978359 13.061225
41.980816 -24.223951 13.94217
42.58147 -25.276683 13.855825
43.012085 -25.600686 12.101356
42.41143 -24.547953 12.1877
42.401471 -24.978359 13.061225
43.828732 -26.016737 11.099115
43.012085 -25.600686 12.101356
40.703729 -13.662133 2.048726
41.180853 -14.771111 2.017877
39.392032 -12.477103 10.23779
39.338806 -10.781486 10.107003
39.428437 -10.924955 10.999493
44.114389 -19.220813 2.074896
43.447738 -18.467806 2.051912
43.054663 -19.001211 3.169966
44.114389 -19.220813 2.074896
44.958856 -19.692107 2.133898
45.013985 -20.069721 18.165935
44.967167 -18.552233 17.881268
44.355683 -21.462395 18.021812
45.013985 -20.069721 18.165935
45.183792 -21.507041 18.327057
44.826443 -24.235598 18.288515
45.33617 -22.935755 18.544531
44.179254 -24.130493 17.773369
44.826443 -24.235598 18.288515
43.501894 -24.037692 17.313233
43.848129 -22.806914 17.722798
44.179254 -24.130493 17.773369
43.004551 -23.860619 16.704034
43.501894 -24.037692 17.313233
3 49 14 50
3 49 50 51
3 1 18 16
3 1 52 54
3 54 53 18
3 52 53 54
3 2 55 57
3 57 56 20
3 55 56 57
3 2 58 59
3 0 23 21
3 61 60 24
3 62 26 63
3 64 27 65
3 66 65 26
3 64 65 66
3 67 28 68
3 5 29 13
3 5 30 29
3 6 33 31
3 8 34 15
3 8 69 71
3 71 70 34
3 69 70 71
3 8 72 73
3 10 74 76
3 74 36 75
3 74 75 76
3 10 37 36
3 3 77 79
3 77 38 78
3 77 78 79
3 11 39 17
3 11 40 39
3 11 41 40
3 81 80 19
3 4 82 83
3 9 42 35
3 12 43 22
3 12 44 43
3 7 45 32
3 84 46 85
3 86 85 25
3 84 85 86
3 87 47 88
3 89 88 46
3 87 88 89
3 91 90 47
3 92 48 93
3 92 93 94
3 95 13 96
3 14 97 99
3 97 13 98
3 97 98 99
3 14 5 13
3 100 15 101
3 102 101 6
3 100 101 102
3 103 15 104
3 105 8 106
3 107 106 15
3 105 106 107
3 110 109 8
3 108 109 110
3 111 10 112
3 16 17 3
3 18 17 16
3 18 11 17
3 18 19 11
3 113 19 114
3 115 114 18
3 113 114 115
3 117 116 19
3 20 118 120
3 120 119 4
3 118 119 120
3 122 121 20
3 21 22 9
3 23 22 21
3 23 12 22
3 24 25 7
3 123 25 124
3 125 124 24
3 123 124 125
3 128 127 25
3 126 127 128
3 129 3 130
3 26 131 132
3 26 133 135
3 133 3 134
3 133 134 135
3 26 16 3
3 27 16 26
3 27 1 16
3 28 136 137
3 28 138 140
3 138 4 139
3 138 139 140
3 13 141 143
3 141 28 142
3 141 142 143
3 29 28 13
3 29 4 28
3 29 20 4
3 30 20 29
3 30 2 20
3 31 32 0
3 33 32 31
3 33 7 32
3 15 33 6
3 34 33 15
3 34 7 33
3 34 24 7
3 144 24 145
3 146 145 34
3 144 145 146
3 148 147 24
3 150 149 8
3 151 35 152
3 153 35 154
3 155 9 156
3 157 156 35
3 155 156 157
3 36 158 159
3 36 160 162
3 160 9 161
3 160 161 162
3 36 21 9
3 37 21 36
3 37 0 21
3 38 163 164
3 38 165 167
3 165 10 166
3 165 166 167
3 17 38 3
3 39 38 17
3 39 10 38
3 39 37 10
3 40 37 39
3 40 0 37
3 40 31 0
3 41 31 40
3 41 6 31
3 19 41 11
3 168 41 169
3 170 169 19
3 168 169 170
3 171 6 172
3 173 172 41
3 171 172 173
3 175 174 6
3 177 176 4
3 35 178 180
3 178 14 179
3 178 179 180
3 42 14 35
3 42 5 14
3 22 42 9
3 43 42 22
3 43 5 42
3 43 30 5
3 44 30 43
3 44 2 30
3 32 23 0
3 45 23 32
3 45 12 23
3 25 45 7
3 46 45 25
3 46 12 45
3 46 44 12
3 47 44 46
3 47 2 44
3 47 181 183
3 183 182 2
3 181 182 183
3 185 184 47
3 186 27 187
3 48 188 190
3 188 27 189
3 188 189 190
3 48 1 27
3 191 48 192
3 193 48 194
3 195 1 196
3 197 196 48
3 195 196 197
3 199 198 1
