ply
format ascii 1.0
element vertex 238
property float x
property float y
property float z
element face 238
property list uchar int vertex_index
end_header
27.797848 -66.170944 70.752403
20.472874 -69.900009 75.033455
23.890114 -73.690582 65.587814
29.718771 -71.019493 61.017181
18.118122 -74.079468 72.32991
13.824551 -76.328262 73.273376
30.21489 -64.533173 67.389336
28.577517 -68.52755 65.900208
22.656092 -76.910553 61.637169
26.028225 -75.65303 60.165718
24.495461 -67.948227 73.299484
25.721542 -70.113159 68.667404
22.17765 -71.945511 70.803185
20.238491 -75.563591 67.352608
29.445997 -61.977966 71.623039
27.057814 -72.270531 63.477654
29.041399 -74.799522 58.672462
14.885235 -74.163788 74.806717
12.689457 -75.161591 75.090073
29.118774 -65.339386 69.163696
29.418915 -66.551941 66.772881
28.195768 -67.352432 68.397484
22.556807 -68.904907 74.259911
23.323984 -69.99427 72.184006
21.353567 -70.989975 73.077042
17.104164 -76.035416 70.632332
19.155704 -74.877441 69.972412
18.27758 -76.692337 68.096687
19.521156 -77.256035 65.32206
30.203472 -69.030762 61.894325
30.625134 -72.386803 58.873413
24.742823 -71.950562 67.240349
26.334272 -71.165375 66.080986
25.539715 -72.937996 64.576408
27.312916 -76.848801 57.614258
27.577469 -75.207489 59.429115
28.847038 -76.557587 57.120293
30.320116 -76.258713 56.625999
19.26239 -72.035583 73.803596
17.091507 -73.10611 74.377449
15.980522 -75.210815 72.875999
30.448204 -65.76561 65.002708
29.741198 -67.771194 64.303604
29.054605 -69.738861 63.395889
23.193165 -75.33812 63.719521
24.888702 -74.614471 62.851097
24.386644 -76.2024 60.898712
25.704609 -77.212875 58.137283
26.251722 -67.037697 72.133095
26.767551 -68.182693 69.847984
25.137928 -69.059296 71.110527
24.028244 -70.990158 69.814377
23.003052 -72.823334 68.274582
20.196484 -72.980392 71.639694
21.132282 -73.799538 69.185196
22.117306 -74.560715 66.513763
21.398067 -76.214699 64.545647
29.919638 -63.280903 69.630661
28.718718 -64.095535 71.350395
28.117615 -62.78611 73.243652
27.275013 -64.939865 72.851227
25.599607 -65.818573 74.120445
23.71822 -66.733154 75.163292
27.239977 -69.299896 67.360611
27.770117 -70.439461 64.797195
28.446579 -71.645782 62.290001
26.474796 -74.009262 61.93911
27.951336 -73.472786 60.976517
29.328478 -72.949432 59.955467
30.436432 -74.362648 57.878296
12.144245 -74.441162 75.869259
13.245323 -74.013943 75.768593
17.270341 -77.304458 68.413914
17.690872 -76.363877 69.364509
16.683633 -76.975998 69.681736
17.931568 -77.569706 67.064167
17.270341 -77.304458 68.413914
30.307339 -70.686062 60.345237
30.549689 -69.691697 60.78381
29.961122 -70.025127 61.455753
30.171952 -71.703148 59.945297
30.76052 -71.369717 59.273353
30.307339 -70.686062 60.345237
28.785049 -77.391472 56.18763
28.079977 -76.703194 57.367275
28.017988 -77.537079 56.434613
29.55159 -77.311081 56.087425
28.785049 -77.391472 56.18763
16.569185 -72.510994 75.24437
17.689312 -72.010025 75.010578
14.41848 -76.780483 72.214165
15.496465 -76.221759 72.015476
14.902537 -75.769538 73.074687
30.331547 -65.149392 66.196022
30.775755 -64.755676 65.235309
30.659098 -64.139458 66.428624
25.591857 -77.965778 56.989364
24.86206 -77.468887 58.424011
26.419056 -77.812599 56.821018
25.591857 -77.965778 56.989364
20.185114 -77.533497 63.850388
19.252871 -78.082172 64.21508
29.682817 -62.629435 70.62685
30.221575 -62.23961 69.70636
29.984755 -61.588142 70.702549
27.330588 -63.204864 73.934318
27.686426 -62.086354 74.026199
26.899399 -62.505108 74.716865
26.909287 -64.281742 73.738106
27.696314 -63.862988 73.047439
27.330588 -63.204864 73.934318
26.071583 -64.721096 74.372715
26.43731 -65.379219 73.485836
26.909287 -64.281742 73.738106
23.237923 -66.058166 75.926441
24.231823 -65.611939 75.465256
22.692917 -67.205551 75.581879
23.237923 -66.058166 75.926441
31.036592 -76.068691 56.364044
31.035631 -77.048916 55.742393
14.343212 -73.515041 75.626915
15.46605 -73.039833 75.459003
13.787346 -74.662689 74.948395
14.343212 -73.515041 75.626915
13.245323 -74.013943 75.768593
23.337802 -77.317726 60.173954
22.460822 -77.676143 60.489769
18.553356 -77.851555 65.676853
18.899368 -76.974186 66.709373
17.931568 -77.569706 67.064167
19.252871 -78.082172 64.21508
18.553356 -77.851555 65.676853
29.686646 -60.90932 71.599037
29.984755 -61.588142 70.702549
30.72259 -68.659668 61.108898
30.477149 -68.020024 62.248184
30.72259 -68.659668 61.108898
30.549689 -69.691697 60.78381
31.245224 -72.06477 58.30624
30.76052 -71.369717 59.273353
31.205095 -73.113347 57.954548
31.245224 -72.06477 58.30624
30.288129 -77.161644 55.840278
29.583577 -76.40815 56.873146
29.55159 -77.311081 56.087425
31.035631 -77.048916 55.742393
30.288129 -77.161644 55.840278
18.774753 -71.474761 74.723652
19.867632 -70.967796 74.418526
19.379995 -70.406974 75.338581
18.176949 -72.570847 74.090522
18.774753 -71.474761 74.723652
17.689312 -72.010025 75.010578
15.988371 -73.634949 74.592083
16.569185 -72.510994 75.24437
15.46605 -73.039833 75.459003
16.058286 -76.63406 70.893642
16.542343 -75.623115 71.754165
15.496465 -76.221759 72.015476
16.683633 -76.975998 69.681736
16.058286 -76.63406 70.893642
30.878628 -65.374218 64.066944
30.775755 -64.755676 65.235309
30.599515 -66.387448 63.802375
30.878628 -65.374218 64.066944
30.246012 -67.39024 63.452824
30.599515 -66.387448 63.802375
30.094701 -66.768402 64.653156
29.972335 -68.400978 63.098965
30.477149 -68.020024 62.248184
30.246012 -67.39024 63.452824
24.203078 -76.96365 59.804726
23.521368 -76.556477 61.267941
23.337802 -77.317726 60.173954
25.045627 -76.707638 59.517997
24.203078 -76.96365 59.804726
24.86206 -77.468887 58.424011
27.22321 -77.630562 56.559506
26.508763 -77.030838 57.875771
26.419056 -77.812599 56.821018
28.017988 -77.537079 56.434613
27.22321 -77.630562 56.559506
21.12357 -77.012829 63.462181
20.459612 -76.735367 64.933853
20.185114 -77.533497 63.850388
21.752582 -77.360756 62.007942
22.027079 -76.562626 63.091408
21.12357 -77.012829 63.462181
22.460822 -77.676143 60.489769
21.752582 -77.360756 62.007942
30.549474 -63.512898 67.555736
30.659098 -64.139458 66.428624
30.401848 -62.886763 68.676399
30.221575 -62.23961 69.70636
30.067264 -63.907038 68.509998
30.549474 -63.512898 67.555736
30.401848 -62.886763 68.676399
29.080934 -61.288927 72.466633
29.686646 -60.90932 71.599037
28.416744 -61.692999 73.276939
27.686426 -62.086354 74.026199
28.781806 -62.382038 72.433346
29.080934 -61.288927 72.466633
28.416744 -61.692999 73.276939
25.172517 -65.154648 74.943832
26.071583 -64.721096 74.372715
24.658913 -66.275863 74.641869
25.172517 -65.154648 74.943832
24.231823 -65.611939 75.465256
22.11221 -68.291427 75.130188
23.137513 -67.81903 74.711602
22.692917 -67.205551 75.581879
21.070244 -68.788978 75.51696
21.51484 -69.402458 74.646683
22.11221 -68.291427 75.130188
19.982619 -69.268905 75.847996
21.070244 -68.788978 75.51696
19.379995 -70.406974 75.338581
19.982619 -69.268905 75.847996
31.110744 -74.101269 57.456989
31.205095 -73.113347 57.954548
30.530783 -73.374725 58.375855
31.09475 -75.120659 56.990192
30.378274 -75.31068 57.252147
31.036592 -76.068691 56.364044
31.110744 -74.101269 57.456989
31.09475 -75.120659 56.990192
11.619763 -75.604782 75.152894
12.144245 -74.441162 75.869259
12.191047 -76.268853 74.299786
11.619763 -75.604782 75.152894
12.758595 -76.852188 73.391437
13.257004 -75.744926 74.181725
12.191047 -76.268853 74.299786
13.371134 -77.370712 72.398514
12.758595 -76.852188 73.391437
14.41848 -76.780483 72.214165
13.371134 -77.370712 72.398514
3 70 18 71
3 0 21 19
3 1 24 22
3 72 27 73
3 74 73 25
3 72 73 74
3 76 75 27
3 3 77 79
3 79 78 29
3 77 78 79
3 3 80 82
3 80 30 81
3 80 81 82
3 2 33 31
3 83 36 84
3 85 84 34
3 83 84 85
3 87 86 36
3 88 39 89
3 5 40 17
3 5 90 92
3 92 91 40
3 90 91 92
3 6 93 95
3 93 41 94
3 93 94 95
3 7 42 20
3 7 43 42
3 8 46 44
3 96 47 97
3 99 98 47
3 10 50 48
3 12 51 23
3 12 52 51
3 4 53 38
3 13 54 26
3 13 55 54
3 13 56 55
3 101 100 28
3 14 102 104
3 102 57 103
3 102 103 104
3 14 58 57
3 105 59 106
3 105 106 107
3 108 60 109
3 110 109 59
3 108 109 110
3 111 61 112
3 113 112 60
3 111 112 113
3 114 62 115
3 117 116 62
3 11 63 49
3 15 64 32
3 15 65 64
3 9 66 45
3 16 67 35
3 16 68 67
3 16 69 68
3 119 118 37
3 120 17 121
3 18 122 124
3 122 17 123
3 122 123 124
3 18 5 17
3 19 20 6
3 21 20 19
3 21 7 20
3 126 125 8
3 22 23 10
3 24 23 22
3 24 12 23
3 25 26 4
3 27 26 25
3 27 13 26
3 27 28 13
3 127 28 128
3 129 128 27
3 127 128 129
3 131 130 28
3 132 14 133
3 29 134 135
3 137 136 29
3 30 138 139
3 30 140 141
3 31 32 11
3 33 32 31
3 33 15 32
3 34 35 9
3 36 35 34
3 36 16 35
3 36 37 16
3 142 37 143
3 144 143 36
3 142 143 144
3 146 145 37
3 147 38 148
3 149 148 1
3 147 148 149
3 39 150 152
3 150 38 151
3 150 151 152
3 39 4 38
3 17 153 155
3 153 39 154
3 153 154 155
3 40 39 17
3 40 4 39
3 40 25 4
3 156 25 157
3 158 157 40
3 156 157 158
3 160 159 25
3 41 161 162
3 41 163 164
3 20 41 6
3 42 41 20
3 42 165 167
3 167 166 41
3 165 166 167
3 42 168 170
3 168 29 169
3 168 169 170
3 43 29 42
3 43 3 29
3 44 45 2
3 46 45 44
3 46 9 45
3 171 46 172
3 173 172 8
3 171 172 173
3 47 174 176
3 174 46 175
3 174 175 176
3 47 9 46
3 47 34 9
3 177 34 178
3 179 178 47
3 177 178 179
3 181 180 34
3 48 49 0
3 50 49 48
3 50 11 49
3 23 50 10
3 51 50 23
3 51 11 50
3 51 31 11
3 52 31 51
3 52 2 31
3 38 24 1
3 53 24 38
3 53 12 24
3 26 53 4
3 54 53 26
3 54 12 53
3 54 52 12
3 55 52 54
3 55 2 52
3 55 44 2
3 56 44 55
3 56 8 44
3 28 56 13
3 182 56 183
3 184 183 28
3 182 183 184
3 185 8 186
3 187 186 56
3 185 186 187
3 189 188 8
3 190 6 191
3 57 192 193
3 57 194 196
3 194 6 195
3 194 195 196
3 57 19 6
3 58 19 57
3 58 0 19
3 197 14 198
3 59 199 200
3 59 201 203
3 201 14 202
3 201 202 203
3 59 58 14
3 60 58 59
3 60 0 58
3 60 48 0
3 61 48 60
3 61 10 48
3 204 61 205
3 62 206 208
3 206 61 207
3 206 207 208
3 62 10 61
3 62 22 10
3 209 22 210
3 211 210 62
3 209 210 211
3 212 1 213
3 214 213 22
3 212 213 214
3 215 1 216
3 218 217 1
3 49 21 0
3 63 21 49
3 63 7 21
3 32 63 11
3 64 63 32
3 64 7 63
3 64 43 7
3 65 43 64
3 65 3 43
3 45 33 2
3 66 33 45
3 66 15 33
3 35 66 9
3 67 66 35
3 67 15 66
3 67 65 15
3 68 65 67
3 68 3 65
3 68 30 3
3 69 30 68
3 69 219 221
3 221 220 30
3 219 220 221
3 37 69 16
3 222 69 223
3 224 223 37
3 222 223 224
3 226 225 69
3 227 18 228
3 229 18 230
3 231 5 232
3 233 232 18
3 231 232 233
3 234 5 235
3 237 236 5
