ply
format ascii 1.0
element vertex 118
property float x
property float y
property float z
element face 104
property list uchar int vertex_index
end_header
24.068062 70.218048 24.994957
19.372826 81.15258 14.302153
20.126801 73.665222 26.115866
17.596077 79.541237 20.922394
21.746181 76.021423 19.88818
25.918097 72.615814 19.276278
18.728374 70.513428 32.173912
22.635059 67.293526 30.726513
22.094116 71.920403 25.50745
20.895615 74.945526 23.0042
22.895966 73.174652 22.50198
18.451321 80.48056 17.592299
24.849655 75.156479 16.592432
20.699081 68.919571 31.404003
18.115324 75.353539 26.802029
18.87521 76.703239 23.594105
19.690788 77.819977 20.364071
20.583626 78.697037 17.151773
24.927242 71.489166 22.112213
23.807617 74.257088 19.516941
22.702797 76.886993 16.81078
21.571527 79.333237 13.996959
17.391121 73.780029 29.95575
19.412102 72.186325 29.182297
21.372128 70.501495 28.488174
23.314997 68.818039 27.881695
18.262869 82.013828 14.50439
17.802117 81.677818 16.149463
18.912073 80.81657 15.947226
18.727776 82.251152 12.830592
18.262869 82.013828 14.50439
16.516011 80.305431 21.236286
17.194386 78.940285 22.588692
23.241753 77.213154 15.309811
23.776226 76.021736 16.701606
24.315182 76.347897 15.200637
22.676118 78.436275 13.902901
22.137162 78.110115 15.40387
23.241753 77.213154 15.309811
17.709325 71.253148 32.605725
18.396065 69.582226 33.626404
18.059748 72.146728 31.064831
17.040699 72.886448 31.496643
17.709325 71.253148 32.605725
17.362366 81.297721 17.853704
16.934744 80.82806 19.518751
18.023699 80.010898 19.257347
17.362366 81.297721 17.853704
17.802117 81.677818 16.149463
25.950542 74.365433 16.555133
25.383876 73.886146 17.934355
26.484763 73.095101 17.897056
25.439163 75.508919 15.174521
25.950542 74.365433 16.555133
24.315182 76.347897 15.200637
25.439163 75.508919 15.174521
19.390205 68.842869 33.201752
18.396065 69.582226 33.626404
20.375559 68.045941 32.816797
19.713727 69.716499 31.788958
19.390205 68.842869 33.201752
21.348355 67.279263 32.447876
20.375559 68.045941 32.816797
22.316344 66.46624 32.109131
21.66707 68.106549 31.065258
21.348355 67.279263 32.447876
17.454009 76.846436 25.528509
17.071178 76.119671 27.179699
17.833952 77.521286 23.924547
17.454009 76.846436 25.528509
18.495267 76.028389 25.198067
18.235644 78.122238 22.258249
17.194386 78.940285 22.588692
17.833952 77.521286 23.924547
25.512695 70.065509 23.356703
24.497652 70.853607 23.553585
25.083105 69.42995 24.798074
25.977741 70.724605 21.985703
25.512695 70.065509 23.356703
26.473168 71.287929 20.567735
25.422669 72.05249 20.694246
25.977741 70.724605 21.985703
27.008204 71.88073 19.23088
26.473168 71.287929 20.567735
26.484763 73.095101 17.897056
27.008204 71.88073 19.23088
16.516011 80.305431 21.236286
16.934744 80.82806 19.518751
22.118757 79.534943 12.465013
22.676118 78.436275 13.902901
20.97233 80.448231 12.54247
22.118757 79.534943 12.465013
19.872979 81.357902 12.695067
20.472176 80.242908 14.149556
20.97233 80.448231 12.54247
18.727776 82.251152 12.830592
19.872979 81.357902 12.695067
16.340205 74.487312 30.381643
17.040699 72.886448 31.496643
16.709076 75.332916 28.75656
16.340205 74.487312 30.381643
17.753222 74.566784 28.378889
17.071178 76.119671 27.179699
16.709076 75.332916 28.75656
23.286719 65.708282 31.791994
22.316344 66.46624 32.109131
23.60933 66.505173 30.435842
23.286719 65.708282 31.791994
23.949299 67.267429 29.013433
22.975028 68.055782 29.304104
23.60933 66.505173 30.435842
24.303856 68.020226 27.629881
23.949299 67.267429 29.013433
24.680388 68.72023 26.186512
23.69153 69.518044 26.438326
24.303856 68.020226 27.629881
25.083105 69.42995 24.798074
24.680388 68.72023 26.186512
3 0 10 8
3 1 26 28
3 28 27 11
3 26 27 28
3 1 29 30
3 2 15 14
3 4 16 9
3 4 17 16
3 3 31 32
3 5 19 18
3 33 20 34
3 35 34 12
3 33 34 35
3 36 21 37
3 38 37 20
3 36 37 38
3 6 39 40
3 6 41 43
3 41 22 42
3 41 42 43
3 6 23 22
3 7 24 13
3 7 25 24
3 8 9 2
3 10 9 8
3 10 4 9
3 11 44 46
3 46 45 3
3 44 45 46
3 48 47 11
3 49 12 50
3 51 50 5
3 49 50 51
3 52 12 53
3 55 54 12
3 56 6 57
3 58 13 59
3 60 59 6
3 58 59 60
3 61 13 62
3 63 7 64
3 65 64 13
3 63 64 65
3 14 66 67
3 15 68 70
3 70 69 14
3 68 69 70
3 15 71 73
3 71 3 72
3 71 72 73
3 9 15 2
3 16 15 9
3 16 3 15
3 16 11 3
3 17 11 16
3 17 1 11
3 74 18 75
3 76 75 0
3 74 75 76
3 77 18 78
3 79 5 80
3 81 80 18
3 79 80 81
3 82 5 83
3 85 84 5
3 87 86 3
3 18 10 0
3 19 10 18
3 19 4 10
3 12 19 5
3 20 19 12
3 20 4 19
3 20 17 4
3 21 17 20
3 21 1 17
3 88 21 89
3 90 21 91
3 92 1 93
3 94 93 21
3 92 93 94
3 96 95 1
3 22 97 98
3 22 99 100
3 22 101 103
3 101 14 102
3 101 102 103
3 23 14 22
3 23 2 14
3 13 23 6
3 24 23 13
3 24 2 23
3 24 8 2
3 25 8 24
3 25 0 8
3 104 7 105
3 106 7 107
3 108 25 109
3 110 109 7
3 108 109 110
3 111 25 112
3 113 0 114
3 115 114 25
3 113 114 115
3 117 116 0
