ply
format ascii 1.0
element vertex 97
property float x
property float y
property float z
element face 79
property list uchar int vertex_index
end_header
-5.021052 -33.927101 -44.134991
0.38532 -28.850594 -50.804909
-2.378853 -31.628777 -47.489765
-0.313185 -23.653267 -50.944824
-4.982109 -36.600807 -44.26125
-3.586921 -35.580498 -45.891552
-3.727951 -32.854588 -45.798321
-0.568431 -32.889679 -49.21014
0.971148 -31.293394 -50.835293
-1.544715 -25.140055 -49.096497
-2.123996 -34.419418 -47.523533
-1.040462 -30.320833 -49.117676
-2.595378 -29.043751 -47.385132
-1.291693 -27.587633 -49.169716
0.023568 -26.220226 -50.917969
1.340593 -24.798794 -52.602962
-5.001581 -35.263954 -44.198121
-5.67269 -37.180191 -43.420395
-5.692162 -35.843338 -43.357265
1.139929 -28.040296 -51.665501
1.432843 -29.261696 -51.680693
0.678234 -30.071994 -50.820101
-2.668289 -27.843665 -47.339899
-3.230082 -29.697179 -46.50679
1.725458 -22.728842 -53.521627
1.10773 -23.471893 -52.653511
2.026045 -24.043765 -53.437976
1.725458 -22.728842 -53.521627
-5.643876 -38.590931 -43.529561
-5.67269 -37.180191 -43.420395
-4.905055 -37.992056 -44.350409
-5.643876 -38.590931 -43.529561
-4.284515 -36.090653 -45.076401
-4.207461 -37.481901 -45.16556
-4.905055 -37.992056 -44.350409
-0.338707 -34.297657 -49.172245
-0.911504 -36.401079 -48.374105
-1.141228 -34.993101 -48.412001
0.431083 -33.499515 -49.984821
-0.338707 -34.297657 -49.172245
0.201358 -32.091537 -50.022717
1.270601 -32.670289 -50.760132
0.730536 -34.87641 -49.909661
0.431083 -33.499515 -49.984821
1.762558 -30.438166 -51.63946
1.270601 -32.670289 -50.760132
1.762558 -30.438166 -51.63946
1.432843 -29.261696 -51.680693
-1.664507 -23.948339 -49.035591
-2.142957 -25.891817 -48.195582
-1.116202 -23.227955 -49.942948
-1.664507 -23.948339 -49.035591
-1.235994 -22.03624 -49.882042
-0.500437 -22.484561 -50.867111
-0.92895 -24.396661 -50.02066
-1.116202 -23.227955 -49.942948
-3.469199 -37.007511 -45.93816
-4.207461 -37.481901 -45.16556
-2.737737 -36.426972 -46.754151
-3.469199 -37.007511 -45.93816
-2.855459 -34.999958 -46.707543
-1.91901 -35.75797 -47.568697
-2.737737 -36.426972 -46.754151
-1.346213 -33.654549 -48.366837
-1.141228 -34.993101 -48.412001
-1.91901 -35.75797 -47.568697
-5.610067 -34.365948 -43.358177
-5.692162 -35.843338 -43.357265
-6.281177 -36.282184 -42.580452
-5.036442 -32.577664 -44.05414
-5.610067 -34.365948 -43.358177
-4.442919 -32.138854 -44.88172
-5.036442 -32.577664 -44.05414
-3.796368 -31.602598 -45.713385
-4.374502 -33.390845 -44.966656
-4.442919 -32.138854 -44.88172
-3.161665 -30.949169 -46.591727
-3.796368 -31.602598 -45.713385
-3.230082 -29.697179 -46.50679
-2.070047 -27.091903 -48.240814
-2.668289 -27.843665 -47.339899
-2.142957 -25.891817 -48.195582
0.064079 -21.74566 -51.798666
-0.500437 -22.484561 -50.867111
0.280841 -22.899129 -51.824442
0.064079 -21.74566 -51.798666
0.449217 -24.182609 -51.811014
-0.144809 -24.936746 -50.931396
0.280841 -22.899129 -51.824442
0.68208 -25.50951 -51.760465
0.449217 -24.182609 -51.811014
1.10773 -23.471893 -52.653511
1.617565 -26.014396 -52.564527
1.139929 -28.040296 -51.665501
0.862956 -26.824694 -51.703936
1.617565 -26.014396 -52.564527
2.026045 -24.043765 -53.437976
3 0 16 18
3 16 4 17
3 16 17 18
3 0 6 4
3 1 8 7
3 1 19 21
3 21 20 8
3 19 20 21
3 2 10 5
3 2 11 10
3 22 12 23
3 3 13 9
3 3 14 13
3 24 15 25
3 27 26 15
3 4 28 29
3 4 30 31
3 4 32 34
3 32 5 33
3 32 33 34
3 6 5 4
3 6 2 5
3 7 35 37
3 35 36 37
3 8 38 40
3 40 39 7
3 38 39 40
3 8 41 43
3 41 42 43
3 8 44 45
3 47 46 8
3 48 9 49
3 50 9 51
3 50 51 52
3 53 3 54
3 55 54 9
3 53 54 55
3 5 56 57
3 10 58 60
3 60 59 5
3 58 59 60
3 10 61 62
3 10 63 65
3 63 7 64
3 63 64 65
3 11 7 10
3 11 1 7
3 66 0 67
3 66 67 68
3 69 0 70
3 71 0 72
3 73 6 74
3 75 74 0
3 73 74 75
3 12 76 78
3 76 6 77
3 76 77 78
3 12 2 6
3 9 79 81
3 79 12 80
3 79 80 81
3 13 12 9
3 13 2 12
3 13 11 2
3 14 11 13
3 14 1 11
3 82 3 83
3 84 3 85
3 86 14 87
3 88 87 3
3 86 87 88
3 15 89 91
3 89 14 90
3 89 90 91
3 15 1 14
3 15 92 94
3 94 93 1
3 92 93 94
3 96 95 15
