ply
format ascii 1.0
element vertex 112
property float x
property float y
property float z
element face 92
property list uchar int vertex_index
end_header
15.576838 17.085634 -16.251871
15.901013 15.705831 -13.546598
14.366546 22.344215 -17.263119
14.723828 21.456038 -14.626406
15.551583 20.460873 -12.190374
16.806643 19.147751 -10.227717
16.212353 14.988063 -12.259239
15.078503 21.012962 -13.346863
15.486334 17.929113 -17.674999
15.722299 16.303753 -14.832928
16.36735 14.660743 -15.927656
14.857209 20.282162 -18.096081
14.903612 19.679321 -16.747414
14.517402 21.757034 -15.890824
15.051956 19.001766 -15.30711
15.240808 18.645809 -13.964992
15.570667 17.994093 -12.800394
16.035353 17.117704 -11.649257
16.122335 19.636623 -11.166677
16.569969 16.465635 -10.611567
16.567515 13.654657 -12.029428
16.425125 14.590854 -11.675871
15.964509 16.249491 -16.806342
15.919257 16.671231 -17.517906
15.531586 17.507373 -16.963435
16.202432 14.729852 -14.007174
16.113075 15.028813 -14.650339
15.811656 16.004792 -14.189763
14.611877 21.313188 -17.6796
14.618253 21.461863 -18.38957
14.372921 22.492889 -17.973088
14.620615 21.606536 -15.258615
14.416398 23.122584 -15.584152
14.519611 22.972086 -14.951942
16.464489 19.392187 -10.697197
16.268421 21.0385 -11.037261
16.610575 20.794064 -10.567781
17.016744 17.576537 -9.942315
16.898407 16.235479 -10.134241
16.688306 17.806693 -10.419642
16.821351 13.973254 -16.567207
16.824345 13.492553 -15.746885
16.43947 14.011432 -12.681255
16.283801 14.370316 -13.324934
16.056683 15.346947 -12.902919
16.43947 14.011432 -12.681255
16.567515 13.654657 -12.029428
14.174774 23.641346 -17.587362
14.372921 22.492889 -17.973088
14.710537 22.722378 -14.307731
14.519611 22.972086 -14.951942
14.887874 22.50084 -13.66796
14.901165 21.2345 -13.986635
14.710537 22.722378 -14.307731
15.125806 22.41136 -13.096087
14.887874 22.50084 -13.66796
15.362347 22.135315 -12.517843
15.315043 20.736918 -12.768619
15.125806 22.41136 -13.096087
17.028993 20.656554 -10.145186
16.610575 20.794064 -10.567781
17.185054 18.90909 -9.828489
17.028993 20.656554 -10.145186
15.89532 17.153385 -18.226007
15.522676 18.198164 -18.365495
15.89532 17.153385 -18.226007
15.919257 16.671231 -17.517906
16.4356 14.207308 -15.197703
16.044824 15.482248 -15.380292
16.113075 15.028813 -14.650339
16.824345 13.492553 -15.746885
16.4356 14.207308 -15.197703
16.202432 14.729852 -14.007174
16.283801 14.370316 -13.324934
14.911379 20.463373 -18.803027
14.618253 21.461863 -18.38957
15.208113 19.374688 -18.576036
14.911379 20.463373 -18.803027
15.171771 19.105638 -17.88554
15.522676 18.198164 -18.365495
15.208113 19.374688 -18.576036
14.234402 23.491091 -16.885779
14.174774 23.641346 -17.587362
14.30983 23.197501 -16.199632
14.416398 23.122584 -15.584152
14.441974 22.050624 -16.576971
14.234402 23.491091 -16.885779
14.30983 23.197501 -16.199632
16.336625 15.655674 -11.37088
16.425125 14.590854 -11.675871
16.123853 16.052884 -11.954248
15.659296 21.795117 -11.995097
15.362347 22.135315 -12.517843
15.944672 21.382993 -11.483249
16.268421 21.0385 -11.037261
15.836959 20.048748 -11.678525
15.659296 21.795117 -11.995097
15.944672 21.382993 -11.483249
16.603933 15.32964 -10.852035
16.336625 15.655674 -11.37088
16.302661 16.791669 -11.130412
16.866285 14.981264 -10.315558
16.603933 15.32964 -10.852035
16.866285 14.981264 -10.315558
16.898407 16.235479 -10.134241
17.016744 17.576537 -9.942315
17.185054 18.90909 -9.828489
16.359765 15.037045 -16.644234
15.964509 16.249491 -16.806342
15.972094 15.873188 -16.089764
16.359765 15.037045 -16.644234
16.821351 13.973254 -16.567207
3 21 20 6
3 0 22 24
3 24 23 8
3 22 23 24
3 1 25 27
3 27 26 9
3 25 26 27
3 2 28 30
3 28 11 29
3 28 29 30
3 2 12 11
3 3 31 33
3 31 13 32
3 31 32 33
3 3 14 13
3 3 15 14
3 4 16 7
3 4 17 16
3 5 34 36
3 34 18 35
3 34 35 36
3 5 19 18
3 5 37 39
3 39 38 19
3 37 38 39
3 41 40 10
3 6 42 44
3 44 43 1
3 42 43 44
3 46 45 6
3 47 2 48
3 49 3 50
3 51 7 52
3 53 52 3
3 51 52 53
3 54 7 55
3 56 4 57
3 58 57 7
3 56 57 58
3 59 5 60
3 62 61 5
3 8 63 64
3 66 65 8
3 9 10 0
3 67 10 68
3 69 68 9
3 67 68 69
3 71 70 10
3 73 72 1
3 11 74 75
3 11 76 77
3 11 78 80
3 78 8 79
3 78 79 80
3 12 8 11
3 12 0 8
3 81 2 82
3 13 83 84
3 13 85 87
3 85 2 86
3 85 86 87
3 13 12 2
3 14 12 13
3 14 0 12
3 14 9 0
3 15 9 14
3 15 1 9
3 7 15 3
3 16 15 7
3 16 1 15
3 16 6 1
3 17 6 16
3 17 88 90
3 90 89 6
3 88 89 90
3 91 4 92
3 18 93 94
3 18 95 97
3 95 4 96
3 95 96 97
3 18 17 4
3 19 17 18
3 19 98 100
3 100 99 17
3 98 99 100
3 19 101 102
3 104 103 19
3 106 105 5
3 10 107 109
3 109 108 0
3 107 108 109
3 111 110 10
