ply
format ascii 1.0
element vertex 616
property float x
property float y
property float z
element face 728
property list uchar int vertex_index
end_header
-24.32995 -80.31768 -18.25366
-20.932058 -56.087105 -20.02438
-23.207834 -101.476479 -17.823416
-24.186289 -64.952263 -4.181255
-25.446321 -91.892769 -17.981405
-20.65406 -96.706924 -27.292664
-22.330656 -85.880119 -26.576414
-22.169987 -68.085388 -18.941614
-19.339605 -60.029488 -25.888914
-17.109613 -106.913513 -17.189896
-26.263781 -94.329269 -7.546952
-25.992374 -83.917152 -9.012271
-25.192341 -75.358421 -1.152298
-23.870268 -72.708977 -10.730302
-22.699158 -61.727272 -12.687838
-23.57983 -50.269066 -14.246882
-15.242822 -103.856842 -26.901981
-25.176865 -86.271843 -18.106136
-24.141607 -89.275818 -22.61582
-23.82979 -83.534416 -22.335939
-21.375542 -61.962879 -19.396452
-20.936401 -64.533592 -22.559935
-20.159922 -58.415081 -22.91493
-26.515232 -89.342056 -8.195225
-26.311277 -84.88755 -3.782234
-25.205795 -71.016357 2.373727
-24.487024 -69.954086 -2.694212
-24.592297 -74.389427 -6.073152
-23.782494 -68.946075 -7.45398
-23.078833 -67.331856 -11.78156
-23.444208 -63.552124 -8.600219
-20.702953 -104.746986 -17.388226
-16.596136 -105.98851 -22.054403
-19.825632 -103.442924 -22.569304
-18.422976 -92.716064 -31.165417
-16.227722 -97.03656 -31.5135
-20.95747 -50.173771 -20.51984
-24.838165 -97.100708 -17.857126
-22.205433 -99.632301 -22.936457
-23.707245 -94.78701 -22.778194
-21.910589 -91.548729 -27.094776
-19.704453 -87.303192 -30.573189
-23.232056 -74.142517 -18.566143
-23.046818 -77.229408 -22.101564
-21.951559 -70.732216 -22.265678
-20.253742 -66.519852 -25.957144
-20.550327 -105.068741 -12.124619
-23.406897 -102.267464 -12.568782
-25.044569 -98.726006 -7.184369
-25.281885 -98.339928 -12.762202
-26.145264 -93.579086 -13.019058
-26.093977 -88.192825 -13.324671
-25.363787 -82.431328 -13.572407
-25.816595 -71.512871 7.653046
-25.549301 -79.568329 -4.850148
-25.000511 -78.416756 -9.654777
-24.214176 -76.49144 -14.266642
-23.119125 -70.80928 -15.004985
-22.285465 -64.97332 -15.843429
-21.892677 -59.336086 -16.494352
-23.670292 -57.985943 -9.612365
-22.838207 -56.072952 -13.600096
-21.979851 -53.476734 -17.184826
-22.59761 -47.702843 -17.680405
-18.510265 -100.780144 -27.213907
-13.471564 -100.640549 -31.046885
-21.990774 -79.724236 -26.280697
-24.837357 -83.384766 -18.031031
-24.566746 -85.053787 -20.252939
-24.198256 -82.11042 -20.234846
-21.092827 -59.05191 -19.761852
-20.795156 -60.270473 -21.236414
-20.501822 -57.097664 -21.521257
-26.480066 -87.345795 -3.140842
-24.580334 -65.412254 -1.786505
-24.657997 -68.096275 -1.0421
-24.296713 -67.488289 -3.344265
-24.138882 -69.514717 -5.066866
-23.935095 -66.999146 -5.662582
-23.577492 -66.412888 -7.906157
-23.806934 -64.341751 -6.466584
-21.96063 -103.332985 -17.794542
-20.344931 -104.257027 -20.039188
-21.740046 -102.567055 -20.231028
-25.24539 -94.654396 -17.967482
-24.386406 -96.077057 -20.284225
-24.754404 -93.453377 -20.314045
-23.342838 -87.743927 -24.567961
-23.253902 -90.717056 -24.741653
-22.308605 -88.852852 -26.690329
-20.9013 -89.543068 -28.85808
-21.166494 -86.690285 -28.603838
-22.684166 -71.182388 -18.758066
-22.649403 -72.645981 -20.449459
-22.091337 -69.569618 -20.64978
-20.214725 -62.512146 -24.223236
-20.628351 -65.617775 -24.289478
-19.79497 -63.290821 -25.875294
-22.033255 -103.89473 -12.468111
-23.139887 -102.391327 -9.823745
-26.073423 -94.594521 -4.773139
-25.471464 -96.840736 -4.737193
-25.782484 -96.629456 -7.243268
-25.283627 -98.558075 -9.878201
-25.910517 -96.400795 -9.920916
-25.836975 -96.103638 -12.803288
-26.266056 -94.171951 -10.43273
-26.332541 -86.654312 -8.622035
-26.367804 -88.754585 -10.651019
-26.109426 -86.060326 -11.094816
-25.792459 -85.257462 -13.395009
-25.714382 -83.263329 -11.414463
-25.11735 -73.020309 0.54602
-25.425175 -73.470406 3.221106
-25.322384 -77.371239 -3.022276
-24.239746 -73.642303 -8.473173
-24.76532 -76.331856 -7.773578
-24.415907 -75.595238 -10.211693
-24.631433 -77.535522 -12.009802
-24.065586 -74.771439 -12.405001
-23.649986 -73.6716 -14.59889
-23.532423 -71.921684 -12.836292
-22.822708 -64.422173 -12.235765
-22.691534 -66.137459 -13.808308
-22.433428 -63.505466 -14.32327
-22.039745 -62.131725 -16.149273
-22.328644 -60.56076 -14.536522
-24.026789 -59.032734 -7.543146
-23.522429 -54.54644 -12.05981
-23.119833 -53.235298 -13.983613
-22.400948 -54.785858 -15.517162
-22.695301 -51.916668 -15.764826
-22.207912 -50.618458 -17.492605
-23.054817 -49.287075 -16.01166
-16.029848 -105.122429 -24.420544
-21.463282 -98.405922 -25.190308
-20.501587 -100.424187 -25.090054
-19.678596 -98.833504 -27.3337
-14.909193 -98.852348 -31.448956
-22.195551 -75.246323 -24.108192
-22.640213 -78.529495 -24.180038
-21.720446 -76.546204 -26.009121
-25.406637 -89.019211 -18.003334
-24.833719 -90.865303 -20.48102
-24.834568 -88.050659 -20.213568
-24.121258 -86.473518 -22.297178
-23.213634 -84.68856 -24.45204
-21.700796 -64.867653 -19.228844
-21.59745 -66.37587 -20.738224
-21.142439 -63.226299 -21.011946
-20.497204 -61.430786 -22.777954
-19.764133 -59.137276 -24.360815
-26.434809 -92.16671 -5.064223
-26.49749 -91.91468 -7.966772
-26.551643 -89.681458 -5.419557
-26.464832 -87.134331 -5.987218
-26.203117 -84.477562 -6.358748
-25.041233 -68.297462 1.505628
-24.856821 -70.413864 -0.152948
-24.816957 -72.566353 -1.762675
-24.862209 -74.608162 -3.615596
-24.468746 -72.072403 -4.304205
-24.139326 -71.624504 -6.735959
-23.794262 -70.915451 -9.043651
-23.428505 -70.06797 -11.348263
-23.430239 -68.190453 -9.697712
-23.205666 -65.520027 -10.109234
-23.092535 -62.756138 -10.582023
-18.988314 -106.001976 -17.321175
-17.102037 -106.518867 -19.665842
-18.874922 -105.499969 -19.830399
-18.351736 -104.849388 -22.32411
-17.612696 -103.882027 -24.82375
-19.578358 -94.747108 -29.368839
-18.566141 -96.969032 -29.538586
-17.352131 -94.989922 -31.458075
-20.866425 -53.096149 -20.329636
-20.354792 -54.16256 -21.690708
-20.301014 -51.210346 -21.891764
-24.225042 -62.274002 -4.87895
-24.133324 -99.363113 -17.976439
-22.857725 -100.606766 -20.396229
-23.704838 -98.489029 -20.431623
-23.138802 -97.303093 -22.779274
-22.360041 -95.973877 -25.050158
-24.022621 -92.162811 -22.749489
-22.842783 -93.274574 -25.117609
-21.359621 -94.248795 -27.286331
-20.258919 -92.115814 -29.293579
-19.128727 -89.990479 -30.970417
-23.827375 -77.283424 -18.270624
-23.73399 -78.90789 -20.196341
-23.218193 -75.858429 -20.334932
-22.515635 -74.020004 -22.199894
-21.72337 -72.083908 -24.040312
-21.391882 -67.499069 -22.425068
-21.193932 -68.856728 -24.072691
-19.855761 -55.189487 -23.158684
-18.928188 -106.19976 -14.818298
-20.645876 -105.116898 -14.834582
-22.206108 -103.640999 -14.986362
-23.411814 -101.959618 -15.255113
-24.351067 -100.60968 -9.838076
-24.48173 -100.418381 -12.493823
-24.356287 -100.080582 -15.445896
-25.13685 -97.801888 -15.437806
-25.64443 -95.318062 -15.43365
-25.88608 -92.8312 -15.431875
-26.426691 -91.553085 -10.562295
-26.249178 -90.835045 -12.924991
-25.880623 -90.142563 -15.662678
-25.710537 -87.208504 -15.62088
-25.365685 -84.418739 -15.773758
-24.884287 -81.407349 -15.948027
-25.53348 -71.294823 5.06992
-25.690176 -73.710556 5.973733
-26.099752 -82.632095 -1.588946
-25.976442 -82.171967 -4.192528
-25.793734 -81.765213 -6.845749
-25.059214 -76.830276 -5.328341
-25.280678 -78.955391 -7.317334
-25.541285 -81.183708 -9.282136
-25.194628 -80.310394 -11.639202
-24.803654 -79.486656 -14.014885
-24.347689 -78.451736 -16.166685
-23.780981 -75.57399 -16.521687
-23.202305 -72.527519 -16.7246
-22.658278 -69.503654 -17.080233
-23.051373 -68.907555 -13.306332
-22.676756 -67.90094 -15.279881
-22.225624 -66.538513 -17.297411
-21.855688 -63.481056 -17.633389
-21.595858 -60.539894 -17.954439
-21.419855 -57.695156 -18.363031
-23.835375 -61.779442 -7.047138
-23.485958 -60.790829 -9.09926
-23.110704 -60.008041 -11.083742
-23.946665 -55.32275 -10.169738
-23.243053 -57.167393 -11.667758
-22.7197 -58.876858 -13.076913
-22.301714 -57.635509 -15.040148
-21.869284 -56.443481 -16.841021
-21.40106 -54.922878 -18.591015
-21.501579 -52.068554 -18.831944
-21.726021 -49.185959 -19.047895
-21.190586 -101.658089 -22.716059
-19.275381 -102.24601 -24.923588
-17.04343 -102.426788 -27.111557
-17.428446 -99.120293 -29.425869
-16.050364 -100.797462 -29.362593
-14.420262 -102.347008 -29.082808
-23.453037 -80.346657 -22.257368
-22.933664 -81.659401 -24.430567
-22.192379 -82.875366 -26.479107
-21.098984 -80.533249 -28.23456
-21.142494 -83.652725 -28.508629
-19.115836 -60.504698 -26.648322
-19.343519 -62.135365 -26.641512
-19.567287 -61.660155 -25.882104
-22.914475 -102.306907 -8.422902
-22.412683 -103.097515 -9.717229
-25.321428 -75.478417 0.191109
-25.283933 -74.30936 1.040268
-25.154846 -74.189365 -0.303139
-25.380503 -76.582268 -0.712751
-25.321428 -75.478417 0.191109
-25.257362 -76.36483 -2.087287
-25.445525 -77.588676 -1.64774
-25.380503 -76.582268 -0.712751
-23.349832 -51.752182 -14.115247
-23.535459 -52.402963 -13.247582
-23.765457 -50.919848 -13.379217
-16.167331 -107.075519 -18.212841
-16.18683 -107.182235 -16.984611
-14.385333 -104.430904 -26.599107
-14.778846 -105.063698 -25.358389
-15.636335 -104.489635 -25.661262
-13.955026 -103.743977 -27.732238
-14.385333 -104.430904 -26.599107
-21.506596 -74.807175 -25.926575
-21.957998 -75.896264 -25.058656
-21.744149 -74.157235 -24.97611
-26.448117 -91.12754 -3.859095
-26.327656 -92.324433 -3.672309
-26.506533 -89.884915 -4.036761
-26.493226 -90.924084 -5.24189
-26.448117 -91.12754 -3.859095
-25.003255 -67.112133 1.075965
-25.206912 -67.272041 2.376482
-18.766479 -87.334503 -31.583945
-18.478616 -88.678146 -31.782559
-19.41659 -88.646835 -30.771803
-20.519256 -68.131253 -25.908666
-20.989351 -69.29969 -24.966439
-20.723837 -67.68829 -25.014917
-20.025804 -66.967075 -26.751534
-20.519256 -68.131253 -25.908666
-19.801792 -53.742939 -23.168605
-20.105277 -54.676023 -22.424696
-20.051307 -53.229475 -22.434617
-19.620137 -105.580937 -12.22861
-20.272161 -104.999203 -10.887326
-19.739258 -105.634251 -13.471459
-18.809067 -106.146446 -13.57545
-19.620137 -105.580937 -12.22861
-24.845326 -98.697174 -5.845237
-25.058774 -97.754539 -4.621649
-25.258017 -97.783371 -5.960781
-24.529333 -99.661786 -7.131112
-24.845326 -98.697174 -5.845237
-24.697818 -99.667843 -8.511222
-24.182582 -100.603623 -8.457965
-24.529333 -99.661786 -7.131112
-25.944704 -71.676987 8.942871
-25.93918 -70.45131 8.439637
-25.864398 -72.740917 8.138939
-25.944704 -71.676987 8.942871
-25.369637 -71.15559 3.721824
-25.464158 -70.041851 4.535978
-25.300315 -69.902618 3.187882
-25.682905 -74.814731 5.063223
-25.557676 -73.590481 4.597419
-25.550404 -74.694657 3.686909
-25.772551 -75.015808 6.381808
-25.682905 -74.814731 5.063223
-25.996738 -81.49643 -0.641658
-26.125224 -82.7901 -0.16
-26.02221 -81.654435 0.787288
-25.762871 -80.870148 -4.521338
-25.854456 -81.015339 -3.203215
-25.640886 -79.71352 -3.532024
-24.133421 -60.728459 -6.195507
-24.030209 -62.026722 -5.963044
-24.328254 -60.975739 -5.111413
-24.193872 -53.898842 -10.321463
-24.394019 -54.382452 -9.309418
-22.311493 -46.97983 -18.507981
-21.875699 -47.721388 -19.191726
-22.161815 -48.444401 -18.36415
-15.69752 -106.390835 -21.824828
-15.95047 -106.656013 -20.630547
-16.849086 -106.253689 -20.860123
-12.537769 -101.2687 -30.905765
-13.012118 -102.121929 -29.923727
-13.945913 -101.493778 -30.064847
-20.50786 -80.862037 -29.21085
-20.496451 -79.277375 -29.065024
-20.529615 -82.421775 -29.347885
-21.120739 -82.092987 -28.371595
-20.50786 -80.862037 -29.21085
-20.523294 -83.936379 -29.435657
-20.529615 -82.421775 -29.347885
-26.443901 -87.613037 -1.824351
-26.470745 -88.717083 -2.897404
-26.404317 -86.247734 -2.03053
-26.443901 -87.613037 -1.824351
-26.319923 -85.018612 -2.351226
-26.395671 -86.116672 -3.461538
-26.404317 -86.247734 -2.03053
-24.619166 -66.754265 -1.414303
-24.811637 -67.011539 -0.197899
-24.772806 -65.669529 -0.570101
-16.715599 -91.268654 -32.974247
-17.353497 -92.619427 -32.115395
-17.785077 -91.365292 -32.024269
-20.674165 -49.28273 -21.267647
-21.06362 -48.740319 -20.602418
-19.564148 -63.754762 -26.692626
-19.793534 -65.369278 -26.733551
-20.024356 -64.905337 -25.916219
-19.564148 -63.754762 -26.692626
-19.343519 -62.135365 -26.641512
-21.117903 -104.436222 -10.867665
-20.272161 -104.999203 -10.887326
-21.859367 -103.849216 -11.039411
-21.291791 -104.481735 -12.296365
-21.117903 -104.436222 -10.867665
-22.586571 -103.143028 -11.145928
-21.859367 -103.849216 -11.039411
-22.412683 -103.097515 -9.717229
-25.772444 -95.717629 -4.755166
-25.621451 -95.703739 -3.373291
-25.922431 -94.580632 -3.391264
-25.782511 -70.207867 7.141047
-25.93918 -70.45131 8.439637
-25.437846 -74.534409 2.37781
-25.271262 -73.245357 1.883563
-25.283933 -74.30936 1.040268
-25.550404 -74.694657 3.686909
-25.437846 -74.534409 2.37781
-25.527428 -78.614975 -2.618088
-25.445525 -77.588676 -1.64774
-25.435842 -78.469784 -3.936212
-25.640886 -79.71352 -3.532024
-25.527428 -78.614975 -2.618088
-24.388146 -57.996491 -6.749154
-24.229128 -59.355104 -6.443511
-24.216239 -57.567085 -7.754056
-24.388146 -57.996491 -6.749154
-24.03799 -57.04369 -8.788666
-23.84854 -58.509338 -8.577756
-24.216239 -57.567085 -7.754056
-23.736756 -53.058534 -12.285681
-23.981755 -53.510687 -11.266499
-23.321131 -53.890869 -13.021712
-23.736756 -53.058534 -12.285681
-23.535459 -52.402963 -13.247582
-15.101623 -105.587734 -24.211675
-15.384767 -106.020775 -23.028605
-16.312992 -105.55547 -23.237474
-15.101623 -105.587734 -24.211675
-14.778846 -105.063698 -25.358389
-14.324356 -97.730969 -32.373484
-15.568458 -97.944454 -31.481228
-14.983621 -96.823074 -32.405756
-13.589448 -98.671154 -32.239328
-14.324356 -97.730969 -32.373484
-12.870634 -99.565254 -32.038293
-14.190379 -99.746448 -31.24792
-13.589448 -98.671154 -32.239328
-12.088287 -100.283104 -31.852733
-12.870634 -99.565254 -32.038293
-26.146963 -93.538338 -3.526767
-25.922431 -94.580632 -3.391264
-26.254116 -93.380616 -4.918681
-26.146963 -93.538338 -3.526767
-26.327656 -92.324433 -3.672309
-26.515854 -88.513627 -4.2802
-26.506533 -89.884915 -4.036761
-26.470745 -88.717083 -2.897404
-25.218035 -68.543171 2.753832
-25.206912 -67.272041 2.376482
-25.123514 -69.656909 1.939678
-25.300315 -69.902618 3.187882
-25.218035 -68.543171 2.753832
-24.849615 -68.196868 0.231764
-25.003255 -67.112133 1.075965
-24.811637 -67.011539 -0.197899
-24.08289 -49.392611 -13.484806
-23.765457 -50.919848 -13.379217
-23.839532 -48.85899 -14.380329
-24.08289 -49.392611 -13.484806
-16.818075 -93.756356 -32.261724
-17.887553 -93.852993 -31.311746
-17.353497 -92.619427 -32.115395
-16.225148 -94.859272 -32.352806
-16.818075 -93.756356 -32.261724
-15.662944 -95.882591 -32.380518
-16.789926 -96.013241 -31.485788
-16.225148 -94.859272 -32.352806
-14.983621 -96.823074 -32.405756
-15.662944 -95.882591 -32.380518
-20.024418 -51.753369 -22.535145
-20.051307 -53.229475 -22.434617
-20.327903 -52.686453 -21.791236
-20.345937 -49.801018 -21.953609
-20.629242 -50.692059 -21.205802
-20.674165 -49.28273 -21.267647
-19.997031 -50.283816 -22.614749
-20.345937 -49.801018 -21.953609
-20.024418 -51.753369 -22.535145
-19.997031 -50.283816 -22.614749
-24.807851 -64.420342 -0.883614
-24.772806 -65.669529 -0.570101
-24.601424 -64.130663 -2.152465
-24.807851 -64.420342 -0.883614
-24.404401 -63.900667 -3.34984
-24.383311 -65.182259 -2.98388
-24.601424 -64.130663 -2.152465
-24.423777 -62.561537 -3.698688
-24.205665 -63.613133 -4.530102
-24.404401 -63.900667 -3.34984
-24.527839 -61.278448 -3.959804
-24.423777 -62.561537 -3.698688
-24.328254 -60.975739 -5.111413
-24.527839 -61.278448 -3.959804
-18.137953 -90.002499 -31.926769
-17.785077 -91.365292 -32.024269
-18.775852 -91.353272 -31.067917
-17.487842 -88.690167 -32.738911
-18.137953 -90.002499 -31.926769
-18.478616 -88.678146 -31.782559
-21.508058 -72.576027 -24.94217
-21.744149 -74.157235 -24.97611
-21.95946 -73.665115 -24.074252
-21.25407 -70.91328 -24.95025
-21.458651 -70.470318 -24.056501
-20.989351 -69.29969 -24.966439
-21.508058 -72.576027 -24.94217
-21.25407 -70.91328 -24.95025
-19.565596 -65.816502 -27.52794
-20.025804 -66.967075 -26.751534
-19.793534 -65.369278 -26.733551
-19.491312 -54.047519 -23.929079
-19.801792 -53.742939 -23.168605
-19.638608 -55.659004 -23.833507
-19.491312 -54.047519 -23.929079
-19.790689 -57.271801 -23.71163
-20.007842 -56.802284 -23.036807
-19.638608 -55.659004 -23.833507
-19.592794 -57.632898 -24.434573
-19.962028 -58.776179 -23.637873
-19.790689 -57.271801 -23.71163
-19.348098 -58.100956 -25.189862
-19.592794 -57.632898 -24.434573
-19.135833 -58.547062 -25.953912
-19.551869 -59.583382 -25.124865
-19.348098 -58.100956 -25.189862
-18.854689 -58.793639 -26.710006
-19.135833 -58.547062 -25.953912
-18.63092 -59.268849 -27.469414
-19.115836 -60.504698 -26.648322
-18.854689 -58.793639 -26.710006
-17.083179 -106.931884 -15.945981
-16.18683 -107.182235 -16.984611
-17.992467 -106.575008 -14.760181
-17.873347 -106.521694 -13.517333
-18.809067 -106.146446 -13.57545
-18.018901 -106.556636 -16.004097
-17.083179 -106.931884 -15.945981
-17.992467 -106.575008 -14.760181
-25.237165 -96.781345 -3.299904
-25.387153 -95.644348 -1.936002
-25.621451 -95.703739 -3.373291
-25.237165 -96.781345 -3.299904
-25.058774 -97.754539 -4.621649
-23.576992 -101.494446 -8.4508
-22.914475 -102.306907 -8.422902
-23.745477 -101.500504 -9.83091
-23.576992 -101.494446 -8.4508
-24.182582 -100.603623 -8.457965
-25.640953 -70.098843 5.849484
-25.464158 -70.041851 4.535978
-25.675038 -71.403847 6.361483
-25.782511 -70.207867 7.141047
-25.640953 -70.098843 5.849484
-25.801189 -73.83976 7.299283
-25.864398 -72.740917 8.138939
-25.753386 -72.611714 6.813389
-25.801189 -73.83976 7.299283
-25.772551 -75.015808 6.381808
-26.21416 -83.890884 -1.254582
-26.125224 -82.7901 -0.16
-26.205514 -83.759823 -2.68559
-26.319923 -85.018612 -2.351226
-26.21416 -83.890884 -1.254582
-25.916111 -81.245403 -1.901423
-25.996738 -81.49643 -0.641658
-26.038097 -82.402031 -2.890737
-25.916111 -81.245403 -1.901423
-25.854456 -81.015339 -3.203215
-23.931082 -60.406088 -7.295142
-24.133421 -60.728459 -6.195507
-24.229128 -59.355104 -6.443511
-24.176177 -55.712093 -9.067353
-24.394019 -54.382452 -9.309418
-23.808478 -56.654347 -9.891051
-24.03799 -57.04369 -8.788666
-24.176177 -55.712093 -9.067353
-23.734547 -54.934595 -11.114774
-24.193872 -53.898842 -10.321463
-23.981755 -53.510687 -11.266499
-21.447896 -48.246412 -19.866446
-21.06362 -48.740319 -20.602418
-21.341746 -49.679865 -19.783867
-21.447896 -48.246412 -19.866446
-21.875699 -47.721388 -19.191726
-23.577025 -48.367995 -15.262718
-23.317324 -49.77807 -15.129271
-23.839532 -48.85899 -14.380329
-23.282219 -47.809326 -16.185399
-23.577025 -48.367995 -15.262718
-23.053615 -47.01721 -17.019772
-22.826214 -48.494959 -16.846032
-23.282219 -47.809326 -16.185399
-22.778857 -46.282269 -17.877889
-23.053615 -47.01721 -17.019772
-22.311493 -46.97983 -18.507981
-22.778857 -46.282269 -17.877889
-16.163543 -106.878197 -19.450814
-16.167331 -107.075519 -18.212841
-17.105825 -106.71619 -18.427869
-16.163543 -106.878197 -19.450814
-15.95047 -106.656013 -20.630547
-15.69752 -106.390835 -21.824828
-15.384767 -106.020775 -23.028605
-13.543746 -102.989059 -28.822651
-13.955026 -103.743977 -27.732238
-14.831542 -103.101925 -27.992394
-13.543746 -102.989059 -28.822651
-13.012118 -102.121929 -29.923727
-11.154492 -100.911255 -31.711613
-12.537769 -101.2687 -30.905765
-12.088287 -100.283104 -31.852733
-21.194158 -75.271962 -26.841479
-21.506596 -74.807175 -25.926575
-21.309786 -76.884869 -27.010995
-21.194158 -75.271962 -26.841479
-21.44495 -78.473885 -27.146783
-21.85561 -78.13522 -26.144909
-21.309786 -76.884869 -27.010995
-20.999055 -78.878391 -28.123714
-20.496451 -79.277375 -29.065024
-21.544879 -80.128743 -27.257628
-21.44495 -78.473885 -27.146783
-20.999055 -78.878391 -28.123714
-20.535294 -85.455159 -29.483262
-21.154494 -85.171505 -28.556233
-20.523294 -83.936379 -29.435657
-19.804274 -85.761612 -30.467937
-20.435474 -86.996738 -29.588513
-20.535294 -85.455159 -29.483262
-18.984417 -86.013069 -31.43552
-19.804274 -85.761612 -30.467937
-18.766479 -87.334503 -31.583945
-18.984417 -86.013069 -31.43552
3 0 69 67
3 1 72 70
3 3 76 74
3 3 78 76
3 3 80 78
3 2 83 81
3 4 86 84
3 6 89 87
3 6 91 89
3 7 94 92
3 8 97 95
3 8 256 258
3 258 257 97
3 256 257 258
3 259 99 260
3 10 102 100
3 10 104 102
3 10 106 104
3 11 109 107
3 11 111 109
3 12 261 263
3 263 262 112
3 261 262 263
3 12 264 265
3 12 266 268
3 266 114 267
3 266 267 268
3 13 117 115
3 13 119 117
3 13 121 119
3 14 124 122
3 14 126 124
3 15 269 271
3 269 129 270
3 269 270 271
3 15 131 129
3 15 133 131
3 9 272 273
3 16 274 276
3 276 275 134
3 274 275 276
3 16 277 278
3 5 137 135
3 279 141 280
3 281 280 139
3 279 280 281
3 17 144 142
3 19 145 68
3 19 146 145
3 20 149 147
3 22 150 71
3 22 151 150
3 282 152 283
3 284 154 285
3 286 285 152
3 284 285 286
3 24 155 73
3 24 156 155
3 287 157 288
3 26 158 75
3 26 159 158
3 26 161 159
3 28 162 77
3 28 163 162
3 28 165 163
3 30 166 79
3 30 167 166
3 31 170 168
3 33 171 82
3 33 172 171
3 34 175 173
3 36 178 176
3 37 182 180
3 39 183 85
3 39 184 183
3 18 185 143
3 40 186 88
3 40 187 186
3 40 188 187
3 41 189 90
3 41 289 291
3 291 290 189
3 289 290 291
3 42 192 190
3 44 193 93
3 44 194 193
3 21 195 148
3 45 196 96
3 45 292 294
3 294 293 196
3 292 293 294
3 45 295 296
3 297 197 298
3 299 298 177
3 297 298 299
3 46 300 301
3 46 302 304
3 302 198 303
3 302 303 304
3 46 199 198
3 47 200 98
3 47 201 200
3 48 305 307
3 307 306 101
3 305 306 307
3 48 308 309
3 48 310 312
3 310 202 311
3 310 311 312
3 49 203 103
3 49 204 203
3 49 205 204
3 50 206 105
3 50 207 206
3 23 208 153
3 51 209 108
3 51 210 209
3 51 211 210
3 52 212 110
3 52 213 212
3 53 313 314
3 53 315 316
3 25 317 319
3 317 214 318
3 317 318 319
3 320 215 321
3 322 321 113
3 320 321 322
3 324 323 215
3 325 216 326
3 325 326 327
3 54 328 330
3 328 217 329
3 328 329 330
3 54 218 217
3 27 219 160
3 55 220 116
3 55 221 220
3 55 222 221
3 56 223 118
3 56 224 223
3 56 225 224
3 57 226 120
3 57 227 226
3 29 228 164
3 58 229 123
3 58 230 229
3 58 231 230
3 59 232 125
3 59 233 232
3 331 234 332
3 333 332 179
3 331 332 333
3 60 235 127
3 60 236 235
3 334 237 335
3 61 238 128
3 61 239 238
3 61 240 239
3 62 241 130
3 62 242 241
3 62 243 242
3 63 244 132
3 63 336 338
3 338 337 244
3 336 337 338
3 32 339 341
3 341 340 169
3 339 340 341
3 38 245 181
3 64 246 136
3 64 247 246
3 35 248 174
3 65 249 138
3 65 250 249
3 65 342 344
3 344 343 250
3 342 343 344
3 43 251 191
3 66 252 140
3 66 253 252
3 345 254 346
3 347 255 348
3 349 348 254
3 347 348 349
3 351 350 255
3 67 68 17
3 69 68 67
3 69 19 68
3 70 71 20
3 72 71 70
3 72 22 71
3 352 73 353
3 354 73 355
3 356 24 357
3 358 357 73
3 356 357 358
3 74 359 361
3 359 75 360
3 359 360 361
3 76 75 74
3 76 26 75
3 76 77 26
3 78 77 76
3 78 28 77
3 78 79 28
3 80 79 78
3 80 30 79
3 81 82 31
3 83 82 81
3 83 33 82
3 364 363 34
3 362 363 364
3 366 365 36
3 84 85 37
3 86 85 84
3 86 39 85
3 87 88 18
3 89 88 87
3 89 40 88
3 89 90 40
3 91 90 89
3 91 41 90
3 92 93 42
3 94 93 92
3 94 44 93
3 95 96 21
3 97 96 95
3 97 45 96
3 97 367 369
3 369 368 45
3 367 368 369
3 371 370 97
3 372 46 373
3 374 98 375
3 376 375 46
3 374 375 376
3 99 377 379
3 377 98 378
3 377 378 379
3 99 47 98
3 100 380 382
3 380 101 381
3 380 381 382
3 102 101 100
3 102 48 101
3 102 103 48
3 104 103 102
3 104 49 103
3 104 105 49
3 106 105 104
3 106 50 105
3 107 108 23
3 109 108 107
3 109 51 108
3 109 110 51
3 111 110 109
3 111 52 110
3 383 53 384
3 112 113 25
3 385 113 386
3 387 386 112
3 385 386 387
3 389 388 113
3 114 390 391
3 114 392 394
3 392 54 393
3 392 393 394
3 115 116 27
3 117 116 115
3 117 55 116
3 117 118 55
3 119 118 117
3 119 56 118
3 119 120 56
3 121 120 119
3 121 57 120
3 122 123 29
3 124 123 122
3 124 58 123
3 124 125 58
3 126 125 124
3 126 59 125
3 395 127 396
3 397 127 398
3 399 60 400
3 401 400 127
3 399 400 401
3 402 128 403
3 129 404 406
3 404 128 405
3 404 405 406
3 129 61 128
3 129 130 61
3 131 130 129
3 131 62 130
3 131 132 62
3 133 132 131
3 133 63 132
3 134 407 409
3 409 408 32
3 407 408 409
3 411 410 134
3 135 136 38
3 137 136 135
3 137 64 136
3 412 138 413
3 414 413 35
3 412 413 414
3 415 138 416
3 417 65 418
3 419 418 138
3 417 418 419
3 421 420 65
3 139 140 43
3 141 140 139
3 141 66 140
3 142 143 4
3 144 143 142
3 144 18 143
3 68 144 17
3 145 144 68
3 145 18 144
3 145 87 18
3 146 87 145
3 146 6 87
3 147 148 7
3 149 148 147
3 149 21 148
3 71 149 20
3 150 149 71
3 150 21 149
3 150 95 21
3 151 95 150
3 151 8 95
3 422 100 423
3 152 424 426
3 424 100 425
3 424 425 426
3 152 10 100
3 152 153 10
3 154 153 152
3 154 23 153
3 73 427 429
3 427 154 428
3 427 428 429
3 155 154 73
3 155 23 154
3 155 107 23
3 156 107 155
3 156 11 107
3 157 430 431
3 157 432 434
3 432 25 433
3 432 433 434
3 75 435 437
3 435 157 436
3 435 436 437
3 158 157 75
3 158 25 157
3 158 112 25
3 159 112 158
3 159 12 112
3 159 160 12
3 161 160 159
3 161 27 160
3 77 161 26
3 162 161 77
3 162 27 161
3 162 115 27
3 163 115 162
3 163 13 115
3 163 164 13
3 165 164 163
3 165 29 164
3 79 165 28
3 166 165 79
3 166 29 165
3 166 122 29
3 167 122 166
3 167 14 122
3 438 15 439
3 441 440 15
3 168 169 9
3 170 169 168
3 170 32 169
3 82 170 31
3 171 170 82
3 171 32 170
3 171 134 32
3 172 134 171
3 172 16 134
3 173 174 5
3 175 174 173
3 175 35 174
3 442 175 443
3 444 443 34
3 442 443 444
3 445 175 446
3 447 35 448
3 449 448 175
3 447 448 449
3 451 450 35
3 176 177 1
3 178 177 176
3 178 452 454
3 454 453 177
3 452 453 454
3 455 178 456
3 457 456 36
3 455 456 457
3 458 178 459
3 461 460 178
3 462 74 463
3 464 74 465
3 466 3 467
3 468 467 74
3 466 467 468
3 469 179 470
3 471 470 3
3 469 470 471
3 472 179 473
3 475 474 179
3 180 181 2
3 182 181 180
3 182 38 181
3 85 182 37
3 183 182 85
3 183 38 182
3 183 135 38
3 184 135 183
3 184 5 135
3 143 86 4
3 185 86 143
3 185 39 86
3 88 185 18
3 186 185 88
3 186 39 185
3 186 184 39
3 187 184 186
3 187 5 184
3 187 173 5
3 188 173 187
3 188 34 173
3 90 188 40
3 189 188 90
3 189 34 188
3 189 476 478
3 478 477 34
3 476 477 478
3 481 480 189
3 479 480 481
3 190 191 0
3 192 191 190
3 192 43 191
3 93 192 42
3 193 192 93
3 193 43 192
3 193 139 43
3 194 139 193
3 194 482 484
3 484 483 139
3 482 483 484
3 148 94 7
3 195 94 148
3 195 44 94
3 96 195 21
3 196 195 96
3 196 44 195
3 196 194 44
3 485 194 486
3 487 486 196
3 485 486 487
3 489 488 194
3 492 491 45
3 490 491 492
3 177 72 1
3 197 72 177
3 197 22 72
3 493 197 494
3 495 197 496
3 497 22 498
3 499 498 197
3 497 498 499
3 500 151 501
3 502 501 22
3 500 501 502
3 503 151 504
3 505 8 506
3 507 506 151
3 505 506 507
3 508 8 509
3 512 511 8
3 510 511 512
3 513 9 514
3 198 515 517
3 515 516 517
3 198 518 520
3 518 9 519
3 518 519 520
3 198 168 9
3 199 168 198
3 199 31 168
3 98 199 46
3 200 199 98
3 200 31 199
3 200 81 31
3 201 81 200
3 201 2 81
3 101 521 523
3 521 522 523
3 525 524 101
3 526 99 527
3 202 528 530
3 528 99 529
3 528 529 530
3 202 47 99
3 103 202 48
3 203 202 103
3 203 47 202
3 203 201 47
3 204 201 203
3 204 2 201
3 204 180 2
3 205 180 204
3 205 37 180
3 105 205 49
3 206 205 105
3 206 37 205
3 206 84 37
3 207 84 206
3 207 4 84
3 153 106 10
3 208 106 153
3 208 50 106
3 108 208 23
3 209 208 108
3 209 50 208
3 209 207 50
3 210 207 209
3 210 4 207
3 210 142 4
3 211 142 210
3 211 17 142
3 110 211 51
3 212 211 110
3 212 17 211
3 212 67 17
3 213 67 212
3 213 0 67
3 214 531 532
3 214 533 535
3 533 53 534
3 533 534 535
3 113 214 25
3 215 214 113
3 215 53 214
3 215 536 538
3 538 537 53
3 536 537 538
3 540 539 215
3 216 541 542
3 216 543 545
3 543 24 544
3 543 544 545
3 546 216 547
3 217 548 550
3 548 216 549
3 548 549 550
3 217 24 216
3 217 156 24
3 218 156 217
3 218 11 156
3 160 114 12
3 219 114 160
3 219 54 114
3 116 219 27
3 220 219 116
3 220 54 219
3 220 218 54
3 221 218 220
3 221 11 218
3 221 111 11
3 222 111 221
3 222 52 111
3 118 222 55
3 223 222 118
3 223 52 222
3 223 213 52
3 224 213 223
3 224 0 213
3 224 190 0
3 225 190 224
3 225 42 190
3 120 225 56
3 226 225 120
3 226 42 225
3 226 92 42
3 227 92 226
3 227 7 92
3 164 121 13
3 228 121 164
3 228 57 121
3 123 228 29
3 229 228 123
3 229 57 228
3 229 227 57
3 230 227 229
3 230 7 227
3 230 147 7
3 231 147 230
3 231 20 147
3 125 231 58
3 232 231 125
3 232 20 231
3 232 70 20
3 233 70 232
3 233 1 70
3 179 80 3
3 234 80 179
3 234 30 80
3 127 551 553
3 551 234 552
3 551 552 553
3 235 234 127
3 235 30 234
3 235 167 30
3 236 167 235
3 236 14 167
3 237 554 555
3 237 556 558
3 556 60 557
3 556 557 558
3 128 559 561
3 559 237 560
3 559 560 561
3 238 237 128
3 238 60 237
3 238 236 60
3 239 236 238
3 239 14 236
3 239 126 14
3 240 126 239
3 240 59 126
3 130 240 61
3 241 240 130
3 241 59 240
3 241 233 59
3 242 233 241
3 242 1 233
3 242 176 1
3 243 176 242
3 243 36 176
3 132 243 62
3 244 243 132
3 244 36 243
3 244 562 564
3 564 563 36
3 562 563 564
3 566 565 244
3 567 133 568
3 569 568 15
3 567 568 569
3 570 133 571
3 572 63 573
3 574 573 133
3 572 573 574
3 575 63 576
3 578 577 63
3 169 579 581
3 581 580 9
3 579 580 581
3 583 582 169
3 585 584 32
3 181 83 2
3 245 83 181
3 245 33 83
3 136 245 38
3 246 245 136
3 246 33 245
3 246 172 33
3 247 172 246
3 247 16 172
3 174 137 5
3 248 137 174
3 248 64 137
3 138 248 35
3 249 248 138
3 249 64 248
3 249 247 64
3 250 247 249
3 250 16 247
3 250 586 588
3 588 587 16
3 586 587 588
3 590 589 250
3 593 592 65
3 591 592 593
3 191 69 0
3 251 69 191
3 251 19 69
3 140 251 43
3 252 251 140
3 252 19 251
3 252 146 19
3 253 146 252
3 253 6 146
3 594 141 595
3 596 141 597
3 598 66 599
3 600 599 141
3 598 599 600
3 254 601 602
3 254 603 605
3 603 66 604
3 603 604 605
3 254 253 66
3 255 253 254
3 255 6 253
3 255 91 6
3 606 91 607
3 608 607 255
3 606 607 608
3 609 41 610
3 611 610 91
3 609 610 611
3 612 41 613
3 615 614 41
