ply
format ascii 1.0
element vertex 168
property float x
property float y
property float z
element face 146
property list uchar int vertex_index
end_header
35.919476 62.233814 3.785294
32.941936 72.365532 10.272032
34.975819 70.017479 0.173495
31.322397 72.039345 21.430927
31.673914 76.602852 14.312936
37.64864 55.829624 0.960853
32.09594 79.942139 7.022026
33.461067 75.197563 3.536027
34.353146 67.700417 6.714783
31.786015 70.769287 19.314226
36.307774 63.065525 0.57737
37.195091 59.749397 -0.921485
36.778316 59.22274 2.262865
37.242393 54.986336 4.085454
36.398186 58.275005 5.239622
32.260311 74.632767 12.354632
31.890514 78.426666 10.583602
32.544037 76.073418 8.778028
32.732857 77.826698 5.196697
33.203629 73.990273 6.787739
33.906593 71.448586 5.263692
33.601963 70.149796 8.529138
35.79937 66.962425 -1.216169
35.494114 65.947479 2.056111
31.518454 74.304588 17.861752
32.052788 72.600029 15.810389
32.632568 70.848091 13.696326
38.133797 51.592796 2.593672
34.171696 72.804245 1.848241
34.645592 69.061966 3.506626
35.079632 65.143478 5.31889
33.960979 66.508125 10.029053
34.719131 63.827847 8.499495
35.536598 61.230743 6.772254
35.387595 68.489952 -0.521337
35.563929 68.754413 -2.194114
35.152153 70.28194 -1.499282
31.420426 73.171966 19.646339
31.261905 75.10429 18.865477
31.163877 73.971668 20.650064
32.194636 70.77731 16.52473
31.919401 71.684658 17.562308
32.061249 69.861939 18.276649
32.484526 69.901341 15.467698
32.342678 71.72406 14.753357
32.194636 70.77731 16.52473
32.795113 68.828282 14.49801
32.484526 69.901341 15.467698
37.848226 56.027477 -0.607722
37.621452 57.987364 -1.548891
37.421865 57.789511 0.019684
38.084705 54.058525 0.233963
37.848226 56.027477 -0.607722
37.891219 53.71121 1.777262
38.327284 51.940111 1.050373
38.084705 54.058525 0.233963
37.258291 52.387334 6.284664
37.471333 52.874979 4.826242
37.029352 54.498691 5.543876
31.484706 78.369583 13.575606
31.40814 77.28891 15.456742
31.785463 80.92606 8.018861
31.68275 80.168323 9.79965
31.993227 79.184403 8.802814
31.86645 81.70887 6.176966
31.785463 80.92606 8.018861
32.185257 80.686375 5.236199
31.86645 81.70887 6.176966
33.229056 77.030853 2.640786
32.864951 78.34542 3.471122
33.096962 76.51213 4.366362
33.591135 75.82156 1.711247
33.229056 77.030853 2.640786
33.816381 74.000904 2.692134
33.946449 74.624901 0.867354
33.591135 75.82156 1.711247
33.78229 65.637745 11.728704
33.601814 67.537914 11.087426
34.924667 61.789026 9.255911
34.5167 63.174031 10.076966
35.3334 60.490474 8.392291
35.127865 62.529295 7.635874
34.924667 61.789026 9.255911
35.759124 59.104917 7.565558
35.3334 60.490474 8.392291
34.739262 71.860435 -0.825482
35.152153 70.28194 -1.499282
31.696908 69.610672 20.926017
31.554206 71.404316 20.372577
31.465098 70.245701 21.984367
31.939781 68.768692 19.94644
31.696908 69.610672 20.926017
32.215015 67.861344 18.908862
32.061249 69.861939 18.276649
31.939781 68.768692 19.94644
36.751432 61.407461 -0.172057
36.935154 61.716411 -1.826121
36.491495 63.374476 -1.076694
36.607248 56.143026 6.12096
37.029352 54.498691 5.543876
36.82029 56.630671 4.662538
35.9543 67.239174 -2.803704
35.563929 68.754413 -2.194114
36.237294 65.322925 -1.973463
35.9543 67.239174 -2.803704
36.053572 65.013975 -0.3194
36.491495 63.374476 -1.076694
36.237294 65.322925 -1.973463
31.33041 76.139778 17.23115
31.261905 75.10429 18.865477
31.596184 75.45372 16.087344
31.40814 77.28891 15.456742
31.33041 76.139778 17.23115
32.937608 69.707897 12.921062
33.092292 70.466617 11.208915
32.787252 71.606811 11.984179
32.937608 69.707897 12.921062
32.795113 68.828282 14.49801
31.079529 72.776684 22.44986
31.163877 73.971668 20.650064
31.229112 70.923908 23.101774
31.079529 72.776684 22.44986
31.465098 70.245701 21.984367
31.229112 70.923908 23.101774
37.380949 59.92383 -2.528801
36.935154 61.716411 -1.826121
37.380949 59.92383 -2.528801
37.621452 57.987364 -1.548891
38.545872 49.776863 1.953523
38.327284 51.940111 1.050373
38.355069 49.315084 3.427517
38.545872 49.776863 1.953523
37.917034 51.178209 4.08035
37.688095 53.289566 3.339563
37.471333 52.874979 4.826242
38.355069 49.315084 3.427517
37.917034 51.178209 4.08035
31.593006 79.28149 11.71094
31.484706 78.369583 13.575606
31.782214 77.514759 12.448269
31.593006 79.28149 11.71094
31.68275 80.168323 9.79965
32.503715 79.628654 4.323535
32.185257 80.686375 5.236199
32.414399 78.884418 6.109362
32.503715 79.628654 4.323535
32.864951 78.34542 3.471122
34.3372 73.253818 0.011891
33.946449 74.624901 0.867354
34.573757 71.410862 1.010868
34.739262 71.860435 -0.825482
34.3372 73.253818 0.011891
33.422306 69.358749 10.337468
33.271949 71.257664 9.400585
33.092292 70.466617 11.208915
33.781471 68.32896 9.279096
33.422306 69.358749 10.337468
33.601814 67.537914 11.087426
34.137625 64.51417 10.841745
33.78229 65.637745 11.728704
34.340055 65.167986 9.264274
34.137625 64.51417 10.841745
34.5167 63.174031 10.076966
36.189919 57.627049 6.799243
35.967392 59.752874 6.005938
35.759124 59.104917 7.565558
36.607248 56.143026 6.12096
36.189919 57.627049 6.799243
3 0 12 10
3 0 14 12
3 1 17 15
3 1 19 17
3 1 21 19
3 2 34 36
3 34 22 35
3 34 35 36
3 2 23 22
3 3 37 39
3 37 24 38
3 37 38 39
3 40 25 41
3 42 41 9
3 40 41 42
3 43 26 44
3 45 44 25
3 43 44 45
3 47 46 26
3 5 48 50
3 50 49 11
3 48 49 50
3 5 51 52
3 5 53 55
3 53 27 54
3 53 54 55
3 58 57 13
3 56 57 58
3 4 59 60
3 6 61 63
3 63 62 16
3 61 62 63
3 6 64 65
3 6 66 67
3 7 68 70
3 70 69 18
3 68 69 70
3 7 71 72
3 7 73 75
3 73 28 74
3 73 74 75
3 8 29 20
3 8 30 29
3 76 31 77
3 78 32 79
3 80 33 81
3 82 81 32
3 80 81 82
3 84 83 33
3 85 2 86
3 87 9 88
3 89 88 3
3 87 88 89
3 90 9 91
3 94 93 9
3 92 93 94
3 10 95 97
3 95 11 96
3 95 96 97
3 12 11 10
3 12 5 11
3 12 13 5
3 14 13 12
3 14 98 100
3 100 99 13
3 98 99 100
3 15 16 4
3 17 16 15
3 17 6 16
3 17 18 6
3 19 18 17
3 19 7 18
3 19 20 7
3 21 20 19
3 21 8 20
3 22 101 102
3 22 103 104
3 22 105 107
3 105 10 106
3 105 106 107
3 23 10 22
3 23 0 10
3 24 108 109
3 24 110 112
3 110 4 111
3 110 111 112
3 9 24 3
3 25 24 9
3 25 4 24
3 25 15 4
3 26 15 25
3 26 1 15
3 26 113 115
3 115 114 1
3 113 114 115
3 117 116 26
3 118 3 119
3 120 3 121
3 123 122 3
3 11 124 125
3 127 126 11
3 27 128 129
3 27 130 131
3 13 27 5
3 132 27 133
3 134 133 13
3 132 133 134
3 136 135 27
3 16 137 139
3 139 138 4
3 137 138 139
3 141 140 16
3 18 142 144
3 144 143 6
3 142 143 144
3 146 145 18
3 28 147 148
3 28 149 151
3 149 2 150
3 149 150 151
3 20 28 7
3 29 28 20
3 29 2 28
3 29 23 2
3 30 23 29
3 30 0 23
3 152 21 153
3 154 153 1
3 152 153 154
3 31 155 157
3 155 21 156
3 155 156 157
3 31 8 21
3 158 31 159
3 32 160 162
3 160 31 161
3 160 161 162
3 32 8 31
3 32 30 8
3 33 30 32
3 33 0 30
3 33 14 0
3 163 14 164
3 165 164 33
3 163 164 165
3 167 166 14
