ply
format ascii 1.0
element vertex 167
property float x
property float y
property float z
element face 153
property list uchar int vertex_index
end_header
38.127335 -31.381596 -2.521331
38.870361 -24.007097 -4.993856
35.36631 -38.881149 0.518288
34.241039 -40.388474 -3.139416
38.840374 -27.604895 -3.958109
38.781376 -25.249872 -8.702762
38.142704 -29.332451 -7.420906
37.067432 -33.044014 -6.070168
36.895477 -35.157616 -0.931928
35.708157 -36.740723 -4.620338
38.537426 -29.597002 -3.257126
38.533005 -28.482582 -5.750499
38.122395 -30.433121 -4.987778
37.658791 -31.153475 -6.801412
37.609257 -32.251472 -4.298222
36.021534 -37.913765 2.276955
36.786949 -36.084011 1.570694
36.144768 -37.05088 -0.184023
36.289398 -35.996784 -2.770847
35.576752 -37.744205 -2.154844
38.769421 -22.776157 -7.240995
38.566353 -25.949528 -10.518477
38.765919 -23.907677 -11.171582
34.801083 -39.600906 -1.398527
38.9445 -25.803345 -4.616295
38.879215 -24.543865 -6.995698
38.79533 -26.514103 -6.418101
38.543472 -27.234217 -8.210271
38.223141 -28.007998 -9.713978
37.7635 -29.844587 -9.241343
39.026733 -26.886978 -1.98427
38.867817 -28.765045 -1.39517
38.572803 -30.510246 -0.607373
38.088314 -32.346115 -0.037897
37.503803 -34.166 0.746045
37.562366 -33.219868 -1.877612
36.964138 -34.175575 -3.550979
36.419319 -34.951241 -5.137424
34.978313 -38.559555 -3.922264
38.826336 -23.29183 -9.343863
35.693922 -38.397457 1.397622
35.586397 -38.888096 2.646494
35.258785 -39.371788 1.767161
38.819891 -23.391627 -6.117425
38.66156 -22.412883 -6.370406
38.71203 -23.028353 -5.246836
38.58184 -25.260996 -11.701041
38.419771 -26.337032 -11.282649
37.126218 -32.440109 -7.271631
37.421898 -31.49484 -7.637253
37.363112 -32.098744 -6.43579
36.823025 -33.371608 -6.868945
37.126218 -32.440109 -7.271631
39.063617 -26.473358 -1.003556
39.003143 -25.979348 -2.31062
38.891091 -29.195713 -0.019053
38.979216 -28.323795 -0.452073
38.743583 -30.068313 0.374845
38.72031 -29.637645 -1.001272
38.891091 -29.195713 -0.019053
38.061804 -32.804453 1.34152
38.312437 -31.91632 0.988495
35.811712 -36.14123 -5.774567
36.167293 -35.246489 -6.03311
36.063738 -35.845982 -4.878881
38.778595 -22.936754 -11.375745
38.769402 -23.225078 -12.240635
35.903566 -38.394792 3.486686
35.586397 -38.888096 2.646494
36.32263 -37.466799 3.237756
35.903566 -38.394792 3.486686
36.404241 -36.998888 1.923825
36.705337 -36.551922 2.884625
36.32263 -37.466799 3.237756
34.391903 -39.743055 -4.35592
34.038494 -40.645523 -4.051148
38.612923 -21.861323 -7.511279
38.66156 -22.412883 -6.370406
38.735455 -22.150499 -8.462848
38.612923 -21.861323 -7.511279
38.681624 -24.240071 -12.027593
38.666136 -24.928603 -10.84503
38.58184 -25.260996 -11.701041
38.769402 -23.225078 -12.240635
38.681624 -24.240071 -12.027593
34.960039 -39.797331 0.855244
35.258785 -39.371788 1.767161
34.677425 -40.157209 -0.103164
35.083697 -39.241028 -0.44012
34.960039 -39.797331 0.855244
34.390416 -40.561369 -1.024018
34.677425 -40.157209 -0.103164
34.110394 -40.955153 -1.894462
34.521061 -39.99469 -2.268972
34.390416 -40.561369 -1.024018
33.873098 -41.26965 -2.910237
34.110394 -40.955153 -1.894462
34.038494 -40.645523 -4.051148
33.873098 -41.26965 -2.910237
38.248165 -27.366267 -10.880399
38.419771 -26.337032 -11.282649
38.394747 -26.978763 -10.116228
38.022507 -28.382953 -10.544821
38.248165 -27.366267 -10.880399
37.792687 -29.301248 -10.308504
38.022507 -28.382953 -10.544821
37.99332 -28.926293 -9.47766
37.519037 -30.291336 -9.95672
37.792687 -29.301248 -10.308504
37.474252 -30.840396 -8.857219
37.711146 -30.499031 -8.021377
37.421898 -31.49484 -7.637253
37.519037 -30.291336 -9.95672
37.474252 -30.840396 -8.857219
38.788143 -23.584541 -4.132445
38.71203 -23.028353 -5.246836
38.924957 -24.539408 -3.815414
38.788143 -23.584541 -4.132445
38.962027 -25.437531 -3.626633
38.907431 -24.905221 -4.805076
38.924957 -24.539408 -3.815414
38.985616 -26.345161 -3.300282
38.962027 -25.437531 -3.626633
39.003143 -25.979348 -2.31062
39.058673 -27.384761 -0.746623
39.063617 -26.473358 -1.003556
38.947275 -27.826011 -1.68972
39.058673 -27.384761 -0.746623
38.979216 -28.323795 -0.452073
38.554682 -30.998386 0.703758
38.743583 -30.068313 0.374845
38.330558 -31.42818 -0.322635
38.554682 -30.998386 0.703758
38.312437 -31.91632 0.988495
37.077791 -35.601631 2.405959
36.705337 -36.551922 2.884625
37.436218 -34.642625 1.993635
37.077791 -35.601631 2.405959
37.145376 -35.125006 1.15837
37.769548 -33.714395 1.733491
37.436218 -34.642625 1.993635
37.796059 -33.256057 0.354074
38.061804 -32.804453 1.34152
37.769548 -33.714395 1.733491
36.498968 -34.325222 -6.402573
36.823025 -33.371608 -6.868945
36.743375 -33.997628 -5.603796
36.498968 -34.325222 -6.402573
36.167293 -35.246489 -6.03311
34.76054 -38.828596 -4.747345
34.609676 -39.474015 -3.53084
34.391903 -39.743055 -4.35592
35.103639 -37.941843 -5.102981
34.76054 -38.828596 -4.747345
35.468561 -37.032427 -5.452018
35.343235 -37.650139 -4.271301
35.103639 -37.941843 -5.102981
35.811712 -36.14123 -5.774567
35.468561 -37.032427 -5.452018
38.763912 -22.408335 -9.514283
38.735455 -22.150499 -8.462848
38.797878 -23.033994 -8.292429
38.808803 -22.628831 -10.461886
38.796127 -23.599753 -10.257722
38.778595 -22.936754 -11.375745
38.763912 -22.408335 -9.514283
38.808803 -22.628831 -10.461886
3 0 12 10
3 0 14 12
3 2 40 42
3 40 15 41
3 40 41 42
3 2 17 15
3 2 19 17
3 1 43 45
3 43 20 44
3 43 44 45
3 47 46 21
3 4 26 24
3 6 27 11
3 6 28 27
3 6 29 28
3 7 48 50
3 50 49 13
3 48 49 50
3 7 51 52
3 53 30 54
3 55 31 56
3 57 32 58
3 59 58 31
3 57 58 59
3 60 33 61
3 8 34 16
3 8 35 34
3 8 36 35
3 9 37 18
3 9 62 64
3 64 63 37
3 62 63 64
3 3 38 23
3 5 39 25
3 66 65 22
3 10 11 4
3 12 11 10
3 12 6 11
3 12 13 6
3 14 13 12
3 14 7 13
3 15 67 68
3 15 69 70
3 15 71 73
3 71 16 72
3 71 72 73
3 17 16 15
3 17 8 16
3 17 18 8
3 19 18 17
3 19 9 18
3 75 74 3
3 20 76 77
3 20 78 79
3 21 22 5
3 80 22 81
3 82 81 21
3 80 81 82
3 84 83 22
3 85 2 86
3 87 23 88
3 89 88 2
3 87 88 89
3 90 23 91
3 92 3 93
3 94 93 23
3 92 93 94
3 95 3 96
3 98 97 3
3 24 25 1
3 26 25 24
3 26 5 25
3 11 26 4
3 27 26 11
3 27 5 26
3 27 21 5
3 28 21 27
3 28 99 101
3 101 100 21
3 99 100 101
3 28 102 103
3 29 104 106
3 106 105 28
3 104 105 106
3 29 107 108
3 13 29 6
3 109 29 110
3 111 110 13
3 109 110 111
3 113 112 29
3 114 1 115
3 116 1 117
3 118 24 119
3 120 119 1
3 118 119 120
3 30 121 123
3 121 24 122
3 121 122 123
3 30 4 24
3 124 30 125
3 31 126 128
3 126 30 127
3 126 127 128
3 31 4 30
3 31 10 4
3 32 10 31
3 32 0 10
3 129 32 130
3 33 131 133
3 131 32 132
3 131 132 133
3 33 0 32
3 16 134 135
3 34 136 138
3 138 137 16
3 136 137 138
3 34 139 140
3 34 141 143
3 141 33 142
3 141 142 143
3 35 33 34
3 35 0 33
3 35 14 0
3 36 14 35
3 36 7 14
3 18 36 8
3 37 36 18
3 37 7 36
3 37 144 146
3 146 145 7
3 144 145 146
3 148 147 37
3 23 19 2
3 38 19 23
3 38 9 19
3 149 38 150
3 151 150 3
3 149 150 151
3 152 38 153
3 154 9 155
3 156 155 38
3 154 155 156
3 158 157 9
3 25 20 1
3 39 20 25
3 39 159 161
3 161 160 20
3 159 160 161
3 22 39 5
3 162 39 163
3 164 163 22
3 162 163 164
3 166 165 39
