ply
format ascii 1.0
element vertex 95
property float x
property float y
property float z
element face 78
property list uchar int vertex_index
end_header
19.866184 75.464775 -21.408499
21.016438 77.757286 -14.842744
19.576817 79.729866 -19.680582
21.511778 74.213257 -17.329617
18.953854 77.947845 -22.767788
17.799801 84.035652 -19.556948
18.28647 82.355881 -20.995173
19.145468 81.550278 -18.429893
21.353374 76.092941 -16.272144
22.197481 73.247131 -15.193591
19.816008 80.613472 -15.984898
17.391016 82.957039 -23.186785
18.744974 80.217552 -21.98521
19.806021 77.70739 -20.722746
20.365807 78.875801 -17.189846
20.617676 77.024498 -18.556898
20.763542 74.760895 -19.377085
19.338658 75.588352 -22.484999
18.882493 76.829887 -23.164644
19.410019 76.70631 -22.088144
18.097034 83.720001 -18.354346
17.339925 84.967636 -18.853575
18.769868 82.477314 -17.790819
18.472634 82.792965 -18.99342
18.097034 83.720001 -18.354346
22.482328 72.684993 -14.079562
22.079196 74.120311 -14.58138
22.547446 71.735805 -14.655602
22.482328 72.684993 -14.079562
17.100105 83.986702 -22.569631
16.599181 84.249069 -23.791288
21.492732 73.066002 -17.735925
21.118614 73.339821 -18.759659
21.13766 74.487076 -18.353351
18.406519 78.147541 -23.849028
18.35564 79.336781 -23.453789
18.335158 77.029583 -24.245884
18.406519 78.147541 -23.849028
18.882493 76.829887 -23.164644
16.974243 85.339542 -20.083822
17.339925 84.967636 -18.853575
17.304498 84.526008 -20.754713
16.974243 85.339542 -20.083822
18.043135 83.195766 -20.27606
17.547832 83.686123 -21.473826
17.304498 84.526008 -20.754713
21.657142 75.543216 -15.120657
21.184906 76.925113 -15.557444
21.488675 76.375389 -14.405957
21.775427 74.670036 -15.732868
21.657142 75.543216 -15.120657
22.079196 74.120311 -14.58138
22.22646 72.222511 -15.64145
21.883608 72.705574 -16.709463
21.85463 73.730194 -16.261604
22.22646 72.222511 -15.64145
22.547446 71.735805 -14.655602
19.736949 74.29644 -21.755972
20.208996 74.091683 -20.812024
19.431824 81.432377 -15.277314
19.105138 82.008911 -16.568321
20.087265 80.048935 -14.713634
19.431824 81.432377 -15.277314
20.68748 78.620842 -14.142556
20.416223 79.185379 -15.413821
20.087265 80.048935 -14.713634
21.257273 77.179092 -13.708474
20.68748 78.620842 -14.142556
21.488675 76.375389 -14.405957
21.257273 77.179092 -13.708474
19.338658 75.588352 -22.484999
19.736949 74.29644 -21.755972
16.858946 83.145038 -24.347082
16.599181 84.249069 -23.791288
17.574221 81.841377 -23.663288
16.858946 83.145038 -24.347082
17.838743 82.65646 -22.090979
17.100105 83.986702 -22.569631
17.547832 83.686123 -21.473826
18.251199 80.471634 -23.0625
17.574221 81.841377 -23.663288
18.067995 81.587295 -22.585997
18.849414 79.082698 -22.376499
18.35564 79.336781 -23.453789
18.251199 80.471634 -23.0625
19.480738 81.081875 -17.207396
18.769868 82.477314 -17.790819
19.105138 82.008911 -16.568321
20.657675 73.739743 -19.796317
20.208996 74.091683 -20.812024
20.314863 75.112835 -20.392792
20.657675 73.739743 -19.796317
21.118614 73.339821 -18.759659
21.492732 73.066002 -17.735925
21.883608 72.705574 -16.709463
3 0 17 19
3 19 18 4
3 17 18 19
3 20 5 21
3 22 7 23
3 24 23 5
3 22 23 24
3 25 9 26
3 28 27 9
3 29 11 30
3 2 12 6
3 2 13 12
3 1 14 10
3 3 15 8
3 3 16 15
3 3 31 33
3 33 32 16
3 31 32 33
3 4 34 35
3 38 37 4
3 36 37 38
3 5 39 40
3 5 41 42
3 5 43 45
3 43 6 44
3 43 44 45
3 7 6 5
3 7 2 6
3 46 8 47
3 48 47 1
3 46 47 48
3 9 49 51
3 49 8 50
3 49 50 51
3 9 3 8
3 9 52 54
3 54 53 3
3 52 53 54
3 56 55 9
3 58 57 0
3 59 10 60
3 61 10 62
3 63 1 64
3 65 64 10
3 63 64 65
3 66 1 67
3 69 68 1
3 71 70 0
3 11 72 73
3 11 74 75
3 6 76 78
3 76 11 77
3 76 77 78
3 12 11 6
3 12 79 81
3 81 80 11
3 79 80 81
3 12 82 84
3 82 4 83
3 82 83 84
3 13 4 12
3 13 0 4
3 10 85 87
3 85 7 86
3 85 86 87
3 14 7 10
3 14 2 7
3 8 14 1
3 15 14 8
3 15 2 14
3 15 13 2
3 16 13 15
3 16 0 13
3 16 88 90
3 90 89 0
3 88 89 90
3 92 91 16
3 94 93 3
