ply
format ascii 1.0
element vertex 106
property float x
property float y
property float z
element face 90
property list uchar int vertex_index
end_header
39.5797 -25.612141 -44.669739
37.065498 -21.950941 -52.438225
39.961639 -17.78157 -47.515701
38.83165 -15.906879 -51.750401
38.677418 -23.707695 -48.72784
40.053471 -22.965076 -43.953007
40.21862 -19.304037 -45.34705
39.832397 -21.720409 -46.074406
39.455429 -20.599991 -48.132099
39.242729 -24.457029 -46.750683
38.081738 -18.644064 -52.233353
38.076599 -14.467805 -53.767605
40.300732 -15.228508 -46.740479
39.937626 -13.975526 -49.025154
39.416729 -12.860793 -51.182663
39.487328 -16.716003 -49.703609
38.892719 -19.802931 -50.077648
37.969826 -22.592335 -50.717686
37.737972 -26.781799 -49.036591
36.922554 -25.849354 -50.821693
37.125383 -19.773447 -53.253725
37.633503 -18.120009 -53.151289
37.573618 -20.297503 -52.335789
36.545688 -21.344765 -53.351178
37.125383 -19.773447 -53.253725
38.795567 -13.808826 -52.477882
39.088106 -12.285782 -52.194013
39.124189 -14.383836 -51.466532
37.451045 -12.058521 -55.506412
37.969011 -12.59017 -54.51434
37.558633 -13.936157 -54.759678
37.125631 -28.322242 -49.188591
37.550199 -28.781473 -48.240929
36.717922 -27.856019 -50.081142
37.330263 -26.315576 -49.929142
37.125631 -28.322242 -49.188591
40.136046 -21.134557 -44.650029
40.294125 -19.739618 -44.324428
40.21155 -21.570138 -43.627407
37.630933 -16.031879 -53.918415
38.079169 -16.555934 -53.000479
37.633503 -18.120009 -53.151289
37.558633 -13.936157 -54.759678
37.630933 -16.031879 -53.918415
40.349957 -17.901815 -44.973337
40.294125 -19.739618 -44.324428
40.391013 -15.864051 -45.670052
40.349957 -17.901815 -44.973337
40.259676 -17.266272 -46.043765
40.394953 -13.883921 -46.36166
40.391013 -15.864051 -45.670052
40.265901 -13.288496 -47.479807
40.360123 -11.943909 -47.100988
40.394953 -13.883921 -46.36166
40.084349 -12.662005 -48.622145
40.265901 -13.288496 -47.479807
40.119179 -14.602017 -47.882817
39.872501 -12.004281 -49.759417
40.084349 -12.662005 -48.622145
39.677177 -13.418159 -50.103909
39.612053 -11.446914 -50.838171
39.872501 -12.004281 -49.759417
39.334316 -10.845786 -51.882069
39.612053 -11.446914 -50.838171
39.334316 -10.845786 -51.882069
39.088106 -12.285782 -52.194013
38.418041 -13.089289 -53.486485
38.795567 -13.808826 -52.477882
38.454125 -15.187342 -52.759003
38.418041 -13.089289 -53.486485
37.969011 -12.59017 -54.51434
40.111891 -23.368085 -42.913208
40.21155 -21.570138 -43.627407
39.922324 -24.751215 -43.27438
40.111891 -23.368085 -42.913208
39.980744 -25.154224 -42.234581
39.685438 -26.074748 -43.632746
39.816586 -24.288609 -44.311373
39.922324 -24.751215 -43.27438
39.427442 -27.465196 -43.867832
39.685438 -26.074748 -43.632746
39.254131 -27.106924 -44.866494
39.427442 -27.465196 -43.867832
39.085645 -26.529367 -45.906965
39.411214 -25.034585 -45.710211
39.254131 -27.106924 -44.866494
38.858015 -25.983888 -46.917923
39.085645 -26.529367 -45.906965
38.57536 -25.60922 -47.906502
38.960074 -24.082362 -47.739261
38.858015 -25.983888 -46.917923
38.105637 -27.146273 -48.060877
37.550199 -28.781473 -48.240929
38.207695 -25.244747 -48.882216
38.57536 -25.60922 -47.906502
38.105637 -27.146273 -48.060877
36.220434 -27.38597 -50.950328
36.717922 -27.856019 -50.081142
36.377607 -25.376501 -51.735313
36.220434 -27.38597 -50.950328
35.675488 -26.913117 -51.863948
36.449079 -23.427295 -52.543579
36.994026 -23.900148 -51.629959
36.377607 -25.376501 -51.735313
36.545688 -21.344765 -53.351178
36.449079 -23.427295 -52.543579
3 0 7 5
3 0 9 7
3 1 20 22
3 22 21 10
3 20 21 22
3 1 23 24
3 2 12 6
3 2 13 12
3 2 15 13
3 4 16 8
3 4 17 16
3 3 25 27
3 27 26 14
3 25 26 27
3 30 29 11
3 28 29 30
3 31 18 32
3 33 19 34
3 35 34 18
3 33 34 35
3 5 36 38
3 36 6 37
3 36 37 38
3 7 6 5
3 7 2 6
3 7 8 2
3 9 8 7
3 9 4 8
3 10 11 3
3 39 11 40
3 41 40 10
3 39 40 41
3 43 42 11
3 6 44 45
3 12 46 48
3 48 47 6
3 46 47 48
3 12 49 50
3 12 51 53
3 51 52 53
3 13 54 56
3 56 55 12
3 54 55 56
3 13 57 58
3 13 59 61
3 59 14 60
3 59 60 61
3 15 14 13
3 15 3 14
3 8 15 2
3 16 15 8
3 16 3 15
3 16 10 3
3 17 10 16
3 17 1 10
3 14 62 63
3 65 64 14
3 11 66 68
3 68 67 3
3 66 67 68
3 70 69 11
3 71 5 72
3 73 5 74
3 73 74 75
3 76 0 77
3 78 77 5
3 76 77 78
3 79 0 80
3 81 0 82
3 83 9 84
3 85 84 0
3 83 84 85
3 86 9 87
3 88 4 89
3 90 89 9
3 88 89 90
3 18 91 92
3 18 93 95
3 93 4 94
3 93 94 95
3 18 17 4
3 19 17 18
3 19 1 17
3 96 19 97
3 98 19 99
3 98 99 100
3 101 1 102
3 103 102 19
3 101 102 103
3 105 104 1
