ply
format ascii 1.0
element vertex 275
property float x
property float y
property float z
element face 279
property list uchar int vertex_index
end_header
-1.705941 -19.812298 63.275246
-18.701809 -20.501606 72.546547
-25.796379 -19.191626 72.919617
-4.25333 -13.161744 64.99894
-10.288034 -20.637838 68.845894
-12.818124 -12.774395 69.919685
-5.016511 -9.383096 65.209488
-8.447008 -12.97634 67.537064
-14.607885 -20.80146 71.01075
-12.822462 -24.628128 70.17421
-16.967342 -24.756392 71.938988
-22.415789 -20.094465 73.264671
-20.846024 -24.764627 72.931
-24.442186 -24.392229 72.944099
-3.098703 -16.461046 64.361488
-6.062756 -20.232412 66.310081
-7.461201 -16.718571 67.13047
-11.731345 -16.872232 69.516716
-15.831589 -16.478472 71.445625
-19.90097 -15.875595 72.826012
-23.469574 -15.024569 73.288933
-16.706627 -20.554874 71.871635
-15.82087 -22.63381 71.540749
-17.8123 -22.617956 72.262871
-24.185513 -19.676935 73.243446
-23.457142 -22.175219 73.206734
-25.072132 -21.914856 72.991821
-3.670027 -14.833074 64.704948
-5.188239 -16.590034 65.730194
-5.919257 -14.852036 66.122536
-10.590002 -13.053078 68.753838
-10.1878 -14.936815 68.61541
-12.191845 -14.771313 69.68045
-13.797919 -16.715097 70.540298
-14.254835 -14.639167 70.693459
-18.281857 -13.952864 72.301613
-21.792028 -15.467786 73.183716
-2.580448 -11.146122 63.796986
-2.093553 -12.918709 63.586956
-1.437472 -14.574886 63.203979
-8.119344 -20.584009 67.593666
-7.205517 -22.244772 67.013901
-9.37696 -22.490088 68.334572
-13.946602 -26.688946 70.635139
-21.820204 -27.070957 72.851624
-19.905493 -27.037422 72.619209
-4.637064 -11.226827 65.117676
-6.386183 -13.004566 66.312386
-6.826108 -11.157506 66.462364
-8.915255 -11.121485 67.699539
-2.994549 -9.36702 63.919621
-12.499977 -20.718729 70.013
-11.658921 -22.64426 69.600212
-13.722088 -22.734989 70.626312
-14.856568 -24.608133 71.118637
-15.90883 -26.82935 71.460472
-20.664888 -20.229118 73.030006
-19.827812 -22.445436 72.82682
-21.685602 -22.570265 73.13578
-22.766026 -24.543596 73.086464
-23.640934 -26.815575 72.817802
-25.914734 -24.012203 72.534775
-25.183992 -26.683018 72.488815
-2.419301 -18.0837 63.872707
-3.814223 -20.01438 64.799828
-4.622452 -18.421524 65.380966
-6.727767 -18.478716 66.727745
-8.964898 -18.710287 68.06665
-8.013052 -14.847589 67.37542
-9.573976 -16.709558 68.347855
-11.013186 -18.718441 69.20005
-13.086824 -18.720579 70.256584
-15.216393 -18.776155 71.238472
-17.250532 -18.503551 72.045532
-16.315214 -14.281453 71.586006
-17.984324 -16.382675 72.266594
-19.236782 -18.267111 72.687294
-21.213518 -17.920395 73.128067
-23.034773 -17.644781 73.312653
-24.668699 -16.970472 73.222946
-18.929575 -24.7542 72.541245
-17.949684 -27.071138 72.142059
-2.418188 -20.826342 63.743568
-1.389358 -20.626759 62.95879
-0.658625 -19.668728 62.463802
-1.033823 -18.878654 62.8196
-1.389358 -20.626759 62.95879
-0.342041 -20.483189 62.147346
-0.658625 -19.668728 62.463802
-13.401969 -27.624569 70.310795
-14.406009 -27.875382 70.755104
-21.317975 -28.232546 72.681134
-22.275906 -28.183664 72.712941
-9.136052 -10.157435 67.762551
-8.045258 -10.219415 67.118931
-9.972181 -11.079997 68.293244
-9.136052 -10.157435 67.762551
-4.00553 -9.375058 64.564554
-3.134821 -8.485385 63.926462
-4.145802 -8.493422 64.571396
-26.601952 -23.756847 72.169876
-26.249319 -22.654812 72.5028
-26.936538 -22.399456 72.137901
-25.530607 -27.796384 72.153401
-25.925246 -26.521166 72.153568
-24.763393 -27.981933 72.412296
-25.530607 -27.796384 72.153401
-16.523219 -13.135722 71.62379
-15.528102 -13.351514 71.209686
-15.736107 -12.205784 71.24747
-2.017742 -16.342967 63.606378
-1.187126 -15.399887 63.027624
-2.268088 -15.517966 63.782733
-2.759002 -17.272373 64.117097
-1.67804 -17.154294 63.361988
-2.017742 -16.342967 63.606378
-5.572912 -21.068137 65.962291
-4.448645 -20.959121 65.207165
-4.93849 -20.123396 65.554955
-6.810695 -23.103328 66.721363
-7.833207 -23.280653 67.378552
-11.702973 -24.514164 69.584072
-11.121203 -23.52223 69.297073
-12.240692 -23.636194 69.887211
-18.465051 -28.230552 72.171318
-18.927588 -27.05428 72.380634
-19.442955 -28.213693 72.409893
-17.438388 -28.029181 71.902859
-18.465051 -28.230552 72.171318
-6.095886 -9.35022 65.873905
-5.210407 -8.474067 65.251339
-5.210407 -8.474067 65.251339
-4.145802 -8.493422 64.571396
-4.339697 -7.584394 64.613247
-18.463311 -12.750184 72.308171
-17.50654 -12.971428 71.981594
-19.258731 -13.697662 72.569405
-18.463311 -12.750184 72.308171
-20.068288 -14.659028 72.831604
-19.091414 -14.91423 72.563813
-19.258731 -13.697662 72.569405
-21.013816 -14.455123 73.010456
-20.846499 -15.671691 73.004864
-20.068288 -14.659028 72.831604
-21.938927 -14.147307 73.160931
-21.013816 -14.455123 73.010456
-22.777701 -13.925698 73.213539
-22.630801 -15.246177 73.236324
-21.938927 -14.147307 73.160931
-1.506425 -11.041176 63.073937
-1.772834 -10.236341 63.18955
-1.262978 -11.92747 62.968922
-1.506425 -11.041176 63.073937
-2.337001 -12.032415 63.691971
-1.088455 -12.792556 62.897417
-1.262978 -11.92747 62.968922
-1.765513 -13.746797 63.395467
-0.760414 -13.620645 62.705928
-1.088455 -12.792556 62.897417
-8.918928 -23.403311 68.038887
-7.833207 -23.280653 67.378552
-8.291239 -22.36743 67.674237
-12.844743 -26.555272 70.093525
-12.282673 -25.524863 69.86306
-13.384532 -25.658537 70.404674
-12.844743 -26.555272 70.093525
-13.401969 -27.624569 70.310795
-20.360619 -28.215778 72.564926
-20.862848 -27.054189 72.735416
-21.317975 -28.232546 72.681134
-19.442955 -28.213693 72.409893
-20.360619 -28.215778 72.564926
-26.190142 -20.244523 72.695221
-26.476934 -18.875477 72.61533
-7.000685 -10.237426 66.500343
-5.921309 -10.270301 65.835926
-6.095886 -9.35022 65.873905
-7.870681 -11.139495 67.080951
-7.000685 -10.237426 66.500343
-8.045258 -10.219415 67.118931
-10.809554 -12.045793 68.820393
-9.752629 -12.087281 68.226688
-9.972181 -11.079997 68.293244
-11.923615 -11.906452 69.403317
-11.704063 -12.913736 69.336761
-10.809554 -12.045793 68.820393
-2.069084 -8.455343 63.221198
-3.134821 -8.485385 63.926462
-1.979885 -9.346789 63.250868
-1.054419 -8.435113 62.552445
-2.069084 -8.455343 63.221198
-2.787498 -10.256571 63.858303
-1.772834 -10.236341 63.18955
-1.979885 -9.346789 63.250868
-15.387124 -27.945584 71.16777
-14.406009 -27.875382 70.755104
-14.927716 -26.759148 71.047805
-23.186272 -28.055973 72.69603
-22.275906 -28.183664 72.712941
-22.730569 -26.943266 72.834713
-25.828018 -21.606139 72.731323
-25.434255 -20.553241 72.955719
-26.190142 -20.244523 72.695221
-25.493433 -22.963529 72.763298
-25.828018 -21.606139 72.731323
-26.249319 -22.654812 72.5028
-26.290617 -25.185758 72.176548
-26.601952 -23.756847 72.169876
-25.549363 -25.347611 72.511795
-26.290617 -25.185758 72.176548
-25.925246 -26.521166 72.153568
-23.991864 -28.048212 72.576789
-24.412463 -26.749296 72.653309
-24.763393 -27.981933 72.412296
-23.186272 -28.055973 72.69603
-23.991864 -28.048212 72.576789
-12.89575 -11.665589 69.902523
-11.923615 -11.906452 69.403317
-13.779557 -12.597985 70.376525
-12.89575 -11.665589 69.902523
-14.497912 -13.530371 70.763413
-13.536479 -13.706781 70.306572
-13.779557 -12.597985 70.376525
-15.285025 -14.46031 71.139733
-14.497912 -13.530371 70.763413
-15.528102 -13.351514 71.209686
-17.298535 -14.117159 71.94381
-16.523219 -13.135722 71.62379
-17.50654 -12.971428 71.981594
-23.591913 -13.587936 73.238236
-22.777701 -13.925698 73.213539
-24.233397 -14.587441 73.21252
-23.591913 -13.587936 73.238236
-24.355736 -13.150809 73.161823
-24.832959 -15.560393 73.179527
-24.069136 -15.997521 73.255939
-24.233397 -14.587441 73.21252
-25.379742 -16.641874 73.049926
-24.832959 -15.560393 73.179527
-25.943583 -17.752451 72.898262
-25.232539 -18.081049 73.071281
-25.379742 -16.641874 73.049926
-26.476934 -18.875477 72.61533
-25.943583 -17.752451 72.898262
-0.409295 -14.427935 62.471036
-0.760414 -13.620645 62.705928
-0.409295 -14.427935 62.471036
-1.187126 -15.399887 63.027624
-1.390503 -18.014356 63.11833
-1.67804 -17.154294 63.361988
-2.062621 -18.947999 63.573977
-1.033823 -18.878654 62.8196
-1.390503 -18.014356 63.11833
-3.472329 -20.927383 64.505859
-2.418188 -20.826342 63.743568
-2.760082 -19.913339 64.037537
-3.472329 -20.927383 64.505859
-4.448645 -20.959121 65.207165
-6.144292 -22.074317 66.314201
-5.572912 -21.068137 65.962291
-6.634137 -21.238592 66.661991
-6.144292 -22.074317 66.314201
-6.810695 -23.103328 66.721363
-9.980222 -23.445144 68.664254
-10.51794 -22.567174 68.967392
-11.121203 -23.52223 69.297073
-8.918928 -23.403311 68.038887
-9.980222 -23.445144 68.664254
-11.702973 -24.514164 69.584072
-12.282673 -25.524863 69.86306
-16.417961 -27.908288 71.562065
-16.929257 -26.950244 71.801265
-17.438388 -28.029181 71.902859
-15.387124 -27.945584 71.16777
-16.417961 -27.908288 71.562065
3 0 82 83
3 0 84 85
3 0 86 88
3 86 87 88
3 1 23 21
3 2 26 24
3 3 29 27
3 5 32 30
3 5 34 32
3 3 38 37
3 3 27 38
3 4 42 40
3 90 89 43
3 92 91 44
3 6 48 46
3 93 49 94
3 96 95 49
3 6 97 99
3 97 50 98
3 97 98 99
3 6 46 50
3 8 53 51
3 10 54 22
3 10 55 54
3 11 58 56
3 13 59 25
3 13 60 59
3 100 61 101
3 100 101 102
3 103 62 104
3 106 105 62
3 14 65 63
3 16 66 28
3 16 67 66
3 7 68 47
3 17 69 31
3 17 70 69
3 17 71 70
3 18 72 33
3 18 73 72
3 107 74 108
3 107 108 109
3 19 75 35
3 19 76 75
3 19 77 76
3 20 78 36
3 20 79 78
3 14 110 112
3 112 111 39
3 110 111 112
3 14 113 115
3 113 63 114
3 113 114 115
3 15 116 118
3 118 117 64
3 116 117 118
3 120 119 41
3 9 121 123
3 123 122 52
3 121 122 123
3 12 80 57
3 124 81 125
3 126 125 45
3 124 125 126
3 128 127 81
3 130 129 6
3 131 6 132
3 131 132 133
3 21 22 8
3 23 22 21
3 23 10 22
3 24 25 11
3 26 25 24
3 26 13 25
3 27 28 14
3 29 28 27
3 29 16 28
3 30 31 7
3 32 31 30
3 32 17 31
3 32 33 17
3 34 33 32
3 34 18 33
3 134 35 135
3 136 35 137
3 138 19 139
3 140 139 35
3 138 139 140
3 141 36 142
3 143 142 19
3 141 142 143
3 144 36 145
3 146 20 147
3 148 147 36
3 146 147 148
3 37 149 150
3 38 151 153
3 153 152 37
3 151 152 153
3 38 154 155
3 38 156 158
3 156 39 157
3 156 157 158
3 27 39 38
3 27 14 39
3 40 41 15
3 42 41 40
3 42 159 161
3 161 160 41
3 159 160 161
3 43 162 164
3 164 163 9
3 162 163 164
3 166 165 43
3 44 45 12
3 167 45 168
3 169 168 44
3 167 168 169
3 171 170 45
3 173 172 2
3 46 47 3
3 48 47 46
3 48 7 47
3 174 48 175
3 176 175 6
3 174 175 176
3 49 177 179
3 177 48 178
3 177 178 179
3 49 7 48
3 49 30 7
3 180 30 181
3 182 181 49
3 180 181 182
3 183 5 184
3 185 184 30
3 183 184 185
3 50 186 187
3 50 188 190
3 188 189 190
3 50 191 193
3 191 37 192
3 191 192 193
3 46 37 50
3 46 3 37
3 51 52 4
3 53 52 51
3 53 9 52
3 22 53 8
3 54 53 22
3 54 9 53
3 54 43 9
3 55 43 54
3 55 194 196
3 196 195 43
3 194 195 196
3 56 57 1
3 58 57 56
3 58 12 57
3 25 58 11
3 59 58 25
3 59 12 58
3 59 44 12
3 60 44 59
3 60 197 199
3 199 198 44
3 197 198 199
3 200 26 201
3 202 201 2
3 200 201 202
3 61 203 205
3 203 26 204
3 203 204 205
3 61 13 26
3 206 61 207
3 62 208 210
3 208 61 209
3 208 209 210
3 62 13 61
3 62 60 13
3 211 60 212
3 213 212 62
3 211 212 213
3 215 214 60
3 63 64 0
3 65 64 63
3 65 15 64
3 28 65 14
3 66 65 28
3 66 15 65
3 66 40 15
3 67 40 66
3 67 4 40
3 47 29 3
3 68 29 47
3 68 16 29
3 31 68 7
3 69 68 31
3 69 16 68
3 69 67 16
3 70 67 69
3 70 4 67
3 70 51 4
3 71 51 70
3 71 8 51
3 33 71 17
3 72 71 33
3 72 8 71
3 72 21 8
3 73 21 72
3 73 1 21
3 216 5 217
3 218 5 219
3 220 34 221
3 222 221 5
3 220 221 222
3 74 223 225
3 223 34 224
3 223 224 225
3 74 18 34
3 35 226 228
3 226 74 227
3 226 227 228
3 75 74 35
3 75 18 74
3 75 73 18
3 76 73 75
3 76 1 73
3 76 56 1
3 77 56 76
3 77 11 56
3 36 77 19
3 78 77 36
3 78 11 77
3 78 24 11
3 79 24 78
3 79 2 24
3 229 20 230
3 231 20 232
3 231 232 233
3 234 79 235
3 236 235 20
3 234 235 236
3 237 79 238
3 239 2 240
3 241 240 79
3 239 240 241
3 243 242 2
3 39 244 245
3 247 246 39
3 63 248 249
3 63 250 252
3 250 0 251
3 250 251 252
3 64 253 255
3 255 254 0
3 253 254 255
3 257 256 64
3 41 258 260
3 260 259 15
3 258 259 260
3 262 261 41
3 52 42 4
3 263 42 264
3 265 264 52
3 263 264 265
3 267 266 42
3 269 268 9
3 57 23 1
3 80 23 57
3 80 10 23
3 45 80 12
3 81 80 45
3 81 10 80
3 81 55 10
3 270 55 271
3 272 271 81
3 270 271 272
3 274 273 55
