ply
format ascii 1.0
element vertex 266
property float x
property float y
property float z
element face 271
property list uchar int vertex_index
end_header
-12.766424 -65.522766 29.761169
-8.513668 -83.872902 12.558245
-16.963409 -69.923317 22.262154
-10.727991 -74.966682 22.277903
-15.18876 -77.921196 13.478166
-12.81342 -85.705833 3.303697
-16.038322 -74.007416 18.181486
-17.983549 -74.311752 13.506019
-17.042963 -78.0084 8.755372
-9.736647 -79.295883 17.786531
-14.971702 -68.144516 26.214178
-11.645136 -70.294083 26.473492
-13.953752 -72.548782 22.551977
-12.946303 -76.937111 18.122652
-12.020826 -81.035355 13.240738
-10.72578 -85.30603 7.878253
-14.099521 -81.784157 8.573771
-16.18434 -81.516594 3.589798
-15.850789 -63.71133 29.183262
-8.504879 -72.072227 26.316921
-18.479481 -72.497597 15.546447
-9.169416 -81.525337 15.28721
-7.978746 -80.417358 17.497725
-15.927352 -69.186211 24.31303
-14.39698 -70.350517 24.529099
-15.575109 -71.140953 22.522932
-15.627682 -75.938263 15.944575
-14.537652 -75.463501 18.286001
-14.135033 -77.391647 16.039101
-12.569847 -78.881439 15.816228
-13.721192 -79.384262 13.528535
-13.109643 -81.426582 11.065588
-14.620116 -79.85746 11.147508
-16.592569 -79.762817 6.311508
-16.514666 -61.275574 30.349148
-16.962069 -64.755112 27.540197
-11.19171 -72.672401 24.432011
-10.133987 -71.288925 26.330309
-9.661907 -73.500916 24.40712
-11.933471 -85.395096 5.75528
-10.113287 -87.196007 5.338229
-17.982233 -70.384621 20.064583
-16.491257 -72.005241 20.271893
-17.492882 -72.436333 17.936544
-17.133175 -74.236816 15.774312
-16.5748 -76.180504 13.642829
-16.201828 -77.944153 11.229148
-17.580059 -76.067558 11.182757
-10.168532 -77.238441 20.022713
-9.114195 -75.872253 22.185541
-8.439875 -78.184906 19.921852
-13.79548 -67.040131 28.015516
-12.313542 -67.893112 28.194624
-13.320715 -69.359253 26.311665
-12.786846 -71.564713 24.535429
-12.279982 -73.68187 22.656324
-14.973601 -73.364159 20.522171
-13.475327 -74.757904 20.394152
-11.902051 -75.972343 20.296206
-11.374712 -78.129875 18.026047
-10.896426 -80.257706 15.578413
-10.263785 -82.515793 12.941604
-9.60905 -84.732674 10.231458
-11.393857 -83.16468 10.630816
-12.437106 -83.487488 8.49643
-13.557265 -83.683075 5.934038
-15.600857 -79.932877 8.789106
-15.165697 -81.816093 5.967841
-14.570761 -83.650391 3.487957
-13.249756 -63.14064 31.07889
-15.442316 -59.939644 31.717793
-14.874017 -62.18961 30.776848
-14.334961 -64.634422 29.501068
-15.417838 -65.998817 27.744415
-16.513659 -67.019897 25.917078
-17.46365 -67.948463 23.917458
-18.504299 -68.378616 21.90797
-10.613407 -68.851868 28.261885
-9.002326 -69.678246 28.269226
-7.950288 -74.4189 24.251728
-8.916321 -86.812859 7.618987
-11.979647 -66.020867 29.795029
-12.206217 -64.839023 30.498373
-7.936577 -83.318805 13.729226
-8.264451 -82.145023 15.093708
-8.841542 -82.699119 13.922728
-7.546412 -84.491337 12.42486
-6.969322 -83.937241 13.595841
-7.936577 -83.318805 13.729226
-8.148862 -84.969467 11.264675
-7.546412 -84.491337 12.42486
-11.953937 -86.620422 3.148853
-11.513963 -86.465053 4.374645
-12.373446 -85.550465 4.529489
-18.197942 -71.550156 17.813206
-17.737558 -71.410477 19.000563
-18.442618 -70.5243 18.877225
-7.381242 -79.729671 18.626487
-7.107318 -80.888835 17.396361
-15.882417 -82.470081 2.26693
-15.075628 -83.53698 2.21601
-15.37755 -82.583493 3.538877
-13.580482 -61.912394 31.603663
-12.746785 -62.406753 31.748214
-16.208544 -59.431698 31.552546
-15.677698 -58.687158 32.187609
-17.23129 -66.421524 25.758634
-16.737864 -65.887505 26.728637
-17.455495 -65.289131 26.570194
-17.706285 -66.885807 24.758824
-16.988655 -67.48418 24.917268
-17.23129 -66.421524 25.758634
-19.201869 -67.581963 21.744262
-18.710555 -67.429569 22.778043
-18.973379 -68.537525 20.780048
-19.201869 -67.581963 21.744262
-7.961113 -71.215793 27.310868
-8.209836 -70.018803 28.287021
-8.753602 -70.875236 27.293073
-7.682104 -75.548394 23.180728
-8.532241 -75.145577 23.218635
-8.264057 -76.27507 22.147635
-8.817213 -89.001415 3.801245
-9.190742 -87.988861 5.170926
-9.739757 -88.208561 3.968548
-19.123447 -71.573982 15.398936
-18.691242 -71.580788 16.618157
-18.905273 -72.438187 14.342803
-19.123447 -71.573982 15.398936
-18.657307 -73.345264 13.322589
-18.231515 -73.404674 14.526233
-18.905273 -72.438187 14.342803
-18.433155 -74.193061 12.286835
-18.657307 -73.345264 13.322589
-7.669116 -81.591033 16.198966
-8.574081 -80.971347 16.392467
-8.264451 -82.145023 15.093708
-7.107318 -80.888835 17.396361
-7.669116 -81.591033 16.198966
-17.273415 -78.731136 6.310681
-16.817766 -78.885608 7.53344
-17.498612 -77.853927 7.532612
-17.071114 -79.579456 5.062591
-17.273415 -78.731136 6.310681
-16.866999 -80.456345 3.701736
-16.388455 -80.639705 4.950653
-17.071114 -79.579456 5.062591
-16.648387 -81.312622 2.418277
-16.866999 -80.456345 3.701736
-17.325671 -60.730091 30.144533
-16.744718 -60.099663 30.868223
-16.979418 -61.91162 29.605729
-17.325671 -60.730091 30.144533
-16.647479 -63.129497 29.022786
-16.182727 -62.493452 29.766205
-16.979418 -61.91162 29.605729
-17.203119 -63.651388 28.201253
-16.406429 -64.233221 28.361729
-16.647479 -63.129497 29.022786
-17.752329 -64.168331 27.309886
-17.203119 -63.651388 28.201253
-17.455495 -65.289131 26.570194
-17.752329 -64.168331 27.309886
-10.60387 -87.365509 4.166119
-11.023379 -86.295551 5.546755
-11.513963 -86.465053 4.374645
-9.739757 -88.208561 3.968548
-10.60387 -87.365509 4.166119
-17.986182 -72.466965 16.741495
-18.197942 -71.550156 17.813206
-18.691242 -71.580788 16.618157
-18.23141 -75.070965 11.125204
-17.781804 -75.189655 12.344388
-18.433155 -74.193061 12.286835
-18.007395 -75.994671 9.890028
-18.23141 -75.070965 11.125204
-17.738847 -76.965091 8.676336
-17.311511 -77.037979 9.969064
-18.007395 -75.994671 9.890028
-17.498612 -77.853927 7.532612
-17.738847 -76.965091 8.676336
-7.926898 -77.431397 21.01579
-8.264057 -76.27507 22.147635
-8.777035 -77.02858 21.053697
-7.611807 -78.613445 19.838551
-8.209311 -79.301132 18.709789
-7.381242 -79.729671 18.626487
-7.926898 -77.431397 21.01579
-7.611807 -78.613445 19.838551
-12.475523 -86.683521 1.896455
-13.357096 -85.634151 2.085037
-14.235767 -84.60643 2.177167
-13.357096 -85.634151 2.085037
-13.69209 -84.678112 3.395827
-14.235767 -84.60643 2.177167
-15.075628 -83.53698 2.21601
-15.882417 -82.470081 2.26693
-16.648387 -81.312622 2.418277
-12.447882 -63.64796 31.157234
-12.746785 -62.406753 31.748214
-13.00809 -64.331703 30.420029
-12.206217 -64.839023 30.498373
-12.447882 -63.64796 31.157234
-14.878422 -59.142924 32.384337
-15.677698 -58.687158 32.187609
-14.676762 -60.311896 31.923115
-14.878422 -59.142924 32.384337
-15.978491 -60.607609 31.03347
-16.208544 -59.431698 31.552546
-16.744718 -60.099663 30.868223
-14.392613 -61.436879 31.452642
-14.676762 -60.311896 31.923115
-15.158167 -61.064627 31.247321
-14.061886 -62.665125 30.927869
-13.580482 -61.912394 31.603663
-14.392613 -61.436879 31.452642
-18.19023 -67.214493 23.782787
-17.706285 -66.885807 24.758824
-17.983975 -68.163539 22.912714
-18.19023 -67.214493 23.782787
-18.710555 -67.429569 22.778043
-18.712346 -69.540527 19.858354
-18.243266 -69.381619 20.986276
-18.973379 -68.537525 20.780048
-18.442618 -70.5243 18.877225
-18.712346 -69.540527 19.858354
-11.753205 -67.20604 29.011756
-11.979647 -66.020867 29.795029
-12.539983 -66.707939 28.977896
-10.903138 -67.685417 29.045386
-11.753205 -67.20604 29.011756
-11.463475 -68.37249 28.228254
-10.103712 -68.031254 29.141301
-10.903138 -67.685417 29.045386
-9.298171 -68.444443 29.144972
-10.103712 -68.031254 29.141301
-9.807866 -69.265057 28.265555
-8.487775 -68.893227 29.12538
-9.298171 -68.444443 29.144972
-8.487775 -68.893227 29.12538
-8.209836 -70.018803 28.287021
-7.135252 -74.852566 24.134045
-7.682104 -75.548394 23.180728
-7.399707 -73.615246 25.259967
-7.135252 -74.852566 24.134045
-7.677003 -72.44191 26.292563
-8.227583 -73.245564 25.284325
-7.399707 -73.615246 25.259967
-7.133237 -71.585476 27.28651
-7.961113 -71.215793 27.310868
-7.677003 -72.44191 26.292563
-8.696554 -85.399353 10.101282
-8.148862 -84.969467 11.264675
-9.061359 -84.302788 11.394851
-8.350189 -86.439446 8.795046
-8.696554 -85.399353 10.101282
-9.262685 -85.772767 8.925223
-7.946712 -87.522816 7.490696
-8.350189 -86.439446 8.795046
-8.592259 -87.797287 6.311305
-9.514804 -87.004433 6.478608
-9.190742 -87.988861 5.170926
-7.946712 -87.522816 7.490696
-8.592259 -87.797287 6.311305
-11.953937 -86.620422 3.148853
-12.475523 -86.683521 1.896455
3 0 81 82
3 1 83 85
3 85 84 21
3 83 84 85
3 1 86 88
3 86 87 88
3 1 89 90
3 2 25 23
3 4 28 26
3 4 30 28
3 4 32 30
3 3 38 36
3 5 91 93
3 93 92 39
3 91 92 93
3 94 43 95
3 96 95 41
3 94 95 96
3 7 44 20
3 7 45 44
3 7 47 45
3 9 50 48
3 98 97 22
3 10 53 51
3 12 54 24
3 12 55 54
3 6 56 42
3 13 57 27
3 13 58 57
3 13 59 58
3 14 60 29
3 14 61 60
3 14 63 61
3 16 64 31
3 16 65 64
3 8 66 46
3 17 67 33
3 17 68 67
3 17 99 101
3 101 100 68
3 99 100 101
3 102 69 103
3 104 70 105
3 18 71 34
3 18 72 71
3 18 73 72
3 106 74 107
3 108 107 35
3 106 107 108
3 109 75 110
3 111 110 74
3 109 110 111
3 112 76 113
3 115 114 76
3 11 77 52
3 19 78 37
3 19 116 118
3 118 117 78
3 116 117 118
3 119 79 120
3 121 120 49
3 119 120 121
3 15 80 62
3 124 123 40
3 122 123 124
3 125 20 126
3 127 20 128
3 129 7 130
3 131 130 20
3 129 130 131
3 133 132 7
3 21 22 9
3 134 22 135
3 136 135 21
3 134 135 136
3 138 137 22
3 23 24 10
3 25 24 23
3 25 12 24
3 26 27 6
3 28 27 26
3 28 13 27
3 28 29 13
3 30 29 28
3 30 14 29
3 30 31 14
3 32 31 30
3 32 16 31
3 139 33 140
3 141 140 8
3 139 140 141
3 142 33 143
3 144 17 145
3 146 145 33
3 144 145 146
3 148 147 17
3 149 34 150
3 151 34 152
3 153 18 154
3 155 154 34
3 153 154 155
3 156 35 157
3 158 157 18
3 156 157 158
3 159 35 160
3 162 161 35
3 36 37 11
3 38 37 36
3 38 19 37
3 39 40 15
3 163 40 164
3 165 164 39
3 163 164 165
3 167 166 40
3 41 42 2
3 43 42 41
3 43 6 42
3 20 168 170
3 168 43 169
3 168 169 170
3 44 43 20
3 44 6 43
3 44 26 6
3 45 26 44
3 45 4 26
3 45 46 4
3 47 46 45
3 47 8 46
3 171 47 172
3 173 172 7
3 171 172 173
3 174 47 175
3 176 8 177
3 178 177 47
3 176 177 178
3 180 179 8
3 48 49 3
3 50 49 48
3 50 181 183
3 183 182 49
3 181 182 183
3 22 50 9
3 184 50 185
3 186 185 22
3 184 185 186
3 188 187 50
3 190 189 5
3 51 52 0
3 53 52 51
3 53 11 52
3 24 53 10
3 54 53 24
3 54 11 53
3 54 36 11
3 55 36 54
3 55 3 36
3 42 25 2
3 56 25 42
3 56 12 25
3 27 56 6
3 57 56 27
3 57 12 56
3 57 55 12
3 58 55 57
3 58 3 55
3 58 48 3
3 59 48 58
3 59 9 48
3 29 59 13
3 60 59 29
3 60 9 59
3 60 21 9
3 61 21 60
3 61 1 21
3 61 62 1
3 63 62 61
3 63 15 62
3 31 63 14
3 64 63 31
3 64 15 63
3 64 39 15
3 65 39 64
3 65 5 39
3 46 32 4
3 66 32 46
3 66 16 32
3 33 66 8
3 67 66 33
3 67 16 66
3 67 65 16
3 68 65 67
3 68 5 65
3 68 191 193
3 193 192 5
3 191 192 193
3 195 194 68
3 197 196 17
3 69 198 199
3 69 200 202
3 200 0 201
3 200 201 202
3 70 203 204
3 70 205 206
3 34 207 209
3 207 70 208
3 207 208 209
3 71 70 34
3 71 210 212
3 212 211 70
3 210 211 212
3 71 213 215
3 213 69 214
3 213 214 215
3 72 69 71
3 72 0 69
3 72 51 0
3 73 51 72
3 73 10 51
3 35 73 18
3 74 73 35
3 74 10 73
3 74 23 10
3 75 23 74
3 75 2 23
3 216 75 217
3 76 218 220
3 218 75 219
3 218 219 220
3 76 2 75
3 76 41 2
3 221 41 222
3 223 222 76
3 221 222 223
3 225 224 41
3 52 226 228
3 228 227 0
3 226 227 228
3 77 229 231
3 231 230 52
3 229 230 231
3 77 232 233
3 37 77 11
3 78 77 37
3 78 234 236
3 236 235 77
3 234 235 236
3 78 237 238
3 240 239 78
3 49 38 3
3 79 38 49
3 79 19 38
3 241 79 242
3 243 79 244
3 245 19 246
3 247 246 79
3 245 246 247
3 250 249 19
3 248 249 250
3 62 251 253
3 253 252 1
3 251 252 253
3 80 254 256
3 256 255 62
3 254 255 256
3 80 257 258
3 40 80 15
3 259 80 260
3 261 260 40
3 259 260 261
3 263 262 80
3 265 264 5
