ply
format ascii 1.0
element vertex 143
property float x
property float y
property float z
element face 118
property list uchar int vertex_index
end_header
0.444677 -7.06246 -56.196083
-1.171281 -7.482529 -58.61541
1.669844 -11.687292 -52.442436
3.605855 -22.09244 -47.097912
1.748684 -17.30127 -50.84745
0.256323 -12.588025 -54.572708
0.583619 -4.28968 -57.012108
-0.147483 -4.460351 -58.221821
-0.967914 -4.640103 -59.454624
-0.336235 -7.159232 -57.480095
1.019333 -14.790228 -52.668514
0.254368 -15.323114 -53.718365
-0.567769 -12.820652 -55.740295
-1.996595 -7.951622 -59.513226
1.023195 -9.522343 -54.289791
5.43125 -23.603191 -44.272083
4.310408 -21.395643 -46.103458
3.330577 -19.141735 -47.923927
2.652445 -19.713293 -48.919056
2.46703 -17.009069 -49.716976
1.695849 -14.509713 -51.605099
0.932048 -12.001531 -53.636917
0.289281 -9.714567 -55.497681
-0.463858 -10.016495 -56.598957
-1.281738 -10.206438 -57.697277
0.278937 -16.844399 -53.246369
0.64085 -16.510835 -52.806944
-0.113073 -17.154677 -53.702501
-0.137642 -15.633393 -54.174498
0.278937 -16.844399 -53.246369
-1.51208 -6.316843 -59.547123
-1.410396 -4.89563 -59.96673
-1.069597 -6.061316 -59.035017
-1.583938 -7.717075 -59.064318
-1.924736 -6.55139 -59.996031
-1.51208 -6.316843 -59.547123
1.699262 -10.405537 -52.807329
2.018064 -11.632302 -51.859375
1.34652 -10.604817 -53.366113
1.375938 -9.323063 -53.731006
1.699262 -10.405537 -52.807329
5.680177 -25.17413 -43.833937
6.044893 -24.707907 -43.372028
3.958131 -21.744042 -46.600685
4.501946 -22.864349 -45.684545
4.14967 -23.212747 -46.181773
2.200565 -18.507281 -49.883253
2.292281 -20.011669 -49.433662
1.8404 -18.805657 -50.39786
-1.321402 -11.714287 -57.175726
-0.924754 -11.513545 -56.718786
-0.964418 -13.021394 -56.197235
-1.685479 -10.499696 -58.083412
-1.321402 -11.714287 -57.175726
0.333297 -3.100385 -57.922157
0.715801 -2.958714 -57.299605
-0.032254 -3.18572 -58.527014
0.333297 -3.100385 -57.922157
0.218068 -4.375015 -57.616964
-0.456954 -3.203878 -59.220123
-0.032254 -3.18572 -58.527014
-0.557698 -4.550227 -58.838223
-0.86717 -3.293754 -59.836525
-0.456954 -3.203878 -59.220123
2.013838 -12.91836 -51.501772
2.018064 -11.632302 -51.859375
3.810983 -23.658628 -46.648775
4.14967 -23.212747 -46.181773
1.388008 -17.499913 -51.371487
1.8404 -18.805657 -50.39786
1.023333 -16.244391 -52.282018
1.384008 -16.045749 -51.757982
1.388008 -17.499913 -51.371487
0.63685 -15.056671 -53.193439
1.023333 -16.244391 -52.282018
0.64085 -16.510835 -52.806944
-0.54871 -14.382162 -55.185462
-0.1567 -14.071883 -54.72933
-0.137642 -15.633393 -54.174498
-0.964418 -13.021394 -56.197235
-0.54871 -14.382162 -55.185462
-1.312086 -3.522682 -60.393646
-0.86717 -3.293754 -59.836525
-1.312086 -3.522682 -60.393646
-1.410396 -4.89563 -59.96673
-2.360869 -6.764266 -60.430214
-1.924736 -6.55139 -59.996031
-2.435001 -8.124002 -59.93893
-2.360869 -6.764266 -60.430214
0.959776 -4.143668 -56.392361
0.715801 -2.958714 -57.299605
0.869101 -5.466492 -56.047835
0.959776 -4.143668 -56.392361
0.799631 -6.852882 -55.639822
0.514148 -5.67607 -56.604095
0.869101 -5.466492 -56.047835
1.08889 -8.082824 -54.686676
1.375938 -9.323063 -53.731006
0.733936 -8.292402 -55.242937
0.799631 -6.852882 -55.639822
1.08889 -8.082824 -54.686676
5.813188 -23.169779 -43.81954
6.044893 -24.707907 -43.372028
5.246178 -22.114841 -44.710184
5.813188 -23.169779 -43.81954
5.062368 -23.968123 -44.768858
5.680177 -25.17413 -43.833937
4.870829 -22.499417 -45.18777
5.062368 -23.968123 -44.768858
4.501946 -22.864349 -45.684545
4.685757 -21.011067 -45.625872
5.246178 -22.114841 -44.710184
4.870829 -22.499417 -45.18777
4.181645 -20.087701 -46.491144
4.685757 -21.011067 -45.625872
3.69173 -18.960746 -47.401378
4.181645 -20.087701 -46.491144
3.820492 -20.268689 -47.013693
3.242812 -17.798803 -48.317217
3.69173 -18.960746 -47.401378
3.271275 -22.420206 -47.572848
3.810983 -23.658628 -46.648775
2.79457 -21.230632 -48.483419
2.292281 -20.011669 -49.433662
3.12915 -20.902867 -48.008484
3.271275 -22.420206 -47.572848
2.79457 -21.230632 -48.483419
2.811038 -16.73247 -49.213741
3.242812 -17.798803 -48.317217
2.898803 -18.075402 -48.820452
2.412431 -15.579249 -50.139042
2.811038 -16.73247 -49.213741
2.026841 -14.329571 -51.083103
2.412431 -15.579249 -50.139042
2.08144 -15.759391 -50.661038
1.682847 -13.098502 -52.023768
2.013838 -12.91836 -51.501772
2.026841 -14.329571 -51.083103
-2.042908 -9.372288 -58.991387
-1.639166 -9.07903 -58.605252
-1.685479 -10.499696 -58.083412
-2.435001 -8.124002 -59.93893
-2.042908 -9.372288 -58.991387
3 0 7 6
3 0 9 7
3 25 11 26
3 29 28 11
3 27 28 29
3 1 30 32
3 32 31 8
3 30 31 32
3 1 33 35
3 33 13 34
3 33 34 35
3 2 36 37
3 2 38 40
3 38 14 39
3 38 39 40
3 41 15 42
3 3 43 45
3 43 16 44
3 43 44 45
3 3 17 16
3 4 46 48
3 46 18 47
3 46 47 48
3 4 19 18
3 4 20 19
3 5 21 10
3 5 22 21
3 5 23 22
3 49 24 50
3 51 50 12
3 49 50 51
3 53 52 24
3 6 54 55
3 7 56 58
3 58 57 6
3 56 57 58
3 7 59 60
3 7 61 63
3 61 8 62
3 61 62 63
3 9 8 7
3 9 1 8
3 64 2 65
3 66 3 67
3 68 4 69
3 70 10 71
3 72 71 4
3 70 71 72
3 11 73 75
3 73 10 74
3 73 74 75
3 11 5 10
3 11 12 5
3 76 12 77
3 78 77 11
3 76 77 78
3 80 79 12
3 8 81 82
3 84 83 8
3 13 85 86
3 13 87 88
3 89 6 90
3 91 6 92
3 93 0 94
3 95 94 6
3 93 94 95
3 14 96 97
3 14 98 100
3 98 0 99
3 98 99 100
3 15 101 102
3 15 103 104
3 105 15 106
3 16 107 109
3 107 15 108
3 107 108 109
3 16 110 112
3 112 111 15
3 110 111 112
3 16 113 114
3 17 115 117
3 117 116 16
3 115 116 117
3 17 118 119
3 120 3 121
3 18 122 123
3 18 124 126
3 124 3 125
3 124 125 126
3 18 17 3
3 19 17 18
3 19 127 129
3 129 128 17
3 127 128 129
3 19 130 131
3 20 132 134
3 134 133 19
3 132 133 134
3 20 135 137
3 135 2 136
3 135 136 137
3 10 20 4
3 21 20 10
3 21 2 20
3 21 14 2
3 22 14 21
3 22 0 14
3 22 9 0
3 23 9 22
3 23 1 9
3 12 23 5
3 24 23 12
3 24 1 23
3 24 13 1
3 138 13 139
3 140 139 24
3 138 139 140
3 142 141 13
