ply
format ascii 1.0
element vertex 187
property float x
property float y
property float z
element face 179
property list uchar int vertex_index
end_header
31.58814 -51.494995 -13.479476
28.533028 -61.504387 -13.996135
28.102551 -58.23151 -4.486025
24.297163 -67.919022 -4.944333
26.374979 -62.98727 -4.653075
30.231304 -56.442131 -13.543339
32.361008 -52.2812 -17.821411
31.072186 -50.452892 -9.29704
29.824432 -54.966801 -9.120174
28.262833 -59.882462 -9.312933
26.314438 -64.999603 -9.599839
23.986267 -70.274147 -10.204516
32.115883 -49.137062 -13.435522
32.488434 -49.543736 -15.549121
29.460131 -58.944942 -13.856179
30.585606 -56.897415 -15.929866
29.718985 -59.498585 -16.146528
28.899969 -55.843697 -4.553214
29.645582 -54.441776 -6.957314
28.918768 -56.671711 -6.682129
29.069157 -57.390244 -9.083043
28.190847 -58.96751 -6.92787
25.409473 -65.406517 -4.883193
26.341249 -63.922256 -6.998149
25.26054 -66.537827 -7.203038
25.197897 -67.621689 -9.871778
24.231867 -68.898323 -7.550781
27.59812 -63.993546 -14.462627
28.760384 -62.161102 -16.622694
27.318892 -59.640644 -2.074916
27.315126 -60.511124 -4.632484
30.970978 -53.945793 -13.560876
31.902992 -52.041344 -15.532432
31.299883 -54.445976 -15.732675
31.72328 -54.749752 -18.082777
31.255428 -51.096436 -11.331319
30.32128 -52.11837 -7.050738
30.457748 -52.737713 -9.148277
30.719194 -53.261513 -11.41512
30.042284 -55.627754 -11.38423
29.238674 -58.226471 -11.493718
28.374723 -60.745411 -11.652536
27.326298 -61.372906 -6.927444
27.316889 -62.388599 -9.248597
27.436592 -63.248268 -11.855387
26.393763 -65.804207 -12.106509
25.204535 -68.525826 -12.498131
23.128531 -70.454185 -5.245671
22.969828 -71.560829 -7.829396
32.927887 -49.832092 -17.704081
28.50126 -57.037604 -4.519619
28.532739 -56.548876 -3.353117
28.134029 -57.742783 -3.319523
27.591174 -64.48135 -15.670304
27.013451 -65.344758 -14.576016
26.984027 -60.199959 -0.887241
27.393838 -59.088529 -0.843029
26.877742 -60.816254 -2.075398
26.984027 -60.199959 -0.887241
31.321407 -56.073637 -18.234451
31.154443 -55.823583 -17.006321
30.75257 -57.147469 -17.157995
31.864072 -55.037706 -19.2025
31.321407 -56.073637 -18.234451
29.326657 -61.190233 -17.576603
28.775362 -62.585817 -17.771742
31.409565 -49.685522 -10.267174
31.329541 -49.405359 -9.319405
31.163807 -50.774664 -10.31418
31.501186 -50.007294 -11.284314
31.409565 -49.685522 -10.267174
29.955751 -52.906742 -5.899909
30.290167 -51.807733 -5.985502
23.933481 -70.772438 -11.464196
24.542615 -69.898278 -12.611004
24.595401 -69.399986 -11.351323
22.483006 -71.758457 -5.392259
22.61358 -71.128391 -4.073202
22.403655 -72.311779 -6.684121
23.04918 -71.007507 -6.537534
22.483006 -71.758457 -5.392259
32.521959 -48.15896 -14.412472
32.314959 -48.095783 -13.363573
32.708235 -48.362297 -15.469271
32.521959 -48.15896 -14.412472
32.302158 -49.340399 -14.492321
32.910336 -48.537056 -16.479798
32.708235 -48.362297 -15.469271
30.31926 -58.448054 -17.266326
30.75257 -57.147469 -17.157995
30.152296 -58.198 -16.038197
31.016445 -50.138739 -8.257639
31.329541 -49.405359 -9.319405
28.928088 -55.396334 -3.469011
28.532739 -56.548876 -3.353117
29.245095 -54.769405 -4.651147
28.928088 -55.396334 -3.469011
29.272776 -55.142736 -5.755264
29.617902 -54.068445 -5.853197
29.245095 -54.769405 -4.651147
32.890538 -51.18184 -18.929628
32.556141 -52.488056 -18.945082
28.172306 -63.565128 -16.750338
28.179252 -63.077324 -15.542661
27.591174 -64.48135 -15.670304
28.775362 -62.585817 -17.771742
28.172306 -63.565128 -16.750338
27.7422 -58.44735 -2.113968
27.393838 -59.088529 -0.843029
27.710721 -58.936077 -3.28047
28.134029 -57.742783 -3.319523
27.7422 -58.44735 -2.113968
26.875859 -61.251494 -3.354182
27.317009 -60.075884 -3.3537
26.877742 -60.816254 -2.075398
26.405786 -62.489567 -3.364477
26.845053 -61.749197 -4.642779
26.875859 -61.251494 -3.354182
25.934756 -63.693194 -3.486547
26.405786 -62.489567 -3.364477
25.452004 -64.902817 -3.601606
25.892226 -64.196894 -4.768134
25.934756 -63.693194 -3.486547
24.919149 -66.139202 -3.645246
25.452004 -64.902817 -3.601606
24.362994 -67.395454 -3.675816
24.853318 -66.662769 -4.913763
24.919149 -66.139202 -3.645246
32.237277 -53.722332 -19.075765
32.556141 -52.488056 -18.945082
32.042144 -53.515476 -17.952094
32.237277 -53.722332 -19.075765
31.864072 -55.037706 -19.2025
29.805958 -59.858975 -17.33852
29.239684 -60.829843 -16.384611
29.326657 -61.190233 -17.576603
30.31926 -58.448054 -17.266326
29.805958 -59.858975 -17.33852
31.931413 -49.027607 -12.336416
32.314959 -48.095783 -13.363573
31.685655 -50.116749 -12.38342
31.931413 -49.027607 -12.336416
31.501186 -50.007294 -11.284314
30.640993 -50.971477 -7.134488
30.290167 -51.807733 -5.985502
30.696733 -51.285631 -8.173889
31.016445 -50.138739 -8.257639
30.640993 -50.971477 -7.134488
29.983431 -53.280073 -7.004026
29.955751 -52.906742 -5.899909
29.617902 -54.068445 -5.853197
26.411273 -66.250088 -13.397956
27.013451 -65.344758 -14.576016
26.995942 -64.898877 -13.284568
25.816659 -67.610897 -13.593768
26.411273 -66.250088 -13.397956
25.799149 -67.165017 -12.30232
25.161414 -69.018383 -13.742095
25.816659 -67.610897 -13.593768
25.161414 -69.018383 -13.742095
24.542615 -69.898278 -12.611004
23.813747 -68.612713 -3.840294
24.362994 -67.395454 -3.675816
23.22943 -69.880294 -3.990963
22.61358 -71.128391 -4.073202
23.712847 -69.186603 -5.095002
23.813747 -68.612713 -3.840294
23.22943 -69.880294 -3.990963
22.285277 -72.94075 -8.077922
22.403655 -72.311779 -6.684121
22.807927 -72.26907 -9.13747
22.285277 -72.94075 -8.077922
23.316147 -71.625729 -10.32503
23.478048 -70.917488 -9.016956
22.807927 -72.26907 -9.13747
23.933481 -70.772438 -11.464196
23.316147 -71.625729 -10.32503
33.130062 -48.681234 -17.557278
32.910336 -48.537056 -16.479798
32.70816 -49.687914 -16.626601
33.173977 -49.957287 -18.870962
32.644447 -51.056646 -17.762746
32.890538 -51.18184 -18.929628
33.369722 -48.794767 -18.632101
33.173977 -49.957287 -18.870962
33.130062 -48.681234 -17.557278
33.369722 -48.794767 -18.632101
3 0 13 12
3 1 16 14
3 2 50 52
3 50 17 51
3 50 51 52
3 2 19 17
3 2 21 19
3 3 24 22
3 3 26 24
3 54 53 27
3 55 29 56
3 58 57 29
3 5 33 31
3 59 34 60
3 61 60 15
3 59 60 61
3 63 62 34
3 65 64 28
3 7 66 67
3 7 68 70
3 68 35 69
3 68 69 70
3 71 36 72
3 8 37 18
3 8 38 37
3 8 39 38
3 9 40 20
3 9 41 40
3 4 42 30
3 10 43 23
3 10 44 43
3 10 45 44
3 11 46 25
3 11 73 75
3 75 74 46
3 73 74 75
3 76 47 77
3 78 48 79
3 80 79 47
3 78 79 80
3 6 49 32
3 12 81 82
3 13 83 85
3 85 84 12
3 83 84 85
3 13 86 87
3 14 15 5
3 16 15 14
3 16 88 90
3 90 89 15
3 88 89 90
3 91 7 92
3 17 93 94
3 17 95 96
3 17 97 99
3 97 18 98
3 97 98 99
3 19 18 17
3 19 8 18
3 19 20 8
3 21 20 19
3 21 9 20
3 22 23 4
3 24 23 22
3 24 10 23
3 24 25 10
3 26 25 24
3 26 11 25
3 101 100 6
3 27 28 1
3 102 28 103
3 104 103 27
3 102 103 104
3 106 105 28
3 29 107 108
3 29 109 111
3 109 2 110
3 109 110 111
3 29 30 2
3 112 30 113
3 114 113 29
3 112 113 114
3 115 4 116
3 117 116 30
3 115 116 117
3 118 4 119
3 120 22 121
3 122 121 4
3 120 121 122
3 123 22 124
3 125 3 126
3 127 126 22
3 125 126 127
3 31 32 0
3 33 32 31
3 33 6 32
3 15 33 5
3 34 33 15
3 34 6 33
3 34 128 130
3 130 129 6
3 128 129 130
3 132 131 34
3 28 16 1
3 133 16 134
3 135 134 28
3 133 134 135
3 137 136 16
3 138 12 139
3 35 140 142
3 140 12 141
3 140 141 142
3 35 0 12
3 36 143 144
3 36 145 147
3 145 7 146
3 145 146 147
3 18 148 150
3 148 36 149
3 148 149 150
3 37 36 18
3 37 7 36
3 37 35 7
3 38 35 37
3 38 0 35
3 38 31 0
3 39 31 38
3 39 5 31
3 20 39 8
3 40 39 20
3 40 5 39
3 40 14 5
3 41 14 40
3 41 1 14
3 30 21 2
3 42 21 30
3 42 9 21
3 23 42 4
3 43 42 23
3 43 9 42
3 43 41 9
3 44 41 43
3 44 1 41
3 44 27 1
3 45 27 44
3 45 151 153
3 153 152 27
3 151 152 153
3 25 45 10
3 46 45 25
3 46 154 156
3 156 155 45
3 154 155 156
3 46 157 158
3 160 159 46
3 161 3 162
3 47 163 164
3 47 165 167
3 165 3 166
3 165 166 167
3 47 26 3
3 48 26 47
3 48 11 26
3 168 48 169
3 170 48 171
3 172 11 173
3 174 173 48
3 172 173 174
3 176 175 11
3 32 13 0
3 49 13 32
3 49 177 179
3 179 178 13
3 177 178 179
3 180 49 181
3 182 181 6
3 180 181 182
3 183 49 184
3 186 185 49
