ply
format ascii 1.0
element vertex 199
property float x
property float y
property float z
element face 186
property list uchar int vertex_index
end_header
-28.742483 12.808147 65.571426
-30.111877 18.899385 58.528404
-28.254675 32.235188 59.42252
-27.818758 20.995192 64.254913
-29.624043 15.83742 62.232548
-28.928707 24.254465 60.99065
-29.662609 27.490694 57.336735
-27.421881 9.267535 68.337631
-26.265545 17.426313 66.895538
-30.503336 10.697985 59.105877
-29.190456 8.657059 66.069366
-29.601357 10.292019 64.460266
-27.329882 24.7106 63.584084
-28.429171 22.588186 62.712048
-27.923254 26.650629 62.090065
-28.806341 34.009476 57.535492
-29.057901 29.954029 58.454933
-29.513039 31.447113 56.39101
-29.990652 28.583256 55.315571
-25.361248 15.26688 67.999481
-29.868961 17.674191 60.44244
-30.161367 13.441553 60.742447
-30.313368 14.982617 58.825211
-27.570763 30.597845 61.157986
-27.215054 34.785458 60.038216
-27.903662 36.600506 58.334743
-28.535492 38.068027 56.557301
-30.287695 20.326342 56.51627
-30.425961 16.349382 56.880009
-30.51553 17.570011 54.827126
-28.299284 16.977804 64.92495
-29.206701 14.665738 63.929466
-28.830334 18.455072 63.406452
-29.237345 20.108215 61.76704
-29.606712 21.738146 59.875584
-28.552038 28.164373 60.374592
-29.364872 25.710144 59.160641
-29.914381 23.154305 57.885376
-30.152021 24.458954 55.88179
-30.339384 25.803164 53.858524
-28.148163 11.052539 67.04287
-25.950855 11.502385 68.742981
-26.870886 13.32305 67.660011
-27.610685 15.319304 66.376869
-27.11569 19.184544 65.66256
-26.573639 22.858297 64.959122
-29.919748 11.92074 62.672573
-30.399744 9.135552 61.150913
-30.54879 12.200262 57.242565
-27.366227 27.678652 62.420935
-27.626568 25.680614 62.837074
-27.069541 26.708638 63.167944
-29.392742 33.543323 55.988813
-29.15969 32.728295 56.963251
-29.039393 34.824505 56.561054
-29.683376 32.153958 55.396656
-29.392742 33.543323 55.988813
-26.602429 35.811362 60.250614
-26.785799 33.808632 60.856174
-27.743796 38.621353 57.763834
-27.334997 37.856037 58.59094
-28.059711 39.355114 56.875113
-28.219577 37.334266 57.446022
-27.743796 38.621353 57.763834
-28.418293 40.132801 55.945548
-28.059711 39.355114 56.875113
-30.475704 19.584768 54.617178
-30.401612 18.948177 55.671698
-30.361786 20.962933 55.46175
-30.297799 27.873847 53.474451
-30.165018 27.19321 54.587047
-30.123433 29.263893 54.202974
-30.424582 26.547538 52.74901
-30.297799 27.873847 53.474451
-28.018237 8.196625 67.949806
-27.609703 7.45581 68.644043
-27.785022 10.160037 67.69025
-28.381379 9.089126 67.302425
-28.018237 8.196625 67.949806
-25.122971 12.477341 68.78527
-25.442336 10.621389 69.170815
-24.614452 11.596345 69.213104
-25.821717 23.993814 65.064552
-26.091038 22.030932 65.549576
-26.292336 24.8669 64.507881
-25.821717 23.993814 65.064552
-30.57563 8.620646 59.334772
-30.523834 7.83943 60.35729
-30.45154 9.916768 60.128395
-30.566403 12.869765 56.21153
-30.487375 14.274822 57.061287
-30.504988 14.944325 56.030253
-29.550414 7.55191 65.478931
-29.365382 6.714562 66.303714
-29.755865 8.36939 64.674381
-29.550414 7.55191 65.478931
-29.395907 9.474539 65.264816
-29.894979 9.16802 63.767233
-29.755865 8.36939 64.674381
-29.922182 30.722029 54.858936
-29.751846 30.015185 55.85329
-29.683376 32.153958 55.396656
-30.123433 29.263893 54.202974
-29.922182 30.722029 54.858936
-26.935032 8.651637 68.854656
-27.609703 7.45581 68.644043
-24.516044 16.241042 67.97319
-24.828167 14.359589 68.413521
-25.055585 17.100814 67.597397
-24.516044 16.241042 67.97319
-25.507734 18.18053 67.045425
-25.813396 16.346597 67.447509
-25.055585 17.100814 67.597397
-25.936991 19.31494 66.517784
-25.507734 18.18053 67.045425
-26.963653 31.714825 61.41606
-27.189982 29.652261 61.954895
-27.392908 32.691651 60.598101
-26.963653 31.714825 61.41606
-26.785799 33.808632 60.856174
-26.990693 36.948513 59.442676
-26.602429 35.811362 60.250614
-27.559358 35.692982 59.18648
-26.990693 36.948513 59.442676
-27.334997 37.856037 58.59094
-28.903969 36.85378 56.071959
-29.039393 34.824505 56.561054
-28.670917 36.038752 57.046397
-28.80266 38.828254 55.586447
-28.903969 36.85378 56.071959
-28.80266 38.828254 55.586447
-28.418293 40.132801 55.945548
-30.549772 15.55464 55.003811
-30.504988 14.944325 56.030253
-30.470745 16.959696 55.853567
-30.549673 18.210998 53.816664
-30.475704 19.584768 54.617178
-30.56317 16.195149 53.903748
-30.549673 18.210998 53.816664
-30.597413 14.179778 54.080433
-30.549772 15.55464 55.003811
-30.56317 16.195149 53.903748
-27.747008 28.624237 61.624026
-27.366227 27.678652 62.420935
-27.189982 29.652261 61.954895
-30.293949 23.029239 55.14451
-30.361786 20.962933 55.46175
-30.219858 22.392648 56.19903
-30.387631 23.701344 54.132877
-30.293949 23.029239 55.14451
-30.245703 25.131059 54.870157
-30.447624 24.390343 53.043861
-30.387631 23.701344 54.132877
-30.447624 24.390343 53.043861
-30.424582 26.547538 52.74901
-28.902525 7.891387 66.815674
-29.365382 6.714562 66.303714
-28.66931 9.854799 66.556118
-28.902525 7.891387 66.815674
-28.381379 9.089126 67.302425
-26.199519 9.769062 69.057331
-25.442336 10.621389 69.170815
-26.686368 10.38496 68.540306
-26.935032 8.651637 68.854656
-26.199519 9.769062 69.057331
-25.656052 13.384633 68.371231
-25.122971 12.477341 68.78527
-24.828167 14.359589 68.413521
-26.362064 20.194056 65.901295
-26.690618 18.305428 66.279049
-25.936991 19.31494 66.517784
-26.844665 21.02142 65.310841
-26.362064 20.194056 65.901295
-26.091038 22.030932 65.549576
-26.670457 25.793051 63.820363
-26.95176 23.784448 64.271603
-26.292336 24.8669 64.507881
-27.069541 26.708638 63.167944
-26.670457 25.793051 63.820363
-30.054175 9.982381 62.873386
-29.894979 9.16802 63.767233
-29.760552 11.106379 63.56642
-30.294173 8.589787 62.112556
-30.054175 9.982381 62.873386
-30.159746 10.528146 61.911743
-30.486099 7.183065 61.410553
-30.294173 8.589787 62.112556
-30.486099 7.183065 61.410553
-30.523834 7.83943 60.35729
-30.594583 10.772528 56.348522
-30.566403 12.869765 56.21153
-30.604226 10.02096 57.419132
-30.594583 10.772528 56.348522
-30.581499 9.269821 58.350788
-30.526063 11.449123 58.174221
-30.604226 10.02096 57.419132
-30.653793 7.192482 58.579683
-30.57563 8.620646 59.334772
-30.581499 9.269821 58.350788
3 0 11 10
3 49 14 50
3 51 50 12
3 49 50 51
3 52 17 53
3 54 53 15
3 52 53 54
3 56 55 17
3 1 22 20
3 57 24 58
3 59 25 60
3 61 26 62
3 63 62 25
3 61 62 63
3 65 64 26
3 66 29 67
3 68 67 27
3 66 67 68
3 3 32 30
3 5 33 13
3 5 34 33
3 2 35 23
3 6 36 16
3 6 37 36
3 6 38 37
3 69 39 70
3 71 70 18
3 69 70 71
3 73 72 39
3 7 74 75
3 7 76 78
3 76 40 77
3 76 77 78
3 79 41 80
3 79 80 81
3 8 42 19
3 8 43 42
3 8 44 43
3 82 45 83
3 85 84 45
3 4 46 31
3 9 47 21
3 9 86 88
3 88 87 47
3 86 87 88
3 89 48 90
3 91 90 28
3 89 90 91
3 10 92 93
3 11 94 96
3 96 95 10
3 94 95 96
3 11 97 98
3 12 13 3
3 14 13 12
3 14 5 13
3 15 16 2
3 17 16 15
3 17 6 16
3 17 18 6
3 99 18 100
3 101 100 17
3 99 100 101
3 103 102 18
3 104 7 105
3 106 19 107
3 108 19 109
3 110 8 111
3 112 111 19
3 110 111 112
3 114 113 8
3 20 21 4
3 22 21 20
3 22 9 21
3 115 23 116
3 24 117 119
3 117 23 118
3 117 118 119
3 24 2 23
3 120 24 121
3 25 122 124
3 122 24 123
3 122 123 124
3 25 2 24
3 25 15 2
3 26 15 25
3 26 125 127
3 127 126 15
3 125 126 127
3 26 128 129
3 131 130 26
3 27 28 1
3 29 28 27
3 29 132 134
3 134 133 28
3 132 133 134
3 135 29 136
3 137 29 138
3 141 140 29
3 139 140 141
3 30 31 0
3 32 31 30
3 32 4 31
3 13 32 3
3 33 32 13
3 33 4 32
3 33 20 4
3 34 20 33
3 34 1 20
3 23 142 144
3 142 14 143
3 142 143 144
3 35 14 23
3 35 5 14
3 16 35 2
3 36 35 16
3 36 5 35
3 36 34 5
3 37 34 36
3 37 1 34
3 37 27 1
3 38 27 37
3 38 145 147
3 147 146 27
3 145 146 147
3 18 38 6
3 39 38 18
3 39 148 150
3 150 149 38
3 148 149 150
3 39 151 152
3 154 153 39
3 155 10 156
3 40 157 159
3 157 10 158
3 157 158 159
3 40 0 10
3 41 160 161
3 41 162 164
3 162 7 163
3 162 163 164
3 19 165 167
3 165 41 166
3 165 166 167
3 42 41 19
3 42 7 41
3 42 40 7
3 43 40 42
3 43 0 40
3 43 30 0
3 44 30 43
3 44 3 30
3 168 44 169
3 170 169 8
3 168 169 170
3 45 171 173
3 171 44 172
3 171 172 173
3 45 3 44
3 45 12 3
3 174 12 175
3 176 175 45
3 174 175 176
3 178 177 12
3 31 11 0
3 46 11 31
3 46 179 181
3 181 180 11
3 179 180 181
3 21 46 4
3 47 46 21
3 47 182 184
3 184 183 46
3 182 183 184
3 47 185 186
3 188 187 47
3 28 22 1
3 48 22 28
3 48 9 22
3 189 48 190
3 191 48 192
3 193 9 194
3 195 194 48
3 193 194 195
3 198 197 9
3 196 197 198
