ply
format ascii 1.0
element vertex 220
property float x
property float y
property float z
element face 207
property list uchar int vertex_index
end_header
6.620765 72.068352 24.347418
12.715467 68.488533 19.161516
3.064672 73.832497 26.388384
10.884827 73.916153 17.168015
9.907735 70.402336 21.76927
5.615512 68.122589 28.789047
8.972822 66.391785 26.423014
13.65187 72.085953 14.476553
15.388117 66.703796 15.835566
11.901978 64.852631 23.516342
14.640801 62.874943 20.349319
17.030182 61.089516 16.930931
18.662889 61.807434 12.78803
4.916491 72.769989 25.533154
3.683187 75.801208 23.946602
5.414763 74.938408 22.991135
7.174154 73.817123 22.100567
8.816171 73.157921 20.712919
8.319313 71.170967 23.1637
3.79015 68.804443 29.983435
5.047449 65.884651 31.082947
6.808168 65.169563 29.882969
11.809834 71.334511 18.1448
12.247072 73.091507 15.875098
13.202243 70.38752 16.723618
14.568734 69.374229 15.192149
14.044523 67.697006 17.528881
9.984353 63.749069 27.213377
10.465732 65.714195 24.971588
15.511042 60.143635 20.872066
15.845042 62.066593 18.630064
16.654057 59.436184 19.072697
17.960876 58.314373 17.111954
1.773126 76.689972 24.912241
9.397507 74.762405 18.423923
10.43482 72.136993 19.465961
11.334292 69.536621 20.459448
2.545964 71.634216 28.779043
4.365752 70.956322 27.675219
6.149832 70.0569 26.629183
7.798764 69.170364 25.543804
7.42448 67.164009 27.641493
8.536771 64.179085 28.712107
12.743223 74.689827 13.593894
15.865228 68.421341 13.538893
16.697044 65.572571 14.126828
9.329759 68.565308 24.153357
10.826189 67.695328 22.803965
12.305777 66.623505 21.403866
13.277419 63.751167 22.126251
13.72681 65.593605 19.827503
15.017192 64.788162 18.085503
16.246204 63.865547 16.379568
17.491898 62.754623 14.634254
18.279747 60.105305 14.956531
18.279183 63.213673 12.570404
18.855701 62.702433 11.698358
4.843554 64.679147 32.142464
4.151982 66.212952 31.63024
5.735505 64.366652 31.545388
4.843554 64.679147 32.142464
10.716538 63.334125 26.496673
10.561457 62.271589 27.570805
15.958132 58.820643 21.044113
15.326766 59.196013 22.029922
16.52964 58.466917 20.144429
16.082549 59.78991 19.972382
15.958132 58.820643 21.044113
17.014577 57.055908 20.250301
17.138995 58.025175 19.178569
16.52964 58.466917 20.144429
2.418899 75.261235 25.650312
1.47812 75.665516 26.129817
2.123893 74.236778 26.867888
3.076481 77.189788 23.157204
4.028479 76.713752 22.68678
8.565448 75.213729 19.038021
8.833828 76.03656 17.876622
2.244822 70.526089 29.933757
1.607722 71.991661 29.270664
8.253277 63.205717 29.779749
7.67247 64.674324 29.297538
7.388975 63.700956 30.36518
9.064311 62.841048 29.090958
8.253277 63.205717 29.779749
11.115889 74.78886 15.991125
10.396007 75.146919 16.656794
13.896124 72.825062 13.384825
13.4418 74.126999 12.943496
13.197547 73.38789 14.035224
14.36105 71.52528 13.702587
13.896124 72.825062 13.384825
13.95911 63.313055 21.237785
13.739223 62.434666 22.369297
14.420914 61.996554 21.480831
18.56308 57.863765 16.080635
18.404124 56.965576 17.197674
19.257357 61.303388 11.809949
19.45017 62.198387 10.720278
18.855701 62.702433 11.698358
19.072994 60.493978 12.845066
19.257357 61.303388 11.809949
4.894267 76.282353 22.209046
4.028479 76.713752 22.68678
4.548975 75.369808 23.468868
5.772917 75.813027 21.737623
4.894267 76.282353 22.209046
6.652613 75.252384 21.29234
5.772917 75.813027 21.737623
6.294458 74.377765 22.545851
7.453772 74.741088 20.876343
6.652613 75.252384 21.29234
7.995163 73.487522 21.406743
8.274781 74.411487 20.182519
7.453772 74.741088 20.876343
3.523333 67.672848 31.080483
2.866915 69.111202 30.535953
4.4188 67.344547 30.533191
3.523333 67.672848 31.080483
4.151982 66.212952 31.63024
6.615865 64.009107 30.945399
5.927809 65.527107 30.482958
5.735505 64.366652 31.545388
7.388975 63.700956 30.36518
6.615865 64.009107 30.945399
10.957227 64.316688 25.375779
10.225043 64.731632 26.092483
10.716538 63.334125 26.496673
11.67535 63.885907 24.648156
11.183855 65.283413 24.243965
10.957227 64.316688 25.375779
14.856034 60.630899 21.742204
15.326766 59.196013 22.029922
15.075921 61.509289 20.610692
14.420914 61.996554 21.480831
14.856034 60.630899 21.742204
17.792404 57.46427 18.198197
17.307467 58.875279 18.092326
17.138995 58.025175 19.178569
18.404124 56.965576 17.197674
17.792404 57.46427 18.198197
0.845116 77.130203 25.302913
1.47812 75.665516 26.129817
1.165367 78.087497 24.066665
0.845116 77.130203 25.302913
2.12145 77.63417 23.640024
2.728156 76.24559 24.429422
3.076481 77.189788 23.157204
1.165367 78.087497 24.066665
2.12145 77.63417 23.640024
9.652347 75.570045 17.284748
8.833828 76.03656 17.876622
10.141167 74.339279 17.795969
10.396007 75.146919 16.656794
9.652347 75.570045 17.284748
9.106839 73.960163 19.568421
8.565448 75.213729 19.038021
8.274781 74.411487 20.182519
1.864539 73.137638 28.063218
1.607722 71.991661 29.270664
2.805318 72.733356 27.583714
2.123893 74.236778 26.867888
1.864539 73.137638 28.063218
3.168057 70.21933 29.381239
2.244822 70.526089 29.933757
2.866915 69.111202 30.535953
9.788101 62.62604 28.341593
9.260562 63.964077 27.962742
9.064311 62.841048 29.090958
10.561457 62.271589 27.570805
9.788101 62.62604 28.341593
11.797011 74.376537 15.344666
11.115889 74.78886 15.991125
11.565949 73.50383 16.521556
12.045087 75.175697 14.204065
11.797011 74.376537 15.344666
12.495147 73.890667 14.734496
12.2951 75.927532 13.07799
12.045087 75.175697 14.204065
12.967576 75.437671 12.497974
12.519453 76.675376 11.98207
12.2951 75.927532 13.07799
12.967576 75.437671 12.497974
13.4418 74.126999 12.943496
14.819481 70.169418 14.060386
14.36105 71.52528 13.702587
14.110302 70.730091 14.834351
15.467728 69.692974 13.233757
14.819481 70.169418 14.060386
15.216981 68.897785 14.365521
16.118182 69.241669 12.368146
15.467728 69.692974 13.233757
16.464172 67.920071 12.742558
16.118182 69.241669 12.368146
16.88008 66.495686 13.036525
16.464172 67.920071 12.742558
16.281136 66.996956 13.83286
17.296261 65.096241 13.239804
16.88008 66.495686 13.036525
12.376492 63.363867 23.951541
11.67535 63.885907 24.648156
13.064213 62.813135 23.256495
13.739223 62.434666 22.369297
12.589699 64.301899 22.821297
12.376492 63.363867 23.951541
13.064213 62.813135 23.256495
17.693687 63.687267 13.493517
17.296261 65.096241 13.239804
17.094471 64.163597 14.380541
18.077393 62.281029 13.711142
18.279183 63.213673 12.570404
17.693687 63.687267 13.493517
18.881423 59.642914 13.929317
19.072994 60.493978 12.845066
18.471318 60.95637 13.87228
18.722516 58.759231 15.002923
18.120311 59.209839 16.034243
18.56308 57.863765 16.080635
18.881423 59.642914 13.929317
18.722516 58.759231 15.002923
3 55 12 56
3 0 15 13
3 0 16 15
3 0 18 16
3 57 20 58
3 60 59 20
3 1 24 22
3 1 26 24
3 62 61 27
3 63 29 64
3 65 31 66
3 67 66 29
3 65 66 67
3 70 69 31
3 68 69 70
3 2 71 73
3 71 33 72
3 71 72 73
3 75 74 14
3 76 34 77
3 4 35 17
3 4 36 35
3 78 37 79
3 5 38 19
3 5 39 38
3 5 41 39
3 80 42 81
3 82 81 21
3 80 81 82
3 84 83 42
3 3 85 86
3 7 43 23
3 7 87 89
3 89 88 43
3 87 88 89
3 7 90 91
3 8 44 25
3 8 45 44
3 6 46 40
3 9 47 28
3 9 48 47
3 10 92 94
3 92 49 93
3 92 93 94
3 10 50 49
3 10 51 50
3 11 52 30
3 11 53 52
3 11 54 53
3 96 95 32
3 12 97 99
3 97 98 99
3 12 100 101
3 13 14 2
3 15 14 13
3 15 102 104
3 104 103 14
3 102 103 104
3 15 105 106
3 16 107 109
3 109 108 15
3 107 108 109
3 16 110 111
3 16 112 114
3 112 17 113
3 112 113 114
3 18 17 16
3 18 4 17
3 115 19 116
3 20 117 119
3 117 19 118
3 117 118 119
3 20 5 19
3 20 21 5
3 120 21 121
3 122 121 20
3 120 121 122
3 124 123 21
3 22 23 3
3 24 23 22
3 24 7 23
3 24 25 7
3 26 25 24
3 26 8 25
3 27 28 6
3 125 28 126
3 127 126 27
3 125 126 127
3 128 9 129
3 130 129 28
3 128 129 130
3 29 131 132
3 29 133 135
3 133 10 134
3 133 134 135
3 29 30 10
3 31 30 29
3 31 11 30
3 31 32 11
3 136 32 137
3 138 137 31
3 136 137 138
3 140 139 32
3 33 141 142
3 33 143 144
3 14 33 2
3 145 33 146
3 147 146 14
3 145 146 147
3 149 148 33
3 34 150 151
3 34 152 154
3 152 3 153
3 152 153 154
3 17 155 157
3 155 34 156
3 155 156 157
3 35 34 17
3 35 3 34
3 35 22 3
3 36 22 35
3 36 1 22
3 37 158 159
3 37 160 162
3 160 2 161
3 160 161 162
3 19 163 165
3 163 37 164
3 163 164 165
3 38 37 19
3 38 2 37
3 38 13 2
3 39 13 38
3 39 0 13
3 39 40 0
3 41 40 39
3 41 6 40
3 21 41 5
3 42 41 21
3 42 6 41
3 42 27 6
3 166 27 167
3 168 167 42
3 166 167 168
3 170 169 27
3 23 171 173
3 173 172 3
3 171 172 173
3 43 174 176
3 176 175 23
3 174 175 176
3 43 177 178
3 43 179 181
3 179 180 181
3 183 182 43
3 25 184 186
3 186 185 7
3 184 185 186
3 44 187 189
3 189 188 25
3 187 188 189
3 44 190 191
3 44 192 193
3 45 194 196
3 196 195 44
3 194 195 196
3 45 197 198
3 40 18 0
3 46 18 40
3 46 4 18
3 28 46 6
3 47 46 28
3 47 4 46
3 47 36 4
3 48 36 47
3 48 1 36
3 199 9 200
3 49 201 202
3 49 203 205
3 203 9 204
3 203 204 205
3 49 48 9
3 50 48 49
3 50 1 48
3 50 26 1
3 51 26 50
3 51 8 26
3 30 51 10
3 52 51 30
3 52 8 51
3 52 45 8
3 53 45 52
3 53 206 208
3 208 207 45
3 206 207 208
3 53 209 211
3 209 12 210
3 209 210 211
3 54 12 53
3 54 212 214
3 214 213 12
3 212 213 214
3 32 54 11
3 215 54 216
3 217 216 32
3 215 216 217
3 219 218 54
