ply
format ascii 1.0
element vertex 100
property float x
property float y
property float z
element face 82
property list uchar int vertex_index
end_header
-25.985506 -76.332664 9.627645
-26.017191 -80.953911 5.869428
-25.675634 -75.918907 4.152712
-25.893723 -80.360764 0.30563
-26.07513 -76.479652 12.234706
-25.971485 -78.713463 13.066381
-25.979616 -78.920692 10.304541
-25.9741 -81.03717 8.665721
-25.960457 -78.64019 7.799326
-25.450516 -75.598412 1.534515
-25.770113 -78.302391 2.400026
-25.568666 -77.806114 -0.273203
-25.732471 -79.858711 -2.213901
-26.105032 -74.103287 11.346196
-25.912201 -73.968964 8.624833
-25.854925 -76.32106 6.789882
-25.888685 -78.493073 5.036905
-25.997507 -80.808678 3.025608
-25.321428 -75.478417 0.191109
-25.283933 -74.30936 1.040268
-25.380503 -76.582268 -0.712751
-25.509591 -76.702263 0.630656
-25.321428 -75.478417 0.191109
-25.445525 -77.588676 -1.64774
-25.380503 -76.582268 -0.712751
-26.207468 -72.987297 12.030054
-26.180962 -74.172714 12.588536
-25.86375 -79.828106 13.50791
-25.924526 -79.942299 12.190185
-26.026297 -82.127636 6.293245
-26.004751 -82.169265 7.691391
-25.995646 -80.995541 7.267575
-26.077762 -82.132847 4.905718
-26.026297 -82.127636 6.293245
-25.864398 -72.740917 8.138939
-25.992507 -72.905034 9.428765
-25.682905 -74.814731 5.063223
-25.550404 -74.694657 3.686909
-25.765279 -76.119984 5.471297
-25.772551 -75.015808 6.381808
-25.682905 -74.814731 5.063223
-26.02221 -81.654435 0.787288
-26.074101 -81.878391 2.147277
-25.945615 -80.584721 1.665619
-25.996738 -81.49643 -0.641658
-26.02221 -81.654435 0.787288
-25.854456 -81.015339 -3.203215
-25.640886 -79.71352 -3.532024
-26.023308 -77.596558 12.650543
-26.052793 -77.635411 13.997193
-26.104615 -76.518505 13.581356
-25.928591 -80.045914 10.809265
-25.924526 -79.942299 12.190185
-25.975551 -78.817078 11.685461
-25.976858 -79.978931 9.485131
-25.925833 -81.104152 9.989854
-25.928591 -80.045914 10.809265
-25.437846 -74.534409 2.37781
-25.283933 -74.30936 1.040268
-25.563075 -75.758659 2.843614
-25.550404 -74.694657 3.686909
-25.437846 -74.534409 2.37781
-25.527428 -78.614975 -2.618088
-25.650568 -78.832413 -1.243552
-25.445525 -77.588676 -1.64774
-25.640886 -79.71352 -3.532024
-25.527428 -78.614975 -2.618088
-26.166012 -75.360897 13.032791
-26.104615 -76.518505 13.581356
-26.090081 -75.29147 11.790451
-26.166012 -75.360897 13.032791
-26.180962 -74.172714 12.588536
-25.938932 -78.783844 14.402318
-26.052793 -77.635411 13.997193
-25.938932 -78.783844 14.402318
-25.86375 -79.828106 13.50791
-25.924008 -82.225891 8.984493
-25.925833 -81.104152 9.989854
-25.924008 -82.225891 8.984493
-26.004751 -82.169265 7.691391
-26.088923 -72.972195 10.789447
-26.207468 -72.987297 12.030054
-26.008617 -74.036125 9.985515
-26.088923 -72.972195 10.789447
-25.992507 -72.905034 9.428765
-25.801189 -73.83976 7.299283
-25.864398 -72.740917 8.138939
-25.883563 -75.145012 7.707358
-25.801189 -73.83976 7.299283
-25.772551 -75.015808 6.381808
-26.06792 -82.060231 3.483808
-26.077762 -82.132847 4.905718
-26.007349 -80.881294 4.447518
-26.06792 -82.060231 3.483808
-26.074101 -81.878391 2.147277
-25.916111 -81.245403 -1.901423
-25.996738 -81.49643 -0.641658
-25.813097 -80.109737 -0.954135
-25.916111 -81.245403 -1.901423
-25.854456 -81.015339 -3.203215
3 0 6 4
3 0 8 6
3 18 9 19
3 20 11 21
3 22 21 9
3 20 21 22
3 24 23 11
3 25 13 26
3 28 27 5
3 1 29 31
3 31 30 7
3 29 30 31
3 1 32 33
3 34 14 35
3 2 36 37
3 2 38 40
3 38 15 39
3 38 39 40
3 2 16 15
3 3 17 10
3 3 41 43
3 43 42 17
3 41 42 43
3 3 44 45
3 47 46 12
3 4 48 50
3 48 5 49
3 48 49 50
3 6 5 4
3 6 51 53
3 53 52 5
3 51 52 53
3 6 54 56
3 54 7 55
3 54 55 56
3 8 7 6
3 8 1 7
3 9 57 58
3 9 59 61
3 59 2 60
3 59 60 61
3 9 10 2
3 11 10 9
3 11 3 10
3 11 12 3
3 62 12 63
3 64 63 11
3 62 63 64
3 66 65 12
3 67 4 68
3 13 69 71
3 69 4 70
3 69 70 71
3 13 0 4
3 5 72 73
3 75 74 5
3 7 76 77
3 79 78 7
3 80 13 81
3 14 82 84
3 82 13 83
3 82 83 84
3 14 0 13
3 85 14 86
3 15 87 89
3 87 14 88
3 87 88 89
3 15 0 14
3 15 8 0
3 16 8 15
3 16 1 8
3 10 16 2
3 17 16 10
3 17 1 16
3 17 90 92
3 92 91 1
3 90 91 92
3 94 93 17
3 12 95 97
3 97 96 3
3 95 96 97
3 99 98 12
