ply
format ascii 1.0
element vertex 276
property float x
property float y
property float z
element face 271
property list uchar int vertex_index
end_header
-34.18716 77.499817 -25.796505
-33.291344 73.481575 0.537523
-36.351521 60.144604 -31.192137
-33.959553 77.062492 -12.891117
-31.234392 86.993767 -4.567086
-31.235207 90.390343 -18.456007
-35.574638 70.367165 -22.593025
-35.457634 69.480873 -28.675949
-34.917202 68.163582 -34.550934
-33.97094 76.510277 -31.939093
-34.785595 68.031776 -2.786148
-35.184544 69.514633 -9.318459
-33.677223 75.581375 -6.227548
-31.247177 89.223572 -11.676188
-35.508774 70.194176 -16.176226
-34.187653 77.497581 -19.48634
-32.335674 80.21196 -1.995365
-32.538803 82.57341 -9.055329
-32.68074 83.913574 -15.570352
-32.745865 84.447144 -22.545341
-34.890678 73.986931 -24.34586
-35.543648 70.065887 -25.655914
-34.841473 73.665375 -27.369709
-34.686474 73.313156 -30.445654
-34.133194 77.048347 -28.853537
-33.994034 71.017067 -1.224492
-34.181366 72.063904 -4.449552
-33.460625 74.762535 -2.785229
-36.658207 60.924652 -28.206261
-36.509228 55.601166 -32.375877
-35.905712 59.553169 -33.968266
-36.09605 61.465462 -2.650477
-34.61676 73.200821 -11.259274
-35.393112 69.838142 -12.790357
-34.784767 73.469559 -14.453613
-34.888248 73.727974 -17.778685
-34.135521 77.162216 -16.212961
-31.227541 85.534882 -1.079377
-31.74758 82.304543 -0.075073
-31.815359 83.670433 -3.468129
-32.431824 81.552254 -5.53518
-31.864925 84.913979 -6.835826
-31.26123 89.895996 -15.231659
-31.944111 86.792412 -13.786769
-32.034924 87.046097 -17.084789
-32.763802 84.132759 -19.0762
-31.981379 87.611122 -20.553274
-36.236786 66.245102 -23.912889
-36.176731 65.555428 -26.903728
-35.9856 64.801605 -30.033173
-35.643471 64.262085 -32.979923
-35.279716 68.752106 -31.563597
-34.508564 72.389793 -33.329777
-35.584816 64.990303 -4.337529
-35.751976 65.804565 -7.507118
-34.977951 68.880943 -5.902857
-34.41774 72.690659 -7.875782
-33.817291 76.453506 -9.521272
-31.256498 88.148743 -8.048297
-35.638351 69.997482 -19.442211
-34.931229 73.866295 -21.120197
-34.250401 77.399956 -22.715309
-32.629986 75.747681 2.471565
-31.645729 80.918961 3.300825
-32.190273 79.06958 1.252796
-32.795948 76.941513 -0.644983
-32.966728 78.052826 -4.044972
-33.074097 79.263992 -7.509731
-33.220184 80.033051 -11.078829
-31.925508 85.92318 -10.396338
-32.60186 83.451263 -12.414474
-33.367363 80.396904 -14.372346
-33.413883 80.909744 -17.580669
-33.510769 80.913261 -21.020777
-33.511574 80.956146 -24.280287
-32.737305 84.315674 -25.854961
-33.467476 80.749107 -27.451252
-33.642689 72.249321 -0.343484
-33.886843 70.375321 0.452768
-33.535498 71.607574 1.333775
-36.644987 58.295741 -30.374759
-36.79833 58.685765 -28.881821
-36.504864 60.534628 -29.699199
-36.430374 57.872885 -31.784007
-36.723841 56.024022 -30.966629
-36.644987 58.295741 -30.374759
-36.532541 59.687055 -3.354476
-36.239658 61.649689 -4.263941
-31.230967 86.264325 -2.823231
-30.954355 87.060856 -1.584257
-30.957781 87.790299 -3.328111
-35.905712 68.306134 -23.252957
-36.269649 66.265854 -22.314985
-35.938575 68.326886 -21.655053
-33.837566 76.229256 -33.334533
-34.106378 74.169014 -34.029875
-34.239752 74.450035 -32.634435
-35.042536 66.166858 -1.874541
-34.634363 67.720645 -1.197377
-35.185205 66.511039 -3.561838
-35.442146 64.646122 -2.650231
-35.042536 66.166858 -1.874541
-35.088211 65.724112 -35.042679
-35.451346 63.773363 -34.257174
-35.280337 66.212834 -33.765428
-35.577166 67.808651 -10.038068
-35.860882 65.953617 -9.132397
-35.46826 67.659599 -8.412789
-35.825819 68.274372 -15.224106
-35.767988 68.096355 -13.531171
-35.450943 70.016159 -14.483291
-35.891903 68.240002 -16.843734
-35.825819 68.274372 -15.224106
-35.573563 70.095829 -17.809219
-35.956692 68.141655 -18.476726
-35.891903 68.240002 -16.843734
-32.352303 76.64013 3.496063
-32.5539 74.983826 4.067511
-31.418764 82.527145 2.743978
-31.398473 81.684116 4.454565
-32.667797 84.312657 -27.372822
-32.31817 85.911869 -26.540463
-33.032882 82.529373 -28.170968
-33.10239 82.53239 -26.653106
-32.667797 84.312657 -27.372822
-33.396974 80.634716 -28.914478
-33.032882 82.529373 -28.170968
-34.238582 69.213291 -0.416549
-33.886843 70.375321 0.452768
-34.389814 69.524421 -2.00532
-34.634363 67.720645 -1.197377
-34.238582 69.213291 -0.416549
-36.980463 58.870726 -27.324789
-36.74679 61.284569 -26.715278
-36.980463 58.870726 -27.324789
-36.79833 58.685765 -28.881821
-36.797552 53.51333 -31.514246
-36.723841 56.024022 -30.966629
-36.501938 53.025858 -32.8736
-36.797552 53.51333 -31.514246
-36.2377 55.110914 -33.656662
-36.501938 53.025858 -32.8736
-35.935941 57.086916 -34.452856
-36.2377 55.110914 -33.656662
-36.20747 57.577168 -33.172072
-35.613598 59.022682 -35.333651
-35.935941 57.086916 -34.452856
-34.717999 67.574601 -35.8566
-34.534264 69.92202 -35.332147
-36.387785 59.399496 -1.711272
-35.973627 60.992588 -1.051242
-36.387785 59.399496 -1.711272
-36.532541 59.687055 -3.354476
-30.941961 86.387528 0.205794
-30.954355 87.060856 -1.584257
-31.20967 84.835106 0.553878
-30.941961 86.387528 0.205794
-31.487561 83.919713 -0.577225
-31.46969 83.219936 1.056029
-31.20967 84.835106 0.553878
-36.57826 64.227779 -23.035799
-36.269649 66.265854 -22.314985
-36.536079 63.944794 -24.568592
-36.57826 64.227779 -23.035799
-36.506052 63.599957 -26.064011
-36.536079 63.944794 -24.568592
-36.206758 65.900265 -25.408309
-36.417469 63.24004 -27.554994
-36.74679 61.284569 -26.715278
-36.506052 63.599957 -26.064011
-34.329944 72.035125 -34.721569
-34.534264 69.92202 -35.332147
-34.712883 70.276688 -33.940355
-34.329944 72.035125 -34.721569
-34.106378 74.169014 -34.029875
-35.697764 62.883702 -1.806706
-35.973627 60.992588 -1.051242
-35.840433 63.227882 -3.494003
-35.697764 62.883702 -1.806706
-35.442146 64.646122 -2.650231
-35.984041 63.412109 -5.107467
-36.239658 61.649689 -4.263941
-35.840433 63.227882 -3.494003
-35.668396 65.397434 -5.922324
-36.067621 63.81924 -6.692261
-35.984041 63.412109 -5.107467
-30.90974 88.621479 -5.091858
-30.957781 87.790299 -3.328111
-30.920793 89.198967 -6.832464
-31.245445 87.571255 -6.307691
-30.90974 88.621479 -5.091858
-30.912534 89.729073 -8.572584
-30.920793 89.198967 -6.832464
-30.907873 90.266487 -10.38653
-31.251838 88.686158 -9.862243
-30.912534 89.729073 -8.572584
-30.907715 90.656769 -12.227818
-30.907873 90.266487 -10.38653
-30.914741 90.992981 -14.005554
-31.254204 89.559784 -13.453924
-30.907715 90.656769 -12.227818
-30.857455 91.429588 -15.735226
-30.914741 90.992981 -14.005554
-30.844443 91.676762 -17.3474
-31.248219 90.143169 -16.843833
-30.857455 91.429588 -15.735226
-33.192648 72.799427 2.184722
-33.535498 71.607574 1.333775
-35.582466 61.418905 -34.751345
-35.774591 61.907627 -33.474094
-35.451346 63.773363 -34.257174
-35.613598 59.022682 -35.333651
-35.582466 61.418905 -34.751345
-35.088211 65.724112 -35.042679
-34.717999 67.574601 -35.8566
-36.169979 64.013063 -8.27531
-36.067621 63.81924 -6.692261
-36.169979 64.013063 -8.27531
-35.860882 65.953617 -9.132397
-35.68145 67.970405 -11.774017
-35.577166 67.808651 -10.038068
-35.288828 69.676388 -11.054408
-35.68145 67.970405 -11.774017
-35.767988 68.096355 -13.531171
-35.970432 68.142044 -20.079646
-35.956692 68.141655 -18.476726
-35.606494 70.182323 -21.017618
-35.938575 68.326886 -21.655053
-35.970432 68.142044 -20.079646
-32.861969 73.93248 3.151743
-32.5539 74.983826 4.067511
-32.960665 74.614628 1.504544
-33.192648 72.799427 2.184722
-32.861969 73.93248 3.151743
-31.631863 79.963368 4.881488
-31.384607 80.728523 6.035228
-31.398473 81.684116 4.454565
-31.860174 79.225769 3.910693
-31.631863 79.963368 4.881488
-31.696655 81.611752 1.612876
-31.418764 82.527145 2.743978
-31.46969 83.219936 1.056029
-32.132446 78.301079 2.886678
-31.860174 79.225769 3.910693
-31.918001 79.99427 2.27681
-32.410129 77.408631 1.862181
-32.352303 76.64013 3.496063
-32.132446 78.301079 2.886678
-30.831037 91.811619 -18.976194
-30.844443 91.676762 -17.3474
-31.190549 90.596081 -20.21709
-30.831037 91.811619 -18.976194
-30.786379 92.017357 -20.737277
-31.563635 89.20647 -21.265723
-31.608293 89.000732 -19.504641
-31.190549 90.596081 -20.21709
-31.957647 87.691483 -22.317131
-31.563635 89.20647 -21.265723
-32.339889 86.109493 -23.313164
-32.363622 86.029133 -21.549307
-31.957647 87.691483 -22.317131
-32.33561 86.043758 -24.967975
-32.31817 85.911869 -26.540463
-32.741585 84.381409 -24.200151
-32.339889 86.109493 -23.313164
-32.33561 86.043758 -24.967975
-33.729833 78.784336 -29.61562
-33.800335 78.898727 -28.152394
-33.396974 80.634716 -28.914478
-33.648707 78.515301 -31.158398
-34.052067 76.779312 -30.396315
-33.729833 78.784336 -29.61562
-33.542536 78.214505 -32.711299
-33.648707 78.515301 -31.158398
-33.837566 76.229256 -33.334533
-33.542536 78.214505 -32.711299
3 0 22 20
3 0 24 22
3 1 77 79
3 77 25 78
3 77 78 79
3 1 27 25
3 2 80 82
3 82 81 28
3 80 81 82
3 2 83 85
3 83 29 84
3 83 84 85
3 2 30 29
3 87 86 31
3 3 34 32
3 3 36 34
3 4 88 90
3 88 37 89
3 88 89 90
3 4 39 37
3 4 41 39
3 5 44 42
3 5 46 44
3 6 91 93
3 91 47 92
3 91 92 93
3 7 48 21
3 7 49 48
3 7 51 49
3 9 52 23
3 9 94 96
3 96 95 52
3 94 95 96
3 10 97 98
3 10 99 101
3 99 53 100
3 99 100 101
3 10 55 53
3 12 56 26
3 12 57 56
3 8 102 104
3 104 103 50
3 102 103 104
3 11 105 107
3 107 106 54
3 105 106 107
3 14 108 110
3 110 109 33
3 108 109 110
3 14 111 112
3 14 113 115
3 113 59 114
3 113 114 115
3 15 60 35
3 15 61 60
3 116 62 117
3 118 63 119
3 16 64 38
3 16 65 64
3 16 66 65
3 17 67 40
3 17 68 67
3 13 69 58
3 18 70 43
3 18 71 70
3 18 72 71
3 19 73 45
3 19 74 73
3 120 75 121
3 122 76 123
3 124 123 75
3 122 123 124
3 126 125 76
3 20 21 6
3 22 21 20
3 22 7 21
3 22 23 7
3 24 23 22
3 24 9 23
3 25 127 128
3 25 129 131
3 129 10 130
3 129 130 131
3 25 26 10
3 27 26 25
3 27 12 26
3 28 132 133
3 135 134 28
3 29 136 137
3 29 138 139
3 29 140 141
3 30 142 144
3 144 143 29
3 142 143 144
3 30 145 146
3 148 147 8
3 31 149 150
3 152 151 31
3 32 33 11
3 34 33 32
3 34 14 33
3 34 35 14
3 36 35 34
3 36 15 35
3 37 153 154
3 37 155 156
3 37 157 159
3 157 38 158
3 157 158 159
3 39 38 37
3 39 16 38
3 39 40 16
3 41 40 39
3 41 17 40
3 42 43 13
3 44 43 42
3 44 18 43
3 44 45 18
3 46 45 44
3 46 19 45
3 47 160 161
3 47 162 163
3 21 47 6
3 48 47 21
3 48 164 166
3 166 165 47
3 164 165 166
3 48 167 169
3 167 28 168
3 167 168 169
3 49 28 48
3 49 2 28
3 49 50 2
3 51 50 49
3 51 8 50
3 23 51 7
3 52 51 23
3 52 8 51
3 52 170 172
3 172 171 8
3 170 171 172
3 174 173 52
3 175 31 176
3 53 177 179
3 177 31 178
3 177 178 179
3 53 180 182
3 182 181 31
3 180 181 182
3 53 183 185
3 183 54 184
3 183 184 185
3 55 54 53
3 55 11 54
3 26 55 10
3 56 55 26
3 56 11 55
3 56 32 11
3 57 32 56
3 57 3 32
3 186 4 187
3 188 58 189
3 190 189 4
3 188 189 190
3 191 58 192
3 193 13 194
3 195 194 58
3 193 194 195
3 196 13 197
3 198 42 199
3 200 199 13
3 198 199 200
3 201 42 202
3 203 5 204
3 205 204 42
3 203 204 205
3 206 1 207
3 50 30 2
3 208 30 209
3 210 209 50
3 208 209 210
3 212 211 30
3 214 213 8
3 54 215 216
3 218 217 54
3 33 219 221
3 221 220 11
3 219 220 221
3 223 222 33
3 59 224 225
3 59 226 228
3 226 6 227
3 226 227 228
3 35 59 14
3 60 59 35
3 60 6 59
3 60 20 6
3 61 20 60
3 61 0 20
3 62 229 230
3 62 231 233
3 231 1 232
3 231 232 233
3 63 234 236
3 234 235 236
3 63 237 238
3 38 239 241
3 239 63 240
3 239 240 241
3 64 63 38
3 64 242 244
3 244 243 63
3 242 243 244
3 64 245 247
3 245 62 246
3 245 246 247
3 65 62 64
3 65 1 62
3 65 27 1
3 66 27 65
3 66 12 27
3 40 66 16
3 67 66 40
3 67 12 66
3 67 57 12
3 68 57 67
3 68 3 57
3 58 41 4
3 69 41 58
3 69 17 41
3 43 69 13
3 70 69 43
3 70 17 69
3 70 68 17
3 71 68 70
3 71 3 68
3 71 36 3
3 72 36 71
3 72 15 36
3 45 72 18
3 73 72 45
3 73 15 72
3 73 61 15
3 74 61 73
3 74 0 61
3 248 5 249
3 250 5 251
3 250 251 252
3 253 46 254
3 255 254 5
3 253 254 255
3 256 46 257
3 258 19 259
3 260 259 46
3 258 259 260
3 75 261 262
3 75 263 265
3 263 19 264
3 263 264 265
3 75 74 19
3 76 74 75
3 76 0 74
3 76 24 0
3 266 24 267
3 268 267 76
3 266 267 268
3 269 9 270
3 271 270 24
3 269 270 271
3 272 9 273
3 275 274 9
