ply
format ascii 1.0
element vertex 233
property float x
property float y
property float z
element face 230
property list uchar int vertex_index
end_header
26.639883 70.671349 40.601261
22.603289 81.540802 34.195953
20.756092 67.568146 45.687832
18.800379 52.153141 54.454544
25.302156 56.435669 51.494339
20.825638 39.075706 60.907578
18.020927 44.327724 57.94212
21.50547 46.917931 57.516838
22.245171 54.575745 53.630432
24.786049 76.540604 37.687458
21.76564 74.61866 40.395939
23.95067 69.768822 43.559746
19.671362 59.796673 50.500294
22.987696 62.325924 48.976692
26.002436 63.920647 46.21191
27.654219 57.169048 48.389713
22.45113 40.063217 60.531898
21.00334 43.000813 59.264133
22.632895 44.120937 58.765167
23.087065 48.196697 56.79554
23.79228 79.091759 36.02924
19.596695 70.012932 43.781494
20.059713 73.624146 41.12817
21.312105 71.271637 43.02919
22.964991 72.497551 41.866009
22.452126 68.685387 44.819233
18.368343 48.215153 56.261185
16.606318 46.909149 56.161499
17.120462 50.693062 54.571632
17.443081 54.737278 52.638809
17.881754 58.588825 50.685654
19.152771 55.989571 52.533936
23.866753 55.706459 52.665394
22.619844 58.374756 51.449707
24.154636 59.618816 50.256111
24.589478 63.218376 47.760178
25.61047 60.109272 49.040073
26.85129 60.610199 47.427322
26.536659 57.032387 50.027145
19.052952 66.171562 46.343796
19.336258 41.526554 59.598175
19.721338 45.698059 57.835682
20.121695 49.630043 56.043522
20.50411 53.651192 54.063251
21.768339 50.978947 55.537575
23.437906 51.84103 54.886623
24.937212 52.694706 53.816536
22.091743 36.218941 62.085846
25.785217 73.899399 39.032486
21.021471 80.445648 35.400532
20.508995 76.894447 38.504929
22.092371 78.162033 37.377861
23.325935 76.019279 38.907768
24.384912 73.278061 40.646492
25.350368 70.505447 42.103954
18.521315 62.240051 48.73217
20.170942 63.636208 48.239063
20.933617 57.300678 52.116966
21.398298 61.148357 49.881302
21.835659 64.999123 47.429062
23.468096 65.928871 46.475498
25.000813 66.817024 45.058453
26.327169 67.399254 43.437016
27.113947 64.194191 44.683292
27.869452 60.754978 45.732193
27.213644 70.712677 39.62426
26.842032 72.315499 38.98164
27.053429 69.128079 41.148557
27.213644 70.712677 39.62426
23.272933 42.726997 59.237054
22.542012 42.092077 59.648533
23.18205 40.698137 60.12042
23.43037 44.559835 58.369304
23.272933 42.726997 59.237054
23.345142 81.952129 33.492243
23.533687 83.581643 31.819116
22.791835 83.170315 32.522827
23.197785 80.316281 35.112597
23.939637 80.727608 34.408886
23.345142 81.952129 33.492243
18.150619 65.408951 46.538963
18.418438 67.246002 45.399607
20.080948 40.30113 60.252876
19.184756 39.694946 60.315334
19.929445 38.469522 60.970036
24.020665 50.354925 55.426706
23.262486 50.018864 55.841082
23.845244 48.532758 56.381164
24.770318 50.781763 54.891662
24.187559 52.267868 54.351579
24.020665 50.354925 55.426706
25.417397 51.099945 54.307548
24.770318 50.781763 54.891662
22.720922 34.919359 62.492748
21.979556 34.271054 62.803579
22.608735 32.971472 63.210482
22.895795 36.783369 61.747137
22.720922 34.919359 62.492748
25.474436 76.806637 36.795164
25.013512 78.182229 36.031187
25.285633 75.220001 38.359972
25.97402 75.486035 37.467678
25.474436 76.806637 36.795164
20.156337 79.74424 35.919344
20.381172 81.458709 34.384732
19.516039 80.757301 34.903543
17.139984 43.637006 57.872158
17.761207 42.370317 58.698678
14.993596 47.023611 55.277552
15.71826 45.990217 56.131017
15.881654 47.942543 55.308033
28.069786 57.236065 47.508734
28.177402 59.02903 46.179974
27.761836 58.962013 47.060953
23.657455 46.597715 57.384491
22.85998 46.158817 57.780354
23.43037 44.559835 58.369304
23.845244 48.532758 56.381164
23.657455 46.597715 57.384491
24.516628 79.457806 35.202078
23.939637 80.727608 34.408886
24.289164 77.816181 36.858349
25.013512 78.182229 36.031187
24.516628 79.457806 35.202078
19.828204 71.818539 42.454832
19.146742 72.729473 41.587032
18.915233 70.923867 42.913695
16.138727 49.834499 54.513099
15.881654 47.942543 55.308033
16.86339 48.801105 55.366566
16.417372 51.847706 53.663978
16.138727 49.834499 54.513099
16.578682 53.869814 52.697567
16.417372 51.847706 53.663978
17.281771 52.71517 53.605221
16.755189 55.714775 51.8062
16.578682 53.869814 52.697567
17.662418 56.663052 51.662232
16.974525 57.640549 50.829622
16.755189 55.714775 51.8062
21.965687 82.636699 33.225439
22.791835 83.170315 32.522827
18.690309 69.166687 44.118456
18.915233 70.923867 42.913695
19.324824 68.092247 45.062645
18.690309 69.166687 44.118456
18.418438 67.246002 45.399607
18.418873 40.969732 59.526705
18.26737 39.138124 60.243865
19.184756 39.694946 60.315334
18.678593 42.927139 58.770148
17.761207 42.370317 58.698678
18.418873 40.969732 59.526705
25.58531 52.925196 53.189556
25.767782 54.795677 52.028458
25.119684 54.565187 52.655437
25.58531 52.925196 53.189556
25.417397 51.099945 54.307548
20.634495 37.029142 61.681046
19.929445 38.469522 60.970036
21.267547 35.600759 62.27018
21.979556 34.271054 62.803579
21.458691 37.647323 61.496712
20.634495 37.029142 61.681046
21.267547 35.600759 62.27018
23.075488 38.705507 60.970163
22.271437 38.141079 61.308872
22.895795 36.783369 61.747137
23.18205 40.698137 60.12042
23.075488 38.705507 60.970163
26.414699 73.929524 38.197252
25.97402 75.486035 37.467678
26.21255 72.285374 39.816873
26.842032 72.315499 38.98164
26.414699 73.929524 38.197252
21.174778 82.089123 33.827728
20.381172 81.458709 34.384732
21.81238 80.993225 34.798243
21.965687 82.636699 33.225439
21.174778 82.089123 33.827728
19.403741 74.526062 40.251562
19.146742 72.729473 41.587032
19.628383 76.161213 38.939942
19.403741 74.526062 40.251562
20.284354 75.259297 39.816549
19.900099 77.968639 37.471542
19.628383 76.161213 38.939942
20.765233 78.670048 36.952731
20.156337 79.74424 35.919344
19.900099 77.968639 37.471542
16.432679 44.927719 56.981848
17.139984 43.637006 57.872158
17.313623 45.618437 57.05181
16.432679 44.927719 56.981848
15.71826 45.990217 56.131017
17.245685 59.645609 49.803602
16.974525 57.640549 50.829622
17.565465 61.471222 48.826861
17.245685 59.645609 49.803602
18.201535 60.414438 49.708912
17.8848 63.443195 47.733151
17.565465 61.471222 48.826861
18.787134 64.205806 47.537983
18.150619 65.408951 46.538963
17.8848 63.443195 47.733151
26.897072 67.492031 42.566435
27.053429 69.128079 41.148557
26.483526 69.035302 42.019138
27.290461 65.889499 43.189573
26.897072 67.492031 42.566435
26.720558 65.796723 44.060154
27.623154 64.111534 43.825602
27.290461 65.889499 43.189573
28.000907 62.391927 44.350052
27.623154 64.111534 43.825602
27.491699 62.474585 45.207743
28.291236 60.712969 44.796398
28.000907 62.391927 44.350052
28.291236 60.712969 44.796398
28.177402 59.02903 46.179974
26.385033 55.094036 51.29486
25.919407 56.734028 50.760742
25.767782 54.795677 52.028458
26.941529 55.376416 50.460662
26.385033 55.094036 51.29486
27.500309 55.444746 49.641947
27.095439 57.100718 49.208429
26.941529 55.376416 50.460662
27.984496 55.396806 48.797432
27.500309 55.444746 49.641947
28.400063 55.463824 47.916453
28.069786 57.236065 47.508734
27.984496 55.396806 48.797432
3 0 65 66
3 0 67 68
3 69 18 70
3 71 70 16
3 69 70 71
3 73 72 18
3 1 74 76
3 74 75 76
3 1 77 79
3 77 20 78
3 77 78 79
3 2 23 21
3 2 25 23
3 3 28 26
3 3 29 28
3 3 31 29
3 4 34 32
3 4 36 34
3 4 38 36
3 80 39 81
3 5 82 84
3 82 40 83
3 82 83 84
3 7 41 17
3 7 42 41
3 7 44 42
3 85 45 86
3 87 86 19
3 85 86 87
3 88 46 89
3 90 89 45
3 88 89 90
3 92 91 46
3 93 47 94
3 93 94 95
3 97 96 47
3 9 98 99
3 9 100 102
3 100 48 101
3 100 101 102
3 103 49 104
3 103 104 105
3 10 50 22
3 10 51 50
3 10 52 51
3 11 53 24
3 11 54 53
3 6 106 107
3 110 109 27
3 108 109 110
3 12 55 30
3 12 56 55
3 8 57 43
3 13 58 33
3 13 59 58
3 13 60 59
3 14 61 35
3 14 62 61
3 14 63 62
3 15 64 37
3 15 111 113
3 113 112 64
3 111 112 113
3 16 17 5
3 18 17 16
3 18 7 17
3 18 19 7
3 114 19 115
3 116 115 18
3 114 115 116
3 118 117 19
3 20 119 120
3 20 121 123
3 121 9 122
3 121 122 123
3 21 124 126
3 124 22 125
3 124 125 126
3 23 22 21
3 23 10 22
3 23 24 10
3 25 24 23
3 25 11 24
3 26 27 6
3 28 27 26
3 28 127 129
3 129 128 27
3 127 128 129
3 28 130 131
3 29 132 134
3 134 133 28
3 132 133 134
3 29 135 136
3 29 137 139
3 137 30 138
3 137 138 139
3 31 30 29
3 31 12 30
3 32 33 8
3 34 33 32
3 34 13 33
3 34 35 13
3 36 35 34
3 36 14 35
3 36 37 14
3 38 37 36
3 38 15 37
3 140 1 141
3 142 21 143
3 39 144 146
3 144 21 145
3 144 145 146
3 39 2 21
3 40 147 149
3 147 148 149
3 40 150 152
3 150 6 151
3 150 151 152
3 17 40 5
3 41 40 17
3 41 6 40
3 41 26 6
3 42 26 41
3 42 3 26
3 42 43 3
3 44 43 42
3 44 8 43
3 19 44 7
3 45 44 19
3 45 8 44
3 45 32 8
3 46 32 45
3 46 4 32
3 46 153 155
3 155 154 4
3 153 154 155
3 157 156 46
3 158 5 159
3 47 160 161
3 47 162 164
3 162 5 163
3 162 163 164
3 47 16 5
3 165 16 166
3 167 166 47
3 165 166 167
3 169 168 16
3 48 170 171
3 48 172 174
3 172 0 173
3 172 173 174
3 49 175 176
3 49 177 179
3 177 1 178
3 177 178 179
3 22 180 181
3 50 182 184
3 184 183 22
3 182 183 184
3 50 185 186
3 50 187 189
3 187 49 188
3 187 188 189
3 51 49 50
3 51 1 49
3 51 20 1
3 52 20 51
3 52 9 20
3 24 52 10
3 53 52 24
3 53 9 52
3 53 48 9
3 54 48 53
3 54 0 48
3 27 190 192
3 192 191 6
3 190 191 192
3 194 193 27
3 30 195 196
3 55 197 199
3 199 198 30
3 197 198 199
3 55 200 201
3 55 202 204
3 202 39 203
3 202 203 204
3 56 39 55
3 56 2 39
3 43 31 3
3 57 31 43
3 57 12 31
3 33 57 8
3 58 57 33
3 58 12 57
3 58 56 12
3 59 56 58
3 59 2 56
3 59 25 2
3 60 25 59
3 60 11 25
3 35 60 13
3 61 60 35
3 61 11 60
3 61 54 11
3 62 54 61
3 62 0 54
3 62 205 207
3 207 206 0
3 205 206 207
3 63 208 210
3 210 209 62
3 208 209 210
3 63 211 212
3 37 63 14
3 64 63 37
3 64 213 215
3 215 214 63
3 213 214 215
3 64 216 217
3 219 218 64
3 220 38 221
3 222 221 4
3 220 221 222
3 223 38 224
3 225 15 226
3 227 226 38
3 225 226 227
3 228 15 229
3 232 231 15
3 230 231 232
