ply
format ascii 1.0
element vertex 322
property float x
property float y
property float z
element face 333
property list uchar int vertex_index
end_header
-8.31771 55.473354 -37.535313
0.428223 62.079052 -47.410851
3.89147 50.611832 -51.221378
-8.804253 64.58567 -36.722088
-5.429057 58.986427 -42.559673
-4.647708 70.937546 -42.396343
-2.717985 50.479538 -48.14571
-9.439204 70.031128 -36.483856
-7.148571 68.059822 -39.666817
-7.347888 73.580124 -39.45919
-10.688843 65.955139 -33.353569
-2.927421 60.862816 -45.078583
-4.033813 54.952518 -45.266331
-1.020056 56.043278 -47.622066
1.669123 45.258793 -52.312992
-7.0645 45.324532 -46.380054
2.407654 56.58334 -49.430809
-8.43711 59.540775 -36.999607
-7.24448 57.127369 -39.797474
-7.102482 62.294254 -39.65414
-4.956594 64.97168 -42.47662
-1.961234 66.812065 -45.101387
-9.769308 60.7901 -33.986305
-6.220437 53.947021 -42.580463
-5.363359 50.002552 -45.636826
0.462404 50.754154 -49.994827
-9.761084 72.735992 -36.335934
-8.514183 71.983841 -38.013641
-8.733464 74.69207 -37.790123
-1.391268 61.367542 -46.282597
-1.900685 58.499916 -46.405704
-0.283489 58.905254 -47.507839
-8.619085 61.997494 -36.771351
-7.887463 61.117905 -38.211536
-7.972935 63.720787 -38.165058
-6.037975 69.639206 -41.035397
-6.074955 66.514 -41.063141
-4.732956 67.893539 -42.516548
-3.450895 65.761894 -43.951942
-3.246153 69.01828 -43.819118
-9.710503 65.489243 -35.155617
-10.161243 63.302505 -33.690353
-9.373532 62.714607 -35.270397
-9.094725 60.237484 -35.512299
-6.467909 58.190048 -41.086422
-6.726932 55.661461 -41.135189
-5.830415 56.410885 -42.495304
-3.28116 52.929668 -46.708748
-4.594753 52.520145 -45.457058
-4.107501 50.37516 -46.933315
-4.969986 47.993504 -47.258339
-3.659826 48.19965 -48.44323
3.241642 53.629696 -50.355186
1.470138 53.705803 -49.632935
2.162569 50.770496 -50.671871
-9.13873 67.315514 -36.552589
-8.054045 66.435173 -38.240547
-8.323514 69.127014 -38.069057
-7.22965 70.9534 -39.622467
-5.951653 72.544525 -41.012646
-10.239335 68.154869 -34.791508
-4.271996 60.123302 -43.826889
-4.648946 57.182957 -43.947453
-3.378683 57.905243 -45.203762
-2.589557 55.694744 -46.480339
-1.910479 53.229469 -47.767208
4.494641 47.624859 -52.043613
2.789159 47.801216 -51.694054
3.32355 44.872189 -52.663437
1.471908 59.395813 -48.454041
4.330126 56.595242 -50.172081
5.230478 53.56218 -50.956295
5.717938 50.250023 -51.661701
6.188073 46.783661 -52.384338
-8.340112 57.303658 -37.264259
-7.889067 56.257618 -38.504299
-7.823612 58.561676 -38.395931
-7.122219 59.69416 -39.729752
-6.214765 60.828148 -41.171318
-7.097524 64.999397 -39.663189
-6.153462 63.539082 -41.067589
-5.188911 61.97543 -42.473549
-3.909804 62.949299 -43.817589
-2.426652 63.714867 -45.101532
-0.708805 64.583618 -46.301495
-8.878113 57.885883 -35.881119
-8.735191 55.741337 -36.353699
-7.511405 54.807365 -39.735538
-7.134723 53.262539 -41.090168
-6.790332 51.456131 -42.59586
-5.208245 54.556831 -43.938324
-5.809237 51.926022 -44.05735
-6.495904 49.493874 -44.213169
-6.167493 47.600155 -45.962772
-5.939326 45.754436 -47.639462
-5.564865 43.915035 -49.570824
0.7273 56.37286 -48.637569
-0.248578 53.390335 -48.823151
-1.244548 50.633373 -49.123318
1.148381 47.981361 -51.195103
-0.504276 48.137936 -50.495422
-2.16398 48.163864 -49.574581
-8.201484 54.834177 -38.008957
-8.460383 54.663505 -37.327864
-9.395574 75.096477 -36.930053
-9.247274 73.714031 -37.063029
-9.909384 74.118438 -36.202959
-9.909384 74.118438 -36.202959
-10.375649 73.02013 -35.452662
-9.83927 69.092998 -35.637682
-10.398508 69.494724 -34.81324
-9.998442 70.432853 -35.659414
4.131552 44.646803 -52.76372
3.909095 46.248524 -52.353525
4.717097 46.023138 -52.453807
-7.553159 44.366286 -46.519863
-7.601619 45.133257 -45.543909
-6.986061 44.433647 -47.362621
-7.553159 44.366286 -46.519863
5.36668 56.60409 -50.469103
4.824025 58.199584 -50.089754
5.816855 55.087559 -50.86121
4.780302 55.078711 -50.564188
5.36668 56.60409 -50.469103
6.639318 50.017369 -51.812952
6.390642 51.66675 -51.535263
6.874386 48.284188 -52.17427
5.953005 48.516842 -52.02302
6.639318 50.017369 -51.812952
-10.82455 64.767851 -32.688845
-11.146533 66.113987 -32.494946
-10.110632 60.797332 -33.155964
-10.306599 62.053535 -33.007988
-9.965276 62.046302 -33.838329
-9.908314 59.63068 -33.403612
-10.110632 60.797332 -33.155964
-9.630845 59.501791 -34.135128
-9.908314 59.63068 -33.403612
-8.991129 55.871471 -35.622397
-8.907082 54.757639 -36.026898
-5.291676 45.857904 -48.267966
-5.454656 46.87397 -47.448901
-4.807006 46.977438 -48.077404
-5.104446 44.938204 -49.233647
-5.752096 44.834736 -48.605143
-5.291676 45.857904 -48.267966
-1.078606 47.059853 -50.716915
-0.264128 46.873438 -51.123483
-1.908458 47.072817 -50.256495
-1.334128 48.1509 -50.035001
-1.078606 47.059853 -50.716915
-2.668063 47.097698 -49.802706
-1.908458 47.072817 -50.256495
-10.159382 71.785286 -35.585453
-10.375649 73.02013 -35.452662
-9.600144 71.38356 -36.409895
-9.998442 70.432853 -35.659414
-10.159382 71.785286 -35.585453
-7.143909 46.198685 -45.484442
-7.601619 45.133257 -45.543909
-4.151926 47.080511 -48.669849
-4.807006 46.977438 -48.077404
-4.314906 48.096577 -47.850785
0.822572 45.433866 -52.032269
1.041989 44.207033 -52.64402
-10.955679 67.343983 -33.263813
-11.146533 66.113987 -32.494946
-10.730925 68.443848 -33.982782
-10.398508 69.494724 -34.81324
-10.464089 67.055004 -34.072539
-10.955679 67.343983 -33.263813
-10.730925 68.443848 -33.982782
3.511953 43.450081 -53.109533
4.131552 44.646803 -52.76372
2.712862 43.687455 -53.034941
3.511953 43.450081 -53.109533
1.885649 43.880756 -52.859718
2.496336 45.065491 -52.488214
2.712862 43.687455 -53.034941
1.041989 44.207033 -52.64402
1.885649 43.880756 -52.859718
1.907709 60.938885 -48.431582
0.950066 60.737432 -47.932446
1.385867 62.280504 -47.909987
2.434971 59.505205 -48.892786
1.907709 60.938885 -48.431582
2.902844 58.098968 -49.381171
1.939781 57.989576 -48.942425
2.434971 59.505205 -48.892786
3.86408 58.10492 -49.751807
4.824025 58.199584 -50.089754
3.36889 56.589291 -49.801445
2.902844 58.098968 -49.381171
3.86408 58.10492 -49.751807
6.146911 53.322828 -51.18256
5.816855 55.087559 -50.86121
5.474208 51.906101 -51.308998
6.146911 53.322828 -51.18256
6.390642 51.66675 -51.535263
5.563813 45.602539 -52.62417
4.717097 46.023138 -52.453807
5.341357 47.20426 -52.213976
7.094497 46.639597 -52.426778
6.874386 48.284188 -52.17427
6.425314 45.245737 -52.680194
7.094497 46.639597 -52.426778
5.563813 45.602539 -52.62417
6.425314 45.245737 -52.680194
-8.778491 76.040581 -37.669352
-9.395574 75.096477 -36.930053
-8.038937 75.581852 -38.534593
-8.778491 76.040581 -37.669352
-7.346148 75.025879 -39.369127
-8.040676 74.136097 -38.624657
-8.038937 75.581852 -38.534593
-6.617935 74.424015 -40.161249
-7.346148 75.025879 -39.369127
-5.919818 73.906216 -40.937977
-6.649771 73.062324 -40.235918
-6.617935 74.424015 -40.161249
-5.139195 73.217811 -41.716493
-5.919818 73.906216 -40.937977
-4.487222 72.414322 -42.408342
-5.299681 71.741035 -41.704494
-5.139195 73.217811 -41.716493
-3.769024 71.495991 -43.09737
-4.487222 72.414322 -42.408342
-3.068246 70.536358 -43.808757
-3.94693 69.977913 -43.107731
-3.769024 71.495991 -43.09737
-2.348686 69.505764 -44.461891
-3.068246 70.536358 -43.808757
-1.706226 68.402657 -45.103026
-2.603693 67.915173 -44.460253
-2.348686 69.505764 -44.461891
-1.017828 67.295635 -45.701962
-1.706226 68.402657 -45.103026
-0.391614 66.181411 -46.302016
-1.33502 65.697842 -45.701441
-1.017828 67.295635 -45.701962
0.25628 64.840111 -46.870013
-0.391614 66.181411 -46.302016
0.824794 63.587828 -47.42469
-0.140291 63.331335 -46.856173
0.25628 64.840111 -46.870013
1.385867 62.280504 -47.909987
0.824794 63.587828 -47.42469
-10.56075 63.441534 -32.857236
-10.82455 64.767851 -32.688845
-10.425043 64.628822 -33.521961
-10.56075 63.441534 -32.857236
-10.306599 62.053535 -33.007988
-9.293553 59.225483 -34.898125
-9.630845 59.501791 -34.135128
-9.432016 60.513792 -34.749302
-9.185247 58.049683 -35.082535
-9.293553 59.225483 -34.898125
-8.986419 59.061684 -35.696709
-9.06259 56.943745 -35.386106
-9.185247 58.049683 -35.082535
-8.806652 56.81361 -36.117409
-8.991129 55.871471 -35.622397
-9.06259 56.943745 -35.386106
-8.669124 54.797497 -36.737057
-8.907082 54.757639 -36.026898
-8.52645 55.607346 -36.944506
-8.460383 54.663505 -37.327864
-8.669124 54.797497 -36.737057
-7.987163 55.226309 -38.49345
-8.201484 54.834177 -38.008957
-8.103388 55.865486 -38.019806
-7.798332 54.501182 -39.10907
-7.987163 55.226309 -38.49345
-7.700236 55.532491 -39.119918
-7.699218 53.632337 -39.695438
-7.798332 54.501182 -39.10907
-7.510877 52.859924 -40.372753
-7.699218 53.632337 -39.695438
-7.323064 54.034952 -40.412853
-7.365654 52.059374 -41.133489
-7.510877 52.859924 -40.372753
-7.193458 51.15617 -41.886336
-7.365654 52.059374 -41.133489
-6.962528 52.359335 -41.843014
-7.100887 50.208742 -42.69236
-7.193458 51.15617 -41.886336
-6.953673 49.227614 -43.501014
-7.100887 50.208742 -42.69236
-6.643118 50.475003 -43.404515
-6.859611 48.283356 -44.400999
-6.953673 49.227614 -43.501014
-6.695406 47.336496 -45.275801
-6.859611 48.283356 -44.400999
-6.331698 48.547015 -45.08797
-6.615996 46.462344 -46.171413
-7.143909 46.198685 -45.484442
-6.695406 47.336496 -45.275801
-6.423474 44.6486 -47.992325
-6.986061 44.433647 -47.362621
-6.501913 45.539484 -47.009758
-6.236244 43.728899 -48.958006
-6.423474 44.6486 -47.992325
-5.752096 44.834736 -48.605143
-6.144018 42.953568 -49.902075
-6.236244 43.728899 -48.958006
0.562201 46.79515 -51.473324
1.408752 46.620077 -51.754047
0.822572 45.433866 -52.032269
0.322053 48.059649 -50.845263
0.562201 46.79515 -51.473324
-0.264128 46.873438 -51.123483
-3.415985 47.115591 -49.23703
-2.911903 48.181757 -49.008905
-2.668063 47.097698 -49.802706
-4.151926 47.080511 -48.669849
-3.415985 47.115591 -49.23703
-4.887398 43.940413 -50.126128
-5.104446 44.938204 -49.233647
-5.467004 42.929804 -50.548922
-4.887398 43.940413 -50.126128
-6.144018 42.953568 -49.902075
-5.467004 42.929804 -50.548922
3 0 102 103
3 104 28 105
3 106 105 26
3 104 105 106
3 107 26 108
3 1 31 29
3 3 34 32
3 5 37 35
3 5 39 37
3 3 42 40
3 3 32 42
3 4 46 44
3 6 49 47
3 6 51 49
3 2 54 52
3 7 57 55
3 9 58 27
3 9 59 58
3 7 109 111
3 109 60 110
3 109 110 111
3 7 55 60
3 11 63 61
3 13 64 30
3 13 65 64
3 112 68 113
3 114 113 66
3 112 113 114
3 15 115 116
3 15 117 118
3 119 70 120
3 121 71 122
3 123 122 70
3 121 122 123
3 124 72 125
3 126 73 127
3 128 127 72
3 126 127 128
3 17 76 74
3 19 77 33
3 19 78 77
3 8 79 56
3 20 80 36
3 20 81 80
3 20 82 81
3 21 83 38
3 21 84 83
3 10 129 130
3 22 131 133
3 133 132 41
3 131 132 133
3 22 134 135
3 22 136 137
3 17 85 43
3 17 74 85
3 138 86 139
3 18 87 75
3 23 88 45
3 23 89 88
3 12 90 62
3 24 91 48
3 24 92 91
3 24 93 92
3 140 94 141
3 142 141 50
3 140 141 142
3 143 95 144
3 145 144 94
3 143 144 145
3 16 96 69
3 25 97 53
3 25 98 97
3 14 99 67
3 146 100 147
3 148 101 149
3 150 149 100
3 148 149 150
3 152 151 101
3 26 27 7
3 28 27 26
3 28 9 27
3 26 153 154
3 26 155 157
3 155 7 156
3 155 156 157
3 29 30 11
3 31 30 29
3 31 13 30
3 158 15 159
3 32 33 17
3 34 33 32
3 34 19 33
3 35 36 8
3 37 36 35
3 37 20 36
3 37 38 20
3 39 38 37
3 39 21 38
3 40 41 10
3 42 41 40
3 42 22 41
3 42 43 22
3 32 43 42
3 32 17 43
3 44 45 18
3 46 45 44
3 46 23 45
3 47 48 12
3 49 48 47
3 49 24 48
3 49 50 24
3 51 50 49
3 51 160 162
3 162 161 50
3 160 161 162
3 52 53 16
3 54 53 52
3 54 25 53
3 164 163 14
3 55 56 3
3 57 56 55
3 57 8 56
3 27 57 7
3 58 57 27
3 58 8 57
3 58 35 8
3 59 35 58
3 59 5 35
3 165 10 166
3 60 167 168
3 60 169 171
3 169 10 170
3 169 170 171
3 60 40 10
3 55 40 60
3 55 3 40
3 61 62 4
3 63 62 61
3 63 12 62
3 30 63 11
3 64 63 30
3 64 12 63
3 64 47 12
3 65 47 64
3 65 6 47
3 66 67 2
3 68 67 66
3 68 14 67
3 172 68 173
3 174 68 175
3 176 14 177
3 178 177 68
3 176 177 178
3 180 179 14
3 181 69 182
3 183 182 1
3 181 182 183
3 184 69 185
3 186 16 187
3 188 187 69
3 186 187 188
3 70 189 190
3 70 191 193
3 191 16 192
3 191 192 193
3 70 52 16
3 71 52 70
3 71 2 52
3 194 71 195
3 72 196 198
3 196 71 197
3 196 197 198
3 72 2 71
3 72 66 2
3 73 66 72
3 73 199 201
3 201 200 66
3 199 200 201
3 202 73 203
3 204 73 205
3 207 206 73
3 74 75 0
3 76 75 74
3 76 18 75
3 33 76 17
3 77 76 33
3 77 18 76
3 77 44 18
3 78 44 77
3 78 4 44
3 56 34 3
3 79 34 56
3 79 19 34
3 36 79 8
3 80 79 36
3 80 19 79
3 80 78 19
3 81 78 80
3 81 4 78
3 81 61 4
3 82 61 81
3 82 11 61
3 38 82 20
3 83 82 38
3 83 11 82
3 83 29 11
3 84 29 83
3 84 1 29
3 208 28 209
3 210 28 211
3 212 9 213
3 214 213 28
3 212 213 214
3 215 9 216
3 217 59 218
3 219 218 9
3 217 218 219
3 220 59 221
3 222 5 223
3 224 223 59
3 222 223 224
3 225 5 226
3 227 39 228
3 229 228 5
3 227 228 229
3 230 39 231
3 232 21 233
3 234 233 39
3 232 233 234
3 235 21 236
3 237 84 238
3 239 238 21
3 237 238 239
3 240 84 241
3 242 1 243
3 244 243 84
3 242 243 244
3 246 245 1
3 41 247 249
3 249 248 10
3 247 248 249
3 251 250 41
3 43 252 254
3 254 253 22
3 252 253 254
3 85 255 257
3 257 256 43
3 255 256 257
3 85 258 259
3 85 260 262
3 260 86 261
3 260 261 262
3 74 86 85
3 74 0 86
3 86 263 264
3 86 265 267
3 265 0 266
3 265 266 267
3 75 268 270
3 270 269 0
3 268 269 270
3 87 271 273
3 273 272 75
3 271 272 273
3 87 274 275
3 45 87 18
3 88 87 45
3 88 276 278
3 278 277 87
3 276 277 278
3 88 279 280
3 89 281 283
3 283 282 88
3 281 282 283
3 89 284 285
3 62 46 4
3 90 46 62
3 90 23 46
3 48 90 12
3 91 90 48
3 91 23 90
3 91 89 23
3 92 89 91
3 92 286 288
3 288 287 89
3 286 287 288
3 92 289 290
3 93 291 293
3 293 292 92
3 291 292 293
3 93 294 296
3 294 15 295
3 294 295 296
3 50 93 24
3 94 93 50
3 94 15 93
3 94 297 299
3 299 298 15
3 297 298 299
3 95 300 302
3 302 301 94
3 300 301 302
3 95 303 304
3 69 31 1
3 96 31 69
3 96 13 31
3 53 96 16
3 97 96 53
3 97 13 96
3 97 65 13
3 98 65 97
3 98 6 65
3 67 54 2
3 99 54 67
3 99 25 54
3 305 99 306
3 307 306 14
3 305 306 307
3 100 308 310
3 308 99 309
3 308 309 310
3 100 25 99
3 100 98 25
3 101 98 100
3 101 6 98
3 101 51 6
3 311 51 312
3 313 312 101
3 311 312 313
3 315 314 51
3 316 95 317
3 318 95 319
3 321 320 95
