ply
format ascii 1.0
element vertex 172
property float x
property float y
property float z
element face 156
property list uchar int vertex_index
end_header
30.107933 15.855638 49.973476
29.407101 5.062095 45.154213
29.650637 2.034346 53.338844
29.861057 8.973483 51.656353
29.927902 8.334947 56.221424
30.059568 16.263596 46.045815
29.76532 11.417317 44.106777
29.763445 10.142307 47.58297
29.48103 3.535767 49.03693
30.012539 11.683975 55.084682
29.953598 11.671432 57.302197
30.079294 16.078079 47.838787
29.920576 13.487783 46.824772
29.947088 13.002459 48.779922
29.757698 5.616694 52.517643
29.689447 6.365846 50.326302
29.563942 2.799961 51.177032
29.313229 -0.071336 49.649319
29.798052 4.364909 59.050331
30.223654 18.974026 48.838165
29.600285 8.439708 44.650372
29.66218 9.381569 42.936611
29.452951 6.085652 43.37714
29.987438 12.552746 50.861332
30.016075 12.131033 52.893967
29.91444 8.648474 53.857796
29.825687 5.368667 54.663078
29.21047 1.700122 45.591709
29.932396 14.376741 43.578354
29.906857 13.831663 45.082832
29.750071 10.796534 45.802387
29.575989 7.292041 46.446918
29.816006 9.727766 49.610416
29.622766 6.823244 48.360561
29.413696 4.010958 47.119305
29.239594 0.757574 47.589909
29.078587 -2.599353 48.289074
29.875792 8.219736 58.278362
29.842733 4.741008 56.919456
29.853451 12.473297 42.461185
29.914353 13.265587 57.816713
29.993116 13.401717 56.778379
29.537741 0.652929 52.570861
29.494394 1.035737 51.489955
29.60729 2.417154 52.257938
30.165793 17.414832 49.40582
30.225314 18.97779 49.887008
30.167454 17.418596 50.454664
30.060789 13.755239 53.558403
30.070757 13.877945 52.492323
29.107669 0.301137 44.893889
29.115212 -0.043834 45.911732
29.983213 15.047629 45.564324
29.978755 15.129708 44.767691
30.05511 16.345675 45.249182
29.122747 -3.062715 49.315973
29.195908 -1.335344 48.969196
29.240068 -1.798707 49.996096
29.003518 -4.328734 48.63068
29.122747 -3.062715 49.315973
29.802564 7.88347 59.287437
29.82895 9.770943 58.921554
29.803013 2.990032 57.303522
29.820392 4.552958 57.984893
29.780672 2.801982 58.36896
29.789294 3.258386 56.215183
29.803013 2.990032 57.303522
30.128281 17.587201 45.558651
30.133393 17.578905 46.44843
30.05511 16.345675 45.249182
30.128281 17.587201 45.558651
29.729625 9.863045 42.071466
29.616895 8.287215 42.301542
30.022587 13.407989 55.669622
30.059021 13.53171 54.653761
29.983069 11.677703 56.193439
30.022587 13.407989 55.669622
29.993116 13.401717 56.778379
29.369037 -0.399912 50.726099
29.438586 1.364313 50.413175
29.494394 1.035737 51.489955
29.240068 -1.798707 49.996096
29.369037 -0.399912 50.726099
29.72205 4.283446 60.126513
29.763694 5.956057 59.673422
29.757676 2.554565 59.488169
29.72205 4.283446 60.126513
29.780672 2.801982 58.36896
29.757676 2.554565 59.488169
30.275391 20.553448 49.275042
30.225314 18.97779 49.887008
30.286086 20.559293 48.235832
30.275391 20.553448 49.275042
30.215436 18.93412 47.844605
30.286086 20.559293 48.235832
30.143256 17.486146 47.344915
30.215436 18.93412 47.844605
30.151474 17.526052 48.338476
30.069431 16.170837 46.942301
30.133393 17.578905 46.44843
30.143256 17.486146 47.344915
29.51228 6.639257 42.521806
29.616895 8.287215 42.301542
29.557565 7.733611 43.156875
30.056438 14.088802 51.476005
30.047686 14.204192 50.417404
30.116686 15.740248 51.032077
30.001756 12.34189 51.87765
30.056438 14.088802 51.476005
30.070757 13.877945 52.492323
30.014307 11.907504 53.989325
30.060789 13.755239 53.558403
30.059021 13.53171 54.653761
30.116686 15.740248 51.032077
30.167454 17.418596 50.454664
29.219879 2.128635 44.65588
29.318195 3.809622 44.437132
29.308785 3.381108 45.372961
29.219879 2.128635 44.65588
29.107669 0.301137 44.893889
29.991525 15.402247 44.015451
29.997483 15.465014 43.386778
29.919626 14.104202 44.330593
29.991525 15.402247 44.015451
29.978755 15.129708 44.767691
29.129774 -0.515108 46.910832
29.115212 -0.043834 45.911732
29.225032 1.228848 46.590809
29.049271 -2.193572 47.260414
29.129774 -0.515108 46.910832
29.15909 -0.920889 47.939492
28.962337 -3.934025 47.598886
29.049271 -2.193572 47.260414
28.962337 -3.934025 47.598886
29.003518 -4.328734 48.63068
29.867853 11.496791 58.433472
29.914353 13.265587 57.816713
29.914695 9.945584 57.790279
29.867853 11.496791 58.433472
29.82895 9.770943 58.921554
29.836922 6.292322 58.664347
29.802564 7.88347 59.287437
29.763694 5.956057 59.673422
29.780771 3.572216 55.086994
29.83421 5.054837 55.791267
29.789294 3.258386 56.215183
29.693246 1.905056 54.424877
29.738162 3.701507 54.000961
29.780771 3.572216 55.086994
29.607411 0.456386 53.766789
29.693246 1.905056 54.424877
29.537741 0.652929 52.570861
29.607411 0.456386 53.766789
29.980955 14.879798 42.878691
29.997483 15.465014 43.386778
29.941482 13.928076 42.320107
29.980955 14.879798 42.878691
29.892924 13.425019 43.019769
29.930307 13.053684 41.721254
29.941482 13.928076 42.320107
29.825261 11.408908 41.833754
29.757815 10.927433 42.698898
29.729625 9.863045 42.071466
29.930307 13.053684 41.721254
29.825261 11.408908 41.833754
29.341119 4.3214 43.548595
29.430026 5.573873 44.265676
29.318195 3.809622 44.437132
29.396375 4.945825 42.694102
29.341119 4.3214 43.548595
29.51228 6.639257 42.521806
29.396375 4.945825 42.694102
3 40 10 41
3 0 13 11
3 2 16 14
3 2 42 44
3 44 43 16
3 42 43 44
3 0 45 47
3 45 19 46
3 45 46 47
3 0 11 19
3 1 22 20
3 48 24 49
3 4 25 9
3 4 26 25
3 51 50 27
3 5 52 54
3 52 29 53
3 52 53 54
3 7 30 12
3 7 31 30
3 3 32 23
3 8 33 15
3 8 34 33
3 8 35 34
3 55 36 56
3 57 56 17
3 55 56 57
3 59 58 36
3 60 37 61
3 62 38 63
3 64 63 18
3 62 63 64
3 66 65 38
3 5 67 68
3 5 69 70
3 6 39 28
3 72 71 21
3 73 9 74
3 10 75 77
3 75 9 76
3 75 76 77
3 10 4 9
3 11 12 5
3 13 12 11
3 13 7 12
3 14 15 3
3 16 15 14
3 16 8 15
3 16 17 8
3 78 17 79
3 80 79 16
3 78 79 80
3 82 81 17
3 83 18 84
3 85 18 86
3 88 87 18
3 19 89 90
3 19 91 92
3 19 93 94
3 11 95 97
3 97 96 19
3 95 96 97
3 11 98 100
3 98 5 99
3 98 99 100
3 20 21 6
3 22 21 20
3 22 101 103
3 103 102 21
3 101 102 103
3 104 23 105
3 106 105 0
3 104 105 106
3 24 107 109
3 107 23 108
3 107 108 109
3 24 3 23
3 9 110 112
3 110 24 111
3 110 111 112
3 25 24 9
3 25 3 24
3 25 14 3
3 26 14 25
3 26 2 14
3 113 0 114
3 27 115 117
3 117 116 1
3 115 116 117
3 119 118 27
3 120 28 121
3 29 122 124
3 122 28 123
3 122 123 124
3 29 6 28
3 12 29 5
3 30 29 12
3 30 6 29
3 30 20 6
3 31 20 30
3 31 1 20
3 23 13 0
3 32 13 23
3 32 7 13
3 15 32 3
3 33 32 15
3 33 7 32
3 33 31 7
3 34 31 33
3 34 1 31
3 34 27 1
3 35 27 34
3 35 125 127
3 127 126 27
3 125 126 127
3 17 35 8
3 36 35 17
3 36 128 130
3 130 129 35
3 128 129 130
3 36 131 132
3 134 133 36
3 135 10 136
3 37 137 139
3 137 10 138
3 137 138 139
3 37 4 10
3 18 140 142
3 140 37 141
3 140 141 142
3 38 37 18
3 38 4 37
3 38 26 4
3 143 26 144
3 145 144 38
3 143 144 145
3 146 2 147
3 148 147 26
3 146 147 148
3 149 2 150
3 152 151 2
3 28 153 154
3 39 155 157
3 157 156 28
3 155 156 157
3 39 158 159
3 21 39 6
3 160 39 161
3 162 161 21
3 160 161 162
3 164 163 39
3 165 22 166
3 167 166 1
3 165 166 167
3 168 22 169
3 171 170 22
