ply
format ascii 1.0
element vertex 356
property float x
property float y
property float z
element face 389
property list uchar int vertex_index
end_header
-40.892967 -4.314759 -44.579628
-35.71254 5.955745 -33.671429
-35.62368 12.578288 -43.489056
-38.119534 -16.369896 -53.823238
-39.190456 -2.62526 -53.58268
-39.374805 3.492263 -40.35334
-38.449287 7.455056 -49.990658
-36.782867 -9.115779 -57.746185
-35.585186 -16.464455 -57.098129
-41.366756 -10.273982 -41.831375
-41.099709 -9.827952 -45.705181
-40.303734 -9.312509 -50.098518
-40.325157 -3.343539 -49.076515
-37.71714 2.026229 -32.794827
-39.435688 0.749735 -35.940037
-37.850533 5.252274 -37.116966
-37.1945 10.985902 -47.233059
-36.215275 13.037577 -52.347351
-37.065346 9.107649 -55.223106
-41.075302 -5.427233 -40.516647
-35.81068 9.522044 -38.487129
-39.831398 -15.828982 -50.347713
-38.905758 -9.105255 -54.087238
-37.309132 -2.181242 -57.827549
-40.461449 -1.583443 -38.477871
-40.36562 0.200357 -43.033047
-37.751331 8.238634 -42.008495
-39.123188 5.649806 -45.004761
-39.93689 1.782361 -47.414135
-38.994411 3.045355 -52.323814
-37.452198 3.990263 -56.891773
-35.910645 -5.696893 -59.54026
-35.369129 -9.311517 -59.424595
-41.171169 -7.216521 -43.218262
-41.263306 -9.788437 -43.785225
-41.002464 -6.785673 -45.467327
-40.743034 -6.432964 -47.569061
-40.664776 -3.790097 -46.843323
-36.80022 4.049635 -33.293846
-37.852345 3.643771 -34.963711
-36.9188 5.703595 -35.494644
-35.544605 14.501575 -50.655506
-35.458633 13.948095 -55.00703
-41.280666 -8.330132 -39.068043
-41.091457 -6.063686 -38.526081
-38.608288 -19.793247 -51.74696
-40.472122 -15.701791 -48.329456
-39.826672 -5.885133 -51.826439
-39.673531 -9.29282 -52.168461
-39.11235 -5.688902 -53.922504
-38.146416 -5.523959 -56.077244
-38.335632 -2.36342 -55.773006
-39.443592 2.127249 -38.120739
-40.041492 -0.385984 -37.239525
-40.003685 0.905235 -39.438499
-40.447578 -0.683244 -40.642769
-39.980598 1.806566 -41.617126
-35.817028 10.984971 -40.881687
-36.886391 8.948271 -40.239307
-36.708614 10.580544 -42.867329
-37.869534 9.457439 -48.770527
-38.249348 8.354552 -46.210255
-38.80175 6.758472 -47.526718
-39.592838 3.867786 -46.317577
-39.282852 4.575381 -48.739433
-39.569691 2.260707 -49.878342
-38.782154 5.435423 -51.215832
-36.129929 9.811992 -57.620647
-37.29528 6.738202 -56.199741
-36.29493 7.395437 -58.463852
-36.466637 4.315364 -58.953491
-37.559052 -12.741993 -55.765774
-36.949673 -16.283846 -55.577034
-36.302456 -12.857765 -57.4319
-34.743309 -12.915552 -59.060596
-40.6954 -12.627949 -48.128792
-40.762657 -9.305288 -47.98505
-40.349625 -6.01554 -49.734585
-39.829727 -2.947532 -51.387348
-38.638462 1.549098 -34.373512
-38.687191 3.059661 -36.505051
-38.701275 4.473219 -38.748886
-35.240433 14.158099 -46.117165
-36.531174 11.853601 -45.417568
-36.070374 13.296434 -48.050255
-36.80608 12.002115 -49.800495
-37.398792 10.353299 -51.237289
-37.865173 8.27117 -52.614086
-36.755062 11.147137 -53.875381
-35.856537 12.078882 -56.403164
-41.266014 -7.929244 -41.077808
-41.018883 -4.859139 -42.483898
-35.895779 7.668418 -36.067261
-34.642422 11.446124 -39.112057
-34.497395 13.118017 -41.56234
-33.213245 15.056194 -42.368198
-34.330482 14.684947 -44.262466
-39.058445 -16.023115 -52.157135
-40.115601 -12.561457 -50.335724
-39.429237 -12.543749 -52.248779
-38.583424 -12.80237 -54.007183
-37.988182 -9.08217 -55.884346
-37.152542 -5.579572 -57.810719
-36.105968 -2.086677 -59.729275
-39.988235 -1.46048 -35.287548
-40.489208 -2.762019 -36.488548
-40.83316 -4.230248 -37.573933
-40.820168 -3.380647 -39.501835
-40.766285 -2.514736 -41.642525
-40.686184 -2.01669 -43.85548
-36.960201 7.395923 -37.922604
-37.926498 6.641074 -39.562843
-38.691589 5.791342 -41.280792
-37.547523 9.646242 -44.612942
-38.471794 7.249239 -43.728577
-39.324638 4.502365 -42.638714
-39.814529 2.962544 -43.997623
-40.234257 0.804351 -45.17667
-40.473228 -1.316062 -46.238697
-40.172928 -0.740762 -48.457302
-39.760735 -0.331553 -50.710258
-39.173923 0.227505 -52.978043
-38.087631 6.17526 -53.867886
-38.265671 3.680221 -54.733665
-38.423107 0.614936 -55.221249
-37.424953 0.918329 -57.521038
-36.371826 1.224092 -59.428322
-35.16973 -5.617178 -60.3867
-35.35715 -3.883363 -60.465385
-41.08485 -6.404486 -37.56299
-41.177879 -7.403965 -37.889648
-37.799925 -18.074038 -53.719183
-38.044302 -19.785713 -52.681044
-38.363911 -18.081572 -52.785099
-40.705503 -15.741907 -47.273187
-40.572418 -17.433637 -47.282373
-35.651247 8.946149 -59.185974
-36.212429 8.603715 -58.042249
-35.568747 10.154426 -58.764371
-35.746199 7.521657 -59.512692
-35.651247 8.946149 -59.185974
-34.278301 -11.069989 -60.001812
-35.056219 -11.113535 -59.242595
-34.591211 -9.267971 -60.183811
-33.928377 -13.12604 -59.669306
-34.278301 -11.069989 -60.001812
-41.397108 -11.704363 -41.931297
-41.421876 -11.727246 -40.940848
-41.201794 -11.397384 -44.842436
-41.283592 -11.377626 -43.882458
-41.181507 -9.808194 -44.745203
-41.083769 -11.234057 -45.887194
-41.201794 -11.397384 -44.842436
-40.931183 -9.56662 -46.845116
-40.915243 -10.972725 -47.027128
-41.083769 -11.234057 -45.887194
-38.177801 1.787663 -33.58417
-38.583365 0.748669 -33.339935
-38.122704 0.987234 -32.550593
-35.394204 14.478904 -48.488692
-35.655404 13.727266 -47.08371
-34.979233 14.909737 -47.522147
-35.112583 13.554319 -57.038862
-35.657585 13.013489 -55.705097
-34.913631 14.488926 -56.340795
-35.33178 12.485171 -57.601927
-35.112583 13.554319 -57.038862
-33.987194 12.345664 -39.339168
-34.022046 11.403121 -38.044579
-33.914681 13.181611 -40.56431
-34.569908 12.28207 -40.337198
-33.987194 12.345664 -39.339168
-33.083068 15.860439 -43.703642
-32.470331 15.896201 -42.504862
-33.641687 15.674816 -44.650776
-33.771864 14.87057 -43.315332
-33.083068 15.860439 -43.703642
-34.11474 15.487948 -45.625191
-33.641687 15.674816 -44.650776
-35.912647 -18.22589 -56.108496
-36.59489 -18.135585 -55.347948
-36.267429 -16.37415 -56.337581
-39.641337 -17.621681 -50.212797
-39.987343 -17.454538 -49.309702
-39.444921 -15.926049 -51.252424
-39.25486 -17.718747 -51.117508
-39.641337 -17.621681 -50.212797
-39.711962 -0.355372 -35.613793
-39.655678 -0.945723 -34.639717
-39.379404 0.159384 -34.965961
-35.778534 2.896714 -60.256752
-36.419231 2.769728 -59.190906
-35.82594 4.44235 -60.019337
-35.718387 1.341385 -60.385271
-35.778534 2.896714 -60.256752
-34.898972 -7.424489 -60.328867
-35.639887 -7.504205 -59.482428
-35.16973 -5.617178 -60.3867
-34.591211 -9.267971 -60.183811
-34.898972 -7.424489 -60.328867
-34.861382 15.658509 -51.202454
-35.131319 15.081475 -49.791317
-35.201112 15.042744 -52.081732
-34.861382 15.658509 -51.202454
-35.536447 14.310745 -52.927654
-35.87994 13.769576 -51.501429
-35.201112 15.042744 -52.081732
-35.158126 14.766004 -54.257493
-35.836954 13.492836 -53.677191
-35.536447 14.310745 -52.927654
-34.728424 15.26822 -55.511291
-35.158126 14.766004 -54.257493
-34.913631 14.488926 -56.340795
-34.728424 15.26822 -55.511291
-41.272483 -8.537188 -38.160629
-41.340814 -9.748608 -38.391259
-41.186061 -7.196909 -38.797062
-41.272483 -8.537188 -38.160629
-41.177879 -7.403965 -37.889648
-38.265749 -21.43806 -51.66889
-38.73778 -21.490434 -50.767958
-38.265749 -21.43806 -51.66889
-38.044302 -19.785713 -52.681044
-35.211685 -18.285773 -56.792385
-34.839543 -16.566598 -57.746492
-40.307705 -17.390942 -48.300573
-40.572418 -17.433637 -47.282373
-40.15176 -15.765386 -49.338584
-39.987343 -17.454538 -49.309702
-40.307705 -17.390942 -48.300573
-35.832053 5.98162 -59.757511
-36.380783 5.855401 -58.708672
-35.746199 7.521657 -59.512692
-35.82594 4.44235 -60.019337
-35.832053 5.98162 -59.757511
-34.418604 -14.792147 -58.727725
-34.839543 -16.566598 -57.746492
-35.164248 -14.690003 -58.079363
-34.418604 -14.792147 -58.727725
-33.928377 -13.12604 -59.669306
-41.345383 -11.46159 -42.908222
-41.397108 -11.704363 -41.931297
-41.315031 -10.031209 -42.8083
-41.345383 -11.46159 -42.908222
-41.283592 -11.377626 -43.882458
-40.881614 -12.634056 -47.098999
-40.817143 -14.204987 -47.172855
-40.729028 -10.966618 -48.056921
-40.881614 -12.634056 -47.098999
-40.915243 -10.972725 -47.027128
-38.980791 0.559065 -34.182699
-38.583365 0.748669 -33.339935
-39.037075 1.149417 -35.156774
-39.379404 0.159384 -34.965961
-38.980791 0.559065 -34.182699
-35.80749 13.899005 -49.35288
-35.394204 14.478904 -48.488692
-35.131319 15.081475 -49.791317
-35.468475 11.351726 -58.210668
-35.993233 10.945437 -57.011905
-35.33178 12.485171 -57.601927
-35.568747 10.154426 -58.764371
-35.468475 11.351726 -58.210668
-41.388039 -10.498896 -40.753437
-41.421876 -11.727246 -40.940848
-41.344994 -9.526971 -39.371771
-41.340814 -9.748608 -38.391259
-41.337667 -9.326527 -40.376654
-41.344994 -9.526971 -39.371771
-41.27334 -8.129688 -40.072925
-41.316385 -9.101613 -41.454591
-41.388039 -10.498896 -40.753437
-41.337667 -9.326527 -40.376654
-35.218333 7.726076 -35.081726
-35.804159 6.812081 -34.869345
-35.126713 6.869739 -33.88381
-35.26849 8.641027 -36.294577
-35.218333 7.726076 -35.081726
-35.225941 9.567839 -37.504511
-35.853229 8.595231 -37.277195
-35.26849 8.641027 -36.294577
-34.641812 10.529879 -37.816975
-34.022046 11.403121 -38.044579
-35.226551 10.484084 -38.799593
-35.225941 9.567839 -37.504511
-34.641812 10.529879 -37.816975
-32.608902 14.973197 -41.191153
-32.470331 15.896201 -42.504862
-33.272605 14.150699 -40.967239
-32.608902 14.973197 -41.191153
-33.85532 14.087105 -41.965269
-33.914681 13.181611 -40.56431
-33.272605 14.150699 -40.967239
-34.569716 15.224524 -46.55254
-34.785458 14.421523 -45.189816
-34.11474 15.487948 -45.625191
-34.979233 14.909737 -47.522147
-34.569716 15.224524 -46.55254
-37.214995 -18.031013 -54.596081
-37.799925 -18.074038 -53.719183
-37.534604 -16.326871 -54.700136
-37.214995 -18.031013 -54.596081
-36.59489 -18.135585 -55.347948
-35.912647 -18.22589 -56.108496
-35.211685 -18.285773 -56.792385
-39.029781 -19.603813 -50.91242
-38.73778 -21.490434 -50.767958
-38.833366 -17.908181 -51.952047
-39.029781 -19.603813 -50.91242
-39.25486 -17.718747 -51.117508
-40.583761 -14.16487 -48.229124
-40.705503 -15.741907 -47.273187
-40.817143 -14.204987 -47.172855
-35.454811 -2.078254 -60.559893
-35.35715 -3.883363 -60.465385
-36.008307 -3.891785 -59.634768
-37.57752 1.213187 -31.704589
-38.122704 0.987234 -32.550593
-37.112898 2.185707 -31.904772
-37.57752 1.213187 -31.704589
-36.973278 1.372666 -30.814534
-36.654438 3.197411 -32.154282
-37.25868 3.037932 -33.044337
-37.112898 2.185707 -31.904772
-36.140631 4.116779 -32.353878
-36.654438 3.197411 -32.154282
-35.59679 5.069835 -32.54267
-36.25638 5.00269 -33.482638
-36.140631 4.116779 -32.353878
-35.058293 5.934559 -32.747931
-35.59679 5.069835 -32.54267
-35.126713 6.869739 -33.88381
-35.058293 5.934559 -32.747931
-39.934619 -2.01962 -34.33802
-39.655678 -0.945723 -34.639717
-40.211094 -2.61275 -34.913103
-39.934619 -2.01962 -34.33802
-40.46158 -3.26352 -35.513603
-40.211094 -2.61275 -34.913103
-40.238721 -2.11125 -35.888048
-40.654413 -3.959197 -36.059776
-40.626785 -4.460698 -35.084831
-40.46158 -3.26352 -35.513603
-40.826389 -4.693311 -36.602469
-40.654413 -3.959197 -36.059776
-40.661184 -3.496134 -37.03124
-40.955702 -5.487767 -37.086916
-40.826389 -4.693311 -36.602469
-40.962308 -5.146967 -38.050007
-41.08485 -6.404486 -37.56299
-40.955702 -5.487767 -37.086916
-35.585459 -0.313999 -60.535747
-36.238897 -0.431292 -59.578799
-35.718387 1.341385 -60.385271
-35.454811 -2.078254 -60.559893
-35.585459 -0.313999 -60.535747
3 128 127 31
3 0 35 33
3 0 37 35
3 1 40 38
3 129 44 130
3 3 131 133
3 133 132 45
3 131 132 133
3 134 46 135
3 4 49 47
3 4 51 49
3 5 54 52
3 5 56 54
3 2 59 57
3 6 62 60
3 6 64 62
3 6 66 64
3 136 69 137
3 138 137 67
3 136 137 138
3 140 139 69
3 7 73 71
3 141 74 142
3 143 142 32
3 141 142 143
3 145 144 74
3 9 146 147
3 10 148 150
3 150 149 34
3 148 149 150
3 10 151 152
3 10 153 155
3 153 76 154
3 153 154 155
3 12 77 36
3 12 78 77
3 13 156 158
3 156 79 157
3 156 157 158
3 15 80 39
3 15 81 80
3 159 84 160
3 161 160 82
3 159 160 161
3 17 85 41
3 17 86 85
3 17 88 86
3 162 89 163
3 164 163 42
3 162 163 164
3 166 165 89
3 19 90 43
3 19 91 90
3 167 93 168
3 169 94 170
3 171 170 93
3 169 170 171
3 172 95 173
3 174 96 175
3 176 175 95
3 174 175 176
3 178 177 96
3 8 179 181
3 181 180 72
3 179 180 181
3 21 182 183
3 21 184 186
3 184 97 185
3 184 185 186
3 11 98 75
3 22 99 48
3 22 100 99
3 22 101 100
3 23 102 50
3 23 103 102
3 14 187 189
3 187 104 188
3 187 188 189
3 24 105 53
3 24 106 105
3 24 107 106
3 25 108 55
3 25 109 108
3 20 110 92
3 26 111 58
3 26 112 111
3 16 113 83
3 27 114 61
3 27 115 114
3 27 116 115
3 28 117 63
3 28 118 117
3 28 119 118
3 29 120 65
3 29 121 120
3 18 122 87
3 30 123 68
3 30 124 123
3 30 125 124
3 190 126 191
3 192 191 70
3 190 191 192
3 194 193 126
3 31 32 7
3 195 32 196
3 197 196 31
3 195 196 197
3 199 198 32
3 33 34 9
3 35 34 33
3 35 10 34
3 35 36 10
3 37 36 35
3 37 12 36
3 38 39 13
3 40 39 38
3 40 15 39
3 200 41 201
3 202 41 203
3 204 17 205
3 206 205 41
3 204 205 206
3 207 42 208
3 209 208 17
3 207 208 209
3 210 42 211
3 213 212 42
3 214 43 215
3 44 216 218
3 216 43 217
3 216 217 218
3 44 19 43
3 45 219 220
3 222 221 45
3 224 223 8
3 46 225 226
3 46 227 229
3 227 21 228
3 227 228 229
3 47 48 11
3 49 48 47
3 49 22 48
3 49 50 22
3 51 50 49
3 51 23 50
3 52 53 14
3 54 53 52
3 54 24 53
3 54 55 24
3 56 55 54
3 56 25 55
3 57 58 20
3 59 58 57
3 59 26 58
3 60 61 16
3 62 61 60
3 62 27 61
3 62 63 27
3 64 63 62
3 64 28 63
3 64 65 28
3 66 65 64
3 66 29 65
3 67 68 18
3 69 68 67
3 69 30 68
3 69 70 30
3 230 70 231
3 232 231 69
3 230 231 232
3 234 233 70
3 71 72 3
3 73 72 71
3 73 8 72
3 32 73 7
3 74 73 32
3 74 8 73
3 74 235 237
3 237 236 8
3 235 236 237
3 239 238 74
3 34 240 242
3 242 241 9
3 240 241 242
3 244 243 34
3 245 75 246
3 76 247 249
3 247 75 248
3 247 248 249
3 76 11 75
3 36 76 10
3 77 76 36
3 77 11 76
3 77 47 11
3 78 47 77
3 78 4 47
3 79 250 251
3 79 252 254
3 252 14 253
3 252 253 254
3 39 79 13
3 80 79 39
3 80 14 79
3 80 52 14
3 81 52 80
3 81 5 52
3 82 83 2
3 84 83 82
3 84 16 83
3 41 255 257
3 255 84 256
3 255 256 257
3 85 84 41
3 85 16 84
3 85 60 16
3 86 60 85
3 86 6 60
3 86 87 6
3 88 87 86
3 88 18 87
3 42 88 17
3 89 88 42
3 89 18 88
3 89 67 18
3 258 67 259
3 260 259 89
3 258 259 260
3 262 261 67
3 263 9 264
3 43 265 266
3 90 267 269
3 269 268 43
3 267 268 269
3 90 270 272
3 270 9 271
3 270 271 272
3 90 33 9
3 91 33 90
3 91 0 33
3 273 92 274
3 275 274 1
3 273 274 275
3 276 92 277
3 278 20 279
3 280 279 92
3 278 279 280
3 93 281 282
3 93 283 285
3 283 20 284
3 283 284 285
3 93 57 20
3 94 57 93
3 94 2 57
3 95 286 287
3 95 288 289
3 95 290 292
3 290 94 291
3 290 291 292
3 96 94 95
3 96 2 94
3 96 82 2
3 293 82 294
3 295 294 96
3 293 294 295
3 297 296 82
3 72 298 300
3 300 299 3
3 298 299 300
3 302 301 72
3 304 303 8
3 305 45 306
3 97 307 309
3 307 45 308
3 307 308 309
3 97 3 45
3 75 310 312
3 310 46 311
3 310 311 312
3 98 46 75
3 98 21 46
3 48 98 11
3 99 98 48
3 99 21 98
3 99 97 21
3 100 97 99
3 100 3 97
3 100 71 3
3 101 71 100
3 101 7 71
3 50 101 22
3 102 101 50
3 102 7 101
3 102 31 7
3 103 31 102
3 103 313 315
3 315 314 31
3 313 314 315
3 316 13 317
3 318 13 319
3 318 319 320
3 321 38 322
3 323 322 13
3 321 322 323
3 324 38 325
3 326 1 327
3 328 327 38
3 326 327 328
3 329 1 330
3 332 331 1
3 104 333 334
3 104 335 336
3 53 104 14
3 105 104 53
3 105 337 339
3 339 338 104
3 337 338 339
3 105 340 342
3 340 341 342
3 106 343 345
3 345 344 105
3 343 344 345
3 106 346 347
3 106 348 350
3 348 44 349
3 348 349 350
3 107 44 106
3 107 19 44
3 55 107 24
3 108 107 55
3 108 19 107
3 108 91 19
3 109 91 108
3 109 0 91
3 92 40 1
3 110 40 92
3 110 15 40
3 58 110 20
3 111 110 58
3 111 15 110
3 111 81 15
3 112 81 111
3 112 5 81
3 83 59 2
3 113 59 83
3 113 26 59
3 61 113 16
3 114 113 61
3 114 26 113
3 114 112 26
3 115 112 114
3 115 5 112
3 115 56 5
3 116 56 115
3 116 25 56
3 63 116 27
3 117 116 63
3 117 25 116
3 117 109 25
3 118 109 117
3 118 0 109
3 118 37 0
3 119 37 118
3 119 12 37
3 65 119 28
3 120 119 65
3 120 12 119
3 120 78 12
3 121 78 120
3 121 4 78
3 87 66 6
3 122 66 87
3 122 29 66
3 68 122 18
3 123 122 68
3 123 29 122
3 123 121 29
3 124 121 123
3 124 4 121
3 124 51 4
3 125 51 124
3 125 23 51
3 70 125 30
3 126 125 70
3 126 23 125
3 126 103 23
3 351 103 352
3 353 352 126
3 351 352 353
3 355 354 103
