ply
format ascii 1.0
element vertex 238
property float x
property float y
property float z
element face 238
property list uchar int vertex_index
end_header
-1.79265 -49.455223 53.385555
-8.590484 -52.607704 57.987579
-3.972895 -58.469627 49.106659
2.334969 -55.050747 45.619778
-9.86296 -57.261562 55.214668
-13.574472 -58.954716 56.215363
1.140327 -47.91217 50.65596
0.219585 -52.199047 49.472378
-4.842277 -62.830578 45.80241
-1.584526 -61.135429 44.642342
-5.09106 -51.115215 55.858841
-2.982303 -53.839699 51.789841
-6.229159 -55.61116 53.553707
-7.389727 -60.056969 50.680229
-0.688813 -45.060829 54.453842
-0.618121 -56.726761 47.35984
1.657303 -59.540157 43.228012
-12.918791 -56.619633 57.890633
-14.966809 -57.327236 58.401642
-0.234018 -48.558971 52.041805
0.671358 -49.978146 50.19022
-0.808991 -50.870319 51.404549
-6.878693 -51.769974 57.10767
-5.743324 -53.368862 54.864693
-7.466757 -54.25108 55.755482
-10.554981 -59.596272 53.624821
-8.729846 -58.755337 52.988178
-9.124631 -60.896992 51.292633
-7.942528 -62.329384 48.920181
2.594844 -52.797215 46.583237
3.364355 -56.390553 43.871948
-3.400262 -56.22958 50.405926
-1.817377 -55.327888 49.546383
-2.204402 -57.590469 48.195568
-0.340647 -62.544109 42.325829
0.009629 -60.285374 44.02211
1.193756 -61.639957 41.910305
2.772054 -60.80946 41.348709
-9.244051 -54.940979 56.693916
-11.123599 -55.822922 57.381622
-11.694282 -58.192333 55.719971
2.027622 -49.243725 48.926292
1.533477 -51.296852 48.506935
1.236006 -53.646877 47.542355
-4.395566 -60.681412 47.509483
-2.685172 -59.787037 46.803921
-3.163903 -61.96822 45.218433
-1.958954 -63.391449 42.819084
-3.405618 -50.224274 54.706902
-2.41174 -51.616959 52.71722
-4.088093 -52.482155 53.886738
-4.509974 -54.753338 52.623882
-5.182352 -56.966248 51.482174
-7.983158 -56.580555 54.284721
-6.905667 -57.947392 52.180565
-5.653317 -59.271156 49.909569
-6.142193 -61.508984 48.230862
0.18302 -46.495579 52.590347
-1.252602 -47.182789 54.047043
-2.252099 -45.825802 56.005806
-2.770168 -48.008171 55.375652
-4.432891 -48.753296 56.744503
-6.093893 -49.523712 57.920994
-1.347499 -53.13818 50.57568
-0.272574 -54.466019 48.584198
0.812096 -55.843021 46.603157
-1.063422 -58.846138 46.14082
0.466159 -58.134438 45.320099
1.883126 -57.235317 44.676998
3.090118 -58.486454 42.787697
-15.593065 -56.449834 59.405113
-14.609669 -56.217043 59.151415
-10.035383 -61.316671 51.568669
-9.839806 -60.246632 52.458727
-10.750557 -60.666311 52.734763
-9.409848 -62.062311 50.341276
-10.035383 -61.316671 51.568669
3.009438 -54.619089 45.196697
3.139376 -53.492323 45.678427
2.464907 -53.923981 46.101507
2.849662 -55.72065 44.745863
3.524132 -55.288992 44.322783
3.009438 -54.619089 45.196697
1.058418 -62.758524 41.002411
0.426555 -62.092033 42.118067
0.291216 -63.2106 41.210173
1.806761 -62.280067 40.886541
1.058418 -62.758524 41.002411
-11.779966 -54.987804 58.500063
-10.794999 -54.652943 58.087618
-12.936543 -59.691143 55.135166
-11.996448 -59.309951 54.88747
-12.634377 -58.573524 55.967667
1.583975 -48.577948 49.791126
2.223553 -48.212248 49.130685
1.779905 -47.54647 49.99552
-2.204487 -64.450577 41.928211
-2.800037 -63.758988 43.139427
-1.366176 -64.047062 41.691963
-2.204487 -64.450577 41.928211
-7.299208 -63.005266 47.68901
-8.157163 -63.459156 47.909947
-0.252897 -45.778204 53.522095
0.468127 -45.440655 52.718556
0.032211 -44.72328 53.650303
-2.998921 -46.181135 56.670502
-2.67748 -45.093878 56.900744
-3.424303 -45.449211 57.565439
-3.257956 -47.27232 56.355424
-2.511133 -46.916987 55.690729
-2.998921 -46.181135 56.670502
-4.089317 -47.644882 57.03985
-3.601529 -48.380733 56.060078
-3.257956 -47.27232 56.355424
-6.722081 -48.795489 58.974449
-5.781553 -48.386543 58.328604
-7.003664 -49.895502 58.503963
-6.722081 -48.795489 58.974449
3.50597 -60.297411 41.156103
3.383172 -61.438761 40.388445
-13.58566 -55.863242 58.89591
-12.677562 -55.38616 58.754569
-13.9428 -56.973434 58.146138
-13.58566 -55.863242 58.89591
-14.609669 -56.217043 59.151415
-4.241699 -63.478552 44.63109
-5.090677 -63.949793 44.839191
-8.818796 -62.778508 49.15505
-8.53358 -61.613188 50.106407
-9.409848 -62.062311 50.341276
-8.157163 -63.459156 47.909947
-8.818796 -62.778508 49.15505
-0.343241 -43.959269 54.531503
0.032211 -44.72328 53.650303
3.282228 -52.312199 46.076857
2.776047 -51.719334 46.89228
3.282228 -52.312199 46.076857
3.139376 -53.492323 45.678427
4.039159 -55.900206 43.532042
3.524132 -55.288992 44.322783
3.953843 -56.939614 43.037079
4.039159 -55.900206 43.532042
2.59591 -61.864818 40.605744
1.982905 -61.224709 41.629507
1.806761 -62.280067 40.886541
3.383172 -61.438761 40.388445
2.59591 -61.864818 40.605744
-9.855225 -54.211972 57.743764
-8.917268 -53.774341 57.340747
-9.528442 -53.045334 58.390596
-10.183825 -55.381951 57.037769
-9.855225 -54.211972 57.743764
-10.794999 -54.652943 58.087618
-12.021195 -56.221277 57.636128
-11.779966 -54.987804 58.500063
-12.677562 -55.38616 58.754569
-11.426797 -60.011921 53.839895
-11.124631 -58.894302 54.672396
-11.996448 -59.309951 54.88747
-10.750557 -60.666311 52.734763
-11.426797 -60.011921 53.839895
2.665261 -48.839062 48.312809
2.223553 -48.212248 49.130685
2.492436 -49.942589 48.063808
2.665261 -48.839062 48.312809
2.245363 -50.969152 47.854129
2.492436 -49.942589 48.063808
1.78055 -50.270288 48.716613
2.06416 -52.047033 47.545086
2.776047 -51.719334 46.89228
2.245363 -50.969152 47.854129
-3.402512 -63.047373 44.339101
-4.00309 -62.399399 45.510421
-4.241699 -63.478552 44.63109
-2.561428 -62.679834 44.018758
-3.402512 -63.047373 44.339101
-2.800037 -63.758988 43.139427
-0.557023 -63.623392 41.445335
-1.149801 -62.967779 42.572457
-1.366176 -64.047062 41.691963
0.291216 -63.2106 41.210173
-0.557023 -63.623392 41.445335
-6.39904 -62.595067 47.344351
-7.042361 -61.919184 48.575522
-7.299208 -63.005266 47.68901
-5.749083 -63.255864 46.130125
-5.492235 -62.169781 47.016636
-6.39904 -62.595067 47.344351
-5.090677 -63.949793 44.839191
-5.749083 -63.255864 46.130125
1.344963 -46.834204 50.887799
1.779905 -47.54647 49.99552
0.866309 -46.125908 51.854992
0.468127 -45.440655 52.718556
0.661674 -47.203874 51.623154
1.344963 -46.834204 50.887799
0.866309 -46.125908 51.854992
-1.114907 -44.291151 55.389528
-0.343241 -43.959269 54.531503
-1.89655 -44.673637 56.16551
-2.67748 -45.093878 56.900744
-1.470456 -45.443315 55.229824
-1.114907 -44.291151 55.389528
-1.89655 -44.673637 56.16551
-4.951052 -48.001335 57.740358
-4.089317 -47.644882 57.03985
-5.263392 -49.138504 57.332749
-4.951052 -48.001335 57.740358
-5.781553 -48.386543 58.328604
-7.396064 -51.018633 58.097302
-6.486293 -50.646843 57.514332
-7.003664 -49.895502 58.503963
-8.25196 -51.437498 58.537256
-7.734589 -52.188839 57.547624
-7.396064 -51.018633 58.097302
-9.165343 -51.796795 59.036401
-8.25196 -51.437498 58.537256
-9.528442 -53.045334 58.390596
-9.165343 -51.796795 59.036401
3.816724 -57.987564 42.494953
3.953843 -56.939614 43.037079
3.227237 -57.438503 43.329823
3.665002 -59.135908 41.875597
2.931086 -59.647957 42.068203
3.50597 -60.297411 41.156103
3.816724 -57.987564 42.494953
3.665002 -59.135908 41.875597
-15.894093 -57.670616 58.48824
-15.593065 -56.449834 59.405113
-15.188612 -58.51851 57.438757
-15.894093 -57.670616 58.48824
-14.492443 -59.332251 56.345618
-14.27064 -58.140976 57.308503
-15.188612 -58.51851 57.438757
-13.875939 -60.104664 55.30122
-14.492443 -59.332251 56.345618
-12.936543 -59.691143 55.135166
-13.875939 -60.104664 55.30122
3 70 18 71
3 0 21 19
3 1 24 22
3 72 27 73
3 74 73 25
3 72 73 74
3 76 75 27
3 3 77 79
3 79 78 29
3 77 78 79
3 3 80 82
3 80 30 81
3 80 81 82
3 2 33 31
3 83 36 84
3 85 84 34
3 83 84 85
3 87 86 36
3 88 39 89
3 5 40 17
3 5 90 92
3 92 91 40
3 90 91 92
3 6 93 95
3 93 41 94
3 93 94 95
3 7 42 20
3 7 43 42
3 8 46 44
3 96 47 97
3 99 98 47
3 10 50 48
3 12 51 23
3 12 52 51
3 4 53 38
3 13 54 26
3 13 55 54
3 13 56 55
3 101 100 28
3 14 102 104
3 102 57 103
3 102 103 104
3 14 58 57
3 105 59 106
3 105 106 107
3 108 60 109
3 110 109 59
3 108 109 110
3 111 61 112
3 113 112 60
3 111 112 113
3 114 62 115
3 117 116 62
3 11 63 49
3 15 64 32
3 15 65 64
3 9 66 45
3 16 67 35
3 16 68 67
3 16 69 68
3 119 118 37
3 120 17 121
3 18 122 124
3 122 17 123
3 122 123 124
3 18 5 17
3 19 20 6
3 21 20 19
3 21 7 20
3 126 125 8
3 22 23 10
3 24 23 22
3 24 12 23
3 25 26 4
3 27 26 25
3 27 13 26
3 27 28 13
3 127 28 128
3 129 128 27
3 127 128 129
3 131 130 28
3 132 14 133
3 29 134 135
3 137 136 29
3 30 138 139
3 30 140 141
3 31 32 11
3 33 32 31
3 33 15 32
3 34 35 9
3 36 35 34
3 36 16 35
3 36 37 16
3 142 37 143
3 144 143 36
3 142 143 144
3 146 145 37
3 147 38 148
3 149 148 1
3 147 148 149
3 39 150 152
3 150 38 151
3 150 151 152
3 39 4 38
3 17 153 155
3 153 39 154
3 153 154 155
3 40 39 17
3 40 4 39
3 40 25 4
3 156 25 157
3 158 157 40
3 156 157 158
3 160 159 25
3 41 161 162
3 41 163 164
3 20 41 6
3 42 41 20
3 42 165 167
3 167 166 41
3 165 166 167
3 42 168 170
3 168 29 169
3 168 169 170
3 43 29 42
3 43 3 29
3 44 45 2
3 46 45 44
3 46 9 45
3 171 46 172
3 173 172 8
3 171 172 173
3 47 174 176
3 174 46 175
3 174 175 176
3 47 9 46
3 47 34 9
3 177 34 178
3 179 178 47
3 177 178 179
3 181 180 34
3 48 49 0
3 50 49 48
3 50 11 49
3 23 50 10
3 51 50 23
3 51 11 50
3 51 31 11
3 52 31 51
3 52 2 31
3 38 24 1
3 53 24 38
3 53 12 24
3 26 53 4
3 54 53 26
3 54 12 53
3 54 52 12
3 55 52 54
3 55 2 52
3 55 44 2
3 56 44 55
3 56 8 44
3 28 56 13
3 182 56 183
3 184 183 28
3 182 183 184
3 185 8 186
3 187 186 56
3 185 186 187
3 189 188 8
3 190 6 191
3 57 192 193
3 57 194 196
3 194 6 195
3 194 195 196
3 57 19 6
3 58 19 57
3 58 0 19
3 197 14 198
3 59 199 200
3 59 201 203
3 201 14 202
3 201 202 203
3 59 58 14
3 60 58 59
3 60 0 58
3 60 48 0
3 61 48 60
3 61 10 48
3 204 61 205
3 62 206 208
3 206 61 207
3 206 207 208
3 62 10 61
3 62 22 10
3 209 22 210
3 211 210 62
3 209 210 211
3 212 1 213
3 214 213 22
3 212 213 214
3 215 1 216
3 218 217 1
3 49 21 0
3 63 21 49
3 63 7 21
3 32 63 11
3 64 63 32
3 64 7 63
3 64 43 7
3 65 43 64
3 65 3 43
3 45 33 2
3 66 33 45
3 66 15 33
3 35 66 9
3 67 66 35
3 67 15 66
3 67 65 15
3 68 65 67
3 68 3 65
3 68 30 3
3 69 30 68
3 69 219 221
3 221 220 30
3 219 220 221
3 37 69 16
3 222 69 223
3 224 223 37
3 222 223 224
3 226 225 69
3 227 18 228
3 229 18 230
3 231 5 232
3 233 232 18
3 231 232 233
3 234 5 235
3 237 236 5
