ply
format ascii 1.0
element vertex 149
property float x
property float y
property float z
element face 138
property list uchar int vertex_index
end_header
22.690538 11.117397 69.314201
16.347269 21.786613 65.487411
23.078144 25.951687 65.479103
19.611849 16.401037 67.903076
19.882843 23.780363 66.014908
22.935518 18.247398 67.611557
19.344622 9.728672 69.395401
22.207634 4.489697 70.679359
12.701675 19.468105 64.399826
15.949389 14.743255 67.186768
21.259924 13.789983 68.741028
21.252121 17.47197 67.856232
22.829525 14.752522 68.478378
16.673733 25.301903 64.595306
21.54487 24.793581 65.908195
20.038258 27.543617 64.924324
21.644119 28.576553 64.764389
17.608143 9.039458 69.108253
19.127926 6.401266 70.047722
14.148255 13.869853 66.623169
15.857113 11.428617 67.953186
17.700268 12.351178 68.383644
17.909719 19.25798 66.741318
18.220839 22.746126 65.89238
19.696087 20.062704 66.990952
21.469074 21.180954 66.909958
23.051863 22.069683 66.589699
18.419146 26.366465 64.893539
21.074097 10.437686 69.480988
22.520782 7.805233 70.018372
20.876232 7.115876 70.158897
14.587009 20.503637 65.066559
12.609243 16.118982 65.275185
14.283528 17.127556 65.841286
16.122637 18.245213 66.360069
17.817169 15.678309 67.620224
19.524193 13.074627 68.676422
23.390608 9.649341 69.480255
23.399291 11.420093 69.106887
23.399291 11.420093 69.106887
23.468784 13.237656 68.688976
22.760032 12.93496 68.896289
16.510501 23.544258 65.041359
15.730063 24.776433 64.331894
15.566831 23.018788 64.777946
23.172176 27.878685 64.856792
22.455164 29.191118 64.499436
22.361131 27.26412 65.121746
23.804878 26.240476 65.191105
23.172176 27.878685 64.856792
17.428495 7.456348 69.384552
16.679949 8.683563 68.864582
15.804434 9.878142 68.287048
14.948179 10.992692 67.670524
16.679949 8.683563 68.864582
16.732628 10.234037 68.53072
15.804434 9.878142 68.287048
23.698521 18.640726 67.327626
23.756694 20.551869 66.816697
22.99369 20.158541 67.100628
19.229655 28.939499 64.273953
20.10781 29.436807 64.319905
19.846086 5.108815 70.403412
18.93044 4.847025 70.302646
12.830451 21.146186 63.978735
11.911521 20.550507 63.644131
13.644342 19.985871 64.733193
13.773118 21.663952 64.312101
12.830451 21.146186 63.978735
12.470363 14.510355 65.6255
11.641246 15.615939 64.889847
23.00455 4.640169 70.528496
23.161124 6.297937 70.198002
22.364208 6.147465 70.348866
23.572803 15.047188 68.244454
23.625799 16.794626 67.811043
22.882521 16.49996 68.044968
23.572803 15.047188 68.244454
23.468784 13.237656 68.688976
15.852223 26.488451 63.850904
15.730063 24.776433 64.331894
16.746813 27.133779 64.046381
15.852223 26.488451 63.850904
20.91074 29.953274 64.239937
20.10781 29.436807 64.319905
20.841189 28.060085 64.844357
21.755744 30.44986 64.142851
20.91074 29.953274 64.239937
21.755744 30.44986 64.142851
22.455164 29.191118 64.499436
18.188387 6.137252 69.854287
18.368035 7.720362 69.577988
17.428495 7.456348 69.384552
18.93044 4.847025 70.302646
18.188387 6.137252 69.854287
11.774183 18.877378 64.058168
11.911521 20.550507 63.644131
14.09375 12.21331 67.005516
13.23987 13.385791 66.299492
15.002684 12.649235 67.288178
14.09375 12.21331 67.005516
14.948179 10.992692 67.670524
22.862536 3.05871 70.837025
22.079789 2.772967 70.984329
23.742854 22.518802 66.291473
23.755995 24.459805 65.736176
23.065004 24.010685 66.034401
23.742854 22.518802 66.291473
23.756694 20.551869 66.816697
23.698521 18.640726 67.327626
23.625799 16.794626 67.811043
17.61952 27.666061 64.195498
16.746813 27.133779 64.046381
17.546439 25.834184 64.744422
18.420099 28.350923 64.25856
19.228702 26.955041 64.908931
19.229655 28.939499 64.273953
17.61952 27.666061 64.195498
18.420099 28.350923 64.25856
23.804878 26.240476 65.191105
23.755995 24.459805 65.736176
20.720239 5.46612 70.459
20.002079 6.758571 70.103309
19.846086 5.108815 70.403412
21.385939 4.15303 70.719231
21.541933 5.802786 70.419128
20.720239 5.46612 70.459
22.079789 2.772967 70.984329
21.385939 4.15303 70.719231
14.686701 22.3773 64.56752
13.773118 21.663952 64.312101
15.467139 21.145125 65.276985
15.566831 23.018788 64.777946
14.686701 22.3773 64.56752
11.727967 17.202817 64.495848
11.641246 15.615939 64.889847
12.655459 17.793543 64.837505
11.774183 18.877378 64.058168
11.727967 17.202817 64.495848
13.378749 14.994418 65.949177
12.470363 14.510355 65.6255
13.23987 13.385791 66.299492
23.305729 7.993259 69.832341
23.390608 9.649341 69.480255
22.60566 9.461315 69.666286
23.305729 7.993259 69.832341
23.161124 6.297937 70.198002
23.00455 4.640169 70.528496
22.862536 3.05871 70.837025
3 0 37 38
3 0 12 10
3 0 39 41
3 41 40 12
3 39 40 41
3 1 42 44
3 42 13 43
3 42 43 44
3 2 16 14
3 2 45 47
3 47 46 16
3 45 46 47
3 2 48 49
3 51 50 17
3 52 20 53
3 54 17 55
3 56 55 20
3 54 55 56
3 3 24 22
3 5 25 11
3 5 26 25
3 5 57 59
3 59 58 26
3 57 58 59
3 4 27 23
3 61 60 15
3 6 30 28
3 63 62 18
3 8 64 65
3 8 66 68
3 66 31 67
3 66 67 68
3 69 32 70
3 9 33 19
3 9 34 33
3 9 35 34
3 6 36 21
3 6 28 36
3 7 71 73
3 73 72 29
3 71 72 73
3 10 11 3
3 12 11 10
3 12 5 11
3 12 74 76
3 76 75 5
3 74 75 76
3 78 77 12
3 13 79 80
3 13 81 82
3 14 15 4
3 16 15 14
3 16 83 85
3 85 84 15
3 83 84 85
3 16 86 87
3 89 88 16
3 17 18 6
3 90 18 91
3 92 91 17
3 90 91 92
3 94 93 18
3 95 8 96
3 97 19 98
3 20 99 101
3 99 19 100
3 99 100 101
3 20 9 19
3 20 21 9
3 17 21 20
3 17 6 21
3 103 102 7
3 22 23 1
3 24 23 22
3 24 4 23
3 11 24 3
3 25 24 11
3 25 4 24
3 25 14 4
3 26 14 25
3 26 2 14
3 26 104 106
3 106 105 2
3 104 105 106
3 108 107 26
3 110 109 5
3 23 13 1
3 27 13 23
3 27 111 113
3 113 112 13
3 111 112 113
3 15 27 4
3 114 27 115
3 116 115 15
3 114 115 116
3 118 117 27
3 120 119 2
3 28 29 0
3 30 29 28
3 30 7 29
3 18 30 6
3 121 30 122
3 123 122 18
3 121 122 123
3 124 7 125
3 126 125 30
3 124 125 126
3 128 127 7
3 31 129 130
3 31 131 133
3 131 1 132
3 131 132 133
3 32 134 135
3 32 136 138
3 136 8 137
3 136 137 138
3 19 139 141
3 139 32 140
3 139 140 141
3 33 32 19
3 33 8 32
3 33 31 8
3 34 31 33
3 34 1 31
3 34 22 1
3 35 22 34
3 35 3 22
3 21 35 9
3 36 35 21
3 36 3 35
3 36 10 3
3 28 10 36
3 28 0 10
3 29 142 144
3 144 143 0
3 142 143 144
3 146 145 29
3 148 147 7
