ply
format ascii 1.0
element vertex 145
property float x
property float y
property float z
element face 122
property list uchar int vertex_index
end_header
13.501556 38.421734 -31.474936
14.797931 28.089905 -25.86307
12.51213 43.311134 -34.526249
12.694709 41.893986 -39.316936
14.157102 33.422016 -28.408224
12.545908 44.287266 -30.171745
13.097261 39.026192 -27.194925
13.051982 40.908585 -33.058899
13.222508 40.48901 -35.315857
13.745407 38.281487 -33.750843
14.47219 30.733225 -27.043129
15.005258 30.74239 -29.151543
11.909719 45.354458 -36.201923
11.863657 44.54018 -38.366383
12.605894 42.55164 -36.827606
13.473065 39.925804 -37.71941
13.881401 35.831997 -29.9254
14.265712 35.725758 -32.272511
14.674098 33.170597 -30.636385
11.755322 43.836269 -40.760864
14.708333 35.613155 -34.691128
12.53229 43.677353 -32.297432
12.941226 41.205299 -30.805103
12.838402 41.797192 -28.66954
13.247703 38.849426 -29.310736
13.505356 36.31636 -27.752357
13.763568 33.635963 -26.409342
15.092428 28.171351 -26.907291
14.929557 29.493011 -27.49732
14.63506 29.411565 -26.4531
13.793031 38.900932 -36.942602
13.347786 40.207407 -36.517634
13.667753 39.182535 -35.740825
13.940654 38.835583 -38.216688
13.793031 38.900932 -36.942602
15.328311 30.790578 -30.355266
15.521069 29.576004 -29.60104
14.938302 34.47326 -33.865095
14.487023 35.669456 -33.48182
14.716992 34.529562 -32.655787
12.539099 43.982309 -31.234589
12.345301 45.252985 -32.030779
12.35211 45.557941 -30.967936
12.967831 40.411692 -27.932233
12.840616 42.027562 -27.700054
12.970046 40.642061 -26.962747
13.623343 33.658418 -25.401126
13.531142 35.009035 -26.080245
13.885148 32.243877 -25.72342
13.623343 33.658418 -25.401126
13.929202 38.078773 -34.958319
13.667753 39.182535 -35.740825
13.483957 39.385249 -34.53335
15.196091 29.497593 -28.551527
14.738724 30.737808 -28.097336
14.929557 29.493011 -27.49732
15.521069 29.576004 -29.60104
15.196091 29.497593 -28.551527
12.687127 41.694615 -40.516832
13.145992 40.797886 -39.774843
12.444002 45.977087 -29.947169
12.35211 45.557941 -30.967936
13.065398 39.16618 -26.194589
12.970046 40.642061 -26.962747
12.938183 40.782049 -25.96241
13.197989 37.704149 -26.473036
13.065398 39.16618 -26.194589
15.246703 26.96189 -26.254058
14.907489 26.934153 -25.240931
11.886688 44.947319 -37.284153
11.529642 45.942115 -38.037876
11.552673 46.349255 -36.955647
13.53517 39.813795 -38.97608
13.145992 40.797886 -39.774843
13.083887 40.909895 -38.518173
13.53517 39.813795 -38.97608
13.940654 38.835583 -38.216688
14.921185 33.251981 -31.837724
14.716992 34.529562 -32.655787
14.469905 34.448177 -31.454448
15.162731 32.004682 -31.097687
14.839678 31.956494 -29.893964
15.328311 30.790578 -30.355266
14.921185 33.251981 -31.837724
15.162731 32.004682 -31.097687
15.092428 28.171351 -26.907291
15.246703 26.96189 -26.254058
11.440513 45.369545 -39.212248
11.529642 45.942115 -38.037876
11.386346 45.017589 -40.409488
11.440513 45.369545 -39.212248
11.809489 44.188225 -39.563623
11.254939 44.622974 -41.535822
11.386346 45.017589 -40.409488
12.217433 42.665756 -41.238796
12.225015 42.865127 -40.0389
12.687127 41.694615 -40.516832
11.722889 43.434099 -41.945479
12.217433 42.665756 -41.238796
11.254939 44.622974 -41.535822
11.722889 43.434099 -41.945479
14.410666 36.744608 -35.428461
13.929202 38.078773 -34.958319
14.22687 36.947321 -34.220985
15.213683 34.545122 -35.135052
14.938302 34.47326 -33.865095
14.94924 35.589449 -36.026255
15.213683 34.545122 -35.135052
14.410666 36.744608 -35.428461
14.94924 35.589449 -36.026255
11.662323 46.804653 -35.90353
11.552673 46.349255 -36.955647
11.960236 45.737026 -35.095343
11.662323 46.804653 -35.90353
12.261442 44.715364 -34.257506
12.210925 44.332796 -35.364086
11.960236 45.737026 -35.095343
12.271521 44.898474 -33.143097
12.345301 45.252985 -32.030779
12.52221 43.494243 -33.41184
12.261442 44.715364 -34.257506
12.271521 44.898474 -33.143097
12.576799 44.658905 -29.247009
12.444002 45.977087 -29.947169
12.723046 43.413868 -28.495907
12.840616 42.027562 -27.700054
12.692155 43.042229 -29.420642
12.576799 44.658905 -29.247009
12.723046 43.413868 -28.495907
13.402037 36.349233 -26.751753
13.301309 37.671276 -27.473641
13.197989 37.704149 -26.473036
13.634462 34.976162 -27.080849
13.402037 36.349233 -26.751753
13.531142 35.009035 -26.080245
14.239459 30.792508 -26.040313
14.117879 32.184594 -26.726236
13.885148 32.243877 -25.72342
14.40233 29.470848 -25.450284
14.63506 29.411565 -26.4531
14.239459 30.792508 -26.040313
14.51831 28.197007 -24.879824
14.40233 29.470848 -25.450284
14.907489 26.934153 -25.240931
14.51831 28.197007 -24.879824
3 0 9 7
3 1 27 29
3 29 28 10
3 27 28 29
3 2 14 12
3 30 15 31
3 32 31 8
3 30 31 32
3 34 33 15
3 4 18 16
3 36 35 11
3 3 19 13
3 37 20 38
3 39 38 17
3 37 38 39
3 5 40 42
3 40 21 41
3 40 41 42
3 5 22 21
3 6 43 45
3 43 23 44
3 43 44 45
3 6 24 23
3 6 25 24
3 46 26 47
3 49 48 26
3 7 8 2
3 9 8 7
3 9 50 52
3 52 51 8
3 50 51 52
3 10 11 4
3 53 11 54
3 55 54 10
3 53 54 55
3 57 56 11
3 59 58 3
3 60 5 61
3 62 6 63
3 62 63 64
3 66 65 6
3 68 67 1
3 12 69 71
3 69 13 70
3 69 70 71
3 14 13 12
3 14 3 13
3 8 14 2
3 15 14 8
3 15 3 14
3 15 72 74
3 74 73 3
3 72 73 74
3 76 75 15
3 16 17 0
3 18 17 16
3 18 77 79
3 79 78 17
3 77 78 79
3 11 18 4
3 80 18 81
3 82 81 11
3 80 81 82
3 84 83 18
3 86 85 1
3 13 87 88
3 19 89 91
3 91 90 13
3 89 90 91
3 19 92 93
3 94 19 95
3 96 95 3
3 94 95 96
3 97 19 98
3 100 99 19
3 17 9 0
3 20 9 17
3 20 101 103
3 103 102 9
3 101 102 103
3 104 20 105
3 106 20 107
3 109 108 20
3 110 12 111
3 112 12 113
3 114 2 115
3 116 115 12
3 114 115 116
3 21 117 118
3 21 119 121
3 119 2 120
3 119 120 121
3 21 7 2
3 22 7 21
3 22 0 7
3 122 5 123
3 23 124 125
3 23 126 128
3 126 5 127
3 126 127 128
3 23 22 5
3 24 22 23
3 24 0 22
3 24 16 0
3 25 16 24
3 25 4 16
3 129 25 130
3 131 130 6
3 129 130 131
3 26 132 134
3 132 25 133
3 132 133 134
3 26 4 25
3 26 10 4
3 135 10 136
3 137 136 26
3 135 136 137
3 138 1 139
3 140 139 10
3 138 139 140
3 141 1 142
3 144 143 1
