ply
format ascii 1.0
element vertex 295
property float x
property float y
property float z
element face 304
property list uchar int vertex_index
end_header
35.251774 74.728706 -29.485252
35.545082 47.15015 -39.475239
32.001419 89.708946 -25.27212
31.607412 83.952881 -37.061638
37.730816 56.991535 -31.88072
34.398579 66.808807 -39.205219
36.657757 66.092178 -30.737013
38.014523 60.375942 -26.90686
36.687061 69.010109 -25.347551
33.679958 79.489433 -33.351173
33.143242 75.788567 -38.430576
35.054012 71.127975 -34.803547
36.178795 62.327629 -35.637371
33.503757 51.229603 -42.696972
30.814995 44.391586 -45.072807
33.287678 41.019852 -42.080727
33.677296 82.797043 -27.553072
35.20657 76.87793 -23.473619
33.604973 84.124329 -21.292713
31.947773 87.476837 -31.479958
36.515285 70.676376 -19.415249
32.144554 70.433952 -42.731743
33.12397 60.763588 -42.924797
35.225212 57.209541 -39.582165
36.937683 52.896965 -36.164242
35.98859 70.364426 -30.241577
36.744541 67.438286 -28.197266
36.032642 71.723618 -27.423742
34.508133 77.079956 -31.546761
34.364853 75.477341 -34.20475
35.182793 73.091354 -32.31126
35.860332 68.717712 -32.906887
34.594498 49.269203 -41.078224
33.502506 46.117702 -42.404476
34.49271 44.131592 -40.908718
32.858891 86.352684 -26.534008
33.652386 83.651932 -24.466658
32.831413 87.102814 -23.143023
31.137665 91.921402 -27.051855
31.024529 90.875404 -30.391237
31.983112 88.796631 -28.485193
32.875526 85.102722 -29.745951
30.462154 39.244732 -44.667431
38.118553 52.598324 -32.232391
35.079475 77.589317 -20.325422
35.910515 73.657623 -21.533669
35.692108 74.595032 -18.485397
33.797474 71.264023 -38.982922
32.706898 73.172417 -40.78112
33.309353 68.588928 -41.114609
32.703964 65.683716 -42.885899
33.890446 63.688347 -41.172451
34.221581 59.052189 -41.300606
34.84066 61.943539 -39.546837
36.957729 59.846523 -33.8386
36.641998 57.445164 -35.928757
37.414169 55.164314 -34.056297
37.685104 50.711281 -34.404972
36.435947 45.65023 -37.807835
35.487514 42.451775 -39.256317
31.16045 92.698212 -23.636724
37.252731 61.46109 -31.396265
37.963135 58.623947 -29.369631
37.386333 63.090336 -28.881775
37.367191 64.879997 -26.134258
32.681923 81.992996 -35.190109
32.458221 79.849731 -37.76992
33.453663 77.887779 -35.93898
34.126347 73.585579 -36.683132
34.817635 69.180954 -36.957321
35.321682 64.503387 -37.514629
35.674328 66.62825 -35.293503
36.500786 64.280174 -33.22192
32.315887 52.643478 -44.210903
32.318535 47.643089 -43.920433
32.072376 42.59103 -43.636356
34.469872 78.879616 -28.709417
35.23978 76.041801 -26.611242
34.461525 79.910599 -25.738579
34.436264 80.480591 -22.52887
31.838337 85.816696 -34.387901
32.828926 83.655945 -32.527763
33.738804 81.160744 -30.611113
35.945286 73.081223 -24.66501
36.615986 70.045616 -22.4195
32.069187 77.40097 -40.243378
33.352173 56.28949 -42.890327
34.42284 54.363033 -41.322582
35.463936 52.38184 -39.567337
35.780922 59.815563 -37.750633
36.156891 55.028019 -37.821484
36.325054 50.438694 -37.937187
37.171982 48.440914 -36.148109
29.521318 37.316807 -45.087416
30.207357 36.619535 -44.408609
38.069013 55.593712 -30.914428
38.262882 53.397106 -31.090263
37.924684 54.794929 -32.056556
35.292026 76.372448 -17.817887
35.385791 76.092174 -19.405409
34.98571 77.86959 -18.737899
31.476368 82.816006 -38.239965
30.970202 84.836888 -37.95501
36.430343 43.313192 -37.674574
36.847642 44.825907 -36.960144
31.162668 92.882271 -21.935164
30.694693 94.105728 -22.907926
30.694693 94.105728 -22.907926
30.683768 93.758129 -24.697978
37.011555 67.508461 -24.326636
37.351619 65.443405 -24.719989
37.027126 66.945053 -25.740904
32.509202 39.202269 -42.625603
31.901551 39.987858 -43.403418
32.680027 41.805441 -42.858542
34.923288 40.844532 -39.858418
35.449693 40.213864 -39.011975
33.943819 82.634591 -20.325341
34.359465 80.812722 -20.94342
34.020618 82.30246 -21.910792
31.418554 88.508651 -32.389973
30.956932 90.207935 -31.845613
31.486151 89.17612 -30.935598
31.893055 86.646766 -32.933929
31.363836 87.678581 -33.843944
31.418554 88.508651 -32.389973
30.108604 45.046558 -45.732687
30.885734 46.818863 -45.244724
38.301071 58.009029 -27.211585
38.275378 57.133032 -28.442971
37.988829 59.499944 -28.138246
36.882528 68.779495 -19.935105
36.932879 68.464115 -21.43723
36.565635 70.360996 -20.917375
31.869042 72.642334 -42.502893
32.150215 74.011567 -41.527582
32.425726 71.803185 -41.756432
31.532965 71.29565 -43.415203
31.869042 72.642334 -42.502893
31.778104 68.944641 -43.580715
31.532965 71.29565 -43.415203
32.512389 61.7255 -43.675523
32.302386 64.185564 -43.656075
32.913967 63.223652 -42.905348
32.626585 59.280043 -43.68478
32.512389 61.7255 -43.675523
33.238072 58.526539 -42.907562
32.740686 57.042994 -43.667545
32.626585 59.280043 -43.68478
37.80829 48.483875 -34.400465
38.018337 49.615965 -33.522638
31.081097 91.398403 -28.721546
30.584691 92.340351 -29.736535
30.641259 92.86335 -28.066844
29.769445 40.063547 -45.350876
29.945866 42.636974 -45.553564
30.638575 41.818159 -44.870119
29.769445 40.063547 -45.350876
29.521318 37.316807 -45.087416
38.415701 51.263416 -31.387738
38.235062 50.559486 -32.436348
38.415701 51.263416 -31.387738
38.262882 53.397106 -31.090263
38.330282 58.71109 -26.012761
38.036776 60.930395 -25.522205
38.235062 50.559486 -32.436348
38.018337 49.615965 -33.522638
37.901829 51.654803 -33.318681
35.956127 41.713965 -38.398815
35.961731 44.051002 -38.532076
36.430343 43.313192 -37.674574
35.449693 40.213864 -39.011975
35.956127 41.713965 -38.398815
31.599234 91.40804 -22.684388
32.019718 89.913407 -23.502086
31.580934 91.203579 -24.454422
31.599234 91.40804 -22.684388
31.162668 92.882271 -21.935164
30.672375 93.369725 -26.405544
30.641259 92.86335 -28.066844
31.149057 92.309807 -25.34429
30.672375 93.369725 -26.405544
30.683768 93.758129 -24.697978
37.71311 63.182423 -25.135904
38.036776 60.930395 -25.522205
37.690857 62.62797 -26.520559
37.71311 63.182423 -25.135904
37.351619 65.443405 -24.719989
31.63618 50.944809 -44.813772
31.655421 53.508911 -44.932528
31.637504 48.444615 -44.668537
31.63618 50.944809 -44.813772
32.317211 50.143284 -44.065668
31.566765 46.017337 -44.49662
30.885734 46.818863 -45.244724
31.637504 48.444615 -44.668537
31.09644 38.314709 -43.918955
31.267265 40.917881 -44.151893
31.901551 39.987858 -43.403418
30.207357 36.619535 -44.408609
31.09644 38.314709 -43.918955
34.425886 41.68444 -40.684618
34.990112 43.291683 -40.082518
34.923288 40.844532 -39.858418
33.82337 40.12857 -41.270623
33.890194 42.575722 -41.494723
34.425886 41.68444 -40.684618
33.088875 38.589067 -41.896215
33.82337 40.12857 -41.270623
32.509202 39.202269 -42.625603
33.088875 38.589067 -41.896215
34.68107 79.367085 -19.841696
34.757869 79.034954 -21.427146
34.359465 80.812722 -20.94342
34.98571 77.86959 -18.737899
34.68107 79.367085 -19.841696
32.434715 88.610341 -22.437537
32.416416 88.40588 -24.207572
32.019718 89.913407 -23.502086
32.797596 87.310005 -21.476868
32.434715 88.610341 -22.437537
33.184376 85.820763 -20.551713
33.218193 85.613572 -22.217868
32.797596 87.310005 -21.476868
33.551855 84.272358 -19.640108
33.184376 85.820763 -20.551713
33.943819 82.634591 -20.325341
33.551855 84.272358 -19.640108
31.153954 85.84528 -36.602297
30.970202 84.836888 -37.95501
30.454729 91.860096 -31.279942
30.584691 92.340351 -29.736535
30.454729 91.860096 -31.279942
30.956932 90.207935 -31.845613
31.269416 86.777187 -35.265428
31.363836 87.678581 -33.843944
31.722874 84.884788 -35.72477
31.153954 85.84528 -36.602297
31.269416 86.777187 -35.265428
30.108604 45.046558 -45.732687
29.945866 42.636974 -45.553564
38.185173 56.409918 -29.658883
38.069013 55.593712 -30.914428
37.846975 57.807741 -30.625175
38.185173 56.409918 -29.658883
38.275378 57.133032 -28.442971
38.301071 58.009029 -27.211585
38.330282 58.71109 -26.012761
36.976017 68.026214 -22.86261
37.011555 67.508461 -24.326636
36.651523 69.527862 -23.883525
36.976017 68.026214 -22.86261
36.932879 68.464115 -21.43723
35.603628 74.72958 -16.791495
35.292026 76.372448 -17.817887
36.025413 72.83302 -17.398593
35.603628 74.72958 -16.791495
36.437002 70.873692 -17.863519
36.103696 72.635704 -18.950323
36.025413 72.83302 -17.398593
36.83835 68.961159 -18.492318
36.437002 70.873692 -17.863519
36.882528 68.779495 -19.935105
36.83835 68.961159 -18.492318
31.901773 80.764431 -38.594106
31.476368 82.816006 -38.239965
32.032817 81.901306 -37.415779
31.707256 79.540051 -39.830835
31.901773 80.764431 -38.594106
32.263704 78.62535 -39.006649
31.442703 78.370705 -40.993592
31.707256 79.540051 -39.830835
31.831359 76.125843 -41.258711
32.388042 75.286693 -40.512249
32.150215 74.011567 -41.527582
31.442703 78.370705 -40.993592
31.831359 76.125843 -41.258711
32.057809 66.569523 -43.657793
31.778104 68.944641 -43.580715
32.424259 68.058834 -42.808821
32.057809 66.569523 -43.657793
32.302386 64.185564 -43.656075
32.222544 55.219988 -44.327833
31.655421 53.508911 -44.932528
32.83403 54.466484 -43.550615
32.222544 55.219988 -44.327833
32.740686 57.042994 -43.667545
37.21566 46.221249 -36.130281
36.847642 44.825907 -36.960144
36.803964 47.045572 -36.977972
37.55173 47.348692 -35.272033
37.428543 49.576098 -35.27654
37.80829 48.483875 -34.400465
37.21566 46.221249 -36.130281
37.55173 47.348692 -35.272033
3 0 27 25
3 0 30 28
3 0 25 30
3 1 34 32
3 2 37 35
3 2 40 38
3 2 35 40
3 94 93 42
3 4 95 97
3 97 96 43
3 95 96 97
3 98 46 99
3 100 99 44
3 98 99 100
3 3 101 102
3 5 49 47
3 5 51 49
3 5 53 51
3 4 56 54
3 4 43 56
3 104 103 58
3 106 105 60
3 107 60 108
3 6 63 61
3 8 64 26
3 8 109 111
3 111 110 64
3 109 110 111
3 9 67 65
3 11 68 29
3 11 69 68
3 11 71 69
3 6 72 31
3 6 61 72
3 13 74 73
3 15 75 33
3 15 112 114
3 114 113 75
3 112 113 114
3 116 115 59
3 16 78 76
3 18 79 36
3 18 117 119
3 119 118 79
3 117 118 119
3 19 120 122
3 122 121 39
3 120 121 122
3 19 123 125
3 123 80 124
3 123 124 125
3 19 81 80
3 16 82 41
3 16 76 82
3 14 126 127
3 7 128 130
3 130 129 62
3 128 129 130
3 17 83 77
3 20 84 45
3 20 131 133
3 133 132 84
3 131 132 133
3 10 85 66
3 21 134 136
3 136 135 48
3 134 135 136
3 21 137 138
3 21 139 140
3 22 141 143
3 143 142 50
3 141 142 143
3 22 144 145
3 22 146 148
3 146 86 147
3 146 147 148
3 23 87 52
3 23 88 87
3 12 89 70
3 24 90 55
3 24 91 90
3 24 92 91
3 150 149 57
3 25 26 6
3 27 26 25
3 27 8 26
3 28 29 9
3 30 29 28
3 30 11 29
3 30 31 11
3 25 31 30
3 25 6 31
3 32 33 13
3 34 33 32
3 34 15 33
3 35 36 16
3 37 36 35
3 37 18 36
3 38 151 153
3 151 39 152
3 151 152 153
3 40 39 38
3 40 19 39
3 40 41 19
3 35 41 40
3 35 16 41
3 42 154 156
3 156 155 14
3 154 155 156
3 158 157 42
3 43 159 160
3 162 161 43
3 164 163 7
3 44 45 17
3 46 45 44
3 46 20 45
3 47 48 10
3 49 48 47
3 49 21 48
3 49 50 21
3 51 50 49
3 51 22 50
3 51 52 22
3 53 52 51
3 53 23 52
3 54 55 12
3 56 55 54
3 56 24 55
3 56 57 24
3 43 57 56
3 43 165 167
3 167 166 57
3 165 166 167
3 58 59 1
3 168 59 169
3 170 169 58
3 168 169 170
3 172 171 59
3 60 173 175
3 175 174 2
3 173 174 175
3 177 176 60
3 178 38 179
3 60 180 182
3 180 38 181
3 180 181 182
3 60 2 38
3 61 62 4
3 63 62 61
3 63 7 62
3 26 63 6
3 64 63 26
3 64 7 63
3 64 183 185
3 185 184 7
3 183 184 185
3 187 186 64
3 65 66 3
3 67 66 65
3 67 10 66
3 29 67 9
3 68 67 29
3 68 10 67
3 68 47 10
3 69 47 68
3 69 5 47
3 69 70 5
3 71 70 69
3 71 12 70
3 31 71 11
3 72 71 31
3 72 12 71
3 72 54 12
3 61 54 72
3 61 4 54
3 73 188 189
3 74 190 192
3 192 191 73
3 190 191 192
3 74 193 195
3 193 14 194
3 193 194 195
3 33 74 13
3 75 74 33
3 75 14 74
3 75 42 14
3 196 42 197
3 198 197 75
3 196 197 198
3 200 199 42
3 59 34 1
3 201 34 202
3 203 202 59
3 201 202 203
3 204 15 205
3 206 205 34
3 204 205 206
3 207 15 208
3 210 209 15
3 76 77 0
3 78 77 76
3 78 17 77
3 36 78 16
3 79 78 36
3 79 17 78
3 79 44 17
3 211 44 212
3 213 212 79
3 211 212 213
3 215 214 44
3 216 37 217
3 218 217 2
3 216 217 218
3 219 37 220
3 221 18 222
3 223 222 37
3 221 222 223
3 224 18 225
3 227 226 18
3 228 3 229
3 39 230 231
3 233 232 39
3 80 234 235
3 80 236 238
3 236 3 237
3 236 237 238
3 80 65 3
3 81 65 80
3 81 9 65
3 41 81 19
3 82 81 41
3 82 9 81
3 82 28 9
3 76 28 82
3 76 0 28
3 240 239 14
3 62 241 243
3 243 242 4
3 241 242 243
3 245 244 62
3 247 246 7
3 77 27 0
3 83 27 77
3 83 8 27
3 45 83 17
3 84 83 45
3 84 8 83
3 84 248 250
3 250 249 8
3 248 249 250
3 252 251 84
3 253 46 254
3 255 46 256
3 257 20 258
3 259 258 46
3 257 258 259
3 260 20 261
3 263 262 20
3 66 264 266
3 266 265 3
3 264 265 266
3 85 267 269
3 269 268 66
3 267 268 269
3 85 270 271
3 48 85 10
3 272 85 273
3 274 273 48
3 272 273 274
3 276 275 85
3 50 277 279
3 279 278 21
3 277 278 279
3 281 280 50
3 282 73 283
3 86 284 286
3 284 73 285
3 284 285 286
3 86 13 73
3 52 86 22
3 87 86 52
3 87 13 86
3 87 32 13
3 88 32 87
3 88 1 32
3 70 53 5
3 89 53 70
3 89 23 53
3 55 89 12
3 90 89 55
3 90 23 89
3 90 88 23
3 91 88 90
3 91 1 88
3 91 58 1
3 92 58 91
3 92 287 289
3 289 288 58
3 287 288 289
3 57 92 24
3 290 92 291
3 292 291 57
3 290 291 292
3 294 293 92
