ply
format ascii 1.0
element vertex 102
property float x
property float y
property float z
element face 86
property list uchar int vertex_index
end_header
-20.539133 -10.894854 72.782089
-16.908451 -2.126976 70.889046
-17.122347 -7.184711 71.491486
-20.595495 -5.634793 72.360458
-23.80022 -9.166245 72.989555
-16.731224 -11.989992 71.661575
-18.857565 -3.74741 71.726082
-20.408094 -2.632603 71.973595
-22.170963 -4.603775 72.478485
-18.881853 -9.128805 72.237694
-17.013784 -9.636195 71.633781
-18.644766 -11.547505 72.314728
-20.235605 -13.442461 72.837196
-22.085827 -12.826828 73.138145
-17.004698 -4.591913 71.207878
-18.815989 -6.418759 71.994019
-20.55332 -8.151425 72.588707
-22.278719 -10.153928 73.011139
-22.28425 -7.491275 72.798172
-23.714252 -12.151304 73.187538
-20.331186 -1.124364 71.743569
-19.520196 -1.80767 71.642514
-21.216543 -2.099213 72.020336
-20.331186 -1.124364 71.743569
-16.956575 -3.359444 71.048462
-16.054486 -3.77179 70.733768
-16.006363 -2.539321 70.574353
-22.983643 -5.458428 72.597866
-22.939722 -3.912664 72.408135
-16.185461 -7.560767 71.140305
-16.161972 -6.306056 71.024589
-15.901144 -11.155494 71.2667
-16.042424 -9.978595 71.252803
-16.872504 -10.813094 71.647678
-15.736107 -12.205784 71.24747
-15.901144 -11.155494 71.2667
-16.523219 -13.135722 71.62379
-15.736107 -12.205784 71.24747
-18.744932 -2.365073 71.518757
-17.883008 -2.937193 71.307564
-17.770375 -1.554856 71.100239
-19.632829 -3.190006 71.849839
-18.744932 -2.365073 71.518757
-19.520196 -1.80767 71.642514
-22.097977 -3.084799 72.272782
-21.289528 -3.618189 72.22604
-21.216543 -2.099213 72.020336
-22.939722 -3.912664 72.408135
-22.097977 -3.084799 72.272782
-18.463311 -12.750184 72.308171
-17.50654 -12.971428 71.981594
-17.687995 -11.768749 71.988152
-19.258731 -13.697662 72.569405
-18.463311 -12.750184 72.308171
-19.440185 -12.494983 72.575962
-20.068288 -14.659028 72.831604
-19.258731 -13.697662 72.569405
-21.013816 -14.455123 73.010456
-20.068288 -14.659028 72.831604
-21.938927 -14.147307 73.160931
-21.013816 -14.455123 73.010456
-21.160716 -13.134645 72.987671
-22.777701 -13.925698 73.213539
-21.938927 -14.147307 73.160931
-24.508387 -10.231146 72.981335
-24.543805 -8.785169 72.863372
-16.103147 -5.009657 70.882785
-16.054486 -3.77179 70.733768
-17.063523 -5.888312 71.349682
-16.161972 -6.306056 71.024589
-16.103147 -5.009657 70.882785
-23.040286 -6.902178 72.75771
-22.227607 -6.047525 72.638329
-22.983643 -5.458428 72.597866
-23.798271 -7.739663 72.853401
-23.042235 -8.32876 72.893863
-23.040286 -6.902178 72.75771
-24.543805 -8.785169 72.863372
-23.798271 -7.739663 72.853401
-15.965339 -1.232443 70.392742
-16.006363 -2.539321 70.574353
-16.808196 -0.763424 70.666859
-15.965339 -1.232443 70.392742
-17.770375 -1.554856 71.100239
-16.808196 -0.763424 70.666859
-16.13118 -8.786509 71.211453
-16.185461 -7.560767 71.140305
-17.068066 -8.410453 71.562634
-16.13118 -8.786509 71.211453
-16.042424 -9.978595 71.252803
-16.523219 -13.135722 71.62379
-17.50654 -12.971428 71.981594
-23.591913 -13.587936 73.238236
-22.777701 -13.925698 73.213539
-22.900039 -12.489066 73.162841
-24.465402 -11.723675 73.080326
-23.757236 -10.658774 73.088547
-24.508387 -10.231146 72.981335
-24.355736 -13.150809 73.161823
-24.465402 -11.723675 73.080326
-23.591913 -13.587936 73.238236
-24.355736 -13.150809 73.161823
3 20 7 21
3 23 22 7
3 0 11 9
3 0 12 11
3 0 13 12
3 1 24 26
3 24 14 25
3 24 25 26
3 3 15 6
3 3 16 15
3 3 18 16
3 28 27 8
3 2 29 30
3 5 31 33
3 33 32 10
3 31 32 33
3 5 34 35
3 5 36 37
3 4 19 17
3 38 6 39
3 40 39 1
3 38 39 40
3 7 41 43
3 41 6 42
3 41 42 43
3 7 3 6
3 7 8 3
3 44 8 45
3 46 45 7
3 44 45 46
3 48 47 8
3 9 10 2
3 11 10 9
3 11 5 10
3 11 49 51
3 51 50 5
3 49 50 51
3 12 52 54
3 54 53 11
3 52 53 54
3 12 55 56
3 12 57 58
3 13 59 61
3 61 60 12
3 59 60 61
3 13 62 63
3 65 64 4
3 14 66 67
3 14 68 70
3 68 2 69
3 68 69 70
3 6 14 1
3 15 14 6
3 15 2 14
3 15 9 2
3 16 9 15
3 16 0 9
3 16 17 0
3 18 17 16
3 18 4 17
3 8 18 3
3 71 18 72
3 73 72 8
3 71 72 73
3 74 4 75
3 76 75 18
3 74 75 76
3 78 77 4
3 79 1 80
3 81 1 82
3 84 83 1
3 10 85 87
3 87 86 2
3 85 86 87
3 89 88 10
3 91 90 5
3 17 13 0
3 19 13 17
3 19 92 94
3 94 93 13
3 92 93 94
3 95 19 96
3 97 96 4
3 95 96 97
3 98 19 99
3 101 100 19
