ply
format ascii 1.0
element vertex 269
property float x
property float y
property float z
element face 271
property list uchar int vertex_index
end_header
38.146439 4.984714 -55.381714
40.061512 -1.192198 -46.077862
39.807377 -10.033036 -50.493679
36.448921 -5.256531 -58.734932
39.056801 3.654367 -39.396439
37.864445 11.328607 -49.129837
34.278999 17.908381 -58.964634
39.415913 2.073571 -50.676449
39.241756 5.328503 -47.527035
38.236942 8.657854 -52.50024
36.390953 14.951215 -53.972595
36.463966 12.091782 -57.384892
40.223408 -4.465482 -41.482506
40.186665 -5.362729 -48.366028
39.284439 -2.655113 -52.892521
37.640228 -0.025716 -57.346146
38.523846 -7.824811 -54.611595
39.71801 1.69249 -42.938225
38.674141 7.659093 -44.143322
35.771782 16.751451 -50.117832
34.063869 20.01952 -54.883167
38.897015 3.386951 -52.988029
38.886814 5.428097 -51.626595
38.188862 7.234334 -54.107666
37.445667 10.39236 -54.982914
37.371181 8.722048 -56.433353
40.231071 -11.348484 -48.219135
40.373772 -8.876259 -47.334679
40.053898 -7.703946 -49.586262
39.810673 -3.927192 -50.656929
39.591213 -6.20205 -51.761349
38.945625 -4.879153 -53.966324
39.251904 -8.830779 -52.581474
40.19698 -2.854779 -43.77578
40.021442 -1.352817 -42.249008
39.929806 0.289625 -44.534058
38.599258 8.555174 -48.398968
39.002342 6.680133 -46.001133
38.319923 9.59756 -46.606171
37.94397 10.274027 -44.609318
37.517048 12.198298 -47.145767
36.907532 14.12241 -49.539879
35.376198 16.554075 -56.651966
35.298714 17.552578 -54.625507
34.21077 19.186487 -57.026764
37.070042 -2.285953 -58.268261
39.501915 0.905959 -38.929512
39.827961 0.230132 -48.356949
39.727844 1.96823 -46.802261
39.385361 3.733069 -49.147839
38.776932 7.224813 -50.055038
38.043625 10.341326 -51.008358
37.180645 13.248306 -51.606926
37.361481 11.950779 -53.462173
36.502754 13.62056 -55.757469
35.475624 15.001388 -58.216251
34.218517 16.407833 -60.573395
35.626282 -8.191032 -59.07132
40.385704 -6.229977 -42.73452
40.333748 -4.749454 -44.96048
40.408131 -6.702262 -46.120953
40.166454 -3.249129 -47.295124
39.848053 -1.665259 -49.679737
39.4002 -0.152708 -51.910366
38.807869 1.131798 -54.119324
37.981022 2.472739 -56.436207
38.55912 -1.265739 -55.146084
38.103447 -3.880084 -56.115311
37.570992 -6.553785 -56.727051
38.759483 -11.710772 -53.205364
37.861423 -10.712534 -55.261074
36.842754 -9.472034 -57.187603
39.796055 -0.178334 -40.525814
39.437416 2.803349 -41.245583
39.556938 3.39852 -45.274948
39.273781 4.742528 -43.526001
38.890358 5.802878 -41.797958
38.22707 8.310385 -42.066349
36.196705 15.873116 -51.98444
34.984837 18.440208 -52.485786
37.671439 5.75364 -56.557237
37.28381 7.622307 -57.083057
37.75881 6.853381 -55.907533
38.810036 3.973254 -38.458361
39.092405 2.654419 -38.276483
38.756327 4.95475 -39.594433
38.810036 3.973254 -38.458361
33.607446 19.289105 -59.191217
33.573332 19.928157 -58.222282
34.244884 18.547434 -57.995699
33.575491 18.634466 -60.135673
33.607446 19.289105 -59.191217
36.181207 -3.312769 -59.450544
36.491768 -1.82748 -59.217209
36.759481 -3.771242 -58.501597
39.651978 -0.532776 -38.657804
39.51404 -0.110093 -37.823799
35.924161 12.6641 -58.560944
35.429991 14.118903 -58.976624
35.969795 13.546585 -57.800572
34.96638 -7.651123 -59.911934
35.147198 -9.773812 -59.094014
40.449779 -7.309238 -43.359173
40.441883 -7.911283 -42.27215
40.423801 -6.568976 -44.472153
40.359726 -5.489715 -43.8475
40.449779 -7.309238 -43.359173
38.795567 -13.808826 -52.477882
39.088106 -12.285782 -52.194013
37.451045 -12.058521 -55.506412
37.969011 -12.59017 -54.51434
36.941711 -11.438271 -56.469677
37.352089 -10.092284 -56.224339
37.451045 -12.058521 -55.506412
36.39809 -10.835373 -57.350092
36.941711 -11.438271 -56.469677
40.129831 -3.763386 -40.779154
40.197451 -5.3397 -40.346233
37.25691 11.707425 -43.808662
37.694683 10.502765 -43.61777
37.506197 11.478687 -44.800211
35.590688 16.842329 -48.95644
36.149313 15.710922 -48.766916
35.19014 17.802174 -50.103333
35.590688 16.842329 -48.95644
33.88695 20.331713 -53.779325
34.347434 19.542057 -52.580635
34.524353 19.229864 -53.684477
33.324837 21.208633 -55.012121
33.88695 20.331713 -53.779325
33.478117 17.074889 -61.703226
34.096535 15.573626 -61.312188
37.280996 2.012779 -58.034681
37.451393 3.262007 -57.579712
37.810625 1.223511 -56.891177
36.853996 9.429384 -57.60943
36.400388 11.114251 -58.0852
36.917574 10.406915 -56.909122
36.853996 9.429384 -57.60943
37.28381 7.622307 -57.083057
40.302422 -10.112371 -47.776907
40.431473 -10.707797 -46.65876
40.360123 -11.943909 -47.100988
37.292736 12.440822 -46.068435
37.506197 11.478687 -44.800211
37.730509 11.236162 -45.877543
37.021946 13.434346 -47.280884
37.292736 12.440822 -46.068435
36.717188 14.396402 -48.477939
37.021946 13.434346 -47.280884
37.21229 13.160354 -48.342823
36.339657 15.43693 -49.828856
36.149313 15.710922 -48.766916
36.717188 14.396402 -48.477939
33.523849 20.450574 -57.147863
33.450399 20.86709 -56.076065
34.137319 19.603003 -55.954966
33.523849 20.450574 -57.147863
33.573332 19.928157 -58.222282
36.76763 -0.385085 -58.933273
37.052723 0.745034 -58.472216
37.355135 -1.155835 -57.807203
36.76763 -0.385085 -58.933273
36.491768 -1.82748 -59.217209
40.265901 -13.288496 -47.479807
40.360123 -11.943909 -47.100988
40.084349 -12.662005 -48.622145
40.265901 -13.288496 -47.479807
39.872501 -12.004281 -49.759417
40.019224 -10.69076 -49.356407
40.084349 -12.662005 -48.622145
39.612053 -11.446914 -50.838171
39.872501 -12.004281 -49.759417
39.314963 1.280215 -38.04302
39.327088 0.264163 -36.937307
39.51404 -0.110093 -37.823799
39.279358 2.280163 -39.162976
39.092405 2.654419 -38.276483
39.314963 1.280215 -38.04302
34.801437 14.822126 -60.155195
34.847071 15.704611 -59.394823
35.429991 14.118903 -58.976624
34.096535 15.573626 -61.312188
34.801437 14.822126 -60.155195
35.924161 12.6641 -58.560944
36.400388 11.114251 -58.0852
35.385599 -6.08265 -59.867686
35.796919 -4.615399 -59.699492
36.037602 -6.723781 -58.903126
35.385599 -6.08265 -59.867686
34.96638 -7.651123 -59.911934
40.286703 -6.123283 -41.035212
40.197451 -5.3397 -40.346233
40.367851 -7.00553 -41.661219
40.441883 -7.911283 -42.27215
40.304556 -5.347729 -42.108513
40.286703 -6.123283 -41.035212
40.367851 -7.00553 -41.661219
40.463131 -9.638927 -46.167486
40.431473 -10.707797 -46.65876
40.480311 -8.551928 -45.560623
40.463131 -9.638927 -46.167486
40.390951 -7.78926 -46.727816
40.460993 -7.545381 -45.05239
40.480311 -8.551928 -45.560623
40.370939 -5.725858 -45.540717
40.423801 -6.568976 -44.472153
40.460993 -7.545381 -45.05239
39.334316 -10.845786 -51.882069
39.52964 -9.431907 -51.537577
39.612053 -11.446914 -50.838171
39.005694 -10.270775 -52.893419
39.334316 -10.845786 -51.882069
39.088106 -12.285782 -52.194013
38.418041 -13.089289 -53.486485
38.795567 -13.808826 -52.477882
38.310453 -11.211653 -54.233219
38.418041 -13.089289 -53.486485
37.969011 -12.59017 -54.51434
35.789854 -10.194872 -58.29195
36.234518 -8.831533 -58.129462
36.39809 -10.835373 -57.350092
35.147198 -9.773812 -59.094014
35.789854 -10.194872 -58.29195
40.028848 -2.207053 -41.162405
40.129831 -3.763386 -40.779154
40.122425 -2.909149 -41.865757
39.916155 -1.619812 -40.300808
40.028848 -2.207053 -41.162405
39.908749 -0.765575 -41.387411
39.799048 -1.074922 -39.455956
39.916155 -1.619812 -40.300808
39.648985 0.363812 -39.727663
39.651978 -0.532776 -38.657804
39.799048 -1.074922 -39.455956
38.673105 6.029006 -40.795192
38.756327 4.95475 -39.594433
38.973579 4.728623 -40.597199
38.341461 7.282759 -40.929388
38.673105 6.029006 -40.795192
38.558714 7.056631 -41.932153
37.958006 8.497418 -41.092186
38.341461 7.282759 -40.929388
37.836233 9.520944 -42.346285
38.08552 9.292206 -43.337834
37.694683 10.502765 -43.61777
37.958006 8.497418 -41.092186
37.836233 9.520944 -42.346285
34.796667 18.646553 -51.287309
35.19014 17.802174 -50.103333
35.37831 17.59583 -51.301809
34.796667 18.646553 -51.287309
34.347434 19.542057 -52.580635
33.324837 21.208633 -55.012121
33.450399 20.86709 -56.076065
33.54525 17.884192 -60.940054
33.575491 18.634466 -60.135673
34.248758 17.158107 -59.769014
33.54525 17.884192 -60.940054
33.478117 17.074889 -61.703226
37.58873 4.497653 -57.084484
37.671439 5.75364 -56.557237
38.063731 3.728727 -55.908961
37.58873 4.497653 -57.084484
37.451393 3.262007 -57.579712
37.280996 2.012779 -58.034681
37.052723 0.745034 -58.472216
36.181207 -3.312769 -59.450544
35.796919 -4.615399 -59.699492
3 0 23 21
3 0 25 23
3 0 80 82
3 82 81 25
3 80 81 82
3 2 28 26
3 2 30 28
3 2 32 30
3 4 83 84
3 4 85 86
3 1 35 33
3 5 38 36
3 5 40 38
3 5 41 40
3 6 44 42
3 6 87 89
3 89 88 44
3 87 88 89
3 6 90 91
3 3 92 94
3 94 93 45
3 92 93 94
3 95 46 96
3 7 49 47
3 9 50 22
3 9 51 50
3 9 53 51
3 11 54 24
3 11 55 54
3 11 97 99
3 99 98 55
3 97 98 99
3 101 100 57
3 102 58 103
3 104 59 105
3 106 105 58
3 104 105 106
3 13 60 27
3 13 61 60
3 13 62 61
3 14 63 29
3 14 64 63
3 14 66 64
3 16 67 31
3 16 68 67
3 107 69 108
3 109 70 110
3 111 71 112
3 113 112 70
3 111 112 113
3 115 114 71
3 12 116 117
3 17 72 34
3 17 73 72
3 8 74 48
3 18 75 37
3 18 76 75
3 18 77 76
3 120 119 39
3 118 119 120
3 19 121 122
3 19 123 124
3 10 78 52
3 20 79 43
3 20 125 127
3 127 126 79
3 125 126 127
3 20 128 129
3 131 130 56
3 15 132 134
3 134 133 65
3 132 133 134
3 21 22 7
3 23 22 21
3 23 9 22
3 23 24 9
3 25 24 23
3 25 11 24
3 25 135 137
3 137 136 11
3 135 136 137
3 139 138 25
3 26 140 142
3 140 27 141
3 140 141 142
3 28 27 26
3 28 13 27
3 28 29 13
3 30 29 28
3 30 14 29
3 30 31 14
3 32 31 30
3 32 16 31
3 33 34 12
3 35 34 33
3 35 17 34
3 36 37 8
3 38 37 36
3 38 18 37
3 38 39 18
3 40 39 38
3 40 143 145
3 145 144 39
3 143 144 145
3 40 146 147
3 41 148 150
3 150 149 40
3 148 149 150
3 41 151 153
3 151 19 152
3 151 152 153
3 42 43 10
3 44 43 42
3 44 20 43
3 44 154 156
3 156 155 20
3 154 155 156
3 158 157 44
3 45 159 161
3 161 160 15
3 159 160 161
3 163 162 45
3 164 26 165
3 166 26 167
3 168 2 169
3 170 169 26
3 168 169 170
3 172 171 2
3 46 173 175
3 173 174 175
3 46 176 178
3 176 4 177
3 176 177 178
3 47 48 1
3 49 48 47
3 49 8 48
3 22 49 7
3 50 49 22
3 50 8 49
3 50 36 8
3 51 36 50
3 51 5 36
3 51 52 5
3 53 52 51
3 53 10 52
3 24 53 9
3 54 53 24
3 54 10 53
3 54 42 10
3 55 42 54
3 55 6 42
3 55 56 6
3 179 56 180
3 181 180 55
3 179 180 181
3 183 182 56
3 185 184 11
3 57 186 188
3 188 187 3
3 186 187 188
3 190 189 57
3 191 12 192
3 58 193 194
3 58 195 197
3 195 12 196
3 195 196 197
3 58 33 12
3 59 33 58
3 59 1 33
3 27 198 199
3 60 200 202
3 202 201 27
3 200 201 202
3 60 203 204
3 60 205 207
3 205 59 206
3 205 206 207
3 61 59 60
3 61 1 59
3 61 47 1
3 62 47 61
3 62 7 47
3 29 62 13
3 63 62 29
3 63 7 62
3 63 21 7
3 64 21 63
3 64 0 21
3 64 65 0
3 66 65 64
3 66 15 65
3 31 66 14
3 67 66 31
3 67 15 66
3 67 45 15
3 68 45 67
3 68 3 45
3 208 32 209
3 210 209 2
3 208 209 210
3 69 211 213
3 211 32 212
3 211 212 213
3 69 16 32
3 214 69 215
3 70 216 218
3 216 69 217
3 216 217 218
3 70 16 69
3 70 68 16
3 71 68 70
3 71 3 68
3 71 57 3
3 219 57 220
3 221 220 71
3 219 220 221
3 223 222 57
3 34 224 226
3 226 225 12
3 224 225 226
3 72 227 229
3 229 228 34
3 227 228 229
3 72 230 231
3 72 232 234
3 232 46 233
3 232 233 234
3 73 46 72
3 73 4 46
3 48 35 1
3 74 35 48
3 74 17 35
3 37 74 8
3 75 74 37
3 75 17 74
3 75 73 17
3 76 73 75
3 76 4 73
3 76 235 237
3 237 236 4
3 235 236 237
3 77 238 240
3 240 239 76
3 238 239 240
3 77 241 242
3 39 77 18
3 243 77 244
3 245 244 39
3 243 244 245
3 247 246 77
3 52 41 5
3 78 41 52
3 78 19 41
3 43 78 10
3 79 78 43
3 79 19 78
3 79 248 250
3 250 249 19
3 248 249 250
3 252 251 79
3 254 253 20
3 56 255 257
3 257 256 6
3 255 256 257
3 259 258 56
3 65 260 262
3 262 261 0
3 260 261 262
3 264 263 65
3 266 265 15
3 268 267 3
