ply
format ascii 1.0
element vertex 237
property float x
property float y
property float z
element face 238
property list uchar int vertex_index
end_header
-19.85149 60.060127 11.610872
-23.033861 60.031513 2.167185
-15.000102 69.898941 13.396518
-18.926823 70.604568 3.840284
-22.045267 55.076435 10.067436
-23.496517 55.272133 5.358971
-21.499311 60.367989 6.798752
-25.453453 53.646847 -3.141323
-24.752787 54.781445 0.951244
-24.079044 59.335617 -2.069497
-17.574995 64.880112 12.762913
-19.37941 65.467125 7.841538
-17.036226 70.457016 8.570286
-20.399378 54.953178 14.927234
-18.089542 59.762161 16.375959
-21.134003 65.403389 3.053472
-22.513515 64.84481 -1.261748
-23.368347 63.756958 -5.420521
-20.970552 57.597786 10.832828
-21.758017 57.680012 8.508609
-20.726587 60.261856 9.073582
-23.262793 57.704231 3.744201
-24.216759 55.03495 2.998191
-23.903307 57.321667 1.691683
-24.402546 57.073368 -0.447723
-23.596136 59.826248 0.045217
-16.332861 67.498375 13.030393
-17.314692 67.766129 10.619112
-16.03356 70.14019 11.066213
-21.552689 52.537239 13.972322
-20.823156 52.28371 16.349052
-19.212296 67.999542 5.816834
-20.300423 65.405754 5.454865
-20.0445 68.04705 3.524442
-21.636675 67.664482 -1.142353
-23.025717 64.478355 -3.515241
-23.093098 52.645287 9.22637
-23.814709 52.795536 6.779675
-22.816294 55.18512 7.641168
-22.507328 57.81765 6.129217
-22.381754 60.05228 4.407883
-25.901779 51.775833 -1.86593
-24.521191 52.764248 4.369358
-25.160248 52.407192 2.220769
-25.614714 52.116344 0.219674
-25.167356 54.438286 -1.185157
-24.754911 56.647079 -2.59944
-24.318916 58.935711 -4.094621
-18.745298 62.689205 12.010348
-19.648514 62.690746 9.725365
-18.454214 65.419121 10.182817
-18.271191 68.019882 8.142931
-18.094088 70.410156 6.152202
-22.285923 52.706581 11.618886
-21.229401 55.003696 12.518824
-20.186964 57.351616 13.233629
-19.280441 57.409939 15.60899
-19.017481 59.925705 13.904263
-17.863993 62.252277 14.556855
-16.606937 64.824615 14.990619
-15.277021 67.101784 15.586143
-20.480145 62.999729 7.23628
-21.387058 62.734417 4.913757
-22.113611 62.680321 2.685164
-20.931101 67.824745 1.122192
-21.870922 65.22113 0.835355
-22.756554 62.452831 0.573774
-23.341967 62.134686 -1.776065
-23.726336 61.650562 -3.839346
-21.019837 50.975153 17.133935
-21.39723 51.097807 15.890095
-25.73995 52.336759 -3.479629
-25.964113 51.401252 -2.841933
-25.677616 52.71134 -2.503627
-22.46628 51.503287 12.299498
-22.853144 51.494387 11.123806
-18.684992 58.58605 15.992475
-18.892896 57.160946 16.835253
-18.297446 58.337057 17.218738
-16.172101 64.546993 16.176413
-16.767242 63.401479 15.988322
-15.507143 65.685577 16.474175
-15.941979 65.9632 15.288381
-16.172101 64.546993 16.176413
-20.799576 69.024643 0.142941
-20.368113 69.214519 1.268134
-23.645893 62.342411 -5.56599
-23.824887 61.289213 -4.775403
-23.547342 62.70376 -4.629933
-25.445678 53.34701 -4.014215
-25.180353 54.808827 -3.77468
-21.761997 51.224571 14.70173
-22.099663 51.418616 13.476216
-22.308971 50.105947 14.205624
-21.187922 52.410474 15.160687
-21.761997 51.224571 14.70173
-21.39723 51.097807 15.890095
-17.671751 59.446779 17.657503
-18.297446 58.337057 17.218738
-17.508544 60.870252 16.680992
-17.671751 59.446779 17.657503
-21.521449 68.737797 -2.120992
-21.152363 68.944512 -0.989332
-21.966231 67.384339 -2.243132
-21.521449 68.737797 -2.120992
-21.851005 68.457653 -3.221771
-22.404651 65.974502 -2.30283
-22.075095 66.254646 -1.20205
-21.966231 67.384339 -2.243132
-22.660751 65.791275 -3.429576
-22.769616 64.661582 -2.388495
-22.404651 65.974502 -2.30283
-22.855153 65.618934 -4.468203
-22.660751 65.791275 -3.429576
-23.026468 65.258236 -5.420843
-23.197032 64.117656 -4.467881
-22.855153 65.618934 -4.468203
-23.453904 52.720411 8.003023
-23.985122 51.638939 7.4369
-23.624316 51.563815 8.660247
-14.871066 71.286041 12.21789
-14.331824 70.996467 13.528878
-26.2746 50.402809 -2.236639
-26.163685 50.725134 -1.262247
-26.2746 50.402809 -2.236639
-25.964113 51.401252 -2.841933
-25.732174 52.036923 -4.352521
-25.73995 52.336759 -3.479629
-25.445678 53.34701 -4.014215
-19.365973 70.604431 2.62718
-18.823666 71.846283 2.685342
-24.329352 51.622011 6.306127
-23.985122 51.638939 7.4369
-24.682592 51.606367 5.100969
-24.329352 51.622011 6.306127
-24.16795 52.779892 5.574516
-25.012886 51.503866 3.990322
-24.682592 51.606367 5.100969
-25.332414 51.325338 2.916027
-25.012886 51.503866 3.990322
-24.840719 52.58572 3.295064
-25.620004 51.159264 1.816858
-25.79217 50.07741 2.512116
-25.332414 51.325338 2.916027
-25.847237 51.01384 0.81631
-25.620004 51.159264 1.816858
-25.387481 52.261768 1.220222
-26.020153 50.89539 -0.219445
-25.847237 51.01384 0.81631
-25.758246 51.946089 -0.823128
-26.163685 50.725134 -1.262247
-26.020153 50.89539 -0.219445
-24.831082 56.308943 -3.503738
-25.180353 54.808827 -3.77468
-25.104182 55.146963 -2.870381
-24.613084 57.453259 -4.251329
-24.831082 56.308943 -3.503738
-24.536914 57.791395 -3.34703
-24.367687 58.46414 -4.983303
-24.613084 57.453259 -4.251329
-15.387795 71.406666 11.052738
-15.516831 70.019565 12.231365
-14.871066 71.286041 12.21789
-15.912295 71.550041 9.842704
-15.387795 71.406666 11.052738
-16.413628 71.708454 8.594741
-16.534893 70.298603 9.81825
-15.912295 71.550041 9.842704
-16.936349 71.709152 7.457221
-16.413628 71.708454 8.594741
-16.313752 72.96059 7.481675
-17.46528 71.685722 6.248179
-17.565157 70.433586 7.361244
-16.936349 71.709152 7.457221
-17.902636 71.808189 5.078684
-17.46528 71.685722 6.248179
-18.319004 71.905395 3.922726
-18.510455 70.507362 4.996243
-17.902636 71.808189 5.078684
-18.823666 71.846283 2.685342
-18.319004 71.905395 3.922726
-23.256732 51.46374 9.927548
-23.624316 51.563815 8.660247
-22.689511 52.675934 10.422628
-23.256732 51.46374 9.927548
-22.853144 51.494387 11.123806
-21.919306 52.62191 12.795604
-22.46628 51.503287 12.299498
-22.099663 51.418616 13.476216
-20.439751 52.102062 17.605674
-21.019837 50.975153 17.133935
-20.200791 53.502876 16.869575
-20.439751 52.102062 17.605674
-19.988902 54.83761 16.158666
-20.611267 53.618444 15.638143
-20.200791 53.502876 16.869575
-19.429434 56.06599 16.499544
-18.892896 57.160946 16.835253
-19.839909 56.181559 15.268112
-19.988902 54.83761 16.158666
-19.429434 56.06599 16.499544
-17.39577 62.11531 15.77144
-17.976768 61.007219 15.466407
-17.508544 60.870252 16.680992
-17.235465 63.538446 14.773737
-17.39577 62.11531 15.77144
-16.767242 63.401479 15.988322
-14.813769 66.793812 16.772018
-15.507143 65.685577 16.474175
-14.61366 68.281505 15.694705
-14.813769 66.793812 16.772018
-14.4752 69.680084 14.599892
-15.138561 68.500362 14.491331
-14.61366 68.281505 15.694705
-14.331824 70.996467 13.528878
-14.4752 69.680084 14.599892
-19.924812 69.325672 2.469259
-19.485661 69.325809 3.682363
-19.365973 70.604431 2.62718
-20.4878 67.935897 2.323317
-19.924812 69.325672 2.469259
-20.368113 69.214519 1.268134
-21.283888 67.744613 -0.01008
-20.799576 69.024643 0.142941
-21.152363 68.944512 -0.989332
-24.121178 59.931787 -4.90304
-24.022626 60.293137 -3.966983
-23.824887 61.289213 -4.775403
-24.367687 58.46414 -4.983303
-24.121178 59.931787 -4.90304
-23.15325 64.875511 -6.36866
-23.026468 65.258236 -5.420843
-23.414976 63.417673 -6.383432
-23.15325 64.875511 -6.36866
-23.19988 64.536226 -7.33157
-23.645893 62.342411 -5.56599
-23.414976 63.417673 -6.383432
3 0 20 18
3 1 23 21
3 1 25 23
3 2 28 26
3 69 30 70
3 3 33 31
3 4 38 36
3 6 39 19
3 6 40 39
3 7 71 73
3 73 72 41
3 71 72 73
3 5 42 37
3 8 43 22
3 8 44 43
3 8 45 44
3 9 46 24
3 9 47 46
3 10 50 48
3 12 51 27
3 12 52 51
3 74 53 75
3 13 54 29
3 13 55 54
3 14 76 78
3 76 56 77
3 76 77 78
3 14 57 56
3 14 58 57
3 79 59 80
3 81 60 82
3 83 82 59
3 81 82 83
3 11 61 49
3 15 62 32
3 15 63 62
3 84 64 85
3 16 65 34
3 16 66 65
3 16 67 66
3 17 68 35
3 17 86 88
3 88 87 68
3 86 87 88
3 18 19 4
3 20 19 18
3 20 6 19
3 90 89 7
3 21 22 5
3 23 22 21
3 23 8 22
3 23 24 8
3 25 24 23
3 25 9 24
3 26 27 10
3 28 27 26
3 28 12 27
3 91 29 92
3 91 92 93
3 30 94 96
3 94 29 95
3 94 95 96
3 30 13 29
3 97 14 98
3 100 99 14
3 31 32 11
3 33 32 31
3 33 15 32
3 101 34 102
3 103 34 104
3 103 104 105
3 106 16 107
3 108 107 34
3 106 107 108
3 109 35 110
3 111 110 16
3 109 110 111
3 112 35 113
3 114 17 115
3 116 115 35
3 114 115 116
3 36 117 119
3 117 37 118
3 117 118 119
3 38 37 36
3 38 5 37
3 19 38 4
3 39 38 19
3 39 5 38
3 39 21 5
3 40 21 39
3 40 1 21
3 121 120 2
3 41 122 123
3 125 124 41
3 128 127 7
3 126 127 128
3 130 129 3
3 37 131 132
3 42 133 135
3 135 134 37
3 133 134 135
3 42 136 137
3 22 42 5
3 43 42 22
3 43 138 140
3 140 139 42
3 138 139 140
3 43 141 143
3 141 142 143
3 44 144 146
3 146 145 43
3 144 145 146
3 44 147 148
3 44 149 151
3 149 41 150
3 149 150 151
3 45 41 44
3 45 7 41
3 24 45 8
3 46 45 24
3 46 7 45
3 46 152 154
3 154 153 7
3 152 153 154
3 47 155 157
3 157 156 46
3 155 156 157
3 47 158 159
3 48 49 0
3 50 49 48
3 50 11 49
3 27 50 10
3 51 50 27
3 51 11 50
3 51 31 11
3 52 31 51
3 52 3 31
3 160 28 161
3 162 161 2
3 160 161 162
3 163 28 164
3 165 12 166
3 167 166 28
3 165 166 167
3 168 12 169
3 168 169 170
3 171 52 172
3 173 172 12
3 171 172 173
3 174 52 175
3 176 3 177
3 178 177 52
3 176 177 178
3 180 179 3
3 181 36 182
3 53 183 185
3 183 36 184
3 183 184 185
3 53 4 36
3 29 186 188
3 186 53 187
3 186 187 188
3 54 53 29
3 54 4 53
3 54 18 4
3 55 18 54
3 55 0 18
3 189 30 190
3 191 30 192
3 193 13 194
3 195 194 30
3 193 194 195
3 56 196 197
3 56 198 200
3 198 13 199
3 198 199 200
3 56 55 13
3 57 55 56
3 57 0 55
3 57 48 0
3 58 48 57
3 58 10 48
3 201 58 202
3 203 202 14
3 201 202 203
3 59 204 206
3 204 58 205
3 204 205 206
3 59 10 58
3 59 26 10
3 60 26 59
3 60 2 26
3 207 60 208
3 209 60 210
3 211 2 212
3 213 212 60
3 211 212 213
3 215 214 2
3 49 20 0
3 61 20 49
3 61 6 20
3 32 61 11
3 62 61 32
3 62 6 61
3 62 40 6
3 63 40 62
3 63 1 40
3 216 33 217
3 218 217 3
3 216 217 218
3 64 219 221
3 219 33 220
3 219 220 221
3 64 15 33
3 34 222 224
3 222 64 223
3 222 223 224
3 65 64 34
3 65 15 64
3 65 63 15
3 66 63 65
3 66 1 63
3 66 25 1
3 67 25 66
3 67 9 25
3 35 67 16
3 68 67 35
3 68 9 67
3 68 47 9
3 225 47 226
3 227 226 68
3 225 226 227
3 229 228 47
3 230 17 231
3 232 17 233
3 232 233 234
3 236 235 17
