ply
format ascii 1.0
element vertex 223
property float x
property float y
property float z
element face 215
property list uchar int vertex_index
end_header
17.165039 62.778118 -51.248756
11.230453 48.556496 -52.163887
24.82262 60.057564 -49.763691
17.9678 45.193554 -51.349934
24.343889 40.110817 -48.778278
14.147142 55.742004 -51.677143
24.915897 49.992142 -49.442528
21.214096 61.589405 -50.79995
17.949324 54.369869 -51.459755
21.533321 52.553974 -50.746738
21.145306 42.764221 -50.338455
19.783756 70.293678 -50.445625
23.860268 69.095352 -49.643829
14.643045 47.172108 -51.944386
11.307005 40.779366 -52.67683
15.06919 63.478512 -51.231594
15.753196 59.335384 -51.477226
9.63097 45.6231 -52.513123
23.058401 60.620899 -50.366348
21.421886 57.076668 -50.831066
23.225677 55.969437 -50.322517
24.681082 45.261635 -49.176758
23.117804 46.637821 -49.943901
22.737225 41.496101 -49.638958
21.873627 69.796425 -50.129803
18.161507 49.967972 -51.420113
16.244865 50.794983 -51.701271
16.375538 46.352188 -51.689243
12.868988 39.783485 -52.372967
12.679976 51.901436 -51.89986
25.02733 55.202999 -49.635536
26.644598 53.911701 -48.810814
26.53229 48.700047 -48.551121
26.196281 43.808392 -48.264935
17.697323 40.734245 -51.220325
16.092119 41.693829 -51.661697
19.240147 62.381611 -51.093239
17.809189 58.658913 -51.387508
19.619259 57.868408 -51.179447
19.825928 53.502277 -51.156521
19.828234 48.715607 -51.051674
23.296026 51.555119 -50.169823
21.546947 47.821487 -50.549229
19.684755 44.102001 -50.875591
19.23246 39.245964 -50.668373
27.528822 41.895893 -47.244884
16.449327 66.899994 -50.977127
17.606625 70.833992 -50.566978
18.578606 66.718094 -50.897068
20.623388 65.982803 -50.692924
22.653254 65.412933 -50.29285
24.478035 64.582169 -49.761036
25.786932 68.408546 -48.925125
16.117533 55.308929 -51.619453
14.605371 51.600723 -51.834366
12.978714 47.968597 -52.094391
14.540187 42.93829 -52.004429
12.934725 43.802963 -52.264648
11.303583 44.704418 -52.43927
9.806533 41.73098 -52.885117
10.346876 49.023211 -52.129395
11.053156 50.645376 -51.993357
10.430712 47.089798 -52.338505
9.547134 47.556512 -52.304012
10.346876 49.023211 -52.129395
23.270634 38.32465 -49.036512
22.467301 39.017292 -49.466852
23.540557 40.803459 -49.208618
13.167737 55.896397 -51.648792
13.938032 57.661066 -51.563358
13.413559 53.82172 -51.788501
12.434154 53.976112 -51.76015
13.167737 55.896397 -51.648792
27.377391 55.825049 -48.427488
26.556078 56.351368 -48.914297
27.277918 48.03013 -48.043997
27.337508 50.638859 -48.202916
27.109913 45.584303 -47.900904
26.364286 46.254219 -48.408028
27.277918 48.03013 -48.043997
16.773349 39.082971 -51.385864
17.500104 38.321228 -51.112232
27.395375 39.478342 -46.977758
28.302779 41.389128 -46.639602
26.643462 40.196078 -47.538887
27.395375 39.478342 -46.977758
15.916626 68.863533 -50.772637
15.269921 67.0331 -50.928827
18.695191 70.563835 -50.506301
18.292943 72.582783 -50.292315
19.381509 72.312625 -50.231638
26.6238 67.687134 -48.524403
26.378999 70.004093 -48.405271
25.990058 65.992434 -48.993239
26.6238 67.687134 -48.524403
14.434981 40.69667 -52.006449
15.316153 42.31606 -51.833063
15.210947 40.07444 -51.835083
14.399055 61.52932 -51.340584
14.012244 63.32593 -51.18537
14.741059 59.457756 -51.4634
14.399055 61.52932 -51.340584
15.411193 61.406948 -51.35441
14.950169 57.538694 -51.577185
13.938032 57.661066 -51.563358
14.741059 59.457756 -51.4634
8.815945 46.059317 -52.491171
9.547134 47.556512 -52.304012
8.969344 44.21616 -52.743359
8.815945 46.059317 -52.491171
21.734797 39.748638 -49.841566
20.938837 40.382698 -50.191315
21.941266 42.130161 -49.988707
21.734797 39.748638 -49.841566
22.467301 39.017292 -49.466852
20.495657 72.083923 -50.102443
19.381509 72.312625 -50.231638
21.540592 71.835296 -49.944533
20.828691 70.045051 -50.287714
20.495657 72.083923 -50.102443
22.49656 71.65316 -49.733799
21.540592 71.835296 -49.944533
23.48988 71.302624 -49.490812
22.866948 69.445888 -49.886816
22.49656 71.65316 -49.733799
12.745717 37.70314 -52.406405
13.599381 39.119268 -52.190718
12.054077 38.330656 -52.612498
12.745717 37.70314 -52.406405
11.273086 38.828597 -52.764429
12.087996 40.281425 -52.524899
12.054077 38.330656 -52.612498
10.56313 39.481949 -52.927595
11.273086 38.828597 -52.764429
11.777918 52.317847 -51.861343
12.434154 53.976112 -51.76015
11.955215 50.228966 -52.031874
11.053156 50.645376 -51.993357
11.777918 52.317847 -51.861343
25.747444 56.997017 -49.326658
24.924975 57.630281 -49.699613
25.645089 59.4243 -49.390736
25.835964 54.55735 -49.223175
25.747444 56.997017 -49.326658
26.556078 56.351368 -48.914297
27.393662 53.244686 -48.332762
27.377391 55.825049 -48.427488
26.588444 51.305874 -48.680968
27.393662 53.244686 -48.332762
27.337508 50.638859 -48.202916
15.970747 39.562764 -51.60655
16.894721 41.214037 -51.441011
16.773349 39.082971 -51.385864
15.210947 40.07444 -51.835083
15.970747 39.562764 -51.60655
18.267672 37.577088 -50.836256
17.500104 38.321228 -51.112232
18.464892 39.990105 -50.944349
19.982414 38.62357 -50.356274
20.188883 41.005093 -50.503414
20.938837 40.382698 -50.191315
18.985225 36.925221 -50.531145
19.982414 38.62357 -50.356274
18.267672 37.577088 -50.836256
18.985225 36.925221 -50.531145
28.465518 43.798711 -46.818725
28.302779 41.389128 -46.639602
27.776184 44.628054 -47.390878
28.465518 43.798711 -46.818725
26.862552 42.852142 -47.754909
27.109913 45.584303 -47.900904
27.776184 44.628054 -47.390878
25.977191 41.152327 -48.048913
26.862552 42.852142 -47.754909
26.643462 40.196078 -47.538887
25.050995 39.303539 -48.305584
25.270085 41.959604 -48.521607
25.977191 41.152327 -48.048913
23.995545 37.565922 -48.599243
25.050995 39.303539 -48.305584
23.270634 38.32465 -49.036512
23.995545 37.565922 -48.599243
14.579852 65.322359 -51.056061
14.012244 63.32593 -51.18537
15.759259 65.189253 -51.10436
14.579852 65.322359 -51.056061
15.269921 67.0331 -50.928827
17.120081 72.654567 -50.338895
18.292943 72.582783 -50.292315
16.495275 70.830532 -50.567562
17.120081 72.654567 -50.338895
17.027976 68.866993 -50.772053
15.916626 68.863533 -50.772637
16.495275 70.830532 -50.567562
24.496226 70.903396 -49.173206
23.48988 71.302624 -49.490812
24.125839 73.110668 -49.020189
25.459558 70.559993 -48.813854
26.378999 70.004093 -48.405271
24.8236 68.751949 -49.284477
24.496226 70.903396 -49.173206
25.459558 70.559993 -48.813854
25.335609 64.079245 -49.411194
25.132483 66.495357 -49.34308
25.990058 65.992434 -48.993239
25.507902 61.816942 -49.412521
24.650327 62.319866 -49.762363
25.335609 64.079245 -49.411194
25.645089 59.4243 -49.390736
25.507902 61.816942 -49.412521
13.704587 41.360888 -52.188698
14.434981 40.69667 -52.006449
13.599381 39.119268 -52.190718
9.057125 42.2701 -52.929356
8.969344 44.21616 -52.743359
9.718751 43.67704 -52.69912
9.812894 39.957756 -53.031739
10.556769 41.255173 -52.780974
10.56313 39.481949 -52.927595
9.029854 40.423981 -53.180532
9.812894 39.957756 -53.031739
9.057125 42.2701 -52.929356
9.029854 40.423981 -53.180532
3 0 16 15
3 1 60 61
3 1 62 64
3 62 17 63
3 62 63 64
3 2 20 18
3 4 23 21
3 4 65 67
3 67 66 23
3 65 66 67
3 3 27 25
3 5 68 69
3 5 70 72
3 70 29 71
3 70 71 72
3 73 31 74
3 75 32 76
3 77 33 78
3 79 78 32
3 77 78 79
3 81 80 34
3 7 38 36
3 9 39 19
3 9 40 39
3 6 41 30
3 10 42 22
3 10 43 42
3 10 44 43
3 82 45 83
3 85 84 45
3 86 46 87
3 11 88 90
3 88 47 89
3 88 89 90
3 11 48 47
3 11 49 48
3 12 50 24
3 12 51 50
3 91 52 92
3 94 93 52
3 8 53 37
3 13 54 26
3 13 55 54
3 95 56 96
3 97 96 35
3 95 96 97
3 14 57 28
3 14 58 57
3 14 59 58
3 15 98 99
3 16 100 102
3 102 101 15
3 100 101 102
3 16 103 105
3 103 5 104
3 103 104 105
3 17 106 107
3 17 108 109
3 18 19 7
3 20 19 18
3 20 9 19
3 21 22 6
3 23 22 21
3 23 10 22
3 23 110 112
3 112 111 10
3 110 111 112
3 114 113 23
3 115 11 116
3 117 24 118
3 119 118 11
3 117 118 119
3 120 24 121
3 122 12 123
3 124 123 24
3 122 123 124
3 25 26 8
3 27 26 25
3 27 13 26
3 125 28 126
3 127 28 128
3 129 14 130
3 131 130 28
3 129 130 131
3 133 132 14
3 29 134 135
3 29 136 138
3 136 1 137
3 136 137 138
3 139 30 140
3 141 140 2
3 139 140 141
3 31 142 144
3 142 30 143
3 142 143 144
3 31 6 30
3 145 31 146
3 32 147 149
3 147 31 148
3 147 148 149
3 32 6 31
3 32 21 6
3 33 21 32
3 33 4 21
3 34 35 3
3 150 35 151
3 152 151 34
3 150 151 152
3 154 153 35
3 36 37 0
3 38 37 36
3 38 8 37
3 19 38 7
3 39 38 19
3 39 8 38
3 39 25 8
3 40 25 39
3 40 3 25
3 30 20 2
3 41 20 30
3 41 9 20
3 22 41 6
3 42 41 22
3 42 9 41
3 42 40 9
3 43 40 42
3 43 3 40
3 43 34 3
3 44 34 43
3 44 155 157
3 157 156 34
3 155 156 157
3 158 44 159
3 160 159 10
3 158 159 160
3 161 44 162
3 164 163 44
3 45 165 166
3 45 167 168
3 45 169 171
3 169 33 170
3 169 170 171
3 172 33 173
3 174 173 45
3 172 173 174
3 175 4 176
3 177 176 33
3 175 176 177
3 178 4 179
3 181 180 4
3 182 15 183
3 46 184 186
3 184 15 185
3 184 185 186
3 46 0 15
3 47 187 188
3 47 189 190
3 47 191 193
3 191 46 192
3 191 192 193
3 48 46 47
3 48 0 46
3 48 36 0
3 49 36 48
3 49 7 36
3 24 49 11
3 50 49 24
3 50 7 49
3 50 18 7
3 51 18 50
3 51 2 18
3 194 12 195
3 194 195 196
3 52 197 198
3 52 199 201
3 199 12 200
3 199 200 201
3 52 51 12
3 202 51 203
3 204 203 52
3 202 203 204
3 205 2 206
3 207 206 51
3 205 206 207
3 209 208 2
3 37 16 0
3 53 16 37
3 53 5 16
3 26 53 8
3 54 53 26
3 54 5 53
3 54 29 5
3 55 29 54
3 55 1 29
3 35 27 3
3 56 27 35
3 56 13 27
3 28 210 212
3 210 56 211
3 210 211 212
3 57 56 28
3 57 13 56
3 57 55 13
3 58 55 57
3 58 1 55
3 58 17 1
3 59 17 58
3 59 213 215
3 215 214 17
3 213 214 215
3 216 59 217
3 218 217 14
3 216 217 218
3 219 59 220
3 222 221 59
