ply
format ascii 1.0
element vertex 401
property float x
property float y
property float z
element face 438
property list uchar int vertex_index
end_header
27.748724 -50.834244 -46.198147
23.351063 -66.266602 -40.207859
17.538254 -63.814774 -45.53101
21.987591 -46.646782 -50.853413
27.310711 -65.971901 -32.64283
32.113583 -52.85273 -39.548855
30.892057 -34.223248 -52.399582
24.8403 -29.120569 -57.009975
15.070443 -71.774887 -43.054119
14.557706 -61.259823 -47.250092
25.664482 -58.671597 -43.276459
28.083681 -59.535767 -39.85675
30.091444 -52.281441 -43.113457
31.950472 -44.540043 -46.210323
33.436302 -36.449947 -49.348881
29.502285 -42.636364 -49.250134
19.035744 -43.696529 -52.434822
23.585749 -37.930248 -53.811813
20.670744 -34.879635 -55.424686
21.786877 -26.258224 -58.631618
20.89072 -72.819649 -37.405621
18.223669 -72.564224 -40.608006
20.662912 -65.208527 -43.268372
22.88903 -57.499294 -45.882118
24.780582 -49.137985 -48.799194
19.818455 -55.50359 -48.069241
16.792009 -52.575684 -49.724289
30.914145 -59.605049 -32.101913
25.675638 -66.314034 -36.640617
29.768562 -59.855511 -36.145889
26.598454 -40.485027 -51.795784
27.999498 -31.772766 -54.93578
28.707493 -23.474199 -58.148159
25.632677 -20.553526 -60.325909
26.647997 -54.892033 -44.751038
27.936766 -55.461929 -43.235565
28.972239 -51.470539 -44.816891
31.052164 -48.578938 -44.585232
30.044765 -47.461239 -46.259705
30.759689 -43.622879 -47.815693
28.563442 -47.008072 -47.655571
17.474382 -42.163548 -53.025089
19.749537 -39.361832 -53.879433
18.372089 -37.687775 -54.528343
19.111776 -33.531048 -55.993645
15.561638 -75.856743 -40.522499
16.277065 -67.905556 -44.289001
17.833305 -68.504852 -43.249786
19.188473 -64.567314 -44.462936
21.752913 -61.467236 -44.564247
20.308739 -60.582439 -45.759605
21.207172 -56.640972 -47.092377
18.651875 -59.67635 -46.809402
13.107967 -59.764748 -47.85656
15.721155 -56.883976 -48.479774
14.286835 -55.33313 -49.066299
15.452662 -50.875393 -50.33342
27.933546 -65.568123 -30.609177
29.669582 -62.488285 -30.12262
29.211119 -62.755955 -32.295559
22.131191 -69.608421 -38.824654
23.457764 -69.416603 -37.023201
24.700874 -66.093849 -38.592308
30.093027 -56.348267 -39.716576
28.983376 -59.813484 -38.020496
30.925734 -56.414246 -38.01152
31.53533 -56.73315 -35.927208
32.668713 -53.413391 -37.57449
32.23307 -35.250206 -50.98349
32.778732 -31.031019 -52.596134
31.332939 -29.892118 -54.095356
23.248127 -48.191212 -49.844685
25.695551 -44.89365 -50.263573
24.275347 -43.633789 -51.353214
24.23345 -33.621815 -55.348423
25.863834 -34.951981 -54.377789
26.374949 -30.526773 -56.027863
28.379372 -27.481709 -56.598316
26.784445 -26.289219 -57.654633
27.158607 -21.931217 -59.342041
25.405973 -24.779827 -58.650532
20.240353 -24.694677 -59.335796
22.19533 -21.965256 -60.320168
13.432566 -70.904671 -44.077538
14.756147 -67.011429 -45.197376
16.07761 -62.680134 -46.445267
13.234561 -65.571053 -46.069195
25.260424 -69.219391 -33.002384
24.478964 -62.512089 -41.82674
25.753479 -62.717823 -40.240311
26.857952 -59.341408 -41.616245
29.065042 -56.003696 -41.545025
31.159212 -52.723843 -41.343784
32.193409 -48.775024 -43.048676
32.99527 -45.163841 -44.604057
32.765583 -40.539299 -47.751808
31.615898 -39.444412 -49.350616
30.186077 -38.551544 -50.804634
20.384369 -45.476707 -51.637829
22.72595 -42.260281 -52.346973
21.284252 -40.844341 -53.166439
21.971169 -36.479103 -54.676167
22.788231 -32.036945 -56.244526
23.328238 -27.984489 -57.757011
21.209846 -30.685802 -56.955624
19.799265 -29.040844 -57.651985
18.299976 -26.990986 -58.415894
27.280945 -13.743756 -62.584877
19.596748 -72.76506 -39.125645
20.896448 -69.208794 -40.546619
16.507362 -72.452957 -41.924126
19.383648 -68.94989 -42.006378
22.121918 -65.613342 -41.906467
23.15094 -61.921021 -43.360939
24.296722 -58.050072 -44.721325
25.414186 -53.960155 -46.145168
26.203585 -50.21788 -47.537449
23.775311 -53.606384 -47.255119
22.342728 -52.340801 -48.458328
20.789097 -51.141479 -49.461407
17.203476 -58.245487 -47.758862
18.349556 -54.115433 -48.961815
19.311781 -49.985107 -50.228905
17.920269 -48.198322 -51.028065
16.504154 -46.522827 -51.641525
24.333321 -69.57679 -35.00774
26.51232 -66.303528 -34.662838
26.8741 -62.993263 -38.320953
27.773767 -63.133369 -36.35577
28.490009 -63.139786 -34.360302
30.408901 -59.820995 -34.103825
32.181725 -56.450386 -33.902142
27.282223 -46.018707 -48.951443
27.968506 -41.832039 -50.542313
28.772173 -37.487926 -52.105415
25.120913 -39.449203 -52.779079
27.385489 -36.101147 -53.348068
29.460598 -33.240383 -53.646049
29.870333 -28.858303 -55.350533
27.292568 -17.769354 -60.991299
25.783278 -16.625029 -61.874847
23.7742 -23.605106 -59.45351
24.096712 -19.255665 -61.16785
17.22011 -38.97032 -54.071962
17.923235 -39.925662 -53.776716
16.771257 -41.208207 -53.320335
17.630776 -36.767303 -54.829262
17.22011 -38.97032 -54.071962
14.172684 -77.284263 -40.561765
14.833146 -77.657989 -39.857899
12.931082 -56.925878 -48.638405
13.697401 -57.548939 -48.46143
12.341648 -59.141688 -48.033535
13.540616 -54.580267 -49.270239
12.931082 -56.925878 -48.638405
27.622129 -65.770012 -31.626003
26.9767 -67.163944 -30.800463
26.665282 -67.365834 -31.817289
32.934077 -51.345566 -39.398743
33.211641 -51.625896 -38.411561
32.391148 -53.13306 -38.561673
20.432973 -22.591458 -60.175936
19.571227 -23.744234 -59.708199
12.753113 -70.224403 -44.51557
12.000388 -72.279789 -43.948091
13.414904 -68.277783 -45.075489
14.094356 -68.95805 -44.637457
12.753113 -70.224403 -44.51557
12.65411 -67.557594 -45.511398
13.995354 -66.291241 -45.633285
13.414904 -68.277783 -45.075489
24.156098 -70.855568 -33.221169
24.591505 -70.648415 -32.16534
32.91019 -42.851446 -46.185339
33.432588 -43.163345 -45.382206
32.472871 -44.851942 -45.40719
32.358027 -42.539671 -46.981065
33.317745 -40.851074 -46.956081
32.91019 -42.851446 -46.185339
18.788149 -30.166289 -57.218146
19.45552 -31.285946 -56.822815
18.444404 -32.411392 -56.388976
18.038505 -29.14136 -57.6001
19.04962 -28.015915 -58.03394
18.788149 -30.166289 -57.218146
28.055525 -14.346964 -62.065807
27.975108 -12.410141 -62.831604
18.910209 -72.664642 -39.866826
18.280971 -74.433819 -39.147972
17.594431 -74.3334 -39.889153
15.788902 -72.113922 -42.489123
15.229941 -73.911225 -41.866064
14.511481 -73.57219 -42.431061
15.23715 -47.912088 -51.203975
15.978408 -48.69911 -50.987472
14.711403 -50.088372 -50.549923
15.808446 -45.679062 -51.887018
15.23715 -47.912088 -51.203975
31.075943 -59.507874 -31.009893
30.453661 -60.949491 -30.020246
30.291863 -61.046667 -31.112267
31.689813 -58.051904 -31.943488
31.075943 -59.507874 -31.009893
21.416686 -72.849293 -36.456238
20.243765 -74.477772 -36.552262
32.693139 -54.996876 -34.730654
31.858528 -56.591768 -34.914675
32.369941 -55.138258 -35.743187
32.914307 -54.944187 -33.639833
32.693139 -54.996876 -34.730654
34.249874 -34.744062 -49.411686
33.980856 -36.794954 -48.581721
29.52204 -23.994837 -57.560805
29.35798 -25.998593 -56.785883
28.543433 -25.477954 -57.373238
29.602773 -21.916056 -58.385818
29.52204 -23.994837 -57.560805
28.801535 -21.359545 -58.980779
29.602773 -21.916056 -58.385818
23.282635 -18.631166 -61.534618
23.146021 -20.610461 -60.744009
22.331944 -19.985961 -61.110777
24.154393 -17.359347 -61.92267
23.282635 -18.631166 -61.534618
18.000619 -34.68894 -55.561913
18.741932 -35.609412 -55.260994
17.630776 -36.767303 -54.829262
18.444404 -32.411392 -56.388976
18.000619 -34.68894 -55.561913
16.263416 -75.97966 -39.8464
14.833146 -77.657989 -39.857899
16.892654 -74.210483 -40.565252
17.594431 -74.3334 -39.889153
16.263416 -75.97966 -39.8464
14.123529 -52.351399 -49.903799
14.869749 -53.104261 -49.69986
13.540616 -54.580267 -49.270239
14.711403 -50.088372 -50.549923
14.123529 -52.351399 -49.903799
27.244362 -66.97876 -29.695513
26.9767 -67.163944 -30.800463
28.1574 -65.364582 -29.537951
27.244362 -66.97876 -29.695513
28.801564 -64.028204 -30.365899
29.025418 -63.824663 -29.294672
28.1574 -65.364582 -29.537951
32.936633 -53.478378 -36.566828
32.369941 -55.138258 -35.743187
32.102021 -55.07327 -36.750849
33.473022 -51.751329 -37.484374
32.936633 -53.478378 -36.566828
33.473022 -51.751329 -37.484374
33.211641 -51.625896 -38.411561
33.104188 -33.692593 -51.023584
33.705804 -34.292463 -50.20628
32.834686 -35.850077 -50.166185
33.37702 -31.582999 -51.829906
33.104188 -33.692593 -51.023584
32.505901 -33.140613 -51.789812
33.580467 -29.405127 -52.693569
33.37702 -31.582999 -51.829906
32.951259 -29.039998 -53.381382
33.580467 -29.405127 -52.693569
32.228363 -28.470548 -54.130993
32.951259 -29.039998 -53.381382
32.055836 -30.461568 -53.345745
31.536748 -27.907222 -54.844282
32.228363 -28.470548 -54.130993
21.410461 -21.226748 -60.668121
21.217841 -23.329966 -59.827982
20.432973 -22.591458 -60.175936
22.331944 -19.985961 -61.110777
21.410461 -21.226748 -60.668121
13.694723 -73.155815 -42.994575
14.511481 -73.57219 -42.431061
12.875785 -72.720707 -43.506285
12.000388 -72.279789 -43.948091
14.251504 -71.339779 -43.565828
13.694723 -73.155815 -42.994575
12.875785 -72.720707 -43.506285
11.84271 -67.06416 -45.796869
12.65411 -67.557594 -45.511398
12.446577 -64.920949 -46.368212
11.84271 -67.06416 -45.796869
13.108149 -62.765333 -46.958661
13.896133 -63.415438 -46.659644
12.446577 -64.920949 -46.368212
12.38328 -62.017796 -47.261894
13.832836 -60.512285 -47.553326
13.108149 -62.765333 -46.958661
11.663948 -61.312325 -47.469646
12.38328 -62.017796 -47.261894
10.89763 -60.689264 -47.646621
12.341648 -59.141688 -48.033535
11.663948 -61.312325 -47.469646
25.640139 -68.989578 -31.997066
24.591505 -70.648415 -32.16534
26.285567 -67.595646 -32.822607
26.665282 -67.365834 -31.817289
25.640139 -68.989578 -31.997066
32.122991 -50.983885 -41.296381
32.600176 -51.048328 -40.398916
31.636398 -52.788286 -40.44632
32.640089 -49.009476 -42.148827
32.122991 -50.983885 -41.296381
31.67631 -50.749434 -42.19623
33.082918 -47.202635 -42.942825
32.640089 -49.009476 -42.148827
33.483849 -45.397043 -43.720516
33.082918 -47.202635 -42.942825
32.59434 -46.969432 -43.826366
33.847071 -43.608141 -44.506342
33.483849 -45.397043 -43.720516
33.847071 -43.608141 -44.506342
33.432588 -43.163345 -45.382206
33.645497 -38.83963 -47.783184
33.317745 -40.851074 -46.956081
33.100943 -38.494623 -48.550344
33.980856 -36.794954 -48.581721
33.645497 -38.83963 -47.783184
18.601038 -24.892388 -59.248248
19.571227 -23.744234 -59.708199
19.270164 -25.842831 -58.875845
27.198687 -11.816037 -63.344723
27.975108 -12.410141 -62.831604
26.504308 -13.298656 -62.984279
27.198687 -11.816037 -63.344723
19.646023 -74.442943 -37.497244
20.243765 -74.477772 -36.552262
18.999037 -74.415649 -38.357256
18.280971 -74.433819 -39.147972
20.243734 -72.792355 -38.265633
19.646023 -74.442943 -37.497244
18.999037 -74.415649 -38.357256
14.757079 -75.613117 -41.16525
14.172684 -77.284263 -40.561765
16.0345 -74.15485 -41.223313
14.757079 -75.613117 -41.16525
15.229941 -73.911225 -41.866064
16.29356 -43.499422 -52.5788
16.989268 -44.343187 -52.333307
15.808446 -45.679062 -51.887018
16.771257 -41.208207 -53.320335
16.29356 -43.499422 -52.5788
17.286243 -28.229782 -57.876435
18.038505 -29.14136 -57.6001
17.636087 -26.159928 -58.687064
17.286243 -28.229782 -57.876435
18.601038 -24.892388 -59.248248
17.636087 -26.159928 -58.687064
29.816886 -62.324625 -29.043813
29.025418 -63.824663 -29.294672
29.816886 -62.324625 -29.043813
30.453661 -60.949491 -30.020246
22.700208 -71.14777 -36.265028
21.416686 -72.849293 -36.456238
22.174242 -71.118126 -37.214411
23.137987 -71.227863 -35.257297
22.700208 -71.14777 -36.265028
23.895543 -69.496696 -36.01547
23.692546 -71.034267 -34.223847
23.137987 -71.227863 -35.257297
24.796872 -69.39809 -34.005062
24.156098 -70.855568 -33.221169
23.692546 -71.034267 -34.223847
32.323603 -56.474573 -32.843603
31.689813 -58.051904 -31.943488
31.547935 -58.027718 -33.002027
32.323603 -56.474573 -32.843603
32.914307 -54.944187 -33.639833
32.934077 -51.345566 -39.398743
32.600176 -51.048328 -40.398916
34.249874 -34.744062 -49.411686
33.705804 -34.292463 -50.20628
30.805445 -27.390315 -55.47187
31.536748 -27.907222 -54.844282
30.601636 -29.375211 -54.722944
30.10346 -26.686889 -56.161991
29.124852 -28.170006 -55.974424
29.35798 -25.998593 -56.785883
30.805445 -27.390315 -55.47187
30.10346 -26.686889 -56.161991
28.027093 -20.588054 -59.57772
28.801535 -21.359545 -58.980779
27.93305 -22.702708 -58.7451
28.094073 -18.507123 -60.402349
28.027093 -20.588054 -59.57772
27.225587 -19.850285 -60.16667
28.061336 -16.359763 -61.269019
28.094073 -18.507123 -60.402349
27.286756 -15.756555 -61.788088
28.055525 -14.346964 -62.065807
28.061336 -16.359763 -61.269019
25.755474 -14.739293 -62.629265
26.504308 -13.298656 -62.984279
26.532111 -15.184393 -62.229862
24.997676 -16.04403 -62.276168
24.939995 -17.940347 -61.521349
24.154393 -17.359347 -61.92267
25.755474 -14.739293 -62.629265
24.997676 -16.04403 -62.276168
3 0 36 34
3 0 38 36
3 0 40 38
3 143 43 144
3 145 144 41
3 143 144 145
3 147 146 43
3 148 45 149
3 2 48 46
3 2 50 48
3 2 52 50
3 150 55 151
3 152 151 53
3 150 151 152
3 154 153 55
3 4 155 157
3 155 57 156
3 155 156 157
3 4 59 57
3 1 62 60
3 5 65 63
3 5 67 65
3 5 158 160
3 160 159 67
3 158 159 160
3 6 69 68
3 6 70 69
3 3 73 71
3 7 76 74
3 7 78 76
3 7 80 78
3 162 161 81
3 163 83 164
3 165 84 166
3 167 166 83
3 165 166 167
3 168 86 169
3 170 169 84
3 168 169 170
3 171 87 172
3 10 90 88
3 12 91 35
3 12 92 91
3 12 93 92
3 13 94 37
3 13 173 175
3 175 174 94
3 173 174 175
3 13 176 178
3 176 95 177
3 176 177 178
3 15 96 39
3 15 97 96
3 16 100 98
3 18 101 42
3 18 102 101
3 18 104 102
3 179 105 180
3 181 180 44
3 179 180 181
3 182 106 183
3 184 183 105
3 182 183 184
3 185 107 186
3 21 187 189
3 187 108 188
3 187 188 189
3 21 109 108
3 8 190 192
3 190 110 191
3 190 191 192
3 22 111 47
3 22 112 111
3 22 113 112
3 23 114 49
3 23 115 114
3 23 117 115
3 25 118 51
3 25 119 118
3 9 120 85
3 26 121 54
3 26 122 121
3 26 123 122
3 193 124 194
3 195 194 56
3 193 194 195
3 197 196 124
3 27 198 200
3 200 199 58
3 198 199 200
3 27 201 202
3 20 203 204
3 28 125 61
3 28 126 125
3 11 127 89
3 29 128 64
3 29 129 128
3 29 130 129
3 205 131 206
3 207 206 66
3 205 206 207
3 209 208 131
3 14 210 211
3 24 132 116
3 30 133 72
3 30 134 133
3 17 135 99
3 31 136 75
3 31 137 136
3 31 138 137
3 32 212 214
3 214 213 77
3 212 213 214
3 32 215 216
3 32 217 218
3 33 139 79
3 33 140 139
3 19 141 103
3 219 142 220
3 221 220 82
3 219 220 221
3 223 222 142
3 34 35 10
3 36 35 34
3 36 12 35
3 36 37 12
3 38 37 36
3 38 13 37
3 38 39 13
3 40 39 38
3 40 15 39
3 41 42 16
3 43 42 41
3 43 18 42
3 43 44 18
3 224 44 225
3 226 225 43
3 224 225 226
3 228 227 44
3 45 229 230
3 45 231 233
3 231 21 232
3 231 232 233
3 46 47 8
3 48 47 46
3 48 22 47
3 48 49 22
3 50 49 48
3 50 23 49
3 50 51 23
3 52 51 50
3 52 25 51
3 53 54 9
3 55 54 53
3 55 26 54
3 55 56 26
3 234 56 235
3 236 235 55
3 234 235 236
3 238 237 56
3 57 239 240
3 57 241 242
3 57 243 245
3 243 58 244
3 243 244 245
3 59 58 57
3 59 27 58
3 60 61 20
3 62 61 60
3 62 28 61
3 63 64 11
3 65 64 63
3 65 29 64
3 65 66 29
3 67 66 65
3 67 246 248
3 248 247 66
3 246 247 248
3 67 249 250
3 252 251 67
3 68 253 255
3 255 254 14
3 253 254 255
3 69 256 258
3 258 257 68
3 256 257 258
3 69 259 260
3 69 261 262
3 70 263 265
3 265 264 69
3 263 264 265
3 70 266 267
3 71 72 24
3 73 72 71
3 73 30 72
3 74 75 17
3 76 75 74
3 76 31 75
3 76 77 31
3 78 77 76
3 78 32 77
3 78 79 32
3 80 79 78
3 80 33 79
3 81 82 19
3 268 82 269
3 270 269 81
3 268 269 270
3 272 271 82
3 273 8 274
3 83 275 276
3 83 277 279
3 277 8 278
3 277 278 279
3 83 46 8
3 84 46 83
3 84 2 46
3 84 85 2
3 86 85 84
3 86 9 85
3 280 86 281
3 282 86 283
3 284 9 285
3 286 285 86
3 284 285 286
3 287 53 288
3 289 288 9
3 287 288 289
3 290 53 291
3 294 293 53
3 292 293 294
3 87 295 296
3 87 297 299
3 297 4 298
3 297 298 299
3 88 89 1
3 90 89 88
3 90 11 89
3 35 90 10
3 91 90 35
3 91 11 90
3 91 63 11
3 92 63 91
3 92 5 63
3 92 300 302
3 302 301 5
3 300 301 302
3 93 303 305
3 305 304 92
3 303 304 305
3 93 306 307
3 37 93 12
3 94 93 37
3 94 308 310
3 310 309 93
3 308 309 310
3 94 311 312
3 314 313 94
3 95 315 316
3 95 317 319
3 317 14 318
3 317 318 319
3 39 95 13
3 96 95 39
3 96 14 95
3 96 68 14
3 97 68 96
3 97 6 68
3 98 99 3
3 100 99 98
3 100 17 99
3 42 100 16
3 101 100 42
3 101 17 100
3 101 74 17
3 102 74 101
3 102 7 74
3 102 103 7
3 104 103 102
3 104 19 103
3 44 104 18
3 105 104 44
3 105 19 104
3 105 81 19
3 106 81 105
3 106 320 322
3 322 321 81
3 320 321 322
3 107 323 324
3 107 325 326
3 327 20 328
3 108 329 330
3 108 331 333
3 331 20 332
3 331 332 333
3 108 60 20
3 109 60 108
3 109 1 60
3 334 45 335
3 110 336 338
3 336 45 337
3 336 337 338
3 110 21 45
3 47 110 8
3 111 110 47
3 111 21 110
3 111 109 21
3 112 109 111
3 112 1 109
3 112 88 1
3 113 88 112
3 113 10 88
3 49 113 22
3 114 113 49
3 114 10 113
3 114 34 10
3 115 34 114
3 115 0 34
3 115 116 0
3 117 116 115
3 117 24 116
3 51 117 23
3 118 117 51
3 118 24 117
3 118 71 24
3 119 71 118
3 119 3 71
3 85 52 2
3 120 52 85
3 120 25 52
3 54 120 9
3 121 120 54
3 121 25 120
3 121 119 25
3 122 119 121
3 122 3 119
3 122 98 3
3 123 98 122
3 123 16 98
3 56 123 26
3 124 123 56
3 124 16 123
3 124 41 16
3 339 41 340
3 341 340 124
3 339 340 341
3 343 342 41
3 344 106 345
3 346 106 347
3 349 348 106
3 58 350 351
3 353 352 58
3 61 354 356
3 356 355 20
3 354 355 356
3 125 357 359
3 359 358 61
3 357 358 359
3 125 360 361
3 125 362 364
3 362 87 363
3 362 363 364
3 126 87 125
3 126 4 87
3 89 62 1
3 127 62 89
3 127 28 62
3 64 127 11
3 128 127 64
3 128 28 127
3 128 126 28
3 129 126 128
3 129 4 126
3 129 59 4
3 130 59 129
3 130 27 59
3 66 130 29
3 131 130 66
3 131 27 130
3 131 365 367
3 367 366 27
3 365 366 367
3 369 368 131
3 371 370 5
3 373 372 14
3 116 40 0
3 132 40 116
3 132 15 40
3 72 132 24
3 133 132 72
3 133 15 132
3 133 97 15
3 134 97 133
3 134 6 97
3 99 73 3
3 135 73 99
3 135 30 73
3 75 135 17
3 136 135 75
3 136 30 135
3 136 134 30
3 137 134 136
3 137 6 134
3 137 70 6
3 138 70 137
3 138 374 376
3 376 375 70
3 374 375 376
3 77 138 31
3 377 138 378
3 379 378 77
3 377 378 379
3 381 380 138
3 79 382 384
3 384 383 32
3 382 383 384
3 139 385 387
3 387 386 79
3 385 386 387
3 139 388 389
3 139 390 392
3 390 107 391
3 390 391 392
3 140 107 139
3 140 393 395
3 395 394 107
3 393 394 395
3 103 80 7
3 141 80 103
3 141 33 80
3 82 141 19
3 142 141 82
3 142 33 141
3 142 140 33
3 396 140 397
3 398 397 142
3 396 397 398
3 400 399 140
