ply
format ascii 1.0
element vertex 181
property float x
property float y
property float z
element face 171
property list uchar int vertex_index
end_header
24.74509 29.723717 27.637377
19.046858 30.594528 36.38472
20.079683 39.249615 29.300928
25.3361 36.978184 19.961866
30.528389 28.022379 18.640472
22.015308 30.015623 32.065186
19.754797 34.95771 32.890675
22.479275 34.198952 28.454584
22.667292 38.101746 24.796415
25.195086 33.401226 23.831646
27.864557 32.384258 19.404081
27.546375 29.142345 23.115299
21.120462 25.686068 35.611652
23.404484 29.748302 29.915873
22.166149 32.221615 30.433994
23.533096 31.933678 28.185066
23.791945 33.952305 26.119457
24.990744 31.538469 25.816002
26.395304 31.212152 23.451984
26.140554 29.302877 25.496548
22.599012 25.559298 33.516342
19.924852 37.143898 31.152813
24.003695 37.589409 22.330412
29.213427 30.204437 18.953478
29.215391 31.831379 17.1441
20.543804 30.275663 34.288086
19.367809 32.825218 34.766609
20.824059 32.345364 32.670307
21.068817 34.634079 30.777164
21.237959 36.729221 28.937635
21.314346 38.843121 27.069035
22.500948 36.378273 26.674791
23.899567 35.754566 24.326385
25.275505 35.239658 21.913715
26.637714 34.614929 19.62747
26.528027 32.945034 21.580694
27.757915 30.790161 21.229279
29.060081 28.648096 20.795425
19.624474 25.861065 37.614655
20.098463 28.162766 35.989227
21.575209 27.775015 33.976128
23.006765 27.725897 31.775824
24.485497 27.639751 29.455103
25.860256 27.393917 27.355734
27.363726 27.242218 24.951536
28.776726 26.928774 22.803534
18.510125 31.77824 36.579943
18.294313 30.59209 37.421913
19.471106 39.466864 30.313788
19.39369 38.414006 31.23973
20.002268 38.196756 30.22687
19.489212 40.608658 29.416318
19.471106 39.466864 30.313788
20.095861 40.279947 28.421199
19.489212 40.608658 29.416318
24.634263 38.247292 20.219136
23.96806 38.552904 21.403409
24.669897 37.283797 21.146139
25.321304 37.832388 19.027567
24.634263 38.247292 20.219136
25.982287 36.682949 18.797417
25.321304 37.832388 19.027567
30.557305 28.862163 17.659264
29.899825 29.953191 17.815767
29.870908 29.113408 18.796975
31.242579 27.700321 17.564571
30.557305 28.862163 17.659264
20.372468 25.773567 36.613153
20.127309 24.645025 37.40106
20.875303 24.557527 36.399559
23.500639 26.715543 31.558035
22.802889 26.642598 32.646083
23.296763 25.632244 32.428294
24.240005 26.67247 30.397675
23.746131 27.682824 30.615464
23.500639 26.715543 31.558035
25.012224 26.516463 29.293308
24.240005 26.67247 30.397675
19.0703 35.147527 33.896937
18.876806 34.081282 34.834904
19.561303 33.891464 33.828642
22.032299 39.38106 25.026784
21.355826 39.751747 26.163094
21.990819 38.472433 25.932725
27.913983 33.2393 18.336863
27.300561 34.354635 18.448558
27.251136 33.499594 19.515776
29.297039 32.531139 16.091598
29.928929 31.477514 15.962242
27.185859 26.267555 25.919429
26.611991 27.318067 26.153635
26.434124 26.343404 27.121527
29.309079 25.916152 22.726399
28.605011 26.003532 23.793188
30.057189 25.650616 21.661561
29.524836 26.663238 21.738696
29.309079 25.916152 22.726399
21.595704 24.565751 35.409673
20.875303 24.557527 36.399559
21.350545 23.43721 36.197581
22.334979 24.502367 34.362019
21.859737 25.622683 34.563997
21.595704 24.565751 35.409673
23.107008 24.569579 33.236143
22.334979 24.502367 34.362019
23.296763 25.632244 32.428294
23.107008 24.569579 33.236143
19.259385 37.404545 32.158079
19.174357 36.311451 33.02701
19.839824 36.050804 32.021744
19.259385 37.404545 32.158079
19.39369 38.414006 31.23973
23.346158 38.782189 22.632959
22.677956 39.038357 23.86596
23.335493 37.845578 23.563413
23.346158 38.782189 22.632959
23.96806 38.552904 21.403409
29.900807 30.766662 16.911078
29.214409 31.017908 18.048789
29.899825 29.953191 17.815767
29.928929 31.477514 15.962242
29.900807 30.766662 16.911078
18.858441 29.426591 37.163498
18.294313 30.59209 37.421913
19.405483 24.594201 38.354664
20.127309 24.645025 37.40106
18.922476 25.795748 38.55068
19.405483 24.594201 38.354664
19.14725 27.05986 37.778465
18.922476 25.795748 38.55068
19.384244 28.21071 36.965751
19.14725 27.05986 37.778465
19.861469 27.011916 36.801941
19.57266 29.378647 36.186974
18.858441 29.426591 37.163498
19.384244 28.21071 36.965751
25.699604 26.393546 28.243623
25.172877 27.516834 28.405419
25.012224 26.516463 29.293308
26.434124 26.343404 27.121527
25.699604 26.393546 28.243623
18.6706 32.893585 35.770888
18.510125 31.77824 36.579943
19.207334 31.709873 35.575665
18.6706 32.893585 35.770888
18.876806 34.081282 34.834904
19.0703 35.147527 33.896937
19.174357 36.311451 33.02701
20.713192 40.076701 27.305253
20.095861 40.279947 28.421199
20.697015 39.046368 28.184981
20.713192 40.076701 27.305253
21.355826 39.751747 26.163094
22.032299 39.38106 25.026784
22.677956 39.038357 23.86596
26.633094 35.501322 18.630218
25.982287 36.682949 18.797417
25.986907 35.796556 19.794668
26.633094 35.501322 18.630218
27.300561 34.354635 18.448558
28.589399 32.96286 17.206873
27.913983 33.2393 18.336863
28.539974 32.107819 18.27409
28.589399 32.96286 17.206873
29.297039 32.531139 16.091598
27.898511 26.160255 24.867189
27.185859 26.267555 25.919429
28.070226 27.085496 23.877535
27.898511 26.160255 24.867189
28.605011 26.003532 23.793188
29.666513 27.5229 20.734642
28.918404 27.788435 21.79948
29.524836 26.663238 21.738696
30.400667 27.210041 19.657165
29.794235 28.335237 19.717948
29.666513 27.5229 20.734642
31.084333 27.025161 18.596948
30.400667 27.210041 19.657165
31.798523 26.703103 17.521048
31.242579 27.700321 17.564571
31.084333 27.025161 18.596948
3 0 15 13
3 0 17 15
3 0 19 17
3 1 46 47
3 2 48 50
3 50 49 21
3 48 49 50
3 2 51 52
3 2 53 54
3 3 55 57
3 57 56 22
3 55 56 57
3 3 58 59
3 3 60 61
3 4 62 64
3 64 63 23
3 62 63 64
3 4 65 66
3 5 27 25
3 7 28 14
3 7 29 28
3 7 31 29
3 9 32 16
3 9 33 32
3 9 35 33
3 11 36 18
3 11 37 36
3 12 67 69
3 67 38 68
3 67 68 69
3 12 39 38
3 12 40 39
3 70 41 71
3 72 71 20
3 70 71 72
3 73 42 74
3 75 74 41
3 73 74 75
3 77 76 42
3 6 78 80
3 80 79 26
3 78 79 80
3 8 81 83
3 83 82 30
3 81 82 83
3 10 84 86
3 86 85 34
3 84 85 86
3 88 87 24
3 89 44 90
3 91 90 43
3 89 90 91
3 92 45 93
3 96 95 45
3 94 95 96
3 13 14 5
3 15 14 13
3 15 7 14
3 15 16 7
3 17 16 15
3 17 9 16
3 17 18 9
3 19 18 17
3 19 11 18
3 97 12 98
3 97 98 99
3 100 20 101
3 102 101 12
3 100 101 102
3 103 20 104
3 106 105 20
3 21 107 109
3 109 108 6
3 107 108 109
3 111 110 21
3 22 112 114
3 114 113 8
3 112 113 114
3 116 115 22
3 23 24 10
3 117 24 118
3 119 118 23
3 117 118 119
3 121 120 24
3 25 26 1
3 27 26 25
3 27 6 26
3 14 27 5
3 28 27 14
3 28 6 27
3 28 21 6
3 29 21 28
3 29 2 21
3 29 30 2
3 31 30 29
3 31 8 30
3 16 31 7
3 32 31 16
3 32 8 31
3 32 22 8
3 33 22 32
3 33 3 22
3 33 34 3
3 35 34 33
3 35 10 34
3 18 35 9
3 36 35 18
3 36 10 35
3 36 23 10
3 37 23 36
3 37 4 23
3 122 1 123
3 38 124 125
3 38 126 127
3 38 128 129
3 39 130 132
3 132 131 38
3 130 131 132
3 39 133 135
3 133 1 134
3 133 134 135
3 39 25 1
3 40 25 39
3 40 5 25
3 20 40 12
3 41 40 20
3 41 5 40
3 41 13 5
3 42 13 41
3 42 0 13
3 42 43 0
3 136 43 137
3 138 137 42
3 136 137 138
3 140 139 43
3 26 141 143
3 143 142 1
3 141 142 143
3 145 144 26
3 147 146 6
3 30 148 150
3 150 149 2
3 148 149 150
3 152 151 30
3 154 153 8
3 34 155 157
3 157 156 3
3 155 156 157
3 159 158 34
3 24 160 162
3 162 161 10
3 160 161 162
3 164 163 24
3 43 19 0
3 44 19 43
3 44 11 19
3 165 44 166
3 45 167 169
3 167 44 168
3 167 168 169
3 45 11 44
3 45 37 11
3 170 37 171
3 172 171 45
3 170 171 172
3 173 4 174
3 175 174 37
3 173 174 175
3 176 4 177
3 180 179 4
3 178 179 180
