ply
format ascii 1.0
element vertex 155
property float x
property float y
property float z
element face 145
property list uchar int vertex_index
end_header
19.607821 -9.392749 -65.605782
13.444701 -14.923699 -62.546486
18.9021 -22.793791 -60.080601
25.727671 -12.853556 -63.383682
10.916636 -10.413039 -63.747574
14.284958 -7.527386 -65.832588
16.96113 -11.658252 -64.498337
16.020559 -19.132427 -61.28178
19.495026 -15.325809 -63.141148
22.468559 -18.006666 -61.901386
22.292202 -10.866738 -64.822174
14.202544 -21.045616 -60.21114
14.753943 -16.991606 -61.949707
16.494299 -15.100729 -63.000267
15.222467 -13.234303 -63.593697
20.625593 -20.488239 -61.016075
20.941641 -16.703972 -62.554642
19.223537 -18.788105 -61.705647
23.523939 -8.176571 -65.680847
23.929554 -11.928989 -64.143974
18.846392 -7.597072 -66.305588
20.385851 -7.411275 -66.356758
12.12452 -12.723837 -63.139534
12.573281 -8.974834 -64.839996
13.922001 -11.152685 -64.230782
15.66815 -9.80503 -65.109627
17.292837 -8.488846 -65.85128
18.449503 -10.364349 -65.169319
16.972197 -25.328871 -58.958233
15.570946 -23.24168 -59.58844
17.411747 -21.276392 -60.585995
17.77096 -17.200422 -62.270393
18.130806 -13.523439 -63.827457
19.587528 -11.849392 -64.591675
24.212074 -15.46303 -62.67749
22.513399 -14.430454 -63.355141
20.988541 -13.112321 -64.03154
20.825848 -9.853436 -65.370132
21.896641 -7.571875 -66.159561
14.099322 -15.957653 -62.248097
13.834692 -17.976053 -61.359253
13.180072 -16.9421 -61.657643
19.763846 -21.641015 -60.548338
20.432973 -22.591458 -60.175936
19.571227 -23.744234 -59.708199
25.517081 -10.985034 -64.158237
26.422049 -11.370937 -63.744125
24.828612 -12.391272 -63.763828
24.618023 -10.522751 -64.538384
25.517081 -10.985034 -64.158237
20.748345 -5.99754 -66.859108
19.928599 -6.051302 -66.889084
10.706847 -12.380069 -62.855597
10.152309 -11.254507 -63.114945
11.520578 -11.568438 -63.443554
11.310789 -13.535469 -62.551576
10.706847 -12.380069 -62.855597
13.429119 -8.25111 -65.336292
12.777052 -7.063076 -65.693931
13.632891 -6.339353 -66.190227
17.522104 -6.823016 -66.535576
16.651689 -7.392539 -66.231887
18.298882 -6.377129 -66.76273
18.069615 -8.042959 -66.078434
17.522104 -6.823016 -66.535576
15.96477 -26.295291 -58.466654
16.622353 -27.398725 -58.147604
23.282635 -18.631166 -61.534618
22.331944 -19.985961 -61.110777
23.340317 -16.734848 -62.289438
24.154393 -17.359347 -61.92267
23.282635 -18.631166 -61.534618
10.325806 -9.269337 -64.013492
10.152309 -11.254507 -63.114945
14.482385 -5.669398 -66.631584
13.632891 -6.339353 -66.190227
15.14775 -6.91181 -66.222542
14.482385 -5.669398 -66.631584
13.558993 -20.003059 -60.48997
13.307386 -22.045483 -59.624398
14.478243 -19.018611 -61.080423
13.558993 -20.003059 -60.48997
13.834692 -17.976053 -61.359253
21.410461 -21.226748 -60.668121
20.432973 -22.591458 -60.175936
21.547076 -19.247453 -61.458731
22.331944 -19.985961 -61.110777
21.410461 -21.226748 -60.668121
24.415215 -8.646541 -65.30682
24.118592 -6.796563 -66.061287
23.726746 -10.05278 -64.91241
24.415215 -8.646541 -65.30682
24.618023 -10.522751 -64.538384
12.610789 -15.75322 -61.994406
13.180072 -16.9421 -61.657643
18.601038 -24.892388 -59.248248
19.571227 -23.744234 -59.708199
26.504308 -13.298656 -62.984279
26.422049 -11.370937 -63.744125
19.15887 -6.144201 -66.863499
18.298882 -6.377129 -66.76273
19.616121 -7.504174 -66.331173
19.15887 -6.144201 -66.863499
19.928599 -6.051302 -66.889084
11.950699 -14.653289 -62.29093
11.310789 -13.535469 -62.551576
12.78461 -13.823768 -62.84301
12.610789 -15.75322 -61.994406
11.950699 -14.653289 -62.29093
11.128819 -8.539466 -64.606735
10.325806 -9.269337 -64.013492
11.957141 -7.820363 -65.152946
12.777052 -7.063076 -65.693931
11.744958 -9.693936 -64.293785
11.128819 -8.539466 -64.606735
11.957141 -7.820363 -65.152946
15.839346 -8.050631 -65.861061
14.976554 -8.666208 -65.471108
15.14775 -6.91181 -66.222542
16.480494 -9.146938 -65.480454
15.839346 -8.050631 -65.861061
16.651689 -7.392539 -66.231887
17.636087 -26.159928 -58.687064
17.286243 -28.229782 -57.876435
16.622353 -27.398725 -58.147604
17.937148 -24.061331 -59.519417
18.601038 -24.892388 -59.248248
17.636087 -26.159928 -58.687064
13.947644 -23.103184 -59.369194
13.307386 -22.045483 -59.624398
14.631845 -24.201215 -59.057844
13.947644 -23.103184 -59.369194
14.886745 -22.143648 -59.89979
15.264145 -25.251695 -58.781757
14.631845 -24.201215 -59.057844
16.271572 -24.285275 -59.273336
15.96477 -26.295291 -58.466654
15.264145 -25.251695 -58.781757
25.755474 -14.739293 -62.629265
26.504308 -13.298656 -62.984279
24.997676 -16.04403 -62.276168
24.154393 -17.359347 -61.92267
24.969873 -14.158293 -63.030586
25.755474 -14.739293 -62.629265
24.997676 -16.04403 -62.276168
23.196952 -6.515083 -66.354343
24.118592 -6.796563 -66.061287
22.383303 -6.212735 -66.5937
23.196952 -6.515083 -66.354343
22.71029 -7.874223 -65.920204
21.50374 -6.077841 -66.760509
22.383303 -6.212735 -66.5937
21.141246 -7.491575 -66.25816
20.748345 -5.99754 -66.859108
21.50374 -6.077841 -66.760509
3 1 39 41
3 39 12 40
3 39 40 41
3 1 14 12
3 2 42 44
3 42 15 43
3 42 43 44
3 2 17 15
3 3 45 46
3 3 47 49
3 47 19 48
3 47 48 49
3 50 21 51
3 4 52 53
3 4 54 56
3 54 22 55
3 54 55 56
3 5 57 59
3 57 23 58
3 57 58 59
3 5 24 23
3 5 25 24
3 60 26 61
3 62 20 63
3 64 63 26
3 62 63 64
3 65 28 66
3 7 29 11
3 7 30 29
3 7 31 30
3 6 32 13
3 6 27 32
3 9 67 68
3 9 69 71
3 69 34 70
3 69 70 71
3 9 35 34
3 8 36 16
3 8 33 36
3 10 38 18
3 10 37 38
3 72 4 73
3 74 5 75
3 77 76 5
3 78 11 79
3 12 80 82
3 80 11 81
3 80 81 82
3 12 7 11
3 12 13 7
3 14 13 12
3 14 6 13
3 15 83 84
3 15 85 87
3 85 9 86
3 85 86 87
3 15 16 9
3 17 16 15
3 17 8 16
3 88 18 89
3 19 90 92
3 90 18 91
3 90 91 92
3 19 10 18
3 93 1 94
3 95 2 96
3 97 3 98
3 99 20 100
3 21 101 103
3 101 20 102
3 101 102 103
3 21 0 20
3 22 104 105
3 22 106 108
3 106 1 107
3 106 107 108
3 109 4 110
3 23 111 112
3 23 113 115
3 113 4 114
3 113 114 115
3 23 22 4
3 24 22 23
3 24 1 22
3 24 14 1
3 25 14 24
3 25 6 14
3 116 25 117
3 118 117 5
3 116 117 118
3 26 119 121
3 119 25 120
3 119 120 121
3 26 6 25
3 26 27 6
3 20 27 26
3 20 0 27
3 28 122 124
3 122 123 124
3 28 125 127
3 125 2 126
3 125 126 127
3 11 128 129
3 29 130 132
3 132 131 11
3 130 131 132
3 29 133 134
3 29 135 137
3 135 28 136
3 135 136 137
3 30 28 29
3 30 2 28
3 30 17 2
3 31 17 30
3 31 8 17
3 13 31 7
3 32 31 13
3 32 8 31
3 32 33 8
3 27 33 32
3 27 0 33
3 138 3 139
3 34 140 141
3 34 142 144
3 142 3 143
3 142 143 144
3 34 19 3
3 35 19 34
3 35 10 19
3 16 35 9
3 36 35 16
3 36 10 35
3 36 37 10
3 33 37 36
3 33 0 37
3 18 145 146
3 38 147 149
3 149 148 18
3 147 148 149
3 38 150 151
3 38 152 154
3 152 21 153
3 152 153 154
3 37 21 38
3 37 0 21
