ply
format ascii 1.0
element vertex 458
property float x
property float y
property float z
element face 503
property list uchar int vertex_index
end_header
25.29129 43.441563 12.326591
25.823698 54.93568 -2.441801
31.475224 31.034256 -2.273648
25.648823 49.074089 4.82505
28.418846 42.980377 -2.256566
29.871418 38.420071 3.787259
34.468109 28.166361 3.428074
30.55789 33.826382 10.943452
20.437086 46.882549 21.449648
25.855656 47.091255 -7.729711
25.490911 46.317787 8.302843
27.613411 43.819984 4.249182
27.817257 41.100574 7.766978
30.257576 36.26186 7.253824
27.853693 38.504406 11.617403
18.331011 52.021599 21.678217
25.505648 57.589821 -6.076673
26.376532 51.378014 -5.463036
29.964918 36.789482 -2.400556
28.344809 38.882763 -4.846082
29.441832 32.465351 -4.554312
35.303745 26.627508 6.899845
25.842941 51.926197 1.16939
27.085135 48.761185 -2.233202
27.439148 46.279339 0.972162
29.191891 40.838833 0.668763
31.180286 35.166187 0.414581
33.170441 29.583319 0.37122
32.12756 33.379108 3.48278
32.858303 31.357233 6.942034
33.302227 29.14222 10.467776
24.440023 57.893322 0.902806
23.050562 48.48608 12.924674
20.730972 50.227123 17.38242
22.819685 45.32803 16.880299
20.230137 43.173023 25.597252
22.66007 41.914227 20.999083
25.324266 40.386204 16.007477
28.024189 35.55518 15.30321
30.642467 31.12365 14.780383
27.329922 45.01899 -5.0907
25.414719 44.83984 10.268475
26.59181 43.675014 8.145424
26.590441 42.342163 9.947253
27.756599 39.944672 9.751551
26.55802 41.011013 11.849094
25.733603 56.20327 -4.331831
25.933788 54.456272 -5.802798
26.215628 53.331757 -4.092022
30.676645 33.95483 -2.428037
29.832157 34.892223 -3.563532
30.496992 31.662214 -3.477297
35.598045 25.601166 8.830927
25.75794 50.542355 2.933995
26.635607 49.058334 1.014436
26.615812 47.76823 2.809225
28.701376 41.131886 4.055698
28.521675 42.351337 2.343
29.535343 39.652267 2.227862
30.185646 37.955517 0.484799
30.603271 36.957443 2.013422
31.69459 34.265141 1.931859
30.967407 35.927238 3.689492
30.432119 35.033619 9.133104
31.580847 33.809319 6.913429
31.795898 32.664734 8.79279
33.162876 30.221233 8.640646
31.990807 31.370298 10.710517
19.404268 49.486614 21.46723
19.531454 51.296856 19.429926
20.588539 48.612297 19.327236
21.789268 47.80331 16.99942
21.669914 46.01717 19.170876
20.112038 41.31028 27.54147
22.68862 39.974968 22.935505
23.932426 39.516399 20.476406
24.000549 41.1427 18.502024
25.306509 38.686592 18.093269
26.628702 37.96558 15.689597
26.628475 36.387714 17.632967
30.586222 29.701946 16.678055
31.922529 28.927633 14.648003
31.956768 27.378263 16.48867
25.624657 50.511749 -7.989911
25.034159 48.063473 -8.920063
27.732899 45.849308 -2.318344
27.299459 47.206047 -3.806404
27.92128 43.944172 -3.747542
27.419052 39.749889 -6.020877
33.836128 28.922537 1.775246
34.876728 26.253429 1.968316
25.541544 47.688591 6.624672
26.595728 46.453068 4.529945
26.637396 44.989647 6.256862
27.712917 42.465958 5.992639
28.843407 39.982605 5.710956
30.054192 37.441982 5.436491
29.010548 38.693619 7.476652
29.095125 37.476833 9.361247
29.154686 36.203232 11.302219
18.212313 50.214405 23.635725
19.276936 47.618073 23.593773
25.88072 52.512695 -7.047668
26.251516 49.322342 -6.706703
29.169872 39.820263 -2.44979
28.577095 40.818111 -3.642381
29.191162 37.714428 -3.693779
28.899818 35.463608 -4.74452
34.973698 27.363728 5.02496
35.579323 25.533493 3.570084
36.129448 24.822063 5.332055
25.907213 53.351974 -0.747345
26.445721 51.878365 -2.456095
26.563311 50.461506 -0.655454
27.328457 47.39851 -0.724955
28.073044 44.601231 -0.691259
27.569986 44.956432 2.591153
28.338732 43.436836 0.719962
28.923843 41.594913 -0.906583
29.739634 38.807507 -1.024694
30.599052 35.994801 -1.063262
31.432573 33.247475 -1.129291
32.363743 30.345507 -0.980085
32.100056 32.542568 0.270615
32.751022 31.640266 1.77333
33.354568 30.668737 3.371721
31.368156 34.749283 5.191111
32.576122 32.296741 5.109304
33.71627 29.985693 5.169672
34.119175 28.970583 6.831814
34.443295 27.863047 8.61166
34.503075 26.915628 10.575847
25.280773 57.793556 -2.707179
25.201517 56.475124 -0.761632
25.178875 54.721115 1.029742
24.961784 53.310257 3.044455
24.77495 51.813755 4.952556
24.462074 48.882603 8.607644
24.283264 47.46138 10.569777
24.138914 46.024681 12.534514
21.866518 49.571938 15.036122
22.913879 46.960453 14.870406
24.015907 44.518509 14.575269
19.183483 45.675755 25.674051
20.307207 45.041752 23.612707
21.397306 40.660374 25.257153
21.460382 42.527191 23.30278
21.48505 44.399174 21.335657
22.745335 43.555611 19.014759
24.035954 42.777607 16.53027
25.297949 41.962509 14.13533
26.53105 39.580761 13.838868
27.904617 37.132904 13.463628
29.224674 34.834663 13.20492
27.963408 34.094341 17.269646
29.378687 33.2309 15.039097
30.668861 32.489822 12.786793
32.018734 30.1747 12.628874
33.279926 28.001469 12.523939
26.766167 50.195015 -3.817081
26.838831 48.254715 -5.250027
26.653486 46.243656 -6.372164
27.841303 41.950832 -4.943255
27.026741 42.897949 -6.214925
26.161036 43.87616 -7.373199
31.31864 29.820184 -2.771863
30.829524 30.134163 -3.373687
30.986108 31.348235 -2.875472
31.874235 29.512543 -2.17392
31.31864 29.820184 -2.771863
36.146628 24.485312 8.909978
35.656583 25.114847 9.760093
20.095861 40.279947 28.421199
19.505389 41.63899 28.536589
24.634263 38.247292 20.219136
23.96806 38.552904 21.403409
25.321304 37.832388 19.027567
24.619467 39.101495 19.284838
24.634263 38.247292 20.219136
25.982287 36.682949 18.797417
25.967492 37.537153 17.863118
25.321304 37.832388 19.027567
30.557305 28.862163 17.659264
29.899825 29.953191 17.815767
31.242579 27.700321 17.564571
31.271495 28.540104 16.583362
30.557305 28.862163 17.659264
25.532308 45.921686 -8.123592
25.12156 46.407795 -8.718768
25.444907 47.577364 -8.324887
18.14334 49.303684 24.644003
17.580359 50.603111 24.685444
18.675651 48.005518 24.623027
18.744625 48.916239 23.614749
18.14334 49.303684 24.644003
25.523397 56.645765 -6.724668
25.338248 58.254385 -6.99719
28.861921 32.799267 -5.073749
28.590913 34.298395 -5.168853
29.170825 33.964479 -4.649416
29.110914 31.111261 -4.915133
28.861921 32.799267 -5.073749
24.99942 59.298208 -2.869809
25.249064 58.554548 -3.66549
24.510044 58.691401 -0.067831
24.111471 59.358807 0.789084
24.82077 57.184223 0.070587
24.890791 57.982302 -0.900049
24.510044 58.691401 -0.067831
24.467633 53.974737 3.993872
24.608961 54.741676 2.970197
24.374216 53.226486 4.947923
24.868367 52.562006 3.998506
24.467633 53.974737 3.993872
23.954988 50.247858 8.76142
24.526789 49.623663 7.711264
23.666913 47.97373 11.747225
23.793945 48.723562 10.672602
23.177594 49.235912 11.850051
18.437562 52.923073 20.615403
17.823545 53.39327 21.62178
20.228221 51.573435 17.424295
19.628462 52.108301 18.448048
20.131213 50.761989 18.406173
20.784492 51.163601 16.380292
20.228221 51.573435 17.424295
21.298745 49.89953 16.209271
21.352266 50.836009 15.207144
20.784492 51.163601 16.380292
19.70681 44.424389 25.635652
19.079324 44.832777 26.672858
19.602652 43.581411 26.634459
22.032299 39.38106 25.026784
21.355826 39.751747 26.163094
27.913983 33.2393 18.336863
27.300561 34.354635 18.448558
30.010577 32.177275 14.90974
29.297039 32.531139 16.091598
29.928929 31.477514 15.962242
33.237302 27.39088 13.510387
32.601228 28.464551 13.585971
32.558604 27.853962 14.572419
33.924476 26.82905 12.557821
33.237302 27.39088 13.510387
26.747862 41.728521 -6.646577
27.222897 41.323919 -6.117901
26.944018 40.154491 -6.549552
26.31501 42.217626 -7.225713
26.593888 43.387054 -6.794062
26.747862 41.728521 -6.646577
25.81658 42.710037 -7.724113
26.31501 42.217626 -7.225713
33.190995 28.581343 -0.219555
32.787645 28.962437 -0.895207
32.767092 29.964413 -0.304432
35.743555 24.551562 2.979488
36.093613 24.276212 3.78742
30.209854 30.510019 -3.932886
29.682274 30.911587 -4.471394
29.969412 32.063783 -4.015804
30.209854 30.510019 -3.932886
30.829524 30.134163 -3.373687
36.024974 24.906098 7.972812
35.877825 25.419269 7.007271
35.450895 26.114337 7.865386
36.024974 24.906098 7.972812
36.146628 24.485312 8.909978
24.000459 58.46525 1.835677
24.111471 59.358807 0.789084
24.348081 57.033209 1.899372
24.000459 58.46525 1.835677
22.584979 49.732187 12.985265
23.177594 49.235912 11.850051
19.543602 42.650039 27.606568
19.505389 41.63899 28.536589
20.171087 42.241652 26.569361
19.602652 43.581411 26.634459
19.543602 42.650039 27.606568
23.346158 38.782189 22.632959
22.677956 39.038357 23.86596
23.310523 39.745683 21.705956
23.346158 38.782189 22.632959
23.96806 38.552904 21.403409
29.900807 30.766662 16.911078
29.899825 29.953191 17.815767
30.614345 30.412798 15.729219
29.928929 31.477514 15.962242
29.900807 30.766662 16.911078
32.575724 27.079277 15.492752
32.558604 27.853962 14.572419
31.939649 28.152948 15.568336
25.239309 50.86737 -8.680928
25.461763 52.110546 -8.255123
24.94406 49.643232 -9.146004
25.239309 50.86737 -8.680928
25.329408 49.287611 -8.454987
24.581633 48.540701 -9.5196
24.94406 49.643232 -9.146004
24.661443 46.894132 -9.230402
24.581633 48.540701 -9.5196
24.661443 46.894132 -9.230402
25.12156 46.407795 -8.718768
27.657758 38.09543 -5.891528
27.881931 39.316326 -5.433479
28.120636 37.661867 -5.30413
27.110826 38.383989 -6.39581
27.657758 38.09543 -5.891528
26.944018 40.154491 -6.549552
27.110826 38.383989 -6.39581
33.989672 27.836098 1.147215
33.656828 28.166489 0.445201
33.503284 29.252928 1.073233
34.509971 26.501545 1.243749
33.989672 27.836098 1.147215
34.356428 27.587983 1.871781
34.979326 25.094203 1.412956
34.509971 26.501545 1.243749
17.723802 52.397118 22.724676
17.823545 53.39327 21.62178
17.664454 51.493521 23.70343
17.580359 50.603111 24.685444
18.271662 51.118002 22.656971
17.723802 52.397118 22.724676
17.664454 51.493521 23.70343
25.737467 55.078991 -6.58773
25.523397 56.645765 -6.724668
25.719718 56.023046 -5.939736
25.710932 54.107202 -7.210165
25.737467 55.078991 -6.58773
25.907254 53.484483 -6.425233
25.589795 53.111019 -7.784001
25.710932 54.107202 -7.210165
25.752688 51.512222 -7.51879
25.461763 52.110546 -8.255123
25.589795 53.111019 -7.784001
28.398141 35.952289 -5.253349
28.120636 37.661867 -5.30413
28.622314 37.173186 -4.795301
28.398141 35.952289 -5.253349
28.590913 34.298395 -5.168853
29.110914 31.111261 -4.915133
29.682274 30.911587 -4.471394
36.368675 23.920497 4.668405
36.093613 24.276212 3.78742
35.854385 25.177778 4.45107
36.290676 24.516547 6.223376
35.716596 25.724785 6.11595
35.877825 25.419269 7.007271
36.648111 23.605272 5.561379
36.290676 24.516547 6.223376
36.80934 23.299756 6.452699
36.368675 23.920497 4.668405
36.648111 23.605272 5.561379
35.109099 25.772078 10.632553
35.656583 25.114847 9.760093
35.05056 26.258397 9.703387
25.287312 59.130411 -6.353275
25.338248 58.254385 -6.99719
25.361502 58.45268 -5.350237
25.287312 59.130411 -6.353275
25.475479 57.759405 -4.477816
25.619625 56.896546 -5.204252
25.361502 58.45268 -5.350237
25.507188 56.998413 -3.519505
25.475479 57.759405 -4.477816
25.249064 58.554548 -3.66549
24.930419 58.641518 -1.872823
24.99942 59.298208 -2.869809
25.241145 57.13434 -1.734406
24.930419 58.641518 -1.872823
24.890791 57.982302 -0.900049
24.717506 55.447105 1.96284
24.809449 56.307218 0.966274
24.348081 57.033209 1.899372
25.070329 54.015686 2.037098
24.717506 55.447105 1.96284
24.608961 54.741676 2.970197
24.26798 52.454141 5.873994
24.374216 53.226486 4.947923
24.683226 51.089239 5.883719
24.26798 52.454141 5.873994
25.120163 49.719406 5.819966
25.211886 50.443922 4.888803
24.683226 51.089239 5.883719
25.066523 49.026657 6.719778
25.595183 48.38134 5.724861
25.120163 49.719406 5.819966
25.001809 48.285597 7.616158
25.066523 49.026657 6.719778
24.526789 49.623663 7.711264
23.88335 49.434173 9.691536
23.954988 50.247858 8.76142
24.372669 48.171992 9.588711
23.88335 49.434173 9.691536
23.793945 48.723562 10.672602
19.037783 52.560702 19.491257
18.437562 52.923073 20.615403
18.931233 51.659228 20.554071
19.037783 52.560702 19.491257
19.628462 52.108301 18.448048
21.992957 50.275116 14.040989
21.352266 50.836009 15.207144
22.45854 49.029009 13.980398
22.584979 49.732187 12.985265
21.992957 50.275116 14.040989
18.533168 46.081232 26.73479
19.079324 44.832777 26.672858
18.628925 47.034359 25.663166
18.533168 46.081232 26.73479
19.23021 46.646914 24.633912
18.675651 48.005518 24.623027
18.628925 47.034359 25.663166
20.713192 40.076701 27.305253
20.095861 40.279947 28.421199
20.754672 40.985327 26.399311
20.713192 40.076701 27.305253
21.355826 39.751747 26.163094
22.042963 40.317671 24.096329
22.032299 39.38106 25.026784
22.677956 39.038357 23.86596
26.633094 35.501322 18.630218
25.982287 36.682949 18.797417
27.295942 35.241028 17.451307
26.633094 35.501322 18.630218
27.300561 34.354635 18.448558
28.589399 32.96286 17.206873
27.913983 33.2393 18.336863
28.671048 33.662621 16.154371
28.589399 32.96286 17.206873
29.297039 32.531139 16.091598
34.536051 26.28613 11.583775
33.891501 27.458548 11.549893
33.924476 26.82905 12.557821
35.109099 25.772078 10.632553
34.536051 26.28613 11.583775
31.798523 26.703103 17.521048
31.242579 27.700321 17.564571
32.546098 26.333864 16.460508
31.798523 26.703103 17.521048
32.575724 27.079277 15.492752
32.546098 26.333864 16.460508
25.684998 44.314138 -7.945336
25.532308 45.921686 -8.123592
26.008346 45.483707 -7.551455
25.684998 44.314138 -7.945336
25.81658 42.710037 -7.724113
32.318495 29.168168 -1.527138
31.874235 29.512543 -2.17392
31.919483 30.689881 -1.626866
32.318495 29.168168 -1.527138
32.787645 28.962437 -0.895207
33.190995 28.581343 -0.219555
33.656828 28.166489 0.445201
35.392257 24.91153 2.178603
35.228026 25.893461 2.7692
35.743555 24.551562 2.979488
34.979326 25.094203 1.412956
35.392257 24.91153 2.178603
3 0 43 41
3 0 45 43
3 1 48 46
3 2 51 49
3 2 165 167
3 167 166 51
3 165 166 167
3 2 168 169
3 171 170 52
3 3 55 53
3 5 58 56
3 5 60 58
3 5 62 60
3 7 65 63
3 7 67 65
3 8 70 68
3 8 72 70
3 172 73 173
3 174 75 175
3 176 77 177
3 178 177 75
3 176 177 178
3 179 79 180
3 181 180 77
3 179 180 181
3 182 80 183
3 184 82 185
3 186 185 80
3 184 185 186
3 9 84 83
3 9 187 189
3 189 188 84
3 187 188 189
3 4 87 85
3 6 90 89
3 10 93 91
3 12 94 42
3 12 95 94
3 12 97 95
3 14 98 44
3 14 99 98
3 190 100 191
3 192 101 193
3 194 193 100
3 192 193 194
3 16 195 196
3 17 102 47
3 17 103 102
3 18 106 104
3 20 107 50
3 20 197 199
3 199 198 107
3 197 198 199
3 20 200 201
3 21 110 108
3 22 113 111
3 24 114 54
3 24 115 114
3 11 116 92
3 25 117 57
3 25 118 117
3 25 119 118
3 26 120 59
3 26 121 120
3 26 123 121
3 28 124 61
3 28 125 124
3 13 126 96
3 29 127 64
3 29 128 127
3 29 129 128
3 30 130 66
3 30 131 130
3 202 132 203
3 31 204 205
3 31 206 208
3 206 133 207
3 206 207 208
3 31 134 133
3 209 135 210
3 211 136 212
3 213 212 135
3 211 212 213
3 214 137 215
3 32 216 218
3 216 138 217
3 216 217 218
3 32 139 138
3 15 219 220
3 33 221 223
3 223 222 69
3 221 222 223
3 33 224 225
3 33 226 228
3 226 140 227
3 226 227 228
3 34 141 71
3 34 142 141
3 35 229 231
3 229 143 230
3 229 230 231
3 35 144 143
3 232 145 233
3 36 146 74
3 36 147 146
3 36 148 147
3 37 149 76
3 37 150 149
3 37 151 150
3 38 152 78
3 38 153 152
3 234 154 235
3 39 236 238
3 236 155 237
3 236 237 238
3 39 156 155
3 39 157 156
3 239 158 240
3 241 240 81
3 239 240 241
3 243 242 158
3 23 159 112
3 40 160 86
3 40 161 160
3 19 162 105
3 244 163 245
3 246 245 88
3 244 245 246
3 247 164 248
3 249 248 163
3 247 248 249
3 251 250 164
3 27 252 254
3 254 253 122
3 252 253 254
3 256 255 109
3 41 42 10
3 43 42 41
3 43 12 42
3 43 44 12
3 45 44 43
3 45 14 44
3 46 47 16
3 48 47 46
3 48 17 47
3 49 50 18
3 51 50 49
3 51 20 50
3 51 257 259
3 259 258 20
3 257 258 259
3 261 260 51
3 52 262 264
3 264 263 21
3 262 263 264
3 266 265 52
3 53 54 22
3 55 54 53
3 55 24 54
3 56 57 11
3 58 57 56
3 58 25 57
3 58 59 25
3 60 59 58
3 60 26 59
3 60 61 26
3 62 61 60
3 62 28 61
3 63 64 13
3 65 64 63
3 65 29 64
3 65 66 29
3 67 66 65
3 67 30 66
3 267 31 268
3 270 269 31
3 271 32 272
3 68 69 15
3 70 69 68
3 70 33 69
3 70 71 33
3 72 71 70
3 72 34 71
3 73 273 274
3 73 275 277
3 275 35 276
3 275 276 277
3 278 74 279
3 75 280 282
3 280 74 281
3 280 281 282
3 75 36 74
3 75 76 36
3 77 76 75
3 77 37 76
3 77 78 37
3 79 78 77
3 79 38 78
3 80 283 284
3 80 285 287
3 285 39 286
3 285 286 287
3 80 81 39
3 82 81 80
3 82 288 290
3 290 289 81
3 288 289 290
3 83 291 292
3 84 293 295
3 295 294 83
3 293 294 295
3 84 296 297
3 84 298 299
3 301 300 84
3 85 86 23
3 87 86 85
3 87 40 86
3 302 88 303
3 304 303 19
3 302 303 304
3 305 88 306
3 308 307 88
3 89 309 311
3 311 310 27
3 309 310 311
3 90 312 314
3 314 313 89
3 312 313 314
3 90 315 316
3 91 92 3
3 93 92 91
3 93 11 92
3 42 93 10
3 94 93 42
3 94 11 93
3 94 56 11
3 95 56 94
3 95 5 56
3 95 96 5
3 97 96 95
3 97 13 96
3 44 97 12
3 98 97 44
3 98 13 97
3 98 63 13
3 99 63 98
3 99 7 63
3 317 15 318
3 100 319 320
3 100 321 323
3 321 15 322
3 321 322 323
3 100 68 15
3 101 68 100
3 101 8 68
3 47 324 326
3 326 325 16
3 324 325 326
3 102 327 329
3 329 328 47
3 327 328 329
3 102 330 331
3 102 332 334
3 332 83 333
3 332 333 334
3 103 83 102
3 103 9 83
3 104 105 4
3 106 105 104
3 106 19 105
3 50 106 18
3 107 106 50
3 107 19 106
3 107 335 337
3 337 336 19
3 335 336 337
3 339 338 107
3 341 340 20
3 108 109 6
3 110 109 108
3 110 342 344
3 344 343 109
3 342 343 344
3 345 110 346
3 347 346 21
3 345 346 347
3 348 110 349
3 348 349 350
3 352 351 110
3 111 112 1
3 113 112 111
3 113 23 112
3 54 113 22
3 114 113 54
3 114 23 113
3 114 85 23
3 115 85 114
3 115 4 85
3 92 55 3
3 116 55 92
3 116 24 55
3 57 116 11
3 117 116 57
3 117 24 116
3 117 115 24
3 118 115 117
3 118 4 115
3 118 104 4
3 119 104 118
3 119 18 104
3 59 119 25
3 120 119 59
3 120 18 119
3 120 49 18
3 121 49 120
3 121 2 49
3 121 122 2
3 123 122 121
3 123 27 122
3 61 123 26
3 124 123 61
3 124 27 123
3 124 89 27
3 125 89 124
3 125 6 89
3 96 62 5
3 126 62 96
3 126 28 62
3 64 126 13
3 127 126 64
3 127 28 126
3 127 125 28
3 128 125 127
3 128 6 125
3 128 108 6
3 129 108 128
3 129 21 108
3 66 129 29
3 130 129 66
3 130 21 129
3 130 52 21
3 131 52 130
3 131 353 355
3 355 354 52
3 353 354 355
3 356 16 357
3 358 16 359
3 360 46 361
3 362 361 16
3 360 361 362
3 132 363 365
3 363 46 364
3 363 364 365
3 132 1 46
3 366 132 367
3 133 368 370
3 368 132 369
3 368 369 370
3 133 1 132
3 133 111 1
3 134 111 133
3 134 22 111
3 371 134 372
3 373 372 31
3 371 372 373
3 135 374 376
3 374 134 375
3 374 375 376
3 135 22 134
3 135 53 22
3 136 53 135
3 136 3 53
3 377 136 378
3 379 136 380
3 381 3 382
3 383 382 136
3 381 382 383
3 384 91 385
3 386 385 3
3 384 385 386
3 137 387 389
3 387 91 388
3 387 388 389
3 137 10 91
3 390 137 391
3 138 392 394
3 392 137 393
3 392 393 394
3 138 10 137
3 138 41 10
3 139 41 138
3 139 0 41
3 69 395 397
3 397 396 15
3 395 396 397
3 399 398 69
3 140 400 401
3 140 402 404
3 402 32 403
3 402 403 404
3 71 140 33
3 141 140 71
3 141 32 140
3 141 139 32
3 142 139 141
3 142 0 139
3 143 405 406
3 143 407 408
3 143 409 411
3 409 101 410
3 409 410 411
3 144 101 143
3 144 8 101
3 412 73 413
3 145 414 416
3 414 73 415
3 414 415 416
3 145 35 73
3 74 417 419
3 417 145 418
3 417 418 419
3 146 145 74
3 146 35 145
3 146 144 35
3 147 144 146
3 147 8 144
3 147 72 8
3 148 72 147
3 148 34 72
3 76 148 36
3 149 148 76
3 149 34 148
3 149 142 34
3 150 142 149
3 150 0 142
3 150 45 0
3 151 45 150
3 151 14 45
3 78 151 37
3 152 151 78
3 152 14 151
3 152 99 14
3 153 99 152
3 153 7 99
3 420 79 421
3 154 422 424
3 422 79 423
3 422 423 424
3 154 38 79
3 425 154 426
3 155 427 429
3 427 154 428
3 427 428 429
3 155 38 154
3 155 153 38
3 156 153 155
3 156 7 153
3 156 67 7
3 157 67 156
3 157 30 67
3 81 157 39
3 158 157 81
3 158 30 157
3 158 131 30
3 430 131 431
3 432 431 158
3 430 431 432
3 434 433 131
3 435 82 436
3 437 82 438
3 440 439 82
3 112 48 1
3 159 48 112
3 159 17 48
3 86 159 23
3 160 159 86
3 160 17 159
3 160 103 17
3 161 103 160
3 161 9 103
3 105 87 4
3 162 87 105
3 162 40 87
3 88 162 19
3 163 162 88
3 163 40 162
3 163 161 40
3 164 161 163
3 164 9 161
3 164 441 443
3 443 442 9
3 441 442 443
3 445 444 164
3 122 446 448
3 448 447 2
3 446 447 448
3 450 449 122
3 452 451 27
3 109 90 6
3 453 90 454
3 455 454 109
3 453 454 455
3 457 456 90
