ply
format ascii 1.0
element vertex 36
property float x
property float y
property float z
element face 23
property list uchar int vertex_index
end_header
15.352971 -35.365559 -32.414837
13.81737 -34.095699 -34.068417
12.239736 -32.67281 -35.768799
14.86137 -36.325375 -32.912142
15.602308 -36.89069 -32.096698
14.09357 -35.690445 -33.738932
14.585171 -34.730629 -33.241627
14.86137 -36.325375 -32.912142
11.844178 -33.4002 -36.180884
12.588684 -34.149321 -35.365715
11.464896 -31.854552 -36.627274
11.844178 -33.4002 -36.180884
16.093604 -35.980372 -31.596578
15.602308 -36.89069 -32.096698
15.874554 -34.473703 -31.946506
16.093604 -35.980372 -31.596578
15.065571 -33.88912 -32.816248
15.874554 -34.473703 -31.946506
14.297771 -33.25419 -33.643038
15.065571 -33.88912 -32.816248
14.585171 -34.730629 -33.241627
13.502549 -32.586619 -34.493095
14.297771 -33.25419 -33.643038
13.377501 -34.860765 -34.515524
14.09357 -35.690445 -33.738932
13.6537 -36.455512 -34.186039
13.028553 -33.384254 -34.918608
13.377501 -34.860765 -34.515524
12.588684 -34.149321 -35.365715
12.713732 -31.875174 -35.343287
13.502549 -32.586619 -34.493095
13.028553 -33.384254 -34.918608
11.948029 -31.241414 -36.16516
12.713732 -31.875174 -35.343287
11.948029 -31.241414 -36.16516
11.464896 -31.854552 -36.627274
3 3 0 4
3 5 1 6
3 7 6 0
3 5 6 7
3 8 2 9
3 11 10 2
3 0 12 13
3 0 14 15
3 0 16 17
3 1 18 20
3 20 19 0
3 18 19 20
3 1 21 22
3 23 1 24
3 23 24 25
3 2 26 28
3 26 1 27
3 26 27 28
3 2 29 31
3 31 30 1
3 29 30 31
3 2 32 33
3 35 34 2
