ply
format ascii 1.0
element vertex 94
property float x
property float y
property float z
element face 77
property list uchar int vertex_index
end_header
2.545226 95.914993 4.384449
4.156519 94.127647 9.295656
0.439478 91.46373 8.83088
-3.719533 93.989616 -1.438025
-1.742771 92.876678 3.718219
1.703526 96.785629 1.616633
1.423168 93.829361 6.421281
-0.594569 92.165184 6.446232
0.336539 94.423859 3.98792
-0.496335 95.22821 1.330866
3.456579 95.14045 6.853616
2.357841 93.040573 8.819763
-4.945193 91.700172 0.922323
-1.537338 89.840431 8.742799
-2.656881 90.571968 6.186952
-3.810238 91.255196 3.461417
-2.805229 93.472557 1.078287
3.14894 96.99908 3.198122
2.72809 97.434399 1.814214
2.124376 96.350311 3.000541
4.746591 95.16444 8.333752
4.396621 95.670841 7.112732
3.806549 94.634049 8.074636
3.25718 93.58411 9.057709
2.76373 92.544441 10.023678
3.663069 93.087978 10.261624
-4.843942 93.027374 -1.491758
-5.456772 91.882652 -0.311584
-4.332363 92.844894 -0.257851
-0.54893 90.65208 8.786839
-1.064456 89.407059 9.935016
-0.076048 90.218708 9.979057
-1.031613 95.487572 -0.037532
0.12133 96.308876 0.120863
5.016032 94.577377 9.568219
4.468038 93.621071 10.395932
4.468038 93.621071 10.395932
3.663069 93.087978 10.261624
-4.289373 94.127918 -2.796243
-3.117913 95.10508 -2.795861
2.407865 97.937736 0.294883
1.22126 97.087586 0.263746
2.407865 97.937736 0.294883
2.72809 97.434399 1.814214
1.22126 97.087586 0.263746
0.12133 96.308876 0.120863
0.603596 96.00692 1.47375
4.059065 96.181218 5.834057
3.603389 96.568489 4.599474
3.000903 95.527721 5.619032
4.059065 96.181218 5.834057
4.396621 95.670841 7.112732
4.746591 95.16444 8.333752
5.016032 94.577377 9.568219
0.907685 91.045967 9.995874
-0.076048 90.218708 9.979057
1.866866 91.834388 9.990315
2.76373 92.544441 10.023678
1.398659 92.252151 8.825322
0.907685 91.045967 9.995874
1.866866 91.834388 9.990315
-6.020407 90.670574 0.975046
-5.395164 90.555428 2.188403
-6.020407 90.670574 0.975046
-5.456772 91.882652 -0.311584
-4.843942 93.027374 -1.491758
-4.289373 94.127918 -2.796243
3.14894 96.99908 3.198122
3.603389 96.568489 4.599474
-2.011686 88.622173 9.862796
-1.064456 89.407059 9.935016
-2.592692 88.989643 8.618094
-2.011686 88.622173 9.862796
-3.152463 89.355412 7.340171
-2.592692 88.989643 8.618094
-2.09711 90.206199 7.464875
-3.729024 89.642098 6.137222
-3.152463 89.355412 7.340171
-4.305703 89.983711 4.774455
-3.729024 89.642098 6.137222
-3.23356 90.913582 4.824184
-4.827687 90.33294 3.45795
-4.305703 89.983711 4.774455
-4.377715 91.477684 2.19187
-5.395164 90.555428 2.188403
-4.827687 90.33294 3.45795
-2.18606 94.609745 -0.163822
-1.650782 94.350383 1.204576
-1.031613 95.487572 -0.037532
-2.643212 94.868274 -1.421978
-3.262381 93.731087 -0.179869
-2.18606 94.609745 -0.163822
-3.117913 95.10508 -2.795861
-2.643212 94.868274 -1.421978
3 0 17 19
3 19 18 5
3 17 18 19
3 0 8 6
3 0 5 8
3 1 20 22
3 22 21 10
3 20 21 22
3 1 23 25
3 23 11 24
3 23 24 25
3 1 10 11
3 3 26 28
3 28 27 12
3 26 27 28
3 2 29 31
3 29 13 30
3 29 30 31
3 4 14 7
3 4 15 14
3 4 16 15
3 33 32 9
3 35 34 1
3 36 1 37
3 39 38 3
3 5 40 41
3 43 42 5
3 6 7 2
3 8 7 6
3 8 4 7
3 8 9 4
3 5 9 8
3 5 44 46
3 46 45 9
3 44 45 46
3 10 47 49
3 49 48 0
3 47 48 49
3 51 50 10
3 53 52 1
3 54 2 55
3 11 56 57
3 11 58 60
3 58 2 59
3 58 59 60
3 11 6 2
3 10 6 11
3 10 0 6
3 12 61 62
3 64 63 12
3 66 65 3
3 68 67 0
3 13 69 70
3 13 71 72
3 7 13 2
3 14 13 7
3 14 73 75
3 75 74 13
3 73 74 75
3 14 76 77
3 15 78 80
3 80 79 14
3 78 79 80
3 15 81 82
3 15 83 85
3 83 12 84
3 83 84 85
3 16 12 15
3 16 3 12
3 9 16 4
3 86 16 87
3 88 87 9
3 86 87 88
3 89 3 90
3 91 90 16
3 89 90 91
3 93 92 3
