ply
format ascii 1.0
element vertex 382
property float x
property float y
property float z
element face 408
property list uchar int vertex_index
end_header
-36.557617 42.758991 13.262677
-32.247368 33.835491 32.635391
-32.110786 49.336823 27.60648
-34.208519 38.426914 23.43647
-31.746517 17.371428 35.794411
-34.010738 21.842196 27.896503
-36.924149 26.342411 18.664936
-31.136248 59.787544 30.12051
-31.144028 29.094894 41.355465
-31.931911 55.944073 24.644115
-32.734913 51.45232 22.900045
-32.094318 25.579681 34.408314
-32.758366 19.700006 31.897202
-33.008766 27.836756 30.41053
-35.353409 41.0303 18.477612
-35.551529 32.37114 21.230562
-36.858196 34.499058 16.277618
-38.306709 27.956951 13.472498
-30.919729 20.844721 42.795479
-32.258957 41.879307 30.228645
-33.103737 36.12841 28.220528
-33.002907 44.06916 25.624708
-33.934837 46.416031 20.752296
-33.61861 13.569678 29.25742
-34.22905 30.090609 25.916723
-35.463085 24.337927 23.412035
-31.030048 15.023879 39.612534
-31.375313 23.199833 38.564407
-31.591516 31.403679 37.03791
-30.940042 35.093159 44.132442
-31.262018 37.241623 39.496414
-31.682726 39.552341 34.888474
-31.651876 47.329689 32.205891
-31.552652 54.45821 28.947731
-37.367821 39.511211 11.985182
-37.90564 40.447441 9.09131
-32.179825 29.535028 33.673248
-32.527699 26.724077 32.399586
-32.590248 31.145416 31.534458
-35.958332 42.015713 15.884727
-36.09848 37.874977 17.419367
-36.722713 38.899921 14.766443
-37.484669 35.673397 13.520698
-32.212242 45.657539 28.884216
-32.599705 42.964024 27.973616
-32.512333 46.802696 26.628277
-33.278557 48.913948 21.958454
-33.330856 20.785135 30.010496
-33.182995 16.678503 30.558676
-33.821568 17.732832 28.689884
-34.382908 14.681535 27.205223
-34.598923 18.684998 26.48266
-33.632324 37.474831 25.791687
-33.615372 33.347279 27.124163
-34.20145 34.277328 24.890013
-36.208061 29.287645 20.117735
-35.502934 28.251904 22.501852
-36.240479 25.162737 21.003225
-36.095592 21.114414 22.096098
-36.844265 21.805738 19.820078
-31.289391 60.279984 27.671223
-31.046383 24.848791 42.076183
-31.111485 22.060658 40.704006
-31.250948 26.045889 39.917747
-31.509932 27.340841 37.797642
-31.348755 30.153255 39.154491
-31.287228 41.248238 38.328445
-31.461706 38.376995 37.142979
-31.468733 42.625359 35.930481
-31.677975 43.663902 33.586361
-31.198454 56.365646 31.89786
-31.387239 53.71064 31.294176
-31.332335 57.188751 29.527542
-31.499418 57.610695 27.252522
-32.031837 52.736549 26.082054
-32.403915 50.362328 25.264143
-32.29969 53.709064 23.78437
-31.926065 21.50906 35.219501
-32.225174 18.449554 33.822376
-32.383118 22.555559 33.23835
-32.93681 23.900707 31.101353
-33.527012 25.062069 29.014273
-34.804298 39.583126 20.976297
-34.839672 35.465405 22.444736
-35.456287 36.677925 20.025362
-36.185326 33.61544 18.830004
-36.886074 30.528727 17.616112
-37.606544 27.2288 16.218353
-37.60387 31.363972 14.885789
-38.206436 32.287548 12.224018
-30.897379 23.833021 44.286518
-30.988056 27.832216 43.474571
-32.261749 38.046082 31.517256
-32.657864 34.99699 30.411398
-32.641483 39.055695 29.270721
-33.073154 40.093494 26.989906
-33.570919 41.297684 24.55513
-32.868919 47.866913 24.327827
-33.451134 45.243771 23.215956
-34.097458 42.479687 22.118971
-34.615002 43.445538 19.831594
-35.166645 44.852615 17.142178
-32.550957 15.409631 32.511745
-33.086761 31.833254 29.399815
-33.597549 29.294043 28.118589
-34.165836 26.089657 26.893724
-34.837669 31.294888 23.733042
-34.82325 27.160337 24.742907
-34.750034 22.899487 25.655468
-35.364052 20.143208 24.256754
-31.334286 16.04488 37.776043
-30.977898 18.124397 41.061596
-31.215443 19.151419 39.165947
-31.547438 20.14679 37.111942
-31.700987 24.276085 36.486202
-31.809629 28.477978 35.766239
-31.894363 32.796921 34.808094
-30.906649 31.066296 45.05658
-31.040424 31.962505 42.87785
-31.084352 36.185764 41.904167
-31.205654 33.246494 40.603092
-31.399281 34.236263 38.425388
-31.635096 35.365059 36.199364
-31.937729 36.577038 33.814903
-31.94072 40.614891 32.65659
-31.93811 44.413944 31.236496
-31.865152 48.274704 29.925936
-31.604511 50.973763 30.662052
-31.79862 51.830822 28.39319
-31.735786 55.099113 26.769865
-36.823433 43.212638 11.901789
-37.228535 41.588749 11.263042
-36.962719 41.135101 12.623929
-31.865277 15.804475 35.124566
-31.641511 15.260057 35.999275
-37.230373 24.572628 18.081327
-37.190432 22.304292 18.658898
-36.884207 24.074075 19.242507
-31.114888 61.377868 29.070729
-31.191459 61.624088 27.846086
-31.212819 60.033764 28.895867
-31.281549 43.338484 37.704784
-31.205883 42.742047 38.879601
-31.372302 44.027045 36.505802
-31.37798 41.936799 37.129463
-31.281549 43.338484 37.704784
-31.461118 44.529601 35.270998
-31.372302 44.027045 36.505802
-38.138205 40.843218 7.641559
-37.768085 42.441097 8.289929
-38.172314 34.230219 11.423347
-37.845552 33.980473 12.872358
-37.81143 35.923144 12.071687
-38.519441 32.535141 10.734894
-38.172314 34.230219 11.423347
-30.882957 25.371959 44.946558
-30.846965 23.302218 45.332897
-30.928296 27.371557 44.540584
-30.942718 25.832618 43.880544
-30.882957 25.371959 44.946558
-35.052487 46.80623 16.386827
-34.797402 46.157358 17.73536
-35.45698 45.367059 15.77981
-35.052487 46.80623 16.386827
-33.280895 13.143473 30.19869
-33.063087 14.697885 30.849318
-33.400802 15.12409 29.908048
-33.475894 11.529595 29.535626
-33.280895 13.143473 30.19869
-33.87531 12.078699 28.514038
-33.475894 11.529595 29.535626
-34.653254 13.035839 26.476631
-34.769762 15.280205 26.160371
-36.001129 18.907471 22.574722
-36.389566 19.383032 21.453094
-38.270964 25.85304 14.194346
-37.920881 25.488965 15.567274
-37.956626 27.592875 14.845426
-31.086281 13.621148 38.852868
-30.928173 12.986273 39.760454
-31.182167 15.53438 38.694288
-31.238399 14.131649 37.934622
-31.086281 13.621148 38.852868
-30.948813 19.484559 41.928538
-30.885889 17.423152 42.029921
-30.856804 18.783314 42.896862
-30.923345 33.079728 44.594511
-30.849484 32.545645 45.763645
-30.86618 34.559077 45.301576
-31.173185 36.713693 40.700291
-31.102103 38.107954 41.31069
-31.190936 38.635883 40.106814
-31.58131 57.920876 26.205008
-31.473919 59.031447 26.448647
-32.064766 56.351704 23.492859
-31.899659 57.319212 23.899777
-37.63673 39.979326 10.538246
-38.021915 38.310165 9.856993
-37.753006 37.84205 11.303929
-37.497445 42.056863 9.816106
-37.63673 39.979326 10.538246
-37.228535 41.588749 11.263042
-37.768085 42.441097 8.289929
-37.497445 42.056863 9.816106
-37.753006 37.84205 11.303929
-37.81143 35.923144 12.071687
-37.426245 37.592304 12.75294
-33.209534 50.643259 21.207485
-33.006735 50.183134 22.429249
-32.937712 51.912445 21.67828
-33.504473 49.535148 20.670493
-33.209534 50.643259 21.207485
-33.832613 48.28619 20.067414
-33.606697 47.664989 21.355375
-33.504473 49.535148 20.670493
-34.181498 46.939066 19.540419
-33.832613 48.28619 20.067414
-34.877769 17.281937 25.79909
-34.769762 15.280205 26.160371
-34.490915 16.683267 26.843941
-36.763903 19.728693 20.315084
-36.389566 19.383032 21.453094
-36.469929 21.460076 20.958088
-37.132532 20.162532 19.172263
-36.763903 19.728693 20.315084
-37.132532 20.162532 19.172263
-37.190432 22.304292 18.658898
-38.605362 26.101563 12.833678
-38.587436 28.356597 12.172248
-31.274848 61.714882 26.683019
-31.368905 60.366091 26.657998
-31.274848 61.714882 26.683019
-31.191459 61.624088 27.846086
-30.913148 14.498211 40.565012
-30.928173 12.986273 39.760454
-30.868127 36.567161 44.788726
-30.86618 34.559077 45.301576
-31.203541 40.639191 39.522829
-31.205883 42.742047 38.879601
-31.274623 39.24493 38.91243
-31.190936 38.635883 40.106814
-31.203541 40.639191 39.522829
-31.565739 45.048872 34.098938
-31.573354 43.144631 34.758421
-31.461118 44.529601 35.270998
-31.552689 46.881766 33.408703
-31.664926 45.496796 32.896126
-31.565739 45.048872 34.098938
-31.292847 55.038143 31.596018
-31.311409 53.306393 32.514327
-31.217016 54.633895 32.816169
-31.368905 60.366091 26.657998
-31.473919 59.031447 26.448647
-31.394405 58.94534 27.461872
-32.248655 55.2342 23.062986
-32.1158 54.826569 24.214242
-32.064766 56.351704 23.492859
-32.468241 54.200469 22.55277
-32.248655 55.2342 23.062986
-32.685852 53.072097 22.110607
-32.517302 52.580692 23.342208
-32.468241 54.200469 22.55277
-32.937712 51.912445 21.67828
-32.685852 53.072097 22.110607
-38.274008 38.709623 8.442013
-38.021915 38.310165 9.856993
-38.274008 38.709623 8.442013
-38.138205 40.843218 7.641559
-38.5373 30.521895 11.548008
-38.587436 28.356597 12.172248
-38.256572 30.12225 12.848258
-38.5373 30.521895 11.548008
-38.519441 32.535141 10.734894
-31.043621 61.081749 30.337795
-31.066234 59.447054 31.393822
-30.859158 20.329192 43.783026
-30.856804 18.783314 42.896862
-30.847983 21.823341 44.528545
-30.846965 23.302218 45.332897
-30.908554 22.338871 43.540999
-30.859158 20.329192 43.783026
-30.847983 21.823341 44.528545
-31.125754 55.994028 33.180049
-31.217016 54.633895 32.816169
-31.097337 57.736105 32.282497
-31.125754 55.994028 33.180049
-31.066234 59.447054 31.393822
-31.167351 58.076595 31.009185
-31.097337 57.736105 32.282497
-36.41836 44.766102 12.509928
-36.152466 44.320248 13.84006
-34.52158 45.453819 19.080067
-34.274919 44.930785 20.291945
-34.181498 46.939066 19.540419
-34.890823 44.149076 18.486886
-34.52158 45.453819 19.080067
-34.797402 46.157358 17.73536
-35.852823 43.948608 15.151085
-35.562489 43.434164 16.513452
-35.45698 45.367059 15.77981
-36.152466 44.320248 13.84006
-36.257975 42.387352 14.573702
-35.852823 43.948608 15.151085
-36.823433 43.212638 11.901789
-36.41836 44.766102 12.509928
-32.104606 16.343538 34.138548
-31.865277 15.804475 35.124566
-31.985846 17.910491 34.808393
-32.267497 14.823576 33.483232
-32.104606 16.343538 34.138548
-32.388065 16.929592 33.16706
-32.42836 13.32952 32.753313
-32.267497 14.823576 33.483232
-32.747068 14.06345 31.825853
-32.866976 16.044067 31.53521
-33.063087 14.697885 30.849318
-32.42836 13.32952 32.753313
-32.747068 14.06345 31.825853
-34.257459 12.634628 27.48794
-33.87531 12.078699 28.514038
-34.000759 14.125606 28.231321
-34.257459 12.634628 27.48794
-34.653254 13.035839 26.476631
-35.260334 18.011042 24.686136
-34.877769 17.281937 25.79909
-34.981488 19.414103 25.369707
-35.635359 18.421869 23.65505
-35.729822 20.628811 23.176426
-36.001129 18.907471 22.574722
-35.260334 18.011042 24.686136
-35.635359 18.421869 23.65505
-37.571571 25.015822 16.858035
-37.230373 24.572628 18.081327
-37.265346 26.785605 17.441645
-37.571571 25.015822 16.858035
-37.920881 25.488965 15.567274
-38.270964 25.85304 14.194346
-38.605362 26.101563 12.833678
-31.114888 61.377868 29.070729
-31.043621 61.081749 30.337795
-31.435395 14.596782 36.990092
-31.238399 14.131649 37.934622
-31.540402 16.708154 36.785227
-31.641511 15.260057 35.999275
-31.435395 14.596782 36.990092
-30.887073 16.04847 41.289543
-30.885889 17.423152 42.029921
-31.003973 16.574138 40.337065
-30.913148 14.498211 40.565012
-30.887073 16.04847 41.289543
-30.845512 30.36471 46.163441
-30.849484 32.545645 45.763645
-30.887593 28.988597 45.331589
-30.845512 30.36471 46.163441
-30.947353 29.449256 44.265575
-30.928296 27.371557 44.540584
-30.887593 28.988597 45.331589
-30.948662 37.13063 43.607298
-30.868127 36.567161 44.788726
-31.020817 37.676933 42.49316
-31.102103 38.107954 41.31069
-31.012197 35.639461 43.018304
-30.948662 37.13063 43.607298
-31.020817 37.676933 42.49316
-31.541882 48.729082 32.584969
-31.552689 46.881766 33.408703
-31.409563 51.919557 32.129111
-31.311409 53.306393 32.514327
-31.518199 50.551119 31.813049
-31.409563 51.919557 32.129111
-31.495875 52.342202 30.978114
-31.628194 49.151726 31.433971
-31.541882 48.729082 32.584969
-31.518199 50.551119 31.813049
-31.699494 56.665085 25.963679
-31.617602 56.354904 27.011193
-31.58131 57.920876 26.205008
-31.797556 57.087564 24.900804
-31.833849 55.521593 25.70699
-31.699494 56.665085 25.963679
-31.899659 57.319212 23.899777
-31.797556 57.087564 24.900804
3 0 130 132
3 132 131 34
3 130 131 132
3 1 38 36
3 0 41 39
3 0 34 41
3 2 45 43
3 4 133 134
3 5 49 47
3 5 51 49
3 3 54 52
3 6 57 55
3 6 59 57
3 6 135 137
3 137 136 59
3 135 136 137
3 7 138 140
3 140 139 60
3 138 139 140
3 8 63 61
3 8 65 63
3 141 66 142
3 143 68 144
3 145 144 66
3 143 144 145
3 147 146 68
3 7 72 70
3 7 60 72
3 9 76 74
3 149 148 35
3 11 79 77
3 13 80 37
3 13 81 80
3 14 84 82
3 16 85 40
3 16 86 85
3 16 88 86
3 150 89 151
3 152 151 42
3 150 151 152
3 154 153 89
3 155 90 156
3 157 91 158
3 159 158 90
3 157 158 159
3 19 94 92
3 21 95 44
3 21 96 95
3 10 97 75
3 22 98 46
3 22 99 98
3 22 100 99
3 160 101 161
3 163 162 101
3 12 102 78
3 23 164 166
3 166 165 48
3 164 165 166
3 23 167 168
3 23 169 170
3 172 171 50
3 20 103 93
3 24 104 53
3 24 105 104
3 15 106 83
3 25 107 56
3 25 108 107
3 25 109 108
3 174 173 58
3 17 175 177
3 177 176 87
3 175 176 177
3 26 178 179
3 26 180 182
3 180 110 181
3 180 181 182
3 18 183 185
3 183 111 184
3 183 184 185
3 27 112 62
3 27 113 112
3 27 114 113
3 28 115 64
3 28 116 115
3 29 186 188
3 186 117 187
3 186 187 188
3 29 118 117
3 30 189 191
3 189 119 190
3 189 190 191
3 30 120 119
3 30 121 120
3 31 122 67
3 31 123 122
3 31 124 123
3 32 125 69
3 32 126 125
3 33 127 71
3 33 128 127
3 33 129 128
3 193 192 73
3 195 194 9
3 34 196 198
3 196 35 197
3 196 197 198
3 199 35 200
3 201 200 34
3 199 200 201
3 203 202 35
3 36 37 11
3 38 37 36
3 38 13 37
3 39 40 14
3 41 40 39
3 41 16 40
3 41 42 16
3 34 42 41
3 34 204 206
3 206 205 42
3 204 205 206
3 43 44 19
3 45 44 43
3 45 21 44
3 207 46 208
3 209 208 10
3 207 208 209
3 210 46 211
3 212 22 213
3 214 213 46
3 212 213 214
3 216 215 22
3 47 48 12
3 49 48 47
3 49 23 48
3 49 50 23
3 51 50 49
3 51 217 219
3 219 218 50
3 217 218 219
3 52 53 20
3 54 53 52
3 54 24 53
3 55 56 15
3 57 56 55
3 57 25 56
3 57 58 25
3 59 58 57
3 59 220 222
3 222 221 58
3 220 221 222
3 59 223 224
3 226 225 59
3 228 227 17
3 60 229 230
3 232 231 60
3 233 26 234
3 61 62 18
3 63 62 61
3 63 27 62
3 63 64 27
3 65 64 63
3 65 28 64
3 235 29 236
3 66 237 238
3 66 239 241
3 239 30 240
3 239 240 241
3 66 67 30
3 68 67 66
3 68 31 67
3 68 69 31
3 242 69 243
3 244 243 68
3 242 243 244
3 245 32 246
3 247 246 69
3 245 246 247
3 70 248 250
3 248 71 249
3 248 249 250
3 72 71 70
3 72 33 71
3 72 73 33
3 60 73 72
3 60 251 253
3 253 252 73
3 251 252 253
3 74 75 2
3 76 75 74
3 76 10 75
3 254 76 255
3 256 255 9
3 254 255 256
3 257 76 258
3 259 10 260
3 261 260 76
3 259 260 261
3 263 262 10
3 35 264 265
3 267 266 35
3 77 78 4
3 79 78 77
3 79 12 78
3 37 79 11
3 80 79 37
3 80 12 79
3 80 47 12
3 81 47 80
3 81 5 47
3 82 83 3
3 84 83 82
3 84 15 83
3 40 84 14
3 85 84 40
3 85 15 84
3 85 55 15
3 86 55 85
3 86 6 55
3 86 87 6
3 88 87 86
3 88 17 87
3 42 88 16
3 89 88 42
3 89 17 88
3 89 268 270
3 270 269 17
3 268 269 270
3 272 271 89
3 274 273 7
3 275 18 276
3 90 277 278
3 90 279 281
3 279 18 280
3 279 280 281
3 90 61 18
3 91 61 90
3 91 8 61
3 282 70 283
3 284 70 285
3 286 7 287
3 288 287 70
3 286 287 288
3 290 289 0
3 92 93 1
3 94 93 92
3 94 20 93
3 44 94 19
3 95 94 44
3 95 20 94
3 95 52 20
3 96 52 95
3 96 3 52
3 75 45 2
3 97 45 75
3 97 21 45
3 46 97 10
3 98 97 46
3 98 21 97
3 98 96 21
3 99 96 98
3 99 3 96
3 99 82 3
3 100 82 99
3 100 14 82
3 291 100 292
3 293 292 22
3 291 292 293
3 101 294 296
3 294 100 295
3 294 295 296
3 101 14 100
3 101 39 14
3 297 39 298
3 299 298 101
3 297 298 299
3 300 0 301
3 302 301 39
3 300 301 302
3 304 303 0
3 78 305 307
3 307 306 4
3 305 306 307
3 102 308 310
3 310 309 78
3 308 309 310
3 102 311 312
3 48 102 12
3 313 102 314
3 315 314 48
3 313 314 315
3 317 316 102
3 50 318 320
3 320 319 23
3 318 319 320
3 322 321 50
3 93 38 1
3 103 38 93
3 103 13 38
3 53 103 20
3 104 103 53
3 104 13 103
3 104 81 13
3 105 81 104
3 105 5 81
3 83 54 3
3 106 54 83
3 106 24 54
3 56 106 15
3 107 106 56
3 107 24 106
3 107 105 24
3 108 105 107
3 108 5 105
3 108 51 5
3 109 51 108
3 109 323 325
3 325 324 51
3 323 324 325
3 58 109 25
3 326 109 327
3 328 327 58
3 326 327 328
3 330 329 109
3 87 331 333
3 333 332 6
3 331 332 333
3 335 334 87
3 337 336 17
3 339 338 7
3 110 340 341
3 110 342 344
3 342 4 343
3 342 343 344
3 111 345 346
3 111 347 349
3 347 26 348
3 347 348 349
3 62 111 18
3 112 111 62
3 112 26 111
3 112 110 26
3 113 110 112
3 113 4 110
3 113 77 4
3 114 77 113
3 114 11 77
3 64 114 27
3 115 114 64
3 115 11 114
3 115 36 11
3 116 36 115
3 116 1 36
3 117 350 351
3 117 352 353
3 117 354 356
3 354 91 355
3 354 355 356
3 118 91 117
3 118 8 91
3 357 29 358
3 119 359 360
3 119 361 363
3 361 29 362
3 361 362 363
3 119 118 29
3 120 118 119
3 120 8 118
3 120 65 8
3 121 65 120
3 121 28 65
3 67 121 30
3 122 121 67
3 122 28 121
3 122 116 28
3 123 116 122
3 123 1 116
3 123 92 1
3 124 92 123
3 124 19 92
3 69 124 31
3 125 124 69
3 125 19 124
3 125 43 19
3 126 43 125
3 126 2 43
3 364 32 365
3 71 366 367
3 127 368 370
3 370 369 71
3 368 369 370
3 127 371 373
3 371 32 372
3 371 372 373
3 127 126 32
3 128 126 127
3 128 2 126
3 128 74 2
3 129 74 128
3 129 9 74
3 73 129 33
3 374 129 375
3 376 375 73
3 374 375 376
3 377 9 378
3 379 378 129
3 377 378 379
3 381 380 9
