ply
format ascii 1.0
element vertex 189
property float x
property float y
property float z
element face 183
property list uchar int vertex_index
end_header
9.250692 -27.66485 69.416451
-6.936424 -21.424625 58.772488
0.930298 -24.648548 64.645668
-3.788702 -30.278872 58.639175
6.194461 -30.772802 67.259232
-3.107689 -23.138647 61.768482
-1.636421 -27.32695 61.932156
-5.287304 -25.640427 58.962349
-8.733837 -24.05666 55.865208
4.984214 -26.03278 67.187477
2.286068 -29.100935 64.79628
-0.290123 -31.842184 61.736652
-7.174735 -28.511959 55.426567
7.615064 -29.239046 68.366302
-5.070773 -22.163057 60.299648
-4.219498 -24.296053 60.473698
-6.026599 -23.511532 58.991081
2.987437 -25.49345 65.96386
3.705869 -27.607056 66.135704
1.659659 -26.852983 64.794403
-2.792339 -28.65642 60.371159
-0.881011 -29.491747 61.954826
-2.084599 -30.885267 60.255394
-3.092381 -32.459454 58.451965
-7.899416 -26.230593 55.770378
-8.702581 -27.650364 53.925907
4.72236 -32.134762 65.965744
-1.145104 -23.856407 63.215073
-0.443895 -26.003723 63.318314
-2.321599 -25.227522 61.92123
-3.424433 -26.41268 60.544487
-4.4732 -27.857178 58.931114
-7.874757 -22.612558 57.429996
7.177042 -26.845795 68.394928
6.485673 -24.693045 68.181412
4.411833 -23.868971 67.033417
2.227671 -23.229713 65.71701
0.250177 -22.475195 64.457634
-1.739019 -21.749323 63.11211
-3.771062 -21.0903 61.640579
-5.731765 -20.202387 60.174934
5.747869 -28.289658 67.377586
4.204246 -29.79439 66.084068
2.791122 -31.383696 64.644318
0.36775 -28.146624 63.464005
1.07404 -30.515877 63.425255
-7.023277 -24.825504 57.450401
-6.221461 -27.125782 57.310547
-5.467034 -29.180241 57.194839
-7.886205 -29.937111 53.59235
-6.352774 -30.727829 55.221138
-4.833075 -31.513369 56.778748
8.432878 -28.451948 68.891377
8.636261 -29.582403 68.867558
9.454076 -28.795305 69.392632
10.294408 -28.054958 69.864361
9.990386 -26.893603 69.823524
9.454076 -28.795305 69.392632
10.294408 -28.054958 69.864361
-9.523847 -27.173703 53.103541
-9.136883 -26.539511 54.022185
6.455816 -31.949056 67.202869
7.1444 -31.186901 67.770733
5.458411 -31.453782 66.612488
5.719765 -32.630036 66.556126
6.455816 -31.949056 67.202869
7.244457 -23.892764 68.621067
7.581739 -24.994901 68.743809
4.024665 -22.779912 66.865487
5.157875 -23.133908 67.501236
2.932584 -22.460283 66.207283
3.319752 -23.549342 66.375214
4.024665 -22.779912 66.865487
-0.158015 -21.448814 64.27779
0.895506 -21.715238 64.952575
-1.152613 -21.085878 63.605028
-0.744421 -22.112259 63.784872
-0.158015 -21.448814 64.27779
-4.189594 -19.976284 61.475834
-3.187385 -20.368956 62.185761
-5.169946 -19.532327 60.743012
-4.751413 -20.646344 60.907757
-4.189594 -19.976284 61.475834
0.580864 -32.367583 62.395193
1.262946 -31.70443 63.239494
0.391959 -31.17903 62.580953
0.009706 -33.054113 61.604057
0.580864 -32.367583 62.395193
-8.207211 -30.611203 52.656832
-8.629603 -29.40237 52.886187
-5.987229 -31.900008 55.023598
-6.714489 -31.472458 54.239569
-5.22738 -32.292777 55.802402
-5.592925 -31.120599 55.999943
-5.987229 -31.900008 55.023598
-4.479756 -32.67129 56.615782
-5.22738 -32.292777 55.802402
7.854702 -30.420023 68.324268
8.636261 -29.582403 68.867558
6.904763 -30.005924 67.812767
7.1444 -31.186901 67.770733
7.854702 -30.420023 68.324268
-1.74042 -32.058166 60.156988
-0.843182 -32.536624 60.897617
-1.187361 -31.363726 60.996023
-2.244312 -32.845259 59.255274
-1.74042 -32.058166 60.156988
-2.58849 -31.67236 59.353679
-2.762074 -33.572951 58.321777
-2.244312 -32.845259 59.255274
-8.735301 -25.829626 54.94442
-8.316626 -25.143626 55.817793
-9.152511 -24.74266 54.991835
-8.300999 -26.940478 54.848143
-8.735301 -25.829626 54.94442
-9.136883 -26.539511 54.022185
4.980344 -33.316624 65.875725
5.719765 -32.630036 66.556126
4.006899 -32.87038 65.216057
4.980344 -33.316624 65.875725
-8.335055 -21.577205 57.315416
-7.40559 -22.018591 58.101242
-7.865889 -20.983238 57.986662
-8.731274 -22.318388 56.615028
-8.335055 -21.577205 57.315416
-9.160813 -23.040439 55.832634
-8.304297 -23.334609 56.647602
-8.731274 -22.318388 56.615028
-9.61668 -23.589855 55.038905
-9.160813 -23.040439 55.832634
-9.152511 -24.74266 54.991835
-9.61668 -23.589855 55.038905
7.927423 -26.071276 68.850567
8.213867 -27.255322 68.905689
8.964248 -26.480804 69.361328
6.831358 -25.76942 68.28817
7.927423 -26.071276 68.850567
7.581739 -24.994901 68.743809
6.194795 -23.545946 68.075233
7.244457 -23.892764 68.621067
5.448753 -24.281008 67.607415
6.194795 -23.545946 68.075233
5.157875 -23.133908 67.501236
1.884253 -22.092498 65.582264
2.932584 -22.460283 66.207283
1.238924 -22.852454 65.087322
1.884253 -22.092498 65.582264
0.895506 -21.715238 64.952575
-2.171364 -20.698467 62.921526
-1.152613 -21.085878 63.605028
-2.755041 -21.419812 62.376345
-2.171364 -20.698467 62.921526
-3.187385 -20.368956 62.185761
-6.213418 -19.204518 59.943455
-5.169946 -19.532327 60.743012
-6.686673 -19.804946 59.409987
-6.213418 -19.204518 59.943455
-7.289002 -20.416065 58.708764
-6.334094 -20.813506 59.473711
-6.686673 -19.804946 59.409987
-7.865889 -20.983238 57.986662
-7.289002 -20.416065 58.708764
8.964248 -26.480804 69.361328
9.990386 -26.893603 69.823524
3.04128 -32.494847 64.555344
4.006899 -32.87038 65.216057
3.756741 -31.759229 65.305031
2.121487 -32.138339 63.849026
1.932581 -30.949787 64.034786
1.262946 -31.70443 63.239494
3.04128 -32.494847 64.555344
2.121487 -32.138339 63.849026
0.009706 -33.054113 61.604057
-0.843182 -32.536624 60.897617
-9.037792 -28.258997 53.052965
-9.523847 -27.173703 53.103541
-8.294393 -28.793737 53.759129
-9.037792 -28.258997 53.052965
-8.629603 -29.40237 52.886187
-7.481205 -31.077099 53.425174
-8.207211 -30.611203 52.656832
-7.11949 -30.33247 54.406744
-7.481205 -31.077099 53.425174
-6.714489 -31.472458 54.239569
-3.609409 -33.144333 57.45239
-3.962728 -31.986412 57.615357
-4.479756 -32.67129 56.615782
-2.762074 -33.572951 58.321777
-3.609409 -33.144333 57.45239
3 0 52 54
3 52 13 53
3 52 53 54
3 0 55 56
3 0 57 58
3 1 16 14
3 2 19 17
3 3 22 20
3 3 23 22
3 59 25 60
3 4 61 62
3 4 63 65
3 63 26 64
3 63 64 65
3 5 29 27
3 7 30 15
3 7 31 30
3 66 34 67
3 68 35 69
3 70 36 71
3 72 71 35
3 70 71 72
3 73 37 74
3 75 38 76
3 77 76 37
3 75 76 77
3 78 39 79
3 80 40 81
3 82 81 39
3 80 81 82
3 9 41 33
3 10 42 18
3 10 43 42
3 6 44 28
3 11 45 21
3 11 83 85
3 85 84 45
3 83 84 85
3 11 86 87
3 8 46 32
3 12 47 24
3 12 48 47
3 88 49 89
3 90 50 91
3 92 51 93
3 94 93 50
3 92 93 94
3 96 95 51
3 13 97 98
3 13 99 101
3 99 4 100
3 99 100 101
3 14 15 5
3 16 15 14
3 16 7 15
3 17 18 9
3 19 18 17
3 19 10 18
3 20 21 6
3 22 21 20
3 22 11 21
3 22 102 104
3 104 103 11
3 102 103 104
3 23 105 107
3 107 106 22
3 105 106 107
3 23 108 109
3 110 24 111
3 112 111 8
3 110 111 112
3 25 113 115
3 113 24 114
3 113 114 115
3 25 12 24
3 26 116 117
3 26 118 119
3 27 28 2
3 29 28 27
3 29 6 28
3 15 29 5
3 30 29 15
3 30 6 29
3 30 20 6
3 31 20 30
3 31 3 20
3 120 32 121
3 122 121 1
3 120 121 122
3 123 32 124
3 125 8 126
3 127 126 32
3 125 126 127
3 128 8 129
3 131 130 8
3 132 33 133
3 134 133 0
3 132 133 134
3 34 135 137
3 135 33 136
3 135 136 137
3 34 9 33
3 138 34 139
3 35 140 142
3 140 34 141
3 140 141 142
3 35 9 34
3 35 17 9
3 36 17 35
3 36 2 17
3 143 36 144
3 37 145 147
3 145 36 146
3 145 146 147
3 37 2 36
3 37 27 2
3 38 27 37
3 38 5 27
3 148 38 149
3 39 150 152
3 150 38 151
3 150 151 152
3 39 5 38
3 39 14 5
3 40 14 39
3 40 1 14
3 153 40 154
3 155 40 156
3 157 1 158
3 159 158 40
3 157 158 159
3 161 160 1
3 162 0 163
3 33 13 0
3 41 13 33
3 41 4 13
3 18 41 9
3 42 41 18
3 42 4 41
3 42 26 4
3 43 26 42
3 43 164 166
3 166 165 26
3 164 165 166
3 28 19 2
3 44 19 28
3 44 10 19
3 21 44 6
3 45 44 21
3 45 10 44
3 45 43 10
3 167 43 168
3 169 168 45
3 167 168 169
3 171 170 43
3 173 172 11
3 32 16 1
3 46 16 32
3 46 7 16
3 24 46 8
3 47 46 24
3 47 7 46
3 47 31 7
3 48 31 47
3 48 3 31
3 174 25 175
3 49 176 178
3 176 25 177
3 176 177 178
3 49 12 25
3 179 49 180
3 50 181 183
3 181 49 182
3 181 182 183
3 50 12 49
3 50 48 12
3 51 48 50
3 51 3 48
3 51 23 3
3 184 23 185
3 186 185 51
3 184 185 186
3 188 187 23
