ply
format ascii 1.0
element vertex 300
property float x
property float y
property float z
element face 299
property list uchar int vertex_index
end_header
-13.316051 36.363949 -35.584911
-6.723172 41.9921 -50.233326
-11.051484 40.14505 -43.728619
-22.979025 26.330202 -46.457176
-16.351032 32.634373 -45.223782
-12.158587 36.035004 -53.208157
-14.154989 31.395214 -27.198954
-15.575725 31.472279 -35.687916
-17.646385 29.92767 -40.735001
-14.810169 34.042225 -40.267891
-9.174723 41.433815 -47.086212
-11.662385 37.875607 -48.197468
-9.322148 38.728363 -51.628181
-12.388013 38.535378 -39.677521
-10.439343 43.210075 -39.474957
-19.582142 29.372225 -46.121399
-17.705412 31.926714 -50.551952
-13.58235 36.124573 -44.329529
-14.527227 34.722736 -49.632317
-13.849681 33.982151 -31.40609
-14.432503 33.811165 -35.726913
-15.270519 32.762138 -37.992081
-14.087134 34.980064 -37.828056
-8.031091 41.745293 -48.788715
-9.16335 40.095531 -49.378063
-7.974351 40.239117 -50.975651
-7.991905 38.897263 -52.979141
-17.035488 31.376993 -42.960323
-18.659056 29.580902 -43.520718
-17.906435 31.005362 -45.76339
-18.795174 30.693476 -48.562763
-17.106144 32.194191 -47.972828
-11.751978 39.464539 -41.733471
-12.988426 37.199242 -41.910824
-12.313851 38.0256 -44.003769
-11.893902 36.934662 -50.706043
-13.090317 36.186699 -49.04068
-13.444411 35.440586 -51.586628
-15.004953 34.127617 -52.181789
-15.140961 28.375967 -27.197815
-14.987549 29.965441 -29.308411
-14.826483 31.343603 -31.318218
-13.973822 32.790565 -29.121758
-16.868378 29.212368 -35.895966
-18.031023 28.454054 -38.31374
-16.580814 30.560791 -38.049179
-16.182898 31.903732 -40.397114
-15.521549 33.326523 -42.682533
-10.149753 40.910599 -45.420994
-11.384958 38.885056 -45.963177
-10.302217 39.628517 -47.728668
-10.535795 38.438168 -49.948914
-10.628271 37.401691 -52.369743
-9.384053 37.478176 -54.012856
-15.170922 26.961756 -25.035849
-14.266035 30.064302 -25.205132
-22.235195 27.778261 -48.901733
-12.317601 38.992512 -35.639534
-12.942736 37.409317 -37.630112
-11.900513 39.956127 -37.527935
-11.385362 40.809872 -39.515213
-10.721015 41.648434 -41.436886
-9.621359 45.615093 -39.436447
-9.749341 43.958996 -41.310238
-9.955624 42.354092 -43.272144
-9.128735 42.856636 -44.975639
-8.041819 43.408039 -46.659672
-6.907622 43.542763 -48.345188
-21.901876 26.235067 -43.722687
-19.164497 28.100416 -41.052757
-20.174253 27.915201 -43.519901
-21.240883 27.792826 -46.144302
-20.483887 29.204264 -48.647346
-19.499706 30.512426 -51.083267
-13.557428 36.205601 -39.878819
-14.224134 35.185528 -42.27549
-14.936294 34.322075 -44.814251
-12.722005 37.019463 -46.477886
-14.05138 35.385147 -46.908142
-15.561421 33.72551 -47.571583
-16.042601 33.334057 -50.194923
-15.891695 29.970045 -33.542442
-14.70295 32.543152 -33.55238
-13.624011 35.2132 -33.606567
-13.150291 35.645256 -29.339624
-12.922072 36.854191 -31.382977
-12.701741 37.820717 -33.564117
-6.662215 41.192938 -51.216917
-7.287804 40.316446 -51.588079
-7.348762 41.115609 -50.604489
-12.949697 35.398526 -53.672062
-13.59261 35.101317 -52.861297
-12.801499 35.737795 -52.397392
-12.200146 35.641913 -54.487502
-12.949697 35.398526 -53.672062
-23.825283 25.636371 -46.56015
-23.300795 25.501722 -45.175417
-7.880894 38.247498 -54.085292
-7.194307 38.914879 -53.559652
-14.742397 27.935887 -24.167957
-15.209711 26.18786 -24.054108
-14.289953 29.487161 -24.252599
-14.718478 28.513029 -25.12049
-14.742397 27.935887 -24.167957
-22.695358 27.756976 -50.262514
-21.759159 28.450711 -50.080719
-11.694064 40.749457 -36.513042
-12.109057 39.47432 -36.583734
-11.902608 40.267649 -35.568842
-10.912353 42.009974 -39.495085
-11.220792 41.55686 -38.517534
-10.747782 42.756962 -38.497406
-9.278534 46.805353 -39.426203
-9.580778 46.472248 -38.616243
-9.369736 44.258549 -42.161473
-9.342992 45.117742 -41.22163
-9.472877 43.456097 -43.142426
-9.852483 43.156544 -42.291191
-9.369736 44.258549 -42.161473
-9.059432 43.707369 -43.994173
-9.542179 42.605364 -44.123891
-9.472877 43.456097 -43.142426
-7.553159 44.366286 -46.519863
-8.090279 44.17501 -45.683718
-6.986061 44.433647 -47.362621
-7.474721 43.475401 -47.50243
-7.553159 44.366286 -46.519863
-21.352039 26.254382 -42.479933
-22.116469 25.403154 -42.414766
-18.071134 31.738437 -51.942701
-18.96828 31.031294 -52.208359
-18.602559 31.21957 -50.81761
-15.850002 33.474291 -52.459772
-15.186307 33.882824 -53.401445
-15.950644 29.304503 -32.46729
-16.494563 28.806635 -33.543098
-12.874184 36.646937 -28.500999
-13.223342 35.098131 -28.332735
-12.541293 38.24346 -31.532302
-12.652818 37.781622 -30.505001
-12.431127 38.726723 -32.622872
-12.811906 37.337454 -32.473547
-12.541293 38.24346 -31.532302
-12.279638 39.21967 -33.566448
-12.431127 38.726723 -32.622872
-7.296581 39.64552 -52.589824
-7.983128 39.56819 -51.977396
-7.287804 40.316446 -51.588079
-7.194307 38.914879 -53.559652
-7.296581 39.64552 -52.589824
-10.347787 43.986965 -38.575829
-10.747782 42.756962 -38.497406
-14.372881 34.444832 -53.158878
-14.224682 34.784102 -51.884208
-13.59261 35.101317 -52.861297
-15.186307 33.882824 -53.401445
-14.372881 34.444832 -53.158878
-15.621697 27.763129 -28.200118
-15.660952 26.96098 -27.128702
-15.544991 28.557865 -29.255416
-15.621697 27.763129 -28.200118
-15.064255 29.170704 -28.253113
-15.49857 29.302201 -30.350274
-15.544991 28.557865 -29.255416
-14.907016 30.654522 -30.313315
-15.418038 29.991283 -31.355178
-15.49857 29.302201 -30.350274
-17.4497 28.833211 -37.104853
-18.174474 27.699078 -37.175684
-17.593151 28.078235 -35.966797
-10.676551 36.872416 -53.637836
-11.441709 36.189072 -54.057043
-11.393429 36.718348 -52.78895
-10.054442 36.910658 -54.459393
-10.676551 36.872416 -53.637836
-10.006162 37.439933 -53.191299
-9.303734 36.950004 -55.140254
-10.054442 36.910658 -54.459393
-8.576968 37.537954 -54.60215
-8.687979 38.18772 -53.495998
-7.880894 38.247498 -54.085292
-9.303734 36.950004 -55.140254
-8.576968 37.537954 -54.60215
-15.696279 25.473228 -25.035918
-15.209711 26.18786 -24.054108
-15.675932 26.253874 -26.047719
-15.696279 25.473228 -25.035918
-15.155942 27.668861 -26.116832
-15.660952 26.96098 -27.128702
-15.675932 26.253874 -26.047719
-23.113996 27.106392 -49.084333
-23.48591 26.382362 -47.862054
-22.60711 27.054232 -47.679454
-23.113996 27.106392 -49.084333
-22.695358 27.756976 -50.262514
-11.478367 41.129987 -37.523895
-11.694064 40.749457 -36.513042
-11.642938 40.382999 -38.521574
-11.478367 41.129987 -37.523895
-11.220792 41.55686 -38.517534
-9.938796 45.189474 -38.556574
-9.580778 46.472248 -38.616243
-10.030351 44.412584 -39.455702
-10.347787 43.986965 -38.575829
-9.938796 45.189474 -38.556574
-9.279001 45.945791 -40.284734
-9.278534 46.805353 -39.426203
-9.68535 44.787045 -40.373342
-9.279001 45.945791 -40.284734
-9.342992 45.117742 -41.22163
-8.633737 43.899309 -44.841701
-9.059432 43.707369 -43.994173
-8.585277 43.132338 -45.817656
-8.633737 43.899309 -44.841701
-8.090279 44.17501 -45.683718
-22.762221 25.454154 -43.808172
-22.116469 25.403154 -42.414766
-22.440451 26.282635 -45.089931
-23.300795 25.501722 -45.175417
-22.762221 25.454154 -43.808172
-18.766376 27.542105 -38.51129
-18.174474 27.699078 -37.175684
-19.333112 27.365286 -39.880798
-18.766376 27.542105 -38.51129
-18.59776 28.277235 -39.683249
-19.98335 27.187056 -41.144968
-19.333112 27.365286 -39.880798
-20.488228 27.094449 -42.37854
-19.98335 27.187056 -41.144968
-19.669375 28.007808 -42.286329
-21.038065 27.075134 -43.621294
-21.352039 26.254382 -42.479933
-20.488228 27.094449 -42.37854
-20.883505 29.163712 -49.953525
-21.759159 28.450711 -50.080719
-21.359541 28.491262 -48.77454
-20.391414 29.817794 -51.171486
-20.883505 29.163712 -49.953525
-19.991796 29.858345 -49.865307
-19.868426 30.394495 -52.419473
-20.391414 29.817794 -51.171486
-19.868426 30.394495 -52.419473
-18.96828 31.031294 -52.208359
-16.368826 33.077511 -51.466339
-15.523777 33.730837 -51.188356
-15.850002 33.474291 -52.459772
-17.200232 32.37384 -51.644853
-16.874007 32.630386 -50.373438
-16.368826 33.077511 -51.466339
-18.071134 31.738437 -51.942701
-17.200232 32.37384 -51.644853
-12.200146 35.641913 -54.487502
-11.441709 36.189072 -54.057043
-16.982905 28.427796 -34.71986
-17.593151 28.078235 -35.966797
-16.380036 29.591206 -34.719204
-16.982905 28.427796 -34.71986
-16.494563 28.806635 -33.543098
-15.359089 30.656824 -32.43033
-15.950644 29.304503 -32.46729
-15.418038 29.991283 -31.355178
-13.919328 31.152385 -24.391492
-14.289953 29.487161 -24.252599
-13.857455 31.723338 -25.326881
-13.919328 31.152385 -24.391492
-13.801932 32.388794 -26.323791
-14.210512 30.729758 -26.202043
-13.857455 31.723338 -25.326881
-13.725691 32.97311 -27.2624
-13.801932 32.388794 -26.323791
-13.372635 33.96669 -26.387237
-13.635108 33.670786 -28.223802
-14.064405 32.092889 -28.160356
-13.725691 32.97311 -27.2624
-13.562057 34.217911 -29.230691
-13.635108 33.670786 -28.223802
-13.223342 35.098131 -28.332735
-12.766927 37.177155 -29.483324
-12.874184 36.646937 -28.500999
-13.036181 36.249724 -30.3613
-12.766927 37.177155 -29.483324
-12.652818 37.781622 -30.505001
-12.087568 39.805567 -34.604157
-12.509671 38.406615 -34.601826
-12.279638 39.21967 -33.566448
-11.902608 40.267649 -35.568842
-12.087568 39.805567 -34.604157
-6.423474 44.6486 -47.992325
-6.986061 44.433647 -47.362621
-6.236244 43.728899 -48.958006
-6.423474 44.6486 -47.992325
-6.144018 42.953568 -49.902075
-6.815397 42.767432 -49.289257
-6.236244 43.728899 -48.958006
-6.046158 41.968336 -50.880173
-6.144018 42.953568 -49.902075
-6.662215 41.192938 -51.216917
-6.046158 41.968336 -50.880173
-23.825283 25.636371 -46.56015
-23.48591 26.382362 -47.862054
3 0 22 20
3 1 25 23
3 1 87 89
3 89 88 25
3 87 88 89
3 4 29 27
3 4 31 29
3 2 34 32
3 5 37 35
3 5 90 92
3 92 91 37
3 90 91 92
3 5 93 94
3 6 40 39
3 6 42 40
3 3 95 96
3 7 45 43
3 9 46 21
3 9 47 46
3 10 50 48
3 12 51 24
3 12 52 51
3 12 53 52
3 98 97 26
3 99 54 100
3 101 55 102
3 103 102 54
3 101 102 103
3 105 104 56
3 106 59 107
3 108 107 57
3 106 107 108
3 14 109 111
3 109 60 110
3 109 110 111
3 14 61 60
3 112 62 113
3 114 63 115
3 116 64 117
3 118 117 63
3 116 117 118
3 119 65 120
3 121 120 64
3 119 120 121
3 122 66 123
3 124 67 125
3 126 125 66
3 124 125 126
3 127 68 128
3 8 69 44
3 15 70 28
3 15 71 70
3 15 72 71
3 16 73 30
3 16 129 131
3 131 130 73
3 129 130 131
3 13 74 58
3 17 75 33
3 17 76 75
3 11 77 49
3 18 78 36
3 18 79 78
3 18 80 79
3 133 132 38
3 134 81 135
3 19 82 41
3 19 83 82
3 136 84 137
3 138 85 139
3 140 86 141
3 142 141 85
3 140 141 142
3 144 143 86
3 20 21 7
3 22 21 20
3 22 9 21
3 23 24 10
3 25 24 23
3 25 12 24
3 25 26 12
3 145 26 146
3 147 146 25
3 145 146 147
3 149 148 26
3 150 14 151
3 27 28 8
3 29 28 27
3 29 15 28
3 29 30 15
3 31 30 29
3 31 16 30
3 32 33 13
3 34 33 32
3 34 17 33
3 35 36 11
3 37 36 35
3 37 18 36
3 37 38 18
3 152 38 153
3 154 153 37
3 152 153 154
3 156 155 38
3 39 157 158
3 40 159 161
3 161 160 39
3 159 160 161
3 40 162 163
3 40 164 166
3 164 41 165
3 164 165 166
3 42 41 40
3 42 19 41
3 43 167 169
3 167 44 168
3 167 168 169
3 45 44 43
3 45 8 44
3 21 45 7
3 46 45 21
3 46 8 45
3 46 27 8
3 47 27 46
3 47 4 27
3 48 49 2
3 50 49 48
3 50 11 49
3 24 50 10
3 51 50 24
3 51 11 50
3 51 35 11
3 52 35 51
3 52 5 35
3 52 170 172
3 172 171 5
3 170 171 172
3 53 173 175
3 175 174 52
3 173 174 175
3 53 176 177
3 26 53 12
3 178 53 179
3 180 179 26
3 178 179 180
3 182 181 53
3 54 183 184
3 54 185 186
3 54 187 189
3 187 39 188
3 187 188 189
3 55 39 54
3 55 6 39
3 56 190 192
3 192 191 3
3 190 191 192
3 194 193 56
3 57 58 0
3 59 58 57
3 59 13 58
3 195 59 196
3 60 197 199
3 197 59 198
3 197 198 199
3 60 13 59
3 60 32 13
3 61 32 60
3 61 2 32
3 62 200 201
3 62 202 204
3 202 14 203
3 202 203 204
3 205 62 206
3 63 207 209
3 207 62 208
3 207 208 209
3 63 14 62
3 63 61 14
3 64 61 63
3 64 2 61
3 64 48 2
3 65 48 64
3 65 10 48
3 210 65 211
3 66 212 214
3 212 65 213
3 212 213 214
3 66 10 65
3 66 23 10
3 67 23 66
3 67 1 23
3 68 215 216
3 68 217 219
3 217 3 218
3 217 218 219
3 44 220 221
3 69 222 224
3 224 223 44
3 222 223 224
3 69 225 226
3 28 69 8
3 70 69 28
3 70 227 229
3 229 228 69
3 227 228 229
3 70 230 232
3 230 68 231
3 230 231 232
3 71 68 70
3 71 3 68
3 71 56 3
3 72 56 71
3 72 233 235
3 235 234 56
3 233 234 235
3 30 72 15
3 73 72 30
3 73 236 238
3 238 237 72
3 236 237 238
3 73 239 240
3 242 241 73
3 58 22 0
3 74 22 58
3 74 9 22
3 33 74 13
3 75 74 33
3 75 9 74
3 75 47 9
3 76 47 75
3 76 4 47
3 49 34 2
3 77 34 49
3 77 17 34
3 36 77 11
3 78 77 36
3 78 17 77
3 78 76 17
3 79 76 78
3 79 4 76
3 79 31 4
3 80 31 79
3 80 16 31
3 38 80 18
3 243 80 244
3 245 244 38
3 243 244 245
3 246 16 247
3 248 247 80
3 246 247 248
3 250 249 16
3 252 251 5
3 253 43 254
3 81 255 257
3 255 43 256
3 255 256 257
3 81 7 43
3 41 258 260
3 258 81 259
3 258 259 260
3 82 81 41
3 82 7 81
3 82 20 7
3 83 20 82
3 83 0 20
3 261 55 262
3 263 55 264
3 265 6 266
3 267 266 55
3 265 266 267
3 268 6 269
3 268 269 270
3 271 42 272
3 273 272 6
3 271 272 273
3 84 274 276
3 274 42 275
3 274 275 276
3 84 19 42
3 277 84 278
3 85 279 281
3 279 84 280
3 279 280 281
3 85 19 84
3 85 83 19
3 86 83 85
3 86 0 83
3 86 57 0
3 282 57 283
3 284 283 86
3 282 283 284
3 286 285 57
3 287 67 288
3 289 67 290
3 291 1 292
3 293 292 67
3 291 292 293
3 294 1 295
3 297 296 1
3 299 298 3
