ply
format ascii 1.0
element vertex 178
property float x
property float y
property float z
element face 159
property list uchar int vertex_index
end_header
12.817087 -17.343248 49.885548
24.604139 -8.572971 40.395767
27.09737 -4.609523 38.043121
24.121769 -4.716884 40.773125
15.447083 -13.401865 48.328075
18.605309 -12.844027 45.25375
15.942482 -16.997883 46.597435
21.426613 -8.705928 43.251301
21.674429 -12.653236 42.439213
12.507751 -15.643501 50.816948
13.783772 -13.714239 49.996635
14.079217 -15.368703 49.201466
15.678853 -15.20767 47.540936
14.390539 -17.094971 48.233528
14.516489 -18.939236 47.286674
13.026464 -19.088751 48.902084
25.90757 -6.548185 39.253113
27.40403 -6.747977 37.954063
26.101082 -8.683758 39.112484
21.115177 -7.048378 43.646324
19.777769 -9.095914 44.784321
18.76911 -14.711129 44.573662
20.169907 -12.686754 43.79409
20.267649 -14.672518 43.185776
28.403278 -2.775601 36.576351
26.839256 -2.772601 38.027786
25.622061 -4.644882 39.385014
24.362707 -6.629763 40.631691
16.840464 -11.47457 47.334427
18.368309 -11.089802 45.868732
17.007971 -13.247571 46.749985
17.328856 -14.860579 45.94701
17.465202 -16.7826 45.120213
16.079395 -18.774784 45.682911
22.765509 -6.732368 42.096581
23.038406 -8.627262 41.775726
19.985865 -10.807499 44.34193
21.587494 -10.588039 42.884071
23.115662 -10.695435 41.509689
24.67369 -9.584681 40.268304
25.422162 -9.640074 39.626663
25.352611 -8.628364 39.754126
19.010232 -9.191245 45.529229
19.68152 -8.159357 44.952185
19.605942 -15.676116 43.459839
19.51838 -14.691823 43.879719
18.856673 -15.695422 44.153782
20.387579 -15.627186 42.779938
19.605942 -15.676116 43.459839
26.668893 -1.874216 38.01552
27.477035 -1.850572 37.24522
27.306673 -0.952187 37.232954
24.871915 -4.680883 40.07907
25.48312 -3.724797 39.404393
24.732974 -3.760798 40.098448
15.382554 -12.55008 48.590946
14.550898 -12.706267 49.425226
14.615427 -13.558052 49.162355
16.143774 -12.438218 47.831251
16.079244 -11.586433 48.094122
15.382554 -12.55008 48.590946
14.578152 -19.782001 46.797275
13.820384 -19.979256 47.552176
27.836734 -4.692144 37.38722
28.489688 -3.775183 36.653835
27.750324 -3.692562 37.309736
28.180946 -6.773855 37.280809
27.541215 -7.75387 37.871612
22.496852 -12.647147 41.739041
23.217469 -11.668247 41.274279
22.395046 -11.674335 41.974451
23.947445 -3.794737 40.841516
24.732974 -3.760798 40.098448
13.145762 -14.67887 50.406791
12.975502 -13.87099 50.805203
12.337491 -14.835621 51.215359
13.075372 -20.054013 48.359881
13.820384 -19.979256 47.552176
13.771477 -19.013993 48.094379
26.889741 -8.72176 38.450823
27.541215 -7.75387 37.871612
26.752556 -7.715867 38.533273
26.19655 -9.721991 38.986019
26.889741 -8.72176 38.450823
26.19655 -9.721991 38.986019
25.422162 -9.640074 39.626663
20.350223 -7.135589 44.383187
21.048686 -6.073945 43.707363
20.446473 -8.072146 44.215322
20.350223 -7.135589 44.383187
19.68152 -8.159357 44.952185
21.05725 -14.622489 42.512361
21.76064 -13.612848 42.13908
20.971039 -13.662877 42.812494
21.05725 -14.622489 42.512361
20.387579 -15.627186 42.779938
28.259047 -1.852072 36.519503
29.030077 -1.852389 35.782056
27.621267 -2.774101 37.302069
28.259047 -1.852072 36.519503
27.477035 -1.850572 37.24522
26.091718 -2.788656 38.725779
26.668893 -1.874216 38.01552
26.230658 -3.708741 38.7064
26.091718 -2.788656 38.725779
25.48312 -3.724797 39.404393
13.671628 -12.855704 50.299196
12.975502 -13.87099 50.805203
13.671628 -12.855704 50.299196
14.550898 -12.706267 49.425226
16.787723 -10.524045 47.543573
16.079244 -11.586433 48.094122
17.54158 -10.380573 46.804282
16.787723 -10.524045 47.543573
17.604387 -11.282186 46.601579
18.305502 -10.188189 46.071434
17.54158 -10.380573 46.804282
18.204718 -16.731157 44.427058
18.856673 -15.695422 44.153782
18.117156 -15.746864 44.846937
17.519086 -17.752524 44.66263
18.204718 -16.731157 44.427058
16.826182 -18.748616 44.943979
17.519086 -17.752524 44.66263
16.772299 -17.778692 45.401562
16.099127 -19.671717 45.227611
16.826182 -18.748616 44.943979
15.359604 -19.699775 45.995394
15.297942 -18.85701 46.484792
14.578152 -19.782001 46.797275
16.099127 -19.671717 45.227611
15.359604 -19.699775 45.995394
11.705891 -15.825356 51.622704
12.337491 -14.835621 51.215359
11.856568 -16.634785 51.200294
11.705891 -15.825356 51.622704
12.011236 -17.484659 50.734595
12.662419 -16.493375 50.351248
11.856568 -16.634785 51.200294
12.12149 -18.335791 50.267598
12.011236 -17.484659 50.734595
29.141367 -2.917163 35.911438
29.768166 -1.993951 35.117143
29.030077 -1.852389 35.782056
29.141367 -2.917163 35.911438
28.489688 -3.775183 36.653835
27.990064 -5.761371 37.342691
27.836734 -4.692144 37.38722
27.2507 -5.67875 37.998592
27.990064 -5.761371 37.342691
28.180946 -6.773855 37.280809
23.32182 -4.852844 41.531554
23.947445 -3.794737 40.841516
21.818523 -6.018591 42.968153
21.048686 -6.073945 43.707363
22.64369 -5.860587 42.193281
21.818523 -6.018591 42.968153
21.940343 -6.890373 42.871453
23.443639 -5.724626 41.434853
23.32182 -4.852844 41.531554
22.64369 -5.860587 42.193281
19.073039 -10.092858 45.326526
19.010232 -9.191245 45.529229
18.305502 -10.188189 46.071434
23.929452 -10.645912 40.825266
24.67369 -9.584681 40.268304
23.859901 -9.634203 40.952728
23.929452 -10.645912 40.825266
23.217469 -11.668247 41.274279
22.496852 -12.647147 41.739041
21.76064 -13.612848 42.13908
12.226178 -19.208542 49.775866
12.921776 -18.215999 49.393816
12.12149 -18.335791 50.267598
12.364908 -20.089541 49.186295
12.226178 -19.208542 49.775866
13.075372 -20.054013 48.359881
12.364908 -20.089541 49.186295
3 0 11 9
3 0 13 11
3 0 15 13
3 1 18 16
3 1 39 41
3 41 40 18
3 39 40 41
3 42 20 43
3 44 23 45
3 46 45 21
3 44 45 46
3 48 47 23
3 49 25 50
3 49 50 51
3 3 52 54
3 52 26 53
3 52 53 54
3 3 27 26
3 4 55 57
3 57 56 10
3 55 56 57
3 4 58 60
3 58 28 59
3 58 59 60
3 4 30 28
3 6 31 12
3 6 32 31
3 6 33 32
3 62 61 14
3 2 63 65
3 65 64 24
3 63 64 65
3 67 66 17
3 7 34 19
3 7 35 34
3 5 36 29
3 8 37 22
3 8 38 37
3 8 68 70
3 70 69 38
3 68 69 70
3 71 3 72
3 9 73 75
3 73 10 74
3 73 74 75
3 11 10 9
3 11 4 10
3 11 12 4
3 13 12 11
3 13 6 12
3 13 14 6
3 15 14 13
3 15 76 78
3 78 77 14
3 76 77 78
3 16 17 2
3 18 17 16
3 18 79 81
3 81 80 17
3 79 80 81
3 18 82 83
3 85 84 18
3 86 19 87
3 20 88 90
3 88 19 89
3 88 89 90
3 20 7 19
3 21 22 5
3 23 22 21
3 23 8 22
3 23 91 93
3 93 92 8
3 91 92 93
3 95 94 23
3 96 24 97
3 25 98 100
3 98 24 99
3 98 99 100
3 25 2 24
3 101 25 102
3 26 103 105
3 103 25 104
3 103 104 105
3 26 2 25
3 26 16 2
3 27 16 26
3 27 1 16
3 10 106 107
3 109 108 10
3 28 110 111
3 28 112 113
3 28 114 116
3 114 29 115
3 114 115 116
3 30 29 28
3 30 5 29
3 12 30 4
3 31 30 12
3 31 5 30
3 31 21 5
3 32 21 31
3 32 117 119
3 119 118 21
3 117 118 119
3 32 120 121
3 33 122 124
3 124 123 32
3 122 123 124
3 33 125 126
3 14 33 6
3 127 33 128
3 129 128 14
3 127 128 129
3 131 130 33
3 132 9 133
3 134 9 135
3 136 0 137
3 138 137 9
3 136 137 138
3 140 139 0
3 24 141 143
3 141 142 143
3 145 144 24
3 17 146 148
3 148 147 2
3 146 147 148
3 150 149 17
3 151 3 152
3 19 153 154
3 34 155 157
3 157 156 19
3 155 156 157
3 34 158 160
3 158 3 159
3 158 159 160
3 34 27 3
3 35 27 34
3 35 1 27
3 29 161 163
3 161 20 162
3 161 162 163
3 36 20 29
3 36 7 20
3 22 36 5
3 37 36 22
3 37 7 36
3 37 35 7
3 38 35 37
3 38 1 35
3 38 164 166
3 166 165 1
3 164 165 166
3 168 167 38
3 170 169 8
3 171 15 172
3 173 172 0
3 171 172 173
3 174 15 175
3 177 176 15
