ply
format ascii 1.0
element vertex 242
property float x
property float y
property float z
element face 240
property list uchar int vertex_index
end_header
-39.500278 7.73863 5.445869
-32.272938 -11.64097 3.306092
-36.119534 -2.380083 4.530548
-29.457264 -2.240732 -0.758959
-39.84058 3.068338 8.322819
-38.54417 -1.864094 7.710533
-38.120876 2.672256 4.97876
-35.261257 -11.593972 6.446991
-37.531322 7.520549 2.173289
-29.304708 -11.236243 0.609689
-31.386702 -15.47874 2.30196
-36.876942 -6.859761 7.153438
-33.943001 -7.118064 3.938694
-35.33614 2.303087 1.913295
-32.896492 -2.424332 1.60635
-30.768002 -7.160968 1.305387
-27.562456 -6.753108 -1.050967
-39.716896 5.294865 6.966039
-39.089474 2.861164 6.575329
-38.918587 5.42007 5.125198
-33.826714 -11.80646 4.871937
-34.537464 -13.718301 5.903963
-33.062881 -13.764697 4.250332
-27.860304 -10.773549 -0.663524
-28.959278 -12.931924 0.128313
-37.488075 -2.099271 6.125241
-37.707359 -4.383235 7.405705
-36.525059 -4.608907 5.862296
-35.469521 -7.07209 5.487972
-34.975491 -4.937387 4.260038
-36.145973 7.563379 0.634229
-36.547276 5.076269 2.004812
-35.084717 4.889398 0.699982
-30.793257 -0.034166 -0.582904
-32.523613 -0.118598 0.568835
-31.104406 -2.539201 0.365637
-31.732555 -4.816129 1.452769
-30.073832 -4.869194 0.297282
-29.174408 -6.986909 0.11387
-28.479738 -4.585266 -0.806648
-31.259195 -17.146523 1.614359
-32.410866 -17.416765 3.106375
-39.287842 0.586465 8.081003
-38.280209 0.405898 6.229454
-37.075424 0.197866 4.61124
-29.069523 0.331347 -1.677563
-27.80625 -1.987069 -1.781919
-38.616364 7.611697 3.719054
-37.217918 9.95652 0.885408
-30.754431 -11.493968 1.89565
-31.758404 -13.63683 2.888806
-30.348524 -13.492285 1.471506
-30.04224 -15.079229 0.813171
-38.760002 -4.169766 9.199851
-35.96888 -9.220326 6.730783
-34.539333 -9.502354 5.163629
-33.105808 -9.551111 3.754355
-37.836128 4.956495 3.599668
-36.808842 2.648104 3.277489
-35.674801 -0.029201 3.146898
-33.826878 2.358537 0.64383
-34.154797 -0.130982 1.809175
-34.529045 -2.594119 3.020749
-33.341656 -4.812899 2.720491
-32.407982 -7.230106 2.615881
-31.554363 -9.447032 2.363051
-29.88961 -9.218182 0.975712
-28.326319 -9.003892 -0.269947
-40.273651 5.53391 8.800261
-32.769588 -15.81768 3.863409
-27.774146 -11.595502 -0.901995
-27.218759 -10.600523 -1.26172
-34.852854 6.165411 0.040748
-35.615345 6.226389 0.667106
-35.383482 7.502402 0.007872
-31.8354 -18.045295 2.029648
-31.291535 -17.839665 1.201571
-39.564211 1.827401 8.201911
-39.635835 0.749273 8.982779
-39.912205 1.990209 9.103687
-28.835808 1.592744 -2.150207
-29.713086 1.498786 -1.67326
-28.161718 0.452297 -2.181467
-28.835808 1.592744 -2.150207
-35.537396 -12.650431 6.981056
-35.906271 -11.476418 7.262158
-34.931602 -14.7796 6.476522
-34.324581 -14.744856 5.691099
-37.043298 11.211905 0.263981
-37.614468 11.208755 0.991753
-36.528495 9.972379 0.176204
-37.043298 11.211905 0.263981
-29.413291 -14.758159 0.126943
-29.500759 -14.005577 0.470742
-28.87181 -13.684507 -0.215486
-30.062585 -15.79599 0.4961
-29.413291 -14.758159 0.126943
-38.652086 -3.01693 8.455192
-39.0851 -2.91578 9.346924
-38.977184 -1.762944 8.602265
-37.44923 -6.661971 7.967291
-37.864439 -5.423708 8.093424
-37.29215 -5.621498 7.279572
-37.095816 -7.912195 7.840084
-37.44923 -6.661971 7.967291
-36.422911 -8.040043 6.942111
-36.641785 -9.092477 7.628756
-37.095816 -7.912195 7.840084
-32.925953 2.359408 0.02473
-33.62104 3.644537 0.032183
-27.192222 -7.697734 -1.264641
-27.574153 -8.823127 -0.874131
-27.944388 -7.8785 -0.660457
-27.322769 -3.088458 -1.842952
-26.951243 -1.831148 -2.289126
-40.361185 6.729931 9.046665
-40.407459 5.605241 9.75225
-40.190279 6.736749 8.027303
-40.361185 6.729931 9.046665
-33.049518 -17.52181 3.932529
-32.98753 -18.405155 3.589081
-33.587289 -14.768054 4.864284
-34.324581 -14.744856 5.691099
-33.800173 -13.741499 5.077148
-28.323633 -12.674689 -0.506077
-28.409791 -11.852736 -0.267605
-27.774146 -11.595502 -0.901995
-28.87181 -13.684507 -0.215486
-28.323633 -12.674689 -0.506077
-31.658435 -0.076382 -0.007034
-32.274321 1.12084 -0.012767
-31.409143 1.163056 -0.588637
-32.411236 -18.180416 2.775656
-31.83503 -17.281644 2.360367
-31.8354 -18.045295 2.029648
-32.98753 -18.405155 3.589081
-32.411236 -18.180416 2.775656
-39.34902 -0.537665 8.7875
-39.635835 0.749273 8.982779
-38.916006 -0.638814 7.895768
-38.977184 -1.762944 8.602265
-39.34902 -0.537665 8.7875
-30.574953 1.316029 -1.12593
-31.409143 1.163056 -0.588637
-29.93139 0.148591 -1.130233
-30.574953 1.316029 -1.12593
-29.713086 1.498786 -1.67326
-27.530081 -0.706911 -2.233645
-28.437886 -0.827861 -1.729741
-28.161718 0.452297 -2.181467
-26.951243 -1.831148 -2.289126
-27.530081 -0.706911 -2.233645
-35.175499 -13.712595 6.709542
-35.537396 -12.650431 6.981056
-34.899361 -12.656137 6.175477
-35.175499 -13.712595 6.709542
-34.931602 -14.7796 6.476522
-38.927572 8.914391 3.871956
-39.058321 7.675164 4.582461
-39.369529 8.977858 4.735364
-38.481099 8.838043 3.05234
-38.927572 8.914391 3.871956
-37.938578 8.792469 2.279457
-38.073843 7.566123 2.946172
-38.481099 8.838043 3.05234
-37.781875 10.010454 1.635517
-37.614468 11.208755 0.991753
-37.37462 8.738535 1.529348
-37.938578 8.792469 2.279457
-37.781875 10.010454 1.635517
-35.992523 8.775809 0.050615
-36.681945 8.759949 0.759818
-36.528495 9.972379 0.176204
-35.383482 7.502402 0.007872
-35.992523 8.775809 0.050615
-30.671062 -16.829637 0.896695
-30.650717 -16.112876 1.213765
-30.062585 -15.79599 0.4961
-31.291535 -17.839665 1.201571
-30.671062 -16.829637 0.896695
-39.165945 -4.009387 10.146871
-39.0851 -2.91578 9.346924
-38.863325 -5.268061 9.933644
-39.165945 -4.009387 10.146871
-38.39076 -5.316973 8.990497
-38.23368 -4.276501 8.302778
-37.864439 -5.423708 8.093424
-38.863325 -5.268061 9.933644
-38.39076 -5.316973 8.990497
-36.260082 -10.289595 7.404053
-36.641785 -9.092477 7.628756
-35.615068 -10.407149 6.588887
-35.906271 -11.476418 7.262158
-36.260082 -10.289595 7.404053
-34.24996 4.909967 0.060259
-34.852854 6.165411 0.040748
-34.455798 3.623968 0.671906
-34.24996 4.909967 0.060259
-33.62104 3.644537 0.032183
-33.175246 1.11997 0.606332
-32.925953 2.359408 0.02473
-32.274321 1.12084 -0.012767
-27.341145 -9.707955 -1.07092
-28.093311 -9.88872 -0.466735
-27.574153 -8.823127 -0.874131
-27.218759 -10.600523 -1.26172
-27.341145 -9.707955 -1.07092
-27.659514 -4.387557 -1.355317
-28.142994 -3.286167 -1.294284
-27.322769 -3.088458 -1.842952
-27.200873 -5.471478 -1.477476
-28.021097 -5.669187 -0.928808
-27.659514 -4.387557 -1.355317
-26.797725 -6.475299 -1.615357
-27.200873 -5.471478 -1.477476
-27.192222 -7.697734 -1.264641
-26.797725 -6.475299 -1.615357
-40.094664 3.142741 9.301576
-39.912205 1.990209 9.103687
-40.311199 4.375527 9.540298
-40.407459 5.605241 9.75225
-40.057116 4.301124 8.56154
-40.094664 3.142741 9.301576
-40.311199 4.375527 9.540298
-39.911901 6.617226 7.110191
-39.995273 5.414388 7.88315
-40.190279 6.736749 8.027303
-39.803593 7.839109 6.350106
-39.608587 6.516747 6.205954
-39.911901 6.617226 7.110191
-39.695761 8.914248 5.680262
-39.803593 7.839109 6.350106
-39.369529 8.977858 4.735364
-39.695761 8.914248 5.680262
-33.440643 -15.794545 4.670822
-33.587289 -14.768054 4.864284
-32.916235 -14.791189 4.056871
-33.228879 -16.722267 4.311046
-32.590227 -16.617223 3.484892
-33.049518 -17.52181 3.932529
-33.440643 -15.794545 4.670822
-33.228879 -16.722267 4.311046
3 0 19 17
3 1 22 20
3 71 70 23
3 2 27 25
3 2 29 27
3 72 32 73
3 74 73 30
3 72 73 74
3 3 35 33
3 3 37 35
3 3 39 37
3 76 75 40
3 4 77 79
3 77 42 78
3 77 78 79
3 6 43 18
3 6 44 43
3 80 45 81
3 83 82 45
3 7 84 85
3 87 86 21
3 88 48 89
3 91 90 48
3 9 51 49
3 92 52 93
3 94 93 24
3 92 93 94
3 96 95 52
3 5 97 99
3 97 53 98
3 97 98 99
3 11 100 102
3 102 101 26
3 100 101 102
3 11 103 104
3 11 105 107
3 105 54 106
3 105 106 107
3 12 55 28
3 12 56 55
3 8 57 47
3 13 58 31
3 13 59 58
3 108 60 109
3 14 61 34
3 14 62 61
3 14 63 62
3 15 64 36
3 15 65 64
3 15 66 65
3 16 67 38
3 16 110 112
3 112 111 67
3 110 111 112
3 114 113 46
3 115 68 116
3 118 117 68
3 10 69 50
3 120 119 41
3 17 18 4
3 19 18 17
3 19 6 18
3 20 21 7
3 22 21 20
3 22 121 123
3 123 122 21
3 121 122 123
3 23 24 9
3 124 24 125
3 126 125 23
3 124 125 126
3 128 127 24
3 25 26 5
3 27 26 25
3 27 11 26
3 27 28 11
3 29 28 27
3 29 12 28
3 30 31 8
3 32 31 30
3 32 13 31
3 33 129 131
3 129 34 130
3 129 130 131
3 35 34 33
3 35 14 34
3 35 36 14
3 37 36 35
3 37 15 36
3 37 38 15
3 39 38 37
3 39 16 38
3 40 41 10
3 132 41 133
3 134 133 40
3 132 133 134
3 136 135 41
3 42 137 138
3 42 139 141
3 139 5 140
3 139 140 141
3 18 42 4
3 43 42 18
3 43 5 42
3 43 25 5
3 44 25 43
3 44 2 25
3 142 33 143
3 45 144 146
3 144 33 145
3 144 145 146
3 45 3 33
3 45 46 3
3 147 46 148
3 149 148 45
3 147 148 149
3 151 150 46
3 21 152 154
3 154 153 7
3 152 153 154
3 156 155 21
3 157 47 158
3 159 158 0
3 157 158 159
3 160 47 161
3 162 8 163
3 164 163 47
3 162 163 164
3 48 165 166
3 48 167 169
3 167 8 168
3 167 168 169
3 48 30 8
3 170 30 171
3 172 171 48
3 170 171 172
3 174 173 30
3 49 50 1
3 51 50 49
3 51 10 50
3 24 51 9
3 52 51 24
3 52 10 51
3 52 40 10
3 175 40 176
3 177 176 52
3 175 176 177
3 179 178 40
3 53 180 181
3 53 182 183
3 26 53 5
3 184 53 185
3 186 185 26
3 184 185 186
3 188 187 53
3 54 189 190
3 54 191 193
3 191 7 192
3 191 192 193
3 28 54 11
3 55 54 28
3 55 7 54
3 55 20 7
3 56 20 55
3 56 1 20
3 47 19 0
3 57 19 47
3 57 6 19
3 31 57 8
3 58 57 31
3 58 6 57
3 58 44 6
3 59 44 58
3 59 2 44
3 194 32 195
3 60 196 198
3 196 32 197
3 196 197 198
3 60 13 32
3 34 199 201
3 199 60 200
3 199 200 201
3 61 60 34
3 61 13 60
3 61 59 13
3 62 59 61
3 62 2 59
3 62 29 2
3 63 29 62
3 63 12 29
3 36 63 14
3 64 63 36
3 64 12 63
3 64 56 12
3 65 56 64
3 65 1 56
3 65 49 1
3 66 49 65
3 66 9 49
3 38 66 15
3 67 66 38
3 67 9 66
3 67 23 9
3 202 23 203
3 204 203 67
3 202 203 204
3 206 205 23
3 46 39 3
3 207 39 208
3 209 208 46
3 207 208 209
3 210 16 211
3 212 211 39
3 210 211 212
3 213 16 214
3 216 215 16
3 217 4 218
3 68 219 220
3 68 221 223
3 221 4 222
3 221 222 223
3 68 17 4
3 224 17 225
3 226 225 68
3 224 225 226
3 227 0 228
3 229 228 17
3 227 228 229
3 230 0 231
3 233 232 0
3 50 22 1
3 69 22 50
3 69 234 236
3 236 235 22
3 234 235 236
3 41 69 10
3 237 69 238
3 239 238 41
3 237 238 239
3 241 240 69
