ply
format ascii 1.0
element vertex 256
property float x
property float y
property float z
element face 233
property list uchar int vertex_index
end_header
21.813738 63.687004 -16.440695
15.361182 75.839066 -29.286892
4.989321 65.589211 -42.956364
9.969376 72.493362 -36.617069
21.144222 69.751343 -18.868103
19.181787 70.756538 -22.565262
19.962627 64.853264 -19.624519
14.57956 70.055809 -29.649315
12.749164 74.516243 -32.957417
12.236762 68.293198 -33.024551
9.951637 65.919197 -36.484711
17.68951 76.154121 -25.568964
16.974373 70.715004 -26.082842
22.793184 68.1567 -15.019608
7.43912 69.308304 -39.837875
7.898922 63.009655 -39.753983
21.599535 66.680138 -17.512644
20.690273 67.344292 -19.248234
20.946884 64.289825 -17.968859
14.164993 66.81144 -29.455788
13.418033 69.296349 -31.311409
13.066776 66.201965 -31.202488
18.811132 75.711929 -23.561499
18.599554 68.173264 -22.812336
18.055317 70.837929 -24.415762
17.493259 67.87059 -24.411831
16.360886 67.88929 -26.195862
22.255438 71.197891 -16.089308
3.278093 66.772705 -44.358532
11.340413 73.50444 -34.83849
11.405004 76.592873 -34.719532
8.754991 70.87587 -38.166779
8.904675 64.59153 -38.128277
20.551809 72.71859 -20.215549
19.607714 73.128105 -22.103445
20.25951 70.234413 -20.601553
19.679983 67.94249 -21.056145
18.911671 65.160439 -21.273045
4.612225 68.933914 -42.852779
15.04605 73.028862 -29.51067
14.100317 75.130081 -31.093521
13.834109 72.373344 -31.215866
12.49575 71.512321 -33.075539
11.241851 70.579216 -34.81385
10.085354 69.203743 -36.396954
11.103275 67.373039 -34.740124
16.57415 75.973747 -27.417395
18.521557 73.429497 -24.080204
17.441647 73.490364 -25.884125
16.178301 73.261719 -27.834562
15.794732 70.544006 -27.878056
15.292986 67.633896 -27.826452
22.408735 65.903801 -15.823695
21.473686 71.918747 -18.142233
22.012341 68.92379 -16.965525
6.151231 67.663025 -41.453907
8.802896 67.869286 -38.172028
7.687576 66.17173 -39.748405
6.503319 64.367264 -41.448715
21.914618 62.229902 -15.896925
21.4694 62.444494 -16.588959
21.4694 62.444494 -16.588959
21.035974 62.745904 -17.353041
21.380311 63.988414 -17.204777
13.341774 64.961546 -30.340692
13.615884 66.506703 -30.329138
13.890883 65.266284 -29.467343
12.856498 64.671467 -31.219962
13.341774 64.961546 -30.340692
19.338658 75.588352 -22.484999
18.882493 76.829887 -23.164644
17.670902 66.620979 -23.670807
18.046406 68.021927 -23.612083
18.224049 66.772316 -22.87106
17.137336 66.587723 -24.48111
17.670902 66.620979 -23.670807
4.497516 64.526024 -43.619534
3.641903 65.117771 -44.320617
4.133707 66.180958 -43.657448
5.251411 64.018567 -42.940058
4.497516 64.526024 -43.619534
14.788152 76.934758 -30.078682
15.397174 77.215694 -29.146083
9.987696 74.010177 -36.554672
10.673215 74.515716 -35.665382
10.654895 72.998901 -35.727779
9.290789 73.341435 -37.403469
9.987696 74.010177 -36.554672
9.362184 71.684616 -37.391924
8.683596 72.532689 -38.178324
9.290789 73.341435 -37.403469
19.540599 63.436477 -19.684006
19.015121 63.590065 -20.508269
19.437149 65.006851 -20.448782
4.364361 70.597492 -42.849622
3.702463 69.484337 -43.554483
17.177243 77.348098 -26.302343
17.774347 77.250679 -25.249617
17.13183 76.063934 -26.49318
16.619563 77.257912 -27.226559
17.177243 77.348098 -26.302343
15.518363 66.247268 -26.945894
15.826936 67.761593 -27.011157
16.052313 66.374966 -26.130599
14.981269 66.104466 -27.823889
15.518363 66.247268 -26.945894
22.971377 66.755539 -14.575689
22.779153 65.629089 -14.977732
22.60096 67.03025 -15.421651
21.492732 73.066002 -17.735925
21.118614 73.339821 -18.759659
12.792694 75.977329 -32.888374
13.46827 76.284249 -31.956426
13.424741 74.823162 -32.025469
11.403005 78.087639 -34.562989
10.636821 77.578285 -35.543161
6.717239 70.105828 -40.554743
7.384457 70.982261 -39.775842
6.795176 68.485665 -40.645891
6.073295 69.283188 -41.362758
6.717239 70.105828 -40.554743
7.423761 62.108229 -40.562048
6.725959 62.787033 -41.409414
7.201121 63.68846 -40.601349
20.549404 63.010047 -18.102736
20.057276 63.291767 -18.930566
20.454756 64.571544 -18.796689
20.549404 63.010047 -18.102736
21.035974 62.745904 -17.353041
12.540097 65.767906 -32.055166
12.12509 66.813523 -32.966198
12.651769 67.247581 -32.11352
12.540097 65.767906 -32.055166
12.856498 64.671467 -31.219962
18.335158 77.029583 -24.245884
18.882493 76.829887 -23.164644
18.250321 75.933025 -24.565232
17.774347 77.250679 -25.249617
18.335158 77.029583 -24.245884
16.57115 66.597072 -25.373126
16.927073 67.87994 -25.303846
17.137336 66.587723 -24.48111
16.052313 66.374966 -26.130599
16.57115 66.597072 -25.373126
23.112412 67.726116 -14.061059
22.845298 69.19059 -14.568611
22.22646 72.222511 -15.64145
21.883608 72.705574 -16.709463
22.576425 70.711185 -15.103461
22.22646 72.222511 -15.64145
22.845298 69.19059 -14.568611
22.524311 69.677295 -15.554458
22.576425 70.711185 -15.103461
2.769804 65.631325 -44.97143
2.368572 67.269489 -44.992266
2.769804 65.631325 -44.97143
3.641903 65.117771 -44.320617
10.70551 76.059933 -35.605903
11.372708 75.048656 -34.779011
10.673215 74.515716 -35.665382
10.636821 77.578285 -35.543161
10.70551 76.059933 -35.605903
8.042393 71.766044 -38.940295
8.683596 72.532689 -38.178324
8.097055 70.092087 -39.002327
7.384457 70.982261 -39.775842
8.042393 71.766044 -38.940295
9.42202 63.629773 -37.292694
9.428156 65.255364 -37.306494
9.945501 64.293606 -36.470911
8.9823 62.94258 -38.110294
9.42202 63.629773 -37.292694
8.479423 62.151642 -38.923147
8.401798 63.800593 -38.94113
8.9823 62.94258 -38.110294
8.060025 61.359747 -39.748087
8.479423 62.151642 -38.923147
20.079762 72.923348 -21.159497
19.736949 74.29644 -21.755972
20.208996 74.091683 -20.812024
18.380108 65.265904 -22.101414
18.224049 66.772316 -22.87106
18.755612 66.666852 -22.04269
18.49967 63.734656 -21.287944
18.380108 65.265904 -22.101414
18.49967 63.734656 -21.287944
19.015121 63.590065 -20.508269
19.540599 63.436477 -19.684006
20.057276 63.291767 -18.930566
3.035397 68.403733 -44.307359
2.368572 67.269489 -44.992266
3.945159 67.853309 -43.605655
3.035397 68.403733 -44.307359
3.702463 69.484337 -43.554483
11.558346 66.353443 -33.823985
11.670019 67.833119 -33.882338
12.12509 66.813523 -32.966198
11.044312 65.767029 -34.680782
11.558346 66.353443 -33.823985
10.468493 65.040108 -35.553076
10.527456 66.646118 -35.612417
11.044312 65.767029 -34.680782
9.945501 64.293606 -36.470911
10.468493 65.040108 -35.553076
16.003657 77.283035 -28.211334
16.619563 77.257912 -27.226559
15.967666 75.906407 -28.352144
15.397174 77.215694 -29.146083
16.003657 77.283035 -28.211334
19.209423 74.420017 -22.832472
19.338658 75.588352 -22.484999
19.736949 74.29644 -21.755972
14.417272 65.693238 -28.638556
14.72899 67.222668 -28.64112
14.981269 66.104466 -27.823889
13.890883 65.266284 -29.467343
14.417272 65.693238 -28.638556
22.540366 64.468801 -15.324057
22.242868 63.360403 -15.632556
22.111237 64.795402 -16.132195
22.540366 64.468801 -15.324057
22.779153 65.629089 -14.977732
22.971377 66.755539 -14.575689
23.112412 67.726116 -14.061059
20.657675 73.739743 -19.796317
20.208996 74.091683 -20.812024
21.012747 72.318669 -19.178891
20.657675 73.739743 -19.796317
21.118614 73.339821 -18.759659
21.864562 71.558319 -17.11577
21.492732 73.066002 -17.735925
21.883608 72.705574 -16.709463
21.914618 62.229902 -15.896925
22.242868 63.360403 -15.632556
14.157719 76.580265 -30.981997
14.788152 76.934758 -30.078682
14.730749 75.484574 -30.190207
14.157719 76.580265 -30.981997
13.46827 76.284249 -31.956426
12.120614 77.015645 -33.769432
12.792694 75.977329 -32.888374
12.077084 75.554558 -33.838475
12.120614 77.015645 -33.769432
11.403005 78.087639 -34.562989
5.303791 69.918633 -42.062195
4.364361 70.597492 -42.849622
5.381728 68.29847 -42.153343
5.303791 69.918633 -42.062195
6.073295 69.283188 -41.362758
6.008409 63.407593 -42.186234
5.251411 64.018567 -42.940058
5.74632 64.978238 -42.20254
6.008409 63.407593 -42.186234
6.725959 62.787033 -41.409414
7.423761 62.108229 -40.562048
8.060025 61.359747 -39.748087
3 0 59 60
3 0 18 16
3 0 61 63
3 63 62 18
3 61 62 63
3 64 21 65
3 66 65 19
3 64 65 66
3 68 67 21
3 69 22 70
3 71 25 72
3 73 72 23
3 71 72 73
3 75 74 25
3 2 76 78
3 78 77 28
3 76 77 78
3 2 79 80
3 1 81 82
3 3 83 85
3 85 84 29
3 83 84 85
3 3 86 87
3 3 88 90
3 88 31 89
3 88 89 90
3 4 35 33
3 6 36 17
3 6 37 36
3 6 91 93
3 93 92 37
3 91 92 93
3 94 38 95
3 7 41 39
3 9 42 20
3 9 43 42
3 9 45 43
3 11 96 97
3 11 98 100
3 98 46 99
3 98 99 100
3 5 47 34
3 12 48 24
3 12 49 48
3 12 50 49
3 101 51 102
3 103 102 26
3 101 102 103
3 105 104 51
3 13 106 108
3 108 107 52
3 106 107 108
3 109 53 110
3 13 54 27
3 13 52 54
3 8 111 113
3 113 112 40
3 111 112 113
3 115 114 30
3 14 116 117
3 14 118 120
3 118 55 119
3 118 119 120
3 10 56 44
3 15 57 32
3 15 58 57
3 15 121 123
3 123 122 58
3 121 122 123
3 16 17 4
3 18 17 16
3 18 6 17
3 18 124 126
3 126 125 6
3 124 125 126
3 128 127 18
3 19 20 7
3 21 20 19
3 21 9 20
3 21 129 131
3 131 130 9
3 129 130 131
3 133 132 21
3 22 134 135
3 22 136 138
3 136 11 137
3 136 137 138
3 23 24 5
3 25 24 23
3 25 12 24
3 25 26 12
3 139 26 140
3 141 140 25
3 139 140 141
3 143 142 26
3 145 144 13
3 146 27 147
3 148 27 149
3 150 13 151
3 152 151 27
3 150 151 152
3 28 153 154
3 156 155 28
3 29 30 8
3 157 30 158
3 159 158 29
3 157 158 159
3 161 160 30
3 31 162 163
3 31 164 166
3 164 14 165
3 164 165 166
3 167 32 168
3 169 168 10
3 167 168 169
3 170 32 171
3 172 15 173
3 174 173 32
3 172 173 174
3 176 175 15
3 33 177 179
3 177 34 178
3 177 178 179
3 35 34 33
3 35 5 34
3 17 35 4
3 36 35 17
3 36 5 35
3 36 23 5
3 37 23 36
3 37 180 182
3 182 181 23
3 180 181 182
3 37 183 184
3 186 185 37
3 188 187 6
3 189 28 190
3 38 191 193
3 191 28 192
3 191 192 193
3 38 2 28
3 39 40 1
3 41 40 39
3 41 8 40
3 20 41 7
3 42 41 20
3 42 8 41
3 42 29 8
3 43 29 42
3 43 3 29
3 43 44 3
3 45 44 43
3 45 10 44
3 194 45 195
3 196 195 9
3 194 195 196
3 197 45 198
3 199 10 200
3 201 200 45
3 199 200 201
3 203 202 10
3 46 204 205
3 46 206 208
3 206 1 207
3 206 207 208
3 34 209 211
3 209 22 210
3 209 210 211
3 47 22 34
3 47 11 22
3 24 47 5
3 48 47 24
3 48 11 47
3 48 46 11
3 49 46 48
3 49 1 46
3 49 39 1
3 50 39 49
3 50 7 39
3 26 50 12
3 51 50 26
3 51 7 50
3 51 19 7
3 212 19 213
3 214 213 51
3 212 213 214
3 216 215 19
3 52 217 219
3 219 218 0
3 217 218 219
3 221 220 52
3 223 222 13
3 224 33 225
3 53 226 228
3 226 33 227
3 226 227 228
3 53 4 33
3 27 229 231
3 229 53 230
3 229 230 231
3 54 53 27
3 54 4 53
3 54 16 4
3 52 16 54
3 52 0 16
3 233 232 0
3 40 234 236
3 236 235 1
3 234 235 236
3 238 237 40
3 30 239 241
3 241 240 8
3 239 240 241
3 243 242 30
3 244 38 245
3 55 246 248
3 246 38 247
3 246 247 248
3 55 2 38
3 44 31 3
3 56 31 44
3 56 14 31
3 32 56 10
3 57 56 32
3 57 14 56
3 57 55 14
3 58 55 57
3 58 2 55
3 58 249 251
3 251 250 2
3 249 250 251
3 253 252 58
3 255 254 15
