ply
format ascii 1.0
element vertex 258
property float x
property float y
property float z
element face 258
property list uchar int vertex_index
end_header
-6.843683 -10.74527 -62.383541
1.06962 -31.75075 -48.935802
-2.873408 -8.296381 -60.364635
-4.264316 -33.963917 -52.170731
-3.623931 -20.480474 -56.128201
-7.051416 -27.35829 -55.643158
2.972758 -30.315971 -47.140476
0.55762 -24.648371 -50.906559
-1.489678 -19.40382 -54.623848
-1.582843 -25.898825 -52.691551
5.591346 -35.092548 -43.753754
3.943786 -37.333996 -45.444675
-5.003318 -9.456858 -61.766895
1.780784 -39.488113 -47.077805
-1.398603 -33.27002 -50.595955
-4.035622 -26.768621 -54.203163
-6.255561 -20.72658 -57.71521
-5.532864 -14.918756 -59.731121
-1.361066 -13.222135 -56.654175
-3.288549 -14.150818 -58.33934
2.037019 -30.847561 -48.121201
1.652712 -27.496544 -49.081059
0.734063 -28.094727 -49.976421
-0.448227 -25.311844 -51.814434
-0.313894 -28.915182 -50.794243
6.379678 -38.88158 -42.845222
4.901145 -36.340462 -44.513298
5.505625 -40.126881 -43.747276
-3.69354 -6.117154 -62.109001
-4.79875 -6.682404 -62.819904
-3.956782 -8.742924 -61.220646
-2.683875 -37.336884 -50.431309
-1.241956 -36.769386 -49.690746
-2.819561 -33.577686 -51.445652
-2.800595 -29.899485 -52.442337
-4.107867 -30.397272 -53.107018
-6.681116 -23.853331 -56.726383
-7.186303 -17.832533 -59.39785
-0.529652 -15.943672 -54.63063
-2.465732 -19.961924 -55.371304
-2.409589 -16.640142 -56.535023
-3.487518 -17.255354 -57.261753
-4.38977 -14.511329 -59.103313
-4.678249 -17.630632 -58.009796
-5.822442 -34.385689 -52.840714
-5.688683 -30.941902 -53.796352
-0.519716 -18.871481 -53.700672
-0.564704 -21.956118 -52.847744
-1.554357 -22.694452 -53.626385
-2.640972 -23.050808 -54.454205
3.424856 -33.767197 -46.281246
2.475583 -34.816647 -47.12923
-5.995003 -10.341696 -62.063797
-7.328245 -12.475909 -61.840508
4.506823 -41.14513 -44.642262
2.913307 -38.59074 -46.278206
1.326275 -35.482399 -48.061417
0.424161 -40.064941 -47.954445
0.189342 -36.320454 -48.798466
-0.097388 -32.614124 -49.770565
-1.494761 -29.625389 -51.589207
-2.762808 -26.368622 -53.473381
-3.836855 -23.56082 -55.161739
-5.473346 -27.277382 -54.871563
-5.161162 -23.751949 -55.936134
-4.852588 -20.710621 -56.893307
-5.879116 -17.862352 -58.678337
-6.677036 -15.049882 -60.344715
-6.232346 -12.478829 -61.247086
-2.08922 -10.792953 -58.469547
-1.437495 -16.255955 -55.648624
-2.284882 -13.682994 -57.541992
-3.104773 -11.131582 -59.41021
-4.158901 -11.654835 -60.140816
-5.194695 -12.20616 -60.696598
6.759155 -40.837395 -42.458129
7.132797 -40.04046 -42.039938
6.322128 -41.460045 -42.909156
5.942652 -39.50423 -43.296249
6.759155 -40.837395 -42.458129
-3.283474 -7.206767 -61.236818
-3.209341 -5.847033 -61.728102
-2.799276 -6.936646 -60.855919
-3.474095 -35.650401 -51.30102
-3.469426 -37.608517 -50.785244
-4.259647 -35.922033 -51.654955
-0.113073 -17.154677 -53.702501
-0.137642 -15.633393 -54.174498
-6.647089 -34.545122 -53.16514
-5.91156 -36.230366 -52.378334
-6.736207 -36.389799 -52.702761
-6.593391 -32.706451 -53.70348
-6.647089 -34.545122 -53.16514
2.768304 -28.549839 -47.601299
3.351621 -29.773927 -46.719499
1.023555 -24.517455 -50.366272
1.571101 -25.941541 -49.453522
1.105166 -26.072457 -49.993809
0.482768 -23.097314 -51.359585
1.023555 -24.517455 -50.366272
-0.003542 -23.302245 -51.877151
-0.078394 -21.751188 -52.330177
0.482768 -23.097314 -51.359585
5.981253 -34.621767 -43.272898
6.354616 -36.288297 -42.864247
5.30777 -33.435826 -44.127612
5.981253 -34.621767 -43.272898
4.925757 -33.870688 -44.584883
5.30777 -33.435826 -44.127612
-5.430477 -8.545955 -62.468544
-5.328193 -7.158728 -62.995048
-4.901034 -8.069631 -62.293399
-5.499161 -9.899277 -61.915346
-5.926319 -8.988374 -62.616995
-5.430477 -8.545955 -62.468544
4.822749 -43.016558 -44.254021
5.360718 -42.545013 -43.801743
5.676645 -44.416441 -43.413502
2.347046 -39.039426 -46.678005
3.19959 -40.509882 -45.837656
2.633328 -40.958568 -46.237455
-0.235526 -40.387424 -48.311323
0.683326 -42.119175 -47.456963
-7.321031 -15.042545 -60.667349
-6.931669 -16.441208 -59.871282
-7.575665 -16.433871 -60.193917
-7.646636 -13.755559 -61.415245
-7.002641 -13.762895 -61.092612
-7.321031 -15.042545 -60.667349
-1.321402 -11.714287 -57.175726
-0.964418 -13.021394 -56.197235
-1.725143 -12.007544 -57.561861
-1.685479 -10.499696 -58.083412
-1.321402 -11.714287 -57.175726
6.748782 -38.182813 -42.409981
7.501901 -39.341694 -41.604696
7.132797 -40.04046 -42.039938
5.985512 -36.987064 -43.299488
6.354616 -36.288297 -42.864247
6.748782 -38.182813 -42.409981
-3.620751 -4.768201 -62.608871
-3.209341 -5.847033 -61.728102
-4.170666 -5.080275 -62.969906
-3.620751 -4.768201 -62.608871
-4.246145 -6.399779 -62.464453
-4.72327 -5.362901 -63.325357
-4.170666 -5.080275 -62.969906
1.973396 -41.258941 -46.693953
2.633328 -40.958568 -46.237455
-2.547982 -39.365339 -49.907106
-3.469426 -37.608517 -50.785244
-1.789544 -39.023396 -49.549755
-2.547982 -39.365339 -49.907106
-1.962916 -37.053135 -50.061027
-1.068585 -38.739647 -49.179474
-1.789544 -39.023396 -49.549755
-7.481908 -23.930312 -57.076334
-6.866266 -25.605811 -56.18477
-7.667057 -25.682792 -56.534722
-7.224455 -22.259502 -57.613602
-7.481908 -23.930312 -57.076334
-7.011678 -20.696127 -58.108015
-6.468338 -22.289955 -57.220796
-7.224455 -22.259502 -57.613602
-7.477049 -19.249104 -58.949335
-6.720932 -19.279556 -58.55653
-7.011678 -20.696127 -58.108015
-7.898027 -17.694318 -59.786628
-7.477049 -19.249104 -58.949335
-7.575665 -16.433871 -60.193917
-7.898027 -17.694318 -59.786628
-0.54871 -14.382162 -55.185462
-0.137642 -15.633393 -54.174498
-0.945359 -14.582904 -55.642403
-0.964418 -13.021394 -56.197235
-0.54871 -14.382162 -55.185462
-2.435001 -8.124002 -59.93893
-2.799276 -6.936646 -60.855919
-5.03871 -36.132919 -51.989947
-5.91156 -36.230366 -52.378334
-5.043379 -34.174803 -52.505723
-4.259647 -35.922033 -51.654955
-5.03871 -36.132919 -51.989947
-6.526511 -30.984557 -54.181299
-5.755562 -32.663795 -53.318533
-6.593391 -32.706451 -53.70348
-7.207878 -29.192751 -55.104702
-6.37005 -29.150096 -54.719755
-6.526511 -30.984557 -54.181299
-7.856317 -27.500044 -55.953001
-7.207878 -29.192751 -55.104702
-7.667057 -25.682792 -56.534722
-7.856317 -27.500044 -55.953001
2.108281 -27.140125 -48.57159
2.768304 -28.549839 -47.601299
2.312735 -28.906258 -48.110768
2.108281 -27.140125 -48.57159
1.571101 -25.941541 -49.453522
-0.055899 -20.208869 -52.756642
-0.108105 -18.618582 -53.237522
-0.54221 -20.413799 -53.274208
-0.055899 -20.208869 -52.756642
-0.078394 -21.751188 -52.330177
3.616464 -31.482399 -46.278244
3.351621 -29.773927 -46.719499
4.580657 -34.494644 -44.964655
4.925757 -33.870688 -44.584883
5.246245 -35.716505 -44.133526
3.842513 -33.208012 -45.848629
4.580657 -34.494644 -44.964655
4.163 -35.05383 -45.397272
3.198807 -32.041584 -46.710861
3.616464 -31.482399 -46.278244
3.842513 -33.208012 -45.848629
-5.274829 -5.779043 -63.558718
-4.72327 -5.362901 -63.325357
-5.274829 -5.779043 -63.558718
-5.328193 -7.158728 -62.995048
-6.432021 -9.52208 -62.686857
-5.926319 -8.988374 -62.616995
-6.419343 -10.543483 -62.223669
-6.856362 -9.723866 -62.846729
-6.432021 -9.52208 -62.686857
-6.856362 -9.723866 -62.846729
-7.273676 -10.428333 -62.739744
-7.928282 -12.270702 -62.205744
-7.646636 -13.755559 -61.415245
-7.515957 -11.293653 -62.468227
-7.928282 -12.270702 -62.205744
-7.273676 -10.428333 -62.739744
-7.085964 -11.610589 -62.112025
-7.515957 -11.293653 -62.468227
5.860119 -42.035889 -43.35425
6.322128 -41.460045 -42.909156
5.006224 -40.636005 -44.194769
5.860119 -42.035889 -43.35425
5.360718 -42.545013 -43.801743
3.996347 -41.787077 -45.019684
4.822749 -43.016558 -44.254021
3.710065 -39.867935 -45.460234
3.996347 -41.787077 -45.019684
3.19959 -40.509882 -45.837656
1.295084 -41.547355 -47.132273
0.683326 -42.119175 -47.456963
1.102472 -39.776527 -47.516125
1.973396 -41.258941 -46.693953
1.295084 -41.547355 -47.132273
-0.408898 -38.417164 -48.822595
-0.235526 -40.387424 -48.311323
-1.068585 -38.739647 -49.179474
-2.042908 -9.372288 -58.991387
-1.685479 -10.499696 -58.083412
-2.481314 -9.544667 -59.417091
-2.435001 -8.124002 -59.93893
-2.042908 -9.372288 -58.991387
-0.524684 -17.407576 -54.165651
-0.113073 -17.154677 -53.702501
-0.108105 -18.618582 -53.237522
3 1 22 20
3 1 24 22
3 75 25 76
3 77 27 78
3 79 78 25
3 77 78 79
3 2 80 82
3 80 28 81
3 80 81 82
3 2 30 28
3 3 83 85
3 83 31 84
3 83 84 85
3 3 33 31
3 3 35 33
3 86 38 87
3 4 41 39
3 4 43 41
3 88 44 89
3 88 89 90
3 92 91 44
3 6 93 94
3 7 95 97
3 97 96 21
3 95 96 97
3 7 98 99
3 7 100 102
3 100 47 101
3 100 101 102
3 9 48 23
3 9 49 48
3 10 103 104
3 10 105 106
3 10 107 108
3 11 50 26
3 11 51 50
3 12 109 111
3 111 110 29
3 109 110 111
3 12 112 114
3 112 52 113
3 112 113 114
3 115 54 116
3 115 116 117
3 13 118 120
3 118 55 119
3 118 119 120
3 13 56 55
3 121 57 122
3 14 58 32
3 14 59 58
3 14 60 59
3 15 61 34
3 15 62 61
3 5 63 45
3 16 64 36
3 16 65 64
3 16 66 65
3 123 67 124
3 125 124 37
3 123 124 125
3 126 53 127
3 128 127 67
3 126 127 128
3 18 129 130
3 18 131 133
3 131 69 132
3 131 132 133
3 8 70 46
3 19 71 40
3 19 72 71
3 19 73 72
3 17 74 42
3 17 68 74
3 20 21 6
3 22 21 20
3 22 7 21
3 22 23 7
3 24 23 22
3 24 9 23
3 25 134 136
3 134 135 136
3 25 137 139
3 137 10 138
3 137 138 139
3 25 26 10
3 27 26 25
3 27 11 26
3 28 140 141
3 28 142 143
3 28 144 146
3 144 29 145
3 144 145 146
3 30 29 28
3 30 12 29
3 147 13 148
3 31 149 150
3 31 151 152
3 31 153 155
3 153 32 154
3 153 154 155
3 33 32 31
3 33 14 32
3 33 34 14
3 35 34 33
3 35 15 34
3 156 36 157
3 158 157 5
3 156 157 158
3 159 36 160
3 161 16 162
3 163 162 36
3 161 162 163
3 164 37 165
3 166 165 16
3 164 165 166
3 167 37 168
3 170 169 37
3 38 171 172
3 38 173 175
3 173 18 174
3 173 174 175
3 39 40 8
3 41 40 39
3 41 19 40
3 41 42 19
3 43 42 41
3 43 17 42
3 176 2 177
3 44 178 179
3 44 180 182
3 180 3 181
3 180 181 182
3 44 45 3
3 183 45 184
3 185 184 44
3 183 184 185
3 186 5 187
3 188 187 45
3 186 187 188
3 189 5 190
3 192 191 5
3 21 193 195
3 195 194 6
3 193 194 195
3 197 196 21
3 198 46 199
3 47 200 202
3 200 46 201
3 200 201 202
3 47 8 46
3 23 47 7
3 48 47 23
3 48 8 47
3 48 39 8
3 49 39 48
3 49 4 39
3 203 6 204
3 26 205 207
3 207 206 10
3 205 206 207
3 50 208 210
3 210 209 26
3 208 209 210
3 50 211 213
3 211 6 212
3 211 212 213
3 50 20 6
3 51 20 50
3 51 1 20
3 29 214 215
3 217 216 29
3 52 218 219
3 52 220 222
3 220 0 221
3 220 221 222
3 223 0 224
3 225 53 226
3 227 53 228
3 229 0 230
3 231 230 53
3 229 230 231
3 232 27 233
3 54 234 236
3 234 27 235
3 234 235 236
3 54 11 27
3 237 54 238
3 55 239 241
3 239 54 240
3 239 240 241
3 55 11 54
3 55 51 11
3 56 51 55
3 56 1 51
3 57 242 243
3 57 244 246
3 244 13 245
3 244 245 246
3 32 247 249
3 247 57 248
3 247 248 249
3 58 57 32
3 58 13 57
3 58 56 13
3 59 56 58
3 59 1 56
3 59 24 1
3 60 24 59
3 60 9 24
3 34 60 14
3 61 60 34
3 61 9 60
3 61 49 9
3 62 49 61
3 62 4 49
3 45 35 3
3 63 35 45
3 63 15 35
3 36 63 5
3 64 63 36
3 64 15 63
3 64 62 15
3 65 62 64
3 65 4 62
3 65 43 4
3 66 43 65
3 66 17 43
3 37 66 16
3 67 66 37
3 67 17 66
3 67 68 17
3 53 68 67
3 53 0 68
3 69 250 251
3 69 252 254
3 252 2 253
3 252 253 254
3 46 255 257
3 255 38 256
3 255 256 257
3 70 38 46
3 70 18 38
3 40 70 8
3 71 70 40
3 71 18 70
3 71 69 18
3 72 69 71
3 72 2 69
3 72 30 2
3 73 30 72
3 73 12 30
3 42 73 19
3 74 73 42
3 74 12 73
3 74 52 12
3 68 52 74
3 68 0 52
