ply
format ascii 1.0
element vertex 213
property float x
property float y
property float z
element face 202
property list uchar int vertex_index
end_header
36.822697 -30.017202 -17.420744
38.071762 -25.470959 -25.247976
35.876553 -35.113304 -20.041637
38.27319 -26.724535 -12.04682
35.709129 -33.89146 -15.439358
36.25494 -32.307251 -18.899992
35.18853 -36.0439 -16.566572
37.984051 -28.551113 -26.680132
38.845093 -22.955181 -29.055315
37.868092 -25.734804 -19.164539
37.375072 -27.781973 -21.241798
37.036289 -30.51329 -22.662651
38.424934 -23.9746 -16.601873
37.535172 -28.265974 -15.061727
35.203365 -35.537598 -14.429897
35.418777 -34.93618 -16.034906
34.939312 -36.511223 -14.916026
37.367466 -27.927017 -18.249331
37.624691 -26.599373 -20.255714
37.09026 -28.874237 -19.35195
36.037521 -33.661015 -19.474178
36.621544 -31.409046 -20.743166
36.46199 -32.839878 -21.309097
36.938889 -32.050423 -23.290968
36.360657 -34.443771 -21.985744
38.155174 -24.218174 -24.248474
38.502285 -22.720503 -26.261049
38.321812 -25.481667 -14.314978
38.031174 -26.115572 -15.882854
37.917114 -27.474802 -13.631995
36.263973 -32.019909 -16.387096
36.526966 -31.061703 -18.298977
35.978252 -33.031269 -17.140909
35.707726 -34.251732 -17.685534
35.463791 -35.684399 -18.156181
38.002483 -26.91572 -25.905462
38.461452 -24.186743 -27.163952
38.441395 -25.822847 -27.894987
38.892147 -24.56588 -29.917152
38.099689 -24.274487 -21.295282
37.860794 -25.488867 -22.2701
37.698925 -26.667019 -23.226835
36.836147 -30.063553 -20.116169
37.173988 -29.088446 -21.972216
37.564995 -28.056934 -23.910715
37.532295 -29.371637 -24.722137
37.433105 -31.251705 -25.265486
38.852261 -21.295588 -28.264751
38.152603 -24.816299 -17.992172
37.689419 -27.004026 -17.164463
37.15218 -29.136955 -16.314533
36.975624 -30.286966 -14.315654
36.594162 -31.123703 -15.45218
36.026207 -33.028038 -14.495897
34.648949 -37.799778 -15.182579
34.867178 -36.684424 -14.282743
35.071338 -36.024411 -14.672961
34.999204 -36.197611 -14.039678
38.435259 -25.648499 -12.465212
38.58184 -25.260996 -11.701041
38.419771 -26.337032 -11.282649
38.297501 -26.103101 -13.180899
38.45957 -25.027065 -13.599291
38.435259 -25.648499 -12.465212
38.91506 -25.492985 -30.328365
38.669148 -26.082043 -29.274448
39.096891 -24.042915 -30.911021
38.91506 -25.492985 -30.328365
37.983891 -25.004646 -20.229911
38.199024 -23.882126 -20.673107
38.083225 -24.612285 -19.607736
37.152442 -32.493029 -24.599189
37.185997 -31.651064 -24.278227
36.905335 -32.892387 -23.61193
37.414148 -32.179701 -25.612131
37.152442 -32.493029 -24.599189
38.57019 -22.823615 -16.927729
38.528038 -23.632534 -15.843149
38.477827 -23.276795 -17.637276
38.57019 -22.823615 -16.927729
38.288769 -24.395449 -17.297023
38.341662 -23.697644 -18.332426
38.477827 -23.276795 -17.637276
36.683096 -31.262215 -13.882694
36.902851 -30.849226 -13.272492
36.492365 -31.680584 -14.450957
36.784893 -30.705334 -14.883917
36.683096 -31.262215 -13.882694
36.208388 -32.632751 -13.972815
36.310184 -32.075871 -14.974038
36.492365 -31.680584 -14.450957
34.379216 -38.652146 -14.39778
34.572169 -37.875408 -14.416376
38.2151 -28.07466 -27.655938
37.959017 -29.541773 -26.992631
36.616219 -34.089061 -22.959318
36.905335 -32.892387 -23.61193
36.649773 -33.247097 -22.638356
38.367973 -22.864736 -24.724648
38.240132 -23.58012 -23.747245
38.541528 -22.115901 -25.730935
38.367973 -22.864736 -24.724648
38.32873 -23.469338 -25.254762
38.682577 -21.382727 -26.748933
38.541528 -22.115901 -25.730935
39.016783 -21.524354 -29.652485
39.046097 -22.288711 -30.079789
38.476477 -24.386068 -14.699701
38.45957 -25.027065 -13.599291
38.373373 -24.728133 -15.458426
38.528038 -23.632534 -15.843149
38.476477 -24.386068 -14.699701
38.443771 -26.710527 -28.263365
38.212723 -27.18698 -27.28756
38.2151 -28.07466 -27.655938
38.666771 -25.194364 -28.90607
38.443771 -26.710527 -28.263365
38.669148 -26.082043 -29.274448
39.069624 -23.094061 -30.510708
39.046097 -22.288711 -30.079789
38.86862 -23.760531 -29.486234
39.069624 -23.094061 -30.510708
39.096891 -24.042915 -30.911021
38.248165 -27.366267 -10.880399
38.419771 -26.337032 -11.282649
38.047531 -27.741222 -11.711243
38.248165 -27.366267 -10.880399
38.304281 -23.073992 -21.701549
38.199024 -23.882126 -20.673107
38.212389 -23.608277 -22.270649
38.304281 -23.073992 -21.701549
38.092941 -24.215466 -22.758058
38.212389 -23.608277 -22.270649
37.980241 -24.881677 -21.782691
38.007984 -24.853521 -23.259287
38.240132 -23.58012 -23.747245
38.092941 -24.215466 -22.758058
37.683544 -30.892069 -26.285308
37.959017 -29.541773 -26.992631
37.708578 -29.901409 -25.972809
37.683544 -30.892069 -26.285308
37.414148 -32.179701 -25.612131
38.857565 -20.670269 -27.750784
38.682577 -21.382727 -26.748933
38.677273 -22.008046 -27.2629
39.020367 -20.694558 -29.257203
38.848677 -22.125384 -28.660033
39.016783 -21.524354 -29.652485
39.007281 -19.946641 -28.789327
39.020367 -20.694558 -29.257203
38.857565 -20.670269 -27.750784
39.007281 -19.946641 -28.789327
38.225481 -24.153032 -19.021552
38.341662 -23.697644 -18.332426
38.010347 -25.275551 -18.578356
38.083225 -24.612285 -19.607736
38.225481 -24.153032 -19.021552
37.869493 -28.116355 -12.50383
38.095152 -27.099668 -12.839408
38.047531 -27.741222 -11.711243
37.655907 -28.498891 -13.26391
37.869493 -28.116355 -12.50383
37.464936 -28.894477 -13.978775
37.726143 -27.870388 -14.346861
37.655907 -28.498891 -13.26391
37.185162 -29.904973 -13.605739
36.902851 -30.849226 -13.272492
37.255398 -29.27647 -14.68869
37.464936 -28.894477 -13.978775
37.185162 -29.904973 -13.605739
35.926071 -33.544131 -13.464719
36.208388 -32.632751 -13.972815
35.75365 -33.900418 -14.030363
35.926071 -33.544131 -13.464719
35.595112 -34.332128 -14.502094
35.867668 -33.459749 -14.967627
35.75365 -33.900418 -14.030363
35.34223 -35.155197 -13.997363
35.456247 -34.714529 -14.934628
35.595112 -34.332128 -14.502094
35.087006 -35.946536 -13.64543
35.34223 -35.155197 -13.997363
34.999204 -36.197611 -14.039678
35.087006 -35.946536 -13.64543
34.71735 -37.23113 -14.283099
34.867178 -36.684424 -14.282743
34.794131 -37.155501 -15.049302
34.71735 -37.23113 -14.283099
34.572169 -37.875408 -14.416376
34.486357 -38.599672 -15.250951
34.379216 -38.652146 -14.39778
34.769865 -37.69015 -15.972333
34.486357 -38.599672 -15.250951
35.039655 -36.81221 -16.66433
34.91874 -36.921839 -15.874576
34.769865 -37.69015 -15.972333
35.177286 -36.63246 -17.459134
35.326161 -35.864149 -17.361376
35.039655 -36.81221 -16.66433
35.355833 -36.471504 -18.356326
35.177286 -36.63246 -17.459134
35.562214 -36.185957 -19.299054
35.670172 -35.398851 -19.098909
35.355833 -36.471504 -18.356326
35.799046 -35.908127 -20.257552
35.562214 -36.185957 -19.299054
36.041098 -35.57336 -21.229605
36.118605 -34.778537 -21.013691
35.799046 -35.908127 -20.257552
36.273058 -35.381191 -22.142949
36.041098 -35.57336 -21.229605
36.616219 -34.089061 -22.959318
36.273058 -35.381191 -22.142949
3 55 16 56
3 57 56 14
3 55 56 57
3 0 19 17
3 2 22 20
3 2 24 22
3 1 26 25
3 3 58 60
3 58 59 60
3 3 61 63
3 61 27 62
3 61 62 63
3 3 29 27
3 4 32 30
3 6 33 15
3 6 34 33
3 7 37 35
3 64 38 65
3 67 66 38
3 9 68 70
3 68 39 69
3 68 69 70
3 10 40 18
3 10 41 40
3 5 42 31
3 11 43 21
3 11 44 43
3 11 45 44
3 71 46 72
3 73 72 23
3 71 72 73
3 75 74 46
3 8 47 36
3 12 76 77
3 12 78 79
3 12 80 82
3 80 48 81
3 80 81 82
3 13 49 28
3 13 50 49
3 83 51 84
3 85 52 86
3 87 86 51
3 85 86 87
3 88 53 89
3 90 89 52
3 88 89 90
3 91 54 92
3 14 15 4
3 16 15 14
3 16 6 15
3 94 93 7
3 17 18 9
3 19 18 17
3 19 10 18
3 20 21 5
3 22 21 20
3 22 11 21
3 22 23 11
3 24 23 22
3 24 95 97
3 97 96 23
3 95 96 97
3 25 98 99
3 26 100 102
3 102 101 25
3 100 101 102
3 26 103 104
3 106 105 8
3 27 107 108
3 27 109 111
3 109 12 110
3 109 110 111
3 27 28 12
3 29 28 27
3 29 13 28
3 30 31 0
3 32 31 30
3 32 5 31
3 15 32 4
3 33 32 15
3 33 5 32
3 33 20 5
3 34 20 33
3 34 2 20
3 35 36 1
3 37 36 35
3 37 8 36
3 112 37 113
3 114 113 7
3 112 113 114
3 38 115 117
3 115 37 116
3 115 116 117
3 38 8 37
3 38 118 120
3 120 119 8
3 118 119 120
3 122 121 38
3 123 3 124
3 126 125 3
3 39 127 128
3 39 129 130
3 18 39 9
3 40 39 18
3 40 131 133
3 133 132 39
3 131 132 133
3 40 134 136
3 134 25 135
3 134 135 136
3 41 25 40
3 41 1 25
3 31 19 0
3 42 19 31
3 42 10 19
3 21 42 5
3 43 42 21
3 43 10 42
3 43 41 10
3 44 41 43
3 44 1 41
3 44 35 1
3 45 35 44
3 45 7 35
3 23 45 11
3 46 45 23
3 46 7 45
3 46 137 139
3 139 138 7
3 137 138 139
3 141 140 46
3 36 26 1
3 47 26 36
3 47 142 144
3 144 143 26
3 142 143 144
3 145 47 146
3 147 146 8
3 145 146 147
3 148 47 149
3 151 150 47
3 48 152 153
3 48 154 156
3 154 9 155
3 154 155 156
3 28 48 12
3 49 48 28
3 49 9 48
3 49 17 9
3 50 17 49
3 50 0 17
3 157 29 158
3 159 158 3
3 157 158 159
3 160 29 161
3 162 13 163
3 164 163 29
3 162 163 164
3 51 165 166
3 51 167 169
3 167 13 168
3 167 168 169
3 51 50 13
3 52 50 51
3 52 0 50
3 52 30 0
3 53 30 52
3 53 4 30
3 170 53 171
3 172 53 173
3 174 4 175
3 176 175 53
3 174 175 176
3 177 14 178
3 179 178 4
3 177 178 179
3 180 14 181
3 183 182 14
3 184 16 185
3 54 186 188
3 186 16 187
3 186 187 188
3 54 6 16
3 189 54 190
3 191 54 192
3 193 6 194
3 195 194 54
3 193 194 195
3 196 34 197
3 198 197 6
3 196 197 198
3 199 34 200
3 201 2 202
3 203 202 34
3 201 202 203
3 204 2 205
3 206 24 207
3 208 207 2
3 206 207 208
3 209 24 210
3 212 211 24
