ply
format ascii 1.0
element vertex 174
property float x
property float y
property float z
element face 160
property list uchar int vertex_index
end_header
-8.816068 78.96788 13.594213
-10.644199 67.742203 22.725607
-3.82166 75.830513 22.946648
-12.183507 74.567581 13.566277
-14.350509 75.378815 8.80468
-11.219787 79.803566 8.980708
-13.008141 68.803352 18.094801
-9.818384 73.433289 18.320133
-8.427734 65.762634 27.330189
-7.43575 71.803856 22.992861
-6.451282 77.502815 18.296204
-10.543666 76.75531 13.688595
-11.771672 77.12442 11.354138
-10.037725 79.383888 11.344782
-13.960202 77.878494 6.553362
-11.911006 68.263542 20.379326
-11.419845 71.166847 18.298239
-10.261418 70.570984 20.567446
-4.334876 72.937836 25.236031
-6.242941 70.790642 25.282528
-5.595914 73.882156 23.035753
-6.943255 74.671799 20.71924
-5.091351 76.834778 20.57946
-13.663547 72.093994 13.661237
-14.742029 72.673141 11.039263
-13.31117 74.947395 11.22308
-12.779871 77.798431 8.84324
-12.3066 80.43084 6.300754
-11.105243 64.863655 24.704405
-15.79103 72.959892 8.619195
-10.582528 82.582207 6.307483
-13.950298 69.461227 15.803266
-12.496518 71.837471 15.927655
-11.002992 73.985092 16.039635
-9.346306 76.220726 16.000473
-9.554054 66.795502 25.055542
-6.664702 67.872574 27.444187
-7.968083 68.73494 25.243261
-9.093558 69.804001 22.868698
-8.673429 72.723282 20.567078
-8.260613 75.390625 18.344248
-7.632069 78.2118 16.042938
-14.488457 78.023754 5.28767
-13.719597 79.223591 5.230076
-11.277603 68.002872 21.552467
-12.045559 66.884377 21.461782
-11.412155 66.623707 22.634923
-3.590523 77.264175 21.699046
-4.225368 77.766308 20.515452
-4.456506 76.332645 21.763054
-11.334109 63.35354 25.706026
-11.843373 63.677611 24.677062
-10.188447 83.935215 4.974479
-9.655258 83.649036 6.270998
-11.116204 82.825894 5.026689
-10.188447 83.935215 4.974479
-13.679329 67.644596 18.026347
-13.161609 67.362419 19.211118
-13.479219 69.132289 16.949033
-14.150408 67.973534 16.880579
-13.679329 67.644596 18.026347
-9.238209 64.769253 27.197823
-8.663678 64.244944 28.32407
-8.990894 66.279068 26.192865
-9.801369 65.285686 26.060499
-9.238209 64.769253 27.197823
-5.75537 68.989689 27.376494
-6.015629 67.486439 28.409239
-6.15939 78.874282 17.093453
-6.749784 79.228775 15.966821
-7.041676 77.857307 17.169571
-14.712129 76.708969 6.462686
-14.907283 75.45913 7.588344
-14.155356 76.628655 7.679021
-14.712129 76.708969 6.462686
-14.488457 78.023754 5.28767
-12.613042 67.092514 20.353381
-12.045559 66.884377 21.461782
-12.459574 68.533447 19.237063
-13.161609 67.362419 19.211118
-12.613042 67.092514 20.353381
-7.772524 65.350174 28.384468
-8.663678 64.244944 28.32407
-5.288908 71.864239 25.259279
-5.544489 70.448723 26.295665
-4.590457 71.52232 26.272416
-4.850853 78.200809 19.358719
-5.530819 78.534828 18.217091
-5.771317 77.168796 19.437832
-4.850853 78.200809 19.358719
-4.225368 77.766308 20.515452
-14.202788 72.383567 12.35025
-14.871066 71.286041 12.21789
-14.331824 70.996467 13.528878
-12.892796 80.499764 5.103772
-13.719597 79.223591 5.230076
-13.133401 79.154667 6.427058
-11.642677 65.184433 23.624322
-11.843373 63.677611 24.677062
-10.874721 66.302929 23.715006
-11.412155 66.623707 22.634923
-11.642677 65.184433 23.624322
-3.668395 72.528328 26.239055
-4.590457 71.52232 26.272416
-3.391794 74.030556 25.101256
-3.668395 72.528328 26.239055
-3.135185 75.476895 23.956565
-4.078268 74.384175 24.09134
-3.391794 74.030556 25.101256
-2.899497 76.882396 22.788795
-3.135185 75.476895 23.956565
-8.516663 80.307277 12.367866
-7.870412 80.012264 13.600574
-15.387795 71.406666 11.052738
-14.871066 71.286041 12.21789
-15.912295 71.550041 9.842704
-15.387795 71.406666 11.052738
-15.26653 72.816517 9.829229
-16.413628 71.708454 8.594741
-15.912295 71.550041 9.842704
-15.627543 74.249668 7.495602
-15.07077 74.169353 8.711937
-14.907283 75.45913 7.588344
-16.313752 72.96059 7.481675
-15.627543 74.249668 7.495602
-16.413628 71.708454 8.594741
-16.313752 72.96059 7.481675
-9.127491 80.515282 11.243151
-9.426896 79.175884 12.469497
-8.516663 80.307277 12.367866
-9.744327 80.762962 10.024736
-9.127491 80.515282 11.243151
-10.335358 80.972801 8.8427
-10.628756 79.593727 10.162745
-9.744327 80.762962 10.024736
-10.016728 82.362122 7.506087
-9.655258 83.649036 6.270998
-10.901158 81.192887 7.644096
-10.335358 80.972801 8.8427
-10.016728 82.362122 7.506087
-11.97824 81.75021 5.023325
-11.444564 81.506524 6.304119
-11.116204 82.825894 5.026689
-12.892796 80.499764 5.103772
-11.97824 81.75021 5.023325
-14.61366 68.281505 15.694705
-14.150408 67.973534 16.880579
-14.4752 69.680084 14.599892
-14.61366 68.281505 15.694705
-13.806922 70.77761 14.732252
-14.331824 70.996467 13.528878
-14.4752 69.680084 14.599892
-10.576964 64.319763 25.884931
-11.334109 63.35354 25.706026
-10.329649 65.829578 24.879973
-10.576964 64.319763 25.884931
-9.801369 65.285686 26.060499
-6.891008 66.405144 28.441467
-6.015629 67.486439 28.409239
-7.546218 66.817604 27.387188
-7.772524 65.350174 28.384468
-6.891008 66.405144 28.441467
-6.453822 69.331608 26.363357
-5.75537 68.989689 27.376494
-5.544489 70.448723 26.295665
-7.278412 79.634224 14.824936
-7.870412 80.012264 13.600574
-8.224068 78.58984 14.818575
-7.278412 79.634224 14.824936
-6.749784 79.228775 15.966821
-6.15939 78.874282 17.093453
-5.530819 78.534828 18.217091
-3.590523 77.264175 21.699046
-2.899497 76.882396 22.788795
3 0 13 11
3 43 42 14
3 1 44 46
3 44 15 45
3 44 45 46
3 1 17 15
3 2 20 18
3 2 22 20
3 2 47 49
3 49 48 22
3 47 48 49
3 3 25 23
3 5 26 12
3 5 27 26
3 50 28 51
3 4 29 24
3 52 30 53
3 55 54 30
3 6 56 57
3 6 58 60
3 58 31 59
3 58 59 60
3 6 32 31
3 7 33 16
3 7 34 33
3 8 61 62
3 8 63 65
3 63 35 64
3 63 64 65
3 66 36 67
3 9 37 19
3 9 38 37
3 9 39 38
3 10 40 21
3 10 41 40
3 10 68 70
3 70 69 41
3 68 69 70
3 11 12 3
3 13 12 11
3 13 5 12
3 14 71 73
3 73 72 4
3 71 72 73
3 75 74 14
3 15 76 77
3 15 78 80
3 78 6 79
3 78 79 80
3 15 16 6
3 17 16 15
3 17 7 16
3 81 8 82
3 18 83 85
3 83 19 84
3 83 84 85
3 20 19 18
3 20 9 19
3 20 21 9
3 22 21 20
3 22 10 21
3 22 86 88
3 88 87 10
3 86 87 88
3 90 89 22
3 23 91 93
3 91 24 92
3 91 92 93
3 25 24 23
3 25 4 24
3 12 25 3
3 26 25 12
3 26 4 25
3 26 14 4
3 27 14 26
3 27 94 96
3 96 95 14
3 94 95 96
3 28 97 98
3 28 99 101
3 99 1 100
3 99 100 101
3 102 18 103
3 104 18 105
3 106 2 107
3 108 107 18
3 106 107 108
3 110 109 2
3 112 111 0
3 24 113 114
3 29 115 117
3 117 116 24
3 115 116 117
3 29 118 119
3 120 29 121
3 122 121 4
3 120 121 122
3 123 29 124
3 126 125 29
3 127 13 128
3 129 128 0
3 127 128 129
3 130 13 131
3 132 5 133
3 134 133 13
3 132 133 134
3 30 135 136
3 30 137 139
3 137 5 138
3 137 138 139
3 30 27 5
3 140 27 141
3 142 141 30
3 140 141 142
3 144 143 27
3 31 145 146
3 31 147 148
3 31 149 151
3 149 23 150
3 149 150 151
3 32 23 31
3 32 3 23
3 16 32 6
3 33 32 16
3 33 3 32
3 33 11 3
3 34 11 33
3 34 0 11
3 152 28 153
3 35 154 156
3 154 28 155
3 154 155 156
3 35 1 28
3 36 157 158
3 36 159 161
3 159 8 160
3 159 160 161
3 19 162 164
3 162 36 163
3 162 163 164
3 37 36 19
3 37 8 36
3 37 35 8
3 38 35 37
3 38 1 35
3 38 17 1
3 39 17 38
3 39 7 17
3 21 39 9
3 40 39 21
3 40 7 39
3 40 34 7
3 41 34 40
3 41 0 34
3 41 165 167
3 167 166 0
3 165 166 167
3 169 168 41
3 171 170 10
3 173 172 2
