ply
format ascii 1.0
element vertex 236
property float x
property float y
property float z
element face 233
property list uchar int vertex_index
end_header
11.419113 -46.172535 39.58622
9.940302 -38.491489 42.26395
15.312548 -39.999348 37.708939
20.050056 -32.966789 36.71167
10.678542 -42.116093 40.721413
16.863537 -32.222912 38.736675
16.189478 -44.456898 36.546989
18.421383 -41.052631 35.761421
14.115878 -47.756031 37.448372
11.91048 -35.241238 41.434143
14.558175 -35.640137 39.182461
12.589693 -39.121738 39.735756
13.290184 -43.296585 38.542053
22.709677 -29.340834 36.427803
23.296684 -33.980328 34.77351
17.570978 -36.502602 37.111382
20.816473 -37.463379 35.190189
16.652369 -46.777473 35.949871
17.740887 -45.011303 35.546665
18.246162 -47.372334 34.861591
12.706933 -46.948143 38.529045
10.879642 -36.888367 41.832878
12.158786 -37.188911 40.576298
11.187446 -38.742813 40.991024
11.043988 -44.143066 40.122669
11.894889 -42.65567 39.641972
12.355672 -44.717648 39.040077
13.821107 -45.415642 37.932823
19.622189 -30.808903 37.594891
21.03709 -29.016983 37.415638
21.322657 -31.084257 36.607861
23.036493 -31.608992 35.575108
21.699722 -33.40416 35.7472
14.88756 -37.792576 38.411522
16.029854 -36.084202 38.105038
16.421452 -38.24818 37.378483
20.100494 -41.53278 34.764194
19.528179 -39.281391 35.48513
21.23838 -39.812305 34.470901
22.473019 -38.090431 34.176815
9.176635 -40.104614 42.614304
10.297718 -40.295639 41.426933
9.536134 -41.88908 41.824478
18.473246 -32.706196 37.632492
15.798532 -42.349709 37.057667
16.774635 -40.431671 36.776669
17.300055 -42.71262 36.132469
18.915991 -43.361507 35.116947
14.254022 -33.641109 40.047352
13.218335 -35.418442 40.2519
13.472866 -37.387833 39.483521
13.881431 -39.583118 38.706791
11.543928 -40.611427 40.25988
12.870121 -41.186943 39.134205
14.338027 -41.670246 38.057693
14.726671 -43.777534 37.533619
15.221992 -46.077423 36.940407
15.706707 -34.048843 38.884552
17.247265 -34.352947 37.847401
18.795759 -34.818424 36.86507
17.974737 -38.652821 36.431816
19.060722 -36.940807 36.214645
20.36759 -35.251957 35.941578
21.991611 -35.785641 34.979374
9.687348 -36.635208 43.180283
8.85507 -38.321022 43.530468
8.098502 -40.010303 43.897755
17.675718 -48.18792 35.084215
17.449266 -47.074904 35.405731
16.878822 -47.89049 35.628355
18.464812 -48.62147 34.472692
17.675718 -48.18792 35.084215
11.576542 -47.260447 39.330591
12.220453 -47.648251 38.802004
12.063023 -46.560339 39.057632
21.45999 -40.997936 34.107641
20.669437 -40.672543 34.617548
20.891047 -41.858173 34.254288
22.051072 -40.055288 33.965626
21.45999 -40.997936 34.107641
9.009387 -41.688133 42.426596
9.356385 -40.996847 42.219391
8.829638 -40.7959 42.821509
17.486989 -31.390881 38.64151
16.750687 -31.19603 39.188473
17.668391 -32.464554 38.184584
18.291843 -31.632523 38.089419
17.486989 -31.390881 38.64151
19.163091 -44.562492 34.769179
18.328439 -44.186405 35.331806
18.575539 -45.38739 34.984037
19.700962 -43.597401 34.622059
19.163091 -44.562492 34.769179
14.316831 -48.894972 37.143122
14.839654 -48.090143 36.923902
12.564407 -35.32984 40.843021
13.018006 -34.472205 40.761946
12.364078 -34.383603 41.353067
14.839654 -48.090143 36.923902
15.392711 -47.250839 36.66992
14.668935 -46.916727 37.194389
22.632485 -28.282198 36.809532
21.796191 -28.120272 37.303449
21.873383 -29.178908 36.92172
23.415136 -28.401339 36.350651
22.632485 -28.282198 36.809532
23.535403 -29.524664 35.940756
23.415136 -28.401339 36.350651
24.028072 -32.995718 34.665911
23.897976 -31.81005 35.06671
23.166588 -32.79466 35.174309
24.104859 -34.177099 34.284289
24.028072 -32.995718 34.665911
23.046961 -37.171271 34.089014
23.301492 -38.258916 33.669985
9.506291 -35.864676 43.723994
10.160006 -35.837772 42.980967
8.312575 -38.374834 44.199547
8.667966 -37.547649 44.06183
7.93429 -39.219475 44.38319
8.476786 -39.165662 43.714112
8.312575 -38.374834 44.199547
16.101224 -32.077482 39.303897
16.750687 -31.19603 39.188473
18.828177 -46.567906 34.6415
18.575539 -45.38739 34.984037
17.993524 -46.191818 35.204128
19.003138 -47.757668 34.296133
18.828177 -46.567906 34.6415
19.003138 -47.757668 34.296133
18.464812 -48.62147 34.472692
12.909644 -48.161575 38.222103
13.614117 -48.56552 37.681766
13.411406 -47.352087 37.988709
12.909644 -48.161575 38.222103
12.220453 -47.648251 38.802004
20.329639 -29.912943 37.505264
20.244535 -28.853656 37.917625
19.537085 -29.749616 38.007252
22.668391 -39.194351 33.818582
21.8557 -38.951368 34.323858
22.051072 -40.055288 33.965626
23.301492 -38.258916 33.669985
22.668391 -39.194351 33.818582
10.917412 -46.89913 39.907484
10.821974 -45.891048 40.1128
9.16901 -42.542208 42.074241
9.009387 -41.688133 42.426596
9.728429 -42.776624 41.492374
9.16901 -42.542208 42.074241
10.299633 -42.890131 40.940842
10.107338 -42.002586 41.272945
9.728429 -42.776624 41.492374
10.482356 -43.903617 40.64147
10.861265 -43.129579 40.422041
10.299633 -42.890131 40.940842
10.634412 -44.876314 40.381025
10.482356 -43.903617 40.64147
10.821974 -45.891048 40.1128
11.231551 -45.157801 39.854444
10.634412 -44.876314 40.381025
18.866315 -30.683876 38.070618
19.537085 -29.749616 38.007252
19.047717 -31.757549 37.613692
18.866315 -30.683876 38.070618
18.291843 -31.632523 38.089419
20.293214 -42.683037 34.445683
19.508243 -42.447144 34.940571
19.700962 -43.597401 34.622059
20.891047 -41.858173 34.254288
20.293214 -42.683037 34.445683
14.316831 -48.894972 37.143122
13.614117 -48.56552 37.681766
11.576542 -47.260447 39.330591
10.917412 -46.89913 39.907484
13.535849 -33.583538 40.659672
14.120542 -32.719651 40.514015
13.736179 -34.529775 40.149626
13.535849 -33.583538 40.659672
13.018006 -34.472205 40.761946
16.1079 -47.600864 36.174652
15.937181 -46.427448 36.445139
15.392711 -47.250839 36.66992
16.878822 -47.89049 35.628355
16.1079 -47.600864 36.174652
20.998542 -27.990638 37.792116
20.244535 -28.853656 37.917625
20.998542 -27.990638 37.792116
21.796191 -28.120272 37.303449
23.698811 -30.658743 35.514409
23.535403 -29.524664 35.940756
22.873085 -30.474913 36.001455
23.698811 -30.658743 35.514409
23.897976 -31.81005 35.06671
14.796467 -32.78658 39.959236
14.120542 -32.719651 40.514015
15.522809 -32.990447 39.377836
14.796467 -32.78658 39.959236
14.980365 -33.844976 39.465952
16.285122 -33.135877 38.810614
16.101224 -32.077482 39.303897
15.522809 -32.990447 39.377836
22.806257 -36.018876 34.490293
22.232315 -36.938036 34.578094
23.046961 -37.171271 34.089014
23.458793 -35.116219 34.387361
22.644147 -34.882984 34.876442
22.806257 -36.018876 34.490293
24.104859 -34.177099 34.284289
23.458793 -35.116219 34.387361
11.738452 -34.348484 41.963284
12.364078 -34.383603 41.353067
11.271572 -35.140788 42.107897
11.738452 -34.348484 41.963284
10.756153 -35.964352 42.307265
11.395061 -36.064802 41.63351
11.271572 -35.140788 42.107897
10.283495 -36.761787 42.50658
10.756153 -35.964352 42.307265
10.160006 -35.837772 42.980967
9.084105 -36.704742 43.886738
9.506291 -35.864676 43.723994
8.903048 -35.93421 44.430448
9.271209 -37.478115 43.355376
9.084105 -36.704742 43.886738
8.667966 -37.547649 44.06183
8.290571 -40.748745 43.463234
8.829638 -40.7959 42.821509
8.637569 -40.057458 43.256029
7.604262 -40.012834 44.547457
7.93429 -39.219475 44.38319
7.810554 -40.770916 44.034994
7.604262 -40.012834 44.547457
7.316314 -40.773447 44.684697
8.290571 -40.748745 43.463234
7.810554 -40.770916 44.034994
3 67 19 68
3 69 68 17
3 67 68 69
3 71 70 19
3 0 72 74
3 74 73 20
3 72 73 74
3 1 23 21
3 0 26 24
3 0 20 26
3 3 30 28
3 3 32 30
3 2 35 33
3 75 38 76
3 77 76 36
3 75 76 77
3 79 78 38
3 80 42 81
3 82 81 40
3 80 81 82
3 5 83 84
3 5 85 87
3 85 43 86
3 85 86 87
3 6 46 44
3 88 47 89
3 90 89 18
3 88 89 90
3 92 91 47
3 8 93 94
3 9 95 97
3 95 49 96
3 95 96 97
3 11 50 22
3 11 51 50
3 4 52 41
3 12 53 25
3 12 54 53
3 12 55 54
3 8 56 27
3 8 98 100
3 100 99 56
3 98 99 100
3 13 101 103
3 103 102 29
3 101 102 103
3 13 104 105
3 13 106 107
3 14 108 110
3 110 109 31
3 108 109 110
3 14 111 112
3 10 57 48
3 15 58 34
3 15 59 58
3 7 60 45
3 16 61 37
3 16 62 61
3 16 63 62
3 114 113 39
3 115 64 116
3 117 65 118
3 119 66 120
3 121 120 65
3 119 120 121
3 122 5 123
3 17 18 6
3 19 18 17
3 19 124 126
3 126 125 18
3 124 125 126
3 19 127 128
3 130 129 19
3 20 131 133
3 133 132 8
3 131 132 133
3 135 134 20
3 21 22 9
3 23 22 21
3 23 11 22
3 24 25 4
3 26 25 24
3 26 12 25
3 26 27 12
3 20 27 26
3 20 8 27
3 28 136 138
3 136 29 137
3 136 137 138
3 30 29 28
3 30 13 29
3 30 31 13
3 32 31 30
3 32 14 31
3 33 34 10
3 35 34 33
3 35 15 34
3 36 37 7
3 38 37 36
3 38 16 37
3 38 39 16
3 139 39 140
3 141 140 38
3 139 140 141
3 143 142 39
3 145 144 0
3 40 41 1
3 42 41 40
3 42 4 41
3 146 42 147
3 148 42 149
3 150 4 151
3 152 151 42
3 150 151 152
3 153 24 154
3 155 154 4
3 153 154 155
3 156 24 157
3 158 0 159
3 160 159 24
3 158 159 160
3 161 28 162
3 43 163 165
3 163 28 164
3 163 164 165
3 43 3 28
3 44 45 2
3 46 45 44
3 46 7 45
3 18 46 6
3 47 46 18
3 47 7 46
3 47 36 7
3 166 36 167
3 168 167 47
3 166 167 168
3 170 169 36
3 172 171 8
3 174 173 0
3 175 48 176
3 49 177 179
3 177 48 178
3 177 178 179
3 49 10 48
3 22 49 9
3 50 49 22
3 50 10 49
3 50 33 10
3 51 33 50
3 51 2 33
3 41 23 1
3 52 23 41
3 52 11 23
3 25 52 4
3 53 52 25
3 53 11 52
3 53 51 11
3 54 51 53
3 54 2 51
3 54 44 2
3 55 44 54
3 55 6 44
3 27 55 12
3 56 55 27
3 56 6 55
3 56 17 6
3 180 17 181
3 182 181 56
3 180 181 182
3 184 183 17
3 29 185 186
3 188 187 29
3 31 189 191
3 191 190 13
3 189 190 191
3 193 192 31
3 48 194 195
3 57 196 198
3 198 197 48
3 196 197 198
3 57 199 201
3 199 5 200
3 199 200 201
3 34 57 10
3 58 57 34
3 58 5 57
3 58 43 5
3 59 43 58
3 59 3 43
3 45 35 2
3 60 35 45
3 60 15 35
3 37 60 7
3 61 60 37
3 61 15 60
3 61 59 15
3 62 59 61
3 62 3 59
3 62 32 3
3 63 32 62
3 63 14 32
3 39 63 16
3 202 63 203
3 204 203 39
3 202 203 204
3 205 14 206
3 207 206 63
3 205 206 207
3 209 208 14
3 210 9 211
3 212 9 213
3 214 21 215
3 216 215 9
3 214 215 216
3 64 217 219
3 217 21 218
3 217 218 219
3 64 1 21
3 220 64 221
3 220 221 222
3 65 223 225
3 223 64 224
3 223 224 225
3 65 1 64
3 65 40 1
3 66 40 65
3 66 226 228
3 228 227 40
3 226 227 228
3 229 66 230
3 231 66 232
3 231 232 233
3 235 234 66
