ply
format ascii 1.0
element vertex 138
property float x
property float y
property float z
element face 123
property list uchar int vertex_index
end_header
37.902103 -32.411079 -27.921299
38.937973 -26.42009 -30.739578
38.877636 -30.865978 -32.059418
36.87178 -33.734352 -23.932892
35.477142 -38.756298 -20.649376
36.593346 -38.031059 -24.812756
36.134693 -42.657005 -25.483181
37.698925 -36.770782 -28.98834
38.493286 -35.994282 -33.140953
37.933983 -30.532434 -27.30513
38.446148 -27.598207 -28.631744
38.465782 -29.497738 -29.425781
38.940868 -28.606226 -31.484118
38.413712 -31.516134 -29.943699
36.074314 -38.174141 -22.78797
35.828705 -40.487423 -22.969141
36.607185 -42.489937 -27.573576
36.93922 -39.81842 -27.2253
37.434498 -39.341778 -29.334248
38.175816 -36.259151 -31.187645
37.395191 -33.107697 -25.958776
36.185459 -36.318611 -22.300154
36.74234 -35.716465 -24.346094
37.287708 -35.142746 -26.383141
35.304779 -45.272381 -23.802423
35.648449 -42.693424 -23.475861
36.419437 -40.162556 -25.177
37.182198 -37.264591 -26.899345
37.842197 -34.421215 -28.495615
38.319302 -33.873909 -30.529297
38.765228 -33.238762 -32.703129
35.443371 -41.708706 -22.117863
35.574326 -40.571268 -22.007245
36.859146 -42.165397 -28.693046
36.409071 -43.753204 -27.824326
37.272802 -40.591318 -29.573381
37.020842 -40.915858 -28.453912
36.859146 -42.165397 -28.693046
37.641649 -39.150093 -30.439329
37.272802 -40.591318 -29.573381
38.91506 -25.492985 -30.328365
38.669148 -26.082043 -29.274448
38.69206 -27.009148 -29.685661
39.119805 -24.970019 -31.322234
38.91506 -25.492985 -30.328365
39.148987 -25.980677 -31.757883
39.119805 -24.970019 -31.322234
39.115906 -29.291154 -32.775851
39.147522 -28.161278 -32.4882
38.909252 -29.736102 -31.771768
39.078142 -30.459229 -33.103083
39.115906 -29.291154 -32.775851
37.152442 -32.493029 -24.599189
36.905335 -32.892387 -23.61193
37.133485 -33.421025 -24.945834
37.414148 -32.179701 -25.612131
37.152442 -32.493029 -24.599189
35.251857 -38.873937 -19.736918
35.119267 -39.914707 -19.828919
35.59934 -37.729624 -20.561422
35.251857 -38.873937 -19.736918
35.8313 -37.537454 -21.474765
35.953499 -36.51078 -21.38681
35.59934 -37.729624 -20.561422
35.719736 -43.964693 -24.642802
35.551623 -45.22403 -24.888818
35.966579 -43.916342 -25.729197
38.798237 -34.27218 -33.940382
38.934208 -32.89442 -33.72147
38.629257 -34.616522 -32.922041
38.190066 -29.06532 -27.968437
38.2151 -28.07466 -27.655938
37.959017 -29.541773 -26.992631
36.616219 -34.089061 -22.959318
36.905335 -32.892387 -23.61193
35.398544 -39.705706 -20.847363
35.119267 -39.914707 -19.828919
35.69713 -39.414627 -21.91666
35.775728 -38.46522 -21.718673
35.398544 -39.705706 -20.847363
35.95151 -39.330782 -22.878556
35.69713 -39.414627 -21.91666
35.574326 -40.571268 -22.007245
36.202826 -43.832808 -26.774395
36.409071 -43.753204 -27.824326
36.370939 -42.573471 -26.528378
35.966579 -43.916342 -25.729197
36.202826 -43.832808 -26.774395
38.012309 -37.608779 -31.366027
37.805157 -37.800465 -30.260946
37.641649 -39.150093 -30.439329
38.171043 -37.476345 -32.342681
38.334551 -36.126717 -32.164299
38.012309 -37.608779 -31.366027
38.443771 -26.710527 -28.263365
38.2151 -28.07466 -27.655938
38.443771 -26.710527 -28.263365
38.669148 -26.082043 -29.274448
39.150435 -27.073745 -32.130153
39.148987 -25.980677 -31.757883
38.93942 -27.513158 -31.111848
39.150435 -27.073745 -32.130153
39.147522 -28.161278 -32.4882
37.683544 -30.892069 -26.285308
37.959017 -29.541773 -26.992631
37.664587 -31.820065 -26.631953
37.683544 -30.892069 -26.285308
37.414148 -32.179701 -25.612131
36.273058 -35.381191 -22.142949
35.953499 -36.51078 -21.38681
36.52862 -35.026482 -23.116523
36.616219 -34.089061 -22.959318
36.273058 -35.381191 -22.142949
35.096079 -46.46705 -23.948912
35.551623 -45.22403 -24.888818
34.838426 -46.447146 -22.785578
35.096079 -46.46705 -23.948912
35.042916 -45.231873 -22.691566
34.838426 -46.447146 -22.785578
35.214751 -43.942394 -22.528284
35.042916 -45.231873 -22.691566
35.476614 -43.982903 -23.639142
35.353243 -42.811706 -22.371223
35.214751 -43.942394 -22.528284
35.738577 -41.590423 -23.222501
35.443371 -41.708706 -22.117863
35.353243 -42.811706 -22.371223
39.021938 -31.645622 -33.424938
39.078142 -30.459229 -33.103083
38.821432 -32.05237 -32.381273
39.021938 -31.645622 -33.424938
38.934208 -32.89442 -33.72147
38.329664 -37.223312 -33.444524
38.171043 -37.476345 -32.342681
38.628706 -35.694647 -34.164694
38.329664 -37.223312 -33.444524
38.798237 -34.27218 -33.940382
38.628706 -35.694647 -34.164694
3 0 11 9
3 0 13 11
3 31 15 32
3 33 16 34
3 35 18 36
3 37 36 16
3 35 36 37
3 39 38 18
3 1 40 42
3 42 41 10
3 40 41 42
3 1 43 44
3 1 45 46
3 2 47 49
3 49 48 12
3 47 48 49
3 2 50 51
3 3 52 53
3 3 54 56
3 54 20 55
3 54 55 56
3 4 57 58
3 4 59 60
3 4 61 63
3 61 21 62
3 61 62 63
3 5 22 14
3 5 23 22
3 6 64 66
3 64 24 65
3 64 65 66
3 6 25 24
3 6 26 25
3 7 27 17
3 7 28 27
3 7 29 28
3 8 30 19
3 8 67 69
3 69 68 30
3 67 68 69
3 9 70 72
3 70 10 71
3 70 71 72
3 11 10 9
3 11 1 10
3 11 12 1
3 13 12 11
3 13 2 12
3 73 3 74
3 75 4 76
3 77 14 78
3 79 78 4
3 77 78 79
3 15 80 82
3 80 14 81
3 80 81 82
3 15 5 14
3 16 83 84
3 16 85 87
3 85 6 86
3 85 86 87
3 16 17 6
3 18 17 16
3 18 7 17
3 18 19 7
3 88 19 89
3 90 89 18
3 88 89 90
3 91 8 92
3 93 92 19
3 91 92 93
3 10 94 95
3 97 96 10
3 12 98 100
3 100 99 1
3 98 99 100
3 102 101 12
3 103 9 104
3 20 105 107
3 105 9 106
3 105 106 107
3 20 0 9
3 21 108 109
3 21 110 112
3 110 3 111
3 110 111 112
3 14 21 4
3 22 21 14
3 22 3 21
3 22 20 3
3 23 20 22
3 23 0 20
3 24 113 114
3 24 115 116
3 24 117 118
3 25 119 121
3 121 120 24
3 119 120 121
3 25 122 123
3 25 124 126
3 124 15 125
3 124 125 126
3 26 15 25
3 26 5 15
3 17 26 6
3 27 26 17
3 27 5 26
3 27 23 5
3 28 23 27
3 28 0 23
3 28 13 0
3 29 13 28
3 29 2 13
3 19 29 7
3 30 29 19
3 30 2 29
3 30 127 129
3 129 128 2
3 127 128 129
3 131 130 30
3 132 8 133
3 134 8 135
3 137 136 8
