ply
format ascii 1.0
element vertex 132
property float x
property float y
property float z
element face 118
property list uchar int vertex_index
end_header
24.743767 59.897377 -9.635037
22.100956 57.598915 -14.359391
25.29887 53.709343 -8.520334
23.444799 62.07901 -13.172264
23.931454 66.326996 -11.21015
23.84799 55.637146 -11.456809
24.129107 49.017929 -10.119138
21.125063 61.201984 -16.737223
21.220482 58.145012 -15.628071
22.015499 60.7728 -15.353154
23.431639 67.295532 -13.10251
24.170631 61.02132 -11.371693
23.6609 58.803326 -12.277047
24.405993 57.766575 -10.653813
24.853962 51.222992 -9.371945
22.164471 54.113285 -13.334833
25.170849 58.918949 -7.917707
25.017904 56.92128 -9.05599
25.541145 55.70171 -7.372662
22.671997 63.033802 -14.824418
23.14957 65.354378 -14.131769
23.832544 64.105309 -12.270168
24.377455 63.223869 -10.375321
24.786156 61.96793 -8.530132
22.84177 59.913532 -13.880247
22.976723 56.695415 -12.957232
23.104712 53.379608 -12.06764
24.643721 54.490063 -9.946038
24.046196 52.396137 -10.687588
23.201443 50.218281 -11.319223
21.914618 62.229902 -15.896925
21.570281 60.987392 -16.045189
21.4694 62.444494 -16.588959
21.4694 62.444494 -16.588959
21.035974 62.745904 -17.353041
21.691188 56.238153 -14.442685
21.250951 56.511202 -15.077025
21.660719 57.871963 -14.993731
22.132714 55.8561 -13.847112
21.722946 54.495339 -13.930405
21.691188 56.238153 -14.442685
25.523397 56.645765 -6.724668
25.355997 57.310329 -7.645185
25.338248 58.254385 -6.99719
22.971377 66.755539 -14.575689
22.779153 65.629089 -14.977732
24.682156 62.90256 -7.817322
24.572121 63.454939 -8.854902
24.927566 61.319465 -7.580004
24.682156 62.90256 -7.817322
23.713227 47.898825 -10.361626
23.249395 48.499 -10.961669
23.665275 49.618105 -10.719181
21.172773 59.673498 -16.182647
20.729226 58.429894 -16.326407
20.681517 59.95838 -16.880983
20.638494 61.466127 -17.486918
21.035974 62.745904 -17.353041
20.681517 59.95838 -16.880983
20.638494 61.466127 -17.486918
23.164525 68.760006 -13.610062
23.112412 67.726116 -14.061059
23.418502 68.308754 -12.56148
23.164525 68.760006 -13.610062
23.668409 67.824486 -11.6153
23.681546 66.811264 -12.15633
23.418502 68.308754 -12.56148
25.239309 50.86737 -8.680928
25.076416 52.466167 -8.94614
25.461763 52.110546 -8.255123
24.94406 49.643232 -9.146004
25.239309 50.86737 -8.680928
24.581633 48.540701 -9.5196
24.491535 50.120461 -9.745541
24.94406 49.643232 -9.146004
24.208917 47.371361 -9.82994
24.581633 48.540701 -9.5196
20.73556 56.77568 -15.722786
20.729226 58.429894 -16.326407
20.73556 56.77568 -15.722786
21.250951 56.511202 -15.077025
21.68467 52.799885 -13.462448
21.722946 54.495339 -13.930405
22.172449 52.433922 -12.896242
21.68467 52.799885 -13.462448
25.737467 55.078991 -6.58773
25.523397 56.645765 -6.724668
25.710932 54.107202 -7.210165
25.737467 55.078991 -6.58773
25.589795 53.111019 -7.784001
25.420008 54.705526 -7.946498
25.710932 54.107202 -7.210165
25.461763 52.110546 -8.255123
25.589795 53.111019 -7.784001
22.540366 64.468801 -15.324057
22.242868 63.360403 -15.632556
22.910784 64.19409 -14.478093
22.540366 64.468801 -15.324057
22.779153 65.629089 -14.977732
23.290605 66.324955 -13.61714
22.971377 66.755539 -14.575689
23.112412 67.726116 -14.061059
23.873801 67.175335 -10.549751
23.668409 67.824486 -11.6153
24.14477 65.634472 -10.194911
23.873801 67.175335 -10.549751
24.36777 64.082909 -9.777497
24.154454 64.775432 -10.792735
24.14477 65.634472 -10.194911
24.581806 62.5959 -9.452727
24.36777 64.082909 -9.777497
24.572121 63.454939 -8.854902
25.119913 59.794975 -7.273792
24.978502 60.443439 -8.22392
24.927566 61.319465 -7.580004
25.338248 58.254385 -6.99719
25.119913 59.794975 -7.273792
22.343748 61.903301 -15.088786
21.914618 62.229902 -15.896925
22.242868 63.360403 -15.632556
22.642569 52.067083 -12.262646
22.172449 52.433922 -12.896242
22.634591 53.746446 -12.701237
22.690935 50.48642 -11.888437
22.642569 52.067083 -12.262646
23.153078 51.798944 -11.693431
22.729917 48.865471 -11.481017
22.690935 50.48642 -11.888437
22.729917 48.865471 -11.481017
23.249395 48.499 -10.961669
23.713227 47.898825 -10.361626
24.208917 47.371361 -9.82994
3 30 9 31
3 32 31 7
3 30 31 32
3 33 7 34
3 0 13 11
3 1 35 37
3 37 36 8
3 35 36 37
3 1 38 40
3 38 15 39
3 38 39 40
3 41 18 42
3 43 42 16
3 41 42 43
3 44 20 45
3 4 21 10
3 4 22 21
3 46 23 47
3 49 48 23
3 3 24 19
3 5 25 12
3 5 26 25
3 2 27 17
3 6 28 14
3 6 29 28
3 6 50 52
3 52 51 29
3 50 51 52
3 7 53 55
3 53 8 54
3 53 54 55
3 9 8 7
3 9 1 8
3 7 56 57
3 7 58 59
3 60 10 61
3 62 10 63
3 64 4 65
3 66 65 10
3 64 65 66
3 11 12 3
3 13 12 11
3 13 5 12
3 67 14 68
3 69 68 2
3 67 68 69
3 70 14 71
3 72 6 73
3 74 73 14
3 72 73 74
3 76 75 6
3 8 77 78
3 80 79 8
3 15 81 82
3 15 83 84
3 16 17 0
3 18 17 16
3 18 2 17
3 85 18 86
3 87 18 88
3 89 2 90
3 91 90 18
3 89 90 91
3 93 92 2
3 94 19 95
3 20 96 98
3 96 19 97
3 96 97 98
3 20 3 19
3 10 99 101
3 99 20 100
3 99 100 101
3 21 20 10
3 21 3 20
3 21 11 3
3 22 11 21
3 22 0 11
3 102 4 103
3 104 4 105
3 106 22 107
3 108 107 4
3 106 107 108
3 23 109 111
3 109 22 110
3 109 110 111
3 23 0 22
3 23 16 0
3 112 16 113
3 114 113 23
3 112 113 114
3 116 115 16
3 19 117 119
3 117 9 118
3 117 118 119
3 24 9 19
3 24 1 9
3 12 24 3
3 25 24 12
3 25 1 24
3 25 15 1
3 26 15 25
3 26 120 122
3 122 121 15
3 120 121 122
3 17 13 0
3 27 13 17
3 27 5 13
3 14 27 2
3 28 27 14
3 28 5 27
3 28 26 5
3 29 26 28
3 29 123 125
3 125 124 26
3 123 124 125
3 29 126 127
3 129 128 29
3 131 130 6
