ply
format ascii 1.0
element vertex 87
property float x
property float y
property float z
element face 70
property list uchar int vertex_index
end_header
17.757425 80.725716 -24.139791
15.433653 80.909531 -28.460951
12.784333 80.159531 -32.535862
17.859184 78.347237 -24.930269
15.433165 78.592323 -29.005274
14.044511 80.848686 -30.621195
14.215122 78.030449 -30.870472
15.198135 83.342979 -27.740131
16.640347 80.905182 -26.352268
16.664976 78.542076 -27.035723
13.91608 83.272888 -29.924295
12.523868 82.924767 -32.107792
11.123285 82.461555 -34.070824
12.836223 77.438416 -32.819332
11.401007 79.582405 -34.406445
14.788152 76.934758 -30.078682
14.824143 78.311386 -29.937873
15.397174 77.215694 -29.146083
17.198886 80.815449 -25.246029
16.483611 82.11911 -25.929823
17.04215 82.029377 -24.823584
17.177243 77.348098 -26.302343
17.26208 78.444657 -25.982996
17.774347 77.250679 -25.249617
16.619563 77.257912 -27.226559
17.177243 77.348098 -26.302343
12.792694 75.977329 -32.888374
13.46827 76.284249 -31.956426
10.634823 79.073051 -35.386618
11.403005 78.087639 -34.562989
10.508549 80.502166 -35.252842
10.634823 79.073051 -35.386618
18.406519 78.147541 -23.849028
17.808304 79.536477 -24.53503
18.35564 79.336781 -23.453789
18.335158 77.029583 -24.245884
18.406519 78.147541 -23.849028
17.774347 77.250679 -25.249617
18.335158 77.029583 -24.245884
15.762505 83.338009 -26.623755
14.961583 84.554192 -27.240526
15.919241 82.12408 -27.0462
15.762505 83.338009 -26.623755
16.483611 82.11911 -25.929823
16.003657 77.283035 -28.211334
16.04907 78.567199 -28.020499
16.619563 77.257912 -27.226559
15.397174 77.215694 -29.146083
16.003657 77.283035 -28.211334
17.574221 81.841377 -23.663288
17.04215 82.029377 -24.823584
18.251199 80.471634 -23.0625
17.574221 81.841377 -23.663288
18.35564 79.336781 -23.453789
18.251199 80.471634 -23.0625
14.34899 84.555946 -28.409556
14.961583 84.554192 -27.240526
13.707963 84.5209 -29.501638
14.34899 84.555946 -28.409556
14.557108 83.307933 -28.832213
13.057903 84.354042 -30.645168
13.707963 84.5209 -29.501638
12.361797 84.179981 -31.736916
13.057903 84.354042 -30.645168
13.219974 83.098827 -31.016044
11.654956 84.057575 -32.760653
12.361797 84.179981 -31.736916
10.954664 83.825969 -33.742169
11.654956 84.057575 -32.760653
11.823576 82.693161 -33.089308
10.18118 83.467442 -34.810246
10.954664 83.825969 -33.742169
14.157719 76.580265 -30.981997
14.788152 76.934758 -30.078682
13.525672 77.734432 -31.844902
14.157719 76.580265 -30.981997
13.46827 76.284249 -31.956426
12.120614 77.015645 -33.769432
12.792694 75.977329 -32.888374
12.118615 78.510411 -33.612888
12.120614 77.015645 -33.769432
11.403005 78.087639 -34.562989
10.369688 81.941742 -35.085031
11.262146 81.02198 -34.238635
10.508549 80.502166 -35.252842
10.18118 83.467442 -34.810246
10.369688 81.941742 -35.085031
3 15 6 16
3 17 16 4
3 15 16 17
3 0 18 20
3 18 8 19
3 18 19 20
3 21 9 22
3 23 22 3
3 21 22 23
3 25 24 9
3 1 10 7
3 2 11 5
3 2 12 11
3 26 13 27
3 28 14 29
3 31 30 14
3 32 3 33
3 34 33 0
3 32 33 34
3 35 3 36
3 38 37 3
3 4 5 1
3 6 5 4
3 6 2 5
3 39 7 40
3 8 41 43
3 41 7 42
3 41 42 43
3 8 1 7
3 3 8 0
3 9 8 3
3 9 1 8
3 9 4 1
3 44 4 45
3 46 45 9
3 44 45 46
3 48 47 4
3 49 0 50
3 51 0 52
3 54 53 0
3 7 55 56
3 10 57 59
3 59 58 7
3 57 58 59
3 10 60 61
3 5 10 1
3 11 10 5
3 11 62 64
3 64 63 10
3 62 63 64
3 11 65 66
3 12 67 69
3 69 68 11
3 67 68 69
3 12 70 71
3 72 6 73
3 13 74 76
3 74 6 75
3 74 75 76
3 13 2 6
3 77 13 78
3 14 79 81
3 79 13 80
3 79 80 81
3 14 2 13
3 14 12 2
3 82 12 83
3 84 83 14
3 82 83 84
3 86 85 12
