ply
format ascii 1.0
element vertex 234
property float x
property float y
property float z
element face 216
property list uchar int vertex_index
end_header
-20.135435 -14.550175 45.74337
-26.232994 -11.452222 39.16222
-13.965147 -18.084496 52.286285
-10.345112 -26.697042 52.281174
-21.321077 -17.174797 43.16819
-23.183386 -12.931174 42.41951
-17.120953 -16.25602 49.022991
-15.209303 -20.562616 49.456921
-18.237984 -19.014357 46.207684
-10.469744 -19.864166 55.663662
-12.107523 -22.344778 52.59251
-18.75754 -12.080532 48.184189
-21.93428 -10.285766 44.512207
-24.939297 -8.575743 40.991421
-27.827583 -7.241013 37.620865
-20.723177 -15.876521 44.47974
-22.292967 -15.084857 42.830448
-21.639502 -13.81601 44.072639
-18.649834 -15.493184 47.327736
-17.766644 -17.59016 47.58717
-19.289145 -16.729658 45.971844
-19.716906 -18.143435 44.723309
-27.823874 -10.783379 37.480274
-12.24739 -18.970848 53.989895
-11.297018 -21.073975 54.234142
-12.923844 -20.294035 52.609669
-23.415688 -9.500823 42.768276
-27.20137 -5.781036 38.307129
-9.571186 -25.428659 54.118462
-23.79237 -14.274823 41.31324
-24.733992 -12.086556 40.767204
-15.563124 -17.178427 50.656006
-14.594712 -19.294655 50.958172
-16.229616 -18.452713 49.21793
-16.737518 -19.858608 47.767452
-8.795353 -20.541851 57.200836
-9.58779 -22.024218 55.80006
-10.499523 -23.123049 54.212601
-11.226239 -24.460234 52.51627
-13.630942 -21.482342 51.064339
-12.711273 -23.704336 50.960056
-19.551849 -13.194049 46.9161
-21.074545 -12.422565 45.176945
-20.415407 -11.163968 46.277882
-9.562235 -18.559786 57.00861
-11.3589 -17.827854 55.359386
-13.08808 -16.858231 53.74276
-14.679273 -15.974896 52.166367
-16.379278 -15.103593 50.367199
-18.05205 -14.15883 48.552189
-22.486895 -11.735385 43.560268
-24.071335 -10.825632 41.78598
-25.620697 -9.99872 40.056946
-26.385202 -7.906486 39.298328
-27.181 -9.335608 38.31152
-28.656925 -8.542049 36.670902
-26.53645 -12.210562 38.707062
-25.770426 -12.476576 39.483053
-27.028434 -11.117801 38.321247
-27.33189 -11.87614 37.866089
-26.53645 -12.210562 38.707062
-9.523847 -27.173703 53.103541
-9.136883 -26.539511 54.022185
-9.958149 -26.06285 53.199818
-22.034323 -16.920423 42.428278
-21.49423 -17.982854 42.587047
-17.719259 -20.1506 46.226923
-16.969026 -20.572726 47.006807
-17.487751 -19.436483 46.987568
-18.473484 -19.70597 45.492766
-17.719259 -20.1506 46.226923
-20.792523 -18.342902 43.238912
-19.990437 -18.827221 44.016472
-20.518991 -17.659116 43.94575
-21.49423 -17.982854 42.587047
-20.792523 -18.342902 43.238912
-13.006788 -24.347917 50.093914
-13.498154 -23.26755 50.140937
-12.253143 -24.830078 50.843849
-13.006788 -24.347917 50.093914
-9.085536 -17.93556 57.596994
-8.601907 -18.983646 57.826825
-11.783414 -16.804066 55.168518
-10.925655 -17.178514 55.958396
-12.648004 -16.319254 54.360205
-12.22349 -17.343042 54.551073
-11.783414 -16.804066 55.168518
-15.126677 -14.929956 51.914165
-14.292651 -15.372007 52.767185
-15.976679 -14.494305 51.014581
-15.529276 -15.539244 51.266783
-15.126677 -14.929956 51.914165
-18.404795 -13.119681 48.368189
-17.631767 -13.590342 49.223526
-17.984511 -12.551193 49.039526
-28.160238 -11.565697 37.04342
-27.33189 -11.87614 37.866089
-28.614334 -10.463928 36.642776
-28.160238 -11.565697 37.04342
-14.747169 -21.69669 49.38937
-15.480055 -21.308871 48.609751
-19.182954 -11.095187 47.809502
-18.3786 -11.469133 48.744765
-18.3786 -11.469133 48.744765
-17.984511 -12.551193 49.039526
-23.018227 -8.844955 43.313558
-22.674984 -9.893294 43.640242
-22.277523 -9.237426 44.185524
-23.77261 -8.412931 42.396591
-23.018227 -8.844955 43.313558
-24.534415 -7.950391 41.508164
-24.177492 -9.038283 41.879849
-23.77261 -8.412931 42.396591
-27.499487 -4.762064 37.860241
-26.775914 -5.154141 38.76503
-27.074031 -4.135169 38.318142
-27.943328 -5.441391 37.409982
-27.499487 -4.762064 37.860241
-28.256435 -6.17138 37.066851
-27.514477 -6.511024 37.963997
-27.943328 -5.441391 37.409982
-28.661807 -6.866862 36.646252
-28.256435 -6.17138 37.066851
-8.735301 -25.829626 54.94442
-9.152511 -24.74266 54.991835
-8.735301 -25.829626 54.94442
-9.136883 -26.539511 54.022185
-22.520269 -15.875453 42.259407
-22.034323 -16.920423 42.428278
-21.807022 -16.129827 42.999319
-23.26997 -15.470436 41.500803
-22.520269 -15.875453 42.259407
-23.042668 -14.67984 42.071844
-24.034808 -15.026692 40.80558
-23.26997 -15.470436 41.500803
-24.550114 -13.887877 40.558563
-24.034808 -15.026692 40.80558
-25.020925 -12.793743 40.285545
-24.550114 -13.887877 40.558563
-24.263181 -13.180689 41.040222
-25.483493 -11.769389 39.964712
-25.770426 -12.476576 39.483053
-25.020925 -12.793743 40.285545
-16.244163 -20.956867 47.765017
-15.480055 -21.308871 48.609751
-15.97341 -20.210612 48.612186
-16.244163 -20.956867 47.765017
-16.969026 -20.572726 47.006807
-19.212945 -19.270509 44.750578
-18.473484 -19.70597 45.492766
-18.977445 -18.578896 45.465497
-19.212945 -19.270509 44.750578
-19.990437 -18.827221 44.016472
-9.859057 -27.782336 52.230598
-10.583362 -27.450717 51.400768
-8.335055 -21.577205 57.315416
-7.865889 -20.983238 57.986662
-8.731274 -22.318388 56.615028
-8.335055 -21.577205 57.315416
-9.191572 -21.283034 56.500448
-9.160813 -23.040439 55.832634
-8.731274 -22.318388 56.615028
-9.61668 -23.589855 55.038905
-9.160813 -23.040439 55.832634
-10.043657 -22.573633 55.006331
-10.035355 -24.275854 54.165532
-9.152511 -24.74266 54.991835
-9.61668 -23.589855 55.038905
-13.957988 -22.156554 50.193079
-14.420122 -21.022479 50.26063
-14.747169 -21.69669 49.38937
-13.171107 -22.593339 51.012197
-13.957988 -22.156554 50.193079
-13.498154 -23.26755 50.140937
-11.510626 -25.208027 51.621956
-11.968756 -24.082285 51.738163
-12.253143 -24.830078 50.843849
-11.070063 -26.326431 51.504408
-10.785675 -25.578638 52.398722
-11.510626 -25.208027 51.621956
-10.583362 -27.450717 51.400768
-11.070063 -26.326431 51.504408
-20.011888 -10.636904 46.856348
-19.586473 -11.62225 47.231036
-19.182954 -11.095187 47.809502
-20.76326 -10.11568 45.976117
-20.011888 -10.636904 46.856348
-21.522697 -9.676579 45.093279
-21.174844 -10.724867 45.395044
-20.76326 -10.11568 45.976117
-22.277523 -9.237426 44.185524
-21.522697 -9.676579 45.093279
-8.218466 -19.974678 57.922938
-7.865889 -20.983238 57.986662
-9.178794 -19.550818 57.104723
-8.218466 -19.974678 57.922938
-8.601907 -18.983646 57.826825
-10.027322 -17.54448 56.783008
-9.085536 -17.93556 57.596994
-10.460567 -18.19382 56.183998
-10.027322 -17.54448 56.783008
-10.925655 -17.178514 55.958396
-13.497054 -15.813675 53.555382
-12.648004 -16.319254 54.360205
-13.883676 -16.416563 52.954563
-13.497054 -15.813675 53.555382
-14.292651 -15.372007 52.767185
-16.795381 -14.062724 50.131031
-15.976679 -14.494305 51.014581
-17.215664 -14.631211 49.459694
-16.795381 -14.062724 50.131031
-17.631767 -13.590342 49.223526
-25.278361 -7.524835 40.604224
-24.534415 -7.950391 41.508164
-26.409398 -6.127482 39.262078
-26.775914 -5.154141 38.76503
-26.001314 -7.190207 39.757677
-26.409398 -6.127482 39.262078
-26.793286 -6.843761 38.802729
-25.66225 -8.241115 40.144875
-25.278361 -7.524835 40.604224
-26.001314 -7.190207 39.757677
-29.03086 -9.343263 36.23809
-28.614334 -10.463928 36.642776
-28.2404 -9.662714 37.075588
-29.076478 -7.51738 36.17127
-28.242254 -7.891531 37.145883
-28.661807 -6.866862 36.646252
-29.431061 -8.263537 35.799387
-29.076478 -7.51738 36.17127
-29.03086 -9.343263 36.23809
-29.431061 -8.263537 35.799387
-9.523847 -27.173703 53.103541
-9.859057 -27.782336 52.230598
3 0 17 15
3 0 20 18
3 0 15 20
3 1 56 57
3 1 58 60
3 58 22 59
3 58 59 60
3 2 25 23
3 3 61 63
3 63 62 28
3 61 62 63
3 4 64 65
3 5 29 16
3 5 30 29
3 6 33 31
3 8 34 19
3 8 66 68
3 68 67 34
3 66 67 68
3 8 69 70
3 4 71 73
3 73 72 21
3 71 72 73
3 4 74 75
3 9 36 35
3 10 37 24
3 10 38 37
3 7 39 32
3 76 40 77
3 79 78 40
3 11 43 41
3 80 44 81
3 82 45 83
3 84 46 85
3 86 85 45
3 84 85 86
3 87 47 88
3 89 48 90
3 91 90 47
3 89 90 91
3 11 92 94
3 92 49 93
3 92 93 94
3 11 41 49
3 12 50 42
3 13 51 26
3 13 52 51
3 14 53 27
3 14 54 53
3 14 55 54
3 15 16 4
3 17 16 15
3 17 5 16
3 18 19 6
3 20 19 18
3 20 8 19
3 20 21 8
3 15 21 20
3 15 4 21
3 22 95 96
3 22 97 98
3 23 24 9
3 25 24 23
3 25 10 24
3 100 99 7
3 102 101 11
3 103 11 104
3 105 26 106
3 107 106 12
3 105 106 107
3 108 26 109
3 110 13 111
3 112 111 26
3 110 111 112
3 113 27 114
3 113 114 115
3 116 27 117
3 118 14 119
3 120 119 27
3 118 119 120
3 122 121 14
3 28 123 124
3 126 125 28
3 16 127 129
3 129 128 4
3 127 128 129
3 29 130 132
3 132 131 16
3 130 131 132
3 29 133 134
3 29 135 136
3 30 137 139
3 139 138 29
3 137 138 139
3 30 140 142
3 140 1 141
3 140 141 142
3 31 32 2
3 33 32 31
3 33 7 32
3 19 33 6
3 34 33 19
3 34 7 33
3 34 143 145
3 145 144 7
3 143 144 145
3 147 146 34
3 21 148 150
3 150 149 8
3 148 149 150
3 152 151 21
3 154 153 3
3 35 155 156
3 36 157 159
3 159 158 35
3 157 158 159
3 36 160 161
3 24 36 9
3 37 36 24
3 37 162 164
3 164 163 36
3 162 163 164
3 37 165 167
3 165 28 166
3 165 166 167
3 38 28 37
3 38 3 28
3 32 25 2
3 39 25 32
3 39 10 25
3 168 39 169
3 170 169 7
3 168 169 170
3 40 171 173
3 171 39 172
3 171 172 173
3 40 10 39
3 40 38 10
3 174 38 175
3 176 175 40
3 174 175 176
3 177 3 178
3 179 178 38
3 177 178 179
3 181 180 3
3 41 42 0
3 43 42 41
3 43 12 42
3 182 43 183
3 184 183 11
3 182 183 184
3 185 43 186
3 187 12 188
3 189 188 43
3 187 188 189
3 191 190 12
3 192 35 193
3 44 194 196
3 194 35 195
3 194 195 196
3 44 9 35
3 197 44 198
3 45 199 201
3 199 44 200
3 199 200 201
3 45 9 44
3 45 23 9
3 46 23 45
3 46 2 23
3 202 46 203
3 47 204 206
3 204 46 205
3 204 205 206
3 47 2 46
3 47 31 2
3 48 31 47
3 48 6 31
3 207 48 208
3 49 209 211
3 209 48 210
3 209 210 211
3 49 6 48
3 49 18 6
3 41 18 49
3 41 0 18
3 42 17 0
3 50 17 42
3 50 5 17
3 26 50 12
3 51 50 26
3 51 5 50
3 51 30 5
3 52 30 51
3 52 1 30
3 212 13 213
3 27 214 215
3 53 216 218
3 218 217 27
3 216 217 218
3 53 219 221
3 219 13 220
3 219 220 221
3 53 52 13
3 54 52 53
3 54 1 52
3 54 22 1
3 55 22 54
3 55 222 224
3 224 223 22
3 222 223 224
3 225 55 226
3 227 226 14
3 225 226 227
3 228 55 229
3 231 230 55
3 233 232 3
