ply
format ascii 1.0
element vertex 322
property float x
property float y
property float z
element face 336
property list uchar int vertex_index
end_header
-23.703251 -26.826639 37.006119
-12.283184 -32.457924 44.986874
-22.202553 -20.127756 40.789192
-16.290815 -23.332975 46.117466
-17.77718 -29.259663 40.406631
-6.957636 -35.886051 50.853699
-24.277246 -15.778561 40.29792
-19.122652 -21.825588 43.383888
-11.343328 -29.595076 48.65453
-8.528217 -31.285294 51.721313
-9.615734 -34.046135 47.906368
-13.02893 -35.650875 41.868652
-20.678295 -27.86512 38.639439
-18.500219 -32.657623 38.317638
-21.454647 -31.402658 37.00238
-22.889263 -23.427874 38.7104
-26.140039 -22.289799 36.6315
-25.24976 -18.900373 38.315159
-27.362991 -14.458148 37.444408
-13.302304 -24.991497 49.227772
-14.243367 -27.811409 45.683899
-14.865677 -30.900164 42.59684
-16.988697 -26.189781 43.176521
-19.790184 -24.844219 40.849327
-15.677458 -34.001717 39.956829
-24.174692 -28.545729 36.314358
-25.842766 -28.275259 35.50996
-25.236889 -26.457272 36.205227
-11.885383 -31.028349 46.680832
-10.529234 -31.703268 48.269089
-10.93551 -33.186207 46.472603
-10.076522 -35.535282 46.051041
-11.441019 -34.650703 44.626755
-12.715223 -33.904148 43.355076
-22.218273 -27.259981 37.798923
-21.124102 -29.539433 37.734768
-22.638382 -29.07135 37.003017
-23.182064 -30.850504 36.293194
-22.516296 -21.820456 39.7085
-24.061357 -21.191814 38.580063
-23.717253 -19.61318 39.485771
-25.307858 -13.50093 39.803886
-25.816967 -15.099557 38.868618
-26.839905 -12.968901 38.251904
-28.496601 -12.348016 36.606567
-15.750808 -22.055126 47.762581
-14.285034 -22.830765 49.321819
-14.812931 -24.281017 47.541996
-13.744876 -26.444229 47.478714
-15.254588 -25.566687 45.948128
-15.570704 -27.149361 44.330238
-16.638344 -24.778467 44.612743
-20.612961 -21.104475 42.03624
-19.459927 -23.368879 42.053814
-21.006809 -22.503839 40.86142
-21.352348 -24.015118 39.776573
-7.677699 -33.657314 51.324387
-7.076205 -32.217087 53.257999
-6.30052 -34.528793 52.867947
-16.305944 -30.085209 41.438343
-15.260283 -32.394207 41.210606
-16.629045 -31.64827 40.236286
-21.667383 -18.790911 42.005905
-23.247459 -18.086048 40.570915
-22.74757 -16.66605 41.688366
-17.200535 -21.286844 46.246162
-17.718899 -22.635286 44.655876
-18.708984 -20.397583 44.777847
-20.263969 -19.511007 43.309635
-10.821611 -28.204393 50.520363
-9.373002 -28.86763 52.180023
-9.906359 -30.409273 50.252003
-9.099346 -32.710136 49.767223
-8.312304 -35.005802 49.293026
-7.518674 -37.232059 48.926334
-8.814516 -36.484165 47.358212
-19.17647 -28.631763 39.474689
-18.014954 -31.062222 39.31337
-19.545218 -30.296425 38.489536
-20.016268 -31.944496 37.623322
-23.373695 -25.063038 37.753098
-24.852997 -24.534454 36.915642
-24.443371 -22.805788 37.720558
-25.638815 -20.633341 37.459507
-26.843302 -18.407606 37.058517
-24.792809 -17.236115 39.286476
-26.35195 -16.64094 37.944447
-11.795013 -25.95582 50.727642
-12.300597 -27.239498 49.028801
-12.797967 -28.624001 47.190025
-13.182461 -30.182301 45.393478
-13.608582 -31.654308 43.703251
-14.53259 -29.322306 44.136986
-15.996977 -28.528891 42.800758
-17.372812 -27.671616 41.748249
-18.037336 -24.068346 43.298107
-18.412785 -25.419588 41.988811
-18.763052 -27.009924 40.679867
-20.248966 -26.188465 39.719643
-21.772161 -25.659433 38.704422
-26.5033 -24.218689 35.934391
-13.921065 -33.284317 42.215149
-14.414406 -34.651562 40.869289
-17.039925 -33.228123 39.148796
-26.53645 -12.210562 38.707062
-26.073881 -13.234915 39.027895
-25.770426 -12.476576 39.483053
-27.33189 -11.87614 37.866089
-26.53645 -12.210562 38.707062
-6.266742 -36.335524 51.646586
-5.938185 -35.656894 52.65371
-6.629078 -35.207422 51.860823
-6.576678 -36.997039 50.659517
-6.266742 -36.335524 51.646586
-22.034323 -16.920423 42.428278
-22.207476 -17.72848 41.847136
-21.49423 -17.982854 42.587047
-17.719259 -20.1506 46.226923
-16.969026 -20.572726 47.006807
-18.473484 -19.70597 45.492766
-17.95476 -20.842213 45.512005
-17.719259 -20.1506 46.226923
-20.792523 -18.342902 43.238912
-19.990437 -18.827221 44.016472
-21.49423 -17.982854 42.587047
-20.965676 -19.150959 42.65777
-20.792523 -18.342902 43.238912
-26.702212 -28.070494 35.094562
-26.401398 -27.150559 35.407968
-9.672827 -36.741951 45.815121
-10.335137 -36.277357 45.14176
-12.637788 -36.776069 41.705566
-12.436151 -35.961136 42.426338
-13.280352 -36.38687 41.204696
-12.637788 -36.776069 41.705566
-21.040498 -32.59946 36.898848
-20.321309 -32.870379 37.209319
-20.735458 -31.673577 37.312851
-21.840674 -32.23252 36.625341
-21.040498 -32.59946 36.898848
-23.479731 -31.792333 35.977342
-23.985752 -30.607993 35.969538
-27.677702 -15.302387 36.986097
-27.172182 -16.393783 37.236116
-26.85747 -15.549544 37.694428
-28.166762 -14.251273 36.687183
-27.677702 -15.302387 36.986097
-29.265753 -12.134242 35.832407
-28.950698 -11.246247 36.205923
-13.006788 -24.347917 50.093914
-13.498154 -23.26755 50.140937
-13.793669 -23.911131 49.274795
-12.548659 -25.473658 49.977707
-12.253143 -24.830078 50.843849
-13.006788 -24.347917 50.093914
-8.207211 -30.611203 52.656832
-8.629603 -29.40237 52.886187
-8.950609 -30.076462 51.950668
-6.714489 -31.472458 54.239569
-6.348945 -32.644637 54.042028
-7.112122 -38.428237 48.70989
-7.765538 -37.952009 47.989652
-15.262126 -35.184399 39.797621
-14.6306 -35.509321 40.25385
-15.045932 -34.326639 40.413059
-25.008729 -28.410494 35.912159
-25.316103 -29.32037 35.577921
-24.482066 -29.455606 35.98012
-26.09846 -26.241566 35.755602
-26.401398 -27.150559 35.407968
-25.539828 -27.366265 35.857594
-11.017385 -35.835068 44.429617
-10.335137 -36.277357 45.14176
-10.758771 -35.092993 45.338898
-11.642195 -35.46105 43.80539
-11.017385 -35.835068 44.429617
-12.279297 -35.087772 43.16955
-11.642195 -35.46105 43.80539
-12.078121 -34.277425 43.990915
-12.872077 -34.777512 42.611864
-12.436151 -35.961136 42.426338
-12.279297 -35.087772 43.16955
-24.482066 -29.455606 35.98012
-23.985752 -30.607993 35.969538
-23.678378 -29.698117 36.303776
-28.160238 -11.565697 37.04342
-27.668253 -12.658459 37.429236
-27.33189 -11.87614 37.866089
-28.950698 -11.246247 36.205923
-28.160238 -11.565697 37.04342
-15.017921 -22.442946 48.5422
-14.747169 -21.69669 49.38937
-15.480055 -21.308871 48.609751
-26.962242 -22.118257 36.09022
-26.726205 -21.247543 36.44557
-5.961102 -33.800489 53.847002
-6.348945 -32.644637 54.042028
-6.688363 -33.37294 53.062973
-5.573574 -34.974468 53.677488
-5.961102 -33.800489 53.847002
-5.573574 -34.974468 53.677488
-5.938185 -35.656894 52.65371
-18.026475 -33.786903 38.232887
-18.800238 -33.43746 37.884495
-22.520269 -15.875453 42.259407
-22.034323 -16.920423 42.428278
-23.26997 -15.470436 41.500803
-22.520269 -15.875453 42.259407
-24.034808 -15.026692 40.80558
-23.512408 -16.222305 40.993143
-23.26997 -15.470436 41.500803
-24.550114 -13.887877 40.558563
-24.792552 -14.639746 40.050903
-24.034808 -15.026692 40.80558
-25.020925 -12.793743 40.285545
-24.550114 -13.887877 40.558563
-25.770426 -12.476576 39.483053
-25.020925 -12.793743 40.285545
-16.244163 -20.956867 47.765017
-15.480055 -21.308871 48.609751
-16.475671 -21.670985 47.004371
-16.244163 -20.956867 47.765017
-16.969026 -20.572726 47.006807
-19.212945 -19.270509 44.750578
-18.473484 -19.70597 45.492766
-19.486477 -19.954295 44.043741
-19.212945 -19.270509 44.750578
-19.990437 -18.827221 44.016472
-26.13116 -29.222293 35.215841
-25.316103 -29.32037 35.577921
-26.13116 -29.222293 35.215841
-26.702212 -28.070494 35.094562
-10.097307 -28.536012 51.350193
-9.859057 -27.782336 52.230598
-10.583362 -27.450717 51.400768
-8.41346 -37.578062 47.205591
-7.765538 -37.952009 47.989652
-8.166595 -36.858112 48.142273
-9.041824 -37.216392 46.468706
-9.445519 -36.009723 46.704627
-9.672827 -36.741951 45.815121
-8.41346 -37.578062 47.205591
-9.041824 -37.216392 46.468706
-19.558263 -33.080897 37.537337
-18.800238 -33.43746 37.884495
-19.258243 -32.30106 37.97048
-19.558263 -33.080897 37.537337
-20.321309 -32.870379 37.209319
-22.704382 -31.956443 36.270748
-21.840674 -32.23252 36.625341
-22.318356 -31.126581 36.647787
-22.704382 -31.956443 36.270748
-23.479731 -31.792333 35.977342
-26.475593 -20.419314 36.859573
-26.726205 -21.247543 36.44557
-25.889427 -21.46157 37.045504
-27.077836 -19.306447 36.659078
-26.475593 -20.419314 36.859573
-26.241059 -19.520474 37.259012
-27.635992 -18.242582 36.425027
-27.077836 -19.306447 36.659078
-27.417858 -17.277116 36.793152
-26.597626 -17.524273 37.501482
-27.172182 -16.393783 37.236116
-27.635992 -18.242582 36.425027
-27.417858 -17.277116 36.793152
-28.733567 -13.196207 36.268262
-28.166762 -14.251273 36.687183
-27.929796 -13.403082 37.025487
-28.733567 -13.196207 36.268262
-29.265753 -12.134242 35.832407
-13.957988 -22.156554 50.193079
-14.747169 -21.69669 49.38937
-13.957988 -22.156554 50.193079
-13.498154 -23.26755 50.140937
-11.510626 -25.208027 51.621956
-12.253143 -24.830078 50.843849
-11.070063 -26.326431 51.504408
-11.510626 -25.208027 51.621956
-11.308312 -27.080106 50.624003
-10.583362 -27.450717 51.400768
-11.070063 -26.326431 51.504408
-26.731665 -25.122275 35.620184
-26.09846 -26.241566 35.755602
-25.870095 -25.337981 36.069809
-27.143873 -23.082702 35.741665
-26.321669 -23.254244 36.282945
-26.962242 -22.118257 36.09022
-27.325052 -24.05953 35.442478
-27.143873 -23.082702 35.741665
-26.731665 -25.122275 35.620184
-27.325052 -24.05953 35.442478
-9.037792 -28.258997 53.052965
-9.523847 -27.173703 53.103541
-9.859057 -27.782336 52.230598
-9.037792 -28.258997 53.052965
-8.629603 -29.40237 52.886187
-7.481205 -31.077099 53.425174
-8.207211 -30.611203 52.656832
-7.802211 -31.75119 52.489656
-7.481205 -31.077099 53.425174
-6.714489 -31.472458 54.239569
-6.857197 -37.670043 49.695835
-6.576678 -36.997039 50.659517
-7.238155 -36.559055 49.890017
-6.857197 -37.670043 49.695835
-7.112122 -38.428237 48.70989
-13.97309 -35.887213 40.705015
-13.280352 -36.38687 41.204696
-13.721668 -35.151218 41.368971
-13.97309 -35.887213 40.705015
-14.6306 -35.509321 40.25385
-17.296328 -34.072153 38.648466
-17.770072 -32.942873 38.733217
-18.026475 -33.786903 38.232887
-16.635452 -34.396864 38.992044
-17.296328 -34.072153 38.648466
-15.954218 -34.783661 39.396061
-16.358691 -33.61492 39.552813
-16.635452 -34.396864 38.992044
-15.262126 -35.184399 39.797621
-15.954218 -34.783661 39.396061
3 0 27 25
3 1 30 28
3 1 32 30
3 1 33 32
3 0 36 34
3 0 25 36
3 2 40 38
3 104 43 105
3 106 105 41
3 104 105 106
3 108 107 43
3 3 47 45
3 3 49 47
3 3 51 49
3 2 54 52
3 2 38 54
3 5 58 56
3 5 109 111
3 111 110 58
3 109 110 111
3 5 112 113
3 4 61 59
3 114 64 115
3 116 115 62
3 114 115 116
3 117 65 118
3 119 67 120
3 121 120 65
3 119 120 121
3 122 68 123
3 124 62 125
3 126 125 68
3 124 125 126
3 128 127 26
3 8 71 69
3 10 72 29
3 10 73 72
3 10 75 73
3 130 129 31
3 11 131 132
3 11 133 134
3 12 78 76
3 14 79 35
3 14 135 137
3 137 136 79
3 135 136 137
3 14 138 139
3 141 140 37
3 15 82 80
3 17 83 39
3 17 84 83
3 6 85 63
3 18 86 42
3 18 142 144
3 144 143 86
3 142 143 144
3 18 145 146
3 148 147 44
3 19 149 151
3 151 150 46
3 149 150 151
3 19 152 154
3 152 87 153
3 152 153 154
3 19 88 87
3 20 89 48
3 20 90 89
3 20 92 90
3 22 93 50
3 22 94 93
3 7 95 66
3 23 96 53
3 23 97 96
3 23 98 97
3 15 99 55
3 15 80 99
3 16 100 81
3 9 155 157
3 157 156 70
3 155 156 157
3 159 158 57
3 161 160 74
3 21 101 91
3 24 102 60
3 24 162 164
3 164 163 102
3 162 163 164
3 13 103 77
3 25 165 167
3 165 26 166
3 165 166 167
3 27 26 25
3 27 168 170
3 170 169 26
3 168 169 170
3 28 29 8
3 30 29 28
3 30 10 29
3 30 31 10
3 32 31 30
3 32 171 173
3 173 172 31
3 171 172 173
3 32 174 175
3 33 176 178
3 178 177 32
3 176 177 178
3 33 179 181
3 179 11 180
3 179 180 181
3 34 35 12
3 36 35 34
3 36 14 35
3 36 37 14
3 25 37 36
3 25 182 184
3 184 183 37
3 182 183 184
3 38 39 15
3 40 39 38
3 40 17 39
3 41 42 6
3 43 42 41
3 43 18 42
3 43 44 18
3 185 44 186
3 187 186 43
3 185 186 187
3 189 188 44
3 45 190 192
3 190 46 191
3 190 191 192
3 47 46 45
3 47 19 46
3 47 48 19
3 49 48 47
3 49 20 48
3 49 50 20
3 51 50 49
3 51 22 50
3 52 53 7
3 54 53 52
3 54 23 53
3 54 55 23
3 38 55 54
3 38 15 55
3 194 193 16
3 56 57 9
3 58 57 56
3 58 195 197
3 197 196 57
3 195 196 197
3 58 198 199
3 201 200 58
3 59 60 21
3 61 60 59
3 61 24 60
3 203 202 13
3 62 63 2
3 64 63 62
3 64 6 63
3 204 64 205
3 206 64 207
3 208 6 209
3 210 209 64
3 208 209 210
3 211 41 212
3 213 212 6
3 211 212 213
3 214 41 215
3 217 216 41
3 218 45 219
3 65 220 222
3 220 45 221
3 220 221 222
3 65 3 45
3 65 66 3
3 67 66 65
3 67 7 66
3 223 67 224
3 68 225 227
3 225 67 226
3 225 226 227
3 68 7 67
3 68 52 7
3 62 52 68
3 62 2 52
3 26 228 229
3 231 230 26
3 69 232 234
3 232 70 233
3 232 233 234
3 71 70 69
3 71 9 70
3 29 71 8
3 72 71 29
3 72 9 71
3 72 56 9
3 73 56 72
3 73 5 56
3 73 74 5
3 75 74 73
3 75 235 237
3 237 236 74
3 235 236 237
3 31 75 10
3 238 75 239
3 240 239 31
3 238 239 240
3 242 241 75
3 76 77 4
3 78 77 76
3 78 13 77
3 35 78 12
3 79 78 35
3 79 13 78
3 79 243 245
3 245 244 13
3 243 244 245
3 247 246 79
3 37 248 250
3 250 249 14
3 248 249 250
3 252 251 37
3 80 81 0
3 82 81 80
3 82 16 81
3 39 82 15
3 83 82 39
3 83 16 82
3 83 253 255
3 255 254 16
3 253 254 255
3 84 256 258
3 258 257 83
3 256 257 258
3 84 259 260
3 63 40 2
3 85 40 63
3 85 17 40
3 42 85 6
3 86 85 42
3 86 17 85
3 86 84 17
3 261 84 262
3 263 262 86
3 261 262 263
3 265 264 84
3 44 266 268
3 268 267 18
3 266 267 268
3 270 269 44
3 46 271 272
3 274 273 46
3 87 275 276
3 87 277 278
3 87 279 281
3 279 69 280
3 279 280 281
3 88 69 87
3 88 8 69
3 48 88 19
3 89 88 48
3 89 8 88
3 89 28 8
3 90 28 89
3 90 1 28
3 90 91 1
3 92 91 90
3 92 21 91
3 50 92 20
3 93 92 50
3 93 21 92
3 93 59 21
3 94 59 93
3 94 4 59
3 66 51 3
3 95 51 66
3 95 22 51
3 53 95 7
3 96 95 53
3 96 22 95
3 96 94 22
3 97 94 96
3 97 4 94
3 97 76 4
3 98 76 97
3 98 12 76
3 55 98 23
3 99 98 55
3 99 12 98
3 99 34 12
3 80 34 99
3 80 0 34
3 81 27 0
3 100 27 81
3 100 282 284
3 284 283 27
3 282 283 284
3 285 100 286
3 287 286 16
3 285 286 287
3 288 100 289
3 291 290 100
3 70 292 294
3 292 293 294
3 296 295 70
3 57 297 299
3 299 298 9
3 297 298 299
3 301 300 57
3 74 302 304
3 304 303 5
3 302 303 304
3 306 305 74
3 91 33 1
3 101 33 91
3 101 11 33
3 60 101 21
3 102 101 60
3 102 11 101
3 102 307 309
3 309 308 11
3 307 308 309
3 311 310 102
3 77 61 4
3 103 61 77
3 103 24 61
3 312 103 313
3 314 313 13
3 312 313 314
3 315 103 316
3 317 24 318
3 319 318 103
3 317 318 319
3 321 320 24
