ply
format ascii 1.0
element vertex 497
property float x
property float y
property float z
element face 590
property list uchar int vertex_index
end_header
-10.263027 -107.35881 -15.650969
8.292495 -95.001648 -18.426027
-3.994784 -100.154594 -32.628738
-1.601586 -103.52253 -18.072569
2.895946 -99.579781 -27.007856
-7.999218 -106.1147 -24.059803
7.131131 -89.426086 1.209792
13.188255 -88.939308 -26.858818
7.685016 -91.253311 -34.549564
-6.291302 -103.33226 -8.486573
19.044851 -78.307976 -6.666881
12.144599 -88.329781 -8.333129
3.267058 -97.277924 -8.975891
-6.48677 -106.161041 -16.973696
-4.52854 -105.352951 -21.354959
-9.56528 -107.296761 -19.466766
12.886164 -89.596436 -17.975365
15.469126 -86.381912 -22.243086
10.76591 -92.408165 -22.767445
-0.556996 -100.59864 -30.105888
5.265937 -95.991028 -30.92898
2.029612 -96.182678 -33.988892
16.935904 -80.127853 -1.898264
15.840882 -83.422676 -7.643093
13.489575 -84.932106 -2.903185
5.314561 -93.41188 -3.950365
0.770129 -97.083694 -4.3232
-1.37715 -100.678131 -8.907367
3.377088 -99.730598 -18.349476
5.921105 -97.601181 -22.914206
0.516593 -102.174438 -22.608046
-2.624996 -103.544037 -25.871708
-6.163639 -103.758568 -28.577759
11.225373 -85.514168 1.785833
8.306421 -94.541962 -27.213413
10.871836 -90.258865 -31.135477
-12.734025 -106.810249 -11.964457
-13.454274 -107.674767 -16.489532
-8.58135 -105.929985 -12.431474
18.128838 -81.177673 -12.073897
14.503583 -86.599838 -12.908927
10.462972 -91.773712 -13.742796
9.702575 -89.333221 -3.701941
7.775513 -93.183891 -8.855747
5.772447 -96.685654 -13.911062
1.010076 -100.666069 -13.64746
-4.006949 -103.959503 -13.26213
-13.02667 -107.273857 -20.950775
-11.748682 -105.712845 -25.693869
-9.976473 -102.927406 -30.092598
-8.635518 -106.941956 -16.234592
-7.939332 -106.874275 -18.320955
-9.903821 -107.422165 -17.374952
10.646975 -92.361099 -18.324572
11.883144 -91.046211 -20.493414
9.529012 -93.822456 -20.630737
-2.098216 -100.443253 -31.494364
0.769692 -98.500671 -32.126293
-1.024418 -98.240608 -33.535889
0.151477 -95.997238 -35.158592
-2.934948 -97.952858 -34.454288
15.861422 -80.771881 0.541736
15.336744 -82.499954 -2.473934
14.162504 -83.092628 -0.039081
1.904275 -94.990768 -1.831446
-1.482029 -98.484116 -4.131856
0.939102 -101.700386 -18.149654
2.154998 -100.947998 -20.540892
-0.391738 -102.86908 -20.286495
-6.284165 -105.927917 -22.733286
-3.691148 -104.629753 -23.665916
-5.435851 -105.055321 -25.057549
-4.364612 -103.812363 -27.320108
-7.093002 -105.059891 -26.420361
10.529221 -83.613434 7.141009
14.483176 -87.60083 -24.546782
14.468409 -86.810509 -28.714935
4.359415 -98.81958 -24.975027
7.089041 -96.220184 -25.136724
5.541693 -97.26049 -27.214584
6.521762 -93.746422 -32.741646
8.11679 -93.189224 -31.173687
9.300132 -90.912971 -32.936089
12.129522 -87.799576 -32.93549
10.453364 -88.401299 -34.656628
-14.842307 -106.869232 -11.964613
18.726351 -79.548973 -9.32486
14.049194 -85.901939 -8.005527
15.263936 -84.916153 -10.207376
13.372685 -87.54776 -10.795903
12.434216 -89.34037 -13.309693
11.238386 -90.161766 -10.948423
9.264301 -87.495499 1.454726
10.442208 -87.430748 -0.870598
8.435354 -89.46888 -1.217242
4.467087 -95.32592 -6.654036
6.599729 -93.380867 -6.45061
5.656413 -95.26152 -9.079709
6.910342 -94.897903 -11.462662
4.559561 -97.074951 -11.46461
3.534567 -98.731262 -14.05277
2.24718 -99.004364 -11.44257
-3.753938 -102.087128 -8.748746
-2.732686 -102.492996 -11.256813
-5.124846 -103.685898 -10.723489
-6.364041 -105.037994 -12.671062
-7.542655 -104.756729 -10.43964
-15.264047 -107.450958 -16.779325
-13.257844 -107.615868 -18.689604
-15.225049 -107.237526 -19.235786
-14.173397 -106.05304 -24.002806
-13.527843 -105.004967 -26.296234
-10.993966 -104.483002 -27.927553
-12.667231 -103.631111 -28.562494
-4.159854 -105.022659 -17.437407
-3.117465 -104.619347 -19.760271
-5.523981 -105.886215 -19.109644
-7.121213 -106.52478 -20.450453
-8.711135 -106.826279 -21.724455
15.035872 -86.747894 -17.827045
16.166517 -85.351723 -19.893585
14.026328 -88.300919 -20.200834
13.125701 -89.50116 -22.596809
12.013547 -90.744431 -24.850052
1.196796 -100.261002 -28.593063
4.071251 -97.892723 -29.076189
2.433947 -98.389008 -30.634794
3.778657 -96.143097 -32.574429
4.991765 -93.745819 -34.360817
6.14607 -91.091774 -36.075085
3.181181 -93.634148 -35.740452
18.020544 -79.243896 -4.245612
17.474966 -80.917999 -7.157985
16.457981 -81.724922 -4.813506
14.702277 -84.21656 -5.227304
12.828459 -86.64225 -5.609871
5.09041 -91.228706 0.823478
6.372155 -91.411316 -1.56282
4.142495 -93.225838 -1.630421
3.110531 -95.333687 -4.273074
2.128168 -97.168877 -6.583265
0.967411 -99.038475 -8.906091
-0.193065 -98.847855 -6.584625
-2.720372 -100.418465 -6.468906
-5.136182 -101.659645 -6.212933
5.774169 -97.567749 -18.554779
7.087677 -96.446419 -20.795265
4.621442 -98.829239 -20.688709
3.297669 -99.982513 -22.728134
1.841033 -100.927475 -24.729956
-2.01924 -103.911514 -22.00956
-0.863168 -102.902557 -24.286896
0.146125 -101.725487 -26.477427
-1.566878 -102.197945 -28.03455
-3.445295 -102.405518 -29.3799
-5.112317 -102.052383 -30.738428
13.596472 -81.633461 5.188312
12.994175 -83.520676 2.220807
11.846119 -83.564766 4.789122
9.95638 -85.57914 4.178981
8.003308 -87.409637 3.783667
8.511967 -94.953316 -22.899157
9.622242 -93.551872 -24.947657
10.818671 -91.791481 -27.064262
6.980443 -95.209457 -29.249887
9.643164 -92.457283 -29.252613
12.091396 -89.700005 -29.071993
13.408051 -87.339493 -30.926413
-11.415367 -107.23304 -14.056744
-11.701962 -107.611481 -15.990908
-13.240942 -107.420364 -14.217925
-15.140982 -107.328667 -14.343625
-17.056746 -106.950256 -14.702065
-9.772772 -105.48188 -10.130676
-10.686825 -106.50383 -12.158291
-9.515414 -106.814301 -14.224338
17.074009 -82.233978 -9.813203
16.406734 -83.83918 -12.380869
15.737069 -85.343613 -15.03654
13.793812 -88.065125 -15.511607
11.737912 -90.721001 -15.921367
9.45041 -93.414322 -16.171442
12.357418 -85.356544 -0.623937
11.619289 -87.201653 -3.338999
10.812886 -89.053009 -6.00852
7.606184 -91.434532 -3.979192
8.706798 -91.373131 -6.409156
9.941121 -90.888733 -8.619164
9.139917 -92.579643 -11.287433
8.192605 -94.243851 -13.736418
7.059344 -95.934555 -16.166784
4.609113 -98.293709 -16.255331
2.190173 -100.341087 -16.080294
-0.219313 -102.160339 -15.879264
-0.290234 -100.891022 -11.357056
-1.577128 -102.527824 -13.608433
-2.615663 -103.763756 -15.685635
-5.199602 -105.168625 -15.191465
-7.478367 -106.143761 -14.640574
-11.54293 -107.660278 -18.011049
-11.19253 -107.419182 -20.299614
-10.467072 -106.877647 -22.657333
-14.798903 -106.793159 -21.595253
-12.402703 -106.657364 -23.318142
-9.912181 -106.062042 -25.004375
-9.086477 -104.9655 -27.226645
-8.035471 -103.541542 -29.374722
-7.0357 -101.695168 -31.538155
-11.603975 -101.896851 -30.764645
-8.757571 -100.961372 -32.225353
15.271185 -81.084995 1.667906
16.049513 -80.007358 1.99645
14.421726 -82.245369 1.377498
15.011963 -81.932254 0.251327
15.271185 -81.084995 1.667906
14.373423 -87.394936 -26.738579
15.020884 -86.725696 -25.582561
13.835715 -88.270069 -25.7028
13.828332 -87.874909 -27.786876
15.0135 -86.330536 -27.666638
14.373423 -87.394936 -26.738579
8.362317 -89.795665 -35.396627
9.746491 -88.369659 -35.450159
9.06919 -89.827305 -34.603096
19.758367 -77.017002 -6.394742
19.227069 -77.596004 -5.237057
19.61018 -77.649757 -7.723766
19.758367 -77.017002 -6.394742
18.885601 -78.928474 -7.99587
19.45093 -78.270256 -9.052756
19.61018 -77.649757 -7.723766
-16.167331 -107.075519 -18.212841
-15.244548 -107.344242 -18.007556
-16.18683 -107.182235 -16.984611
-14.385333 -104.430904 -26.599107
-14.778846 -105.063698 -25.358389
-13.955026 -103.743977 -27.732238
-13.097537 -104.318039 -27.429364
-14.385333 -104.430904 -26.599107
0.802164 -94.622223 -35.989216
-0.782616 -95.756389 -35.621426
17.729962 -78.851151 -1.607368
17.177179 -79.317959 -0.474896
17.478224 -79.685875 -3.071938
18.272283 -78.409172 -2.781042
17.729962 -78.851151 -1.607368
3.505666 -93.050754 -0.418552
4.616453 -92.227272 -0.403471
3.979623 -92.052188 0.808397
-3.314438 -100.134243 -5.230704
-2.101201 -99.45129 -5.300381
-2.695267 -99.167068 -4.062179
-4.522343 -100.754833 -5.102717
-3.928277 -101.039055 -6.34092
-3.314438 -100.134243 -5.230704
12.992726 -81.679447 6.409413
13.861245 -80.69609 6.71026
12.117549 -82.6451 6.209818
12.721296 -82.599114 4.988717
12.992726 -81.679447 6.409413
9.357743 -85.415069 5.461968
10.2428 -84.596287 5.659995
9.644163 -84.432216 6.942982
8.381207 -86.330318 5.264311
8.979844 -86.494388 3.981324
9.357743 -85.415069 5.461968
16.493939 -84.92234 -22.121317
16.842635 -84.407246 -20.946567
15.817821 -85.866817 -21.068336
13.387189 -86.353668 -32.787121
12.7261 -86.514854 -33.757348
5.920431 -89.467133 -37.499836
6.736973 -89.639012 -36.86888
5.329528 -90.919895 -36.706041
-15.97081 -107.003654 -13.298732
-14.991644 -107.09895 -13.154119
-15.821472 -106.773937 -12.109226
-16.928692 -106.814449 -13.477952
-16.098864 -107.139461 -14.522845
-15.97081 -107.003654 -13.298732
-10.34535 -105.137089 -8.926157
-9.242028 -104.854198 -9.113709
-11.710425 -106.657039 -12.061374
-11.368742 -106.222217 -10.984429
-12.392342 -106.375427 -10.887512
18.730746 -80.454086 -13.13286
18.937099 -79.796688 -11.754454
17.86629 -81.874592 -13.449189
18.730746 -80.454086 -13.13286
-15.69752 -106.390835 -21.824828
-15.95047 -106.656013 -20.630547
-12.537769 -101.2687 -30.905765
-13.012118 -102.121929 -29.923727
-8.296914 -99.842228 -33.164718
-9.73129 -100.443515 -32.441967
-7.327723 -100.244384 -32.88405
-8.296914 -99.842228 -33.164718
-2.325829 -96.7342 -35.269273
-0.782616 -95.756389 -35.621426
-1.391736 -96.975048 -34.80644
16.639937 -79.639972 0.745103
16.049513 -80.007358 1.99645
16.398663 -80.449867 -0.678264
17.177179 -79.317959 -0.474896
16.639937 -79.639972 0.745103
1.288626 -94.715134 -0.573883
2.386556 -93.93322 -0.519065
0.734344 -95.755554 -1.773401
1.288626 -94.715134 -0.573883
0.167271 -96.802017 -3.019278
1.337202 -96.037231 -3.077323
0.734344 -95.755554 -1.773401
-0.958808 -97.502228 -2.923606
-0.35595 -97.783905 -4.227528
0.167271 -96.802017 -3.019278
-2.110764 -98.193509 -2.891885
-0.958808 -97.502228 -2.923606
-2.695267 -99.167068 -4.062179
-2.110764 -98.193509 -2.891885
10.812451 -82.668796 8.506761
11.4591 -82.669433 7.385762
9.926572 -83.404388 8.419902
10.812451 -82.668796 8.506761
9.644163 -84.432216 6.942982
9.926572 -83.404388 8.419902
15.575285 -86.097233 -24.477536
16.068259 -85.487774 -23.325688
14.976151 -86.991371 -23.394934
15.575285 -86.097233 -24.477536
15.020884 -86.725696 -25.582561
15.653642 -85.212941 -28.682339
15.0135 -86.330536 -27.666638
15.120655 -85.613999 -29.664193
15.653642 -85.212941 -28.682339
11.888021 -86.815716 -34.617916
12.7261 -86.514854 -33.757348
11.291443 -88.100437 -33.796059
11.128652 -86.905701 -35.49184
11.888021 -86.815716 -34.617916
10.421778 -86.874062 -36.285371
11.128652 -86.905701 -35.49184
9.746491 -88.369659 -35.450159
-14.493893 -106.502006 -10.813256
-13.788166 -106.839741 -11.964535
-13.439752 -106.472515 -10.813178
-15.522493 -106.484257 -10.8527
-14.493893 -106.502006 -10.813256
-15.821472 -106.773937 -12.109226
-15.522493 -106.484257 -10.8527
-13.439752 -106.472515 -10.813178
-12.392342 -106.375427 -10.887512
19.235856 -78.982338 -10.379935
19.45093 -78.270256 -9.052756
18.427594 -80.363323 -10.699378
18.937099 -79.796688 -11.754454
19.235856 -78.982338 -10.379935
-15.101623 -105.587734 -24.211675
-15.384767 -106.020775 -23.028605
-13.85062 -105.529003 -25.14952
-15.101623 -105.587734 -24.211675
-14.778846 -105.063698 -25.358389
15.601194 -86.049809 -18.860315
16.543089 -84.681836 -18.622772
15.977767 -85.379921 -17.589502
3.847084 -92.191082 -36.538725
5.329528 -90.919895 -36.706041
4.663626 -92.362961 -35.907769
2.317016 -93.440678 -36.280146
1.666329 -94.815693 -35.449522
0.802164 -94.622223 -35.989216
3.847084 -92.191082 -36.538725
2.317016 -93.440678 -36.280146
18.714916 -78.063964 -4.026423
18.272283 -78.409172 -2.781042
18.532698 -78.775936 -5.456247
19.227069 -77.596004 -5.237057
18.714916 -78.063964 -4.026423
3.023385 -94.108303 -1.730933
3.505666 -93.050754 -0.418552
2.386556 -93.93322 -0.519065
14.365317 -80.674988 5.460204
13.861245 -80.69609 6.71026
14.13871 -81.515785 3.991194
14.365317 -80.674988 5.460204
13.295324 -82.577068 3.70456
13.837561 -82.459393 2.507442
14.13871 -81.515785 3.991194
11.18767 -83.5891 5.965065
12.117549 -82.6451 6.209818
11.4591 -82.669433 7.385762
7.390496 -87.190681 5.048924
8.381207 -86.330318 5.264311
7.006286 -88.205604 3.731614
7.390496 -87.190681 5.048924
6.570198 -89.213829 2.444676
7.56722 -88.417862 2.496729
7.006286 -88.205604 3.731614
5.549838 -90.115139 2.25152
6.110771 -90.327396 1.016635
6.570198 -89.213829 2.444676
4.512411 -90.93457 2.120099
5.549838 -90.115139 2.25152
3.979623 -92.052188 0.808397
4.512411 -90.93457 2.120099
17.152112 -83.892361 -19.715924
16.543089 -84.681836 -18.622772
17.152112 -83.892361 -19.715924
16.842635 -84.407246 -20.946567
16.493939 -84.92234 -22.121317
16.068259 -85.487774 -23.325688
14.590477 -85.87849 -30.769932
15.120655 -85.613999 -29.664193
13.93823 -87.075001 -29.820674
14.026454 -86.123627 -31.782582
12.768787 -87.569535 -31.930951
13.387189 -86.353668 -32.787121
14.590477 -85.87849 -30.769932
14.026454 -86.123627 -31.782582
7.592843 -89.714897 -36.159388
8.362317 -89.795665 -35.396627
6.915543 -91.172542 -35.312325
7.592843 -89.714897 -36.159388
6.736973 -89.639012 -36.86888
-17.083179 -106.931884 -15.945981
-16.18683 -107.182235 -16.984611
-16.160397 -107.200607 -15.740695
-17.873347 -106.521694 -13.517333
-16.928692 -106.814449 -13.477952
-17.992467 -106.575008 -14.760181
-17.873347 -106.521694 -13.517333
-17.083179 -106.931884 -15.945981
-17.992467 -106.575008 -14.760181
-5.757272 -101.244274 -4.813711
-4.522343 -100.754833 -5.102717
-6.265729 -102.139297 -6.065725
-5.757272 -101.244274 -4.813711
-6.84329 -102.975605 -7.202545
-5.713742 -102.495953 -7.349753
-6.265729 -102.139297 -6.065725
-7.501294 -103.779389 -8.291658
-6.84329 -102.975605 -7.202545
-8.12697 -104.491623 -9.268192
-6.916978 -104.044495 -9.463107
-7.501294 -103.779389 -8.291658
-8.657713 -105.119304 -10.285158
-8.12697 -104.491623 -9.268192
-9.242028 -104.854198 -9.113709
-10.911715 -105.711242 -9.970622
-10.34535 -105.137089 -8.926157
-10.229799 -105.992855 -11.144483
-10.911715 -105.711242 -9.970622
-11.368742 -106.222217 -10.984429
17.005239 -83.205345 -13.602676
17.86629 -81.874592 -13.449189
17.267786 -82.508426 -12.227383
16.670406 -83.957561 -14.930511
17.005239 -83.205345 -13.602676
16.071901 -84.591397 -13.708704
16.328365 -84.677781 -16.19425
16.670406 -83.957561 -14.930511
15.38647 -86.045754 -16.431793
15.977767 -85.379921 -17.589502
16.328365 -84.677781 -16.19425
13.57834 -83.306652 1.090863
14.421726 -82.245369 1.377498
13.837561 -82.459393 2.507442
-16.163543 -106.878197 -19.450814
-16.167331 -107.075519 -18.212841
-15.011976 -107.015343 -20.41552
-16.163543 -106.878197 -19.450814
-15.95047 -106.656013 -20.630547
-14.48615 -106.4231 -22.799029
-15.69752 -106.390835 -21.824828
-15.384767 -106.020775 -23.028605
-13.543746 -102.989059 -28.822651
-13.955026 -103.743977 -27.732238
-12.135603 -102.763981 -29.66357
-13.543746 -102.989059 -28.822651
-13.012118 -102.121929 -29.923727
-11.154492 -100.911255 -31.711613
-12.537769 -101.2687 -30.905765
-10.180773 -101.429112 -31.494999
-11.154492 -100.911255 -31.711613
-9.73129 -100.443515 -32.441967
-6.466788 -100.611282 -32.540451
-7.896636 -101.32827 -31.881754
-7.327723 -100.244384 -32.88405
-4.94633 -99.840995 -33.085742
-5.515242 -100.924881 -32.083447
-6.466788 -100.611282 -32.540451
-4.416411 -98.740127 -33.998517
-3.464866 -99.053726 -33.541513
-4.94633 -99.840995 -33.085742
-3.945281 -97.63723 -34.829923
-4.416411 -98.740127 -33.998517
-2.325829 -96.7342 -35.269273
-3.945281 -97.63723 -34.829923
3 0 52 50
3 1 55 53
3 2 58 56
3 2 60 58
3 210 61 211
3 212 63 213
3 214 213 61
3 212 213 214
3 3 68 66
3 5 71 69
3 5 73 71
3 7 215 217
3 217 216 75
3 215 216 217
3 7 218 220
3 218 76 219
3 218 219 220
3 4 79 77
3 8 82 80
3 8 84 82
3 8 221 223
3 223 222 84
3 221 222 223
3 10 224 225
3 10 226 227
3 10 228 230
3 228 86 229
3 228 229 230
3 11 89 87
3 11 91 89
3 6 94 92
3 12 97 95
3 12 99 97
3 12 101 99
3 9 104 102
3 9 106 104
3 231 109 232
3 233 232 107
3 231 232 233
3 234 111 235
3 236 113 237
3 238 237 111
3 236 237 238
3 13 116 114
3 15 117 51
3 15 118 117
3 16 121 119
3 18 122 54
3 18 123 122
3 19 126 124
3 21 127 57
3 21 128 127
3 21 130 128
3 240 239 59
3 22 241 242
3 22 243 245
3 243 131 244
3 243 244 245
3 22 133 131
3 24 134 62
3 24 135 134
3 246 138 247
3 248 247 136
3 246 247 248
3 26 139 64
3 26 140 139
3 26 142 140
3 249 143 250
3 251 250 65
3 249 250 251
3 252 144 253
3 254 253 143
3 252 253 254
3 28 147 145
3 30 148 67
3 30 149 148
3 14 150 115
3 31 151 70
3 31 152 151
3 31 153 152
3 32 154 72
3 32 155 154
3 255 156 256
3 257 158 258
3 259 258 156
3 257 258 259
3 260 159 261
3 262 261 74
3 260 261 262
3 263 160 264
3 265 264 159
3 263 264 265
3 17 266 268
3 268 267 120
3 266 267 268
3 29 161 146
3 34 162 78
3 34 163 162
3 20 164 125
3 35 165 81
3 35 166 165
3 35 167 166
3 270 269 83
3 273 272 129
3 271 272 273
3 36 170 168
3 274 171 275
3 276 275 85
3 274 275 276
3 277 172 278
3 279 278 171
3 277 278 279
3 280 173 281
3 36 282 284
3 282 174 283
3 282 283 284
3 36 168 174
3 39 285 286
3 39 287 288
3 23 176 132
3 40 177 88
3 40 178 177
3 40 179 178
3 41 180 90
3 41 181 180
3 33 182 157
3 42 183 93
3 42 184 183
3 25 185 137
3 43 186 96
3 43 187 186
3 43 188 187
3 44 189 98
3 44 190 189
3 44 191 190
3 45 192 100
3 45 193 192
3 27 194 141
3 46 195 103
3 46 196 195
3 46 197 196
3 38 198 105
3 38 175 198
3 37 199 169
3 47 200 108
3 47 201 200
3 289 202 290
3 48 203 110
3 48 204 203
3 48 205 204
3 49 206 112
3 49 207 206
3 291 208 292
3 293 209 294
3 296 295 209
3 50 51 13
3 52 51 50
3 52 15 51
3 53 54 16
3 55 54 53
3 55 18 54
3 56 57 19
3 58 57 56
3 58 21 57
3 58 59 21
3 60 59 58
3 60 297 299
3 299 298 59
3 297 298 299
3 61 300 301
3 61 302 304
3 302 22 303
3 302 303 304
3 61 62 22
3 63 62 61
3 63 24 62
3 305 64 306
3 307 64 308
3 309 26 310
3 311 310 64
3 309 310 311
3 312 65 313
3 314 313 26
3 312 313 314
3 315 65 316
3 318 317 65
3 66 67 28
3 68 67 66
3 68 30 67
3 69 70 14
3 71 70 69
3 71 31 70
3 71 72 31
3 73 72 71
3 73 32 72
3 319 74 320
3 321 74 322
3 324 323 74
3 75 325 327
3 327 326 17
3 325 326 327
3 329 328 75
3 76 330 331
3 76 332 333
3 77 78 29
3 79 78 77
3 79 34 78
3 80 81 20
3 82 81 80
3 82 35 81
3 82 83 35
3 84 83 82
3 84 334 336
3 336 335 83
3 334 335 336
3 84 337 338
3 341 340 84
3 339 340 341
3 342 85 343
3 344 343 36
3 342 343 344
3 345 85 346
3 348 347 85
3 349 36 350
3 86 351 352
3 86 353 355
3 353 39 354
3 353 354 355
3 87 88 23
3 89 88 87
3 89 40 88
3 89 90 40
3 91 90 89
3 91 41 90
3 92 93 33
3 94 93 92
3 94 42 93
3 95 96 25
3 97 96 95
3 97 43 96
3 97 98 43
3 99 98 97
3 99 44 98
3 99 100 44
3 101 100 99
3 101 45 100
3 102 103 27
3 104 103 102
3 104 46 103
3 104 105 46
3 106 105 104
3 106 38 105
3 107 108 37
3 109 108 107
3 109 47 108
3 356 110 357
3 111 358 360
3 358 110 359
3 358 359 360
3 111 48 110
3 111 112 48
3 113 112 111
3 113 49 112
3 114 115 3
3 116 115 114
3 116 14 115
3 51 116 13
3 117 116 51
3 117 14 116
3 117 69 14
3 118 69 117
3 118 5 69
3 119 361 363
3 361 120 362
3 361 362 363
3 121 120 119
3 121 17 120
3 54 121 16
3 122 121 54
3 122 17 121
3 122 75 17
3 123 75 122
3 123 7 75
3 124 125 4
3 126 125 124
3 126 20 125
3 57 126 19
3 127 126 57
3 127 20 126
3 127 80 20
3 128 80 127
3 128 8 80
3 128 129 8
3 130 129 128
3 130 364 366
3 366 365 129
3 364 365 366
3 59 130 21
3 367 130 368
3 369 368 59
3 367 368 369
3 371 370 130
3 131 372 373
3 131 374 376
3 374 10 375
3 374 375 376
3 131 132 10
3 133 132 131
3 133 23 132
3 62 133 22
3 134 133 62
3 134 23 133
3 134 87 23
3 135 87 134
3 135 11 87
3 136 137 6
3 138 137 136
3 138 25 137
3 64 377 379
3 377 138 378
3 377 378 379
3 139 138 64
3 139 25 138
3 139 95 25
3 140 95 139
3 140 12 95
3 140 141 12
3 142 141 140
3 142 27 141
3 65 142 26
3 143 142 65
3 143 27 142
3 143 102 27
3 144 102 143
3 144 9 102
3 145 146 1
3 147 146 145
3 147 29 146
3 67 147 28
3 148 147 67
3 148 29 147
3 148 77 29
3 149 77 148
3 149 4 77
3 115 68 3
3 150 68 115
3 150 30 68
3 70 150 14
3 151 150 70
3 151 30 150
3 151 149 30
3 152 149 151
3 152 4 149
3 152 124 4
3 153 124 152
3 153 19 124
3 72 153 31
3 154 153 72
3 154 19 153
3 154 56 19
3 155 56 154
3 155 2 56
3 156 380 381
3 156 382 383
3 156 384 386
3 384 157 385
3 384 385 386
3 158 157 156
3 158 33 157
3 74 387 389
3 387 158 388
3 387 388 389
3 159 158 74
3 159 33 158
3 159 92 33
3 160 92 159
3 160 6 92
3 390 160 391
3 392 160 393
3 394 6 395
3 396 395 160
3 394 395 396
3 397 136 398
3 399 398 6
3 397 398 399
3 400 136 401
3 403 402 136
3 120 404 405
3 407 406 120
3 409 408 17
3 146 55 1
3 161 55 146
3 161 18 55
3 78 161 29
3 162 161 78
3 162 18 161
3 162 123 18
3 163 123 162
3 163 7 123
3 125 79 4
3 164 79 125
3 164 34 79
3 81 164 20
3 165 164 81
3 165 34 164
3 165 163 34
3 166 163 165
3 166 7 163
3 166 76 7
3 167 76 166
3 167 410 412
3 412 411 76
3 410 411 412
3 83 167 35
3 413 167 414
3 415 414 83
3 413 414 415
3 417 416 167
3 129 418 420
3 420 419 8
3 418 419 420
3 422 421 129
3 168 169 0
3 170 169 168
3 170 37 169
3 85 170 36
3 171 170 85
3 171 37 170
3 171 107 37
3 172 107 171
3 172 423 425
3 425 424 107
3 423 424 425
3 426 172 427
3 428 172 429
3 431 430 172
3 432 144 433
3 434 144 435
3 436 9 437
3 438 437 144
3 436 437 438
3 439 9 440
3 441 106 442
3 443 442 9
3 441 442 443
3 173 444 446
3 444 106 445
3 444 445 446
3 173 38 106
3 447 173 448
3 174 449 451
3 449 173 450
3 449 450 451
3 174 38 173
3 174 175 38
3 168 175 174
3 168 0 175
3 132 86 10
3 176 86 132
3 176 39 86
3 88 176 23
3 177 176 88
3 177 39 176
3 177 452 454
3 454 453 39
3 452 453 454
3 178 455 457
3 457 456 177
3 455 456 457
3 178 458 459
3 178 460 462
3 460 119 461
3 460 461 462
3 179 119 178
3 179 16 119
3 90 179 40
3 180 179 90
3 180 16 179
3 180 53 16
3 181 53 180
3 181 1 53
3 157 463 465
3 463 63 464
3 463 464 465
3 182 63 157
3 182 24 63
3 93 182 33
3 183 182 93
3 183 24 182
3 183 135 24
3 184 135 183
3 184 11 135
3 137 94 6
3 185 94 137
3 185 42 94
3 96 185 25
3 186 185 96
3 186 42 185
3 186 184 42
3 187 184 186
3 187 11 184
3 187 91 11
3 188 91 187
3 188 41 91
3 98 188 43
3 189 188 98
3 189 41 188
3 189 181 41
3 190 181 189
3 190 1 181
3 190 145 1
3 191 145 190
3 191 28 145
3 100 191 44
3 192 191 100
3 192 28 191
3 192 66 28
3 193 66 192
3 193 3 66
3 141 101 12
3 194 101 141
3 194 45 101
3 103 194 27
3 195 194 103
3 195 45 194
3 195 193 45
3 196 193 195
3 196 3 193
3 196 114 3
3 197 114 196
3 197 13 114
3 105 197 46
3 198 197 105
3 198 13 197
3 198 50 13
3 175 50 198
3 175 0 50
3 169 52 0
3 199 52 169
3 199 15 52
3 108 199 37
3 200 199 108
3 200 15 199
3 200 118 15
3 201 118 200
3 201 5 118
3 466 109 467
3 202 468 470
3 468 109 469
3 468 469 470
3 202 47 109
3 110 471 473
3 471 202 472
3 471 472 473
3 203 202 110
3 203 47 202
3 203 201 47
3 204 201 203
3 204 5 201
3 204 73 5
3 205 73 204
3 205 32 73
3 112 205 48
3 206 205 112
3 206 32 205
3 206 155 32
3 207 155 206
3 207 2 155
3 474 113 475
3 208 476 478
3 476 113 477
3 476 477 478
3 208 49 113
3 479 208 480
3 209 481 483
3 481 208 482
3 481 482 483
3 209 49 208
3 209 207 49
3 484 207 485
3 486 485 209
3 484 485 486
3 487 2 488
3 489 488 207
3 487 488 489
3 490 60 491
3 492 491 2
3 490 491 492
3 493 60 494
3 496 495 60
