ply
format ascii 1.0
element vertex 128
property float x
property float y
property float z
element face 114
property list uchar int vertex_index
end_header
-14.729835 88.71244 24.878431
-6.305811 86.78952 21.062933
-15.539662 83.599342 30.855568
-11.745271 83.444313 28.71244
-10.559891 88.034248 22.910446
-7.552029 82.554306 26.657089
-13.675173 93.40937 18.352169
-12.050479 80.693756 31.619574
-10.127557 80.639618 30.387253
-9.688969 83.110153 27.640539
-8.094213 80.178925 29.401022
-15.097003 86.22863 27.871681
-16.125046 91.195518 22.622313
-15.594622 93.578407 19.236519
-14.199644 91.252739 21.496441
-8.43644 87.476044 21.963139
-10.037007 90.096764 20.04591
-7.991077 89.623886 19.016716
-14.113903 81.026894 32.578323
-13.645615 83.516899 29.85779
-13.099634 86.123627 26.784496
-12.722132 88.663422 23.685801
-11.149156 85.929008 25.694098
-8.996323 85.16021 24.988531
-6.962847 84.820869 23.810541
-12.226847 90.821434 20.749146
-11.508295 92.709183 17.791393
-4.916452 83.935883 23.143642
-9.337688 79.120621 31.244423
-10.356343 79.349247 31.736733
-8.321016 78.890275 30.751308
-9.110885 80.409272 29.894137
-9.337688 79.120621 31.244423
-15.702901 88.779839 25.304381
-15.886486 87.537934 26.801006
-14.913419 87.470535 26.375056
-15.42744 89.953979 23.750372
-16.400507 90.021377 24.176322
-15.702901 88.779839 25.304381
-6.008356 87.757008 19.6444
-6.850988 89.174191 18.621292
-7.148444 88.206703 20.039825
-13.342017 79.599148 33.423177
-14.335633 79.669194 33.953683
-16.512155 83.562896 31.344092
-15.793975 82.245445 32.304951
-14.320344 94.555831 17.109629
-15.280069 94.64035 17.551804
-14.634897 93.493888 18.794344
-13.247594 94.269104 16.853972
-14.320344 94.555831 17.109629
-10.491706 92.460617 17.332439
-10.772651 91.402974 18.918651
-9.756061 91.154407 18.459698
-11.124201 93.660717 16.169248
-10.491706 92.460617 17.332439
-4.228872 82.482941 24.117348
-5.241331 82.882733 24.510786
-11.317804 79.376316 32.352893
-12.310305 79.432579 32.943803
-11.089018 80.666687 31.003414
-11.317804 79.376316 32.352893
-10.356343 79.349247 31.736733
-16.062177 86.210572 28.370517
-16.283507 84.895927 29.862461
-15.318333 84.913986 29.363625
-16.062177 86.210572 28.370517
-15.886486 87.537934 26.801006
-17.124783 91.254829 22.952649
-16.400507 90.021377 24.176322
-16.806045 92.425396 21.290089
-17.124783 91.254829 22.952649
-15.859834 92.386963 20.929416
-16.540833 93.61684 19.597192
-16.806045 92.425396 21.290089
-8.733097 90.917969 17.945101
-9.756061 91.154407 18.459698
-9.014042 89.860325 19.531313
-7.590668 90.486679 17.561304
-8.733097 90.917969 17.945101
-6.450579 90.036984 17.16588
-7.590668 90.486679 17.561304
-6.850988 89.174191 18.621292
-15.081095 80.959221 33.166328
-14.335633 79.669194 33.953683
-14.826783 82.313118 31.716946
-15.793975 82.245445 32.304951
-15.081095 80.959221 33.166328
-13.082191 80.860325 32.098948
-13.342017 79.599148 33.423177
-12.310305 79.432579 32.943803
-16.512155 83.562896 31.344092
-16.283507 84.895927 29.862461
-16.325526 94.66394 18.007976
-16.540833 93.61684 19.597192
-16.010973 95.725884 16.32326
-16.325526 94.66394 18.007976
-15.280069 94.64035 17.551804
-12.164155 93.91901 16.573583
-13.247594 94.269104 16.853972
-12.591734 93.059276 18.071781
-11.780061 94.870544 14.951438
-12.164155 93.91901 16.573583
-11.124201 93.660717 16.169248
-7.312716 78.655129 30.245044
-8.321016 78.890275 30.751308
-7.107271 79.91737 28.929713
-7.312716 78.655129 30.245044
-6.83618 81.105061 27.557746
-7.823121 81.366615 28.029055
-7.107271 79.91737 28.929713
-6.559119 82.191944 26.267509
-6.83618 81.105061 27.557746
-6.264528 83.325226 24.844235
-7.257438 83.687588 25.233815
-6.559119 82.191944 26.267509
-5.939649 84.378376 23.477092
-6.264528 83.325226 24.844235
-5.241331 82.882733 24.510786
-3.924878 83.506271 22.789037
-4.228872 82.482941 24.117348
-4.589812 84.953412 21.725904
-3.924878 83.506271 22.789037
-5.284492 86.38023 20.68555
-5.611131 85.362702 22.103288
-4.589812 84.953412 21.725904
-6.008356 87.757008 19.6444
-5.284492 86.38023 20.68555
3 28 8 29
3 30 10 31
3 32 31 8
3 30 31 32
3 0 33 35
3 35 34 11
3 33 34 35
3 0 36 38
3 36 12 37
3 36 37 38
3 0 14 12
3 1 17 15
3 1 39 41
3 41 40 17
3 39 40 41
3 42 18 43
3 3 19 7
3 3 20 19
3 3 22 20
3 5 23 9
3 5 24 23
3 2 44 45
3 6 46 48
3 48 47 13
3 46 47 48
3 6 49 50
3 4 25 21
3 51 26 52
3 53 52 16
3 51 52 53
3 55 54 26
3 56 27 57
3 58 7 59
3 8 60 62
3 60 7 61
3 60 61 62
3 8 3 7
3 8 9 3
3 10 9 8
3 10 5 9
3 11 63 65
3 65 64 2
3 63 64 65
3 67 66 11
3 12 68 69
3 12 70 71
3 12 72 74
3 72 13 73
3 72 73 74
3 14 13 12
3 14 6 13
3 15 16 4
3 17 16 15
3 17 75 77
3 77 76 16
3 75 76 77
3 17 78 79
3 82 81 17
3 80 81 82
3 18 83 84
3 18 85 87
3 85 2 86
3 85 86 87
3 7 88 90
3 88 18 89
3 88 89 90
3 19 18 7
3 19 2 18
3 19 11 2
3 20 11 19
3 20 0 11
3 20 21 0
3 22 21 20
3 22 4 21
3 9 22 3
3 23 22 9
3 23 4 22
3 23 15 4
3 24 15 23
3 24 1 15
3 92 91 2
3 13 93 94
3 97 96 13
3 95 96 97
3 21 14 0
3 25 14 21
3 25 6 14
3 16 25 4
3 26 25 16
3 26 6 25
3 26 98 100
3 100 99 6
3 98 99 100
3 103 102 26
3 101 102 103
3 104 10 105
3 106 10 107
3 108 5 109
3 110 109 10
3 108 109 110
3 111 5 112
3 113 24 114
3 115 114 5
3 113 114 115
3 27 116 118
3 116 24 117
3 116 117 118
3 27 1 24
3 119 27 120
3 121 27 122
3 123 1 124
3 125 124 27
3 123 124 125
3 127 126 1
