ply
format ascii 1.0
element vertex 129
property float x
property float y
property float z
element face 112
property list uchar int vertex_index
end_header
-27.877342 8.522047 -4.472547
-34.620991 7.441425 -0.618486
-31.341251 8.024161 -2.837941
-32.025028 2.360278 -0.594369
-28.602093 2.854141 -2.622851
-30.828434 13.523044 -4.642313
-27.317522 14.599846 -6.091542
-36.868679 12.46729 -0.357445
-34.050972 12.78219 -2.803934
-29.601202 8.28354 -3.721084
-29.970516 5.454178 -2.719788
-28.218344 5.80934 -3.615824
-26.85965 3.395839 -3.5711
-30.431383 16.372345 -5.470312
-32.513988 13.010849 -3.744674
-32.971989 7.55426 -1.779579
-33.415203 4.930536 -0.579464
-31.743887 5.138356 -1.691217
-30.356649 2.666224 -1.668957
-29.333113 11.055344 -4.585247
-27.671764 11.490211 -5.280514
-29.085018 14.092861 -5.423588
-35.839073 9.988238 -0.533
-35.537395 12.581017 -1.664766
-34.330372 10.102192 -1.76168
-32.826096 10.208201 -2.7372
-31.103401 10.694918 -3.754903
-27.055732 8.7832 -4.830085
-27.153716 7.276576 -4.436469
-27.153716 7.276576 -4.436469
-27.324217 5.920222 -4.008107
-28.047843 7.165693 -4.044185
-34.852854 6.165411 0.040748
-35.383482 7.502402 0.007872
-28.835808 1.592744 -2.150207
-29.713086 1.498786 -1.67326
-29.479371 2.760182 -2.145904
-27.928002 1.713694 -2.654111
-28.835808 1.592744 -2.150207
-26.253952 2.230151 -3.580072
-25.981019 3.527219 -3.985616
-29.630361 16.696437 -5.80482
-30.386568 17.85008 -5.775123
-37.043298 11.211905 0.263981
-37.439848 12.46414 0.370327
-36.353876 11.227764 -0.445223
-36.528495 9.972379 0.176204
-37.043298 11.211905 0.263981
-34.794184 12.681603 -2.23435
-35.410015 13.839063 -2.140328
-34.666804 13.939649 -2.709912
-26.637126 13.322669 -6.02095
-26.814247 11.767852 -5.615436
-27.494643 13.045029 -5.686028
-32.925953 2.359408 0.02473
-33.62104 3.644537 0.032183
-32.720115 3.645407 -0.586917
-26.64487 4.713472 -3.985746
-27.538997 4.602589 -3.593462
-27.324217 5.920222 -4.008107
-25.981019 3.527219 -3.985616
-26.64487 4.713472 -3.985746
-31.303824 16.034335 -5.038531
-30.629908 14.947695 -5.056312
-31.50235 14.609685 -4.624532
-31.160137 17.424057 -5.402363
-31.303824 16.034335 -5.038531
-30.386568 17.85008 -5.775123
-31.160137 17.424057 -5.402363
-37.263813 13.68335 -0.215833
-37.439848 12.46414 0.370327
-33.914704 14.102218 -3.259213
-34.666804 13.939649 -2.709912
-33.146211 14.216548 -3.729583
-33.28248 12.89652 -3.274304
-33.914704 14.102218 -3.259213
-32.345127 14.353587 -4.175712
-33.146211 14.216548 -3.729583
-31.50235 14.609685 -4.624532
-31.671211 13.266946 -4.193493
-32.345127 14.353587 -4.175712
-26.522256 14.959067 -6.389057
-27.229804 16.209614 -6.432359
-32.274321 1.12084 -0.012767
-31.409143 1.163056 -0.588637
-30.574953 1.316029 -1.12593
-31.409143 1.163056 -0.588637
-31.190838 2.513251 -1.131663
-30.574953 1.316029 -1.12593
-29.713086 1.498786 -1.67326
-27.056781 1.984543 -3.128235
-27.928002 1.713694 -2.654111
-27.730871 3.12499 -3.096976
-27.056781 1.984543 -3.128235
-26.253952 2.230151 -3.580072
-28.957178 15.556695 -5.781458
-29.758201 15.232603 -5.44695
-29.630361 16.696437 -5.80482
-28.07343 15.810187 -6.115436
-28.20127 14.346353 -5.757565
-28.957178 15.556695 -5.781458
-27.229804 16.209614 -6.432359
-28.07343 15.810187 -6.115436
-35.992523 8.775809 0.050615
-36.528495 9.972379 0.176204
-35.230032 8.714832 -0.575743
-35.383482 7.502402 0.007872
-35.992523 8.775809 0.050615
-36.720152 13.722573 -0.890178
-37.263813 13.68335 -0.215833
-36.05451 13.779437 -1.543839
-35.410015 13.839063 -2.140328
-36.203037 12.524154 -1.011105
-36.720152 13.722573 -0.890178
-36.05451 13.779437 -1.543839
-26.952943 10.267281 -5.234069
-27.055732 8.7832 -4.830085
-27.774553 10.006129 -4.87653
-26.952943 10.267281 -5.234069
-26.814247 11.767852 -5.615436
-26.637126 13.322669 -6.02095
-26.522256 14.959067 -6.389057
-34.24996 4.909967 0.060259
-34.852854 6.165411 0.040748
-34.018097 6.18598 -0.598975
-34.24996 4.909967 0.060259
-33.62104 3.644537 0.032183
-32.925953 2.359408 0.02473
-32.274321 1.12084 -0.012767
3 0 27 28
3 0 11 9
3 0 29 31
3 31 30 11
3 29 30 31
3 1 32 33
3 2 17 15
3 4 18 10
3 4 34 36
3 36 35 18
3 34 35 36
3 4 37 38
3 40 39 12
3 5 21 19
3 42 41 13
3 7 43 44
3 7 45 47
3 45 22 46
3 45 46 47
3 8 48 50
3 48 23 49
3 48 49 50
3 8 24 23
3 8 25 24
3 5 26 14
3 5 19 26
3 6 51 53
3 53 52 20
3 51 52 53
3 3 54 56
3 56 55 16
3 54 55 56
3 9 10 2
3 11 10 9
3 11 4 10
3 11 12 4
3 57 12 58
3 59 58 11
3 57 58 59
3 61 60 12
3 62 13 63
3 64 63 5
3 62 63 64
3 65 13 66
3 68 67 13
3 69 7 70
3 71 8 72
3 73 14 74
3 75 74 8
3 73 74 75
3 76 14 77
3 78 5 79
3 80 79 14
3 78 79 80
3 82 81 6
3 84 83 3
3 15 16 1
3 17 16 15
3 17 3 16
3 10 17 2
3 18 17 10
3 18 3 17
3 18 85 87
3 87 86 3
3 85 86 87
3 89 88 18
3 12 90 92
3 92 91 4
3 90 91 92
3 94 93 12
3 19 20 0
3 21 20 19
3 21 6 20
3 13 21 5
3 95 21 96
3 97 96 13
3 95 96 97
3 98 6 99
3 100 99 21
3 98 99 100
3 102 101 6
3 22 103 104
3 22 105 107
3 105 1 106
3 105 106 107
3 108 7 109
3 23 110 111
3 23 112 114
3 112 7 113
3 112 113 114
3 23 22 7
3 24 22 23
3 24 1 22
3 24 15 1
3 25 15 24
3 25 2 15
3 14 25 8
3 26 25 14
3 26 2 25
3 26 9 2
3 19 9 26
3 19 0 9
3 20 115 117
3 117 116 0
3 115 116 117
3 119 118 20
3 121 120 6
3 16 122 124
3 124 123 1
3 122 123 124
3 126 125 16
3 128 127 3
