ply
format ascii 1.0
element vertex 125
property float x
property float y
property float z
element face 111
property list uchar int vertex_index
end_header
-19.035164 72.169449 -20.290688
-19.004997 59.587944 -16.720751
-20.707226 69.244545 -16.264057
-19.313993 66.027023 -18.368132
-17.45681 62.258091 -19.724245
-17.604107 68.542824 -22.009205
-17.197039 74.412445 -24.261696
-19.539656 73.771912 -19.087435
-20.376101 72.277168 -16.960701
-19.926653 70.751328 -18.202469
-20.102865 67.706093 -17.394646
-19.27042 69.214073 -19.315285
-18.490591 67.390282 -20.155788
-18.387766 70.473465 -21.258465
-20.068932 61.410843 -15.863936
-16.635056 63.257915 -21.320906
-21.094313 70.837112 -14.960418
-21.380365 67.823425 -14.510477
-20.864107 66.275253 -15.624177
-20.123369 64.566666 -16.617033
-19.246082 62.691372 -17.414698
-18.269958 61.066505 -18.169508
-18.478825 64.159836 -19.0319
-17.679077 65.507431 -20.735655
-16.795576 66.273018 -22.40317
-18.622671 75.226868 -21.243061
-18.145788 73.387741 -22.273649
-17.506281 71.493088 -23.115316
-19.425235 58.8911 -15.997725
-19.957203 59.802549 -15.569318
-19.536964 60.499393 -16.292344
-18.903844 57.963777 -16.324198
-19.425235 58.8911 -15.997725
-18.491374 58.534073 -16.978899
-18.903844 57.963777 -16.324198
-16.133471 62.127191 -21.556587
-16.243758 63.818677 -22.170057
-18.314488 76.633129 -21.68853
-18.803576 75.99015 -20.545663
-18.136809 75.784393 -22.313431
-18.314488 76.633129 -21.68853
-17.344619 60.631138 -19.217565
-17.751193 60.035345 -18.440196
-17.863384 61.662298 -18.946877
-19.957878 73.02454 -18.024068
-20.132849 73.712418 -17.277816
-19.714627 74.459789 -18.341183
-20.448373 60.717692 -15.155803
-20.467576 62.34931 -15.471482
-20.448373 60.717692 -15.155803
-19.957203 59.802549 -15.569318
-16.490851 61.601671 -20.799419
-16.901729 61.101759 -20.001088
-17.045933 62.758003 -20.522576
-16.490851 61.601671 -20.799419
-16.133471 62.127191 -21.556587
-16.896665 73.284843 -24.582228
-16.691187 74.800656 -25.246257
-20.509827 72.962105 -16.20513
-20.132849 73.712418 -17.277816
-20.868933 72.242076 -15.204989
-20.509827 72.962105 -16.20513
-20.735207 71.55714 -15.96056
-21.221493 71.318295 -14.136043
-20.868933 72.242076 -15.204989
-21.441242 69.849502 -13.973171
-21.221493 71.318295 -14.136043
-21.584268 68.342659 -13.7482
-21.441242 69.849502 -13.973171
-21.237339 69.330269 -14.735447
-21.723625 66.89925 -13.586928
-21.584268 68.342659 -13.7482
-21.476983 66.205521 -14.216408
-21.723625 66.89925 -13.586928
-21.218854 65.431434 -14.773258
-21.476983 66.205521 -14.216408
-21.122236 67.049339 -15.067327
-20.865163 64.781515 -15.351602
-21.218854 65.431434 -14.773258
-20.494794 63.927222 -15.848031
-20.865163 64.781515 -15.351602
-20.493738 65.42096 -16.120605
-20.096151 62.988754 -16.240485
-20.467576 62.34931 -15.471482
-20.494794 63.927222 -15.848031
-16.324018 65.326229 -22.711189
-16.243758 63.818677 -22.170057
-16.715316 64.765467 -21.862038
-19.262069 75.262673 -19.46785
-19.714627 74.459789 -18.341183
-19.081164 74.49939 -20.165248
-19.262069 75.262673 -19.46785
-18.803576 75.99015 -20.545663
-17.898368 74.86483 -22.828725
-18.38423 74.307305 -21.758355
-18.136809 75.784393 -22.313431
-17.423994 75.377182 -23.822748
-17.671413 73.900093 -23.267672
-17.898368 74.86483 -22.828725
-16.920278 75.845646 -24.834215
-17.423994 75.377182 -23.822748
-16.691187 74.800656 -25.246257
-16.920278 75.845646 -24.834215
-18.123855 59.273353 -17.703277
-18.491374 58.534073 -16.978899
-18.637477 60.327224 -17.44513
-18.123855 59.273353 -17.703277
-17.751193 60.035345 -18.440196
-17.344619 60.631138 -19.217565
-16.901729 61.101759 -20.001088
-17.051286 71.825165 -24.009039
-17.35166 72.952766 -23.688506
-16.896665 73.284843 -24.582228
-17.135551 70.411282 -23.39792
-17.051286 71.825165 -24.009039
-17.184464 68.936149 -22.844864
-17.555194 70.017956 -22.562261
-17.135551 70.411282 -23.39792
-16.780199 67.801246 -23.041846
-17.199841 67.407921 -22.206187
-17.184464 68.936149 -22.844864
-16.359773 66.805382 -23.32351
-16.780199 67.801246 -23.041846
-16.324018 65.326229 -22.711189
-16.359773 66.805382 -23.32351
3 0 9 7
3 0 11 9
3 0 13 11
3 1 28 30
3 30 29 14
3 28 29 30
3 1 31 32
3 1 33 34
3 36 35 15
3 2 16 8
3 2 17 16
3 2 18 17
3 3 19 10
3 3 20 19
3 3 22 20
3 5 23 12
3 5 24 23
3 37 25 38
3 40 39 25
3 4 41 43
3 43 42 21
3 41 42 43
3 6 27 26
3 7 44 46
3 44 8 45
3 44 45 46
3 9 8 7
3 9 2 8
3 9 10 2
3 11 10 9
3 11 3 10
3 11 12 3
3 13 12 11
3 13 5 12
3 14 47 48
3 50 49 14
3 15 51 53
3 53 52 4
3 51 52 53
3 55 54 15
3 57 56 6
3 8 58 59
3 16 60 62
3 62 61 8
3 60 61 62
3 16 63 64
3 16 65 66
3 17 67 69
3 69 68 16
3 67 68 69
3 17 70 71
3 17 72 73
3 18 74 76
3 76 75 17
3 74 75 76
3 18 77 78
3 10 18 2
3 19 18 10
3 19 79 81
3 81 80 18
3 79 80 81
3 19 82 84
3 82 14 83
3 82 83 84
3 20 14 19
3 20 1 14
3 20 21 1
3 22 21 20
3 22 4 21
3 12 22 3
3 23 22 12
3 23 4 22
3 23 15 4
3 24 15 23
3 24 85 87
3 87 86 15
3 85 86 87
3 88 7 89
3 25 90 92
3 90 7 91
3 90 91 92
3 25 0 7
3 25 26 0
3 93 26 94
3 95 94 25
3 93 94 95
3 96 6 97
3 98 97 26
3 96 97 98
3 99 6 100
3 102 101 6
3 21 103 105
3 105 104 1
3 103 104 105
3 107 106 21
3 109 108 4
3 26 13 0
3 27 13 26
3 27 5 13
3 110 27 111
3 112 111 6
3 110 111 112
3 113 27 114
3 115 5 116
3 117 116 27
3 115 116 117
3 118 24 119
3 120 119 5
3 118 119 120
3 121 24 122
3 124 123 24
