ply
format ascii 1.0
element vertex 278
property float x
property float y
property float z
element face 277
property list uchar int vertex_index
end_header
-33.795647 56.244007 -41.198788
-33.341354 75.063507 -37.426144
-27.055216 100.734612 -22.803242
-30.697407 90.228012 -31.624605
-28.706581 86.888481 -42.093388
-28.902172 96.306625 -27.53759
-28.199165 95.342072 -33.6035
-29.904785 89.053482 -37.215813
-26.991142 93.517403 -39.120998
-32.42952 63.566265 -43.809952
-35.321484 58.492195 -36.699036
-34.001522 65.843948 -39.480652
-32.269669 72.866165 -42.119499
-29.43395 96.069962 -20.741846
-31.039124 90.894226 -25.287542
-32.598289 84.309639 -28.890684
-32.133373 83.3592 -34.851295
-31.384478 81.168968 -40.056366
-25.562683 90.640617 -43.494026
-27.228264 98.114716 -31.419777
-26.630388 97.501846 -34.455513
-27.635059 94.608315 -36.446823
-25.975426 96.5373 -37.254829
-35.966171 54.620663 -34.937447
-34.151325 71.680458 -36.113361
-34.518795 66.985619 -37.162266
-33.681412 70.661423 -38.744751
-33.156902 69.159531 -41.030712
-32.859203 74.029388 -39.906822
-28.267782 98.697502 -21.573591
-29.850863 93.454826 -29.419441
-30.048615 93.733665 -26.372389
-30.907759 90.682816 -28.455841
-31.899035 87.508064 -27.225965
-31.665115 87.548599 -30.278858
-32.454483 83.789116 -31.878056
-31.489246 86.859924 -33.18557
-29.418186 87.949234 -39.762043
-30.698605 85.154221 -38.842518
-30.142876 84.170174 -41.155159
-30.755745 80.010902 -42.406883
-29.452816 82.9328 -43.336586
-24.555365 93.867325 -41.886459
-23.506897 92.304016 -43.93277
-34.353283 52.212273 -39.777328
-33.704193 75.948235 -34.729973
-26.589895 100.807762 -26.142269
-28.041761 98.617287 -25.154776
-27.64246 98.558647 -28.34086
-28.647842 95.876663 -30.518625
-29.588701 92.863602 -32.506279
-30.313948 89.881638 -34.451759
-29.112518 92.387794 -35.36607
-28.527514 91.650818 -38.057587
-28.03425 90.255226 -40.537834
-33.133934 59.662987 -42.609592
-35.222416 53.224716 -37.526497
-34.615643 57.237495 -39.110779
-35.25922 63.284641 -35.534424
-34.696388 62.077545 -38.153152
-33.958977 61.173302 -40.554428
-33.265236 64.722099 -41.82132
-32.374424 68.388268 -43.19455
-29.216799 96.265114 -24.221106
-30.211882 93.756058 -23.0026
-31.145891 90.801819 -21.978172
-31.933914 87.771843 -24.080988
-33.326473 80.520325 -30.377703
-33.114132 79.918732 -33.483505
-32.779079 79.39679 -36.185535
-31.070963 86.431595 -36.045578
-31.785322 82.527405 -37.48278
-32.404797 78.361816 -38.746632
-31.910189 77.132614 -41.122429
-31.255253 75.833107 -43.312508
-25.256083 95.369896 -39.691845
-26.362024 92.229599 -41.334232
-27.189426 88.999664 -42.853165
-24.546358 88.903976 -45.449787
-26.350424 87.074554 -45.037495
-27.971298 85.25827 -44.24707
-25.77959 98.346962 -34.809267
-26.126921 98.763199 -33.306582
-25.452109 97.864689 -36.208925
-26.302907 97.019573 -35.855171
-25.77959 98.346962 -34.809267
-26.579391 101.583485 -21.36113
-26.341739 101.673459 -23.11113
-27.216915 100.638157 -21.052613
-26.579391 101.583485 -21.36113
-27.661499 99.716057 -22.188417
-27.823197 99.619602 -20.437787
-27.216915 100.638157 -21.052613
-22.419849 92.883163 -44.076842
-22.909141 93.834805 -43.094309
-33.577715 53.639916 -41.482253
-33.856533 51.624049 -40.771523
-34.074465 54.22814 -40.488058
-33.837566 76.229256 -33.334533
-34.106378 74.169014 -34.029875
-26.390439 100.661625 -27.630706
-25.781095 101.742618 -26.408068
-26.916722 99.537068 -28.730002
-27.116177 99.683204 -27.241564
-26.390439 100.661625 -27.630706
-32.303383 61.044863 -44.110779
-32.65559 59.093224 -43.510599
-32.781727 61.614626 -43.209772
-35.088211 65.724112 -35.042679
-35.451346 63.773363 -34.257174
-31.873771 72.214859 -43.196546
-31.926148 69.97591 -43.734072
-32.322046 70.627217 -42.657024
-29.506032 95.890629 -18.978393
-28.989573 97.179905 -19.526414
-29.930408 94.651429 -20.119114
-29.506032 95.890629 -18.978393
-32.667797 84.312657 -27.372822
-32.31817 85.911869 -26.540463
-32.248662 85.908851 -28.058324
-33.032882 82.529373 -28.170968
-32.667797 84.312657 -27.372822
-32.962381 82.414982 -29.634194
-33.396974 80.634716 -28.914478
-33.032882 82.529373 -28.170968
-30.635662 77.275463 -43.882679
-31.005499 77.922004 -42.859696
-30.385908 79.364361 -43.429867
-30.845712 75.081585 -44.322529
-30.635662 77.275463 -43.882679
-24.25293 96.146744 -39.900978
-24.697058 96.780075 -38.721458
-24.034308 87.885468 -46.29208
-23.488394 89.594662 -45.632414
-26.778258 85.187671 -45.584225
-25.893472 86.115688 -45.915977
-27.588696 84.279529 -45.189013
-27.160861 86.166412 -44.642283
-26.778258 85.187671 -45.584225
-28.336596 83.292046 -44.768145
-27.588696 84.279529 -45.189013
-26.425859 99.069634 -31.788714
-26.709623 99.315102 -30.26946
-26.929326 97.808281 -32.937645
-26.425859 99.069634 -31.788714
-26.126921 98.763199 -33.306582
-31.917246 62.696844 -44.740233
-32.003681 65.105196 -44.427733
-36.2377 55.110914 -33.656662
-36.23041 52.535607 -34.154385
-35.935941 57.086916 -34.452856
-36.2377 55.110914 -33.656662
-35.613598 59.022682 -35.333651
-35.643828 56.556429 -35.818241
-35.935941 57.086916 -34.452856
-34.33506 69.333039 -36.637814
-34.717999 67.574601 -35.8566
-34.534264 69.92202 -35.332147
-28.406489 98.493675 -19.942287
-27.823197 99.619602 -20.437787
-28.850866 97.383732 -21.157719
-28.989573 97.179905 -19.526414
-28.406489 98.493675 -19.942287
-29.734443 80.82531 -43.894718
-30.385908 79.364361 -43.429867
-30.104281 81.471851 -42.871735
-23.433375 94.616459 -42.071154
-23.902571 95.395458 -40.998285
-24.031131 93.08567 -42.909615
-23.433375 94.616459 -42.071154
-22.909141 93.834805 -43.094309
-34.106491 49.749842 -40.05079
-34.61358 50.172359 -38.996426
-34.106491 49.749842 -40.05079
-33.856533 51.624049 -40.771523
-34.329944 72.035125 -34.721569
-34.534264 69.92202 -35.332147
-33.927759 73.814346 -35.421667
-34.329944 72.035125 -34.721569
-34.106378 74.169014 -34.029875
-26.109078 101.710034 -24.780644
-25.781095 101.742618 -26.408068
-26.822555 100.771187 -24.472755
-26.341739 101.673459 -23.11113
-26.109078 101.710034 -24.780644
-27.435362 98.336681 -29.880319
-26.916722 99.537068 -28.730002
-26.709623 99.315102 -30.26946
-32.98515 57.190722 -42.844169
-33.316006 55.481232 -42.138768
-33.464791 57.953497 -41.90419
-32.98515 57.190722 -42.844169
-32.65559 59.093224 -43.510599
-32.303383 61.044863 -44.110779
-31.917246 62.696844 -44.740233
-35.860363 52.004559 -35.424768
-36.23041 52.535607 -34.154385
-35.488486 51.306585 -36.719293
-35.860363 52.004559 -35.424768
-35.594294 53.92269 -36.231972
-35.048147 50.678581 -37.87101
-35.488486 51.306585 -36.719293
-34.78785 52.718495 -38.651912
-34.61358 50.172359 -38.996426
-35.048147 50.678581 -37.87101
-35.582466 61.418905 -34.751345
-35.451346 63.773363 -34.257174
-35.290352 60.888418 -36.11673
-35.613598 59.022682 -35.333651
-35.582466 61.418905 -34.751345
-34.889007 65.13513 -36.348345
-35.088211 65.724112 -35.042679
-34.717999 67.574601 -35.8566
-31.976132 67.516198 -44.120031
-32.003681 65.105196 -44.427733
-32.401972 65.977266 -43.502251
-31.976132 67.516198 -44.120031
-31.926148 69.97591 -43.734072
-30.319375 93.494476 -21.249491
-29.930408 94.651429 -20.119114
-29.822916 94.91301 -21.872223
-30.786379 92.017357 -20.737277
-30.319375 93.494476 -21.249491
-30.678886 92.278938 -22.490386
-31.190549 90.596081 -20.21709
-30.786379 92.017357 -20.737277
-31.563635 89.20647 -21.265723
-31.190549 90.596081 -20.21709
-31.957647 87.691483 -22.317131
-31.563635 89.20647 -21.265723
-31.539903 89.286831 -23.02958
-32.339889 86.109493 -23.313164
-31.957647 87.691483 -22.317131
-32.33561 86.043758 -24.967975
-31.916474 87.639954 -25.653477
-32.31817 85.911869 -26.540463
-32.339889 86.109493 -23.313164
-32.33561 86.043758 -24.967975
-33.729833 78.784336 -29.61562
-33.396974 80.634716 -28.914478
-33.648707 78.515301 -31.158398
-33.729833 78.784336 -29.61562
-33.542536 78.214505 -32.711299
-33.648707 78.515301 -31.158398
-33.220303 80.219528 -31.930604
-33.409162 77.933483 -34.106739
-33.837566 76.229256 -33.334533
-33.542536 78.214505 -32.711299
-31.366563 73.69833 -43.793051
-31.873771 72.214859 -43.196546
-31.762461 74.349636 -42.716003
-31.366563 73.69833 -43.793051
-30.845712 75.081585 -44.322529
-25.056729 97.363777 -37.50295
-25.452109 97.864689 -36.208925
-25.615755 95.953598 -38.473337
-25.056729 97.363777 -37.50295
-24.697058 96.780075 -38.721458
-24.905724 94.61861 -40.789152
-24.25293 96.146744 -39.900978
-23.902571 95.395458 -40.998285
-22.968664 91.294681 -44.873905
-22.419849 92.883163 -44.076842
-24.026628 90.603996 -44.691278
-22.968664 91.294681 -44.873905
-23.488394 89.594662 -45.632414
-24.991439 87.030399 -46.122124
-24.034308 87.885468 -46.29208
-25.448391 87.989265 -45.243641
-24.991439 87.030399 -46.122124
-25.893472 86.115688 -45.915977
-29.077354 82.129311 -44.312902
-28.712057 84.095535 -43.791828
-28.336596 83.292046 -44.768145
-29.734443 80.82531 -43.894718
-29.077354 82.129311 -44.312902
-33.577715 53.639916 -41.482253
-33.316006 55.481232 -42.138768
3 81 20 82
3 83 22 84
3 85 84 20
3 83 84 85
3 1 26 24
3 1 28 26
3 2 86 87
3 2 88 89
3 2 90 92
3 90 29 91
3 90 91 92
3 3 32 30
3 3 34 32
3 3 36 34
3 4 39 37
3 4 41 39
3 93 43 94
3 0 95 97
3 97 96 44
3 95 96 97
3 98 45 99
3 100 46 101
3 102 48 103
3 104 103 46
3 102 103 104
3 6 49 19
3 6 50 49
3 6 52 50
3 8 53 21
3 8 54 53
3 9 105 107
3 107 106 55
3 105 106 107
3 10 56 23
3 10 57 56
3 108 58 109
3 11 59 25
3 11 60 59
3 11 61 60
3 12 62 27
3 12 110 112
3 112 111 62
3 110 111 112
3 13 113 114
3 13 115 116
3 5 63 47
3 14 64 31
3 14 65 64
3 14 66 65
3 15 117 119
3 119 118 33
3 117 118 119
3 15 120 121
3 15 122 124
3 122 67 123
3 122 123 124
3 16 68 35
3 16 69 68
3 7 70 51
3 17 71 38
3 17 72 71
3 17 73 72
3 125 74 126
3 127 126 40
3 125 126 127
3 129 128 74
3 130 75 131
3 18 76 42
3 18 77 76
3 132 78 133
3 134 79 135
3 136 80 137
3 138 137 79
3 136 137 138
3 140 139 80
3 141 19 142
3 20 143 145
3 143 19 144
3 143 144 145
3 20 6 19
3 20 21 6
3 22 21 20
3 22 8 21
3 147 146 9
3 148 23 149
3 150 23 151
3 152 10 153
3 154 153 23
3 152 153 154
3 24 155 157
3 155 25 156
3 155 156 157
3 26 25 24
3 26 11 25
3 26 27 11
3 28 27 26
3 28 12 27
3 29 158 159
3 29 160 162
3 160 13 161
3 160 161 162
3 30 31 5
3 32 31 30
3 32 14 31
3 32 33 14
3 34 33 32
3 34 15 33
3 34 35 15
3 36 35 34
3 36 16 35
3 37 38 7
3 39 38 37
3 39 17 38
3 39 40 17
3 41 40 39
3 41 163 165
3 165 164 40
3 163 164 165
3 166 42 167
3 43 168 170
3 168 42 169
3 168 169 170
3 43 18 42
3 44 171 172
3 174 173 44
3 175 24 176
3 45 177 179
3 177 24 178
3 177 178 179
3 45 1 24
3 46 180 181
3 46 182 184
3 182 2 183
3 182 183 184
3 46 47 2
3 48 47 46
3 48 5 47
3 19 185 187
3 185 48 186
3 185 186 187
3 49 48 19
3 49 5 48
3 49 30 5
3 50 30 49
3 50 3 30
3 50 51 3
3 52 51 50
3 52 7 51
3 21 52 6
3 53 52 21
3 53 7 52
3 53 37 7
3 54 37 53
3 54 4 37
3 55 188 190
3 190 189 0
3 188 189 190
3 192 191 55
3 194 193 9
3 23 195 196
3 56 197 199
3 199 198 23
3 197 198 199
3 56 200 201
3 56 202 204
3 202 44 203
3 202 203 204
3 57 44 56
3 57 0 44
3 58 205 206
3 58 207 209
3 207 10 208
3 207 208 209
3 25 210 212
3 210 58 211
3 210 211 212
3 59 58 25
3 59 10 58
3 59 57 10
3 60 57 59
3 60 0 57
3 60 55 0
3 61 55 60
3 61 9 55
3 27 61 11
3 62 61 27
3 62 9 61
3 62 213 215
3 215 214 9
3 213 214 215
3 217 216 62
3 47 29 2
3 63 29 47
3 63 13 29
3 31 63 5
3 64 63 31
3 64 13 63
3 64 218 220
3 220 219 13
3 218 219 220
3 65 221 223
3 223 222 64
3 221 222 223
3 65 224 225
3 65 226 227
3 66 228 230
3 230 229 65
3 228 229 230
3 66 231 232
3 33 66 14
3 233 66 234
3 235 234 33
3 233 234 235
3 237 236 66
3 67 238 239
3 67 240 241
3 35 67 15
3 68 67 35
3 68 242 244
3 244 243 67
3 242 243 244
3 68 245 247
3 245 45 246
3 245 246 247
3 69 45 68
3 69 1 45
3 51 36 3
3 70 36 51
3 70 16 36
3 38 70 7
3 71 70 38
3 71 16 70
3 71 69 16
3 72 69 71
3 72 1 69
3 72 28 1
3 73 28 72
3 73 12 28
3 40 73 17
3 74 73 40
3 74 12 73
3 74 248 250
3 250 249 12
3 248 249 250
3 252 251 74
3 253 22 254
3 75 255 257
3 255 22 256
3 255 256 257
3 75 8 22
3 42 258 260
3 258 75 259
3 258 259 260
3 76 75 42
3 76 8 75
3 76 54 8
3 77 54 76
3 77 4 54
3 261 43 262
3 78 263 265
3 263 43 264
3 263 264 265
3 78 18 43
3 266 78 267
3 79 268 270
3 268 78 269
3 268 269 270
3 79 18 78
3 79 77 18
3 80 77 79
3 80 4 77
3 80 41 4
3 271 41 272
3 273 272 80
3 271 272 273
3 275 274 41
3 277 276 0
