ply
format ascii 1.0
element vertex 314
property float x
property float y
property float z
element face 336
property list uchar int vertex_index
end_header
-13.444104 -5.583815 53.716228
-15.77923 2.084874 49.641827
-5.975513 -8.720084 60.081825
-17.074604 -9.923631 50.445908
-2.355528 -16.310614 63.068176
-10.279991 -13.33072 57.117859
-15.32816 -7.635264 52.20636
-18.472258 -5.743446 48.670406
-16.645546 -3.842841 50.318901
0.05856 -13.699946 64.465988
-9.762907 -7.400892 57.115112
-8.182179 -11.029363 58.768543
-11.818105 -9.552151 55.685341
-13.818842 -11.541497 53.866314
-11.323769 -3.57171 55.115421
-14.752297 -1.705901 51.677036
-12.669014 0.138696 53.031136
-1.946435 -9.957125 62.864754
-7.866665 -5.064725 58.086605
-17.736687 0.138093 48.252892
-4.608126 -18.862267 61.311089
-4.096773 -12.471462 61.771294
-6.380361 -14.853403 60.241791
-8.608837 -17.311333 58.185379
-12.207928 -15.780277 54.97765
-15.574081 -13.885017 51.661964
-14.325812 -6.734282 53.080093
-16.005411 -5.740169 51.287971
-15.091003 -4.616881 52.005634
-11.630713 -6.550906 55.46246
-10.886035 -8.411018 56.358734
-12.593658 -7.5484 54.783222
-13.536139 -8.693867 54.050419
-10.405881 -2.540227 55.596947
-12.010093 -1.790518 54.109943
-11.135343 -0.755233 54.55159
-8.701756 -3.34232 57.087959
-9.624403 -4.352509 56.632038
-17.99966 -10.857734 49.30534
-18.710043 -8.86497 48.588909
-19.10976 -3.848452 47.688995
-15.28154 0.109823 50.686665
-16.305601 -0.955155 49.995094
-16.738691 1.10573 48.987228
-1.310424 -18.294603 63.722385
-2.603709 -19.647612 62.730942
-3.367976 -17.650076 62.337585
-3.986542 -9.373013 61.497089
-2.880992 -11.201332 62.43573
-4.990967 -10.626152 60.999325
-9.206841 -12.264906 58.029545
-7.306658 -12.920019 59.532433
-8.319482 -14.156042 58.74173
-7.414637 -16.145144 59.358921
-9.389677 -15.330118 57.757591
-10.492409 -16.529173 56.557407
-11.298416 -14.481406 56.098488
-15.46633 -10.773527 52.182983
-14.723811 -12.738173 52.822937
-16.432583 -11.908026 51.018505
-17.211483 -13.021854 49.894863
-16.198978 -8.767027 51.388569
-17.85651 -7.806304 49.537407
-16.996922 -6.727878 50.384911
-17.63125 -4.712039 49.441284
-18.20281 -2.777744 48.477234
-17.212681 3.177841 47.905334
-1.035664 -15.101476 63.886333
-7.871964 -8.063481 58.645023
-7.026975 -9.891636 59.506657
-8.964153 -9.139044 57.982838
-9.976187 -10.288774 57.300949
-11.037487 -11.319578 56.466217
-12.117716 -12.490448 55.484058
-12.820098 -10.621434 54.838493
-14.546019 -9.623602 53.131271
-12.357462 -4.62617 54.486282
-14.064338 -3.649436 52.774223
-13.070747 -2.670513 53.43079
-13.638837 -0.7873 52.441849
-14.305622 1.174721 51.288788
0.253382 -10.444942 64.251869
-0.784424 -8.702324 63.388729
-2.864041 -8.157091 62.022125
-4.921658 -7.667364 60.61483
-5.926497 -5.809462 59.590603
-7.012122 -6.911443 59.06052
-8.805903 -6.194323 57.630947
-10.582122 -5.531173 56.133087
-15.615915 -2.798885 51.125626
-17.272726 -1.824614 49.241806
-18.785587 -0.732902 47.37748
-18.234335 2.128755 47.161575
-19.265511 1.121618 46.355354
-20.238674 0.13413 45.554272
-0.792782 -11.798322 63.787647
-1.996694 -13.088625 63.169727
-3.126308 -14.31417 62.520771
-6.181719 -11.819803 60.295216
-5.245758 -13.76646 61.060059
-4.34127 -15.598263 61.715309
-5.450345 -16.851803 60.853302
-6.69507 -18.20665 59.711975
-7.64158 -19.407505 58.645039
-13.032259 -13.651428 54.489845
-13.906028 -14.769119 53.368004
-10.288507 -1.18943 55.328254
-10.770612 -1.64773 55.074269
-9.923776 -2.081927 55.850933
-9.071713 -2.482973 56.596439
-8.231359 -2.809246 57.297918
-9.923776 -2.081927 55.850933
-9.553819 -2.941273 56.342453
-9.071713 -2.482973 56.596439
-19.876318 -3.358774 46.735172
-19.418975 -2.821024 47.142297
-1.832976 -17.302608 63.39528
-0.683033 -17.686059 64.133596
-1.205585 -16.694064 63.806492
0.598794 -14.652908 64.842655
1.203566 -13.9513 65.146023
-0.488552 -14.400711 64.17616
0.051682 -15.353673 64.552828
0.598794 -14.652908 64.842655
-0.362077 -7.878132 63.503084
0.28413 -8.81286 64.033636
-3.405545 -7.228399 61.508642
-2.397876 -7.490295 62.195345
-4.434354 -6.983536 60.804994
-3.892849 -7.912228 61.318478
-3.405545 -7.228399 61.508642
-6.896581 -5.437093 58.838604
-6.428469 -4.878904 59.04422
-7.398553 -4.506536 58.292221
-18.958809 -6.270889 48.171983
-18.650935 -7.302318 48.605484
-18.164384 -6.774875 49.103907
-18.448735 3.14598 46.636723
-17.723508 2.653298 47.533455
-17.937908 3.670523 47.008602
-19.984092 1.647422 45.410692
-19.497327 2.129094 45.80961
-20.470674 1.153678 45.010151
-19.752092 0.627874 45.954813
-19.984092 1.647422 45.410692
-21.207267 1.654805 44.03937
-20.975268 0.635257 44.58349
-20.470674 1.153678 45.010151
-4.189594 -19.976284 61.475834
-3.187385 -20.368956 62.185761
-3.605918 -19.254939 62.021016
-5.169946 -19.532327 60.743012
-4.189594 -19.976284 61.475834
-9.085536 -17.93556 57.596994
-8.601907 -18.983646 57.826825
-8.125208 -18.359419 58.415209
-11.783414 -16.804066 55.168518
-10.925655 -17.178514 55.958396
-11.350169 -16.154725 55.767528
-12.648004 -16.319254 54.360205
-11.783414 -16.804066 55.168518
-15.126677 -14.929956 51.914165
-14.292651 -15.372007 52.767185
-14.740054 -14.327068 52.514984
-15.976679 -14.494305 51.014581
-15.126677 -14.929956 51.914165
-17.631767 -13.590342 49.223526
-17.984511 -12.551193 49.039526
0.697684 -13.017922 64.779838
1.203566 -13.9513 65.146023
-7.816098 -3.645333 57.792898
-8.231359 -2.809246 57.297918
-8.284211 -4.203523 57.587282
-7.398553 -4.506536 58.292221
-7.816098 -3.645333 57.792898
-18.804014 -10.483788 48.370077
-19.182954 -11.095187 47.809502
-18.3786 -11.469133 48.744765
-19.159205 -9.487405 48.011862
-18.804014 -10.483788 48.370077
-18.354851 -9.861352 48.947125
-19.44729 -8.447669 47.717375
-19.159205 -9.487405 48.011862
-19.544237 -4.379938 47.278689
-19.225486 -5.327435 47.769394
-18.791009 -4.795949 48.1797
-19.544237 -4.379938 47.278689
-19.876318 -3.358774 46.735172
-0.297141 -18.645781 64.365068
-0.683033 -17.686059 64.133596
-0.938315 -19.358518 63.910165
-0.297141 -18.645781 64.365068
-1.957066 -18.971107 63.226664
-1.584957 -20.035023 63.414444
-0.938315 -19.358518 63.910165
-18.3786 -11.469133 48.744765
-17.984511 -12.551193 49.039526
-17.605571 -11.939794 49.600102
-18.965499 -2.28567 47.536417
-19.418975 -2.821024 47.142297
-18.656285 -3.313098 48.083115
-16.715547 3.649319 48.268623
-16.495956 2.631358 48.773581
-15.998822 3.102836 49.13687
-17.483255 4.232019 47.327287
-16.715547 3.649319 48.268623
-18.208481 4.724702 46.430555
-17.937908 3.670523 47.008602
-17.483255 4.232019 47.327287
-0.545652 -16.089495 64.21557
0.051682 -15.353673 64.552828
-1.695596 -15.706045 63.477255
-1.205585 -16.694064 63.806492
-0.545652 -16.089495 64.21557
-10.569046 -0.265967 54.868931
-10.288507 -1.18943 55.328254
-11.375334 0.192393 54.096175
-10.569046 -0.265967 54.868931
-12.14217 0.639357 53.335948
-11.902179 -0.308269 53.791363
-11.375334 0.192393 54.096175
-12.925144 1.110659 52.535792
-12.14217 0.639357 53.335948
-13.743447 1.628672 51.664617
-13.487318 0.656708 52.159962
-12.925144 1.110659 52.535792
-14.527373 2.112545 50.816269
-13.743447 1.628672 51.664617
-15.264177 2.567622 49.992789
-15.042426 1.629798 50.465307
-14.527373 2.112545 50.816269
-15.483769 3.585584 49.487831
-15.998822 3.102836 49.13687
-15.264177 2.567622 49.992789
0.803033 -9.684169 64.465206
1.348838 -10.622997 64.902111
-0.265521 -9.573633 63.820299
0.803033 -9.684169 64.465206
0.28413 -8.81286 64.033636
-1.358068 -7.762912 62.878647
-0.362077 -7.878132 63.503084
-0.935721 -6.938719 62.993002
-1.824232 -8.429707 62.705427
-1.358068 -7.762912 62.878647
-2.397876 -7.490295 62.195345
-5.4544 -5.144037 59.763762
-6.428469 -4.878904 59.04422
-4.936773 -6.054584 60.292881
-5.4544 -5.144037 59.763762
-5.424078 -6.738413 60.102716
-4.434354 -6.983536 60.804994
-4.936773 -6.054584 60.292881
-19.077701 -7.831651 48.131235
-18.283276 -8.335637 49.063158
-18.650935 -7.302318 48.605484
-19.44729 -8.447669 47.717375
-19.077701 -7.831651 48.131235
-18.958809 -6.270889 48.171983
-19.225486 -5.327435 47.769394
-19.256888 -1.263249 46.98654
-18.965499 -2.28567 47.536417
-18.494198 -1.755323 47.927357
-18.981739 2.632663 46.212721
-18.448735 3.14598 46.636723
-18.749923 1.625186 46.758465
-18.981739 2.632663 46.212721
-19.497327 2.129094 45.80961
-19.983432 -0.829733 46.074936
-19.256888 -1.263249 46.98654
-19.51213 -0.299386 46.465876
-20.736019 -0.300902 45.100583
-19.983432 -0.829733 46.074936
-20.736019 -0.300902 45.100583
-20.975268 0.635257 44.58349
-2.171364 -20.698467 62.921526
-1.584957 -20.035023 63.414444
-2.171364 -20.698467 62.921526
-3.187385 -20.368956 62.185761
0.795095 -11.39042 64.672779
1.348838 -10.622997 64.902111
0.272013 -12.06711 64.440668
0.795095 -11.39042 64.672779
-0.2697 -11.121632 64.019758
-0.367111 -12.749134 64.126818
0.697684 -13.017922 64.779838
0.272013 -12.06711 64.440668
-6.213418 -19.204518 59.943455
-5.169946 -19.532327 60.743012
-5.651598 -18.534458 60.511532
-6.686673 -19.804946 59.409987
-6.213418 -19.204518 59.943455
-7.168325 -18.807077 59.178507
-7.289002 -20.416065 58.708764
-6.686673 -19.804946 59.409987
-8.218466 -19.974678 57.922938
-7.865889 -20.983238 57.986662
-7.289002 -20.416065 58.708764
-8.218466 -19.974678 57.922938
-8.601907 -18.983646 57.826825
-10.027322 -17.54448 56.783008
-9.085536 -17.93556 57.596994
-9.550623 -16.920253 57.371393
-10.027322 -17.54448 56.783008
-10.925655 -17.178514 55.958396
-13.497054 -15.813675 53.555382
-12.648004 -16.319254 54.360205
-13.056978 -15.274698 54.172827
-13.497054 -15.813675 53.555382
-14.292651 -15.372007 52.767185
-16.795381 -14.062724 50.131031
-15.976679 -14.494305 51.014581
-16.392782 -13.453435 50.778413
-16.795381 -14.062724 50.131031
-17.631767 -13.590342 49.223526
3 0 28 26
3 0 31 29
3 0 26 31
3 106 35 107
3 108 107 33
3 106 107 108
3 109 36 110
3 111 33 112
3 113 112 36
3 111 112 113
3 3 39 38
3 115 114 40
3 1 43 41
3 4 116 118
3 116 44 117
3 116 117 118
3 4 46 44
3 2 49 47
3 5 52 50
3 5 54 52
3 5 56 54
3 3 59 57
3 3 38 59
3 6 63 61
3 8 64 27
3 8 65 64
3 9 119 120
3 9 121 123
3 121 67 122
3 121 122 123
3 10 70 68
3 12 71 30
3 12 72 71
3 12 74 72
3 6 75 32
3 6 61 75
3 14 78 76
3 16 79 34
3 16 80 79
3 124 82 125
3 126 83 127
3 128 84 129
3 130 129 83
3 128 129 130
3 18 131 133
3 131 85 132
3 131 132 133
3 18 86 85
3 18 87 86
3 14 88 37
3 14 76 88
3 7 134 136
3 136 135 62
3 134 135 136
3 15 89 77
3 19 90 42
3 19 91 90
3 137 92 138
3 139 138 66
3 137 138 139
3 140 93 141
3 142 94 143
3 144 143 93
3 142 143 144
3 147 146 94
3 145 146 147
3 20 148 150
3 150 149 45
3 148 149 150
3 20 151 152
3 17 95 81
3 21 96 48
3 21 97 96
3 11 98 69
3 22 99 51
3 22 100 99
3 22 101 100
3 23 102 53
3 23 103 102
3 23 153 155
3 155 154 103
3 153 154 155
3 24 156 158
3 158 157 55
3 156 157 158
3 24 159 160
3 13 104 73
3 25 105 58
3 25 161 163
3 163 162 105
3 161 162 163
3 25 164 165
3 167 166 60
3 26 27 6
3 28 27 26
3 28 8 27
3 168 9 169
3 29 30 10
3 31 30 29
3 31 12 30
3 31 32 12
3 26 32 31
3 26 6 32
3 33 34 14
3 35 34 33
3 35 16 34
3 36 170 171
3 36 172 174
3 172 18 173
3 172 173 174
3 36 37 18
3 33 37 36
3 33 14 37
3 38 175 177
3 175 176 177
3 39 178 180
3 180 179 38
3 178 179 180
3 39 181 182
3 40 183 185
3 185 184 7
3 183 184 185
3 187 186 40
3 41 42 15
3 43 42 41
3 43 19 42
3 44 188 189
3 44 190 191
3 44 192 194
3 192 45 193
3 192 193 194
3 46 45 44
3 46 20 45
3 47 48 17
3 49 48 47
3 49 21 48
3 50 51 11
3 52 51 50
3 52 22 51
3 52 53 22
3 54 53 52
3 54 23 53
3 54 55 23
3 56 55 54
3 56 24 55
3 57 58 13
3 59 58 57
3 59 25 58
3 59 60 25
3 38 60 59
3 38 195 197
3 197 196 60
3 195 196 197
3 61 62 3
3 63 62 61
3 63 7 62
3 27 63 6
3 64 63 27
3 64 7 63
3 64 40 7
3 65 40 64
3 65 198 200
3 200 199 40
3 198 199 200
3 201 66 202
3 203 202 1
3 201 202 203
3 204 66 205
3 208 207 66
3 206 207 208
3 67 209 210
3 67 211 213
3 211 4 212
3 211 212 213
3 68 69 2
3 70 69 68
3 70 11 69
3 30 70 10
3 71 70 30
3 71 11 70
3 71 50 11
3 72 50 71
3 72 5 50
3 72 73 5
3 74 73 72
3 74 13 73
3 32 74 12
3 75 74 32
3 75 13 74
3 75 57 13
3 61 57 75
3 61 3 57
3 76 77 0
3 78 77 76
3 78 15 77
3 34 78 14
3 79 78 34
3 79 15 78
3 79 41 15
3 80 41 79
3 80 1 41
3 214 35 215
3 216 35 217
3 218 16 219
3 220 219 35
3 218 219 220
3 221 16 222
3 223 80 224
3 225 224 16
3 223 224 225
3 226 80 227
3 228 1 229
3 230 229 80
3 228 229 230
3 233 232 1
3 231 232 233
3 234 81 235
3 82 236 238
3 236 81 237
3 236 237 238
3 82 17 81
3 239 82 240
3 239 240 241
3 83 242 244
3 242 82 243
3 242 243 244
3 83 17 82
3 83 47 17
3 84 47 83
3 84 2 47
3 85 245 246
3 85 247 248
3 85 249 251
3 249 84 250
3 249 250 251
3 86 84 85
3 86 2 84
3 86 68 2
3 87 68 86
3 87 10 68
3 37 87 18
3 88 87 37
3 88 10 87
3 88 29 10
3 76 29 88
3 76 0 29
3 62 39 3
3 252 39 253
3 254 253 62
3 252 253 254
3 256 255 39
3 258 257 7
3 77 28 0
3 89 28 77
3 89 8 28
3 42 89 15
3 90 89 42
3 90 8 89
3 90 65 8
3 91 65 90
3 91 259 261
3 261 260 65
3 259 260 261
3 66 43 1
3 92 43 66
3 92 19 43
3 262 92 263
3 93 264 266
3 264 92 265
3 264 265 266
3 93 19 92
3 93 91 19
3 94 91 93
3 94 267 269
3 269 268 91
3 267 268 269
3 94 270 271
3 273 272 94
3 45 274 275
3 277 276 45
3 81 278 279
3 95 280 282
3 282 281 81
3 280 281 282
3 95 283 285
3 283 9 284
3 283 284 285
3 48 95 17
3 96 95 48
3 96 9 95
3 96 67 9
3 97 67 96
3 97 4 67
3 69 49 2
3 98 49 69
3 98 21 49
3 51 98 11
3 99 98 51
3 99 21 98
3 99 97 21
3 100 97 99
3 100 4 97
3 100 46 4
3 101 46 100
3 101 20 46
3 53 101 22
3 102 101 53
3 102 20 101
3 102 286 288
3 288 287 20
3 286 287 288
3 103 289 291
3 291 290 102
3 289 290 291
3 103 292 293
3 103 294 296
3 294 295 296
3 298 297 103
3 55 299 301
3 301 300 23
3 299 300 301
3 303 302 55
3 73 56 5
3 104 56 73
3 104 24 56
3 58 104 13
3 105 104 58
3 105 24 104
3 105 304 306
3 306 305 24
3 304 305 306
3 308 307 105
3 60 309 311
3 311 310 25
3 309 310 311
3 313 312 60
