ply
format ascii 1.0
element vertex 192
property float x
property float y
property float z
element face 189
property list uchar int vertex_index
end_header
35.163773 -2.41998 29.430571
30.56296 -9.387258 35.340546
35.711483 -11.526642 29.877764
31.203585 -18.454273 34.113094
30.888863 -13.904076 34.95116
35.900154 -16.097446 29.384453
33.062653 -5.829531 32.589104
35.4506 -6.958923 29.90601
33.329311 -10.23651 32.731285
33.569839 -14.934897 32.386402
33.812996 -19.507479 31.507029
32.472393 -1.566561 32.328152
30.130564 -5.0619 35.355946
31.874191 -7.457372 34.003571
33.250893 -7.997907 32.660397
32.02327 -9.824326 34.018089
31.031517 -16.279995 34.585114
32.379368 -14.357775 33.605843
32.375004 -16.629536 33.380451
33.687405 -17.188047 32.019676
32.514622 -19.030685 32.878071
31.156809 -1.140516 33.567726
31.30061 -3.248356 33.918514
29.879456 -3.058725 35.246525
35.637115 -9.295837 29.880209
36.559643 -7.509757 28.308546
36.643063 -9.892589 28.357651
29.220163 -11.233628 36.473385
30.73094 -11.555617 35.202072
29.424324 -13.47924 36.167625
29.609602 -15.763147 35.773792
35.812717 -13.92781 29.690279
36.688583 -12.252232 28.324415
36.786762 -14.438566 28.057789
34.100128 -4.084949 31.117119
35.333397 -4.560281 29.682201
34.364891 -6.276489 31.193306
34.444695 -8.590429 31.368855
34.511032 -10.859467 31.429171
32.192974 -12.173218 33.87899
33.520573 -12.568441 32.556362
34.740925 -13.169407 31.153397
34.792896 -15.598151 30.938808
34.869747 -17.979706 30.548382
34.990105 -0.211322 29.044464
33.628654 0.260908 30.530287
33.910904 -1.803721 30.801851
32.759815 -3.619425 32.507366
31.623959 -5.318494 33.976234
30.402126 -7.201839 35.3549
28.576099 -4.774766 36.731319
28.957863 -6.799733 36.607555
29.041607 -9.04407 36.645645
31.24383 -20.810469 33.609779
32.642799 -21.340223 32.279995
35.727469 -2.741818 28.725385
35.66191 -1.577924 28.530101
30.406842 -1.034847 34.277744
30.937044 -0.185759 33.519537
29.768166 -1.993951 35.117143
30.518133 -2.09962 34.407125
30.406842 -1.034847 34.277744
28.670699 -13.27377 36.772516
29.322243 -12.356434 36.320505
28.568618 -12.150963 36.925396
28.947438 -16.663775 36.112139
28.811303 -15.556545 36.395288
29.654432 -16.938847 35.554989
28.947438 -16.663775 36.112139
34.417623 -19.865693 30.723485
34.945999 -19.101806 30.244162
34.341371 -18.743592 31.027705
34.877402 0.774377 28.866917
35.499569 0.593639 28.119453
33.050523 -0.652827 31.42922
32.948948 0.406798 31.231938
32.370817 -0.506937 32.130871
27.836734 -4.692144 37.38722
28.489688 -3.775183 36.653835
28.318131 -7.779748 37.198358
28.180946 -6.773855 37.280809
28.360003 -8.901916 37.217404
28.999735 -7.921901 36.6266
28.318131 -7.779748 37.198358
28.404852 -9.999129 37.153122
28.360003 -8.901916 37.217404
35.931703 -6.13891 29.0827
35.873102 -4.939589 28.970796
35.391998 -5.759602 29.794106
36.968128 -6.660249 27.484068
36.989618 -7.845457 27.549658
37.072584 -11.365187 27.566544
37.111576 -12.506092 27.457335
31.293443 -21.992082 33.279808
30.603939 -21.752617 33.867912
31.992928 -22.256959 32.614916
31.943314 -21.075346 32.944887
31.293443 -21.992082 33.279808
36.338959 -16.424148 28.607304
35.932817 -17.235032 29.176177
31.713025 -0.293915 32.750658
30.937044 -0.185759 33.519537
31.814601 -1.353538 32.947939
32.370817 -0.506937 32.130871
31.713025 -0.293915 32.750658
37.031329 -9.036873 27.57421
36.989618 -7.845457 27.549658
36.601353 -8.701173 28.333098
28.718664 -14.414591 36.592205
28.670699 -13.27377 36.772516
29.516963 -14.621194 35.970709
28.718664 -14.414591 36.592205
28.811303 -15.556545 36.395288
30.36539 -17.197271 34.96065
30.32056 -16.021571 35.179453
29.654432 -16.938847 35.554989
30.451424 -18.28441 34.724639
31.117551 -17.367134 34.349104
30.36539 -17.197271 34.96065
37.160666 -13.599259 27.324022
37.111576 -12.506092 27.457335
36.737673 -13.345399 28.191102
36.782263 -15.594707 27.943973
36.343458 -15.268006 28.721121
36.338959 -16.424148 28.607304
37.150547 -14.780647 27.255274
36.782263 -15.594707 27.943973
37.160666 -13.599259 27.324022
37.150547 -14.780647 27.255274
35.417614 -18.176162 29.758142
35.932817 -17.235032 29.176177
35.384951 -17.038576 29.966417
35.417614 -18.176162 29.758142
34.945999 -19.101806 30.244162
35.575075 -0.473595 28.337048
35.499569 0.593639 28.119453
35.076939 -1.315651 29.237518
35.66191 -1.577924 28.530101
35.575075 -0.473595 28.337048
33.520967 1.314296 30.300598
32.948948 0.406798 31.231938
34.196676 1.010493 29.609829
33.520967 1.314296 30.300598
34.309379 0.024793 29.787376
34.877402 0.774377 28.866917
34.196676 1.010493 29.609829
29.141367 -2.917163 35.911438
29.768166 -1.993951 35.117143
29.227778 -3.916745 35.988922
29.141367 -2.917163 35.911438
28.489688 -3.775183 36.653835
27.990064 -5.761371 37.342691
27.836734 -4.692144 37.38722
28.766981 -5.787249 36.669437
27.990064 -5.761371 37.342691
28.180946 -6.773855 37.280809
28.49413 -11.093908 37.066992
29.130885 -10.138849 36.559515
28.404852 -9.999129 37.153122
28.568618 -12.150963 36.925396
28.49413 -11.093908 37.066992
35.81228 -3.811968 28.8512
35.727469 -2.741818 28.725385
35.248585 -3.49013 29.556386
35.81228 -3.811968 28.8512
35.873102 -4.939589 28.970796
36.486225 -6.414327 28.283968
35.931703 -6.13891 29.0827
36.005122 -7.23434 29.107278
36.486225 -6.414327 28.283968
36.968128 -6.660249 27.484068
37.049824 -10.185366 27.583163
36.665823 -11.072411 28.341033
37.072584 -11.365187 27.566544
37.031329 -9.036873 27.57421
37.049824 -10.185366 27.583163
30.512011 -19.391392 34.456817
30.451424 -18.28441 34.724639
30.532133 -20.56949 34.20516
30.603939 -21.752617 33.867912
31.223707 -19.632371 33.861436
30.512011 -19.391392 34.456817
30.532133 -20.56949 34.20516
32.75485 -22.473454 31.88476
31.992928 -22.256959 32.614916
33.31467 -21.585618 31.542754
32.75485 -22.473454 31.88476
33.899769 -20.669246 31.156271
33.227897 -20.423851 31.893512
33.31467 -21.585618 31.542754
34.417623 -19.865693 30.723485
33.899769 -20.669246 31.156271
3 0 55 56
3 1 15 13
3 3 18 16
3 3 20 18
3 57 21 58
3 59 23 60
3 61 60 21
3 59 60 61
3 2 26 24
3 62 29 63
3 64 63 27
3 62 63 64
3 65 30 66
3 68 67 30
3 5 33 31
3 6 36 34
3 8 37 14
3 8 38 37
3 4 39 28
3 9 40 17
3 9 41 40
3 9 42 41
3 10 43 19
3 10 69 71
3 71 70 43
3 69 70 71
3 72 44 73
3 11 74 76
3 74 45 75
3 74 75 76
3 11 46 45
3 11 47 46
3 12 48 22
3 12 49 48
3 77 50 78
3 79 51 80
3 81 52 82
3 83 82 51
3 81 82 83
3 85 84 52
3 7 86 88
3 88 87 35
3 86 87 88
3 90 89 25
3 92 91 32
3 93 53 94
3 95 54 96
3 97 96 53
3 95 96 97
3 99 98 5
3 13 14 6
3 15 14 13
3 15 8 14
3 16 17 4
3 18 17 16
3 18 9 17
3 18 19 9
3 20 19 18
3 20 10 19
3 21 100 101
3 21 102 104
3 102 11 103
3 102 103 104
3 21 22 11
3 23 22 21
3 23 12 22
3 24 25 7
3 26 25 24
3 26 105 107
3 107 106 25
3 105 106 107
3 27 28 1
3 29 28 27
3 29 4 28
3 108 29 109
3 30 110 112
3 110 29 111
3 110 111 112
3 30 4 29
3 30 16 4
3 113 16 114
3 115 114 30
3 113 114 115
3 116 3 117
3 118 117 16
3 116 117 118
3 31 32 2
3 33 32 31
3 33 119 121
3 121 120 32
3 119 120 121
3 122 33 123
3 124 123 5
3 122 123 124
3 125 33 126
3 128 127 33
3 34 35 0
3 36 35 34
3 36 7 35
3 14 36 6
3 37 36 14
3 37 7 36
3 37 24 7
3 38 24 37
3 38 2 24
3 28 15 1
3 39 15 28
3 39 8 15
3 17 39 4
3 40 39 17
3 40 8 39
3 40 38 8
3 41 38 40
3 41 2 38
3 41 31 2
3 42 31 41
3 42 5 31
3 19 42 9
3 43 42 19
3 43 5 42
3 43 129 131
3 131 130 5
3 129 130 131
3 133 132 43
3 44 134 135
3 44 136 138
3 136 0 137
3 136 137 138
3 45 139 140
3 45 141 142
3 45 143 145
3 143 44 144
3 143 144 145
3 46 44 45
3 46 0 44
3 46 34 0
3 47 34 46
3 47 6 34
3 22 47 11
3 48 47 22
3 48 6 47
3 48 13 6
3 49 13 48
3 49 1 13
3 146 23 147
3 50 148 150
3 148 23 149
3 148 149 150
3 50 12 23
3 151 50 152
3 51 153 155
3 153 50 154
3 153 154 155
3 51 12 50
3 51 49 12
3 52 49 51
3 52 1 49
3 52 27 1
3 156 27 157
3 158 157 52
3 156 157 158
3 160 159 27
3 35 161 163
3 163 162 0
3 161 162 163
3 165 164 35
3 25 166 168
3 168 167 7
3 166 167 168
3 170 169 25
3 32 26 2
3 171 26 172
3 173 172 32
3 171 172 173
3 175 174 26
3 176 3 177
3 53 178 179
3 53 180 182
3 180 3 181
3 180 181 182
3 53 20 3
3 54 20 53
3 54 10 20
3 183 54 184
3 185 54 186
3 187 10 188
3 189 188 54
3 187 188 189
3 191 190 10
