ply
format ascii 1.0
element vertex 114
property float x
property float y
property float z
element face 98
property list uchar int vertex_index
end_header
39.06052 -4.407369 -30.761827
37.891689 -3.79317 -26.985806
38.868446 -8.19951 -26.670033
38.032433 0.354752 -31.305647
38.394009 -7.950801 -24.80813
38.571499 -4.105939 -28.91596
37.963009 -1.703144 -29.136063
38.605675 -2.010624 -30.950518
36.269218 2.354233 -29.188488
39.416431 -5.006894 -32.378754
39.120331 -2.47509 -32.785381
37.076973 -3.905299 -24.830223
37.836491 -5.847726 -24.918547
38.456417 -5.997899 -26.805813
38.974255 -6.348927 -28.706306
39.113323 -10.54634 -26.389301
39.227375 -8.816063 -28.346569
39.319401 -6.840602 -30.329134
37.16066 -1.762079 -27.041119
37.226337 0.374337 -29.223364
37.232185 2.406663 -31.238033
38.66357 0.13867 -33.247948
36.270836 1.249495 -28.117504
35.728214 2.128385 -28.072207
39.459159 -4.03461 -33.507164
39.552897 -5.316724 -33.286448
37.788843 -6.717472 -23.958533
37.417633 -5.797731 -23.909909
37.369985 -6.667478 -22.949894
39.157117 -11.741986 -26.1756
39.053694 -11.439104 -25.320648
39.097488 -12.634749 -25.106947
39.350502 -9.031517 -29.254759
39.284348 -9.961574 -28.219617
39.396515 -8.043786 -30.246042
39.273388 -7.828333 -29.337851
39.350502 -9.031517 -29.254759
39.532152 -8.400802 -31.138131
39.455038 -7.197617 -31.221223
39.396515 -8.043786 -30.246042
38.915182 -0.15022 -34.136333
38.891951 -1.16821 -33.016665
39.143563 -1.4571 -33.90505
38.338982 -8.855341 -23.758502
38.067602 -7.76901 -23.903324
38.58057 -8.957097 -24.752077
38.338982 -8.855341 -23.758502
38.817789 -9.081452 -25.683028
38.631227 -8.075156 -25.739081
38.58057 -8.957097 -24.752077
35.753952 3.213019 -29.18593
35.728214 2.128385 -28.072207
36.291853 3.395248 -30.278839
35.776587 4.254034 -30.276281
35.753952 3.213019 -29.18593
39.31111 -2.768707 -33.710477
39.268381 -3.740992 -32.582068
39.459159 -4.03461 -33.507164
39.143563 -1.4571 -33.90505
39.31111 -2.768707 -33.710477
37.037874 -4.826518 -23.865747
36.571183 -3.931756 -23.792505
37.456732 -4.876512 -24.874385
37.037874 -4.826518 -23.865747
37.417633 -5.797731 -23.909909
38.11525 -6.899263 -24.863338
37.788843 -6.717472 -23.958533
38.067602 -7.76901 -23.903324
38.940227 -10.254867 -25.542662
39.053694 -11.439104 -25.320648
38.990884 -9.372925 -26.529667
38.817789 -9.081452 -25.683028
38.940227 -10.254867 -25.542662
39.227322 -10.826712 -27.240983
39.157117 -11.741986 -26.1756
39.170349 -9.681202 -27.367935
39.227322 -10.826712 -27.240983
39.284348 -9.961574 -28.219617
39.503553 -6.280763 -32.246033
39.367916 -5.923748 -31.353944
39.455038 -7.197617 -31.221223
39.552897 -5.316724 -33.286448
39.503553 -6.280763 -32.246033
36.616749 -2.937133 -24.825118
36.571183 -3.931756 -23.792505
36.658592 -1.865523 -25.930566
36.616749 -2.937133 -24.825118
37.118817 -2.833689 -25.935671
36.716556 -0.808661 -27.043819
36.658592 -1.865523 -25.930566
36.749395 0.259547 -28.134942
36.716556 -0.808661 -27.043819
37.193499 -0.693871 -28.132241
36.747777 1.364285 -29.205926
36.270836 1.249495 -28.117504
36.749395 0.259547 -28.134942
36.773336 3.421463 -31.303612
36.291853 3.395248 -30.278839
36.750702 2.380448 -30.213261
38.66136 1.165863 -34.329214
38.915182 -0.15022 -34.136333
38.912971 0.876972 -35.217599
38.343965 1.329117 -33.360253
38.66136 1.165863 -34.329214
38.028397 1.437158 -32.389102
38.348001 0.246711 -32.276798
38.343965 1.329117 -33.360253
37.628273 2.463113 -32.355295
37.632309 1.380707 -31.27184
38.028397 1.437158 -32.389102
37.213442 3.502349 -32.334468
37.628273 2.463113 -32.355295
36.773336 3.421463 -31.303612
37.213442 3.502349 -32.334468
3 0 7 5
3 22 8 23
3 25 24 9
3 26 12 27
3 26 27 28
3 2 13 4
3 2 14 13
3 29 15 30
3 29 30 31
3 32 16 33
3 34 17 35
3 36 35 16
3 34 35 36
3 39 38 17
3 37 38 39
3 1 18 11
3 3 19 6
3 3 20 19
3 40 21 41
3 42 41 10
3 40 41 42
3 43 4 44
3 45 4 46
3 47 2 48
3 49 48 4
3 47 48 49
3 5 6 1
3 7 6 5
3 7 3 6
3 8 50 51
3 8 52 54
3 52 53 54
3 9 10 0
3 55 10 56
3 57 56 9
3 55 56 57
3 59 58 10
3 60 11 61
3 12 62 64
3 62 11 63
3 62 63 64
3 12 1 11
3 4 65 67
3 65 12 66
3 65 66 67
3 13 12 4
3 13 1 12
3 13 5 1
3 14 5 13
3 14 0 5
3 15 68 69
3 15 70 72
3 70 2 71
3 70 71 72
3 73 15 74
3 16 75 77
3 75 15 76
3 75 76 77
3 16 2 15
3 16 14 2
3 17 14 16
3 17 0 14
3 17 9 0
3 78 9 79
3 80 79 17
3 78 79 80
3 82 81 9
3 11 83 84
3 18 85 87
3 87 86 11
3 85 86 87
3 18 88 89
3 6 18 1
3 19 18 6
3 19 90 92
3 92 91 18
3 90 91 92
3 19 93 95
3 93 8 94
3 93 94 95
3 20 8 19
3 20 96 98
3 98 97 8
3 96 97 98
3 10 7 0
3 21 7 10
3 21 3 7
3 99 21 100
3 99 100 101
3 102 21 103
3 104 3 105
3 106 105 21
3 104 105 106
3 107 20 108
3 109 108 3
3 107 108 109
3 110 20 111
3 113 112 20
