ply
format ascii 1.0
element vertex 146
property float x
property float y
property float z
element face 131
property list uchar int vertex_index
end_header
10.864136 20.285072 -72.447449
17.200987 12.291487 -72.650742
8.503469 27.561768 -69.146927
11.487254 25.177601 -71.647552
18.293835 18.186838 -73.109123
10.216121 14.571643 -71.984024
14.843111 22.177109 -73.008018
13.973381 16.75271 -73.140541
13.206937 10.791758 -72.094757
9.853015 26.487207 -70.457901
9.221377 21.485275 -71.599068
8.882803 18.921959 -71.63134
8.69834 15.990751 -71.439857
10.420907 17.503395 -72.324684
17.706259 15.273244 -73.035255
16.07946 17.664856 -73.290001
15.537998 14.6678 -73.038788
13.499143 13.659451 -72.712097
15.155934 11.655742 -72.511459
16.61862 9.472047 -72.062286
8.060308 25.124588 -69.980171
9.572066 24.084385 -71.215691
11.039246 22.782238 -72.168518
19.890051 15.681136 -72.733261
19.264727 12.785802 -72.525658
18.859592 9.892452 -72.038788
13.103064 23.788528 -72.47612
12.756059 21.28813 -72.873337
16.593758 20.325466 -73.208191
14.364849 19.696732 -73.22686
12.357868 18.475513 -72.93972
12.005651 15.68692 -72.69294
11.597817 12.632896 -72.122688
7.809527 27.973197 -68.403435
8.718571 28.513933 -68.6637
7.655567 26.887434 -68.864128
7.809527 27.973197 -68.403435
8.281889 26.343178 -69.563549
7.433986 25.668844 -69.28075
7.655567 26.887434 -68.864128
20.646852 14.451254 -72.432915
21.003154 15.860564 -72.427898
20.33419 13.003587 -72.329113
19.577389 14.233469 -72.629459
20.646852 14.451254 -72.432915
20.077598 11.438118 -72.141804
20.33419 13.003587 -72.329113
9.335106 13.782052 -71.449635
8.576216 14.491606 -71.177551
9.45723 15.281197 -71.71194
10.018527 12.987146 -71.622383
9.335106 13.782052 -71.449635
13.973088 22.982819 -72.742069
14.133436 24.214883 -72.448986
15.003459 23.409174 -72.714935
17.443797 19.256152 -73.158657
17.643023 20.645843 -73.036034
18.493062 19.576529 -72.9865
12.245311 10.175478 -71.716439
11.440751 11.096047 -71.730404
12.402377 11.712327 -72.108722
12.940542 9.223226 -71.630912
11.978917 8.606946 -71.252594
12.245311 10.175478 -71.716439
18.518997 8.379612 -71.688736
19.591819 8.484803 -71.606797
9.48612 28.0575 -69.374199
8.718571 28.513933 -68.6637
10.160893 27.52022 -70.029686
9.178242 27.024487 -69.802414
9.48612 28.0575 -69.374199
10.849715 26.959115 -70.608177
10.160893 27.52022 -70.029686
11.666835 26.304312 -71.203002
10.670134 25.832404 -71.052727
10.849715 26.959115 -70.608177
8.395497 20.831183 -71.174164
8.513608 22.149037 -71.047329
8.22621 19.549525 -71.1903
8.395497 20.831183 -71.174164
9.05209 20.203617 -71.615204
8.098917 18.083165 -71.145588
8.22621 19.549525 -71.1903
8.790571 17.456355 -71.535598
8.006686 16.617561 -71.049847
8.098917 18.083165 -71.145588
15.893539 22.536715 -72.905018
15.003459 23.409174 -72.714935
14.881584 10.101653 -72.1161
13.907086 9.669661 -71.907749
14.181435 11.22375 -72.303108
15.612927 9.009805 -71.891514
14.881584 10.101653 -72.1161
15.887277 10.563894 -72.286873
16.389339 7.79626 -71.600163
15.612927 9.009805 -71.891514
7.252337 24.429127 -69.589576
7.433986 25.668844 -69.28075
7.933073 23.968693 -70.237881
7.252337 24.429127 -69.589576
8.688952 23.448591 -70.855641
7.933073 23.968693 -70.237881
8.816187 24.604487 -70.597931
9.396721 22.78483 -71.40738
8.513608 22.149037 -71.047329
8.688952 23.448591 -70.855641
19.332139 18.34629 -72.884068
18.493062 19.576529 -72.9865
20.130247 17.093439 -72.696136
21.003154 15.860564 -72.427898
19.091943 16.933987 -72.921192
19.332139 18.34629 -72.884068
20.130247 17.093439 -72.696136
19.875031 9.991443 -71.898369
19.062159 11.339127 -72.282223
20.077598 11.438118 -72.141804
19.591819 8.484803 -71.606797
19.875031 9.991443 -71.898369
7.924016 15.193091 -70.878597
8.006686 16.617561 -71.049847
7.924016 15.193091 -70.878597
8.576216 14.491606 -71.177551
12.526066 25.745331 -71.659126
11.666835 26.304312 -71.203002
13.333971 25.050795 -72.07341
14.133436 24.214883 -72.448986
12.295159 24.483064 -72.061836
12.526066 25.745331 -71.659126
13.333971 25.050795 -72.07341
16.768862 21.610894 -73.005104
17.643023 20.645843 -73.036034
15.718435 21.251288 -73.108104
15.893539 22.536715 -72.905018
16.768862 21.610894 -73.005104
10.709376 12.017772 -71.691715
10.018527 12.987146 -71.622383
10.906969 13.60227 -72.053356
10.709376 12.017772 -71.691715
11.440751 11.096047 -71.730404
12.940542 9.223226 -71.630912
13.907086 9.669661 -71.907749
17.398511 8.16941 -71.700485
17.739106 9.68225 -72.050537
18.518997 8.379612 -71.688736
16.389339 7.79626 -71.600163
17.398511 8.16941 -71.700485
3 0 11 10
3 0 13 11
3 1 16 14
3 1 18 16
3 1 19 18
3 2 33 34
3 2 35 36
3 2 37 39
3 37 20 38
3 37 38 39
3 3 21 9
3 3 22 21
3 40 23 41
3 42 24 43
3 44 43 23
3 42 43 44
3 46 45 24
3 5 47 49
3 49 48 12
3 47 48 49
3 5 50 51
3 6 52 54
3 52 26 53
3 52 53 54
3 6 27 26
3 4 55 57
3 55 28 56
3 55 56 57
3 7 29 15
3 7 30 29
3 7 31 30
3 8 32 17
3 8 58 60
3 60 59 32
3 58 59 60
3 8 61 63
3 61 62 63
3 65 64 25
3 66 2 67
3 68 9 69
3 70 69 2
3 68 69 70
3 71 9 72
3 73 3 74
3 75 74 9
3 73 74 75
3 10 76 77
3 11 78 80
3 80 79 10
3 78 79 80
3 11 81 82
3 11 83 85
3 83 12 84
3 83 84 85
3 13 12 11
3 13 5 12
3 86 6 87
3 14 15 4
3 16 15 14
3 16 7 15
3 16 17 7
3 18 17 16
3 18 8 17
3 18 88 90
3 90 89 8
3 88 89 90
3 19 91 93
3 93 92 18
3 91 92 93
3 19 94 95
3 20 96 97
3 20 98 99
3 9 20 2
3 21 20 9
3 21 100 102
3 102 101 20
3 100 101 102
3 21 103 105
3 103 10 104
3 103 104 105
3 22 10 21
3 22 0 10
3 106 4 107
3 23 108 109
3 23 110 112
3 110 4 111
3 110 111 112
3 23 14 4
3 24 14 23
3 24 1 14
3 24 25 1
3 113 25 114
3 115 114 24
3 113 114 115
3 117 116 25
3 12 118 119
3 121 120 12
3 122 3 123
3 26 124 125
3 26 126 128
3 126 3 127
3 126 127 128
3 26 22 3
3 27 22 26
3 27 0 22
3 28 129 130
3 28 131 133
3 131 6 132
3 131 132 133
3 15 28 4
3 29 28 15
3 29 6 28
3 29 27 6
3 30 27 29
3 30 0 27
3 30 13 0
3 31 13 30
3 31 5 13
3 17 31 7
3 32 31 17
3 32 5 31
3 32 134 136
3 136 135 5
3 134 135 136
3 138 137 32
3 140 139 8
3 25 19 1
3 141 19 142
3 143 142 25
3 141 142 143
3 145 144 19
