ply
format ascii 1.0
element vertex 549
property float x
property float y
property float z
element face 658
property list uchar int vertex_index
end_header
-40.820976 -9.411622 -30.364738
-40.854156 -27.051092 -31.189356
-39.779053 -25.106714 -17.441034
-35.921806 -44.491837 -14.046764
-41.312664 -16.522045 -31.491121
-41.078243 -6.745286 -36.599899
-36.837421 -41.816082 -6.944328
-39.099323 -34.481323 -16.320889
-38.772934 -32.823277 -8.968333
-38.858257 -38.903675 -29.740751
-40.751961 -28.090578 -38.244709
-40.527443 -16.775082 -24.837408
-35.57563 -47.552517 -20.673944
-38.937374 -36.599796 -22.968935
-40.655594 -25.933966 -24.456884
-41.174511 -12.364612 -31.03838
-41.320469 -11.756359 -34.176125
-40.998741 -8.168198 -33.044319
-37.423813 -40.172501 -3.309194
-38.25045 -37.085232 -8.223651
-38.298588 -35.848331 -4.579336
-40.085308 -32.84095 -30.470539
-40.005787 -33.775089 -34.083305
-40.886517 -27.711653 -34.663876
-35.681534 -45.983227 -17.415184
-37.413296 -42.127773 -21.932085
-37.543755 -40.719856 -18.61953
-39.779675 -29.787827 -17.048817
-39.980728 -30.398254 -20.523865
-40.396767 -25.486475 -21.122086
-40.813183 -21.144676 -24.750761
-40.201416 -20.77276 -21.400639
-41.228054 -21.500549 -31.502493
-41.323757 -21.847139 -34.827824
-41.430607 -16.313349 -34.823971
-41.400963 -11.167083 -37.714474
-34.907173 -46.225273 -5.611024
-36.298855 -43.207577 -10.48603
-37.732578 -39.569622 -15.190671
-38.003696 -38.410576 -11.715071
-39.029964 -33.680386 -12.625997
-39.279537 -28.988869 -13.305013
-37.220871 -44.971561 -28.831141
-38.657768 -40.019566 -33.223282
-39.665184 -34.542099 -37.800674
-41.32814 -22.037544 -38.532181
-40.015949 -8.907515 -27.957867
-39.018612 -20.614367 -17.638075
-39.410736 -16.582912 -21.365679
-39.7216 -12.54559 -24.757908
-40.730236 -12.592896 -27.970728
-33.379097 -53.253422 -19.32214
-35.463818 -49.272774 -24.088095
-37.349274 -43.529549 -25.258387
-38.935661 -37.631031 -26.384974
-40.041504 -32.103149 -27.180084
-39.037483 -35.415951 -19.683119
-40.044807 -31.139103 -23.938705
-40.770954 -26.527296 -27.83823
-41.081215 -21.365959 -28.067022
-41.08601 -16.555708 -28.264498
-41.007378 -10.615383 -30.674248
-41.120228 -10.233159 -32.086143
-40.922916 -8.832008 -31.568371
-37.649948 -39.423054 -1.482701
-37.970013 -37.983379 -3.912624
-38.085239 -37.162586 -2.185062
-40.52602 -29.926132 -30.919689
-40.538624 -30.284712 -32.647312
-40.906567 -27.159702 -32.976913
-35.083755 -46.177391 -11.608525
-34.85994 -46.992928 -13.231608
-35.724926 -45.328278 -15.586422
-36.567497 -43.562798 -17.893488
-36.752281 -42.669315 -16.397671
-39.876022 -27.361605 -17.312048
-40.119289 -27.571556 -19.183876
-40.146278 -25.346004 -19.325855
-40.369179 -23.270765 -21.196177
-40.006676 -23.033178 -19.443058
-41.294315 -18.936306 -31.471123
-41.356709 -19.011496 -33.149738
-41.376816 -16.582043 -33.172836
-41.231068 -9.21704 -35.415405
-41.359913 -11.29455 -35.95623
-41.264301 -8.744244 -37.253216
-36.303894 -43.209198 -4.454928
-35.282276 -45.485676 -3.798261
-35.912544 -44.067715 -6.287361
-35.635113 -44.69384 -8.159985
-36.588806 -42.449215 -8.749285
-37.210102 -40.849243 -11.118021
-37.444736 -40.120644 -9.313884
-38.598507 -34.990582 -8.486881
-38.631302 -35.510231 -10.434476
-38.948002 -33.141628 -10.880483
-39.277145 -31.243759 -13.130168
-39.030315 -30.861397 -11.183345
-38.074177 -41.988083 -29.321905
-37.956863 -42.66539 -31.029388
-38.770679 -39.540642 -31.556719
-40.412197 -31.125914 -36.137508
-39.876816 -34.167648 -36.00177
-40.268471 -31.328106 -38.023739
-39.979607 -31.829456 -39.827049
-40.524799 -28.583057 -40.011906
-41.449753 -19.090704 -36.617668
-41.362423 -21.672283 -36.746967
-39.177277 -18.580116 -19.446619
-39.135464 -10.608086 -24.744057
-39.870163 -10.705076 -26.336912
-34.553684 -49.537491 -18.354401
-34.502491 -50.423134 -20.022093
-34.444359 -51.336449 -21.720293
-35.460522 -48.580826 -22.295874
-36.429035 -46.440403 -24.646891
-36.447803 -45.722897 -22.897539
-38.247631 -39.262615 -22.457726
-38.228558 -39.873413 -24.12993
-38.919601 -37.183895 -24.735695
-39.536625 -34.845051 -26.775591
-39.518406 -34.411671 -24.995193
-38.490231 -37.031258 -15.819268
-38.386166 -37.639942 -17.496233
-39.054104 -35.009518 -17.925163
-40.354725 -28.22187 -22.657505
-39.99921 -30.928967 -22.254335
-40.411339 -28.515963 -24.288286
-40.461281 -28.759459 -26.014383
-40.727318 -26.183292 -26.185152
-40.97039 -23.898647 -28.045895
-40.886749 -23.861727 -26.321857
-40.736206 -18.844652 -24.905783
-40.972786 -18.848156 -26.589046
-40.858849 -16.750599 -26.521662
-40.946201 -14.62976 -28.027925
-40.630192 -14.628054 -26.417492
-41.272369 -14.235379 -31.342653
-41.348286 -14.32365 -32.912933
-41.263245 -12.023964 -32.598297
-41.183926 -9.684094 -33.676533
-41.046635 -7.487441 -34.674236
-36.672794 -42.378674 -2.577644
-37.120266 -41.068733 -5.081028
-37.657276 -39.397552 -7.534966
-37.819023 -38.737278 -5.780557
-38.276016 -36.579334 -6.31727
-38.531639 -34.267433 -6.761098
-39.568634 -35.675228 -30.206739
-39.482162 -36.383408 -31.879992
-40.089478 -33.210781 -32.327553
-40.512787 -30.665829 -34.463604
-40.869911 -27.780926 -36.414555
-35.584335 -46.84227 -19.007212
-36.543446 -44.836372 -21.408543
-36.586319 -44.082321 -19.733736
-37.43219 -41.502953 -20.193161
-38.239151 -38.813126 -20.709389
-39.52507 -32.032898 -16.673525
-39.543465 -32.590382 -18.405993
-39.910553 -30.05533 -18.836763
-40.271141 -27.850731 -20.950897
-40.550198 -25.701841 -22.750759
-40.783512 -23.534643 -24.587158
-40.627037 -23.288458 -22.973886
-40.565262 -21.026518 -23.064417
-40.360996 -18.766733 -23.10384
-41.08989 -24.183409 -31.442499
-41.137657 -24.3561 -33.102261
-41.286873 -21.572193 -33.202034
-41.408836 -19.08741 -34.84177
-41.479248 -16.275242 -36.613041
-41.397449 -13.9559 -34.592697
-41.442017 -13.644893 -36.289902
-34.572868 -46.947254 -7.397263
-35.251614 -45.609264 -9.723648
-36.118298 -43.768158 -12.300981
-36.915844 -41.932598 -14.728037
-37.019772 -41.462837 -12.802624
-37.858475 -39.026073 -13.578707
-38.562504 -36.531918 -14.122203
-38.147678 -37.744129 -9.94874
-38.623959 -35.984604 -12.306733
-39.071243 -34.177593 -14.524824
-39.393406 -31.923349 -14.781062
-39.582939 -29.441599 -15.240396
-39.52401 -27.177286 -15.315208
-37.767487 -43.348026 -32.746376
-38.392906 -40.752834 -34.986279
-39.416855 -36.745037 -33.723434
-39.193546 -37.479275 -35.427414
-41.170376 -24.547274 -34.912704
-41.161304 -24.819752 -36.598289
-41.085293 -25.13269 -38.48204
-40.539391 -9.257705 -29.304991
-38.899025 -28.69298 -11.454278
-39.110508 -26.829546 -13.585605
-39.293777 -24.808441 -15.608929
-39.505417 -22.798731 -17.623236
-39.680096 -20.666029 -19.529444
-39.844807 -18.693981 -21.255749
-40.047607 -16.603752 -23.15229
-39.584538 -14.53852 -23.124645
-40.177887 -14.54721 -24.79561
-40.305733 -12.633281 -26.354979
-40.407566 -10.783236 -27.830948
-40.786682 -10.746344 -29.303556
-36.346443 -47.313549 -26.512373
-37.291943 -44.276718 -26.994871
-38.168934 -41.205532 -27.585674
-37.415241 -42.688148 -23.517778
-38.158897 -40.657578 -25.682926
-38.8979 -38.280758 -27.959051
-39.560959 -35.232571 -28.421741
-40.089993 -32.327011 -28.829378
-40.512341 -29.488916 -29.293306
-37.607506 -40.201641 -16.986078
-38.343235 -38.079079 -19.145021
-38.946274 -36.135803 -21.254572
-39.583752 -32.870499 -20.252985
-39.569202 -33.356373 -21.870478
-39.54174 -33.871662 -23.398979
-40.057575 -31.522877 -25.54306
-40.456909 -29.321037 -27.540022
-40.804672 -26.87364 -29.494459
-41.018707 -24.231546 -29.650208
-41.15152 -21.627409 -29.722044
-41.221493 -18.997854 -29.815321
-40.980839 -21.265554 -26.499134
-41.128559 -18.813101 -28.263247
-41.226852 -16.525692 -29.894974
-41.153229 -14.373395 -29.746855
-41.000385 -12.49432 -29.465664
-40.710163 -6.985559 -32.162888
-40.787731 -6.120586 -33.806702
-40.819618 -5.156374 -35.631004
-37.758627 -38.974508 -0.647417
-37.504669 -40.053252 -0.200597
-37.976273 -37.844274 -0.998597
-37.867593 -38.29282 -1.833881
-37.758627 -38.974508 -0.647417
-41.08485 -6.404486 -37.56299
-41.177879 -7.403965 -37.889648
-41.171272 -7.744765 -36.926558
-41.456541 -18.996406 -37.627915
-41.476527 -17.718373 -37.513605
-38.76021 -9.604449 -24.755314
-38.68005 -10.592088 -23.909359
-38.838611 -8.678798 -25.57016
-39.213865 -9.682436 -25.558903
-38.76021 -9.604449 -24.755314
-37.048304 -41.275588 -2.943419
-36.840662 -41.98719 -1.653013
-37.216172 -40.884104 -2.018788
-35.148812 -47.323536 -17.035868
-35.21299 -46.862694 -16.201943
-35.632935 -46.412748 -18.211198
-35.100212 -47.753057 -17.831882
-35.148812 -47.323536 -17.035868
-41.440574 -12.371393 -37.933775
-41.461101 -13.610298 -37.221489
-41.42149 -12.405988 -37.002188
-41.405142 -10.945446 -38.694986
-41.440574 -12.371393 -37.933775
-34.541647 -46.957701 -4.300226
-34.729199 -46.587902 -3.393845
-35.094724 -45.855474 -4.704643
-34.369035 -47.287483 -5.319017
-34.541647 -46.957701 -4.300226
-34.74002 -46.586264 -6.504143
-34.201883 -47.648474 -6.212136
-34.369035 -47.287483 -5.319017
-37.112412 -45.444555 -29.67485
-36.706375 -46.58466 -28.498241
-39.307305 -36.189965 -37.543253
-39.071485 -37.658552 -36.356623
-39.429365 -36.010687 -36.614044
-39.495587 -34.810263 -38.635684
-39.307305 -36.189965 -37.543253
-39.787348 -32.025871 -40.700769
-40.080063 -30.423459 -40.85969
-40.087206 -8.169017 -28.728402
-40.348927 -8.344112 -29.401964
-40.27767 -9.08261 -28.631429
-38.668988 -28.474842 -10.599509
-38.803488 -29.608753 -10.366768
-38.906498 -25.765982 -13.640201
-38.838217 -26.645519 -12.69722
-38.634207 -25.581955 -12.751817
-38.998132 -24.755429 -14.651864
-39.202143 -25.818993 -14.597267
-38.906498 -25.765982 -13.640201
-38.945366 -21.624563 -16.709585
-38.639997 -20.665222 -16.682832
-39.262014 -21.706549 -17.630655
-39.188769 -22.716745 -16.702166
-38.945366 -21.624563 -16.709585
-39.653069 -13.542055 -23.941277
-39.280886 -13.54602 -23.108071
-39.349417 -12.549555 -23.924703
-32.886809 -54.025787 -18.169574
-33.410461 -52.75355 -18.444861
-32.831505 -54.604484 -19.05939
-32.886809 -54.025787 -18.169574
-33.376322 -53.674374 -20.237899
-32.831505 -54.604484 -19.05939
-34.926331 -50.757379 -23.831962
-34.416601 -51.789217 -22.648062
-34.954088 -50.304612 -22.904194
-35.395316 -49.772671 -24.971193
-34.926331 -50.757379 -23.831962
-35.90513 -48.293161 -25.300234
-35.836628 -48.793059 -26.183332
-35.395316 -49.772671 -24.971193
-40.490986 -6.494393 -31.65952
-40.666184 -7.46521 -31.435219
-40.610841 -4.942804 -34.17268
-40.584114 -5.499941 -33.31346
-40.626785 -4.460698 -35.084831
-40.803674 -5.63848 -34.718853
-40.610841 -4.942804 -34.17268
-37.329239 -40.50938 -1.105541
-37.504669 -40.053252 -0.200597
-37.536881 -39.797777 -2.395948
-37.216172 -40.884104 -2.018788
-37.329239 -40.50938 -1.105541
-34.515621 -47.423046 -11.262278
-34.647674 -47.004919 -10.38398
-34.403714 -47.830815 -12.073819
-34.515621 -47.423046 -11.262278
-34.971847 -46.58516 -12.420067
-34.346077 -48.156921 -12.920062
-34.403714 -47.830815 -12.073819
-34.802193 -47.367545 -14.110155
-34.346077 -48.156921 -12.920062
-35.234686 -46.535219 -15.287562
-34.802193 -47.367545 -14.110155
-35.292433 -46.160603 -14.409015
-35.70323 -45.655752 -16.500803
-35.21299 -46.862694 -16.201943
-35.234686 -46.535219 -15.287562
-41.272483 -8.537188 -38.160629
-41.340814 -9.748608 -38.391259
-41.332632 -9.955663 -37.483845
-41.272483 -8.537188 -38.160629
-41.177879 -7.403965 -37.889648
-35.793085 -44.347437 -4.126594
-35.519785 -45.022302 -2.874998
-36.030594 -43.884063 -3.203331
-40.352659 -28.800259 -40.952118
-40.080063 -30.423459 -40.85969
-40.252203 -30.206257 -39.919477
-41.412876 -20.287195 -37.692564
-41.406088 -20.381493 -36.682317
-41.456541 -18.996406 -37.627915
-41.395735 -20.469825 -38.585171
-41.345281 -21.854914 -37.639574
-41.412876 -20.287195 -37.692564
-39.742149 -7.972777 -28.000911
-39.654108 -8.832151 -27.165808
-38.699297 -19.610609 -17.618414
-38.639997 -20.665222 -16.682832
-38.778629 -18.593483 -18.522686
-39.097944 -19.597242 -18.542347
-38.699297 -19.610609 -17.618414
-38.85751 -17.55309 -19.443636
-38.778629 -18.593483 -18.522686
-38.974239 -16.554488 -20.403166
-39.294006 -17.581514 -20.406149
-38.85751 -17.55309 -19.443636
-39.056349 -11.580803 -23.917777
-38.68005 -10.592088 -23.909359
-39.428532 -11.576838 -24.750982
-39.349417 -12.549555 -23.924703
-39.056349 -11.580803 -23.917777
-39.581215 -9.730931 -26.355331
-39.502814 -10.656581 -25.540485
-39.213865 -9.682436 -25.558903
-39.654108 -8.832151 -27.165808
-39.943056 -9.806296 -27.14739
-39.581215 -9.730931 -26.355331
-33.997755 -50.895584 -17.960991
-34.026359 -50.450203 -17.151372
-33.972158 -51.338406 -18.794837
-33.997755 -50.895584 -17.960991
-34.528087 -49.980312 -19.188247
-33.940794 -51.838278 -19.672117
-33.410461 -52.75355 -18.444861
-33.972158 -51.338406 -18.794837
-36.431337 -43.045004 -1.313902
-36.840662 -41.98719 -1.653013
-36.215044 -43.468801 -2.264689
-36.431337 -43.045004 -1.313902
-36.488344 -42.793936 -3.516286
-36.030594 -43.884063 -3.203331
-36.215044 -43.468801 -2.264689
-34.584886 -49.100668 -17.505477
-34.026359 -50.450203 -17.151372
-35.069009 -48.189881 -18.680806
-34.584886 -49.100668 -17.505477
-35.100212 -47.753057 -17.831882
-41.491274 -16.310643 -37.511291
-41.476527 -17.718373 -37.513605
-41.4645 -17.682973 -36.615355
-41.479717 -14.925473 -37.383059
-41.460633 -14.960067 -36.451471
-41.461101 -13.610298 -37.221489
-41.491274 -16.310643 -37.511291
-41.479717 -14.925473 -37.383059
-41.405142 -10.945446 -38.694986
-41.340814 -9.748608 -38.391259
-34.996626 -46.102348 -2.53949
-35.519785 -45.022302 -2.874998
-34.996626 -46.102348 -2.53949
-34.729199 -46.587902 -3.393845
-33.972313 -48.133524 -6.969412
-34.201883 -47.648474 -6.212136
-34.392231 -47.389851 -8.278349
-33.972313 -48.133524 -6.969412
-34.731604 -46.720855 -9.441541
-34.392231 -47.389851 -8.278349
-34.912241 -46.278259 -8.560455
-35.167684 -45.893327 -10.666087
-34.647674 -47.004919 -10.38398
-34.731604 -46.720855 -9.441541
-37.480407 -44.29147 -30.773974
-37.112412 -45.444555 -29.67485
-37.588867 -43.818476 -29.930264
-37.38572 -44.632787 -31.632467
-37.480407 -44.29147 -30.773974
-37.862175 -43.006708 -31.887882
-37.269845 -45.002836 -32.463962
-37.38572 -44.632787 -31.632467
-37.62673 -43.664335 -33.669433
-37.269845 -45.002836 -32.463962
-37.93944 -42.366739 -34.789385
-37.62673 -43.664335 -33.669433
-38.080196 -42.05043 -33.866327
-38.23217 -41.011538 -35.879658
-37.93944 -42.366739 -34.789385
-38.671166 -39.295332 -36.136055
-38.793226 -39.116055 -35.206846
-39.071485 -37.658552 -36.356623
-38.23217 -41.011538 -35.879658
-38.671166 -39.295332 -36.136055
-39.652798 -33.453941 -39.648872
-39.495587 -34.810263 -38.635684
-39.822395 -33.185778 -38.813862
-39.652798 -33.453941 -39.648872
-39.787348 -32.025871 -40.700769
-41.366348 -20.614599 -39.502569
-41.395735 -20.469825 -38.585171
-41.278453 -22.106979 -39.497546
-41.366348 -20.614599 -39.502569
-41.15703 -23.654552 -39.472475
-41.206716 -23.585117 -38.50711
-41.278453 -22.106979 -39.497546
-41.019914 -25.132604 -39.41704
-41.15703 -23.654552 -39.472475
-40.853248 -26.611548 -39.298374
-40.918627 -26.611634 -38.363374
-41.019914 -25.132604 -39.41704
-40.739667 -26.857788 -40.181973
-40.63838 -28.336818 -39.128308
-40.853248 -26.611548 -39.298374
-40.602829 -27.075128 -41.082043
-40.739667 -26.857788 -40.181973
-40.352659 -28.800259 -40.952118
-40.602829 -27.075128 -41.082043
-40.580798 -8.601282 -30.00627
-40.72159 -8.678241 -30.536144
-40.680183 -9.334663 -29.834865
-40.580798 -8.601282 -30.00627
-40.348927 -8.344112 -29.401964
-40.087206 -8.169017 -28.728402
-39.742149 -7.972777 -28.000911
-38.116918 -36.747221 -1.325102
-37.976273 -37.844274 -0.998597
-38.171438 -36.118063 -2.457202
-38.116918 -36.747221 -1.325102
-38.278113 -35.460936 -3.654339
-38.191913 -36.505459 -3.382199
-38.171438 -36.118063 -2.457202
-38.341498 -34.830213 -4.718871
-38.278113 -35.460936 -3.654339
-38.458023 -34.039764 -5.809752
-38.415114 -35.057882 -5.670217
-38.341498 -34.830213 -4.718871
-38.532839 -33.19654 -6.937867
-38.458023 -34.039764 -5.809752
-38.653486 -32.474463 -8.041485
-38.652287 -33.545355 -7.864715
-38.532839 -33.19654 -6.937867
-38.740443 -31.673901 -9.123796
-38.653486 -32.474463 -8.041485
-38.869133 -30.692961 -10.231302
-38.901624 -31.842337 -10.075839
-38.740443 -31.673901 -9.123796
-38.96467 -29.777189 -11.318811
-38.869133 -30.692961 -10.231302
-38.803488 -29.608753 -10.366768
-38.732475 -27.577236 -11.631557
-38.668988 -28.474842 -10.599509
-39.004767 -27.761263 -12.519941
-38.732475 -27.577236 -11.631557
-38.838217 -26.645519 -12.69722
-39.082949 -23.721599 -15.695013
-38.998132 -24.755429 -14.651864
-39.399597 -23.803586 -16.616082
-39.082949 -23.721599 -15.695013
-39.188769 -22.716745 -16.702166
-39.10401 -15.540078 -21.379283
-38.974239 -16.554488 -20.403166
-39.190911 -14.517882 -22.258766
-38.887259 -13.525382 -22.242192
-39.280886 -13.54602 -23.108071
-39.497637 -15.560716 -22.245162
-39.10401 -15.540078 -21.379283
-39.190911 -14.517882 -22.258766
-33.908953 -52.715887 -21.436976
-33.376322 -53.674374 -20.237899
-33.911728 -52.294936 -20.521217
-33.908953 -52.715887 -21.436976
-34.416601 -51.789217 -22.648062
-36.269161 -47.755654 -27.338856
-35.836628 -48.793059 -26.183332
-36.783657 -46.142555 -27.671757
-36.706375 -46.58466 -28.498241
-36.269161 -47.755654 -27.338856
-40.77256 -8.388434 -31.13796
-40.871946 -9.121815 -30.966555
-40.72159 -8.678241 -30.536144
-40.81654 -7.908784 -31.86563
-40.77256 -8.388434 -31.13796
-40.666184 -7.46521 -31.435219
-40.54533 -5.932428 -32.491552
-40.490986 -6.494393 -31.65952
-40.748947 -6.553073 -32.984795
-40.54533 -5.932428 -32.491552
-40.584114 -5.499941 -33.31346
-40.654413 -3.959197 -36.059776
-40.626785 -4.460698 -35.084831
-40.826389 -4.693311 -36.602469
-40.654413 -3.959197 -36.059776
-40.955702 -5.487767 -37.086916
-40.948931 -5.95083 -36.115451
-40.826389 -4.693311 -36.602469
-41.08485 -6.404486 -37.56299
-40.955702 -5.487767 -37.086916
3 0 63 61
3 236 64 237
3 238 66 239
3 240 239 64
3 238 239 240
3 1 69 67
3 3 71 70
3 3 72 71
3 3 74 72
3 2 77 75
3 2 79 77
3 4 82 80
3 5 85 83
3 5 241 243
3 243 242 85
3 241 242 243
3 6 88 86
3 6 90 88
3 6 92 90
3 8 95 93
3 8 97 95
3 9 100 98
3 10 103 101
3 10 105 103
3 245 244 106
3 246 109 247
3 250 249 109
3 248 249 250
3 12 112 111
3 12 114 112
3 12 116 114
3 13 119 117
3 13 121 119
3 7 124 122
3 14 127 125
3 14 129 127
3 14 131 129
3 11 134 132
3 11 136 134
3 15 139 137
3 17 140 62
3 17 141 140
3 18 251 253
3 251 142 252
3 251 252 253
3 18 143 142
3 18 145 143
3 20 146 65
3 20 147 146
3 21 150 148
3 23 151 68
3 23 152 151
3 24 254 255
3 24 256 258
3 256 153 257
3 256 257 258
3 24 155 153
3 26 156 73
3 26 157 156
3 27 160 158
3 29 161 76
3 29 162 161
3 29 164 162
3 31 165 78
3 31 166 165
3 32 169 167
3 34 170 81
3 34 171 170
3 16 172 138
3 35 173 84
3 35 259 261
3 261 260 173
3 259 260 261
3 35 262 263
3 36 264 266
3 266 265 87
3 264 265 266
3 36 267 268
3 36 269 271
3 269 174 270
3 269 270 271
3 37 175 89
3 37 176 175
3 37 178 176
3 39 179 91
3 39 180 179
3 19 181 144
3 40 182 94
3 40 183 182
3 40 184 183
3 41 185 96
3 41 186 185
3 42 272 273
3 43 187 99
3 43 188 187
3 22 189 149
3 44 190 102
3 44 274 276
3 276 275 190
3 274 275 276
3 44 277 278
3 280 279 104
3 33 191 168
3 45 192 107
3 45 193 192
3 46 281 283
3 283 282 194
3 281 282 283
3 284 195 285
3 286 196 287
3 286 287 288
3 289 197 290
3 291 290 196
3 289 290 291
3 47 292 293
3 47 294 296
3 294 198 295
3 294 295 296
3 47 199 198
3 48 200 108
3 48 201 200
3 49 297 299
3 297 202 298
3 297 298 299
3 49 203 202
3 49 204 203
3 46 205 110
3 46 194 205
3 51 300 301
3 51 302 303
3 51 304 305
3 52 306 308
3 308 307 113
3 306 307 308
3 52 309 310
3 52 311 313
3 311 207 312
3 311 312 313
3 53 208 115
3 53 209 208
3 25 210 154
3 54 211 118
3 54 212 211
3 54 213 212
3 55 214 120
3 55 215 214
3 38 216 177
3 56 217 123
3 56 218 217
3 28 219 159
3 57 220 126
3 57 221 220
3 57 222 221
3 58 223 128
3 58 224 223
3 58 225 224
3 59 226 130
3 59 227 226
3 30 228 163
3 60 229 133
3 60 230 229
3 60 231 230
3 50 232 135
3 50 206 232
3 314 233 315
3 316 234 317
3 318 235 319
3 320 319 234
3 318 319 320
3 61 62 15
3 63 62 61
3 63 17 62
3 64 321 322
3 64 323 325
3 323 18 324
3 323 324 325
3 64 65 18
3 66 65 64
3 66 20 65
3 67 68 21
3 69 68 67
3 69 23 68
3 70 326 327
3 71 328 330
3 330 329 70
3 328 329 330
3 71 331 332
3 71 333 334
3 72 335 337
3 337 336 71
3 335 336 337
3 72 338 340
3 338 24 339
3 338 339 340
3 72 73 24
3 74 73 72
3 74 26 73
3 75 76 27
3 77 76 75
3 77 29 76
3 77 78 29
3 79 78 77
3 79 31 78
3 80 81 32
3 82 81 80
3 82 34 81
3 83 84 16
3 85 84 83
3 85 35 84
3 85 341 343
3 343 342 35
3 341 342 343
3 345 344 85
3 86 346 348
3 346 87 347
3 346 347 348
3 88 87 86
3 88 36 87
3 88 89 36
3 90 89 88
3 90 37 89
3 90 91 37
3 92 91 90
3 92 39 91
3 93 94 19
3 95 94 93
3 95 40 94
3 95 96 40
3 97 96 95
3 97 41 96
3 98 99 42
3 100 99 98
3 100 43 99
3 101 102 22
3 103 102 101
3 103 44 102
3 103 104 44
3 105 104 103
3 105 349 351
3 351 350 104
3 349 350 351
3 106 107 33
3 352 107 353
3 354 353 106
3 352 353 354
3 355 45 356
3 357 356 107
3 355 356 357
3 359 358 46
3 360 47 361
3 362 108 363
3 364 363 47
3 362 363 364
3 365 108 366
3 367 48 368
3 369 368 108
3 367 368 369
3 109 370 371
3 109 372 374
3 372 49 373
3 372 373 374
3 109 110 49
3 375 110 376
3 377 376 109
3 375 376 377
3 378 46 379
3 380 379 110
3 378 379 380
3 111 381 382
3 112 383 385
3 385 384 111
3 383 384 385
3 112 386 388
3 386 51 387
3 386 387 388
3 112 113 51
3 114 113 112
3 114 52 113
3 114 115 52
3 116 115 114
3 116 53 115
3 117 118 25
3 119 118 117
3 119 54 118
3 119 120 54
3 121 120 119
3 121 55 120
3 122 123 38
3 124 123 122
3 124 56 123
3 125 126 28
3 127 126 125
3 127 57 126
3 127 128 57
3 129 128 127
3 129 58 128
3 129 130 58
3 131 130 129
3 131 59 130
3 132 133 30
3 134 133 132
3 134 60 133
3 134 135 60
3 136 135 134
3 136 50 135
3 137 138 4
3 139 138 137
3 139 16 138
3 62 139 15
3 140 139 62
3 140 16 139
3 140 83 16
3 141 83 140
3 141 5 83
3 142 389 390
3 142 391 392
3 142 393 395
3 393 86 394
3 393 394 395
3 143 86 142
3 143 6 86
3 143 144 6
3 145 144 143
3 145 19 144
3 65 145 18
3 146 145 65
3 146 19 145
3 146 93 19
3 147 93 146
3 147 8 93
3 148 149 9
3 150 149 148
3 150 22 149
3 68 150 21
3 151 150 68
3 151 22 150
3 151 101 22
3 152 101 151
3 152 10 101
3 396 111 397
3 153 398 400
3 398 111 399
3 398 399 400
3 153 12 111
3 153 154 12
3 155 154 153
3 155 25 154
3 73 155 24
3 156 155 73
3 156 25 155
3 156 117 25
3 157 117 156
3 157 13 117
3 158 159 7
3 160 159 158
3 160 28 159
3 76 160 27
3 161 160 76
3 161 28 160
3 161 125 28
3 162 125 161
3 162 14 125
3 162 163 14
3 164 163 162
3 164 30 163
3 78 164 29
3 165 164 78
3 165 30 164
3 165 132 30
3 166 132 165
3 166 11 132
3 167 168 1
3 169 168 167
3 169 33 168
3 81 169 32
3 170 169 81
3 170 33 169
3 170 106 33
3 171 106 170
3 171 401 403
3 403 402 106
3 401 402 403
3 138 82 4
3 172 82 138
3 172 34 82
3 84 172 16
3 173 172 84
3 173 34 172
3 173 171 34
3 404 171 405
3 406 405 173
3 404 405 406
3 408 407 171
3 410 409 35
3 87 411 412
3 414 413 87
3 174 415 416
3 174 417 418
3 89 174 36
3 175 174 89
3 175 419 421
3 421 420 174
3 419 420 421
3 175 422 424
3 422 70 423
3 422 423 424
3 176 70 175
3 176 3 70
3 176 177 3
3 178 177 176
3 178 38 177
3 91 178 37
3 179 178 91
3 179 38 178
3 179 122 38
3 180 122 179
3 180 7 122
3 144 92 6
3 181 92 144
3 181 39 92
3 94 181 19
3 182 181 94
3 182 39 181
3 182 180 39
3 183 180 182
3 183 7 180
3 183 158 7
3 184 158 183
3 184 27 158
3 96 184 40
3 185 184 96
3 185 27 184
3 185 75 27
3 186 75 185
3 186 2 75
3 99 425 427
3 427 426 42
3 425 426 427
3 187 428 430
3 430 429 99
3 428 429 430
3 187 431 432
3 187 433 434
3 188 435 437
3 437 436 187
3 435 436 437
3 188 438 439
3 149 100 9
3 189 100 149
3 189 43 100
3 102 189 22
3 190 189 102
3 190 43 189
3 190 188 43
3 440 188 441
3 442 441 190
3 440 441 442
3 444 443 188
3 104 445 447
3 447 446 44
3 445 446 447
3 449 448 104
3 168 69 1
3 191 69 168
3 191 23 69
3 107 191 33
3 192 191 107
3 192 23 191
3 192 152 23
3 193 152 192
3 193 10 152
3 450 45 451
3 452 45 453
3 454 193 455
3 456 455 45
3 454 455 456
3 457 193 458
3 459 10 460
3 461 460 193
3 459 460 461
3 462 105 463
3 464 463 10
3 462 463 464
3 465 105 466
3 468 467 105
3 194 469 471
3 471 470 0
3 469 470 471
3 473 472 194
3 475 474 46
3 476 66 477
3 478 66 479
3 480 20 481
3 482 481 66
3 480 481 482
3 483 20 484
3 485 147 486
3 487 486 20
3 485 486 487
3 488 147 489
3 490 8 491
3 492 491 147
3 490 491 492
3 493 8 494
3 495 97 496
3 497 496 8
3 495 496 497
3 195 498 500
3 498 97 499
3 498 499 500
3 195 41 97
3 501 195 502
3 196 503 505
3 503 195 504
3 503 504 505
3 196 41 195
3 196 186 41
3 197 186 196
3 197 2 186
3 506 197 507
3 198 508 510
3 508 197 509
3 508 509 510
3 198 2 197
3 198 79 2
3 199 79 198
3 199 31 79
3 108 199 47
3 200 199 108
3 200 31 199
3 200 166 31
3 201 166 200
3 201 11 166
3 511 48 512
3 202 513 515
3 513 514 515
3 202 516 518
3 516 48 517
3 516 517 518
3 202 201 48
3 203 201 202
3 203 11 201
3 203 136 11
3 204 136 203
3 204 50 136
3 110 204 49
3 205 204 110
3 205 50 204
3 205 206 50
3 194 206 205
3 194 0 206
3 113 519 521
3 521 520 51
3 519 520 521
3 523 522 113
3 207 524 525
3 207 526 528
3 526 42 527
3 526 527 528
3 115 207 52
3 208 207 115
3 208 42 207
3 208 98 42
3 209 98 208
3 209 9 98
3 154 116 12
3 210 116 154
3 210 53 116
3 118 210 25
3 211 210 118
3 211 53 210
3 211 209 53
3 212 209 211
3 212 9 209
3 212 148 9
3 213 148 212
3 213 21 148
3 120 213 54
3 214 213 120
3 214 21 213
3 214 67 21
3 215 67 214
3 215 1 67
3 177 74 3
3 216 74 177
3 216 26 74
3 123 216 38
3 217 216 123
3 217 26 216
3 217 157 26
3 218 157 217
3 218 13 157
3 159 124 7
3 219 124 159
3 219 56 124
3 126 219 28
3 220 219 126
3 220 56 219
3 220 218 56
3 221 218 220
3 221 13 218
3 221 121 13
3 222 121 221
3 222 55 121
3 128 222 57
3 223 222 128
3 223 55 222
3 223 215 55
3 224 215 223
3 224 1 215
3 224 167 1
3 225 167 224
3 225 32 167
3 130 225 58
3 226 225 130
3 226 32 225
3 226 80 32
3 227 80 226
3 227 4 80
3 163 131 14
3 228 131 163
3 228 59 131
3 133 228 30
3 229 228 133
3 229 59 228
3 229 227 59
3 230 227 229
3 230 4 227
3 230 137 4
3 231 137 230
3 231 15 137
3 135 231 60
3 232 231 135
3 232 15 231
3 232 61 15
3 206 61 232
3 206 0 61
3 529 63 530
3 531 530 0
3 529 530 531
3 233 532 534
3 532 63 533
3 532 533 534
3 233 17 63
3 535 233 536
3 234 537 539
3 537 233 538
3 537 538 539
3 234 17 233
3 234 141 17
3 235 141 234
3 235 5 141
3 540 235 541
3 542 235 543
3 544 5 545
3 546 545 235
3 544 545 546
3 548 547 5
