ply
format ascii 1.0
element vertex 170
property float x
property float y
property float z
element face 157
property list uchar int vertex_index
end_header
3.494565 -32.773403 54.145683
-2.71152 -34.59811 61.35952
0.585663 -40.66106 54.810001
3.215162 -39.657055 51.285931
2.002051 -36.702885 54.514824
-6.415071 -35.577431 64.614273
-4.382477 -38.868664 61.691479
0.495434 -33.664352 57.915089
-0.978611 -37.778164 58.201077
-2.428139 -42.023842 58.156281
3.337073 -36.245918 52.677231
2.637853 -34.771576 54.458622
-6.481363 -31.608952 65.546738
1.945301 -40.190536 53.015373
0.002332 -42.857708 54.609165
-1.128067 -34.143135 59.736362
-0.316841 -35.714935 58.168736
-1.84832 -36.283009 59.83688
-5.0501 -41.137794 61.469131
-3.41967 -40.458324 60.02174
-4.036331 -42.75639 59.659161
-3.102862 -44.361954 57.795681
2.595533 -38.209209 52.910591
1.288566 -38.703487 54.670795
-4.464186 -35.037968 63.001316
-3.542194 -36.701923 61.572258
-5.406166 -37.219425 63.253307
-6.130689 -39.525753 63.144573
2.053467 -33.059933 56.079952
-0.228641 -32.009769 59.401234
-1.940645 -32.44981 61.173996
-3.726024 -32.906883 62.856895
-5.552522 -33.304035 64.428391
-7.444048 -33.7052 65.879959
1.24713 -35.209541 56.277313
0.528622 -37.223335 56.417263
-0.184918 -39.179974 56.554611
-2.640628 -38.251354 60.028397
-1.800435 -39.825264 58.380535
-0.821383 -41.277859 56.467537
-1.541001 -43.521473 56.325214
3.066209 -33.77249 54.302152
3.332497 -34.488995 53.536413
3.760853 -33.489908 53.379943
4.20363 -32.591543 53.16959
4.673149 -31.598472 52.983408
3.964084 -31.780332 53.959501
3.760853 -33.489908 53.379943
4.469918 -33.308048 52.403851
4.20363 -32.591543 53.16959
0.942832 -41.455336 53.931645
1.62265 -41.220073 53.03433
1.265482 -40.425798 53.912687
0.293998 -41.759384 54.709583
0.651166 -42.55366 53.831226
0.942832 -41.455336 53.931645
-4.872801 -43.097495 60.361889
-4.543215 -41.947092 60.564146
-5.379686 -42.288196 61.266874
-4.390066 -43.886685 59.461199
-4.872801 -43.097495 60.361889
-7.012429 -39.854397 63.783384
-6.656897 -38.712845 63.876253
-6.453761 -40.714285 62.962621
-7.012429 -39.854397 63.783384
-0.651054 -31.204801 60.123593
0.22445 -31.029283 59.205588
-1.507055 -31.424822 61.009974
-1.084643 -32.229789 60.287615
-0.651054 -31.204801 60.123593
-4.15925 -32.019436 63.461963
-3.255124 -31.820091 62.674398
-5.072499 -32.218013 64.247712
-4.639273 -33.105459 63.642643
-4.15925 -32.019436 63.461963
-7.990459 -32.814349 66.446415
-6.962706 -32.657076 65.713348
-7.509117 -31.766225 66.279805
-8.41169 -33.958158 66.524483
-7.990459 -32.814349 66.446415
3.536872 -40.343443 50.495216
3.828047 -39.400022 50.427262
-2.67748 -45.093878 56.900744
-3.424303 -45.449211 57.565439
3.682107 -35.226166 52.645718
3.93937 -36.00551 51.839697
2.987463 -35.508747 53.567926
3.682107 -35.226166 52.645718
3.332497 -34.488995 53.536413
-6.799088 -36.738684 64.611103
-7.309165 -35.816864 65.267708
-6.022385 -30.517629 65.374924
-5.536919 -31.370471 64.806885
-6.98468 -30.759953 66.066376
-6.022385 -30.517629 65.374924
-7.509117 -31.766225 66.279805
-6.98468 -30.759953 66.066376
2.26846 -40.920564 52.204191
2.903391 -40.653824 51.33947
2.580232 -39.923795 52.150652
2.26846 -40.920564 52.204191
1.62265 -41.220073 53.03433
0.377783 -43.621719 53.727964
0.651166 -42.55366 53.831226
-0.343241 -43.959269 54.531503
0.377783 -43.621719 53.727964
-3.923331 -44.689466 58.529459
-3.569596 -43.559172 58.727421
-4.390066 -43.886685 59.461199
-3.424303 -45.449211 57.565439
-3.923331 -44.689466 58.529459
3.529241 -38.678659 51.230069
3.828047 -39.400022 50.427262
3.590197 -36.973091 51.925719
3.93937 -36.00551 51.839697
3.219426 -37.954736 52.042398
3.590197 -36.973091 51.925719
2.966303 -37.227564 52.793911
2.905347 -38.933132 52.098261
3.529241 -38.678659 51.230069
3.219426 -37.954736 52.042398
-6.294636 -37.559681 63.93062
-5.910618 -36.398428 63.93379
-6.799088 -36.738684 64.611103
-5.768427 -38.372589 63.19894
-6.294636 -37.559681 63.93062
-6.656897 -38.712845 63.876253
-5.913467 -41.520305 62.1249
-5.590395 -40.331773 62.306852
-6.453761 -40.714285 62.962621
-5.379686 -42.288196 61.266874
-5.913467 -41.520305 62.1249
2.518991 -32.126143 55.852354
2.774016 -32.916668 55.112817
3.23954 -31.982879 54.885219
1.733131 -32.355865 56.801391
2.518991 -32.126143 55.852354
0.954114 -32.658074 57.71896
1.27445 -33.362143 56.997521
1.733131 -32.355865 56.801391
0.592077 -31.830782 58.462032
0.22445 -31.029283 59.205588
0.133396 -32.83706 58.658162
0.954114 -32.658074 57.71896
0.592077 -31.830782 58.462032
-2.362435 -31.591555 61.832949
-1.507055 -31.424822 61.009974
-2.833334 -32.678347 62.015445
-2.362435 -31.591555 61.832949
-3.255124 -31.820091 62.674398
-6.016942 -32.456494 64.987565
-5.072499 -32.218013 64.247712
-5.536919 -31.370471 64.806885
-7.823653 -34.880748 65.900551
-7.309165 -35.816864 65.267708
-6.929559 -34.641315 65.247116
-7.823653 -34.880748 65.900551
-8.41169 -33.958158 66.524483
3.23954 -31.982879 54.885219
3.964084 -31.780332 53.959501
3.536872 -40.343443 50.495216
2.903391 -40.653824 51.33947
-1.114907 -44.291151 55.389528
-0.343241 -43.959269 54.531503
-0.769335 -43.189591 55.46719
-1.89655 -44.673637 56.16551
-2.321931 -43.941713 57.060448
-2.67748 -45.093878 56.900744
-1.114907 -44.291151 55.389528
-1.89655 -44.673637 56.16551
3 0 41 43
3 41 11 42
3 41 42 43
3 0 44 46
3 44 45 46
3 0 47 49
3 47 48 49
3 2 50 52
3 52 51 13
3 50 51 52
3 2 53 55
3 53 14 54
3 53 54 55
3 1 17 15
3 56 20 57
3 58 57 18
3 56 57 58
3 60 59 20
3 4 22 10
3 4 23 22
3 5 26 24
3 61 27 62
3 64 63 27
3 65 29 66
3 67 30 68
3 69 68 29
3 67 68 69
3 70 31 71
3 72 32 73
3 74 73 31
3 72 73 74
3 75 33 76
3 77 76 12
3 75 76 77
3 79 78 33
3 3 80 81
3 7 34 28
3 8 35 16
3 8 36 35
3 6 37 25
3 9 38 19
3 9 39 38
3 9 40 39
3 83 82 21
3 84 10 85
3 11 86 88
3 86 10 87
3 86 87 88
3 11 4 10
3 90 89 5
3 91 12 92
3 93 12 94
3 96 95 12
3 13 97 99
3 99 98 3
3 97 98 99
3 101 100 13
3 14 102 103
3 14 104 105
3 15 16 7
3 17 16 15
3 17 8 16
3 18 19 6
3 20 19 18
3 20 9 19
3 20 21 9
3 106 21 107
3 108 107 20
3 106 107 108
3 110 109 21
3 111 3 112
3 10 113 114
3 22 115 117
3 117 116 10
3 115 116 117
3 22 118 120
3 118 3 119
3 118 119 120
3 22 13 3
3 23 13 22
3 23 2 13
3 24 25 1
3 26 25 24
3 26 6 25
3 121 26 122
3 123 122 5
3 121 122 123
3 27 124 126
3 124 26 125
3 124 125 126
3 27 6 26
3 27 18 6
3 127 18 128
3 129 128 27
3 127 128 129
3 131 130 18
3 132 28 133
3 134 133 0
3 132 133 134
3 135 28 136
3 137 7 138
3 139 138 28
3 137 138 139
3 29 140 141
3 29 142 144
3 142 7 143
3 142 143 144
3 29 15 7
3 30 15 29
3 30 1 15
3 145 30 146
3 31 147 149
3 147 30 148
3 147 148 149
3 31 1 30
3 31 24 1
3 32 24 31
3 32 5 24
3 12 150 152
3 150 32 151
3 150 151 152
3 33 32 12
3 33 5 32
3 33 153 155
3 155 154 5
3 153 154 155
3 157 156 33
3 158 0 159
3 161 160 3
3 28 11 0
3 34 11 28
3 34 4 11
3 16 34 7
3 35 34 16
3 35 4 34
3 35 23 4
3 36 23 35
3 36 2 23
3 25 17 1
3 37 17 25
3 37 8 17
3 19 37 6
3 38 37 19
3 38 8 37
3 38 36 8
3 39 36 38
3 39 2 36
3 39 14 2
3 40 14 39
3 40 162 164
3 164 163 14
3 162 163 164
3 21 40 9
3 165 40 166
3 167 166 21
3 165 166 167
3 169 168 40
