ply
format ascii 1.0
element vertex 111
property float x
property float y
property float z
element face 90
property list uchar int vertex_index
end_header
5.583107 97.017273 -12.214788
2.998762 97.405975 -7.049831
0.762241 100.637291 -12.829229
-1.705058 102.951408 -18.854324
7.419984 93.753105 -6.580012
7.044124 96.33815 -14.565714
4.290121 97.328453 -9.70747
1.853644 99.145378 -9.879713
3.203295 98.869141 -12.464159
2.130537 100.195976 -15.44931
6.161147 93.852974 -4.227333
1.631386 97.475784 -4.653481
0.597768 99.166367 -7.246492
-0.602256 100.871452 -10.199875
-0.593562 102.015839 -15.770028
6.555377 95.426476 -9.302908
7.926784 94.961082 -11.666227
3.865214 95.765678 -4.47852
5.189482 95.708412 -6.94359
6.313616 96.677712 -13.390251
5.859365 97.323784 -14.844145
5.128856 97.663345 -13.668682
5.128856 97.663345 -13.668682
3.93895 98.58928 -13.793368
4.393201 97.943207 -12.339474
-0.529583 101.457191 -12.877876
-1.211831 101.574272 -11.563199
0.079992 100.754372 -11.514552
0.084339 101.326565 -14.299629
-1.207485 102.146466 -14.348275
-0.529583 101.457191 -12.877876
1.574489 100.722931 -16.896557
2.890179 99.803269 -16.719184
8.040909 93.644165 -7.792333
7.608606 94.480851 -9.153781
6.98768 94.58979 -7.94146
4.353668 94.798458 -3.148589
3.300934 95.652484 -3.253498
8.589316 94.651905 -12.8871
8.968011 93.983662 -11.506412
-3.079093 103.695545 -18.898737
-2.439085 103.252876 -17.464632
6.518753 96.961136 -16.036523
5.859365 97.323784 -14.844145
7.754477 95.894661 -15.72569
6.518753 96.961136 -16.036523
3.402571 99.252697 -15.285944
2.666916 99.532558 -13.956734
3.93895 98.58928 -13.793368
2.890179 99.803269 -16.719184
3.402571 99.252697 -15.285944
8.511702 92.763218 -6.538409
7.832365 92.862858 -5.280203
6.514024 92.971581 -2.927038
5.501634 93.842106 -3.022995
7.202946 92.912792 -4.103864
6.514024 92.971581 -2.927038
7.832365 92.862858 -5.280203
6.790565 93.80304 -5.403672
7.202946 92.912792 -4.103864
-2.432027 103.349026 -20.286175
-1.077897 102.584663 -20.108016
0.4452 98.265739 -4.605042
1.092519 97.28109 -3.318933
-0.071609 99.111031 -5.901548
0.4452 98.265739 -4.605042
1.114577 98.321076 -5.949986
-0.595493 99.992466 -7.405441
-0.071609 99.111031 -5.901548
-1.195505 100.845009 -8.882133
-0.595493 99.992466 -7.405441
-0.002244 100.01891 -8.723184
-1.874051 101.639392 -10.190931
-1.195505 100.845009 -8.882133
-1.874051 101.639392 -10.190931
-1.211831 101.574272 -11.563199
-1.883337 102.785091 -15.922484
-1.207485 102.146466 -14.348275
-1.14931 102.483623 -17.312176
-2.439085 103.252876 -17.464632
-1.883337 102.785091 -15.922484
0.21244 101.632863 -17.056916
0.768487 101.105908 -15.609669
1.574489 100.722931 -16.896557
-0.343308 102.100647 -18.599063
-1.14931 102.483623 -17.312176
0.21244 101.632863 -17.056916
-1.077897 102.584663 -20.108016
-0.343308 102.100647 -18.599063
8.29431 94.248154 -10.335441
7.24108 95.193779 -10.484568
7.608606 94.480851 -9.153781
8.968011 93.983662 -11.506412
8.29431 94.248154 -10.335441
8.040909 93.644165 -7.792333
8.511702 92.763218 -6.538409
2.18402 96.507538 -3.340979
1.092519 97.28109 -3.318933
2.7483 96.620731 -4.566
2.18402 96.507538 -3.340979
3.300934 95.652484 -3.253498
5.01318 94.809326 -4.352926
4.353668 94.798458 -3.148589
5.501634 93.842106 -3.022995
8.147986 95.340439 -14.336844
7.485454 95.649616 -13.11597
8.589316 94.651905 -12.8871
7.754477 95.894661 -15.72569
8.147986 95.340439 -14.336844
-3.079093 103.695545 -18.898737
-2.432027 103.349026 -20.286175
3 0 19 21
3 19 5 20
3 19 20 21
3 0 8 6
3 0 22 24
3 24 23 8
3 22 23 24
3 1 12 11
3 2 13 7
3 2 25 27
3 27 26 13
3 25 26 27
3 2 28 30
3 28 14 29
3 28 29 30
3 32 31 9
3 4 33 35
3 35 34 15
3 33 34 35
3 36 17 37
3 4 18 10
3 4 15 18
3 39 38 16
3 3 40 41
3 5 42 43
3 5 44 45
3 6 7 1
3 8 7 6
3 8 2 7
3 8 9 2
3 46 9 47
3 48 47 8
3 46 47 48
3 50 49 9
3 52 51 4
3 53 10 54
3 55 10 56
3 57 4 58
3 59 58 10
3 57 58 59
3 61 60 3
3 11 62 63
3 12 64 66
3 66 65 11
3 64 65 66
3 12 67 68
3 7 12 1
3 13 12 7
3 13 69 71
3 71 70 12
3 69 70 71
3 13 72 73
3 75 74 13
3 14 76 77
3 14 78 80
3 78 3 79
3 78 79 80
3 9 14 2
3 81 14 82
3 83 82 9
3 81 82 83
3 84 3 85
3 86 85 14
3 84 85 86
3 88 87 3
3 15 16 0
3 89 16 90
3 91 90 15
3 89 90 91
3 93 92 16
3 95 94 4
3 96 11 97
3 17 98 100
3 98 11 99
3 98 99 100
3 17 1 11
3 10 101 103
3 101 17 102
3 101 102 103
3 18 17 10
3 18 1 17
3 18 6 1
3 15 6 18
3 15 0 6
3 16 5 0
3 104 5 105
3 106 105 16
3 104 105 106
3 108 107 5
3 110 109 3
