ply
format ascii 1.0
element vertex 214
property float x
property float y
property float z
element face 203
property list uchar int vertex_index
end_header
37.111107 -41.840858 -29.812515
37.606419 -40.244068 -38.296574
35.547741 -37.839806 -46.011456
37.616055 -41.245693 -34.191025
35.92836 -47.055702 -34.905865
33.972427 -45.630245 -42.836975
38.932564 -34.645615 -37.337467
38.788998 -33.248566 -41.484043
35.270535 -46.513367 -39.087589
36.83567 -39.206902 -42.446362
38.031841 -31.474669 -45.590549
36.51329 -29.862684 -49.340591
35.920895 -47.460602 -32.799686
36.210957 -45.016472 -28.075075
37.848801 -38.958408 -31.544409
37.67157 -40.824638 -36.234497
38.313168 -38.066277 -35.727001
38.37151 -37.424889 -37.745716
38.936241 -33.967625 -39.420464
38.207458 -37.01524 -39.839569
34.277332 -50.089268 -37.394257
33.75457 -49.838402 -39.248631
34.698872 -42.052441 -44.408627
35.478233 -42.485828 -42.677288
36.236477 -38.587696 -44.297421
37.529099 -35.372566 -43.92709
36.908474 -34.628716 -45.836403
37.362427 -30.781147 -47.445267
35.992432 -34.008961 -47.744385
33.975307 -32.134979 -51.063679
36.555649 -44.727947 -30.179819
37.436039 -41.553074 -32.043888
36.800751 -44.383057 -32.327553
36.835262 -44.274315 -34.409672
36.815907 -43.716702 -36.627182
33.086769 -49.243927 -41.248978
33.869907 -41.162849 -46.160355
34.52541 -37.139961 -47.81456
39.791176 -26.537354 -42.595753
38.166042 -38.452343 -33.748096
38.764126 -35.395012 -35.188435
39.466656 -30.962809 -38.920517
39.411461 -30.325216 -41.036995
39.275185 -29.318251 -43.065926
35.637718 -46.967823 -37.01186
36.566429 -43.428593 -38.566628
34.667152 -46.217312 -40.98391
36.129211 -42.935974 -40.690201
37.285656 -39.937473 -40.295113
37.939438 -36.257698 -41.918343
38.519993 -32.302982 -43.541977
38.928562 -28.601706 -45.063248
38.473301 -27.510746 -47.085163
35.063446 -33.038177 -49.474491
35.518314 -28.922586 -51.078964
36.859146 -42.165397 -28.693046
36.409071 -43.753204 -27.824326
36.661032 -43.428665 -28.943795
37.272802 -40.591318 -29.573381
36.859146 -42.165397 -28.693046
37.479954 -40.399633 -30.678462
37.641649 -39.150093 -30.439329
37.272802 -40.591318 -29.573381
32.934077 -51.345566 -39.398743
33.211641 -51.625896 -38.411561
36.177893 -46.222096 -30.379928
36.076809 -46.245308 -29.31161
36.300444 -46.04965 -31.453795
36.6782 -44.555502 -31.253686
36.177893 -46.222096 -30.379928
32.91019 -42.851446 -46.185339
33.432588 -43.163345 -45.382206
33.317745 -40.851074 -46.956081
32.91019 -42.851446 -46.185339
39.835516 -26.892563 -41.563443
39.980744 -25.154224 -42.234581
39.127939 -33.29029 -37.035429
39.04372 -33.664988 -35.960913
38.848345 -35.020314 -36.262951
39.19961 -32.804212 -38.128992
39.394986 -31.448887 -37.826954
39.127939 -33.29029 -37.035429
37.125631 -28.322242 -49.188591
37.550199 -28.781473 -48.240929
36.937858 -30.321916 -48.392929
36.717922 -27.856019 -50.081142
37.125631 -28.322242 -49.188591
34.249874 -34.744062 -49.411686
34.794428 -35.089069 -48.644526
33.980856 -36.794954 -48.581721
34.950258 -28.35091 -51.934984
34.74681 -30.528782 -51.071321
34.178754 -29.957107 -51.927341
35.675488 -26.913117 -51.863948
34.950258 -28.35091 -51.934984
35.429326 -48.959925 -31.85778
35.860516 -47.588423 -31.689862
35.394087 -48.964745 -32.950657
35.429326 -48.959925 -31.85778
35.397819 -48.762294 -34.003746
35.924627 -47.258152 -33.852775
35.394087 -48.964745 -32.950657
36.004711 -45.096075 -27.025144
35.736977 -46.416933 -27.158989
36.202826 -43.832808 -26.774395
36.004711 -45.096075 -27.025144
36.409071 -43.753204 -27.824326
38.012309 -37.608779 -31.366027
37.641649 -39.150093 -30.439329
38.171043 -37.476345 -32.342681
38.012309 -37.608779 -31.366027
33.473022 -51.751329 -37.484374
33.740942 -51.816316 -36.476712
32.936633 -53.478378 -36.566828
34.015951 -49.963835 -38.321444
33.473022 -51.751329 -37.484374
33.211641 -51.625896 -38.411561
33.104188 -33.692593 -51.023584
33.705804 -34.292463 -50.20628
33.37702 -31.582999 -51.829906
33.104188 -33.692593 -51.023584
34.178754 -29.957107 -51.927341
33.37702 -31.582999 -51.829906
35.904463 -46.389571 -28.259238
35.736977 -46.416933 -27.158989
36.383303 -44.872209 -29.127447
35.904463 -46.389571 -28.259238
36.076809 -46.245308 -29.31161
36.360823 -45.92183 -32.56362
36.300444 -46.04965 -31.453795
35.860516 -47.588423 -31.689862
32.122991 -50.983885 -41.296381
32.600176 -51.048328 -40.398916
32.640089 -49.009476 -42.148827
32.122991 -50.983885 -41.296381
33.082918 -47.202635 -42.942825
33.529598 -47.437086 -42.042977
32.640089 -49.009476 -42.148827
33.483849 -45.397043 -43.720516
33.082918 -47.202635 -42.942825
33.847071 -43.608141 -44.506342
34.33565 -43.841343 -43.622801
33.483849 -45.397043 -43.720516
34.28439 -41.607645 -45.284491
33.847071 -43.608141 -44.506342
33.432588 -43.163345 -45.382206
33.645497 -38.83963 -47.783184
34.197659 -39.151405 -46.987458
33.317745 -40.851074 -46.956081
33.980856 -36.794954 -48.581721
33.645497 -38.83963 -47.783184
39.922324 -24.751215 -43.27438
39.980744 -25.154224 -42.234581
39.685438 -26.074748 -43.632746
39.922324 -24.751215 -43.27438
38.329664 -37.223312 -33.444524
38.171043 -37.476345 -32.342681
38.007421 -38.705376 -32.646253
38.628706 -35.694647 -34.164694
38.329664 -37.223312 -33.444524
38.465084 -36.923677 -34.468266
38.933657 -33.972545 -34.964123
38.628706 -35.694647 -34.164694
38.933657 -33.972545 -34.964123
39.04372 -33.664988 -35.960913
39.621933 -29.702757 -38.639735
39.394986 -31.448887 -37.826954
39.673256 -29.105291 -39.725825
39.621933 -29.702757 -38.639735
39.645658 -28.786494 -40.784064
39.673256 -29.105291 -39.725825
39.439059 -30.644013 -39.978756
39.601319 -28.431285 -41.816374
39.835516 -26.892563 -41.563443
39.645658 -28.786494 -40.784064
39.427442 -27.465196 -43.867832
39.685438 -26.074748 -43.632746
39.533181 -27.927802 -42.830839
35.310381 -48.637102 -35.117598
35.397819 -48.762294 -34.003746
34.484867 -50.153885 -36.361794
33.740942 -51.816316 -36.476712
35.16506 -48.593163 -36.170595
34.484867 -50.153885 -36.361794
34.957525 -48.528545 -37.203058
35.783039 -47.011763 -35.958862
35.310381 -48.637102 -35.117598
35.16506 -48.593163 -36.170595
33.42067 -49.541165 -40.248805
32.934077 -51.345566 -39.398743
32.600176 -51.048328 -40.398916
39.254131 -27.106924 -44.866494
39.427442 -27.465196 -43.867832
39.101873 -28.959978 -44.064587
39.085645 -26.529367 -45.906965
39.254131 -27.106924 -44.866494
38.858015 -25.983888 -46.917923
39.085645 -26.529367 -45.906965
38.700931 -28.056226 -46.074206
38.57536 -25.60922 -47.906502
38.858015 -25.983888 -46.917923
38.105637 -27.146273 -48.060877
37.917864 -29.145947 -47.265215
37.550199 -28.781473 -48.240929
38.57536 -25.60922 -47.906502
38.105637 -27.146273 -48.060877
34.519376 -32.586578 -50.269085
34.249874 -34.744062 -49.411686
33.705804 -34.292463 -50.20628
36.220434 -27.38597 -50.950328
36.717922 -27.856019 -50.081142
36.015802 -29.392635 -50.209778
36.220434 -27.38597 -50.950328
35.675488 -26.913117 -51.863948
3 0 55 57
3 57 56 13
3 55 56 57
3 0 58 59
3 0 60 62
3 60 14 61
3 60 61 62
3 1 17 15
3 1 19 17
3 63 21 64
3 2 24 22
3 2 26 24
3 2 28 26
3 65 30 66
3 67 32 68
3 69 68 30
3 67 68 69
3 4 33 12
3 4 34 33
3 70 36 71
3 73 72 36
3 74 38 75
3 3 39 31
3 6 40 16
3 6 76 78
3 78 77 40
3 76 77 78
3 6 79 81
3 79 41 80
3 79 80 81
3 7 42 18
3 7 43 42
3 8 44 20
3 8 45 44
3 5 46 35
3 9 47 23
3 9 48 47
3 9 49 48
3 10 50 25
3 10 51 50
3 10 52 51
3 11 82 84
3 84 83 27
3 82 83 84
3 11 85 86
3 87 53 88
3 89 88 37
3 87 88 89
3 90 54 91
3 92 91 29
3 90 91 92
3 94 93 54
3 95 12 96
3 97 12 98
3 99 4 100
3 101 100 12
3 99 100 101
3 13 102 103
3 106 105 13
3 104 105 106
3 14 107 108
3 14 109 110
3 15 16 3
3 17 16 15
3 17 6 16
3 17 18 6
3 19 18 17
3 19 7 18
3 111 20 112
3 111 112 113
3 21 114 116
3 114 20 115
3 114 115 116
3 21 8 20
3 22 23 5
3 24 23 22
3 24 9 23
3 24 25 9
3 26 25 24
3 26 10 25
3 26 27 10
3 28 27 26
3 28 11 27
3 117 29 118
3 119 29 120
3 122 121 29
3 123 13 124
3 30 125 127
3 125 13 126
3 125 126 127
3 30 0 13
3 30 31 0
3 32 31 30
3 32 3 31
3 12 128 130
3 128 32 129
3 128 129 130
3 33 32 12
3 33 3 32
3 33 15 3
3 34 15 33
3 34 1 15
3 131 35 132
3 133 35 134
3 135 5 136
3 137 136 35
3 135 136 137
3 138 5 139
3 140 22 141
3 142 141 5
3 140 141 142
3 36 143 145
3 143 22 144
3 143 144 145
3 36 2 22
3 36 37 2
3 146 37 147
3 148 147 36
3 146 147 148
3 150 149 37
3 38 151 152
3 38 153 154
3 31 14 0
3 39 14 31
3 39 155 157
3 157 156 14
3 155 156 157
3 16 39 3
3 40 39 16
3 40 158 160
3 160 159 39
3 158 159 160
3 40 161 162
3 164 163 40
3 41 165 166
3 41 167 168
3 18 41 6
3 42 41 18
3 42 169 171
3 171 170 41
3 169 170 171
3 42 172 174
3 172 38 173
3 172 173 174
3 43 38 42
3 43 175 177
3 177 176 38
3 175 176 177
3 178 4 179
3 20 180 181
3 44 182 184
3 184 183 20
3 182 183 184
3 44 185 187
3 185 4 186
3 185 186 187
3 44 34 4
3 45 34 44
3 45 1 34
3 35 188 190
3 188 21 189
3 188 189 190
3 46 21 35
3 46 8 21
3 23 46 5
3 47 46 23
3 47 8 46
3 47 45 8
3 48 45 47
3 48 1 45
3 48 19 1
3 49 19 48
3 49 7 19
3 25 49 9
3 50 49 25
3 50 7 49
3 50 43 7
3 51 43 50
3 51 191 193
3 193 192 43
3 191 192 193
3 51 194 195
3 52 196 198
3 198 197 51
3 196 197 198
3 52 199 200
3 27 52 10
3 201 52 202
3 203 202 27
3 201 202 203
3 205 204 52
3 37 28 2
3 53 28 37
3 53 11 28
3 29 206 208
3 206 53 207
3 206 207 208
3 54 53 29
3 54 11 53
3 54 209 211
3 211 210 11
3 209 210 211
3 213 212 54
