ply
format ascii 1.0
element vertex 148
property float x
property float y
property float z
element face 128
property list uchar int vertex_index
end_header
30.994955 54.374344 -45.654152
29.439291 73.700485 -45.47966
28.110184 57.738396 -48.044163
28.023546 47.360214 -47.536873
26.109947 75.874786 -47.629223
27.460667 66.965721 -48.12368
30.610626 64.266983 -45.756851
29.563812 56.010357 -46.95565
28.142725 52.577671 -47.85471
29.599045 51.182896 -46.717831
29.076736 40.882362 -46.034321
27.890471 74.709412 -46.661285
26.971066 71.59964 -47.885418
28.599699 70.30751 -46.901653
29.128727 65.877716 -46.993347
30.116743 69.338753 -45.632694
26.467558 58.791035 -49.01778
27.003448 79.201065 -46.179169
28.680634 78.055885 -45.06205
30.956474 49.24614 -45.416641
29.402214 45.70153 -46.392567
25.132185 72.711441 -48.702583
26.193184 63.576321 -49.061352
27.853582 62.367455 -48.153023
29.4877 60.898407 -46.995319
30.873806 59.22863 -45.782345
30.921377 72.157349 -44.098663
31.411654 67.45533 -44.429688
31.900808 62.687412 -44.42625
32.1292 57.796497 -44.444763
27.377391 55.825049 -48.427488
26.556078 56.351368 -48.914297
27.288871 58.264716 -48.530971
27.277918 48.03013 -48.043997
27.337508 50.638859 -48.202916
28.083135 49.968942 -47.695791
27.109913 45.584303 -47.900904
27.277918 48.03013 -48.043997
27.458964 80.583435 -45.299361
26.500492 81.196003 -45.860756
28.297557 80.010845 -44.740801
27.842041 78.628475 -45.62061
27.458964 80.583435 -45.299361
30.108604 45.046558 -45.732687
30.179344 47.473835 -45.904604
30.885734 46.818863 -45.244724
28.302779 41.389128 -46.639602
28.169331 38.971576 -46.372476
25.621066 74.293114 -48.165903
24.683613 74.637806 -48.552106
25.172494 76.219479 -48.015427
26.6238 67.687134 -48.524403
26.378999 70.004093 -48.405271
27.215867 69.28268 -48.004549
26.826926 65.271021 -48.592516
25.990058 65.992434 -48.993239
26.6238 67.687134 -48.524403
31.532965 71.29565 -43.415203
31.257454 73.504032 -43.186354
31.869042 72.642334 -42.502893
31.778104 68.944641 -43.580715
31.166515 69.80634 -44.264176
31.532965 71.29565 -43.415203
32.512389 61.7255 -43.675523
32.302386 64.185564 -43.656075
32.626585 59.280043 -43.68478
32.015004 60.241955 -44.435507
32.512389 61.7255 -43.675523
32.740686 57.042994 -43.667545
32.626585 59.280043 -43.68478
29.769445 40.063547 -45.350876
29.945866 42.636974 -45.553564
28.828609 38.135622 -45.770861
29.769445 40.063547 -45.350876
28.169331 38.971576 -46.372476
28.828609 38.135622 -45.770861
25.747444 56.997017 -49.326658
25.645089 59.4243 -49.390736
25.747444 56.997017 -49.326658
26.556078 56.351368 -48.914297
27.393662 53.244686 -48.332762
27.377391 55.825049 -48.427488
28.126455 55.158034 -47.949436
27.393662 53.244686 -48.332762
27.337508 50.638859 -48.202916
25.628333 77.883308 -47.397465
25.172494 76.219479 -48.015427
26.075083 79.546447 -46.672438
26.500492 81.196003 -45.860756
26.556697 77.537926 -46.904196
25.628333 77.883308 -47.397465
26.075083 79.546447 -46.672438
31.63618 50.944809 -44.813772
30.975715 51.810242 -45.535397
31.655421 53.508911 -44.932528
31.637504 48.444615 -44.668537
31.63618 50.944809 -44.813772
30.885734 46.818863 -45.244724
31.637504 48.444615 -44.668537
29.239475 43.291946 -46.213444
30.108604 45.046558 -45.732687
29.945866 42.636974 -45.553564
28.465518 43.798711 -46.818725
29.239475 43.291946 -46.213444
28.302779 41.389128 -46.639602
27.776184 44.628054 -47.390878
28.71288 46.530872 -46.96472
28.465518 43.798711 -46.818725
27.109913 45.584303 -47.900904
27.776184 44.628054 -47.390878
24.125839 73.110668 -49.020189
24.683613 74.637806 -48.552106
24.496226 70.903396 -49.173206
24.125839 73.110668 -49.020189
25.459558 70.559993 -48.813854
26.051626 72.155541 -48.294
26.378999 70.004093 -48.405271
24.496226 70.903396 -49.173206
25.459558 70.559993 -48.813854
25.335609 64.079245 -49.411194
25.990058 65.992434 -48.993239
25.507902 61.816942 -49.412521
25.335609 64.079245 -49.411194
26.330371 61.183678 -49.039566
25.645089 59.4243 -49.390736
25.507902 61.816942 -49.412521
29.057711 79.505398 -44.08242
28.297557 80.010845 -44.740801
29.455345 77.337383 -44.389692
29.057711 79.505398 -44.08242
29.834674 75.159683 -44.598498
29.059963 75.878185 -45.270855
29.455345 77.337383 -44.389692
30.575717 74.388115 -43.907999
31.257454 73.504032 -43.186354
30.180334 72.928917 -44.789162
29.834674 75.159683 -44.598498
30.575717 74.388115 -43.907999
32.057809 66.569523 -43.657793
31.778104 68.944641 -43.580715
31.656231 65.071371 -44.427969
32.057809 66.569523 -43.657793
32.302386 64.185564 -43.656075
32.222544 55.219988 -44.327833
31.655421 53.508911 -44.932528
31.562078 56.08542 -45.049458
32.222544 55.219988 -44.327833
32.740686 57.042994 -43.667545
3 0 9 7
3 1 13 11
3 1 15 13
3 2 30 32
3 32 31 16
3 30 31 32
3 3 33 35
3 35 34 8
3 33 34 35
3 3 36 37
3 38 17 39
3 40 18 41
3 42 41 17
3 40 41 42
3 43 20 44
3 45 44 19
3 43 44 45
3 47 46 10
3 4 48 50
3 48 21 49
3 48 49 50
3 5 51 53
3 53 52 12
3 51 52 53
3 5 54 56
3 54 22 55
3 54 55 56
3 5 23 22
3 6 24 14
3 6 25 24
3 57 26 58
3 57 58 59
3 60 27 61
3 62 61 26
3 60 61 62
3 63 28 64
3 65 29 66
3 67 66 28
3 65 66 67
3 69 68 29
3 7 8 2
3 9 8 7
3 9 3 8
3 70 10 71
3 72 10 73
3 75 74 10
3 11 12 4
3 13 12 11
3 13 5 12
3 13 14 5
3 15 14 13
3 15 6 14
3 16 76 77
3 79 78 16
3 8 80 82
3 82 81 2
3 80 81 82
3 84 83 8
3 85 4 86
3 17 87 88
3 17 89 91
3 89 4 90
3 89 90 91
3 17 11 4
3 18 11 17
3 18 1 11
3 92 19 93
3 94 93 0
3 92 93 94
3 95 19 96
3 98 97 19
3 19 9 0
3 20 9 19
3 20 3 9
3 10 99 101
3 99 20 100
3 99 100 101
3 102 20 103
3 104 103 10
3 102 103 104
3 105 3 106
3 107 106 20
3 105 106 107
3 109 108 3
3 21 110 111
3 21 112 113
3 12 21 4
3 114 21 115
3 116 115 12
3 114 115 116
3 118 117 21
3 22 119 120
3 22 121 122
3 22 123 125
3 123 16 124
3 123 124 125
3 23 16 22
3 23 2 16
3 14 23 5
3 24 23 14
3 24 2 23
3 24 7 2
3 25 7 24
3 25 0 7
3 126 18 127
3 128 18 129
3 130 1 131
3 132 131 18
3 130 131 132
3 26 133 134
3 26 135 137
3 135 1 136
3 135 136 137
3 26 15 1
3 27 15 26
3 27 6 15
3 138 27 139
3 28 140 142
3 140 27 141
3 140 141 142
3 28 6 27
3 28 25 6
3 29 25 28
3 29 0 25
3 29 143 145
3 145 144 0
3 143 144 145
3 147 146 29
