ply
format ascii 1.0
element vertex 255
property float x
property float y
property float z
element face 255
property list uchar int vertex_index
end_header
17.895477 64.619911 12.352779
19.50194 71.641045 3.019268
14.445807 75.427315 9.96898
23.501099 66.900566 -4.069428
22.540522 60.269863 4.676126
15.053135 78.613724 5.340942
12.542088 80.05941 8.303547
23.462406 69.560326 -8.521947
22.004171 72.667267 -5.432322
18.781248 68.008705 7.847273
21.126913 65.941177 4.043978
20.272306 62.539875 8.603341
19.914114 75.065247 -1.804685
17.547157 77.07402 1.72811
17.151533 73.536621 6.486701
16.371136 70.061996 11.197398
24.578157 63.837189 -7.104511
24.718067 60.80286 -3.03244
21.730453 69.415443 -0.605554
23.175997 63.549538 0.362579
18.347153 66.261116 10.149544
19.57539 65.349121 8.140592
19.048513 63.597431 10.608687
14.783605 77.063133 7.648014
16.081053 76.159126 6.034906
15.777946 74.526688 8.334404
16.719917 71.921242 8.890971
15.43375 72.796593 10.627869
23.405365 69.321976 -12.02045
23.500755 68.439308 -6.245171
24.067451 66.672348 -7.703443
24.133745 65.414291 -5.550584
24.706625 62.312469 -5.007114
24.121096 63.888676 -3.470352
19.78438 73.452812 0.442926
20.887943 72.195625 -1.133323
20.612034 70.552322 1.319461
21.855841 63.160736 4.335423
22.130219 64.867813 2.309407
22.860447 62.008644 2.52011
23.782919 60.824291 0.675362
23.560894 59.037178 2.768548
13.783451 79.510582 6.740267
13.508827 77.908142 9.069861
22.812881 71.22551 -6.984861
22.793062 69.727173 -4.551284
19.152702 69.861504 5.469797
20.359238 68.779228 3.578084
19.981186 67.04184 5.912124
20.758131 64.206848 6.254777
21.477766 61.522377 6.466255
18.78327 76.002487 0.030918
18.623436 74.32959 2.350075
16.26619 77.910866 3.62228
17.337225 75.384155 4.168866
18.312618 72.694412 4.758883
17.939169 70.848732 7.292594
17.605488 69.042786 9.527115
17.063116 67.4188 11.946223
23.816147 68.023674 -9.889353
24.358086 64.941948 -9.179673
25.068977 60.671001 -6.629877
25.217356 59.31554 -4.6238
21.004425 73.870972 -3.523258
21.9235 71.047134 -2.971161
22.726398 68.061905 -2.34466
21.465738 67.59285 1.819304
22.449692 66.577461 -0.03487
23.383797 65.244812 -1.840881
24.019148 62.354603 -1.482679
24.580065 59.489479 -1.038467
13.191929 76.185516 11.402054
14.140377 73.564171 12.293097
15.070229 70.964607 12.928622
18.279183 63.213673 12.570404
18.855701 62.702433 11.698358
18.471995 64.108671 11.480733
23.08627 70.722416 -12.492992
23.151388 69.773228 -13.069032
22.876926 58.839569 4.816244
23.387113 58.223226 3.862455
23.050708 59.65352 3.722337
13.162769 79.784996 7.521907
13.251533 80.553947 6.405954
12.630851 80.828361 7.187594
22.408526 71.946388 -6.208592
22.355641 72.754601 -7.394841
21.951286 73.475479 -6.618571
20.636826 61.215515 8.69021
21.239556 60.706766 7.621668
20.875036 62.031126 7.534798
18.165214 76.538253 0.879514
18.279791 77.288021 -0.37503
17.661735 77.823788 0.473567
15.659662 78.262295 4.481611
15.725794 79.109039 3.25829
15.119266 79.460469 4.117621
23.639277 68.792 -9.20565
23.473014 69.587128 -10.296848
23.296143 70.355454 -9.613146
24.682156 62.90256 -7.817322
24.572121 63.454939 -8.854902
24.468122 64.389568 -8.142092
24.823567 62.254095 -6.867194
24.927566 61.319465 -7.580004
24.682156 62.90256 -7.817322
24.99942 59.298208 -2.869809
25.249064 58.554548 -3.66549
24.967712 60.0592 -3.82812
20.45927 74.468109 -2.663971
20.499639 75.280556 -3.914583
19.954483 75.877693 -3.055296
24.510044 58.691401 -0.067831
24.181492 60.156885 -0.181553
24.111471 59.358807 0.789084
24.890791 57.982302 -0.900049
24.510044 58.691401 -0.067831
12.519453 76.675376 11.98207
12.686282 77.461151 10.895405
13.896124 72.825062 13.384825
13.4418 74.126999 12.943496
14.36105 71.52528 13.702587
14.605303 72.264389 12.61086
13.896124 72.825062 13.384825
12.068818 81.07917 7.837597
12.630851 80.828361 7.187594
21.534603 74.034489 -5.730662
21.951286 73.475479 -6.618571
19.45017 62.198387 10.720278
20.062066 61.669609 9.717605
19.66041 63.068653 9.606014
19.45017 62.198387 10.720278
18.855701 62.702433 11.698358
17.00575 78.279621 1.437663
17.661735 77.823788 0.473567
23.418502 68.308754 -12.56148
23.164525 68.760006 -13.610062
23.151388 69.773228 -13.069032
23.668409 67.824486 -11.6153
23.418502 68.308754 -12.56148
24.000459 58.46525 1.835677
24.111471 59.358807 0.789084
23.671906 59.930734 1.721955
23.908516 57.605137 2.832243
24.348081 57.033209 1.899372
24.000459 58.46525 1.835677
23.908516 57.605137 2.832243
23.387113 58.223226 3.862455
14.524831 79.796436 4.896146
15.119266 79.460469 4.117621
13.889989 80.244866 5.595808
13.251533 80.553947 6.405954
14.418293 79.062153 6.040605
14.524831 79.796436 4.896146
13.889989 80.244866 5.595808
23.072105 71.048992 -8.840077
23.296143 70.355454 -9.613146
22.747343 71.881585 -8.071535
22.355641 72.754601 -7.394841
23.137644 70.392918 -7.753404
23.072105 71.048992 -8.840077
22.747343 71.881585 -8.071535
21.781788 60.140701 6.694943
22.313166 59.514444 5.799879
22.009144 60.89612 5.571191
21.781788 60.140701 6.694943
21.239556 60.706766 7.621668
20.636826 61.215515 8.69021
20.062066 61.669609 9.717605
19.421254 76.358761 -2.175775
19.954483 75.877693 -3.055296
18.855832 76.827381 -1.257973
18.279791 77.288021 -0.37503
19.348692 75.533867 -0.886884
19.421254 76.358761 -2.175775
18.855832 76.827381 -1.257973
16.365266 78.698044 2.384748
15.725794 79.109039 3.25829
16.906674 77.492443 2.675195
17.00575 78.279621 1.437663
16.365266 78.698044 2.384748
23.267623 70.236278 -11.362397
23.08627 70.722416 -12.492992
23.610756 68.672825 -10.954902
23.267623 70.236278 -11.362397
23.473014 69.587128 -10.296848
23.873801 67.175335 -10.549751
23.668409 67.824486 -11.6153
23.610756 68.672825 -10.954902
24.14477 65.634472 -10.194911
23.873801 67.175335 -10.549751
24.087117 66.482811 -9.534513
24.36777 64.082909 -9.777497
24.14477 65.634472 -10.194911
24.36777 64.082909 -9.777497
24.572121 63.454939 -8.854902
25.119913 59.794975 -7.273792
24.927566 61.319465 -7.580004
25.287312 59.130411 -6.353275
25.338248 58.254385 -6.99719
25.119913 59.794975 -7.273792
25.361502 58.45268 -5.350237
25.287312 59.130411 -6.353275
25.143166 59.99327 -5.626838
25.475479 57.759405 -4.477816
25.361502 58.45268 -5.350237
25.475479 57.759405 -4.477816
25.249064 58.554548 -3.66549
21.03473 74.636342 -4.776129
20.499639 75.280556 -3.914583
21.504298 73.269119 -4.47779
21.534603 74.034489 -5.730662
21.03473 74.636342 -4.776129
24.930419 58.641518 -1.872823
24.99942 59.298208 -2.869809
24.649066 60.146169 -2.035454
24.930419 58.641518 -1.872823
24.890791 57.982302 -0.900049
22.876926 58.839569 4.816244
22.313166 59.514444 5.799879
11.912446 80.485184 8.811326
12.068818 81.07917 7.837597
11.439176 81.504943 8.345375
12.361362 79.398098 9.346152
11.912446 80.485184 8.811326
12.844731 78.322464 9.729309
13.025457 78.983776 8.686704
12.361362 79.398098 9.346152
13.350378 77.046829 10.235957
12.844731 78.322464 9.729309
12.686282 77.461151 10.895405
12.967576 75.437671 12.497974
12.519453 76.675376 11.98207
13.666153 74.874843 11.847575
12.967576 75.437671 12.497974
13.4418 74.126999 12.943496
14.819481 70.169418 14.060386
14.36105 71.52528 13.702587
15.467728 69.692974 13.233757
14.819481 70.169418 14.060386
16.118182 69.241669 12.368146
15.720682 70.513301 12.06301
15.467728 69.692974 13.233757
16.464172 67.920071 12.742558
16.717126 68.740398 11.57181
16.118182 69.241669 12.368146
16.88008 66.495686 13.036525
16.464172 67.920071 12.742558
17.296261 65.096241 13.239804
17.479297 66.019356 12.149501
16.88008 66.495686 13.036525
17.693687 63.687267 13.493517
17.296261 65.096241 13.239804
18.279183 63.213673 12.570404
17.693687 63.687267 13.493517
3 0 22 20
3 0 74 76
3 76 75 22
3 74 75 76
3 2 25 23
3 2 27 25
3 77 28 78
3 3 31 29
3 3 33 31
3 1 36 34
3 4 39 37
3 4 41 39
3 4 79 81
3 81 80 41
3 79 80 81
3 6 82 84
3 82 42 83
3 82 83 84
3 6 43 42
3 8 85 87
3 85 44 86
3 85 86 87
3 8 45 44
3 9 48 46
3 11 49 21
3 11 50 49
3 11 88 90
3 90 89 50
3 88 89 90
3 13 91 93
3 91 51 92
3 91 92 93
3 13 52 51
3 5 94 96
3 94 53 95
3 94 95 96
3 14 54 24
3 14 55 54
3 14 56 55
3 15 57 26
3 15 58 57
3 7 97 99
3 97 59 98
3 97 98 99
3 16 60 30
3 16 100 102
3 102 101 60
3 100 101 102
3 16 103 105
3 103 61 104
3 103 104 105
3 17 62 32
3 17 106 108
3 108 107 62
3 106 107 108
3 12 109 111
3 109 63 110
3 109 110 111
3 18 64 35
3 18 65 64
3 10 66 47
3 19 67 38
3 19 68 67
3 19 69 68
3 112 70 113
3 114 113 40
3 112 113 114
3 116 115 70
3 117 71 118
3 119 72 120
3 121 73 122
3 123 122 72
3 121 122 123
3 124 6 125
3 126 8 127
3 20 21 9
3 22 21 20
3 22 11 21
3 22 128 130
3 130 129 11
3 128 129 130
3 132 131 22
3 133 13 134
3 23 24 5
3 25 24 23
3 25 14 24
3 25 26 14
3 27 26 25
3 27 15 26
3 28 135 137
3 135 136 137
3 28 138 139
3 29 30 7
3 31 30 29
3 31 16 30
3 31 32 16
3 33 32 31
3 33 17 32
3 34 35 12
3 36 35 34
3 36 18 35
3 37 38 10
3 39 38 37
3 39 19 38
3 39 40 19
3 41 40 39
3 41 140 142
3 142 141 40
3 140 141 142
3 41 143 145
3 143 144 145
3 147 146 41
3 148 5 149
3 42 150 151
3 42 152 154
3 152 5 153
3 152 153 154
3 42 23 5
3 43 23 42
3 43 2 23
3 155 7 156
3 44 157 158
3 44 159 161
3 159 7 160
3 159 160 161
3 44 29 7
3 45 29 44
3 45 3 29
3 46 47 1
3 48 47 46
3 48 10 47
3 21 48 9
3 49 48 21
3 49 10 48
3 49 37 10
3 50 37 49
3 50 4 37
3 50 162 164
3 164 163 4
3 162 163 164
3 166 165 50
3 168 167 11
3 169 12 170
3 51 171 172
3 51 173 175
3 173 12 174
3 173 174 175
3 51 34 12
3 52 34 51
3 52 1 34
3 53 176 177
3 53 178 180
3 178 13 179
3 178 179 180
3 24 53 5
3 54 53 24
3 54 13 53
3 54 52 13
3 55 52 54
3 55 1 52
3 55 46 1
3 56 46 55
3 56 9 46
3 26 56 14
3 57 56 26
3 57 9 56
3 57 20 9
3 58 20 57
3 58 0 20
3 181 28 182
3 59 183 185
3 183 28 184
3 183 184 185
3 59 186 188
3 188 187 28
3 186 187 188
3 30 59 7
3 60 59 30
3 60 189 191
3 191 190 59
3 189 190 191
3 60 192 193
3 195 194 60
3 61 196 197
3 61 198 200
3 198 199 200
3 32 61 16
3 62 61 32
3 62 201 203
3 203 202 61
3 201 202 203
3 62 204 205
3 207 206 62
3 63 208 209
3 63 210 212
3 210 8 211
3 210 211 212
3 35 63 12
3 64 63 35
3 64 8 63
3 64 45 8
3 65 45 64
3 65 3 45
3 47 36 1
3 66 36 47
3 66 18 36
3 38 66 10
3 67 66 38
3 67 18 66
3 67 65 18
3 68 65 67
3 68 3 65
3 68 33 3
3 69 33 68
3 69 17 33
3 40 69 19
3 70 69 40
3 70 17 69
3 70 213 215
3 215 214 17
3 213 214 215
3 217 216 70
3 219 218 4
3 220 6 221
3 220 221 222
3 223 6 224
3 225 43 226
3 227 226 6
3 225 226 227
3 71 228 230
3 228 43 229
3 228 229 230
3 71 2 43
3 231 71 232
3 72 233 235
3 233 71 234
3 233 234 235
3 72 2 71
3 72 27 2
3 73 27 72
3 73 15 27
3 236 73 237
3 238 73 239
3 240 15 241
3 242 241 73
3 240 241 242
3 243 58 244
3 245 244 15
3 243 244 245
3 246 58 247
3 248 0 249
3 250 249 58
3 248 249 250
3 251 0 252
3 254 253 0
