ply
format ascii 1.0
element vertex 157
property float x
property float y
property float z
element face 139
property list uchar int vertex_index
end_header
-20.235434 97.243408 14.974918
-22.015411 87.391258 28.381477
-25.599848 78.741791 35.592503
-22.789885 81.341934 34.6259
-21.170006 92.776619 21.707718
-19.323799 83.008385 32.937229
-18.506203 88.657944 26.643013
-17.487045 93.655273 19.957865
-22.037773 96.605072 15.634501
-24.5361 76.796822 38.145035
-24.29694 80.104942 35.238102
-23.065184 78.126999 37.567848
-23.695665 86.30262 29.076244
-23.294846 89.113266 25.921328
-21.692793 90.246597 24.990175
-19.751055 80.272392 35.6675
-17.912783 80.627991 34.81078
-17.027351 86.192513 28.869354
-16.675968 88.847237 25.730331
-18.124521 91.31414 23.282986
-25.377523 81.795547 32.795319
-23.977732 83.224854 32.285099
-22.372152 84.56517 31.437065
-20.85491 95.085617 18.384274
-21.370611 79.309593 36.713875
-21.097889 82.475502 33.692944
-20.662897 85.303596 30.766171
-17.484648 83.526451 31.832615
-18.880552 85.982002 29.746181
-20.351974 88.243042 27.470425
-19.80904 90.905495 24.178394
-19.411938 93.466484 20.711336
-18.961802 95.647209 17.464092
-17.056431 95.749474 16.779432
-20.872136 97.998703 13.481435
-21.773306 97.679535 13.811227
-21.136603 96.92424 15.30471
-23.916087 75.890534 39.184656
-24.639633 75.139752 39.486615
-23.180629 76.555622 38.896062
-23.800642 77.461911 37.856442
-23.916087 75.890534 39.184656
-17.180566 79.392582 35.628417
-18.100709 79.204937 36.16795
-15.702901 88.779839 25.304381
-15.886486 87.537934 26.801006
-16.400507 90.021377 24.176322
-15.702901 88.779839 25.304381
-26.209005 77.634807 35.931714
-25.703508 77.050061 37.022997
-26.106381 79.354591 34.426907
-26.715538 78.247608 34.766118
-26.209005 77.634807 35.931714
-25.488686 80.268669 34.193911
-25.995218 80.88147 33.028315
-26.106381 79.354591 34.426907
-21.822337 93.521633 20.460263
-22.029908 92.323765 22.101242
-21.012458 93.931118 20.045996
-21.664789 94.676132 18.798541
-21.822337 93.521633 20.460263
-20.667523 78.146064 37.68223
-21.504207 77.68224 38.147078
-16.512155 83.562896 31.344092
-16.766468 82.209 32.793474
-22.599363 97.166237 14.252162
-22.852874 96.055866 16.031163
-22.599363 97.166237 14.252162
-21.773306 97.679535 13.811227
-25.171633 76.077576 38.299263
-24.639633 75.139752 39.486615
-25.067974 77.769306 36.868769
-25.703508 77.050061 37.022997
-25.171633 76.077576 38.299263
-24.247871 87.102932 27.743381
-24.378521 85.584564 29.421622
-24.047462 88.508255 26.165923
-24.247871 87.102932 27.743381
-23.495255 87.707943 27.498786
-23.830743 89.903492 24.540457
-24.047462 88.508255 26.165923
-23.092327 90.492088 24.208047
-23.830743 89.903492 24.540457
-22.291301 91.058754 23.74247
-23.092327 90.492088 24.208047
-22.49382 89.679931 25.455751
-21.4314 91.511608 23.348947
-22.029908 92.323765 22.101242
-22.291301 91.058754 23.74247
-19.019845 79.027137 36.59631
-19.857745 78.627464 37.159042
-18.831919 80.450191 35.23914
-19.019845 79.027137 36.59631
-18.100709 79.204937 36.16795
-16.062177 86.210572 28.370517
-16.283507 84.895927 29.862461
-16.85166 87.519875 27.299843
-16.062177 86.210572 28.370517
-15.886486 87.537934 26.801006
-17.124783 91.254829 22.952649
-17.400244 90.080689 24.506659
-16.400507 90.021377 24.176322
-16.806045 92.425396 21.290089
-17.805783 92.484706 21.620426
-17.124783 91.254829 22.952649
-16.540833 93.61684 19.597192
-16.806045 92.425396 21.290089
-25.874645 82.478172 31.502245
-25.995218 80.88147 33.028315
-25.21945 83.331028 31.28116
-25.874645 82.478172 31.502245
-24.519554 84.045681 31.026049
-25.21945 83.331028 31.28116
-24.677627 82.5102 32.540209
-23.836699 84.763737 30.680672
-24.378521 85.584564 29.421622
-24.519554 84.045681 31.026049
-19.971027 98.259491 13.188524
-19.304459 97.515762 14.451304
-22.256221 95.43586 17.423655
-22.852874 96.055866 16.031163
-21.446342 95.845345 17.009388
-22.256221 95.43586 17.423655
-21.664789 94.676132 18.798541
-22.351493 77.090942 38.574064
-23.180629 76.555622 38.896062
-22.217897 78.718296 37.140861
-22.351493 77.090942 38.574064
-21.504207 77.68224 38.147078
-20.560833 79.790993 36.190687
-20.667523 78.146064 37.68223
-19.857745 78.627464 37.159042
-16.980536 80.75977 34.282556
-17.180566 79.392582 35.628417
-17.698715 82.077221 33.321697
-16.980536 80.75977 34.282556
-16.766468 82.209 32.793474
-17.256 84.859482 30.350985
-16.512155 83.562896 31.344092
-16.283507 84.895927 29.862461
-18.667643 96.717663 15.695891
-19.304459 97.515762 14.451304
-19.598618 96.445309 16.219505
-17.714958 96.768795 15.353561
-18.667643 96.717663 15.695891
-18.009116 95.698341 17.121762
-16.737671 96.680459 15.191447
-17.714958 96.768795 15.353561
-16.325526 94.66394 18.007976
-17.271738 94.702373 18.368648
-16.540833 93.61684 19.597192
-16.010973 95.725884 16.32326
-16.325526 94.66394 18.007976
-16.737671 96.680459 15.191447
-16.010973 95.725884 16.32326
-20.872136 97.998703 13.481435
-19.971027 98.259491 13.188524
3 0 34 36
3 36 35 8
3 34 35 36
3 37 9 38
3 39 11 40
3 41 40 9
3 39 40 41
3 1 13 12
3 1 14 13
3 42 16 43
3 44 18 45
3 47 46 18
3 2 48 49
3 2 50 52
3 50 51 52
3 2 53 55
3 53 20 54
3 53 54 55
3 3 21 10
3 3 22 21
3 4 56 57
3 4 58 60
3 58 23 59
3 58 59 60
3 61 24 62
3 5 25 15
3 5 26 25
3 63 27 64
3 6 28 17
3 6 29 28
3 6 30 29
3 7 31 19
3 7 32 31
3 7 33 32
3 8 65 66
3 68 67 8
3 9 69 70
3 9 71 73
3 71 2 72
3 71 72 73
3 9 10 2
3 11 10 9
3 11 3 10
3 12 74 75
3 13 76 78
3 78 77 12
3 76 77 78
3 13 79 80
3 13 81 82
3 14 83 85
3 85 84 13
3 83 84 85
3 14 86 88
3 86 4 87
3 86 87 88
3 89 15 90
3 16 91 93
3 91 15 92
3 91 92 93
3 16 5 15
3 94 17 95
3 18 96 98
3 96 17 97
3 96 97 98
3 18 6 17
3 18 19 6
3 99 19 100
3 101 100 18
3 99 100 101
3 102 7 103
3 104 103 19
3 102 103 104
3 106 105 7
3 20 107 108
3 20 109 110
3 10 20 2
3 21 20 10
3 21 111 113
3 113 112 20
3 111 112 113
3 21 114 116
3 114 12 115
3 114 115 116
3 22 12 21
3 22 1 12
3 118 117 0
3 119 8 120
3 23 121 123
3 121 8 122
3 121 122 123
3 23 0 8
3 124 11 125
3 24 126 128
3 126 11 127
3 126 127 128
3 24 3 11
3 15 129 131
3 129 24 130
3 129 130 131
3 25 24 15
3 25 3 24
3 25 22 3
3 26 22 25
3 26 1 22
3 132 16 133
3 27 134 136
3 134 16 135
3 134 135 136
3 27 5 16
3 17 137 139
3 137 27 138
3 137 138 139
3 28 27 17
3 28 5 27
3 28 26 5
3 29 26 28
3 29 1 26
3 29 14 1
3 30 14 29
3 30 4 14
3 19 30 6
3 31 30 19
3 31 4 30
3 31 23 4
3 32 23 31
3 32 0 23
3 32 140 142
3 142 141 0
3 140 141 142
3 33 143 145
3 145 144 32
3 143 144 145
3 33 146 147
3 148 33 149
3 150 149 7
3 148 149 150
3 151 33 152
3 154 153 33
3 156 155 0
