ply
format ascii 1.0
element vertex 96
property float x
property float y
property float z
element face 80
property list uchar int vertex_index
end_header
21.678465 -61.216187 -22.449066
23.400646 -51.765026 -18.603907
22.236986 -56.401718 -20.641214
22.952147 -57.362556 -17.185793
22.295982 -61.916527 -19.107161
21.880541 -58.955822 -21.582985
21.759766 -55.810242 -22.289986
21.386349 -58.164059 -23.314629
22.540543 -59.634197 -18.15189
22.483257 -62.184807 -17.453663
22.766785 -54.02755 -19.568815
22.897108 -51.002113 -20.268705
22.250095 -53.418587 -21.287924
23.186405 -54.625473 -17.840336
22.643188 -56.737835 -18.936117
22.262434 -59.287651 -19.842857
22.028135 -61.669128 -20.825319
21.963045 -64.051598 -21.558155
21.437717 -60.830811 -23.265453
21.291658 -59.304747 -23.698235
21.532407 -59.690123 -22.881847
22.560592 -62.2505 -16.618346
22.629775 -61.027363 -16.944983
23.577675 -50.154194 -18.839475
23.849176 -50.587806 -17.950221
21.701031 -54.17162 -22.637063
21.446988 -55.351481 -23.15385
23.250823 -56.20138 -16.660564
23.087863 -57.509048 -16.348845
23.069276 -55.994014 -17.513064
23.367953 -54.832838 -16.987835
23.250823 -56.20138 -16.660564
22.987863 -49.369539 -20.561386
22.593538 -50.62192 -21.08672
22.118814 -65.543259 -21.129177
22.091572 -64.200069 -20.710752
21.26028 -56.528389 -23.666172
21.446988 -55.351481 -23.15385
21.573057 -56.98715 -22.802307
21.076873 -57.785166 -24.153405
20.950804 -56.149496 -24.504947
21.26028 -56.528389 -23.666172
21.076873 -57.785166 -24.153405
21.291658 -59.304747 -23.698235
22.86422 -58.616237 -16.811048
23.087863 -57.509048 -16.348845
22.658418 -59.752058 -17.294096
22.746345 -58.498376 -17.668841
22.86422 -58.616237 -16.811048
22.5119 -60.909502 -17.802777
22.658418 -59.752058 -17.294096
22.629775 -61.027363 -16.944983
22.270031 -51.830157 -21.596329
22.593538 -50.62192 -21.08672
22.573602 -52.21035 -20.778315
21.946196 -52.975792 -22.136032
22.004931 -54.614415 -21.788955
21.701031 -54.17162 -22.637063
22.270031 -51.830157 -21.596329
21.946196 -52.975792 -22.136032
23.643958 -52.032325 -17.705748
23.849176 -50.587806 -17.950221
23.536838 -53.462549 -17.323963
23.367953 -54.832838 -16.987835
23.293526 -53.19525 -18.222122
23.643958 -52.032325 -17.705748
23.536838 -53.462549 -17.323963
23.325906 -49.772738 -19.671874
23.577675 -50.154194 -18.839475
23.148877 -51.38357 -19.436306
23.325906 -49.772738 -19.671874
22.987863 -49.369539 -20.561386
22.492671 -63.328243 -17.004194
22.560592 -62.2505 -16.618346
22.436318 -63.372146 -17.798729
22.492671 -63.328243 -17.004194
22.342681 -63.238007 -18.625478
22.389619 -62.050667 -18.280412
22.436318 -63.372146 -17.798729
22.25804 -63.132534 -19.485256
22.342681 -63.238007 -18.625478
22.124116 -63.008834 -20.344335
22.162059 -61.792828 -19.96624
22.25804 -63.132534 -19.485256
21.99559 -62.860363 -21.191737
22.124116 -63.008834 -20.344335
22.091572 -64.200069 -20.710752
21.968956 -65.236599 -21.969427
22.118814 -65.543259 -21.129177
21.768235 -63.764994 -22.420511
21.968956 -65.236599 -21.969427
21.625945 -62.347288 -22.865966
21.820755 -62.633893 -22.003611
21.768235 -63.764994 -22.420511
21.437717 -60.830811 -23.265453
21.625945 -62.347288 -22.865966
3 0 7 5
3 0 18 20
3 20 19 7
3 18 19 20
3 21 9 22
3 1 23 24
3 2 12 10
3 26 25 6
3 3 27 28
3 3 29 31
3 29 13 30
3 29 30 31
3 3 14 13
3 4 15 8
3 4 16 15
3 33 32 11
3 34 17 35
3 5 6 2
3 7 6 5
3 7 36 38
3 38 37 6
3 36 37 38
3 7 39 41
3 39 40 41
3 43 42 7
3 44 3 45
3 46 8 47
3 48 47 3
3 46 47 48
3 9 49 51
3 49 8 50
3 49 50 51
3 9 4 8
3 10 11 1
3 12 11 10
3 12 52 54
3 54 53 11
3 52 53 54
3 6 12 2
3 55 12 56
3 57 56 6
3 55 56 57
3 59 58 12
3 60 1 61
3 13 62 63
3 13 64 66
3 64 1 65
3 64 65 66
3 13 10 1
3 14 10 13
3 14 2 10
3 8 14 3
3 15 14 8
3 15 2 14
3 15 5 2
3 16 5 15
3 16 0 5
3 11 67 69
3 69 68 1
3 67 68 69
3 71 70 11
3 72 9 73
3 74 9 75
3 76 4 77
3 78 77 9
3 76 77 78
3 79 4 80
3 81 16 82
3 83 82 4
3 81 82 83
3 17 84 86
3 84 16 85
3 84 85 86
3 17 0 16
3 87 17 88
3 89 17 90
3 91 0 92
3 93 92 17
3 91 92 93
3 95 94 0
