ply
format ascii 1.0
element vertex 119
property float x
property float y
property float z
element face 105
property list uchar int vertex_index
end_header
32.113571 -17.100584 -59.008057
34.668114 -11.356591 -59.116707
28.830105 -14.950172 -61.546738
37.040668 -13.404509 -55.751751
34.857605 -19.433697 -55.986134
34.382202 -27.779234 -52.791004
31.740557 -25.922327 -55.593208
33.450893 -14.005194 -59.239178
33.139454 -10.187976 -60.809769
31.909554 -12.976199 -60.70089
30.321888 -11.895532 -62.00779
30.490187 -16.137774 -60.317783
37.185268 -17.595953 -54.069225
36.131088 -16.393431 -55.862682
36.025879 -20.738588 -54.26413
33.123787 -27.048977 -54.16663
35.953426 -12.198713 -57.512581
34.84108 -15.382644 -57.556198
33.515812 -18.572008 -57.452484
35.832661 -24.903648 -52.648933
34.667114 -23.722582 -54.364014
33.352913 -22.880184 -55.808857
31.946968 -21.492786 -57.343552
30.336588 -24.515476 -56.97345
30.498053 -20.357914 -58.623478
28.895578 -19.244892 -59.8134
37.125383 -19.773447 -53.253725
37.633503 -18.120009 -53.151289
36.545688 -21.344765 -53.351178
36.605574 -19.167271 -54.166678
37.125383 -19.773447 -53.253725
34.487296 -9.233903 -59.934627
35.147198 -9.773812 -59.094014
33.010519 -8.196013 -61.532337
32.395392 -9.488096 -61.566771
28.749688 -13.013348 -62.312534
29.495579 -11.486028 -62.54306
29.575997 -13.422852 -61.777264
28.055525 -14.346964 -62.065807
28.749688 -13.013348 -62.312534
37.451045 -12.058521 -55.506412
37.558633 -13.936157 -54.759678
36.941711 -11.438271 -56.469677
37.451045 -12.058521 -55.506412
36.497047 -12.801611 -56.632166
36.39809 -10.835373 -57.350092
36.941711 -11.438271 -56.469677
34.950258 -28.35091 -51.934984
34.178754 -29.957107 -51.927341
35.107432 -26.341441 -52.719969
35.675488 -26.913117 -51.863948
34.950258 -28.35091 -51.934984
29.52204 -23.994837 -57.560805
29.35798 -25.998593 -56.785883
29.602773 -21.916056 -58.385818
30.41732 -22.436695 -57.798464
29.52204 -23.994837 -57.560805
28.801535 -21.359545 -58.980779
29.696815 -19.801403 -59.218439
29.602773 -21.916056 -58.385818
31.780442 -10.882207 -61.512331
32.395392 -9.488096 -61.566771
32.524504 -11.582088 -60.75533
31.115721 -12.435865 -61.35434
30.98661 -10.341874 -62.165781
31.780442 -10.882207 -61.512331
37.630933 -16.031879 -53.918415
37.633503 -18.120009 -53.151289
37.112968 -15.500231 -54.910488
37.558633 -13.936157 -54.759678
37.630933 -16.031879 -53.918415
33.580467 -29.405127 -52.693569
34.178754 -29.957107 -51.927341
33.37702 -31.582999 -51.829906
32.951259 -29.039998 -53.381382
33.752994 -27.414105 -53.478817
33.580467 -29.405127 -52.693569
32.228363 -28.470548 -54.130993
32.951259 -29.039998 -53.381382
31.536748 -27.907222 -54.844282
32.432172 -26.485652 -54.879919
32.228363 -28.470548 -54.130993
33.722966 -8.649596 -60.781159
34.487296 -9.233903 -59.934627
33.903784 -10.772284 -59.963238
33.722966 -8.649596 -60.781159
33.010519 -8.196013 -61.532337
30.118002 -9.916945 -62.807335
30.98661 -10.341874 -62.165781
30.118002 -9.916945 -62.807335
29.495579 -11.486028 -62.54306
35.789854 -10.194872 -58.29195
36.39809 -10.835373 -57.350092
35.31077 -11.777652 -58.314644
35.147198 -9.773812 -59.094014
35.789854 -10.194872 -58.29195
36.377607 -25.376501 -51.735313
35.675488 -26.913117 -51.863948
36.449079 -23.427295 -52.543579
36.377607 -25.376501 -51.735313
35.92927 -22.821118 -53.456531
36.545688 -21.344765 -53.351178
36.449079 -23.427295 -52.543579
30.805445 -27.390315 -55.47187
31.536748 -27.907222 -54.844282
30.10346 -26.686889 -56.161991
29.35798 -25.998593 -56.785883
31.038573 -25.218902 -56.283329
30.805445 -27.390315 -55.47187
30.10346 -26.686889 -56.161991
28.027093 -20.588054 -59.57772
28.801535 -21.359545 -58.980779
28.094073 -18.507123 -60.402349
28.027093 -20.588054 -59.57772
28.061336 -16.359763 -61.269019
28.862842 -17.097532 -60.680069
28.094073 -18.507123 -60.402349
28.055525 -14.346964 -62.065807
28.061336 -16.359763 -61.269019
3 0 9 7
3 0 11 9
3 26 12 27
3 28 14 29
3 30 29 12
3 28 29 30
3 1 31 32
3 34 33 8
3 2 35 37
3 37 36 10
3 35 36 37
3 2 38 39
3 3 40 41
3 3 42 43
3 3 44 46
3 44 16 45
3 44 45 46
3 4 17 13
3 4 18 17
3 5 47 48
3 5 49 51
3 49 19 50
3 49 50 51
3 5 20 19
3 6 21 15
3 6 22 21
3 52 23 53
3 54 24 55
3 56 55 23
3 54 55 56
3 57 25 58
3 59 58 24
3 57 58 59
3 7 8 1
3 9 8 7
3 9 60 62
3 62 61 8
3 60 61 62
3 9 63 65
3 63 10 64
3 63 64 65
3 11 10 9
3 11 2 10
3 12 66 67
3 12 68 70
3 68 3 69
3 68 69 70
3 12 13 3
3 14 13 12
3 14 4 13
3 71 5 72
3 71 72 73
3 74 15 75
3 76 75 5
3 74 75 76
3 77 15 78
3 79 6 80
3 81 80 15
3 79 80 81
3 8 82 84
3 84 83 1
3 82 83 84
3 86 85 8
3 10 87 88
3 90 89 10
3 16 91 92
3 16 93 95
3 93 1 94
3 93 94 95
3 13 16 3
3 17 16 13
3 17 1 16
3 17 7 1
3 18 7 17
3 18 0 7
3 19 96 97
3 19 98 99
3 19 100 102
3 100 14 101
3 100 101 102
3 20 14 19
3 20 4 14
3 15 20 5
3 21 20 15
3 21 4 20
3 21 18 4
3 22 18 21
3 22 0 18
3 103 6 104
3 23 105 106
3 23 107 109
3 107 6 108
3 107 108 109
3 23 22 6
3 24 22 23
3 24 0 22
3 24 11 0
3 25 11 24
3 25 2 11
3 110 25 111
3 112 25 113
3 114 2 115
3 116 115 25
3 114 115 116
3 118 117 2
