ply
format ascii 1.0
element vertex 120
property float x
property float y
property float z
element face 101
property list uchar int vertex_index
end_header
11.58322 45.422916 53.960278
7.005913 34.673969 55.622032
7.723667 41.629936 53.114834
10.773339 37.818066 56.781925
14.429952 41.210674 57.595078
8.456666 32.664135 57.379272
8.925774 36.306503 56.203167
10.356116 34.121422 58.028389
9.560267 43.580814 53.464615
8.144618 45.291553 51.737812
13.945792 37.178848 59.015976
15.766531 38.850292 59.319027
5.494751 36.468529 53.892765
5.850236 40.023136 52.595844
7.329755 38.149105 54.3727
9.218007 39.943199 54.848919
11.062984 41.55048 55.363552
17.501488 40.41291 59.455235
6.266258 43.499073 51.316196
12.673644 39.632179 57.226124
12.951509 43.32011 55.783695
16.259041 42.946289 57.802197
14.830202 45.071285 56.100536
10.211747 32.508454 58.564619
9.406391 33.392779 57.70383
9.262021 31.77981 58.24006
10.806598 46.293291 53.044779
9.795122 45.37224 52.796948
10.571744 44.501865 53.712446
11.727628 47.372587 53.139639
10.806598 46.293291 53.044779
16.478338 37.755466 60.091492
15.575675 36.918137 59.996666
7.477195 46.264043 50.840496
8.369947 47.210659 50.985779
17.139984 43.637006 57.872158
16.880264 41.679599 58.628716
17.761207 42.370317 58.698678
14.993596 47.023611 55.277552
15.71826 45.990217 56.131017
14.069609 46.086786 55.187847
14.993596 47.023611 55.277552
9.087297 46.227609 51.933546
8.852442 44.436183 52.601214
9.795122 45.37224 52.796948
8.369947 47.210659 50.985779
9.087297 46.227609 51.933546
14.665306 36.082414 59.84514
13.816012 35.331455 59.670212
14.856162 38.01457 59.167502
14.665306 36.082414 59.84514
15.575675 36.918137 59.996666
5.672493 38.245832 53.244304
4.964075 39.240025 52.370908
4.786333 37.462721 53.019369
18.26737 39.138124 60.243865
17.345816 38.536775 60.159596
18.418873 40.969732 59.526705
18.26737 39.138124 60.243865
17.761207 42.370317 58.698678
18.418873 40.969732 59.526705
4.57581 35.694881 53.63248
4.786333 37.462721 53.019369
5.330063 34.712229 54.513729
4.57581 35.694881 53.63248
6.085644 33.814949 55.378362
6.250332 35.571249 54.757398
5.330063 34.712229 54.513729
6.857603 32.971134 56.211134
6.085644 33.814949 55.378362
7.58298 31.966217 57.089754
7.731289 33.669052 56.500652
6.857603 32.971134 56.211134
8.37659 30.891413 58.009752
7.58298 31.966217 57.089754
9.262021 31.77981 58.24006
8.37659 30.891413 58.009752
5.117528 40.984102 51.70173
4.964075 39.240025 52.370908
5.325539 42.722071 51.061906
5.117528 40.984102 51.70173
6.058247 41.761105 51.95602
5.603353 44.556145 50.401262
5.325539 42.722071 51.061906
6.538015 45.367804 50.629688
7.205438 44.395313 51.527004
7.477195 46.264043 50.840496
5.603353 44.556145 50.401262
6.538015 45.367804 50.629688
11.139264 33.031454 58.945556
10.211747 32.508454 58.564619
11.253152 34.93642 58.269474
11.139264 33.031454 58.945556
11.461763 36.784743 57.646242
10.564728 35.969744 57.405157
11.253152 34.93642 58.269474
13.04799 36.465134 58.763267
13.816012 35.331455 59.670212
12.411916 37.691799 57.868341
13.04799 36.465134 58.763267
13.309718 38.405513 58.12105
11.723491 38.725122 57.004024
11.461763 36.784743 57.646242
12.411916 37.691799 57.868341
16.634009 39.631601 59.387131
16.478338 37.755466 60.091492
17.345816 38.536775 60.159596
16.432679 44.927719 56.981848
17.139984 43.637006 57.872158
15.544621 44.008787 56.951366
16.432679 44.927719 56.981848
15.71826 45.990217 56.131017
13.130262 45.211198 55.029426
13.890856 44.195698 55.942115
14.069609 46.086786 55.187847
12.446117 46.262602 54.117718
12.267364 44.371513 54.871987
13.130262 45.211198 55.029426
11.727628 47.372587 53.139639
12.446117 46.262602 54.117718
3 23 7 24
3 25 24 5
3 23 24 25
3 0 26 28
3 28 27 8
3 26 27 28
3 0 29 30
3 31 11 32
3 1 14 12
3 3 15 6
3 3 16 15
3 2 18 13
3 34 33 9
3 4 19 10
3 4 20 19
3 35 21 36
3 37 36 17
3 35 36 37
3 38 22 39
3 41 40 22
3 5 6 1
3 7 6 5
3 7 3 6
3 8 9 2
3 42 9 43
3 44 43 8
3 42 43 44
3 46 45 9
3 47 10 48
3 11 49 51
3 49 10 50
3 49 50 51
3 11 4 10
3 12 52 54
3 52 13 53
3 52 53 54
3 14 13 12
3 14 2 13
3 6 14 1
3 15 14 6
3 15 2 14
3 15 8 2
3 16 8 15
3 16 0 8
3 55 17 56
3 57 17 58
3 60 59 17
3 61 12 62
3 63 12 64
3 65 1 66
3 67 66 12
3 65 66 67
3 68 1 69
3 70 5 71
3 72 71 1
3 70 71 72
3 73 5 74
3 76 75 5
3 13 77 78
3 18 79 81
3 81 80 13
3 79 80 81
3 18 82 83
3 9 18 2
3 84 18 85
3 86 85 9
3 84 85 86
3 88 87 18
3 89 7 90
3 91 7 92
3 93 3 94
3 95 94 7
3 93 94 95
3 10 96 97
3 19 98 100
3 100 99 10
3 98 99 100
3 19 101 103
3 101 3 102
3 101 102 103
3 19 16 3
3 20 16 19
3 20 0 16
3 17 104 106
3 104 11 105
3 104 105 106
3 21 11 17
3 21 4 11
3 107 21 108
3 22 109 111
3 109 21 110
3 109 110 111
3 22 4 21
3 22 20 4
3 112 20 113
3 114 113 22
3 112 113 114
3 115 0 116
3 117 116 20
3 115 116 117
3 119 118 0
