ply
format ascii 1.0
element vertex 378
property float x
property float y
property float z
element face 420
property list uchar int vertex_index
end_header
16.432404 -64.17524 54.93803
11.678028 -75.885155 35.820042
4.670106 -58.680721 49.567585
20.49147 -68.245033 49.833622
18.380379 -75.978767 39.37735
14.339238 -69.500122 46.93486
2.110692 -64.498116 39.853569
15.98154 -83.53714 27.983366
10.890731 -62.018345 53.351788
8.055037 -67.669212 43.143166
18.26668 -66.259018 52.76046
17.45923 -69.539162 48.370213
15.568207 -66.695 51.522911
14.918705 -76.318474 37.641666
17.161051 -79.616432 33.89843
13.787008 -79.894897 31.921806
7.756983 -60.571022 51.49498
9.367559 -64.854622 48.350254
6.32924 -63.176182 46.669785
3.744562 -69.108902 36.384705
21.540104 -74.38279 40.961971
19.529839 -72.156036 44.837795
16.365402 -72.94574 43.211971
13.018601 -72.568825 41.593388
3.302722 -61.310558 44.841393
13.999671 -63.363956 54.51091
9.450603 -57.788517 56.233891
6.109036 -55.930386 54.278427
4.639749 -51.139187 56.734016
12.589016 -66.023926 50.214123
11.08876 -68.795135 45.039532
9.842236 -71.69191 39.76606
5.085143 -66.146446 41.46019
6.773019 -70.696617 37.716133
8.52766 -75.002335 34.021393
17.264593 -65.134422 54.037521
16.93854 -66.6231 52.15398
16.047138 -65.34108 53.452461
17.324144 -63.55529 55.722572
13.341187 -76.092697 36.894279
14.317424 -78.078178 34.784927
12.72064 -77.894867 33.921165
11.107236 -77.680634 32.892879
6.249022 -59.585224 50.688816
7.020667 -61.802212 49.184559
5.474431 -60.95731 48.140423
21.068401 -71.452019 45.356308
20.093483 -70.175491 47.450195
15.968526 -69.638184 47.714577
16.92461 -71.166138 45.949745
15.250311 -71.227173 45.09457
14.740462 -72.998413 42.264549
13.71288 -71.06459 44.274975
20.007986 -75.383087 40.143154
19.411304 -77.254799 37.500988
16.502794 -81.543114 30.968794
18.221245 -81.100464 31.941833
17.654964 -83.131836 28.973831
8.594851 -55.561333 57.419716
7.733644 -56.962761 55.202408
7.04935 -54.631176 56.600178
12.518379 -62.868801 53.909702
13.263254 -64.692093 52.444378
11.656575 -64.066681 51.764019
8.645674 -66.158691 45.828033
10.281526 -66.836487 46.824024
9.557757 -68.330299 44.011551
10.402909 -70.244057 42.33353
8.865372 -69.725021 41.353081
2.771521 -63.023186 42.259857
4.172067 -63.763878 43.177143
3.632219 -65.37075 40.632786
5.207861 -69.812035 37.094978
6.054552 -72.096024 35.174061
7.600712 -72.810463 35.902248
19.390842 -67.320381 51.327785
18.946566 -69.052246 49.145981
18.015371 -67.901855 50.668999
16.508627 -68.136482 50.012142
15.032201 -68.12838 49.296638
16.623911 -76.289703 38.514732
17.624338 -77.770927 36.66296
15.998035 -78.027756 35.760777
15.524218 -79.856697 32.955212
14.875317 -81.745445 30.000572
9.293464 -61.419674 52.339397
10.12611 -63.479935 50.888546
8.551419 -62.700169 50.018517
7.75123 -63.836823 47.671803
7.156419 -65.432716 44.935837
1.543501 -66.141716 37.482212
3.001542 -66.879715 38.178204
22.068514 -72.326141 43.549217
20.639816 -73.387001 42.828854
19.025797 -74.057648 42.17675
18.578142 -70.755157 46.833214
17.944468 -72.61573 44.157188
17.364433 -74.536026 41.278133
15.643588 -74.705345 40.351604
13.927128 -74.4627 39.624069
12.353611 -74.160782 38.796143
3.18239 -57.685677 48.557384
3.956151 -59.93346 47.234764
2.47939 -59.019939 46.189068
1.994005 -60.643177 43.838779
1.307463 -62.014061 41.552662
18.804428 -79.036453 34.941174
16.115211 -62.805408 56.189976
15.380139 -63.893032 54.7812
14.845807 -62.223171 56.192638
13.309369 -61.588451 55.857857
11.784833 -60.859032 55.394093
11.031136 -58.772213 56.772446
10.07387 -59.977947 54.697021
8.48388 -59.154308 53.855518
6.888089 -58.23254 52.933582
5.359908 -57.2393 52.008415
6.324593 -52.149757 57.898441
5.374015 -53.529408 55.601074
4.50279 -54.914963 53.184757
3.876505 -56.354721 50.897739
14.734464 -65.157585 52.960621
14.129432 -66.584511 50.753635
13.439178 -67.919281 48.436275
11.020004 -65.436592 49.43721
11.862854 -67.322723 47.822891
12.652705 -69.209808 45.982849
12.085433 -70.710449 43.371273
11.368999 -72.230507 40.577988
10.763442 -73.831932 37.784592
4.778052 -62.343323 45.623634
5.631723 -64.57196 44.077896
6.485581 -66.804276 42.358986
4.461299 -67.553093 39.012798
5.88597 -68.384827 39.638493
7.309548 -68.989166 40.53371
8.262441 -71.149246 38.782673
9.144264 -73.275574 36.910271
10.078845 -75.419998 34.984585
20.292476 -69.210262 48.641908
20.796411 -69.724742 47.735184
20.995404 -68.759513 48.926897
21.173381 -67.711044 50.111269
20.608137 -67.277714 50.956657
20.995404 -68.759513 48.926897
21.173381 -67.711044 50.111269
16.542821 -84.341972 27.003982
17.379534 -84.13932 27.499214
16.818252 -83.334488 28.478599
15.739921 -84.496952 26.557101
16.542821 -84.341972 27.003982
8.26556 -54.34522 58.115576
9.106205 -54.90106 58.449463
7.492809 -53.880142 57.705807
7.8221 -55.096255 57.009947
8.26556 -54.34522 58.115576
5.770688 -72.997017 33.789142
5.32712 -71.809216 34.781267
6.503349 -73.226566 34.222773
5.770688 -72.997017 33.789142
18.947806 -65.855793 53.117272
18.343024 -65.35519 53.779337
18.828761 -66.789699 52.044123
19.509887 -66.386474 52.400934
18.947806 -65.855793 53.117272
13.479427 -80.768929 30.527513
14.023582 -81.694203 29.566896
14.331163 -80.820171 30.961189
1.949095 -67.295177 36.619024
1.239181 -66.955509 36.339678
22.274076 -71.291546 44.790979
22.735489 -71.673054 43.813789
2.110747 -57.918279 46.798887
2.83089 -58.352808 47.373226
2.462248 -57.251148 47.983046
1.306215 -60.230448 43.378483
1.555651 -59.436315 44.486773
0.962944 -60.91589 42.235424
1.650734 -61.328619 42.695721
1.306215 -60.230448 43.378483
22.004723 -74.822186 39.96903
22.271687 -73.727138 41.306676
19.005795 -80.716057 32.439491
18.793249 -81.75272 30.969576
15.327044 -61.621067 56.948612
15.480509 -62.51429 56.191307
15.961747 -61.912185 56.947281
12.958655 -60.591793 56.557652
13.779384 -60.994932 56.708619
12.196387 -60.227083 56.325769
12.547101 -61.223742 55.625975
12.958655 -60.591793 56.557652
10.240869 -58.280365 56.503169
10.646083 -57.646316 57.456877
9.855816 -57.154469 57.1876
5.06305 -50.397949 57.809253
4.255033 -49.884456 57.238504
5.482171 -51.644472 57.316228
5.905472 -50.903234 58.391466
5.06305 -50.397949 57.809253
3.800604 -54.458166 52.652912
4.158564 -53.781999 53.777264
3.487461 -55.178045 51.509403
4.189647 -55.634842 52.041248
3.800604 -54.458166 52.652912
3.134158 -55.840904 50.35817
3.487461 -55.178045 51.509403
15.961747 -61.912185 56.947281
16.615226 -62.339889 56.726168
8.994567 -76.113942 33.02195
9.77016 -76.322773 33.503546
9.303252 -75.211167 34.502989
17.871755 -64.003327 55.260393
17.869 -63.0459 56.203264
17.84198 -64.792892 54.417867
17.871755 -64.003327 55.260393
17.294369 -64.344856 54.880046
17.765636 -65.69672 53.39899
18.343024 -65.35519 53.779337
17.84198 -64.792892 54.417867
12.394755 -78.82383 32.409287
12.92794 -79.823845 31.409607
13.253824 -78.894882 32.921486
11.588054 -78.716713 31.895143
12.394755 -78.82383 32.409287
11.913938 -77.787751 33.407022
10.816623 -78.583252 31.445868
11.588054 -78.716713 31.895143
21.28387 -70.363007 46.68824
21.774019 -70.854485 45.694525
20.580942 -70.813755 46.403251
21.28387 -70.363007 46.68824
20.796411 -69.724742 47.735184
20.529162 -75.899318 39.197367
21.29522 -75.39917 39.606775
20.774045 -74.882938 40.552563
20.230821 -76.835174 37.876283
20.529162 -75.899318 39.197367
19.709645 -76.318943 38.822071
19.931579 -77.792176 36.59029
20.230821 -76.835174 37.876283
18.510109 -82.768406 29.485575
18.793249 -81.75272 30.969576
17.938105 -82.11615 30.457832
18.263139 -83.779831 28.054511
18.510109 -82.768406 29.485575
18.263139 -83.779831 28.054511
17.379534 -84.13932 27.499214
9.42794 -56.040876 57.780512
9.106205 -54.90106 58.449463
9.022727 -56.674925 56.826803
9.855816 -57.154469 57.1876
9.42794 -56.040876 57.780512
3.870417 -50.666546 56.12688
4.255033 -49.884456 57.238504
4.227044 -51.894112 55.551893
3.870417 -50.666546 56.12688
4.903774 -70.667221 35.741726
4.476211 -69.460468 36.739841
4.172125 -70.315655 35.386589
5.631207 -70.954029 36.134519
4.903774 -70.667221 35.741726
5.32712 -71.809216 34.781267
7.276429 -73.583786 34.586866
6.827632 -72.453243 35.538155
6.503349 -73.226566 34.222773
7.739903 -74.679722 33.646439
8.064186 -73.906399 34.961821
7.276429 -73.583786 34.586866
8.158092 -75.853211 32.573801
7.739903 -74.679722 33.646439
20.057823 -66.815387 51.703739
20.176868 -65.881481 52.776888
19.509887 -66.386474 52.400934
19.941156 -67.782707 50.580703
20.608137 -67.277714 50.956657
20.057823 -66.815387 51.703739
14.550711 -82.682202 28.537009
15.103822 -83.578049 27.528406
15.428429 -82.641292 28.991969
14.550711 -82.682202 28.537009
14.023582 -81.694203 29.566896
13.479427 -80.768929 30.527513
12.92794 -79.823845 31.409607
2.678116 -67.664177 36.96702
2.272521 -66.510716 37.830208
1.949095 -67.295177 36.619024
3.049626 -68.778771 36.07027
3.373052 -67.994309 37.281454
2.678116 -67.664177 36.96702
3.440399 -69.98616 35.074137
3.049626 -68.778771 36.07027
4.172125 -70.315655 35.386589
3.440399 -69.98616 35.074137
22.535891 -72.698814 42.600299
22.735489 -71.673054 43.813789
21.804309 -73.354466 42.255594
22.271687 -73.727138 41.306676
22.535891 -72.698814 42.600299
21.568458 -71.88908 44.452762
22.274076 -71.291546 44.790979
21.774019 -70.854485 45.694525
1.798343 -58.624696 45.661917
2.110747 -57.918279 46.798887
2.236698 -59.831558 45.013924
1.798343 -58.624696 45.661917
1.555651 -59.436315 44.486773
0.62517 -61.68531 41.090134
0.962944 -60.91589 42.235424
1.022844 -62.857872 40.371347
0.62517 -61.68531 41.090134
1.424458 -64.099899 39.521801
1.709077 -63.256088 40.703115
1.022844 -62.857872 40.371347
1.140862 -64.9217 38.336123
1.827096 -65.319916 38.66789
1.424458 -64.099899 39.521801
0.834067 -65.754284 37.202663
1.140862 -64.9217 38.336123
1.239181 -66.955509 36.339678
0.834067 -65.754284 37.202663
22.004723 -74.822186 39.96903
21.29522 -75.39917 39.606775
19.628141 -78.683003 35.310383
19.931579 -77.792176 36.59029
19.107866 -78.145626 36.221081
19.297386 -79.684051 33.939161
18.512836 -80.068458 33.441503
19.005795 -80.716057 32.439491
19.628141 -78.683003 35.310383
19.297386 -79.684051 33.939161
14.862203 -84.537861 26.102141
15.739921 -84.496952 26.557101
15.103822 -83.578049 27.528406
14.547604 -61.312292 56.876009
15.327044 -61.621067 56.948612
14.077588 -61.905811 56.025248
14.547604 -61.312292 56.876009
13.779384 -60.994932 56.708619
11.525563 -58.094932 57.765358
10.646083 -57.646316 57.456877
11.819539 -59.183674 57.014946
11.525563 -58.094932 57.765358
11.407985 -59.815623 56.08327
12.196387 -60.227083 56.325769
11.819539 -59.183674 57.014946
6.787186 -51.446055 58.924473
6.368065 -50.199532 59.417497
5.905472 -50.903234 58.391466
7.130431 -52.639432 58.354939
6.787186 -51.446055 58.924473
6.686972 -53.390467 57.249309
7.492809 -53.880142 57.705807
7.130431 -52.639432 58.354939
4.594177 -53.089222 54.985422
5.006882 -52.334297 56.167545
4.227044 -51.894112 55.551893
4.938403 -54.222185 54.392916
4.594177 -53.089222 54.985422
4.158564 -53.781999 53.777264
2.787101 -56.506382 49.187992
3.529447 -57.020199 49.727562
3.134158 -55.840904 50.35817
2.462248 -57.251148 47.983046
2.787101 -56.506382 49.187992
17.219692 -62.71483 56.492466
17.869 -63.0459 56.203264
17.764547 -62.20544 56.973158
16.719677 -63.180349 55.956274
17.219692 -62.71483 56.492466
16.615226 -62.339889 56.726168
10.284356 -77.453091 32.457693
10.593041 -76.550316 33.938732
9.77016 -76.322773 33.503546
10.816623 -78.583252 31.445868
10.284356 -77.453091 32.457693
8.994567 -76.113942 33.02195
8.158092 -75.853211 32.573801
3 0 37 35
3 0 35 38
3 1 41 39
3 1 42 41
3 2 45 43
3 3 139 141
3 139 47 140
3 139 140 141
3 5 50 48
3 5 52 50
3 3 142 143
3 3 144 145
3 4 54 53
3 7 57 55
3 7 146 148
3 148 147 57
3 146 147 148
3 7 149 150
3 151 58 152
3 153 60 154
3 155 154 58
3 153 154 155
3 8 63 61
3 9 66 64
3 9 68 66
3 6 71 69
3 156 73 157
3 159 158 73
3 10 77 75
3 12 78 36
3 12 79 78
3 10 160 161
3 10 162 164
3 162 75 163
3 162 163 164
3 13 82 80
3 15 83 40
3 15 84 83
3 15 165 167
3 167 166 84
3 165 166 167
3 16 87 85
3 18 88 44
3 18 89 88
3 169 168 90
3 170 92 171
3 21 93 46
3 21 94 93
3 11 95 76
3 22 96 49
3 22 97 96
3 22 98 97
3 23 99 51
3 23 100 99
3 172 103 173
3 174 173 101
3 172 173 174
3 175 104 176
3 177 105 178
3 179 178 104
3 177 178 179
3 20 180 181
3 14 106 81
3 183 182 56
3 184 109 185
3 186 185 107
3 184 185 186
3 187 110 188
3 189 111 190
3 191 190 110
3 189 190 191
3 26 192 194
3 192 112 193
3 192 193 194
3 26 113 112
3 26 114 113
3 27 115 59
3 27 116 115
3 28 195 196
3 28 197 199
3 197 117 198
3 197 198 199
3 28 118 117
3 200 119 201
3 202 120 203
3 204 203 119
3 202 203 204
3 206 205 120
3 207 107 208
3 25 121 108
3 29 122 62
3 29 123 122
3 17 124 86
3 30 125 65
3 30 126 125
3 30 127 126
3 31 128 67
3 31 129 128
3 24 130 102
3 32 131 70
3 32 132 131
3 19 133 91
3 33 134 72
3 33 135 134
3 33 136 135
3 34 137 74
3 34 138 137
3 34 209 211
3 211 210 138
3 209 210 211
3 35 36 10
3 37 36 35
3 37 12 36
3 38 212 213
3 35 214 216
3 216 215 38
3 214 215 216
3 35 217 219
3 217 10 218
3 217 218 219
3 39 40 13
3 41 40 39
3 41 15 40
3 41 220 222
3 222 221 15
3 220 221 222
3 42 223 225
3 225 224 41
3 223 224 225
3 42 226 227
3 43 44 16
3 45 44 43
3 45 18 44
3 228 46 229
3 47 230 232
3 230 46 231
3 230 231 232
3 47 21 46
3 48 49 11
3 50 49 48
3 50 22 49
3 50 51 22
3 52 51 50
3 52 23 51
3 53 233 235
3 235 234 20
3 233 234 235
3 54 236 238
3 238 237 53
3 236 237 238
3 54 239 240
3 55 56 14
3 57 56 55
3 57 241 243
3 243 242 56
3 241 242 243
3 57 244 245
3 247 246 57
3 58 248 249
3 58 250 252
3 250 26 251
3 250 251 252
3 58 59 26
3 60 59 58
3 60 27 59
3 253 28 254
3 256 255 28
3 61 62 25
3 63 62 61
3 63 29 62
3 64 65 17
3 66 65 64
3 66 30 65
3 66 67 30
3 68 67 66
3 68 31 67
3 69 70 24
3 71 70 69
3 71 32 70
3 257 72 258
3 259 258 19
3 257 258 259
3 73 260 262
3 260 72 261
3 260 261 262
3 73 33 72
3 73 74 33
3 263 74 264
3 265 264 73
3 263 264 265
3 266 34 267
3 268 267 74
3 266 267 268
3 270 269 34
3 75 76 3
3 77 76 75
3 77 11 76
3 36 77 10
3 78 77 36
3 78 11 77
3 78 48 11
3 79 48 78
3 79 5 48
3 75 271 273
3 271 272 273
3 75 274 276
3 274 3 275
3 274 275 276
3 80 81 4
3 82 81 80
3 82 14 81
3 40 82 13
3 83 82 40
3 83 14 82
3 83 55 14
3 84 55 83
3 84 7 55
3 84 277 279
3 279 278 7
3 277 278 279
3 281 280 84
3 283 282 15
3 85 86 8
3 87 86 85
3 87 17 86
3 44 87 16
3 88 87 44
3 88 17 87
3 88 64 17
3 89 64 88
3 89 9 64
3 90 91 6
3 284 91 285
3 286 285 90
3 284 285 286
3 287 19 288
3 289 288 91
3 287 288 289
3 290 19 291
3 293 292 19
3 92 294 295
3 92 296 298
3 296 20 297
3 296 297 298
3 46 299 301
3 299 92 300
3 299 300 301
3 93 92 46
3 93 20 92
3 93 53 20
3 94 53 93
3 94 4 53
3 76 47 3
3 95 47 76
3 95 21 47
3 49 95 11
3 96 95 49
3 96 21 95
3 96 94 21
3 97 94 96
3 97 4 94
3 97 80 4
3 98 80 97
3 98 13 80
3 51 98 22
3 99 98 51
3 99 13 98
3 99 39 13
3 100 39 99
3 100 1 39
3 101 102 2
3 103 102 101
3 103 24 102
3 302 103 303
3 104 304 306
3 304 103 305
3 304 305 306
3 104 24 103
3 104 69 24
3 105 69 104
3 105 6 69
3 307 105 308
3 309 105 310
3 311 6 312
3 313 312 105
3 311 312 313
3 314 90 315
3 316 315 6
3 314 315 316
3 317 90 318
3 320 319 90
3 322 321 20
3 81 54 4
3 106 54 81
3 106 323 325
3 325 324 54
3 323 324 325
3 56 106 14
3 326 106 327
3 328 327 56
3 326 327 328
3 330 329 106
3 333 332 7
3 331 332 333
3 107 108 0
3 109 108 107
3 109 25 108
3 334 109 335
3 110 336 338
3 336 109 337
3 336 337 338
3 110 25 109
3 110 61 25
3 111 61 110
3 111 8 61
3 112 339 340
3 112 341 342
3 112 343 345
3 343 111 344
3 343 344 345
3 113 111 112
3 113 8 111
3 113 85 8
3 114 85 113
3 114 16 85
3 59 114 26
3 115 114 59
3 115 16 114
3 115 43 16
3 116 43 115
3 116 2 43
3 117 346 348
3 346 347 348
3 117 349 350
3 117 351 353
3 351 60 352
3 351 352 353
3 118 60 117
3 118 27 60
3 354 118 355
3 356 355 28
3 354 355 356
3 119 357 359
3 357 118 358
3 357 358 359
3 119 27 118
3 119 116 27
3 120 116 119
3 120 2 116
3 120 101 2
3 360 101 361
3 362 361 120
3 360 361 362
3 364 363 101
3 365 38 366
3 365 366 367
3 107 368 370
3 368 38 369
3 368 369 370
3 107 0 38
3 108 37 0
3 121 37 108
3 121 12 37
3 62 121 25
3 122 121 62
3 122 12 121
3 122 79 12
3 123 79 122
3 123 5 79
3 86 63 8
3 124 63 86
3 124 29 63
3 65 124 17
3 125 124 65
3 125 29 124
3 125 123 29
3 126 123 125
3 126 5 123
3 126 52 5
3 127 52 126
3 127 23 52
3 67 127 30
3 128 127 67
3 128 23 127
3 128 100 23
3 129 100 128
3 129 1 100
3 102 45 2
3 130 45 102
3 130 18 45
3 70 130 24
3 131 130 70
3 131 18 130
3 131 89 18
3 132 89 131
3 132 9 89
3 91 71 6
3 133 71 91
3 133 32 71
3 72 133 19
3 134 133 72
3 134 32 133
3 134 132 32
3 135 132 134
3 135 9 132
3 135 68 9
3 136 68 135
3 136 31 68
3 74 136 33
3 137 136 74
3 137 31 136
3 137 129 31
3 138 129 137
3 138 1 129
3 138 42 1
3 371 42 372
3 373 372 138
3 371 372 373
3 375 374 42
3 377 376 34
