ply
format ascii 1.0
element vertex 137
property float x
property float y
property float z
element face 119
property list uchar int vertex_index
end_header
4.485586 14.074 -67.914154
5.193264 24.683403 -67.696266
7.805839 22.812798 -70.49559
6.877362 11.333016 -69.608589
2.84094 26.296265 -64.370979
2.620105 21.305305 -65.465645
4.844291 19.568981 -68.420563
7.315032 17.244371 -70.659836
4.455795 10.946624 -67.375572
5.571274 9.674022 -68.190063
5.65862 12.701612 -68.883423
5.53549 27.073992 -67.008179
4.27 27.703016 -65.368317
3.967481 25.464836 -66.051239
2.64557 23.762403 -64.968193
3.755447 23.107164 -66.562958
3.65845 20.414907 -66.953957
4.999506 22.270979 -68.183655
7.569617 20.17709 -70.74926
7.115584 28.384626 -67.659943
6.807665 26.2131 -68.581329
6.444367 23.733667 -69.198982
3.510202 17.694641 -66.9524
4.708848 16.839224 -68.357475
6.274857 21.144217 -69.618706
6.06612 18.47094 -69.673103
5.887183 15.655773 -69.449387
7.149692 14.395432 -70.317337
4.47069 12.510312 -67.644863
3.916828 11.521357 -66.843926
3.931723 13.085045 -67.113216
7.809527 27.973197 -68.403435
8.024628 28.925362 -67.920208
7.655567 26.887434 -68.864128
6.961625 27.298863 -68.120636
7.809527 27.973197 -68.403435
7.433986 25.668844 -69.28075
7.655567 26.887434 -68.864128
6.778045 9.777773 -69.157997
6.125001 8.948276 -68.448734
6.224318 10.503519 -68.899326
7.533893 10.619573 -69.86227
6.778045 9.777773 -69.157997
2.94748 27.411211 -63.98044
3.662009 28.114587 -64.479109
3.55547 26.99964 -64.869648
2.321152 26.769005 -63.541769
2.94748 27.411211 -63.98044
2.243874 25.471315 -63.88014
2.321152 26.769005 -63.541769
2.058233 21.627782 -64.620672
2.070966 22.85633 -64.371947
2.632837 22.533854 -65.216919
2.030254 20.357132 -64.717848
2.058233 21.627782 -64.620672
2.539597 20.020428 -65.484184
2.030254 20.357132 -64.717848
3.911599 9.965022 -66.511784
3.916828 11.521357 -66.843926
4.419787 9.45646 -66.983933
3.875591 8.474858 -66.120144
3.911599 9.965022 -66.511784
5.013535 10.310323 -67.782817
4.977527 8.820159 -67.391178
4.419787 9.45646 -66.983933
4.902745 27.388504 -66.188248
5.073436 28.445639 -65.724968
5.706181 28.131127 -66.544899
8.395497 20.831183 -71.174164
7.687728 21.494944 -70.622425
8.513608 22.149037 -71.047329
8.22621 19.549525 -71.1903
8.395497 20.831183 -71.174164
8.098917 18.083165 -71.145588
7.442324 18.710731 -70.704548
8.22621 19.549525 -71.1903
8.006686 16.617561 -71.049847
8.098917 18.083165 -71.145588
3.943188 14.546353 -67.314972
3.931723 13.085045 -67.113216
7.3259 29.322629 -67.15068
8.024628 28.925362 -67.920208
6.496227 28.786445 -66.870781
7.3259 29.322629 -67.15068
6.325537 27.729309 -67.334061
5.706181 28.131127 -66.544899
6.496227 28.786445 -66.870781
7.252337 24.429127 -69.589576
6.626016 24.973384 -68.890155
7.433986 25.668844 -69.28075
7.933073 23.968693 -70.237881
7.125103 23.273232 -69.847286
7.252337 24.429127 -69.589576
8.688952 23.448591 -70.855641
7.933073 23.968693 -70.237881
8.513608 22.149037 -71.047329
8.688952 23.448591 -70.855641
5.455151 8.047072 -67.643867
4.977527 8.820159 -67.391178
5.455151 8.047072 -67.643867
6.125001 8.948276 -68.448734
4.455326 28.792036 -64.906341
5.073436 28.445639 -65.724968
4.455326 28.792036 -64.906341
3.662009 28.114587 -64.479109
2.146189 24.204384 -64.178747
2.243874 25.471315 -63.88014
2.743255 25.029334 -64.669586
2.146189 24.204384 -64.178747
2.070966 22.85633 -64.371947
3.058769 19.575229 -66.228341
2.539597 20.020428 -65.484184
3.139278 20.860106 -66.209801
2.984645 18.215096 -66.227562
3.058769 19.575229 -66.228341
3.584326 19.054774 -66.953179
2.958468 16.80431 -66.182495
2.984645 18.215096 -66.227562
3.455496 16.356674 -66.834095
2.958468 16.80431 -66.182495
4.054819 15.928966 -67.536632
3.455496 16.356674 -66.834095
4.109525 17.266933 -67.654937
4.597217 15.456612 -68.135814
3.943188 14.546353 -67.314972
4.054819 15.928966 -67.536632
7.924016 15.193091 -70.878597
7.232362 15.819902 -70.488586
8.006686 16.617561 -71.049847
7.801892 13.693946 -70.616291
7.924016 15.193091 -70.878597
8.576216 14.491606 -71.177551
7.665727 12.162738 -70.261917
7.013527 12.864224 -69.962963
7.801892 13.693946 -70.616291
7.533893 10.619573 -69.86227
7.665727 12.162738 -70.261917
3 0 28 30
3 28 8 29
3 28 29 30
3 0 10 8
3 1 13 11
3 1 15 13
3 1 17 15
3 31 19 32
3 33 20 34
3 35 34 19
3 33 34 35
3 37 36 20
3 3 38 40
3 40 39 9
3 38 39 40
3 3 41 42
3 4 43 45
3 45 44 12
3 43 44 45
3 4 46 47
3 4 48 49
3 5 50 52
3 52 51 14
3 50 51 52
3 5 53 54
3 5 55 56
3 6 22 16
3 6 23 22
3 2 24 21
3 7 25 18
3 7 26 25
3 7 27 26
3 8 57 58
3 8 59 61
3 59 60 61
3 8 62 64
3 62 9 63
3 62 63 64
3 10 9 8
3 10 3 9
3 11 65 67
3 65 12 66
3 65 66 67
3 13 12 11
3 13 4 12
3 13 14 4
3 15 14 13
3 15 5 14
3 15 16 5
3 17 16 15
3 17 6 16
3 68 18 69
3 70 69 2
3 68 69 70
3 71 18 72
3 73 7 74
3 75 74 18
3 73 74 75
3 77 76 7
3 78 0 79
3 19 80 81
3 19 82 83
3 19 84 86
3 84 11 85
3 84 85 86
3 20 11 19
3 20 1 11
3 20 21 1
3 87 21 88
3 89 88 20
3 87 88 89
3 90 2 91
3 92 91 21
3 90 91 92
3 93 2 94
3 96 95 2
3 9 97 98
3 100 99 9
3 12 101 102
3 104 103 12
3 14 105 107
3 107 106 4
3 105 106 107
3 109 108 14
3 16 110 112
3 112 111 5
3 110 111 112
3 22 113 115
3 115 114 16
3 113 114 115
3 22 116 117
3 22 118 119
3 23 120 122
3 122 121 22
3 120 121 122
3 23 123 125
3 123 0 124
3 123 124 125
3 21 17 1
3 24 17 21
3 24 6 17
3 18 24 2
3 25 24 18
3 25 6 24
3 25 23 6
3 26 23 25
3 26 0 23
3 26 10 0
3 27 10 26
3 27 3 10
3 126 27 127
3 128 127 7
3 126 127 128
3 129 27 130
3 129 130 131
3 132 3 133
3 134 133 27
3 132 133 134
3 136 135 3
