ply
format ascii 1.0
element vertex 104
property float x
property float y
property float z
element face 88
property list uchar int vertex_index
end_header
1.44423 100.907555 -28.542181
5.280593 104.559265 -17.699146
-0.068096 101.372604 -17.994732
-1.883642 99.942245 -23.337965
3.362089 103.244049 -23.393318
-3.622553 98.856285 -20.787525
2.521458 103.016357 -17.794071
1.767259 102.569687 -20.613472
4.430274 104.092789 -20.553782
6.050222 104.63369 -23.321138
-1.110627 99.300171 -28.346409
-2.57043 99.612152 -18.156494
3.573378 103.404945 -14.928534
4.208638 102.413971 -28.699276
-2.837345 98.796211 -25.805704
-0.290463 100.570267 -25.917879
-0.999856 100.756645 -20.881685
0.710434 101.670441 -23.426765
2.437822 102.215584 -26.092787
5.321473 103.714584 -26.216627
-4.394509 98.216934 -19.363164
-4.919636 97.814274 -20.623414
-5.691591 97.174923 -19.199053
6.138704 104.962349 -19.031662
5.713545 104.729111 -20.45898
4.855434 104.326027 -19.126464
1.085552 100.184948 -29.729076
-0.191877 99.381256 -29.631191
0.166801 100.103863 -28.444295
2.738113 102.67617 -13.583605
2.257786 102.589932 -14.953636
5.236406 102.371311 -29.998807
5.650721 103.104363 -28.661293
-2.360494 99.369228 -24.571835
-3.732673 98.341103 -24.491891
-3.255822 98.914119 -23.258021
6.969861 104.796864 -24.539475
7.421394 105.243713 -23.113402
-4.125277 98.371139 -21.982802
-4.919636 97.814274 -20.623414
-2.753097 99.399265 -22.062745
-3.255822 98.914119 -23.258021
-4.125277 98.371139 -21.982802
6.523519 104.999561 -21.842658
5.240248 104.363239 -21.93746
5.713545 104.729111 -20.45898
7.421394 105.243713 -23.113402
6.523519 104.999561 -21.842658
-1.576564 98.497776 -29.437584
-2.430326 98.37434 -28.15303
-1.576564 98.497776 -29.437584
-0.191877 99.381256 -29.631191
-3.408829 98.826367 -16.725963
-3.868447 98.594867 -18.047649
-2.147635 99.791816 -16.745337
-3.408829 98.826367 -16.725963
-0.896469 100.672043 -16.664455
-1.319263 100.492378 -18.075613
-2.147635 99.791816 -16.745337
0.437049 101.573761 -16.486735
-0.896469 100.672043 -16.664455
1.731826 102.395637 -16.386404
1.226681 102.19448 -17.894402
0.437049 101.573761 -16.486735
3.047418 103.210651 -16.361303
1.731826 102.395637 -16.386404
2.257786 102.589932 -14.953636
3.802938 101.681034 -29.934988
2.420735 100.927826 -29.85644
2.826434 101.660763 -28.620728
3.802938 101.681034 -29.934988
5.236406 102.371311 -29.998807
-4.218093 97.733799 -25.626991
-3.732673 98.341103 -24.491891
-3.293685 98.12236 -26.882678
-4.218093 97.733799 -25.626991
-1.973986 99.048191 -27.076056
-2.430326 98.37434 -28.15303
-3.293685 98.12236 -26.882678
-3.096491 99.234218 -19.472009
-4.394509 98.216934 -19.363164
-3.868447 98.594867 -18.047649
6.207138 103.754669 -27.419968
5.650721 103.104363 -28.661293
4.765055 103.064278 -27.457952
6.605486 104.337311 -25.987219
5.685847 104.174137 -24.768883
6.969861 104.796864 -24.539475
6.207138 103.754669 -27.419968
6.605486 104.337311 -25.987219
4.054676 103.45047 -13.416837
2.738113 102.67617 -13.583605
4.826104 104.073246 -14.752046
4.054676 103.45047 -13.416837
5.307403 104.118771 -13.240349
5.679712 104.650406 -16.137352
4.426985 103.982105 -16.31384
4.826104 104.073246 -14.752046
6.587924 105.179573 -17.495716
5.679712 104.650406 -16.137352
6.138704 104.962349 -19.031662
6.587924 105.179573 -17.495716
1.085552 100.184948 -29.729076
2.420735 100.927826 -29.85644
3 20 5 21
3 20 21 22
3 1 8 6
3 1 23 25
3 25 24 8
3 23 24 25
3 0 26 28
3 28 27 10
3 26 27 28
3 29 12 30
3 32 31 13
3 3 33 35
3 33 14 34
3 33 34 35
3 3 15 14
3 2 16 11
3 4 17 7
3 4 18 17
3 4 19 18
3 37 36 9
3 5 38 39
3 5 40 42
3 40 3 41
3 40 41 42
3 6 7 2
3 8 7 6
3 8 4 7
3 8 9 4
3 43 9 44
3 45 44 8
3 43 44 45
3 47 46 9
3 10 48 49
3 51 50 10
3 52 11 53
3 54 11 55
3 56 2 57
3 58 57 11
3 56 57 58
3 59 2 60
3 61 6 62
3 63 62 2
3 61 62 63
3 12 64 66
3 64 6 65
3 64 65 66
3 12 1 6
3 13 67 69
3 69 68 0
3 67 68 69
3 71 70 13
3 14 72 73
3 14 74 75
3 14 76 78
3 76 10 77
3 76 77 78
3 15 10 14
3 15 0 10
3 11 79 81
3 79 5 80
3 79 80 81
3 16 5 11
3 16 3 5
3 7 16 2
3 17 16 7
3 17 3 16
3 17 15 3
3 18 15 17
3 18 0 15
3 18 13 0
3 19 13 18
3 19 82 84
3 84 83 13
3 82 83 84
3 9 19 4
3 85 19 86
3 87 86 9
3 85 86 87
3 89 88 19
3 90 12 91
3 92 12 93
3 92 93 94
3 95 1 96
3 97 96 12
3 95 96 97
3 98 1 99
3 101 100 1
3 103 102 0
