ply
format ascii 1.0
element vertex 206
property float x
property float y
property float z
element face 203
property list uchar int vertex_index
end_header
-14.461926 -37.684673 -31.60664
-21.414686 -44.609932 -20.934381
-18.20752 -47.9744 -26.23209
-19.024477 -36.995758 -26.068794
-20.285074 -41.054153 -23.573526
-21.331852 -36.277668 -23.335026
-16.313063 -42.887398 -29.143559
-16.703354 -48.825539 -29.008694
-14.497495 -43.310581 -31.828531
-19.747822 -52.296391 -23.178526
-19.726803 -46.359829 -23.542246
-18.348915 -42.286186 -26.201212
-16.692936 -37.491707 -28.869761
-18.598183 -53.901291 -26.079086
-17.352793 -55.226883 -29.075733
-21.791363 -37.93544 -22.261726
-15.399191 -40.21529 -30.382389
-15.369299 -42.909 -30.515291
-14.267151 -40.308304 -31.905655
-13.224238 -40.284054 -33.331291
-13.271041 -37.643181 -33.109188
-21.169771 -47.306866 -20.684996
-20.39086 -48.391689 -22.015455
-20.511677 -45.737732 -22.247477
-19.675491 -39.015839 -24.841257
-19.280407 -41.564472 -24.932091
-18.594637 -39.504807 -26.196165
-17.585287 -39.911659 -27.494249
-17.8515 -37.276409 -27.469843
-19.025873 -50.150982 -24.712029
-19.126862 -52.905552 -24.699474
-18.291239 -50.702911 -26.262653
-15.901281 -49.258873 -30.47345
-16.954227 -51.942314 -29.091892
-21.789347 -41.923893 -21.09049
-20.827066 -43.087223 -22.293118
-21.246975 -40.327633 -22.359158
-20.759981 -38.443581 -23.519991
-20.251902 -36.640984 -24.613415
-17.327513 -45.275162 -27.653221
-17.442654 -48.30669 -27.639412
-16.471994 -45.820679 -29.056816
-15.623482 -46.100319 -30.447001
-14.668897 -46.108089 -31.954475
-13.381064 -43.062782 -33.441982
-19.693048 -49.357285 -23.337734
-18.940317 -47.174927 -24.895828
-19.9217 -43.686409 -23.608946
-19.069723 -44.234013 -24.900324
-18.19297 -44.984974 -26.26166
-17.361866 -42.627998 -27.619337
-16.518526 -40.274891 -28.890738
-15.593947 -37.627205 -30.208632
-19.421455 -56.128521 -24.508331
-18.932062 -57.064636 -26.018909
-17.667038 -51.552795 -27.634098
-17.988943 -54.584671 -27.579657
-18.369772 -57.557789 -27.531097
-22.025377 -46.256817 -19.335556
-16.046506 -50.793314 -30.528793
-15.440342 -49.221455 -31.239521
-21.747649 -39.948499 -21.740671
-21.518161 -41.125763 -21.724824
-22.018835 -40.746629 -21.106336
-12.679938 -40.162699 -34.079855
-12.674119 -38.889099 -33.964012
-19.801792 -53.742939 -23.168605
-20.051307 -53.229475 -22.434617
-17.577628 -56.787503 -29.051832
-18.086118 -57.952956 -28.279514
-17.861283 -56.392336 -28.303415
-22.311493 -46.97983 -18.507981
-21.875699 -47.721388 -19.191726
-22.277583 -37.590795 -21.699046
-22.019843 -38.752403 -21.691955
-22.06644 -36.914043 -22.199078
-22.277583 -37.590795 -21.699046
-21.836685 -36.085157 -22.735727
-21.561608 -37.106554 -22.798376
-22.06644 -36.914043 -22.199078
-12.69752 -37.568663 -33.852961
-12.674119 -38.889099 -33.964012
-13.24764 -38.963617 -33.22024
-20.780316 -47.849277 -21.350226
-20.674165 -49.28273 -21.267647
-21.06362 -48.740319 -20.602418
-16.572978 -52.135035 -29.838014
-16.427754 -50.600594 -29.782671
-16.046506 -50.793314 -30.528793
-16.772261 -53.777319 -29.829935
-17.15351 -53.584598 -29.083813
-16.572978 -52.135035 -29.838014
-16.974193 -55.336506 -29.840047
-16.772261 -53.777319 -29.829935
-21.519169 -39.131536 -22.310442
-21.747649 -39.948499 -21.740671
-22.019843 -38.752403 -21.691955
-14.82415 -47.646062 -31.980033
-15.440342 -49.221455 -31.239521
-15.285089 -47.683481 -31.213963
-14.193703 -46.178922 -32.703046
-14.82415 -47.646062 -31.980033
-13.549786 -44.656269 -33.4468
-14.193703 -46.178922 -32.703046
-14.02498 -44.585436 -32.698228
-12.8707 -43.093109 -34.197409
-13.549786 -44.656269 -33.4468
-12.758351 -41.552063 -34.1352
-13.302651 -41.673418 -33.386637
-12.679938 -40.162699 -34.079855
-12.8707 -43.093109 -34.197409
-12.758351 -41.552063 -34.1352
-20.024418 -51.753369 -22.535145
-20.051307 -53.229475 -22.434617
-20.345937 -49.801018 -21.953609
-20.674165 -49.28273 -21.267647
-19.997031 -50.283816 -22.614749
-20.345937 -49.801018 -21.953609
-20.041954 -48.874487 -22.676595
-19.720435 -50.826838 -23.25813
-20.024418 -51.753369 -22.535145
-19.997031 -50.283816 -22.614749
-19.491312 -54.047519 -23.929079
-19.801792 -53.742939 -23.168605
-19.437342 -52.600971 -23.939
-19.638608 -55.659004 -23.833507
-19.491312 -54.047519 -23.929079
-19.274158 -54.517037 -24.603902
-19.790689 -57.271801 -23.71163
-19.638608 -55.659004 -23.833507
-19.592794 -57.632898 -24.434573
-19.790689 -57.271801 -23.71163
-19.348098 -58.100956 -25.189862
-19.592794 -57.632898 -24.434573
-19.176758 -56.596578 -25.26362
-19.135833 -58.547062 -25.953912
-19.348098 -58.100956 -25.189862
-18.854689 -58.793639 -26.710006
-19.135833 -58.547062 -25.953912
-18.650917 -57.311212 -26.775003
-18.63092 -59.268849 -27.469414
-18.854689 -58.793639 -26.710006
-18.63092 -59.268849 -27.469414
-18.086118 -57.952956 -28.279514
-17.577628 -56.787503 -29.051832
-16.974193 -55.336506 -29.840047
-21.447896 -48.246412 -19.866446
-21.06362 -48.740319 -20.602418
-21.597574 -46.781841 -20.010276
-21.447896 -48.246412 -19.866446
-21.875699 -47.721388 -19.191726
-22.492741 -45.559255 -18.705464
-22.311493 -46.97983 -18.507981
-22.193894 -44.862385 -19.497652
-22.492741 -45.559255 -18.705464
-21.888548 -44.038943 -20.297064
-21.720031 -45.433374 -20.134968
-22.193894 -44.862385 -19.497652
-22.075879 -42.695923 -20.375119
-21.602016 -43.266913 -21.012435
-21.888548 -44.038943 -20.297064
-22.304773 -41.38996 -20.455575
-22.075879 -42.695923 -20.375119
-22.018835 -40.746629 -21.106336
-22.304773 -41.38996 -20.455575
-21.721347 -35.225988 -23.144678
-21.836685 -36.085157 -22.735727
-21.145077 -35.371037 -23.811886
-21.721347 -35.225988 -23.144678
-20.605103 -35.552695 -24.45108
-20.791877 -36.459326 -23.974221
-21.145077 -35.371037 -23.811886
-19.987018 -35.638817 -25.169837
-20.605103 -35.552695 -24.45108
-19.373306 -35.816204 -25.897526
-19.63819 -36.818371 -25.341105
-19.987018 -35.638817 -25.169837
-18.73644 -35.8938 -26.62671
-19.373306 -35.816204 -25.897526
-18.149951 -36.034126 -27.327235
-18.437989 -37.136083 -26.769319
-18.73644 -35.8938 -26.62671
-17.53974 -36.082813 -28.022128
-18.149951 -36.034126 -27.327235
-16.960458 -36.190462 -28.722087
-17.272218 -37.384058 -28.169802
-17.53974 -36.082813 -28.022128
-16.309293 -36.207825 -29.464517
-16.960458 -36.190462 -28.722087
-15.759799 -36.275574 -30.133952
-16.143442 -37.559456 -29.539197
-16.309293 -36.207825 -29.464517
-15.124626 -36.409691 -30.849746
-15.759799 -36.275574 -30.133952
-14.558616 -36.438425 -31.54875
-15.027936 -37.655939 -30.907636
-15.124626 -36.409691 -30.849746
-13.894573 -36.405653 -32.329252
-14.558616 -36.438425 -31.54875
-13.299131 -36.384907 -33.080527
-13.866484 -37.663927 -32.357914
-13.894573 -36.405653 -32.329252
-12.701435 -36.303657 -33.80546
-13.299131 -36.384907 -33.080527
-12.69752 -37.568663 -33.852961
-12.701435 -36.303657 -33.80546
3 0 18 16
3 0 20 18
3 1 23 21
3 3 26 24
3 3 28 26
3 2 31 29
3 60 59 32
3 61 36 62
3 63 62 34
3 61 62 63
3 5 37 15
3 5 38 37
3 6 41 39
3 8 42 17
3 8 43 42
3 8 44 43
3 65 64 19
3 10 45 22
3 10 46 45
3 4 47 35
3 11 48 25
3 11 49 48
3 11 50 49
3 12 51 27
3 12 52 51
3 9 66 67
3 13 53 30
3 13 54 53
3 7 55 40
3 14 56 33
3 14 57 56
3 14 68 70
3 70 69 57
3 68 69 70
3 71 58 72
3 73 15 74
3 75 15 76
3 77 5 78
3 79 78 15
3 77 78 79
3 16 17 6
3 18 17 16
3 18 8 17
3 18 19 8
3 20 19 18
3 20 80 82
3 82 81 19
3 80 81 82
3 21 83 85
3 83 22 84
3 83 84 85
3 23 22 21
3 23 10 22
3 24 25 4
3 26 25 24
3 26 11 25
3 26 27 11
3 28 27 26
3 28 12 27
3 29 30 9
3 31 30 29
3 31 13 30
3 32 33 7
3 86 33 87
3 88 87 32
3 86 87 88
3 89 14 90
3 91 90 33
3 89 90 91
3 93 92 14
3 34 35 1
3 36 35 34
3 36 4 35
3 15 94 96
3 94 36 95
3 94 95 96
3 37 36 15
3 37 4 36
3 37 24 4
3 38 24 37
3 38 3 24
3 39 40 2
3 41 40 39
3 41 7 40
3 17 41 6
3 42 41 17
3 42 7 41
3 42 32 7
3 43 32 42
3 43 97 99
3 99 98 32
3 97 98 99
3 43 100 101
3 44 102 104
3 104 103 43
3 102 103 104
3 44 105 106
3 19 44 8
3 107 44 108
3 109 108 19
3 107 108 109
3 111 110 44
3 112 9 113
3 22 114 115
3 45 116 118
3 118 117 22
3 116 117 118
3 45 119 121
3 119 9 120
3 119 120 121
3 45 29 9
3 46 29 45
3 46 2 29
3 35 23 1
3 47 23 35
3 47 10 23
3 25 47 4
3 48 47 25
3 48 10 47
3 48 46 10
3 49 46 48
3 49 2 46
3 49 39 2
3 50 39 49
3 50 6 39
3 27 50 11
3 51 50 27
3 51 6 50
3 51 16 6
3 52 16 51
3 52 0 16
3 30 122 124
3 124 123 9
3 122 123 124
3 53 125 127
3 127 126 30
3 125 126 127
3 53 128 129
3 53 130 131
3 54 132 134
3 134 133 53
3 132 133 134
3 54 135 136
3 40 31 2
3 55 31 40
3 55 13 31
3 33 55 7
3 56 55 33
3 56 13 55
3 56 54 13
3 57 54 56
3 57 137 139
3 139 138 54
3 137 138 139
3 57 140 141
3 143 142 57
3 145 144 14
3 146 21 147
3 58 148 150
3 148 21 149
3 148 149 150
3 58 1 21
3 151 58 152
3 153 58 154
3 155 1 156
3 157 156 58
3 155 156 157
3 158 34 159
3 160 159 1
3 158 159 160
3 161 34 162
3 164 163 34
3 165 5 166
3 167 5 168
3 169 38 170
3 171 170 5
3 169 170 171
3 172 38 173
3 174 3 175
3 176 175 38
3 174 175 176
3 177 3 178
3 179 28 180
3 181 180 3
3 179 180 181
3 182 28 183
3 184 12 185
3 186 185 28
3 184 185 186
3 187 12 188
3 189 52 190
3 191 190 12
3 189 190 191
3 192 52 193
3 194 0 195
3 196 195 52
3 194 195 196
3 197 0 198
3 199 20 200
3 201 200 0
3 199 200 201
3 202 20 203
3 205 204 20
