ply
format ascii 1.0
element vertex 331
property float x
property float y
property float z
element face 352
property list uchar int vertex_index
end_header
12.478655 -47.428043 65.574913
10.853793 -37.379246 68.559677
17.015711 -30.723555 71.735626
18.231579 -40.954174 69.235191
14.69006 -56.870785 60.655956
7.936269 -53.129108 58.811436
19.510447 -50.830311 64.663269
10.018279 -32.296524 69.203278
13.210488 -29.227009 70.964294
14.061083 -34.075321 70.521507
13.569278 -52.253834 63.359028
11.325616 -55.194225 60.070999
10.115498 -50.51738 62.524101
15.37199 -44.299522 67.829086
18.834322 -46.071259 67.136925
16.174751 -49.428185 65.606544
17.082218 -54.169426 62.998779
11.60846 -42.551586 67.283546
8.823862 -45.507172 64.422073
20.39797 -32.041473 71.476814
20.951933 -37.31424 69.914566
17.602711 -35.632572 70.825378
14.540233 -39.155506 69.433479
15.808282 -61.018963 57.704586
12.607941 -59.595135 57.257446
21.347628 -42.243301 67.961082
17.933725 -58.641098 59.942913
9.657459 -29.92576 69.368813
8.094339 -31.601 68.282234
11.338125 -28.445066 70.312271
11.663272 -30.88213 70.16745
13.014209 -49.771549 64.578651
11.881118 -51.488346 63.020416
11.154855 -48.973431 64.101776
13.88667 -45.809517 66.843369
15.626675 -46.889503 66.764778
14.352724 -48.390678 65.768257
14.818931 -50.962635 64.52636
11.137199 -39.919727 67.969154
9.690183 -41.486115 66.679596
9.25404 -38.974094 67.265373
18.808329 -31.434774 71.739502
18.972761 -33.936562 71.218048
17.365141 -33.023335 71.380501
12.344261 -35.812584 69.577049
14.252918 -36.47707 70.065048
12.797435 -38.319321 69.131393
13.061337 -40.877033 68.45385
15.191581 -59.05788 59.138313
14.2494 -60.401413 57.55938
13.651821 -58.328087 59.024517
9.61756 -54.240788 59.47921
10.261029 -56.52042 58.141308
7.602786 -46.962971 62.711555
19.568209 -38.964138 69.741058
21.157667 -39.718491 69.01757
19.830875 -41.520363 68.786888
19.174068 -48.402393 65.984871
20.481045 -46.572083 66.467361
20.855101 -49.06245 65.106163
15.891892 -55.509354 61.975769
17.487728 -56.498398 61.49004
16.266991 -57.788757 60.432243
16.794348 -59.87973 58.900528
10.418554 -34.84922 68.932266
8.922039 -36.50087 67.755219
8.626163 -34.012512 68.142784
6.717171 -33.125309 67.146507
15.227751 -29.797535 71.511787
15.549167 -32.424999 71.202896
13.713937 -31.657307 70.823273
12.035583 -33.260529 69.952545
14.110575 -54.536942 62.097202
13.075321 -56.085518 60.495441
12.406111 -53.759129 61.815922
10.680036 -52.881096 61.336876
8.993317 -51.901966 60.715485
16.710608 -42.736744 68.593399
18.447296 -43.522812 68.257782
17.119181 -45.280342 67.600494
17.394876 -47.732807 66.505257
17.860758 -50.235184 65.240959
18.283594 -52.65094 63.87455
16.677618 -51.822243 64.363167
15.398443 -53.265293 63.315422
12.067972 -44.955959 66.53109
10.685493 -46.332832 65.208481
10.184985 -44.042004 65.961716
21.854265 -30.031796 71.542015
22.080082 -32.540104 70.871613
22.227577 -35.102646 70.078606
20.769035 -34.595531 70.771851
19.322493 -36.400261 70.556793
17.792866 -38.323841 70.099922
15.923082 -34.897648 70.801674
16.049955 -37.384018 70.225945
16.419531 -40.045631 69.49633
15.039695 -41.631454 68.756134
13.603518 -43.427547 67.729187
12.01999 -57.417652 58.75827
9.419018 -48.006496 63.530037
8.304234 -49.468136 61.788742
7.249779 -50.742352 59.950504
22.449047 -37.767563 69.063545
22.512407 -40.350483 68.047554
22.800034 -42.753662 66.84333
20.116426 -44.051941 67.702774
21.663071 -44.847187 66.688225
18.643324 -54.967949 62.427479
18.171904 -60.679729 58.321301
17.11524 -61.874371 57.26236
8.636261 -29.582403 68.867558
9.454076 -28.795305 69.392632
10.294408 -28.054958 69.864361
11.034103 -27.283711 70.271434
9.990386 -26.893603 69.823524
9.454076 -28.795305 69.392632
10.497792 -29.185413 69.840542
10.294408 -28.054958 69.864361
17.748017 -29.796621 71.935028
16.86352 -29.478459 71.872493
17.91202 -31.079165 71.737564
18.644326 -30.15223 71.936966
17.748017 -29.796621 71.935028
8.26556 -54.34522 58.115576
9.106205 -54.90106 58.449463
8.776915 -53.684948 59.145323
7.492809 -53.880142 57.705807
8.26556 -54.34522 58.115576
20.277114 -51.230294 64.158205
20.949441 -50.346363 64.379652
20.182774 -49.946381 64.884716
19.708945 -52.0988 63.889273
20.277114 -51.230294 64.158205
6.455816 -31.949056 67.202869
7.405755 -32.363155 67.714371
7.1444 -31.186901 67.770733
5.719765 -32.630036 66.556126
6.455816 -31.949056 67.202869
13.965618 -28.33227 71.291279
12.961118 -27.908487 70.988743
14.219119 -29.512272 71.23804
14.974249 -28.617534 71.565025
13.965618 -28.33227 71.291279
9.024424 -42.227629 65.965874
8.760105 -40.960138 66.277302
8.212873 -37.252322 67.104394
7.978343 -36.041048 67.276707
21.126117 -31.036635 71.509415
21.029983 -29.730698 71.772961
20.301835 -30.735537 71.74036
15.327044 -61.621067 56.948612
15.961747 -61.912185 56.947281
12.958655 -60.591793 56.557652
13.779384 -60.994932 56.708619
13.42867 -59.998274 57.408413
12.196387 -60.227083 56.325769
12.958655 -60.591793 56.557652
10.646083 -57.646316 57.456877
9.855816 -57.154469 57.1876
7.446604 -48.960904 61.335218
7.95351 -48.215553 62.250148
7.09588 -47.708321 61.796625
6.919376 -49.598011 60.4161
7.777006 -50.105244 60.869623
7.446604 -48.960904 61.335218
21.8484 -46.070501 66.008965
21.072058 -45.709635 66.577793
21.257388 -46.932949 65.898533
22.375142 -45.094303 66.067951
21.8484 -46.070501 66.008965
18.496984 -57.918413 60.406685
18.273986 -56.847063 61.180249
17.710726 -57.569748 60.716476
18.671727 -58.95861 59.602074
18.496984 -57.918413 60.406685
18.052815 -59.660414 59.132107
18.790816 -59.977926 58.791268
18.671727 -58.95861 59.602074
15.961747 -61.912185 56.947281
16.615226 -62.339889 56.726168
16.461761 -61.446667 57.483473
7.854702 -30.420023 68.324268
8.875899 -30.76338 68.825524
8.636261 -29.582403 68.867558
7.1444 -31.186901 67.770733
7.854702 -30.420023 68.324268
12.024936 -27.517516 70.662731
11.034103 -27.283711 70.271434
12.274306 -28.836037 70.638283
12.961118 -27.908487 70.988743
12.024936 -27.517516 70.662731
8.542033 -39.704128 66.57019
8.760105 -40.960138 66.277302
9.472112 -40.230104 66.972485
19.507015 -30.432187 71.871704
18.644326 -30.15223 71.936966
19.60315 -31.738124 71.608158
20.301835 -30.735537 71.74036
19.507015 -30.432187 71.871704
9.42794 -56.040876 57.780512
9.939294 -55.380604 58.810259
9.106205 -54.90106 58.449463
9.855816 -57.154469 57.1876
9.42794 -56.040876 57.780512
7.317896 -45.730683 63.128469
8.213324 -46.235072 63.566814
7.928434 -45.002783 63.983728
6.770144 -46.509051 62.220701
7.317896 -45.730683 63.128469
7.09588 -47.708321 61.796625
6.770144 -46.509051 62.220701
21.444415 -48.178133 65.217934
21.257388 -46.932949 65.898533
20.668073 -47.817267 65.786762
21.57524 -49.423027 64.497658
21.444415 -48.178133 65.217934
21.57524 -49.423027 64.497658
20.949441 -50.346363 64.379652
7.830405 -34.796869 67.47049
7.978343 -36.041048 67.276707
8.774101 -35.256691 67.949002
6.875909 -34.353268 66.972351
7.830405 -34.796869 67.47049
7.671667 -33.568911 67.644645
5.977749 -33.811898 66.466106
6.875909 -34.353268 66.972351
4.980344 -33.316624 65.875725
5.977749 -33.811898 66.466106
5.719765 -32.630036 66.556126
15.969541 -29.01545 71.760574
14.974249 -28.617534 71.565025
16.121731 -30.260545 71.623706
16.86352 -29.478459 71.872493
15.969541 -29.01545 71.760574
9.271825 -43.505573 65.606933
9.937584 -42.76406 66.320656
9.024424 -42.227629 65.965874
8.591264 -44.238157 64.837112
9.504423 -44.774588 65.191894
9.271825 -43.505573 65.606933
7.928434 -45.002783 63.983728
8.591264 -44.238157 64.837112
8.378874 -38.488934 66.859471
9.08804 -37.737482 67.510296
8.212873 -37.252322 67.104394
8.542033 -39.704128 66.57019
8.378874 -38.488934 66.859471
21.636556 -28.70737 71.839989
21.029983 -29.730698 71.772961
22.415963 -28.969566 71.536583
22.198253 -27.645139 71.834556
21.636556 -28.70737 71.839989
22.553651 -30.238959 71.183792
22.415963 -28.969566 71.536583
22.666559 -31.493113 70.848591
22.553651 -30.238959 71.183792
21.967174 -31.28595 71.206814
22.775044 -32.800459 70.413678
22.666559 -31.493113 70.848591
22.15383 -33.821375 70.47511
22.848792 -34.08173 70.017174
22.775044 -32.800459 70.413678
14.547604 -61.312292 56.876009
15.327044 -61.621067 56.948612
15.028841 -60.710188 57.631983
14.547604 -61.312292 56.876009
13.779384 -60.994932 56.708619
11.525563 -58.094932 57.765358
11.14051 -56.969036 58.449789
10.646083 -57.646316 57.456877
11.819539 -59.183674 57.014946
12.313966 -58.506394 58.007858
11.525563 -58.094932 57.765358
12.196387 -60.227083 56.325769
11.819539 -59.183674 57.014946
6.368065 -50.199532 59.417497
6.919376 -49.598011 60.4161
6.787186 -51.446055 58.924473
6.368065 -50.199532 59.417497
7.130431 -52.639432 58.354939
7.593024 -51.93573 59.38097
6.787186 -51.446055 58.924473
7.492809 -53.880142 57.705807
7.130431 -52.639432 58.354939
22.916904 -35.374725 69.535267
22.848792 -34.08173 70.017174
23.027639 -36.707184 69.027737
22.916904 -35.374725 69.535267
22.338312 -36.435105 69.571076
23.0676 -38.090912 68.471981
23.027639 -36.707184 69.027737
23.09928 -39.382372 67.963986
23.0676 -38.090912 68.471981
22.480727 -39.059023 68.55555
23.191978 -40.568266 67.377544
23.09928 -39.382372 67.963986
23.335791 -41.769855 66.775432
23.191978 -40.568266 67.377544
22.65622 -41.552072 67.445442
23.43005 -43.05962 66.098503
23.335791 -41.769855 66.775432
22.943624 -44.04754 66.145504
22.231552 -43.800424 66.765777
22.375142 -45.094303 66.067951
23.43005 -43.05962 66.098503
22.943624 -44.04754 66.145504
19.095519 -53.009115 63.494913
19.708945 -52.0988 63.889273
18.89702 -51.740626 64.26891
19.275384 -54.16762 62.771377
19.095519 -53.009115 63.494913
18.463459 -53.809444 63.151015
19.444654 -55.305203 62.005529
19.275384 -54.16762 62.771377
18.851784 -56.081839 61.648968
18.065526 -55.733173 61.958759
18.273986 -56.847063 61.180249
19.444654 -55.305203 62.005529
18.851784 -56.081839 61.648968
18.866418 -61.072161 57.872892
18.790816 -59.977926 58.791268
18.29288 -61.60812 57.502629
18.866418 -61.072161 57.872892
17.764547 -62.20544 56.973158
18.29288 -61.60812 57.502629
17.643572 -61.27705 57.791831
17.219692 -62.71483 56.492466
17.764547 -62.20544 56.973158
17.219692 -62.71483 56.492466
16.615226 -62.339889 56.726168
3 112 111 27
3 113 29 114
3 113 114 115
3 116 27 117
3 118 117 29
3 116 117 118
3 0 33 31
3 0 36 34
3 0 31 36
3 1 40 38
3 2 119 120
3 2 121 123
3 121 41 122
3 121 122 123
3 2 43 41
3 1 46 44
3 1 38 46
3 4 50 48
3 5 124 126
3 126 125 51
3 124 125 126
3 5 127 128
3 3 56 54
3 6 59 57
3 6 129 131
3 131 130 59
3 129 130 131
3 6 132 133
3 4 62 60
3 4 48 62
3 7 66 64
3 134 67 135
3 136 135 28
3 134 135 136
3 138 137 67
3 8 139 140
3 8 141 143
3 141 68 142
3 141 142 143
3 8 70 68
3 7 71 30
3 7 64 71
3 10 74 72
3 12 75 32
3 12 76 75
3 13 79 77
3 15 80 35
3 15 81 80
3 15 83 81
3 10 84 37
3 10 72 84
3 17 87 85
3 145 144 39
3 147 146 65
3 19 148 150
3 148 88 149
3 148 149 150
3 19 89 88
3 19 91 89
3 21 92 42
3 21 93 92
3 9 94 69
3 22 95 45
3 22 96 95
3 22 97 96
3 17 98 47
3 17 85 98
3 23 151 152
3 24 153 155
3 155 154 49
3 153 154 155
3 24 156 157
3 11 99 73
3 159 158 52
3 18 100 86
3 160 101 161
3 162 161 53
3 160 161 162
3 163 102 164
3 165 164 101
3 163 164 165
3 20 103 90
3 25 104 55
3 25 105 104
3 14 106 78
3 166 107 167
3 168 167 58
3 166 167 168
3 170 169 107
3 16 108 82
3 26 171 173
3 173 172 61
3 171 172 173
3 26 174 175
3 26 176 178
3 176 109 177
3 176 177 178
3 23 110 63
3 23 179 181
3 181 180 110
3 179 180 181
3 27 28 7
3 182 28 183
3 184 183 27
3 182 183 184
3 186 185 28
3 29 187 188
3 29 189 191
3 189 8 190
3 189 190 191
3 29 30 8
3 27 30 29
3 27 7 30
3 31 32 10
3 33 32 31
3 33 12 32
3 34 35 13
3 36 35 34
3 36 15 35
3 36 37 15
3 31 37 36
3 31 10 37
3 38 39 17
3 40 39 38
3 40 192 194
3 194 193 39
3 192 193 194
3 41 195 196
3 41 197 199
3 197 19 198
3 197 198 199
3 41 42 19
3 43 42 41
3 43 21 42
3 44 45 9
3 46 45 44
3 46 22 45
3 46 47 22
3 38 47 46
3 38 17 47
3 48 49 23
3 50 49 48
3 50 24 49
3 51 52 11
3 200 52 201
3 202 201 51
3 200 201 202
3 204 203 52
3 205 53 206
3 207 206 18
3 205 206 207
3 208 53 209
3 211 210 53
3 54 55 20
3 56 55 54
3 56 25 55
3 57 58 14
3 59 58 57
3 59 212 214
3 214 213 58
3 212 213 214
3 59 215 216
3 218 217 59
3 60 61 16
3 62 61 60
3 62 26 61
3 62 63 26
3 48 63 62
3 48 23 63
3 64 65 1
3 66 65 64
3 66 219 221
3 221 220 65
3 219 220 221
3 28 66 7
3 67 66 28
3 67 222 224
3 224 223 66
3 222 223 224
3 67 225 226
3 229 228 67
3 227 228 229
3 68 230 231
3 68 232 234
3 232 2 233
3 232 233 234
3 68 69 2
3 70 69 68
3 70 9 69
3 30 70 8
3 71 70 30
3 71 9 70
3 71 44 9
3 64 44 71
3 64 1 44
3 72 73 4
3 74 73 72
3 74 11 73
3 32 74 10
3 75 74 32
3 75 11 74
3 75 51 11
3 76 51 75
3 76 5 51
3 77 78 3
3 79 78 77
3 79 14 78
3 35 79 13
3 80 79 35
3 80 14 79
3 80 57 14
3 81 57 80
3 81 6 57
3 81 82 6
3 83 82 81
3 83 16 82
3 37 83 15
3 84 83 37
3 84 16 83
3 84 60 16
3 72 60 84
3 72 4 60
3 85 86 0
3 87 86 85
3 87 18 86
3 39 87 17
3 235 87 236
3 237 236 39
3 235 236 237
3 238 18 239
3 240 239 87
3 238 239 240
3 242 241 18
3 65 40 1
3 243 40 244
3 245 244 65
3 243 244 245
3 247 246 40
3 88 248 249
3 88 250 252
3 250 251 252
3 88 253 254
3 89 255 257
3 257 256 88
3 255 256 257
3 89 258 259
3 89 260 262
3 260 90 261
3 260 261 262
3 91 90 89
3 91 20 90
3 42 91 19
3 92 91 42
3 92 20 91
3 92 54 20
3 93 54 92
3 93 3 54
3 69 43 2
3 94 43 69
3 94 21 43
3 45 94 9
3 95 94 45
3 95 21 94
3 95 93 21
3 96 93 95
3 96 3 93
3 96 77 3
3 97 77 96
3 97 13 77
3 47 97 22
3 98 97 47
3 98 13 97
3 98 34 13
3 85 34 98
3 85 0 34
3 49 263 265
3 265 264 23
3 263 264 265
3 267 266 49
3 73 50 4
3 99 50 73
3 99 24 50
3 52 99 11
3 268 99 269
3 270 269 52
3 268 269 270
3 271 24 272
3 273 272 99
3 271 272 273
3 275 274 24
3 86 33 0
3 100 33 86
3 100 12 33
3 53 100 18
3 101 100 53
3 101 12 100
3 101 76 12
3 102 76 101
3 102 5 76
3 276 102 277
3 278 102 279
3 280 5 281
3 282 281 102
3 280 281 282
3 284 283 5
3 90 285 286
3 103 287 289
3 289 288 90
3 287 288 289
3 103 290 291
3 55 103 20
3 104 103 55
3 104 292 294
3 294 293 103
3 292 293 294
3 104 295 296
3 105 297 299
3 299 298 104
3 297 298 299
3 105 300 301
3 78 56 3
3 106 56 78
3 106 25 56
3 58 106 14
3 107 106 58
3 107 25 106
3 107 105 25
3 302 105 303
3 304 303 107
3 302 303 304
3 306 305 105
3 82 307 309
3 309 308 6
3 307 308 309
3 108 310 312
3 312 311 82
3 310 311 312
3 108 313 314
3 61 108 16
3 315 108 316
3 317 316 61
3 315 316 317
3 319 318 108
3 109 320 321
3 109 322 323
3 63 109 26
3 110 109 63
3 110 324 326
3 326 325 109
3 324 325 326
3 110 327 328
3 330 329 110
