ply
format ascii 1.0
element vertex 337
property float x
property float y
property float z
element face 347
property list uchar int vertex_index
end_header
-37.867306 -38.525963 0.187868
-35.9617 -26.133116 28.038187
-38.436253 -27.689528 12.107186
-38.888065 -27.122202 20.65299
-32.090153 -34.016129 31.186029
-36.693016 -35.222507 24.837915
-38.52737 -35.706154 16.404354
-38.312817 -34.029602 6.911961
-34.692616 -34.605007 28.39769
-36.447426 -30.660276 26.655968
-39.033596 -27.726284 16.483807
-38.794327 -31.710592 18.778147
-38.859272 -31.604057 14.350604
-38.612087 -35.074757 11.718349
-38.361786 -31.118519 9.846937
-37.864346 -26.530298 24.575151
-32.690239 -38.19949 29.835768
-34.890442 -38.908554 26.624008
-36.413857 -39.539013 22.797838
-38.058491 -31.188473 22.824379
-37.967056 -35.534634 20.753374
-37.965866 -39.217937 13.488289
-38.148464 -38.227379 8.658536
-38.17207 -36.546329 3.638548
-37.572598 -30.13863 5.42334
-37.890221 -32.363922 2.275804
-38.179752 -34.252388 -1.088033
-35.34708 -30.422169 28.32653
-36.233891 -28.438181 27.369995
-38.810333 -27.611383 14.270337
-38.94865 -29.659445 15.461941
-38.737331 -29.554924 13.292209
-38.672501 -31.493637 12.127586
-38.381756 -29.494892 11.019722
-31.149107 -35.887165 31.659674
-31.494761 -37.887096 31.036245
-32.451077 -36.114876 30.545197
-35.778927 -34.919861 26.710941
-34.840565 -36.803482 27.577749
-35.861469 -37.064003 25.74671
-35.790569 -39.068115 24.778715
-36.652409 -37.400921 23.788774
-38.480988 -27.037663 22.649084
-37.94487 -29.035078 23.840443
-38.526859 -29.260691 21.768925
-38.70549 -33.769276 17.503698
-38.464905 -33.507599 19.820192
-38.337036 -35.544151 18.654757
-37.761372 -37.560452 19.675318
-38.090542 -37.556763 17.475328
-38.293022 -37.481583 15.08565
-38.484467 -34.753174 9.23592
-38.413391 -36.756435 10.296845
-38.358009 -36.120754 7.743586
-38.178322 -37.406017 6.110194
-38.264214 -35.333164 5.276776
-37.389874 -30.362064 1.707813
-38.053257 -33.356209 0.631082
-33.437035 -34.321434 29.906834
-34.430595 -32.403721 29.144529
-35.61599 -32.623672 27.558664
-36.57827 -33.064228 25.841284
-39.066467 -27.432222 18.478931
-38.871777 -29.433189 19.659883
-38.989391 -29.787264 17.620953
-38.907505 -31.771839 16.578114
-38.801495 -33.591404 15.32487
-38.64061 -35.377132 14.138489
-38.756294 -33.379597 13.151299
-38.589291 -33.173965 10.766335
-38.357819 -32.726086 8.554228
-36.817551 -23.971249 26.954861
-36.948658 -26.406559 26.478876
-37.720352 -24.333048 25.226372
-38.409298 -24.726877 23.396025
-38.876781 -24.81563 21.510685
-39.117088 -25.107819 19.48085
-39.121532 -25.490145 17.340338
-38.906857 -25.669554 15.152436
-38.501541 -25.622202 13.015118
-33.692806 -36.409054 29.199005
-33.852825 -38.48991 28.369801
-37.24128 -28.543011 25.601276
-37.308609 -30.953743 24.914085
-37.420135 -33.089157 23.956648
-38.525227 -31.410936 20.838598
-38.039783 -33.31868 21.942509
-37.410004 -35.347927 22.920059
-37.276829 -37.456566 21.859495
-38.40387 -37.147011 12.740726
-38.11195 -38.684471 11.064146
-37.86277 -39.407684 6.936963
-37.939056 -38.648987 4.414774
-38.037354 -37.62748 1.976408
-37.966583 -25.831114 10.919712
-37.920906 -27.462191 10.000051
-37.89732 -29.053318 8.775524
-37.989586 -30.671623 7.689392
-38.06023 -32.06292 6.3248
-37.72694 -31.310951 3.966157
-38.113922 -33.314796 4.616249
-38.157425 -34.417007 2.928319
-38.17094 -35.503414 1.261124
-38.148598 -36.331856 -0.465143
-37.758627 -38.974508 -0.647417
-37.613348 -39.604706 0.634687
-37.976273 -37.844274 -0.998597
-37.758627 -38.974508 -0.647417
-36.097796 -27.285649 27.704091
-35.622326 -28.327129 28.199348
-35.486231 -27.174597 28.533444
-34.271291 -31.322547 29.468409
-33.786963 -32.306601 29.822073
-37.627215 -23.202016 25.529792
-37.268952 -24.152149 26.090617
-37.175814 -23.021116 26.394036
-38.626745 -23.68001 22.784733
-38.358851 -23.480959 23.723235
-38.860487 -23.724386 21.842063
-38.64304 -24.771254 22.453355
-38.626745 -23.68001 22.784733
-39.167867 -24.147788 18.821241
-39.136278 -24.035372 19.832311
-39.17009 -24.338951 17.750985
-39.11931 -25.298982 18.410594
-39.167867 -24.147788 18.821241
-38.787678 -24.640655 14.574323
-38.977598 -24.617287 15.62218
-38.858419 -23.588387 15.044066
-38.58502 -24.616979 13.505664
-38.704199 -25.645878 14.083777
-38.787678 -24.640655 14.574323
-32.226937 -39.087044 30.040868
-31.629198 -38.930847 30.641106
-32.0925 -38.043293 30.436007
-32.78239 -39.226487 29.3814
-32.226937 -39.087044 30.040868
-34.362816 -39.793593 27.021857
-33.844008 -39.584271 27.894754
-34.371634 -38.699232 27.496904
-34.834704 -39.93129 26.118666
-34.362816 -39.793593 27.021857
-35.967402 -40.40538 23.230191
-35.655758 -40.169932 24.22063
-36.102213 -39.303564 23.788276
-36.278693 -40.520708 22.150318
-35.967402 -40.40538 23.230191
-37.390884 -38.554218 20.156029
-37.627907 -38.505842 18.993319
-37.658491 -40.179628 13.99585
-37.868749 -39.329731 14.71585
-37.765485 -39.983253 12.76125
-37.658491 -40.179628 13.99585
-37.930521 -39.237224 9.073821
-37.912264 -39.465771 10.276626
-38.130207 -38.455925 9.861341
-38.005617 -38.817532 7.79775
-37.787674 -39.827377 8.213034
-37.930521 -39.237224 9.073821
-37.682914 -24.760803 10.429381
-38.03791 -24.833048 11.426289
-37.608404 -27.30619 8.914955
-37.588049 -26.445201 9.421587
-37.596611 -28.101754 8.302691
-37.909113 -28.257755 9.387787
-37.608404 -27.30619 8.914955
-37.781092 -30.405127 6.556366
-37.689818 -29.683136 7.15488
-37.481324 -29.416639 6.021854
-38.218694 -34.662964 -1.908688
-38.203118 -35.702698 -1.597242
-38.164175 -35.292122 -0.776588
-35.178921 -29.319123 28.677615
-34.729534 -30.331771 29.05941
-35.790486 -29.430175 27.848263
-35.178921 -29.319123 28.677615
-35.622326 -28.327129 28.199348
-31.321934 -36.88713 31.34796
-30.838861 -37.735157 31.558183
-30.666034 -36.735191 31.869897
-37.792492 -38.503998 17.893324
-37.627907 -38.505842 18.993319
-37.925957 -37.558607 18.575323
-37.931088 -38.499144 16.70937
-37.792492 -38.503998 17.893324
-38.032328 -38.461554 15.51453
-37.931088 -38.499144 16.70937
-38.191782 -37.519173 16.280489
-38.129444 -38.34976 14.286969
-37.868749 -39.329731 14.71585
-38.032328 -38.461554 15.51453
-37.207963 -29.099265 5.026672
-37.481324 -29.416639 6.021854
-37.24807 -29.861788 0.655981
-37.038469 -29.395958 1.409498
-36.896665 -28.895683 0.357666
-37.537076 -30.828963 0.884781
-37.24807 -29.861788 0.655981
-37.787249 -31.829892 1.168777
-37.640047 -31.362993 1.991808
-37.537076 -30.828963 0.884781
-37.868767 -32.326036 0.346416
-37.971739 -32.860066 1.453443
-37.787249 -31.829892 1.168777
-38.009175 -32.756397 -0.491049
-37.868767 -32.326036 0.346416
-38.072422 -33.204487 -1.350607
-38.116505 -33.804299 -0.228475
-38.009175 -32.756397 -0.491049
-38.188461 -33.596674 -2.160662
-38.072422 -33.204487 -1.350607
-33.290183 -33.265457 30.203226
-32.763594 -34.168782 30.546432
-32.616742 -33.112804 30.842823
-33.933815 -33.362578 29.525681
-33.290183 -33.265457 30.203226
-33.786963 -32.306601 29.822073
-34.888837 -31.412945 28.735529
-34.271291 -31.322547 29.468409
-34.729534 -30.331771 29.05941
-38.014377 -23.284045 24.638408
-37.627215 -23.202016 25.529792
-38.064825 -24.529963 24.311199
-38.014377 -23.284045 24.638408
-38.358851 -23.480959 23.723235
-39.016125 -23.889277 20.847229
-38.860487 -23.724386 21.842063
-38.996935 -24.961724 20.495767
-39.016125 -23.889277 20.847229
-39.136278 -24.035372 19.832311
-39.084936 -24.527583 16.71613
-39.17009 -24.338951 17.750985
-39.014195 -25.57985 16.246387
-39.084936 -24.527583 16.71613
-38.977598 -24.617287 15.62218
-37.772228 -39.090999 1.417822
-37.613348 -39.604706 0.634687
-30.465281 -35.827864 32.121089
-30.666034 -36.735191 31.869897
-30.921303 -34.878042 31.946025
-30.465281 -35.827864 32.121089
-30.237477 -34.818741 32.40744
-31.391826 -33.942524 31.709203
-31.61963 -34.951647 31.422852
-30.921303 -34.878042 31.946025
-31.8906 -32.960229 31.464557
-31.391826 -33.942524 31.709203
-32.616742 -33.112804 30.842823
-31.8906 -32.960229 31.464557
-35.359541 -25.981638 28.792143
-35.486231 -27.174597 28.533444
-35.789594 -25.015636 28.357788
-35.359541 -25.981638 28.792143
-36.21752 -23.934703 27.816125
-36.389626 -25.052183 27.496524
-35.789594 -25.015636 28.357788
-36.669641 -22.846615 27.265297
-36.21752 -23.934703 27.816125
-37.027905 -21.896482 26.704473
-37.175814 -23.021116 26.394036
-36.669641 -22.846615 27.265297
-31.034448 -38.701183 31.226547
-30.838861 -37.735157 31.558183
-31.034448 -38.701183 31.226547
-31.629198 -38.930847 30.641106
-33.363684 -39.371696 28.648416
-32.78239 -39.226487 29.3814
-33.271532 -38.3447 29.102784
-33.363684 -39.371696 28.648416
-33.844008 -39.584271 27.894754
-35.284767 -40.01107 25.19602
-34.834704 -39.93129 26.118666
-35.340505 -38.988335 25.701361
-35.284767 -40.01107 25.19602
-35.655758 -40.169932 24.22063
-37.148613 -38.502275 21.248117
-37.519101 -37.508509 20.767406
-37.390884 -38.554218 20.156029
-36.717127 -39.543499 21.717289
-36.845343 -38.497789 22.328666
-37.148613 -38.502275 21.248117
-36.278693 -40.520708 22.150318
-36.717127 -39.543499 21.717289
-37.838527 -39.71652 11.549179
-37.765485 -39.983253 12.76125
-38.038908 -38.951204 12.276217
-37.838527 -39.71652 11.549179
-37.912264 -39.465771 10.276626
-37.577711 -40.45956 7.2862
-37.787674 -39.827377 8.213034
-37.693899 -39.973578 6.059151
-37.577711 -40.45956 7.2862
-37.732042 -39.594229 4.798057
-37.693899 -39.973578 6.059151
-37.900913 -39.028335 5.675868
-37.808104 -39.152512 3.531275
-37.732042 -39.594229 4.798057
-37.857253 -38.641758 2.312092
-37.808104 -39.152512 3.531275
-37.988205 -38.138233 3.195591
-37.95233 -38.076721 1.082138
-37.772228 -39.090999 1.417822
-37.857253 -38.641758 2.312092
-38.30539 -24.728592 12.473992
-38.58502 -24.616979 13.505664
-38.234062 -25.726658 11.967415
-38.30539 -24.728592 12.473992
-38.03791 -24.833048 11.426289
-37.610888 -25.629663 9.881417
-37.682914 -24.760803 10.429381
-37.327219 -24.559351 9.391087
-37.943745 -26.646653 10.459881
-37.610888 -25.629663 9.881417
-37.588049 -26.445201 9.421587
-37.643684 -28.873984 7.697946
-37.596611 -28.101754 8.302691
-37.943453 -29.862471 8.232458
-37.643684 -28.873984 7.697946
-37.689818 -29.683136 7.15488
-37.334993 -29.708889 4.304229
-37.207963 -29.099265 5.026672
-37.243631 -29.820606 2.446465
-37.038469 -29.395958 1.409498
-37.412165 -30.295049 3.575638
-37.243631 -29.820606 2.446465
-37.558407 -30.836507 2.836985
-37.649769 -30.72479 4.694748
-37.334993 -29.708889 4.304229
-37.412165 -30.295049 3.575638
-38.116918 -36.747221 -1.325102
-37.976273 -37.844274 -0.998597
-38.007952 -37.42891 -0.138637
-38.171438 -36.118063 -2.457202
-38.116918 -36.747221 -1.325102
-38.203118 -35.702698 -1.597242
-38.218694 -34.662964 -1.908688
-38.188461 -33.596674 -2.160662
3 0 104 105
3 0 106 107
3 1 108 110
3 108 28 109
3 108 109 110
3 2 31 29
3 2 33 31
3 4 36 34
3 5 39 37
3 5 41 39
3 3 44 42
3 6 47 45
3 6 49 47
3 6 50 49
3 7 53 51
3 7 55 53
3 111 59 112
3 9 60 27
3 9 61 60
3 10 64 62
3 12 65 30
3 12 66 65
3 12 68 66
3 14 69 32
3 14 70 69
3 113 73 114
3 115 114 71
3 113 114 115
3 116 74 117
3 118 75 119
3 120 119 74
3 118 119 120
3 121 76 122
3 123 77 124
3 125 124 76
3 123 124 125
3 126 78 127
3 126 127 128
3 129 79 130
3 131 130 78
3 129 130 131
3 16 132 134
3 134 133 35
3 132 133 134
3 16 135 136
3 8 80 58
3 17 81 38
3 17 137 139
3 139 138 81
3 137 138 139
3 17 140 141
3 18 142 144
3 144 143 40
3 142 143 144
3 18 145 146
3 15 82 72
3 19 83 43
3 19 84 83
3 11 85 63
3 20 86 46
3 20 87 86
3 20 88 87
3 148 147 48
3 21 149 150
3 21 151 152
3 13 89 67
3 22 90 52
3 22 153 155
3 155 154 90
3 153 154 155
3 22 156 158
3 156 91 157
3 156 157 158
3 23 92 54
3 23 93 92
3 159 94 160
3 161 95 162
3 163 96 164
3 165 164 95
3 163 164 165
3 24 166 168
3 166 97 167
3 166 167 168
3 24 98 97
3 25 99 56
3 25 100 99
3 25 101 100
3 26 102 57
3 26 103 102
3 26 169 171
3 171 170 103
3 169 170 171
3 172 27 173
3 28 174 176
3 174 27 175
3 174 175 176
3 28 9 27
3 29 30 10
3 31 30 29
3 31 12 30
3 31 32 12
3 33 32 31
3 33 14 32
3 34 177 179
3 177 35 178
3 177 178 179
3 36 35 34
3 36 16 35
3 37 38 8
3 39 38 37
3 39 17 38
3 39 40 17
3 41 40 39
3 41 18 40
3 42 43 15
3 44 43 42
3 44 19 43
3 45 46 11
3 47 46 45
3 47 20 46
3 47 48 20
3 49 48 47
3 49 180 182
3 182 181 48
3 180 181 182
3 49 183 184
3 50 185 187
3 187 186 49
3 185 186 187
3 50 188 190
3 188 21 189
3 188 189 190
3 51 52 13
3 53 52 51
3 53 22 52
3 53 54 22
3 55 54 53
3 55 23 54
3 191 24 192
3 193 56 194
3 193 194 195
3 196 56 197
3 198 25 199
3 200 199 56
3 198 199 200
3 201 57 202
3 203 202 25
3 201 202 203
3 204 57 205
3 206 26 207
3 208 207 57
3 206 207 208
3 210 209 26
3 211 58 212
3 213 212 4
3 211 212 213
3 59 214 216
3 214 58 215
3 214 215 216
3 59 8 58
3 27 217 219
3 217 59 218
3 217 218 219
3 60 59 27
3 60 8 59
3 60 37 8
3 61 37 60
3 61 5 37
3 62 63 3
3 64 63 62
3 64 11 63
3 30 64 10
3 65 64 30
3 65 11 64
3 65 45 11
3 66 45 65
3 66 6 45
3 66 67 6
3 68 67 66
3 68 13 67
3 32 68 12
3 69 68 32
3 69 13 68
3 69 51 13
3 70 51 69
3 70 7 51
3 71 72 1
3 73 72 71
3 73 15 72
3 220 73 221
3 74 222 224
3 222 73 223
3 222 223 224
3 74 15 73
3 74 42 15
3 75 42 74
3 75 3 42
3 225 75 226
3 76 227 229
3 227 75 228
3 227 228 229
3 76 3 75
3 76 62 3
3 77 62 76
3 77 10 62
3 230 77 231
3 78 232 234
3 232 77 233
3 232 233 234
3 78 10 77
3 78 29 10
3 79 29 78
3 79 2 29
3 235 0 236
3 237 34 238
3 239 34 240
3 239 240 241
3 242 4 243
3 244 243 34
3 242 243 244
3 245 4 246
3 248 247 4
3 249 1 250
3 251 1 252
3 253 71 254
3 255 254 1
3 253 254 255
3 256 71 257
3 260 259 71
3 258 259 260
3 35 261 262
3 264 263 35
3 58 36 4
3 80 36 58
3 80 16 36
3 38 80 8
3 81 80 38
3 81 16 80
3 81 265 267
3 267 266 16
3 265 266 267
3 269 268 81
3 40 270 272
3 272 271 17
3 270 271 272
3 274 273 40
3 72 28 1
3 82 28 72
3 82 9 28
3 43 82 15
3 83 82 43
3 83 9 82
3 83 61 9
3 84 61 83
3 84 5 61
3 63 44 3
3 85 44 63
3 85 19 44
3 46 85 11
3 86 85 46
3 86 19 85
3 86 84 19
3 87 84 86
3 87 5 84
3 87 41 5
3 88 41 87
3 88 18 41
3 48 88 20
3 275 88 276
3 277 276 48
3 275 276 277
3 278 18 279
3 280 279 88
3 278 279 280
3 282 281 18
3 67 50 6
3 89 50 67
3 89 21 50
3 52 89 13
3 90 89 52
3 90 21 89
3 90 283 285
3 285 284 21
3 283 284 285
3 287 286 90
3 91 288 289
3 91 290 291
3 54 91 22
3 92 91 54
3 92 292 294
3 294 293 91
3 292 293 294
3 92 295 296
3 93 297 299
3 299 298 92
3 297 298 299
3 93 300 302
3 300 0 301
3 300 301 302
3 303 79 304
3 94 305 307
3 305 79 306
3 305 306 307
3 94 2 79
3 308 94 309
3 308 309 310
3 95 311 313
3 311 94 312
3 311 312 313
3 95 2 94
3 95 33 2
3 96 33 95
3 96 14 33
3 314 96 315
3 97 316 318
3 316 96 317
3 316 317 318
3 97 14 96
3 97 70 14
3 98 70 97
3 98 7 70
3 319 24 320
3 56 321 322
3 99 323 325
3 325 324 56
3 323 324 325
3 99 326 328
3 326 24 327
3 326 327 328
3 99 98 24
3 100 98 99
3 100 7 98
3 100 55 7
3 101 55 100
3 101 23 55
3 57 101 25
3 102 101 57
3 102 23 101
3 102 93 23
3 103 93 102
3 103 0 93
3 103 329 331
3 331 330 0
3 329 330 331
3 334 333 103
3 332 333 334
3 336 335 26
