ply
format ascii 1.0
element vertex 156
property float x
property float y
property float z
element face 141
property list uchar int vertex_index
end_header
12.876076 31.030441 43.515469
10.016223 20.403074 49.155628
11.829369 15.802167 48.689526
14.984554 25.891222 43.144142
16.083902 30.618898 40.262428
18.220478 25.730431 39.486706
11.64633 25.596077 46.405369
13.535738 20.801102 45.983444
11.620174 33.529312 43.72385
13.337984 33.351231 42.169456
16.008976 23.444061 42.784027
16.655416 25.732895 41.362885
17.660883 23.350527 40.946621
9.779223 25.537964 47.961353
10.91424 23.14658 47.709503
12.626596 23.148937 46.221062
11.801646 20.60813 47.605995
13.523847 16.053577 47.09808
17.541767 30.589653 38.459106
11.002472 18.104076 48.889153
10.07299 15.494722 50.249027
10.889793 13.253638 50.043564
13.849085 28.264208 43.538761
14.5213 30.627312 42.011719
15.63595 28.219917 41.673428
17.252394 28.082729 39.832996
18.670025 28.258654 37.942276
11.206761 30.746857 45.125923
10.513288 28.207781 46.55928
12.297276 28.203026 45.030243
13.363505 25.621712 44.840492
14.31939 23.223492 44.593243
15.238256 20.840376 44.297672
12.792191 18.255407 47.282719
14.348926 18.4706 45.763695
17.26292 22.220403 41.723968
16.83493 23.397294 41.865324
16.436967 22.26717 42.642672
9.571943 21.694292 49.170835
9.157978 20.42728 49.819826
10.465231 21.774827 48.432565
10.020951 23.066045 48.447773
9.571943 21.694292 49.170835
17.757579 31.775802 37.617136
18.294313 30.59209 37.421913
9.187694 15.486067 50.959095
9.656146 16.656693 50.323679
10.366912 12.144035 50.710608
9.966558 13.197754 50.818087
9.443676 12.088151 51.48513
10.72616 11.144081 50.604564
11.249042 12.253685 49.937521
10.366912 12.144035 50.710608
10.307948 30.878563 45.810488
10.606288 32.165325 45.098137
14.75546 17.348847 45.618563
13.936387 17.262089 46.430887
14.342921 16.140335 46.285756
15.194509 18.582325 44.8822
14.75546 17.348847 45.618563
15.506571 31.965678 40.375301
14.72527 31.969885 41.249947
15.302601 30.623105 41.137073
11.914357 34.824177 42.918703
11.043681 34.881305 43.671655
12.773262 34.735136 42.141506
11.914357 34.824177 42.918703
12.479079 33.440271 42.946653
13.590246 34.616171 41.367994
12.773262 34.735136 42.141506
9.453443 24.261737 48.573698
8.90026 25.550254 48.62383
10.346732 24.342272 47.835428
9.453443 24.261737 48.573698
10.020951 23.066045 48.447773
13.066518 14.789029 47.788132
12.676608 15.927872 47.893803
12.219279 14.663324 48.583855
13.909188 14.932082 46.972042
13.066518 14.789029 47.788132
14.342921 16.140335 46.285756
13.909188 14.932082 46.972042
17.003436 31.830855 38.605358
16.274504 31.845477 39.507019
16.812835 30.604275 39.360767
17.003436 31.830855 38.605358
17.757579 31.775802 37.617136
9.627762 19.110869 49.776979
9.157978 20.42728 49.819826
10.120887 17.961371 49.643742
10.509348 19.253575 49.022391
9.627762 19.110869 49.776979
10.537731 16.799399 49.56909
10.120887 17.961371 49.643742
9.656146 16.656693 50.323679
9.558156 14.318296 50.920818
9.187694 15.486067 50.959095
10.481392 14.37418 50.146296
9.558156 14.318296 50.920818
9.966558 13.197754 50.818087
11.749491 13.38906 49.260874
12.219279 14.663324 48.583855
11.359581 14.527902 49.366545
11.749491 13.38906 49.260874
11.249042 12.253685 49.937521
18.858441 29.426591 37.163498
18.294313 30.59209 37.421913
18.105896 29.424153 38.200691
18.086696 22.205284 40.785349
17.26292 22.220403 41.723968
18.423688 23.338932 40.020647
18.086696 22.205284 40.785349
18.703485 24.528884 39.290689
17.94068 24.540479 40.216663
18.423688 23.338932 40.020647
18.922476 25.795748 38.55068
18.703485 24.528884 39.290689
19.405483 24.594201 38.354664
19.14725 27.05986 37.778465
18.445251 26.994543 38.714491
18.922476 25.795748 38.55068
19.384244 28.21071 36.965751
19.14725 27.05986 37.778465
18.858441 29.426591 37.163498
19.384244 28.21071 36.965751
10.812995 33.556553 44.397101
11.043681 34.881305 43.671655
11.413467 32.138084 44.424886
10.812995 33.556553 44.397101
10.606288 32.165325 45.098137
9.263152 26.855843 47.953773
8.90026 25.550254 48.62383
9.630184 28.190751 47.252737
9.263152 26.855843 47.953773
10.146255 26.872872 47.260317
9.961211 29.609025 46.527166
9.078107 29.591995 47.220623
9.630184 28.190751 47.252737
10.860024 29.477319 45.842602
10.307948 30.878563 45.810488
9.961211 29.609025 46.527166
16.051607 20.965328 43.399494
16.436967 22.26717 42.642672
15.623616 22.142218 43.54085
15.639174 19.767213 44.149189
14.793591 19.655488 45.030683
15.194509 18.582325 44.8822
16.051607 20.965328 43.399494
15.639174 19.767213 44.149189
14.133612 33.331845 41.328815
13.929642 31.989272 42.090587
14.72527 31.969885 41.249947
13.590246 34.616171 41.367994
14.133612 33.331845 41.328815
15.506571 31.965678 40.375301
16.274504 31.845477 39.507019
3 0 9 8
3 35 12 36
3 37 36 10
3 35 36 37
3 1 38 39
3 1 40 42
3 40 14 41
3 40 41 42
3 1 16 14
3 44 43 18
3 45 20 46
3 47 21 48
3 47 48 49
3 52 51 21
3 50 51 52
3 3 24 22
3 5 25 11
3 5 26 25
3 53 27 54
3 6 28 13
3 6 29 28
3 6 30 29
3 7 31 15
3 7 32 31
3 2 33 19
3 55 34 56
3 57 56 17
3 55 56 57
3 59 58 34
3 4 60 62
3 62 61 23
3 60 61 62
3 8 63 64
3 9 65 67
3 67 66 8
3 65 66 67
3 9 68 69
3 10 11 3
3 12 11 10
3 12 5 11
3 70 13 71
3 14 72 74
3 72 13 73
3 72 73 74
3 14 6 13
3 14 15 6
3 16 15 14
3 16 7 15
3 75 17 76
3 77 76 2
3 75 76 77
3 78 17 79
3 81 80 17
3 18 82 84
3 84 83 4
3 82 83 84
3 86 85 18
3 87 1 88
3 89 19 90
3 91 90 1
3 89 90 91
3 20 92 94
3 92 19 93
3 92 93 94
3 20 2 19
3 95 20 96
3 21 97 99
3 97 20 98
3 97 98 99
3 21 2 20
3 21 100 102
3 102 101 2
3 100 101 102
3 104 103 21
3 22 23 0
3 24 23 22
3 24 4 23
3 11 24 3
3 25 24 11
3 25 4 24
3 25 18 4
3 26 18 25
3 26 105 107
3 107 106 18
3 105 106 107
3 108 12 109
3 110 12 111
3 112 5 113
3 114 113 12
3 112 113 114
3 115 5 116
3 115 116 117
3 118 26 119
3 120 119 5
3 118 119 120
3 121 26 122
3 124 123 26
3 125 8 126
3 27 127 129
3 127 8 128
3 127 128 129
3 27 0 8
3 13 130 131
3 28 132 134
3 134 133 13
3 132 133 134
3 28 135 137
3 135 136 137
3 28 138 140
3 138 27 139
3 138 139 140
3 29 27 28
3 29 0 27
3 29 22 0
3 30 22 29
3 30 3 22
3 15 30 6
3 31 30 15
3 31 3 30
3 31 10 3
3 32 10 31
3 32 141 143
3 143 142 10
3 141 142 143
3 19 16 1
3 33 16 19
3 33 7 16
3 17 33 2
3 34 33 17
3 34 7 33
3 34 32 7
3 144 32 145
3 146 145 34
3 144 145 146
3 148 147 32
3 23 9 0
3 149 9 150
3 151 150 23
3 149 150 151
3 153 152 9
3 155 154 4
