ply
format ascii 1.0
element vertex 248
property float x
property float y
property float z
element face 248
property list uchar int vertex_index
end_header
2.444294 -10.801052 65.552353
15.050969 -20.887747 71.988647
22.335506 -22.68425 72.505722
6.450805 -18.903114 68.273613
12.201186 -24.379021 70.932053
16.271194 -25.750792 72.141357
4.622661 -14.690897 67.109901
2.100766 -17.52976 65.845985
8.897513 -15.57841 69.33287
17.345022 -16.932823 72.562141
18.773352 -21.720186 72.768845
19.800669 -26.83787 72.406815
8.003241 -23.092482 69.060722
3.637497 -21.690853 66.697556
-0.566206 -20.422434 64.097946
13.204536 -16.29668 71.239189
10.701446 -19.774296 70.336578
10.730081 -26.122356 70.230598
12.711747 -26.589966 71.013191
3.523782 -12.778301 66.359291
2.348571 -14.202653 65.826057
1.336809 -12.335898 65.093689
4.585014 -11.074521 66.756699
5.790091 -13.18231 67.604675
16.193802 -18.911995 72.30677
18.104029 -19.351418 72.731529
16.896738 -21.336185 72.471558
16.71133 -28.233364 72.009361
18.11401 -26.207205 72.406105
18.480324 -28.869686 72.13443
20.2057 -29.4296 72.003906
7.302739 -20.975733 68.736748
5.903917 -22.398846 67.969055
5.011898 -20.2104 67.518341
-0.055641 -17.077515 64.544807
0.716143 -18.99696 65.007751
14.276166 -14.31411 71.536514
12.237405 -13.94528 70.720543
7.730459 -17.177382 68.856735
9.945724 -17.594973 69.926376
8.642591 -19.339022 69.380676
9.565445 -21.539623 69.8433
21.690453 -20.069305 72.819778
13.746856 -22.61878 71.550163
15.600353 -23.281176 72.104431
14.227066 -25.01852 71.630379
14.720747 -27.437532 71.618263
5.598297 -16.709829 67.747467
4.220347 -18.107895 67.059425
3.302582 -16.104002 66.477386
1.139028 -15.60587 65.219322
10.092 -13.81781 69.77079
8.051865 -13.535487 68.778725
6.750036 -15.118504 68.247559
22.641756 -25.429808 72.08638
19.303663 -17.233482 72.894867
19.982029 -19.794977 72.91465
20.543642 -22.314423 72.797508
17.504419 -23.688576 72.504318
19.338915 -24.213633 72.664932
21.07308 -24.732113 72.543159
21.418846 -27.382944 72.137962
8.677804 -25.296757 69.306206
2.889791 -19.544424 66.314796
1.540835 -20.955282 65.447517
15.347382 -16.483055 72.003456
14.220463 -18.51755 71.689583
11.076714 -15.82787 70.341362
12.08147 -18.151983 70.869781
12.953919 -20.326439 71.265518
11.657907 -22.054146 70.761589
10.182471 -23.75736 70.091553
11.034103 -27.283711 70.271434
9.990386 -26.893603 69.823524
3.514654 -10.937787 66.154526
3.991934 -10.108131 66.310471
2.921574 -9.971396 65.708298
17.748017 -29.796621 71.935028
17.595827 -28.551525 72.071895
16.86352 -29.478459 71.872493
18.644326 -30.15223 71.936966
17.748017 -29.796621 71.935028
-0.683033 -17.686059 64.133596
-1.205585 -16.694064 63.806492
11.638494 -12.928287 70.382023
12.732796 -13.012729 70.850804
12.133885 -11.995736 70.512283
22.825711 -21.542645 72.450615
22.503185 -20.235172 72.607643
22.01298 -21.376777 72.66275
13.965618 -28.33227 71.291279
13.716247 -27.013749 71.315727
12.961118 -27.908487 70.988743
14.974249 -28.617534 71.565025
13.965618 -28.33227 71.291279
0.598794 -14.652908 64.842655
1.7438 -14.904262 65.52269
1.203566 -13.9513 65.146023
0.051682 -15.353673 64.552828
0.598794 -14.652908 64.842655
7.415461 -12.564451 68.37014
8.480393 -12.592713 68.903217
23.362407 -25.564393 71.711228
22.809708 -26.668571 71.808765
18.324343 -17.083152 72.728504
18.794772 -15.989976 72.793148
17.815452 -15.839647 72.626785
21.029983 -29.730698 71.772961
20.301835 -30.735537 71.74036
7.244457 -23.892764 68.621067
7.581739 -24.994901 68.743809
8.340522 -24.19462 69.183464
4.024665 -22.779912 66.865487
5.157875 -23.133908 67.501236
4.770707 -22.044849 67.333305
2.932584 -22.460283 66.207283
4.024665 -22.779912 66.865487
-0.158015 -21.448814 64.27779
0.895506 -21.715238 64.952575
0.487314 -20.688858 64.772731
-1.152613 -21.085878 63.605028
-0.158015 -21.448814 64.27779
12.024936 -27.517516 70.662731
11.720914 -26.356161 70.621894
11.034103 -27.283711 70.271434
12.961118 -27.908487 70.988743
12.024936 -27.517516 70.662731
0.697684 -13.017922 64.779838
1.203566 -13.9513 65.146023
1.84269 -13.269275 65.459873
5.077291 -10.285989 66.922138
3.991934 -10.108131 66.310471
5.682035 -11.333968 67.359127
5.077291 -10.285989 66.922138
5.187553 -12.128415 67.180687
6.284574 -12.387863 67.783115
5.682035 -11.333968 67.359127
19.507015 -30.432187 71.871704
19.343012 -29.149643 72.069168
18.644326 -30.15223 71.936966
20.301835 -30.735537 71.74036
19.507015 -30.432187 71.871704
-0.297141 -18.645781 64.365068
0.330251 -18.037237 64.776279
-0.683033 -17.686059 64.133596
-0.938315 -19.358518 63.910165
0.074968 -19.709697 64.552848
-0.297141 -18.645781 64.365068
-1.584957 -20.035023 63.414444
-0.938315 -19.358518 63.910165
13.752177 -13.197145 71.258789
14.805897 -13.30268 71.651161
13.256785 -14.129695 71.128529
13.752177 -13.197145 71.258789
12.732796 -13.012729 70.850804
22.248358 -18.924208 72.760433
21.384666 -18.749848 72.88652
22.248358 -18.924208 72.760433
22.503185 -20.235172 72.607643
15.969541 -29.01545 71.760574
15.716038 -27.835448 71.813812
14.974249 -28.617534 71.565025
16.86352 -29.478459 71.872493
15.969541 -29.01545 71.760574
-0.545652 -16.089495 64.21557
0.541693 -16.341693 64.882065
0.051682 -15.353673 64.552828
-1.205585 -16.694064 63.806492
-0.545652 -16.089495 64.21557
9.50046 -12.733874 69.39925
10.565791 -12.864552 69.907147
9.071932 -13.676648 69.274757
9.50046 -12.733874 69.39925
8.480393 -12.592713 68.903217
6.920978 -13.358898 68.1917
7.415461 -12.564451 68.37014
6.284574 -12.387863 67.783115
23.189134 -24.23416 72.017288
23.036009 -22.86138 72.226959
22.488631 -24.057029 72.296051
23.189134 -24.23416 72.017288
23.362407 -25.564393 71.711228
0.803033 -9.684169 64.465206
1.348838 -10.622997 64.902111
1.898489 -9.862224 65.115448
1.898489 -9.862224 65.115448
2.921574 -9.971396 65.708298
19.742261 -16.050528 72.911492
18.794772 -15.989976 72.793148
20.191271 -17.331936 72.924065
19.742261 -16.050528 72.911492
20.530454 -18.612684 72.933956
20.191271 -17.331936 72.924065
19.642846 -18.514229 72.904758
20.836241 -19.932141 72.867214
21.384666 -18.749848 72.88652
20.530454 -18.612684 72.933956
22.198253 -27.645139 71.834556
22.809708 -26.668571 71.808765
22.030301 -26.406376 72.112171
21.636556 -28.70737 71.839989
20.812273 -28.406272 72.070934
21.029983 -29.730698 71.772961
22.198253 -27.645139 71.834556
21.636556 -28.70737 71.839989
7.927423 -26.071276 68.850567
8.964248 -26.480804 69.361328
7.927423 -26.071276 68.850567
7.581739 -24.994901 68.743809
6.194795 -23.545946 68.075233
7.244457 -23.892764 68.621067
6.953579 -22.745664 68.514888
6.194795 -23.545946 68.075233
5.157875 -23.133908 67.501236
1.884253 -22.092498 65.582264
2.932584 -22.460283 66.207283
2.589166 -21.323068 66.072537
1.884253 -22.092498 65.582264
0.895506 -21.715238 64.952575
-2.171364 -20.698467 62.921526
-1.152613 -21.085878 63.605028
-1.584957 -20.035023 63.414444
0.795095 -11.39042 64.672779
1.890551 -11.568475 65.323021
1.348838 -10.622997 64.902111
0.272013 -12.06711 64.440668
0.795095 -11.39042 64.672779
0.697684 -13.017922 64.779838
0.272013 -12.06711 64.440668
16.894678 -15.742019 72.404613
17.815452 -15.839647 72.626785
15.36025 -14.432663 71.8918
14.805897 -13.30268 71.651161
15.895858 -15.517136 72.125271
15.36025 -14.432663 71.8918
14.811774 -15.398582 71.769985
16.346202 -16.707939 72.282798
16.894678 -15.742019 72.404613
15.895858 -15.517136 72.125271
11.164703 -13.881545 70.245666
11.638494 -12.928287 70.382023
10.565791 -12.864552 69.907147
8.964248 -26.480804 69.361328
9.990386 -26.893603 69.823524
9.703943 -25.709556 69.768402
23.526214 -21.719775 72.171852
22.825711 -21.542645 72.450615
23.036009 -22.86138 72.226959
3 73 72 17
3 0 21 19
3 0 74 76
3 74 22 75
3 74 75 76
3 0 19 22
3 1 26 24
3 77 29 78
3 79 78 27
3 77 78 79
3 81 80 29
3 3 33 31
3 83 82 34
3 84 37 85
3 84 85 86
3 3 40 38
3 3 31 40
3 2 87 89
3 89 88 42
3 87 88 89
3 4 45 43
3 90 46 91
3 92 91 18
3 90 91 92
3 94 93 46
3 6 49 47
3 95 50 96
3 97 96 20
3 95 96 97
3 99 98 50
3 100 52 101
3 6 53 23
3 6 47 53
3 103 102 54
3 9 104 106
3 104 55 105
3 104 105 106
3 10 56 25
3 10 57 56
3 5 58 44
3 11 59 28
3 11 60 59
3 11 61 60
3 108 107 30
3 12 109 111
3 111 110 62
3 109 110 111
3 13 112 114
3 114 113 32
3 112 113 114
3 13 115 116
3 7 63 48
3 14 64 35
3 14 117 119
3 119 118 64
3 117 118 119
3 14 120 121
3 15 65 36
3 15 66 65
3 8 67 51
3 16 68 39
3 16 69 68
3 16 70 69
3 12 71 41
3 12 62 71
3 17 18 4
3 122 18 123
3 124 123 17
3 122 123 124
3 126 125 18
3 19 20 6
3 21 20 19
3 21 127 129
3 129 128 20
3 127 128 129
3 22 130 131
3 22 132 133
3 22 134 136
3 134 23 135
3 134 135 136
3 19 23 22
3 19 6 23
3 24 25 9
3 26 25 24
3 26 10 25
3 27 28 5
3 29 28 27
3 29 11 28
3 29 30 11
3 137 30 138
3 139 138 29
3 137 138 139
3 141 140 30
3 31 32 12
3 33 32 31
3 33 13 32
3 34 35 7
3 142 35 143
3 144 143 34
3 142 143 144
3 145 14 146
3 147 146 35
3 145 146 147
3 149 148 14
3 150 36 151
3 37 152 154
3 152 36 153
3 152 153 154
3 37 15 36
3 38 39 8
3 40 39 38
3 40 16 39
3 40 41 16
3 31 41 40
3 31 12 41
3 42 155 156
3 158 157 42
3 43 44 1
3 45 44 43
3 45 5 44
3 18 45 4
3 46 45 18
3 46 5 45
3 46 27 5
3 159 27 160
3 161 160 46
3 159 160 161
3 163 162 27
3 47 48 3
3 49 48 47
3 49 7 48
3 20 49 6
3 50 49 20
3 50 7 49
3 50 34 7
3 164 34 165
3 166 165 50
3 164 165 166
3 168 167 34
3 169 51 170
3 52 171 173
3 171 51 172
3 171 172 173
3 52 8 51
3 23 174 176
3 174 52 175
3 174 175 176
3 53 52 23
3 53 8 52
3 53 38 8
3 47 38 53
3 47 3 38
3 54 177 179
3 179 178 2
3 177 178 179
3 181 180 54
3 184 183 0
3 182 183 184
3 185 0 186
3 55 187 188
3 55 189 190
3 25 55 9
3 56 55 25
3 56 191 193
3 193 192 55
3 191 192 193
3 56 194 196
3 194 42 195
3 194 195 196
3 57 42 56
3 57 2 42
3 44 26 1
3 58 26 44
3 58 10 26
3 28 58 5
3 59 58 28
3 59 10 58
3 59 57 10
3 60 57 59
3 60 2 57
3 60 54 2
3 61 54 60
3 61 197 199
3 199 198 54
3 197 198 199
3 30 61 11
3 200 61 201
3 202 201 30
3 200 201 202
3 204 203 61
3 62 205 206
3 208 207 62
3 32 209 211
3 211 210 12
3 209 210 211
3 213 212 32
3 48 33 3
3 63 33 48
3 63 13 33
3 35 63 7
3 64 63 35
3 64 13 63
3 64 214 216
3 216 215 13
3 214 215 216
3 218 217 64
3 221 220 14
3 219 220 221
3 222 21 223
3 224 223 0
3 222 223 224
3 225 21 226
3 228 227 21
3 229 9 230
3 36 231 232
3 65 233 235
3 235 234 36
3 233 234 235
3 65 236 238
3 236 9 237
3 236 237 238
3 65 24 9
3 66 24 65
3 66 1 24
3 51 239 241
3 239 37 240
3 239 240 241
3 67 37 51
3 67 15 37
3 39 67 8
3 68 67 39
3 68 15 67
3 68 66 15
3 69 66 68
3 69 1 66
3 69 43 1
3 70 43 69
3 70 4 43
3 41 70 16
3 71 70 41
3 71 4 70
3 71 17 4
3 62 17 71
3 62 242 244
3 244 243 17
3 242 243 244
3 247 246 2
3 245 246 247
