ply
format ascii 1.0
element vertex 117
property float x
property float y
property float z
element face 101
property list uchar int vertex_index
end_header
27.412006 -70.543121 13.062035
27.743368 -71.547562 17.988255
27.16888 -75.804222 13.032483
27.183891 -76.84726 18.158243
28.324148 -67.326286 22.463676
28.166286 -66.154556 17.680223
27.785528 -71.940094 20.470724
27.493624 -74.128632 18.1068
27.446394 -74.593628 20.561893
28.316702 -67.740898 24.874815
28.043243 -69.969566 22.731548
28.053967 -69.338737 20.323252
27.141903 -69.89386 10.633625
26.762018 -71.943413 8.196752
27.071428 -72.614098 10.744187
27.807405 -68.159996 15.377547
27.989412 -65.488487 15.223612
27.575174 -67.670181 13.002362
27.634056 -70.922333 15.590124
27.299255 -73.083023 13.181357
27.424364 -73.741058 15.487224
27.239773 -76.254852 15.637203
28.305191 -66.529747 20.197311
27.970797 -68.749069 17.833529
27.580614 -73.55048 21.669992
27.615961 -73.266861 20.516309
27.750181 -72.223713 21.624408
27.879039 -71.238449 22.754819
28.012528 -70.154785 23.931305
27.750181 -72.223713 21.624408
27.914386 -70.95483 21.601136
27.879039 -71.238449 22.754819
27.084801 -77.93644 16.905929
27.112742 -77.640236 15.645409
27.211832 -76.551056 16.897723
28.463987 -66.167111 23.554033
28.460263 -66.374416 24.759602
28.320425 -67.533592 23.669246
28.458852 -65.8536 22.346994
28.463987 -66.167111 23.554033
28.31467 -66.928016 21.330493
28.449374 -65.45533 21.213811
28.458852 -65.8536 22.346994
26.627719 -72.847015 7.086714
26.785177 -73.229699 8.304434
27.099317 -75.541599 11.889786
27.164504 -74.180999 11.964223
27.234068 -74.443623 13.10692
28.275352 -64.748487 17.542936
28.345081 -64.97685 18.759746
28.09046 -64.113661 15.032964
27.859046 -65.216999 13.943137
28.149257 -69.040451 25.002938
28.286859 -67.885887 26.119047
28.179972 -68.855232 23.803182
28.149257 -69.040451 25.002938
28.012528 -70.154785 23.931305
26.95196 -70.918637 9.415188
26.795358 -70.553116 8.260351
26.985301 -69.52834 9.478787
26.939882 -73.565041 9.578152
26.785177 -73.229699 8.304434
26.916723 -72.278756 9.47047
27.08118 -76.886699 11.911798
27.110249 -77.067318 13.126552
27.651927 -66.307846 12.832512
27.859046 -65.216999 13.943137
27.782293 -66.579334 14.112987
27.4238 -67.384807 11.766653
27.651927 -66.307846 12.832512
27.207165 -68.496647 10.582285
27.4238 -67.384807 11.766653
27.358539 -68.782021 11.817994
26.985301 -69.52834 9.478787
27.207165 -68.496647 10.582285
27.145695 -77.292633 14.428912
27.110249 -77.067318 13.126552
27.204327 -76.029537 14.334843
27.145695 -77.292633 14.428912
27.112742 -77.640236 15.645409
28.456293 -66.498104 25.995279
28.286859 -67.885887 26.119047
28.456293 -66.498104 25.995279
28.460263 -66.374416 24.759602
28.414534 -65.164446 20.01829
28.449374 -65.45533 21.213811
28.235739 -66.342151 18.938767
28.345081 -64.97685 18.759746
28.414534 -65.164446 20.01829
26.585968 -71.501889 7.020601
26.795358 -70.553116 8.260351
26.585968 -71.501889 7.020601
26.627719 -72.847015 7.086714
27.05059 -73.946537 10.745638
27.185341 -72.84856 11.962772
27.164504 -74.180999 11.964223
26.939882 -73.565041 9.578152
27.05059 -73.946537 10.745638
27.099317 -75.541599 11.889786
27.08118 -76.886699 11.911798
28.186915 -64.415453 16.31463
28.275352 -64.748487 17.542936
28.077849 -65.821522 16.451918
28.186915 -64.415453 16.31463
28.09046 -64.113661 15.032964
27.381242 -74.761513 21.790169
27.580614 -73.55048 21.669992
27.246158 -75.8741 20.619762
27.381242 -74.761513 21.790169
27.114907 -77.000916 19.417937
27.315143 -75.720444 19.360068
27.246158 -75.8741 20.619762
26.998131 -78.159886 18.191416
27.114907 -77.000916 19.417937
26.929147 -78.313541 19.45111
27.084801 -77.93644 16.905929
26.998131 -78.159886 18.191416
3 24 8 25
3 26 25 6
3 24 25 26
3 27 10 28
3 29 6 30
3 31 30 10
3 29 30 31
3 0 14 12
3 0 17 15
3 0 12 17
3 1 20 18
3 3 21 7
3 3 32 34
3 34 33 21
3 32 33 34
3 4 35 37
3 37 36 9
3 35 36 37
3 4 38 39
3 4 40 42
3 40 22 41
3 40 41 42
3 1 23 11
3 1 18 23
3 44 43 13
3 2 45 47
3 47 46 19
3 45 46 47
3 5 48 49
3 51 50 16
3 6 7 1
3 8 7 6
3 8 3 7
3 52 9 53
3 10 54 56
3 54 9 55
3 54 55 56
3 10 4 9
3 10 11 4
3 6 11 10
3 6 1 11
3 12 57 59
3 57 13 58
3 57 58 59
3 14 13 12
3 14 60 62
3 62 61 13
3 60 61 62
3 64 63 2
3 15 16 5
3 17 16 15
3 17 65 67
3 67 66 16
3 65 66 67
3 17 68 69
3 12 70 72
3 72 71 17
3 70 71 72
3 12 73 74
3 18 19 0
3 20 19 18
3 20 2 19
3 7 20 1
3 21 20 7
3 21 2 20
3 21 75 77
3 77 76 2
3 75 76 77
3 79 78 21
3 9 80 81
3 83 82 9
3 22 84 85
3 22 86 88
3 86 5 87
3 86 87 88
3 11 22 4
3 23 22 11
3 23 5 22
3 23 15 5
3 18 15 23
3 18 0 15
3 13 89 90
3 92 91 13
3 19 14 0
3 93 14 94
3 95 94 19
3 93 94 95
3 97 96 14
3 99 98 2
3 16 100 102
3 102 101 5
3 100 101 102
3 104 103 16
3 105 8 106
3 107 8 108
3 109 3 110
3 111 110 8
3 109 110 111
3 112 3 113
3 112 113 114
3 116 115 3
