ply
format ascii 1.0
element vertex 100
property float x
property float y
property float z
element face 81
property list uchar int vertex_index
end_header
-7.408796 -35.598553 -40.959377
-5.095305 -28.862911 -43.810589
-3.150345 -22.178856 -46.874313
-2.741199 -26.643578 -47.294666
-8.608869 -36.270897 -39.339989
-6.297534 -29.814312 -42.087658
-2.140401 -20.919077 -48.58535
-2.90076 -24.261385 -47.154205
-1.784299 -22.756624 -48.974686
-6.199083 -34.804794 -42.581364
-8.602911 -33.759052 -39.087196
-7.353154 -33.072819 -40.792984
-6.247518 -32.245003 -42.315331
-5.051833 -31.228228 -43.973289
-4.074644 -25.454817 -45.30817
-3.875439 -27.66745 -45.605007
-3.864786 -30.350607 -45.628448
-9.207382 -36.544426 -38.526198
-9.280165 -37.886816 -38.601252
-1.601993 -20.10029 -49.546604
-1.809199 -19.251283 -49.329109
-1.423942 -21.019063 -49.741272
-1.96235 -21.837851 -48.780018
-1.601993 -20.10029 -49.546604
-1.235994 -22.03624 -49.882042
-1.423942 -21.019063 -49.741272
-7.500972 -37.015898 -40.98267
-8.05017 -37.262806 -40.25638
-6.80394 -35.201673 -41.77037
-6.896116 -36.619018 -41.793663
-7.500972 -37.015898 -40.98267
-8.002914 -32.155214 -39.821136
-8.560344 -32.422722 -39.070966
-7.378036 -31.812098 -40.674031
-7.978033 -33.415936 -39.94009
-8.002914 -32.155214 -39.821136
-3.292257 -21.190933 -46.742088
-2.802525 -20.610714 -47.576273
-3.689666 -22.764183 -46.007927
-3.292257 -21.190933 -46.742088
-3.612495 -23.816837 -46.091241
-4.151815 -24.402164 -45.224855
-3.689666 -22.764183 -46.007927
-2.668289 -27.843665 -47.339899
-3.230082 -29.697179 -46.50679
-3.302993 -28.497093 -46.461557
-8.650206 -37.598978 -39.446686
-9.280165 -37.886816 -38.601252
-8.008833 -35.934725 -40.149683
-8.05017 -37.262806 -40.25638
-8.650206 -37.598978 -39.446686
-6.296641 -28.546993 -42.063242
-6.850226 -30.182844 -41.321367
-5.749553 -28.158361 -42.847606
-6.296641 -28.546993 -42.063242
-5.148439 -27.68266 -43.709072
-5.696419 -29.338611 -42.949123
-5.749553 -28.158361 -42.847606
-2.297553 -19.980825 -48.431792
-1.809199 -19.251283 -49.329109
-2.645373 -21.548966 -47.729832
-2.802525 -20.610714 -47.576273
-2.297553 -19.980825 -48.431792
-1.664507 -23.948339 -49.035591
-2.142957 -25.891817 -48.195582
-2.262749 -24.700101 -48.134676
-1.664507 -23.948339 -49.035591
-1.235994 -22.03624 -49.882042
-6.281177 -36.282184 -42.580452
-6.97821 -38.096409 -41.792751
-6.896116 -36.619018 -41.793663
-5.610067 -34.365948 -43.358177
-6.281177 -36.282184 -42.580452
-9.189971 -34.02396 -38.300035
-8.560344 -32.422722 -39.070966
-9.204403 -35.288503 -38.399801
-9.189971 -34.02396 -38.300035
-8.60589 -35.014974 -39.213593
-9.207382 -36.544426 -38.526198
-9.204403 -35.288503 -38.399801
-6.825344 -31.443566 -41.440321
-7.378036 -31.812098 -40.674031
-6.850226 -30.182844 -41.321367
-5.036442 -32.577664 -44.05414
-5.610067 -34.365948 -43.358177
-5.625458 -33.016511 -43.277327
-4.638108 -25.978613 -44.457862
-4.151815 -24.402164 -45.224855
-4.584974 -27.158864 -44.559379
-5.148439 -27.68266 -43.709072
-4.638108 -25.978613 -44.457862
-4.442919 -32.138854 -44.88172
-5.036442 -32.577664 -44.05414
-4.45831 -30.789417 -44.800868
-3.796368 -31.602598 -45.713385
-4.442919 -32.138854 -44.88172
-3.796368 -31.602598 -45.713385
-3.230082 -29.697179 -46.50679
-2.668289 -27.843665 -47.339899
-2.142957 -25.891817 -48.195582
3 17 4 18
3 19 6 20
3 21 8 22
3 23 22 6
3 21 22 23
3 25 24 8
3 0 26 27
3 0 28 30
3 28 9 29
3 28 29 30
3 31 10 32
3 33 11 34
3 35 34 10
3 33 34 35
3 1 12 5
3 1 13 12
3 2 36 37
3 2 38 39
3 2 40 42
3 40 14 41
3 40 41 42
3 3 15 7
3 3 16 15
3 3 43 45
3 45 44 16
3 43 44 45
3 4 46 47
3 4 48 50
3 48 0 49
3 48 49 50
3 51 5 52
3 53 5 54
3 55 1 56
3 57 56 5
3 55 56 57
3 6 58 59
3 6 60 62
3 60 2 61
3 60 61 62
3 6 7 2
3 8 7 6
3 8 3 7
3 8 63 65
3 65 64 3
3 63 64 65
3 67 66 8
3 9 68 70
3 68 69 70
3 9 71 72
3 10 73 74
3 10 75 76
3 10 77 79
3 77 4 78
3 77 78 79
3 11 4 10
3 11 0 4
3 5 80 82
3 80 11 81
3 80 81 82
3 12 11 5
3 12 0 11
3 12 9 0
3 13 9 12
3 13 83 85
3 85 84 9
3 83 84 85
3 14 86 87
3 14 88 90
3 88 1 89
3 88 89 90
3 7 14 2
3 15 14 7
3 15 1 14
3 15 13 1
3 16 13 15
3 16 91 93
3 93 92 13
3 91 92 93
3 16 94 95
3 97 96 16
3 99 98 3
