ply
format ascii 1.0
element vertex 304
property float x
property float y
property float z
element face 308
property list uchar int vertex_index
end_header
37.624447 10.544029 18.289042
36.028435 -6.34866 20.218523
38.860489 -3.581702 11.502884
36.584541 -19.749786 12.602581
34.187229 -32.794403 3.863836
35.04092 -14.470881 20.673992
36.592594 -13.051272 16.618452
35.382965 -21.024178 16.931101
35.064598 -27.582048 12.72595
38.015926 19.480251 16.780144
39.089962 11.955677 13.647869
36.918377 1.750181 19.392809
38.51786 3.662129 14.908507
37.607395 -5.061646 15.995049
37.812187 -12.193052 12.140688
37.306957 -18.964251 7.964729
35.783794 -26.365383 8.231239
34.03297 -33.631683 8.427565
36.639591 25.99419 19.743813
36.407673 17.352676 21.344315
34.742176 14.527452 25.422823
35.891235 8.304079 22.595407
35.152084 -0.16879 23.39883
34.314442 -8.517431 23.879028
34.538067 -18.34815 20.77087
35.274223 -17.809429 18.846045
34.692825 -21.749527 18.908791
34.73103 -24.898167 16.96513
37.859798 15.050875 17.577141
38.618374 15.868041 15.197357
38.414841 11.465608 15.958531
36.519794 -2.231184 19.773752
37.360729 -1.626348 17.576582
36.850452 -5.786882 18.123135
36.668915 -16.519329 14.627357
37.2668 -12.634413 14.349133
37.237011 -16.156733 12.232774
37.669376 -15.635006 9.992383
36.977856 -19.569475 10.24658
36.553646 -22.781061 8.198047
36.255363 -23.172352 10.584237
34.280399 -31.208855 12.734976
34.679066 -30.474985 10.570134
33.800491 -34.192635 10.489032
36.587288 21.537012 20.524124
35.751942 20.044323 22.801483
35.36071 11.837755 23.961527
35.588245 4.089708 22.948879
38.700939 -0.182735 13.379071
39.136292 4.044271 12.620554
35.548183 -10.457225 20.473856
36.368538 -9.688763 18.458696
35.845146 -13.73609 18.682959
36.014523 -17.027275 16.808023
36.026768 -20.309496 14.842434
35.84901 -23.669178 12.725397
35.340073 -24.210604 14.869024
34.640163 -27.89234 14.850358
38.096451 23.616846 15.946228
38.775097 24.813583 13.482037
38.769165 20.190895 14.288168
37.30534 6.073011 18.897108
38.112263 6.804276 16.650806
37.755436 2.623369 17.183393
38.079365 -0.801874 15.505771
38.26162 -4.42381 13.835085
37.134258 -9.078538 16.306681
37.806602 -8.445017 14.121718
38.389191 -7.965984 11.739535
38.283871 -11.437221 9.902328
35.932827 -26.006802 5.873126
35.076248 -29.608335 5.951861
35.454254 -27.067793 10.472225
34.896698 -30.17745 8.222679
34.147388 -33.241547 6.058037
33.252544 -36.559887 6.121084
37.41547 26.994364 17.344936
37.375111 22.577785 18.248087
37.243191 18.451206 19.085691
37.011692 13.972909 19.938313
34.968086 18.708443 24.807878
35.577694 15.728464 23.445679
36.209389 12.78537 21.964367
36.743946 9.484996 20.586048
36.450951 5.077491 21.00316
36.096584 0.986935 21.357466
35.660236 -3.235806 21.731068
34.718185 -4.339013 23.723812
35.182095 -7.412165 22.083214
34.728619 -11.332889 22.303534
34.241215 -15.307996 22.489481
38.82325 7.838205 14.394766
34.33358 -22.023974 19.897725
34.615446 -20.048839 19.83983
34.256201 -20.323285 20.828764
34.398361 -23.56694 18.946187
34.33358 -22.023974 19.897725
33.676743 -34.299971 11.630793
34.040445 -32.700745 11.612004
33.916697 -32.808081 12.753764
33.393823 -35.811585 10.572703
33.676743 -34.299971 11.630793
35.418732 21.501107 23.515014
35.797713 22.268721 22.453369
39.07123 -1.647455 11.196008
38.991455 0.052028 12.134101
38.780714 -1.882219 12.440977
34.18968 -32.479092 2.794718
34.670702 -30.930372 3.831184
34.379903 -28.113798 15.888153
34.685597 -26.395254 15.907744
34.425337 -26.616711 16.945539
34.259153 -29.714269 14.911885
34.379903 -28.113798 15.888153
39.179769 14.297679 13.247429
38.943976 16.253861 14.022174
38.854168 13.911859 14.422613
39.378412 12.544007 12.485938
39.179769 14.297679 13.247429
37.664152 -16.898808 7.867982
37.845361 -15.234186 8.881809
37.488166 -17.299629 8.978556
37.394035 -18.750109 6.820818
37.664152 -16.898808 7.867982
37.009063 -20.701402 6.890165
37.394035 -18.750109 6.820818
36.641852 28.176844 19.286164
36.24996 27.520125 20.530556
37.02753 26.494277 18.544374
37.029791 28.676931 18.086726
36.641852 28.176844 19.286164
34.431812 15.895801 26.155196
34.322458 13.915868 26.38702
34.855131 16.617947 25.11535
34.544767 17.986297 25.847724
34.431812 15.895801 26.155196
34.516313 -6.428222 23.80142
34.278877 -4.843003 24.616802
34.077005 -6.932212 24.69441
33.800039 -15.742039 23.460424
34.049925 -13.920999 23.291164
33.998201 -17.195636 22.563361
33.800039 -15.742039 23.460424
39.093478 25.147142 12.217233
39.071894 23.007998 12.723527
39.307024 6.360077 12.259998
39.402884 4.38631 11.435539
34.417463 -25.14126 17.974356
34.711928 -23.323847 17.93696
34.398361 -23.56694 18.946187
34.425337 -26.616711 16.945539
34.417463 -25.14126 17.974356
33.464304 -35.657225 9.375781
33.580544 -35.376749 8.345047
33.91673 -33.912159 9.458298
33.464304 -35.657225 9.375781
33.393823 -35.811585 10.572703
36.241537 25.243654 20.924534
36.24996 27.520125 20.530556
36.215385 23.015065 21.31469
36.613439 23.765601 20.133969
36.241537 25.243654 20.924534
36.169615 20.790667 21.662804
36.215385 23.015065 21.31469
35.797713 22.268721 22.453369
34.622501 12.421173 25.644544
34.322458 13.915868 26.38702
34.931769 11.076324 24.913896
35.051443 13.182603 24.692175
34.622501 12.421173 25.644544
35.204678 9.643937 24.216982
34.931769 11.076324 24.913896
35.46994 7.877099 23.533922
35.625973 10.070917 23.278467
35.204678 9.643937 24.216982
35.318445 5.769913 23.710658
35.73974 6.196893 22.772143
35.46994 7.877099 23.533922
35.1205 3.619358 23.949352
35.318445 5.769913 23.710658
34.90242 1.490109 24.174328
35.370165 1.960459 23.173855
35.1205 3.619358 23.949352
33.880106 -8.869573 24.790851
34.077005 -6.932212 24.69441
34.086539 -10.525716 23.985937
33.880106 -8.869573 24.790851
39.209131 2.165532 11.754843
38.918616 1.930768 12.999813
38.991455 0.052028 12.134101
39.402884 4.38631 11.435539
39.209131 2.165532 11.754843
34.079271 -31.372526 13.854194
34.460281 -29.550598 13.792667
34.259153 -29.714269 14.911885
33.916697 -32.808081 12.753764
34.079271 -31.372526 13.854194
38.435774 24.215215 14.714132
38.42214 26.465812 14.280233
38.082817 25.867444 15.512328
39.068928 20.696654 13.126592
39.071894 23.007998 12.723527
38.772131 22.502239 13.885103
39.019371 18.415288 13.567579
38.69377 18.029468 14.742763
38.943976 16.253861 14.022174
39.068928 20.696654 13.126592
39.019371 18.415288 13.567579
39.081837 -3.505248 10.215836
38.852404 -5.397651 10.506811
33.712395 -34.15725 2.70815
33.713532 -34.487961 3.799472
38.616754 -7.589792 10.625136
38.852404 -5.397651 10.506811
38.62484 -5.773843 11.621209
38.564094 -9.325411 9.706533
38.616754 -7.589792 10.625136
38.336531 -9.701602 10.820932
38.44528 -11.210804 8.674499
38.564094 -9.325411 9.706533
38.152609 -13.135293 8.836782
37.976624 -13.536113 9.947356
37.845361 -15.234186 8.881809
38.44528 -11.210804 8.674499
38.152609 -13.135293 8.836782
36.632408 -22.609807 7.006824
37.009063 -20.701402 6.890165
36.930301 -20.872656 8.081388
36.321999 -24.222677 5.844363
36.632408 -22.609807 7.006824
36.243237 -24.393932 7.035587
35.956238 -25.79498 4.742071
36.321999 -24.222677 5.844363
35.543501 -27.536572 4.835829
35.956238 -25.79498 4.742071
35.115212 -29.337338 4.875196
35.543501 -27.536572 4.835829
35.504537 -27.807569 5.912494
34.631738 -31.201369 4.907849
34.670702 -30.930372 3.831184
35.115212 -29.337338 4.875196
33.693611 -34.711533 4.896572
33.713532 -34.487961 3.799472
34.167309 -33.017975 4.960936
33.246189 -36.370703 4.928096
33.693611 -34.711533 4.896572
33.699966 -34.900717 6.08956
32.796867 -37.928568 4.963487
33.246189 -36.370703 4.928096
33.190331 -36.840851 7.191807
33.642757 -35.095785 7.274324
33.580544 -35.376749 8.345047
32.772829 -38.260618 6.065275
33.190331 -36.840851 7.191807
32.796867 -37.928568 4.963487
32.772829 -38.260618 6.065275
37.391627 29.239322 16.866188
37.029791 28.676931 18.086726
37.742327 27.556203 16.211683
37.391627 29.239322 16.866188
37.755961 25.305605 16.645582
38.082817 25.867444 15.512328
37.742327 27.556203 16.211683
34.630607 20.038767 25.576736
34.544767 17.986297 25.847724
35.026804 20.833167 24.518212
34.630607 20.038767 25.576736
35.360014 19.376383 23.80468
35.418732 21.501107 23.515014
35.026804 20.833167 24.518212
34.674177 -0.678655 24.389209
34.90242 1.490109 24.174328
34.457228 -2.763766 24.5517
34.278877 -4.843003 24.616802
34.935135 -2.253901 23.561321
34.674177 -0.678655 24.389209
34.457228 -2.763766 24.5517
34.293627 -11.933445 23.19819
34.52153 -9.92516 23.091281
34.086539 -10.525716 23.985937
34.484917 -13.320442 22.396507
34.293627 -11.933445 23.19819
34.049925 -13.920999 23.291164
34.146627 -18.715713 21.704055
34.389641 -16.828073 21.630175
33.998201 -17.195636 22.563361
34.256201 -20.323285 20.828764
34.146627 -18.715713 21.704055
38.759743 26.94368 13.003374
38.42214 26.465812 14.280233
38.759743 26.94368 13.003374
39.093478 25.147142 12.217233
39.150503 8.257044 13.147104
38.979771 5.941238 13.50766
39.307024 6.360077 12.259998
39.283859 10.31578 12.773655
38.956606 9.896941 14.021318
39.150503 8.257044 13.147104
39.378412 12.544007 12.485938
39.283859 10.31578 12.773655
39.07123 -1.647455 11.196008
39.081837 -3.505248 10.215836
34.18968 -32.479092 2.794718
33.712395 -34.15725 2.70815
3 92 26 93
3 94 93 24
3 92 93 94
3 96 95 26
3 0 30 28
3 1 33 31
3 3 36 34
3 3 38 36
3 3 40 38
3 97 43 98
3 99 98 41
3 97 98 99
3 101 100 43
3 102 45 103
3 2 104 106
3 106 105 48
3 104 105 106
3 4 107 108
3 5 52 50
3 7 53 25
3 7 54 53
3 7 56 54
3 109 57 110
3 111 110 27
3 109 110 111
3 113 112 57
3 9 60 58
3 10 114 116
3 116 115 29
3 114 115 116
3 10 117 118
3 11 63 61
3 13 64 32
3 13 65 64
3 6 66 51
3 14 67 35
3 14 68 67
3 14 69 68
3 15 119 121
3 121 120 37
3 119 120 121
3 15 122 123
3 15 124 125
3 16 70 39
3 16 71 70
3 8 72 55
3 17 73 42
3 17 74 73
3 17 75 74
3 18 126 127
3 18 128 130
3 128 76 129
3 128 129 130
3 18 77 76
3 19 78 44
3 19 79 78
3 20 131 132
3 20 133 135
3 133 80 134
3 133 134 135
3 20 81 80
3 21 82 46
3 21 83 82
3 21 84 83
3 22 85 47
3 22 86 85
3 23 136 138
3 136 87 137
3 136 137 138
3 23 88 87
3 23 89 88
3 139 90 140
3 142 141 90
3 144 143 59
3 12 91 62
3 146 145 49
3 24 25 5
3 26 25 24
3 26 7 25
3 26 27 7
3 147 27 148
3 149 148 26
3 147 148 149
3 151 150 27
3 28 29 9
3 30 29 28
3 30 10 29
3 31 32 11
3 33 32 31
3 33 13 32
3 34 35 6
3 36 35 34
3 36 14 35
3 36 37 14
3 38 37 36
3 38 15 37
3 38 39 15
3 40 39 38
3 40 16 39
3 41 42 8
3 43 42 41
3 43 17 42
3 43 152 154
3 154 153 17
3 152 153 154
3 156 155 43
3 157 18 158
3 159 44 160
3 161 160 18
3 159 160 161
3 45 162 164
3 162 44 163
3 162 163 164
3 45 19 44
3 165 20 166
3 167 46 168
3 169 168 20
3 167 168 169
3 170 46 171
3 172 21 173
3 174 173 46
3 172 173 174
3 175 47 176
3 177 176 21
3 175 176 177
3 178 47 179
3 180 22 181
3 182 181 47
3 180 181 182
3 183 23 184
3 186 185 23
3 48 49 12
3 187 49 188
3 189 188 48
3 187 188 189
3 191 190 49
3 50 51 1
3 52 51 50
3 52 6 51
3 25 52 5
3 53 52 25
3 53 6 52
3 53 34 6
3 54 34 53
3 54 3 34
3 54 55 3
3 56 55 54
3 56 8 55
3 27 56 7
3 57 56 27
3 57 8 56
3 57 41 8
3 192 41 193
3 194 193 57
3 192 193 194
3 196 195 41
3 58 197 199
3 197 59 198
3 197 198 199
3 60 59 58
3 60 200 202
3 202 201 59
3 200 201 202
3 29 60 9
3 203 60 204
3 205 204 29
3 203 204 205
3 207 206 60
3 209 208 2
3 211 210 4
3 61 62 0
3 63 62 61
3 63 12 62
3 32 63 11
3 64 63 32
3 64 12 63
3 64 48 12
3 65 48 64
3 65 2 48
3 51 33 1
3 66 33 51
3 66 13 33
3 35 66 6
3 67 66 35
3 67 13 66
3 67 65 13
3 68 65 67
3 68 2 65
3 68 212 214
3 214 213 2
3 212 213 214
3 69 215 217
3 217 216 68
3 215 216 217
3 69 218 219
3 37 69 14
3 220 69 221
3 222 221 37
3 220 221 222
3 224 223 69
3 39 225 227
3 227 226 15
3 225 226 227
3 70 228 230
3 230 229 39
3 228 229 230
3 70 231 232
3 70 233 234
3 71 235 237
3 237 236 70
3 235 236 237
3 71 238 240
3 238 4 239
3 238 239 240
3 55 40 3
3 72 40 55
3 72 16 40
3 42 72 8
3 73 72 42
3 73 16 72
3 73 71 16
3 74 71 73
3 74 4 71
3 74 241 243
3 243 242 4
3 241 242 243
3 75 244 246
3 246 245 74
3 244 245 246
3 75 247 248
3 249 75 250
3 251 250 17
3 249 250 251
3 252 75 253
3 255 254 75
3 76 256 257
3 76 258 259
3 76 260 262
3 260 58 261
3 260 261 262
3 77 58 76
3 77 9 58
3 44 77 18
3 78 77 44
3 78 9 77
3 78 28 9
3 79 28 78
3 79 0 28
3 80 263 264
3 80 265 266
3 80 267 269
3 267 45 268
3 267 268 269
3 81 45 80
3 81 19 45
3 46 81 20
3 82 81 46
3 82 19 81
3 82 79 19
3 83 79 82
3 83 0 79
3 83 61 0
3 84 61 83
3 84 11 61
3 47 84 21
3 85 84 47
3 85 11 84
3 85 31 11
3 86 31 85
3 86 1 31
3 270 22 271
3 87 272 273
3 87 274 276
3 274 22 275
3 274 275 276
3 87 86 22
3 88 86 87
3 88 1 86
3 88 50 1
3 89 50 88
3 89 5 50
3 277 89 278
3 279 278 23
3 277 278 279
3 90 280 282
3 280 89 281
3 280 281 282
3 90 5 89
3 90 24 5
3 283 24 284
3 285 284 90
3 283 284 285
3 287 286 24
3 59 288 289
3 291 290 59
3 62 30 0
3 91 30 62
3 91 10 30
3 49 91 12
3 292 91 293
3 294 293 49
3 292 293 294
3 295 10 296
3 297 296 91
3 295 296 297
3 299 298 10
3 301 300 2
3 303 302 4
