ply
format ascii 1.0
element vertex 246
property float x
property float y
property float z
element face 240
property list uchar int vertex_index
end_header
4.556847 -77.972031 21.683914
6.004765 -69.209862 31.431572
0.92308 -63.87709 40.094517
-0.753906 -72.869904 31.516407
-7.500654 -76.321724 32.397793
-2.567819 -81.996857 21.367582
8.074618 -75.570877 22.476036
0.086642 -68.3535 36.095123
-8.725245 -80.77961 27.671162
-4.946481 -79.168488 26.826027
5.214088 -73.643051 26.792572
3.40382 -66.640945 35.686722
2.639288 -71.013939 31.46838
1.950998 -75.568932 26.445358
-4.105926 -74.659256 31.812731
-1.60715 -77.459763 26.490438
0.942345 -80.180458 21.213133
6.376801 -76.826546 21.977724
7.649915 -77.72757 19.837341
5.867594 -79.006668 19.385729
6.998175 -72.590912 26.974003
5.645251 -71.449921 29.148561
2.419766 -62.920177 39.862778
3.601749 -64.362419 37.733959
2.059565 -65.284721 37.921406
-0.219428 -70.686188 33.695244
1.399671 -69.70562 33.726032
0.980454 -71.899223 31.496222
2.272422 -73.250168 29.077726
0.574614 -74.217255 29.000742
-5.776534 -75.293129 32.326939
-3.801688 -80.55378 24.172806
-3.284778 -78.265938 26.703346
-2.081217 -79.735886 23.934332
-0.266466 -78.836266 23.794018
-0.85991 -81.104668 21.27309
9.407316 -76.468987 20.223345
9.017387 -78.544365 17.533432
6.244715 -67.019264 33.532906
-0.773399 -64.702675 40.564842
0.476265 -65.991692 38.325935
-1.150059 -66.85099 38.608452
-1.460013 -69.14872 36.309372
-1.845142 -71.315514 34.110947
-9.843955 -79.256058 30.459898
-8.052697 -78.673782 29.861231
-6.21966 -77.74305 29.618355
-6.826114 -80.000664 27.222263
-5.641798 -81.391731 24.50997
8.433814 -73.533684 24.882298
6.618507 -74.739693 24.540266
5.05952 -75.776573 24.211088
5.006135 -65.593483 35.672436
4.599673 -67.944458 33.609264
1.719597 -67.432678 35.975853
2.982263 -68.854599 33.652447
4.358786 -70.241287 31.291763
3.884053 -72.416794 29.078846
3.608317 -74.647499 26.544878
3.259083 -76.828781 24.01531
-3.549613 -72.252602 34.273819
-2.346673 -73.751511 31.595955
-4.474331 -76.885437 29.342562
-2.786724 -75.967239 29.212225
-1.049762 -75.205772 28.900768
0.213591 -76.562584 26.352076
1.50071 -77.895432 23.798929
2.712268 -79.063217 21.479242
4.275781 -79.076237 20.401252
4.931155 -79.593556 19.25216
5.212221 -78.48935 20.534821
6.674708 -69.834744 30.340192
6.838354 -68.71616 31.444622
5.825008 -70.329892 30.290067
6.49495 -70.954773 29.198687
6.674708 -69.834744 30.340192
1.058418 -62.758524 41.002411
0.291216 -63.2106 41.210173
1.671423 -63.398634 39.978648
1.806761 -62.280067 40.886541
1.058418 -62.758524 41.002411
-8.172757 -75.525734 33.897045
-8.381108 -76.727078 32.562456
-7.29647 -75.207371 33.608105
-8.172757 -75.525734 33.897045
-6.638594 -75.807426 32.362366
-6.434411 -74.693073 33.572678
-7.29647 -75.207371 33.608105
-2.001626 -82.691395 20.034977
-1.147671 -82.2453 19.987731
-1.713865 -81.550763 21.320336
8.740967 -76.019932 21.349691
9.598724 -75.430451 21.507531
8.932375 -74.981395 22.633877
8.112989 -79.236523 17.292969
8.333651 -78.135967 18.685386
7.429253 -78.828125 18.444923
8.828726 -79.604321 16.096785
8.112989 -79.236523 17.292969
6.429048 -65.83451 34.512017
7.038063 -66.506729 33.527977
-1.61171 -65.10619 40.80109
-1.366176 -64.047062 41.691963
-1.80004 -66.180347 39.822895
-0.961729 -65.776832 39.586647
-1.61171 -65.10619 40.80109
-2.322731 -69.585945 36.451662
-2.142949 -68.486847 37.559726
-2.515295 -70.669342 35.35245
-1.652578 -70.232117 35.21016
-2.322731 -69.585945 36.451662
-9.2846 -80.017834 29.06553
-10.168422 -80.403168 29.199273
-9.609067 -81.164944 27.804905
-5.981685 -82.57283 23.222879
-6.555239 -81.812481 24.667826
-5.021124 -82.121948 23.07778
-5.981685 -82.57283 23.222879
8.586807 -72.455376 26.099393
9.230705 -72.930267 25.084162
-3.82777 -73.455929 33.043275
-4.423707 -72.694836 34.421452
-4.701864 -73.898163 33.190907
1.631471 -80.708259 20.038965
2.516433 -80.149639 20.17202
1.827306 -79.621837 21.346187
6.538093 -79.467674 18.219117
7.429253 -78.828125 18.444923
6.758755 -78.367119 19.611535
5.655409 -80.071743 18.058187
6.538093 -79.467674 18.219117
5.655409 -80.071743 18.058187
4.931155 -79.593556 19.25216
-9.038338 -81.951145 26.361751
-9.609067 -81.164944 27.804905
-8.096963 -81.506421 26.248422
-9.038338 -81.951145 26.361751
7.171412 -71.525269 28.111407
7.868988 -71.98399 27.145246
6.321713 -72.020417 28.061282
7.171412 -71.525269 28.111407
6.49495 -70.954773 29.198687
2.59591 -61.864818 40.605744
1.806761 -62.280067 40.886541
3.207028 -62.494119 39.64548
2.59591 -61.864818 40.605744
3.010757 -63.641298 38.798368
3.79802 -63.215241 38.58107
3.207028 -62.494119 39.64548
-5.537168 -74.215099 33.448011
-6.434411 -74.693073 33.572678
-4.94123 -74.976192 32.069835
-4.701864 -73.898163 33.190907
-5.537168 -74.215099 33.448011
-0.258288 -81.727898 20.023851
0.64284 -81.265793 19.993873
0.041218 -80.642563 21.243111
-0.258288 -81.727898 20.023851
-1.147671 -82.2453 19.987731
10.291969 -75.799019 20.409163
9.598724 -75.430451 21.507531
10.137409 -76.793819 19.076955
10.291969 -75.799019 20.409163
9.942445 -77.831508 17.731999
10.137409 -76.793819 19.076955
9.212352 -77.506676 18.878388
9.687723 -78.850952 16.397738
9.942445 -77.831508 17.731999
9.687723 -78.850952 16.397738
8.828726 -79.604321 16.096785
6.958329 -67.620861 32.495289
7.038063 -66.506729 33.527977
6.12474 -68.114563 32.482239
6.838354 -68.71616 31.444622
6.958329 -67.620861 32.495289
-0.557023 -63.623392 41.445335
-1.366176 -64.047062 41.691963
0.074841 -64.289883 40.329679
0.291216 -63.2106 41.210173
-0.557023 -63.623392 41.445335
-1.987972 -67.337982 38.709266
-1.80004 -66.180347 39.822895
-1.305036 -67.999855 37.458912
-1.987972 -67.337982 38.709266
-2.142949 -68.486847 37.559726
-10.694055 -79.620411 30.576919
-10.168422 -80.403168 29.199273
-10.485189 -78.522922 31.847729
-10.694055 -79.620411 30.576919
-9.552759 -78.194244 31.593508
-10.485189 -78.522922 31.847729
-8.65713 -77.903107 31.294175
-9.552759 -78.194244 31.593508
-8.948326 -78.96492 30.160564
-7.776675 -77.497753 31.129512
-8.381108 -76.727078 32.562456
-8.65713 -77.903107 31.294175
-7.147398 -81.116948 26.023972
-7.775679 -80.390137 27.446713
-8.096963 -81.506421 26.248422
-6.233956 -80.696197 25.866117
-7.147398 -81.116948 26.023972
-6.555239 -81.812481 24.667826
-4.101069 -81.702973 22.909198
-4.721743 -80.972756 24.341388
-5.021124 -82.121948 23.07778
-3.484135 -82.424511 21.506586
-3.184754 -81.275318 22.770194
-4.101069 -81.702973 22.909198
-2.942629 -83.143768 20.14582
-3.484135 -82.424511 21.506586
9.111974 -73.962799 23.837008
9.230705 -72.930267 25.084162
8.254216 -74.55228 23.679167
8.932375 -74.981395 22.633877
9.111974 -73.962799 23.837008
7.715994 -73.062298 25.928151
8.586807 -72.455376 26.099393
7.868988 -71.98399 27.145246
4.419975 -63.870985 37.606443
3.79802 -63.215241 38.58107
5.122167 -64.486517 36.575682
4.419975 -63.870985 37.606443
4.303942 -64.977951 36.703198
5.809757 -65.12162 35.581781
5.122167 -64.486517 36.575682
5.625425 -66.306374 34.602671
6.429048 -65.83451 34.512017
5.809757 -65.12162 35.581781
-4.21985 -71.603615 35.549523
-4.423707 -72.694836 34.421452
-3.36753 -71.137886 35.433886
-4.21985 -71.603615 35.549523
-2.697377 -71.784058 34.192383
-2.515295 -70.669342 35.35245
-3.36753 -71.137886 35.433886
3.353492 -79.62183 20.298916
4.275781 -79.076237 20.401252
3.634558 -78.517624 21.581578
3.353492 -79.62183 20.298916
2.516433 -80.149639 20.17202
1.631471 -80.708259 20.038965
0.64284 -81.265793 19.993873
-2.376436 -83.838306 18.813215
-2.001626 -82.691395 20.034977
-2.942629 -83.143768 20.14582
3 0 19 17
3 0 68 70
3 70 69 19
3 68 69 70
3 1 71 72
3 1 73 75
3 73 21 74
3 73 74 75
3 2 76 77
3 2 78 80
3 78 22 79
3 78 79 80
3 2 24 22
3 3 27 25
3 3 29 27
3 4 81 82
3 4 83 84
3 4 85 87
3 85 30 86
3 85 86 87
3 5 33 31
3 5 35 33
3 5 88 90
3 90 89 35
3 88 89 90
3 6 91 93
3 91 36 92
3 91 92 93
3 94 37 95
3 96 95 18
3 94 95 96
3 98 97 37
3 99 38 100
3 101 39 102
3 103 41 104
3 105 104 39
3 103 104 105
3 106 42 107
3 108 43 109
3 110 109 42
3 108 109 110
3 8 111 113
3 111 44 112
3 111 112 113
3 8 45 44
3 8 47 45
3 114 48 115
3 117 116 48
3 118 49 119
3 10 50 20
3 10 51 50
3 11 52 23
3 11 53 52
3 7 54 40
3 12 55 26
3 12 56 55
3 12 57 56
3 13 58 28
3 13 59 58
3 14 120 122
3 120 60 121
3 120 121 122
3 14 61 60
3 9 62 46
3 15 63 32
3 15 64 63
3 15 65 64
3 16 66 34
3 16 67 66
3 16 123 125
3 125 124 67
3 123 124 125
3 17 18 6
3 19 18 17
3 19 126 128
3 128 127 18
3 126 127 128
3 19 129 130
3 132 131 19
3 133 8 134
3 136 135 8
3 137 20 138
3 21 139 141
3 139 20 140
3 139 140 141
3 21 10 20
3 22 142 143
3 22 144 145
3 22 146 148
3 146 23 147
3 146 147 148
3 24 23 22
3 24 11 23
3 25 26 7
3 27 26 25
3 27 12 26
3 27 28 12
3 29 28 27
3 29 13 28
3 30 149 150
3 30 151 153
3 151 14 152
3 151 152 153
3 31 32 9
3 33 32 31
3 33 15 32
3 33 34 15
3 35 34 33
3 35 16 34
3 35 154 156
3 156 155 16
3 154 155 156
3 158 157 35
3 36 159 160
3 36 161 162
3 18 36 6
3 37 36 18
3 37 163 165
3 165 164 36
3 163 164 165
3 37 166 167
3 169 168 37
3 38 170 171
3 38 172 174
3 172 1 173
3 172 173 174
3 39 175 176
3 39 177 179
3 177 2 178
3 177 178 179
3 39 40 2
3 41 40 39
3 41 7 40
3 180 41 181
3 42 182 184
3 182 41 183
3 182 183 184
3 42 7 41
3 42 25 7
3 43 25 42
3 43 3 25
3 44 185 186
3 44 187 188
3 44 189 190
3 45 191 193
3 193 192 44
3 191 192 193
3 45 194 196
3 194 4 195
3 194 195 196
3 45 46 4
3 47 46 45
3 47 9 46
3 197 47 198
3 199 198 8
3 197 198 199
3 48 200 202
3 200 47 201
3 200 201 202
3 48 9 47
3 48 31 9
3 203 31 204
3 205 204 48
3 203 204 205
3 206 5 207
3 208 207 31
3 206 207 208
3 210 209 5
3 49 211 212
3 49 213 215
3 213 6 214
3 213 214 215
3 20 216 218
3 216 49 217
3 216 217 218
3 50 49 20
3 50 6 49
3 50 17 6
3 51 17 50
3 51 0 17
3 23 219 220
3 52 221 223
3 223 222 23
3 221 222 223
3 52 224 225
3 52 226 228
3 226 38 227
3 226 227 228
3 53 38 52
3 53 1 38
3 40 24 2
3 54 24 40
3 54 11 24
3 26 54 7
3 55 54 26
3 55 11 54
3 55 53 11
3 56 53 55
3 56 1 53
3 56 21 1
3 57 21 56
3 57 10 21
3 28 57 12
3 58 57 28
3 58 10 57
3 58 51 10
3 59 51 58
3 59 0 51
3 60 229 230
3 60 231 232
3 60 233 235
3 233 43 234
3 233 234 235
3 61 43 60
3 61 3 43
3 46 30 4
3 62 30 46
3 62 14 30
3 32 62 9
3 63 62 32
3 63 14 62
3 63 61 14
3 64 61 63
3 64 3 61
3 64 29 3
3 65 29 64
3 65 13 29
3 34 65 15
3 66 65 34
3 66 13 65
3 66 59 13
3 67 59 66
3 67 0 59
3 67 236 238
3 238 237 0
3 236 237 238
3 240 239 67
3 242 241 16
3 245 244 5
3 243 244 245
