ply
format ascii 1.0
element vertex 189
property float x
property float y
property float z
element face 184
property list uchar int vertex_index
end_header
7.416237 -43.930866 43.725716
3.620145 -46.232735 48.108727
9.097611 -45.009335 41.75301
7.435194 -47.048233 43.180077
8.482641 -41.487186 43.028713
2.95725 -50.641453 47.201324
6.59585 -41.530235 45.418362
5.806861 -44.876945 45.588436
4.446854 -42.494755 48.250599
2.129244 -43.52206 51.281773
5.414934 -48.751781 45.065399
4.942325 -53.166389 44.013992
8.14518 -44.387238 42.820744
8.287594 -46.080273 42.423374
7.415576 -45.313759 43.490562
7.890086 -42.888191 43.383434
8.801885 -43.195335 42.324005
6.017538 -40.242882 46.689587
5.562464 -42.004002 46.757183
4.986874 -40.628265 48.114429
2.59162 -41.650593 51.393009
1.3 -42.249611 53.053288
0.753235 -44.385731 52.846764
4.809292 -45.609371 46.716171
5.58711 -46.781055 45.39587
4.444884 -47.564919 46.588322
3.969611 -51.827183 45.570477
3.683908 -54.187431 44.773617
10.224835 -45.609562 40.639381
10.41571 -47.625725 40.228748
9.371638 -46.84391 41.254002
8.416291 -47.971916 42.007858
7.458697 -48.996296 42.779686
9.920724 -43.664169 41.160271
2.419483 -47.180771 49.335079
3.3029 -48.434399 47.699326
7.007197 -42.892204 44.475876
6.728937 -44.359047 44.503403
6.150561 -43.199638 45.553349
5.121879 -43.755192 46.840508
4.061019 -44.322926 48.170506
3.858583 -41.029831 49.704502
3.329 -43.033367 49.717899
2.799835 -45.017662 49.700958
1.549598 -45.756237 51.119637
7.522605 -41.531528 44.172234
6.580737 -46.069378 44.344299
6.51518 -48.032063 44.002823
6.377672 -50.051888 43.641178
4.248085 -49.594437 46.133339
5.190829 -50.815708 44.658604
6.14792 -52.161018 43.220589
5.260476 -39.685386 48.065208
5.502206 -40.435574 47.402008
5.775807 -39.492695 47.352787
0.942832 -41.455336 53.931645
1.62265 -41.220073 53.03433
0.651166 -42.55366 53.831226
0.942832 -41.455336 53.931645
5.775807 -39.492695 47.352787
6.313424 -39.40922 46.569902
3.009438 -54.619089 45.196697
3.139376 -53.492323 45.678427
3.524132 -55.288992 44.322783
3.009438 -54.619089 45.196697
9.009387 -41.688133 42.426596
8.829638 -40.7959 42.821509
2.223553 -48.212248 49.130685
1.779905 -47.54647 49.99552
10.560278 -48.633885 39.961126
9.947151 -48.274887 40.541834
3.536872 -40.343443 50.495216
4.149757 -40.08641 49.636547
3.828047 -39.400022 50.427262
0.468127 -45.440655 52.718556
0.032211 -44.72328 53.650303
7.059228 -41.530881 44.795298
7.316314 -40.773447 44.684697
6.852937 -40.772801 45.307761
5.515485 -53.744737 43.23237
6.118282 -53.242052 42.835668
5.545122 -52.663703 43.61729
2.26846 -40.920564 52.204191
2.903391 -40.653824 51.33947
1.94581 -41.950102 52.223149
2.26846 -40.920564 52.204191
1.62265 -41.220073 53.03433
0.377783 -43.621719 53.727964
1.026617 -43.317671 52.950026
0.651166 -42.55366 53.831226
-0.343241 -43.959269 54.531503
0.032211 -44.72328 53.650303
0.377783 -43.621719 53.727964
6.563781 -40.129124 45.943373
6.313424 -39.40922 46.569902
6.306694 -40.886558 46.053975
6.852937 -40.772801 45.307761
6.563781 -40.129124 45.943373
3.282228 -52.312199 46.076857
3.463431 -51.234318 46.3859
2.776047 -51.719334 46.89228
3.82676 -53.007307 45.172047
3.282228 -52.312199 46.076857
3.139376 -53.492323 45.678427
4.198936 -54.798645 43.982876
4.828144 -54.288124 43.603064
4.313117 -53.67691 44.393805
4.198936 -54.798645 43.982876
3.524132 -55.288992 44.322783
10.320273 -46.617643 40.434065
10.917412 -46.89913 39.907484
10.821974 -45.891048 40.1128
9.425115 -47.883979 41.054461
9.947151 -48.274887 40.541834
9.893674 -47.234818 40.741375
8.947442 -48.447982 41.431388
9.425115 -47.883979 41.054461
8.893964 -47.407913 41.63093
8.451165 -48.975845 41.787426
8.947442 -48.447982 41.431388
7.972368 -49.488035 42.17334
8.451165 -48.975845 41.787426
7.937494 -48.484106 42.393772
7.410397 -50.021956 42.580391
7.972368 -49.488035 42.17334
9.16901 -42.542208 42.074241
9.009387 -41.688133 42.426596
8.642263 -42.341261 42.676359
9.728429 -42.776624 41.492374
9.16901 -42.542208 42.074241
9.361304 -43.429752 41.742138
10.299633 -42.890131 40.940842
9.728429 -42.776624 41.492374
10.482356 -43.903617 40.64147
10.299633 -42.890131 40.940842
10.634412 -44.876314 40.381025
10.482356 -43.903617 40.64147
10.072779 -44.636865 40.899826
10.821974 -45.891048 40.1128
10.634412 -44.876314 40.381025
2.665261 -48.839062 48.312809
2.861192 -47.807585 48.517202
2.223553 -48.212248 49.130685
2.492436 -49.942589 48.063808
3.130075 -49.537926 47.450325
2.665261 -48.839062 48.312809
2.245363 -50.969152 47.854129
2.492436 -49.942589 48.063808
2.776047 -51.719334 46.89228
2.245363 -50.969152 47.854129
11.074841 -47.987042 39.651855
10.917412 -46.89913 39.907484
11.074841 -47.987042 39.651855
10.560278 -48.633885 39.961126
4.713902 -39.885627 48.84151
5.260476 -39.685386 48.065208
4.422728 -40.829048 48.909465
4.713902 -39.885627 48.84151
4.149757 -40.08641 49.636547
3.225102 -41.340212 50.548755
3.536872 -40.343443 50.495216
2.903391 -40.653824 51.33947
1.344963 -46.834204 50.887799
1.779905 -47.54647 49.99552
1.984541 -46.468504 50.227358
0.866309 -46.125908 51.854992
1.151417 -45.070984 51.9832
0.468127 -45.440655 52.718556
1.344963 -46.834204 50.887799
0.866309 -46.125908 51.854992
8.290571 -40.748745 43.463234
8.829638 -40.7959 42.821509
7.810554 -40.770916 44.034994
7.316314 -40.773447 44.684697
8.002623 -41.509357 43.600474
8.290571 -40.748745 43.463234
7.810554 -40.770916 44.034994
6.869884 -50.549751 43.011137
7.410397 -50.021956 42.580391
6.918184 -49.524092 43.210432
6.755009 -51.604316 42.800843
6.869884 -50.549751 43.011137
6.262796 -51.106453 43.430883
6.745074 -52.721357 42.470554
6.755009 -51.604316 42.800843
6.745074 -52.721357 42.470554
6.118282 -53.242052 42.835668
5.515485 -53.744737 43.23237
4.828144 -54.288124 43.603064
3 0 14 12
3 0 12 15
3 52 19 53
3 54 53 17
3 52 53 54
3 55 21 56
3 58 57 21
3 59 17 60
3 1 25 23
3 61 27 62
3 64 63 27
3 2 30 28
3 3 31 13
3 3 32 31
3 4 65 66
3 2 33 16
3 2 28 33
3 68 67 34
3 70 69 29
3 6 38 36
3 8 39 18
3 8 40 39
3 71 41 72
3 71 72 73
3 9 42 20
3 9 43 42
3 9 44 43
3 75 74 22
3 6 76 78
3 76 45 77
3 76 77 78
3 6 36 45
3 7 46 37
3 10 47 24
3 10 48 47
3 5 49 35
3 11 50 26
3 11 51 50
3 11 79 81
3 81 80 51
3 79 80 81
3 12 13 2
3 14 13 12
3 14 3 13
3 15 16 4
3 12 16 15
3 12 2 16
3 17 18 6
3 19 18 17
3 19 8 18
3 82 20 83
3 21 84 86
3 84 20 85
3 84 85 86
3 21 9 20
3 21 22 9
3 87 22 88
3 89 88 21
3 87 88 89
3 92 91 22
3 90 91 92
3 17 93 94
3 17 95 97
3 95 6 96
3 95 96 97
3 23 24 7
3 25 24 23
3 25 10 24
3 98 26 99
3 100 99 5
3 98 99 100
3 27 101 103
3 101 26 102
3 101 102 103
3 27 11 26
3 27 104 106
3 106 105 11
3 104 105 106
3 108 107 27
3 28 109 111
3 109 29 110
3 109 110 111
3 30 29 28
3 30 112 114
3 114 113 29
3 112 113 114
3 13 30 2
3 31 30 13
3 31 115 117
3 117 116 30
3 115 116 117
3 31 118 119
3 32 120 122
3 122 121 31
3 120 121 122
3 32 123 124
3 16 125 127
3 127 126 4
3 125 126 127
3 33 128 130
3 130 129 16
3 128 129 130
3 33 131 132
3 33 133 134
3 28 135 137
3 137 136 33
3 135 136 137
3 28 138 139
3 34 35 1
3 140 35 141
3 142 141 34
3 140 141 142
3 143 5 144
3 145 144 35
3 143 144 145
3 146 5 147
3 149 148 5
3 29 150 151
3 153 152 29
3 36 37 0
3 38 37 36
3 38 7 37
3 18 38 6
3 39 38 18
3 39 7 38
3 39 23 7
3 40 23 39
3 40 1 23
3 154 19 155
3 41 156 158
3 156 19 157
3 156 157 158
3 41 8 19
3 20 159 161
3 159 41 160
3 159 160 161
3 42 41 20
3 42 8 41
3 42 40 8
3 43 40 42
3 43 1 40
3 43 34 1
3 44 34 43
3 44 162 164
3 164 163 34
3 162 163 164
3 22 44 9
3 165 44 166
3 167 166 22
3 165 166 167
3 169 168 44
3 170 4 171
3 45 172 173
3 45 174 176
3 174 4 175
3 174 175 176
3 45 15 4
3 36 15 45
3 36 0 15
3 37 14 0
3 46 14 37
3 46 3 14
3 24 46 7
3 47 46 24
3 47 3 46
3 47 32 3
3 48 32 47
3 48 177 179
3 179 178 32
3 177 178 179
3 35 25 1
3 49 25 35
3 49 10 25
3 26 49 5
3 50 49 26
3 50 10 49
3 50 48 10
3 51 48 50
3 51 180 182
3 182 181 48
3 180 181 182
3 51 183 184
3 186 185 51
3 188 187 11
