ply
format ascii 1.0
element vertex 25
property float x
property float y
property float z
element face 15
property list uchar int vertex_index
end_header
-15.925651 -34.923943 -30.059273
-14.655306 -35.192177 -31.49086
-15.451702 -33.790386 -30.732664
-16.194655 -33.742745 -29.937848
-14.816529 -33.924504 -31.448457
-15.290478 -35.05806 -30.775067
-15.451702 -33.790386 -30.732664
-16.576815 -34.90658 -29.316843
-16.194655 -33.742745 -29.937848
-16.309293 -36.207825 -29.464517
-16.576815 -34.90658 -29.316843
-15.759799 -36.275574 -30.133952
-16.309293 -36.207825 -29.464517
-15.124626 -36.409691 -30.849746
-15.759799 -36.275574 -30.133952
-15.290478 -35.05806 -30.775067
-14.558616 -36.438425 -31.54875
-15.124626 -36.409691 -30.849746
-14.185999 -33.976082 -32.130798
-14.816529 -33.924504 -31.448457
-13.991263 -35.159405 -32.271363
-14.185999 -33.976082 -32.130798
-13.894573 -36.405653 -32.329252
-14.558616 -36.438425 -31.54875
-13.991263 -35.159405 -32.271363
3 2 0 3
3 4 1 5
3 6 5 0
3 4 5 6
3 0 7 8
3 0 9 10
3 0 11 12
3 1 13 15
3 15 14 0
3 13 14 15
3 1 16 17
3 18 1 19
3 20 1 21
3 24 23 1
3 22 23 24
