ply
format ascii 1.0
element vertex 154
property float x
property float y
property float z
element face 141
property list uchar int vertex_index
end_header
-8.335062 28.877369 58.583012
-13.433854 39.844814 57.509979
-6.436675 41.475033 52.191711
-16.931795 38.087936 60.11076
-14.395636 33.162357 60.736118
-7.291891 35.137589 55.417126
-10.8845 34.24427 58.1679
-9.857556 40.758076 54.792248
-16.170313 32.305695 61.960651
-14.962242 29.568768 62.347603
-15.220685 39.135334 58.83868
-16.473783 41.866024 58.350842
-14.747725 42.626472 57.111408
-12.923306 43.272442 55.72934
-11.337687 30.933027 59.746136
-9.551201 31.503063 58.368988
-6.761565 38.149467 53.821281
-8.584855 38.109184 55.056641
-8.098793 41.126495 53.445553
-9.362038 44.051788 53.021599
-7.580682 44.430119 51.655064
-5.837838 44.536915 50.461128
-15.658883 35.794029 60.402336
-13.85398 36.273052 59.218025
-7.764667 32.047943 56.971237
-5.966563 32.326618 55.6782
-5.540099 35.428322 54.149372
-5.065662 38.688053 52.495148
-4.54774 41.789856 50.841797
-18.21344 40.830875 59.522324
-13.221837 30.435745 61.081146
-12.568788 33.685429 59.460293
-12.134514 37.19138 57.790886
-9.09409 34.821823 56.749779
-10.376077 37.50079 56.513069
-11.606582 40.428768 56.10128
-11.108847 43.774124 54.322388
-15.332603 27.840613 63.108355
-15.898998 29.172261 62.915537
-8.943131 30.190216 58.476
-9.805799 29.945279 59.129145
-9.19773 28.632432 59.236156
-5.434142 31.074337 55.829487
-6.289266 30.857865 56.467378
-4.707354 35.601488 53.550117
-4.895967 34.070784 54.28675
-4.470135 37.231353 52.723005
-5.30288 37.058188 53.32226
-4.707354 35.601488 53.550117
-4.174679 38.703345 51.930428
-4.470135 37.231353 52.723005
-17.572617 39.459406 59.816542
-18.454685 39.05657 60.311989
-17.813862 37.685101 60.606207
-17.117132 43.164448 58.075675
-16.270157 43.751041 57.426941
-12.55209 29.187532 61.136497
-13.496046 28.794079 61.818138
-10.090069 45.663019 52.792281
-9.149634 45.681356 52.149233
-4.355041 43.279697 50.067285
-3.656753 41.717337 50.321459
-16.503034 30.540724 62.722061
-17.135217 31.659206 62.579361
-15.566277 30.937231 62.154127
-16.503034 30.540724 62.722061
-15.898998 29.172261 62.915537
-15.407128 44.131265 56.807224
-16.270157 43.751041 57.426941
-15.610754 42.246248 57.731125
-14.551687 44.408836 56.211603
-15.407128 44.131265 56.807224
-13.639477 44.731821 55.520569
-14.551687 44.408836 56.211603
-13.835515 42.949457 56.420374
-12.737073 44.965362 54.857191
-13.639477 44.731821 55.520569
-10.699043 29.660261 59.817718
-11.610015 29.436173 60.468992
-10.444444 31.218045 59.057562
-10.699043 29.660261 59.817718
-9.805799 29.945279 59.129145
-8.258956 45.870522 51.465966
-9.149634 45.681356 52.149233
-8.47136 44.240954 52.338332
-7.395491 46.020128 50.818432
-8.258956 45.870522 51.465966
-6.524069 46.073526 50.221464
-7.395491 46.020128 50.818432
-6.70926 44.483517 51.058096
-5.658988 46.193451 49.601591
-6.524069 46.073526 50.221464
-17.191597 36.358799 60.885425
-17.813862 37.685101 60.606207
-16.810856 33.467679 61.810371
-17.135217 31.659206 62.579361
-16.555141 35.211846 61.031213
-16.810856 33.467679 61.810371
-15.914598 34.049862 61.181494
-16.295339 36.940983 60.256548
-17.191597 36.358799 60.885425
-16.555141 35.211846 61.031213
-7.188318 30.718527 57.113897
-8.049864 30.462656 57.777124
-7.473516 29.13324 57.919784
-6.865615 32.18728 56.324719
-7.188318 30.718527 57.113897
-6.289266 30.857865 56.467378
-5.109199 32.519931 55.051164
-5.434142 31.074337 55.829487
-5.753331 33.87747 54.913786
-5.109199 32.519931 55.051164
-4.895967 34.070784 54.28675
-3.915718 40.254246 51.103752
-4.806701 40.238954 51.668473
-4.174679 38.703345 51.930428
-3.656753 41.717337 50.321459
-3.915718 40.254246 51.103752
-8.677901 27.400742 59.356837
-9.19773 28.632432 59.236156
-7.745145 27.749184 58.625467
-8.677901 27.400742 59.356837
-7.473516 29.13324 57.919784
-7.745145 27.749184 58.625467
-19.136052 40.332572 59.990519
-18.454685 39.05657 60.311989
-18.862826 42.113845 59.18745
-19.136052 40.332572 59.990519
-17.98696 42.646873 58.661416
-17.343612 41.34845 58.936583
-17.117132 43.164448 58.075675
-18.862826 42.113845 59.18745
-17.98696 42.646873 58.661416
-14.366248 28.36059 62.451366
-15.332603 27.840613 63.108355
-14.09204 30.002257 61.714374
-14.366248 28.36059 62.451366
-13.496046 28.794079 61.818138
-12.279762 30.684386 60.413641
-12.55209 29.187532 61.136497
-11.610015 29.436173 60.468992
-11.829844 45.216203 54.153715
-12.737073 44.965362 54.857191
-12.016077 43.523283 55.025864
-10.963473 45.524187 53.442675
-10.235443 43.912956 53.671993
-10.090069 45.663019 52.792281
-11.829844 45.216203 54.153715
-10.963473 45.524187 53.442675
-5.00009 44.653227 49.876951
-5.192789 43.163386 50.651463
-4.355041 43.279697 50.067285
-5.658988 46.193451 49.601591
-5.00009 44.653227 49.876951
3 37 9 38
3 1 12 10
3 1 13 12
3 0 39 41
3 39 15 40
3 39 40 41
3 2 18 16
3 2 20 18
3 2 21 20
3 4 22 8
3 4 23 22
3 42 25 43
3 44 26 45
3 46 27 47
3 48 47 26
3 46 47 48
3 50 49 27
3 3 51 53
3 51 29 52
3 51 52 53
3 55 54 11
3 56 30 57
3 6 31 14
3 6 32 31
3 5 33 24
3 7 34 17
3 7 35 34
3 7 36 35
3 59 58 19
3 61 60 28
3 62 8 63
3 9 64 66
3 64 8 65
3 64 65 66
3 9 4 8
3 10 11 3
3 12 11 10
3 12 67 69
3 69 68 11
3 67 68 69
3 12 70 71
3 13 72 74
3 74 73 12
3 72 73 74
3 13 75 76
3 77 14 78
3 15 79 81
3 79 14 80
3 79 80 81
3 15 6 14
3 16 17 5
3 18 17 16
3 18 7 17
3 18 19 7
3 20 19 18
3 20 82 84
3 84 83 19
3 82 83 84
3 20 85 86
3 21 87 89
3 89 88 20
3 87 88 89
3 21 90 91
3 92 3 93
3 8 94 95
3 22 96 98
3 98 97 8
3 96 97 98
3 22 99 101
3 99 3 100
3 99 100 101
3 22 10 3
3 23 10 22
3 23 1 10
3 102 24 103
3 104 103 0
3 102 103 104
3 25 105 107
3 105 24 106
3 105 106 107
3 25 5 24
3 108 25 109
3 26 110 112
3 110 25 111
3 110 111 112
3 26 5 25
3 26 16 5
3 27 16 26
3 27 2 16
3 27 28 2
3 113 28 114
3 115 114 27
3 113 114 115
3 117 116 28
3 118 0 119
3 120 0 121
3 123 122 0
3 29 124 125
3 29 126 127
3 11 29 3
3 128 29 129
3 130 129 11
3 128 129 130
3 132 131 29
3 133 9 134
3 30 135 137
3 135 9 136
3 135 136 137
3 30 4 9
3 14 138 140
3 138 30 139
3 138 139 140
3 31 30 14
3 31 4 30
3 31 23 4
3 32 23 31
3 32 1 23
3 24 15 0
3 33 15 24
3 33 6 15
3 17 33 5
3 34 33 17
3 34 6 33
3 34 32 6
3 35 32 34
3 35 1 32
3 35 13 1
3 36 13 35
3 36 141 143
3 143 142 13
3 141 142 143
3 19 36 7
3 144 36 145
3 146 145 19
3 144 145 146
3 148 147 36
3 28 21 2
3 149 21 150
3 151 150 28
3 149 150 151
3 153 152 21
