ply
format ascii 1.0
element vertex 127
property float x
property float y
property float z
element face 108
property list uchar int vertex_index
end_header
21.036343 -80.659645 -29.918488
21.636419 -76.181923 -27.824862
19.293419 -73.820496 -31.444805
19.503742 -84.721771 -32.366146
17.90452 -78.139366 -33.665016
22.200224 -81.398354 -27.982996
21.443928 -78.399216 -28.803223
20.555534 -75.162918 -29.707296
20.186842 -77.435219 -30.719343
19.155113 -89.58297 -32.772057
20.358459 -87.921387 -31.480829
18.563049 -86.624626 -33.426643
16.854282 -79.923065 -34.833282
16.058691 -76.370216 -35.361721
16.937239 -74.364693 -34.345654
15.206796 -72.57811 -35.888271
21.699568 -73.621979 -26.770357
21.768465 -83.598663 -29.152685
21.110649 -85.871101 -30.406586
20.326231 -82.730484 -31.202255
17.759859 -83.391434 -34.133255
18.724796 -81.344254 -33.02639
19.656528 -79.544533 -31.745554
18.644125 -75.951767 -32.597649
17.752005 -72.461334 -33.237125
18.203726 -88.908146 -33.681993
18.457818 -90.360024 -33.358965
17.907694 -87.428974 -34.009287
18.859081 -88.103798 -33.09935
18.203726 -88.908146 -33.681993
15.081061 -75.210037 -36.143753
15.422868 -77.042378 -35.944618
14.655114 -73.313984 -36.407028
15.632744 -74.474163 -35.624996
15.081061 -75.210037 -36.143753
22.03461 -76.466106 -26.884754
22.041217 -77.735287 -27.35151
21.667994 -74.901951 -27.29761
22.066185 -75.186135 -26.357501
22.03461 -76.466106 -26.884754
21.236747 -74.456688 -28.200306
21.268322 -73.176716 -27.673054
21.667994 -74.901951 -27.29761
19.52853 -72.827263 -30.903963
20.159588 -73.498474 -30.035208
19.924477 -74.491707 -30.576051
18.83294 -72.038319 -31.794517
19.52853 -72.827263 -30.903963
22.137039 -85.075603 -28.707016
22.350197 -83.966656 -28.105249
16.756711 -82.481598 -34.995525
17.149573 -84.258259 -34.692747
16.894139 -71.517738 -34.079389
17.344622 -73.413014 -33.79139
16.486756 -72.469417 -34.633654
17.344002 -70.633426 -33.490022
16.894139 -71.517738 -34.079389
22.323119 -80.343502 -27.430577
22.685767 -81.79401 -26.953127
21.944971 -78.843933 -27.840691
22.323119 -80.343502 -27.430577
21.822076 -79.898785 -28.39311
21.540174 -77.29057 -28.314042
22.041217 -77.735287 -27.35151
21.944971 -78.843933 -27.840691
19.426645 -91.05764 -32.362744
18.457818 -90.360024 -33.358965
20.020768 -90.135487 -31.778358
19.426645 -91.05764 -32.362744
19.756786 -88.752178 -32.126443
20.622441 -89.304696 -31.132745
20.020768 -90.135487 -31.778358
15.820664 -78.818802 -35.680398
16.303922 -80.747413 -35.345539
16.456487 -78.14664 -35.097501
15.820664 -78.818802 -35.680398
15.422868 -77.042378 -35.944618
15.621534 -71.576126 -35.404962
16.486756 -72.469417 -34.633654
16.072018 -73.471401 -35.116962
22.024468 -73.933716 -25.870738
22.066185 -75.186135 -26.357501
21.675602 -72.301804 -26.296013
22.024468 -73.933716 -25.870738
21.293849 -71.951538 -27.243364
21.675602 -72.301804 -26.296013
21.293849 -71.951538 -27.243364
21.268322 -73.176716 -27.673054
20.696305 -73.947186 -29.141523
21.236747 -74.456688 -28.200306
21.095976 -75.672421 -28.766079
20.696305 -73.947186 -29.141523
20.159588 -73.498474 -30.035208
22.566077 -82.866501 -27.520404
22.685767 -81.79401 -26.953127
21.984344 -82.498508 -28.567841
22.566077 -82.866501 -27.520404
22.350197 -83.966656 -28.105249
21.115865 -88.385128 -30.477674
20.622441 -89.304696 -31.132745
21.49196 -87.359985 -29.940553
21.115865 -88.385128 -30.477674
20.734554 -86.896244 -30.943708
21.808131 -86.211822 -29.333967
21.49196 -87.359985 -29.940553
21.439557 -84.734882 -29.779636
22.137039 -85.075603 -28.707016
21.808131 -86.211822 -29.333967
17.551168 -85.874855 -34.339441
17.907694 -87.428974 -34.009287
18.161454 -85.00803 -33.779949
17.551168 -85.874855 -34.339441
17.149573 -84.258259 -34.692747
17.307071 -81.65725 -34.483268
16.756711 -82.481598 -34.995525
16.303922 -80.747413 -35.345539
18.062233 -71.358738 -32.690677
18.83294 -72.038319 -31.794517
18.522712 -73.140915 -32.340965
18.062233 -71.358738 -32.690677
17.344002 -70.633426 -33.490022
14.191454 -71.358559 -36.696138
14.655114 -73.313984 -36.407028
14.721003 -70.619419 -36.203854
14.191454 -71.358559 -36.696138
15.621534 -71.576126 -35.404962
14.721003 -70.619419 -36.203854
3 0 6 5
3 0 8 6
3 25 9 26
3 27 11 28
3 29 28 9
3 27 28 29
3 30 13 31
3 32 15 33
3 34 33 13
3 32 33 34
3 1 35 36
3 1 37 39
3 37 16 38
3 37 38 39
3 1 40 42
3 42 41 16
3 40 41 42
3 2 43 45
3 45 44 7
3 43 44 45
3 2 46 47
3 48 17 49
3 3 18 10
3 3 19 18
3 50 20 51
3 4 21 12
3 4 22 21
3 4 23 22
3 52 24 53
3 54 53 14
3 52 53 54
3 56 55 24
3 5 57 58
3 6 59 61
3 61 60 5
3 59 60 61
3 6 62 64
3 62 1 63
3 62 63 64
3 6 7 1
3 8 7 6
3 8 2 7
3 9 65 66
3 9 67 68
3 9 69 71
3 69 10 70
3 69 70 71
3 11 10 9
3 11 3 10
3 72 12 73
3 13 74 76
3 74 12 75
3 74 75 76
3 13 4 12
3 13 14 4
3 15 14 13
3 15 77 79
3 79 78 14
3 77 78 79
3 16 80 81
3 16 82 83
3 16 84 85
3 87 86 16
3 7 88 90
3 90 89 1
3 88 89 90
3 92 91 7
3 93 5 94
3 17 95 97
3 95 5 96
3 95 96 97
3 17 0 5
3 10 98 99
3 18 100 102
3 102 101 10
3 100 101 102
3 18 103 104
3 18 105 107
3 105 17 106
3 105 106 107
3 19 17 18
3 19 0 17
3 108 11 109
3 20 110 112
3 110 11 111
3 110 111 112
3 20 3 11
3 12 113 115
3 113 20 114
3 113 114 115
3 21 20 12
3 21 3 20
3 21 19 3
3 22 19 21
3 22 0 19
3 22 8 0
3 23 8 22
3 23 2 8
3 14 23 4
3 24 23 14
3 24 2 23
3 24 116 118
3 118 117 2
3 116 117 118
3 120 119 24
3 121 15 122
3 123 15 124
3 126 125 15
