ply
format ascii 1.0
element vertex 189
property float x
property float y
property float z
element face 176
property list uchar int vertex_index
end_header
33.986862 77.297798 -3.607514
34.891945 78.149864 -17.150377
31.732601 90.273857 -11.302322
31.906696 90.640808 -18.394314
34.467392 78.351204 -10.585112
36.09425 71.548927 -13.021619
35.605537 71.166519 -6.558722
36.675217 63.683426 -2.730758
33.304699 84.646027 -14.40182
32.926422 84.017014 -7.198544
32.492401 82.45298 -0.00657
34.225994 78.022629 -7.15813
34.998035 74.998993 -8.448271
34.777664 74.354836 -5.135904
35.328487 70.546402 -3.172059
34.502705 73.703392 -1.824459
31.851446 90.502861 -14.825294
32.642452 87.72699 -16.465326
32.510002 87.56456 -12.73467
33.096695 84.549156 -10.716907
32.307915 87.420204 -9.251736
36.687927 67.943893 -11.017351
36.950058 67.681404 -14.246972
32.038017 90.117867 -21.732052
31.164885 93.06633 -20.233603
31.082207 93.308014 -16.599268
34.65992 78.539909 -13.948483
35.515148 74.864128 -15.097593
35.312035 74.84951 -11.733521
35.847164 71.543709 -9.736718
36.457474 67.646317 -7.7565
37.006176 63.973358 -5.889335
36.10923 67.515923 -4.391239
34.282665 81.144852 -19.357969
32.763779 87.517197 -19.810713
33.498737 84.420387 -17.987503
34.109486 81.456238 -15.903296
33.866589 81.679634 -12.388849
33.694511 81.315926 -9.07971
33.499916 80.586014 -5.41211
36.358719 71.071007 -16.31179
37.566807 60.098263 -4.136116
32.121979 86.902679 -5.646619
32.704193 83.408348 -3.647305
33.197815 80.081924 -1.806683
32.997044 78.864143 1.745546
33.721203 76.445557 -0.113533
35.292026 76.372448 -17.817887
34.98571 77.86959 -18.737899
37.116861 65.99765 -11.632544
36.998888 65.972274 -10.016646
30.69691 94.289787 -21.206365
31.162668 92.882271 -21.935164
30.632866 94.599285 -15.918397
30.65937 94.555176 -17.60009
31.056657 93.212681 -14.907985
30.632866 94.599285 -15.918397
35.563929 68.754413 -2.194114
35.152153 70.28194 -1.499282
33.943819 82.634591 -20.325341
34.359465 80.812722 -20.94342
37.055736 67.463673 -15.908179
37.343939 65.773985 -14.789223
31.784173 87.968208 -4.754274
31.825004 88.479607 -6.650697
32.598297 82.930664 -1.826937
32.342492 84.644036 -2.800065
32.236596 84.166351 -0.979697
33.229056 77.030853 2.640786
32.864951 78.34542 3.471122
33.591135 75.82156 1.711247
33.359124 77.65485 0.816007
33.229056 77.030853 2.640786
33.946449 74.624901 0.867354
33.591135 75.82156 1.711247
34.739262 71.860435 -0.825482
35.152153 70.28194 -1.499282
34.915596 72.124897 -2.498259
37.247926 65.866405 -13.247355
36.818993 67.812648 -12.632161
37.116861 65.99765 -11.632544
37.343939 65.773985 -14.789223
37.247926 65.866405 -13.247355
36.935154 61.716411 -1.826121
36.491495 63.374476 -1.076694
32.162031 83.596897 0.77782
32.236596 84.166351 -0.979697
31.599234 91.40804 -22.684388
32.019718 89.913407 -23.502086
31.601451 91.592098 -20.982827
31.599234 91.40804 -22.684388
31.162668 92.882271 -21.935164
30.700709 94.434334 -19.417257
30.69691 94.289787 -21.206365
31.123546 93.187172 -18.416435
30.700709 94.434334 -19.417257
30.65937 94.555176 -17.60009
31.441277 91.810104 -14.020998
31.466826 91.905438 -15.712281
31.056657 93.212681 -14.907985
31.381854 91.695603 -12.259512
31.792023 90.388359 -13.063808
31.441277 91.810104 -14.020998
36.883662 65.823487 -8.386221
36.998888 65.972274 -10.016646
36.5727 67.795105 -9.386926
36.731825 65.809838 -6.822917
37.158012 63.987007 -7.452638
36.883662 65.823487 -8.386221
35.9543 67.239174 -2.803704
35.718858 69.031162 -3.781649
35.563929 68.754413 -2.194114
36.237294 65.322925 -1.973463
36.392224 65.599674 -3.560998
35.9543 67.239174 -2.803704
36.491495 63.374476 -1.076694
36.237294 65.322925 -1.973463
34.68107 79.367085 -19.841696
34.359465 80.812722 -20.94342
34.587305 79.647358 -18.254173
34.98571 77.86959 -18.737899
34.68107 79.367085 -19.841696
32.434715 88.610341 -22.437537
32.019718 89.913407 -23.502086
32.797596 87.310005 -21.476868
32.434715 88.610341 -22.437537
32.400898 88.817532 -20.771383
33.184376 85.820763 -20.551713
32.797596 87.310005 -21.476868
33.551855 84.272358 -19.640108
33.184376 85.820763 -20.551713
33.131258 85.968792 -18.899108
33.890701 82.78262 -18.672736
33.943819 82.634591 -20.325341
33.551855 84.272358 -19.640108
35.603628 74.72958 -16.791495
35.292026 76.372448 -17.817887
35.203547 76.506996 -16.123985
36.025413 72.83302 -17.398593
35.603628 74.72958 -16.791495
35.936934 72.967568 -15.704691
36.437002 70.873692 -17.863519
36.025413 72.83302 -17.398593
36.760067 69.158474 -16.940588
36.654388 69.376205 -15.279381
37.055736 67.463673 -15.908179
36.437002 70.873692 -17.863519
36.760067 69.158474 -16.940588
37.43932 62.142179 -6.577721
37.158012 63.987007 -7.452638
37.719635 60.204632 -5.701111
37.43932 62.142179 -6.577721
37.286491 62.03581 -5.012726
37.979732 58.293265 -4.751582
37.719635 60.204632 -5.701111
37.380949 59.92383 -2.528801
37.121012 61.890845 -3.433437
36.935154 61.716411 -1.826121
37.80731 58.161797 -3.156207
37.380949 59.92383 -2.528801
37.979732 58.293265 -4.751582
37.80731 58.161797 -3.156207
31.322693 91.546143 -10.418853
31.381854 91.695603 -12.259512
31.630314 90.165196 -9.478549
31.322693 91.546143 -10.418853
31.917972 88.738369 -8.453255
32.020258 88.847031 -10.277029
31.630314 90.165196 -9.478549
32.214947 87.161441 -7.449177
31.917972 88.738369 -8.453255
31.825004 88.479607 -6.650697
32.051385 86.391201 -3.799722
31.784173 87.968208 -4.754274
32.413086 85.155514 -4.646962
32.051385 86.391201 -3.799722
32.342492 84.644036 -2.800065
32.383488 81.941795 1.721901
32.162031 83.596897 0.77782
32.635809 80.147377 2.597959
32.864951 78.34542 3.471122
32.744723 80.658561 0.869488
32.383488 81.941795 1.721901
32.635809 80.147377 2.597959
34.3372 73.253818 0.011891
34.111954 75.074474 -0.968996
33.946449 74.624901 0.867354
34.739262 71.860435 -0.825482
34.3372 73.253818 0.011891
3 0 13 11
3 0 15 13
3 2 18 16
3 2 20 18
3 1 47 48
3 50 49 21
3 51 24 52
3 53 25 54
3 56 55 25
3 4 28 26
3 6 29 12
3 6 30 29
3 6 32 30
3 58 57 14
3 59 33 60
3 3 34 23
3 8 35 17
3 8 36 35
3 8 37 36
3 9 38 19
3 9 39 38
3 5 40 27
3 62 61 22
3 7 41 31
3 63 42 64
3 10 65 67
3 65 43 66
3 65 66 67
3 10 44 43
3 68 45 69
3 70 46 71
3 72 71 45
3 70 71 72
3 74 73 46
3 11 12 4
3 13 12 11
3 13 6 12
3 13 14 6
3 15 14 13
3 15 75 77
3 77 76 14
3 75 76 77
3 16 17 3
3 18 17 16
3 18 8 17
3 18 19 8
3 20 19 18
3 20 9 19
3 21 22 5
3 78 22 79
3 80 79 21
3 78 79 80
3 82 81 22
3 84 83 7
3 85 10 86
3 87 23 88
3 24 89 91
3 89 23 90
3 89 90 91
3 24 3 23
3 92 24 93
3 25 94 96
3 94 24 95
3 94 95 96
3 25 3 24
3 25 16 3
3 97 16 98
3 99 98 25
3 97 98 99
3 100 2 101
3 102 101 16
3 100 101 102
3 26 27 1
3 28 27 26
3 28 5 27
3 12 28 4
3 29 28 12
3 29 5 28
3 29 21 5
3 30 21 29
3 30 103 105
3 105 104 21
3 103 104 105
3 30 106 108
3 106 31 107
3 106 107 108
3 32 31 30
3 32 7 31
3 14 32 6
3 109 32 110
3 111 110 14
3 109 110 111
3 112 7 113
3 114 113 32
3 112 113 114
3 116 115 7
3 33 117 118
3 33 119 121
3 119 1 120
3 119 120 121
3 23 122 123
3 34 124 126
3 126 125 23
3 124 125 126
3 34 127 128
3 17 34 3
3 35 34 17
3 35 129 131
3 131 130 34
3 129 130 131
3 35 132 134
3 132 33 133
3 132 133 134
3 36 33 35
3 36 1 33
3 36 26 1
3 37 26 36
3 37 4 26
3 19 37 8
3 38 37 19
3 38 4 37
3 38 11 4
3 39 11 38
3 39 0 11
3 27 135 137
3 137 136 1
3 135 136 137
3 40 138 140
3 140 139 27
3 138 139 140
3 40 141 142
3 22 40 5
3 143 40 144
3 145 144 22
3 143 144 145
3 147 146 40
3 31 148 149
3 41 150 152
3 152 151 31
3 150 151 152
3 41 153 154
3 155 41 156
3 157 156 7
3 155 156 157
3 158 41 159
3 161 160 41
3 162 2 163
3 164 2 165
3 166 20 167
3 168 167 2
3 166 167 168
3 42 169 171
3 169 20 170
3 169 170 171
3 42 9 20
3 172 42 173
3 43 174 176
3 174 42 175
3 174 175 176
3 43 9 42
3 43 39 9
3 44 39 43
3 44 0 39
3 177 10 178
3 45 179 180
3 45 181 183
3 181 10 182
3 181 182 183
3 45 44 10
3 46 44 45
3 46 0 44
3 46 15 0
3 184 15 185
3 186 185 46
3 184 185 186
3 188 187 15
