ply
format ascii 1.0
element vertex 225
property float x
property float y
property float z
element face 200
property list uchar int vertex_index
end_header
10.774954 83.594551 6.69945
19.996334 78.107689 -6.722471
15.242155 81.890648 0.482383
8.907242 90.159058 -1.360725
22.767174 72.122856 -12.965534
12.764057 83.148087 3.800973
10.078156 86.597771 3.15851
12.335803 86.393028 -0.782051
21.816061 75.393173 -10.253403
17.677105 80.41156 -3.304675
11.66708 83.432129 5.424038
12.719615 81.597313 6.071642
11.595548 82.09893 7.371646
10.472222 84.971916 5.134821
11.485166 84.947578 3.410675
20.95826 76.964317 -8.646031
21.898401 74.283691 -7.804821
21.065035 75.401711 -6.029001
18.779652 80.781525 -7.515907
19.854074 79.58316 -9.387639
20.790897 78.144547 -11.067376
16.450239 81.228111 -1.382841
17.776312 78.573555 -0.780977
16.464342 79.485222 1.147216
13.80195 84.293747 -0.177402
13.663912 85.767113 -2.57143
15.147151 83.55069 -2.024206
16.382196 82.944954 -4.158832
22.897411 70.22448 -14.117613
21.960911 74.993492 -13.96917
14.00708 82.600883 2.116235
15.185398 80.307213 2.894299
13.996528 80.979149 4.451349
9.603834 88.326874 0.925572
10.752177 88.251823 -1.107297
11.190515 86.568924 1.202226
12.709728 84.629532 1.568487
22.395309 73.851212 -11.662332
23.129881 71.150581 -10.704344
22.681805 72.537659 -9.158208
20.358522 79.484398 -13.442369
21.498108 76.600899 -12.574204
18.8543 79.377411 -5.050557
19.994852 76.69014 -4.305908
18.928394 77.652275 -2.546864
11.950336 88.029213 -3.223473
16.25338 84.375313 -6.726715
17.613081 81.936333 -5.864286
10.623588 84.283233 5.917135
10.090439 84.753086 6.042891
10.241805 84.064403 6.825206
9.493267 90.147022 -2.515708
8.575993 91.065834 -2.670559
7.887072 91.124623 -1.493734
8.344368 90.145169 -0.334637
8.575993 91.065834 -2.670559
7.887072 91.124623 -1.493734
23.08627 70.722416 -12.492992
23.151388 69.773228 -13.069032
22.832293 71.173668 -13.541574
22.482328 72.684993 -14.079562
22.079196 74.120311 -14.58138
22.364043 73.558174 -13.467352
22.832293 71.173668 -13.541574
22.547446 71.735805 -14.655602
22.482328 72.684993 -14.079562
13.251533 80.553947 6.405954
12.630851 80.828361 7.187594
9.295527 87.413692 3.044253
9.589575 86.467415 4.146997
9.840995 87.462322 2.042041
9.058366 88.278244 1.927784
9.295527 87.413692 3.044253
22.355641 72.754601 -7.394841
21.951286 73.475479 -6.618571
19.936332 80.243943 -12.696817
19.703081 80.86784 -14.006049
18.279791 77.288021 -0.37503
17.661735 77.823788 0.473567
15.725794 79.109039 3.25829
15.119266 79.460469 4.117621
13.449511 86.653042 -3.919651
14.268452 85.535847 -3.637577
15.563187 84.839947 -5.715219
15.429879 85.590344 -7.055355
23.473014 69.587128 -10.296848
23.296143 70.355454 -9.613146
20.499639 75.280556 -3.914583
19.954483 75.877693 -3.055296
12.068818 81.07917 7.837597
12.630851 80.828361 7.187594
12.157581 81.848121 6.721644
9.786608 85.654487 5.135153
10.090439 84.753086 6.042891
10.275189 85.784843 4.146666
9.589575 86.467415 4.146997
9.786608 85.654487 5.135153
21.534603 74.034489 -5.730662
21.951286 73.475479 -6.618571
21.481718 74.842701 -6.916911
18.652073 81.52776 -8.85269
18.083227 82.118935 -7.996405
19.189284 80.928577 -9.788556
18.652073 81.52776 -8.85269
19.316863 80.182343 -8.451773
19.684107 80.293324 -10.669453
19.189284 80.928577 -9.788556
20.322485 78.863854 -10.227507
20.152519 79.574017 -11.509321
19.684107 80.293324 -10.669453
17.00575 78.279621 1.437663
17.661735 77.823788 0.473567
17.120327 79.029388 0.183119
15.010072 84.427636 -3.363965
14.268452 85.535847 -3.637577
14.405531 84.658901 -2.297818
15.764674 83.247822 -3.091519
15.627595 84.124767 -4.431278
15.010072 84.427636 -3.363965
23.164525 68.760006 -13.610062
23.112412 67.726116 -14.061059
22.845298 69.19059 -14.568611
23.164525 68.760006 -13.610062
23.151388 69.773228 -13.069032
21.657142 75.543216 -15.120657
21.488675 76.375389 -14.405957
21.657142 75.543216 -15.120657
22.079196 74.120311 -14.58138
22.576425 70.711185 -15.103461
22.22646 72.222511 -15.64145
22.547446 71.735805 -14.655602
22.845298 69.19059 -14.568611
22.576425 70.711185 -15.103461
14.524831 79.796436 4.896146
15.119266 79.460469 4.117621
14.590963 80.643181 3.672824
13.889989 80.244866 5.595808
13.358071 81.288231 5.261496
13.251533 80.553947 6.405954
14.524831 79.796436 4.896146
13.889989 80.244866 5.595808
8.692664 89.229077 0.808512
9.058366 88.278244 1.927784
9.255538 89.242966 -0.217577
8.344368 90.145169 -0.334637
8.692664 89.229077 0.808512
23.072105 71.048992 -8.840077
23.296143 70.355454 -9.613146
22.905843 71.84412 -9.931276
22.747343 71.881585 -8.071535
22.290103 73.410675 -8.481514
22.355641 72.754601 -7.394841
23.072105 71.048992 -8.840077
22.747343 71.881585 -8.071535
20.087265 80.048935 -14.713634
19.703081 80.86784 -14.006049
20.68748 78.620842 -14.142556
20.087265 80.048935 -14.713634
20.57471 78.814472 -12.254872
19.936332 80.243943 -12.696817
20.152519 79.574017 -11.509321
21.257273 77.179092 -13.708474
20.68748 78.620842 -14.142556
20.928315 78.042648 -13.008287
21.729509 75.797196 -13.271687
21.488675 76.375389 -14.405957
21.257273 77.179092 -13.708474
19.421254 76.358761 -2.175775
19.954483 75.877693 -3.055296
19.461623 77.171208 -3.426386
18.855832 76.827381 -1.257973
18.352353 78.112915 -1.66392
18.279791 77.288021 -0.37503
19.421254 76.358761 -2.175775
18.855832 76.827381 -1.257973
16.365266 78.698044 2.384748
15.82487 79.896218 2.020758
15.725794 79.109039 3.25829
17.00575 78.279621 1.437663
16.365266 78.698044 2.384748
10.415734 89.193405 -2.388994
9.493267 90.147022 -2.515708
9.829709 89.205441 -1.234011
11.014814 89.0821 -3.447082
10.415734 89.193405 -2.388994
11.351256 88.140518 -2.165385
11.730761 88.857865 -4.589368
11.014814 89.0821 -3.447082
12.592723 87.784092 -4.245673
12.807124 86.898163 -2.897451
13.449511 86.653042 -3.919651
11.730761 88.857865 -4.589368
12.592723 87.784092 -4.245673
16.057921 85.170327 -8.069887
15.429879 85.590344 -7.055355
16.820092 83.915829 -7.601809
16.057921 85.170327 -8.069887
16.317788 83.660134 -5.442774
15.563187 84.839947 -5.715219
15.627595 84.124767 -4.431278
17.499942 82.696339 -7.170594
16.820092 83.915829 -7.601809
16.933231 83.155823 -6.295501
18.196366 81.358929 -6.690097
18.083227 82.118935 -7.996405
17.499942 82.696339 -7.170594
23.267623 70.236278 -11.362397
23.08627 70.722416 -12.492992
22.948528 71.636719 -11.834939
23.267623 70.236278 -11.362397
23.473014 69.587128 -10.296848
21.03473 74.636342 -4.776129
20.529944 76.045926 -5.167454
20.499639 75.280556 -3.914583
21.534603 74.034489 -5.730662
21.03473 74.636342 -4.776129
10.579532 83.194321 7.517921
10.241805 84.064403 6.825206
10.989829 82.44651 7.854019
11.185251 82.84674 7.035548
10.579532 83.194321 7.517921
11.439176 81.504943 8.345375
10.989829 82.44651 7.854019
12.068818 81.07917 7.837597
11.439176 81.504943 8.345375
3 0 12 10
3 0 10 13
3 0 48 50
3 48 13 49
3 48 49 50
3 1 17 15
3 1 19 18
3 1 15 19
3 2 23 21
3 3 51 52
3 2 26 24
3 2 21 26
3 3 53 54
3 3 55 56
3 4 57 59
3 59 58 28
3 57 58 59
3 4 60 62
3 62 61 29
3 60 61 62
3 4 63 65
3 63 28 64
3 63 64 65
3 5 32 30
3 67 66 11
3 6 35 33
3 5 36 14
3 5 30 36
3 6 68 69
3 6 70 72
3 70 33 71
3 70 71 72
3 8 39 37
3 74 73 16
3 75 40 76
3 8 41 20
3 8 37 41
3 9 44 42
3 78 77 22
3 80 79 31
3 7 45 34
3 82 81 25
3 83 46 84
3 9 47 27
3 9 42 47
3 86 85 38
3 88 87 43
3 10 11 5
3 12 11 10
3 12 89 91
3 91 90 11
3 89 90 91
3 13 14 6
3 10 14 13
3 10 5 14
3 13 92 93
3 13 94 96
3 94 6 95
3 94 95 96
3 15 16 8
3 17 16 15
3 17 97 99
3 99 98 16
3 97 98 99
3 18 100 101
3 19 102 104
3 104 103 18
3 102 103 104
3 19 105 106
3 19 107 109
3 107 20 108
3 107 108 109
3 15 20 19
3 15 8 20
3 21 22 9
3 23 22 21
3 23 110 112
3 112 111 22
3 110 111 112
3 24 25 7
3 26 25 24
3 26 113 115
3 115 114 25
3 113 114 115
3 26 116 118
3 116 27 117
3 116 117 118
3 21 27 26
3 21 9 27
3 28 119 121
3 119 120 121
3 123 122 28
3 29 124 125
3 127 126 29
3 28 128 130
3 128 129 130
3 28 131 132
3 30 31 2
3 32 31 30
3 32 133 135
3 135 134 31
3 133 134 135
3 11 32 5
3 136 32 137
3 138 137 11
3 136 137 138
3 140 139 32
3 33 34 3
3 35 34 33
3 35 7 34
3 14 35 6
3 36 35 14
3 36 7 35
3 36 24 7
3 30 24 36
3 30 2 24
3 33 141 142
3 33 143 145
3 143 3 144
3 143 144 145
3 37 38 4
3 39 38 37
3 39 146 148
3 148 147 38
3 146 147 148
3 16 39 8
3 149 39 150
3 151 150 16
3 149 150 151
3 153 152 39
3 40 154 155
3 40 156 157
3 20 158 160
3 158 40 159
3 158 159 160
3 41 40 20
3 41 161 163
3 163 162 40
3 161 162 163
3 41 164 166
3 164 29 165
3 164 165 166
3 37 29 41
3 37 4 29
3 42 43 1
3 44 43 42
3 44 167 169
3 169 168 43
3 167 168 169
3 22 44 9
3 170 44 171
3 172 171 22
3 170 171 172
3 174 173 44
3 31 23 2
3 175 23 176
3 177 176 31
3 175 176 177
3 179 178 23
3 34 180 182
3 182 181 3
3 180 181 182
3 45 183 185
3 185 184 34
3 183 184 185
3 45 186 187
3 25 45 7
3 188 45 189
3 190 189 25
3 188 189 190
3 192 191 45
3 46 193 194
3 46 195 196
3 27 197 199
3 197 46 198
3 197 198 199
3 47 46 27
3 47 200 202
3 202 201 46
3 200 201 202
3 47 203 205
3 203 18 204
3 203 204 205
3 42 18 47
3 42 1 18
3 38 206 208
3 208 207 4
3 206 207 208
3 210 209 38
3 43 17 1
3 211 17 212
3 213 212 43
3 211 212 213
3 215 214 17
3 216 0 217
3 218 12 219
3 220 219 0
3 218 219 220
3 221 12 222
3 224 223 12
