ply
format ascii 1.0
element vertex 301
property float x
property float y
property float z
element face 313
property list uchar int vertex_index
end_header
-6.165545 -51.718369 41.303448
-0.944098 -54.960773 45.379211
-11.319777 -48.851643 37.986652
1.63749 -49.222057 54.285027
-3.992875 -45.195202 48.778034
-8.968554 -41.885063 43.476032
-3.625432 -53.200935 43.278324
-1.258675 -47.142841 51.611137
-2.757479 -42.355247 52.930183
-8.012403 -38.671959 47.052971
-10.593751 -37.019432 44.232479
-11.455201 -40.284847 41.230034
1.742105 -56.81662 47.408707
-8.774441 -50.172424 39.51421
3.098417 -54.001369 52.121067
0.125352 -51.937462 49.657303
-2.530595 -50.206627 47.119007
-4.977512 -48.5695 44.791389
-5.382715 -40.463757 50.060577
-6.480825 -43.553112 46.042763
-7.505561 -46.866123 42.517818
-10.000593 -45.29475 40.466114
-12.621981 -43.673046 38.724892
-4.861064 -52.698792 42.146603
-5.489491 -54.239494 40.50069
-11.843371 -36.271397 42.984024
0.332965 -55.727257 46.466721
1.117296 -58.229454 45.134766
-0.213718 -57.454926 44.106083
-10.058316 -49.36129 38.75687
-9.433372 -52.018085 38.19743
-10.736893 -51.304855 37.550655
3.101084 -50.193905 55.519745
3.814339 -52.649036 54.36977
2.332708 -51.599873 53.243702
1.615778 -52.943901 50.96701
0.787399 -50.561691 51.8871
-2.650074 -46.300419 50.074501
-1.97675 -48.609913 49.277069
-3.227896 -47.811939 47.960419
-3.763589 -49.316944 45.985397
-4.504191 -46.76881 46.784359
-4.816068 -39.087818 52.009747
-6.195719 -38.108028 50.465336
-8.461299 -40.24622 45.248264
-7.18713 -41.17247 46.593422
-7.745382 -42.760769 44.671131
-6.937132 -45.247849 44.242851
-8.271311 -44.424824 42.929062
-8.79329 -46.047085 41.420025
-9.518452 -43.50124 41.866871
-12.740063 -39.555275 40.216892
-11.97713 -42.105133 39.866787
-13.27046 -41.338299 39.022968
-2.279285 -54.169495 44.255051
-12.635789 -48.052132 37.356018
-12.059283 -50.585541 36.946938
-13.457898 -49.834114 36.376038
0.90385 -46.864883 55.109165
0.164634 -48.171822 52.973343
-0.550291 -45.646183 53.891907
-1.976454 -44.859509 52.281849
-3.301829 -43.831146 50.941986
-9.269132 -37.94862 45.579201
-9.702264 -39.535034 43.884369
-10.26314 -41.100212 42.221241
-11.009354 -38.622204 42.659611
-12.246647 -37.901264 41.54248
-13.531774 -37.122864 40.540741
-7.467286 -50.999237 40.348377
-6.775369 -53.57526 39.663754
-8.085009 -52.703808 38.962456
2.391811 -55.327087 49.8186
1.022139 -54.418518 48.699615
-0.368419 -53.430664 47.570625
-0.587072 -49.443096 50.750362
-1.19268 -50.926388 48.543446
-1.683976 -52.503578 46.462429
-3.001752 -51.821289 45.148075
-4.349702 -50.889572 44.018196
-5.596795 -50.160336 42.907856
-4.088665 -41.331226 51.544388
-4.644349 -42.84853 49.495579
-6.70557 -39.624416 48.493446
-5.937184 -41.96339 48.03759
-5.256651 -44.388229 47.363216
-5.781308 -46.080559 45.354778
-6.248717 -47.802261 43.567024
-6.92078 -49.26379 41.86216
-8.129706 -48.443729 40.952831
-9.354121 -47.705875 40.052124
-10.655499 -46.878078 39.202908
-10.755681 -42.838203 40.781944
-11.289554 -44.583286 39.519566
-11.97762 -46.30529 38.342945
-13.309558 -45.550293 37.64772
2.369287 -49.707981 54.902386
2.735722 -48.953884 56.011347
2.003925 -48.46796 55.393988
-6.576678 -36.997039 50.659517
-5.885784 -37.446512 51.452404
-6.266742 -36.335524 51.646586
-13.682692 -40.080639 39.15208
-13.005261 -40.446787 39.61993
-13.417493 -39.189127 39.749043
-13.93551 -40.965912 38.644209
-13.682692 -40.080639 39.15208
-3.23448 -54.495041 42.7731
-2.561406 -54.979321 43.261464
-2.952358 -53.685215 43.766688
-13.745479 -48.634686 36.542208
-13.046844 -48.943123 36.866028
-13.334424 -47.743695 37.032198
0.549321 -45.629499 55.514809
1.275439 -46.069099 56.207667
-0.17775 -45.020149 54.90618
0.17678 -46.255533 54.500536
0.549321 -45.629499 55.514809
-2.366967 -43.607378 52.606016
-1.647483 -44.119839 53.348753
-2.037996 -42.867708 53.67292
-9.931442 -37.484026 44.90584
-9.672827 -36.741951 45.815121
-10.335137 -36.277357 45.14176
-12.637788 -36.776069 41.705566
-12.045009 -37.086331 42.263252
-12.436151 -35.961136 42.426338
-13.280352 -36.38687 41.204696
-12.889211 -37.512064 41.04161
-12.637788 -36.776069 41.705566
2.110747 -57.918279 46.798887
2.462248 -57.251148 47.983046
1.555651 -59.436315 44.486773
0.867861 -59.023586 44.026476
-9.079375 -53.304807 37.908507
-9.76711 -52.940447 37.604754
-11.800134 -51.909138 36.665487
-12.491892 -51.440889 36.440268
3.800604 -54.458166 52.652912
4.158564 -53.781999 53.777264
3.456378 -53.325203 53.245418
3.487461 -55.178045 51.509403
3.800604 -54.458166 52.652912
2.745114 -54.664228 50.969834
3.134158 -55.840904 50.35817
3.487461 -55.178045 51.509403
-7.358987 -39.148187 47.773208
-7.112122 -38.428237 48.70989
-7.765538 -37.952009 47.989652
-6.405262 -54.869695 39.261162
-7.074447 -54.443876 38.962427
-4.47588 -53.904758 41.760239
-3.858064 -54.15583 42.326099
-4.243248 -52.949863 42.712463
-4.790094 -54.67511 40.937282
-4.47588 -53.904758 41.760239
-5.175277 -53.469143 41.323646
-5.109228 -55.521257 40.047044
-4.790094 -54.67511 40.937282
-2.361555 -41.687046 54.017513
-2.037996 -42.867708 53.67292
-11.017385 -35.835068 44.429617
-10.335137 -36.277357 45.14176
-11.642195 -35.46105 43.80539
-11.218561 -36.645415 43.608251
-11.017385 -35.835068 44.429617
-12.279297 -35.087772 43.16955
-11.642195 -35.46105 43.80539
-12.436151 -35.961136 42.426338
-12.279297 -35.087772 43.16955
0.202354 -58.636322 43.512135
0.867861 -59.023586 44.026476
0.451789 -57.84219 44.620424
-10.418871 -52.583832 37.281366
-9.76711 -52.940447 37.604754
-10.085133 -51.66147 37.874043
3.485701 -49.411816 56.631369
2.735722 -48.953884 56.011347
3.870417 -50.666546 56.12688
4.255033 -49.884456 57.238504
3.485701 -49.411816 56.631369
3.457712 -51.42147 54.944758
4.227044 -51.894112 55.551893
3.870417 -50.666546 56.12688
-5.195958 -37.936407 52.224609
-4.474695 -38.368851 53.055662
-5.505893 -38.597923 51.237541
-5.195958 -37.936407 52.224609
-5.885784 -37.446512 51.452404
-13.622638 -42.153652 38.491569
-13.298399 -43.321026 38.342531
-12.94622 -42.505673 38.87393
-13.622638 -42.153652 38.491569
-13.93551 -40.965912 38.644209
-1.894607 -55.352911 43.759603
-1.227014 -55.74855 44.321683
-1.611691 -54.565134 44.817131
-1.894607 -55.352911 43.759603
-2.561406 -54.979321 43.261464
-3.23448 -54.495041 42.7731
-3.858064 -54.15583 42.326099
-13.191199 -51.065176 36.154818
-12.491892 -51.440889 36.440268
-12.758591 -50.209828 36.661488
-14.220099 -49.430715 36.098394
-13.745479 -48.634686 36.542208
-13.944408 -50.731949 35.878172
-14.220099 -49.430715 36.098394
-13.191199 -51.065176 36.154818
-13.944408 -50.731949 35.878172
1.637105 -47.289373 55.806057
1.275439 -46.069099 56.207667
1.27067 -48.04347 54.697096
2.003925 -48.46796 55.393988
1.637105 -47.289373 55.806057
-0.934402 -44.513176 54.153782
-0.17775 -45.020149 54.90618
-1.263373 -45.252846 53.086878
-0.934402 -44.513176 54.153782
-1.647483 -44.119839 53.348753
-8.41346 -37.578062 47.205591
-7.765538 -37.952009 47.989652
-9.041824 -37.216392 46.468706
-9.672827 -36.741951 45.815121
-8.640768 -38.310289 46.316086
-8.41346 -37.578062 47.205591
-9.041824 -37.216392 46.468706
-13.813349 -37.972921 39.910967
-13.417493 -39.189127 39.749043
-13.135918 -38.33907 40.378816
1.798343 -58.624696 45.661917
2.110747 -57.918279 46.798887
1.429701 -57.523037 46.271737
1.798343 -58.624696 45.661917
1.555651 -59.436315 44.486773
-0.861824 -56.995627 43.685119
-0.578908 -56.20785 44.742647
-1.227014 -55.74855 44.321683
-0.468088 -58.298209 43.015287
-0.861824 -56.995627 43.685119
0.202354 -58.636322 43.512135
-0.468088 -58.298209 43.015287
-7.729267 -54.00815 38.611778
-7.074447 -54.443876 38.962427
-7.430189 -53.139534 39.313105
-8.405193 -53.647669 38.29102
-8.75919 -52.360946 38.579943
-9.079375 -53.304807 37.908507
-7.729267 -54.00815 38.611778
-8.405193 -53.647669 38.29102
-11.138939 -52.268795 36.967346
-11.398088 -50.945198 37.248796
-11.800134 -51.909138 36.665487
-10.418871 -52.583832 37.281366
-11.138939 -52.268795 36.967346
4.594177 -53.089222 54.985422
4.227044 -51.894112 55.551893
4.594177 -53.089222 54.985422
4.158564 -53.781999 53.777264
2.787101 -56.506382 49.187992
3.134158 -55.840904 50.35817
2.066958 -56.071854 48.613653
2.462248 -57.251148 47.983046
2.787101 -56.506382 49.187992
-3.069285 -41.135606 53.31834
-2.361555 -41.687046 54.017513
-4.098579 -39.501892 52.858122
-4.474695 -38.368851 53.055662
-3.734878 -40.623596 52.625442
-4.098579 -39.501892 52.858122
-4.452367 -40.209522 51.777068
-3.423072 -41.843237 52.237285
-3.069285 -41.135606 53.31834
-3.734878 -40.623596 52.625442
-6.857197 -37.670043 49.695835
-6.576678 -36.997039 50.659517
-6.450645 -38.866222 49.479391
-6.857197 -37.670043 49.695835
-7.112122 -38.428237 48.70989
-13.671308 -46.492775 37.178049
-13.334424 -47.743695 37.032198
-12.972673 -46.801213 37.501869
-13.642187 -44.25965 37.803945
-12.96577 -44.61167 38.186306
-13.298399 -43.321026 38.342531
-13.974707 -45.198565 37.34147
-13.642187 -44.25965 37.803945
-13.671308 -46.492775 37.178049
-13.974707 -45.198565 37.34147
-13.97309 -35.887213 40.705015
-13.280352 -36.38687 41.204696
-14.189284 -36.744973 40.089576
-13.97309 -35.887213 40.705015
-14.6306 -35.509321 40.25385
-13.813349 -37.972921 39.910967
-14.189284 -36.744973 40.089576
-5.762323 -55.201813 39.67963
-6.13243 -53.907377 40.082222
-6.405262 -54.869695 39.261162
-5.109228 -55.521257 40.047044
-5.762323 -55.201813 39.67963
3 0 24 23
3 1 28 26
3 2 31 29
3 3 96 98
3 96 32 97
3 96 97 98
3 3 34 32
3 3 36 34
3 4 39 37
3 4 41 39
3 99 43 100
3 99 100 101
3 5 46 44
3 5 48 46
3 5 50 48
3 102 53 103
3 104 103 51
3 102 103 104
3 106 105 53
3 6 107 109
3 109 108 54
3 107 108 109
3 110 57 111
3 112 111 55
3 110 111 112
3 113 58 114
3 115 60 116
3 117 116 58
3 115 116 117
3 8 118 120
3 118 61 119
3 118 119 120
3 8 62 61
3 10 121 123
3 121 63 122
3 121 122 123
3 10 64 63
3 10 66 64
3 124 67 125
3 126 125 25
3 124 125 126
3 127 68 128
3 129 128 67
3 127 128 129
3 12 130 131
3 133 132 27
3 13 71 69
3 135 134 30
3 137 136 56
3 14 138 140
3 140 139 33
3 138 139 140
3 14 141 142
3 14 143 145
3 143 72 144
3 143 144 145
3 15 73 35
3 15 74 73
3 7 75 59
3 16 76 38
3 16 77 76
3 16 78 77
3 17 79 40
3 17 80 79
3 18 81 42
3 18 82 81
3 9 146 148
3 146 83 147
3 146 147 148
3 19 84 45
3 19 85 84
3 19 86 85
3 20 87 47
3 20 88 87
3 20 89 88
3 21 90 49
3 21 91 90
3 11 92 65
3 22 93 52
3 22 94 93
3 22 95 94
3 150 149 70
3 23 151 153
3 153 152 6
3 151 152 153
3 24 154 156
3 156 155 23
3 154 155 156
3 24 157 158
3 159 8 160
3 161 10 162
3 163 25 164
3 165 164 10
3 163 164 165
3 166 25 167
3 169 168 25
3 26 27 12
3 28 27 26
3 28 170 172
3 172 171 27
3 170 171 172
3 29 30 13
3 31 30 29
3 31 173 175
3 175 174 30
3 173 174 175
3 32 176 177
3 32 178 180
3 178 179 180
3 32 181 183
3 181 33 182
3 181 182 183
3 34 33 32
3 34 14 33
3 34 35 14
3 36 35 34
3 36 15 35
3 37 38 7
3 39 38 37
3 39 16 38
3 39 40 16
3 41 40 39
3 41 17 40
3 184 42 185
3 43 186 188
3 186 42 187
3 186 187 188
3 43 18 42
3 44 45 9
3 46 45 44
3 46 19 45
3 46 47 19
3 48 47 46
3 48 20 47
3 48 49 20
3 50 49 48
3 50 21 49
3 51 52 11
3 53 52 51
3 53 22 52
3 53 189 191
3 191 190 22
3 189 190 191
3 193 192 53
3 54 194 196
3 196 195 1
3 194 195 196
3 198 197 54
3 200 199 6
3 55 56 2
3 57 56 55
3 57 201 203
3 203 202 56
3 201 202 203
3 204 57 205
3 206 57 207
3 209 208 57
3 58 210 211
3 58 212 214
3 212 3 213
3 212 213 214
3 58 59 3
3 60 59 58
3 60 7 59
3 215 60 216
3 61 217 219
3 217 60 218
3 217 218 219
3 61 7 60
3 61 37 7
3 62 37 61
3 62 4 37
3 220 9 221
3 63 222 223
3 63 224 226
3 224 9 225
3 224 225 226
3 63 44 9
3 64 44 63
3 64 5 44
3 64 65 5
3 66 65 64
3 66 11 65
3 25 66 10
3 67 66 25
3 67 11 66
3 67 51 11
3 68 51 67
3 68 227 229
3 229 228 51
3 227 228 229
3 27 230 232
3 232 231 12
3 230 231 232
3 234 233 27
3 235 28 236
3 237 236 1
3 235 236 237
3 238 28 239
3 241 240 28
3 69 70 0
3 71 70 69
3 71 242 244
3 244 243 70
3 242 243 244
3 30 71 13
3 245 71 246
3 247 246 30
3 245 246 247
3 249 248 71
3 56 31 2
3 250 31 251
3 252 251 56
3 250 251 252
3 254 253 31
3 33 255 256
3 258 257 33
3 72 259 260
3 72 261 263
3 261 12 262
3 261 262 263
3 35 72 14
3 73 72 35
3 73 12 72
3 73 26 12
3 74 26 73
3 74 1 26
3 59 36 3
3 75 36 59
3 75 15 36
3 38 75 7
3 76 75 38
3 76 15 75
3 76 74 15
3 77 74 76
3 77 1 74
3 77 54 1
3 78 54 77
3 78 6 54
3 40 78 16
3 79 78 40
3 79 6 78
3 79 23 6
3 80 23 79
3 80 0 23
3 264 8 265
3 42 266 267
3 81 268 270
3 270 269 42
3 268 269 270
3 81 271 273
3 271 8 272
3 271 272 273
3 81 62 8
3 82 62 81
3 82 4 62
3 274 43 275
3 83 276 278
3 276 43 277
3 276 277 278
3 83 18 43
3 45 83 9
3 84 83 45
3 84 18 83
3 84 82 18
3 85 82 84
3 85 4 82
3 85 41 4
3 86 41 85
3 86 17 41
3 47 86 19
3 87 86 47
3 87 17 86
3 87 80 17
3 88 80 87
3 88 0 80
3 88 69 0
3 89 69 88
3 89 13 69
3 49 89 20
3 90 89 49
3 90 13 89
3 90 29 13
3 91 29 90
3 91 2 29
3 65 50 5
3 92 50 65
3 92 21 50
3 52 92 11
3 93 92 52
3 93 21 92
3 93 91 21
3 94 91 93
3 94 2 91
3 94 55 2
3 95 55 94
3 95 279 281
3 281 280 55
3 279 280 281
3 282 95 283
3 284 283 22
3 282 283 284
3 285 95 286
3 288 287 95
3 289 68 290
3 291 68 292
3 291 292 293
3 295 294 68
3 70 24 0
3 296 24 297
3 298 297 70
3 296 297 298
3 300 299 24
