ply
format ascii 1.0
element vertex 143
property float x
property float y
property float z
element face 131
property list uchar int vertex_index
end_header
-5.615634 -5.567433 65.239586
-6.357863 2.839046 64.646378
-13.35419 -3.729088 69.529205
-9.356849 -9.193385 67.825562
-6.078414 -1.480106 65.076447
-9.69792 -5.017983 67.686607
-9.716316 -0.519808 67.186699
-13.25549 -8.441541 69.887672
-5.404302 -7.565038 65.29319
-7.175261 -9.317345 66.538322
-7.45012 -7.424711 66.554337
-6.120203 0.700569 64.813156
-7.943519 -1.201937 66.213959
-7.914943 1.114292 65.885323
-11.55217 -4.448145 68.669044
-11.333258 -6.65709 68.748619
-13.325813 -6.178246 69.746033
-11.029106 -11.038509 68.886948
-15.104275 -2.951667 70.259659
-15.201597 -5.427401 70.557693
-5.7811 -3.569889 65.134926
-7.664982 -5.39681 66.508835
-7.819271 -3.429663 66.402176
-9.66907 -2.847745 67.443588
-11.576596 -2.281451 68.448723
-9.695211 1.864053 66.84269
-11.529915 0.169319 68.112526
-13.419651 -1.314047 69.281837
-9.413119 -7.110298 67.702141
-11.268712 -8.844974 68.879082
-12.973375 -10.556783 69.885361
-15.248575 -7.936823 70.789124
-15.071064 -10.320995 70.871826
-14.74099 -12.421575 70.833366
-4.6094 -5.587789 64.589832
-4.744904 -4.621612 64.570495
-5.509968 -6.566236 65.266388
-4.503735 -6.586592 64.616635
-4.6094 -5.587789 64.589832
-5.471359 2.568297 64.10825
-5.553204 3.633166 63.985672
-6.239033 1.769808 64.729767
-5.352529 1.499058 64.191639
-5.471359 2.568297 64.10825
-9.136052 -10.157435 67.762551
-8.045258 -10.219415 67.118931
-8.266055 -9.255365 67.181942
-10.192978 -10.115947 68.356255
-9.972181 -11.079997 68.293244
-9.136052 -10.157435 67.762551
-16.054486 -3.77179 70.733768
-16.006363 -2.539321 70.574353
-9.683878 3.01475 66.652775
-8.821466 2.647199 66.197705
-12.374203 0.706715 68.473206
-11.495755 1.444882 67.907688
-13.319071 -0.034968 69.057861
-12.474783 -0.572364 68.697181
-12.374203 0.706715 68.473206
-14.22094 -0.825978 69.589138
-13.319071 -0.034968 69.057861
-5.093041 -1.611896 64.44825
-5.172665 -0.587131 64.364323
-5.929757 -2.524998 65.105686
-4.944384 -2.656788 64.477489
-5.093041 -1.611896 64.44825
-16.185461 -7.560767 71.140305
-15.225086 -6.682112 70.673408
-16.161972 -6.306056 71.024589
-15.901144 -11.155494 71.2667
-16.042424 -9.978595 71.252803
-15.736107 -12.205784 71.24747
-14.906027 -11.371285 70.852596
-15.901144 -11.155494 71.2667
-15.528102 -13.351514 71.209686
-15.736107 -12.205784 71.24747
-6.289782 -8.441192 65.915756
-6.095886 -9.35022 65.873905
-5.210407 -8.474067 65.251339
-4.339697 -7.584394 64.613247
-4.503735 -6.586592 64.616635
-5.210407 -8.474067 65.251339
-4.339697 -7.584394 64.613247
-5.19356 0.503207 64.232678
-5.352529 1.499058 64.191639
-6.099309 -0.389768 64.944802
-5.172665 -0.587131 64.364323
-5.19356 0.503207 64.232678
-7.152792 3.134695 65.099548
-6.393016 3.949764 64.47976
-6.393016 3.949764 64.47976
-5.553204 3.633166 63.985672
-7.000685 -10.237426 66.500343
-6.095886 -9.35022 65.873905
-7.000685 -10.237426 66.500343
-8.045258 -10.219415 67.118931
-10.809554 -12.045793 68.820393
-9.972181 -11.079997 68.293244
-11.923615 -11.906452 69.403317
-10.809554 -12.045793 68.820393
-16.103147 -5.009657 70.882785
-15.152936 -4.189534 70.408676
-16.054486 -3.77179 70.733768
-16.161972 -6.306056 71.024589
-16.103147 -5.009657 70.882785
-7.931332 2.272318 65.719021
-7.136403 1.976669 65.26585
-7.152792 3.134695 65.099548
-8.805077 1.489173 66.364007
-7.931332 2.272318 65.719021
-8.821466 2.647199 66.197705
-10.578402 2.29225 67.27277
-9.683878 3.01475 66.652775
-10.567069 3.442947 67.082855
-10.612563 1.016686 67.477608
-10.578402 2.29225 67.27277
-11.495755 1.444882 67.907688
-15.063251 -1.644788 70.078049
-14.261963 -2.132857 69.770748
-14.22094 -0.825978 69.589138
-15.965339 -1.232443 70.392742
-16.006363 -2.539321 70.574353
-15.063251 -1.644788 70.078049
-4.827637 -3.622839 64.518165
-4.944384 -2.656788 64.477489
-5.698367 -4.568661 65.187256
-4.744904 -4.621612 64.570495
-4.827637 -3.622839 64.518165
-12.89575 -11.665589 69.902523
-11.923615 -11.906452 69.403317
-12.001241 -10.797646 69.386155
-16.13118 -8.786509 71.211453
-16.185461 -7.560767 71.140305
-15.15982 -9.128909 70.830475
-16.13118 -8.786509 71.211453
-16.042424 -9.978595 71.252803
-13.779557 -12.597985 70.376525
-12.89575 -11.665589 69.902523
-13.857183 -11.489179 70.359364
-14.497912 -13.530371 70.763413
-13.779557 -12.597985 70.376525
-14.497912 -13.530371 70.763413
-15.528102 -13.351514 71.209686
3 0 10 8
3 0 34 35
3 0 36 38
3 36 8 37
3 36 37 38
3 1 13 11
3 1 39 40
3 1 41 43
3 41 11 42
3 41 42 43
3 2 16 14
3 3 44 46
3 46 45 9
3 44 45 46
3 3 47 49
3 47 17 48
3 47 48 49
3 51 50 18
3 4 22 20
3 6 23 12
3 6 24 23
3 52 25 53
3 54 26 55
3 56 27 57
3 58 57 26
3 56 57 58
3 60 59 27
3 4 61 62
3 4 63 65
3 63 20 64
3 63 64 65
3 5 28 21
3 7 29 15
3 7 30 29
3 66 31 67
3 68 67 19
3 66 67 68
3 69 32 70
3 71 33 72
3 73 72 32
3 71 72 73
3 75 74 33
3 8 76 78
3 76 9 77
3 76 77 78
3 10 9 8
3 10 3 9
3 8 79 80
3 8 81 82
3 11 12 4
3 13 12 11
3 13 6 12
3 11 83 84
3 11 85 87
3 85 4 86
3 85 86 87
3 14 15 5
3 16 15 14
3 16 7 15
3 89 88 1
3 90 1 91
3 9 92 93
3 95 94 9
3 17 96 97
3 17 98 99
3 18 19 2
3 100 19 101
3 102 101 18
3 100 101 102
3 104 103 19
3 20 21 0
3 22 21 20
3 22 5 21
3 12 22 4
3 23 22 12
3 23 5 22
3 23 14 5
3 24 14 23
3 24 2 14
3 105 13 106
3 107 106 1
3 105 106 107
3 25 108 110
3 108 13 109
3 108 109 110
3 25 6 13
3 111 25 112
3 111 112 113
3 26 114 116
3 114 25 115
3 114 115 116
3 26 6 25
3 26 24 6
3 27 24 26
3 27 2 24
3 27 18 2
3 117 18 118
3 119 118 27
3 117 118 119
3 122 121 18
3 120 121 122
3 20 123 124
3 20 125 127
3 125 0 126
3 125 126 127
3 21 10 0
3 28 10 21
3 28 3 10
3 15 28 5
3 29 28 15
3 29 3 28
3 29 17 3
3 30 17 29
3 30 128 130
3 130 129 17
3 128 129 130
3 19 16 2
3 31 16 19
3 31 7 16
3 131 31 132
3 32 133 135
3 133 31 134
3 133 134 135
3 32 7 31
3 32 30 7
3 33 30 32
3 33 136 138
3 138 137 30
3 136 137 138
3 33 139 140
3 142 141 33
