ply
format ascii 1.0
element vertex 91
property float x
property float y
property float z
element face 69
property list uchar int vertex_index
end_header
-8.926097 44.747826 -52.946301
-12.358906 44.517128 -52.71669
-5.509336 45.429459 -52.966743
-10.317771 48.069504 -52.6726
-10.663384 44.708912 -52.842239
-10.856547 41.36956 -52.930569
-9.254285 41.639378 -53.140289
-3.848085 45.791393 -52.873352
-8.644605 48.232346 -52.62648
-12.453017 41.038631 -52.69096
-6.773894 48.332733 -52.530323
-7.271711 45.035702 -52.990875
-3.026858 45.90826 -52.797373
-3.559814 47.257624 -52.483034
-8.350145 49.881041 -52.430874
-9.296924 49.868716 -52.520122
-9.002464 51.51741 -52.324517
-13.119105 46.106786 -52.666207
-12.219311 46.217121 -52.693197
-13.214084 44.420091 -52.633333
-13.119105 46.106786 -52.666207
-12.405962 42.777879 -52.703825
-13.26114 42.680843 -52.620468
-13.214084 44.420091 -52.633333
-10.919113 39.667581 -52.928526
-10.132857 39.851938 -53.100205
-6.141615 46.881096 -52.748533
-5.897162 48.5167 -52.427044
-5.264883 47.065064 -52.645254
-11.198743 47.993309 -52.671152
-11.072243 49.570785 -52.611463
-11.37155 46.313013 -52.755972
-11.198743 47.993309 -52.671152
-10.490578 46.389208 -52.757419
-11.511145 44.61302 -52.779465
-12.219311 46.217121 -52.693197
-11.37155 46.313013 -52.755972
-9.331726 39.986847 -53.205065
-10.132857 39.851938 -53.100205
-10.055416 41.504469 -53.035429
-4.434257 47.246031 -52.598558
-3.559814 47.257624 -52.483034
-4.678711 45.610426 -52.920047
-5.264883 47.065064 -52.645254
-4.434257 47.246031 -52.598558
-10.133506 49.787295 -52.543183
-11.072243 49.570785 -52.611463
-10.887978 51.288576 -52.482046
-9.481188 48.150925 -52.64954
-10.133506 49.787295 -52.543183
-9.296924 49.868716 -52.520122
-13.23551 40.876184 -52.556625
-13.26114 42.680843 -52.620468
-12.448683 39.274607 -52.64106
-13.23551 40.876184 -52.556625
-11.717347 39.502117 -52.808721
-11.654782 41.204096 -52.810764
-10.919113 39.667581 -52.928526
-12.448683 39.274607 -52.64106
-11.717347 39.502117 -52.808721
-6.455834 49.969347 -52.248902
-5.897162 48.5167 -52.427044
-7.41479 49.931235 -52.382796
-6.455834 49.969347 -52.248902
-7.70925 48.282539 -52.578401
-8.350145 49.881041 -52.430874
-7.41479 49.931235 -52.382796
-3.257708 44.470396 -53.240746
-3.026858 45.90826 -52.797373
-4.026841 44.237173 -53.237276
-3.257708 44.470396 -53.240746
-4.857466 44.056206 -53.283971
-4.678711 45.610426 -52.920047
-4.026841 44.237173 -53.237276
-5.66653 43.846178 -53.236408
-4.857466 44.056206 -53.283971
-6.547717 43.649299 -53.248474
-6.390524 45.23258 -52.978809
-5.66653 43.846178 -53.236408
-7.407058 43.430756 -53.170771
-6.547717 43.649299 -53.248474
-8.234251 43.286817 -53.148483
-8.098904 44.891764 -52.968588
-7.407058 43.430756 -53.170771
-8.398345 41.732594 -53.245477
-9.090191 43.193602 -53.043295
-8.234251 43.286817 -53.148483
-8.522996 40.212229 -53.371837
-8.398345 41.732594 -53.245477
-9.331726 39.986847 -53.205065
-8.522996 40.212229 -53.371837
3 0 4 3
3 0 6 4
3 12 7 13
3 14 8 15
3 14 15 16
3 1 17 18
3 1 19 20
3 1 21 23
3 21 9 22
3 21 22 23
3 25 24 5
3 2 26 28
3 26 10 27
3 26 27 28
3 2 11 10
3 3 29 30
3 4 31 33
3 33 32 3
3 31 32 33
3 4 34 36
3 34 1 35
3 34 35 36
3 4 5 1
3 6 5 4
3 6 37 39
3 39 38 5
3 37 38 39
3 7 40 41
3 7 42 44
3 42 2 43
3 42 43 44
3 45 3 46
3 45 46 47
3 8 48 50
3 48 3 49
3 48 49 50
3 8 0 3
3 9 51 52
3 9 53 54
3 5 9 1
3 55 9 56
3 57 56 5
3 55 56 57
3 59 58 9
3 10 60 61
3 10 62 63
3 10 64 66
3 64 8 65
3 64 65 66
3 11 8 10
3 11 0 8
3 67 7 68
3 69 7 70
3 71 2 72
3 73 72 7
3 71 72 73
3 74 2 75
3 76 11 77
3 78 77 2
3 76 77 78
3 79 11 80
3 81 0 82
3 83 82 11
3 81 82 83
3 84 6 85
3 86 85 0
3 84 85 86
3 87 6 88
3 90 89 6
