ply
format ascii 1.0
element vertex 299
property float x
property float y
property float z
element face 316
property list uchar int vertex_index
end_header
-19.871721 -72.490143 43.486786
-5.722984 -67.227837 41.802414
-10.946134 -61.736351 51.844704
-14.572083 -79.125267 33.509022
-18.33329 -64.591072 52.649193
-12.71275 -70.515373 43.31123
-2.450021 -65.509705 41.037338
-3.185448 -70.02317 36.593952
-19.139317 -68.671478 48.209095
-15.552811 -67.608131 48.338341
-16.403156 -71.796692 43.706959
-11.126423 -77.789787 33.235561
-8.371797 -64.588928 46.899712
-20.553358 -76.095184 38.432064
-17.085375 -75.789398 38.830719
-18.067144 -79.544472 33.856762
-17.303339 -60.195366 56.757004
-22.548067 -68.917809 47.400333
-22.883074 -72.427246 42.484241
-14.625076 -63.464069 52.407978
-11.96083 -66.174911 47.853359
-9.239885 -68.9048 42.713127
-13.670806 -74.877716 38.531464
-10.118249 -73.35791 38.042549
-6.62315 -71.690514 37.327232
-5.339077 -65.069008 43.875973
-3.64112 -64.126526 43.45977
-4.069048 -66.328079 41.454247
-2.825884 -67.824974 38.810081
-4.499793 -68.605858 39.237713
-19.401293 -70.689301 45.778355
-17.724972 -70.412354 45.842007
-18.133938 -72.344025 43.540707
-9.695065 -63.227631 49.389919
-19.252731 -77.791847 36.286945
-19.80546 -79.419273 33.80827
-17.983349 -62.462811 54.757774
-16.093084 -61.945728 54.633572
-16.512545 -64.065353 52.647175
-14.232531 -69.217361 45.774632
-13.6903 -67.030113 47.998688
-12.453207 -68.373131 45.671066
-10.673467 -67.712334 45.189198
-11.040236 -69.785843 43.032719
-15.798584 -77.48806 36.175701
-15.407821 -75.505203 38.612282
-14.190204 -76.982956 36.11969
-9.261563 -77.132431 32.727119
-10.593147 -75.697128 35.497101
-8.84486 -74.729744 35.396297
-8.335876 -72.651764 37.532784
-7.092287 -74.093018 34.818417
-5.297802 -73.13707 34.569084
-12.298614 -60.42757 54.05497
-18.69577 -66.618393 50.509529
-16.938101 -66.080368 50.635765
-17.345589 -68.355492 48.184452
-15.929305 -69.825226 45.910271
-14.521011 -71.288521 43.454159
-13.327129 -80.679749 30.842916
-12.882489 -78.554131 33.372471
-11.544154 -79.984764 30.693941
-6.655888 -63.681149 46.45784
-7.080192 -65.995308 44.305054
-20.115114 -74.396591 40.921841
-18.581909 -74.215431 41.189804
-18.82251 -76.142403 38.608135
-17.52762 -77.734879 36.312519
-16.317732 -79.253639 33.979866
-18.567173 -81.198189 31.479797
-16.902758 -81.284607 31.317228
-15.201579 -81.054123 31.184784
-16.821377 -58.013996 58.574837
-20.135925 -64.838882 52.603619
-20.473244 -66.877083 50.339535
-20.800903 -68.962494 47.852615
-21.151836 -70.73114 45.584869
-22.756718 -70.644844 45.044254
-21.45846 -72.572342 43.068378
-21.713186 -74.34481 40.461906
-15.410414 -59.709785 56.475872
-14.177405 -61.254612 54.387077
-12.749248 -62.58902 52.212494
-15.078797 -65.578766 50.387611
-13.302971 -64.886627 50.145267
-11.394122 -64.001419 49.832386
-10.23255 -65.530006 47.325211
-8.818787 -66.785461 44.825813
-7.359666 -68.174019 42.059933
-16.741077 -73.852409 41.245571
-14.968526 -73.330811 41.167606
-13.229609 -72.627785 41.07391
-12.359307 -76.351517 35.87159
-11.888392 -74.127274 38.355362
-11.453719 -71.967125 40.707901
-9.579579 -71.111313 40.3573
-7.878522 -70.291695 39.993683
-6.055955 -69.44706 39.514614
-4.890086 -70.954628 36.825226
-10.035383 -61.316671 51.568669
-10.750557 -60.666311 52.734763
-10.3206 -62.481991 50.617311
-9.409848 -62.062311 50.341276
-10.035383 -61.316671 51.568669
-20.507983 -79.295616 33.635766
-20.304532 -78.560802 34.886311
-8.172757 -75.525734 33.897045
-9.053211 -75.931087 34.061708
-8.381108 -76.727078 32.562456
-7.29647 -75.207371 33.608105
-7.968573 -74.411381 35.107357
-8.172757 -75.525734 33.897045
-6.434411 -74.693073 33.572678
-7.29647 -75.207371 33.608105
-12.936543 -59.691143 55.135166
-11.996448 -59.309951 54.88747
-2.204487 -64.450577 41.928211
-2.800037 -63.758988 43.139427
-3.045571 -64.818116 42.248554
-1.61171 -65.10619 40.80109
-1.366176 -64.047062 41.691963
-2.204487 -64.450577 41.928211
-1.80004 -66.180347 39.822895
-1.61171 -65.10619 40.80109
-2.322731 -69.585945 36.451662
-2.142949 -68.486847 37.559726
-3.005666 -68.924072 37.702016
-2.515295 -70.669342 35.35245
-2.322731 -69.585945 36.451662
-11.934791 -81.077065 29.494173
-12.435641 -80.332256 30.768428
-12.826278 -81.424557 29.568661
-7.513843 -64.135038 46.678776
-7.299208 -63.005266 47.68901
-8.157163 -63.459156 47.909947
-18.890259 -82.034859 30.177558
-19.368899 -81.131214 31.339597
-16.338609 -82.121906 30.028066
-17.227751 -82.134064 30.136225
-15.48802 -82.006664 29.961844
-16.052169 -81.169365 31.251006
-16.338609 -82.121906 30.028066
-14.638486 -81.838428 29.890819
-15.48802 -82.006664 29.961844
-20.960405 -64.966186 52.377684
-20.777489 -64.016126 53.425299
-21.129064 -65.985287 51.245642
-20.304585 -65.857982 51.471577
-20.960405 -64.966186 52.377684
-21.674485 -68.940152 47.626474
-21.451165 -68.037689 48.810335
-22.324747 -68.015347 48.584194
-22.819896 -71.536045 43.764247
-23.474716 -70.520436 44.618532
-23.537895 -71.411637 43.338526
-4.423707 -72.694836 34.421452
-4.701864 -73.898163 33.190907
-4.490099 -64.597767 43.667872
-4.241699 -63.478552 44.63109
-5.090677 -63.949793 44.839191
-8.818796 -62.778508 49.15505
-9.409848 -62.062311 50.341276
-9.033431 -63.908279 48.144815
-8.157163 -63.459156 47.909947
-8.818796 -62.778508 49.15505
-20.028168 -77.74709 36.125648
-19.903045 -76.943516 37.359504
-20.678481 -76.898758 37.198208
-19.529096 -78.60556 35.047607
-20.028168 -77.74709 36.125648
-20.304532 -78.560802 34.886311
-23.090951 -67.964237 48.269541
-22.324747 -68.015347 48.584194
-23.587097 -72.163727 42.148184
-23.537895 -71.411637 43.338526
-23.037474 -73.153099 41.258777
-23.587097 -72.163727 42.148184
-5.537168 -74.215099 33.448011
-6.195044 -73.615044 34.69375
-6.434411 -74.693073 33.572678
-4.701864 -73.898163 33.190907
-5.537168 -74.215099 33.448011
-11.426797 -60.011921 53.839895
-11.996448 -59.309951 54.88747
-11.622374 -61.081961 52.949837
-10.750557 -60.666311 52.734763
-11.426797 -60.011921 53.839895
-3.402512 -63.047373 44.339101
-4.241699 -63.478552 44.63109
-3.402512 -63.047373 44.339101
-2.800037 -63.758988 43.139427
-1.987972 -67.337982 38.709266
-1.80004 -66.180347 39.822895
-2.637952 -66.667339 39.92371
-1.987972 -67.337982 38.709266
-2.142949 -68.486847 37.559726
-11.018521 -80.767521 29.316294
-11.934791 -81.077065 29.494173
-10.694055 -79.620411 30.576919
-11.018521 -80.767521 29.316294
-10.168422 -80.403168 29.199273
-10.485189 -78.522922 31.847729
-11.335289 -78.887276 31.964751
-10.694055 -79.620411 30.576919
-9.552759 -78.194244 31.593508
-10.193993 -77.461109 32.98134
-10.485189 -78.522922 31.847729
-8.65713 -77.903107 31.294175
-9.552759 -78.194244 31.593508
-8.381108 -76.727078 32.562456
-8.65713 -77.903107 31.294175
-6.39904 -62.595067 47.344351
-7.299208 -63.005266 47.68901
-5.749083 -63.255864 46.130125
-6.39904 -62.595067 47.344351
-5.997483 -64.375079 45.166906
-5.090677 -63.949793 44.839191
-5.749083 -63.255864 46.130125
-19.988042 -80.241757 32.503834
-20.507983 -79.295616 33.635766
-19.186317 -80.308731 32.644033
-19.988042 -80.241757 32.503834
-19.368899 -81.131214 31.339597
-18.059959 -82.090855 30.217509
-18.890259 -82.034859 30.177558
-17.734966 -81.241398 31.398513
-18.059959 -82.090855 30.217509
-17.227751 -82.134064 30.136225
-13.701261 -81.651241 29.719884
-14.264354 -80.866936 31.01385
-14.638486 -81.838428 29.890819
-12.826278 -81.424557 29.568661
-13.701261 -81.651241 29.719884
-17.477398 -57.100691 59.535179
-16.520349 -56.793214 59.491711
-17.761247 -58.208702 58.652636
-17.477398 -57.100691 59.535179
-18.002228 -59.299387 57.743719
-17.062358 -59.104681 57.66592
-17.761247 -58.208702 58.652636
-18.220887 -60.437531 56.739085
-18.002228 -59.299387 57.743719
-18.560892 -61.571253 55.739469
-17.643344 -61.329088 55.757389
-18.220887 -60.437531 56.739085
-18.804922 -62.69516 54.666124
-18.560892 -61.571253 55.739469
-18.979892 -63.75929 53.611834
-18.15832 -63.526941 53.703483
-18.804922 -62.69516 54.666124
-19.88121 -63.883195 53.589047
-20.777489 -64.016126 53.425299
-19.234608 -64.714977 52.626406
-18.979892 -63.75929 53.611834
-19.88121 -63.883195 53.589047
-21.287336 -66.994984 50.053795
-21.129064 -65.985287 51.245642
-20.637073 -67.919789 49.096075
-21.287336 -66.994984 50.053795
-21.451165 -68.037689 48.810335
-23.246103 -68.87294 47.000938
-23.090951 -67.964237 48.269541
-23.350428 -69.736458 45.822899
-23.474716 -70.520436 44.618532
-22.652392 -69.781327 46.222294
-23.246103 -68.87294 47.000938
-23.350428 -69.736458 45.822899
-22.45253 -74.111881 40.24761
-22.29813 -73.386028 41.473073
-23.037474 -73.153099 41.258777
-21.878363 -75.11903 39.203964
-22.45253 -74.111881 40.24761
-21.29845 -75.994217 38.189043
-21.133272 -75.219997 39.446985
-21.878363 -75.11903 39.203964
-20.678481 -76.898758 37.198208
-21.29845 -75.994217 38.189043
-15.894093 -57.670616 58.48824
-15.593065 -56.449834 59.405113
-16.520349 -56.793214 59.491711
-15.188612 -58.51851 57.438757
-15.894093 -57.670616 58.48824
-16.115896 -58.861891 57.525355
-14.492443 -59.332251 56.345618
-15.188612 -58.51851 57.438757
-13.875939 -60.104664 55.30122
-14.492443 -59.332251 56.345618
-14.793909 -60.482198 55.431475
-13.23801 -60.841091 54.221024
-12.936543 -59.691143 55.135166
-13.875939 -60.104664 55.30122
-4.21985 -71.603615 35.549523
-5.093944 -72.045849 35.697155
-4.423707 -72.694836 34.421452
-3.36753 -71.137886 35.433886
-4.037767 -70.488899 36.709589
-4.21985 -71.603615 35.549523
-2.515295 -70.669342 35.35245
-3.36753 -71.137886 35.433886
3 1 27 25
3 1 29 27
3 0 32 30
3 2 99 100
3 2 101 103
3 101 33 102
3 101 102 103
3 104 35 105
3 4 38 36
3 5 41 39
3 5 43 41
3 3 46 44
3 106 49 107
3 108 107 47
3 106 107 108
3 109 51 110
3 111 110 49
3 109 110 111
3 113 112 51
3 114 53 115
3 6 116 118
3 118 117 26
3 116 117 118
3 6 119 121
3 119 120 121
3 6 122 123
3 7 124 126
3 126 125 28
3 124 125 126
3 7 127 128
3 8 56 54
3 10 57 31
3 10 58 57
3 129 61 130
3 131 130 59
3 129 130 131
3 12 132 134
3 132 62 133
3 132 133 134
3 12 63 62
3 13 66 64
3 15 67 34
3 15 68 67
3 135 69 136
3 137 70 138
3 139 71 140
3 141 140 70
3 139 140 141
3 143 142 71
3 144 73 145
3 146 74 147
3 148 147 73
3 146 147 148
3 17 149 151
3 149 75 150
3 149 150 151
3 17 76 75
3 18 152 154
3 152 77 153
3 152 153 154
3 18 78 77
3 18 79 78
3 16 80 72
3 19 81 37
3 19 82 81
3 9 83 55
3 20 84 40
3 20 85 84
3 20 86 85
3 21 87 42
3 21 88 87
3 14 89 65
3 22 90 45
3 22 91 90
3 11 92 60
3 23 93 48
3 23 94 93
3 23 95 94
3 24 96 50
3 24 97 96
3 24 98 97
3 156 155 52
3 25 157 159
3 157 26 158
3 157 158 159
3 27 26 25
3 27 6 26
3 27 28 6
3 29 28 27
3 29 7 28
3 30 31 8
3 32 31 30
3 32 10 31
3 33 160 161
3 33 162 164
3 162 12 163
3 162 163 164
3 165 34 166
3 167 166 13
3 165 166 167
3 35 168 170
3 168 34 169
3 168 169 170
3 35 15 34
3 171 17 172
3 173 18 174
3 176 175 18
3 36 37 16
3 38 37 36
3 38 19 37
3 39 40 9
3 41 40 39
3 41 20 40
3 41 42 20
3 43 42 41
3 43 21 42
3 44 45 14
3 46 45 44
3 46 22 45
3 47 48 11
3 49 48 47
3 49 23 48
3 49 50 23
3 51 50 49
3 51 24 50
3 51 52 24
3 177 52 178
3 179 178 51
3 177 178 179
3 181 180 52
3 53 182 183
3 53 184 186
3 184 2 185
3 184 185 186
3 26 187 188
3 190 189 26
3 28 191 193
3 193 192 6
3 191 192 193
3 195 194 28
3 54 55 4
3 56 55 54
3 56 9 55
3 31 56 8
3 57 56 31
3 57 9 56
3 57 39 9
3 58 39 57
3 58 5 39
3 59 60 3
3 61 60 59
3 61 11 60
3 196 61 197
3 198 61 199
3 198 199 200
3 201 11 202
3 203 202 61
3 201 202 203
3 204 47 205
3 206 205 11
3 204 205 206
3 207 47 208
3 210 209 47
3 62 211 212
3 62 213 214
3 62 215 217
3 215 25 216
3 215 216 217
3 63 25 62
3 63 1 25
3 64 65 0
3 66 65 64
3 66 14 65
3 34 66 13
3 67 66 34
3 67 14 66
3 67 44 14
3 68 44 67
3 68 3 44
3 218 35 219
3 69 220 222
3 220 35 221
3 220 221 222
3 69 15 35
3 223 69 224
3 70 225 227
3 225 69 226
3 225 226 227
3 70 15 69
3 70 68 15
3 71 68 70
3 71 3 68
3 71 59 3
3 228 59 229
3 230 229 71
3 228 229 230
3 232 231 59
3 233 72 234
3 235 72 236
3 237 16 238
3 239 238 72
3 237 238 239
3 240 16 241
3 242 36 243
3 244 243 16
3 242 243 244
3 245 36 246
3 247 4 248
3 249 248 36
3 247 248 249
3 73 250 251
3 73 252 254
3 252 4 253
3 252 253 254
3 73 54 4
3 74 54 73
3 74 8 54
3 255 74 256
3 75 257 259
3 257 74 258
3 257 258 259
3 75 8 74
3 75 30 8
3 76 30 75
3 76 0 30
3 260 17 261
3 77 262 263
3 77 264 266
3 264 17 265
3 264 265 266
3 77 76 17
3 78 76 77
3 78 0 76
3 78 64 0
3 79 64 78
3 79 13 64
3 267 79 268
3 269 268 18
3 267 268 269
3 270 79 271
3 272 13 273
3 274 273 79
3 272 273 274
3 276 275 13
3 72 277 279
3 277 278 279
3 80 280 282
3 282 281 72
3 280 281 282
3 80 283 284
3 37 80 16
3 81 80 37
3 81 285 287
3 287 286 80
3 285 286 287
3 81 288 290
3 288 53 289
3 288 289 290
3 82 53 81
3 82 2 53
3 55 38 4
3 83 38 55
3 83 19 38
3 40 83 9
3 84 83 40
3 84 19 83
3 84 82 19
3 85 82 84
3 85 2 82
3 85 33 2
3 86 33 85
3 86 12 33
3 42 86 20
3 87 86 42
3 87 12 86
3 87 63 12
3 88 63 87
3 88 1 63
3 65 32 0
3 89 32 65
3 89 10 32
3 45 89 14
3 90 89 45
3 90 10 89
3 90 58 10
3 91 58 90
3 91 5 58
3 60 46 3
3 92 46 60
3 92 22 46
3 48 92 11
3 93 92 48
3 93 22 92
3 93 91 22
3 94 91 93
3 94 5 91
3 94 43 5
3 95 43 94
3 95 21 43
3 50 95 23
3 96 95 50
3 96 21 95
3 96 88 21
3 97 88 96
3 97 1 88
3 97 29 1
3 98 29 97
3 98 7 29
3 52 98 24
3 291 98 292
3 293 292 52
3 291 292 293
3 294 7 295
3 296 295 98
3 294 295 296
3 298 297 7
