ply
format ascii 1.0
element vertex 183
property float x
property float y
property float z
element face 164
property list uchar int vertex_index
end_header
24.247095 9.638888 -4.673269
16.637897 14.193645 -11.092503
19.403397 11.557962 -7.448521
21.550123 10.362241 -6.022833
22.810778 4.799997 -4.66835
17.789938 12.889524 -9.063014
25.488531 3.909325 -3.038204
18.472181 18.176514 -8.689671
20.740166 17.124336 -7.336986
23.358868 15.938428 -6.108847
22.841787 10.05877 -5.360593
22.104624 7.656668 -5.391988
23.378239 7.180956 -4.663148
18.522884 12.340609 -8.23081
18.379601 10.022124 -8.607068
19.08622 9.341042 -7.725604
17.563465 18.670429 -9.429261
21.703032 19.992001 -7.365677
22.038139 16.492252 -6.7021
26.236597 1.295082 -2.145058
24.870405 1.63735 -3.040499
20.415445 11.143226 -6.736683
19.936834 8.781098 -6.913162
20.967751 8.007919 -6.110141
17.162601 13.496894 -10.019548
17.792105 10.737965 -9.575804
25.738052 9.110221 -3.930309
24.818535 6.602633 -3.866493
26.274675 6.293883 -3.109717
17.226845 16.005323 -9.656914
17.998785 15.385346 -8.81402
18.91157 14.86362 -8.05164
19.543169 17.598213 -7.979899
19.901121 14.422801 -7.392573
21.076744 13.758564 -6.709657
22.342155 13.183116 -6.067821
23.658747 12.65385 -5.446149
24.749077 15.417619 -5.504853
25.206629 12.259515 -4.762065
24.073168 4.35317 -3.878107
23.630318 2.072315 -3.905163
16.780286 13.257448 -11.44606
16.425125 14.590854 -11.675871
22.272208 21.386215 -7.361147
21.598248 21.666064 -7.657502
22.346992 19.690006 -7.078438
22.272208 21.386215 -7.361147
25.994649 0.231976 -2.165488
26.662341 0.068242 -1.671753
22.244025 5.030345 -5.064334
21.890949 6.45868 -5.426152
22.457701 6.228333 -5.030169
22.668641 3.697538 -4.714972
22.244025 5.030345 -5.064334
18.488212 9.01001 -8.828986
18.767977 8.660688 -8.324281
19.906371 7.614882 -7.018743
20.294693 7.368446 -6.611252
26.807257 7.647505 -3.15314
26.006363 7.702052 -3.520013
26.538945 9.055674 -3.563436
17.016744 17.576537 -9.942315
16.898407 16.235479 -10.134241
20.141667 17.361275 -7.658442
19.969673 19.014893 -7.973992
20.568171 18.777954 -7.652535
25.554378 15.174839 -5.154554
25.343402 16.782856 -5.509214
25.783155 13.595787 -4.78316
24.977853 13.838567 -5.133459
25.554378 15.174839 -5.154554
25.994295 12.032599 -4.397585
25.783155 13.595787 -4.78316
24.084218 0.835174 -3.519872
24.250362 1.854833 -3.472831
24.704262 0.617692 -3.087541
23.528588 1.10669 -4.001444
24.084218 0.835174 -3.519872
19.121287 8.320147 -7.883549
18.767977 8.660688 -8.324281
18.732911 9.681583 -8.166336
17.407404 20.417893 -9.745958
17.185054 18.90909 -9.828489
17.861896 20.088614 -9.366761
17.407404 20.417893 -9.745958
18.316254 19.841656 -8.996966
18.017823 18.423471 -9.059466
17.861896 20.088614 -9.366761
21.049605 20.211786 -7.666881
21.598248 21.666064 -7.657502
21.221599 18.558169 -7.351331
20.568171 18.777954 -7.652535
21.049605 20.211786 -7.666881
22.514546 17.940132 -6.74665
21.870586 18.242126 -7.033888
22.346992 19.690006 -7.078438
23.174911 17.66322 -6.450024
22.698504 16.21534 -6.405473
22.514546 17.940132 -6.74665
25.311553 0.40311 -2.613208
25.553501 1.466216 -2.592779
25.994649 0.231976 -2.165488
24.704262 0.617692 -3.087541
25.311553 0.40311 -2.613208
20.810151 6.981856 -6.209742
20.294693 7.368446 -6.611252
20.452292 8.394509 -6.511651
21.322512 6.634306 -5.785229
21.536188 7.832293 -5.751065
21.890949 6.45868 -5.426152
20.810151 6.981856 -6.209742
21.322512 6.634306 -5.785229
17.238135 12.489147 -10.331765
16.975783 12.837523 -10.868242
16.900249 13.84527 -10.556026
17.552887 11.109683 -10.109893
17.238135 12.489147 -10.331765
17.477353 12.11743 -9.797676
17.98972 9.703384 -9.866248
17.552887 11.109683 -10.109893
18.194464 9.367931 -9.313354
18.085853 10.380045 -9.091436
18.488212 9.01001 -8.828986
17.98972 9.703384 -9.866248
18.194464 9.367931 -9.313354
19.481064 7.894854 -7.424964
19.511527 9.06107 -7.319383
19.906371 7.614882 -7.018743
19.121287 8.320147 -7.883549
19.481064 7.894854 -7.424964
27.006266 6.231546 -2.736794
26.807257 7.647505 -3.15314
26.593041 4.923132 -2.65552
27.006266 6.231546 -2.736794
26.199968 3.730853 -2.619764
25.881603 5.101604 -3.073961
26.593041 4.923132 -2.65552
26.574002 2.423732 -2.173191
25.862564 2.602203 -2.591631
26.199968 3.730853 -2.619764
26.923592 1.176389 -1.701907
26.574002 2.423732 -2.173191
26.662341 0.068242 -1.671753
26.923592 1.176389 -1.701907
16.336625 15.655674 -11.37088
16.425125 14.590854 -11.675871
16.603933 15.32964 -10.852035
16.336625 15.655674 -11.37088
16.866285 14.981264 -10.315558
16.900249 13.84527 -10.556026
16.603933 15.32964 -10.852035
17.194723 14.751109 -9.838231
16.866285 14.981264 -10.315558
16.898407 16.235479 -10.134241
17.395155 17.337876 -9.543088
17.016744 17.576537 -9.942315
17.185054 18.90909 -9.828489
18.83455 19.552332 -8.651519
18.316254 19.841656 -8.996966
19.370044 19.263182 -8.296633
19.969673 19.014893 -7.973992
19.007675 17.887363 -8.334785
18.83455 19.552332 -8.651519
19.370044 19.263182 -8.296633
23.890502 17.320515 -6.136315
23.174911 17.66322 -6.450024
24.585606 17.060111 -5.834318
25.343402 16.782856 -5.509214
24.053973 15.678024 -5.80685
23.890502 17.320515 -6.136315
24.585606 17.060111 -5.834318
26.260006 10.457952 -3.981707
25.472341 10.684868 -4.346187
25.994295 12.032599 -4.397585
26.538945 9.055674 -3.563436
26.260006 10.457952 -3.981707
16.780286 13.257448 -11.44606
16.975783 12.837523 -10.868242
23.078411 2.333697 -4.333379
22.668641 3.697538 -4.714972
23.220548 3.436156 -4.286757
23.078411 2.333697 -4.333379
23.528588 1.10669 -4.001444
3 0 12 10
3 1 41 42
3 2 15 13
3 43 17 44
3 46 45 17
3 48 47 19
3 3 23 21
3 4 49 51
3 51 50 11
3 49 50 51
3 4 52 53
3 5 25 24
3 55 54 14
3 57 56 22
3 58 28 59
3 60 59 26
3 58 59 60
3 61 29 62
3 7 30 16
3 7 31 30
3 8 63 65
3 63 32 64
3 63 64 65
3 8 33 32
3 8 34 33
3 9 35 18
3 9 36 35
3 66 37 67
3 68 38 69
3 70 69 37
3 68 69 70
3 72 71 38
3 6 39 27
3 73 40 74
3 75 74 20
3 73 74 75
3 77 76 40
3 10 11 3
3 12 11 10
3 12 4 11
3 13 14 5
3 15 14 13
3 15 78 80
3 80 79 14
3 78 79 80
3 81 16 82
3 83 16 84
3 85 7 86
3 87 86 16
3 85 86 87
3 17 88 89
3 17 90 92
3 90 8 91
3 90 91 92
3 17 18 8
3 93 18 94
3 95 94 17
3 93 94 95
3 96 9 97
3 98 97 18
3 96 97 98
3 19 20 6
3 99 20 100
3 101 100 19
3 99 100 101
3 103 102 20
3 21 22 2
3 23 22 21
3 23 104 106
3 106 105 22
3 104 105 106
3 11 23 3
3 107 23 108
3 109 108 11
3 107 108 109
3 111 110 23
3 24 112 114
3 114 113 1
3 112 113 114
3 25 115 117
3 117 116 24
3 115 116 117
3 25 118 119
3 14 25 5
3 120 25 121
3 122 121 14
3 120 121 122
3 124 123 25
3 22 15 2
3 125 15 126
3 127 126 22
3 125 126 127
3 129 128 15
3 26 27 0
3 28 27 26
3 28 6 27
3 130 28 131
3 132 28 133
3 134 6 135
3 136 135 28
3 134 135 136
3 137 19 138
3 139 138 6
3 137 138 139
3 140 19 141
3 143 142 19
3 144 1 145
3 146 1 147
3 148 24 149
3 150 149 1
3 148 149 150
3 29 151 153
3 151 24 152
3 151 152 153
3 29 5 24
3 16 154 156
3 154 29 155
3 154 155 156
3 30 29 16
3 30 5 29
3 30 13 5
3 31 13 30
3 31 2 13
3 157 7 158
3 32 159 160
3 32 161 163
3 161 7 162
3 161 162 163
3 32 31 7
3 33 31 32
3 33 2 31
3 33 21 2
3 34 21 33
3 34 3 21
3 18 34 8
3 35 34 18
3 35 3 34
3 35 10 3
3 36 10 35
3 36 0 10
3 164 9 165
3 37 166 167
3 37 168 170
3 168 9 169
3 168 169 170
3 37 36 9
3 38 36 37
3 38 0 36
3 38 26 0
3 171 26 172
3 173 172 38
3 171 172 173
3 175 174 26
3 177 176 1
3 27 12 0
3 39 12 27
3 39 4 12
3 20 39 6
3 40 39 20
3 40 4 39
3 40 178 180
3 180 179 4
3 178 179 180
3 182 181 40
