ply
format ascii 1.0
element vertex 345
property float x
property float y
property float z
element face 374
property list uchar int vertex_index
end_header
-28.25598 -55.553238 55.227112
-30.144936 -51.654709 48.997383
-23.304688 -57.04509 59.510967
-24.778221 -64.926498 50.720867
-26.997787 -47.709526 63.193691
-29.647066 -45.25441 56.799969
-30.304245 -49.540039 45.868557
-26.124605 -56.774708 57.711155
-24.176773 -61.063473 55.37038
-26.823698 -60.400921 53.27544
-24.320131 -48.017303 65.397461
-26.067099 -43.412228 66.610977
-29.377169 -41.397194 60.605721
-29.932043 -43.617485 52.997238
-29.526615 -54.010189 52.084591
-28.646709 -58.853306 50.731953
-29.709036 -56.876617 47.733742
-20.008064 -56.553268 60.454445
-20.918686 -61.014118 56.472649
-21.784885 -65.093491 52.151749
-27.156559 -63.751041 48.706894
-30.046663 -44.9575 45.943802
-22.208324 -52.54493 63.299755
-25.368853 -52.433334 61.844978
-27.688938 -51.830311 59.389771
-28.170582 -42.529236 64.059044
-28.74552 -46.69762 60.241333
-29.175537 -50.609451 56.305775
-29.925571 -48.785744 52.870377
-30.120882 -46.823128 49.367805
-30.290636 -48.414486 44.395828
-30.353584 -50.44109 43.97818
-27.288166 -56.193085 56.624622
-26.545219 -58.556793 55.55291
-27.616199 -57.938702 54.39603
-24.800385 -43.420578 67.558525
-25.707458 -40.965652 68.065895
-29.910723 -52.904644 50.494785
-29.6222 -55.525887 50.018375
-29.985214 -54.358036 48.40509
-21.759634 -56.74799 60.193447
-20.528061 -58.848297 58.494957
-22.194834 -59.059177 58.107178
-24.567312 -62.997822 53.08112
-23.091639 -63.20327 53.75592
-23.404781 -65.031052 51.598312
-22.101427 -67.112885 49.768055
-23.633835 -67.010666 49.138748
-28.776846 -60.339012 48.348656
-27.970818 -61.348274 49.785313
-25.743481 -47.946697 64.438538
-24.825747 -50.407825 63.625847
-26.169838 -50.2001 62.626011
-26.655983 -52.207745 60.69738
-27.310057 -49.840157 61.39904
-27.88516 -40.362949 65.724236
-29.513643 -43.207878 58.757797
-29.064079 -43.964039 60.665615
-29.28577 -45.950462 58.611668
-28.930758 -48.765701 58.385632
-29.455669 -47.982487 56.636444
-29.637136 -49.682877 54.6353
-29.792673 -46.987293 54.852161
-30.018545 -45.212341 51.202271
-30.000925 -44.342651 49.385609
-30.103762 -45.906937 47.612614
-30.262135 -50.659782 47.408707
-30.197443 -53.161434 46.964973
-30.317732 -51.869362 45.419331
-24.794453 -56.90321 58.806187
-23.744041 -59.092552 57.502575
-25.197397 -58.93708 56.666378
-25.585764 -60.924973 54.336464
-25.841846 -62.853233 51.9678
-25.263262 -45.715752 66.091682
-26.549551 -45.488312 65.030594
-29.689041 -40.571571 58.704197
-29.763678 -42.625511 56.741138
-29.85597 -44.332726 54.912971
-29.864845 -41.568356 54.827007
-29.006241 -54.751705 53.699509
-28.440769 -57.326859 53.037678
-29.117754 -56.578499 51.477676
-29.259174 -57.942425 49.251369
-30.034285 -55.562275 46.252338
-18.701117 -58.403408 58.730434
-19.138435 -60.679695 56.721165
-19.626495 -62.927509 54.574474
-22.618921 -61.291172 55.879368
-21.419052 -63.193371 54.246979
-27.806604 -59.768177 52.067539
-26.976286 -62.121475 51.094059
-26.101 -64.454834 49.716686
-25.065826 -66.659531 48.287601
-23.944139 -68.828072 46.601543
-30.16828 -46.456112 44.445995
-21.105083 -54.555038 62.007065
-22.843979 -54.666573 61.582325
-23.353653 -50.428299 64.367203
-23.853395 -52.683926 62.638939
-24.407581 -54.855675 60.730251
-25.79874 -54.658592 59.800407
-26.967955 -54.327328 58.684059
-27.955404 -53.865364 57.338066
-26.855886 -40.883766 66.991814
-27.290445 -42.867664 65.446831
-27.618801 -45.117905 63.733147
-28.870567 -41.910965 62.500454
-28.478809 -44.536362 62.239254
-27.973583 -47.205254 61.865929
-28.231993 -49.121754 60.114025
-28.532822 -51.183609 57.984734
-28.78303 -53.027946 55.900856
-29.398132 -52.249535 54.184704
-29.795996 -51.412022 52.51289
-30.042192 -50.27224 51.01025
-29.955311 -46.242455 53.130249
-30.070663 -47.704647 51.15448
-30.171989 -49.212856 49.350105
-30.215942 -48.195698 47.668877
-30.201982 -47.217491 46.004543
-30.311969 -48.828363 43.587492
-30.273473 -47.997219 43.853766
-25.447325 -39.84481 68.703957
-24.997104 -40.989033 68.485828
-28.421659 -61.609121 47.893017
-28.782151 -61.133541 47.115521
-29.922311 -43.068811 49.295916
-29.954364 -43.431207 50.238152
-29.973116 -43.952457 48.4376
-29.922311 -43.068811 49.295916
-30.341757 -51.631449 43.741985
-30.358024 -50.904793 43.061645
-29.757585 -40.200111 57.773436
-29.75918 -39.12689 58.574036
-29.794903 -41.227081 56.791906
-29.72636 -41.598541 57.722668
-29.757585 -40.200111 57.773436
-29.845486 -40.698504 55.83484
-29.814262 -42.096934 55.784073
-29.794903 -41.227081 56.791906
-29.508424 -58.121967 47.359019
-29.283493 -58.654871 48.117832
-29.484105 -57.409521 48.492555
-30.129614 -54.897312 45.579641
-30.115864 -54.361854 46.608655
-30.211193 -53.696891 45.935958
-19.354591 -57.478338 59.592439
-18.417268 -57.295397 59.612978
-19.070742 -56.370327 60.474984
-20.960405 -64.966186 52.377684
-20.777489 -64.016126 53.425299
-21.601968 -64.143431 53.199364
-21.129064 -65.985287 51.245642
-20.960405 -64.966186 52.377684
-21.451165 -68.037689 48.810335
-22.324747 -68.015347 48.584194
-25.164374 -67.479756 47.062248
-25.693086 -66.331929 47.814808
-24.60353 -68.564026 46.219219
-24.504983 -67.743802 47.444572
-25.164374 -67.479756 47.062248
-30.028363 -44.705429 45.102007
-30.089171 -45.454735 44.353104
-30.107471 -45.706806 45.194899
-21.656703 -53.549984 62.65341
-20.812123 -53.441694 62.82248
-21.363743 -52.43664 63.468824
-23.836892 -49.222801 64.882332
-23.0816 -49.249058 65.175702
-23.564839 -48.04356 65.690831
-27.212741 -39.551853 67.119339
-26.689646 -39.71042 67.688557
-29.123868 -41.654079 61.553088
-29.059413 -40.667412 62.443779
-29.312714 -40.410527 61.496413
-30.343443 -49.841666 43.378668
-30.32211 -49.427788 44.187004
-30.311969 -48.828363 43.587492
-30.358024 -50.904793 43.061645
-30.343443 -49.841666 43.378668
-24.543567 -42.216496 68.232144
-24.037755 -43.400633 67.909107
-25.253921 -42.193115 67.81221
-24.543567 -42.216496 68.232144
-24.997104 -40.989033 68.485828
-23.090951 -67.964237 48.269541
-22.324747 -68.015347 48.584194
-22.867631 -67.061776 49.453401
-28.018645 -62.113752 48.611345
-28.373832 -60.843643 49.066985
-28.421659 -61.609121 47.893017
-27.611516 -63.315135 48.072136
-27.563689 -62.549658 49.246104
-28.018645 -62.113752 48.611345
-29.960757 -43.884052 45.77071
-29.995985 -44.259882 46.716696
-21.954931 -51.36374 64.127138
-21.363743 -52.43664 63.468824
-28.19397 -39.056116 65.714451
-27.727377 -39.291444 66.48555
-28.28378 -40.116335 64.94629
-28.19397 -39.056116 65.714451
-28.426491 -41.199478 64.113693
-28.027871 -41.446092 64.89164
-28.28378 -40.116335 64.94629
-29.963175 -43.866053 51.146483
-29.975294 -44.414913 52.099755
-29.919923 -43.068624 52.043966
-30.009735 -44.777496 50.29394
-29.963175 -43.866053 51.146483
-29.954364 -43.431207 50.238152
-30.024535 -44.7346 47.551102
-30.052343 -45.124794 48.499111
-29.973116 -43.952457 48.4376
-29.995985 -44.259882 46.716696
-30.075212 -45.432219 46.778208
-30.024535 -44.7346 47.551102
-30.271338 -53.050855 45.163138
-30.211193 -53.696891 45.935958
-30.257587 -52.515398 46.192152
-30.323831 -52.345585 44.462561
-30.335658 -51.155226 44.698756
-30.341757 -51.631449 43.741985
-30.271338 -53.050855 45.163138
-30.323831 -52.345585 44.462561
-24.065205 -46.86713 66.154079
-23.564839 -48.04356 65.690831
-24.305332 -44.568767 67.234611
-24.037755 -43.400633 67.909107
-24.536771 -45.716355 66.50119
-24.305332 -44.568767 67.234611
-25.031824 -44.568165 66.825104
-24.791697 -46.866528 65.744572
-24.065205 -46.86713 66.154079
-24.536771 -45.716355 66.50119
-29.505753 -40.008394 60.530617
-29.312714 -40.410527 61.496413
-29.66169 -39.595583 59.579855
-29.75918 -39.12689 58.574036
-29.533105 -40.984382 59.654959
-29.505753 -40.008394 60.530617
-29.66169 -39.595583 59.579855
-29.853097 -40.243984 54.717585
-29.845486 -40.698504 55.83484
-29.862184 -41.222349 53.825052
-29.853097 -40.243984 54.717585
-29.895784 -42.246914 52.910168
-29.898444 -42.592921 53.912123
-29.862184 -41.222349 53.825052
-29.919923 -43.068624 52.043966
-29.895784 -42.246914 52.910168
-29.042329 -59.853164 47.666476
-29.01801 -59.140718 48.800012
-29.283493 -58.654871 48.117832
-28.782151 -61.133541 47.115521
-29.042329 -59.853164 47.666476
-30.035739 -56.10811 45.179823
-30.129614 -54.897312 45.579641
-29.885505 -56.836043 45.889921
-30.035739 -56.10811 45.179823
-29.722881 -57.493214 46.630623
-29.871661 -56.219446 46.99304
-29.885505 -56.836043 45.889921
-29.508424 -58.121967 47.359019
-29.722881 -57.493214 46.630623
-17.761247 -58.208702 58.652636
-17.477398 -57.100691 59.535179
-18.417268 -57.295397 59.612978
-18.002228 -59.299387 57.743719
-17.761247 -58.208702 58.652636
-18.220887 -60.437531 56.739085
-18.002228 -59.299387 57.743719
-18.919776 -59.541551 57.7258
-18.560892 -61.571253 55.739469
-18.220887 -60.437531 56.739085
-18.804922 -62.69516 54.666124
-18.560892 -61.571253 55.739469
-19.382465 -61.803602 55.647819
-18.979892 -63.75929 53.611834
-18.804922 -62.69516 54.666124
-19.88121 -63.883195 53.589047
-20.522773 -63.06044 54.410727
-20.777489 -64.016126 53.425299
-18.979892 -63.75929 53.611834
-19.88121 -63.883195 53.589047
-21.287336 -66.994984 50.053795
-21.129064 -65.985287 51.245642
-21.943156 -66.103188 50.959902
-21.287336 -66.994984 50.053795
-21.451165 -68.037689 48.810335
-27.219661 -64.506796 47.490204
-27.611516 -63.315135 48.072136
-26.738452 -64.877684 48.024454
-27.219661 -64.506796 47.490204
-26.210673 -65.22958 48.52935
-26.62878 -64.102937 49.21179
-26.738452 -64.877684 48.024454
-25.583413 -65.557183 49.002144
-26.210673 -65.22958 48.52935
-25.693086 -66.331929 47.814808
-23.246103 -68.87294 47.000938
-23.090951 -67.964237 48.269541
-23.788987 -67.919369 47.870145
-24.068427 -69.61205 45.397177
-24.60353 -68.564026 46.219219
-23.350428 -69.736458 45.822899
-24.068427 -69.61205 45.397177
-23.246103 -68.87294 47.000938
-23.350428 -69.736458 45.822899
-30.155743 -46.22275 43.692588
-30.212295 -47.018032 43.878849
-30.155743 -46.22275 43.692588
-30.089171 -45.454735 44.353104
-30.028363 -44.705429 45.102007
-29.960757 -43.884052 45.77071
-19.68453 -55.396181 61.337656
-19.070742 -56.370327 60.474984
-20.23304 -54.397066 62.113966
-20.812123 -53.441694 62.82248
-20.556573 -55.554153 61.230755
-19.68453 -55.396181 61.337656
-20.23304 -54.397066 62.113966
-22.527596 -50.305424 64.660862
-23.0816 -49.249058 65.175702
-22.780988 -51.486615 63.833479
-21.954931 -51.36374 64.127138
-22.527596 -50.305424 64.660862
-26.115431 -39.751363 68.225597
-25.447325 -39.84481 68.703957
-25.855299 -38.630522 68.863659
-26.281672 -40.924709 67.528854
-26.115431 -39.751363 68.225597
-26.689646 -39.71042 67.688557
-27.370523 -40.623357 66.358025
-27.212741 -39.551853 67.119339
-27.727377 -39.291444 66.48555
-28.776484 -40.890343 63.334398
-29.059413 -40.667412 62.443779
-28.520575 -42.220101 63.279749
-28.426491 -41.199478 64.113693
-28.776484 -40.890343 63.334398
-30.212295 -47.018032 43.878849
-30.273473 -47.997219 43.853766
-30.229458 -47.435299 44.420912
3 122 121 30
3 0 34 32
3 123 36 124
3 1 39 37
3 2 42 40
3 3 45 43
3 3 47 45
3 126 125 48
3 4 52 50
3 4 54 52
3 5 58 56
3 5 60 58
3 5 62 60
3 127 64 128
3 130 129 64
3 6 68 66
3 132 131 31
3 7 71 69
3 9 72 33
3 9 73 72
3 11 74 35
3 11 75 74
3 133 76 134
3 135 77 136
3 137 136 76
3 135 136 137
3 138 79 139
3 140 139 77
3 138 139 140
3 14 82 80
3 16 83 38
3 16 141 143
3 143 142 83
3 141 142 143
3 144 84 145
3 146 145 67
3 144 145 146
3 17 147 149
3 147 85 148
3 147 148 149
3 18 86 41
3 18 87 86
3 8 88 70
3 19 89 44
3 19 150 152
3 152 151 89
3 150 151 152
3 19 153 154
3 156 155 46
3 15 90 81
3 20 91 49
3 20 92 91
3 157 93 158
3 159 94 160
3 161 160 93
3 159 160 161
3 21 162 164
3 164 163 95
3 162 163 164
3 22 165 167
3 165 96 166
3 165 166 167
3 22 97 96
3 10 168 170
3 168 98 169
3 168 169 170
3 23 99 51
3 23 100 99
3 23 101 100
3 24 102 53
3 24 103 102
3 171 104 172
3 25 105 55
3 25 106 105
3 12 173 175
3 173 107 174
3 173 174 175
3 26 108 57
3 26 109 108
3 26 110 109
3 27 111 59
3 27 112 111
3 27 113 112
3 28 114 61
3 28 115 114
3 13 116 78
3 29 117 63
3 29 118 117
3 29 119 118
3 21 120 65
3 21 95 120
3 30 31 6
3 176 31 177
3 178 177 30
3 176 177 178
3 180 179 31
3 32 33 7
3 34 33 32
3 34 9 33
3 181 35 182
3 36 183 185
3 183 35 184
3 183 184 185
3 36 11 35
3 37 38 14
3 39 38 37
3 39 16 38
3 40 41 17
3 42 41 40
3 42 18 41
3 43 44 8
3 45 44 43
3 45 19 44
3 45 46 19
3 47 46 45
3 47 186 188
3 188 187 46
3 186 187 188
3 48 49 15
3 189 49 190
3 191 190 48
3 189 190 191
3 192 20 193
3 194 193 49
3 192 193 194
3 196 195 21
3 197 22 198
3 50 51 10
3 52 51 50
3 52 23 51
3 52 53 23
3 54 53 52
3 54 24 53
3 199 55 200
3 201 55 202
3 203 25 204
3 205 204 55
3 203 204 205
3 56 57 12
3 58 57 56
3 58 26 57
3 58 59 26
3 60 59 58
3 60 27 59
3 60 61 27
3 62 61 60
3 62 28 61
3 206 63 207
3 208 207 13
3 206 207 208
3 64 209 211
3 209 63 210
3 209 210 211
3 64 29 63
3 64 65 29
3 212 65 213
3 214 213 64
3 212 213 214
3 215 21 216
3 217 216 65
3 215 216 217
3 66 67 1
3 68 67 66
3 68 218 220
3 220 219 67
3 218 219 220
3 31 68 6
3 221 68 222
3 223 222 31
3 221 222 223
3 225 224 68
3 69 70 2
3 71 70 69
3 71 8 70
3 33 71 7
3 72 71 33
3 72 8 71
3 72 43 8
3 73 43 72
3 73 3 43
3 226 10 227
3 35 228 229
3 74 230 232
3 232 231 35
3 230 231 232
3 74 233 235
3 233 10 234
3 233 234 235
3 74 50 10
3 75 50 74
3 75 4 50
3 236 12 237
3 76 238 239
3 76 240 242
3 240 12 241
3 240 241 242
3 76 56 12
3 77 56 76
3 77 5 56
3 77 78 5
3 79 78 77
3 79 13 78
3 243 79 244
3 245 79 246
3 247 13 248
3 249 248 79
3 247 248 249
3 251 250 13
3 80 81 0
3 82 81 80
3 82 15 81
3 38 82 14
3 83 82 38
3 83 15 82
3 83 48 15
3 252 48 253
3 254 253 83
3 252 253 254
3 256 255 48
3 67 39 1
3 84 39 67
3 84 16 39
3 257 84 258
3 259 84 260
3 261 16 262
3 263 262 84
3 261 262 263
3 265 264 16
3 85 266 268
3 266 267 268
3 85 269 270
3 41 85 17
3 86 85 41
3 86 271 273
3 273 272 85
3 271 272 273
3 86 274 275
3 87 276 278
3 278 277 86
3 276 277 278
3 87 279 280
3 70 42 2
3 88 42 70
3 88 18 42
3 44 88 8
3 89 88 44
3 89 18 88
3 89 87 18
3 281 87 282
3 283 282 89
3 281 282 283
3 285 284 87
3 46 286 288
3 288 287 19
3 286 287 288
3 290 289 46
3 81 34 0
3 90 34 81
3 90 9 34
3 49 90 15
3 91 90 49
3 91 9 90
3 91 73 9
3 92 73 91
3 92 3 73
3 291 20 292
3 293 20 294
3 295 92 296
3 297 296 20
3 295 296 297
3 93 298 300
3 298 92 299
3 298 299 300
3 93 3 92
3 93 47 3
3 94 47 93
3 94 301 303
3 303 302 47
3 301 302 303
3 304 94 305
3 306 94 307
3 309 308 94
3 95 310 311
3 313 312 95
3 315 314 21
3 316 17 317
3 96 318 319
3 96 320 322
3 320 17 321
3 320 321 322
3 96 40 17
3 97 40 96
3 97 2 40
3 98 323 324
3 98 325 327
3 325 22 326
3 325 326 327
3 51 98 10
3 99 98 51
3 99 22 98
3 99 97 22
3 100 97 99
3 100 2 97
3 100 69 2
3 101 69 100
3 101 7 69
3 53 101 23
3 102 101 53
3 102 7 101
3 102 32 7
3 103 32 102
3 103 0 32
3 328 36 329
3 328 329 330
3 104 331 333
3 331 36 332
3 331 332 333
3 104 11 36
3 55 334 336
3 334 104 335
3 334 335 336
3 105 104 55
3 105 11 104
3 105 75 11
3 106 75 105
3 106 4 75
3 107 337 338
3 107 339 341
3 339 25 340
3 339 340 341
3 57 107 12
3 108 107 57
3 108 25 107
3 108 106 25
3 109 106 108
3 109 4 106
3 109 54 4
3 110 54 109
3 110 24 54
3 59 110 26
3 111 110 59
3 111 24 110
3 111 103 24
3 112 103 111
3 112 0 103
3 112 80 0
3 113 80 112
3 113 14 80
3 61 113 27
3 114 113 61
3 114 14 113
3 114 37 14
3 115 37 114
3 115 1 37
3 78 62 5
3 116 62 78
3 116 28 62
3 63 116 13
3 117 116 63
3 117 28 116
3 117 115 28
3 118 115 117
3 118 1 115
3 118 66 1
3 119 66 118
3 119 6 66
3 65 119 29
3 120 119 65
3 120 6 119
3 120 30 6
3 95 30 120
3 95 342 344
3 344 343 30
3 342 343 344
