ply
format ascii 1.0
element vertex 107
property float x
property float y
property float z
element face 93
property list uchar int vertex_index
end_header
-29.272446 35.639534 55.586617
-28.89349 43.833179 53.30611
-30.256214 29.94453 53.090378
-30.64164 32.730015 48.698032
-30.027351 38.390343 51.436218
-29.878351 46.520771 48.80579
-29.853712 32.860802 54.402302
-30.168787 34.148136 52.207314
-29.691593 37.103001 53.492836
-29.424417 45.132927 51.189358
-30.624269 36.903191 47.701405
-30.792318 34.024994 46.470711
-29.069828 39.588482 54.615593
-30.509781 27.291912 51.639496
-30.661253 28.469574 49.408218
-30.472527 31.418575 50.808609
-30.402103 35.630348 50.058578
-30.356575 39.549503 49.0131
-29.540979 41.181644 52.452076
-29.949553 42.420338 50.228634
-30.302254 43.75507 47.755997
-30.784374 29.663124 47.270302
-29.392742 33.543323 55.988813
-29.039393 34.824505 56.561054
-29.563079 34.250168 54.994459
-29.683376 32.153958 55.396656
-29.392742 33.543323 55.988813
-30.710241 37.472178 46.573208
-30.61439 38.969143 47.112597
-30.297799 27.873847 53.474451
-30.123433 29.263893 54.202974
-30.382998 28.618221 52.364937
-30.424582 26.547538 52.74901
-30.297799 27.873847 53.474451
-30.057618 47.193979 47.585442
-30.26957 45.811129 47.060545
-30.090302 45.137921 48.280894
-30.849484 32.545645 45.763645
-30.86618 34.559077 45.301576
-29.922182 30.722029 54.858936
-29.683376 32.153958 55.396656
-30.054963 31.402666 53.74634
-30.123433 29.263893 54.202974
-29.922182 30.722029 54.858936
-29.099781 46.557242 51.462721
-29.158953 44.483053 52.247734
-28.834317 45.907367 52.521097
-29.390799 47.224905 50.334231
-29.099781 46.557242 51.462721
-29.617767 47.918827 49.142447
-29.651384 45.826849 49.997574
-29.390799 47.224905 50.334231
-29.835632 48.587778 48.006348
-29.617767 47.918827 49.142447
-30.794266 36.033079 45.957861
-30.708294 35.464092 47.086058
-30.710241 37.472178 46.573208
-30.868127 36.567161 44.788726
-30.86618 34.559077 45.301576
-30.794266 36.033079 45.957861
-28.903969 36.85378 56.071959
-29.039393 34.824505 56.561054
-28.80266 38.828254 55.586447
-29.171137 37.614008 55.101105
-28.903969 36.85378 56.071959
-28.685461 40.893028 54.974694
-28.80266 38.828254 55.586447
-28.597292 43.015377 54.319952
-28.981659 41.710831 53.960851
-28.685461 40.893028 54.974694
-28.501455 45.206236 53.543953
-28.597292 43.015377 54.319952
-28.834317 45.907367 52.521097
-28.501455 45.206236 53.543953
-30.532823 25.134717 51.934347
-30.447624 24.390343 53.043861
-30.424582 26.547538 52.74901
-30.583315 25.892902 50.886158
-30.532823 25.134717 51.934347
-30.585517 27.880743 50.523857
-30.659051 26.481732 49.770519
-30.583315 25.892902 50.886158
-30.480543 40.292299 47.768444
-30.61439 38.969143 47.112597
-30.490422 38.226347 48.357253
-30.453383 42.395083 47.139893
-30.480543 40.292299 47.768444
-30.329414 41.652287 48.384549
-30.440442 44.353945 46.511787
-30.453383 42.395083 47.139893
-30.440442 44.353945 46.511787
-30.26957 45.811129 47.060545
-30.057618 47.193979 47.585442
-29.835632 48.587778 48.006348
-30.709018 27.031833 48.693955
-30.659051 26.481732 49.770519
-30.770578 27.628608 47.624997
-30.709018 27.031833 48.693955
-30.722814 29.066349 48.33926
-30.826455 28.287011 46.43845
-30.770578 27.628608 47.624997
-30.845512 30.36471 46.163441
-30.788346 31.844059 46.870507
-30.849484 32.545645 45.763645
-30.887593 28.988597 45.331589
-30.826455 28.287011 46.43845
-30.845512 30.36471 46.163441
3 0 22 23
3 0 24 26
3 24 6 25
3 24 25 26
3 0 8 6
3 28 27 10
3 2 29 30
3 2 31 33
3 31 13 32
3 31 32 33
3 2 15 13
3 4 16 7
3 4 17 16
3 1 18 12
3 5 19 9
3 5 20 19
3 5 34 36
3 36 35 20
3 34 35 36
3 3 21 14
3 38 37 11
3 6 39 40
3 6 41 43
3 41 2 42
3 41 42 43
3 6 7 2
3 8 7 6
3 8 4 7
3 44 9 45
3 46 45 1
3 44 45 46
3 47 9 48
3 49 5 50
3 51 50 9
3 49 50 51
3 53 52 5
3 10 11 3
3 54 11 55
3 56 55 10
3 54 55 56
3 59 58 11
3 57 58 59
3 60 0 61
3 62 12 63
3 64 63 0
3 62 63 64
3 65 12 66
3 67 1 68
3 69 68 12
3 67 68 69
3 70 1 71
3 73 72 1
3 13 74 76
3 74 75 76
3 13 77 78
3 13 79 81
3 79 14 80
3 79 80 81
3 15 14 13
3 15 3 14
3 7 15 2
3 16 15 7
3 16 3 15
3 16 10 3
3 17 10 16
3 17 82 84
3 84 83 10
3 82 83 84
3 12 8 0
3 18 8 12
3 18 4 8
3 9 18 1
3 19 18 9
3 19 4 18
3 19 17 4
3 20 17 19
3 20 85 87
3 87 86 17
3 85 86 87
3 20 88 89
3 91 90 20
3 93 92 5
3 14 94 95
3 21 96 98
3 98 97 14
3 96 97 98
3 21 99 100
3 11 21 3
3 101 21 102
3 103 102 11
3 101 102 103
3 106 105 21
3 104 105 106
