ply
format ascii 1.0
element vertex 116
property float x
property float y
property float z
element face 100
property list uchar int vertex_index
end_header
-30.604511 41.035095 46.523788
-31.275871 45.42873 37.081123
-30.534985 48.803738 43.921673
-30.974688 43.130459 41.740952
-30.930428 51.026707 38.860455
-31.235579 52.902145 33.734478
-30.754038 50.083042 41.319389
-30.706165 54.111916 39.629547
-30.901585 54.824692 37.017487
-30.796213 38.041164 45.445011
-31.124537 44.235855 39.430756
-31.119854 40.030144 40.717213
-31.453503 46.433842 34.611515
-30.57863 44.95282 45.267578
-30.801857 41.921921 44.207596
-30.788445 45.931103 42.86644
-30.959391 47.178715 40.372665
-31.119625 48.164509 37.88636
-31.271704 49.226429 35.383808
-31.093502 51.732876 36.368553
-31.053055 55.62241 34.462238
-30.236885 47.867188 46.365093
-30.957283 39.168102 43.082153
-31.431887 50.128475 32.964046
-30.572879 55.442324 39.992253
-30.591069 53.50627 40.966248
-30.686709 55.87612 38.737775
-30.572879 55.442324 39.992253
-30.700362 39.538129 45.9844
-30.710241 37.472178 46.573208
-30.61439 38.969143 47.112597
-31.281549 43.338484 37.704784
-31.205883 42.742047 38.879601
-31.200204 44.832293 38.255939
-31.372302 44.027045 36.505802
-31.281549 43.338484 37.704784
-31.364687 45.931286 35.846319
-31.461118 44.529601 35.270998
-31.372302 44.027045 36.505802
-30.953227 56.977574 34.840231
-30.97732 55.223551 35.739863
-30.877492 56.578715 36.117856
-31.024638 57.364487 33.564685
-30.953227 56.977574 34.840231
-30.057618 47.193979 47.585442
-30.26957 45.811129 47.060545
-31.102103 38.107954 41.31069
-31.190936 38.635883 40.106814
-30.615006 51.491833 41.811169
-30.644512 49.44339 42.620531
-30.505479 50.852181 43.11231
-30.730101 52.097479 40.474468
-30.615006 51.491833 41.811169
-30.591069 53.50627 40.966248
-30.784419 56.232508 37.431746
-30.803875 54.468304 38.323517
-30.686709 55.87612 38.737775
-30.877492 56.578715 36.117856
-30.784419 56.232508 37.431746
-30.794266 36.033079 45.957861
-30.710241 37.472178 46.573208
-30.868127 36.567161 44.788726
-30.794266 36.033079 45.957861
-31.203541 40.639191 39.522829
-31.122196 42.132999 40.073985
-31.205883 42.742047 38.879601
-31.190936 38.635883 40.106814
-31.203541 40.639191 39.522829
-31.565739 45.048872 34.098938
-31.461118 44.529601 35.270998
-31.552689 46.881766 33.408703
-31.565739 45.048872 34.098938
-31.311409 53.306393 32.514327
-31.217016 54.633895 32.816169
-31.125754 55.994028 33.180049
-31.217016 54.633895 32.816169
-31.144317 54.262277 34.098358
-31.125754 55.994028 33.180049
-31.024638 57.364487 33.564685
-30.480543 40.292299 47.768444
-30.61439 38.969143 47.112597
-30.453383 42.395083 47.139893
-30.480543 40.292299 47.768444
-30.440442 44.353945 46.511787
-30.59157 42.993958 45.895683
-30.453383 42.395083 47.139893
-30.407758 46.410004 45.816336
-30.440442 44.353945 46.511787
-30.26957 45.811129 47.060545
-30.014899 49.260987 46.785999
-30.057618 47.193979 47.585442
-30.202214 49.838995 45.595787
-30.014899 49.260987 46.785999
-30.351264 50.30727 44.374077
-30.385935 48.335463 45.143383
-30.202214 49.838995 45.595787
-30.505479 50.852181 43.11231
-30.351264 50.30727 44.374077
-30.948662 37.13063 43.607298
-30.868127 36.567161 44.788726
-30.876748 38.604633 44.263582
-31.020817 37.676933 42.49316
-31.038569 39.599123 41.899683
-31.102103 38.107954 41.31069
-30.948662 37.13063 43.607298
-31.020817 37.676933 42.49316
-31.541882 48.729082 32.584969
-31.552689 46.881766 33.408703
-31.442695 48.281159 33.78778
-31.409563 51.919557 32.129111
-31.333733 51.51531 33.349262
-31.311409 53.306393 32.514327
-31.518199 50.551119 31.813049
-31.409563 51.919557 32.129111
-31.541882 48.729082 32.584969
-31.518199 50.551119 31.813049
3 24 7 25
3 27 26 7
3 0 28 30
3 28 9 29
3 28 29 30
3 1 31 33
3 33 32 10
3 31 32 33
3 1 34 35
3 1 36 38
3 36 12 37
3 36 37 38
3 2 15 13
3 4 16 6
3 4 17 16
3 4 19 17
3 39 20 40
3 41 40 8
3 39 40 41
3 43 42 20
3 44 21 45
3 3 22 14
3 47 46 11
3 5 23 18
3 48 6 49
3 50 49 2
3 48 49 50
3 7 51 53
3 51 6 52
3 51 52 53
3 7 4 6
3 7 8 4
3 54 8 55
3 56 55 7
3 54 55 56
3 58 57 8
3 9 59 60
3 9 61 62
3 10 11 3
3 63 11 64
3 65 64 10
3 63 64 65
3 67 66 11
3 12 68 69
3 12 70 71
3 73 72 5
3 13 14 0
3 15 14 13
3 15 3 14
3 6 15 2
3 16 15 6
3 16 3 15
3 16 10 3
3 17 10 16
3 17 1 10
3 17 18 1
3 19 18 17
3 19 5 18
3 8 19 4
3 20 19 8
3 20 5 19
3 20 74 76
3 76 75 5
3 74 75 76
3 78 77 20
3 79 0 80
3 81 0 82
3 83 13 84
3 85 84 0
3 83 84 85
3 21 86 88
3 86 13 87
3 86 87 88
3 21 2 13
3 89 21 90
3 91 21 92
3 93 2 94
3 95 94 21
3 93 94 95
3 97 96 2
3 14 9 0
3 22 9 14
3 22 98 100
3 100 99 9
3 98 99 100
3 11 22 3
3 101 22 102
3 103 102 11
3 101 102 103
3 105 104 22
3 18 12 1
3 23 12 18
3 23 106 108
3 108 107 12
3 106 107 108
3 109 23 110
3 111 110 5
3 109 110 111
3 112 23 113
3 115 114 23
