ply
format ascii 1.0
element vertex 144
property float x
property float y
property float z
element face 128
property list uchar int vertex_index
end_header
-16.513491 31.919823 40.171638
-19.45927 28.735476 37.837536
-21.513599 30.79443 33.737633
-18.643772 34.369404 36.273705
-13.242057 35.355911 42.051838
-15.640004 37.768421 38.424778
-17.792118 40.157444 34.162186
-19.465733 42.030052 29.861626
-18.057674 30.167896 39.05999
-19.084162 31.636562 37.031822
-17.599657 33.046658 38.353344
-18.638159 24.645802 40.454201
-21.077406 33.479263 32.899811
-16.709974 39.114819 36.354881
-20.898329 27.026131 36.552166
-21.844641 28.222618 34.565258
-20.487595 29.802042 35.876518
-20.140375 32.455135 35.044941
-19.656942 35.458336 34.103889
-14.917303 33.47612 41.239449
-16.031225 34.861897 39.404922
-14.454158 36.496365 40.355389
-19.786594 25.980738 38.516582
-18.320898 27.44956 39.825531
-16.754095 29.1273 41.033749
-15.165618 30.733646 42.110786
-13.523326 32.469231 43.009708
-17.16032 36.054554 37.433578
-18.18766 37.250668 35.341316
-19.157974 38.323917 33.135468
-18.659649 41.19593 32.019234
-19.985907 39.091743 31.103298
-21.49323 34.035963 31.766008
-20.843101 34.887472 32.407663
-19.889074 24.621122 38.88069
-20.455435 25.135448 37.938257
-17.727764 26.805591 40.755985
-18.479529 26.047681 40.139866
-17.886395 25.403712 41.07032
-16.944363 27.644461 41.360095
-17.537496 28.28843 40.42964
-17.727764 26.805591 40.755985
-14.508733 30.015988 43.015794
-15.389402 29.296992 42.418539
-13.687587 30.883781 43.465255
-14.344472 31.601439 42.560247
-14.508733 30.015988 43.015794
-22.15566 29.954714 33.129389
-22.321182 28.668808 33.543201
-21.67912 29.508524 34.151446
-19.062691 41.612991 30.94043
-18.386943 42.619253 31.447364
-18.789985 43.036314 30.36856
-20.102293 41.065445 29.317475
-20.36238 39.596291 29.938311
-19.72582 40.560897 30.482462
-13.009996 36.843863 41.581316
-12.370826 36.123235 42.471014
-18.699306 23.273393 40.83195
-19.314857 23.953654 39.849499
-17.964387 24.034372 41.435805
-18.699306 23.273393 40.83195
-17.886395 25.403712 41.07032
-17.964387 24.034372 41.435805
-21.728357 32.655 32.254562
-21.946453 31.312583 32.673473
-21.295502 32.136847 33.318722
-21.728357 32.655 32.254562
-21.49323 34.035963 31.766008
-15.91313 39.948299 36.883419
-16.174989 38.44162 37.38983
-15.378144 39.2751 37.918368
-16.460629 40.474314 35.877453
-15.91313 39.948299 36.883419
-17.001701 40.995627 34.781105
-17.251046 39.636131 35.258533
-16.460629 40.474314 35.877453
-19.174576 43.474001 29.257049
-18.789985 43.036314 30.36856
-19.846136 42.420603 28.71244
-19.174576 43.474001 29.257049
-21.371485 27.624375 35.558712
-22.065213 26.804984 34.89846
-21.592056 26.206741 35.891914
-20.132869 35.877009 33.009703
-20.843101 34.887472 32.407663
-20.367174 34.4688 33.50185
-13.616046 37.41409 40.733092
-13.848108 35.926138 41.203614
-13.009996 36.843863 41.581316
-14.207584 37.974337 39.879338
-13.616046 37.41409 40.733092
-14.800507 38.610365 38.914032
-15.047081 37.132393 39.390084
-14.207584 37.974337 39.879338
-15.378144 39.2751 37.918368
-14.800507 38.610365 38.914032
-21.011302 25.658145 36.956049
-21.592056 26.206741 35.891914
-20.342461 26.503434 37.534374
-21.011302 25.658145 36.956049
-20.455435 25.135448 37.938257
-19.212377 25.31327 39.485391
-19.889074 24.621122 38.88069
-19.314857 23.953654 39.849499
-16.183641 28.493819 41.880021
-16.944363 27.644461 41.360095
-15.959857 29.930473 41.572267
-16.183641 28.493819 41.880021
-15.389402 29.296992 42.418539
-12.849255 31.673074 43.907978
-13.687587 30.883781 43.465255
-12.638902 33.191885 43.48414
-12.849255 31.673074 43.907978
-12.498268 34.635225 43.005205
-13.382691 33.912571 42.530773
-12.638902 33.191885 43.48414
-12.370826 36.123235 42.471014
-12.498268 34.635225 43.005205
-22.525419 27.322966 33.937528
-22.065213 26.804984 34.89846
-22.525419 27.322966 33.937528
-22.321182 28.668808 33.543201
-22.15566 29.954714 33.129389
-21.946453 31.312583 32.673473
-19.883385 37.309799 32.525492
-20.132869 35.877009 33.009703
-19.407458 36.891126 33.619679
-17.51426 41.586153 33.640909
-17.001701 40.995627 34.781105
-17.948025 42.105396 32.569434
-18.386943 42.619253 31.447364
-18.225884 40.676687 33.09071
-17.51426 41.586153 33.640909
-17.948025 42.105396 32.569434
-20.297352 37.693712 31.509407
-19.883385 37.309799 32.525492
-19.571941 38.70783 32.119383
-20.655715 38.240341 30.413007
-20.297352 37.693712 31.509407
-20.655715 38.240341 30.413007
-20.36238 39.596291 29.938311
-20.102293 41.065445 29.317475
-19.846136 42.420603 28.71244
3 0 10 8
3 33 32 12
3 1 16 14
3 3 17 9
3 3 18 17
3 4 21 19
3 34 22 35
3 36 23 37
3 38 37 11
3 36 37 38
3 39 24 40
3 41 40 23
3 39 40 41
3 42 25 43
3 44 26 45
3 46 45 25
3 44 45 46
3 2 47 49
3 49 48 15
3 47 48 49
3 5 27 20
3 6 28 13
3 6 29 28
3 7 50 52
3 50 30 51
3 50 51 52
3 7 31 30
3 7 53 55
3 55 54 31
3 53 54 55
3 8 9 1
3 10 9 8
3 10 3 9
3 57 56 4
3 58 11 59
3 60 11 61
3 63 62 11
3 12 64 66
3 66 65 2
3 64 65 66
3 68 67 12
3 69 13 70
3 71 70 5
3 69 70 71
3 72 13 73
3 74 6 75
3 76 75 13
3 74 75 76
3 77 7 78
3 80 79 7
3 14 81 83
3 81 15 82
3 81 82 83
3 16 15 14
3 16 2 15
3 9 16 1
3 17 16 9
3 17 2 16
3 17 12 2
3 18 12 17
3 18 84 86
3 86 85 12
3 84 85 86
3 19 20 0
3 21 20 19
3 21 5 20
3 87 21 88
3 89 88 4
3 87 88 89
3 90 21 91
3 92 5 93
3 94 93 21
3 92 93 94
3 96 95 5
3 97 14 98
3 22 99 101
3 99 14 100
3 99 100 101
3 22 1 14
3 11 102 104
3 102 22 103
3 102 103 104
3 23 22 11
3 23 1 22
3 23 8 1
3 24 8 23
3 24 0 8
3 105 24 106
3 25 107 109
3 107 24 108
3 107 108 109
3 25 0 24
3 25 19 0
3 26 19 25
3 26 4 19
3 110 26 111
3 112 26 113
3 114 4 115
3 116 115 26
3 114 115 116
3 118 117 4
3 15 119 120
3 122 121 15
3 124 123 2
3 20 10 0
3 27 10 20
3 27 3 10
3 13 27 5
3 28 27 13
3 28 3 27
3 28 18 3
3 29 18 28
3 29 125 127
3 127 126 18
3 125 126 127
3 128 6 129
3 30 130 131
3 30 132 134
3 132 6 133
3 132 133 134
3 30 29 6
3 31 29 30
3 31 135 137
3 137 136 29
3 135 136 137
3 31 138 139
3 141 140 31
3 143 142 7
