ply
format ascii 1.0
element vertex 164
property float x
property float y
property float z
element face 153
property list uchar int vertex_index
end_header
-6.289782 11.187957 -70.022224
-12.750035 17.574854 -72.861137
-5.624463 21.40056 -69.535439
-9.186964 14.850807 -71.942596
-12.944426 11.835321 -72.415161
-9.500757 9.080718 -71.096199
-16.780558 19.832895 -72.539192
-9.006163 19.921186 -71.754951
-5.983762 16.48016 -70.338943
-16.663124 14.06714 -72.714348
-7.720047 12.925487 -71.105476
-9.328588 11.915546 -71.626671
-7.84172 10.107585 -70.668625
-6.479364 8.455018 -69.549652
-7.238864 23.039619 -70.159256
-9.054275 22.265598 -71.293602
-7.320583 20.682253 -70.815292
-7.423162 18.23859 -71.174164
-5.83343 18.957813 -70.106903
-14.757195 18.781399 -72.869324
-16.772387 16.937103 -72.79451
-14.760119 15.918777 -72.938942
-12.932677 8.744529 -71.765381
-14.753386 10.001472 -72.177872
-5.583963 23.604103 -68.831749
-10.96317 16.166597 -72.554253
-12.776244 14.85146 -72.782883
-10.964426 13.311333 -72.31134
-11.168496 10.484849 -71.871552
-14.674154 21.333971 -72.473877
-12.8408 20.125566 -72.656624
-10.85291 21.289162 -72.113335
-10.904679 18.936874 -72.469185
-9.256043 17.528887 -72.042122
-7.584242 15.804073 -71.287956
-6.083777 13.911029 -70.266907
-4.281282 19.284397 -68.797287
-4.440201 16.881516 -69.11898
-4.61153 14.455147 -69.199745
-14.736757 12.949386 -72.68779
-16.595766 11.076011 -72.330154
-13.786189 7.707929 -71.562702
-12.866977 7.224552 -71.33878
-5.558153 24.613958 -68.358219
-6.437753 24.434517 -69.051914
-10.309736 8.33164 -71.125077
-11.143605 9.033705 -71.512753
-10.334626 9.782784 -71.483875
-9.47422 7.568357 -70.670422
-10.309736 8.33164 -71.125077
-13.677868 21.998278 -72.273087
-14.722278 22.471972 -72.122234
-12.761191 21.394075 -72.36446
-13.757477 20.729768 -72.56525
-13.677868 21.998278 -72.273087
-3.684603 18.294073 -68.283436
-3.574228 19.441029 -68.052788
-3.764063 17.092633 -68.444282
-4.360741 18.082957 -68.958134
-3.684603 18.294073 -68.283436
-3.997993 13.378045 -68.50893
-3.927805 14.666752 -68.561024
-4.701605 13.194475 -69.130348
-3.997993 13.378045 -68.50893
-17.810515 18.802431 -72.439312
-17.876545 20.113715 -72.219166
-17.694127 14.458026 -72.572571
-17.748759 15.893008 -72.612652
-16.717755 15.502122 -72.754429
-17.684226 12.984338 -72.449028
-17.694127 14.458026 -72.572571
-16.499227 9.446794 -71.996242
-15.674576 10.538742 -72.254013
-15.578038 8.909524 -71.920101
-17.549078 9.908399 -72.005875
-16.499227 9.446794 -71.996242
-7.89468 8.703449 -70.344071
-8.724199 8.190016 -70.557857
-8.671238 9.594151 -70.882412
-7.213503 7.877166 -69.784584
-7.89468 8.703449 -70.344071
-7.160542 9.281302 -70.109139
-6.513491 6.971594 -69.149597
-7.213503 7.877166 -69.784584
-8.14657 22.652608 -70.726429
-8.972116 23.357119 -70.879994
-8.06441 23.74413 -70.312821
-14.696544 8.3364 -71.768947
-13.843032 9.373 -71.971626
-13.786189 7.707929 -71.562702
-15.578038 8.909524 -71.920101
-14.696544 8.3364 -71.768947
-7.265204 24.152275 -69.715667
-8.06441 23.74413 -70.312821
-6.411414 23.321861 -69.495503
-7.265204 24.152275 -69.715667
-6.437753 24.434517 -69.051914
-12.025696 8.163545 -71.459667
-12.050586 9.614689 -71.818466
-11.143605 9.033705 -71.512753
-12.866977 7.224552 -71.33878
-12.025696 8.163545 -71.459667
-9.47422 7.568357 -70.670422
-8.724199 8.190016 -70.557857
-16.798991 21.058273 -72.242367
-17.876545 20.113715 -72.219166
-15.745788 21.808811 -72.209709
-14.722278 22.471972 -72.122234
-15.727356 20.583433 -72.506535
-16.798991 21.058273 -72.242367
-15.745788 21.808811 -72.209709
-9.929105 23.010411 -71.340176
-8.972116 23.357119 -70.879994
-10.828422 22.522193 -71.750042
-9.929105 23.010411 -71.340176
-9.953592 21.77738 -71.703469
-11.767246 21.975873 -72.092816
-10.828422 22.522193 -71.750042
-11.846855 20.707364 -72.38498
-12.761191 21.394075 -72.36446
-11.767246 21.975873 -72.092816
-4.833098 23.749941 -68.129734
-5.558153 24.613958 -68.358219
-4.840889 22.5931 -68.50954
-4.833098 23.749941 -68.129734
-4.861139 21.491328 -68.861385
-5.604213 22.502331 -69.183594
-4.840889 22.5931 -68.50954
-4.189548 20.433246 -68.49231
-3.574228 19.441029 -68.052788
-4.952872 20.342478 -69.166363
-4.861139 21.491328 -68.861385
-4.189548 20.433246 -68.49231
-3.842141 15.879936 -68.520641
-3.764063 17.092633 -68.444282
-4.525866 15.668332 -69.159362
-3.842141 15.879936 -68.520641
-3.927805 14.666752 -68.561024
-5.437728 12.922415 -69.663929
-5.347653 14.183088 -69.733326
-4.701605 13.194475 -69.130348
-5.540731 11.56088 -69.541587
-6.18678 12.549493 -70.144565
-5.437728 12.922415 -69.663929
-5.635822 10.217674 -69.360305
-5.540731 11.56088 -69.541587
-5.730613 8.851204 -69.12402
-6.384573 9.821487 -69.785938
-5.635822 10.217674 -69.360305
-5.818122 7.559859 -68.859642
-5.730613 8.851204 -69.12402
-5.852248 6.076435 -68.459587
-6.513491 6.971594 -69.149597
-5.818122 7.559859 -68.859642
-17.806429 17.354535 -72.566971
-17.810515 18.802431 -72.439312
-16.776472 18.384999 -72.666851
-17.806429 17.354535 -72.566971
-17.748759 15.893008 -72.612652
-17.650547 11.488774 -72.256931
-17.684226 12.984338 -72.449028
-16.629445 12.571575 -72.522251
-17.650547 11.488774 -72.256931
-17.549078 9.908399 -72.005875
3 0 12 10
3 0 13 12
3 2 16 14
3 2 18 16
3 1 21 19
3 42 41 22
3 43 24 44
3 3 27 25
3 5 28 11
3 5 45 47
3 47 46 28
3 45 46 47
3 5 48 49
3 50 29 51
3 52 30 53
3 54 53 29
3 52 53 54
3 7 31 15
3 7 32 31
3 7 33 32
3 8 34 17
3 8 35 34
3 55 36 56
3 57 37 58
3 59 58 36
3 57 58 59
3 60 38 61
3 63 62 38
3 6 64 65
3 9 66 68
3 68 67 20
3 66 67 68
3 9 69 70
3 4 39 26
3 71 40 72
3 73 72 23
3 71 72 73
3 75 74 40
3 10 11 3
3 12 11 10
3 12 5 11
3 12 76 78
3 78 77 5
3 76 77 78
3 13 79 81
3 81 80 12
3 79 80 81
3 13 82 83
3 14 84 86
3 84 15 85
3 84 85 86
3 16 15 14
3 16 7 15
3 16 17 7
3 18 17 16
3 18 8 17
3 19 20 6
3 21 20 19
3 21 9 20
3 22 23 4
3 87 23 88
3 89 88 22
3 87 88 89
3 91 90 23
3 92 14 93
3 24 94 96
3 94 14 95
3 94 95 96
3 24 2 14
3 25 26 1
3 27 26 25
3 27 4 26
3 11 27 3
3 28 27 11
3 28 4 27
3 28 22 4
3 97 22 98
3 99 98 28
3 97 98 99
3 101 100 22
3 103 102 5
3 104 6 105
3 29 106 107
3 29 108 110
3 108 6 109
3 108 109 110
3 29 19 6
3 30 19 29
3 30 1 19
3 15 111 112
3 31 113 115
3 115 114 15
3 113 114 115
3 31 116 117
3 31 118 120
3 118 30 119
3 118 119 120
3 32 30 31
3 32 1 30
3 32 25 1
3 33 25 32
3 33 3 25
3 17 33 7
3 34 33 17
3 34 3 33
3 34 10 3
3 35 10 34
3 35 0 10
3 121 24 122
3 123 24 124
3 125 2 126
3 127 126 24
3 125 126 127
3 36 128 129
3 36 130 132
3 130 2 131
3 130 131 132
3 36 18 2
3 37 18 36
3 37 8 18
3 133 37 134
3 38 135 137
3 135 37 136
3 135 136 137
3 38 8 37
3 38 35 8
3 138 35 139
3 140 139 38
3 138 139 140
3 141 0 142
3 143 142 35
3 141 142 143
3 144 0 145
3 146 13 147
3 148 147 0
3 146 147 148
3 149 13 150
3 153 152 13
3 151 152 153
3 20 154 156
3 156 155 6
3 154 155 156
3 158 157 20
3 26 21 1
3 39 21 26
3 39 9 21
3 23 39 4
3 40 39 23
3 40 9 39
3 40 159 161
3 161 160 9
3 159 160 161
3 163 162 40
