ply
format ascii 1.0
element vertex 62
property float x
property float y
property float z
element face 48
property list uchar int vertex_index
end_header
20.544273 -59.824017 -25.824524
21.553137 -65.976151 -24.119213
20.767397 -57.406273 -24.99218
21.196968 -60.445435 -24.081841
20.947493 -65.359962 -25.954071
20.024824 -56.528774 -26.60984
19.742449 -58.883099 -27.501011
21.573425 -63.47839 -23.282867
21.061031 -62.961296 -24.969612
20.347925 -62.205681 -26.755219
21.437717 -60.830811 -23.265453
21.291658 -59.304747 -23.698235
21.764002 -66.198875 -23.249956
21.824708 -67.550011 -23.628082
21.563281 -64.727271 -23.70104
21.774146 -64.949995 -22.831783
21.764002 -66.198875 -23.249956
20.306861 -63.520344 -27.178304
20.647709 -63.782821 -26.354645
20.606645 -65.097485 -26.77773
19.935231 -61.723743 -27.572744
20.306861 -63.520344 -27.178304
21.076873 -57.785166 -24.153405
20.950804 -56.149496 -24.504947
20.982183 -58.925854 -24.537011
21.076873 -57.785166 -24.153405
21.291658 -59.304747 -23.698235
21.586236 -67.280655 -24.51021
21.824708 -67.550011 -23.628082
21.283414 -66.972561 -25.427639
21.250315 -65.668057 -25.036642
21.586236 -67.280655 -24.51021
20.951455 -66.655674 -26.359502
21.283414 -66.972561 -25.427639
20.606645 -65.097485 -26.77773
20.951455 -66.655674 -26.359502
20.575434 -55.794906 -25.344075
20.950804 -56.149496 -24.504947
20.204147 -55.356157 -26.152904
20.575434 -55.794906 -25.344075
20.39611 -56.967523 -25.80101
19.750507 -54.799062 -26.992442
20.204147 -55.356157 -26.152904
19.58494 -55.979471 -27.399034
19.750507 -54.799062 -26.992442
19.443753 -57.156633 -27.844619
19.58494 -55.979471 -27.399034
19.883637 -57.705936 -27.055425
19.241086 -58.213103 -28.349748
19.443753 -57.156633 -27.844619
21.768235 -63.764994 -22.420511
21.774146 -64.949995 -22.831783
21.625945 -62.347288 -22.865966
21.768235 -63.764994 -22.420511
21.385196 -61.961912 -23.682354
21.437717 -60.830811 -23.265453
21.625945 -62.347288 -22.865966
19.632493 -60.062452 -27.945639
20.045187 -60.54439 -27.128115
19.935231 -61.723743 -27.572744
19.241086 -58.213103 -28.349748
19.632493 -60.062452 -27.945639
3 10 3 11
3 0 5 2
3 0 6 5
3 1 12 13
3 1 14 16
3 14 7 15
3 14 15 16
3 1 8 7
3 17 9 18
3 19 18 4
3 17 18 19
3 21 20 9
3 22 2 23
3 3 24 26
3 24 2 25
3 24 25 26
3 3 0 2
3 27 1 28
3 29 4 30
3 31 30 1
3 29 30 31
3 32 4 33
3 35 34 4
3 2 36 37
3 5 38 40
3 40 39 2
3 38 39 40
3 5 41 42
3 5 43 44
3 6 45 47
3 47 46 5
3 45 46 47
3 6 48 49
3 7 50 51
3 7 52 53
3 7 54 56
3 54 3 55
3 54 55 56
3 8 3 7
3 8 0 3
3 4 8 1
3 9 8 4
3 9 0 8
3 9 6 0
3 57 6 58
3 59 58 9
3 57 58 59
3 61 60 6
