ply
format ascii 1.0
element vertex 140
property float x
property float y
property float z
element face 120
property list uchar int vertex_index
end_header
-22.337431 46.181484 -51.025429
-15.656381 44.229809 -52.352444
-21.577196 52.104603 -51.983803
-19.109072 44.969933 -51.817654
-18.617989 50.932861 -52.412769
-11.826715 51.072067 -52.550327
-15.302791 51.102924 -52.604153
-21.11426 54.738537 -52.313644
-20.133144 51.60804 -52.252316
-19.71702 54.120792 -52.486156
-17.329863 44.579933 -52.124805
-17.542717 41.377914 -51.783585
-14.018003 40.713737 -52.422291
-16.736147 54.21265 -52.63261
-12.079716 47.917114 -52.669704
-22.036623 49.441422 -51.560146
-20.702631 45.310886 -51.448853
-20.414408 48.658459 -51.917789
-18.854639 48.045109 -52.165565
-17.155005 47.761784 -52.373627
-19.205109 41.638191 -51.397293
-19.528019 56.859062 -52.608227
-18.354422 54.032494 -52.586632
-17.035984 51.080112 -52.544601
-15.586492 47.777466 -52.5168
-13.599918 51.173706 -52.600082
-13.879304 47.696445 -52.615723
-14.069263 44.323055 -52.549976
-20.157029 55.34594 -52.497438
-20.41564 54.429665 -52.3999
-20.855649 55.654812 -52.411182
-21.619493 44.026673 -50.964733
-22.520927 44.536631 -50.697005
-15.727449 42.590411 -52.230804
-16.56419 42.765473 -52.116985
-16.493122 44.404871 -52.238625
-14.837192 42.471773 -52.387367
-14.90826 40.832375 -52.265728
-15.727449 42.590411 -52.230804
-17.537843 39.654485 -51.586058
-16.710021 39.565259 -51.794052
-18.204344 55.536332 -52.622359
-18.941221 55.445778 -52.59743
-18.791142 56.949616 -52.633156
-12.713317 51.122886 -52.575204
-13.360305 52.817873 -52.54883
-12.473703 52.767054 -52.523953
-13.119105 46.106786 -52.666207
-12.97951 47.806779 -52.642713
-12.219311 46.217121 -52.693197
-13.214084 44.420091 -52.633333
-13.974283 46.00975 -52.58285
-13.119105 46.106786 -52.666207
-13.26114 42.680843 -52.620468
-13.214084 44.420091 -52.633333
-16.670617 41.164463 -51.946375
-17.43629 42.978923 -51.954195
-16.56419 42.765473 -52.116985
-16.710021 39.565259 -51.794052
-16.670617 41.164463 -51.946375
-14.105915 39.104492 -52.305287
-14.90826 40.832375 -52.265728
-13.231177 39.11216 -52.506726
-14.105915 39.104492 -52.305287
-16.599934 55.855972 -52.631085
-17.395207 55.626409 -52.645347
-15.898436 54.269722 -52.618948
-16.599934 55.855972 -52.631085
-15.181759 52.714859 -52.60472
-16.019469 52.657787 -52.618381
-15.898436 54.269722 -52.618948
-11.198743 47.993309 -52.671152
-11.953215 49.494591 -52.610016
-11.072243 49.570785 -52.611463
-11.37155 46.313013 -52.755972
-11.198743 47.993309 -52.671152
-12.219311 46.217121 -52.693197
-11.37155 46.313013 -52.755972
-11.555096 52.868792 -52.437819
-12.473703 52.767054 -52.523953
-10.887978 51.288576 -52.482046
-11.555096 52.868792 -52.437819
-11.072243 49.570785 -52.611463
-10.887978 51.288576 -52.482046
-20.802093 43.591374 -51.176445
-21.619493 44.026673 -50.964733
-21.520031 45.746185 -51.237141
-20.053332 41.755026 -51.150665
-20.802093 43.591374 -51.176445
-19.95387 43.474539 -51.423073
-19.245706 39.922506 -51.146918
-20.053332 41.755026 -51.150665
-18.369039 39.784624 -51.392912
-18.373913 41.508052 -51.590439
-17.537843 39.654485 -51.586058
-19.245706 39.922506 -51.146918
-18.369039 39.784624 -51.392912
-20.110894 58.058229 -52.577116
-20.062528 56.715075 -52.558473
-19.457952 58.428505 -52.619639
-20.110894 58.058229 -52.577116
-18.791142 56.949616 -52.633156
-19.457952 58.428505 -52.619639
-23.209287 46.68392 -50.730265
-22.520927 44.536631 -50.697005
-22.97654 48.259966 -51.05871
-23.209287 46.68392 -50.730265
-22.826135 49.889935 -51.326069
-22.187027 47.811453 -51.292788
-22.97654 48.259966 -51.05871
-22.595735 51.465919 -51.596036
-22.826135 49.889935 -51.326069
-22.366022 52.79751 -51.807865
-21.806909 50.773013 -51.771974
-22.595735 51.465919 -51.596036
-22.030007 53.998508 -52.020031
-22.366022 52.79751 -51.807865
-21.79854 55.315476 -52.184951
-21.345728 53.42157 -52.148724
-22.030007 53.998508 -52.020031
-21.424979 56.344012 -52.33535
-21.79854 55.315476 -52.184951
-20.855649 55.654812 -52.411182
-21.424979 56.344012 -52.33535
-19.62252 55.489927 -52.547191
-20.157029 55.34594 -52.497438
-20.062528 56.715075 -52.558473
-17.545285 54.122572 -52.609621
-18.204344 55.536332 -52.622359
-17.395207 55.626409 -52.645347
-14.330322 52.75025 -52.602684
-13.360305 52.817873 -52.54883
-14.451355 51.138315 -52.602117
-15.181759 52.714859 -52.60472
-14.330322 52.75025 -52.602684
-13.23551 40.876184 -52.556625
-14.043633 42.518396 -52.486134
-13.26114 42.680843 -52.620468
-13.231177 39.11216 -52.506726
-13.23551 40.876184 -52.556625
3 28 9 29
3 30 29 7
3 28 29 30
3 0 31 32
3 1 33 35
3 35 34 10
3 33 34 35
3 1 36 38
3 36 12 37
3 36 37 38
3 2 17 15
3 4 18 8
3 4 19 18
3 3 20 16
3 40 39 11
3 41 22 42
3 43 42 21
3 41 42 43
3 6 23 13
3 6 24 23
3 5 44 46
3 44 25 45
3 44 45 46
3 47 26 48
3 49 48 14
3 47 48 49
3 50 27 51
3 52 51 26
3 50 51 52
3 54 53 27
3 7 8 2
3 9 8 7
3 9 4 8
3 10 11 3
3 55 11 56
3 57 56 10
3 55 56 57
3 59 58 11
3 12 60 61
3 12 62 63
3 64 13 65
3 66 13 67
3 68 6 69
3 70 69 13
3 68 69 70
3 71 14 72
3 73 72 5
3 71 72 73
3 74 14 75
3 77 76 14
3 15 16 0
3 17 16 15
3 17 3 16
3 8 17 2
3 18 17 8
3 18 3 17
3 18 10 3
3 19 10 18
3 19 1 10
3 78 5 79
3 80 5 81
3 83 82 5
3 16 84 86
3 86 85 0
3 84 85 86
3 20 87 89
3 89 88 16
3 87 88 89
3 20 90 91
3 11 20 3
3 92 20 93
3 94 93 11
3 92 93 94
3 96 95 20
3 97 21 98
3 99 21 100
3 102 101 21
3 103 0 104
3 105 0 106
3 107 15 108
3 109 108 0
3 107 108 109
3 110 15 111
3 112 2 113
3 114 113 15
3 112 113 114
3 115 2 116
3 117 7 118
3 119 118 2
3 117 118 119
3 120 7 121
3 123 122 7
3 21 124 126
3 124 9 125
3 124 125 126
3 22 9 21
3 22 4 9
3 13 127 129
3 127 22 128
3 127 128 129
3 23 22 13
3 23 4 22
3 23 19 4
3 24 19 23
3 24 1 19
3 25 130 131
3 25 132 134
3 132 6 133
3 132 133 134
3 14 25 5
3 26 25 14
3 26 6 25
3 26 24 6
3 27 24 26
3 27 1 24
3 27 12 1
3 135 12 136
3 137 136 27
3 135 136 137
3 139 138 12
