ply
format ascii 1.0
element vertex 588
property float x
property float y
property float z
element face 704
property list uchar int vertex_index
end_header
-30.25631 -47.579952 43.311703
-30.491217 -46.420429 9.835872
-28.602507 -65.920486 36.229939
-30.386616 -47.858967 27.739241
-32.943993 -22.93224 24.612963
-30.183189 -55.922695 40.520325
-29.774479 -57.993149 31.315214
-30.276159 -47.993801 36.287872
-30.513762 -25.0196 31.954317
-28.126276 -57.573799 12.193204
-29.665609 -45.022064 0.893556
-29.183393 -57.954983 21.899961
-30.635908 -47.285416 18.872149
-30.132353 -37.680279 33.467941
-31.356112 -36.445007 25.68078
-32.956169 -34.974724 17.389816
-30.362463 -51.368496 42.145111
-30.319075 -52.294109 38.163376
-30.267128 -47.834332 40.105358
-30.224943 -54.232349 44.906944
-29.148973 -52.14209 10.88497
-28.682524 -51.433903 6.227519
-30.165236 -45.762459 5.272201
-28.358358 -66.904778 31.189766
-30.079599 -53.171291 29.280075
-29.500776 -58.169167 26.656122
-29.960217 -52.998615 24.748381
-29.784655 -52.946308 20.254616
-30.509933 -47.707867 23.257046
-29.766075 -38.396061 37.520943
-31.628489 -24.175354 28.310228
-31.064917 -30.862476 28.859095
-32.097111 -29.785362 25.104902
-32.176178 -35.558521 21.661152
-33.21207 -28.946411 21.177011
-29.602507 -60.966717 38.415878
-29.338963 -62.195393 33.672211
-30.020645 -57.241795 35.973682
-30.223713 -52.850487 33.920994
-30.302925 -48.042149 32.147114
-29.717545 -59.292084 43.195126
-32.317379 -16.71244 27.966585
-27.495924 -62.643124 14.008441
-29.034275 -62.748367 28.869493
-28.623516 -63.022011 23.921667
-28.141218 -62.854691 19.084496
-28.710236 -57.900925 17.149403
-29.49917 -52.713528 15.486745
-30.679102 -46.768402 14.420677
-29.979677 -43.939426 42.580624
-30.0249 -43.461861 38.873859
-30.167894 -43.077381 34.789783
-30.411425 -42.904785 30.736109
-30.237602 -31.53974 32.532894
-30.674793 -36.872692 29.562943
-30.799004 -42.204433 26.575027
-31.236755 -42.032249 22.291868
-31.670443 -41.552063 18.071678
-31.98892 -40.977417 13.571249
-33.804829 -15.400208 24.36441
-34.325211 -21.748318 20.748053
-34.236252 -28.302549 17.057055
-33.542397 -34.348831 13.058416
-32.103783 -40.247459 9.113073
-31.976341 -39.533031 4.897191
-30.333302 -49.242241 42.779156
-30.335917 -49.628315 41.022503
-30.263813 -47.717602 41.96595
-29.81595 -49.258118 10.487147
-28.942884 -51.813686 8.667343
-29.615316 -48.98634 8.086806
-29.421925 -48.555153 5.77656
-30.403902 -45.936172 7.601927
-28.474863 -66.551651 33.750736
-30.235735 -50.42305 28.5399
-30.032715 -52.955845 27.067362
-30.230976 -50.356098 26.32477
-30.210363 -50.440346 23.997688
-30.449162 -47.762844 25.501717
-28.709627 -65.111176 38.793655
-32.279133 -23.29682 26.514225
-31.901575 -26.879765 26.742411
-32.50341 -26.281773 24.918062
-32.637669 -29.472332 23.16316
-33.141235 -25.980898 22.893354
-29.952072 -58.386257 39.558891
-29.863108 -59.047108 37.250355
-30.12254 -56.531944 38.196186
-30.314716 -50.212364 37.236263
-30.280941 -52.483871 36.034592
-30.293415 -50.321072 35.040688
-30.262503 -50.666271 32.835613
-30.285158 -47.957752 34.184811
-30.217972 -55.188141 42.665703
-30.037193 -56.653946 44.107307
-29.993259 -57.745651 41.890869
-29.687147 -60.161186 40.777538
-31.62397 -17.615129 29.687527
-31.953028 -13.798199 29.555073
-27.796902 -59.985283 13.052801
-29.577793 -60.194817 32.444962
-29.185572 -62.575993 31.25708
-29.431812 -60.464771 30.14222
-29.353325 -58.096703 24.320105
-29.107189 -60.535385 25.339033
-28.889631 -60.596878 22.876955
-28.384274 -63.009075 21.450785
-28.676815 -60.399147 20.454853
-28.374746 -60.446899 17.898106
-28.961426 -57.953453 19.538214
-30.165369 -50.241531 19.427572
-29.6658 -52.810631 17.867956
-30.09849 -50.175407 17.228275
-30.035139 -49.872124 14.922357
-30.633883 -47.24295 16.592897
-29.797785 -41.680805 42.015568
-29.991016 -43.690304 40.715023
-29.820967 -41.305984 40.167805
-29.923029 -38.02906 35.498386
-29.995195 -40.760483 36.157059
-30.135374 -40.402721 34.07312
-30.272791 -42.730141 32.779762
-30.314287 -40.23259 32.025707
-30.358683 -28.479147 32.176743
-31.282045 -33.626175 27.166016
-30.847628 -33.749233 29.242624
-31.000599 -36.465061 27.701996
-30.769859 -39.570644 28.159216
-31.04574 -39.33374 26.191507
-31.011803 -42.168171 24.450638
-31.353497 -39.173161 24.081451
-32.56155 -35.495132 19.4387
-31.983608 -38.639599 19.914385
-32.298904 -38.327686 17.66518
-31.873751 -41.183186 15.821004
-32.563076 -38.006104 15.449482
-33.499241 -12.400336 25.872349
-34.299377 -11.689994 24.005854
-34.383114 -25.014132 18.85804
-32.903915 -37.33844 11.091843
-32.976528 -36.975956 8.874529
-32.097927 -39.793953 7.000101
-30.316832 -53.533024 41.33992
-30.280542 -54.096565 39.200172
-30.347885 -51.804626 40.182812
-30.329823 -50.065395 39.161098
-30.275316 -48.068306 38.295181
-30.329931 -52.821808 43.505791
-28.596312 -54.951279 11.621951
-28.349817 -54.554131 9.242258
-29.100971 -48.363663 3.432726
-30.015837 -45.184879 3.124067
-29.932507 -55.676193 30.264874
-29.652269 -58.015366 28.983232
-29.835043 -55.613552 27.966753
-29.748341 -55.47213 25.809195
-29.598648 -55.657608 23.409246
-29.46841 -55.496616 21.106749
-29.883635 -52.993202 22.540712
-30.201477 -50.31797 21.73934
-30.559633 -47.643017 21.05372
-29.664007 -38.818283 39.543297
-29.665274 -35.538692 36.943779
-29.883945 -35.287708 34.9655
-31.073849 -24.502691 30.053064
-30.834949 -27.863527 30.327185
-31.338087 -27.67362 28.505127
-31.559782 -30.409834 26.971987
-31.728361 -33.061836 25.321177
-31.757275 -35.869675 23.760973
-32.188328 -32.63118 23.46032
-32.673912 -32.449375 21.348959
-33.130039 -32.09296 19.384472
-29.163788 -63.400738 37.445541
-29.046408 -63.994637 34.975864
-29.50528 -61.517818 36.147663
-29.714577 -59.804523 34.806263
-29.916178 -57.568901 33.64603
-30.226477 -54.57914 37.030453
-30.150579 -55.067974 34.952785
-30.057905 -55.281075 32.594154
-30.151346 -53.091888 31.587477
-30.239628 -50.648235 30.756084
-30.334015 -48.013992 29.931549
-29.736725 -58.10981 45.527504
-29.326223 -61.637291 42.292782
-29.251083 -62.645981 39.910995
-30.710302 -21.595123 31.752584
-31.323296 -21.13204 29.881159
-31.992298 -20.478748 28.037792
-32.68848 -19.647682 26.270332
-28.877802 -64.615341 32.615101
-28.756262 -64.766357 30.11334
-28.547903 -65.205307 27.664165
-29.299442 -60.460529 27.902658
-28.860239 -62.824394 26.460106
-28.362129 -65.268654 25.071623
-28.150269 -65.235474 22.545858
-27.851858 -62.656292 16.556379
-28.087679 -60.316784 15.503299
-28.429142 -57.756611 14.642009
-29.302137 -55.378773 18.76502
-29.085026 -55.301586 16.332142
-28.827875 -55.227039 13.889509
-29.333282 -52.429737 13.12332
-29.935953 -49.58049 12.663248
-30.588783 -46.69524 12.111073
-30.143206 -45.989388 42.939182
-30.145416 -45.847256 41.237717
-30.165064 -45.818546 39.348103
-30.182003 -45.60516 37.489235
-29.88401 -40.981415 38.230385
-30.078224 -43.18602 36.90226
-30.22035 -45.60955 35.570644
-30.274158 -45.449593 33.487556
-30.346823 -45.449844 31.409485
-30.441898 -45.438625 29.255987
-29.8722 -32.14727 34.566132
-30.141809 -34.53545 33.084301
-30.627699 -31.088079 30.71287
-30.470179 -34.114651 31.162432
-30.370674 -37.202377 31.58396
-30.514158 -39.822083 30.176548
-30.584259 -42.559952 28.684519
-30.563721 -45.215839 27.17293
-30.698893 -45.06546 25.03688
-30.845306 -44.892605 22.889452
-30.991978 -44.696461 20.723072
-31.673717 -38.829308 22.057241
-31.486727 -41.621368 20.2006
-31.10754 -44.571426 18.478754
-31.251373 -44.145069 16.241928
-31.271137 -44.085789 13.96193
-31.283676 -43.799919 11.731889
-32.300385 -10.070514 29.383553
-32.734581 -13.222408 27.632624
-33.055962 -16.268673 26.111597
-33.404144 -19.460886 24.329313
-34.155319 -18.428497 22.522778
-33.62463 -22.282011 22.766977
-33.797836 -25.277775 20.918295
-33.741425 -28.533949 19.220119
-33.581722 -31.609491 17.370806
-33.979107 -31.31171 15.137114
-33.265751 -34.721581 15.271471
-32.764774 -37.678776 13.28133
-32.063736 -40.670712 11.358313
-31.297733 -43.296104 9.458395
-31.21649 -42.962482 7.27678
-31.056915 -42.722347 5.16644
-30.931459 -42.103222 2.890738
-30.294806 -48.411096 43.045429
-30.311969 -48.828363 43.587492
-30.273473 -47.997219 43.853766
-28.538685 -66.236069 34.990338
-28.213621 -67.462387 34.378019
-28.277443 -67.146805 35.617621
-28.354858 -66.661445 36.897408
-28.408418 -66.25679 38.179266
-28.656067 -65.515831 37.511797
-28.277443 -67.146805 35.617621
-28.354858 -66.661445 36.897408
-31.763685 -12.301865 30.364013
-31.604539 -14.132077 30.455011
-27.771603 -58.746545 11.36474
-27.606915 -59.952287 11.794539
-27.961589 -58.779541 12.623003
-29.092315 -46.181535 -0.096317
-29.260889 -46.443026 1.096134
-29.55717 -44.630423 -0.231961
-29.092315 -46.181535 -0.096317
-29.715196 -40.250053 40.845662
-29.809376 -41.493395 41.091687
-29.703606 -40.437463 41.769543
-30.436222 -26.749374 32.06553
-30.21027 -27.178077 32.930844
-30.28781 -25.448304 32.819631
-34.512346 -9.630543 23.923114
-34.095659 -10.071369 24.869528
-33.42157 -35.275772 8.768755
-33.358744 -35.474558 9.876463
-32.980051 -36.792179 7.824995
-33.42157 -35.275772 8.768755
-30.346197 -52.095152 42.825451
-30.341757 -51.631449 43.741985
-30.358024 -50.904793 43.061645
-28.371749 -52.812528 6.537837
-28.501929 -53.00242 7.757748
-28.812704 -51.623795 7.447431
-28.181845 -52.731209 5.338543
-28.371749 -52.812528 6.537837
-28.519879 -51.2955 5.03938
-28.181845 -52.731209 5.338543
-28.080159 -68.034615 30.586194
-28.113121 -67.902985 31.85856
-28.284151 -67.064178 29.937641
-28.080159 -68.034615 30.586194
-29.638274 -34.083303 36.686434
-29.543371 -34.387981 37.662743
-29.747609 -33.957811 35.697294
-29.77461 -35.4132 35.954639
-29.638274 -34.083303 36.686434
-30.129614 -54.897312 45.579641
-30.211193 -53.696891 45.935958
-29.523879 -59.954771 43.91445
-29.53347 -59.363634 45.080639
-29.727135 -58.700947 44.361315
-29.521884 -60.464687 42.743954
-29.328218 -61.127375 43.463278
-29.523879 -59.954771 43.91445
-30.84441 -19.85689 31.62072
-30.561291 -20.263762 32.468186
-31.150907 -19.625349 30.685008
-31.016799 -21.363582 30.816871
-30.84441 -19.85689 31.62072
-27.20692 -63.777323 13.179142
-27.10933 -64.982406 13.73274
-27.398333 -63.848208 14.562039
-28.002417 -64.142735 19.565856
-28.123946 -64.219927 20.749001
-28.262746 -62.931883 20.26764
-27.875363 -64.021985 18.340513
-28.002417 -64.142735 19.565856
-27.996538 -62.755492 17.820438
-27.730683 -63.922785 17.076454
-27.875363 -64.021985 18.340513
-30.054901 -31.843505 33.549513
-29.905597 -30.637743 34.332627
-30.088299 -30.333978 33.316007
-32.683197 -9.669103 28.496359
-32.503452 -8.030728 29.257749
-32.900295 -11.24505 27.620894
-32.517483 -11.646461 28.508088
-32.683197 -9.669103 28.496359
-34.240265 -20.088408 21.635416
-34.505968 -18.311446 21.519174
-34.590914 -19.971356 20.631811
-33.760752 -32.83027 14.097765
-34.149161 -31.10761 14.032523
-33.930806 -32.62617 12.993174
-30.343443 -49.841666 43.378668
-30.311969 -48.828363 43.587492
-30.347883 -50.305369 42.462134
-30.358024 -50.904793 43.061645
-30.343443 -49.841666 43.378668
-28.171374 -67.726422 33.139046
-28.213621 -67.462387 34.378019
-28.41661 -66.728215 32.470251
-28.113121 -67.902985 31.85856
-28.171374 -67.726422 33.139046
-28.429994 -65.830788 39.410474
-28.752273 -64.6138 40.001371
-28.128785 -66.976403 38.796086
-28.429994 -65.830788 39.410474
-28.408418 -66.25679 38.179266
-31.44001 -16.040542 30.521237
-31.301244 -17.866893 30.588192
-31.788499 -15.706664 29.6213
-31.44001 -16.040542 30.521237
-31.604539 -14.132077 30.455011
-27.467622 -61.216265 12.269089
-27.317133 -62.545186 12.74691
-27.646413 -61.314204 13.530621
-27.467622 -61.216265 12.269089
-27.606915 -59.952287 11.794539
-30.148839 -28.803681 33.137932
-30.21027 -27.178077 32.930844
-30.298142 -30.009443 32.354819
-30.088299 -30.333978 33.316007
-30.148839 -28.803681 33.137932
-33.695591 -10.42654 25.802775
-33.282625 -10.834014 26.740757
-33.899309 -12.045165 24.939101
-33.695591 -10.42654 25.802775
-34.095659 -10.071369 24.869528
-34.664319 -21.466222 19.713677
-34.590914 -19.971356 20.631811
-34.69327 -23.099129 18.768671
-34.354163 -23.381225 19.803047
-34.664319 -21.466222 19.713677
-34.653623 -24.742081 17.893615
-34.69327 -23.099129 18.768671
-34.580192 -26.38629 16.993122
-34.309683 -26.658341 17.957547
-34.653623 -24.742081 17.893615
-33.641678 -34.160995 11.968406
-33.930806 -32.62617 12.993174
-33.322437 -35.6558 10.985119
-33.223156 -35.843635 12.075129
-33.641678 -34.160995 11.968406
-32.940221 -37.157198 9.983186
-33.322437 -35.6558 10.985119
-33.358744 -35.474558 9.876463
-32.540751 -38.201178 6.887782
-32.537228 -38.384954 7.937315
-32.980051 -36.792179 7.824995
-32.479957 -38.070717 5.836327
-32.037134 -39.663492 5.948646
-32.540751 -38.201178 6.887782
-30.271338 -53.050855 45.163138
-30.211193 -53.696891 45.935958
-30.323831 -52.345585 44.462561
-30.341757 -51.631449 43.741985
-30.277437 -53.527079 44.206367
-30.271338 -53.050855 45.163138
-30.323831 -52.345585 44.462561
-28.210512 -56.149481 10.761988
-27.975493 -57.460741 11.047614
-28.361294 -56.262539 11.907577
-28.087264 -55.950907 9.572141
-28.210512 -56.149481 10.761988
-28.473064 -54.752705 10.432104
-27.928043 -55.744196 8.335976
-28.087264 -55.950907 9.572141
-28.205396 -54.372642 8.045206
-28.646351 -53.183909 8.954801
-28.501929 -53.00242 7.757748
-27.928043 -55.744196 8.335976
-28.205396 -54.372642 8.045206
-28.889579 -49.856125 4.8139
-28.519879 -51.2955 5.03938
-29.052225 -49.994528 6.00204
-28.729102 -49.76038 3.641984
-28.889579 -49.856125 4.8139
-29.261448 -48.459408 4.604643
-28.564395 -49.545681 2.454642
-28.729102 -49.76038 3.641984
-28.97857 -48.113825 2.365719
-28.564395 -49.545681 2.454642
-29.436003 -46.524433 2.21139
-28.97857 -48.113825 2.365719
-29.558404 -46.774271 3.278397
-29.840723 -45.103471 2.008812
-29.260889 -46.443026 1.096134
-29.436003 -46.524433 2.21139
-29.557911 -37.736 40.185727
-29.636716 -39.006203 40.533408
-29.59416 -37.459601 39.229765
-29.557911 -37.736 40.185727
-29.645194 -37.24849 38.218588
-29.715041 -38.607172 38.53212
-29.59416 -37.459601 39.229765
-29.594794 -35.819805 37.930006
-29.543371 -34.387981 37.662743
-29.715674 -36.967377 37.232361
-29.645194 -37.24849 38.218588
-29.594794 -35.819805 37.930006
-30.035739 -56.10811 45.179823
-30.129614 -54.897312 45.579641
-30.131068 -55.443147 44.507126
-29.885505 -56.836043 45.889921
-30.035739 -56.10811 45.179823
-29.886959 -57.381878 44.817405
-29.722881 -57.493214 46.630623
-29.885505 -56.836043 45.889921
-29.522268 -58.738563 46.255899
-29.508424 -58.121967 47.359019
-29.722881 -57.493214 46.630623
-29.522268 -58.738563 46.255899
-29.53347 -59.363634 45.080639
-29.073639 -62.38368 42.854626
-29.328218 -61.127375 43.463278
-29.06057 -62.876858 41.750934
-29.073639 -62.38368 42.854626
-29.023001 -63.381203 40.560041
-29.06057 -62.876858 41.750934
-29.288653 -62.141636 41.101889
-28.980355 -63.878579 39.352325
-28.752273 -64.6138 40.001371
-29.023001 -63.381203 40.560041
-30.350423 -23.636518 32.741223
-30.28781 -25.448304 32.819631
-30.448693 -21.924279 32.640357
-30.561291 -20.263762 32.468186
-30.612032 -23.307361 31.853451
-30.350423 -23.636518 32.741223
-30.448693 -21.924279 32.640357
-31.473633 -19.373584 29.784343
-31.150907 -19.625349 30.685008
-31.301244 -17.866893 30.588192
-27.20692 -63.777323 13.179142
-27.317133 -62.545186 12.74691
-27.771603 -58.746545 11.36474
-27.975493 -57.460741 11.047614
-28.483103 -65.994968 29.399428
-28.284151 -67.064178 29.937641
-28.55731 -65.835567 30.651553
-28.378923 -66.214443 28.174841
-28.483103 -65.994968 29.399428
-28.652082 -64.985832 28.888753
-28.293287 -66.352898 26.938754
-28.378923 -66.214443 28.174841
-28.200399 -66.384571 25.642483
-28.293287 -66.352898 26.938754
-28.455016 -65.236981 26.367894
-28.100663 -66.50785 24.417467
-28.200399 -66.384571 25.642483
-27.994733 -66.49126 23.154584
-28.100663 -66.50785 24.417467
-28.256199 -65.252064 23.80874
-27.895303 -66.466701 21.902034
-27.994733 -66.49126 23.154584
-28.006943 -65.333126 21.296537
-28.267271 -64.122275 21.998321
-28.123946 -64.219927 20.749001
-27.895303 -66.466701 21.902034
-28.006943 -65.333126 21.296537
-27.576301 -63.854792 15.836008
-27.730683 -63.922785 17.076454
-27.673891 -62.649708 15.28241
-27.398333 -63.848208 14.562039
-27.576301 -63.854792 15.836008
-30.155743 -46.22275 43.692588
-30.199758 -46.78467 43.125443
-30.212295 -47.018032 43.878849
-30.076634 -45.221373 43.599697
-30.155743 -46.22275 43.692588
-30.089171 -45.454735 44.353104
-29.99487 -44.196392 43.420418
-30.061442 -44.964407 42.759903
-30.076634 -45.221373 43.599697
-29.898059 -43.043644 43.198069
-29.99487 -44.196392 43.420418
-29.807113 -41.914333 42.915541
-29.888731 -42.810115 42.298096
-29.898059 -43.043644 43.198069
-29.705466 -40.690427 42.708527
-29.807113 -41.914333 42.915541
-29.703606 -40.437463 41.769543
-29.705466 -40.690427 42.708527
-30.212295 -47.018032 43.878849
-30.273473 -47.997219 43.853766
-29.742487 -40.062134 39.855551
-29.715196 -40.250053 40.845662
-29.636716 -39.006203 40.533408
-29.744661 -30.769035 35.254218
-29.905597 -30.637743 34.332627
-29.741737 -32.387592 35.497611
-29.744661 -30.769035 35.254218
-29.878073 -33.717489 34.765816
-29.747609 -33.957811 35.697294
-29.741737 -32.387592 35.497611
-32.129897 -8.531633 30.134476
-32.332964 -6.491848 30.008672
-32.503452 -8.030728 29.257749
-31.937363 -10.438022 30.278253
-32.129897 -8.531633 30.134476
-32.126706 -11.934356 29.469313
-31.763685 -12.301865 30.364013
-31.937363 -10.438022 30.278253
-33.116911 -12.811372 26.752486
-32.900295 -11.24505 27.620894
-33.282625 -10.834014 26.740757
-34.675686 -11.349951 23.105331
-34.512346 -9.630543 23.923114
-34.888655 -9.290499 23.022592
-34.448896 -13.321414 23.181953
-34.675686 -11.349951 23.105331
-34.201622 -15.176521 23.361232
-34.052103 -13.545101 24.185132
-34.448896 -13.321414 23.181953
-34.376867 -16.690666 22.440416
-34.505968 -18.311446 21.519174
-33.980074 -16.914352 23.443594
-34.201622 -15.176521 23.361232
-34.376867 -16.690666 22.440416
-34.476524 -28.02675 15.973581
-34.580192 -26.38629 16.993122
-34.347952 -29.531331 15.013611
-34.149161 -31.10761 14.032523
-34.10768 -29.80713 16.097085
-34.476524 -28.02675 15.973581
-34.347952 -29.531331 15.013611
-32.437451 -37.904358 4.714322
-32.479957 -38.070717 5.836327
-31.899644 -39.305269 3.741125
-32.437451 -37.904358 4.714322
-32.360754 -37.676595 3.558257
-31.377203 -40.590364 2.737899
-31.4539 -40.818127 3.893965
-31.899644 -39.305269 3.741125
-30.799391 -41.917563 1.769486
-31.377203 -40.590364 2.737899
-30.166466 -43.376984 0.770895
-30.298534 -43.562643 1.892147
-30.799391 -41.917563 1.769486
-29.55717 -44.630423 -0.231961
-30.166466 -43.376984 0.770895
3 0 67 65
3 0 251 253
3 251 65 252
3 251 252 253
3 1 70 68
3 1 72 70
3 2 254 256
3 254 73 255
3 254 255 256
3 3 76 74
3 3 78 76
3 2 257 259
3 259 258 79
3 257 258 259
3 2 260 261
3 4 82 80
3 4 84 82
3 5 87 85
3 7 90 88
3 7 92 90
3 5 95 93
3 5 85 95
3 262 98 263
3 9 264 266
3 266 265 99
3 264 265 266
3 10 267 268
3 10 269 270
3 6 102 100
3 11 105 103
3 11 107 105
3 11 109 107
3 12 112 110
3 12 114 112
3 271 117 272
3 273 272 115
3 271 272 273
3 13 120 118
3 13 122 120
3 8 274 276
3 274 123 275
3 274 275 276
3 14 126 124
3 14 128 126
3 14 130 128
3 15 133 131
3 15 135 133
3 277 137 278
3 279 140 280
3 282 281 140
3 16 144 142
3 18 145 66
3 18 146 145
3 16 283 285
3 283 147 284
3 283 284 285
3 16 142 147
3 20 149 148
3 21 286 288
3 288 287 69
3 286 287 288
3 21 289 290
3 21 291 292
3 22 150 71
3 22 151 150
3 23 293 294
3 23 295 296
3 24 154 152
3 26 155 75
3 26 156 155
3 26 158 156
3 28 159 77
3 28 160 159
3 297 162 298
3 299 163 300
3 301 300 162
3 299 300 301
3 30 166 164
3 32 167 81
3 32 168 167
3 32 170 168
3 34 171 83
3 34 172 171
3 35 175 173
3 37 176 86
3 37 177 176
3 17 178 143
3 38 179 89
3 38 180 179
3 38 181 180
3 39 182 91
3 39 183 182
3 19 302 303
3 40 184 94
3 40 304 306
3 306 305 184
3 304 305 306
3 40 307 309
3 307 185 308
3 307 308 309
3 35 186 96
3 35 173 186
3 310 187 311
3 312 188 313
3 314 313 187
3 312 313 314
3 41 189 97
3 41 190 189
3 42 315 317
3 315 316 317
3 36 191 174
3 43 192 101
3 43 193 192
3 25 194 153
3 44 195 104
3 44 196 195
3 44 197 196
3 45 318 320
3 320 319 106
3 318 319 320
3 45 321 322
3 45 323 325
3 323 198 324
3 323 324 325
3 46 199 108
3 46 200 199
3 27 201 157
3 47 202 111
3 47 203 202
3 47 204 203
3 48 205 113
3 48 206 205
3 49 208 207
3 50 209 116
3 50 210 209
3 29 211 161
3 51 212 119
3 51 213 212
3 51 214 213
3 52 215 121
3 52 216 215
3 53 326 328
3 326 217 327
3 326 327 328
3 53 218 217
3 31 219 165
3 54 220 125
3 54 221 220
3 54 222 221
3 55 223 127
3 55 224 223
3 55 225 224
3 56 226 129
3 56 227 226
3 33 228 169
3 57 229 132
3 57 230 229
3 57 231 230
3 58 232 134
3 58 233 232
3 329 234 330
3 331 235 332
3 333 332 234
3 331 332 333
3 59 236 136
3 59 237 236
3 60 334 336
3 334 238 335
3 334 335 336
3 60 239 238
3 60 240 239
3 61 241 138
3 61 242 241
3 62 337 339
3 337 243 338
3 337 338 339
3 62 244 243
3 62 245 244
3 63 246 139
3 63 247 246
3 63 248 247
3 64 249 141
3 64 250 249
3 65 66 16
3 67 66 65
3 67 18 66
3 65 340 341
3 65 342 344
3 342 16 343
3 342 343 344
3 68 69 20
3 70 69 68
3 70 21 69
3 70 71 21
3 72 71 70
3 72 22 71
3 73 345 346
3 73 347 349
3 347 23 348
3 347 348 349
3 74 75 24
3 76 75 74
3 76 26 75
3 76 77 26
3 78 77 76
3 78 28 77
3 79 350 351
3 354 353 79
3 352 353 354
3 80 81 30
3 82 81 80
3 82 32 81
3 82 83 32
3 84 83 82
3 84 34 83
3 85 86 35
3 87 86 85
3 87 37 86
3 88 89 17
3 90 89 88
3 90 38 89
3 90 91 38
3 92 91 90
3 92 39 91
3 93 94 19
3 95 94 93
3 95 40 94
3 95 96 40
3 85 96 95
3 85 35 96
3 355 97 356
3 98 357 359
3 357 97 358
3 357 358 359
3 98 41 97
3 99 360 362
3 362 361 42
3 360 361 362
3 364 363 99
3 100 101 36
3 102 101 100
3 102 43 101
3 103 104 25
3 105 104 103
3 105 44 104
3 105 106 44
3 107 106 105
3 107 45 106
3 107 108 45
3 109 108 107
3 109 46 108
3 110 111 27
3 112 111 110
3 112 47 111
3 112 113 47
3 114 113 112
3 114 48 113
3 115 116 49
3 117 116 115
3 117 50 116
3 118 119 29
3 120 119 118
3 120 51 119
3 120 121 51
3 122 121 120
3 122 52 121
3 123 365 366
3 123 367 369
3 367 53 368
3 367 368 369
3 124 125 31
3 126 125 124
3 126 54 125
3 126 127 54
3 128 127 126
3 128 55 127
3 128 129 55
3 130 129 128
3 130 56 129
3 131 132 33
3 133 132 131
3 133 57 132
3 133 134 57
3 135 134 133
3 135 58 134
3 370 136 371
3 137 372 374
3 372 136 373
3 372 373 374
3 137 59 136
3 375 60 376
3 377 138 378
3 379 378 60
3 377 378 379
3 380 138 381
3 382 61 383
3 384 383 138
3 382 383 384
3 385 62 386
3 387 139 388
3 389 388 62
3 387 388 389
3 140 390 392
3 390 139 391
3 390 391 392
3 140 63 139
3 140 141 63
3 393 141 394
3 395 394 140
3 393 394 395
3 396 64 397
3 398 397 141
3 396 397 398
3 142 143 5
3 144 143 142
3 144 17 143
3 66 144 16
3 145 144 66
3 145 17 144
3 145 88 17
3 146 88 145
3 146 7 88
3 399 19 400
3 147 401 402
3 147 403 405
3 403 19 404
3 403 404 405
3 147 93 19
3 142 93 147
3 142 5 93
3 148 406 408
3 408 407 9
3 406 407 408
3 149 409 411
3 411 410 148
3 409 410 411
3 149 412 413
3 69 149 20
3 414 149 415
3 416 415 69
3 414 415 416
3 418 417 149
3 71 419 421
3 421 420 21
3 419 420 421
3 150 422 424
3 424 423 71
3 422 423 424
3 150 425 426
3 150 427 428
3 151 429 431
3 431 430 150
3 429 430 431
3 151 432 434
3 432 10 433
3 432 433 434
3 152 153 6
3 154 153 152
3 154 25 153
3 75 154 24
3 155 154 75
3 155 25 154
3 155 103 25
3 156 103 155
3 156 11 103
3 156 157 11
3 158 157 156
3 158 27 157
3 77 158 26
3 159 158 77
3 159 27 158
3 159 110 27
3 160 110 159
3 160 12 110
3 435 161 436
3 437 161 438
3 439 29 440
3 441 440 161
3 439 440 441
3 162 442 443
3 162 444 446
3 444 29 445
3 444 445 446
3 162 118 29
3 163 118 162
3 163 13 118
3 164 165 8
3 166 165 164
3 166 31 165
3 81 166 30
3 167 166 81
3 167 31 166
3 167 124 31
3 168 124 167
3 168 14 124
3 168 169 14
3 170 169 168
3 170 33 169
3 83 170 32
3 171 170 83
3 171 33 170
3 171 131 33
3 172 131 171
3 172 15 131
3 173 174 2
3 175 174 173
3 175 36 174
3 86 175 35
3 176 175 86
3 176 36 175
3 176 100 36
3 177 100 176
3 177 6 100
3 143 87 5
3 178 87 143
3 178 37 87
3 89 178 17
3 179 178 89
3 179 37 178
3 179 177 37
3 180 177 179
3 180 6 177
3 180 152 6
3 181 152 180
3 181 24 152
3 91 181 38
3 182 181 91
3 182 24 181
3 182 74 24
3 183 74 182
3 183 3 74
3 94 447 449
3 449 448 19
3 447 448 449
3 184 450 452
3 452 451 94
3 450 451 452
3 184 453 454
3 184 455 457
3 455 456 457
3 459 458 184
3 185 460 461
3 185 462 463
3 96 185 40
3 186 185 96
3 186 464 466
3 466 465 185
3 464 465 466
3 186 467 469
3 467 79 468
3 467 468 469
3 173 79 186
3 173 2 79
3 470 8 471
3 187 472 473
3 187 474 476
3 474 8 475
3 474 475 476
3 187 164 8
3 188 164 187
3 188 30 164
3 97 477 479
3 477 188 478
3 477 478 479
3 189 188 97
3 189 30 188
3 189 80 30
3 190 80 189
3 190 4 80
3 481 480 42
3 483 482 9
3 174 73 2
3 191 73 174
3 191 23 73
3 101 191 36
3 192 191 101
3 192 23 191
3 192 484 486
3 486 485 23
3 484 485 486
3 193 487 489
3 489 488 192
3 487 488 489
3 193 490 491
3 153 102 6
3 194 102 153
3 194 43 102
3 104 194 25
3 195 194 104
3 195 43 194
3 195 193 43
3 196 193 195
3 196 492 494
3 494 493 193
3 492 493 494
3 196 495 496
3 197 497 499
3 499 498 196
3 497 498 499
3 197 500 501
3 106 197 44
3 502 197 503
3 504 503 106
3 502 503 504
3 506 505 197
3 198 507 508
3 198 509 511
3 509 42 510
3 509 510 511
3 108 198 45
3 199 198 108
3 199 42 198
3 199 99 42
3 200 99 199
3 200 9 99
3 157 109 11
3 201 109 157
3 201 46 109
3 111 201 27
3 202 201 111
3 202 46 201
3 202 200 46
3 203 200 202
3 203 9 200
3 203 148 9
3 204 148 203
3 204 20 148
3 113 204 47
3 205 204 113
3 205 20 204
3 205 68 20
3 206 68 205
3 206 1 68
3 512 207 513
3 514 513 0
3 512 513 514
3 515 207 516
3 515 516 517
3 518 49 519
3 520 519 207
3 518 519 520
3 521 49 522
3 523 115 524
3 525 524 49
3 523 524 525
3 526 115 527
3 529 528 115
3 530 0 531
3 207 67 0
3 208 67 207
3 208 18 67
3 116 208 49
3 209 208 116
3 209 18 208
3 209 146 18
3 210 146 209
3 210 7 146
3 161 532 534
3 532 117 533
3 532 533 534
3 211 117 161
3 211 50 117
3 119 211 29
3 212 211 119
3 212 50 211
3 212 210 50
3 213 210 212
3 213 7 210
3 213 92 7
3 214 92 213
3 214 39 92
3 121 214 51
3 215 214 121
3 215 39 214
3 215 183 39
3 216 183 215
3 216 3 183
3 217 535 536
3 217 537 538
3 217 539 541
3 539 163 540
3 539 540 541
3 218 163 217
3 218 13 163
3 165 123 8
3 219 123 165
3 219 53 123
3 125 219 31
3 220 219 125
3 220 53 219
3 220 218 53
3 221 218 220
3 221 13 218
3 221 122 13
3 222 122 221
3 222 52 122
3 127 222 54
3 223 222 127
3 223 52 222
3 223 216 52
3 224 216 223
3 224 3 216
3 224 78 3
3 225 78 224
3 225 28 78
3 129 225 55
3 226 225 129
3 226 28 225
3 226 160 28
3 227 160 226
3 227 12 160
3 169 130 14
3 228 130 169
3 228 56 130
3 132 228 33
3 229 228 132
3 229 56 228
3 229 227 56
3 230 227 229
3 230 12 227
3 230 114 12
3 231 114 230
3 231 48 114
3 134 231 57
3 232 231 134
3 232 48 231
3 232 206 48
3 233 206 232
3 233 1 206
3 234 542 544
3 542 543 544
3 234 545 546
3 234 547 549
3 547 98 548
3 547 548 549
3 235 98 234
3 235 41 98
3 136 550 552
3 550 235 551
3 550 551 552
3 236 235 136
3 236 41 235
3 236 190 41
3 237 190 236
3 237 4 190
3 553 137 554
3 553 554 555
3 556 137 557
3 558 59 559
3 560 559 137
3 558 559 560
3 238 561 562
3 238 563 565
3 563 59 564
3 563 564 565
3 238 237 59
3 239 237 238
3 239 4 237
3 239 84 4
3 240 84 239
3 240 34 84
3 138 240 60
3 241 240 138
3 241 34 240
3 241 172 34
3 242 172 241
3 242 15 172
3 566 61 567
3 243 568 569
3 243 570 572
3 570 61 571
3 570 571 572
3 243 242 61
3 244 242 243
3 244 15 242
3 244 135 15
3 245 135 244
3 245 58 135
3 139 245 62
3 246 245 139
3 246 58 245
3 246 233 58
3 247 233 246
3 247 1 233
3 247 72 1
3 248 72 247
3 248 22 72
3 141 248 63
3 249 248 141
3 249 22 248
3 249 151 22
3 250 151 249
3 250 10 151
3 573 64 574
3 575 64 576
3 575 576 577
3 578 250 579
3 580 579 64
3 578 579 580
3 581 250 582
3 583 10 584
3 585 584 250
3 583 584 585
3 587 586 10
