ply
format ascii 1.0
element vertex 160
property float x
property float y
property float z
element face 146
property list uchar int vertex_index
end_header
-17.404055 80.443306 -5.76663
-13.478993 80.568687 3.90679
-18.380177 75.601257 -0.814751
-20.668051 70.224541 -0.83631
-19.976002 75.00563 -5.379596
-16.426048 75.67144 4.099341
-15.516346 80.815224 -0.942544
-9.794367 85.288223 3.641474
-12.149324 85.521606 -1.226156
-17.989077 78.022072 -3.317284
-19.238352 75.366272 -3.165451
-18.726467 77.9496 -5.747951
-15.464056 75.539444 6.372009
-15.016711 78.169014 4.021979
-16.053892 78.252274 1.573659
-14.510001 80.793091 1.438338
-10.224376 87.786148 -1.392698
-13.192331 85.623749 -3.823788
-21.406223 69.811111 -3.099631
-18.720509 73.087997 1.530401
-19.805124 70.604294 1.414076
-19.657835 72.836617 -0.902528
-20.440155 72.542633 -3.200483
-21.048994 72.20459 -5.339927
-16.827204 82.567375 -8.34859
-18.161274 80.177429 -8.173092
-16.836473 72.961288 6.344156
-17.711185 73.206223 4.005167
-17.461275 75.620483 1.661041
-17.055504 78.129333 -0.772265
-16.541508 80.628731 -3.382732
-11.649879 83.06958 3.745895
-9.048421 87.701782 1.001194
-10.918272 85.498833 1.289219
-12.778604 83.232353 1.328067
-13.879245 83.254913 -1.07785
-14.934045 83.131546 -3.455997
-15.906651 82.933846 -5.89324
-14.247852 79.368851 3.964384
-14.488457 78.023754 5.28767
-13.719597 79.223591 5.230076
-21.851005 68.457653 -3.221771
-21.650571 69.703361 -4.207787
-17.221259 82.32386 -9.566695
-16.435018 83.634487 -9.706508
-10.188447 83.935215 4.974479
-9.261177 85.002045 4.937993
-10.722123 84.178901 3.693684
-11.116204 82.825894 5.026689
-10.188447 83.935215 4.974479
-8.570229 88.931072 -0.374994
-8.072021 88.671379 1.014482
-14.598573 84.239422 -4.793273
-14.063188 84.377647 -3.639893
-13.727716 85.485523 -4.977168
-15.084876 84.140572 -6.011894
-15.420348 83.032696 -4.674618
-14.598573 84.239422 -4.793273
-15.562479 84.021694 -7.302834
-15.084876 84.140572 -6.011894
-20.799576 69.024643 0.142941
-20.368113 69.214519 1.268134
-20.236587 70.414417 0.288883
-18.825763 78.749222 -8.007013
-18.554293 79.770443 -9.231374
-14.712129 76.708969 6.462686
-14.907283 75.45913 7.588344
-15.240384 76.854229 5.196994
-14.712129 76.708969 6.462686
-14.488457 78.023754 5.28767
-8.865638 86.266323 3.646701
-9.261177 85.002045 4.937993
-9.75864 88.94228 -2.739409
-9.158207 88.973255 -1.57194
-10.757763 87.86689 -2.705868
-9.75864 88.94228 -2.739409
-11.720237 86.734619 -2.622597
-11.18685 86.653877 -1.309427
-10.757763 87.86689 -2.705868
-12.241741 86.785691 -3.921412
-12.670827 85.572677 -2.524972
-11.720237 86.734619 -2.622597
-12.784421 86.716843 -5.136439
-12.241741 86.785691 -3.921412
-13.727716 85.485523 -4.977168
-12.784421 86.716843 -5.136439
-21.521449 68.737797 -2.120992
-21.152363 68.944512 -0.989332
-21.037137 70.017826 -1.967971
-21.521449 68.737797 -2.120992
-21.851005 68.457653 -3.221771
-12.892796 80.499764 5.103772
-13.719597 79.223591 5.230076
-19.262816 71.846146 1.472239
-19.365973 70.604431 2.62718
-18.823666 71.846283 2.685342
-21.471957 70.900101 -5.327935
-21.650571 69.703361 -4.207787
-21.227609 71.00785 -4.219779
-17.888294 81.128887 -9.478946
-17.494239 81.372402 -8.260841
-17.221259 82.32386 -9.566695
-18.554293 79.770443 -9.231374
-17.888294 81.128887 -9.478946
-15.627543 74.249668 7.495602
-14.907283 75.45913 7.588344
-16.313752 72.96059 7.481675
-15.627543 74.249668 7.495602
-16.150264 74.250366 6.358083
-16.936349 71.709152 7.457221
-16.313752 72.96059 7.481675
-17.46528 71.685722 6.248179
-16.936349 71.709152 7.457221
-17.902636 71.808189 5.078684
-17.46528 71.685722 6.248179
-17.273829 73.083755 5.174662
-18.319004 71.905395 3.922726
-17.902636 71.808189 5.078684
-18.215847 73.14711 2.767784
-18.823666 71.846283 2.685342
-18.319004 71.905395 3.922726
-11.97824 81.75021 5.023325
-11.116204 82.825894 5.026689
-12.564436 81.819133 3.826342
-12.892796 80.499764 5.103772
-11.97824 81.75021 5.023325
-8.492665 87.473102 2.326561
-8.072021 88.671379 1.014482
-9.421394 86.495002 2.321334
-8.865638 86.266323 3.646701
-8.492665 87.473102 2.326561
-9.636398 87.743965 -0.195752
-8.570229 88.931072 -0.374994
-9.158207 88.973255 -1.57194
-16.022755 83.838459 -8.53051
-16.366927 82.75061 -7.120915
-15.562479 84.021694 -7.302834
-16.435018 83.634487 -9.706508
-16.022755 83.838459 -8.53051
-19.924812 69.325672 2.469259
-19.365973 70.604431 2.62718
-19.924812 69.325672 2.469259
-20.368113 69.214519 1.268134
-20.799576 69.024643 0.142941
-21.152363 68.944512 -0.989332
-19.108359 77.635307 -6.794442
-18.44387 79.063514 -6.960522
-18.825763 78.749222 -8.007013
-19.733127 76.163322 -6.610265
-19.351235 76.477615 -5.563773
-19.108359 77.635307 -6.794442
-20.266222 74.818557 -6.508712
-19.733127 76.163322 -6.610265
-20.802718 73.418037 -6.488878
-20.512498 73.60511 -5.359762
-20.266222 74.818557 -6.508712
-21.294754 71.925762 -6.403288
-20.802718 73.418037 -6.488878
-21.471957 70.900101 -5.327935
-21.294754 71.925762 -6.403288
3 0 11 9
3 1 38 40
3 38 13 39
3 38 39 40
3 1 15 13
3 42 41 18
3 2 21 19
3 4 22 10
3 4 23 22
3 44 43 24
3 5 26 12
3 5 27 26
3 5 28 27
3 6 29 14
3 6 30 29
3 7 45 46
3 7 47 49
3 47 31 48
3 47 48 49
3 50 32 51
3 8 33 16
3 8 34 33
3 8 35 34
3 52 36 53
3 54 53 17
3 52 53 54
3 55 37 56
3 57 56 36
3 55 56 57
3 59 58 37
3 3 60 62
3 62 61 20
3 60 61 62
3 64 63 25
3 9 10 2
3 11 10 9
3 11 4 10
3 65 12 66
3 13 67 69
3 67 12 68
3 67 68 69
3 13 5 12
3 13 14 5
3 15 14 13
3 15 6 14
3 70 7 71
3 72 16 73
3 74 16 75
3 76 8 77
3 78 77 16
3 76 77 78
3 79 17 80
3 81 80 8
3 79 80 81
3 82 17 83
3 85 84 17
3 18 86 88
3 88 87 3
3 86 87 88
3 90 89 18
3 91 1 92
3 19 93 95
3 93 20 94
3 93 94 95
3 21 20 19
3 21 3 20
3 10 21 2
3 22 21 10
3 22 3 21
3 22 18 3
3 23 18 22
3 23 96 98
3 98 97 18
3 96 97 98
3 24 25 0
3 99 25 100
3 101 100 24
3 99 100 101
3 103 102 25
3 12 104 105
3 26 106 108
3 108 107 12
3 106 107 108
3 26 109 110
3 26 111 112
3 27 113 115
3 115 114 26
3 113 114 115
3 27 116 117
3 27 118 120
3 118 19 119
3 118 119 120
3 28 19 27
3 28 2 19
3 14 28 5
3 29 28 14
3 29 2 28
3 29 9 2
3 30 9 29
3 30 0 9
3 31 121 122
3 31 123 125
3 123 1 124
3 123 124 125
3 32 126 127
3 32 128 130
3 128 7 129
3 128 129 130
3 16 131 133
3 131 32 132
3 131 132 133
3 33 32 16
3 33 7 32
3 33 31 7
3 34 31 33
3 34 1 31
3 34 15 1
3 35 15 34
3 35 6 15
3 17 35 8
3 36 35 17
3 36 6 35
3 36 30 6
3 37 30 36
3 37 0 30
3 37 24 0
3 134 24 135
3 136 135 37
3 134 135 136
3 138 137 24
3 20 139 140
3 142 141 20
3 144 143 3
3 25 11 0
3 145 11 146
3 147 146 25
3 145 146 147
3 148 4 149
3 150 149 11
3 148 149 150
3 151 4 152
3 153 23 154
3 155 154 4
3 153 154 155
3 156 23 157
3 159 158 23
