ply
format ascii 1.0
element vertex 107
property float x
property float y
property float z
element face 89
property list uchar int vertex_index
end_header
38.699265 -11.912525 -22.589125
38.590031 -18.491417 -14.244009
38.979164 -16.440439 -21.809299
37.741196 -7.587218 -22.998518
38.600147 -15.393791 -18.451145
38.283955 -9.759882 -22.708874
38.767132 -9.963393 -24.696024
38.205067 -15.031516 -16.570059
38.588722 -16.931231 -16.467796
38.80941 -17.551416 -18.067526
38.781326 -19.13043 -15.930923
38.922375 -14.132987 -22.313416
38.994064 -12.331867 -24.251995
39.07917 -14.664902 -23.881716
37.652149 -9.509863 -20.831108
38.23177 -11.478628 -20.787504
38.197777 -13.28347 -18.66684
38.628239 -13.674539 -20.47822
38.853249 -15.77449 -20.255489
38.897976 -18.032892 -19.79837
38.589377 -17.711324 -15.355902
38.405475 -16.733919 -15.520414
38.40613 -17.514012 -14.40852
37.788843 -6.717472 -23.958533
37.369985 -6.667478 -22.949894
39.053694 -11.439104 -25.320648
39.097488 -12.634749 -25.106947
37.632208 -10.409584 -19.807875
37.264465 -9.49616 -19.8275
37.922019 -11.393966 -19.786072
37.941959 -10.494245 -20.809306
37.632208 -10.409584 -19.807875
38.869056 -18.781802 -18.802412
38.853693 -17.792154 -18.932948
38.824773 -18.541064 -17.93699
38.837656 -19.210634 -19.590774
38.869056 -18.781802 -18.802412
38.997301 -16.75477 -22.625567
38.939056 -17.533597 -21.609446
38.338982 -8.855341 -23.758502
38.067602 -7.76901 -23.903324
38.012575 -8.67355 -22.853696
38.58057 -8.957097 -24.752077
38.338982 -8.855341 -23.758502
38.525543 -9.861638 -23.702449
38.817789 -9.081452 -25.683028
38.58057 -8.957097 -24.752077
38.213648 -15.784062 -15.571545
37.925007 -14.855674 -15.628633
38.396895 -15.981374 -16.518928
38.213648 -15.784062 -15.571545
38.405475 -16.733919 -15.520414
38.810732 -19.330571 -16.868688
38.824773 -18.541064 -17.93699
38.795368 -18.340923 -16.999225
39.140041 -13.801267 -24.921807
39.097488 -12.634749 -25.106947
39.036617 -13.498385 -24.066856
39.047304 -15.867002 -23.661776
39.029167 -15.552671 -22.845508
38.997301 -16.75477 -22.625567
39.115734 -15.058428 -24.637985
39.047304 -15.867002 -23.661776
39.140041 -13.801267 -24.921807
39.115734 -15.058428 -24.637985
38.418618 -18.285064 -13.230125
38.40613 -17.514012 -14.40852
37.788843 -6.717472 -23.958533
38.067602 -7.76901 -23.903324
38.940227 -10.254867 -25.542662
38.880598 -11.14763 -24.47401
39.053694 -11.439104 -25.320648
38.817789 -9.081452 -25.683028
38.940227 -10.254867 -25.542662
37.346985 -7.619597 -21.958827
37.369985 -6.667478 -22.949894
37.302461 -8.58092 -20.875122
37.264465 -9.49616 -19.8275
37.696673 -8.54854 -21.914813
37.346985 -7.619597 -21.958827
37.302461 -8.58092 -20.875122
37.934977 -14.094233 -16.669731
37.925007 -14.855674 -15.628633
37.931331 -13.220209 -17.718122
37.934977 -14.094233 -16.669731
38.201422 -14.157493 -17.61845
37.905022 -12.296387 -18.725741
37.931331 -13.220209 -17.718122
38.214773 -12.381049 -19.727172
37.922019 -11.393966 -19.786072
37.905022 -12.296387 -18.725741
38.898463 -18.329823 -20.603982
38.939056 -17.533597 -21.609446
38.93857 -17.236666 -20.803835
38.898463 -18.329823 -20.603982
38.837656 -19.210634 -19.590774
38.60566 -19.245573 -13.078714
38.418618 -18.285064 -13.230125
38.682055 -19.53736 -13.999252
38.60566 -19.245573 -13.078714
38.777702 -19.856867 -14.842709
38.685679 -18.810924 -15.087466
38.682055 -19.53736 -13.999252
38.786361 -20.181368 -15.741035
38.777702 -19.856867 -14.842709
38.810732 -19.330571 -16.868688
38.786361 -20.181368 -15.741035
3 0 6 5
3 1 20 22
3 20 8 21
3 20 21 22
3 1 10 8
3 2 13 11
3 3 23 24
3 26 25 12
3 27 14 28
3 29 15 30
3 31 30 14
3 29 30 31
3 4 16 7
3 4 17 16
3 4 18 17
3 32 19 33
3 34 33 9
3 32 33 34
3 36 35 19
3 38 37 2
3 5 39 41
3 41 40 3
3 39 40 41
3 6 42 44
3 44 43 5
3 42 43 44
3 6 45 46
3 47 7 48
3 8 49 51
3 49 7 50
3 49 50 51
3 8 4 7
3 8 9 4
3 10 9 8
3 10 52 54
3 54 53 9
3 52 53 54
3 11 12 0
3 13 12 11
3 13 55 57
3 57 56 12
3 55 56 57
3 58 13 59
3 60 59 2
3 58 59 60
3 61 13 62
3 64 63 13
3 65 1 66
3 68 67 3
3 12 6 0
3 69 6 70
3 71 70 12
3 69 70 71
3 73 72 6
3 74 3 75
3 14 76 77
3 14 78 80
3 78 3 79
3 78 79 80
3 14 5 3
3 15 5 14
3 15 0 5
3 7 81 82
3 16 83 85
3 85 84 7
3 83 84 85
3 16 86 87
3 16 88 90
3 88 15 89
3 88 89 90
3 17 15 16
3 17 0 15
3 17 11 0
3 18 11 17
3 18 2 11
3 9 18 4
3 19 18 9
3 19 2 18
3 19 91 93
3 93 92 2
3 91 92 93
3 95 94 19
3 96 1 97
3 98 1 99
3 100 10 101
3 102 101 1
3 100 101 102
3 103 10 104
3 106 105 10
