ply
format ascii 1.0
element vertex 95
property float x
property float y
property float z
element face 79
property list uchar int vertex_index
end_header
5.534077 -38.742508 48.015987
4.541667 -35.765102 51.002163
6.994066 -35.30447 47.384754
7.770079 -38.428646 44.868626
4.027141 -34.206413 52.614204
5.342753 -34.058594 50.624363
6.240627 -36.959934 47.715675
7.351031 -36.920483 46.075893
6.609311 -38.575558 46.450218
7.110023 -40.015366 45.197159
5.021417 -37.222099 49.511929
4.440931 -39.14299 49.568592
3.84332 -37.700264 51.174206
7.819086 -33.591782 47.085983
6.661859 -33.725498 48.746414
5.821226 -35.485813 49.105503
8.111146 -35.203182 45.81583
8.480861 -36.774277 44.593193
3.332497 -34.488995 53.536413
3.760853 -33.489908 53.379943
3.760853 -33.489908 53.379943
4.469918 -33.308048 52.403851
5.260476 -39.685386 48.065208
5.775807 -39.492695 47.352787
5.775807 -39.492695 47.352787
6.313424 -39.40922 46.569902
6.071694 -38.659033 47.233103
6.46105 -32.967522 49.491585
7.081167 -32.85614 48.617794
4.149757 -40.08641 49.636547
3.828047 -39.400022 50.427262
8.312575 -38.374834 44.199547
8.667966 -37.547649 44.06183
8.12547 -37.601461 44.730909
7.93429 -39.219475 44.38319
8.312575 -38.374834 44.199547
7.316314 -40.773447 44.684697
6.852937 -40.772801 45.307761
3.682107 -35.226166 52.645718
3.93937 -36.00551 51.839697
4.284404 -34.985757 51.808183
3.682107 -35.226166 52.645718
3.332497 -34.488995 53.536413
5.127724 -33.234139 51.40893
5.801497 -33.134069 50.430559
4.684947 -34.132503 51.619284
5.127724 -33.234139 51.40893
4.469918 -33.308048 52.403851
6.563781 -40.129124 45.943373
6.859667 -39.295462 45.823689
6.313424 -39.40922 46.569902
6.852937 -40.772801 45.307761
6.563781 -40.129124 45.943373
3.529241 -38.678659 51.230069
3.828047 -39.400022 50.427262
4.142125 -38.421627 50.371399
3.590197 -36.973091 51.925719
4.192494 -36.732683 51.088184
3.93937 -36.00551 51.839697
3.219426 -37.954736 52.042398
3.590197 -36.973091 51.925719
3.529241 -38.678659 51.230069
3.219426 -37.954736 52.042398
7.659781 -32.789282 47.787578
8.285508 -32.649659 46.96734
7.240473 -33.65864 47.916199
7.659781 -32.789282 47.787578
7.081167 -32.85614 48.617794
6.002306 -33.892046 49.685389
6.46105 -32.967522 49.491585
5.801497 -33.134069 50.430559
4.713902 -39.885627 48.84151
5.260476 -39.685386 48.065208
4.987504 -38.942749 48.79229
4.713902 -39.885627 48.84151
4.149757 -40.08641 49.636547
8.430402 -33.527302 46.269216
8.285508 -32.649659 46.96734
8.576432 -34.333002 45.63414
8.430402 -33.527302 46.269216
7.965116 -34.397482 46.450907
8.71819 -35.148663 45.041767
8.576432 -34.333002 45.63414
8.903048 -35.93421 44.430448
8.71819 -35.148663 45.041767
8.296004 -35.988729 45.204511
9.084105 -36.704742 43.886738
8.903048 -35.93421 44.430448
9.084105 -36.704742 43.886738
8.667966 -37.547649 44.06183
7.604262 -40.012834 44.547457
7.93429 -39.219475 44.38319
7.440051 -39.222006 45.032893
7.604262 -40.012834 44.547457
7.316314 -40.773447 44.684697
3 19 18 4
3 20 4 21
3 0 22 23
3 0 8 6
3 0 24 26
3 26 25 8
3 24 25 26
3 1 12 10
3 27 14 28
3 1 15 5
3 1 10 15
3 30 29 11
3 2 16 13
3 3 17 7
3 3 31 33
3 33 32 17
3 31 32 33
3 3 34 35
3 37 36 9
3 4 38 40
3 40 39 1
3 38 39 40
3 42 41 4
3 43 5 44
3 4 45 47
3 45 5 46
3 45 46 47
3 4 1 5
3 6 7 2
3 8 7 6
3 8 3 7
3 8 9 3
3 48 9 49
3 50 49 8
3 48 49 50
3 52 51 9
3 10 11 0
3 12 11 10
3 12 53 55
3 55 54 11
3 53 54 55
3 56 12 57
3 58 57 1
3 56 57 58
3 59 12 60
3 62 61 12
3 63 13 64
3 14 65 67
3 65 13 66
3 65 66 67
3 14 2 13
3 5 68 70
3 68 14 69
3 68 69 70
3 15 14 5
3 15 2 14
3 15 6 2
3 10 6 15
3 10 0 6
3 11 71 73
3 73 72 0
3 71 72 73
3 75 74 11
3 13 76 77
3 16 78 80
3 80 79 13
3 78 79 80
3 16 81 82
3 7 16 2
3 17 16 7
3 17 83 85
3 85 84 16
3 83 84 85
3 17 86 87
3 89 88 17
3 9 90 92
3 92 91 3
3 90 91 92
3 94 93 9
