ply
format ascii 1.0
element vertex 306
property float x
property float y
property float z
element face 322
property list uchar int vertex_index
end_header
28.26264 27.20348 -59.803776
21.461481 32.598507 -57.033588
20.862814 30.432262 -66.592545
27.592367 22.52809 -67.409126
27.139935 26.753401 -49.446556
33.257011 20.920465 -50.398163
24.819929 30.307535 -58.82198
21.27195 32.068111 -62.404282
24.841261 29.23443 -63.631645
24.309872 26.913759 -67.612785
28.169298 25.463573 -64.078575
32.081856 20.481802 -45.632496
18.174948 34.692867 -54.702488
17.871748 34.290966 -60.122261
17.311832 32.951874 -64.818291
26.940033 18.080448 -69.445061
24.444733 30.107424 -53.467571
28.016815 27.499903 -54.807323
30.309902 24.260178 -50.319519
31.108263 24.364326 -55.254452
31.532309 23.085693 -59.599281
31.221857 20.666122 -63.584019
30.748594 16.637402 -66.169365
26.644581 28.814739 -59.327736
24.930401 29.908401 -61.259338
26.590982 28.381725 -61.695366
26.612595 27.476673 -63.82317
28.368721 26.414793 -61.979412
19.77137 33.657955 -55.924847
17.993196 34.640892 -57.482471
19.690882 33.605919 -58.493752
21.069075 31.384092 -64.652138
19.264261 32.647991 -63.756256
18.905462 31.819551 -65.875343
16.874022 31.852654 -66.924843
18.68676 30.612694 -67.796036
20.444698 29.082575 -68.550247
26.055609 24.890894 -67.530785
23.965036 25.253073 -69.149048
25.630735 23.021351 -69.017525
27.287302 20.44384 -68.595917
25.335667 27.941116 -48.726913
24.018782 29.699642 -50.655056
25.779295 28.540768 -51.40139
26.261774 28.852722 -54.177841
27.499695 27.381243 -52.20269
32.711151 20.826969 -47.965885
31.26717 22.414845 -47.969303
31.887993 22.646435 -50.486523
30.810888 24.408564 -52.798141
32.320835 22.635763 -52.855694
32.836929 21.714661 -57.268963
32.935894 20.669828 -59.417801
31.485939 21.974819 -61.701477
32.871983 19.360552 -61.306713
32.385315 15.853809 -64.266541
30.389215 14.340158 -66.98735
23.022448 31.584591 -58.010227
21.33886 32.537861 -59.713516
23.084446 31.337952 -60.619652
23.088844 30.774553 -63.002312
22.898943 29.957058 -65.220886
22.481474 28.788553 -67.371223
24.589342 28.294838 -65.711327
26.314247 26.347883 -65.898613
28.029886 24.004044 -65.861229
16.555622 35.835896 -53.410309
16.494011 35.626175 -56.203762
16.235331 35.303505 -58.841282
15.954402 34.798359 -61.178581
19.550989 33.254902 -61.233509
17.565735 33.771809 -62.558285
15.705811 33.961227 -63.605129
15.318619 32.929985 -65.763153
22.206472 27.277985 -69.023392
21.82028 25.535286 -70.382034
19.604113 33.615543 -53.083702
21.304331 32.533337 -54.34753
22.71752 31.211882 -52.552174
23.000557 31.443354 -55.191277
24.69289 30.338682 -56.196888
26.424349 29.062464 -56.939674
28.154449 27.557304 -57.399586
29.767454 23.754198 -47.734127
28.678703 25.59798 -49.838909
29.119646 26.027224 -52.463493
29.58095 26.042662 -55.046715
29.719604 25.937794 -57.551781
33.71003 20.643906 -52.675484
32.585804 22.397745 -55.141075
31.236412 24.066765 -57.584816
29.937199 25.286951 -59.772915
29.993853 24.360083 -61.82251
29.803097 23.275856 -63.741028
29.585808 21.555431 -65.528748
32.737717 17.741945 -62.833057
31.150503 18.72913 -64.895729
29.29332 19.730604 -66.832802
28.962889 17.553076 -67.833138
28.411558 15.165916 -68.65892
33.607446 19.289105 -59.191217
33.573332 19.928157 -58.222282
33.575491 18.634466 -60.135673
32.903938 20.01519 -60.362257
33.607446 19.289105 -59.191217
15.807582 31.792462 -67.250534
16.673513 31.186595 -67.810761
22.717489 24.373129 -70.382683
22.892658 25.394179 -69.765541
23.789867 24.232022 -69.766189
21.632829 24.497011 -70.908562
22.717489 24.373129 -70.382683
25.803956 18.356214 -70.149818
26.097595 19.454176 -69.759632
26.631007 16.922868 -69.774891
25.803956 18.356214 -70.149818
20.354824 32.932461 -52.360897
19.562237 33.447313 -51.683478
21.204934 32.391357 -52.992811
20.454222 33.07444 -53.715616
20.354824 32.932461 -52.360897
31.338218 21.151743 -45.507809
31.678259 20.105777 -44.256804
33.88695 20.331713 -53.779325
34.347434 19.542057 -52.580635
33.324837 21.208633 -55.012121
33.147917 21.520826 -53.908279
33.88695 20.331713 -53.779325
33.356135 16.240682 -62.442019
33.478117 17.074889 -61.703226
29.090143 13.58922 -68.177993
29.400386 14.753037 -67.823135
30.078972 13.176341 -67.342208
28.172752 13.757979 -68.869846
29.090143 13.58922 -68.177993
17.579881 30.566615 -68.246357
16.673513 31.186595 -67.810761
17.780391 31.232674 -67.360439
18.459401 29.898469 -68.64127
17.579881 30.566615 -68.246357
19.33837 29.133409 -69.018375
18.459401 29.898469 -68.64127
19.565729 29.847634 -68.173141
20.223478 28.320142 -69.304794
19.33837 29.133409 -69.018375
24.622716 23.116162 -69.700428
23.789867 24.232022 -69.766189
24.797885 24.137212 -69.083286
25.442946 21.924627 -69.545864
24.622716 23.116162 -69.700428
26.27123 20.635872 -69.33506
25.442946 21.924627 -69.545864
26.459018 21.732596 -68.806721
27.113667 19.262144 -69.020489
26.097595 19.454176 -69.759632
26.27123 20.635872 -69.33506
24.677225 28.820379 -49.690984
23.777166 29.405716 -49.296089
24.435608 28.526453 -48.332018
33.523849 20.450574 -57.147863
33.450399 20.86709 -56.076065
32.886411 21.192245 -58.343382
33.523849 20.450574 -57.147863
33.573332 19.928157 -58.222282
33.033406 14.194973 -63.753415
33.179934 15.296614 -63.15876
32.222645 14.726575 -64.760197
33.033406 14.194973 -63.753415
31.404285 15.118372 -65.711609
31.566955 16.245605 -65.217953
32.222645 14.726575 -64.760197
31.224595 13.96975 -66.120602
30.568905 15.48878 -66.578358
31.404285 15.118372 -65.711609
31.007779 12.677179 -66.488007
31.224595 13.96975 -66.120602
30.078972 13.176341 -67.342208
31.007779 12.677179 -66.488007
25.027123 27.578573 -47.374748
24.435608 28.526453 -48.332018
24.127063 28.16391 -46.979852
25.866093 27.030271 -47.691759
25.027123 27.578573 -47.374748
26.768227 26.436413 -48.051581
26.237801 27.347259 -49.086735
25.866093 27.030271 -47.691759
32.380745 19.456626 -44.3517
31.678259 20.105777 -44.256804
31.977148 19.080601 -42.976007
32.783873 19.612552 -45.497518
32.380745 19.456626 -44.3517
33.09852 19.785136 -46.664213
32.396504 20.654385 -46.799191
32.783873 19.612552 -45.497518
33.407882 19.903977 -47.902448
33.09852 19.785136 -46.664213
33.680813 19.950726 -49.118587
32.984081 20.873717 -49.182024
33.407882 19.903977 -47.902448
15.796138 36.280491 -54.002203
15.856324 36.409878 -52.711529
15.765332 36.17563 -55.398929
15.796138 36.280491 -54.002203
16.524817 35.731036 -54.807035
15.598657 35.984829 -56.767818
15.765332 36.17563 -55.398929
15.469317 35.823494 -58.086579
15.598657 35.984829 -56.767818
16.364671 35.46484 -57.522522
15.304873 35.534759 -59.326454
15.469317 35.823494 -58.086579
15.164409 35.282186 -60.495103
15.304873 35.534759 -59.326454
16.094866 35.050932 -60.009932
15.057229 34.87179 -61.66744
15.164409 35.282186 -60.495103
14.932933 34.453224 -62.880714
15.057229 34.87179 -61.66744
15.830106 34.379793 -62.391855
14.670876 33.967567 -63.966573
14.932933 34.453224 -62.880714
14.47728 33.451946 -65.045586
14.670876 33.967567 -63.966573
15.512215 33.445606 -64.684141
14.244397 32.80604 -66.068585
14.47728 33.451946 -65.045586
15.029881 32.331128 -66.669689
16.096321 32.39132 -66.343998
15.807582 31.792462 -67.250534
14.244397 32.80604 -66.068585
15.029881 32.331128 -66.669689
21.104365 27.417847 -69.541367
20.223478 28.320142 -69.304794
21.325585 28.18028 -68.78682
20.911269 26.546498 -70.220687
21.104365 27.417847 -69.541367
22.013376 26.406636 -69.702713
20.74913 25.520793 -70.862614
20.911269 26.546498 -70.220687
20.74913 25.520793 -70.862614
21.632829 24.497011 -70.908562
16.575405 35.839958 -52.011291
15.856324 36.409878 -52.711529
17.302889 35.269464 -52.725494
16.575405 35.839958 -52.011291
18.112552 34.69795 -53.371584
17.365285 35.264381 -54.056399
17.302889 35.269464 -52.725494
18.827134 34.159288 -52.562191
19.562237 33.447313 -51.683478
18.88953 34.154205 -53.893095
18.112552 34.69795 -53.371584
18.827134 34.159288 -52.562191
23.229739 30.213773 -50.266072
23.777166 29.405716 -49.296089
22.579107 30.969893 -51.21463
23.229739 30.213773 -50.266072
23.368151 30.455762 -51.603615
21.911528 31.73063 -52.095133
22.579107 30.969893 -51.21463
22.010925 31.87261 -53.449852
21.204934 32.391357 -52.992811
21.911528 31.73063 -52.095133
27.608518 25.838819 -48.263193
26.768227 26.436413 -48.051581
30.930875 22.118265 -46.676212
31.338218 21.151743 -45.507809
31.674513 21.448324 -46.800899
30.181017 22.787941 -46.558624
30.930875 22.118265 -46.676212
30.517312 23.084522 -47.851715
29.379568 23.396708 -46.362623
30.181017 22.787941 -46.558624
28.922277 24.339217 -47.406979
29.379568 23.396708 -46.362623
28.377902 25.261108 -48.45937
28.922277 24.339217 -47.406979
29.223078 24.676089 -48.786518
27.909319 26.175691 -49.642733
27.608518 25.838819 -48.263193
28.377902 25.261108 -48.45937
33.932755 19.886682 -50.243498
33.680813 19.950726 -49.118587
34.159264 19.748402 -51.382159
34.796667 18.646553 -51.287309
34.347434 19.542057 -52.580635
33.48352 20.782186 -51.536823
33.932755 19.886682 -50.243498
34.159264 19.748402 -51.382159
32.711366 22.056203 -56.205019
33.324837 21.208633 -55.012121
33.450399 20.86709 -56.076065
33.54525 17.884192 -60.940054
33.575491 18.634466 -60.135673
32.80485 18.551248 -62.069885
33.54525 17.884192 -60.940054
33.478117 17.074889 -61.703226
32.561516 16.797877 -63.549799
33.356135 16.240682 -62.442019
33.179934 15.296614 -63.15876
27.36677 15.465602 -69.381821
26.631007 16.922868 -69.774891
27.675795 16.623182 -69.05199
27.127963 14.057665 -69.592747
27.36677 15.465602 -69.381821
28.172752 13.757979 -68.869846
3 0 25 23
3 0 27 25
3 1 30 28
3 2 33 31
3 2 35 33
3 2 36 35
3 3 39 37
3 3 40 39
3 4 43 41
3 4 45 43
3 5 48 46
3 5 50 48
3 100 52 101
3 102 54 103
3 104 103 52
3 102 103 104
3 6 59 57
3 8 60 24
3 8 61 60
3 8 63 61
3 10 64 26
3 10 65 64
3 12 67 66
3 13 68 29
3 13 69 68
3 7 70 58
3 14 71 32
3 14 72 71
3 14 73 72
3 106 105 34
3 9 74 62
3 107 75 108
3 109 108 38
3 107 108 109
3 111 110 75
3 15 112 113
3 15 114 115
3 116 76 117
3 118 77 119
3 120 119 76
3 118 119 120
3 16 78 42
3 16 79 78
3 16 80 79
3 17 81 44
3 17 82 81
3 11 121 122
3 18 83 47
3 18 84 83
3 18 85 84
3 19 86 49
3 19 87 86
3 123 88 124
3 125 89 126
3 127 126 88
3 125 126 127
3 20 90 51
3 20 91 90
3 20 92 91
3 21 93 53
3 21 94 93
3 128 95 129
3 22 96 55
3 22 97 96
3 22 98 97
3 130 99 131
3 132 131 56
3 130 131 132
3 134 133 99
3 23 24 6
3 25 24 23
3 25 8 24
3 25 26 8
3 27 26 25
3 27 10 26
3 28 29 12
3 30 29 28
3 30 13 29
3 31 32 7
3 33 32 31
3 33 14 32
3 33 34 14
3 35 34 33
3 35 135 137
3 137 136 34
3 135 136 137
3 35 138 139
3 36 140 142
3 142 141 35
3 140 141 142
3 36 143 144
3 37 38 9
3 39 38 37
3 39 145 147
3 147 146 38
3 145 146 147
3 39 148 149
3 40 150 152
3 152 151 39
3 150 151 152
3 40 153 155
3 153 15 154
3 153 154 155
3 41 156 158
3 156 42 157
3 156 157 158
3 43 42 41
3 43 16 42
3 43 44 16
3 45 44 43
3 45 17 44
3 46 47 11
3 48 47 46
3 48 18 47
3 48 49 18
3 50 49 48
3 50 19 49
3 159 51 160
3 52 161 163
3 161 51 162
3 161 162 163
3 52 20 51
3 52 53 20
3 54 53 52
3 54 21 53
3 164 55 165
3 166 55 167
3 168 22 169
3 170 169 55
3 168 169 170
3 171 56 172
3 173 172 22
3 171 172 173
3 174 56 175
3 177 176 56
3 57 58 1
3 59 58 57
3 59 7 58
3 24 59 6
3 60 59 24
3 60 7 59
3 60 31 7
3 61 31 60
3 61 2 31
3 61 62 2
3 63 62 61
3 63 9 62
3 26 63 8
3 64 63 26
3 64 9 63
3 64 37 9
3 65 37 64
3 65 3 37
3 178 41 179
3 178 179 180
3 181 41 182
3 183 4 184
3 185 184 41
3 183 184 185
3 186 11 187
3 186 187 188
3 189 11 190
3 191 46 192
3 193 192 11
3 191 192 193
3 194 46 195
3 196 5 197
3 198 197 46
3 196 197 198
3 66 199 200
3 67 201 203
3 203 202 66
3 201 202 203
3 67 204 205
3 29 67 12
3 68 67 29
3 68 206 208
3 208 207 67
3 206 207 208
3 68 209 210
3 69 211 213
3 213 212 68
3 211 212 213
3 69 214 215
3 58 30 1
3 70 30 58
3 70 13 30
3 32 70 7
3 71 70 32
3 71 13 70
3 71 69 13
3 72 69 71
3 72 216 218
3 218 217 69
3 216 217 218
3 72 219 220
3 73 221 223
3 223 222 72
3 221 222 223
3 73 224 225
3 34 73 14
3 226 73 227
3 228 227 34
3 226 227 228
3 230 229 73
3 62 36 2
3 74 36 62
3 74 231 233
3 233 232 36
3 231 232 233
3 38 74 9
3 75 74 38
3 75 234 236
3 236 235 74
3 234 235 236
3 75 237 238
3 240 239 75
3 241 66 242
3 243 66 244
3 245 12 246
3 247 246 66
3 245 246 247
3 76 248 249
3 76 250 252
3 250 12 251
3 250 251 252
3 76 28 12
3 77 28 76
3 77 1 28
3 42 253 254
3 78 255 257
3 257 256 42
3 255 256 257
3 78 258 259
3 78 260 262
3 260 77 261
3 260 261 262
3 79 77 78
3 79 1 77
3 79 57 1
3 80 57 79
3 80 6 57
3 44 80 16
3 81 80 44
3 81 6 80
3 81 23 6
3 82 23 81
3 82 0 23
3 263 4 264
3 47 265 267
3 267 266 11
3 265 266 267
3 83 268 270
3 270 269 47
3 268 269 270
3 83 271 272
3 83 273 274
3 84 275 277
3 277 276 83
3 275 276 277
3 84 278 280
3 278 4 279
3 278 279 280
3 84 45 4
3 85 45 84
3 85 17 45
3 49 85 18
3 86 85 49
3 86 17 85
3 86 82 17
3 87 82 86
3 87 0 82
3 281 5 282
3 88 283 285
3 283 284 285
3 88 286 288
3 286 5 287
3 286 287 288
3 88 50 5
3 89 50 88
3 89 19 50
3 51 289 291
3 289 89 290
3 289 290 291
3 90 89 51
3 90 19 89
3 90 87 19
3 91 87 90
3 91 0 87
3 91 27 0
3 92 27 91
3 92 10 27
3 53 92 20
3 93 92 53
3 93 10 92
3 93 65 10
3 94 65 93
3 94 3 65
3 292 54 293
3 95 294 296
3 294 54 295
3 294 295 296
3 95 21 54
3 55 297 299
3 297 95 298
3 297 298 299
3 96 95 55
3 96 21 95
3 96 94 21
3 97 94 96
3 97 3 94
3 97 40 3
3 98 40 97
3 98 15 40
3 56 98 22
3 99 98 56
3 99 15 98
3 99 300 302
3 302 301 15
3 300 301 302
3 305 304 99
3 303 304 305
