ply
format ascii 1.0
element vertex 113
property float x
property float y
property float z
element face 95
property list uchar int vertex_index
end_header
-10.268914 90.251869 -6.762197
-8.092038 90.160362 -1.751182
-7.972806 94.286812 -12.374844
-14.263101 85.347298 -6.130548
-12.406383 89.59362 -11.75801
-9.292903 90.098412 -4.08612
-11.291151 87.947632 -4.019037
-12.376511 87.809937 -6.44909
-13.346812 87.592995 -8.863025
-11.366384 89.959152 -9.116126
-9.080788 93.735703 -14.842319
-5.968351 92.065132 -1.545491
-7.100202 92.314774 -4.288916
-8.184419 92.319946 -6.741756
-9.305774 92.222504 -9.509598
-15.218306 85.109543 -8.712429
-14.229665 87.305679 -11.434115
-13.271132 89.146286 -14.324279
-10.285757 91.943306 -11.97864
-11.221808 91.511009 -14.537437
-4.843942 93.027374 -1.491758
-5.456772 91.882652 -0.311584
-6.49498 93.401882 -5.605856
-5.979708 93.290497 -4.221689
-7.037088 93.404469 -6.832276
-7.642311 92.31736 -5.515336
-6.49498 93.401882 -5.605856
-7.634832 93.32904 -8.162751
-7.037088 93.404469 -6.832276
-8.570229 88.931072 -0.374994
-8.072021 88.671379 1.014482
-7.59383 89.900669 -0.361707
-14.598573 84.239422 -4.793273
-13.727716 85.485523 -4.977168
-15.084876 84.140572 -6.011894
-14.598573 84.239422 -4.793273
-14.740704 85.22842 -7.421489
-15.562479 84.021694 -7.302834
-15.084876 84.140572 -6.011894
-10.6189 92.316848 -15.875991
-10.151298 92.623356 -14.689878
-9.548391 93.429195 -16.028433
-11.697982 91.137852 -15.672506
-10.6189 92.316848 -15.875991
-9.75864 88.94228 -2.739409
-9.158207 88.973255 -1.57194
-8.692471 90.129387 -2.918651
-10.757763 87.86689 -2.705868
-9.75864 88.94228 -2.739409
-10.292027 89.023022 -4.052579
-11.720237 86.734619 -2.622597
-10.757763 87.86689 -2.705868
-12.241741 86.785691 -3.921412
-11.720237 86.734619 -2.622597
-12.784421 86.716843 -5.136439
-12.241741 86.785691 -3.921412
-11.833831 87.878784 -5.234063
-13.319806 86.578618 -6.289819
-13.727716 85.485523 -4.977168
-12.784421 86.716843 -5.136439
-7.911803 94.828751 -14.958215
-8.526797 94.011257 -13.608581
-7.357812 95.104305 -13.724478
-8.36188 94.586869 -16.31254
-7.911803 94.828751 -14.958215
-7.192894 95.679916 -16.428437
-9.548391 93.429195 -16.028433
-8.36188 94.586869 -16.31254
-6.531987 90.853054 -0.258861
-6.020407 90.670574 0.975046
-5.456772 91.882652 -0.311584
-7.030195 91.112747 -1.648337
-7.59383 89.900669 -0.361707
-6.531987 90.853054 -0.258861
-5.413782 93.165676 -2.849976
-4.843942 93.027374 -1.491758
-4.289373 94.127918 -2.796243
-6.534277 92.189953 -2.917204
-5.413782 93.165676 -2.849976
-5.979708 93.290497 -4.221689
-8.19551 93.280319 -9.546672
-8.745096 92.271225 -8.125677
-7.634832 93.32904 -8.162751
-7.529026 94.312473 -10.979295
-8.63929 93.254658 -10.942221
-8.19551 93.280319 -9.546672
-6.763165 95.354931 -12.36773
-7.529026 94.312473 -10.979295
-7.357812 95.104305 -13.724478
-6.763165 95.354931 -12.36773
-8.570229 88.931072 -0.374994
-9.158207 88.973255 -1.57194
-16.022755 83.838459 -8.53051
-15.562479 84.021694 -7.302834
-15.63057 84.905571 -9.888427
-16.435018 83.634487 -9.706508
-16.022755 83.838459 -8.53051
-15.136249 86.003639 -11.24927
-15.63057 84.905571 -9.888427
-14.723986 86.207611 -10.073272
-14.644815 87.014106 -12.553346
-15.136249 86.003639 -11.24927
-14.165548 87.93441 -13.998428
-14.644815 87.014106 -12.553346
-13.750398 88.225983 -12.879197
-13.750279 88.67445 -15.360656
-14.644696 87.462574 -15.034804
-14.165548 87.93441 -13.998428
-12.722644 89.95549 -15.565927
-12.24647 90.328648 -14.430858
-11.697982 91.137852 -15.672506
-13.750279 88.67445 -15.360656
-12.722644 89.95549 -15.565927
3 0 6 5
3 0 7 6
3 0 9 7
3 20 11 21
3 22 12 23
3 24 13 25
3 26 25 12
3 24 25 26
3 28 27 13
3 1 29 31
3 29 30 31
3 3 32 33
3 3 34 35
3 3 36 38
3 36 15 37
3 36 37 38
3 4 16 8
3 4 17 16
3 2 18 14
3 39 19 40
3 41 40 10
3 39 40 41
3 43 42 19
3 5 44 46
3 46 45 1
3 44 45 46
3 6 47 49
3 49 48 5
3 47 48 49
3 6 50 51
3 6 52 53
3 7 54 56
3 56 55 6
3 54 55 56
3 7 57 59
3 57 3 58
3 57 58 59
3 7 8 3
3 9 8 7
3 9 4 8
3 60 10 61
3 62 61 2
3 60 61 62
3 63 10 64
3 63 64 65
3 67 66 10
3 11 68 70
3 68 69 70
3 11 71 73
3 71 1 72
3 71 72 73
3 74 11 75
3 74 75 76
3 12 77 79
3 77 11 78
3 77 78 79
3 12 1 11
3 12 5 1
3 13 5 12
3 13 0 5
3 13 14 0
3 80 14 81
3 82 81 13
3 80 81 82
3 83 2 84
3 85 84 14
3 83 84 85
3 86 2 87
3 89 88 2
3 91 90 1
3 15 92 93
3 15 94 96
3 94 95 96
3 8 15 3
3 16 15 8
3 16 97 99
3 99 98 15
3 97 98 99
3 16 100 101
3 17 102 104
3 104 103 16
3 102 103 104
3 17 105 107
3 105 106 107
3 14 9 0
3 18 9 14
3 18 4 9
3 10 18 2
3 19 18 10
3 19 4 18
3 19 17 4
3 108 17 109
3 110 109 19
3 108 109 110
3 112 111 17
