ply
format ascii 1.0
element vertex 654
property float x
property float y
property float z
element face 785
property list uchar int vertex_index
end_header
38.766216 -22.581221 11.36142
31.200109 -9.470311 2.799803
38.945908 -7.819839 16.255924
36.076595 -20.651478 28.332035
38.110451 -0.652609 9.128608
40.348381 1.189379 15.894937
35.688683 -16.099583 7.158749
32.872856 -14.245028 -0.198012
37.520035 -20.652073 2.194935
39.261776 -27.58552 4.995993
32.998184 -1.564164 3.360689
35.7878 -9.424891 9.080898
38.208801 -16.130535 15.1835
38.735832 3.83157 21.969328
38.79641 -5.076818 23.140644
38.530899 -14.04398 23.067318
38.665218 -22.508972 20.44525
40.571171 4.811531 12.371601
40.733307 5.508382 15.518954
37.528248 -19.277847 9.317506
36.502274 -18.60014 5.094601
38.243729 -21.913918 6.814953
38.865883 -24.191956 3.531689
39.153309 -25.218908 8.34499
38.654209 -4.304078 12.584405
36.821781 -5.21656 9.288454
37.69585 -8.889683 12.637546
37.150036 -12.804285 12.183049
38.375916 -12.095333 15.889577
37.123421 0.806706 25.730013
38.888012 -0.616054 22.629601
37.320824 -3.675751 26.452229
37.534569 -12.759953 26.590254
37.586395 -17.388609 25.96023
38.534824 -18.436743 22.115524
37.716724 -21.785332 24.606779
34.601757 -15.723945 -3.056746
31.869938 -12.611794 -3.758626
39.485149 4.28959 9.097581
39.74469 0.29053 12.513978
39.701321 -3.108794 16.091404
33.540459 -12.99951 4.96361
31.589365 -12.18079 1.587435
34.271439 -15.51045 3.398383
35.544403 -17.517063 0.938881
36.887379 -19.003666 -2.309286
38.408882 -22.379908 -1.361261
39.100502 -26.059738 -0.022843
29.908033 -1.441556 0.850272
31.657686 -5.744719 3.254996
35.831001 -1.167922 6.095695
34.388554 -5.729676 6.148092
33.605072 -9.759936 5.907718
35.444199 -13.19312 8.483019
37.115028 -16.458595 11.028318
38.350052 -19.477209 13.623888
40.017666 2.603572 18.952267
39.750164 -1.982534 19.446928
39.331604 -6.453826 19.832289
37.419594 -8.181157 26.79077
38.624672 -9.635056 23.386364
38.939919 -11.015186 19.858425
38.721561 -15.286298 19.16494
38.744862 -19.077911 17.925116
38.966675 -22.739258 15.835244
37.894089 -25.833654 22.541046
38.840721 -26.154871 17.988253
39.213024 -26.000933 13.293904
39.221519 -28.862436 10.248365
40.881977 7.023566 13.986848
38.221169 -20.880171 10.302936
37.887508 -20.670935 8.170098
38.551796 -22.356474 9.077684
38.823254 -23.631927 7.634671
38.987946 -23.980759 9.978746
38.845211 -6.061475 14.4444
38.164898 -6.567317 12.686192
38.414509 -8.310732 14.391503
38.091167 -10.510106 14.332631
38.616863 -10.10103 16.136883
36.160046 -0.735868 27.629631
37.207008 -1.539673 26.213024
36.291164 -3.063656 28.020199
35.965481 -18.372618 28.967901
36.777763 -16.750849 27.830156
36.912445 -18.983231 27.199076
37.656384 -19.656946 25.326317
37.008064 -21.260544 26.479818
30.042128 -7.529512 1.723456
39.986229 6.613249 9.182186
40.519398 3.008048 14.026739
40.213913 2.652378 12.386121
40.178173 0.781147 14.18326
39.727001 -1.548703 14.196312
40.043327 -0.959059 15.948065
34.597965 -14.53118 5.980788
33.775177 -14.327919 4.152181
34.995167 -15.913502 5.250151
37.0294 -19.711012 3.728611
36.009415 -18.131071 2.953403
36.623131 -19.084919 1.413575
36.21851 -18.290365 -0.689253
37.236782 -19.971041 -0.11782
37.765392 -20.725082 -1.786217
38.029102 -21.631163 0.61812
39.177876 -25.952135 4.252406
39.028732 -25.065567 1.727086
39.191456 -26.940674 2.363399
39.090614 -27.882545 0.491024
39.144062 -28.707151 3.269231
31.502377 -1.545696 2.095177
30.732576 -3.753663 2.028727
32.263264 -3.841157 3.394451
37.822716 1.443328 7.536306
37.069927 -0.832405 7.557102
36.25042 -7.293064 9.213516
35.66082 -5.395408 7.640886
35.06863 -7.661708 7.569407
33.82225 -7.682422 5.961325
34.67244 -9.58359 7.393773
34.483902 -11.519187 7.115443
35.529255 -11.341099 8.871171
37.700554 -14.523726 13.611208
37.061886 -14.737959 11.691526
37.6744 -16.2633 12.981104
37.81028 -18.037434 12.297953
38.207527 -17.781675 14.352335
39.41888 5.307137 20.088066
40.044506 4.682498 18.645746
39.483093 3.243106 20.471823
38.782658 -2.924424 23.144463
39.413269 -1.276467 21.135727
39.307339 -3.564208 21.339325
39.552769 -4.186754 19.633673
39.180798 -5.798691 21.454426
38.137447 -13.500573 24.842899
38.109192 -11.114757 25.124498
38.552647 -11.945884 23.345957
38.89048 -10.308393 21.647802
38.798019 -12.504244 21.394291
38.800026 -13.320929 19.638405
38.719547 -14.74004 21.257984
38.59956 -20.493134 21.290966
38.732243 -18.804087 20.018343
38.80085 -20.771013 19.119158
38.834789 -20.990992 16.989529
38.896198 -22.736053 18.166807
38.85812 -27.967747 16.645266
39.091763 -26.184994 15.589038
39.117748 -27.840607 14.212956
39.259785 -27.433975 11.877712
39.07383 -29.296629 12.74074
32.256557 -13.396688 0.906861
30.848818 -11.75307 0.082574
31.564018 -12.756776 -0.827969
38.553699 -22.049608 -5.499816
40.504761 6.718512 10.826216
40.801186 6.835083 12.458958
40.76054 5.072699 13.980565
40.591286 3.408828 15.635812
36.670338 -17.686363 8.245311
36.044502 -17.413607 6.221987
37.029179 -19.00457 7.188686
37.449455 -20.211632 5.945671
37.883034 -21.327885 4.518665
38.301662 -22.387978 2.870424
38.570026 -23.046827 5.221735
39.022858 -24.742945 5.920394
39.264973 -26.527399 6.85752
38.409847 -2.534293 10.832504
37.497189 -3.046032 9.355732
37.823395 -4.950696 10.999256
37.281315 -7.068265 10.951294
36.787876 -9.093563 10.760617
36.535145 -11.131705 10.7171
37.371082 -10.841258 12.485431
37.829258 -12.560001 14.021667
38.227909 -14.100849 15.564597
38.012604 2.312611 23.784576
38.840622 1.613489 22.335985
38.070541 -0.017912 24.297375
38.126541 -2.112819 24.613033
38.167236 -4.328773 24.823301
37.514332 -15.122728 26.452759
38.119419 -15.687 24.615988
38.501205 -16.25515 22.771931
38.126404 -17.911213 24.207748
38.202347 -20.122744 23.439199
38.289436 -22.139477 22.543779
33.676079 -15.017994 -1.527719
32.385506 -13.5397 -2.06269
33.315483 -14.221663 -3.342432
38.836246 1.703825 9.164092
40.15118 4.580669 10.731474
39.675117 2.268946 10.787337
39.032433 -0.181984 10.755263
39.178867 -2.013075 12.460893
39.293644 -3.719681 14.315279
39.310135 -5.534596 16.261997
35.022251 -20.223906 29.939941
32.382736 -11.299597 3.888986
31.366171 -11.063798 2.338961
32.570992 -12.70157 3.249016
32.972843 -13.893157 2.492497
33.598473 -14.994964 1.623011
35.426258 -17.043583 4.213107
34.816689 -16.51 2.268439
34.249893 -15.858527 0.266155
35.019402 -16.654537 -1.026852
38.21508 -21.376331 -3.752578
38.705925 -23.161985 -3.271034
38.658672 -23.387068 1.045421
38.878185 -24.229221 -0.833295
38.979553 -25.071718 -2.636971
27.610588 1.057697 -1.258756
29.132748 0.963836 -0.280491
28.412109 -1.439984 -0.223123
29.317749 -3.723047 0.853246
30.267679 -5.705458 1.929797
31.364119 -7.722754 3.158725
34.509418 -1.429938 4.748814
36.392445 -3.178347 7.7136
35.098541 -3.503428 6.197574
33.652554 -3.750716 4.710114
33.07336 -5.913497 4.725661
32.598072 -7.843662 4.543016
32.435707 -9.658294 4.369891
33.452827 -11.48678 5.502007
34.431271 -13.109122 6.596252
35.455261 -14.740139 7.80905
36.377048 -13.053329 10.405742
36.327896 -14.81446 9.804356
36.430302 -16.337648 9.069024
37.247253 -17.864061 10.210531
37.96582 -19.456848 11.371692
38.515617 -21.028788 12.47435
36.963448 2.874968 25.316425
36.009033 1.398601 27.194443
40.486679 5.995924 16.912321
40.43375 3.921005 17.1849
40.297375 1.807937 17.459362
39.499657 1.076882 20.762091
39.91481 0.348941 19.239618
40.099205 -0.332428 17.674252
39.835945 -2.624149 17.813074
39.533897 -4.966807 18.025185
39.255688 -7.183044 18.122614
36.412807 -5.318897 28.25939
37.376614 -5.810741 26.65959
38.134933 -6.599848 25.063169
37.456585 -10.478143 26.808674
38.078991 -8.993787 25.265894
38.673798 -7.302414 23.445993
39.023575 -7.9692 21.662672
39.127281 -8.665726 19.876577
38.991837 -9.387856 18.049391
38.77763 -11.60925 17.973093
38.616379 -13.606516 17.608114
38.53907 -15.651011 17.156298
38.702461 -16.772362 20.740364
38.708126 -17.26754 18.676058
38.542107 -17.673302 16.487488
38.617188 -19.421871 15.776585
38.732365 -21.095919 14.680305
38.919876 -22.768435 13.571072
35.17971 -22.442478 29.199425
36.217484 -22.893373 27.501551
37.083801 -23.5455 25.62788
37.817379 -23.750904 23.666845
38.359333 -24.185495 21.553663
38.424709 -26.100407 20.374327
38.767464 -24.353785 19.24264
39.010155 -24.457762 16.879642
39.113941 -24.488958 14.565876
39.104168 -24.337484 12.191789
39.237129 -25.728518 10.853241
39.303204 -27.081749 9.319995
39.272995 -28.392757 7.638644
39.07988 -30.117117 8.400819
39.141144 -29.451008 5.845171
30.904634 -11.92305 -2.469889
35.727469 -2.741818 28.725385
36.225605 -1.899762 27.824915
35.66191 -1.577924 28.530101
30.624853 -9.315438 2.07453
30.045862 -8.345038 1.536357
30.621119 -8.499911 2.261629
40.144934 7.74946 9.250063
39.848662 7.657708 8.466322
40.007366 8.793919 8.534199
32.250281 -1.55493 2.727933
31.947803 -0.322182 2.064038
32.695707 -0.331416 2.696794
38.844814 -28.730716 15.92926
38.657146 -28.794491 17.141726
38.974628 -28.667146 14.713106
38.987934 -27.904177 15.429111
38.844814 -28.730716 15.92926
38.952669 -29.395157 13.976997
39.095789 -28.568618 13.476848
38.974628 -28.667146 14.713106
38.66156 -22.412883 -6.370406
38.71203 -23.028353 -5.246836
40.835325 7.811402 12.587817
40.748002 7.810154 11.741553
39.025442 4.058377 8.322589
39.341117 5.287705 8.325226
39.160697 2.996707 9.130837
38.700991 2.765494 8.355845
39.025442 4.058377 8.322589
34.417623 -19.865693 30.723485
34.945999 -19.101806 30.244162
36.330523 -18.141845 -2.498169
35.996088 -17.785195 -1.688152
36.552945 -18.647016 -1.49927
36.749644 -18.503811 -3.352046
36.330523 -18.141845 -2.498169
37.214304 -19.361061 -3.198611
36.749644 -18.503811 -3.352046
39.063617 -26.473358 -1.003556
39.003143 -25.979348 -2.31062
39.040028 -25.565728 -1.329907
38.979216 -28.323795 -0.452073
39.002489 -28.754463 0.924044
27.983949 2.258794 -1.318465
27.260997 2.305039 -1.73004
29.52039 -0.23886 0.284891
29.959879 0.964314 0.273797
30.347521 -0.238383 0.839179
35.573057 -0.058823 5.343413
36.22014 0.075421 6.014736
35.170209 -1.29893 5.422255
34.912265 -0.189831 4.669973
35.573057 -0.058823 5.343413
36.841048 3.952259 25.091496
37.350323 3.620445 24.441686
35.386865 1.579339 27.941907
35.892775 2.382236 27.004156
34.877402 0.774377 28.866917
35.499569 0.593639 28.119453
35.386865 1.579339 27.941907
40.230608 6.272349 17.643966
40.45286 6.894483 16.807396
35.931703 -6.13891 29.0827
35.873102 -4.939589 28.970796
37.398104 -6.995949 26.72518
36.968128 -6.660249 27.484068
36.989618 -7.845457 27.549658
37.495577 -11.619048 26.699464
37.072584 -11.365187 27.566544
37.111576 -12.506092 27.457335
34.673172 -23.243744 29.600406
34.583126 -22.136745 30.002469
36.258377 -24.003706 27.056495
35.728083 -23.769675 27.977176
36.691536 -24.329769 26.11966
36.650643 -23.219437 26.564715
36.258377 -24.003706 27.056495
37.855734 -24.792279 23.103946
37.513645 -24.608751 24.127885
37.552 -25.650126 23.564985
38.632715 -26.127639 19.18129
38.451433 -26.992646 19.698413
38.659439 -27.019879 18.505376
38.948046 -30.71446 7.447698
38.889871 -31.023539 8.71444
38.978678 -30.381405 6.169874
39.110512 -29.784063 7.122995
38.948046 -30.71446 7.447698
39.017235 -29.973159 4.87626
38.978678 -30.381405 6.169874
30.967649 -11.362073 1.218495
30.856051 -10.803577 1.594257
31.477768 -11.622294 1.963198
30.112205 -10.843301 -0.284488
30.465992 -11.407615 -0.665818
40.859598 7.838299 14.154091
40.875721 7.905644 13.351762
40.821831 7.191556 14.701342
40.859598 7.838299 14.154091
40.747495 6.433964 15.467396
40.807642 6.265974 14.752901
40.821831 7.191556 14.701342
36.371622 -17.561733 28.399029
36.338959 -16.424148 28.607304
35.932817 -17.235032 29.176177
29.44753 -7.398189 1.070813
29.495391 -6.522714 1.208353
29.44753 -7.398189 1.070813
30.045862 -8.345038 1.536357
34.404564 -15.180287 -4.032283
35.059736 -16.01896 -3.917382
39.591657 6.449535 8.367529
39.848662 7.657708 8.466322
39.735689 5.45142 9.139883
39.341117 5.287705 8.325226
39.591657 6.449535 8.367529
39.029213 -29.166766 2.313147
39.002489 -28.754463 0.924044
39.117338 -28.294848 1.880127
31.144693 -0.290453 1.461631
31.947803 -0.322182 2.064038
30.705205 -1.493626 1.472724
30.347521 -0.238383 0.839179
31.144693 -0.290453 1.461631
37.215998 1.381046 6.735041
37.660406 2.549141 6.781192
36.839603 0.24318 6.745439
37.215998 1.381046 6.735041
37.446321 0.305461 7.546704
36.450464 -1.000163 6.826398
36.22014 0.075421 6.014736
36.839603 0.24318 6.745439
39.731693 4.994817 19.366906
40.009521 5.615636 18.510679
39.696708 5.927955 19.231839
37.031329 -9.036873 27.57421
36.989618 -7.845457 27.549658
37.574345 -26.633988 23.037686
37.552 -25.650126 23.564985
38.668138 -27.926316 17.833883
38.657146 -28.794491 17.141726
38.849421 -27.061309 17.316759
38.659439 -27.019879 18.505376
38.668138 -27.926316 17.833883
30.823592 -11.909468 -1.121089
30.465992 -11.407615 -0.665818
31.206418 -12.254923 -0.372697
31.139269 -11.810907 -3.975166
31.689203 -12.104364 -4.648387
38.505062 -21.498048 -6.64069
38.297775 -21.161457 -5.733998
38.612923 -21.861323 -7.511279
38.505062 -21.498048 -6.64069
38.66156 -22.412883 -6.370406
40.599789 7.751869 10.925182
40.4042 7.802091 10.072078
40.652974 6.776797 11.642587
40.599789 7.751869 10.925182
40.748002 7.810154 11.741553
40.841582 6.929324 13.222903
40.835325 7.811402 12.587817
40.875721 7.905644 13.351762
33.443176 -0.40496 3.347231
32.695707 -0.331416 2.696794
37.160666 -13.599259 27.324022
37.111576 -12.506092 27.457335
36.782263 -15.594707 27.943973
36.338959 -16.424148 28.607304
37.150547 -14.780647 27.255274
36.782263 -15.594707 27.943973
37.146048 -15.936788 27.141458
37.524451 -13.94134 26.521507
37.160666 -13.599259 27.324022
37.150547 -14.780647 27.255274
33.761427 -14.429146 -4.175126
33.95862 -14.972804 -3.199589
34.404564 -15.180287 -4.032283
33.144888 -13.714422 -4.292976
33.761427 -14.429146 -4.175126
32.422116 -12.909488 -4.501073
32.592711 -13.416728 -3.550529
33.144888 -13.714422 -4.292976
32.24138 -12.402058 -5.390834
31.689203 -12.104364 -4.648387
32.422116 -12.909488 -4.501073
38.194226 2.635246 7.541952
37.660406 2.549141 6.781192
38.329481 1.573576 8.350199
38.194226 2.635246 7.541952
38.700991 2.765494 8.355845
40.245495 6.665881 10.004201
40.144934 7.74946 9.250063
40.4042 7.802091 10.072078
35.417614 -18.176162 29.758142
35.932817 -17.235032 29.176177
35.493866 -19.298262 29.453921
35.417614 -18.176162 29.758142
34.945999 -19.101806 30.244162
35.396534 -16.967281 -1.856952
35.618956 -17.472451 -0.858053
35.996088 -17.785195 -1.688152
35.187711 -16.501984 -2.871899
34.81058 -16.189241 -2.041799
35.396534 -16.967281 -1.856952
35.059736 -16.01896 -3.917382
35.187711 -16.501984 -2.871899
37.653311 -20.221769 -2.937076
37.214304 -19.361061 -3.198611
37.326386 -19.864374 -2.047751
37.878155 -20.547393 -3.920256
37.653311 -20.221769 -2.937076
37.990236 -21.050707 -2.769398
38.128466 -20.824818 -4.860379
37.878155 -20.547393 -3.920256
38.384389 -21.712969 -4.626197
38.297775 -21.161457 -5.733998
38.128466 -20.824818 -4.860379
38.788143 -23.584541 -4.132445
38.71203 -23.028353 -5.246836
38.629812 -22.605797 -4.385425
38.924957 -24.539408 -3.815414
38.788143 -23.584541 -4.132445
38.842739 -24.116852 -2.954003
38.962027 -25.437531 -3.626633
38.924957 -24.539408 -3.815414
38.962027 -25.437531 -3.626633
39.003143 -25.979348 -2.31062
39.058673 -27.384761 -0.746623
39.063617 -26.473358 -1.003556
39.095558 -26.971142 0.234091
39.058673 -27.384761 -0.746623
38.979216 -28.323795 -0.452073
26.923592 1.176389 -1.701907
26.574002 2.423732 -2.173191
27.260997 2.305039 -1.73004
27.349336 -0.050451 -1.228601
26.662341 0.068242 -1.671753
26.923592 1.176389 -1.701907
29.57106 2.147476 -0.322965
29.959879 0.964314 0.273797
28.745029 2.211863 -0.829332
29.57106 2.147476 -0.322965
28.371668 1.010767 -0.769624
27.983949 2.258794 -1.318465
28.745029 2.211863 -0.829332
27.750097 -1.299291 -0.710785
27.349336 -0.050451 -1.228601
28.011349 -0.191143 -0.740939
28.199019 -2.476168 -0.236375
27.750097 -1.299291 -0.710785
28.651839 -3.6177 0.301809
28.199019 -2.476168 -0.236375
28.864929 -2.581516 0.315061
29.133201 -4.619482 0.773248
28.651839 -3.6177 0.301809
29.608167 -5.610687 1.311524
29.133201 -4.619482 0.773248
29.792714 -4.714253 1.391522
30.154904 -6.617485 1.826627
29.495391 -6.522714 1.208353
29.608167 -5.610687 1.311524
34.198793 -0.337847 4.041294
34.912265 -0.189831 4.669973
33.753801 -1.497051 4.054752
33.443176 -0.40496 3.347231
34.198793 -0.337847 4.041294
39.350143 6.273034 19.883063
39.696708 5.927955 19.231839
38.98214 5.52436 20.877792
39.350143 6.273034 19.883063
38.640616 4.786577 21.818424
39.077356 4.569354 21.028697
38.98214 5.52436 20.877792
38.236515 4.098746 22.768138
38.640616 4.786577 21.818424
37.874901 3.339266 23.675762
38.374218 3.07209 22.876952
38.236515 4.098746 22.768138
37.488026 2.593789 24.5505
37.874901 3.339266 23.675762
37.350323 3.620445 24.441686
36.369982 3.120419 26.065147
36.841048 3.952259 25.091496
36.486241 2.136785 26.255434
36.369982 3.120419 26.065147
35.892775 2.382236 27.004156
35.575075 -0.473595 28.337048
36.08454 0.331367 27.412037
35.499569 0.593639 28.119453
35.66191 -1.577924 28.530101
35.575075 -0.473595 28.337048
40.624182 6.677735 16.164079
40.45286 6.894483 16.807396
40.609993 5.752153 16.215637
40.747495 6.433964 15.467396
40.624182 6.677735 16.164079
40.265592 5.339211 17.779033
40.230608 6.272349 17.643966
40.009521 5.615636 18.510679
35.81228 -3.811968 28.8512
35.727469 -2.741818 28.725385
36.351985 -4.191276 28.139795
35.81228 -3.811968 28.8512
35.873102 -4.939589 28.970796
36.486225 -6.414327 28.283968
35.931703 -6.13891 29.0827
36.894711 -5.564819 27.45949
36.486225 -6.414327 28.283968
36.968128 -6.660249 27.484068
37.049824 -10.185366 27.583163
37.072584 -11.365187 27.566544
37.438089 -9.32965 26.799722
37.031329 -9.036873 27.57421
37.049824 -10.185366 27.583163
34.504396 -21.027459 30.372727
34.417623 -19.865693 30.723485
35.10098 -21.333192 29.569683
34.504396 -21.027459 30.372727
34.583126 -22.136745 30.002469
35.209196 -23.544227 28.826113
34.673172 -23.243744 29.600406
35.698597 -22.667926 28.350488
35.209196 -23.544227 28.826113
35.728083 -23.769675 27.977176
37.146856 -24.506049 25.108402
36.691536 -24.329769 26.11966
37.45059 -23.648202 24.647362
37.146856 -24.506049 25.108402
37.513645 -24.608751 24.127885
37.911095 -26.858389 21.911704
37.574345 -26.633988 23.037686
38.176405 -26.991765 20.828345
38.451433 -26.992646 19.698413
38.159399 -25.96703 21.457687
37.911095 -26.858389 21.911704
38.176405 -26.991765 20.828345
38.896524 -30.151215 13.142753
38.952669 -29.395157 13.976997
39.008665 -29.977491 11.832535
38.896524 -30.151215 13.142753
39.08251 -29.760394 10.586347
39.147675 -29.079532 11.494553
39.008665 -29.977491 11.832535
39.011691 -30.387735 9.662574
38.889871 -31.023539 8.71444
39.1507 -29.489776 9.324592
39.08251 -29.760394 10.586347
39.011691 -30.387735 9.662574
39.018694 -29.60123 3.588291
39.142603 -29.079079 4.557201
39.017235 -29.973159 4.87626
39.029213 -29.166766 2.313147
39.018694 -29.60123 3.588291
30.707884 -10.112181 1.844109
30.624853 -9.315438 2.07453
31.28314 -10.267055 2.569382
30.707884 -10.112181 1.844109
30.856051 -10.803577 1.594257
30.597375 -11.148213 0.466064
30.967649 -11.362073 1.218495
31.219092 -11.96693 0.835004
30.597375 -11.148213 0.466064
30.112205 -10.843301 -0.284488
30.4939 -11.492605 -1.942049
30.823592 -11.909468 -1.121089
31.234326 -12.339913 -1.648929
30.656617 -11.466535 -3.330798
31.387286 -12.267422 -3.114257
31.139269 -11.810907 -3.975166
30.145339 -11.078489 -2.703932
30.656617 -11.466535 -3.330798
30.4939 -11.492605 -1.942049
30.145339 -11.078489 -2.703932
3 0 72 70
3 0 74 72
3 2 77 75
3 2 79 77
3 281 82 282
3 283 282 80
3 281 282 283
3 3 85 83
3 3 87 85
3 1 284 286
3 286 285 88
3 284 285 286
3 287 89 288
3 287 288 289
3 5 92 90
3 5 94 92
3 6 97 95
3 8 100 98
3 8 102 100
3 8 104 102
3 9 107 105
3 9 109 107
3 10 290 292
3 290 110 291
3 290 291 292
3 10 112 110
3 4 114 113
3 11 117 115
3 11 119 117
3 11 121 119
3 12 124 122
3 12 126 124
3 13 129 127
3 14 132 130
3 14 134 132
3 15 137 135
3 15 139 137
3 15 141 139
3 16 144 142
3 16 146 144
3 293 147 294
3 295 149 296
3 297 296 147
3 295 296 297
3 298 151 299
3 300 299 149
3 298 299 300
3 7 154 152
3 302 301 155
3 303 157 304
3 18 158 69
3 18 159 158
3 19 162 160
3 21 163 71
3 21 164 163
3 21 166 164
3 23 167 73
3 23 168 167
3 24 171 169
3 26 172 76
3 26 173 172
3 26 175 173
3 28 176 78
3 28 177 176
3 29 180 178
3 31 181 81
3 31 182 181
3 33 183 84
3 33 184 183
3 33 186 184
3 35 187 86
3 35 188 187
3 36 191 189
3 38 305 306
3 38 307 309
3 307 192 308
3 307 308 309
3 17 193 156
3 39 194 91
3 39 195 194
3 39 196 195
3 40 197 93
3 40 198 197
3 310 199 311
3 41 202 200
3 43 203 96
3 43 204 203
3 20 205 161
3 44 206 99
3 44 207 206
3 44 208 207
3 45 312 314
3 314 313 101
3 312 313 314
3 45 315 316
3 45 317 318
3 46 209 103
3 46 210 209
3 22 211 165
3 47 212 106
3 47 213 212
3 47 319 321
3 321 320 213
3 319 320 321
3 323 322 108
3 324 214 325
3 48 326 328
3 326 215 327
3 326 327 328
3 48 216 215
3 48 217 216
3 49 218 111
3 49 219 218
3 50 329 330
3 50 331 333
3 331 220 332
3 331 332 333
3 25 221 170
3 51 222 116
3 51 223 222
3 51 224 223
3 52 225 118
3 52 226 225
3 52 227 226
3 53 228 120
3 53 229 228
3 27 230 174
3 54 231 123
3 54 232 231
3 54 233 232
3 55 234 125
3 55 235 234
3 334 236 335
3 336 237 337
3 340 339 237
3 338 339 340
3 341 238 342
3 56 239 128
3 56 240 239
3 30 241 179
3 57 242 131
3 57 243 242
3 57 244 243
3 58 245 133
3 58 246 245
3 343 247 344
3 59 345 347
3 345 248 346
3 345 346 347
3 59 249 248
3 32 348 350
3 348 250 349
3 348 349 350
3 60 251 136
3 60 252 251
3 60 253 252
3 61 254 138
3 61 255 254
3 61 256 255
3 62 257 140
3 62 258 257
3 34 259 185
3 63 260 143
3 63 261 260
3 63 262 261
3 64 263 145
3 64 264 263
3 351 265 352
3 353 266 354
3 355 267 356
3 357 356 266
3 355 356 357
3 65 358 360
3 358 268 359
3 358 359 360
3 65 269 268
3 66 361 363
3 361 270 362
3 361 362 363
3 66 271 270
3 66 272 271
3 67 273 148
3 67 274 273
3 67 275 274
3 68 276 150
3 68 277 276
3 364 278 365
3 366 279 367
3 368 367 278
3 366 367 368
3 370 369 279
3 42 371 373
3 373 372 201
3 371 372 373
3 375 374 153
3 37 280 190
3 376 69 377
3 378 69 379
3 380 18 381
3 382 381 69
3 380 381 382
3 70 71 19
3 72 71 70
3 72 21 71
3 72 73 21
3 74 73 72
3 74 23 73
3 75 76 24
3 77 76 75
3 77 26 76
3 77 78 26
3 79 78 77
3 79 28 78
3 80 81 29
3 82 81 80
3 82 31 81
3 83 383 385
3 383 84 384
3 383 384 385
3 85 84 83
3 85 33 84
3 85 86 33
3 87 86 85
3 87 35 86
3 88 386 387
3 389 388 88
3 391 390 36
3 89 392 393
3 89 394 396
3 394 38 395
3 394 395 396
3 90 91 17
3 92 91 90
3 92 39 91
3 92 93 39
3 94 93 92
3 94 40 93
3 95 96 41
3 97 96 95
3 97 43 96
3 98 99 20
3 100 99 98
3 100 44 99
3 100 101 44
3 102 101 100
3 102 45 101
3 102 103 45
3 104 103 102
3 104 46 103
3 105 106 22
3 107 106 105
3 107 47 106
3 107 108 47
3 109 108 107
3 109 397 399
3 399 398 108
3 397 398 399
3 110 400 401
3 110 402 404
3 402 48 403
3 402 403 404
3 110 111 48
3 112 111 110
3 112 49 111
3 113 405 406
3 114 407 409
3 409 408 113
3 407 408 409
3 114 410 412
3 410 50 411
3 410 411 412
3 115 116 25
3 117 116 115
3 117 51 116
3 117 118 51
3 119 118 117
3 119 52 118
3 119 120 52
3 121 120 119
3 121 53 120
3 122 123 27
3 124 123 122
3 124 54 123
3 124 125 54
3 126 125 124
3 126 55 125
3 127 413 415
3 413 128 414
3 413 414 415
3 129 128 127
3 129 56 128
3 130 131 30
3 132 131 130
3 132 57 131
3 132 133 57
3 134 133 132
3 134 58 133
3 416 59 417
3 135 136 32
3 137 136 135
3 137 60 136
3 137 138 60
3 139 138 137
3 139 61 138
3 139 140 61
3 141 140 139
3 141 62 140
3 142 143 34
3 144 143 142
3 144 63 143
3 144 145 63
3 146 145 144
3 146 64 145
3 418 65 419
3 147 420 421
3 147 422 424
3 422 66 423
3 422 423 424
3 147 148 66
3 149 148 147
3 149 67 148
3 149 150 67
3 151 150 149
3 151 68 150
3 152 153 42
3 154 153 152
3 154 425 427
3 427 426 153
3 425 426 427
3 429 428 37
3 155 430 431
3 434 433 155
3 432 433 434
3 435 156 436
3 157 437 439
3 437 156 438
3 437 438 439
3 157 17 156
3 69 440 442
3 440 157 441
3 440 441 442
3 158 157 69
3 158 17 157
3 158 90 17
3 159 90 158
3 159 5 90
3 160 161 6
3 162 161 160
3 162 20 161
3 71 162 19
3 163 162 71
3 163 20 162
3 163 98 20
3 164 98 163
3 164 8 98
3 164 165 8
3 166 165 164
3 166 22 165
3 73 166 21
3 167 166 73
3 167 22 166
3 167 105 22
3 168 105 167
3 168 9 105
3 443 10 444
3 169 170 4
3 171 170 169
3 171 25 170
3 76 171 24
3 172 171 76
3 172 25 171
3 172 115 25
3 173 115 172
3 173 11 115
3 173 174 11
3 175 174 173
3 175 27 174
3 78 175 26
3 176 175 78
3 176 27 175
3 176 122 27
3 177 122 176
3 177 12 122
3 178 179 13
3 180 179 178
3 180 30 179
3 81 180 29
3 181 180 81
3 181 30 180
3 181 130 30
3 182 130 181
3 182 14 130
3 445 32 446
3 84 447 448
3 183 449 451
3 451 450 84
3 449 450 451
3 183 452 454
3 452 32 453
3 452 453 454
3 183 135 32
3 184 135 183
3 184 15 135
3 184 185 15
3 186 185 184
3 186 34 185
3 86 186 33
3 187 186 86
3 187 34 186
3 187 142 34
3 188 142 187
3 188 16 142
3 189 190 7
3 191 190 189
3 191 37 190
3 455 191 456
3 457 456 36
3 455 456 457
3 458 191 459
3 460 37 461
3 462 461 191
3 460 461 462
3 465 464 37
3 463 464 465
3 466 113 467
3 192 468 470
3 468 113 469
3 468 469 470
3 192 4 113
3 156 471 473
3 471 89 472
3 471 472 473
3 193 89 156
3 193 38 89
3 91 193 17
3 194 193 91
3 194 38 193
3 194 192 38
3 195 192 194
3 195 4 192
3 195 169 4
3 196 169 195
3 196 24 169
3 93 196 39
3 197 196 93
3 197 24 196
3 197 75 24
3 198 75 197
3 198 2 75
3 474 83 475
3 199 476 478
3 476 83 477
3 476 477 478
3 199 3 83
3 200 201 1
3 202 201 200
3 202 42 201
3 96 202 41
3 203 202 96
3 203 42 202
3 203 152 42
3 204 152 203
3 204 7 152
3 161 97 6
3 205 97 161
3 205 43 97
3 99 205 20
3 206 205 99
3 206 43 205
3 206 204 43
3 207 204 206
3 207 7 204
3 207 189 7
3 208 189 207
3 208 36 189
3 101 208 44
3 479 208 480
3 481 480 101
3 479 480 481
3 482 36 483
3 484 483 208
3 482 483 484
3 486 485 36
3 103 487 489
3 489 488 45
3 487 488 489
3 209 490 492
3 492 491 103
3 490 491 492
3 209 493 494
3 209 495 497
3 495 155 496
3 495 496 497
3 210 155 209
3 210 498 500
3 500 499 155
3 498 499 500
3 165 104 8
3 211 104 165
3 211 46 104
3 106 211 22
3 212 211 106
3 212 46 211
3 212 210 46
3 213 210 212
3 213 501 503
3 503 502 210
3 501 502 503
3 213 504 505
3 507 506 213
3 108 508 510
3 510 509 47
3 508 509 510
3 512 511 108
3 214 513 515
3 513 514 515
3 214 516 518
3 516 517 518
3 215 519 520
3 215 521 522
3 215 523 525
3 523 214 524
3 523 524 525
3 216 214 215
3 216 526 528
3 528 527 214
3 526 527 528
3 216 529 530
3 217 531 533
3 533 532 216
3 531 532 533
3 217 534 535
3 111 217 48
3 218 217 111
3 218 536 538
3 538 537 217
3 536 537 538
3 218 539 541
3 539 88 540
3 539 540 541
3 219 88 218
3 219 1 88
3 220 542 543
3 220 544 546
3 544 10 545
3 544 545 546
3 170 114 4
3 221 114 170
3 221 50 114
3 116 221 25
3 222 221 116
3 222 50 221
3 222 220 50
3 223 220 222
3 223 10 220
3 223 112 10
3 224 112 223
3 224 49 112
3 118 224 51
3 225 224 118
3 225 49 224
3 225 219 49
3 226 219 225
3 226 1 219
3 226 200 1
3 227 200 226
3 227 41 200
3 120 227 52
3 228 227 120
3 228 41 227
3 228 95 41
3 229 95 228
3 229 6 95
3 174 121 11
3 230 121 174
3 230 53 121
3 123 230 27
3 231 230 123
3 231 53 230
3 231 229 53
3 232 229 231
3 232 6 229
3 232 160 6
3 233 160 232
3 233 19 160
3 125 233 54
3 234 233 125
3 234 19 233
3 234 70 19
3 235 70 234
3 235 0 70
3 547 127 548
3 549 127 550
3 551 13 552
3 553 552 127
3 551 552 553
3 554 13 555
3 556 178 557
3 558 557 13
3 556 557 558
3 236 559 561
3 559 178 560
3 559 560 561
3 236 29 178
3 562 236 563
3 237 564 566
3 564 236 565
3 564 565 566
3 237 29 236
3 237 80 29
3 567 80 568
3 569 568 237
3 567 568 569
3 571 570 80
3 238 572 573
3 238 574 576
3 574 18 575
3 574 575 576
3 128 577 579
3 577 238 578
3 577 578 579
3 239 238 128
3 239 18 238
3 239 159 18
3 240 159 239
3 240 5 159
3 179 129 13
3 241 129 179
3 241 56 129
3 131 241 30
3 242 241 131
3 242 56 241
3 242 240 56
3 243 240 242
3 243 5 240
3 243 94 5
3 244 94 243
3 244 40 94
3 133 244 57
3 245 244 133
3 245 40 244
3 245 198 40
3 246 198 245
3 246 2 198
3 580 82 581
3 247 582 584
3 582 82 583
3 582 583 584
3 247 31 82
3 585 247 586
3 248 587 589
3 587 247 588
3 587 588 589
3 248 31 247
3 248 182 31
3 249 182 248
3 249 14 182
3 250 590 591
3 250 592 594
3 592 59 593
3 592 593 594
3 136 250 32
3 251 250 136
3 251 59 250
3 251 249 59
3 252 249 251
3 252 14 249
3 252 134 14
3 253 134 252
3 253 58 134
3 138 253 60
3 254 253 138
3 254 58 253
3 254 246 58
3 255 246 254
3 255 2 246
3 255 79 2
3 256 79 255
3 256 28 79
3 140 256 61
3 257 256 140
3 257 28 256
3 257 177 28
3 258 177 257
3 258 12 177
3 185 141 15
3 259 141 185
3 259 62 141
3 143 259 34
3 260 259 143
3 260 62 259
3 260 258 62
3 261 258 260
3 261 12 258
3 261 126 12
3 262 126 261
3 262 55 126
3 145 262 63
3 263 262 145
3 263 55 262
3 263 235 55
3 264 235 263
3 264 0 235
3 595 199 596
3 265 597 599
3 597 199 598
3 597 598 599
3 265 3 199
3 600 265 601
3 266 602 604
3 602 265 603
3 602 603 604
3 266 3 265
3 266 87 3
3 267 87 266
3 267 35 87
3 605 267 606
3 268 607 609
3 607 267 608
3 607 608 609
3 268 35 267
3 268 188 35
3 269 188 268
3 269 16 188
3 610 65 611
3 270 612 613
3 270 614 616
3 614 65 615
3 614 615 616
3 270 269 65
3 271 269 270
3 271 16 269
3 271 146 16
3 272 146 271
3 272 64 146
3 148 272 66
3 273 272 148
3 273 64 272
3 273 264 64
3 274 264 273
3 274 0 264
3 274 74 0
3 275 74 274
3 275 23 74
3 150 275 67
3 276 275 150
3 276 23 275
3 276 168 23
3 277 168 276
3 277 9 168
3 617 151 618
3 619 151 620
3 621 68 622
3 623 622 151
3 621 622 623
3 278 624 625
3 278 626 628
3 626 68 627
3 626 627 628
3 278 277 68
3 279 277 278
3 279 9 277
3 279 109 9
3 629 109 630
3 631 630 279
3 629 630 631
3 633 632 109
3 201 634 636
3 636 635 1
3 634 635 636
3 638 637 201
3 153 639 641
3 641 640 42
3 639 640 641
3 643 642 153
3 190 154 7
3 280 154 190
3 280 644 646
3 646 645 154
3 644 645 646
3 647 280 648
3 649 648 37
3 647 648 649
3 650 280 651
3 653 652 280
