ply
format ascii 1.0
element vertex 266
property float x
property float y
property float z
element face 251
property list uchar int vertex_index
end_header
27.849581 -41.851936 -12.872649
24.975054 -53.520039 -11.647998
24.56238 -39.256119 -20.639332
29.683142 -43.779404 -4.638562
23.932398 -58.214592 -10.887802
26.425766 -40.592293 -16.819839
32.148197 -38.313004 -0.512878
27.76811 -49.75716 -4.57391
26.37813 -47.975124 -12.204312
25.373251 -46.833282 -15.951728
24.321716 -52.693142 -15.027761
22.304073 -37.809669 -24.249537
24.037256 -45.470123 -19.61463
28.899755 -42.872055 -8.89602
27.158449 -48.855785 -8.468848
25.574558 -54.265606 -8.171091
23.603323 -60.080891 -10.428148
27.804094 -38.048683 -15.235498
27.163055 -41.378143 -14.843853
25.680393 -50.792095 -11.862713
25.330063 -50.200436 -13.644832
24.669336 -53.087967 -13.347469
23.508736 -38.429657 -22.456171
24.297705 -49.410587 -17.296534
24.777792 -46.160824 -17.745737
23.754704 -48.543362 -19.075043
30.910721 -41.131069 -2.717758
31.876879 -37.905079 -2.869771
30.609795 -40.639442 -4.934379
30.182789 -40.336754 -7.057629
29.285952 -43.479084 -6.765782
28.032038 -45.88628 -8.684818
28.399048 -46.370453 -6.626885
26.625528 -52.02039 -6.527701
25.025408 -56.524788 -7.787255
24.423147 -55.948299 -11.22771
24.121508 -55.730511 -12.917194
26.953741 -37.466881 -17.167065
25.590096 -39.868164 -18.698154
31.095629 -41.676731 -0.613701
29.956615 -44.245342 -2.515646
28.705404 -46.837624 -4.592784
28.981041 -47.177509 -2.681294
27.063635 -45.088772 -12.591047
26.57453 -44.282005 -14.490727
25.905823 -47.36409 -14.14996
24.804016 -49.951862 -15.509103
23.88727 -52.299625 -16.80759
25.869738 -43.650383 -16.520096
25.108717 -43.010796 -18.400393
24.245596 -42.421883 -20.226137
23.153423 -44.781055 -21.507366
23.278286 -41.553505 -22.078821
22.204939 -40.920933 -23.828941
23.808561 -60.367496 -9.106874
29.126173 -39.433975 -11.248112
33.074371 -35.082874 -0.702487
29.813156 -39.562599 -9.12514
28.426571 -42.382648 -10.863597
27.581997 -45.493073 -10.652847
26.783024 -48.431049 -10.37763
25.988726 -51.282478 -10.148618
27.478479 -49.309689 -6.535113
26.30698 -51.670593 -8.372715
25.283615 -53.87989 -9.914827
24.695171 -56.258755 -9.587012
24.222437 -58.382217 -9.255693
23.390645 -60.930498 -10.832397
23.493453 -60.829037 -10.258375
27.506318 -41.61504 -13.858251
27.878197 -39.953485 -14.029474
28.22146 -40.190382 -13.043872
24.689744 -37.660023 -20.897368
25.26466 -38.000616 -19.898953
24.035558 -38.842888 -21.547752
24.162922 -37.246792 -21.805787
24.689744 -37.660023 -20.897368
23.577675 -50.154194 -18.839475
24.026204 -48.976974 -18.185789
23.849176 -50.587806 -17.950221
23.82805 -58.090426 -11.618339
24.073425 -56.957279 -11.788293
24.177772 -57.081446 -11.057756
30.579928 -43.325088 -0.572935
31.161061 -41.95257 0.481605
30.010421 -44.609394 -1.523907
30.526122 -42.961036 -1.564674
30.579928 -43.325088 -0.572935
29.522634 -46.075478 -1.606731
29.468828 -45.711426 -2.59847
30.010421 -44.609394 -1.523907
23.992124 -55.551026 -13.708687
23.789293 -56.832018 -13.415771
22.241982 -36.295578 -24.613922
22.903575 -36.641019 -23.696873
21.588108 -37.323207 -25.229478
22.241982 -36.295578 -24.613922
22.699855 -44.386074 -22.362043
22.700093 -45.962294 -22.064662
22.762287 -42.772299 -22.64777
23.215854 -43.16728 -21.793094
22.699855 -44.386074 -22.362043
22.225614 -42.456013 -23.52283
22.741613 -41.237219 -22.953881
22.762287 -42.772299 -22.64777
29.862827 -37.947778 -10.329375
29.563495 -37.703432 -11.335141
32.611284 -36.697939 -0.607682
33.155966 -35.301485 0.424988
32.692879 -36.91655 0.519792
32.355567 -36.263178 -2.884971
31.742419 -37.630482 -3.900031
24.357845 -58.558779 -8.462706
24.623922 -57.453502 -8.521474
24.759331 -57.630064 -7.728486
24.150908 -59.551418 -8.388296
24.015499 -59.374856 -9.181283
24.357845 -58.558779 -8.462706
23.48514 -60.104563 -11.137547
23.649677 -59.171413 -11.367374
23.76786 -59.147742 -10.657975
23.48514 -60.104563 -11.137547
23.390645 -60.930498 -10.832397
28.198716 -38.288755 -14.225297
28.540878 -36.751329 -14.347913
27.483574 -39.713413 -15.039675
28.198716 -38.288755 -14.225297
27.878197 -39.953485 -14.029474
23.505907 -36.951014 -22.80019
24.162922 -37.246792 -21.805787
22.906405 -38.119663 -23.352854
22.903575 -36.641019 -23.696873
23.505907 -36.951014 -22.80019
31.108877 -38.997664 -4.932335
31.742419 -37.630482 -3.900031
31.243337 -39.272261 -3.902075
30.396292 -40.488098 -5.996004
30.895374 -38.846319 -5.993961
31.108877 -38.997664 -4.932335
26.769134 -52.25684 -5.549224
27.196819 -50.888775 -5.550806
27.340426 -51.125225 -4.572328
26.280493 -53.255094 -6.410025
26.769134 -52.25684 -5.549224
25.755007 -54.377702 -7.23172
26.100043 -53.142998 -7.349396
26.280493 -53.255094 -6.410025
25.480432 -55.507294 -7.039803
25.299983 -55.395197 -7.979173
25.755007 -54.377702 -7.23172
25.134618 -56.825138 -6.96206
25.480432 -55.507294 -7.039803
24.759331 -57.630064 -7.728486
25.134618 -56.825138 -6.96206
23.922605 -56.848385 -12.633035
24.272327 -55.839405 -12.072452
24.073425 -56.957279 -11.788293
23.789293 -56.832018 -13.415771
23.922605 -56.848385 -12.633035
23.82805 -58.090426 -11.618339
23.649677 -59.171413 -11.367374
28.11345 -36.429222 -15.399804
28.540878 -36.751329 -14.347913
27.688274 -36.138321 -16.365587
28.11345 -36.429222 -15.399804
27.378918 -37.757782 -16.201282
27.167793 -35.897987 -17.418705
27.688274 -36.138321 -16.365587
26.460341 -37.105997 -18.16282
27.167793 -35.897987 -17.418705
25.778518 -38.306639 -18.928365
26.460341 -37.105997 -18.16282
26.271918 -38.667523 -17.932609
25.076238 -39.562141 -19.668743
25.26466 -38.000616 -19.898953
25.778518 -38.306639 -18.928365
32.191023 -38.622541 0.53096
32.692879 -36.91655 0.519792
31.664739 -40.304405 0.480548
31.161061 -41.95257 0.481605
31.621913 -39.994867 -0.563289
32.191023 -38.622541 0.53096
31.664739 -40.304405 0.480548
29.065161 -47.504842 -1.63809
29.522634 -46.075478 -1.606731
28.513383 -48.656284 -2.664745
29.065161 -47.504842 -1.63809
27.906917 -49.946109 -3.611053
28.374575 -48.467334 -3.627602
28.513383 -48.656284 -2.664745
27.340426 -51.125225 -4.572328
27.906917 -49.946109 -3.611053
23.643958 -52.032325 -17.705748
23.849176 -50.587806 -17.950221
24.092488 -50.855106 -17.052062
24.266038 -54.229754 -13.923825
24.395422 -54.409239 -13.132331
23.992124 -55.551026 -13.708687
24.092228 -54.032341 -14.76397
24.495526 -52.890555 -14.187615
24.266038 -54.229754 -13.923825
23.935608 -53.866672 -15.581547
24.092228 -54.032341 -14.76397
23.718385 -53.669914 -16.471462
24.104493 -52.496384 -15.917676
23.935608 -53.866672 -15.581547
23.536838 -53.462549 -17.323963
23.718385 -53.669914 -16.471462
23.367953 -54.832838 -16.987835
23.643958 -52.032325 -17.705748
23.536838 -53.462549 -17.323963
23.325906 -49.772738 -19.671874
23.577675 -50.154194 -18.839475
23.416662 -48.140163 -19.964555
23.325906 -49.772738 -19.671874
22.987863 -49.369539 -20.561386
23.557938 -46.603544 -20.234348
23.89598 -47.006743 -19.344836
23.416662 -48.140163 -19.964555
23.116021 -46.25901 -21.180717
22.700093 -45.962294 -22.064662
23.59534 -45.125589 -20.560998
23.557938 -46.603544 -20.234348
23.116021 -46.25901 -21.180717
21.684145 -42.044702 -24.413272
22.225614 -42.456013 -23.52283
21.626106 -40.386896 -24.70373
21.684145 -42.044702 -24.413272
21.675674 -38.831264 -24.914027
22.254506 -39.365301 -24.039239
21.626106 -40.386896 -24.70373
21.588108 -37.323207 -25.229478
21.675674 -38.831264 -24.914027
23.927269 -60.622498 -8.385153
24.150908 -59.551418 -8.388296
23.660809 -61.284172 -9.079311
23.927269 -60.622498 -8.385153
23.596072 -60.97234 -9.597738
23.660809 -61.284172 -9.079311
28.859755 -38.981401 -12.231604
29.563495 -37.703432 -11.335141
28.487877 -40.642955 -12.060381
28.22146 -40.190382 -13.043872
28.859755 -38.981401 -12.231604
33.633251 -33.623327 0.511556
33.155966 -35.301485 0.424988
33.514457 -33.502798 -0.713801
33.633251 -33.623327 0.511556
32.954313 -34.852075 -1.801329
32.475625 -36.493977 -1.786129
32.355567 -36.263178 -2.884971
33.514457 -33.502798 -0.713801
32.954313 -34.852075 -1.801329
30.63527 -38.754603 -7.115158
30.895374 -38.846319 -5.993961
30.450454 -38.367525 -8.148914
30.63527 -38.754603 -7.115158
29.997972 -39.949676 -8.091385
30.206318 -38.01209 -9.267889
30.450454 -38.367525 -8.148914
29.469665 -39.498287 -10.186626
29.862827 -37.947778 -10.329375
30.206318 -38.01209 -9.267889
23.596072 -60.97234 -9.597738
23.493453 -60.829037 -10.258375
23.705942 -60.224193 -9.767511
3 68 67 16
3 0 69 71
3 69 18 70
3 69 70 71
3 1 21 19
3 2 72 73
3 2 74 76
3 74 22 75
3 74 75 76
3 77 25 78
3 79 78 23
3 77 78 79
3 3 28 26
3 3 30 28
3 3 32 30
3 4 80 82
3 82 81 35
3 80 81 82
3 5 37 17
3 5 38 37
3 83 39 84
3 85 40 86
3 87 86 39
3 85 86 87
3 88 42 89
3 90 89 40
3 88 89 90
3 8 45 43
3 10 46 20
3 10 47 46
3 92 91 36
3 11 93 94
3 11 95 96
3 9 48 44
3 12 49 24
3 12 50 49
3 97 51 98
3 99 52 100
3 101 100 51
3 99 100 101
3 102 53 103
3 104 103 52
3 102 103 104
3 105 55 106
3 6 107 109
3 107 56 108
3 107 108 109
3 111 110 27
3 13 57 29
3 13 58 57
3 13 59 58
3 14 60 31
3 14 61 60
3 7 62 41
3 15 63 33
3 15 64 63
3 15 65 64
3 112 66 113
3 114 113 34
3 112 113 114
3 115 54 116
3 117 116 66
3 115 116 117
3 16 118 120
3 120 119 4
3 118 119 120
3 122 121 16
3 123 17 124
3 18 125 127
3 125 17 126
3 125 126 127
3 18 5 17
3 19 20 8
3 21 20 19
3 21 10 20
3 22 128 129
3 22 130 132
3 130 11 131
3 130 131 132
3 23 24 9
3 25 24 23
3 25 12 24
3 26 27 6
3 28 27 26
3 28 133 135
3 135 134 27
3 133 134 135
3 28 136 138
3 136 29 137
3 136 137 138
3 30 29 28
3 30 13 29
3 30 31 13
3 32 31 30
3 32 14 31
3 139 33 140
3 141 140 7
3 139 140 141
3 142 33 143
3 144 15 145
3 146 145 33
3 144 145 146
3 147 34 148
3 149 148 15
3 147 148 149
3 150 34 151
3 153 152 34
3 35 36 1
3 154 36 155
3 156 155 35
3 154 155 156
3 158 157 36
3 160 159 4
3 17 161 162
3 37 163 165
3 165 164 17
3 163 164 165
3 37 166 167
3 37 168 169
3 38 170 172
3 172 171 37
3 170 171 172
3 38 173 175
3 173 2 174
3 173 174 175
3 176 6 177
3 39 178 179
3 39 180 182
3 180 6 181
3 180 181 182
3 39 26 6
3 40 26 39
3 40 3 26
3 40 41 3
3 42 41 40
3 42 7 41
3 183 42 184
3 185 42 186
3 187 7 188
3 189 188 42
3 187 188 189
3 191 190 7
3 43 44 0
3 45 44 43
3 45 9 44
3 20 45 8
3 46 45 20
3 46 9 45
3 46 23 9
3 47 23 46
3 47 192 194
3 194 193 23
3 192 193 194
3 36 21 1
3 195 21 196
3 197 196 36
3 195 196 197
3 198 10 199
3 200 199 21
3 198 199 200
3 201 10 202
3 203 47 204
3 205 204 10
3 203 204 205
3 206 47 207
3 206 207 208
3 210 209 47
3 44 18 0
3 48 18 44
3 48 5 18
3 24 48 9
3 49 48 24
3 49 5 48
3 49 38 5
3 50 38 49
3 50 2 38
3 211 25 212
3 213 25 214
3 213 214 215
3 216 12 217
3 218 217 25
3 216 217 218
3 51 219 220
3 51 221 223
3 221 12 222
3 221 222 223
3 51 50 12
3 52 50 51
3 52 2 50
3 52 22 2
3 53 22 52
3 53 11 22
3 224 53 225
3 226 53 227
3 228 11 229
3 230 229 53
3 228 229 230
3 232 231 11
3 233 54 234
3 235 54 236
3 238 237 54
3 55 239 240
3 55 241 243
3 241 0 242
3 241 242 243
3 56 244 245
3 56 246 247
3 27 56 6
3 248 56 249
3 250 249 27
3 248 249 250
3 252 251 56
3 29 253 254
3 57 255 257
3 257 256 29
3 255 256 257
3 57 258 259
3 57 260 262
3 260 55 261
3 260 261 262
3 58 55 57
3 58 0 55
3 58 43 0
3 59 43 58
3 59 8 43
3 31 59 13
3 60 59 31
3 60 8 59
3 60 19 8
3 61 19 60
3 61 1 19
3 41 32 3
3 62 32 41
3 62 14 32
3 33 62 7
3 63 62 33
3 63 14 62
3 63 61 14
3 64 61 63
3 64 1 61
3 64 35 1
3 65 35 64
3 65 4 35
3 34 65 15
3 66 65 34
3 66 4 65
3 66 16 4
3 54 16 66
3 54 263 265
3 265 264 16
3 263 264 265
