ply
format ascii 1.0
element vertex 169
property float x
property float y
property float z
element face 158
property list uchar int vertex_index
end_header
-10.136556 -96.101494 -24.153463
-10.308064 -93.674995 -30.995928
-6.981666 -98.920975 -25.467503
-6.212714 -98.573402 -29.210302
-10.333289 -95.218246 -27.273064
-11.830182 -94.147476 -20.831543
-13.161286 -92.410057 -24.550459
-8.186522 -97.99427 -21.458412
1.120807 -104.618324 -22.608416
-3.961634 -101.469757 -22.27006
-13.919643 -90.553543 -28.0872
-8.793118 -97.379295 -24.736748
-8.593131 -97.250694 -26.489508
-10.147416 -95.859627 -25.582176
-8.270576 -96.263908 -30.149776
-8.270308 -95.224236 -32.037449
-10.36563 -92.441185 -32.885384
-13.690388 -91.83149 -20.672955
-6.155303 -99.767136 -21.715399
-14.88046 -90.0868 -24.597361
-13.488619 -91.648651 -26.313354
-4.874846 -100.550201 -25.970016
-6.557737 -98.907082 -27.301277
-8.375423 -96.938271 -28.266239
-10.192053 -94.709595 -29.121645
-10.919381 -95.279625 -22.723444
-11.484104 -94.537994 -24.312798
-12.565663 -93.313286 -22.707804
-14.292293 -91.062042 -22.634031
-10.047502 -96.143867 -21.125828
-9.255457 -97.035355 -22.988289
-0.593443 -103.577621 -24.694206
-1.572693 -103.079559 -22.597624
-2.99217 -102.08815 -24.481449
-5.428558 -100.34082 -23.980165
-7.476624 -98.672089 -23.432261
-11.759515 -93.920967 -25.947567
-12.035379 -93.06752 -27.771343
-12.107747 -92.233589 -29.659866
-14.144505 -89.493286 -29.965118
-12.448741 -90.859703 -31.505774
-12.602352 -89.52639 -33.268539
-15.172552 -89.492524 -25.566674
-15.789823 -88.762719 -24.669822
-5.099166 -99.302642 -29.573539
-5.317176 -99.500156 -28.603659
-14.885715 -90.231434 -21.692138
-13.99134 -91.446766 -21.653493
-14.584762 -90.616158 -20.711601
-15.199285 -89.779575 -22.689681
-14.885715 -90.231434 -21.692138
-10.938842 -95.145671 -20.978685
-10.542662 -95.493732 -20.05131
-11.434003 -94.495537 -19.904168
1.510671 -104.747658 -23.743404
2.452252 -105.236004 -22.763889
0.263682 -104.097972 -23.651311
0.653547 -104.227306 -24.786299
1.510671 -104.747658 -23.743404
-2.767164 -102.274658 -22.433842
-2.002991 -102.748649 -21.504458
-3.197462 -101.943748 -21.340675
-14.308619 -88.778087 -30.902272
-15.127263 -88.058551 -30.141084
-13.460736 -89.461296 -31.6726
-13.296623 -90.176494 -30.735446
-14.308619 -88.778087 -30.902272
-13.537542 -88.79464 -32.553982
-12.525547 -90.193047 -32.387156
-13.460736 -89.461296 -31.6726
-7.19989 -97.001285 -30.640646
-6.170959 -98.156033 -30.170909
-7.241645 -97.418655 -29.680039
-7.199756 -96.481449 -31.584483
-7.19989 -97.001285 -30.640646
-8.270442 -95.744072 -31.093612
-7.088532 -96.009106 -32.49435
-7.199756 -96.481449 -31.584483
-8.215061 -94.632008 -32.951814
-7.088532 -96.009106 -32.49435
-9.262722 -93.240482 -33.375782
-8.215061 -94.632008 -32.951814
-9.317969 -93.832711 -32.461416
-10.399841 -91.741013 -33.743376
-9.262722 -93.240482 -33.375782
-13.273264 -92.263267 -19.702523
-12.760285 -92.989483 -20.752249
-12.34316 -93.42126 -19.781816
-14.178721 -91.091568 -19.670018
-13.273264 -92.263267 -19.702523
-14.584762 -90.616158 -20.711601
-14.178721 -91.091568 -19.670018
-12.34316 -93.42126 -19.781816
-11.434003 -94.495537 -19.904168
1.957898 -104.988239 -21.525404
2.452252 -105.236004 -22.763889
-4.354816 -101.099671 -21.102044
-3.197462 -101.943748 -21.340675
-5.45165 -100.24836 -20.824714
-5.058469 -100.618447 -21.99273
-4.354816 -101.099671 -21.102044
-6.590177 -99.31046 -20.694559
-5.45165 -100.24836 -20.824714
-7.605787 -98.424026 -20.566066
-7.170913 -98.880703 -21.586906
-6.590177 -99.31046 -20.694559
-14.476631 -90.273449 -26.424671
-14.184539 -90.867726 -25.455357
-15.172552 -89.492524 -25.566674
-14.692143 -89.725895 -27.311594
-13.704131 -91.101097 -27.200277
-14.476631 -90.273449 -26.424671
-4.648242 -100.488556 -26.983516
-3.686333 -101.33358 -26.298766
-5.489688 -99.666996 -27.649146
-4.648242 -100.488556 -26.983516
-5.716292 -99.728642 -26.635647
-6.385226 -98.740242 -28.255789
-5.317176 -99.500156 -28.603659
-5.489688 -99.666996 -27.649146
-5.099166 -99.302642 -29.573539
-6.170959 -98.156033 -30.170909
-15.493368 -89.291954 -23.671346
-14.586377 -90.574421 -23.615696
-15.199285 -89.779575 -22.689681
-15.789823 -88.762719 -24.669822
-15.493368 -89.291954 -23.671346
-8.614031 -97.47773 -20.405896
-7.605787 -98.424026 -20.566066
-9.544521 -96.552528 -20.239604
-10.542662 -95.493732 -20.05131
-9.117012 -97.069069 -21.29212
-8.614031 -97.47773 -20.405896
-9.544521 -96.552528 -20.239604
-0.256373 -103.606105 -25.729546
0.653547 -104.227306 -24.786299
-1.545632 -102.84729 -25.660861
-0.256373 -103.606105 -25.729546
0.598972 -104.288826 -21.532432
1.957898 -104.988239 -21.525404
-0.747778 -103.519443 -21.527036
-2.002991 -102.748649 -21.504458
-0.225943 -103.848941 -22.60302
0.598972 -104.288826 -21.532432
-0.747778 -103.519443 -21.527036
-2.744995 -102.102554 -25.554482
-1.545632 -102.84729 -25.660861
-1.792807 -102.832886 -24.587828
-3.933508 -101.319176 -25.225732
-3.686333 -101.33358 -26.298766
-2.744995 -102.102554 -25.554482
-14.860743 -89.205487 -28.245065
-14.692143 -89.725895 -27.311594
-14.973174 -88.675358 -29.184024
-15.127263 -88.058551 -30.141084
-14.032074 -90.023415 -29.026159
-14.860743 -89.205487 -28.245065
-14.973174 -88.675358 -29.184024
-11.518202 -90.283615 -33.934953
-10.399841 -91.741013 -33.743376
-11.483991 -90.983788 -33.076961
-13.692248 -88.001503 -33.43925
-13.537542 -88.79464 -32.553982
-14.627439 -87.269753 -32.724694
-12.615686 -88.823803 -34.13269
-13.692248 -88.001503 -33.43925
-11.531536 -89.581028 -34.799104
-11.518202 -90.283615 -33.934953
-12.615686 -88.823803 -34.13269
3 0 13 11
3 1 15 14
3 1 16 15
3 43 42 19
3 2 22 21
3 4 23 12
3 4 24 23
3 3 44 45
3 5 27 25
3 46 28 47
3 48 47 17
3 46 47 48
3 50 49 28
3 5 51 53
3 51 29 52
3 51 52 53
3 5 25 29
3 8 54 55
3 8 56 58
3 56 31 57
3 56 57 58
3 9 59 61
3 59 32 60
3 59 60 61
3 9 33 32
3 9 34 33
3 7 35 18
3 7 30 35
3 6 36 26
3 10 37 20
3 10 38 37
3 62 39 63
3 64 40 65
3 66 65 39
3 64 65 66
3 67 41 68
3 69 68 40
3 67 68 69
3 11 12 2
3 13 12 11
3 13 4 12
3 14 70 72
3 72 71 3
3 70 71 72
3 15 73 75
3 75 74 14
3 73 74 75
3 15 76 77
3 15 78 79
3 16 80 82
3 82 81 15
3 80 81 82
3 16 83 84
3 85 17 86
3 87 86 5
3 85 86 87
3 88 17 89
3 91 90 17
3 92 5 93
3 94 8 95
3 96 9 97
3 98 18 99
3 100 99 9
3 98 99 100
3 101 18 102
3 103 7 104
3 105 104 18
3 103 104 105
3 19 20 6
3 106 20 107
3 108 107 19
3 106 107 108
3 109 10 110
3 111 110 20
3 109 110 111
3 21 112 113
3 22 114 116
3 116 115 21
3 114 115 116
3 22 117 119
3 117 3 118
3 117 118 119
3 12 22 2
3 23 22 12
3 23 3 22
3 23 14 3
3 24 14 23
3 24 1 14
3 121 120 3
3 25 26 0
3 27 26 25
3 27 6 26
3 17 27 5
3 28 27 17
3 28 6 27
3 28 19 6
3 122 19 123
3 124 123 28
3 122 123 124
3 126 125 19
3 127 7 128
3 29 129 130
3 29 131 133
3 131 7 132
3 131 132 133
3 29 30 7
3 25 30 29
3 25 0 30
3 31 134 135
3 31 136 137
3 138 8 139
3 32 140 141
3 32 142 144
3 142 8 143
3 142 143 144
3 32 31 8
3 33 31 32
3 33 145 147
3 147 146 31
3 145 146 147
3 33 148 150
3 148 21 149
3 148 149 150
3 34 21 33
3 34 2 21
3 18 34 9
3 35 34 18
3 35 2 34
3 35 11 2
3 30 11 35
3 30 0 11
3 26 13 0
3 36 13 26
3 36 4 13
3 20 36 6
3 37 36 20
3 37 4 36
3 37 24 4
3 38 24 37
3 38 1 24
3 151 10 152
3 39 153 154
3 39 155 157
3 155 10 156
3 155 156 157
3 39 38 10
3 40 38 39
3 40 1 38
3 40 16 1
3 41 16 40
3 41 158 160
3 160 159 16
3 158 159 160
3 161 41 162
3 161 162 163
3 164 41 165
3 168 167 41
3 166 167 168
