ply
format ascii 1.0
element vertex 107
property float x
property float y
property float z
element face 88
property list uchar int vertex_index
end_header
-39.240383 -2.015003 -32.002193
-40.271809 -6.003226 -31.156153
-38.908882 -5.160671 -28.373888
-40.433952 -3.765021 -34.538658
-39.292267 -8.756786 -26.373749
-39.468349 -7.03804 -28.043955
-38.621994 -6.817647 -26.51235
-39.838665 -4.087892 -31.607931
-40.380497 -4.879296 -32.820217
-39.881004 -2.57876 -33.388493
-38.528267 -0.05176 -32.306358
-39.32312 -0.430967 -33.991886
-40.622204 -7.94486 -30.70755
-40.158463 -7.430519 -29.498936
-39.697853 -5.507413 -29.868782
-39.09882 -3.548468 -30.177135
-38.17041 -3.314109 -28.531826
-38.322792 -1.60382 -30.343061
-37.437901 0.400145 -30.614351
-38.503475 -7.709229 -25.63946
-38.957131 -7.787216 -26.44305
-38.838611 -8.678798 -25.57016
-38.838611 -8.678798 -25.57016
-39.213865 -9.682436 -25.558903
-38.583365 0.748669 -33.339935
-38.122704 0.987234 -32.550593
-40.087206 -8.169017 -28.728402
-40.348927 -8.344112 -29.401964
-37.711475 -2.396323 -28.560119
-37.584192 -3.248836 -27.649415
-37.787667 -1.541179 -29.465736
-38.246601 -2.458964 -29.437444
-37.711475 -2.396323 -28.560119
-37.345221 -0.539196 -29.601381
-37.880347 -0.601838 -30.478706
-37.787667 -1.541179 -29.465736
-40.490986 -6.494393 -31.65952
-40.666184 -7.46521 -31.435219
-40.447007 -6.974043 -30.931852
-40.610841 -4.942804 -34.17268
-40.584114 -5.499941 -33.31346
-40.407224 -4.322159 -33.679437
-40.626785 -4.460698 -35.084831
-40.610841 -4.942804 -34.17268
-39.655678 -0.945723 -34.639717
-39.379404 0.159384 -34.965961
-39.380308 -7.897413 -27.208852
-39.742149 -7.972777 -28.000911
-39.654108 -8.832151 -27.165808
-39.581215 -9.730931 -26.355331
-39.213865 -9.682436 -25.558903
-39.654108 -8.832151 -27.165808
-39.581215 -9.730931 -26.355331
-38.980791 0.559065 -34.182699
-38.925694 -0.241364 -33.149122
-38.583365 0.748669 -33.339935
-39.379404 0.159384 -34.965961
-38.980791 0.559065 -34.182699
-40.580798 -8.601282 -30.00627
-40.72159 -8.678241 -30.536144
-40.390333 -7.68769 -30.103243
-40.580798 -8.601282 -30.00627
-40.348927 -8.344112 -29.401964
-39.813406 -7.234279 -28.771445
-40.087206 -8.169017 -28.728402
-39.742149 -7.972777 -28.000911
-38.127688 -6.807663 -25.694822
-38.503475 -7.709229 -25.63946
-38.261385 -5.917473 -26.594575
-38.127688 -6.807663 -25.694822
-38.404829 -5.088985 -27.525344
-38.765438 -5.989159 -27.443119
-38.261385 -5.917473 -26.594575
-38.035593 -4.165704 -27.604313
-37.584192 -3.248836 -27.649415
-38.539646 -4.23739 -28.452857
-38.404829 -5.088985 -27.525344
-38.035593 -4.165704 -27.604313
-37.57752 1.213187 -31.704589
-38.122704 0.987234 -32.550593
-37.983084 0.174192 -31.460355
-36.880976 0.435797 -29.786494
-37.345221 -0.539196 -29.601381
-36.973278 1.372666 -30.814534
-36.880976 0.435797 -29.786494
-36.416353 1.408318 -29.986677
-37.57752 1.213187 -31.704589
-36.973278 1.372666 -30.814534
-40.77256 -8.388434 -31.13796
-40.72159 -8.678241 -30.536144
-40.77256 -8.388434 -31.13796
-40.666184 -7.46521 -31.435219
-40.54533 -5.932428 -32.491552
-40.490986 -6.494393 -31.65952
-40.326153 -5.441261 -31.988185
-40.54533 -5.932428 -32.491552
-40.584114 -5.499941 -33.31346
-39.934619 -2.01962 -34.33802
-39.602062 -1.504863 -33.69019
-39.655678 -0.945723 -34.639717
-40.211094 -2.61275 -34.913103
-40.157478 -3.17189 -33.963575
-39.934619 -2.01962 -34.33802
-40.46158 -3.26352 -35.513603
-40.211094 -2.61275 -34.913103
-40.626785 -4.460698 -35.084831
-40.46158 -3.26352 -35.513603
3 19 6 20
3 21 20 4
3 19 20 21
3 22 4 23
3 0 9 7
3 25 24 10
3 26 13 27
3 2 14 5
3 2 15 14
3 28 16 29
3 30 17 31
3 32 31 16
3 30 31 32
3 33 18 34
3 35 34 17
3 33 34 35
3 1 36 38
3 38 37 12
3 36 37 38
3 3 39 41
3 41 40 8
3 39 40 41
3 3 42 43
3 45 44 11
3 4 46 48
3 46 5 47
3 46 47 48
3 6 5 4
3 6 2 5
3 4 49 50
3 4 51 52
3 7 8 1
3 9 8 7
3 9 3 8
3 10 11 0
3 53 11 54
3 55 54 10
3 53 54 55
3 57 56 11
3 58 12 59
3 13 60 62
3 60 12 61
3 60 61 62
3 13 1 12
3 5 63 65
3 63 13 64
3 63 64 65
3 14 13 5
3 14 1 13
3 14 7 1
3 15 7 14
3 15 0 7
3 66 6 67
3 68 6 69
3 70 2 71
3 72 71 6
3 70 71 72
3 16 73 74
3 16 75 77
3 75 2 76
3 75 76 77
3 16 15 2
3 17 15 16
3 17 0 15
3 17 10 0
3 18 10 17
3 18 78 80
3 80 79 10
3 78 79 80
3 81 18 82
3 83 18 84
3 83 84 85
3 87 86 18
3 12 88 89
3 91 90 12
3 8 92 94
3 94 93 1
3 92 93 94
3 96 95 8
3 11 9 0
3 97 9 98
3 99 98 11
3 97 98 99
3 100 3 101
3 102 101 9
3 100 101 102
3 103 3 104
3 106 105 3
