ply
format ascii 1.0
element vertex 291
property float x
property float y
property float z
element face 288
property list uchar int vertex_index
end_header
14.57519 40.555191 -17.374008
13.616772 63.721127 -29.478897
18.19656 53.280712 -17.263811
22.180426 50.754559 -12.457651
17.848545 65.371368 -22.929783
14.636176 53.064007 -22.716206
20.23797 58.714775 -17.024744
20.22164 52.321171 -14.792441
18.133541 59.228004 -19.883966
11.725621 61.951031 -32.902924
12.78918 57.141319 -29.257292
14.6113 46.744373 -19.787746
13.519922 46.53767 -22.840754
13.568707 40.304974 -20.181709
16.216801 47.156544 -17.219398
16.022404 40.050598 -14.947287
17.969681 46.319054 -14.927681
15.74374 64.860641 -26.065336
14.371665 58.862766 -26.065094
16.239489 59.5797 -22.878349
16.312969 53.503117 -19.834763
20.151924 61.73027 -18.236612
12.013418 65.333847 -32.907845
12.64622 63.140968 -31.237436
12.331841 59.79958 -31.124735
13.137113 60.561111 -29.457836
14.55934 43.637192 -18.582399
14.000788 43.633606 -19.9786
14.000315 40.540554 -18.764048
13.614765 37.237362 -19.005957
17.163034 50.274097 -17.262556
17.076397 46.846458 -16.039871
18.148699 49.876629 -15.999745
21.20487 51.486485 -13.590063
20.123447 48.835987 -13.790211
21.206051 48.044014 -12.649862
16.781414 65.304855 -24.55039
16.071316 62.239033 -24.396055
17.105888 62.588253 -22.8846
18.242468 56.297394 -18.46217
17.229429 56.566132 -19.915546
17.234175 53.539322 -18.546772
16.208885 50.32951 -18.556698
9.939366 62.668015 -36.457111
14.530756 56.009827 -24.395248
13.796035 55.35516 -25.859201
13.933605 52.487541 -24.181986
13.191743 43.185295 -23.10483
19.274225 55.957729 -17.104431
19.195576 52.60083 -15.918395
20.250637 55.406349 -15.817501
21.28142 54.877392 -14.525978
18.087669 62.308872 -21.302843
19.118572 62.019691 -19.743494
19.175457 59.066166 -18.465439
10.985349 64.161018 -34.621441
10.821195 60.839413 -34.704174
11.515157 58.637833 -32.950748
12.083695 56.507374 -31.136007
14.675196 50.075207 -21.179207
13.996055 49.674023 -22.688522
14.037299 46.763893 -21.237043
13.546597 43.51091 -21.481443
13.284135 40.110252 -21.601994
15.297237 43.942677 -17.320148
15.247519 40.469807 -16.144688
16.062157 43.697437 -16.119675
16.900276 43.126747 -14.943327
19.125355 49.364151 -14.855288
18.941742 45.75832 -13.874448
14.669551 64.575035 -27.821325
14.066859 61.309525 -27.727379
15.066796 61.957108 -26.045341
15.245916 59.124676 -24.425308
15.393492 56.284443 -22.760935
17.190121 59.602352 -21.389267
16.315296 56.561348 -21.286615
15.425617 53.316936 -21.234964
15.403001 50.227158 -19.809736
15.327348 46.926277 -18.480412
13.513748 57.972019 -27.653648
13.123526 54.824585 -27.536762
13.404604 49.231842 -24.400188
14.566479 38.785927 -16.812998
14.299815 38.866571 -17.471083
13.341774 64.961546 -30.340692
13.890883 65.266284 -29.467343
13.131496 63.431048 -30.358166
12.856498 64.671467 -31.219962
13.341774 64.961546 -30.340692
14.299815 38.866571 -17.471083
14.012377 38.859253 -18.166103
14.287752 40.547872 -18.069028
22.219409 49.13361 -12.050231
21.732222 47.778337 -12.146337
21.693238 49.399287 -12.553757
17.670902 66.620979 -23.670807
18.224049 66.772316 -22.87106
17.314979 65.338111 -23.740087
17.137336 66.587723 -24.48111
17.670902 66.620979 -23.670807
9.499645 61.980822 -37.274711
9.98379 61.088114 -36.419534
13.071982 42.984051 -24.004461
13.138448 41.549557 -23.220323
21.691188 56.238153 -14.442685
21.250951 56.511202 -15.077025
21.722946 54.495339 -13.930405
21.691188 56.238153 -14.442685
19.540599 63.436477 -19.684006
19.015121 63.590065 -20.508269
12.634218 55.627859 -29.337972
12.281475 55.310886 -30.27733
12.436438 56.824347 -30.196649
13.45149 38.664607 -20.341604
13.309203 38.567245 -21.051747
13.426421 40.207613 -20.891852
13.528327 35.590414 -19.126836
13.662109 35.595682 -18.398624
17.909458 44.581952 -14.43278
17.374755 42.985798 -14.440603
17.434978 44.722901 -14.935504
19.500053 45.512773 -13.3558
19.532595 47.297154 -13.83233
20.090905 47.051607 -13.313681
18.9221 44.045858 -13.402876
19.500053 45.512773 -13.3558
15.518363 66.247268 -26.945894
16.052313 66.374966 -26.130599
15.206646 64.717838 -26.943331
14.981269 66.104466 -27.823889
15.518363 66.247268 -26.945894
15.613758 38.556606 -15.043856
15.226315 38.76621 -15.642556
15.634962 40.260203 -15.545987
13.214709 53.479902 -26.73682
13.459781 55.089872 -26.697981
13.550963 53.74519 -25.898039
12.949046 53.159679 -27.611314
13.214709 53.479902 -26.73682
20.729226 58.429894 -16.326407
20.681517 59.95838 -16.880983
20.549404 63.010047 -18.102736
20.057276 63.291767 -18.930566
20.638494 61.466127 -17.486918
20.549404 63.010047 -18.102736
21.035974 62.745904 -17.353041
20.681517 59.95838 -16.880983
20.194947 60.222522 -17.630678
20.638494 61.466127 -17.486918
12.540097 65.767906 -32.055166
12.12509 66.813523 -32.966198
12.329819 64.237408 -32.07264
12.540097 65.767906 -32.055166
12.856498 64.671467 -31.219962
13.819602 37.207657 -18.287058
13.80754 38.888958 -18.885002
14.012377 38.859253 -18.166103
13.662109 35.595682 -18.398624
13.819602 37.207657 -18.287058
20.632207 46.65562 -12.743507
20.090905 47.051607 -13.313681
20.664749 48.44 -13.220036
21.206816 46.346714 -12.237622
20.632207 46.65562 -12.743507
21.206816 46.346714 -12.237622
21.732222 47.778337 -12.146337
16.57115 66.597072 -25.373126
17.137336 66.587723 -24.48111
16.262577 65.082748 -25.307863
16.052313 66.374966 -26.130599
16.57115 66.597072 -25.373126
15.982643 38.256594 -14.473508
16.457791 39.879345 -14.422997
9.42202 63.629773 -37.292694
9.945501 64.293606 -36.470911
9.42202 63.629773 -37.292694
9.499645 61.980822 -37.274711
13.619749 52.31138 -25.059432
13.550963 53.74519 -25.898039
13.86482 53.921351 -25.020593
13.138931 44.63973 -23.865239
13.303021 46.315918 -23.733201
13.355832 44.861483 -22.972792
13.138931 44.63973 -23.865239
13.071982 42.984051 -24.004461
20.73556 56.77568 -15.722786
20.244304 57.060562 -16.421122
20.729226 58.429894 -16.326407
20.766029 55.14187 -15.17174
20.73556 56.77568 -15.722786
21.250951 56.511202 -15.077025
21.68467 52.799885 -13.462448
21.243145 53.181939 -14.058021
21.722946 54.495339 -13.930405
22.172449 52.433922 -12.896242
21.692648 51.120522 -13.023857
21.68467 52.799885 -13.462448
18.380108 65.265904 -22.101414
18.224049 66.772316 -22.87106
18.49967 63.734656 -21.287944
17.968107 63.84012 -22.116313
18.380108 65.265904 -22.101414
18.603121 62.164282 -20.523168
18.49967 63.734656 -21.287944
19.015121 63.590065 -20.508269
19.635248 61.87498 -18.990053
19.540599 63.436477 -19.684006
20.057276 63.291767 -18.930566
11.558346 66.353443 -33.823985
12.12509 66.813523 -32.966198
11.044312 65.767029 -34.680782
11.558346 66.353443 -33.823985
11.499384 64.747433 -33.764643
10.468493 65.040108 -35.553076
11.044312 65.767029 -34.680782
10.462357 63.414516 -35.539276
9.945501 64.293606 -36.470911
10.468493 65.040108 -35.553076
10.424705 60.173813 -35.543066
9.98379 61.088114 -36.419534
10.38028 61.753714 -35.580642
10.815137 59.122324 -34.710138
10.424705 60.173813 -35.543066
11.162119 58.021534 -33.833425
10.815137 59.122324 -34.710138
11.168176 59.738623 -33.827461
11.480759 57.020756 -32.965606
11.162119 58.021534 -33.833425
11.765028 55.955526 -32.058236
11.480759 57.020756 -32.965606
11.799426 57.572603 -32.043377
12.011863 54.780253 -31.201166
11.765028 55.955526 -32.058236
12.011863 54.780253 -31.201166
12.281475 55.310886 -30.27733
13.184643 40.012035 -22.468905
13.138448 41.549557 -23.220323
13.237939 41.647773 -22.353412
13.23679 38.530329 -21.86393
13.184643 40.012035 -22.468905
13.23679 38.530329 -21.86393
13.309203 38.567245 -21.051747
13.474519 37.1308 -19.753728
13.45149 38.664607 -20.341604
13.591736 38.771168 -19.593833
13.474519 37.1308 -19.753728
13.528327 35.590414 -19.126836
16.896728 41.41742 -14.421017
16.457791 39.879345 -14.422997
16.46134 41.588673 -14.945307
16.896728 41.41742 -14.421017
17.374755 42.985798 -14.440603
18.395488 44.301585 -13.906163
17.909458 44.581952 -14.43278
18.455711 46.038687 -14.401065
18.395488 44.301585 -13.906163
18.9221 44.045858 -13.402876
14.417272 65.693238 -28.638556
14.981269 66.104466 -27.823889
14.143161 64.148081 -28.650111
13.890883 65.266284 -29.467343
14.417272 65.693238 -28.638556
14.902644 38.743235 -16.198338
14.566479 38.785927 -16.812998
14.911354 40.512499 -16.759348
14.902644 38.743235 -16.198338
15.226315 38.76621 -15.642556
15.613758 38.556606 -15.043856
15.982643 38.256594 -14.473508
22.642569 52.067083 -12.262646
22.172449 52.433922 -12.896242
22.690935 50.48642 -11.888437
22.642569 52.067083 -12.262646
22.219409 49.13361 -12.050231
22.690935 50.48642 -11.888437
12.801391 54.469492 -28.477708
12.634218 55.627859 -29.337972
12.956353 55.982952 -28.397027
12.801391 54.469492 -28.477708
12.949046 53.159679 -27.611314
13.355248 50.683531 -25.168533
13.619749 52.31138 -25.059432
13.669104 50.859691 -24.291087
13.245362 47.663004 -24.512918
13.462263 47.884756 -23.620471
13.303021 46.315918 -23.733201
13.182683 48.966521 -25.234279
13.245362 47.663004 -24.512918
13.355248 50.683531 -25.168533
13.182683 48.966521 -25.234279
3 0 83 84
3 1 85 86
3 1 87 89
3 87 23 88
3 87 88 89
3 1 25 23
3 0 28 26
3 0 90 92
3 92 91 28
3 90 91 92
3 2 32 30
3 3 35 33
3 3 93 95
3 95 94 35
3 93 94 95
3 4 96 97
3 4 98 100
3 98 36 99
3 98 99 100
3 4 38 36
3 2 41 39
3 2 30 41
3 102 101 43
3 5 46 44
3 104 103 47
3 6 50 48
3 105 51 106
3 108 107 51
3 109 53 110
3 6 54 21
3 6 48 54
3 9 55 22
3 9 56 55
3 9 57 56
3 10 58 24
3 10 111 113
3 113 112 58
3 111 112 113
3 11 61 59
3 13 62 27
3 13 63 62
3 13 114 116
3 116 115 63
3 114 115 116
3 118 117 29
3 14 66 64
3 16 67 31
3 16 119 121
3 121 120 67
3 119 120 121
3 7 68 49
3 122 69 123
3 124 123 34
3 122 123 124
3 126 125 69
3 17 127 128
3 17 129 131
3 129 70 130
3 129 130 131
3 17 72 70
3 19 73 37
3 19 74 73
3 8 75 52
3 20 76 40
3 20 77 76
3 20 78 77
3 14 79 42
3 14 64 79
3 15 132 134
3 134 133 65
3 132 133 134
3 18 80 71
3 135 81 136
3 137 136 45
3 135 136 137
3 139 138 81
3 12 82 60
3 141 140 6
3 142 21 143
3 144 21 145
3 144 145 146
3 147 6 148
3 149 148 21
3 147 148 149
3 150 22 151
3 23 152 154
3 152 22 153
3 152 153 154
3 23 9 22
3 23 24 9
3 25 24 23
3 25 10 24
3 26 27 11
3 28 27 26
3 28 13 27
3 28 29 13
3 155 29 156
3 157 156 28
3 155 156 157
3 159 158 29
3 30 31 14
3 32 31 30
3 32 16 31
3 33 34 7
3 35 34 33
3 35 160 162
3 162 161 34
3 160 161 162
3 35 163 164
3 166 165 35
3 36 167 168
3 36 169 171
3 169 17 170
3 169 170 171
3 36 37 17
3 38 37 36
3 38 19 37
3 39 40 8
3 41 40 39
3 41 20 40
3 41 42 20
3 30 42 41
3 30 14 42
3 173 172 15
3 43 174 175
3 177 176 43
3 44 45 18
3 46 45 44
3 46 178 180
3 180 179 45
3 178 179 180
3 47 181 183
3 183 182 12
3 181 182 183
3 185 184 47
3 48 49 2
3 50 49 48
3 50 7 49
3 186 50 187
3 188 187 6
3 186 187 188
3 51 189 191
3 189 50 190
3 189 190 191
3 51 7 50
3 51 33 7
3 192 33 193
3 194 193 51
3 192 193 194
3 195 3 196
3 197 196 33
3 195 196 197
3 198 4 199
3 200 52 201
3 202 201 4
3 200 201 202
3 53 203 205
3 203 52 204
3 203 204 205
3 53 8 52
3 21 206 208
3 206 53 207
3 206 207 208
3 54 53 21
3 54 8 53
3 54 39 8
3 48 39 54
3 48 2 39
3 22 209 210
3 55 211 213
3 213 212 22
3 211 212 213
3 55 214 215
3 55 216 218
3 216 43 217
3 216 217 218
3 56 43 55
3 56 219 221
3 221 220 43
3 219 220 221
3 56 222 223
3 57 224 226
3 226 225 56
3 224 225 226
3 57 227 228
3 24 57 9
3 58 57 24
3 58 229 231
3 231 230 57
3 229 230 231
3 58 232 233
3 235 234 58
3 59 60 5
3 61 60 59
3 61 12 60
3 27 61 11
3 62 61 27
3 62 12 61
3 62 47 12
3 63 47 62
3 63 236 238
3 238 237 47
3 236 237 238
3 63 239 240
3 242 241 63
3 29 243 245
3 245 244 13
3 243 244 245
3 247 246 29
3 64 65 0
3 66 65 64
3 66 15 65
3 31 66 14
3 67 66 31
3 67 15 66
3 67 248 250
3 250 249 15
3 248 249 250
3 252 251 67
3 49 32 2
3 68 32 49
3 68 16 32
3 34 68 7
3 69 68 34
3 69 16 68
3 69 253 255
3 255 254 16
3 253 254 255
3 257 256 69
3 70 258 259
3 70 260 262
3 260 1 261
3 260 261 262
3 70 71 1
3 72 71 70
3 72 18 71
3 37 72 17
3 73 72 37
3 73 18 72
3 73 44 18
3 74 44 73
3 74 5 44
3 52 38 4
3 75 38 52
3 75 19 38
3 40 75 8
3 76 75 40
3 76 19 75
3 76 74 19
3 77 74 76
3 77 5 74
3 77 59 5
3 78 59 77
3 78 11 59
3 42 78 20
3 79 78 42
3 79 11 78
3 79 26 11
3 64 26 79
3 64 0 26
3 65 263 265
3 265 264 0
3 263 264 265
3 267 266 65
3 269 268 15
3 270 3 271
3 272 3 273
3 275 274 3
3 71 25 1
3 80 25 71
3 80 10 25
3 45 80 18
3 81 80 45
3 81 10 80
3 81 276 278
3 278 277 10
3 276 277 278
3 280 279 81
3 60 46 5
3 82 46 60
3 82 281 283
3 283 282 46
3 281 282 283
3 284 82 285
3 286 285 12
3 284 285 286
3 287 82 288
3 290 289 82
