ply
format ascii 1.0
element vertex 127
property float x
property float y
property float z
element face 115
property list uchar int vertex_index
end_header
-15.100258 75.685143 -28.206007
-12.48711 66.273621 -29.889446
-12.712161 76.065399 -32.195244
-13.857501 71.04628 -29.240585
-11.691688 71.301956 -33.050335
-15.834935 70.027657 -25.490309
-14.122559 65.401917 -26.403276
-11.407918 75.885155 -34.179047
-12.217752 73.75795 -32.703129
-10.990214 73.304268 -34.569389
-10.55768 70.834579 -34.834972
-16.185335 75.188866 -26.230818
-16.596291 72.157242 -24.902761
-15.597353 72.993469 -26.860346
-13.129295 68.877228 -29.736654
-14.034595 68.285751 -27.86471
-13.329105 65.981529 -28.137232
-13.930139 75.958214 -30.218752
-14.500572 73.472946 -28.846483
-13.448523 73.615318 -30.652956
-12.807647 71.415421 -31.171829
-12.18896 68.932205 -31.472622
-11.604223 66.272835 -31.636324
-11.222514 68.732826 -33.174057
-14.280143 78.287498 -29.660641
-13.028385 78.348747 -31.703077
-16.764822 69.329475 -23.680523
-15.923971 67.337746 -24.243851
-14.860387 70.702179 -27.392378
-14.941196 67.892677 -26.115395
-10.523949 74.402576 -35.319687
-11.199066 74.594711 -34.374218
-10.732801 75.69302 -35.124516
-10.375649 73.02013 -35.452662
-10.523949 74.402576 -35.319687
-12.54679 64.909209 -29.175016
-12.967788 64.763162 -28.298908
-12.908107 66.127575 -29.013339
-12.142983 64.950323 -30.047754
-12.54679 64.909209 -29.175016
-10.398508 69.494724 -34.81324
-9.998442 70.432853 -35.659414
-13.79465 79.521107 -30.278754
-14.460933 79.273006 -29.195657
-13.168772 79.551731 -31.299973
-13.654264 78.318123 -30.681859
-13.79465 79.521107 -30.278754
-14.55605 65.231506 -25.570141
-14.965369 66.476887 -25.426201
-14.531878 66.647297 -26.259335
-14.123075 63.976816 -25.722254
-14.55605 65.231506 -25.570141
-11.28224 64.926699 -31.830222
-11.146533 66.113987 -32.494946
-10.159382 71.785286 -35.585453
-10.773947 72.069423 -34.70218
-10.375649 73.02013 -35.452662
-9.998442 70.432853 -35.659414
-10.159382 71.785286 -35.585453
-16.390813 73.673054 -25.566789
-16.896665 73.284843 -24.582228
-16.691187 74.800656 -25.246257
-13.340561 64.489739 -27.421289
-13.737288 64.199933 -26.55431
-13.725832 65.691723 -27.270254
-13.340561 64.489739 -27.421289
-12.967788 64.763162 -28.298908
-10.955679 67.343983 -33.263813
-11.146533 66.113987 -32.494946
-11.413369 67.502831 -32.40519
-10.730925 68.443848 -33.982782
-10.890097 69.783703 -34.004514
-10.398508 69.494724 -34.81324
-10.955679 67.343983 -33.263813
-10.730925 68.443848 -33.982782
-16.414426 76.233857 -25.818776
-16.691187 74.800656 -25.246257
-15.865341 76.458237 -26.849871
-16.414426 76.233857 -25.818776
-15.322802 76.706376 -27.837466
-15.642796 75.437005 -27.218412
-15.865341 76.458237 -26.849871
-14.912745 78.007553 -28.564782
-14.460933 79.273006 -29.195657
-14.6902 76.986321 -28.933324
-15.322802 76.706376 -27.837466
-14.912745 78.007553 -28.564782
-12.475723 79.631065 -32.345355
-13.168772 79.551731 -31.299973
-12.371708 78.398685 -32.690707
-12.475723 79.631065 -32.345355
-12.213596 77.257012 -32.936791
-12.870273 77.207073 -31.949161
-12.371708 78.398685 -32.690707
-11.561474 77.166889 -33.928692
-12.06004 75.975277 -33.187145
-12.213596 77.257012 -32.936791
-10.882764 76.969716 -34.880367
-11.561474 77.166889 -33.928692
-10.732801 75.69302 -35.124516
-10.882764 76.969716 -34.880367
-17.051286 71.825165 -24.009039
-16.896665 73.284843 -24.582228
-17.135551 70.411282 -23.39792
-17.051286 71.825165 -24.009039
-16.680557 70.743358 -24.291642
-17.184464 68.936149 -22.844864
-17.135551 70.411282 -23.39792
-16.780199 67.801246 -23.041846
-17.184464 68.936149 -22.844864
-16.359773 66.805382 -23.32351
-16.780199 67.801246 -23.041846
-16.344396 68.33361 -23.962187
-15.888216 65.858593 -23.63153
-16.359773 66.805382 -23.32351
-15.456756 66.199421 -24.490429
-15.432583 67.615212 -25.179623
-14.965369 66.476887 -25.426201
-15.888216 65.858593 -23.63153
-15.456756 66.199421 -24.490429
-14.123075 63.976816 -25.722254
-13.737288 64.199933 -26.55431
-11.701539 64.94993 -30.921193
-12.142983 64.950323 -30.047754
-12.045666 66.273228 -30.762885
-11.701539 64.94993 -30.921193
-11.28224 64.926699 -31.830222
3 30 9 31
3 32 31 7
3 30 31 32
3 34 33 9
3 0 13 11
3 1 16 14
3 1 35 37
3 37 36 16
3 35 36 37
3 1 38 39
3 2 19 17
3 4 20 8
3 4 21 20
3 4 23 21
3 41 40 10
3 42 24 43
3 44 25 45
3 46 45 24
3 44 45 46
3 5 26 12
3 5 27 26
3 3 28 18
3 6 29 15
3 6 47 49
3 49 48 29
3 47 48 49
3 6 50 51
3 53 52 22
3 7 8 2
3 9 8 7
3 9 4 8
3 9 10 4
3 54 10 55
3 56 55 9
3 54 55 56
3 58 57 10
3 11 59 61
3 59 12 60
3 59 60 61
3 13 12 11
3 13 5 12
3 14 15 3
3 16 15 14
3 16 6 15
3 16 62 64
3 64 63 6
3 62 63 64
3 66 65 16
3 17 18 0
3 19 18 17
3 19 3 18
3 8 19 2
3 20 19 8
3 20 3 19
3 20 14 3
3 21 14 20
3 21 1 14
3 21 22 1
3 23 22 21
3 23 67 69
3 69 68 22
3 67 68 69
3 10 23 4
3 70 23 71
3 72 71 10
3 70 71 72
3 74 73 23
3 75 11 76
3 77 11 78
3 79 0 80
3 81 80 11
3 79 80 81
3 24 82 83
3 24 84 86
3 84 0 85
3 84 85 86
3 24 17 0
3 25 17 24
3 25 2 17
3 87 25 88
3 89 25 90
3 91 2 92
3 93 92 25
3 91 92 93
3 94 7 95
3 96 95 2
3 94 95 96
3 97 7 98
3 100 99 7
3 12 101 102
3 26 103 105
3 105 104 12
3 103 104 105
3 26 106 107
3 26 108 109
3 27 110 112
3 112 111 26
3 110 111 112
3 27 113 114
3 18 13 0
3 28 13 18
3 28 5 13
3 15 28 3
3 29 28 15
3 29 5 28
3 29 27 5
3 115 27 116
3 117 116 29
3 115 116 117
3 119 118 27
3 121 120 6
3 22 122 124
3 124 123 1
3 122 123 124
3 126 125 22
