ply
format ascii 1.0
element vertex 159
property float x
property float y
property float z
element face 142
property list uchar int vertex_index
end_header
-19.792305 77.683273 -14.415194
-21.89492 69.595612 -5.315943
-19.889597 75.147667 -17.594931
-21.348673 71.799477 -13.311667
-16.042833 84.701599 -11.064426
-18.947313 79.363457 -10.289655
-17.477592 83.075348 -15.45489
-21.057508 73.776772 -9.677334
-22.478725 67.981865 -9.298411
-15.059965 86.722534 -13.672577
-16.757576 84.113327 -13.311398
-22.295786 67.104195 -3.343911
-22.684589 66.759514 -5.421165
-19.503975 78.535561 -12.486132
-20.097431 76.639847 -10.106323
-20.504131 75.72982 -11.886512
-21.78817 68.861893 -12.985924
-21.93696 69.976273 -11.303857
-22.422909 66.914909 -11.005127
-19.922279 76.517921 -16.225636
-20.649185 74.835785 -13.918686
-20.643553 73.647041 -15.44956
-17.615314 82.080345 -10.7848
-18.23192 81.389519 -12.86313
-18.725861 80.464859 -14.731366
-17.829313 82.198723 -17.43203
-18.979362 79.450531 -16.801128
-19.095219 78.149376 -18.410395
-19.490252 77.321014 -7.840934
-20.556442 74.631485 -7.637829
-21.540514 71.646935 -7.466649
-21.306416 72.873886 -11.701124
-21.84729 70.908112 -9.436472
-22.311697 68.806465 -7.284722
-22.938154 65.994064 -7.316799
-15.479799 86.256317 -14.830365
-14.644696 87.462574 -15.034804
-22.095353 68.349904 -4.329927
-21.851005 68.457653 -3.221771
-21.650571 69.703361 -4.207787
-22.244897 66.444992 -11.834253
-22.105539 67.888401 -11.995525
-21.927528 67.418484 -12.824652
-22.569817 65.534088 -10.927723
-22.244897 66.444992 -11.834253
-16.829073 83.390972 -10.924613
-17.221259 82.32386 -9.566695
-16.435018 83.634487 -9.706508
-17.93658 81.631622 -18.337578
-17.354273 82.917816 -18.644526
-18.511605 80.257526 -18.022127
-18.404337 80.824627 -17.116579
-17.93658 81.631622 -18.337578
-18.569533 79.606949 -18.82676
-19.03729 78.799954 -17.605761
-18.511605 80.257526 -18.022127
-19.218783 78.342236 -9.065295
-18.825763 78.749222 -8.007013
-18.554293 79.770443 -9.231374
-20.132849 73.712418 -17.277816
-19.714627 74.459789 -18.341183
-16.328605 84.951713 -14.649776
-15.90877 85.41793 -13.491988
-15.479799 86.256317 -14.830365
-16.688613 84.432724 -15.721522
-17.117584 83.594337 -14.383144
-16.328605 84.951713 -14.649776
-21.966231 67.384339 -2.243132
-21.851005 68.457653 -3.221771
-22.404651 65.974502 -2.30283
-21.966231 67.384339 -2.243132
-22.660751 65.791275 -3.429576
-22.404651 65.974502 -2.30283
-22.855153 65.618934 -4.468203
-22.660751 65.791275 -3.429576
-22.490187 66.931855 -4.382538
-23.026468 65.258236 -5.420843
-22.855153 65.618934 -4.468203
-22.687756 66.000015 -10.115891
-22.715663 66.533493 -9.262533
-22.450817 67.448387 -10.151769
-22.687756 66.000015 -10.115891
-22.569817 65.534088 -10.927723
-21.471957 70.900101 -5.327935
-21.650571 69.703361 -4.207787
-20.509827 72.962105 -16.20513
-20.266575 74.397354 -16.522246
-20.132849 73.712418 -17.277816
-20.868933 72.242076 -15.204989
-20.509827 72.962105 -16.20513
-21.221493 71.318295 -14.136043
-20.996113 72.723259 -14.380613
-20.868933 72.242076 -15.204989
-21.441242 69.849502 -13.973171
-21.568421 70.330685 -13.148796
-21.221493 71.318295 -14.136043
-21.584268 68.342659 -13.7482
-21.441242 69.849502 -13.973171
-21.723625 66.89925 -13.586928
-21.927528 67.418484 -12.824652
-21.584268 68.342659 -13.7482
-17.888294 81.128887 -9.478946
-17.221259 82.32386 -9.566695
-18.281314 80.721901 -10.537228
-18.554293 79.770443 -9.231374
-17.888294 81.128887 -9.478946
-16.971956 83.950951 -16.714848
-16.688613 84.432724 -15.721522
-17.147816 83.512638 -17.703418
-17.354273 82.917816 -18.644526
-17.653453 82.637035 -16.44346
-16.971956 83.950951 -16.714848
-17.147816 83.512638 -17.703418
-18.633623 78.860298 -19.543328
-18.569533 79.606949 -18.82676
-19.039851 77.451404 -19.12933
-18.633623 78.860298 -19.543328
-19.437039 75.95055 -18.721598
-19.492408 76.648522 -18.002663
-19.039851 77.451404 -19.12933
-19.262069 75.262673 -19.46785
-19.714627 74.459789 -18.341183
-19.437039 75.95055 -18.721598
-15.63057 84.905571 -9.888427
-16.435018 83.634487 -9.706508
-15.136249 86.003639 -11.24927
-15.63057 84.905571 -9.888427
-14.644815 87.014106 -12.553346
-15.551399 85.712066 -12.368502
-15.136249 86.003639 -11.24927
-14.165548 87.93441 -13.998428
-14.644815 87.014106 -12.553346
-14.644696 87.462574 -15.034804
-14.165548 87.93441 -13.998428
-19.108359 77.635307 -6.794442
-18.825763 78.749222 -8.007013
-19.733127 76.163322 -6.610265
-19.108359 77.635307 -6.794442
-20.266222 74.818557 -6.508712
-19.733127 76.163322 -6.610265
-20.023347 75.976249 -7.739382
-20.802718 73.418037 -6.488878
-20.266222 74.818557 -6.508712
-21.294754 71.925762 -6.403288
-20.802718 73.418037 -6.488878
-21.048478 73.13921 -7.552239
-21.717717 70.621274 -6.391296
-21.471957 70.900101 -5.327935
-21.294754 71.925762 -6.403288
-23.15325 64.875511 -6.36866
-23.026468 65.258236 -5.420843
-22.811371 66.376789 -6.368982
-22.945378 65.539592 -8.271727
-22.70844 66.987965 -8.307605
-22.715663 66.533493 -9.262533
-23.19988 64.536226 -7.33157
-22.945378 65.539592 -8.271727
-23.15325 64.875511 -6.36866
-23.19988 64.536226 -7.33157
3 36 35 9
3 1 37 39
3 37 11 38
3 37 38 39
3 1 12 11
3 0 15 13
3 40 18 41
3 42 41 16
3 40 41 42
3 44 43 18
3 2 21 19
3 4 45 47
3 45 22 46
3 45 46 47
3 6 23 10
3 6 24 23
3 48 25 49
3 50 26 51
3 52 51 25
3 50 51 52
3 53 27 54
3 55 54 26
3 53 54 55
3 5 56 58
3 56 28 57
3 56 57 58
3 7 29 14
3 7 30 29
3 3 31 20
3 8 32 17
3 8 33 32
3 8 34 33
3 60 59 2
3 9 10 4
3 61 10 62
3 63 62 9
3 61 62 63
3 64 6 65
3 66 65 10
3 64 65 66
3 11 67 68
3 11 69 70
3 11 71 72
3 12 73 75
3 75 74 11
3 73 74 75
3 12 76 77
3 13 14 5
3 15 14 13
3 15 7 14
3 16 17 3
3 18 17 16
3 18 8 17
3 18 78 80
3 80 79 8
3 78 79 80
3 82 81 18
3 83 1 84
3 19 20 0
3 21 20 19
3 21 3 20
3 85 21 86
3 87 86 2
3 85 86 87
3 88 21 89
3 90 3 91
3 92 91 21
3 90 91 92
3 93 16 94
3 95 94 3
3 93 94 95
3 96 16 97
3 100 99 16
3 98 99 100
3 22 101 102
3 22 103 105
3 103 5 104
3 103 104 105
3 10 22 4
3 23 22 10
3 23 5 22
3 23 13 5
3 24 13 23
3 24 0 13
3 106 6 107
3 25 108 109
3 25 110 112
3 110 6 111
3 110 111 112
3 25 24 6
3 26 24 25
3 26 0 24
3 26 19 0
3 27 19 26
3 27 2 19
3 113 27 114
3 115 27 116
3 117 2 118
3 119 118 27
3 117 118 119
3 122 121 2
3 120 121 122
3 123 4 124
3 125 4 126
3 127 9 128
3 129 128 4
3 127 128 129
3 130 9 131
3 133 132 9
3 28 134 135
3 28 136 137
3 14 28 5
3 29 28 14
3 29 138 140
3 140 139 28
3 138 139 140
3 29 141 142
3 30 143 145
3 145 144 29
3 143 144 145
3 30 146 148
3 146 1 147
3 146 147 148
3 20 15 0
3 31 15 20
3 31 7 15
3 17 31 3
3 32 31 17
3 32 7 31
3 32 30 7
3 33 30 32
3 33 1 30
3 33 12 1
3 34 12 33
3 34 149 151
3 151 150 12
3 149 150 151
3 152 34 153
3 154 153 8
3 152 153 154
3 155 34 156
3 158 157 34
