ply
format ascii 1.0
element vertex 169
property float x
property float y
property float z
element face 154
property list uchar int vertex_index
end_header
-5.613364 29.445332 -65.26532
-6.081343 35.838528 -58.220505
-9.004798 31.590166 -64.582909
-5.532343 25.623814 -67.884689
-5.706524 32.66906 -62.033184
-2.821368 34.313457 -59.129707
-2.597654 30.445036 -62.140545
-2.496759 26.193531 -64.757339
-2.671069 21.888338 -66.625435
-7.352966 30.672647 -65.084328
-8.943569 29.970074 -66.526947
-7.186428 29.008818 -66.648842
-7.218365 27.17724 -68.096611
-5.5672 27.562731 -66.713638
-7.749679 36.2658 -57.319202
-7.5314 34.965149 -59.390568
-7.453078 33.576668 -61.430126
-5.860105 34.298153 -60.150463
-1.362426 33.091492 -59.346081
-2.758374 32.393452 -60.719402
-1.209497 30.978241 -60.665501
-1.211174 26.769709 -63.08247
-1.18924 24.592184 -64.005333
-2.599216 24.143456 -65.804916
-1.284287 22.210264 -64.881927
-9.188635 32.93042 -62.644218
-7.342142 32.189598 -63.275566
-5.643952 31.074911 -63.729546
-4.330753 33.483559 -60.551334
-4.091657 31.703722 -62.163853
-3.984968 29.878252 -63.691528
-1.160645 28.832415 -61.933243
-2.62936 28.3508 -63.631386
-4.028709 27.951927 -65.179375
-3.932946 25.998453 -66.306038
-4.082232 23.895779 -67.427719
-4.097815 21.582096 -68.187332
-1.538482 19.825554 -65.681824
-2.867174 19.597662 -67.308289
-0.593679 32.441769 -59.251272
-0.696262 33.643492 -58.633065
-0.517215 31.385143 -59.910983
-1.285961 32.034866 -60.005791
-0.593679 32.441769 -59.251272
-0.617572 23.573948 -63.59786
-0.561403 24.77805 -63.178047
-0.665095 22.382988 -64.036158
-1.236763 23.401224 -64.44363
-0.617572 23.573948 -63.59786
-9.884177 31.254014 -65.202129
-9.953796 31.880547 -64.25872
-9.845669 29.704871 -67.059052
-8.931624 29.19579 -67.26754
-6.411943 25.444373 -68.578384
-7.254955 26.221086 -68.684345
-6.375354 26.400527 -67.99065
-5.558153 24.613958 -68.358219
-6.437753 24.434517 -69.051914
-6.411943 25.444373 -68.578384
-9.228077 33.524044 -61.635008
-10.033121 33.150818 -62.183931
-2.947495 35.254181 -58.340883
-2.163812 34.809225 -58.479766
-3.620413 34.756973 -58.959407
-2.947495 35.254181 -58.340883
-3.57606 33.898508 -59.84052
-4.375105 34.342024 -59.670221
-3.620413 34.756973 -58.959407
-0.503171 28.073813 -61.645033
-0.468202 29.214398 -61.090931
-1.001151 18.820321 -65.049405
-0.90406 20.009218 -64.812258
-2.977549 18.450705 -67.538937
-2.283821 18.578243 -66.707478
-3.684603 18.294073 -68.283436
-3.574228 19.441029 -68.052788
-2.977549 18.450705 -67.538937
-8.053053 28.715162 -67.328487
-8.931624 29.19579 -67.26754
-8.064998 29.489446 -66.587895
-7.202397 28.093029 -67.372726
-8.069021 27.799373 -68.052372
-8.053053 28.715162 -67.328487
-8.485126 35.74381 -57.953753
-8.486547 36.343817 -56.793426
-8.375986 35.093485 -58.989435
-8.485126 35.74381 -57.953753
-7.64054 35.615474 -58.354885
-8.399459 34.541409 -60.008183
-8.375986 35.093485 -58.989435
-7.492239 34.270908 -60.410347
-8.360298 33.847168 -61.027962
-8.399459 34.541409 -60.008183
-1.434341 34.198243 -58.587953
-0.696262 33.643492 -58.633065
-2.091897 33.702475 -59.237894
-2.163812 34.809225 -58.479766
-1.434341 34.198243 -58.587953
-0.57237 25.866812 -62.716616
-0.528435 27.04246 -62.219646
-1.200207 25.680946 -63.543901
-0.57237 25.866812 -62.716616
-0.561403 24.77805 -63.178047
-9.853563 30.443968 -66.174149
-9.884177 31.254014 -65.202129
-8.974183 30.78012 -65.554928
-9.853563 30.443968 -66.174149
-9.845669 29.704871 -67.059052
-8.12213 26.892094 -68.741451
-8.069021 27.799373 -68.052372
-8.12213 26.892094 -68.741451
-7.254955 26.221086 -68.684345
-7.759781 36.931766 -56.255323
-8.486547 36.343817 -56.793426
-8.496649 37.009783 -55.729547
-6.959186 36.813623 -56.78063
-7.759781 36.931766 -56.255323
-6.125018 36.599987 -57.231282
-6.915511 36.052164 -57.769853
-6.959186 36.813623 -56.78063
-10.045714 32.550674 -63.289375
-10.033121 33.150818 -62.183931
-9.096716 32.260293 -63.613563
-9.953796 31.880547 -64.25872
-10.045714 32.550674 -63.289375
-8.320856 33.253544 -62.037172
-9.228077 33.524044 -61.635008
-8.360298 33.847168 -61.027962
-5.324666 36.366947 -57.614279
-6.125018 36.599987 -57.231282
-5.2504 35.519509 -58.504807
-5.324666 36.366947 -57.614279
-5.139781 34.749321 -59.469786
-5.970724 35.06834 -59.185484
-5.2504 35.519509 -58.504807
-5.095429 33.890856 -60.350898
-5.139781 34.749321 -59.469786
-4.375105 34.342024 -59.670221
-0.492628 30.287311 -60.45706
-0.517215 31.385143 -59.910983
-1.185071 29.905328 -61.299372
-0.492628 30.287311 -60.45706
-0.468202 29.214398 -61.090931
-1.185909 27.801062 -62.507857
-0.503171 28.073813 -61.645033
-0.528435 27.04246 -62.219646
-4.833098 23.749941 -68.129734
-5.558153 24.613958 -68.358219
-4.807288 24.759797 -67.656204
-4.840889 22.5931 -68.50954
-4.833098 23.749941 -68.129734
-4.090024 22.738937 -67.807525
-4.861139 21.491328 -68.861385
-4.840889 22.5931 -68.50954
-0.776963 21.201573 -64.41231
-0.665095 22.382988 -64.036158
-1.411385 21.017909 -65.281876
-0.776963 21.201573 -64.41231
-0.90406 20.009218 -64.812258
-1.619474 18.692189 -65.894246
-1.001151 18.820321 -65.049405
-2.202828 19.711608 -66.495057
-1.619474 18.692189 -65.894246
-2.283821 18.578243 -66.707478
-4.189548 20.433246 -68.49231
-3.482494 20.589879 -67.74781
-3.574228 19.441029 -68.052788
-4.861139 21.491328 -68.861385
-4.189548 20.433246 -68.49231
3 0 11 9
3 0 13 11
3 1 15 14
3 1 17 15
3 39 18 40
3 41 20 42
3 43 42 18
3 41 42 43
3 44 22 45
3 46 24 47
3 48 47 22
3 46 47 48
3 2 49 50
3 52 51 10
3 3 53 55
3 55 54 12
3 53 54 55
3 3 56 58
3 56 57 58
3 59 25 60
3 4 26 16
3 4 27 26
3 5 61 62
3 5 63 64
3 5 65 67
3 65 28 66
3 65 66 67
3 6 29 19
3 6 30 29
3 68 31 69
3 7 32 21
3 7 33 32
3 7 34 33
3 8 35 23
3 8 36 35
3 70 37 71
3 72 38 73
3 76 75 38
3 74 75 76
3 9 10 2
3 11 10 9
3 11 77 79
3 79 78 10
3 77 78 79
3 11 80 82
3 80 12 81
3 80 81 82
3 13 12 11
3 13 3 12
3 14 83 84
3 15 85 87
3 87 86 14
3 85 86 87
3 15 88 89
3 15 90 92
3 90 16 91
3 90 91 92
3 17 16 15
3 17 4 16
3 18 93 94
3 18 95 97
3 95 5 96
3 95 96 97
3 18 19 5
3 20 19 18
3 20 6 19
3 98 21 99
3 22 100 102
3 100 21 101
3 100 101 102
3 22 7 21
3 22 23 7
3 24 23 22
3 24 8 23
3 10 103 105
3 105 104 2
3 103 104 105
3 107 106 10
3 12 108 109
3 111 110 12
3 112 14 113
3 112 113 114
3 115 14 116
3 117 1 118
3 119 118 14
3 117 118 119
3 25 120 121
3 25 122 124
3 122 2 123
3 122 123 124
3 16 125 127
3 125 25 126
3 125 126 127
3 26 25 16
3 26 2 25
3 26 9 2
3 27 9 26
3 27 0 9
3 128 1 129
3 130 1 131
3 132 17 133
3 134 133 1
3 132 133 134
3 28 135 137
3 135 17 136
3 135 136 137
3 28 4 17
3 19 28 5
3 29 28 19
3 29 4 28
3 29 27 4
3 30 27 29
3 30 0 27
3 138 20 139
3 31 140 142
3 140 20 141
3 140 141 142
3 31 6 20
3 21 143 145
3 143 31 144
3 143 144 145
3 32 31 21
3 32 6 31
3 32 30 6
3 33 30 32
3 33 0 30
3 33 13 0
3 34 13 33
3 34 3 13
3 23 34 7
3 35 34 23
3 35 3 34
3 35 146 148
3 148 147 3
3 146 147 148
3 36 149 151
3 151 150 35
3 149 150 151
3 36 152 153
3 154 24 155
3 37 156 158
3 156 24 157
3 156 157 158
3 37 8 24
3 159 37 160
3 38 161 163
3 161 37 162
3 161 162 163
3 38 8 37
3 38 36 8
3 164 36 165
3 166 165 38
3 164 165 166
3 168 167 36
