ply
format ascii 1.0
element vertex 301
property float x
property float y
property float z
element face 314
property list uchar int vertex_index
end_header
10.124616 -4.246849 53.798054
4.135614 -12.13059 59.07626
11.61523 -10.653358 52.686611
15.411247 4.006504 47.748859
16.950853 -2.571486 47.445637
18.242695 -9.286576 46.274136
1.061275 -15.966891 61.372028
5.097715 -15.398157 58.124195
-0.96522 -9.326559 62.582115
12.860421 -0.151283 50.881336
16.335743 0.84257 47.485794
13.646678 -3.237981 50.611561
12.167231 -14.02774 51.61377
14.950627 -9.988445 49.49762
7.123706 -8.213927 56.601154
10.890697 -7.344146 53.399223
7.846816 -11.386353 56.044418
8.684786 -14.698462 54.959774
11.982138 3.259226 51.03326
9.367294 -0.768292 53.942329
6.367429 -4.95191 56.877922
3.145173 -8.887344 59.680485
-0.083357 -12.666403 62.207878
14.402196 -6.554708 50.175835
17.735773 -5.781455 46.948166
-0.361705 -17.945011 62.363953
1.603354 -17.501514 60.849148
0.388691 -19.525158 61.652359
11.413383 -2.111134 52.440365
13.334541 -1.646889 50.687092
11.938288 -3.600567 52.174644
5.584577 -10.151983 57.909634
7.45627 -9.840132 56.390644
5.957028 -11.809107 57.619179
5.59165 -17.028368 57.469913
6.952125 -14.966324 56.533539
7.369805 -16.710365 55.852295
10.709494 1.228855 52.499306
4.416553 -5.213886 58.369045
4.734769 -6.914995 58.328064
2.852693 -7.068313 59.716164
-0.432403 -10.93623 62.350887
16.638811 -0.926565 47.503597
17.842653 1.11609 45.967667
18.226143 -0.52492 45.902729
11.155531 -9.037118 53.188721
12.734161 -6.961051 51.736774
12.96825 -8.621107 51.525822
16.734982 -9.57352 47.75272
16.370804 -7.967737 48.258156
17.984774 -7.521451 46.684151
19.58527 -7.2228 45.120049
2.665261 -13.984228 60.199608
4.486352 -13.800805 58.756012
3.066815 -15.671737 59.801292
3.606582 -17.300421 59.195953
0.78358 -7.409337 61.202068
14.220551 1.932722 49.278587
15.972477 2.488223 47.516602
14.656358 0.412232 49.152447
15.097411 -1.145405 48.996284
15.260917 -2.888072 49.083221
11.820767 -12.459173 52.271614
13.244447 -10.302265 51.152344
13.559484 -11.997168 50.601757
15.318024 -11.698295 48.853817
8.568425 -6.207008 55.28236
10.462182 -5.732622 53.662075
9.06043 -7.812957 54.989262
9.346004 -9.491169 54.787807
9.662457 -11.125377 54.458328
6.39167 -13.362322 57.187271
8.259077 -13.003939 55.575012
10.088446 -12.649834 53.923477
10.407265 -14.369671 53.33453
13.750614 3.710717 49.365673
12.474393 1.621573 50.909618
11.176085 -0.37392 52.3792
9.764546 -2.429164 53.866596
7.856734 -2.826051 55.450848
8.344755 -4.411748 55.271309
6.794105 -6.559666 56.727772
5.228418 -8.448533 58.097996
3.672295 -10.469137 59.394451
1.150546 -9.028178 61.110817
1.599317 -10.81458 60.928825
2.100901 -12.398242 60.627701
0.618883 -14.280984 61.738094
-0.93678 -16.224888 62.851269
17.59123 2.956328 45.833019
19.118042 3.285 44.227787
12.221488 -5.373197 52.101547
13.946991 -4.888692 50.50531
15.66044 -4.516881 48.877644
14.735226 -8.217075 49.848652
16.107288 -6.207187 48.541145
17.273109 -4.182552 47.311039
-0.658625 -19.668728 62.463802
0.013493 -18.735084 62.008156
-1.033823 -18.878654 62.8196
-0.342041 -20.483189 62.147346
-0.658625 -19.668728 62.463802
6.6932 -17.692252 56.299818
6.480728 -16.869366 56.661104
5.804122 -17.851253 57.108627
7.583903 -17.535856 55.439478
6.6932 -17.692252 56.299818
3.393055 -5.343894 59.119427
4.22102 -4.328504 58.394491
2.611124 -6.271107 59.792986
3.634623 -6.141099 59.042604
3.393055 -5.343894 59.119427
16.273291 4.277248 46.848286
15.977406 5.046506 46.979897
17.807059 -2.310412 46.584652
18.444704 -1.287129 45.813198
17.588498 -1.548203 46.674183
19.010232 -9.191245 45.529229
19.68152 -8.159357 44.952185
18.913983 -8.254688 45.697092
2.931579 -18.296627 59.651725
2.604968 -17.400968 60.022551
1.929965 -18.397174 60.478323
3.920965 -18.056735 58.804103
2.931579 -18.296627 59.651725
15.382554 -12.55008 48.590946
14.550898 -12.706267 49.425226
16.079244 -11.586433 48.094122
15.382554 -12.55008 48.590946
12.575633 4.316612 50.300075
11.786991 4.191456 51.027111
12.866376 3.484971 50.199466
13.459871 4.542358 49.466282
12.575633 4.316612 50.300075
7.112082 -3.88898 56.164385
6.910025 -2.994072 56.202139
6.165373 -4.057002 56.915676
-2.017742 -16.342967 63.606378
-1.187126 -15.399887 63.027624
-1.67804 -17.154294 63.361988
-2.017742 -16.342967 63.606378
19.299384 2.454419 44.234186
18.480348 2.200545 45.097727
18.66169 1.369963 45.104126
19.887086 3.465693 43.403343
19.299384 2.454419 44.234186
18.357308 -4.702761 46.278839
18.125977 -3.903309 46.460276
17.504441 -4.982004 47.129603
1.322634 -19.408996 60.879928
1.929965 -18.397174 60.478323
0.996023 -18.513336 61.250754
0.667453 -20.382321 61.312067
1.322634 -19.408996 60.879928
0.667453 -20.382321 61.312067
-0.342041 -20.483189 62.147346
12.975502 -13.87099 50.805203
12.337491 -14.835621 51.215359
8.253708 -16.524074 55.016011
8.911199 -15.518123 54.56975
8.027296 -15.704413 55.406035
8.253708 -16.524074 55.016011
7.583903 -17.535856 55.439478
11.093263 3.110545 51.821413
11.786991 4.191456 51.027111
10.45694 2.095359 52.554436
11.345816 2.244041 51.766283
11.093263 3.110545 51.821413
9.812262 1.024582 53.273664
10.45694 2.095359 52.554436
9.141163 0.026009 53.995176
10.038394 0.230282 53.220817
9.812262 1.024582 53.273664
5.189934 -4.187989 57.661237
4.22102 -4.328504 58.394491
5.391991 -5.082898 57.623483
6.165373 -4.057002 56.915676
5.189934 -4.187989 57.661237
-1.506425 -11.041176 63.073937
-0.698811 -10.131394 62.466501
-1.772834 -10.236341 63.18955
-1.262978 -11.92747 62.968922
-1.506425 -11.041176 63.073937
-1.088455 -12.792556 62.897417
-0.25788 -11.801317 62.279382
-1.262978 -11.92747 62.968922
-0.760414 -13.620645 62.705928
-1.088455 -12.792556 62.897417
18.853434 0.549458 45.071657
18.66169 1.369963 45.104126
18.034398 0.295585 45.935198
19.056251 -0.219735 45.032398
18.853434 0.549458 45.071657
19.056251 -0.219735 45.032398
18.444704 -1.287129 45.813198
18.646656 -6.488145 46.044762
18.522155 -5.618147 46.176769
17.860273 -6.651453 46.816159
19.446904 -6.338819 45.262711
18.646656 -6.488145 46.044762
18.785022 -7.372126 45.9021
20.283732 -6.161157 44.444226
19.446904 -6.338819 45.262711
20.350223 -7.135589 44.383187
21.048686 -6.073945 43.707363
20.283732 -6.161157 44.444226
20.350223 -7.135589 44.383187
19.68152 -8.159357 44.952185
4.913498 -17.920708 57.941083
4.599116 -17.164395 58.332933
3.920965 -18.056735 58.804103
5.804122 -17.851253 57.108627
4.913498 -17.920708 57.941083
0.593199 -6.495535 61.226175
1.576568 -6.441619 60.535938
-0.180019 -7.476502 61.862421
0.593199 -6.495535 61.226175
-1.054419 -8.435113 62.552445
-0.09082 -8.367948 61.892091
-0.180019 -7.476502 61.862421
-1.979885 -9.346789 63.250868
-1.054419 -8.435113 62.552445
-1.772834 -10.236341 63.18955
-1.979885 -9.346789 63.250868
13.671628 -12.855704 50.299196
12.863357 -13.012454 51.107764
12.975502 -13.87099 50.805203
14.438754 -11.847732 49.727787
13.671628 -12.855704 50.299196
14.550898 -12.706267 49.425226
16.787723 -10.524045 47.543573
16.026503 -10.635908 48.303269
16.079244 -11.586433 48.094122
17.54158 -10.380573 46.804282
17.488838 -9.430048 47.013428
16.787723 -10.524045 47.543573
18.305502 -10.188189 46.071434
17.54158 -10.380573 46.804282
9.772438 -15.353727 53.757128
9.546026 -14.534066 54.147152
8.911199 -15.518123 54.56975
10.655648 -15.188441 52.881495
9.772438 -15.353727 53.757128
11.535631 -15.017475 52.021114
11.287248 -14.198705 52.47415
10.655648 -15.188441 52.881495
12.337491 -14.835621 51.215359
11.535631 -15.017475 52.021114
15.14997 4.85101 47.826395
15.977406 5.046506 46.979897
14.319653 4.703117 48.634802
13.459871 4.542358 49.466282
14.580931 3.85861 48.557266
15.14997 4.85101 47.826395
14.319653 4.703117 48.634802
8.38282 -0.954495 54.753363
9.141163 0.026009 53.995176
7.627541 -1.983375 55.507622
6.910025 -2.994072 56.202139
8.612014 -1.797172 54.696589
8.38282 -0.954495 54.753363
7.627541 -1.983375 55.507622
1.818137 -7.238825 60.459116
2.611124 -6.271107 59.792986
1.576568 -6.441619 60.535938
-0.409295 -14.427935 62.471036
0.267763 -13.473693 61.972986
-0.760414 -13.620645 62.705928
-0.158948 -15.252936 62.294681
-0.409295 -14.427935 62.471036
-1.187126 -15.399887 63.027624
-1.390503 -18.014356 63.11833
-0.649242 -17.08495 62.607611
-1.67804 -17.154294 63.361988
-1.033823 -18.878654 62.8196
-1.390503 -18.014356 63.11833
16.553907 3.518108 46.732157
16.273291 4.277248 46.848286
15.691862 3.247363 47.632731
17.363283 3.752161 45.890366
16.553907 3.518108 46.732157
16.781854 2.722276 46.67481
18.138635 3.948288 45.061144
17.363283 3.752161 45.890366
18.902041 4.112624 44.258527
18.138635 3.948288 45.061144
18.354636 3.120664 45.030403
19.693517 4.30326 43.393711
18.902041 4.112624 44.258527
20.462561 4.483953 42.569267
19.693517 4.30326 43.393711
19.887086 3.465693 43.403343
17.968187 -3.115946 46.517353
17.807059 -2.310412 46.584652
17.111981 -3.377019 47.378338
17.968187 -3.115946 46.517353
18.125977 -3.903309 46.460276
18.357308 -4.702761 46.278839
18.522155 -5.618147 46.176769
19.010232 -9.191245 45.529229
18.305502 -10.188189 46.071434
3 97 27 98
3 99 98 25
3 97 98 99
3 101 100 27
3 0 30 28
3 1 33 31
3 102 36 103
3 104 103 34
3 102 103 104
3 106 105 36
3 107 38 108
3 109 40 110
3 111 110 38
3 109 110 111
3 3 112 113
3 4 44 42
3 4 114 116
3 116 115 44
3 114 115 116
3 2 47 45
3 5 50 48
3 5 51 50
3 5 117 119
3 119 118 51
3 117 118 119
3 6 54 52
3 120 55 121
3 122 121 26
3 120 121 122
3 124 123 55
3 9 59 57
3 11 60 29
3 11 61 60
3 12 64 62
3 125 65 126
3 128 127 65
3 14 68 66
3 16 69 32
3 16 70 69
3 7 71 53
3 17 72 35
3 17 73 72
3 17 74 73
3 18 129 130
3 18 131 133
3 131 75 132
3 131 132 133
3 18 76 75
3 19 77 37
3 19 78 77
3 20 134 136
3 134 79 135
3 134 135 136
3 20 80 79
3 20 81 80
3 21 82 39
3 21 83 82
3 8 84 56
3 22 85 41
3 22 86 85
3 22 87 86
3 137 88 138
3 140 139 88
3 10 89 58
3 141 90 142
3 143 142 43
3 141 142 143
3 145 144 90
3 15 91 67
3 23 92 46
3 23 93 92
3 13 94 63
3 24 95 49
3 24 96 95
3 24 146 148
3 148 147 96
3 146 147 148
3 25 26 6
3 27 26 25
3 27 149 151
3 151 150 26
3 149 150 151
3 27 152 153
3 155 154 27
3 28 29 9
3 30 29 28
3 30 11 29
3 157 156 12
3 31 32 14
3 33 32 31
3 33 16 32
3 34 35 7
3 36 35 34
3 36 17 35
3 36 158 160
3 160 159 17
3 158 159 160
3 162 161 36
3 163 18 164
3 165 37 166
3 167 166 18
3 165 166 167
3 168 37 169
3 170 19 171
3 172 171 37
3 170 171 172
3 38 173 174
3 38 175 177
3 175 20 176
3 175 176 177
3 38 39 20
3 40 39 38
3 40 21 39
3 178 41 179
3 180 179 8
3 178 179 180
3 181 41 182
3 183 22 184
3 185 184 41
3 183 184 185
3 187 186 22
3 42 43 10
3 44 43 42
3 44 188 190
3 190 189 43
3 188 189 190
3 44 191 192
3 194 193 44
3 45 46 15
3 47 46 45
3 47 23 46
3 48 49 13
3 50 49 48
3 50 24 49
3 50 195 197
3 197 196 24
3 195 196 197
3 51 198 200
3 200 199 50
3 198 199 200
3 51 201 202
3 51 203 205
3 203 204 205
3 207 206 51
3 52 53 1
3 54 53 52
3 54 7 53
3 26 54 6
3 55 54 26
3 55 7 54
3 55 34 7
3 208 34 209
3 210 209 55
3 208 209 210
3 212 211 34
3 213 56 214
3 215 56 216
3 217 8 218
3 219 218 56
3 217 218 219
3 220 8 221
3 223 222 8
3 57 58 3
3 59 58 57
3 59 10 58
3 29 59 9
3 60 59 29
3 60 10 59
3 60 42 10
3 61 42 60
3 61 4 42
3 62 63 2
3 64 63 62
3 64 13 63
3 224 64 225
3 226 225 12
3 224 225 226
3 65 227 229
3 227 64 228
3 227 228 229
3 65 13 64
3 65 48 13
3 230 48 231
3 232 231 65
3 230 231 232
3 233 5 234
3 235 234 48
3 233 234 235
3 237 236 5
3 66 67 0
3 68 67 66
3 68 15 67
3 32 68 14
3 69 68 32
3 69 15 68
3 69 45 15
3 70 45 69
3 70 2 45
3 53 33 1
3 71 33 53
3 71 16 33
3 35 71 7
3 72 71 35
3 72 16 71
3 72 70 16
3 73 70 72
3 73 2 70
3 73 62 2
3 74 62 73
3 74 12 62
3 238 74 239
3 240 239 17
3 238 239 240
3 241 74 242
3 243 12 244
3 245 244 74
3 243 244 245
3 247 246 12
3 248 3 249
3 75 250 251
3 75 252 254
3 252 3 253
3 252 253 254
3 75 57 3
3 76 57 75
3 76 9 57
3 37 76 18
3 77 76 37
3 77 9 76
3 77 28 9
3 78 28 77
3 78 0 28
3 255 19 256
3 79 257 258
3 79 259 261
3 259 19 260
3 259 260 261
3 79 78 19
3 80 78 79
3 80 0 78
3 80 66 0
3 81 66 80
3 81 14 66
3 39 81 20
3 82 81 39
3 82 14 81
3 82 31 14
3 83 31 82
3 83 1 31
3 56 262 264
3 262 40 263
3 262 263 264
3 84 40 56
3 84 21 40
3 41 84 8
3 85 84 41
3 85 21 84
3 85 83 21
3 86 83 85
3 86 1 83
3 86 52 1
3 87 52 86
3 87 6 52
3 265 87 266
3 267 266 22
3 265 266 267
3 88 268 270
3 268 87 269
3 268 269 270
3 88 6 87
3 88 25 6
3 271 25 272
3 273 272 88
3 271 272 273
3 275 274 25
3 58 276 278
3 278 277 3
3 276 277 278
3 89 279 281
3 281 280 58
3 279 280 281
3 89 282 283
3 43 89 10
3 90 89 43
3 90 284 286
3 286 285 89
3 284 285 286
3 90 287 288
3 291 290 90
3 289 290 291
3 67 30 0
3 91 30 67
3 91 11 30
3 46 91 15
3 92 91 46
3 92 11 91
3 92 61 11
3 93 61 92
3 93 4 61
3 63 47 2
3 94 47 63
3 94 23 47
3 49 94 13
3 95 94 49
3 95 23 94
3 95 93 23
3 96 93 95
3 96 4 93
3 96 292 294
3 294 293 4
3 292 293 294
3 296 295 96
3 298 297 24
3 300 299 5
