ply
format ascii 1.0
element vertex 102
property float x
property float y
property float z
element face 85
property list uchar int vertex_index
end_header
7.704626 -25.194916 52.28648
9.41444 -18.056213 53.402626
10.140843 -21.436495 51.188656
6.881826 -21.822416 54.86808
9.137611 -16.337784 54.179726
7.798002 -18.361347 55.026661
8.078602 -20.017088 54.195469
6.491523 -20.130072 55.87598
8.848519 -23.202618 51.885086
10.372181 -23.020149 50.062641
9.129229 -24.862999 50.598522
6.48509 -27.159231 52.837105
10.904031 -16.00721 52.428459
11.205385 -17.62607 51.583641
11.425893 -19.328333 50.649647
9.880536 -19.641945 52.303875
8.529753 -21.548481 53.068584
7.211898 -23.582157 53.730923
11.703352 -21.090332 49.470505
6.907298 -18.517743 55.887001
7.583903 -17.535856 55.439478
6.254059 -19.402105 56.311661
7.144763 -19.245709 55.45132
6.907298 -18.517743 55.887001
6.688167 -27.959345 52.091595
5.985128 -28.042224 53.046448
11.063882 -22.955298 49.23566
10.454573 -23.86873 49.45323
8.253708 -16.524074 55.016011
8.911199 -15.518123 54.56975
8.467807 -17.349565 54.603194
8.253708 -16.524074 55.016011
7.583903 -17.535856 55.439478
9.833097 -24.790155 49.72117
10.454573 -23.86873 49.45323
9.750705 -23.941574 50.330582
7.213369 -27.026503 51.911557
7.823137 -26.044346 51.636244
7.094858 -26.177073 52.561792
7.213369 -27.026503 51.911557
6.688167 -27.959345 52.091595
9.772438 -15.353727 53.757128
8.911199 -15.518123 54.56975
10.655648 -15.188441 52.881495
9.772438 -15.353727 53.757128
10.020821 -16.172497 53.304092
11.535631 -15.017475 52.021114
10.655648 -15.188441 52.881495
11.705891 -15.825356 51.622704
12.337491 -14.835621 51.215359
11.535631 -15.017475 52.021114
11.856568 -16.634785 51.200294
11.705891 -15.825356 51.622704
11.054708 -16.81664 52.00605
12.011236 -17.484659 50.734595
11.856568 -16.634785 51.200294
11.315639 -18.477201 51.116644
12.12149 -18.335791 50.267598
12.011236 -17.484659 50.734595
5.615664 -20.340605 56.71647
6.254059 -19.402105 56.311661
5.891608 -21.118201 56.204673
5.615664 -20.340605 56.71647
6.086759 -21.964374 55.700723
6.686675 -20.976244 55.37203
5.891608 -21.118201 56.204673
6.246018 -22.793555 55.219774
6.086759 -21.964374 55.700723
6.411054 -23.673426 54.651196
7.046862 -22.702286 54.299501
6.246018 -22.793555 55.219774
6.661092 -24.503499 53.979677
6.411054 -23.673426 54.651196
6.907457 -25.309878 53.257456
7.458262 -24.388537 53.008702
6.661092 -24.503499 53.979677
6.297688 -26.292036 53.532769
7.094858 -26.177073 52.561792
6.907457 -25.309878 53.257456
5.774637 -27.185221 53.775335
6.297688 -26.292036 53.532769
5.985128 -28.042224 53.046448
5.774637 -27.185221 53.775335
12.226178 -19.208542 49.775866
12.12149 -18.335791 50.267598
12.364908 -20.089541 49.186295
12.226178 -19.208542 49.775866
11.564623 -20.209333 50.060076
12.413816 -21.054804 48.644091
12.364908 -20.089541 49.186295
11.729467 -21.99039 48.939593
11.037767 -22.055241 49.766573
11.063882 -22.955298 49.23566
12.413816 -21.054804 48.644091
11.729467 -21.99039 48.939593
8.535438 -25.878387 50.792265
8.416927 -25.028957 51.442501
7.823137 -26.044346 51.636244
9.251978 -25.693385 49.924458
8.535438 -25.878387 50.792265
9.833097 -24.790155 49.72117
9.251978 -25.693385 49.924458
3 19 5 20
3 21 7 22
3 23 22 5
3 21 22 23
3 0 10 8
3 25 24 11
3 1 12 4
3 1 13 12
3 1 15 13
3 3 16 6
3 3 17 16
3 2 18 14
3 27 26 9
3 28 4 29
3 5 30 32
3 30 4 31
3 30 31 32
3 5 1 4
3 5 6 1
3 7 6 5
3 7 3 6
3 8 9 2
3 10 9 8
3 10 33 35
3 35 34 9
3 33 34 35
3 11 36 38
3 38 37 0
3 36 37 38
3 40 39 11
3 4 41 42
3 12 43 45
3 45 44 4
3 43 44 45
3 12 46 47
3 12 48 50
3 48 49 50
3 13 51 53
3 53 52 12
3 51 52 53
3 13 54 55
3 13 56 58
3 56 14 57
3 56 57 58
3 15 14 13
3 15 2 14
3 6 15 1
3 16 15 6
3 16 2 15
3 16 8 2
3 17 8 16
3 17 0 8
3 59 7 60
3 61 7 62
3 63 3 64
3 65 64 7
3 63 64 65
3 66 3 67
3 68 17 69
3 70 69 3
3 68 69 70
3 71 17 72
3 73 0 74
3 75 74 17
3 73 74 75
3 76 11 77
3 78 77 0
3 76 77 78
3 79 11 80
3 82 81 11
3 14 83 84
3 18 85 87
3 87 86 14
3 85 86 87
3 18 88 89
3 9 18 2
3 90 18 91
3 92 91 9
3 90 91 92
3 94 93 18
3 95 10 96
3 97 96 0
3 95 96 97
3 98 10 99
3 101 100 10
