ply
format ascii 1.0
element vertex 223
property float x
property float y
property float z
element face 216
property list uchar int vertex_index
end_header
8.068407 -106.496765 -26.862942
-2.49782 -102.116959 -26.627516
-0.95809 -99.236603 -34.288906
9.72654 -101.70636 -34.078468
13.528371 -106.939674 -25.92083
14.586184 -104.587967 -29.646275
9.205939 -104.803146 -30.733791
-5.823657 -93.87664 -36.327194
-0.573233 -96.072983 -37.362751
2.611563 -104.816689 -26.962103
3.856463 -103.669327 -31.030836
-1.657042 -101.291603 -30.598034
-5.906757 -96.793976 -32.951252
-10.434052 -91.04084 -34.601368
4.475083 -101.046852 -34.621716
11.904139 -107.84864 -22.002497
6.333303 -106.778236 -22.660522
10.813178 -106.864502 -26.553596
11.427529 -106.036369 -28.50857
8.706732 -105.822113 -28.856512
-5.645329 -92.091309 -37.915234
0.080697 -103.63459 -26.764885
0.677643 -103.319412 -28.905088
-1.860321 -101.996124 -28.591955
-6.129204 -97.738663 -31.131516
-8.159814 -94.03978 -33.86618
12.353367 -103.371925 -31.928507
14.672652 -102.852257 -31.416559
1.396533 -101.62957 -32.738342
4.181213 -102.490715 -32.923374
1.627065 -100.210159 -34.580544
-4.421638 -100.42691 -27.997015
16.027714 -106.562744 -25.414045
13.95665 -105.944893 -27.936756
11.883516 -104.849754 -30.338013
9.572403 -103.416359 -32.48661
-3.376241 -96.72924 -35.370251
-0.766206 -97.725319 -35.93782
-3.202791 -95.084595 -36.97179
-3.000137 -93.170525 -38.459755
5.181368 -105.728485 -27.11084
5.910875 -105.209503 -29.130924
3.250808 -104.401505 -29.072153
1.151217 -102.697861 -30.825544
-1.078841 -100.589417 -32.41687
-3.985619 -100.031883 -29.936777
-3.604576 -99.302048 -31.871162
-3.460438 -98.161354 -33.672985
-5.801837 -95.504166 -34.697468
-8.223894 -92.545181 -35.497025
6.669156 -104.407318 -30.974333
6.961601 -103.194847 -32.719872
7.159545 -101.551613 -34.432056
2.066098 -98.645241 -36.185349
12.84868 -107.548241 -24.030035
10.078869 -107.341171 -24.568773
10.821257 -107.798737 -19.682859
9.196856 -107.49865 -22.277464
7.297889 -106.819359 -24.774437
4.502385 -105.95018 -24.987249
1.900536 -104.876991 -24.878393
10.999168 -101.605259 -33.815172
12.312582 -102.438041 -32.740192
11.039953 -102.539142 -33.003487
9.816088 -100.741642 -34.743854
10.999168 -101.605259 -33.815172
-4.289385 -91.5892 -38.904616
-4.322733 -92.630917 -38.187494
-5.611981 -91.049591 -38.632355
-2.986632 -92.060162 -39.118622
-4.289385 -91.5892 -38.904616
-5.099166 -99.302642 -29.573539
-4.203628 -100.229397 -28.966896
-5.317176 -99.500156 -28.603659
-10.475248 -90.177059 -35.4653
-9.370169 -90.929229 -35.913128
-9.328973 -91.793011 -35.049197
15.702892 -104.261867 -29.317646
15.50565 -105.028435 -28.446399
15.879898 -102.536381 -30.910908
14.674378 -101.913303 -32.125699
12.37641 -107.698441 -23.016266
13.612435 -107.721802 -22.639429
13.140165 -107.872002 -21.62566
10.185433 -107.581718 -18.532692
11.514294 -107.769764 -18.256737
7.76508 -107.138443 -22.468993
8.65937 -107.386486 -21.201094
7.227593 -107.02628 -21.392623
1.510671 -104.747658 -23.743404
2.842116 -105.365337 -23.898877
0.653547 -104.227306 -24.786299
1.510671 -104.747658 -23.743404
-6.840217 -91.500271 -37.553984
-5.734493 -92.983974 -37.121214
-6.929381 -92.392936 -36.759964
-6.934864 -90.365494 -38.350899
-6.840217 -91.500271 -37.553984
-5.611981 -91.049591 -38.632355
-6.934864 -90.365494 -38.350899
-7.19989 -97.001285 -30.640646
-6.170959 -98.156033 -30.170909
-7.199756 -96.481449 -31.584483
-7.19989 -97.001285 -30.640646
-7.088532 -96.009106 -32.49435
-6.017981 -97.26632 -32.041384
-7.199756 -96.481449 -31.584483
-8.215061 -94.632008 -32.951814
-7.033285 -95.416878 -33.408716
-7.088532 -96.009106 -32.49435
-9.262722 -93.240482 -33.375782
-8.215061 -94.632008 -32.951814
-10.399841 -91.741013 -33.743376
-9.296933 -92.54031 -34.233774
-9.262722 -93.240482 -33.375782
13.472224 -102.178207 -32.484217
13.513009 -103.112091 -31.672533
12.312582 -102.438041 -32.740192
14.674378 -101.913303 -32.125699
13.472224 -102.178207 -32.484217
0.767718 -96.376648 -37.487386
-0.499721 -95.076038 -38.032339
12.665499 -107.920749 -20.507951
13.140165 -107.872002 -21.62566
5.856674 -106.604488 -21.494415
7.227593 -107.02628 -21.392623
5.0585 -106.31596 -22.789941
5.856674 -106.604488 -21.494415
-4.648242 -100.488556 -26.983516
-3.459729 -101.271935 -27.312266
-3.686333 -101.33358 -26.298766
-5.489688 -99.666996 -27.649146
-4.648242 -100.488556 -26.983516
-5.317176 -99.500156 -28.603659
-5.489688 -99.666996 -27.649146
16.226415 -106.015823 -26.330284
17.152093 -106.265171 -24.972323
15.190883 -105.706898 -27.591639
16.226415 -106.015823 -26.330284
14.992182 -106.253818 -26.675401
14.271417 -105.26643 -28.791515
15.50565 -105.028435 -28.446399
15.190883 -105.706898 -27.591639
-1.713173 -93.624809 -38.580841
-0.499721 -95.076038 -38.032339
-1.786685 -94.621754 -37.911253
-1.713173 -93.624809 -38.580841
-2.986632 -92.060162 -39.118622
-5.057411 -98.885273 -30.534146
-5.099166 -99.302642 -29.573539
-6.170959 -98.156033 -30.170909
-8.129499 -91.727207 -36.34488
-6.929381 -92.392936 -36.759964
-7.023775 -93.21091 -35.912109
-8.129499 -91.727207 -36.34488
-9.370169 -90.929229 -35.913128
15.746126 -103.394013 -30.202788
15.702892 -104.261867 -29.317646
14.629418 -103.720112 -30.531417
15.746126 -103.394013 -30.202788
15.879898 -102.536381 -30.910908
2.087384 -97.662777 -36.898685
0.746433 -97.359112 -36.77405
0.767718 -96.376648 -37.487386
3.409719 -98.944035 -36.18569
2.087384 -97.662777 -36.898685
4.614211 -100.14484 -35.403874
3.27059 -99.846046 -35.403532
3.409719 -98.944035 -36.18569
5.956442 -100.397221 -35.309044
5.817314 -101.299233 -34.526886
4.614211 -100.14484 -35.403874
7.243252 -100.583675 -35.182055
5.956442 -100.397221 -35.309044
8.52675 -100.661049 -35.005261
8.443043 -101.628986 -34.255262
7.243252 -100.583675 -35.182055
9.816088 -100.741642 -34.743854
8.52675 -100.661049 -35.005261
16.90255 -106.754093 -23.911891
17.152093 -106.265171 -24.972323
15.708554 -106.991203 -24.347926
16.90255 -106.754093 -23.911891
14.458882 -107.179668 -24.601318
14.778042 -106.751209 -25.667437
15.708554 -106.991203 -24.347926
14.119036 -107.483952 -23.655921
13.612435 -107.721802 -22.639429
13.188526 -107.243957 -24.975433
14.458882 -107.179668 -24.601318
14.119036 -107.483952 -23.655921
12.124059 -107.895798 -19.348132
11.514294 -107.769764 -18.256737
11.362698 -107.823689 -20.842678
12.665499 -107.920749 -20.507951
12.124059 -107.895798 -19.348132
9.47157 -107.53653 -19.903792
10.185433 -107.581718 -18.532692
10.009056 -107.648694 -20.980162
9.47157 -107.53653 -19.903792
8.65937 -107.386486 -21.201094
4.143041 -105.901932 -23.953305
5.417844 -106.364208 -23.823885
5.0585 -106.31596 -22.789941
3.201461 -105.413586 -24.932821
4.143041 -105.901932 -23.953305
2.842116 -105.365337 -23.898877
-0.256373 -103.606105 -25.729546
0.990617 -104.255791 -25.821639
0.653547 -104.227306 -24.786299
-1.545632 -102.84729 -25.660861
-1.208562 -102.875775 -26.6962
-0.256373 -103.606105 -25.729546
-2.744995 -102.102554 -25.554482
-1.545632 -102.84729 -25.660861
-3.686333 -101.33358 -26.298766
-2.744995 -102.102554 -25.554482
-11.518202 -90.283615 -33.934953
-10.399841 -91.741013 -33.743376
-11.531536 -89.581028 -34.799104
-11.518202 -90.283615 -33.934953
-10.475248 -90.177059 -35.4653
-11.531536 -89.581028 -34.799104
3 0 19 17
3 1 23 21
3 3 61 63
3 63 62 26
3 61 62 63
3 3 64 65
3 2 30 28
3 4 33 32
3 6 34 18
3 6 35 34
3 7 38 36
3 66 39 67
3 68 67 20
3 66 67 68
3 70 69 39
3 9 42 40
3 11 43 22
3 11 44 43
3 71 45 72
3 73 72 31
3 71 72 73
3 12 46 24
3 12 47 46
3 12 48 47
3 13 49 25
3 13 74 76
3 76 75 49
3 74 75 76
3 5 77 78
3 80 79 27
3 10 50 41
3 14 51 29
3 14 52 51
3 8 53 37
3 15 81 83
3 81 54 82
3 81 82 83
3 15 55 54
3 84 56 85
3 16 86 88
3 86 57 87
3 86 87 88
3 16 58 57
3 16 59 58
3 89 60 90
3 92 91 60
3 17 18 4
3 19 18 17
3 19 6 18
3 93 20 94
3 95 94 7
3 93 94 95
3 96 20 97
3 99 98 20
3 21 22 9
3 23 22 21
3 23 11 22
3 100 24 101
3 102 24 103
3 104 12 105
3 106 105 24
3 104 105 106
3 107 25 108
3 109 108 12
3 107 108 109
3 110 25 111
3 112 13 113
3 114 113 25
3 112 113 114
3 26 27 5
3 115 27 116
3 117 116 26
3 115 116 117
3 119 118 27
3 28 29 10
3 30 29 28
3 30 14 29
3 121 120 8
3 122 15 123
3 124 16 125
3 127 126 16
3 128 31 129
3 130 129 1
3 128 129 130
3 131 31 132
3 134 133 31
3 32 135 136
3 33 137 139
3 139 138 32
3 137 138 139
3 33 140 142
3 140 5 141
3 140 141 142
3 18 33 4
3 34 33 18
3 34 5 33
3 34 26 5
3 35 26 34
3 35 3 26
3 36 37 2
3 38 37 36
3 38 8 37
3 20 38 7
3 39 38 20
3 39 8 38
3 39 143 145
3 145 144 8
3 143 144 145
3 147 146 39
3 40 41 0
3 42 41 40
3 42 10 41
3 22 42 9
3 43 42 22
3 43 10 42
3 43 28 10
3 44 28 43
3 44 2 28
3 31 23 1
3 45 23 31
3 45 11 23
3 24 148 150
3 148 45 149
3 148 149 150
3 46 45 24
3 46 11 45
3 46 44 11
3 47 44 46
3 47 2 44
3 47 36 2
3 48 36 47
3 48 7 36
3 25 48 12
3 49 48 25
3 49 7 48
3 49 151 153
3 153 152 7
3 151 152 153
3 155 154 49
3 27 156 158
3 158 157 5
3 156 157 158
3 160 159 27
3 41 19 0
3 50 19 41
3 50 6 19
3 29 50 10
3 51 50 29
3 51 6 50
3 51 35 6
3 52 35 51
3 52 3 35
3 37 30 2
3 53 30 37
3 53 14 30
3 161 53 162
3 163 162 8
3 161 162 163
3 164 53 165
3 166 14 167
3 168 167 53
3 166 167 168
3 169 52 170
3 171 170 14
3 169 170 171
3 172 52 173
3 174 3 175
3 176 175 52
3 174 175 176
3 178 177 3
3 179 32 180
3 181 32 182
3 183 4 184
3 185 184 32
3 183 184 185
3 54 186 187
3 54 188 190
3 188 4 189
3 188 189 190
3 54 17 4
3 55 17 54
3 55 0 17
3 56 191 192
3 56 193 195
3 193 15 194
3 193 194 195
3 196 56 197
3 57 198 200
3 198 56 199
3 198 199 200
3 57 15 56
3 57 55 15
3 58 55 57
3 58 0 55
3 58 40 0
3 59 40 58
3 59 9 40
3 201 59 202
3 203 202 16
3 201 202 203
3 60 204 206
3 204 59 205
3 204 205 206
3 60 9 59
3 60 21 9
3 207 21 208
3 209 208 60
3 207 208 209
3 210 1 211
3 212 211 21
3 210 211 212
3 213 1 214
3 216 215 1
3 217 13 218
3 219 13 220
3 222 221 13
