ply
format ascii 1.0
element vertex 148
property float x
property float y
property float z
element face 129
property list uchar int vertex_index
end_header
-21.292746 -73.068146 -25.844028
-17.252865 -75.573921 -33.167027
-19.138731 -68.089226 -29.188356
-19.742313 -74.656525 -29.597338
-17.125031 -68.918205 -32.614697
-19.916735 -81.190826 -30.187141
-16.767408 -81.77935 -33.855625
-17.8643 -65.282333 -30.818516
-18.291666 -68.793037 -30.864559
-16.811989 -65.693512 -32.542168
-18.659367 -75.442909 -31.385361
-19.893919 -78.0215 -29.895489
-18.58736 -78.567101 -31.772825
-18.54052 -81.857162 -31.987946
-17.160315 -78.94812 -33.435112
-14.073483 -65.492851 -35.855618
-20.268089 -70.715614 -27.561176
-20.66787 -73.997719 -27.673836
-19.484419 -71.43634 -29.370575
-18.502384 -72.161011 -31.147856
-17.237831 -72.322845 -32.894176
-17.828505 -87.365814 -32.5947
-20.784771 -69.742653 -25.860188
-19.797867 -67.414299 -27.545923
-20.899126 -77.223534 -28.012869
-19.904095 -84.220032 -30.362686
-18.264381 -84.722946 -32.297852
-15.57011 -65.808731 -34.196873
-15.7354 -69.11348 -34.355015
-15.742469 -72.372185 -34.606426
-15.713305 -75.570984 -34.790451
-16.693549 -64.070202 -32.417868
-17.338144 -65.487922 -31.680342
-17.219704 -63.864612 -31.556042
-21.506596 -74.807175 -25.926575
-21.744149 -74.157235 -24.97611
-18.766479 -87.334503 -31.583945
-18.478616 -88.678146 -31.782559
-20.519256 -68.131253 -25.908666
-20.989351 -69.29969 -24.966439
-20.025804 -66.967075 -26.751534
-20.291319 -68.578476 -26.703055
-20.519256 -68.131253 -25.908666
-20.50786 -80.862037 -29.21085
-20.496451 -79.277375 -29.065024
-19.905327 -79.606163 -30.041315
-20.529615 -82.421775 -29.347885
-20.50786 -80.862037 -29.21085
-19.910415 -82.705429 -30.274914
-20.523294 -83.936379 -29.435657
-20.529615 -82.421775 -29.347885
-16.522204 -83.170616 -34.029956
-17.270691 -84.642414 -33.25107
-17.515895 -83.251148 -33.076739
-14.840989 -64.059614 -34.863623
-15.474915 -64.034212 -34.07786
-14.971246 -69.042519 -35.148936
-14.904442 -67.303166 -35.105317
-14.140287 -67.232204 -35.899237
-14.97478 -70.671872 -35.274641
-15.738934 -70.742832 -34.480721
-14.971246 -69.042519 -35.148936
-14.712969 -75.461433 -35.669008
-14.915491 -73.972912 -35.477709
-15.563217 -77.161655 -34.953072
-14.712969 -75.461433 -35.669008
-13.323296 -63.808186 -36.516253
-14.092676 -63.901674 -35.692995
-13.277973 -65.478973 -36.633959
-13.323296 -63.808186 -36.516253
-14.140287 -67.232204 -35.899237
-13.277973 -65.478973 -36.633959
-17.487842 -88.690167 -32.738911
-18.478616 -88.678146 -31.782559
-16.792593 -87.31234 -33.498228
-17.487842 -88.690167 -32.738911
-21.508058 -72.576027 -24.94217
-21.744149 -74.157235 -24.97611
-21.25407 -70.91328 -24.95025
-20.989351 -69.29969 -24.966439
-21.038759 -71.4054 -25.852108
-21.508058 -72.576027 -24.94217
-21.25407 -70.91328 -24.95025
-19.565596 -65.816502 -27.52794
-20.025804 -66.967075 -26.751534
-19.260175 -66.139702 -28.327039
-19.565596 -65.816502 -27.52794
-18.930607 -66.477165 -29.148255
-19.468299 -67.751762 -28.36714
-19.260175 -66.139702 -28.327039
-18.293391 -65.073719 -29.963335
-18.501516 -66.685779 -30.003436
-18.930607 -66.477165 -29.148255
-17.647937 -63.607093 -30.795198
-18.293391 -65.073719 -29.963335
-17.219704 -63.864612 -31.556042
-17.647937 -63.607093 -30.795198
-21.194158 -75.271962 -26.841479
-21.506596 -74.807175 -25.926575
-20.980308 -73.532933 -26.758932
-21.309786 -76.884869 -27.010995
-21.194158 -75.271962 -26.841479
-20.783498 -75.610626 -27.843353
-21.44495 -78.473885 -27.146783
-21.309786 -76.884869 -27.010995
-20.999055 -78.878391 -28.123714
-20.396522 -77.622517 -28.954179
-20.496451 -79.277375 -29.065024
-21.44495 -78.473885 -27.146783
-20.999055 -78.878391 -28.123714
-20.535294 -85.455159 -29.483262
-20.523294 -83.936379 -29.435657
-19.804274 -85.761612 -30.467937
-20.535294 -85.455159 -29.483262
-18.984417 -86.013069 -31.43552
-19.804274 -85.761612 -30.467937
-19.084238 -84.471489 -31.330269
-18.046443 -86.04438 -32.446276
-18.766479 -87.334503 -31.583945
-18.984417 -86.013069 -31.43552
-17.052753 -85.963848 -33.399494
-18.046443 -86.04438 -32.446276
-17.270691 -84.642414 -33.25107
-16.792593 -87.31234 -33.498228
-17.052753 -85.963848 -33.399494
-16.095855 -63.976602 -33.250507
-16.693549 -64.070202 -32.417868
-16.191049 -65.751121 -33.36952
-16.095855 -63.976602 -33.250507
-15.474915 -64.034212 -34.07786
-14.821796 -65.650791 -35.026246
-14.840989 -64.059614 -34.863623
-14.092676 -63.901674 -35.692995
-14.930073 -72.373513 -35.385696
-14.97478 -70.671872 -35.274641
-15.727887 -73.971585 -34.698438
-14.930073 -72.373513 -35.385696
-14.915491 -73.972912 -35.477709
-16.286722 -78.850223 -34.275402
-16.43681 -77.259552 -34.112781
-15.563217 -77.161655 -34.953072
-16.090269 -80.265839 -34.485658
-16.963862 -80.363735 -33.645369
-16.286722 -78.850223 -34.275402
-15.751238 -81.670166 -34.737337
-16.090269 -80.265839 -34.485658
-16.522204 -83.170616 -34.029956
-15.751238 -81.670166 -34.737337
3 31 9 32
3 33 32 7
3 31 32 33
3 0 34 35
3 1 12 10
3 1 14 12
3 2 18 16
3 4 19 8
3 4 20 19
3 36 21 37
3 38 22 39
3 40 23 41
3 42 41 22
3 40 41 42
3 3 24 17
3 5 43 45
3 45 44 11
3 43 44 45
3 5 46 47
3 5 48 50
3 48 25 49
3 48 49 50
3 6 26 13
3 6 51 53
3 53 52 26
3 51 52 53
3 54 27 55
3 56 28 57
3 58 57 15
3 56 57 58
3 59 29 60
3 61 60 28
3 59 60 61
3 62 30 63
3 65 64 30
3 7 8 2
3 9 8 7
3 9 4 8
3 10 11 3
3 12 11 10
3 12 5 11
3 12 13 5
3 14 13 12
3 14 6 13
3 66 15 67
3 68 15 69
3 71 70 15
3 16 17 0
3 18 17 16
3 18 3 17
3 8 18 2
3 19 18 8
3 19 3 18
3 19 10 3
3 20 10 19
3 20 1 10
3 21 72 73
3 21 74 75
3 76 0 77
3 22 78 79
3 22 80 82
3 80 0 81
3 80 81 82
3 22 16 0
3 23 16 22
3 23 2 16
3 83 23 84
3 85 23 86
3 87 2 88
3 89 88 23
3 87 88 89
3 90 7 91
3 92 91 2
3 90 91 92
3 93 7 94
3 96 95 7
3 17 97 99
3 99 98 0
3 97 98 99
3 24 100 102
3 102 101 17
3 100 101 102
3 24 103 104
3 11 24 3
3 105 24 106
3 107 106 11
3 105 106 107
3 109 108 24
3 25 110 111
3 25 112 113
3 13 25 5
3 26 25 13
3 26 114 116
3 116 115 25
3 114 115 116
3 26 117 119
3 117 21 118
3 117 118 119
3 120 21 121
3 122 121 26
3 120 121 122
3 124 123 21
3 125 9 126
3 27 127 129
3 127 9 128
3 127 128 129
3 27 4 9
3 15 130 132
3 130 27 131
3 130 131 132
3 28 27 15
3 28 4 27
3 28 20 4
3 29 20 28
3 29 1 20
3 133 29 134
3 30 135 137
3 135 29 136
3 135 136 137
3 30 1 29
3 30 14 1
3 138 14 139
3 140 139 30
3 138 139 140
3 141 6 142
3 143 142 14
3 141 142 143
3 144 6 145
3 147 146 6
