ply
format ascii 1.0
element vertex 614
property float x
property float y
property float z
element face 724
property list uchar int vertex_index
end_header
33.974335 -22.29842 20.886658
28.944464 -53.290249 40.558277
29.962217 -49.84206 21.24852
30.450136 -45.620106 3.771632
28.724304 -63.149235 31.996122
29.449387 -51.87326 30.476013
28.832853 -61.562199 21.985123
28.313868 -59.392132 12.52454
33.552994 -34.407307 12.772553
27.722185 -63.710159 41.981747
32.521763 -10.493269 27.550652
31.026176 -25.521042 28.425035
28.99247 -41.623077 38.32671
30.024235 -39.170727 29.212198
31.740616 -36.802692 21.136841
30.491474 -47.552307 12.481263
28.862461 -62.504292 26.923777
34.119644 -28.335255 16.925949
26.33005 -68.156731 42.116184
27.339298 -68.443413 37.334591
30.295212 -19.907303 31.567774
29.838181 -27.1752 32.175602
28.732792 -48.110203 44.358139
28.699644 -42.503819 42.979282
29.047289 -47.425385 39.422401
29.683399 -50.743874 25.948944
29.687832 -45.75098 29.853443
30.184023 -44.451435 25.467609
30.823721 -38.050327 25.044739
30.77067 -43.54174 21.153297
31.392347 -42.443401 16.873192
30.244839 -48.768814 16.806322
27.859364 -58.27747 7.960356
32.34119 -39.297249 3.805891
30.064226 -44.973446 -0.532168
28.261429 -50.699558 -0.606791
28.945072 -58.312206 36.407356
29.228529 -52.733189 35.461353
29.167225 -57.76825 31.349592
29.288984 -56.790134 26.33618
29.358988 -55.617332 21.688475
29.308638 -54.865383 16.917946
28.655369 -60.430527 17.230122
27.72868 -64.945511 12.662663
32.309242 -40.169319 8.41226
28.561804 -58.557541 41.407265
28.339329 -63.708008 37.095585
27.90407 -68.599739 32.416153
33.358864 -16.176083 24.431366
30.941992 -12.383764 30.981758
31.728838 -17.807615 28.056768
32.49411 -23.713829 24.614931
28.928911 -35.113022 37.12141
29.340067 -46.703018 34.52507
29.403755 -40.554119 33.732967
29.553211 -33.918148 32.930855
30.454733 -32.463753 28.858503
31.60264 -31.055868 24.87591
32.850925 -29.76342 20.983223
32.687004 -35.680317 17.051748
31.914778 -41.406208 12.596824
30.581156 -46.507332 8.186147
29.237944 -53.664684 12.520768
29.035364 -52.621403 8.068676
28.746891 -51.545658 3.780754
34.103897 -25.384352 18.983583
29.360149 -27.902363 34.086304
28.873472 -50.678719 42.333374
28.902555 -47.878902 41.814308
29.037552 -50.547516 39.801132
29.815454 -50.317436 23.661207
29.916348 -47.647503 25.656612
30.120344 -47.270515 23.364979
30.460201 -44.021912 23.363882
30.342113 -46.81274 21.08836
30.591879 -46.086811 18.959633
30.107998 -49.306622 19.014256
31.32476 -42.702011 3.757414
31.226494 -42.228409 1.576911
30.261072 -45.361206 1.60872
29.149281 -47.832176 -0.594887
29.373827 -48.233788 1.57425
28.852219 -60.89566 34.204121
29.07366 -58.034328 33.895462
28.967436 -60.585323 31.697472
28.85973 -62.139477 24.461693
29.092655 -59.618111 26.779736
29.082445 -59.394901 24.278992
29.314262 -56.40403 24.082012
29.082375 -58.719154 21.919432
29.058037 -58.021564 19.590212
28.782576 -60.883495 19.707829
33.128117 -37.121815 8.262529
32.987156 -37.430534 10.656374
27.31741 -63.403099 44.397038
27.857027 -61.14856 44.174286
28.27607 -58.772209 43.767483
28.204493 -61.189163 41.786865
28.485855 -61.071999 39.345081
28.069023 -63.679211 39.660591
27.655256 -68.541573 34.95528
33.44577 -9.221714 25.702673
33.858635 -12.534002 24.092846
33.002247 -13.088028 25.962057
30.692245 -22.613098 29.977278
30.990198 -18.834585 29.783884
31.398664 -21.631502 28.151449
32.131248 -20.807047 26.379284
31.735815 -24.706959 26.498917
28.833456 -41.952778 40.636475
28.641617 -39.609077 42.155006
28.778389 -38.881779 39.863182
28.720123 -35.885578 39.26778
28.970884 -38.459545 37.556717
29.341587 -52.340916 32.94817
29.296001 -49.803802 34.996758
29.417313 -49.369534 32.679291
29.840958 -42.367641 29.54076
29.580048 -43.225082 31.779861
29.672405 -39.848591 31.540054
29.478039 -37.107304 33.239643
29.820652 -36.62141 31.093845
29.985197 -33.06953 30.83511
30.199419 -35.701855 29.206976
31.254753 -37.393257 23.187166
31.179281 -34.562557 25.056236
31.714636 -34.118538 22.991096
32.232925 -30.473278 22.853346
32.275597 -33.529713 20.963116
32.842556 -32.652042 19.113817
32.211723 -36.336933 19.069344
31.010258 -45.047199 14.696083
31.678877 -41.923466 14.661827
31.161106 -44.619183 12.464441
31.305691 -44.040005 10.368873
30.49976 -47.250607 10.294646
28.835707 -57.267101 14.767632
29.31142 -54.090977 14.700191
28.730362 -56.546062 12.468076
28.344622 -55.617462 7.823912
28.218313 -54.871643 5.83185
28.916134 -52.018322 5.886649
27.98349 -54.450977 3.735199
28.519361 -65.556999 29.764923
28.821426 -62.820694 29.415474
28.595884 -65.25531 27.115742
28.603825 -65.007935 24.64439
28.593557 -64.380913 22.230312
28.523876 -63.799145 19.839268
33.878143 -31.536198 14.973412
27.1105 -65.857735 42.277912
27.523054 -66.164787 39.803696
26.872868 -68.354156 39.825356
30.036818 -23.640734 31.863588
30.405008 -26.233526 30.283609
28.745733 -45.367607 43.573475
28.891092 -44.886707 41.109688
29.038988 -44.625591 38.742489
29.5599 -51.399227 28.079262
29.563501 -48.859108 30.185608
29.71636 -48.375553 27.945417
29.905098 -45.221386 27.682226
30.139849 -41.959583 27.326332
30.390656 -38.571842 27.18346
30.483013 -41.197845 25.30895
30.838423 -40.844505 23.204653
31.265781 -40.064766 21.098257
31.644657 -39.612106 19.0714
31.090235 -42.913628 19.085094
30.811588 -45.50053 17.003685
30.39233 -48.083988 14.668732
27.733589 -61.51704 10.275555
28.067129 -58.981613 10.159376
33.239834 -36.181519 3.735108
33.23756 -35.520096 1.552463
32.233849 -38.932079 1.574798
28.979492 -55.790565 38.400108
29.099873 -53.171688 37.944069
29.119602 -55.598518 35.837345
29.231237 -55.266502 33.355572
29.317602 -54.806835 31.127644
29.061798 -59.94986 29.170074
29.250128 -57.08886 28.844936
29.40514 -54.320019 28.469696
29.47994 -53.846409 26.137632
29.562246 -53.260372 23.832279
29.645702 -52.693203 21.378168
29.681498 -52.447624 19.096579
29.33515 -55.326206 19.211866
28.965548 -57.648907 17.173828
28.490421 -59.934696 14.78649
28.384418 -63.342419 17.405649
28.191509 -62.738834 14.842316
27.955404 -62.248291 12.460803
32.293114 -39.961349 6.009466
31.451294 -42.913303 6.083328
28.682125 -50.824818 44.815487
28.753481 -53.50156 43.062057
28.556826 -56.223564 43.506905
28.800938 -55.918354 40.967556
28.775084 -58.513683 38.91497
28.698582 -61.082005 36.640793
28.559927 -63.558174 34.442791
27.908291 -66.057983 37.328983
28.177523 -66.064812 34.689548
28.358829 -65.974945 32.282394
28.138306 -68.24939 29.836685
33.755188 -19.083277 22.637241
31.283314 -8.362541 30.799259
31.703442 -11.217248 29.314648
30.575157 -16.110685 31.345572
31.322342 -15.189236 29.560074
32.159264 -14.267788 27.696932
32.532017 -17.131203 26.213457
32.95369 -19.950277 24.468594
33.239925 -23.08238 22.716713
28.934444 -32.059151 36.561703
29.164837 -50.142887 37.555386
29.195688 -47.352188 36.924728
29.19573 -44.135582 36.387653
29.500828 -46.277542 32.140911
29.365328 -43.628437 34.156826
29.176882 -40.870972 36.00174
29.193974 -37.747498 35.393627
29.198923 -34.652519 35.07864
29.263309 -31.221903 34.547543
29.692074 -30.719902 32.460117
30.164976 -29.66045 30.605402
30.72146 -29.090542 28.640221
30.666105 -35.392059 27.020081
30.985546 -31.86331 26.898989
31.368286 -28.210587 26.665966
32.057606 -27.457605 24.686195
32.74107 -26.874805 22.750132
33.444683 -26.202557 20.78684
33.480991 -29.148462 18.969831
33.378864 -32.166977 16.990089
33.107018 -35.242306 14.893708
32.031998 -39.138458 16.896536
32.398544 -38.532246 14.856899
32.729095 -37.932598 12.786251
32.151215 -40.734661 10.512744
31.402889 -43.477345 8.262374
30.527617 -46.077114 5.87074
29.746674 -51.856323 16.983805
29.801046 -51.230824 14.74984
29.815514 -50.702152 12.511948
28.570705 -55.992332 10.138323
29.146685 -53.122272 10.211684
29.798143 -50.177437 10.245072
29.743553 -49.646545 7.915717
29.709173 -49.005531 5.876938
29.55352 -48.608948 3.650033
28.486759 -51.203629 1.529238
34.33358 -22.023974 19.897725
34.256201 -20.323285 20.828764
34.039116 -23.841386 19.935121
34.398361 -23.56694 18.946187
34.33358 -22.023974 19.897725
29.152847 -28.292595 35.128101
29.197066 -26.576138 34.866512
33.676743 -34.299971 11.630793
33.916697 -32.808081 12.753764
33.270075 -35.91892 11.714464
33.393823 -35.811585 10.572703
33.676743 -34.299971 11.630793
32.983767 -9.857492 26.626663
33.20949 -7.789896 26.475414
32.747486 -8.425673 27.399403
27.780285 -56.037544 4.766123
27.904487 -56.352314 5.821685
27.662873 -55.827211 3.717798
28.100901 -54.66131 4.783525
27.780285 -56.037544 4.766123
27.521222 -55.496681 2.594629
27.662873 -55.827211 3.717798
28.426451 -66.643093 27.239511
28.557623 -65.406154 28.440333
28.388189 -66.793937 28.564101
28.463987 -66.167111 23.554033
28.460263 -66.374416 24.759602
28.458852 -65.8536 22.346994
28.598691 -64.694424 23.437351
28.463987 -66.167111 23.554033
28.449374 -65.45533 21.213811
28.458852 -65.8536 22.346994
34.379903 -28.113798 15.888153
34.425337 -26.616711 16.945539
33.998894 -29.935727 15.94968
34.259153 -29.714269 14.911885
34.379903 -28.113798 15.888153
26.453375 -66.915299 43.313392
26.006234 -67.881229 43.368948
26.720275 -67.007233 42.197048
26.8436 -65.765801 43.394256
26.453375 -66.915299 43.313392
29.9375 -25.407967 32.019595
29.772611 -24.074748 32.760614
29.673292 -25.841981 32.916621
28.739263 -46.738905 43.965807
28.664203 -45.543073 44.849272
28.657732 -46.914372 45.241604
27.575457 -61.25226 9.05966
27.434078 -62.583094 9.154253
30.579928 -43.325088 -0.572935
31.161061 -41.95257 0.481605
30.64536 -43.600927 0.522371
30.010421 -44.609394 -1.523907
30.579928 -43.325088 -0.572935
29.522634 -46.075478 -1.606731
30.010421 -44.609394 -1.523907
28.153577 -50.417309 -1.627493
28.597503 -48.983617 -1.621541
28.705355 -49.265867 -0.600839
27.751693 -51.759124 -1.586039
28.153577 -50.417309 -1.627493
28.275352 -64.748487 17.542936
28.454147 -63.570782 18.622459
28.345081 -64.97685 18.759746
27.960095 -63.842172 13.752489
28.09046 -64.113661 15.032964
27.859046 -65.216999 13.943137
27.580018 -64.628296 11.437548
27.693379 -63.279686 11.336618
27.842042 -63.596901 12.561733
28.602132 -52.271664 45.120745
28.559573 -50.95834 46.075729
28.63781 -53.610035 44.24403
28.717803 -52.163189 43.938772
28.602132 -52.271664 45.120745
33.800039 -15.742039 23.460424
34.049925 -13.920999 23.291164
33.60875 -14.355042 24.262106
33.557026 -17.62968 23.534304
33.998201 -17.195636 22.563361
33.800039 -15.742039 23.460424
31.112653 -10.373152 30.890508
30.917659 -9.149746 31.600132
30.746998 -11.160358 31.691381
30.435184 -18.008994 31.456673
30.238424 -16.645117 32.234956
30.098451 -18.543426 32.346057
28.60389 -41.268595 43.794017
28.535104 -41.480715 45.011713
28.630859 -42.715939 44.196978
28.540156 -38.436752 42.994247
28.59855 -38.167799 41.902738
28.79835 -33.918701 37.92707
28.693956 -34.304979 39.000256
28.824517 -35.4993 38.194595
28.931677 -33.586087 36.841556
28.801116 -32.391765 37.647217
28.79835 -33.918701 37.92707
33.155966 -35.301485 0.424988
32.692879 -36.91655 0.519792
34.417463 -25.14126 17.974356
34.398361 -23.56694 18.946187
34.111771 -26.859803 17.954766
34.425337 -26.616711 16.945539
34.417463 -25.14126 17.974356
25.862881 -69.059849 42.145846
26.006234 -67.881229 43.368948
25.539065 -68.784347 43.39861
26.146838 -69.361622 40.960764
25.862881 -69.059849 42.145846
29.434276 -26.205562 33.871972
29.197066 -26.576138 34.866512
29.599165 -27.538781 33.130953
29.673292 -25.841981 32.916621
29.434276 -26.205562 33.871972
27.651927 -66.307846 12.832512
27.859046 -65.216999 13.943137
27.4238 -67.384807 11.766653
27.500554 -66.022472 11.596804
27.651927 -66.307846 12.832512
33.464304 -35.657225 9.375781
33.580544 -35.376749 8.345047
33.057637 -37.276174 9.459452
33.464304 -35.657225 9.375781
33.393823 -35.811585 10.572703
27.350796 -62.211613 45.530055
27.028329 -63.324625 45.583222
27.620604 -61.084343 45.418678
27.350796 -62.211613 45.530055
27.587218 -62.27583 44.285662
27.889184 -59.871382 45.232822
27.620604 -61.084343 45.418678
28.066548 -59.960385 43.970884
28.098706 -58.683206 45.029421
27.889184 -59.871382 45.232822
27.310934 -69.744827 35.040543
27.497277 -68.492493 36.144936
27.152955 -69.695748 36.230198
27.500627 -69.75808 33.781277
27.310934 -69.744827 35.040543
27.625034 -69.787162 32.511713
27.779663 -68.570656 33.685716
27.500627 -69.75808 33.781277
27.776397 -69.695484 31.279933
27.625034 -69.787162 32.511713
33.642669 -7.284353 25.606233
33.20949 -7.789896 26.475414
33.880106 -8.869573 24.790851
34.077005 -6.932212 24.69441
33.642669 -7.284353 25.606233
33.652203 -10.877858 24.897759
34.086539 -10.525716 23.985937
33.880106 -8.869573 24.790851
30.570992 -12.96401 31.881656
30.746998 -11.160358 31.691381
28.666936 -37.80415 40.756827
28.59855 -38.167799 41.902738
28.710003 -39.245428 41.009094
28.749256 -37.383679 39.565481
28.637803 -36.30605 40.459125
28.666936 -37.80415 40.756827
27.967642 -56.725223 6.817716
28.101993 -56.947466 7.892134
27.725013 -58.055228 6.885938
28.281467 -55.244552 6.827881
27.967642 -56.725223 6.817716
27.904487 -56.352314 5.821685
27.859984 -54.184602 2.643821
28.241685 -52.731943 2.666598
28.365191 -52.998317 3.757976
27.859984 -54.184602 2.643821
27.521222 -55.496681 2.594629
28.456293 -66.498104 25.995279
28.426451 -66.643093 27.239511
28.286859 -67.885887 26.119047
28.599854 -65.131622 25.880066
28.456293 -66.498104 25.995279
28.460263 -66.374416 24.759602
28.414534 -65.164446 20.01829
28.558717 -64.090029 21.03479
28.449374 -65.45533 21.213811
28.345081 -64.97685 18.759746
28.414534 -65.164446 20.01829
34.079271 -31.372526 13.854194
34.259153 -29.714269 14.911885
33.715569 -32.971753 13.872982
33.916697 -32.808081 12.753764
34.079271 -31.372526 13.854194
26.947055 -64.538483 44.45382
27.028329 -63.324625 45.583222
27.213955 -64.630417 43.337475
26.947055 -64.538483 44.45382
26.8436 -65.765801 43.394256
26.418247 -69.460335 39.81535
26.601459 -68.255443 40.97077
26.146838 -69.361622 40.960764
26.726895 -69.466301 38.713654
26.418247 -69.460335 39.81535
26.96011 -69.510929 37.468272
27.106083 -68.398785 38.579974
26.726895 -69.466301 38.713654
27.152955 -69.695748 36.230198
26.96011 -69.510929 37.468272
32.320286 -8.879009 28.281819
32.747486 -8.425673 27.399403
29.97457 -20.418212 32.516754
30.098451 -18.543426 32.346057
29.845372 -22.284927 32.66466
29.772611 -24.074748 32.760614
30.166015 -21.774018 31.715681
29.97457 -20.418212 32.516754
29.845372 -22.284927 32.66466
28.653903 -44.147833 44.494074
28.664203 -45.543073 44.849272
28.722689 -43.935713 43.276378
28.630859 -42.715939 44.196978
28.653903 -44.147833 44.494074
27.742227 -59.984547 9.001571
27.900359 -60.249327 10.217465
27.575457 -61.25226 9.05966
27.638345 -59.632475 7.902061
27.963247 -58.629542 9.059866
27.742227 -59.984547 9.001571
27.498689 -59.368282 6.887544
27.638345 -59.632475 7.902061
27.725013 -58.055228 6.885938
27.498689 -59.368282 6.887544
33.238697 -35.850808 2.643785
33.712395 -34.15725 2.70815
33.713532 -34.487961 3.799472
32.191023 -38.622541 0.53096
32.692879 -36.91655 0.519792
32.735704 -37.226088 1.56363
31.664739 -40.304405 0.480548
31.730171 -40.580244 1.575854
31.161061 -41.95257 0.481605
32.191023 -38.622541 0.53096
31.664739 -40.304405 0.480548
29.065161 -47.504842 -1.63809
29.522634 -46.075478 -1.606731
29.606753 -46.402811 -0.563527
28.513383 -48.656284 -2.664745
29.065161 -47.504842 -1.63809
28.597503 -48.983617 -1.621541
28.186915 -64.415453 16.31463
28.275352 -64.748487 17.542936
28.287964 -63.040627 16.123983
28.186915 -64.415453 16.31463
28.09046 -64.113661 15.032964
27.582472 -62.914061 10.243994
27.844496 -61.882666 11.368179
27.693379 -63.279686 11.336618
27.434078 -62.583094 9.154253
27.582472 -62.914061 10.243994
27.580018 -64.628296 11.437548
27.500554 -66.022472 11.596804
33.693611 -34.711533 4.896572
33.713532 -34.487961 3.799472
33.246189 -36.370703 4.928096
33.693611 -34.711533 4.896572
32.796867 -37.928568 4.963487
32.790512 -37.739384 3.770499
33.246189 -36.370703 4.928096
33.190331 -36.840851 7.191807
33.580544 -35.376749 8.345047
32.772829 -38.260618 6.065275
33.190331 -36.840851 7.191807
32.710616 -38.541582 7.135998
32.317152 -39.629299 4.907678
32.796867 -37.928568 4.963487
32.772829 -38.260618 6.065275
28.636969 -48.237789 45.604077
28.657732 -46.914372 45.241604
28.611635 -49.595097 45.832751
28.559573 -50.95834 46.075729
28.707459 -49.467511 44.586813
28.636969 -48.237789 45.604077
28.611635 -49.595097 45.832751
28.272852 -57.530632 44.841677
28.095488 -57.441629 46.103615
28.098706 -58.683206 45.029421
28.41323 -56.25631 44.711388
28.272852 -57.530632 44.841677
28.416448 -57.497886 43.637194
28.539482 -54.971037 44.466454
28.41323 -56.25631 44.711388
28.655154 -54.862562 43.284481
28.63781 -53.610035 44.24403
28.539482 -54.971037 44.466454
28.197662 -68.140133 28.599982
28.388189 -66.793937 28.564101
28.328834 -66.903195 29.800804
27.893515 -69.520309 29.990199
28.021188 -68.424565 31.126419
27.776397 -69.695484 31.279933
27.98533 -69.495926 28.719578
27.893515 -69.520309 29.990199
28.197662 -68.140133 28.599982
27.98533 -69.495926 28.719578
34.293627 -11.933445 23.19819
34.086539 -10.525716 23.985937
34.293627 -11.933445 23.19819
34.049925 -13.920999 23.291164
34.146627 -18.715713 21.704055
33.998201 -17.195636 22.563361
33.864762 -20.690849 21.76195
34.256201 -20.323285 20.828764
34.146627 -18.715713 21.704055
31.087236 -7.133155 31.497228
30.917659 -9.149746 31.600132
31.495463 -6.410006 30.611646
31.299385 -5.18062 31.309616
31.087236 -7.133155 31.497228
31.701062 -7.813645 29.906123
31.495463 -6.410006 30.611646
31.911125 -9.240998 29.163818
31.701062 -7.813645 29.906123
31.493378 -9.789894 30.056953
32.112603 -10.855258 28.43265
32.320286 -8.879009 28.281819
31.911125 -9.240998 29.163818
30.387575 -14.827471 32.063564
30.238424 -16.645117 32.234956
30.758575 -14.247224 31.163665
30.570992 -12.96401 31.881656
30.387575 -14.827471 32.063564
28.574876 -39.821224 43.381879
28.60389 -41.268595 43.794017
28.670631 -41.056448 42.567144
28.574876 -39.821224 43.381879
28.540156 -38.436752 42.994247
28.599485 -34.708285 40.106346
28.637803 -36.30605 40.459125
28.599485 -34.708285 40.106346
28.693956 -34.304979 39.000256
28.796068 -30.852055 37.34325
28.801116 -32.391765 37.647217
28.939994 -30.370989 36.365801
28.796068 -30.852055 37.34325
29.104427 -29.952365 35.358721
28.939994 -30.370989 36.365801
29.098876 -31.640527 35.554623
29.311729 -29.562133 34.316924
29.152847 -28.292595 35.128101
29.104427 -29.952365 35.358721
28.111619 -52.560929 1.54084
28.616825 -51.374644 2.654996
28.241685 -52.731943 2.666598
27.990381 -52.316443 0.543196
28.111619 -52.560929 1.54084
27.877716 -52.064407 -0.524819
28.374094 -50.951594 0.461224
27.990381 -52.316443 0.543196
27.751693 -51.759124 -1.586039
27.877716 -52.064407 -0.524819
33.714846 -33.841938 1.639031
33.712395 -34.15725 2.70815
33.714846 -33.841938 1.639031
33.155966 -35.301485 0.424988
3 0 254 255
3 0 256 258
3 256 65 257
3 256 257 258
3 259 66 260
3 1 69 67
3 2 72 70
3 2 74 72
3 2 76 74
3 3 79 77
3 3 81 79
3 4 84 82
3 6 87 85
3 6 89 87
3 6 91 89
3 8 261 262
3 8 263 265
3 263 93 264
3 263 264 265
3 9 95 94
3 9 97 95
3 9 99 97
3 10 266 268
3 266 101 267
3 266 267 268
3 10 103 101
3 11 106 104
3 11 108 106
3 12 111 109
3 12 113 111
3 5 116 114
3 13 119 117
3 13 121 119
3 13 123 121
3 14 126 124
3 14 128 126
3 14 130 128
3 15 133 131
3 15 135 133
3 7 138 136
3 269 140 270
3 271 142 272
3 273 272 140
3 271 272 273
3 275 274 142
3 276 145 277
3 278 277 143
3 276 277 278
3 279 146 280
3 281 147 282
3 283 282 146
3 281 282 283
3 285 284 147
3 17 286 287
3 17 288 290
3 288 149 289
3 288 289 290
3 18 291 292
3 18 293 295
3 293 150 294
3 293 294 295
3 18 152 150
3 21 296 298
3 296 153 297
3 296 297 298
3 21 154 153
3 22 299 301
3 299 155 300
3 299 300 301
3 24 156 68
3 24 157 156
3 25 160 158
3 27 161 71
3 27 162 161
3 27 164 162
3 29 165 73
3 29 166 165
3 29 168 166
3 31 169 75
3 31 170 169
3 303 302 171
3 33 175 173
3 34 304 306
3 306 305 78
3 304 305 306
3 34 307 308
3 34 309 310
3 35 311 313
3 313 312 80
3 311 312 313
3 35 314 315
3 36 178 176
3 38 179 83
3 38 180 179
3 16 181 144
3 39 182 86
3 39 183 182
3 39 184 183
3 40 185 88
3 40 186 185
3 40 188 186
3 42 189 90
3 42 190 189
3 316 191 317
3 318 317 148
3 316 317 318
3 43 319 321
3 319 192 320
3 319 320 321
3 43 193 192
3 43 322 324
3 324 323 193
3 322 323 324
3 44 194 92
3 44 195 194
3 325 196 326
3 327 197 328
3 329 328 196
3 327 328 329
3 45 198 96
3 45 199 198
3 45 200 199
3 46 201 98
3 46 202 201
3 19 203 151
3 47 204 100
3 47 205 204
3 47 206 205
3 48 330 332
3 332 331 102
3 330 331 332
3 48 333 335
3 333 207 334
3 333 334 335
3 49 336 338
3 336 208 337
3 336 337 338
3 49 209 208
3 20 339 341
3 339 210 340
3 339 340 341
3 50 211 105
3 50 212 211
3 50 213 212
3 51 214 107
3 51 215 214
3 23 342 344
3 342 343 344
3 346 345 110
3 52 347 349
3 349 348 112
3 347 348 349
3 52 350 352
3 350 216 351
3 350 351 352
3 37 217 177
3 53 218 115
3 53 219 218
3 26 220 159
3 54 221 118
3 54 222 221
3 54 223 222
3 55 224 120
3 55 225 224
3 55 226 225
3 56 227 122
3 56 228 227
3 28 229 163
3 57 230 125
3 57 231 230
3 57 232 231
3 58 233 127
3 58 234 233
3 58 235 234
3 59 236 129
3 59 237 236
3 30 238 167
3 60 239 132
3 60 240 239
3 60 241 240
3 61 242 134
3 61 243 242
3 41 244 187
3 62 245 137
3 62 246 245
3 32 247 172
3 63 248 139
3 63 249 248
3 63 250 249
3 64 251 141
3 64 252 251
3 64 253 252
3 354 353 174
3 65 355 356
3 65 357 359
3 357 17 358
3 357 358 359
3 360 18 361
3 360 361 362
3 364 363 18
3 66 365 366
3 66 367 369
3 367 21 368
3 367 368 369
3 67 68 22
3 69 68 67
3 69 24 68
3 70 71 25
3 72 71 70
3 72 27 71
3 72 73 27
3 74 73 72
3 74 29 73
3 74 75 29
3 76 75 74
3 76 31 75
3 77 78 33
3 79 78 77
3 79 34 78
3 79 80 34
3 81 80 79
3 81 35 80
3 82 83 36
3 84 83 82
3 84 38 83
3 85 86 16
3 87 86 85
3 87 39 86
3 87 88 39
3 89 88 87
3 89 40 88
3 89 90 40
3 91 90 89
3 91 42 90
3 370 43 371
3 374 373 43
3 372 373 374
3 375 92 376
3 93 377 379
3 377 92 378
3 377 378 379
3 93 44 92
3 94 380 381
3 95 382 384
3 384 383 94
3 382 383 384
3 95 385 386
3 95 387 389
3 387 96 388
3 387 388 389
3 97 96 95
3 97 45 96
3 97 98 45
3 99 98 97
3 99 46 98
3 390 100 391
3 392 391 19
3 390 391 392
3 393 100 394
3 395 47 396
3 397 396 100
3 395 396 397
3 399 398 47
3 101 400 401
3 101 402 404
3 402 403 404
3 101 405 407
3 405 102 406
3 405 406 407
3 103 102 101
3 103 48 102
3 408 49 409
3 104 105 20
3 106 105 104
3 106 50 105
3 106 107 50
3 108 107 106
3 108 51 107
3 109 110 23
3 111 110 109
3 111 410 412
3 412 411 110
3 410 411 412
3 111 413 415
3 413 112 414
3 413 414 415
3 113 112 111
3 113 52 112
3 114 115 37
3 116 115 114
3 116 53 115
3 117 118 26
3 119 118 117
3 119 54 118
3 119 120 54
3 121 120 119
3 121 55 120
3 121 122 55
3 123 122 121
3 123 56 122
3 124 125 28
3 126 125 124
3 126 57 125
3 126 127 57
3 128 127 126
3 128 58 127
3 128 129 58
3 130 129 128
3 130 59 129
3 131 132 30
3 133 132 131
3 133 60 132
3 133 134 60
3 135 134 133
3 135 61 134
3 136 137 41
3 138 137 136
3 138 62 137
3 416 139 417
3 418 417 32
3 416 417 418
3 140 419 421
3 419 139 420
3 419 420 421
3 140 63 139
3 140 141 63
3 142 141 140
3 142 64 141
3 142 422 424
3 424 423 64
3 422 423 424
3 426 425 142
3 143 144 4
3 145 144 143
3 145 16 144
3 427 145 428
3 427 428 429
3 146 430 432
3 430 145 431
3 430 431 432
3 146 16 145
3 146 85 16
3 147 85 146
3 147 6 85
3 147 148 6
3 433 148 434
3 435 434 147
3 433 434 435
3 437 436 148
3 149 438 439
3 149 440 442
3 440 8 441
3 440 441 442
3 443 94 444
3 150 445 447
3 445 94 446
3 445 446 447
3 150 9 94
3 150 151 9
3 152 151 150
3 152 19 151
3 448 152 449
3 450 449 18
3 448 449 450
3 451 152 452
3 453 19 454
3 455 454 152
3 453 454 455
3 457 456 19
3 458 10 459
3 460 20 461
3 153 462 463
3 153 464 466
3 464 20 465
3 464 465 466
3 153 104 20
3 154 104 153
3 154 11 104
3 155 467 468
3 155 469 471
3 469 23 470
3 469 470 471
3 68 155 22
3 156 155 68
3 156 23 155
3 156 109 23
3 157 109 156
3 157 12 109
3 158 159 5
3 160 159 158
3 160 26 159
3 71 160 25
3 161 160 71
3 161 26 160
3 161 117 26
3 162 117 161
3 162 13 117
3 162 163 13
3 164 163 162
3 164 28 163
3 73 164 27
3 165 164 73
3 165 28 164
3 165 124 28
3 166 124 165
3 166 14 124
3 166 167 14
3 168 167 166
3 168 30 167
3 75 168 29
3 169 168 75
3 169 30 168
3 169 131 30
3 170 131 169
3 170 15 131
3 171 172 7
3 472 172 473
3 474 473 171
3 472 473 474
3 475 32 476
3 477 476 172
3 475 476 477
3 478 32 479
3 481 480 32
3 173 482 484
3 482 174 483
3 482 483 484
3 175 174 173
3 175 485 487
3 487 486 174
3 485 486 487
3 78 175 33
3 488 175 489
3 490 489 78
3 488 489 490
3 492 491 175
3 80 493 495
3 495 494 34
3 493 494 495
3 498 497 80
3 496 497 498
3 176 177 1
3 178 177 176
3 178 37 177
3 83 178 36
3 179 178 83
3 179 37 178
3 179 114 37
3 180 114 179
3 180 5 114
3 144 84 4
3 181 84 144
3 181 38 84
3 86 181 16
3 182 181 86
3 182 38 181
3 182 180 38
3 183 180 182
3 183 5 180
3 183 158 5
3 184 158 183
3 184 25 158
3 88 184 39
3 185 184 88
3 185 25 184
3 185 70 25
3 186 70 185
3 186 2 70
3 186 187 2
3 188 187 186
3 188 41 187
3 90 188 40
3 189 188 90
3 189 41 188
3 189 136 41
3 190 136 189
3 190 7 136
3 148 91 6
3 191 91 148
3 191 42 91
3 499 191 500
3 192 501 503
3 501 191 502
3 501 502 503
3 192 42 191
3 192 190 42
3 193 190 192
3 193 7 190
3 193 171 7
3 504 171 505
3 506 505 193
3 504 505 506
3 508 507 171
3 510 509 43
3 511 173 512
3 513 173 514
3 515 33 516
3 517 516 173
3 515 516 517
3 92 518 519
3 194 520 522
3 522 521 92
3 520 521 522
3 194 523 525
3 523 33 524
3 523 524 525
3 194 77 33
3 195 77 194
3 195 3 77
3 526 22 527
3 196 528 529
3 196 530 532
3 530 22 531
3 530 531 532
3 196 67 22
3 197 67 196
3 197 1 67
3 96 533 535
3 533 534 535
3 198 536 538
3 538 537 96
3 536 537 538
3 198 539 540
3 198 541 543
3 541 197 542
3 541 542 543
3 199 197 198
3 199 1 197
3 199 176 1
3 200 176 199
3 200 36 176
3 98 200 45
3 201 200 98
3 201 36 200
3 201 82 36
3 202 82 201
3 202 4 82
3 151 99 9
3 203 99 151
3 203 46 99
3 100 203 19
3 204 203 100
3 204 46 203
3 204 202 46
3 205 202 204
3 205 4 202
3 205 143 4
3 206 143 205
3 206 544 546
3 546 545 143
3 544 545 546
3 547 206 548
3 549 548 47
3 547 548 549
3 550 206 551
3 553 552 206
3 102 554 555
3 557 556 102
3 207 558 559
3 207 560 562
3 560 0 561
3 560 561 562
3 208 563 564
3 208 565 567
3 565 566 567
3 208 568 569
3 209 570 572
3 572 571 208
3 570 571 572
3 209 573 575
3 573 10 574
3 573 574 575
3 210 576 577
3 210 578 580
3 578 49 579
3 578 579 580
3 105 210 20
3 211 210 105
3 211 49 210
3 211 209 49
3 212 209 211
3 212 10 209
3 212 103 10
3 213 103 212
3 213 48 103
3 107 213 50
3 214 213 107
3 214 48 213
3 214 207 48
3 215 207 214
3 215 0 207
3 110 581 583
3 583 582 23
3 581 582 583
3 585 584 110
3 112 586 587
3 589 588 112
3 216 590 591
3 216 592 593
3 177 69 1
3 217 69 177
3 217 24 69
3 115 217 37
3 218 217 115
3 218 24 217
3 218 157 24
3 219 157 218
3 219 12 157
3 159 116 5
3 220 116 159
3 220 53 116
3 118 220 26
3 221 220 118
3 221 53 220
3 221 219 53
3 222 219 221
3 222 12 219
3 222 113 12
3 223 113 222
3 223 52 113
3 120 223 54
3 224 223 120
3 224 52 223
3 224 216 52
3 225 216 224
3 225 594 596
3 596 595 216
3 594 595 596
3 225 597 599
3 597 66 598
3 597 598 599
3 226 66 225
3 226 21 66
3 122 226 55
3 227 226 122
3 227 21 226
3 227 154 21
3 228 154 227
3 228 11 154
3 163 123 13
3 229 123 163
3 229 56 123
3 125 229 28
3 230 229 125
3 230 56 229
3 230 228 56
3 231 228 230
3 231 11 228
3 231 108 11
3 232 108 231
3 232 51 108
3 127 232 57
3 233 232 127
3 233 51 232
3 233 215 51
3 234 215 233
3 234 0 215
3 234 65 0
3 235 65 234
3 235 17 65
3 129 235 58
3 236 235 129
3 236 17 235
3 236 149 17
3 237 149 236
3 237 8 149
3 167 130 14
3 238 130 167
3 238 59 130
3 132 238 30
3 239 238 132
3 239 59 238
3 239 237 59
3 240 237 239
3 240 8 237
3 240 93 8
3 241 93 240
3 241 44 93
3 134 241 60
3 242 241 134
3 242 44 241
3 242 195 44
3 243 195 242
3 243 3 195
3 187 76 2
3 244 76 187
3 244 31 76
3 137 244 41
3 245 244 137
3 245 31 244
3 245 170 31
3 246 170 245
3 246 15 170
3 172 138 7
3 247 138 172
3 247 62 138
3 139 247 32
3 248 247 139
3 248 62 247
3 248 246 62
3 249 246 248
3 249 15 246
3 249 135 15
3 250 135 249
3 250 61 135
3 141 250 63
3 251 250 141
3 251 61 250
3 251 243 61
3 252 243 251
3 252 3 243
3 252 81 3
3 253 81 252
3 253 35 81
3 600 253 601
3 602 601 64
3 600 601 602
3 603 253 604
3 605 35 606
3 607 606 253
3 605 606 607
3 609 608 35
3 174 610 611
3 613 612 174
