ply
format ascii 1.0
element vertex 146
property float x
property float y
property float z
element face 128
property list uchar int vertex_index
end_header
19.292721 -12.605178 72.749481
20.649199 -7.584202 72.4786
22.699854 -12.544783 72.713852
21.078878 -17.430391 72.953262
16.879362 -7.535251 71.792435
15.335628 -12.29125 71.765808
24.254061 -18.000568 72.156342
19.867859 -10.009491 72.6408
21.801165 -10.000766 72.684227
21.033497 -12.381139 72.85743
17.484495 -5.072274 71.643311
15.558297 -5.334354 71.093712
14.064541 -9.886056 71.104706
13.228187 -12.080179 70.981064
22.806263 -17.77911 72.701088
23.315916 -20.401039 72.395508
21.251268 -4.818614 72.174545
23.46328 -9.89025 72.40773
24.180847 -12.698327 72.285309
18.285881 -14.746471 72.691429
20.180859 -14.867573 72.928116
19.376467 -4.864902 72.012825
18.811094 -7.432539 72.236404
18.125608 -9.930059 72.350517
14.748004 -7.616358 71.109283
16.101231 -9.920837 71.812164
17.35972 -12.198913 72.349869
16.444334 -14.551216 72.247086
21.903086 -15.133343 72.890579
23.476479 -15.211223 72.562271
14.770625 -4.115477 70.609985
15.793965 -4.010581 70.969284
12.133885 -11.995736 70.512283
12.60221 -10.955215 70.615257
12.732796 -13.012729 70.850804
12.133885 -11.995736 70.512283
22.825711 -21.542645 72.450615
22.503185 -20.235172 72.607643
21.525275 -7.43895 72.437782
21.826309 -6.056156 72.285755
20.950233 -6.201408 72.326572
18.794772 -15.989976 72.793148
17.815452 -15.839647 72.626785
18.687206 -3.664181 71.696907
19.621355 -3.46892 71.845733
13.740968 -7.678079 70.720718
14.122608 -6.524038 70.721661
24.600456 -16.721736 72.022652
24.211666 -15.327064 72.225617
23.86527 -16.605896 72.359307
16.757064 -3.879541 71.244083
17.741219 -3.767867 71.51215
16.521396 -5.203314 71.368511
16.757064 -3.879541 71.244083
15.793965 -4.010581 70.969284
13.020387 -9.858154 70.677078
13.399236 -8.812928 70.718429
13.646364 -10.983117 71.042885
13.020387 -9.858154 70.677078
12.60221 -10.955215 70.615257
13.752177 -13.197145 71.258789
14.805897 -13.30268 71.651161
14.281907 -12.185714 71.373436
13.752177 -13.197145 71.258789
12.732796 -13.012729 70.850804
22.248358 -18.924208 72.760433
21.942571 -17.604751 72.827175
21.384666 -18.749848 72.88652
23.06109 -19.090075 72.548298
22.248358 -18.924208 72.760433
22.503185 -20.235172 72.607643
22.100724 -4.627871 72.086666
22.297252 -3.185092 71.884201
21.447795 -3.375834 71.97208
22.100724 -4.627871 72.086666
21.826309 -6.056156 72.285755
22.101258 -8.647232 72.540596
21.525275 -7.43895 72.437782
21.225182 -8.792484 72.581413
22.932315 -8.591974 72.402347
22.101258 -8.647232 72.540596
22.632223 -9.945508 72.545979
23.726514 -8.535163 72.222141
22.932315 -8.591974 72.402347
24.173404 -10.01534 72.136924
23.726514 -8.535163 72.222141
24.532187 -11.419379 72.075714
24.173404 -10.01534 72.136924
23.822063 -11.294289 72.346519
24.891119 -12.809658 71.886249
25.242459 -11.53071 71.676654
24.532187 -11.419379 72.075714
19.742261 -16.050528 72.911492
19.23337 -14.807022 72.809773
18.794772 -15.989976 72.793148
20.191271 -17.331936 72.924065
20.629869 -16.148982 72.940689
19.742261 -16.050528 72.911492
20.530454 -18.612684 72.933956
20.191271 -17.331936 72.924065
21.384666 -18.749848 72.88652
20.530454 -18.612684 72.933956
20.558756 -3.445775 71.926593
21.447795 -3.375834 71.97208
20.313868 -4.841758 72.093685
20.558756 -3.445775 71.926593
19.621355 -3.46892 71.845733
18.430481 -4.968588 71.828068
18.687206 -3.664181 71.696907
17.741219 -3.767867 71.51215
14.527754 -5.383036 70.713875
14.770625 -4.115477 70.609985
13.740082 -4.16416 70.230149
15.15315 -6.475356 71.101497
14.527754 -5.383036 70.713875
14.122608 -6.524038 70.721661
14.406273 -8.751207 71.106994
13.740968 -7.678079 70.720718
13.399236 -8.812928 70.718429
16.894678 -15.742019 72.404613
17.815452 -15.839647 72.626785
17.365108 -14.648843 72.469257
15.36025 -14.432663 71.8918
15.889981 -13.421233 72.006447
14.805897 -13.30268 71.651161
15.895858 -15.517136 72.125271
15.36025 -14.432663 71.8918
16.894678 -15.742019 72.404613
15.895858 -15.517136 72.125271
24.563849 -14.070616 72.087136
23.828663 -13.954775 72.42379
24.211666 -15.327064 72.225617
24.891119 -12.809658 71.886249
24.563849 -14.070616 72.087136
23.526214 -21.719775 72.171852
22.825711 -21.542645 72.450615
24.040605 -20.547226 72.010292
23.526214 -21.719775 72.171852
24.250902 -21.865962 71.786636
24.509677 -19.346991 71.890709
23.784989 -19.200803 72.275925
24.040605 -20.547226 72.010292
24.925224 -18.144261 71.700863
24.509677 -19.346991 71.890709
24.600456 -16.721736 72.022652
24.925224 -18.144261 71.700863
3 0 9 7
3 30 11 31
3 32 13 33
3 35 34 13
3 36 15 37
3 1 38 40
3 40 39 16
3 38 39 40
3 2 17 8
3 2 18 17
3 42 41 19
3 43 21 44
3 4 22 10
3 4 23 22
3 45 24 46
3 5 25 12
3 5 26 25
3 5 27 26
3 3 28 20
3 6 29 14
3 6 47 49
3 49 48 29
3 47 48 49
3 7 8 1
3 9 8 7
3 9 2 8
3 50 10 51
3 11 52 54
3 52 10 53
3 52 53 54
3 11 4 10
3 55 12 56
3 13 57 59
3 57 12 58
3 57 58 59
3 13 5 12
3 13 60 62
3 62 61 5
3 60 61 62
3 64 63 13
3 65 14 66
3 67 66 3
3 65 66 67
3 15 68 70
3 68 14 69
3 68 69 70
3 15 6 14
3 16 71 73
3 71 72 73
3 75 74 16
3 8 76 78
3 78 77 1
3 76 77 78
3 17 79 81
3 81 80 8
3 79 80 81
3 17 82 83
3 17 84 85
3 18 86 88
3 88 87 17
3 86 87 88
3 18 89 91
3 89 90 91
3 19 20 0
3 92 20 93
3 94 93 19
3 92 93 94
3 95 3 96
3 97 96 20
3 95 96 97
3 98 3 99
3 101 100 3
3 102 16 103
3 21 104 106
3 104 16 105
3 104 105 106
3 21 1 16
3 10 107 109
3 107 21 108
3 107 108 109
3 22 21 10
3 22 1 21
3 22 7 1
3 23 7 22
3 23 0 7
3 110 11 111
3 110 111 112
3 24 113 115
3 113 11 114
3 113 114 115
3 24 4 11
3 12 116 118
3 116 24 117
3 116 117 118
3 25 24 12
3 25 4 24
3 25 23 4
3 26 23 25
3 26 0 23
3 26 19 0
3 27 19 26
3 27 119 121
3 121 120 19
3 119 120 121
3 122 27 123
3 124 123 5
3 122 123 124
3 125 27 126
3 128 127 27
3 20 9 0
3 28 9 20
3 28 2 9
3 14 28 3
3 29 28 14
3 29 2 28
3 29 18 2
3 129 18 130
3 131 130 29
3 129 130 131
3 133 132 18
3 134 15 135
3 136 15 137
3 136 137 138
3 139 6 140
3 141 140 15
3 139 140 141
3 142 6 143
3 145 144 6
