ply
format ascii 1.0
element vertex 103
property float x
property float y
property float z
element face 87
property list uchar int vertex_index
end_header
-38.071434 -41.270241 -36.773037
-34.852016 -43.93642 -43.533367
-38.86335 -35.552761 -41.188725
-36.880672 -42.486382 -40.381924
-37.38649 -36.54451 -44.620354
-38.183018 -36.250237 -42.858994
-37.485973 -43.980644 -34.592491
-36.993164 -44.885002 -36.338501
-35.909031 -43.435524 -41.941029
-35.601044 -46.139885 -39.905243
-38.520393 -38.485439 -38.996761
-37.569645 -41.91806 -38.54282
-37.934109 -39.058224 -40.80225
-37.102375 -39.857059 -42.469372
-36.172279 -40.287891 -44.108173
-38.949425 -37.83783 -37.285831
-39.325989 -35.078426 -39.470695
-36.448055 -45.323601 -38.23719
-36.279675 -37.155098 -46.241333
-34.989246 -40.847752 -45.633568
-34.695007 -45.441925 -42.524097
-35.223515 -45.191477 -41.727929
-35.380523 -43.685972 -42.737198
-34.086275 -45.879819 -43.198586
-34.695007 -45.441925 -42.524097
-39.307305 -36.189965 -37.543253
-39.071485 -37.658552 -36.356623
-39.495587 -34.810263 -38.635684
-39.137707 -36.458128 -38.378263
-39.307305 -36.189965 -37.543253
-35.37965 -47.525038 -38.812655
-34.915064 -47.908188 -39.65465
-35.664332 -37.393528 -46.960764
-36.268644 -35.433864 -47.364952
-35.019117 -39.239855 -46.656881
-35.634461 -39.001425 -45.93745
-35.664332 -37.393528 -46.960764
-38.618668 -34.400465 -43.139908
-38.523184 -35.901499 -42.02386
-38.958833 -34.051727 -42.304773
-38.235157 -34.665501 -44.028189
-38.618668 -34.400465 -43.139908
-37.836893 -34.812638 -44.908869
-37.784754 -36.397374 -43.739674
-38.235157 -34.665501 -44.028189
-36.950708 -45.687634 -34.348417
-37.129087 -45.319145 -33.38702
-36.704304 -46.139813 -35.221422
-36.950708 -45.687634 -34.348417
-37.239569 -44.432823 -35.465496
-36.420448 -46.558515 -36.160995
-36.704304 -46.139813 -35.221422
-35.069521 -46.543657 -40.710036
-35.755038 -44.787705 -40.923136
-35.223515 -45.191477 -41.727929
-34.915064 -47.908188 -39.65465
-35.069521 -46.543657 -40.710036
-37.62673 -43.664335 -33.669433
-37.129087 -45.319145 -33.38702
-37.269845 -45.002836 -32.463962
-37.93944 -42.366739 -34.789385
-37.62673 -43.664335 -33.669433
-38.23217 -41.011538 -35.879658
-37.778704 -42.625442 -35.682764
-37.93944 -42.366739 -34.789385
-38.671166 -39.295332 -36.136055
-39.071485 -37.658552 -36.356623
-38.51043 -39.554035 -37.029434
-38.23217 -41.011538 -35.879658
-38.671166 -39.295332 -36.136055
-39.652798 -33.453941 -39.648872
-39.495587 -34.810263 -38.635684
-39.460539 -33.650356 -40.522593
-39.652798 -33.453941 -39.648872
-39.229219 -33.887524 -41.381608
-39.094669 -35.315593 -40.32971
-39.460539 -33.650356 -40.522593
-38.958833 -34.051727 -42.304773
-39.229219 -33.887524 -41.381608
-36.147894 -46.777815 -37.11034
-36.420448 -46.558515 -36.160995
-36.720609 -45.104301 -37.287846
-35.803156 -47.116896 -37.978628
-36.024549 -45.731743 -39.071216
-35.37965 -47.525038 -38.812655
-36.147894 -46.777815 -37.11034
-35.803156 -47.116896 -37.978628
-37.374275 -35.025553 -45.736687
-37.836893 -34.812638 -44.908869
-36.820868 -35.330847 -46.547176
-36.268644 -35.433864 -47.364952
-36.833083 -36.849804 -45.430843
-37.374275 -35.025553 -45.736687
-36.820868 -35.330847 -46.547176
-34.289381 -41.226866 -46.276682
-35.019117 -39.239855 -46.656881
-34.30554 -42.686115 -45.275418
-34.289381 -41.226866 -46.276682
-34.236925 -44.230449 -44.225317
-34.920631 -42.392086 -44.583467
-34.30554 -42.686115 -45.275418
-34.086275 -45.879819 -43.198586
-34.236925 -44.230449 -44.225317
3 0 7 6
3 1 20 22
3 22 21 8
3 20 21 22
3 1 23 24
3 2 12 10
3 4 13 5
3 4 14 13
3 25 15 26
3 27 16 28
3 29 28 15
3 27 28 29
3 3 17 11
3 31 30 9
3 32 18 33
3 34 19 35
3 36 35 18
3 34 35 36
3 37 5 38
3 39 38 2
3 37 38 39
3 40 5 41
3 42 4 43
3 44 43 5
3 42 43 44
3 6 45 46
3 7 47 49
3 49 48 6
3 47 48 49
3 7 50 51
3 8 9 3
3 52 9 53
3 54 53 8
3 52 53 54
3 56 55 9
3 10 11 0
3 12 11 10
3 12 3 11
3 5 12 2
3 13 12 5
3 13 3 12
3 13 8 3
3 14 8 13
3 14 1 8
3 57 6 58
3 57 58 59
3 60 6 61
3 62 0 63
3 64 63 6
3 62 63 64
3 15 65 66
3 15 67 69
3 67 0 68
3 67 68 69
3 15 10 0
3 16 10 15
3 16 2 10
3 70 16 71
3 72 16 73
3 74 2 75
3 76 75 16
3 74 75 76
3 78 77 2
3 11 7 0
3 17 7 11
3 17 79 81
3 81 80 7
3 79 80 81
3 9 17 3
3 82 17 83
3 84 83 9
3 82 83 84
3 86 85 17
3 87 4 88
3 18 89 90
3 18 91 93
3 91 4 92
3 91 92 93
3 18 14 4
3 19 14 18
3 19 1 14
3 94 19 95
3 96 19 97
3 98 1 99
3 100 99 19
3 98 99 100
3 102 101 1
