ply
format ascii 1.0
element vertex 214
property float x
property float y
property float z
element face 211
property list uchar int vertex_index
end_header
-10.531129 -87.559296 -37.855034
-11.001259 -77.69043 -43.186172
-18.611448 -81.799835 -32.498245
-20.003159 -73.459061 -39.426769
-5.578633 -90.007874 -39.349476
-10.728344 -83.214699 -40.653412
-23.553974 -71.020821 -36.75145
-24.212152 -66.239059 -40.191845
-20.290768 -68.04528 -42.717564
-14.946329 -84.845421 -35.3643
-22.805727 -75.110214 -32.780777
-19.36871 -78.088364 -35.99559
-15.45074 -80.579834 -38.731098
-15.622813 -75.745621 -41.756474
-16.037224 -69.874748 -44.38171
-8.035105 -90.909233 -37.192734
-8.224399 -88.639679 -38.786564
-8.191621 -86.659058 -40.068016
-10.70395 -85.386665 -39.319492
-8.279974 -81.535057 -42.534279
-11.018495 -74.744629 -44.306595
-16.497889 -85.095375 -32.13995
-14.782145 -86.476616 -33.609962
-16.816711 -83.424828 -33.967274
-24.076193 -73.876152 -31.039982
-24.711088 -71.818359 -33.077278
-21.872114 -72.139557 -38.23156
-21.541618 -74.41613 -36.455814
-19.62336 -75.951347 -37.784683
-17.450085 -79.444809 -37.409939
-17.620592 -77.24292 -39.08226
-15.707624 -78.035034 -40.314842
-17.891094 -74.590431 -40.698994
-18.276924 -68.963867 -43.602409
-8.20812 -84.202438 -41.370625
-10.759895 -80.605408 -41.999779
-20.111769 -80.44722 -30.721659
-25.186029 -69.679245 -35.170147
-23.955524 -68.619019 -38.528343
-22.135139 -69.681572 -39.941753
-20.021545 -71.015076 -41.135414
-22.331778 -67.049156 -41.599251
-22.326283 -64.477661 -43.189476
-10.516444 -89.313278 -36.329231
-12.629021 -88.121216 -34.996841
-12.856964 -86.158356 -36.742882
-23.453619 -75.655548 -28.98407
-22.215635 -77.058083 -30.799023
-20.813833 -78.362366 -32.625305
-23.174215 -73.235542 -34.76857
-21.209282 -76.468407 -34.567261
-19.039383 -79.952682 -34.305588
-17.056942 -81.594307 -35.787552
-15.03616 -82.993973 -37.13554
-13.015305 -84.052261 -38.391628
-13.297605 -81.798569 -39.779968
-13.215068 -79.517677 -41.229565
-13.465159 -76.723671 -42.534504
-17.968643 -71.898132 -42.258404
-15.807659 -72.784645 -43.167927
-13.412255 -74.007286 -43.773075
-9.743789 -78.142628 -43.384788
-8.383146 -80.064942 -43.058842
-9.640617 -79.612743 -42.860225
-11.009877 -76.21753 -43.746384
-9.752406 -76.669727 -43.945
-9.743789 -78.142628 -43.384788
-17.554668 -83.447605 -32.319097
-17.334916 -84.309899 -31.314085
-18.391695 -82.662128 -31.493232
-25.618366 -70.193447 -33.214412
-25.269627 -71.283947 -32.205515
-4.289385 -91.5892 -38.904616
-5.611981 -91.049591 -38.632355
-4.27588 -90.478836 -39.563483
-2.986632 -92.060162 -39.118622
-4.289385 -91.5892 -38.904616
-5.634838 -88.780549 -40.005607
-4.27588 -90.478836 -39.563483
-20.829039 -79.663567 -29.77536
-19.907731 -81.166061 -29.704561
-24.083838 -67.429039 -39.360094
-24.985159 -66.792862 -38.703293
-25.113473 -65.602882 -39.535044
-23.389585 -62.545578 -43.464895
-23.406259 -63.902591 -42.592417
-22.43924 -62.967982 -43.942068
-23.389585 -62.545578 -43.464895
-10.475248 -90.177059 -35.4653
-9.370169 -90.929229 -35.913128
-24.347945 -74.061729 -29.145352
-24.034196 -74.852466 -28.04999
-14.800939 -70.364845 -44.670007
-13.488455 -72.431114 -44.36569
-14.724739 -71.941017 -44.077393
-6.840217 -91.500271 -37.553984
-6.929381 -92.392936 -36.759964
-6.934864 -90.365494 -38.350899
-6.840217 -91.500271 -37.553984
-8.129752 -89.774456 -37.989649
-6.901516 -89.323777 -39.06802
-5.611981 -91.049591 -38.632355
-6.934864 -90.365494 -38.350899
-25.23675 -64.261714 -40.502976
-25.113473 -65.602882 -39.535044
-24.349193 -64.78329 -41.093602
-25.23675 -64.261714 -40.502976
-7.11376 -81.842182 -42.699675
-6.979492 -83.265384 -42.186943
-7.11376 -81.842182 -42.699675
-8.383146 -80.064942 -43.058842
-9.886527 -75.068908 -44.441593
-9.752406 -76.669727 -43.945
-11.070768 -73.116123 -44.840145
-9.886527 -75.068908 -44.441593
-16.303954 -85.859596 -31.228499
-17.334916 -84.309899 -31.314085
-15.485311 -86.579132 -31.989688
-16.303954 -85.859596 -31.228499
-15.640017 -85.785996 -32.874956
-14.627439 -87.269753 -32.724694
-15.485311 -86.579132 -31.989688
-24.952179 -72.312843 -31.186867
-24.659232 -73.172032 -30.173307
-24.393641 -72.847256 -32.05863
-24.952179 -72.312843 -31.186867
-25.269627 -71.283947 -32.205515
-19.365422 -66.990566 -43.917049
-19.283846 -68.504573 -43.159987
-20.372344 -66.531273 -43.474626
-18.270751 -67.530991 -44.284004
-19.365422 -66.990566 -43.917049
-17.150901 -67.986431 -44.673654
-17.157074 -69.419308 -43.992059
-18.270751 -67.530991 -44.284004
-16.063187 -68.379802 -44.98897
-17.150901 -67.986431 -44.673654
-6.941332 -87.106141 -40.364877
-5.634838 -88.780549 -40.005607
-6.885127 -88.333466 -39.708746
-6.949582 -85.877831 -41.016182
-6.941332 -87.106141 -40.364877
-8.19987 -85.430748 -40.71932
-6.943566 -84.599075 -41.605116
-6.949582 -85.877831 -41.016182
-8.244047 -82.868747 -41.952452
-6.979492 -83.265384 -42.186943
-6.943566 -84.599075 -41.605116
-19.141855 -81.985821 -30.60494
-19.907731 -81.166061 -29.704561
-19.361608 -81.123527 -31.609952
-18.391695 -82.662128 -31.493232
-19.141855 -81.985821 -30.60494
-26.131423 -67.984848 -35.305064
-25.855837 -69.12389 -34.260847
-25.339104 -68.646404 -36.125088
-26.131423 -67.984848 -35.305064
-24.523076 -69.317193 -36.91574
-24.370002 -70.350033 -35.960798
-25.339104 -68.646404 -36.125088
-24.723851 -68.116291 -37.804186
-24.985159 -66.792862 -38.703293
-23.754749 -69.81992 -37.639896
-24.523076 -69.317193 -36.91574
-24.723851 -68.116291 -37.804186
-23.409007 -65.188339 -41.797305
-23.271965 -66.644107 -40.895548
-24.349193 -64.78329 -41.093602
-22.329031 -65.763408 -42.394363
-23.409007 -65.188339 -41.797305
-23.406259 -63.902591 -42.592417
-21.390102 -64.747463 -43.710583
-20.372344 -66.531273 -43.474626
-21.308526 -66.261471 -42.95352
-21.390102 -64.747463 -43.710583
-22.43924 -62.967982 -43.942068
-8.129499 -91.727207 -36.34488
-6.929381 -92.392936 -36.759964
-9.275775 -90.111255 -36.760982
-8.129499 -91.727207 -36.34488
-9.370169 -90.929229 -35.913128
-13.692248 -88.001503 -33.43925
-14.627439 -87.269753 -32.724694
-12.615686 -88.823803 -34.13269
-13.692248 -88.001503 -33.43925
-13.705583 -87.298916 -34.303402
-11.531536 -89.581028 -34.799104
-12.615686 -88.823803 -34.13269
-11.572733 -88.717247 -35.663036
-10.475248 -90.177059 -35.4653
-11.531536 -89.581028 -34.799104
-23.14526 -76.424408 -27.943487
-24.034196 -74.852466 -28.04999
-22.499964 -77.26773 -28.906566
-23.14526 -76.424408 -27.943487
-23.764906 -74.76585 -30.012026
-24.347945 -74.061729 -29.145352
-24.659232 -73.172032 -30.173307
-21.880972 -77.968998 -29.814042
-22.499964 -77.26773 -28.906566
-22.834627 -76.356815 -29.891546
-21.163702 -78.752651 -30.760341
-20.829039 -79.663567 -29.77536
-21.880972 -77.968998 -29.814042
-24.948559 -70.748802 -34.123712
-25.618366 -70.193447 -33.214412
-25.855837 -69.12389 -34.260847
-12.291575 -72.799785 -44.63245
-12.215375 -74.375957 -44.039835
-13.488455 -72.431114 -44.36569
-11.070768 -73.116123 -44.840145
-12.291575 -72.799785 -44.63245
-14.800939 -70.364845 -44.670007
-16.063187 -68.379802 -44.98897
3 0 16 15
3 0 18 16
3 1 61 63
3 63 62 19
3 61 62 63
3 1 64 66
3 64 20 65
3 64 65 66
3 2 67 69
3 67 21 68
3 67 68 69
3 2 23 21
3 70 25 71
3 3 28 26
3 3 30 28
3 3 32 30
3 4 72 73
3 4 74 76
3 74 75 76
3 4 77 78
3 5 34 17
3 5 35 34
3 79 36 80
3 7 81 83
3 81 38 82
3 81 82 83
3 7 39 38
3 7 41 39
3 84 42 85
3 87 86 42
3 88 43 89
3 9 44 22
3 9 45 44
3 90 46 91
3 10 47 24
3 10 48 47
3 6 49 37
3 11 50 27
3 11 51 50
3 11 52 51
3 12 53 29
3 12 54 53
3 12 55 54
3 13 56 31
3 13 57 56
3 8 58 40
3 14 59 33
3 14 60 59
3 14 92 94
3 94 93 60
3 92 93 94
3 15 95 96
3 16 97 99
3 99 98 15
3 97 98 99
3 16 100 102
3 100 4 101
3 100 101 102
3 16 17 4
3 18 17 16
3 18 5 17
3 103 7 104
3 106 105 7
3 19 107 108
3 110 109 19
3 20 111 112
3 20 113 114
3 21 115 116
3 21 117 118
3 21 119 121
3 119 22 120
3 119 120 121
3 23 22 21
3 23 9 22
3 122 24 123
3 25 124 126
3 124 24 125
3 124 125 126
3 25 10 24
3 26 27 6
3 28 27 26
3 28 11 27
3 28 29 11
3 30 29 28
3 30 12 29
3 30 31 12
3 32 31 30
3 32 13 31
3 127 33 128
3 129 128 8
3 127 128 129
3 130 33 131
3 132 14 133
3 134 133 33
3 132 133 134
3 136 135 14
3 17 137 139
3 139 138 4
3 137 138 139
3 34 140 142
3 142 141 17
3 140 141 142
3 34 143 144
3 34 145 147
3 145 19 146
3 145 146 147
3 35 19 34
3 35 1 19
3 36 148 149
3 36 150 152
3 150 2 151
3 150 151 152
3 153 37 154
3 155 37 156
3 157 6 158
3 159 158 37
3 157 158 159
3 38 160 161
3 38 162 164
3 162 6 163
3 162 163 164
3 38 26 6
3 39 26 38
3 39 3 26
3 39 40 3
3 41 40 39
3 41 8 40
3 165 41 166
3 167 166 7
3 165 166 167
3 42 168 170
3 168 41 169
3 168 169 170
3 42 8 41
3 42 171 173
3 173 172 8
3 171 172 173
3 175 174 42
3 176 15 177
3 43 178 180
3 178 15 179
3 178 179 180
3 43 0 15
3 22 181 182
3 44 183 185
3 185 184 22
3 183 184 185
3 44 186 187
3 44 188 190
3 188 43 189
3 188 189 190
3 45 43 44
3 45 0 43
3 46 191 192
3 46 193 194
3 24 195 197
3 195 46 196
3 195 196 197
3 47 46 24
3 47 198 200
3 200 199 46
3 198 199 200
3 47 201 203
3 201 36 202
3 201 202 203
3 48 36 47
3 48 2 36
3 37 204 206
3 204 25 205
3 204 205 206
3 49 25 37
3 49 10 25
3 27 49 6
3 50 49 27
3 50 10 49
3 50 48 10
3 51 48 50
3 51 2 48
3 51 23 2
3 52 23 51
3 52 9 23
3 29 52 11
3 53 52 29
3 53 9 52
3 53 45 9
3 54 45 53
3 54 0 45
3 54 18 0
3 55 18 54
3 55 5 18
3 31 55 12
3 56 55 31
3 56 5 55
3 56 35 5
3 57 35 56
3 57 1 35
3 40 32 3
3 58 32 40
3 58 13 32
3 33 58 8
3 59 58 33
3 59 13 58
3 59 57 13
3 60 57 59
3 60 1 57
3 60 20 1
3 207 20 208
3 209 208 60
3 207 208 209
3 211 210 20
3 213 212 14
