ply
format ascii 1.0
element vertex 256
property float x
property float y
property float z
element face 264
property list uchar int vertex_index
end_header
15.770384 19.823299 -21.647617
19.173136 20.260698 -28.658756
19.537027 13.339046 -22.03451
15.273171 23.466028 -23.47094
16.698603 23.728895 -27.252743
17.205872 19.597523 -24.599867
20.485817 25.994606 -37.014313
22.353867 27.379463 -42.285053
22.09338 10.308691 -22.046072
22.196037 13.67132 -25.934597
16.03688 28.409618 -30.050537
18.485043 24.561495 -31.728247
21.553907 21.4835 -33.383591
15.559017 18.467215 -19.05599
17.325132 16.647635 -21.845013
17.253422 14.378525 -18.777065
19.42083 10.597263 -18.446175
19.41856 16.504137 -25.31613
21.974676 17.406845 -29.618822
15.545788 21.310804 -22.408566
16.192823 21.389696 -24.076124
16.351789 19.627478 -22.872217
22.127918 24.477425 -37.709782
21.522276 26.53911 -39.544903
23.689213 10.612522 -24.189125
15.386925 28.252796 -27.951511
17.874529 21.921776 -28.00028
17.591269 24.055183 -29.463293
18.955683 22.252005 -30.242022
19.951641 22.910383 -32.544498
20.363384 20.796787 -30.988771
16.304306 16.377657 -18.777014
16.35218 15.413348 -17.360813
18.244198 11.296176 -16.905071
19.393126 9.331918 -16.686668
18.354805 14.938001 -21.885479
18.336597 16.342569 -23.419025
19.545048 14.855602 -23.757275
23.640038 14.344808 -28.217287
22.097754 15.480796 -27.749407
23.489656 16.203379 -30.049482
23.444567 18.113663 -32.052517
15.017047 25.7784 -24.618792
15.695475 25.833874 -26.645046
15.957536 23.537985 -25.345364
16.946207 21.581692 -25.874153
18.066757 19.874098 -26.443823
18.961226 27.323032 -35.820499
20.737499 11.751369 -21.96261
20.848688 13.333374 -23.914371
22.188324 11.844989 -23.914734
23.618986 12.468911 -26.167717
16.838945 28.616817 -32.469662
16.438026 25.968742 -28.694178
17.184593 26.491869 -31.005571
18.141506 26.72366 -33.374405
19.605026 25.02919 -34.290104
21.080328 23.621603 -35.096451
22.698002 22.433542 -36.001812
15.13402 21.136513 -20.925602
15.646318 19.228035 -20.527197
14.96555 20.644585 -19.509972
14.819618 23.130459 -21.726257
16.419107 18.308096 -21.679235
16.371529 17.289221 -20.292524
17.280674 15.448832 -20.287537
18.330015 13.661294 -20.298004
17.275352 13.285766 -17.206757
18.295666 12.446203 -18.645491
19.455776 11.952368 -20.239605
20.721228 10.285841 -20.187672
17.253048 18.051128 -23.205515
18.221628 17.973936 -24.891226
19.295418 18.317987 -26.954556
20.789867 15.005111 -25.654247
20.659441 16.802553 -27.355831
20.503557 18.676767 -29.04557
21.793085 19.39608 -31.466534
23.047857 20.258156 -33.946384
22.643933 24.903781 -39.054911
22.940076 23.913955 -38.116424
15.092428 28.171351 -26.907291
14.929557 29.493011 -27.49732
15.964509 16.249491 -16.806342
15.919257 16.671231 -17.517906
19.396691 8.729069 -15.834084
18.847862 9.725854 -15.963529
19.995752 7.851489 -15.765156
19.992186 8.454339 -16.617739
19.396691 8.729069 -15.834084
24.311453 15.703197 -30.341591
23.564847 15.274094 -29.133384
24.386645 14.773912 -29.425494
24.208717 16.632039 -31.259929
24.311453 15.703197 -30.341591
20.179618 27.002409 -37.821686
19.417322 27.666622 -37.224779
19.723522 26.658819 -36.417406
21.497491 28.036335 -41.779197
21.081696 27.616159 -40.409122
21.938071 26.959287 -40.914978
21.863234 28.365181 -43.143833
21.497491 28.036335 -41.779197
22.722681 27.823379 -43.753526
21.863234 28.365181 -43.143833
24.404782 11.832024 -26.241915
23.6541 11.540717 -25.178421
24.439895 10.90383 -25.25262
24.370523 12.827835 -27.297327
24.404782 11.832024 -26.241915
15.844123 29.624192 -30.804763
15.328311 30.790578 -30.355266
15.521069 29.576004 -29.60104
16.437912 28.513217 -31.260099
16.245155 29.727792 -32.014326
15.844123 29.624192 -30.804763
14.722382 21.875349 -19.83852
15.049785 20.890549 -20.217787
14.806617 22.121313 -20.546335
14.649415 23.118286 -20.946662
14.48925 24.359689 -21.410463
14.806617 22.121313 -20.546335
14.976819 22.133486 -21.32593
14.649415 23.118286 -20.946662
17.278346 12.805065 -16.386435
16.821351 13.973254 -16.567207
16.824345 13.492553 -15.746885
23.871752 19.706689 -34.263838
23.246212 19.18591 -32.999451
24.070107 18.634442 -33.316904
23.63737 20.799962 -35.278862
23.871752 19.706689 -34.263838
22.341112 25.934624 -39.972471
21.825097 25.508268 -38.627342
22.643933 24.903781 -39.054911
22.756908 26.3548 -41.342546
21.938071 26.959287 -40.914978
22.341112 25.934624 -39.972471
23.161828 26.830012 -42.698173
22.756908 26.3548 -41.342546
23.615754 9.802596 -23.193223
22.891296 10.460607 -23.117598
22.817837 9.65068 -22.121696
24.442412 9.967619 -24.22387
23.615754 9.802596 -23.193223
24.439895 10.90383 -25.25262
24.442412 9.967619 -24.22387
15.196091 29.497593 -28.551527
14.929557 29.493011 -27.49732
15.711903 28.331207 -29.001024
15.521069 29.576004 -29.60104
15.196091 29.497593 -28.551527
15.89532 17.153385 -18.226007
15.931662 17.422436 -18.916502
15.522676 18.198164 -18.365495
16.328243 15.895502 -18.068914
15.89532 17.153385 -18.226007
15.919257 16.671231 -17.517906
18.273398 10.707983 -16.07273
17.762769 11.81027 -16.235592
18.818662 10.314047 -16.79587
18.273398 10.707983 -16.07273
18.847862 9.725854 -15.963529
20.055499 9.081661 -17.530202
20.069351 9.714333 -18.409955
19.406978 9.96459 -17.566422
20.055499 9.081661 -17.530202
19.992186 8.454339 -16.617739
24.186172 17.58718 -32.261446
23.467112 17.158521 -31.051
24.208717 16.632039 -31.259929
24.070107 18.634442 -33.316904
24.186172 17.58718 -32.261446
15.356261 25.806137 -25.631919
15.246703 26.96189 -26.254058
14.907489 26.934153 -25.240931
18.698334 28.413457 -36.74187
18.275494 28.195475 -35.386579
18.698334 28.413457 -36.74187
19.417322 27.666622 -37.224779
20.697848 27.274661 -39.086981
20.179618 27.002409 -37.821686
21.004047 26.266858 -38.279608
20.697848 27.274661 -39.086981
21.081696 27.616159 -40.409122
23.530642 27.273927 -44.166647
22.722681 27.823379 -43.753526
23.161828 26.830012 -42.698173
24.381049 13.765784 -28.322112
23.629512 13.406859 -27.192502
24.370523 12.827835 -27.297327
24.386645 14.773912 -29.425494
24.381049 13.765784 -28.322112
16.562628 29.855241 -33.2218
16.245155 29.727792 -32.014326
17.214354 28.842367 -33.711161
16.562628 29.855241 -33.2218
15.5412 27.043335 -27.298279
15.092428 28.171351 -26.907291
15.246703 26.96189 -26.254058
17.865634 27.895789 -34.163533
17.214354 28.842367 -33.711161
17.490226 27.670238 -32.922033
18.551366 27.023346 -34.597452
18.275494 28.195475 -35.386579
17.865634 27.895789 -34.163533
23.225119 22.892013 -37.262439
22.940076 23.913955 -38.116424
22.41296 23.455483 -36.855797
14.672423 21.643074 -19.096515
14.722382 21.875349 -19.83852
14.911379 20.463373 -18.803027
14.672423 21.643074 -19.096515
14.618253 21.461863 -18.38957
15.208113 19.374688 -18.576036
15.262284 19.5559 -19.282981
14.911379 20.463373 -18.803027
15.522676 18.198164 -18.365495
15.208113 19.374688 -18.576036
14.627868 27.041254 -24.257685
14.907489 26.934153 -25.240931
14.51831 28.197007 -24.879824
14.755403 25.733587 -23.676678
14.627868 27.041254 -24.257685
14.883465 24.577401 -23.102752
15.145109 24.622214 -24.044866
14.755403 25.733587 -23.676678
14.656689 24.409616 -22.23041
14.48925 24.359689 -21.410463
15.046394 23.298243 -22.598599
14.883465 24.577401 -23.102752
14.656689 24.409616 -22.23041
16.359765 15.037045 -16.644234
15.964509 16.249491 -16.806342
16.813766 14.349557 -17.283785
16.359765 15.037045 -16.644234
16.821351 13.973254 -16.567207
17.759775 12.290971 -17.055914
17.278346 12.805065 -16.386435
17.762769 11.81027 -16.235592
20.719551 9.558622 -19.280704
20.071029 10.441552 -19.316924
20.069351 9.714333 -18.409955
21.405591 9.521384 -20.197652
20.719551 9.558622 -19.280704
22.091667 9.532809 -21.126852
21.407304 10.297266 -21.116872
21.405591 9.521384 -20.197652
22.816125 8.874799 -21.202476
22.817837 9.65068 -22.121696
22.091667 9.532809 -21.126852
23.462443 21.887655 -36.306576
22.872929 21.345849 -34.974098
23.63737 20.799962 -35.278862
23.225119 22.892013 -37.262439
23.462443 21.887655 -36.306576
3 0 21 19
3 80 79 22
3 81 25 82
3 1 28 26
3 1 30 28
3 83 32 84
3 85 34 86
3 89 88 34
3 87 88 89
3 2 37 35
3 90 40 91
3 92 91 38
3 90 91 92
3 94 93 40
3 3 44 42
3 5 45 20
3 5 46 45
3 6 95 97
3 97 96 47
3 95 96 97
3 7 98 100
3 100 99 23
3 98 99 100
3 7 101 102
3 7 103 104
3 8 50 48
3 105 51 106
3 107 106 24
3 105 106 107
3 109 108 51
3 10 110 112
3 110 111 112
3 10 113 115
3 113 52 114
3 113 114 115
3 4 53 43
3 11 54 27
3 11 55 54
3 11 56 55
3 12 57 29
3 12 58 57
3 116 61 117
3 118 117 59
3 116 117 118
3 119 62 120
3 121 59 122
3 123 122 62
3 121 122 123
3 13 64 60
3 15 65 31
3 15 66 65
3 124 67 125
3 124 125 126
3 16 68 33
3 16 69 68
3 16 70 69
3 14 71 63
3 17 72 36
3 17 73 72
3 9 74 49
3 18 75 39
3 18 76 75
3 18 77 76
3 127 78 128
3 129 128 41
3 127 128 129
3 131 130 78
3 19 20 3
3 21 20 19
3 21 5 20
3 22 23 6
3 132 23 133
3 134 133 22
3 132 133 134
3 135 7 136
3 137 136 23
3 135 136 137
3 139 138 7
3 140 24 141
3 142 141 8
3 140 141 142
3 143 24 144
3 146 145 24
3 25 147 148
3 25 149 151
3 149 10 150
3 149 150 151
3 26 27 4
3 28 27 26
3 28 11 27
3 28 29 11
3 30 29 28
3 30 12 29
3 152 31 153
3 154 153 13
3 152 153 154
3 32 155 157
3 155 31 156
3 155 156 157
3 32 15 31
3 158 33 159
3 34 160 162
3 160 33 161
3 160 161 162
3 34 16 33
3 34 163 165
3 165 164 16
3 163 164 165
3 167 166 34
3 35 36 14
3 37 36 35
3 37 17 36
3 38 39 9
3 40 39 38
3 40 18 39
3 40 41 18
3 168 41 169
3 170 169 40
3 168 169 170
3 172 171 41
3 42 173 175
3 173 43 174
3 173 174 175
3 44 43 42
3 44 4 43
3 20 44 3
3 45 44 20
3 45 4 44
3 45 26 4
3 46 26 45
3 46 1 26
3 47 176 177
3 179 178 47
3 23 180 182
3 182 181 6
3 180 181 182
3 184 183 23
3 187 186 7
3 185 186 187
3 48 49 2
3 50 49 48
3 50 9 49
3 24 50 8
3 51 50 24
3 51 9 50
3 51 38 9
3 188 38 189
3 190 189 51
3 188 189 190
3 192 191 38
3 52 193 194
3 52 195 196
3 43 197 199
3 197 25 198
3 197 198 199
3 53 25 43
3 53 10 25
3 27 53 4
3 54 53 27
3 54 10 53
3 54 52 10
3 55 52 54
3 55 200 202
3 202 201 52
3 200 201 202
3 55 203 205
3 203 47 204
3 203 204 205
3 56 47 55
3 56 6 47
3 29 56 11
3 57 56 29
3 57 6 56
3 57 22 6
3 58 22 57
3 58 206 208
3 208 207 22
3 206 207 208
3 59 60 0
3 61 60 59
3 61 13 60
3 209 61 210
3 211 61 212
3 211 212 213
3 214 13 215
3 216 215 61
3 214 215 216
3 218 217 13
3 219 42 220
3 219 220 221
3 222 42 223
3 224 3 225
3 226 225 42
3 224 225 226
3 62 227 228
3 62 229 231
3 229 3 230
3 229 230 231
3 62 19 3
3 59 19 62
3 59 0 19
3 60 63 0
3 64 63 60
3 64 14 63
3 31 64 13
3 65 64 31
3 65 14 64
3 65 35 14
3 66 35 65
3 66 2 35
3 232 32 233
3 67 234 236
3 234 32 235
3 234 235 236
3 67 15 32
3 33 237 239
3 237 67 238
3 237 238 239
3 68 67 33
3 68 15 67
3 68 66 15
3 69 66 68
3 69 2 66
3 69 48 2
3 70 48 69
3 70 8 48
3 240 70 241
3 242 241 16
3 240 241 242
3 243 70 244
3 245 8 246
3 247 246 70
3 245 246 247
3 250 249 8
3 248 249 250
3 63 21 0
3 71 21 63
3 71 5 21
3 36 71 14
3 72 71 36
3 72 5 71
3 72 46 5
3 73 46 72
3 73 1 46
3 49 37 2
3 74 37 49
3 74 17 37
3 39 74 9
3 75 74 39
3 75 17 74
3 75 73 17
3 76 73 75
3 76 1 73
3 76 30 1
3 77 30 76
3 77 12 30
3 41 77 18
3 78 77 41
3 78 12 77
3 78 58 12
3 251 58 252
3 253 252 78
3 251 252 253
3 255 254 58
