ply
format ascii 1.0
element vertex 141
property float x
property float y
property float z
element face 122
property list uchar int vertex_index
end_header
4.474018 -28.330954 -45.362991
0.303506 -18.365683 -52.774372
2.176239 -23.441504 -49.057457
8.582203 -30.703056 -39.91106
5.929104 -26.74507 -43.39579
7.130352 -33.014774 -41.797718
9.174673 -33.576511 -39.238201
7.774426 -31.62042 -40.932674
8.497135 -34.905781 -40.150379
7.117887 -37.484047 -41.974739
5.148866 -27.300068 -44.465477
4.693485 -24.333055 -45.265633
4.01611 -25.224817 -46.199638
1.177889 -20.8957 -50.935265
1.932117 -20.310045 -49.948269
1.027333 -17.698555 -51.895523
3.730483 -29.231882 -46.298523
3.280348 -25.801311 -47.207577
2.56385 -26.783707 -48.062122
1.48949 -24.386539 -49.825985
0.407917 -21.546257 -51.812611
7.221211 -28.751331 -41.634155
6.416376 -29.724216 -42.685398
5.749111 -30.73403 -43.574879
7.845899 -36.306568 -41.040562
6.371161 -34.150986 -42.792042
5.024193 -31.779104 -44.501469
4.260169 -32.648827 -45.416012
2.936696 -22.747971 -48.047783
9.535344 -35.19013 -38.890482
9.875082 -34.547415 -38.436906
9.196575 -35.854765 -39.346571
8.835904 -34.241146 -39.69429
9.535344 -35.19013 -38.890482
0.278937 -16.844399 -53.246369
0.64085 -16.510835 -52.806944
0.66542 -18.032119 -52.334947
-0.113073 -17.154677 -53.702501
0.278937 -16.844399 -53.246369
2.768304 -28.549839 -47.601299
3.147166 -28.007794 -47.180323
3.351621 -29.773927 -46.719499
1.023555 -24.517455 -50.366272
1.571101 -25.941541 -49.453522
0.482768 -23.097314 -51.359585
0.948703 -22.966398 -50.819298
1.023555 -24.517455 -50.366272
-0.078394 -21.751188 -52.330177
0.482768 -23.097314 -51.359585
8.943482 -30.027698 -39.502012
9.279485 -31.560932 -39.083351
8.284049 -29.204977 -40.311379
8.943482 -30.027698 -39.502012
7.901707 -29.727193 -40.772607
7.603553 -28.229115 -41.172926
8.284049 -29.204977 -40.311379
8.227415 -38.12668 -40.691033
8.56037 -37.33034 -40.233448
5.981253 -34.621767 -43.272898
6.744524 -35.817516 -42.383391
6.354616 -36.288297 -42.864247
5.30777 -33.435826 -44.127612
5.697677 -32.965045 -43.646755
5.981253 -34.621767 -43.272898
4.925757 -33.870688 -44.584883
4.642181 -32.213966 -44.958741
5.30777 -33.435826 -44.127612
5.680177 -25.17413 -43.833937
6.29382 -26.278847 -42.933881
4.501946 -22.864349 -45.684545
4.14967 -23.212747 -46.181773
2.292281 -20.011669 -49.433662
1.8404 -18.805657 -50.39786
9.57572 -32.997659 -38.746921
9.875082 -34.547415 -38.436906
8.878438 -32.139784 -39.57463
9.279485 -31.560932 -39.083351
9.57572 -32.997659 -38.746921
7.501901 -39.341694 -41.604696
7.863409 -38.71542 -41.158121
6.748782 -38.182813 -42.409981
7.501901 -39.341694 -41.604696
6.354616 -36.288297 -42.864247
6.748782 -38.182813 -42.409981
3.810983 -23.658628 -46.648775
4.14967 -23.212747 -46.181773
4.354798 -24.778936 -45.732636
1.388008 -17.499913 -51.371487
1.8404 -18.805657 -50.39786
1.479725 -19.0043 -50.921896
1.023333 -16.244391 -52.282018
1.388008 -17.499913 -51.371487
1.023333 -16.244391 -52.282018
0.64085 -16.510835 -52.806944
2.108281 -27.140125 -48.57159
2.768304 -28.549839 -47.601299
2.02667 -25.585123 -48.944054
2.108281 -27.140125 -48.57159
1.571101 -25.941541 -49.453522
-0.055899 -20.208869 -52.756642
-0.108105 -18.618582 -53.237522
0.355711 -19.95597 -52.293492
-0.055899 -20.208869 -52.756642
-0.078394 -21.751188 -52.330177
6.939874 -27.281977 -42.053064
7.603553 -28.229115 -41.172926
6.575157 -27.7482 -42.514972
6.29382 -26.278847 -42.933881
6.939874 -27.281977 -42.053064
8.885987 -36.629946 -39.788356
9.196575 -35.854765 -39.346571
8.171517 -35.606174 -40.595471
8.885987 -36.629946 -39.788356
8.56037 -37.33034 -40.233448
7.481893 -36.895308 -41.50765
8.227415 -38.12668 -40.691033
7.863409 -38.71542 -41.158121
3.616464 -31.482399 -46.278244
3.351621 -29.773927 -46.719499
3.995326 -30.940354 -45.857268
4.580657 -34.494644 -44.964655
4.925757 -33.870688 -44.584883
3.842513 -33.208012 -45.848629
4.580657 -34.494644 -44.964655
3.616464 -31.482399 -46.278244
3.842513 -33.208012 -45.848629
5.062368 -23.968123 -44.768858
5.680177 -25.17413 -43.833937
5.311294 -25.539062 -44.330711
5.062368 -23.968123 -44.768858
4.501946 -22.864349 -45.684545
3.271275 -22.420206 -47.572848
3.810983 -23.658628 -46.648775
3.476403 -23.986394 -47.123711
2.79457 -21.230632 -48.483419
2.434407 -21.529008 -48.998026
2.292281 -20.011669 -49.433662
3.271275 -22.420206 -47.572848
2.79457 -21.230632 -48.483419
-0.113073 -17.154677 -53.702501
-0.108105 -18.618582 -53.237522
3 29 6 30
3 31 8 32
3 33 32 6
3 31 32 33
3 0 12 10
3 1 15 13
3 1 34 36
3 36 35 15
3 34 35 36
3 1 37 38
3 39 18 40
3 41 40 16
3 39 40 41
3 42 19 43
3 44 20 45
3 46 45 19
3 44 45 46
3 48 47 20
3 3 49 50
3 3 51 52
3 3 53 55
3 53 21 54
3 53 54 55
3 5 22 7
3 5 23 22
3 56 24 57
3 58 25 59
3 60 59 9
3 58 59 60
3 61 26 62
3 63 62 25
3 61 62 63
3 64 27 65
3 66 65 26
3 64 65 66
3 4 67 68
3 70 69 11
3 2 28 17
3 72 71 14
3 6 73 74
3 6 75 77
3 75 3 76
3 75 76 77
3 6 7 3
3 8 7 6
3 8 5 7
3 78 9 79
3 80 9 81
3 83 82 9
3 10 11 4
3 12 11 10
3 12 84 86
3 86 85 11
3 84 85 86
3 13 14 2
3 15 14 13
3 15 87 89
3 89 88 14
3 87 88 89
3 15 90 91
3 93 92 15
3 16 17 0
3 18 17 16
3 18 2 17
3 94 18 95
3 19 96 98
3 96 18 97
3 96 97 98
3 19 2 18
3 19 13 2
3 20 13 19
3 20 1 13
3 20 99 101
3 101 100 1
3 99 100 101
3 103 102 20
3 21 104 105
3 21 106 108
3 106 4 107
3 106 107 108
3 7 21 3
3 22 21 7
3 22 4 21
3 22 10 4
3 23 10 22
3 23 0 10
3 109 8 110
3 24 111 113
3 111 8 112
3 111 112 113
3 24 5 8
3 9 114 116
3 114 24 115
3 114 115 116
3 25 24 9
3 25 5 24
3 25 23 5
3 26 23 25
3 26 0 23
3 26 16 0
3 27 16 26
3 27 117 119
3 119 118 16
3 117 118 119
3 120 27 121
3 122 27 123
3 125 124 27
3 11 126 128
3 128 127 4
3 126 127 128
3 130 129 11
3 17 12 0
3 28 12 17
3 28 131 133
3 133 132 12
3 131 132 133
3 14 28 2
3 134 28 135
3 136 135 14
3 134 135 136
3 138 137 28
3 140 139 1
