ply
format ascii 1.0
element vertex 489
property float x
property float y
property float z
element face 565
property list uchar int vertex_index
end_header
27.88249 -51.488163 22.418795
32.03632 -46.313946 2.848225
25.181982 -63.198639 5.220664
30.473499 -49.771957 13.076292
28.759089 -54.314346 4.617265
26.557398 -57.894836 14.693075
32.313087 -43.818714 20.454342
34.409782 -42.123169 10.690858
23.212395 -51.254776 29.970528
23.197321 -59.401428 24.048048
30.897354 -49.327156 -4.97667
29.41334 -50.786205 17.970602
28.592932 -53.67477 13.790315
27.288977 -54.820549 18.849569
28.139803 -47.829815 25.601604
30.451252 -43.981354 24.729631
30.036732 -47.723877 21.518885
31.477835 -46.964848 16.976696
20.309593 -50.405785 32.785358
20.770905 -54.844223 30.765022
32.756821 -44.025486 -2.000645
32.130287 -45.416927 -5.6668
31.253023 -47.924278 -1.173066
26.982544 -58.811298 5.167779
28.278776 -56.313053 0.146767
26.649162 -60.759274 0.300434
24.662785 -65.631401 0.201448
22.732786 -63.150143 19.943859
33.204086 -44.289604 6.746021
34.970131 -40.642727 5.493009
33.730171 -42.524506 1.752104
31.328461 -48.207134 8.065269
30.450722 -50.07671 3.724384
29.533957 -52.160542 8.983748
27.672958 -56.398506 9.775071
25.846378 -60.577957 10.193383
35.478424 -39.654533 14.501404
33.595901 -43.150291 15.749352
32.485699 -45.825512 11.820914
25.806728 -51.576477 26.547266
25.587397 -55.478523 23.300623
23.345854 -55.58173 27.326441
25.533951 -47.577583 29.195492
29.787685 -52.010712 -0.289427
29.590221 -53.695114 -4.74908
25.053951 -59.045673 19.555435
24.471151 -62.148918 15.150663
23.717495 -65.165901 10.276885
36.212406 -38.504616 9.459366
28.736103 -51.106037 20.307314
28.395607 -52.712029 18.426554
27.6353 -53.113667 20.742941
28.022287 -49.738937 24.110643
29.158621 -47.864262 23.603479
28.931231 -49.606709 22.058039
29.785799 -49.210079 19.845434
32.38982 -45.209572 0.301034
31.967396 -46.024849 -1.598413
31.575012 -47.200333 0.815197
26.119856 -60.951584 5.232709
26.798853 -59.791786 2.653439
25.858818 -62.158142 2.717435
25.639484 -63.287445 0.378612
24.841087 -64.551201 2.850424
32.563919 -45.396576 4.816173
33.419666 -43.554409 4.157205
32.90823 -44.329056 2.200301
33.208797 -43.266773 -0.28913
30.919678 -49.050636 10.546816
30.408516 -50.207996 8.381431
29.97526 -51.040546 11.071548
27.623068 -55.663651 14.324915
28.087557 -55.12635 11.867941
27.123903 -57.208885 12.366598
26.791348 -58.420429 10.056858
26.1453 -59.378345 12.505647
31.423203 -44.014099 22.689121
31.55162 -42.071121 24.358192
32.459229 -42.231483 22.253839
33.323582 -41.997395 20.061596
34.045021 -41.648487 17.744829
33.041878 -43.460995 18.246279
31.066553 -48.256462 15.010644
32.048107 -46.407333 14.484375
31.496387 -47.734596 12.587518
31.891314 -47.061523 9.990712
24.573675 -51.517998 28.306849
24.586147 -53.523724 26.998264
23.334412 -53.486816 28.70915
22.831587 -49.057194 31.181965
24.328186 -49.4198 29.633873
25.716864 -49.590343 27.96027
31.513727 -47.3419 -5.386721
32.043388 -45.913734 -7.599627
31.478485 -47.914127 -7.34429
30.960705 -49.824585 -7.218238
29.599363 -52.189312 4.312162
30.06706 -51.071472 1.809088
29.301073 -53.11821 2.091855
28.165508 -57.254055 -2.153021
28.956207 -54.948971 -2.384809
24.383457 -57.546837 23.648479
25.388813 -57.158466 21.572193
24.202528 -59.302673 21.81023
22.520903 -64.714142 17.674274
23.66449 -62.702179 17.61812
23.337185 -64.372803 15.086377
24.084679 -63.70142 12.802189
22.976078 -65.821831 12.893865
34.937828 -41.000256 12.670247
35.942551 -39.023914 11.957237
35.337772 -40.29361 10.044924
35.15126 -39.862427 3.016033
35.785599 -38.87582 4.696416
30.032433 -50.229916 15.60285
29.55986 -51.634472 13.560315
29.009008 -52.295315 15.891614
28.030106 -54.223434 16.378128
26.928076 -56.419529 16.792324
28.112953 -45.715042 27.106838
29.335163 -45.865108 25.133512
30.291964 -45.954132 23.130699
31.215492 -45.691616 20.989859
31.966105 -45.377045 18.737167
30.878254 -47.233791 19.393894
30.493095 -48.770229 17.456223
21.771791 -50.874252 31.463568
22.017981 -53.131981 30.335102
20.610395 -52.647427 31.828341
33.09943 -42.809177 -4.449766
32.757164 -43.544811 -6.117002
32.402336 -44.699036 -3.842277
31.696793 -46.667633 -3.537965
31.036873 -48.583954 -2.968326
27.876877 -56.566517 4.864453
28.526299 -55.198452 2.386975
27.675882 -57.469704 2.633521
27.468784 -58.536415 0.388858
26.436592 -61.991863 -2.075879
25.494534 -64.399117 -2.320018
24.428825 -66.871887 -2.407298
33.82394 -43.210583 8.711473
34.670372 -41.514317 8.058107
34.099991 -42.431694 5.981092
34.328918 -41.638985 3.654596
34.553768 -40.713512 1.192199
33.979748 -41.521832 -0.649508
33.505157 -42.150826 -2.681058
31.65896 -47.36808 5.39098
31.229485 -48.187794 3.199863
30.859177 -49.16642 5.7988
29.9849 -51.200169 6.35598
29.117609 -53.254341 6.782555
29.048916 -53.039577 11.453352
28.618608 -54.229828 9.405051
28.243116 -55.357269 7.152933
27.338839 -57.556713 7.374288
26.41507 -59.737766 7.748748
25.443991 -62.012047 7.823333
34.547169 -41.387844 15.257518
34.04607 -42.697739 13.174391
32.542068 -45.059948 16.339397
33.068329 -44.535549 13.692926
33.442638 -43.988388 11.158081
32.872761 -45.092854 9.176329
32.21941 -46.317177 7.309988
26.951611 -51.568302 24.5194
26.768702 -53.356003 22.963686
25.787264 -53.541862 24.936985
24.583097 -55.511524 25.365265
23.385437 -57.470081 25.689859
22.114717 -55.373871 29.057556
22.119587 -57.541473 27.585403
26.981249 -47.681412 27.432142
26.90333 -49.831223 26.103701
32.630596 -43.946789 -7.961556
30.82107 -49.106674 1.261634
30.512604 -49.967323 -0.698046
30.328341 -50.742004 -2.762786
29.06691 -54.101727 -0.217705
29.628977 -52.905994 -2.571822
30.259054 -51.497097 -4.920266
26.508072 -55.135277 21.217255
26.155546 -56.940891 19.312677
25.830467 -58.581028 17.201342
23.942516 -61.105534 19.725735
24.766827 -60.70528 17.321779
25.59054 -59.924557 14.878469
25.160204 -61.505356 12.627895
24.792213 -62.87495 10.401901
24.523935 -64.093559 7.792337
23.397835 -66.47834 7.74351
24.15626 -65.485542 5.336138
35.61541 -39.580559 7.360206
28.532739 -56.548876 -3.353117
28.134029 -57.742783 -3.319523
22.749246 -65.359024 15.233369
22.929044 -64.543473 16.380326
22.341105 -65.529694 16.527317
22.568692 -66.083538 14.137113
23.156632 -65.097317 13.990121
22.749246 -65.359024 15.233369
35.586397 -38.888096 2.646494
35.258785 -39.371788 1.767161
20.842269 -49.410695 32.658157
20.034853 -49.274394 33.258016
21.040692 -50.640018 32.124463
21.573368 -49.644928 31.997262
20.842269 -49.410695 32.658157
26.984027 -60.199959 -0.887241
27.393838 -59.088529 -0.843029
27.058973 -59.647844 0.344646
26.542877 -61.375568 -0.887722
26.877742 -60.816254 -2.075398
26.984027 -60.199959 -0.887241
30.468573 -42.949749 25.470486
29.888625 -43.909294 25.674968
32.14986 -40.198707 24.745914
31.585115 -41.080549 25.053727
32.116365 -41.189279 24.050379
21.4823 -58.446575 27.733891
21.467022 -57.314812 28.547389
22.091735 -58.537079 26.77855
21.4823 -58.446575 27.733891
25.450831 -46.430088 29.748421
24.824659 -47.35972 29.964284
26.129456 -46.600383 29.013005
25.450831 -46.430088 29.748421
26.2576 -47.629497 28.313817
26.853105 -46.652298 28.131329
26.129456 -46.600383 29.013005
32.324341 -45.132467 -8.655262
32.062887 -46.131086 -8.523646
29.955751 -52.906742 -5.899909
30.290167 -51.807733 -5.985502
29.924637 -52.596105 -4.834673
23.337651 -62.127838 19.834797
23.508406 -61.204396 20.812697
22.90354 -62.2267 20.921758
23.238684 -67.13787 6.399528
22.825378 -67.604953 7.665204
23.617897 -66.641471 5.195842
23.777048 -65.981941 6.539824
23.238684 -67.13787 6.399528
23.995278 -66.136966 4.079235
23.617897 -66.641471 5.195842
35.926431 -38.746779 14.242164
35.693287 -38.948805 15.427021
36.486156 -37.90119 10.423412
36.351229 -38.160839 11.672347
36.077478 -38.764265 10.708301
36.619089 -37.600378 9.105346
36.486156 -37.90119 10.423412
36.119095 -38.33056 5.720731
36.204662 -37.947826 4.447486
18.897811 -50.991444 33.642187
19.710876 -51.259034 32.99297
19.496527 -50.138195 33.434576
19.496527 -50.138195 33.434576
20.034853 -49.274394 33.258016
19.221787 -49.006804 33.907235
32.570169 -41.26946 22.998202
32.116365 -41.189279 24.050379
32.005425 -42.151302 23.306016
32.994286 -41.293526 22.010028
32.570169 -41.26946 22.998202
33.426462 -41.176481 20.913907
32.994286 -41.293526 22.010028
32.891406 -42.114439 21.157718
33.865656 -41.038046 19.757507
33.426462 -41.176481 20.913907
33.684302 -41.822941 18.903213
34.226376 -40.863592 18.599123
33.865656 -41.038046 19.757507
20.792681 -55.966186 30.137198
20.124652 -55.80299 30.906858
23.473478 -48.099525 30.957521
22.747899 -47.872633 31.611767
24.221777 -48.280828 30.183475
23.473478 -48.099525 30.957521
23.579887 -49.238497 30.407919
24.931068 -48.498691 29.414683
24.824659 -47.35972 29.964284
24.221777 -48.280828 30.183475
31.780435 -47.131282 -8.395978
32.062887 -46.131086 -8.523646
31.760936 -46.91393 -7.471958
31.532691 -48.135976 -8.34303
31.780435 -47.131282 -8.395978
31.273801 -49.091206 -8.280004
31.532691 -48.135976 -8.34303
31.219595 -48.869356 -7.281264
31.016445 -50.138739 -8.257639
31.329541 -49.405359 -9.319405
31.273801 -49.091206 -8.280004
28.928088 -55.396334 -3.469011
28.560857 -56.101513 -2.268915
28.532739 -56.548876 -3.353117
29.245095 -54.769405 -4.651147
29.273214 -54.322042 -3.566944
28.928088 -55.396334 -3.469011
29.617902 -54.068445 -5.853197
29.245095 -54.769405 -4.651147
35.903566 -38.394792 3.486686
35.468429 -39.369124 3.856225
35.586397 -38.888096 2.646494
36.32263 -37.466799 3.237756
36.204662 -37.947826 4.447486
35.903566 -38.394792 3.486686
28.719476 -44.776138 26.863571
28.052139 -44.672754 27.752547
29.33058 -44.851171 25.876908
28.719476 -44.776138 26.863571
28.724058 -45.790075 26.120175
29.893208 -44.923231 24.931572
29.888625 -43.909294 25.674968
29.33058 -44.851171 25.876908
19.861277 -52.379855 32.514461
20.459994 -51.526606 32.306849
19.710876 -51.259034 32.99297
19.948932 -53.527905 32.053876
19.861277 -52.379855 32.514461
20.029187 -54.626303 31.522216
20.69065 -53.745825 31.296681
19.948932 -53.527905 32.053876
20.124652 -55.80299 30.906858
20.029187 -54.626303 31.522216
22.103266 -48.736399 31.856461
22.747899 -47.872633 31.611767
22.301689 -49.965723 31.322767
22.103266 -48.736399 31.856461
21.573368 -49.644928 31.997262
32.928297 -43.176994 -5.283384
33.103451 -42.553146 -6.392582
33.274584 -42.185329 -5.558965
27.7422 -58.44735 -2.113968
27.817146 -57.895235 -0.882081
27.393838 -59.088529 -0.843029
28.134029 -57.742783 -3.319523
27.7422 -58.44735 -2.113968
26.875859 -61.251494 -3.354182
26.877742 -60.816254 -2.075398
26.405786 -62.489567 -3.364477
26.875859 -61.251494 -3.354182
25.934756 -63.693194 -3.486547
26.405786 -62.489567 -3.364477
25.965563 -63.19549 -2.197948
25.452004 -64.902817 -3.601606
25.934756 -63.693194 -3.486547
24.919149 -66.139202 -3.645246
25.452004 -64.902817 -3.601606
24.96168 -65.635502 -2.363658
24.362994 -67.395454 -3.675816
24.919149 -66.139202 -3.645246
23.135808 -60.352343 22.973853
22.631236 -60.350464 24.077008
22.28797 -63.190311 21.017567
22.90354 -62.2267 20.921758
22.14743 -64.11479 19.928041
22.28797 -63.190311 21.017567
22.041488 -64.896789 18.793249
22.626845 -63.932142 18.809067
22.14743 -64.11479 19.928041
21.861162 -65.766136 17.697313
22.041488 -64.896789 18.793249
22.341105 -65.529694 16.527317
21.861162 -65.766136 17.697313
34.960039 -39.797331 0.855244
35.258785 -39.371788 1.767161
34.852514 -40.28797 2.104116
34.677425 -40.157209 -0.103164
34.960039 -39.797331 0.855244
34.390416 -40.561369 -1.024018
34.677425 -40.157209 -0.103164
34.266758 -41.117672 0.271346
34.110394 -40.955153 -1.894462
34.390416 -40.561369 -1.024018
33.873098 -41.26965 -2.910237
34.110394 -40.955153 -1.894462
33.742452 -41.836329 -1.665283
33.670553 -41.526699 -3.821969
34.038494 -40.645523 -4.051148
33.873098 -41.26965 -2.910237
33.467689 -41.855875 -4.706323
33.670553 -41.526699 -3.821969
33.302293 -42.480002 -3.565412
33.274584 -42.185329 -5.558965
33.467689 -41.855875 -4.706323
31.018757 -41.994632 25.284767
30.468573 -42.949749 25.470486
31.001436 -43.026238 24.543912
31.018757 -41.994632 25.284767
31.585115 -41.080549 25.053727
35.237774 -39.820383 15.732519
35.693287 -38.948805 15.427021
34.521073 -40.81736 17.354231
34.226376 -40.863592 18.599123
34.772146 -40.687038 16.110575
34.521073 -40.81736 17.354231
34.296095 -41.518166 16.501174
35.012796 -40.521189 14.879461
35.237774 -39.820383 15.732519
34.772146 -40.687038 16.110575
21.464587 -56.23101 29.283465
21.442811 -55.109047 29.911289
20.792681 -55.966186 30.137198
22.117152 -56.457672 28.32148
21.464587 -56.23101 29.283465
21.467022 -57.314812 28.547389
22.72466 -58.501383 25.830778
22.752512 -57.505777 26.637631
22.091735 -58.537079 26.77855
22.630602 -59.467056 25.009873
23.291379 -58.435755 24.868953
22.72466 -58.501383 25.830778
22.631236 -60.350464 24.077008
22.630602 -59.467056 25.009873
27.418958 -45.669113 27.968677
28.052139 -44.672754 27.752547
27.547101 -46.698227 27.26949
27.418958 -45.669113 27.968677
26.853105 -46.652298 28.131329
32.984001 -42.817911 -7.195747
33.103451 -42.553146 -6.392582
32.920717 -43.0189 -8.118025
32.984001 -42.817911 -7.195747
32.69388 -43.7458 -7.039279
32.865499 -43.253565 -8.984019
33.15562 -42.325676 -9.140487
32.920717 -43.0189 -8.118025
32.617945 -44.148995 -8.836226
32.336992 -44.930262 -7.780591
32.324341 -45.132467 -8.655262
32.865499 -43.253565 -8.984019
32.617945 -44.148995 -8.836226
30.640993 -50.971477 -7.134488
30.609879 -50.660841 -6.069252
30.290167 -51.807733 -5.985502
31.016445 -50.138739 -8.257639
30.640993 -50.971477 -7.134488
29.955751 -52.906742 -5.899909
29.617902 -54.068445 -5.853197
23.638412 -60.302965 21.854944
23.699925 -59.352051 22.929139
23.135808 -60.352343 22.973853
24.072522 -60.204104 20.767983
23.638412 -60.302965 21.854944
23.508406 -61.204396 20.812697
22.433377 -66.814434 12.807429
22.568692 -66.083538 14.137113
22.813158 -66.517773 11.632187
22.433377 -66.814434 12.807429
23.183867 -66.189808 10.323697
23.346787 -65.493866 11.585375
22.813158 -66.517773 11.632187
23.024037 -66.846027 9.057009
22.825378 -67.604953 7.665204
23.557665 -65.822121 9.010198
23.183867 -66.189808 10.323697
23.024037 -66.846027 9.057009
24.337692 -65.669796 2.836378
24.498674 -65.018372 4.093281
23.995278 -66.136966 4.079235
24.248541 -66.209896 1.51189
24.751936 -65.091301 1.525936
24.337692 -65.669796 2.836378
24.112913 -66.831658 0.182423
24.248541 -66.209896 1.51189
23.995933 -67.4519 -1.12195
24.545805 -66.251644 -1.102925
24.112913 -66.831658 0.182423
23.879577 -68.089146 -2.571776
23.995933 -67.4519 -1.12195
23.813747 -68.612713 -3.840294
24.362994 -67.395454 -3.675816
23.879577 -68.089146 -2.571776
36.158495 -38.431469 12.97008
35.926431 -38.746779 14.242164
35.710487 -39.339224 13.229321
36.158495 -38.431469 12.97008
36.351229 -38.160839 11.672347
36.034 -38.68293 7.052626
35.700504 -39.228189 6.028311
36.119095 -38.33056 5.720731
36.332498 -38.144959 8.102206
35.913908 -39.042587 8.409786
36.034 -38.68293 7.052626
36.619089 -37.600378 9.105346
36.332498 -38.144959 8.102206
3 0 51 49
3 0 54 52
3 0 49 54
3 1 58 56
3 2 61 59
3 2 63 61
3 1 66 64
3 1 56 66
3 3 70 68
3 5 73 71
3 5 75 73
3 6 78 76
3 6 79 78
3 6 81 79
3 3 84 82
3 3 68 84
3 8 88 86
3 8 90 89
3 8 86 90
3 10 94 92
3 10 95 94
3 4 98 96
3 195 194 99
3 9 103 101
3 196 106 197
3 198 197 104
3 196 197 198
3 199 108 200
3 201 200 106
3 199 200 201
3 7 111 109
3 203 202 112
3 11 116 114
3 13 117 50
3 13 118 117
3 14 120 119
3 16 121 53
3 16 122 121
3 16 124 122
3 11 125 55
3 11 114 125
3 18 128 126
3 18 204 205
3 18 206 208
3 206 126 207
3 206 207 208
3 20 131 129
3 22 132 57
3 22 133 132
3 23 136 134
3 25 137 60
3 25 209 211
3 211 210 137
3 209 210 211
3 25 212 214
3 212 138 213
3 212 213 214
3 26 139 62
3 26 140 139
3 28 143 141
3 30 144 65
3 30 145 144
3 30 146 145
3 20 147 67
3 20 129 147
3 31 150 148
3 33 151 69
3 33 152 151
3 12 153 115
3 34 154 72
3 34 155 154
3 34 156 155
3 35 157 74
3 35 158 157
3 15 215 216
3 219 218 77
3 217 218 219
3 37 159 80
3 37 160 159
3 17 161 123
3 38 162 83
3 38 163 162
3 38 164 163
3 31 165 85
3 31 148 165
3 39 168 166
3 41 169 87
3 41 170 169
3 19 171 127
3 220 172 221
3 223 222 172
3 42 224 225
3 42 226 227
3 42 228 230
3 228 173 229
3 228 229 230
3 39 174 91
3 39 166 174
3 21 175 130
3 232 231 93
3 32 176 149
3 43 177 97
3 43 178 177
3 24 179 135
3 44 180 100
3 44 181 180
3 44 233 235
3 235 234 181
3 233 234 235
3 40 182 167
3 45 183 102
3 45 184 183
3 27 236 238
3 236 185 237
3 236 237 238
3 46 186 105
3 46 187 186
3 46 188 187
3 47 189 107
3 47 190 189
3 239 191 240
3 241 192 242
3 243 242 191
3 241 242 243
3 245 244 192
3 36 246 247
3 48 248 250
3 250 249 110
3 248 249 250
3 48 251 252
3 29 193 142
3 254 253 113
3 49 50 11
3 51 50 49
3 51 13 50
3 52 53 14
3 54 53 52
3 54 16 53
3 54 55 16
3 49 55 54
3 49 11 55
3 257 256 18
3 255 256 257
3 258 18 259
3 258 259 260
3 56 57 20
3 58 57 56
3 58 22 57
3 59 60 23
3 61 60 59
3 61 25 60
3 61 62 25
3 63 62 61
3 63 26 62
3 64 65 28
3 66 65 64
3 66 30 65
3 66 67 30
3 56 67 66
3 56 20 67
3 68 69 31
3 70 69 68
3 70 33 69
3 71 72 12
3 73 72 71
3 73 34 72
3 73 74 34
3 75 74 73
3 75 35 74
3 76 77 15
3 78 77 76
3 78 261 263
3 263 262 77
3 261 262 263
3 78 264 265
3 79 266 268
3 268 267 78
3 266 267 268
3 79 269 270
3 79 271 273
3 271 80 272
3 271 272 273
3 81 80 79
3 81 37 80
3 82 83 17
3 84 83 82
3 84 38 83
3 84 85 38
3 68 85 84
3 68 31 85
3 86 87 39
3 88 87 86
3 88 41 87
3 275 274 19
3 89 276 277
3 90 278 280
3 280 279 89
3 278 279 280
3 90 281 283
3 281 42 282
3 281 282 283
3 90 91 42
3 86 91 90
3 86 39 91
3 92 93 21
3 94 93 92
3 94 284 286
3 286 285 93
3 284 285 286
3 94 287 288
3 95 289 291
3 291 290 94
3 289 290 291
3 95 292 294
3 292 293 294
3 96 97 32
3 98 97 96
3 98 43 97
3 99 100 24
3 295 100 296
3 297 296 99
3 295 296 297
3 298 44 299
3 300 299 100
3 298 299 300
3 302 301 44
3 101 102 40
3 103 102 101
3 103 45 102
3 104 105 27
3 106 105 104
3 106 46 105
3 106 107 46
3 108 107 106
3 108 47 107
3 109 110 36
3 111 110 109
3 111 48 110
3 112 113 29
3 303 113 304
3 305 304 112
3 303 304 305
3 308 307 113
3 306 307 308
3 114 115 3
3 116 115 114
3 116 12 115
3 50 116 11
3 117 116 50
3 117 12 116
3 117 71 12
3 118 71 117
3 118 5 71
3 119 309 310
3 120 311 313
3 313 312 119
3 311 312 313
3 120 314 316
3 314 15 315
3 314 315 316
3 53 120 14
3 121 120 53
3 121 15 120
3 121 76 15
3 122 76 121
3 122 6 76
3 122 123 6
3 124 123 122
3 124 17 123
3 55 124 16
3 125 124 55
3 125 17 124
3 125 82 17
3 114 82 125
3 114 3 82
3 126 127 8
3 128 127 126
3 128 19 127
3 317 128 318
3 319 318 18
3 317 318 319
3 320 128 321
3 322 19 323
3 324 323 128
3 322 323 324
3 326 325 19
3 327 89 328
3 126 329 331
3 329 89 330
3 329 330 331
3 126 8 89
3 129 332 334
3 332 130 333
3 332 333 334
3 131 130 129
3 131 21 130
3 57 131 20
3 132 131 57
3 132 21 131
3 132 92 21
3 133 92 132
3 133 10 92
3 134 135 4
3 136 135 134
3 136 24 135
3 60 136 23
3 137 136 60
3 137 24 136
3 137 99 24
3 335 99 336
3 337 336 137
3 335 336 337
3 339 338 99
3 138 340 341
3 138 342 343
3 62 138 25
3 139 138 62
3 139 344 346
3 346 345 138
3 344 345 346
3 139 347 348
3 140 349 351
3 351 350 139
3 349 350 351
3 140 352 353
3 355 354 9
3 356 27 357
3 358 27 359
3 360 104 361
3 362 361 27
3 360 361 362
3 363 104 364
3 366 365 104
3 141 142 7
3 143 142 141
3 143 29 142
3 65 143 28
3 144 143 65
3 144 29 143
3 144 112 29
3 145 112 144
3 145 367 369
3 369 368 112
3 367 368 369
3 145 370 371
3 146 372 374
3 374 373 145
3 372 373 374
3 146 375 376
3 67 146 30
3 147 146 67
3 147 377 379
3 379 378 146
3 377 378 379
3 147 380 382
3 380 381 382
3 129 383 385
3 385 384 147
3 383 384 385
3 129 386 387
3 148 149 1
3 150 149 148
3 150 32 149
3 69 150 31
3 151 150 69
3 151 32 150
3 151 96 32
3 152 96 151
3 152 4 96
3 115 70 3
3 153 70 115
3 153 33 70
3 72 153 12
3 154 153 72
3 154 33 153
3 154 152 33
3 155 152 154
3 155 4 152
3 155 134 4
3 156 134 155
3 156 23 134
3 74 156 34
3 157 156 74
3 157 23 156
3 157 59 23
3 158 59 157
3 158 2 59
3 77 388 390
3 390 389 15
3 388 389 390
3 392 391 77
3 393 36 394
3 80 395 396
3 159 397 399
3 399 398 80
3 397 398 399
3 159 400 402
3 400 36 401
3 400 401 402
3 159 109 36
3 160 109 159
3 160 7 109
3 123 81 6
3 161 81 123
3 161 37 81
3 83 161 17
3 162 161 83
3 162 37 161
3 162 160 37
3 163 160 162
3 163 7 160
3 163 141 7
3 164 141 163
3 164 28 141
3 85 164 38
3 165 164 85
3 165 28 164
3 165 64 28
3 148 64 165
3 148 1 64
3 166 167 0
3 168 167 166
3 168 40 167
3 87 168 39
3 169 168 87
3 169 40 168
3 169 101 40
3 170 101 169
3 170 9 101
3 127 88 8
3 171 88 127
3 171 41 88
3 403 171 404
3 405 404 19
3 403 404 405
3 172 406 408
3 406 171 407
3 406 407 408
3 172 41 171
3 172 170 41
3 409 170 410
3 411 410 172
3 409 410 411
3 412 9 413
3 414 413 170
3 412 413 414
3 416 415 9
3 417 119 418
3 173 419 421
3 419 119 420
3 419 420 421
3 173 14 119
3 91 173 42
3 174 173 91
3 174 14 173
3 174 52 14
3 166 52 174
3 166 0 52
3 130 422 423
3 175 424 426
3 426 425 130
3 424 425 426
3 175 427 429
3 427 428 429
3 93 175 21
3 430 175 431
3 432 431 93
3 430 431 432
3 434 433 175
3 149 58 1
3 176 58 149
3 176 22 58
3 97 176 32
3 177 176 97
3 177 22 176
3 177 133 22
3 178 133 177
3 178 10 133
3 135 98 4
3 179 98 135
3 179 43 98
3 100 179 24
3 180 179 100
3 180 43 179
3 180 178 43
3 181 178 180
3 181 10 178
3 181 95 10
3 435 95 436
3 437 436 181
3 435 436 437
3 439 438 95
3 441 440 44
3 167 51 0
3 182 51 167
3 182 13 51
3 102 182 40
3 183 182 102
3 183 13 182
3 183 118 13
3 184 118 183
3 184 5 118
3 442 103 443
3 444 443 9
3 442 443 444
3 185 445 447
3 445 103 446
3 445 446 447
3 185 45 103
3 105 185 27
3 186 185 105
3 186 45 185
3 186 184 45
3 187 184 186
3 187 5 184
3 187 75 5
3 188 75 187
3 188 35 75
3 107 188 46
3 189 188 107
3 189 35 188
3 189 158 35
3 190 158 189
3 190 2 158
3 448 108 449
3 450 108 451
3 452 47 453
3 454 453 108
3 452 453 454
3 191 455 456
3 191 457 459
3 457 47 458
3 457 458 459
3 191 190 47
3 192 190 191
3 192 2 190
3 192 63 2
3 460 63 461
3 462 461 192
3 460 461 462
3 463 26 464
3 465 464 63
3 463 464 465
3 466 26 467
3 468 140 469
3 470 469 26
3 468 469 470
3 471 140 472
3 475 474 140
3 473 474 475
3 110 476 478
3 478 477 36
3 476 477 478
3 480 479 110
3 142 111 7
3 193 111 142
3 193 48 111
3 113 193 29
3 481 193 482
3 483 482 113
3 481 482 483
3 484 48 485
3 486 485 193
3 484 485 486
3 488 487 48
