ply
format ascii 1.0
element vertex 272
property float x
property float y
property float z
element face 283
property list uchar int vertex_index
end_header
-39.887543 -9.875766 17.442411
-38.687088 -17.925934 23.372663
-39.089279 -19.2829 15.5522
-40.039631 -1.300337 11.390576
-37.65041 -8.905974 25.392206
-39.595013 -0.412017 19.403166
-39.469349 -13.722162 20.557068
-39.403805 -18.560732 19.41765
-39.522457 -14.608348 16.496391
-36.243324 -12.852661 28.019257
-37.534077 -22.070984 25.833212
-38.844193 -22.633142 22.173441
-39.218647 -23.187757 18.161631
-40.068359 -5.603367 14.570599
-39.317024 -10.597344 13.572127
-37.020378 -17.393944 26.95224
-38.327488 -13.280492 24.375765
-39.296646 -9.174217 21.479223
-38.732121 -4.609647 22.535482
-39.967442 -5.024754 18.447161
-40.389343 -0.779312 15.360809
-40.559887 3.487138 12.282909
-39.718502 -11.837421 19.031565
-39.637115 -14.215826 18.606501
-39.730106 -12.209197 16.986084
-38.140842 -19.951672 24.687527
-38.308403 -22.235041 24.050444
-38.79776 -20.291265 22.749598
-39.35944 -19.052141 17.500528
-39.309227 -21.020544 18.939812
-39.209419 -21.198494 16.887642
-39.04834 -23.56502 16.091923
-38.856182 -21.53237 14.804499
-40.055904 -3.556097 12.898801
-39.651741 -6.033584 12.552891
-39.571888 -3.849008 11.093891
-36.232296 -19.529894 28.097467
-35.916359 -17.240068 28.580067
-37.062805 -10.979344 26.626848
-37.384838 -13.214697 26.240795
-38.02216 -11.087657 24.898745
-38.85907 -11.292706 22.937923
-38.567795 -9.088853 23.520342
-38.833656 -0.404788 21.410622
-38.298698 -2.491943 23.068542
-39.231384 -2.588156 20.911894
-39.478806 -4.802936 20.522594
-39.862099 -2.578506 18.842733
-40.214806 -2.920077 16.849894
-40.127403 -0.529962 17.354288
-39.141983 -15.910425 21.919804
-39.180862 -18.140242 21.420494
-39.463734 -16.183969 19.972607
-39.514156 -16.617331 18.027859
-39.313419 -17.033855 16.140057
-39.983829 0.912081 9.884554
-39.410198 -1.661795 9.493997
-35.506401 -15.01609 29.102032
-35.768806 -10.885946 28.543406
-36.580315 -8.929661 27.174936
-39.187435 -20.566414 20.809017
-39.155468 -22.962925 20.183773
-39.998508 -7.728629 15.984201
-39.747852 -10.168484 15.470473
-39.732769 -8.010128 14.031563
-37.325432 -19.682699 26.3699
-38.00322 -17.641809 25.115156
-36.651661 -15.079846 27.516552
-37.706184 -15.333272 25.731506
-38.5467 -15.458604 23.86264
-39.01186 -13.617016 22.522699
-39.411591 -11.579511 21.058716
-39.745064 -9.537573 19.430042
-37.21331 -6.843717 25.875435
-37.749012 -4.639386 24.564383
-38.266823 -6.823177 23.907127
-39.061779 -6.885359 22.02527
-39.665997 -7.10958 19.97345
-39.98822 -7.414794 17.851547
-40.16692 -5.226734 16.38063
-40.289539 -3.10611 14.838898
-40.366585 -1.078226 13.453386
-40.344227 1.594564 15.761678
-40.506557 1.374895 13.822619
-40.37466 1.006544 11.793427
-40.348747 3.217144 10.280334
-39.441463 -12.649778 15.002096
-35.242373 -17.205829 29.403229
-35.463593 -18.280178 29.119667
-39.635835 0.749273 8.982779
-39.912205 1.990209 9.103687
-35.511043 -9.848105 28.791137
-35.095138 -10.929857 29.409614
-35.916798 -8.869962 28.106902
-36.17456 -9.907803 27.859171
-35.511043 -9.848105 28.791137
-37.627215 -23.202016 25.529792
-37.175814 -23.021116 26.394036
-38.626745 -23.68001 22.784733
-38.358851 -23.480959 23.723235
-38.576298 -22.434092 23.111942
-38.860487 -23.724386 21.842063
-38.626745 -23.68001 22.784733
-39.167867 -24.147788 18.821241
-39.136278 -24.035372 19.832311
-39.187057 -23.075341 19.172702
-39.17009 -24.338951 17.750985
-39.167867 -24.147788 18.821241
-38.977598 -24.617287 15.62218
-38.858419 -23.588387 15.044066
-39.404127 -7.234226 12.325655
-39.309195 -6.19997 11.610164
-39.0851 -2.91578 9.346924
-38.977184 -1.762944 8.602265
-36.917484 -5.805338 26.182431
-36.581543 -6.846559 26.854065
-40.202041 2.679929 16.160517
-40.125698 1.572564 16.806002
-40.533222 2.431017 13.052764
-40.483121 2.534762 14.11959
-40.509787 3.590883 13.349735
-38.76234 -22.572063 14.400354
-38.858419 -23.588387 15.044066
-38.952261 -22.548695 15.448211
-39.269268 -5.107682 10.880664
-39.309195 -6.19997 11.610164
-39.611815 -4.941296 11.823391
-35.621561 -19.425091 28.878366
-35.780987 -20.525878 28.638559
-36.074327 -18.384981 28.338767
-35.621561 -19.425091 28.878366
-35.463593 -18.280178 29.119667
-38.566177 -1.448365 22.239582
-38.045506 -1.456107 23.302382
-38.312984 -0.41253 22.473422
-40.546801 4.607603 12.540738
-40.509787 3.590883 13.349735
-40.550577 4.581855 11.493574
-40.546801 4.607603 12.540738
-39.099541 -11.803006 13.314168
-38.979313 -10.659263 12.608211
-39.34902 -0.537665 8.7875
-39.697013 -0.374857 9.689276
-39.635835 0.749273 8.982779
-38.977184 -1.762944 8.602265
-39.34902 -0.537665 8.7875
-34.837722 -15.052146 29.897078
-35.037393 -16.09384 29.664212
-35.237884 -13.963189 29.406322
-34.837722 -15.052146 29.897078
-34.569206 -13.999245 30.201367
-35.606346 -12.881474 28.864934
-35.874862 -13.934375 28.560645
-35.237884 -13.963189 29.406322
-35.369087 -11.898117 29.127009
-35.095138 -10.929857 29.409614
-36.006065 -11.869304 28.281332
-35.606346 -12.881474 28.864934
-35.369087 -11.898117 29.127009
-38.533008 0.632425 21.747847
-38.312984 -0.41253 22.473422
-39.027315 0.614881 20.651689
-38.533008 0.632425 21.747847
-39.407994 0.611266 19.647962
-39.214334 -0.408403 20.406894
-39.027315 0.614881 20.651689
-39.751091 0.569273 18.626745
-39.407994 0.611266 19.647962
-38.014377 -23.284045 24.638408
-37.627215 -23.202016 25.529792
-37.92124 -22.153012 24.941828
-38.014377 -23.284045 24.638408
-38.358851 -23.480959 23.723235
-39.016125 -23.889277 20.847229
-38.860487 -23.724386 21.842063
-38.999831 -22.798033 21.178607
-39.016125 -23.889277 20.847229
-39.136278 -24.035372 19.832311
-39.084936 -24.527583 16.71613
-39.17009 -24.338951 17.750985
-39.133494 -23.376389 17.126777
-39.084936 -24.527583 16.71613
-38.977598 -24.617287 15.62218
-39.444641 -8.222497 13.064991
-39.692255 -7.021856 13.292227
-39.404127 -7.234226 12.325655
-39.236768 -9.516106 12.835273
-39.524896 -9.303736 13.801845
-39.444641 -8.222497 13.064991
-38.979313 -10.659263 12.608211
-39.236768 -9.516106 12.835273
-39.165945 -4.009387 10.146871
-39.491043 -2.755402 10.293944
-39.0851 -2.91578 9.346924
-39.269268 -5.107682 10.880664
-39.165945 -4.009387 10.146871
-37.027905 -21.896482 26.704473
-37.175814 -23.021116 26.394036
-36.377014 -20.625937 27.8366
-35.780987 -20.525878 28.638559
-36.923582 -20.70234 26.972817
-36.377014 -20.625937 27.8366
-36.778864 -19.606296 27.233684
-37.429755 -20.876841 26.101556
-37.027905 -21.896482 26.704473
-36.923582 -20.70234 26.972817
-35.71138 -16.128079 28.84105
-35.242373 -17.205829 29.403229
-35.037393 -16.09384 29.664212
-36.265045 -7.889531 27.503816
-35.916798 -8.869962 28.106902
-36.896812 -7.886689 26.525185
-36.265045 -7.889531 27.503816
-36.581543 -6.846559 26.854065
-37.759962 -2.529164 24.06955
-37.50677 -1.493328 24.30339
-38.045506 -1.456107 23.302382
-37.485119 -3.602885 24.81747
-37.759962 -2.529164 24.06955
-38.023855 -3.565665 23.816463
-37.185335 -4.703172 25.526905
-37.485119 -3.602885 24.81747
-37.481161 -5.741551 25.219909
-36.917484 -5.805338 26.182431
-37.185335 -4.703172 25.526905
-40.017286 0.5103 17.602307
-39.861208 -0.47099 18.378727
-39.751091 0.569273 18.626745
-40.235815 0.532301 16.557983
-40.017286 0.5103 17.602307
-40.125698 1.572564 16.806002
-40.401956 2.644596 15.089119
-40.202041 2.679929 16.160517
-40.425392 1.48473 14.792148
-40.401956 2.644596 15.089119
-40.483121 2.534762 14.11959
-40.094664 3.142741 9.301576
-39.912205 1.990209 9.103687
-40.166288 2.064612 10.082444
-40.445007 4.446858 10.492286
-40.454317 3.352141 11.281621
-40.550577 4.581855 11.493574
-40.311199 4.375527 9.540298
-40.445007 4.446858 10.492286
-40.407459 5.605241 9.75225
-40.094664 3.142741 9.301576
-40.311199 4.375527 9.540298
-39.16176 -12.829223 14.029153
-39.379244 -11.623561 14.287111
-39.099541 -11.803006 13.314168
-39.283031 -13.879424 14.774035
-39.16176 -12.829223 14.029153
-39.323528 -14.858709 15.521182
-39.48196 -13.629063 15.749243
-39.283031 -13.879424 14.774035
-39.219009 -16.071463 15.343015
-39.417938 -15.821101 16.318224
-39.323528 -14.858709 15.521182
-39.0737 -17.200979 15.107957
-39.219009 -16.071463 15.343015
-38.96163 -18.325502 14.814029
-39.201349 -18.158378 15.846128
-39.0737 -17.200979 15.107957
-38.826069 -19.448422 14.531374
-38.96163 -18.325502 14.814029
-38.70952 -20.573156 14.157523
-38.97273 -20.407635 15.178349
-38.826069 -19.448422 14.531374
-38.562111 -21.689861 13.730453
-38.70952 -20.573156 14.157523
-38.76234 -22.572063 14.400354
-38.562111 -21.689861 13.730453
3 0 24 22
3 1 27 25
3 2 30 28
3 2 32 30
3 3 35 33
3 87 37 88
3 4 40 38
3 4 42 40
3 5 45 43
3 5 47 45
3 5 49 47
3 6 52 50
3 8 53 23
3 8 54 53
3 90 89 55
3 91 58 92
3 93 59 94
3 95 94 58
3 93 94 95
3 10 96 97
3 11 98 100
3 100 99 26
3 98 99 100
3 11 101 102
3 7 60 51
3 12 61 29
3 12 103 105
3 105 104 61
3 103 104 105
3 12 106 107
3 109 108 31
3 13 64 62
3 111 110 34
3 113 112 56
3 15 65 36
3 15 66 65
3 9 67 57
3 16 68 39
3 16 69 68
3 16 70 69
3 17 71 41
3 17 72 71
3 114 73 115
3 18 74 44
3 18 75 74
3 18 76 75
3 19 77 46
3 19 78 77
3 19 79 78
3 20 80 48
3 20 81 80
3 116 82 117
3 21 118 120
3 118 83 119
3 118 119 120
3 21 84 83
3 21 85 84
3 14 86 63
3 22 23 6
3 24 23 22
3 24 8 23
3 25 26 10
3 27 26 25
3 27 11 26
3 28 29 7
3 30 29 28
3 30 12 29
3 30 31 12
3 32 31 30
3 32 121 123
3 123 122 31
3 121 122 123
3 33 34 13
3 35 34 33
3 35 124 126
3 126 125 34
3 124 125 126
3 127 36 128
3 37 129 131
3 129 36 130
3 129 130 131
3 37 15 36
3 38 39 9
3 40 39 38
3 40 16 39
3 40 41 16
3 42 41 40
3 42 17 41
3 43 132 134
3 132 44 133
3 132 133 134
3 45 44 43
3 45 18 44
3 45 46 18
3 47 46 45
3 47 19 46
3 47 48 19
3 49 48 47
3 49 20 48
3 135 21 136
3 138 137 21
3 140 139 14
3 50 51 1
3 52 51 50
3 52 7 51
3 23 52 6
3 53 52 23
3 53 7 52
3 53 28 7
3 54 28 53
3 54 2 28
3 55 56 3
3 141 56 142
3 143 142 55
3 141 142 143
3 145 144 56
3 146 57 147
3 148 57 149
3 148 149 150
3 151 9 152
3 153 152 57
3 151 152 153
3 58 154 155
3 58 156 158
3 156 9 157
3 156 157 158
3 58 38 9
3 59 38 58
3 59 4 38
3 159 43 160
3 161 43 162
3 163 5 164
3 165 164 43
3 163 164 165
3 167 166 5
3 26 168 170
3 170 169 10
3 168 169 170
3 172 171 26
3 51 27 1
3 60 27 51
3 60 11 27
3 29 60 7
3 61 60 29
3 61 11 60
3 61 173 175
3 175 174 11
3 173 174 175
3 177 176 61
3 31 178 180
3 180 179 12
3 178 179 180
3 182 181 31
3 62 63 0
3 64 63 62
3 64 14 63
3 34 64 13
3 183 64 184
3 185 184 34
3 183 184 185
3 186 14 187
3 188 187 64
3 186 187 188
3 190 189 14
3 56 35 3
3 191 35 192
3 193 192 56
3 191 192 193
3 195 194 35
3 196 10 197
3 36 198 199
3 65 200 202
3 202 201 36
3 200 201 202
3 65 203 205
3 203 10 204
3 203 204 205
3 65 25 10
3 66 25 65
3 66 1 25
3 57 206 208
3 206 37 207
3 206 207 208
3 67 37 57
3 67 15 37
3 39 67 9
3 68 67 39
3 68 15 67
3 68 66 15
3 69 66 68
3 69 1 66
3 69 50 1
3 70 50 69
3 70 6 50
3 41 70 16
3 71 70 41
3 71 6 70
3 71 22 6
3 72 22 71
3 72 0 22
3 209 59 210
3 73 211 213
3 211 59 212
3 211 212 213
3 73 4 59
3 44 214 216
3 214 215 216
3 74 217 219
3 219 218 44
3 217 218 219
3 74 220 221
3 74 222 224
3 222 73 223
3 222 223 224
3 75 73 74
3 75 4 73
3 75 42 4
3 76 42 75
3 76 17 42
3 46 76 18
3 77 76 46
3 77 17 76
3 77 72 17
3 78 72 77
3 78 0 72
3 78 62 0
3 79 62 78
3 79 13 62
3 48 79 19
3 80 79 48
3 80 13 79
3 80 33 13
3 81 33 80
3 81 3 33
3 225 49 226
3 227 226 5
3 225 226 227
3 82 228 230
3 228 49 229
3 228 229 230
3 82 20 49
3 231 82 232
3 83 233 235
3 233 82 234
3 233 234 235
3 83 20 82
3 83 81 20
3 84 81 83
3 84 3 81
3 84 55 3
3 85 55 84
3 85 236 238
3 238 237 55
3 236 237 238
3 239 85 240
3 241 240 21
3 239 240 241
3 242 85 243
3 242 243 244
3 246 245 85
3 63 24 0
3 86 24 63
3 86 8 24
3 247 86 248
3 249 248 14
3 247 248 249
3 250 86 251
3 252 8 253
3 254 253 86
3 252 253 254
3 255 54 256
3 257 256 8
3 255 256 257
3 258 54 259
3 260 2 261
3 262 261 54
3 260 261 262
3 263 2 264
3 265 32 266
3 267 266 2
3 265 266 267
3 268 32 269
3 271 270 32
