ply
format ascii 1.0
element vertex 178
property float x
property float y
property float z
element face 157
property list uchar int vertex_index
end_header
-39.125629 -29.613762 -45.496834
-34.606979 -31.209181 -51.778278
-32.318569 -17.13336 -59.521881
-38.867271 -23.187622 -49.788956
-37.388069 -30.105192 -48.902508
-36.712582 -23.471558 -53.139069
-33.836628 -24.018566 -55.75729
-30.159275 -24.903063 -57.690308
-28.516043 -17.599463 -61.26619
-35.048988 -37.631958 -47.680195
-39.054317 -32.550694 -43.420822
-38.287296 -33.080765 -45.197384
-37.92321 -23.082872 -51.59082
-37.480316 -19.778179 -53.615128
-34.093899 -16.668741 -58.394855
-34.838184 -20.10709 -56.486641
-33.226978 -20.470778 -57.652061
-32.093544 -24.323294 -56.857124
-31.375917 -20.991484 -58.63615
-29.42889 -21.068325 -59.568817
-30.478306 -17.181093 -60.562317
-36.109406 -30.594978 -50.446877
-36.257614 -33.712631 -48.488571
-34.82375 -34.489235 -49.808205
-32.958878 -31.383078 -53.110611
-39.112705 -26.265648 -47.646633
-38.3815 -29.636143 -47.324505
-38.198208 -26.466648 -49.489353
-37.096519 -26.667862 -51.162971
-35.746063 -27.434216 -52.464775
-36.240108 -19.987324 -55.118862
-35.299042 -23.9744 -54.485298
-34.281826 -27.771481 -53.738461
-32.721737 -27.728456 -54.973885
-39.595089 -32.222286 -41.57449
-39.747978 -29.050079 -43.860054
-37.362061 -33.506596 -46.85302
-37.799925 -18.074038 -53.719183
-38.044302 -19.785713 -52.681044
-32.273103 -33.253612 -52.698103
-32.117855 -31.50785 -53.626551
-35.912647 -18.22589 -56.108496
-36.59489 -18.135585 -55.347948
-30.505626 -26.555473 -56.805893
-31.472761 -26.265589 -56.389301
-31.12641 -24.613179 -57.273716
-29.454896 -26.75478 -57.229149
-30.505626 -26.555473 -56.805893
-29.21501 -24.881426 -58.100218
-29.454896 -26.75478 -57.229149
-27.987828 -19.494327 -60.719321
-28.444252 -21.228758 -59.870634
-28.972466 -19.333894 -60.417504
-27.506934 -17.704521 -61.548226
-27.987828 -19.494327 -60.719321
-39.887804 -30.619874 -41.73341
-39.787348 -32.025871 -40.700769
-40.080063 -30.423459 -40.85969
-39.964248 -29.03377 -42.876192
-39.671534 -30.636182 -42.717272
-39.887804 -30.619874 -41.73341
-35.664332 -37.393528 -46.960764
-36.268644 -35.433864 -47.364952
-35.653301 -35.672294 -48.084383
-35.019117 -39.239855 -46.656881
-35.664332 -37.393528 -46.960764
-38.618668 -34.400465 -43.139908
-38.958833 -34.051727 -42.304773
-38.235157 -34.665501 -44.028189
-38.618668 -34.400465 -43.139908
-38.670806 -32.81573 -44.309103
-37.836893 -34.812638 -44.908869
-38.235157 -34.665501 -44.028189
-38.265749 -21.43806 -51.66889
-38.39524 -23.135247 -50.689888
-38.73778 -21.490434 -50.767958
-37.701763 -21.430526 -52.602974
-38.265749 -21.43806 -51.66889
-38.044302 -19.785713 -52.681044
-34.466042 -18.387915 -57.440748
-35.211685 -18.285773 -56.792385
-34.839543 -16.566598 -57.746492
-34.418604 -14.792147 -58.727725
-34.839543 -16.566598 -57.746492
-33.603672 -15.002634 -59.336435
-34.418604 -14.792147 -58.727725
-32.716007 -15.234944 -59.899948
-33.206234 -16.901051 -58.958368
-33.603672 -15.002634 -59.336435
-31.823293 -15.35062 -60.447004
-32.716007 -15.234944 -59.899948
-33.138708 -33.091171 -52.108837
-33.962759 -33.004222 -51.44267
-33.782928 -31.296129 -52.444445
-33.138708 -33.091171 -52.108837
-32.273103 -33.253612 -52.698103
-37.214995 -18.031013 -54.596081
-37.799925 -18.074038 -53.719183
-36.860212 -19.882752 -54.366995
-37.214995 -18.031013 -54.596081
-36.59489 -18.135585 -55.347948
-35.539146 -20.047207 -55.802751
-35.912647 -18.22589 -56.108496
-35.211685 -18.285773 -56.792385
-31.999285 -29.680539 -54.558188
-32.117855 -31.50785 -53.626551
-32.840307 -29.555767 -54.042248
-31.786857 -27.96817 -55.447682
-32.40764 -26.025875 -55.915504
-31.472761 -26.265589 -56.389301
-31.999285 -29.680539 -54.558188
-31.786857 -27.96817 -55.447682
-28.849818 -22.964057 -59.039473
-29.21501 -24.881426 -58.100218
-29.794083 -22.985694 -58.629563
-28.849818 -22.964057 -59.039473
-28.444252 -21.228758 -59.870634
-30.903161 -15.374487 -60.967222
-31.398438 -17.157227 -60.042099
-31.823293 -15.35062 -60.447004
-29.935753 -15.459301 -61.43342
-30.903161 -15.374487 -60.967222
-28.954622 -15.668485 -61.785357
-29.497174 -17.390278 -60.914254
-29.935753 -15.459301 -61.43342
-28.050429 -15.747437 -62.110484
-28.954622 -15.668485 -61.785357
-27.506934 -17.704521 -61.548226
-28.050429 -15.747437 -62.110484
-39.460539 -33.650356 -40.522593
-39.652798 -33.453941 -39.648872
-39.787348 -32.025871 -40.700769
-39.229219 -33.887524 -41.381608
-39.460539 -33.650356 -40.522593
-39.324703 -32.38649 -42.497656
-38.958833 -34.051727 -42.304773
-39.229219 -33.887524 -41.381608
-40.031866 -27.431 -43.909334
-39.964248 -29.03377 -42.876192
-39.761787 -27.476921 -44.915876
-40.031866 -27.431 -43.909334
-39.450613 -27.758763 -45.734267
-39.436804 -29.331921 -44.678444
-39.761787 -27.476921 -44.915876
-39.444151 -26.084705 -46.809166
-39.119167 -27.939705 -46.571734
-39.450613 -27.758763 -45.734267
-39.404998 -24.449656 -47.834566
-39.444151 -26.084705 -46.809166
-39.282281 -22.910643 -48.905727
-38.989988 -24.726635 -48.717794
-39.404998 -24.449656 -47.834566
-39.159273 -21.301001 -49.933419
-39.282281 -22.910643 -48.905727
-39.029781 -19.603813 -50.91242
-38.73778 -21.490434 -50.767958
-39.159273 -21.301001 -49.933419
-37.374275 -35.025553 -45.736687
-37.836893 -34.812638 -44.908869
-37.824678 -33.293681 -46.025202
-36.820868 -35.330847 -46.547176
-36.809838 -33.609614 -47.670795
-36.268644 -35.433864 -47.364952
-37.374275 -35.025553 -45.736687
-36.820868 -35.330847 -46.547176
-34.071145 -34.644249 -50.457634
-34.715364 -32.849208 -50.793242
-33.962759 -33.004222 -51.44267
-34.209618 -36.361603 -49.384918
-34.071145 -34.644249 -50.457634
-34.322237 -37.932964 -48.320914
-34.936369 -36.060597 -48.7442
-34.209618 -36.361603 -49.384918
-34.319252 -39.618969 -47.299995
-34.322237 -37.932964 -48.320914
-34.289381 -41.226866 -46.276682
-35.019117 -39.239855 -46.656881
-34.319252 -39.618969 -47.299995
3 0 11 10
3 37 13 38
3 2 16 14
3 2 18 16
3 2 20 18
3 1 23 21
3 40 39 24
3 3 27 25
3 5 28 12
3 5 29 28
3 41 30 42
3 6 31 15
3 6 32 31
3 6 33 32
3 7 43 45
3 45 44 17
3 43 44 45
3 7 46 47
3 7 48 49
3 8 50 52
3 52 51 19
3 50 51 52
3 8 53 54
3 55 34 56
3 55 56 57
3 58 35 59
3 60 59 34
3 58 59 60
3 4 36 26
3 9 61 63
3 63 62 22
3 61 62 63
3 9 64 65
3 10 66 67
3 11 68 70
3 70 69 10
3 68 69 70
3 11 71 72
3 73 12 74
3 75 74 3
3 73 74 75
3 13 76 78
3 76 12 77
3 76 77 78
3 13 5 12
3 14 79 81
3 79 15 80
3 79 80 81
3 16 15 14
3 16 6 15
3 16 17 6
3 18 17 16
3 18 7 17
3 18 19 7
3 20 19 18
3 20 8 19
3 21 22 4
3 23 22 21
3 23 9 22
3 82 14 83
3 84 14 85
3 86 2 87
3 88 87 14
3 86 87 88
3 90 89 2
3 24 91 93
3 93 92 1
3 91 92 93
3 95 94 24
3 25 26 0
3 27 26 25
3 27 4 26
3 12 27 3
3 28 27 12
3 28 4 27
3 28 21 4
3 29 21 28
3 29 1 21
3 96 13 97
3 30 98 100
3 98 13 99
3 98 99 100
3 30 5 13
3 15 101 103
3 101 30 102
3 101 102 103
3 31 30 15
3 31 5 30
3 31 29 5
3 32 29 31
3 32 1 29
3 32 24 1
3 33 24 32
3 33 104 106
3 106 105 24
3 104 105 106
3 17 33 6
3 107 33 108
3 109 108 17
3 107 108 109
3 111 110 33
3 19 112 114
3 114 113 7
3 112 113 114
3 116 115 19
3 117 20 118
3 119 118 2
3 117 118 119
3 120 20 121
3 122 8 123
3 124 123 20
3 122 123 124
3 125 8 126
3 128 127 8
3 34 129 131
3 129 130 131
3 34 132 133
3 34 134 136
3 134 10 135
3 134 135 136
3 35 10 34
3 35 0 10
3 137 35 138
3 139 35 140
3 141 0 142
3 143 142 35
3 141 142 143
3 144 25 145
3 146 145 0
3 144 145 146
3 147 25 148
3 149 3 150
3 151 150 25
3 149 150 151
3 152 3 153
3 156 155 3
3 154 155 156
3 26 11 0
3 36 11 26
3 36 157 159
3 159 158 11
3 157 158 159
3 22 36 4
3 160 36 161
3 162 161 22
3 160 161 162
3 164 163 36
3 165 23 166
3 167 166 1
3 165 166 167
3 168 23 169
3 170 9 171
3 172 171 23
3 170 171 172
3 173 9 174
3 177 176 9
3 175 176 177
