ply
format ascii 1.0
element vertex 473
property float x
property float y
property float z
element face 543
property list uchar int vertex_index
end_header
-30.713982 0.982061 37.034676
-29.876299 -34.131741 56.108456
-29.181307 -27.797338 39.302681
-30.307217 -7.881915 52.732025
-29.98098 -22.005087 54.184189
-29.596855 -14.227453 37.956196
-31.574341 -10.805531 31.172953
-33.031971 5.460977 30.197823
-29.843697 -41.794971 49.206223
-29.609426 -39.194122 41.523518
-29.219492 -30.772476 47.589344
-29.226894 -17.935442 45.534904
-29.837954 -3.48199 44.42215
-30.097269 -6.612409 37.61253
-30.421453 -12.334865 34.47332
-31.062031 -4.783832 34.048012
-29.761133 -38.003506 52.577393
-29.492466 -36.586491 48.378136
-29.560789 -32.412601 51.76609
-30.132004 -15.096819 53.402176
-29.529577 -19.909447 49.850327
-29.680897 -13.134459 48.928272
-29.498962 -10.711266 45.021759
-29.962809 -5.497807 48.470093
-29.826128 -39.828651 56.842674
-29.314665 -33.885502 40.290981
-29.611273 -32.627914 36.429089
-29.903419 -28.067541 55.166107
-29.273319 -21.267891 38.448116
-29.664133 -26.236601 35.603863
-29.926613 -19.667223 34.93911
-30.978519 -18.118658 31.488857
-31.25313 9.058376 36.724728
-31.724203 3.075271 33.616119
-32.305763 11.24941 32.994881
-29.674246 -40.41692 45.23476
-29.285299 -35.064003 44.325485
-29.04705 -29.211967 43.262245
-29.450111 -26.418226 50.666203
-29.111029 -24.543421 46.405727
-29.014856 -22.816666 42.330906
-29.219425 -16.035212 41.589844
-29.588991 -8.808709 41.092407
-30.072046 -1.135258 40.6717
-30.258711 4.586345 44.094128
-30.584408 6.844875 40.238327
-32.339787 -2.895125 30.671637
-30.39678 -2.917398 37.327747
-30.508774 -5.824322 35.850018
-30.856787 -1.848989 35.557312
-29.797871 -36.07457 54.407066
-29.655348 -35.347607 52.160301
-29.748796 -33.385689 54.020523
-30.207518 -11.48798 52.935009
-29.899584 -13.926009 51.188213
-30.004793 -10.348992 50.886143
-29.825003 -9.36196 48.770184
-30.101585 -6.707104 50.509731
-29.863997 -36.965126 56.39793
-29.841349 -38.919613 54.608162
-29.219557 -30.974016 39.845196
-29.421467 -33.23727 38.381706
-29.379889 -30.247162 37.831554
-29.401003 -17.77352 38.23608
-29.545897 -20.319984 36.715271
-29.73262 -16.914436 36.387444
-30.959475 -11.729503 32.785595
-30.648157 -15.450468 33.027782
-31.25605 -14.465955 31.354948
-31.536505 13.148685 36.20414
-31.748755 10.124889 34.817223
-31.984037 14.237522 34.45472
-29.945307 -43.562263 47.48959
-29.874851 -42.810604 45.597618
-29.760921 -41.144623 47.220753
-29.335569 -33.796673 47.9132
-29.367495 -35.844116 46.312138
-29.214903 -32.96402 45.934856
-29.148682 -32.307873 43.83342
-29.101866 -30.103661 45.388626
-29.931562 -25.117548 54.638901
-29.676985 -27.226225 52.877228
-29.69717 -24.079338 52.392994
-29.35771 -18.738781 47.730503
-29.29538 -22.178711 48.188457
-29.155766 -21.258713 46.05772
-29.031221 -23.507164 44.432713
-29.077568 -20.35339 43.838448
-29.087679 -19.566729 41.873882
-29.17963 -16.946796 43.458549
-29.648901 -7.213376 44.526382
-29.48222 -10.023573 42.929214
-29.682396 -6.202343 42.734592
-29.818626 -5.094357 40.828728
-29.895786 -2.477667 42.525105
-30.370331 5.658574 42.149143
-30.605324 10.003095 41.822029
-30.826298 10.948667 39.908375
-29.907804 -42.519764 51.090694
-30.061857 -25.877007 33.684944
-29.938995 -29.128216 34.099121
-32.349209 4.462821 31.945576
-32.03685 0.095722 32.082966
-32.719318 1.282753 30.41268
-29.84289 -10.533196 37.665501
-29.954807 -13.146448 36.23465
-30.230482 -9.493038 35.982117
-30.714348 -8.684348 34.288712
-31.269323 -7.92677 32.65506
-29.777618 -39.916378 50.904858
-29.667645 -39.274017 48.71698
-29.633112 -37.314678 50.443455
-29.482063 -34.34026 49.996632
-29.370855 -31.630707 49.537815
-30.048706 -18.613539 53.778011
-29.754921 -20.887779 52.05928
-29.822653 -17.55603 51.680775
-29.606346 -16.535526 49.486279
-29.430893 -15.425714 47.156769
-29.345087 -14.346271 45.159836
-29.568298 -11.830022 47.000523
-29.707584 -8.272243 46.700123
-29.852213 -4.629406 46.271202
-29.859524 -40.876343 52.823097
-29.451815 -36.653717 40.828156
-29.524313 -36.100918 38.916233
-29.892525 -31.133078 55.751354
-30.222595 -22.795403 56.471497
-30.509684 -20.35857 58.328018
-30.293928 -19.415512 55.988068
-30.372757 -16.145521 55.623871
-30.430998 -12.668628 55.076115
-29.195717 -24.408371 38.864079
-29.367214 -27.179495 37.516987
-29.437077 -23.777782 37.000111
-29.776751 -23.196823 35.176216
-30.187084 -22.253435 33.52813
-30.154049 -16.007582 34.684338
-30.412281 -18.932402 33.183788
-30.997379 5.054575 36.900528
-31.178507 2.142331 35.340202
-31.465117 6.247111 35.179447
-32.029522 7.25785 33.363129
-32.677113 8.495512 31.545563
-32.94318 12.717268 31.139961
-33.333179 9.489513 29.813833
-30.010063 -44.453358 44.260212
-29.816442 -42.147861 43.815514
-29.613148 -39.70005 43.401485
-29.557243 -38.545647 46.765751
-29.465492 -37.780785 44.82074
-29.421541 -37.089523 42.888443
-29.266308 -34.365482 42.19775
-29.141117 -31.438042 41.786777
-29.069838 -28.397903 41.241211
-29.698479 -30.38282 53.444572
-29.488457 -29.508865 51.233082
-29.292578 -28.565872 49.102184
-29.482155 -23.195496 50.312351
-29.257786 -25.331745 48.521057
-29.129696 -27.678421 46.899349
-29.029934 -26.904034 44.758141
-28.998661 -25.868069 42.866589
-29.049969 -25.440962 40.823196
-29.091419 -21.985281 40.387032
-29.201645 -18.578457 39.96666
-29.364826 -15.078013 39.65427
-29.324358 -13.387861 43.309319
-29.386692 -12.492611 41.344952
-29.562145 -11.333798 39.542507
-29.783581 -7.920458 39.284187
-30.044374 -4.100393 39.082912
-30.343832 -0.096722 38.782616
-30.09725 -1.889356 48.226326
-30.031418 -0.78534 46.106148
-30.218981 3.294098 46.055698
-30.046875 0.47602 44.151066
-30.139494 1.658584 42.369682
-30.331215 2.824472 40.466877
-30.635956 4.013829 38.557949
-30.894884 8.135766 38.406925
-31.142513 12.218417 38.093201
-29.617123 -29.3908 35.942303
-31.407162 -0.915004 33.805126
-31.671911 -4.034406 32.304489
-31.959408 -6.992752 30.885399
-29.870148 -35.548434 56.253193
-29.893469 -35.90317 57.274807
-29.89962 -34.486477 57.13007
-31.763685 -12.301865 30.364013
-31.604539 -14.132077 30.455011
-31.415195 -12.635743 31.26395
-31.865277 15.804475 35.124566
-31.760271 13.693103 35.32943
-31.641511 15.260057 35.999275
-30.619991 11.405579 42.640669
-30.530203 9.306652 42.758898
-30.700786 11.987819 41.669759
-30.619991 11.405579 42.640669
-29.922311 -43.068811 49.295916
-29.954364 -43.431207 50.238152
-29.87575 -42.157367 50.148459
-29.894502 -42.678617 48.347907
-29.973116 -43.952457 48.4376
-29.922311 -43.068811 49.295916
-29.715196 -40.250053 40.845662
-29.703606 -40.437463 41.769543
-30.21027 -27.178077 32.930844
-30.28781 -25.448304 32.819631
-29.757585 -40.200111 57.773436
-29.75918 -39.12689 58.574036
-29.827724 -38.75543 57.643274
-29.794903 -41.227081 56.791906
-29.757585 -40.200111 57.773436
-29.845486 -40.698504 55.83484
-29.794903 -41.227081 56.791906
-29.638274 -34.083303 36.686434
-29.543371 -34.387981 37.662743
-29.51637 -32.932592 37.405397
-29.747609 -33.957811 35.697294
-29.638274 -34.083303 36.686434
-30.314498 -23.229517 57.603973
-30.187744 -24.394573 56.737556
-30.556562 -18.691626 58.140776
-30.627413 -19.225442 59.211265
-30.448684 -18.220098 56.9708
-30.401806 -19.887041 57.158043
-30.556562 -18.691626 58.140776
-30.488099 -16.585102 56.788702
-30.333343 -17.780516 55.80597
-30.448684 -18.220098 56.9708
-30.576784 -11.317651 56.010687
-30.541556 -13.151832 56.178219
-30.474705 -10.822629 54.953772
-30.576784 -11.317651 56.010687
-30.84441 -19.85689 31.62072
-30.561291 -20.263762 32.468186
-30.6954 -18.52553 32.336323
-31.150907 -19.625349 30.685008
-30.84441 -19.85689 31.62072
-33.280895 13.143473 30.19869
-33.063087 14.697885 30.849318
-33.475894 11.529595 29.535626
-33.138179 11.10339 30.476897
-33.280895 13.143473 30.19869
-33.732595 10.038616 28.792245
-33.475894 11.529595 29.535626
-30.028363 -44.705429 45.102007
-30.089171 -45.454735 44.353104
-30.170492 0.074109 48.110247
-30.207793 -0.513865 49.105177
-30.137576 0.626117 47.050157
-30.064334 -1.337348 47.166237
-30.170492 0.074109 48.110247
-30.238846 3.940221 45.074913
-30.304146 5.368728 45.934591
-30.324011 6.014852 44.953806
-31.086281 13.621148 38.852868
-30.984406 11.583542 39.000788
-30.928173 12.986273 39.760454
-31.238399 14.131649 37.934622
-31.086281 13.621148 38.852868
-29.905597 -30.637743 34.332627
-30.088299 -30.333978 33.316007
-29.846658 -37.323667 57.420902
-29.893469 -35.90317 57.274807
-29.845063 -38.396889 56.620302
-29.827724 -38.75543 57.643274
-29.846658 -37.323667 57.420902
-31.44001 -16.040542 30.521237
-31.301244 -17.866893 30.588192
-31.117284 -16.292306 31.421903
-31.44001 -16.040542 30.521237
-31.604539 -14.132077 30.455011
-29.910079 -43.186433 46.543604
-29.960757 -43.884052 45.77071
-29.995985 -44.259882 46.716696
-30.356897 6.598276 43.894947
-30.324011 6.014852 44.953806
-30.412706 7.134391 42.922455
-30.314521 5.122459 43.121635
-30.356897 6.598276 43.894947
-30.487828 7.830834 41.985586
-30.412706 7.134391 42.922455
-30.530203 9.306652 42.758898
-30.811273 12.460605 40.712933
-30.715811 10.475881 40.865202
-30.700786 11.987819 41.669759
-30.913148 14.498211 40.565012
-30.928173 12.986273 39.760454
-30.811273 12.460605 40.712933
-29.963175 -43.866053 51.146483
-29.919923 -43.068624 52.043966
-29.963175 -43.866053 51.146483
-29.954364 -43.431207 50.238152
-30.024535 -44.7346 47.551102
-29.973116 -43.952457 48.4376
-29.995985 -44.259882 46.716696
-30.024535 -44.7346 47.551102
-30.148839 -28.803681 33.137932
-30.000426 -27.502612 33.892032
-30.21027 -27.178077 32.930844
-30.088299 -30.333978 33.316007
-30.148839 -28.803681 33.137932
-29.853097 -40.243984 54.717585
-29.845486 -40.698504 55.83484
-29.833739 -39.374132 55.725418
-29.862184 -41.222349 53.825052
-29.853097 -40.243984 54.717585
-29.850437 -39.897978 53.715629
-29.895784 -42.246914 52.910168
-29.862184 -41.222349 53.825052
-29.883664 -41.698054 51.956896
-29.919923 -43.068624 52.043966
-29.895784 -42.246914 52.910168
-29.557911 -37.736 40.185727
-29.636716 -39.006203 40.533408
-29.53062 -37.923919 41.175837
-29.59416 -37.459601 39.229765
-29.557911 -37.736 40.185727
-29.488064 -36.377318 39.872194
-29.645194 -37.24849 38.218588
-29.59416 -37.459601 39.229765
-29.594794 -35.819805 37.930006
-29.47289 -34.669094 38.648969
-29.543371 -34.387981 37.662743
-29.645194 -37.24849 38.218588
-29.594794 -35.819805 37.930006
-33.248308 3.904867 29.423105
-33.417246 5.919195 29.245295
-29.944305 -31.567644 56.74312
-29.884412 -32.63241 55.929905
-29.936191 -33.066975 56.921671
-29.98617 -30.066837 56.629863
-29.944305 -31.567644 56.74312
-29.991617 -28.534069 56.33724
-29.897972 -29.60031 55.458731
-29.98617 -30.066837 56.629863
-30.028156 -27.030642 56.084862
-29.991617 -28.534069 56.33724
-30.042227 -25.555646 55.821258
-29.91749 -26.592544 54.902504
-30.028156 -27.030642 56.084862
-30.077078 -23.956475 55.555199
-30.042227 -25.555646 55.821258
-30.187744 -24.394573 56.737556
-30.572652 -20.82356 59.421908
-30.690381 -19.690433 60.305155
-30.627413 -19.225442 59.211265
-30.458042 -22.0111 58.532234
-30.572652 -20.82356 59.421908
-30.366139 -21.576987 57.399757
-30.314498 -23.229517 57.603973
-30.458042 -22.0111 58.532234
-30.512435 -14.890278 56.452097
-30.488099 -16.585102 56.788702
-30.401877 -14.407075 55.349993
-30.512435 -14.890278 56.452097
-30.541556 -13.151832 56.178219
-30.362965 -10.232305 53.883219
-30.319258 -12.078304 54.005562
-30.474705 -10.822629 54.953772
-30.412815 -8.429273 53.781727
-30.257368 -9.684947 52.833517
-30.362965 -10.232305 53.883219
-29.936191 -33.066975 56.921671
-29.89962 -34.486477 57.13007
-30.350423 -23.636518 32.741223
-30.28781 -25.448304 32.819631
-30.124471 -24.065221 33.606537
-30.448693 -21.924279 32.640357
-30.299682 -20.592918 33.355959
-30.561291 -20.263762 32.468186
-30.350423 -23.636518 32.741223
-30.448693 -21.924279 32.640357
-31.150907 -19.625349 30.685008
-31.301244 -17.866893 30.588192
-32.104606 16.343538 34.138548
-31.865277 15.804475 35.124566
-32.267497 14.823576 33.483232
-32.104606 16.343538 34.138548
-32.42836 13.32952 32.753313
-32.1449 12.743466 33.724801
-32.267497 14.823576 33.483232
-32.747068 14.06345 31.825853
-33.063087 14.697885 30.849318
-32.624471 11.983339 32.067421
-32.42836 13.32952 32.753313
-32.747068 14.06345 31.825853
-33.56785 7.933463 29.0533
-33.417246 5.919195 29.245295
-33.182575 7.475245 30.005828
-33.56785 7.933463 29.0533
-33.732595 10.038616 28.792245
-30.076634 -45.221373 43.599697
-30.089171 -45.454735 44.353104
-29.99487 -44.196392 43.420418
-30.076634 -45.221373 43.599697
-29.942457 -43.631981 44.928915
-30.028363 -44.705429 45.102007
-29.960757 -43.884052 45.77071
-29.898059 -43.043644 43.198069
-29.99487 -44.196392 43.420418
-29.913252 -43.30061 44.037863
-29.807113 -41.914333 42.915541
-29.898059 -43.043644 43.198069
-29.705466 -40.690427 42.708527
-29.807113 -41.914333 42.915541
-29.714795 -40.923955 43.6085
-29.611287 -39.447086 42.462502
-29.703606 -40.437463 41.769543
-29.705466 -40.690427 42.708527
-30.436734 -6.497962 53.607207
-30.412815 -8.429273 53.781727
-30.34087 -6.045904 52.573155
-30.436734 -6.497962 53.607207
-30.238054 -5.458499 51.462007
-30.204401 -7.29451 51.620878
-30.34087 -6.045904 52.573155
-30.162123 -4.777896 50.433628
-30.238054 -5.458499 51.462007
-30.298592 -3.529291 51.385905
-30.092734 -4.173248 49.413809
-30.032197 -6.102455 49.489912
-30.162123 -4.777896 50.433628
-30.159955 -2.369022 49.291926
-30.207793 -0.513865 49.105177
-30.030029 -3.693582 48.348209
-30.092734 -4.173248 49.413809
-30.159955 -2.369022 49.291926
-30.303928 4.770879 46.933235
-30.304146 5.368728 45.934591
-30.231358 2.665837 47.024932
-30.316305 4.142618 47.902469
-30.303928 4.770879 46.933235
-30.1252 1.254379 46.080923
-30.137576 0.626117 47.050157
-30.231358 2.665837 47.024932
-31.435395 14.596782 36.990092
-31.339509 12.683551 37.148671
-31.238399 14.131649 37.934622
-31.641511 15.260057 35.999275
-31.435395 14.596782 36.990092
-29.715196 -40.250053 40.845662
-29.636716 -39.006203 40.533408
-29.744661 -30.769035 35.254218
-29.778059 -29.259508 35.020712
-29.905597 -30.637743 34.332627
-29.741737 -32.387592 35.497611
-29.614198 -31.009357 36.185696
-29.744661 -30.769035 35.254218
-29.747609 -33.957811 35.697294
-29.741737 -32.387592 35.497611
-33.091982 1.815755 29.530533
-32.875644 3.371865 30.305252
-33.248308 3.904867 29.423105
-32.89854 -0.400148 29.660231
-33.091982 1.815755 29.530533
-32.708775 -2.489087 29.78971
-32.529553 -0.806186 30.542158
-32.89854 -0.400148 29.660231
-32.523153 -4.443034 29.901791
-32.708775 -2.489087 29.78971
-32.332964 -6.491848 30.008672
-32.149597 -4.943938 30.778518
-32.523153 -4.443034 29.901791
-32.129897 -8.531633 30.134476
-32.332964 -6.491848 30.008672
-31.937363 -10.438022 30.278253
-31.766875 -8.899142 31.029176
-32.129897 -8.531633 30.134476
-31.763685 -12.301865 30.364013
-31.937363 -10.438022 30.278253
3 0 49 47
3 1 52 50
3 3 55 53
3 3 57 55
3 1 186 188
3 186 58 187
3 186 187 188
3 1 50 58
3 2 62 60
3 5 65 63
3 6 68 66
3 6 189 191
3 191 190 68
3 189 190 191
3 192 71 193
3 194 193 69
3 192 193 194
3 8 74 72
3 10 77 75
3 10 79 77
3 4 82 80
3 11 85 83
3 11 87 85
3 11 89 87
3 12 92 90
3 12 94 92
3 195 96 196
3 198 197 96
3 8 199 201
3 201 200 98
3 199 200 201
3 8 202 204
3 202 72 203
3 202 203 204
3 9 205 206
3 208 207 99
3 7 103 101
3 13 106 104
3 15 107 48
3 15 108 107
3 16 111 109
3 18 112 51
3 18 113 112
3 19 116 114
3 21 117 54
3 21 118 117
3 21 120 118
3 23 121 56
3 23 122 121
3 24 209 211
3 209 210 211
3 24 212 213
3 24 214 215
3 16 123 59
3 16 109 123
3 25 125 124
3 26 216 218
3 218 217 61
3 216 217 218
3 26 219 220
3 221 127 222
3 223 128 224
3 225 129 226
3 227 226 128
3 225 226 227
3 228 130 229
3 230 229 129
3 228 229 230
3 231 131 232
3 234 233 131
3 28 134 132
3 30 135 64
3 30 136 135
3 14 137 105
3 31 138 67
3 31 235 237
3 237 236 138
3 235 236 237
3 31 238 239
3 32 141 139
3 34 142 70
3 34 143 142
3 240 144 241
3 242 145 243
3 244 243 144
3 242 243 244
3 246 245 145
3 247 146 248
3 35 147 73
3 35 148 147
3 17 149 110
3 36 150 76
3 36 151 150
3 36 152 151
3 37 153 78
3 37 154 153
3 27 155 126
3 38 156 81
3 38 157 156
3 20 158 115
3 39 159 84
3 39 160 159
3 39 161 160
3 40 162 86
3 40 163 162
3 40 164 163
3 41 165 88
3 41 166 165
3 22 167 119
3 42 168 91
3 42 169 168
3 42 170 169
3 43 171 93
3 43 172 171
3 249 173 250
3 251 174 252
3 253 252 173
3 251 252 253
3 44 254 256
3 254 175 255
3 254 255 256
3 44 176 175
3 44 177 176
3 45 178 95
3 45 179 178
3 45 180 179
3 257 181 258
3 259 258 97
3 257 258 259
3 261 260 181
3 29 182 133
3 263 262 100
3 33 183 140
3 46 184 102
3 46 185 184
3 47 48 13
3 49 48 47
3 49 15 48
3 50 51 16
3 52 51 50
3 52 18 51
3 53 54 19
3 55 54 53
3 55 21 54
3 55 56 21
3 57 56 55
3 57 23 56
3 58 264 265
3 58 266 268
3 266 24 267
3 266 267 268
3 58 59 24
3 50 59 58
3 50 16 59
3 60 61 25
3 62 61 60
3 62 26 61
3 63 64 28
3 65 64 63
3 65 30 64
3 66 67 14
3 68 67 66
3 68 31 67
3 68 269 271
3 271 270 31
3 269 270 271
3 273 272 68
3 69 70 32
3 71 70 69
3 71 34 70
3 72 274 276
3 274 73 275
3 274 275 276
3 74 73 72
3 74 35 73
3 75 76 17
3 77 76 75
3 77 36 76
3 77 78 36
3 79 78 77
3 79 37 78
3 80 81 27
3 82 81 80
3 82 38 81
3 83 84 20
3 85 84 83
3 85 39 84
3 85 86 39
3 87 86 85
3 87 40 86
3 87 88 40
3 89 88 87
3 89 41 88
3 90 91 22
3 92 91 90
3 92 42 91
3 92 93 42
3 94 93 92
3 94 43 93
3 277 44 278
3 279 95 280
3 281 280 44
3 279 280 281
3 96 282 284
3 282 95 283
3 282 283 284
3 96 45 95
3 96 97 45
3 285 97 286
3 287 286 96
3 285 286 287
3 290 289 97
3 288 289 290
3 98 291 292
3 294 293 98
3 72 295 296
3 72 297 298
3 99 100 29
3 299 100 300
3 301 300 99
3 299 300 301
3 303 302 100
3 101 102 33
3 103 102 101
3 103 46 102
3 104 105 5
3 106 105 104
3 106 14 105
3 48 106 13
3 107 106 48
3 107 14 106
3 107 66 14
3 108 66 107
3 108 6 66
3 109 110 8
3 111 110 109
3 111 17 110
3 51 111 16
3 112 111 51
3 112 17 111
3 112 75 17
3 113 75 112
3 113 10 75
3 114 115 4
3 116 115 114
3 116 20 115
3 54 116 19
3 117 116 54
3 117 20 116
3 117 83 20
3 118 83 117
3 118 11 83
3 118 119 11
3 120 119 118
3 120 22 119
3 56 120 21
3 121 120 56
3 121 22 120
3 121 90 22
3 122 90 121
3 122 12 90
3 59 304 306
3 306 305 24
3 304 305 306
3 123 307 309
3 309 308 59
3 307 308 309
3 123 310 311
3 123 312 314
3 312 98 313
3 312 313 314
3 109 98 123
3 109 8 98
3 124 315 317
3 317 316 9
3 315 316 317
3 125 318 320
3 320 319 124
3 318 319 320
3 125 321 322
3 61 125 25
3 323 125 324
3 325 324 61
3 323 324 325
3 327 326 125
3 329 328 7
3 330 126 331
3 332 331 1
3 330 331 332
3 333 126 334
3 335 27 336
3 337 336 126
3 335 336 337
3 338 27 339
3 340 80 341
3 342 341 27
3 340 341 342
3 127 343 345
3 343 80 344
3 343 344 345
3 127 4 80
3 128 346 348
3 346 347 348
3 128 349 350
3 128 351 353
3 351 127 352
3 351 352 353
3 129 127 128
3 129 4 127
3 129 114 4
3 130 114 129
3 130 19 114
3 354 130 355
3 131 356 358
3 356 130 357
3 356 357 358
3 131 19 130
3 131 53 19
3 359 53 360
3 361 360 131
3 359 360 361
3 362 3 363
3 364 363 53
3 362 363 364
3 365 1 366
3 132 133 2
3 134 133 132
3 134 29 133
3 64 134 28
3 135 134 64
3 135 29 134
3 135 99 29
3 136 99 135
3 136 367 369
3 369 368 99
3 367 368 369
3 105 65 5
3 137 65 105
3 137 30 65
3 67 137 14
3 138 137 67
3 138 30 137
3 138 136 30
3 370 136 371
3 372 371 138
3 370 371 372
3 374 373 136
3 376 375 31
3 139 140 0
3 141 140 139
3 141 33 140
3 70 141 32
3 142 141 70
3 142 33 141
3 142 101 33
3 143 101 142
3 143 7 101
3 377 71 378
3 379 71 380
3 381 34 382
3 383 382 71
3 381 382 383
3 144 384 385
3 144 386 388
3 386 34 387
3 386 387 388
3 144 143 34
3 145 143 144
3 145 7 143
3 145 389 391
3 391 390 7
3 389 390 391
3 393 392 145
3 146 394 395
3 146 396 397
3 73 398 400
3 398 146 399
3 398 399 400
3 147 146 73
3 147 401 403
3 403 402 146
3 401 402 403
3 147 404 405
3 148 406 408
3 408 407 147
3 406 407 408
3 148 409 411
3 409 9 410
3 409 410 411
3 110 74 8
3 149 74 110
3 149 35 74
3 76 149 17
3 150 149 76
3 150 35 149
3 150 148 35
3 151 148 150
3 151 9 148
3 151 124 9
3 152 124 151
3 152 25 124
3 78 152 36
3 153 152 78
3 153 25 152
3 153 60 25
3 154 60 153
3 154 2 60
3 126 52 1
3 155 52 126
3 155 18 52
3 81 155 27
3 156 155 81
3 156 18 155
3 156 113 18
3 157 113 156
3 157 10 113
3 115 82 4
3 158 82 115
3 158 38 82
3 84 158 20
3 159 158 84
3 159 38 158
3 159 157 38
3 160 157 159
3 160 10 157
3 160 79 10
3 161 79 160
3 161 37 79
3 86 161 39
3 162 161 86
3 162 37 161
3 162 154 37
3 163 154 162
3 163 2 154
3 163 132 2
3 164 132 163
3 164 28 132
3 88 164 40
3 165 164 88
3 165 28 164
3 165 63 28
3 166 63 165
3 166 5 63
3 119 89 11
3 167 89 119
3 167 41 89
3 91 167 22
3 168 167 91
3 168 41 167
3 168 166 41
3 169 166 168
3 169 5 166
3 169 104 5
3 170 104 169
3 170 13 104
3 93 170 42
3 171 170 93
3 171 13 170
3 171 47 13
3 172 47 171
3 172 0 47
3 412 3 413
3 414 3 415
3 416 57 417
3 418 417 3
3 416 417 418
3 419 57 420
3 419 420 421
3 422 23 423
3 424 423 57
3 422 423 424
3 173 425 426
3 173 427 429
3 427 23 428
3 427 428 429
3 173 122 23
3 174 122 173
3 174 12 122
3 175 430 431
3 175 432 434
3 432 433 434
3 175 435 437
3 435 174 436
3 435 436 437
3 176 174 175
3 176 12 174
3 176 94 12
3 177 94 176
3 177 43 94
3 95 177 44
3 178 177 95
3 178 43 177
3 178 172 43
3 179 172 178
3 179 0 172
3 179 139 0
3 180 139 179
3 180 32 139
3 97 180 45
3 181 180 97
3 181 32 180
3 181 69 32
3 438 69 439
3 440 439 181
3 438 439 440
3 442 441 69
3 444 443 9
3 133 62 2
3 182 62 133
3 182 26 62
3 100 182 29
3 445 182 446
3 447 446 100
3 445 446 447
3 448 26 449
3 450 449 182
3 448 449 450
3 452 451 26
3 140 49 0
3 183 49 140
3 183 15 49
3 102 183 33
3 184 183 102
3 184 15 183
3 184 108 15
3 185 108 184
3 185 6 108
3 453 103 454
3 455 454 7
3 453 454 455
3 456 103 457
3 458 46 459
3 460 459 103
3 458 459 460
3 461 46 462
3 463 185 464
3 465 464 46
3 463 464 465
3 466 185 467
3 468 6 469
3 470 469 185
3 468 469 470
3 472 471 6
