ply
format ascii 1.0
element vertex 185
property float x
property float y
property float z
element face 174
property list uchar int vertex_index
end_header
19.849127 12.642424 41.263847
16.864958 21.090279 42.501316
13.381823 11.506841 48.180542
20.932266 9.068628 40.917347
18.452728 16.502609 41.912357
20.002111 21.151148 38.775917
21.614717 16.977177 38.033085
16.661121 12.050678 44.85001
17.722254 8.388598 44.521973
14.366384 7.548608 48.029163
15.161995 16.227093 45.473431
18.686041 4.940249 44.289268
21.300669 12.911549 39.53017
21.9606 11.132167 39.233715
20.43626 10.756422 41.056717
19.237617 14.501828 41.510559
20.019526 16.836351 40.011192
20.804052 14.882208 39.598244
20.630144 23.428986 37.187466
15.070654 11.775023 46.512337
15.587392 9.754637 46.408546
13.890604 9.507561 48.096378
12.609189 13.524481 48.478184
14.29453 13.810588 46.846004
15.996037 14.121001 45.09412
16.543566 6.086507 46.210934
18.18248 6.602326 44.434826
17.135336 4.547993 45.947712
21.432514 7.317049 40.820351
17.658449 18.848171 42.211292
18.51251 21.060041 40.624077
19.239531 18.85811 40.386333
20.888239 19.077171 38.30838
11.60829 11.253731 49.831478
12.212879 9.286004 49.681377
19.186493 23.327337 39.094673
18.282232 12.346998 43.067879
18.876719 10.54535 42.82399
17.253719 10.149956 44.63295
16.083881 7.911573 46.288261
14.888692 5.695516 47.903931
16.040092 18.69405 44.000706
16.856541 16.427034 43.678532
17.639158 14.303818 43.32756
19.294487 8.640429 42.803822
19.871277 6.960163 42.579494
20.268991 5.321519 42.559635
17.26292 22.220403 41.723968
16.436967 22.26717 42.642672
16.273291 4.277248 46.848286
16.839451 5.31725 46.079323
15.977406 5.046506 46.979897
21.730096 9.236176 39.988165
22.244263 10.267946 39.146349
21.446433 10.100397 40.075531
21.18239 8.192839 40.868849
21.980221 8.360387 39.939667
21.730096 9.236176 39.988165
22.005763 18.092812 37.185116
21.642524 19.142809 37.322764
21.251478 18.027174 38.170732
22.395911 17.068968 37.0257
22.005763 18.092812 37.185116
11.052881 10.172399 50.522228
10.72616 11.144081 50.604564
10.72616 11.144081 50.604564
11.249042 12.253685 49.937521
20.127309 24.645025 37.40106
20.875303 24.557527 36.399559
12.459297 8.252436 49.656101
11.608833 8.135442 50.430126
14.75546 17.348847 45.618563
14.342921 16.140335 46.285756
15.601043 17.460572 44.737068
15.194509 18.582325 44.8822
14.75546 17.348847 45.618563
21.630634 12.021858 39.381942
22.390446 12.153599 38.451425
22.060481 13.04329 38.599653
21.553199 14.963322 38.676089
21.958531 16.010807 37.893509
21.209384 15.929693 38.815664
21.801507 13.977992 38.642052
21.553199 14.963322 38.676089
21.05236 13.896878 39.564207
22.060481 13.04329 38.599653
21.801507 13.977992 38.642052
21.072639 22.331029 36.992086
20.316128 22.290067 37.981691
20.758622 21.19211 37.786312
21.350545 23.43721 36.197581
21.072639 22.331029 36.992086
20.875303 24.557527 36.399559
21.350545 23.43721 36.197581
13.066518 14.789029 47.788132
12.219279 14.663324 48.583855
13.909188 14.932082 46.972042
13.066518 14.789029 47.788132
13.45186 13.667534 47.662094
14.728262 15.01884 46.159717
14.342921 16.140335 46.285756
13.909188 14.932082 46.972042
22.667062 11.293055 38.375715
22.390446 12.153599 38.451425
22.667062 11.293055 38.375715
22.244263 10.267946 39.146349
22.167487 7.435425 39.996967
21.980221 8.360387 39.939667
21.62136 6.432888 40.855862
22.167487 7.435425 39.996967
21.201686 20.155121 37.552543
20.758622 21.19211 37.786312
20.445175 20.114159 38.542148
21.201686 20.155121 37.552543
21.642524 19.142809 37.322764
22.395911 17.068968 37.0257
21.958531 16.010807 37.893509
11.355176 9.188536 50.447177
11.910584 10.269868 49.756428
11.052881 10.172399 50.522228
11.608833 8.135442 50.430126
11.355176 9.188536 50.447177
11.749491 13.38906 49.260874
12.219279 14.663324 48.583855
12.10874 12.389106 49.154831
11.749491 13.38906 49.260874
11.249042 12.253685 49.937521
18.086696 22.205284 40.785349
17.26292 22.220403 41.723968
17.688734 21.07516 41.562697
18.423688 23.338932 40.020647
18.086696 22.205284 40.785349
18.849501 22.193689 39.859375
18.703485 24.528884 39.290689
18.423688 23.338932 40.020647
19.405483 24.594201 38.354664
19.908319 23.378161 38.14107
20.127309 24.645025 37.40106
18.703485 24.528884 39.290689
19.405483 24.594201 38.354664
15.14997 4.85101 47.826395
15.977406 5.046506 46.979897
15.716129 5.891011 47.057433
13.298159 8.363215 48.863602
13.051741 9.396783 48.888877
12.459297 8.252436 49.656101
13.536049 7.383738 48.829994
14.128494 8.528085 48.06277
13.298159 8.363215 48.863602
13.767756 6.461303 48.798027
13.536049 7.383738 48.829994
14.02891 5.534757 48.735411
14.627538 6.622062 47.966547
13.767756 6.461303 48.798027
14.319653 4.703117 48.634802
14.02891 5.534757 48.735411
15.14997 4.85101 47.826395
14.319653 4.703117 48.634802
16.051607 20.965328 43.399494
16.436967 22.26717 42.642672
15.639174 19.767213 44.149189
15.194509 18.582325 44.8822
16.452525 19.892164 43.251011
16.051607 20.965328 43.399494
15.639174 19.767213 44.149189
21.039598 5.435123 41.725504
21.62136 6.432888 40.855862
20.850752 6.319284 41.689993
16.553907 3.518108 46.732157
16.273291 4.277248 46.848286
17.363283 3.752161 45.890366
16.553907 3.518108 46.732157
18.138635 3.948288 45.061144
17.910688 4.744121 45.11849
17.363283 3.752161 45.890366
18.902041 4.112624 44.258527
18.138635 3.948288 45.061144
19.693517 4.30326 43.393711
19.477516 5.130884 43.424452
18.902041 4.112624 44.258527
20.462561 4.483953 42.569267
19.693517 4.30326 43.393711
21.233168 4.597557 41.735136
21.039598 5.435123 41.725504
20.462561 4.483953 42.569267
3 0 14 12
3 0 17 15
3 0 12 17
3 1 47 48
3 2 21 19
3 2 23 22
3 2 19 23
3 49 27 50
3 51 50 25
3 49 50 51
3 3 52 54
3 54 53 13
3 52 53 54
3 3 55 57
3 55 28 56
3 55 56 57
3 4 31 29
3 6 32 16
3 6 58 60
3 60 59 32
3 58 59 60
3 6 61 62
3 64 63 33
3 65 33 66
3 5 35 30
3 68 67 18
3 7 38 36
3 9 39 20
3 9 40 39
3 70 69 34
3 10 71 72
3 10 73 75
3 73 41 74
3 73 74 75
3 10 42 41
3 7 43 24
3 7 36 43
3 8 44 37
3 11 45 26
3 11 46 45
3 12 76 78
3 76 13 77
3 76 77 78
3 14 13 12
3 14 3 13
3 15 16 4
3 17 16 15
3 17 6 16
3 17 79 81
3 81 80 6
3 79 80 81
3 12 82 84
3 84 83 17
3 82 83 84
3 12 85 86
3 87 18 88
3 89 88 5
3 87 88 89
3 90 18 91
3 93 92 18
3 19 20 7
3 21 20 19
3 21 9 20
3 22 94 95
3 23 96 98
3 98 97 22
3 96 97 98
3 23 99 101
3 99 10 100
3 99 100 101
3 23 24 10
3 19 24 23
3 19 7 24
3 25 26 8
3 27 26 25
3 27 11 26
3 13 102 103
3 105 104 13
3 28 106 107
3 28 108 109
3 29 30 1
3 31 30 29
3 31 5 30
3 16 31 4
3 32 31 16
3 32 5 31
3 32 110 112
3 112 111 5
3 110 111 112
3 114 113 32
3 116 115 6
3 33 34 2
3 117 34 118
3 119 118 33
3 117 118 119
3 121 120 34
3 122 22 123
3 33 124 126
3 124 22 125
3 124 125 126
3 33 2 22
3 30 127 129
3 129 128 1
3 127 128 129
3 35 130 132
3 132 131 30
3 130 131 132
3 35 133 134
3 18 35 5
3 135 35 136
3 137 136 18
3 135 136 137
3 139 138 35
3 36 37 0
3 38 37 36
3 38 8 37
3 20 38 7
3 39 38 20
3 39 8 38
3 39 25 8
3 40 25 39
3 40 140 142
3 142 141 25
3 140 141 142
3 34 21 2
3 143 21 144
3 145 144 34
3 143 144 145
3 146 9 147
3 148 147 21
3 146 147 148
3 149 9 150
3 151 40 152
3 153 152 9
3 151 152 153
3 154 40 155
3 157 156 40
3 158 1 159
3 41 160 161
3 41 162 164
3 162 1 163
3 162 163 164
3 41 29 1
3 42 29 41
3 42 4 29
3 24 42 10
3 43 42 24
3 43 4 42
3 43 15 4
3 36 15 43
3 36 0 15
3 37 14 0
3 44 14 37
3 44 3 14
3 26 44 8
3 45 44 26
3 45 3 44
3 45 28 3
3 46 28 45
3 46 165 167
3 167 166 28
3 165 166 167
3 168 27 169
3 170 27 171
3 172 11 173
3 174 173 27
3 172 173 174
3 175 11 176
3 177 46 178
3 179 178 11
3 177 178 179
3 180 46 181
3 184 183 46
3 182 183 184
