ply
format ascii 1.0
element vertex 261
property float x
property float y
property float z
element face 257
property list uchar int vertex_index
end_header
15.157025 36.98386 -52.012749
17.589762 29.067917 -34.95266
10.278909 43.411259 -47.006283
14.753637 37.472233 -41.211712
20.39777 31.158201 -45.793301
8.721534 39.164883 -55.98106
14.112998 37.87606 -36.165794
19.068977 30.151377 -40.286522
23.535549 29.11179 -47.937122
12.59774 39.734653 -49.370541
9.624811 41.331745 -51.713696
12.026461 38.521164 -54.48978
15.168272 33.333366 -33.039062
10.754557 45.409679 -42.31078
12.710616 40.868866 -44.33905
15.036742 37.395069 -46.593624
16.356121 33.426601 -38.076279
17.287556 34.05043 -43.662697
17.862413 34.577801 -49.20908
21.105536 32.249378 -51.638092
13.874243 38.234241 -50.724979
12.310881 39.196274 -51.989182
13.622409 37.866772 -53.434055
13.597275 39.701786 -40.23275
12.679545 41.495243 -41.716728
13.775928 39.296471 -42.827259
13.857929 38.983917 -45.433525
14.963898 37.403446 -43.979111
16.286312 31.093664 -33.973938
15.719032 33.477089 -35.578976
17.041096 31.268528 -36.581345
19.673874 30.770187 -43.016453
18.255657 32.183098 -42.130978
18.746679 32.601986 -44.820572
17.642385 34.316444 -46.448692
19.180346 32.95718 -47.511467
19.520361 33.279083 -50.283253
20.826921 31.768414 -48.764004
8.950401 44.399063 -48.139172
9.210777 40.273403 -53.904751
8.03511 41.830597 -52.555729
7.583994 40.459362 -54.631912
14.408243 37.745361 -38.713966
18.435442 29.503881 -37.663242
19.873419 28.010212 -38.629059
20.641115 28.693207 -41.273342
21.372601 29.350899 -44.002613
21.952753 30.107162 -46.956348
23.091494 28.267294 -45.222
11.314211 41.552402 -48.12801
9.949978 42.393517 -49.420147
11.093491 40.729912 -50.544327
10.784547 39.91531 -52.884331
10.400208 38.988537 -55.246399
15.651365 30.838766 -31.55899
15.036654 36.725086 -54.594097
10.58864 44.338852 -44.620419
11.690456 43.031929 -43.130093
11.587182 42.231335 -45.594341
12.686348 40.303417 -46.844608
13.911024 38.623821 -48.029079
15.231706 37.125206 -49.344135
15.190147 35.565742 -37.361382
15.617129 35.519581 -39.741993
17.672783 31.764908 -39.391171
16.911438 33.675224 -40.91074
15.9643 35.639397 -42.453217
16.313305 35.678055 -45.214493
16.396404 35.895073 -47.85957
16.595188 35.844021 -50.612274
18.050156 34.703033 -52.04068
22.440695 30.727903 -49.877087
8.464456 43.146034 -50.429066
13.423029 37.323723 -55.943264
9.614655 43.905161 -47.572727
9.149155 45.011444 -46.995115
9.81341 44.517542 -46.428671
7.879333 39.136103 -56.251386
7.310562 39.783343 -55.576813
8.152764 39.812123 -55.306486
13.793031 38.900932 -36.942602
13.667753 39.182535 -35.740825
14.26062 37.81071 -37.43988
13.940654 38.835583 -38.216688
13.793031 38.900932 -36.942602
20.179618 27.002409 -37.821686
19.417322 27.666622 -37.224779
21.497491 28.036335 -41.779197
21.081696 27.616159 -40.409122
21.863234 28.365181 -43.143833
21.006858 29.022053 -42.637977
21.497491 28.036335 -41.779197
22.722681 27.823379 -43.753526
22.232048 28.809096 -44.612307
21.863234 28.365181 -43.143833
15.844123 29.624192 -30.804763
15.328311 30.790578 -30.355266
16.245155 29.727792 -32.014326
15.844123 29.624192 -30.804763
10.224934 46.084749 -42.996759
10.389942 46.640642 -41.927819
10.671598 44.874265 -43.465599
10.141976 45.549335 -44.151579
10.224934 46.084749 -42.996759
14.938302 34.47326 -33.865095
14.716992 34.529562 -32.655787
20.354824 32.932461 -52.360897
19.562237 33.447313 -51.683478
20.312949 32.76423 -50.960673
21.204934 32.391357 -52.992811
20.354824 32.932461 -52.360897
7.504566 42.694637 -51.969166
7.232337 41.921146 -52.955951
14.063166 36.833603 -56.637569
14.229841 37.024405 -55.268681
14.869979 36.534284 -55.962986
13.929202 38.078773 -34.958319
13.667753 39.182535 -35.740825
10.885963 45.804294 -41.184446
10.389942 46.640642 -41.927819
13.13841 40.598515 -40.974739
12.687127 41.694615 -40.516832
13.145992 40.797886 -39.774843
23.777166 29.405716 -49.296089
24.435608 28.526453 -48.332018
8.440758 45.508983 -47.677128
9.149155 45.011444 -46.995115
8.229691 44.740963 -48.712145
8.440758 45.508983 -47.677128
7.006779 41.235529 -53.994043
7.232337 41.921146 -52.955951
7.809552 41.144979 -53.59382
6.745341 40.472566 -54.882351
7.006779 41.235529 -53.994043
6.745341 40.472566 -54.882351
7.310562 39.783343 -55.576813
13.53517 39.813795 -38.97608
13.145992 40.797886 -39.774843
14.002759 38.723574 -39.473358
13.53517 39.813795 -38.97608
13.940654 38.835583 -38.216688
18.698334 28.413457 -36.74187
18.012602 29.285899 -36.307951
18.275494 28.195475 -35.386579
19.15443 28.757047 -38.14615
18.698334 28.413457 -36.74187
19.417322 27.666622 -37.224779
20.697848 27.274661 -39.086981
20.179618 27.002409 -37.821686
20.257267 28.351709 -39.9512
20.697848 27.274661 -39.086981
21.081696 27.616159 -40.409122
23.530642 27.273927 -44.166647
22.722681 27.823379 -43.753526
23.905036 27.741662 -45.622292
23.530642 27.273927 -44.166647
24.127063 28.16391 -46.979852
23.313522 28.689542 -46.579561
23.905036 27.741662 -45.622292
24.435608 28.526453 -48.332018
24.127063 28.16391 -46.979852
14.921185 33.251981 -31.837724
14.716992 34.529562 -32.655787
15.162731 32.004682 -31.097687
15.328311 30.790578 -30.355266
15.409819 32.086066 -32.299026
14.921185 33.251981 -31.837724
15.162731 32.004682 -31.097687
16.562628 29.855241 -33.2218
15.968839 30.966215 -32.766464
16.245155 29.727792 -32.014326
17.214354 28.842367 -33.711161
16.938037 30.08079 -34.463299
16.562628 29.855241 -33.2218
17.865634 27.895789 -34.163533
17.214354 28.842367 -33.711161
18.275494 28.195475 -35.386579
17.865634 27.895789 -34.163533
15.796138 36.280491 -54.002203
15.09684 36.854473 -53.303423
15.856324 36.409878 -52.711529
15.765332 36.17563 -55.398929
15.796138 36.280491 -54.002203
14.869979 36.534284 -55.962986
15.765332 36.17563 -55.398929
9.968275 44.981338 -45.235739
10.141976 45.549335 -44.151579
10.433775 43.875056 -45.813351
9.81341 44.517542 -46.428671
9.968275 44.981338 -45.235739
11.254939 44.622974 -41.535822
10.885963 45.804294 -41.184446
12.217433 42.665756 -41.238796
12.687127 41.694615 -40.516832
11.722889 43.434099 -41.945479
12.217433 42.665756 -41.238796
12.185 42.263586 -42.423411
11.222506 44.220804 -42.720437
11.254939 44.622974 -41.535822
11.722889 43.434099 -41.945479
14.410666 36.744608 -35.428461
13.929202 38.078773 -34.958319
15.213683 34.545122 -35.135052
14.938302 34.47326 -33.865095
15.443652 33.405227 -34.309019
14.94924 35.589449 -36.026255
15.213683 34.545122 -35.135052
15.45459 34.521416 -36.470179
14.651573 36.720901 -36.763588
14.410666 36.744608 -35.428461
14.94924 35.589449 -36.026255
16.575405 35.839958 -52.011291
15.856324 36.409878 -52.711529
15.876107 36.41394 -51.312511
17.302889 35.269464 -52.725494
16.575405 35.839958 -52.011291
17.322672 35.273527 -51.326477
18.112552 34.69795 -53.371584
17.302889 35.269464 -52.725494
18.827134 34.159288 -52.562191
18.785259 33.991058 -51.161967
19.562237 33.447313 -51.683478
18.112552 34.69795 -53.371584
18.827134 34.159288 -52.562191
23.229739 30.213773 -50.266072
22.988122 29.919846 -48.907105
23.777166 29.405716 -49.296089
22.579107 30.969893 -51.21463
23.229739 30.213773 -50.266072
21.911528 31.73063 -52.095133
21.773116 31.488641 -50.75759
22.579107 30.969893 -51.21463
21.204934 32.391357 -52.992811
21.911528 31.73063 -52.095133
7.986718 44.114449 -49.857092
8.229691 44.740963 -48.712145
8.707428 43.772548 -49.284119
7.719239 43.352356 -50.905834
8.249783 42.488315 -51.492397
7.504566 42.694637 -51.969166
7.986718 44.114449 -49.857092
7.719239 43.352356 -50.905834
13.177282 37.024313 -57.178122
14.063166 36.833603 -56.637569
12.529453 37.561842 -56.369274
13.177282 37.024313 -57.178122
11.831169 38.160562 -55.642532
12.724745 37.922443 -55.216522
12.529453 37.561842 -56.369274
11.018043 38.394249 -56.020842
11.213334 38.754851 -54.868089
11.831169 38.160562 -55.642532
10.131625 38.487589 -56.371071
11.018043 38.394249 -56.020842
9.292288 38.575762 -56.738401
9.560871 39.07671 -55.613729
10.131625 38.487589 -56.371071
8.449949 38.535162 -56.998282
9.292288 38.575762 -56.738401
7.879333 39.136103 -56.251386
8.449949 38.535162 -56.998282
3 0 22 20
3 3 25 23
3 3 27 25
3 1 30 28
3 4 33 31
3 4 35 33
3 4 37 35
3 2 74 76
3 74 38 75
3 74 75 76
3 5 41 39
3 5 77 79
3 79 78 41
3 77 78 79
3 6 80 81
3 6 82 84
3 82 42 83
3 82 83 84
3 85 44 86
3 87 45 88
3 89 46 90
3 91 90 45
3 89 90 91
3 92 48 93
3 94 93 46
3 92 93 94
3 9 51 49
3 11 52 21
3 11 53 52
3 95 54 96
3 98 97 54
3 13 99 100
3 13 101 103
3 101 56 102
3 101 102 103
3 14 57 24
3 14 58 57
3 14 59 58
3 15 60 26
3 15 61 60
3 12 104 105
3 16 62 29
3 16 63 62
3 7 64 43
3 17 65 32
3 17 66 65
3 17 67 66
3 18 68 34
3 18 69 68
3 18 70 69
3 19 106 108
3 108 107 36
3 106 107 108
3 19 109 110
3 8 71 47
3 10 72 50
3 112 111 40
3 113 73 114
3 115 114 55
3 113 114 115
3 116 6 117
3 20 21 9
3 22 21 20
3 22 11 21
3 118 13 119
3 23 120 122
3 120 24 121
3 120 121 122
3 25 24 23
3 25 14 24
3 25 26 14
3 27 26 25
3 27 15 26
3 28 29 12
3 30 29 28
3 30 16 29
3 31 32 7
3 33 32 31
3 33 17 32
3 33 34 17
3 35 34 33
3 35 18 34
3 35 36 18
3 37 36 35
3 37 19 36
3 124 123 8
3 38 125 126
3 38 127 128
3 39 40 10
3 41 40 39
3 41 129 131
3 131 130 40
3 129 130 131
3 41 132 133
3 135 134 41
3 136 23 137
3 42 138 140
3 138 23 139
3 138 139 140
3 42 3 23
3 141 43 142
3 143 142 1
3 141 142 143
3 44 144 146
3 144 43 145
3 144 145 146
3 44 7 43
3 147 44 148
3 45 149 151
3 149 44 150
3 149 150 151
3 45 7 44
3 45 31 7
3 46 31 45
3 46 4 31
3 46 47 4
3 48 47 46
3 48 8 47
3 152 48 153
3 154 48 155
3 156 8 157
3 158 157 48
3 156 157 158
3 160 159 8
3 49 50 2
3 51 50 49
3 51 10 50
3 21 51 9
3 52 51 21
3 52 10 51
3 52 39 10
3 53 39 52
3 53 5 39
3 161 12 162
3 54 163 164
3 54 165 167
3 165 12 166
3 165 166 167
3 54 28 12
3 168 28 169
3 170 169 54
3 168 169 170
3 171 1 172
3 173 172 28
3 171 172 173
3 174 1 175
3 177 176 1
3 178 55 179
3 180 179 0
3 178 179 180
3 181 55 182
3 184 183 55
3 56 185 186
3 56 187 189
3 187 2 188
3 187 188 189
3 190 13 191
3 24 192 193
3 57 194 196
3 196 195 24
3 194 195 196
3 57 197 199
3 197 13 198
3 197 198 199
3 57 56 13
3 58 56 57
3 58 2 56
3 58 49 2
3 59 49 58
3 59 9 49
3 26 59 14
3 60 59 26
3 60 9 59
3 60 20 9
3 61 20 60
3 61 0 20
3 200 6 201
3 29 202 204
3 204 203 12
3 202 203 204
3 62 205 207
3 207 206 29
3 205 206 207
3 62 208 210
3 208 6 209
3 208 209 210
3 62 42 6
3 63 42 62
3 63 3 42
3 43 30 1
3 64 30 43
3 64 16 30
3 32 64 7
3 65 64 32
3 65 16 64
3 65 63 16
3 66 63 65
3 66 3 63
3 66 27 3
3 67 27 66
3 67 15 27
3 34 67 17
3 68 67 34
3 68 15 67
3 68 61 15
3 69 61 68
3 69 0 61
3 69 211 213
3 213 212 0
3 211 212 213
3 70 214 216
3 216 215 69
3 214 215 216
3 70 217 218
3 36 70 18
3 219 70 220
3 221 220 36
3 219 220 221
3 223 222 70
3 47 37 4
3 71 37 47
3 71 19 37
3 224 71 225
3 226 225 8
3 224 225 226
3 227 71 228
3 229 19 230
3 231 230 71
3 229 230 231
3 233 232 19
3 50 38 2
3 72 38 50
3 72 234 236
3 236 235 38
3 234 235 236
3 40 72 10
3 237 72 238
3 239 238 40
3 237 238 239
3 241 240 72
3 55 22 0
3 73 22 55
3 73 11 22
3 242 73 243
3 244 73 245
3 246 11 247
3 248 247 73
3 246 247 248
3 249 53 250
3 251 250 11
3 249 250 251
3 252 53 253
3 254 5 255
3 256 255 53
3 254 255 256
3 257 5 258
3 260 259 5
