ply
format ascii 1.0
element vertex 586
property float x
property float y
property float z
element face 688
property list uchar int vertex_index
end_header
23.383583 -61.577183 -10.088602
24.92609 -100.037758 -20.229496
24.818962 -79.691856 -13.258354
22.637928 -62.316193 -15.783028
26.487488 -90.444237 -15.990846
24.322453 -82.119453 -21.67474
23.773378 -92.018265 -26.208733
18.276472 -105.967598 -24.5306
18.892061 -98.976685 -30.916515
23.079554 -69.604469 -11.6112
24.847425 -74.550476 -4.774733
26.631023 -85.29509 -5.963315
26.934315 -95.853271 -8.393005
23.142195 -104.366394 -12.520055
14.941969 -107.783859 -16.144697
22.973444 -71.862831 -18.526463
21.651636 -70.981628 -25.821669
23.457077 -57.933525 -13.914347
22.974499 -61.984226 -12.706267
26.274145 -95.402832 -17.99958
25.596479 -91.889832 -21.205015
24.640099 -96.555099 -23.492872
24.324377 -69.629898 -4.588876
26.478859 -81.894333 -1.079211
27.026905 -87.196182 -1.725302
27.163862 -90.702621 -7.055215
19.496836 -106.79863 -14.569916
23.785191 -74.527031 -12.193254
23.01053 -71.058464 -14.940533
23.841936 -76.165886 -16.041286
23.17131 -82.189667 -25.923258
23.034094 -77.107491 -23.987877
25.891626 -85.159317 -14.361892
24.79644 -81.357147 -17.443401
25.498833 -86.598953 -19.195702
24.453213 -87.295349 -23.877806
22.505613 -86.552544 -28.261347
22.277687 -103.571602 -22.544117
22.422377 -100.465149 -25.781202
19.093189 -103.11158 -27.829737
22.976645 -65.243835 -10.817216
23.482004 -67.64077 -8.117467
23.874666 -72.334259 -8.446026
24.722569 -77.336357 -9.134855
25.724329 -79.940361 -5.375464
25.792233 -82.600449 -9.825167
26.707603 -88.163063 -11.018839
26.991951 -93.527588 -12.454642
26.320213 -98.535095 -14.314841
25.665848 -100.558197 -10.154267
24.42108 -102.791206 -16.447166
21.233299 -105.860313 -18.66185
16.937471 -107.568161 -20.446619
22.672415 -66.352478 -13.902068
22.536127 -66.991173 -17.153362
22.274584 -67.03492 -20.700199
23.684824 -76.913788 -19.951464
22.627277 -72.012764 -22.16721
21.933172 -96.032173 -28.613262
20.886423 -90.688004 -30.78466
23.366957 -60.128235 -11.846946
23.177967 -61.780106 -11.236647
25.77878 -97.833405 -19.022995
25.588938 -96.102707 -20.803358
24.935934 -98.263878 -21.820751
24.255747 -76.990784 -12.745765
23.779856 -75.282082 -14.137389
24.314659 -77.987106 -14.773687
22.446014 -79.288651 -26.878159
22.956499 -60.135403 -14.866322
23.223579 -57.65554 -15.511898
22.776293 -59.869919 -16.436302
26.256819 -87.833664 -15.236049
25.758171 -85.94075 -16.741385
26.05024 -88.586464 -17.584772
24.819696 -92.006485 -23.725983
25.107235 -89.637054 -22.48848
24.285315 -89.647827 -24.907574
23.597586 -87.086685 -26.113365
23.187029 -89.526337 -27.297705
20.431604 -104.984276 -23.481007
20.734703 -103.627914 -25.213091
18.623301 -104.671608 -26.434956
23.511276 -65.367371 -7.931517
23.858671 -66.205612 -6.30085
24.515278 -72.10173 -4.754565
24.040312 -71.059502 -6.577785
24.347418 -73.558434 -6.766995
24.253269 -74.808784 -8.765543
24.723906 -75.919601 -7.03142
26.532558 -83.583504 -3.498438
26.114813 -80.846474 -3.3057
26.176357 -82.481491 -5.580122
25.7642 -81.430748 -7.64863
26.260563 -83.990944 -7.807304
26.312401 -85.363281 -10.275331
26.678411 -86.687164 -8.497791
27.162439 -93.310249 -7.789117
27.127131 -92.087715 -9.596391
27.04854 -94.785172 -10.381851
26.797827 -96.099472 -13.346253
26.752047 -97.100227 -11.267365
24.541506 -102.64785 -11.375639
25.183088 -101.762085 -13.319915
23.931252 -103.660934 -14.399288
23.006205 -104.487144 -17.447533
22.433266 -105.173286 -15.510783
17.310493 -107.468399 -15.398019
18.415262 -107.327644 -17.437475
16.044741 -107.845985 -18.464344
14.37619 -107.895363 -21.248823
13.42686 -107.992859 -19.013405
22.962181 -67.42173 -11.192253
22.785126 -65.876648 -12.404061
22.829357 -68.121658 -12.884032
22.994762 -71.477303 -16.759771
22.749258 -69.250977 -16.155132
22.685596 -69.285141 -17.883476
22.422615 -66.839958 -18.945271
22.610788 -69.46579 -19.546381
24.646191 -81.977905 -19.592815
24.236 -79.307182 -18.96134
24.035446 -79.525429 -20.840357
22.349369 -74.245453 -24.971119
22.820606 -74.555046 -23.137064
22.252926 -71.824875 -23.977264
22.096279 -69.123871 -23.136951
21.619335 -68.585159 -24.901207
20.750521 -99.855156 -28.508131
22.35165 -98.340294 -27.162373
20.586288 -97.644356 -29.752237
19.698177 -92.53231 -31.953432
23.723703 -57.966259 -12.348875
23.179291 -60.051247 -13.277062
22.800505 -62.255161 -14.134405
26.477417 -92.897148 -17.07659
26.111721 -91.18853 -18.731955
25.981268 -93.780464 -19.729366
25.279114 -94.225632 -22.286333
24.331425 -94.36721 -24.793861
16.425116 -105.468903 -27.246523
24.76366 -70.509819 -2.801721
25.006351 -72.890556 -2.668801
26.794088 -84.540665 -1.237729
26.895561 -86.396889 -3.860899
26.962374 -87.95137 -6.546398
27.126305 -89.107498 -4.306539
27.188408 -91.813026 -5.017727
27.027109 -94.42112 -5.610729
21.422829 -105.772491 -13.576972
23.369423 -71.996368 -11.843823
23.025728 -70.452995 -13.304033
23.356945 -72.821869 -13.599148
23.373747 -73.548676 -15.503492
23.392805 -74.139633 -17.323059
23.827129 -82.248169 -23.88983
23.689411 -79.701042 -22.909239
23.129898 -79.455345 -24.970608
22.432802 -76.75029 -25.944645
18.52389 -96.644463 -32.170563
23.86274 -55.37154 -14.50018
23.5495 -55.040203 -16.135334
25.385006 -82.446083 -13.836744
24.879379 -80.742195 -15.280395
25.359591 -83.363365 -15.988868
25.191723 -83.933449 -18.254292
24.947195 -84.596085 -20.477362
25.684935 -89.328575 -20.071075
25.124239 -87.19249 -21.448473
24.471474 -84.773056 -22.745085
23.814219 -84.750809 -24.946613
22.931929 -84.334648 -27.057812
23.796885 -102.05513 -21.159481
23.879354 -100.399162 -22.955843
22.501827 -102.089134 -24.149933
20.865332 -101.896362 -26.907009
19.074936 -101.285568 -29.398853
16.819601 -103.935768 -28.989017
17.087143 -102.220505 -30.405256
17.01005 -100.263794 -31.79397
23.513058 -62.200848 -9.051748
23.142921 -63.137932 -10.427353
23.277359 -64.172218 -9.296519
23.187765 -66.468689 -9.515725
23.249338 -68.804237 -9.798018
23.862968 -68.596954 -6.472901
23.602764 -69.868744 -8.255421
23.451944 -71.060791 -10.032616
23.808937 -73.607468 -10.363334
24.27257 -76.097084 -10.665072
24.784079 -78.682365 -11.173794
25.47961 -73.995491 -0.738328
25.327175 -75.660332 -2.903433
25.724775 -78.361153 -3.117739
25.256466 -77.283737 -5.13819
25.235527 -78.676849 -7.304607
25.265337 -80.00486 -9.424381
25.306534 -81.199303 -11.668547
25.852554 -83.869362 -12.120321
26.337124 -86.743469 -12.783817
26.65601 -89.435318 -13.504561
26.98752 -89.356857 -8.984128
26.954466 -90.819214 -11.504936
26.798281 -92.006508 -14.297077
26.731493 -94.523392 -15.17169
26.386234 -97.052277 -16.242144
25.774025 -99.399857 -17.144178
26.455929 -98.28186 -9.258206
26.146322 -99.507339 -12.164742
25.544622 -100.791 -15.200022
24.821405 -101.476311 -18.31216
23.440439 -103.458214 -19.440237
21.866934 -104.903526 -20.552517
19.904066 -106.070992 -21.734905
20.569849 -106.426666 -16.545891
19.268938 -106.883797 -19.464859
17.777386 -106.945442 -22.409737
15.389393 -107.419662 -23.281807
22.905054 -63.702923 -11.866806
22.74095 -64.13974 -13.304108
22.608961 -64.471901 -14.905592
22.762991 -68.611504 -14.490761
22.595652 -66.713501 -15.548032
22.502085 -64.47168 -16.554726
22.38938 -64.559486 -18.143795
22.220098 -64.348541 -19.86335
24.324558 -78.733459 -16.800289
23.841221 -76.802422 -18.017645
23.309227 -74.348724 -19.263735
23.419891 -77.0495 -22.028513
23.147339 -74.629135 -21.235176
22.841238 -71.91671 -20.420378
22.410927 -69.385307 -21.413363
21.974867 -66.4216 -22.380699
23.744007 -98.67025 -24.539373
23.402798 -96.584869 -26.133774
23.055128 -94.144424 -27.335508
20.121916 -95.193756 -31.021931
21.447741 -93.571518 -29.784519
22.427111 -91.565109 -28.615395
21.87327 -88.848869 -29.47452
23.280775 -61.678645 -10.662624
23.390645 -60.930498 -10.832397
23.493453 -60.829037 -10.258375
22.560592 -62.2505 -16.618346
22.629775 -61.027363 -16.944983
22.70711 -61.093056 -16.109665
24.099894 -65.446872 -5.423094
23.931787 -65.020424 -6.252052
23.84185 -103.507122 -11.947847
24.137757 -102.918339 -10.331778
23.438102 -103.777611 -10.903986
21.303526 -69.466507 -26.293301
21.287375 -68.268272 -25.83307
21.635486 -69.783394 -25.361438
23.82805 -58.090426 -11.618339
24.073425 -56.957279 -11.788293
25.001685 -70.947715 -1.785328
24.94825 -69.705342 -1.769401
25.12303 -72.138084 -1.718867
24.885005 -71.700187 -2.735261
25.001685 -70.947715 -1.785328
26.910497 -85.868424 -1.481515
26.87139 -85.050488 -0.236297
26.987799 -86.378246 -0.480083
27.123638 -92.243404 -3.886704
27.164048 -90.94619 -3.571201
27.042988 -93.547451 -4.183205
27.107758 -93.117073 -5.314228
27.123638 -92.243404 -3.886704
22.03461 -76.466106 -26.884754
22.439408 -78.019471 -26.411402
22.041217 -77.735287 -27.35151
22.066185 -75.186135 -26.357501
22.03461 -76.466106 -26.884754
23.659909 -56.652533 -14.207263
23.992124 -55.551026 -13.708687
23.789293 -56.832018 -13.415771
23.250823 -56.20138 -16.660564
23.386539 -56.347871 -15.823616
23.087863 -57.509048 -16.348845
23.367953 -54.832838 -16.987835
23.250823 -56.20138 -16.660564
22.137039 -85.075603 -28.707016
22.350197 -83.966656 -28.105249
22.718771 -85.443596 -27.659579
15.702892 -104.261867 -29.317646
16.622358 -104.702336 -28.11777
15.50565 -105.028435 -28.446399
15.881624 -101.597428 -31.620048
15.879898 -102.536381 -30.910908
14.674378 -101.913303 -32.125699
15.843077 -100.619072 -32.314405
17.048597 -101.24215 -31.099613
15.881624 -101.597428 -31.620048
15.85176 -99.565132 -32.898229
15.843077 -100.619072 -32.314405
23.495382 -63.646849 -8.502948
23.395209 -63.186533 -9.174133
23.613232 -62.661164 -8.380562
24.093672 -69.113426 -5.530888
24.056719 -67.92321 -5.518721
24.287424 -68.439682 -4.576709
25.635901 -75.283734 -0.735285
25.700774 -74.36607 0.382709
25.559683 -76.116154 -1.817837
25.403393 -74.827911 -1.820881
25.635901 -75.283734 -0.735285
26.298316 -80.562455 -1.05926
26.469269 -80.931984 0.114376
25.81577 -99.867065 -8.66674
25.354923 -100.890225 -9.133664
26.060889 -99.420029 -9.706236
26.210811 -98.728897 -8.21871
25.81577 -99.867065 -8.66674
13.612435 -107.721802 -22.639429
13.140165 -107.872002 -21.62566
23.613232 -62.661164 -8.380562
23.779518 -61.539174 -8.357589
22.118814 -65.543259 -21.129177
22.091572 -64.200069 -20.710752
22.247341 -65.691731 -20.281775
21.764002 -66.198875 -23.249956
22.035573 -67.772735 -22.758825
21.824708 -67.550011 -23.628082
21.774146 -64.949995 -22.831783
21.764002 -66.198875 -23.249956
19.132878 -94.596337 -32.103608
19.322903 -95.919109 -31.596247
18.333866 -95.32169 -32.677924
23.48514 -60.104563 -11.137547
23.649677 -59.171413 -11.367374
23.272462 -60.954171 -11.541797
23.48514 -60.104563 -11.137547
23.390645 -60.930498 -10.832397
27.045564 -87.762123 -0.660503
26.987799 -86.378246 -0.480083
27.083296 -88.637767 -1.924989
27.045564 -87.762123 -0.660503
22.323119 -80.343502 -27.430577
22.808662 -80.739159 -26.400709
22.685767 -81.79401 -26.953127
21.944971 -78.843933 -27.840691
22.323119 -80.343502 -27.430577
22.041217 -77.735287 -27.35151
21.944971 -78.843933 -27.840691
22.86422 -58.616237 -16.811048
23.087863 -57.509048 -16.348845
22.999936 -58.76273 -15.9741
22.658418 -59.752058 -17.294096
22.86422 -58.616237 -16.811048
22.658418 -59.752058 -17.294096
22.629775 -61.027363 -16.944983
23.758089 -64.601304 -7.067385
23.612341 -64.244425 -7.820447
23.684973 -65.786492 -7.116183
23.758089 -64.601304 -7.067385
23.931787 -65.020424 -6.252052
24.792752 -101.935051 -9.74435
24.137757 -102.918339 -10.331778
25.103677 -101.603024 -10.764953
25.354923 -100.890225 -9.133664
24.792752 -101.935051 -9.74435
12.665499 -107.920749 -20.507951
13.140165 -107.872002 -21.62566
13.901525 -107.944111 -20.131114
21.586236 -67.280655 -24.51021
21.824708 -67.550011 -23.628082
21.857807 -68.854515 -24.019079
21.283414 -66.972561 -25.427639
21.586236 -67.280655 -24.51021
21.283414 -66.972561 -25.427639
21.287375 -68.268272 -25.83307
18.72935 -91.834694 -32.949652
18.921009 -93.265614 -32.569358
19.426645 -91.05764 -32.362744
18.72935 -91.834694 -32.949652
18.457818 -90.360024 -33.358965
20.020768 -90.135487 -31.778358
20.2923 -91.610157 -31.369046
19.426645 -91.05764 -32.362744
20.622441 -89.304696 -31.132745
20.020768 -90.135487 -31.778358
23.922605 -56.848385 -12.633035
24.073425 -56.957279 -11.788293
23.59039 -57.949892 -13.131611
23.789293 -56.832018 -13.415771
23.922605 -56.848385 -12.633035
23.54533 -59.047247 -12.097911
23.82805 -58.090426 -11.618339
23.649677 -59.171413 -11.367374
16.226415 -106.015823 -26.330284
17.350794 -105.71825 -25.888562
17.152093 -106.265171 -24.972323
15.190883 -105.706898 -27.591639
16.226415 -106.015823 -26.330284
15.50565 -105.028435 -28.446399
15.190883 -105.706898 -27.591639
24.512901 -68.767162 -3.60427
24.287424 -68.439682 -4.576709
24.732543 -69.207123 -2.710693
24.94825 -69.705342 -1.769401
24.544018 -70.069858 -3.695298
24.512901 -68.767162 -3.60427
24.732543 -69.207123 -2.710693
26.604482 -82.320236 0.036159
26.469269 -80.931984 0.114376
26.762097 -83.643403 -0.0431
26.839399 -84.153225 0.958333
26.87139 -85.050488 -0.236297
26.636474 -83.217499 -1.15847
26.604482 -82.320236 0.036159
26.762097 -83.643403 -0.0431
27.132996 -89.593425 -3.215607
27.076605 -88.15184 -3.015921
27.083296 -88.637767 -1.924989
27.157356 -90.460262 -4.662133
27.132996 -89.593425 -3.215607
27.164048 -90.94619 -3.571201
22.713217 -104.504619 -11.397479
23.438102 -103.777611 -10.903986
21.853534 -105.207668 -11.925937
22.282512 -105.069443 -13.048513
22.713217 -104.504619 -11.397479
20.96025 -105.824146 -12.483539
21.853534 -105.207668 -11.925937
19.997253 -106.337215 -12.980011
20.459832 -106.285561 -14.073444
20.96025 -105.824146 -12.483539
18.941527 -106.774731 -13.445124
19.997253 -106.337215 -12.980011
17.848356 -107.109616 -13.859176
18.403664 -107.133515 -14.983967
18.941527 -106.774731 -13.445124
16.688617 -107.358895 -14.285664
17.848356 -107.109616 -13.859176
15.504356 -107.516625 -14.659003
16.126231 -107.626129 -15.771358
16.688617 -107.358895 -14.285664
22.024468 -73.933716 -25.870738
22.391085 -75.497872 -25.457882
22.066185 -75.186135 -26.357501
21.675602 -72.301804 -26.296013
22.000502 -72.61354 -25.396394
22.024468 -73.933716 -25.870738
21.269883 -70.631362 -26.76902
21.675602 -72.301804 -26.296013
17.596762 -97.267384 -32.678925
18.707976 -97.810574 -31.543539
17.780848 -98.433495 -32.051901
17.47868 -95.919148 -33.209183
17.596762 -97.267384 -32.678925
18.333866 -95.32169 -32.677924
17.47868 -95.919148 -33.209183
24.266038 -54.229754 -13.923825
23.992124 -55.551026 -13.708687
24.092228 -54.032341 -14.76397
24.266038 -54.229754 -13.923825
23.935608 -53.866672 -15.581547
24.092228 -54.032341 -14.76397
23.70612 -55.205872 -15.317757
23.718385 -53.669914 -16.471462
23.935608 -53.866672 -15.581547
23.718385 -53.669914 -16.471462
23.367953 -54.832838 -16.987835
22.566077 -82.866501 -27.520404
22.685767 -81.79401 -26.953127
23.05162 -83.262158 -26.490535
22.566077 -82.866501 -27.520404
22.350197 -83.966656 -28.105249
15.746126 -103.394013 -30.202788
15.702892 -104.261867 -29.317646
16.953372 -103.078136 -29.697136
15.746126 -103.394013 -30.202788
15.879898 -102.536381 -30.910908
16.839842 -99.07705 -32.490628
17.780848 -98.433495 -32.051901
17.951056 -99.620239 -31.355243
16.839842 -99.07705 -32.490628
15.85176 -99.565132 -32.898229
23.394317 -64.769795 -8.614018
23.495382 -63.646849 -8.502948
23.612341 -64.244425 -7.820447
24.054571 -66.727539 -5.432695
24.099894 -65.446872 -5.423094
23.860819 -67.401283 -6.386876
24.054571 -66.727539 -5.432695
24.056719 -67.92321 -5.518721
25.589316 -73.110119 0.316456
25.700774 -74.36607 0.382709
25.35966 -72.690551 -0.753631
25.589316 -73.110119 0.316456
25.242981 -73.443024 -1.703565
25.12303 -72.138084 -1.718867
25.35966 -72.690551 -0.753631
26.116293 -80.038525 -2.172505
26.298316 -80.562455 -1.05926
26.296836 -81.370404 -2.192455
25.921274 -78.795864 -2.078524
26.116293 -80.038525 -2.172505
25.919794 -79.603814 -3.21172
25.758484 -77.466565 -1.92499
25.921274 -78.795864 -2.078524
25.525975 -77.010742 -3.010586
25.559683 -76.116154 -1.817837
25.758484 -77.466565 -1.92499
26.880161 -94.78846 -4.446583
27.042988 -93.547451 -4.183205
26.832114 -95.647797 -6.036185
26.880161 -94.78846 -4.446583
26.785717 -96.363873 -7.427323
26.980712 -95.137196 -7.001867
26.832114 -95.647797 -6.036185
26.546524 -97.578167 -7.859923
26.210811 -98.728897 -8.21871
26.695122 -97.067566 -8.825605
26.785717 -96.363873 -7.427323
26.546524 -97.578167 -7.859923
16.90255 -106.754093 -23.911891
17.152093 -106.265171 -24.972323
18.026929 -106.45652 -23.470168
15.708554 -106.991203 -24.347926
16.90255 -106.754093 -23.911891
16.583389 -107.182552 -22.845772
14.458882 -107.179668 -24.601318
15.708554 -106.991203 -24.347926
14.119036 -107.483952 -23.655921
14.882791 -107.657512 -22.265315
13.612435 -107.721802 -22.639429
14.458882 -107.179668 -24.601318
14.119036 -107.483952 -23.655921
14.244303 -107.586666 -15.070504
15.504356 -107.516625 -14.659003
13.57465 -107.762325 -16.487656
14.244303 -107.586666 -15.070504
12.817096 -107.866825 -17.92201
14.184414 -107.888359 -17.579051
13.57465 -107.762325 -16.487656
12.124059 -107.895798 -19.348132
12.817096 -107.866825 -17.92201
11.514294 -107.769764 -18.256737
12.665499 -107.920749 -20.507951
12.124059 -107.895798 -19.348132
23.660809 -61.284172 -9.079311
23.779518 -61.539174 -8.357589
23.448321 -61.889015 -9.570175
23.596072 -60.97234 -9.597738
23.660809 -61.284172 -9.079311
23.596072 -60.97234 -9.597738
23.493453 -60.829037 -10.258375
22.492671 -63.328243 -17.004194
22.560592 -62.2505 -16.618346
22.570006 -63.393937 -16.168877
22.436318 -63.372146 -17.798729
22.492671 -63.328243 -17.004194
22.445732 -64.515583 -17.34926
22.342681 -63.238007 -18.625478
22.436318 -63.372146 -17.798729
22.25804 -63.132534 -19.485256
22.342681 -63.238007 -18.625478
22.304739 -64.454014 -19.003573
22.124116 -63.008834 -20.344335
22.25804 -63.132534 -19.485256
22.124116 -63.008834 -20.344335
22.091572 -64.200069 -20.710752
21.968956 -65.236599 -21.969427
22.118814 -65.543259 -21.129177
22.124726 -66.72826 -21.540449
21.768235 -63.764994 -22.420511
21.968956 -65.236599 -21.969427
21.774146 -64.949995 -22.831783
21.303526 -69.466507 -26.293301
21.269883 -70.631362 -26.76902
19.910046 -93.863033 -31.487682
19.132878 -94.596337 -32.103608
18.921009 -93.265614 -32.569358
21.115865 -88.385128 -30.477674
21.379846 -89.768437 -30.12959
20.622441 -89.304696 -31.132745
21.49196 -87.359985 -29.940553
21.115865 -88.385128 -30.477674
21.808131 -86.211822 -29.333967
22.189442 -87.700706 -28.867933
21.49196 -87.359985 -29.940553
22.137039 -85.075603 -28.707016
21.808131 -86.211822 -29.333967
3 0 241 243
3 241 61 242
3 241 242 243
3 1 64 62
3 2 67 65
3 3 71 69
3 3 244 246
3 246 245 71
3 244 245 246
3 4 74 72
3 6 77 75
3 6 79 77
3 7 82 80
3 247 84 248
3 10 87 85
3 10 89 87
3 11 92 90
3 11 94 92
3 11 96 94
3 12 99 97
3 12 101 99
3 13 249 251
3 249 102 250
3 249 250 251
3 13 104 102
3 13 106 104
3 14 109 107
3 14 111 109
3 9 114 112
3 15 117 115
3 15 119 117
3 5 122 120
3 16 125 123
3 16 127 125
3 16 252 254
3 254 253 127
3 252 253 254
3 8 130 128
3 255 132 256
3 18 133 60
3 18 134 133
3 19 137 135
3 21 138 63
3 21 139 138
3 257 141 258
3 259 142 260
3 261 260 141
3 259 260 261
3 24 262 264
3 262 143 263
3 262 263 264
3 24 144 143
3 24 146 144
3 265 147 266
3 267 148 268
3 269 268 147
3 267 268 269
3 27 152 150
3 29 153 66
3 29 154 153
3 30 157 155
3 270 158 271
3 272 271 68
3 270 271 272
3 274 273 158
3 17 275 277
3 275 160 276
3 275 276 277
3 278 161 279
3 280 279 70
3 278 279 280
3 282 281 161
3 32 164 162
3 34 165 73
3 34 166 165
3 20 167 136
3 35 168 76
3 35 169 168
3 35 170 169
3 36 171 78
3 36 283 285
3 285 284 171
3 283 284 285
3 37 174 172
3 39 175 81
3 39 176 175
3 286 177 287
3 288 287 140
3 286 287 288
3 289 178 290
3 289 290 291
3 292 179 293
3 294 293 178
3 292 293 294
3 296 295 179
3 297 182 298
3 299 298 180
3 297 298 299
3 41 183 83
3 41 184 183
3 22 300 302
3 300 185 301
3 300 301 302
3 42 186 86
3 42 187 186
3 42 188 187
3 43 189 88
3 43 190 189
3 303 191 304
3 305 192 306
3 307 306 191
3 305 306 307
3 23 308 309
3 44 193 91
3 44 194 193
3 44 195 194
3 45 196 93
3 45 197 196
3 45 198 197
3 46 199 95
3 46 200 199
3 25 201 145
3 47 202 98
3 47 203 202
3 47 204 203
3 48 205 100
3 48 206 205
3 49 310 311
3 49 312 314
3 312 207 313
3 312 313 314
3 49 208 207
3 50 209 103
3 50 210 209
3 50 211 210
3 51 212 105
3 51 213 212
3 26 214 149
3 52 215 108
3 52 216 215
3 52 217 216
3 316 315 110
3 317 180 318
3 40 218 181
3 53 219 113
3 53 220 219
3 28 221 151
3 54 222 116
3 54 223 222
3 54 224 223
3 55 225 118
3 55 319 321
3 321 320 225
3 319 320 321
3 33 226 163
3 56 227 121
3 56 228 227
3 31 229 156
3 57 230 124
3 57 231 230
3 57 232 231
3 322 233 323
3 324 323 126
3 322 323 324
3 326 325 233
3 38 234 173
3 58 235 129
3 58 236 235
3 327 237 328
3 329 328 159
3 327 328 329
3 59 238 131
3 59 239 238
3 59 240 239
3 330 60 331
3 61 332 334
3 332 60 333
3 332 333 334
3 61 18 60
3 62 63 19
3 64 63 62
3 64 21 63
3 335 24 336
3 338 337 24
3 65 66 27
3 67 66 65
3 67 29 66
3 339 68 340
3 341 340 30
3 339 340 341
3 342 68 343
3 345 344 68
3 69 70 17
3 71 70 69
3 71 346 348
3 348 347 70
3 346 347 348
3 71 349 350
3 352 351 71
3 72 73 32
3 74 73 72
3 74 34 73
3 75 76 20
3 77 76 75
3 77 35 76
3 77 78 35
3 79 78 77
3 79 36 78
3 80 81 37
3 82 81 80
3 82 39 81
3 353 83 354
3 84 355 357
3 355 83 356
3 355 356 357
3 84 41 83
3 85 86 22
3 87 86 85
3 87 42 86
3 87 88 42
3 89 88 87
3 89 43 88
3 90 91 23
3 92 91 90
3 92 44 91
3 92 93 44
3 94 93 92
3 94 45 93
3 94 95 45
3 96 95 94
3 96 46 95
3 97 98 25
3 99 98 97
3 99 47 98
3 99 100 47
3 101 100 99
3 101 48 100
3 102 358 359
3 102 360 362
3 360 49 361
3 360 361 362
3 102 103 49
3 104 103 102
3 104 50 103
3 104 105 50
3 106 105 104
3 106 51 105
3 107 108 26
3 109 108 107
3 109 52 108
3 109 110 52
3 111 110 109
3 111 363 365
3 365 364 110
3 363 364 365
3 112 113 40
3 114 113 112
3 114 53 113
3 115 116 28
3 117 116 115
3 117 54 116
3 117 118 54
3 119 118 117
3 119 55 118
3 120 121 33
3 122 121 120
3 122 56 121
3 123 124 31
3 125 124 123
3 125 57 124
3 125 126 57
3 127 126 125
3 127 366 368
3 368 367 126
3 366 367 368
3 127 369 370
3 372 371 127
3 128 129 38
3 130 129 128
3 130 58 129
3 373 131 374
3 375 131 376
3 375 376 377
3 378 59 379
3 380 379 131
3 378 379 380
3 382 381 59
3 132 383 384
3 132 385 387
3 385 17 386
3 385 386 387
3 60 388 390
3 388 132 389
3 388 389 390
3 133 132 60
3 133 17 132
3 133 69 17
3 134 69 133
3 134 3 69
3 135 136 4
3 137 136 135
3 137 20 136
3 63 137 19
3 138 137 63
3 138 20 137
3 138 75 20
3 139 75 138
3 139 6 75
3 391 140 392
3 393 392 7
3 391 392 393
3 394 140 395
3 397 396 140
3 398 22 399
3 141 400 401
3 141 402 404
3 402 22 403
3 402 403 404
3 141 85 22
3 142 85 141
3 142 10 85
3 405 23 406
3 143 407 409
3 407 408 409
3 143 410 412
3 410 23 411
3 410 411 412
3 143 90 23
3 144 90 143
3 144 11 90
3 144 145 11
3 146 145 144
3 146 25 145
3 413 146 414
3 415 414 24
3 413 414 415
3 147 416 418
3 416 146 417
3 416 417 418
3 147 25 146
3 147 97 25
3 148 97 147
3 148 12 97
3 419 13 420
3 421 149 422
3 423 422 13
3 421 422 423
3 424 149 425
3 426 26 427
3 428 427 149
3 426 427 428
3 429 26 430
3 431 107 432
3 433 432 26
3 431 432 433
3 434 107 435
3 436 14 437
3 438 437 107
3 436 437 438
3 150 151 9
3 152 151 150
3 152 28 151
3 66 152 27
3 153 152 66
3 153 28 152
3 153 115 28
3 154 115 153
3 154 15 115
3 155 156 5
3 157 156 155
3 157 31 156
3 68 157 30
3 158 157 68
3 158 31 157
3 158 123 31
3 439 123 440
3 441 440 158
3 439 440 441
3 442 16 443
3 444 443 123
3 442 443 444
3 446 445 16
3 447 159 448
3 449 448 8
3 447 448 449
3 450 159 451
3 453 452 159
3 160 454 455
3 160 456 457
3 70 160 17
3 161 160 70
3 161 458 460
3 460 459 160
3 458 459 460
3 161 461 462
3 464 463 161
3 162 163 2
3 164 163 162
3 164 33 163
3 73 164 32
3 165 164 73
3 165 33 164
3 165 120 33
3 166 120 165
3 166 5 120
3 136 74 4
3 167 74 136
3 167 34 74
3 76 167 20
3 168 167 76
3 168 34 167
3 168 166 34
3 169 166 168
3 169 5 166
3 169 155 5
3 170 155 169
3 170 30 155
3 78 170 35
3 171 170 78
3 171 30 170
3 171 465 467
3 467 466 30
3 465 466 467
3 469 468 171
3 172 173 1
3 174 173 172
3 174 38 173
3 81 174 37
3 175 174 81
3 175 38 174
3 175 128 38
3 176 128 175
3 176 8 128
3 140 82 7
3 177 82 140
3 177 39 82
3 470 177 471
3 178 472 474
3 472 177 473
3 472 473 474
3 178 39 177
3 178 176 39
3 179 176 178
3 179 8 176
3 179 475 477
3 477 476 8
3 475 476 477
3 479 478 179
3 180 181 0
3 182 181 180
3 182 40 181
3 83 480 482
3 480 182 481
3 480 481 482
3 183 182 83
3 183 40 182
3 183 112 40
3 184 112 183
3 184 9 112
3 483 84 484
3 185 485 487
3 485 84 486
3 485 486 487
3 185 41 84
3 86 185 22
3 186 185 86
3 186 41 185
3 186 184 41
3 187 184 186
3 187 9 184
3 187 150 9
3 188 150 187
3 188 27 150
3 88 188 42
3 189 188 88
3 189 27 188
3 189 65 27
3 190 65 189
3 190 2 65
3 191 488 489
3 191 490 491
3 191 492 494
3 492 142 493
3 492 493 494
3 192 142 191
3 192 10 142
3 91 495 497
3 497 496 23
3 495 496 497
3 193 498 500
3 500 499 91
3 498 499 500
3 193 501 502
3 193 503 505
3 503 192 504
3 503 504 505
3 194 192 193
3 194 10 192
3 194 89 10
3 195 89 194
3 195 43 89
3 93 195 44
3 196 195 93
3 196 43 195
3 196 190 43
3 197 190 196
3 197 2 190
3 197 162 2
3 198 162 197
3 198 32 162
3 95 198 45
3 199 198 95
3 199 32 198
3 199 72 32
3 200 72 199
3 200 4 72
3 145 96 11
3 201 96 145
3 201 46 96
3 98 201 25
3 202 201 98
3 202 46 201
3 202 200 46
3 203 200 202
3 203 4 200
3 203 135 4
3 204 135 203
3 204 19 135
3 100 204 47
3 205 204 100
3 205 19 204
3 205 62 19
3 206 62 205
3 206 1 62
3 506 148 507
3 508 148 509
3 510 12 511
3 512 511 148
3 510 511 512
3 207 513 514
3 207 515 517
3 515 12 516
3 515 516 517
3 207 101 12
3 208 101 207
3 208 48 101
3 103 208 49
3 209 208 103
3 209 48 208
3 209 206 48
3 210 206 209
3 210 1 206
3 210 172 1
3 211 172 210
3 211 37 172
3 105 211 50
3 212 211 105
3 212 37 211
3 212 80 37
3 213 80 212
3 213 7 80
3 149 106 13
3 214 106 149
3 214 51 106
3 108 214 26
3 215 214 108
3 215 51 214
3 215 213 51
3 216 213 215
3 216 7 213
3 216 518 520
3 520 519 7
3 518 519 520
3 217 521 523
3 523 522 216
3 521 522 523
3 217 524 525
3 110 217 52
3 526 217 527
3 528 527 110
3 526 527 528
3 530 529 217
3 531 14 532
3 533 14 534
3 535 111 536
3 537 536 14
3 535 536 537
3 538 111 539
3 538 539 540
3 542 541 111
3 180 543 544
3 180 545 547
3 545 0 546
3 545 546 547
3 548 0 549
3 181 61 0
3 218 61 181
3 218 18 61
3 113 218 40
3 219 218 113
3 219 18 218
3 219 134 18
3 220 134 219
3 220 3 134
3 151 114 9
3 221 114 151
3 221 53 114
3 116 221 28
3 222 221 116
3 222 53 221
3 222 220 53
3 223 220 222
3 223 3 220
3 223 550 552
3 552 551 3
3 550 551 552
3 224 553 555
3 555 554 223
3 553 554 555
3 224 556 557
3 118 224 54
3 225 224 118
3 225 558 560
3 560 559 224
3 558 559 560
3 225 561 562
3 564 563 225
3 163 67 2
3 226 67 163
3 226 29 67
3 121 226 33
3 227 226 121
3 227 29 226
3 227 154 29
3 228 154 227
3 228 15 154
3 156 122 5
3 229 122 156
3 229 56 122
3 124 229 31
3 230 229 124
3 230 56 229
3 230 228 56
3 231 228 230
3 231 15 228
3 231 119 15
3 232 119 231
3 232 55 119
3 126 232 57
3 233 232 126
3 233 55 232
3 233 565 567
3 567 566 55
3 565 566 567
3 570 569 233
3 568 569 570
3 572 571 16
3 173 64 1
3 234 64 173
3 234 21 64
3 129 234 38
3 235 234 129
3 235 21 234
3 235 139 21
3 236 139 235
3 236 6 139
3 159 130 8
3 237 130 159
3 237 58 130
3 131 573 575
3 573 237 574
3 573 574 575
3 238 237 131
3 238 58 237
3 238 236 58
3 239 236 238
3 239 6 236
3 239 79 6
3 240 79 239
3 240 36 79
3 576 240 577
3 578 577 59
3 576 577 578
3 579 240 580
3 581 36 582
3 583 582 240
3 581 582 583
3 585 584 36
