ply
format ascii 1.0
element vertex 146
property float x
property float y
property float z
element face 130
property list uchar int vertex_index
end_header
-16.575109 -62.446892 -32.293568
-14.979403 -49.184036 -32.005592
-12.360336 -43.123436 -34.952835
-13.646776 -55.960278 -35.294994
-14.111869 -62.310497 -35.530373
-10.865894 -55.092682 -38.526669
-18.286215 -61.740097 -29.058355
-15.778894 -55.703659 -32.100464
-12.905939 -49.157032 -35.200829
-12.212186 -52.471405 -36.671833
-12.287104 -55.396145 -36.939537
-19.333326 -64.218704 -27.509958
-18.892067 -60.979908 -27.40773
-16.19173 -52.327755 -30.584137
-16.595594 -55.446129 -30.604361
-15.362678 -52.463013 -32.058372
-14.340109 -52.360714 -33.6735
-13.970863 -49.172031 -33.610291
-13.718508 -46.249756 -33.451618
-15.145644 -59.127144 -33.76886
-15.379721 -62.259693 -33.958847
-13.839079 -58.964676 -35.468739
-12.401284 -58.601009 -37.116325
-18.722483 -64.865105 -29.108154
-17.431574 -61.931854 -30.771881
-17.802464 -58.348122 -29.027931
-17.100025 -58.796234 -30.554188
-16.119091 -58.921116 -32.268578
-14.754063 -55.711182 -33.705235
-13.321709 -52.480186 -35.183395
-11.812364 -49.03389 -36.709999
-12.603438 -46.142879 -35.109131
-16.693549 -64.070202 -32.417868
-17.219704 -63.864612 -31.556042
-11.478041 -52.156796 -37.539701
-11.436199 -50.67893 -37.436859
-19.115836 -60.504698 -26.648322
-19.343519 -62.135365 -26.641512
-15.585566 -50.755896 -31.294864
-16.046506 -50.793314 -30.528793
-15.440342 -49.221455 -31.239521
-10.912529 -56.833617 -38.568585
-11.680224 -58.58778 -37.863413
-11.633589 -56.846846 -37.821497
-17.577628 -56.787503 -29.051832
-18.086118 -57.952956 -28.279514
-14.840989 -64.059614 -34.863623
-15.474915 -64.034212 -34.07786
-14.745795 -62.285095 -34.74461
-11.5155 -53.619165 -37.673553
-12.249645 -53.933775 -36.805685
-11.478041 -52.156796 -37.539701
-10.804894 -53.467434 -38.467119
-11.576499 -55.244414 -37.733103
-11.5155 -53.619165 -37.673553
-19.564148 -63.754762 -26.692626
-19.793534 -65.369278 -26.733551
-19.112696 -62.599306 -27.458844
-19.564148 -63.754762 -26.692626
-19.343519 -62.135365 -26.641512
-16.572978 -52.135035 -29.838014
-16.046506 -50.793314 -30.528793
-16.772261 -53.777319 -29.829935
-16.572978 -52.135035 -29.838014
-16.393662 -53.886942 -30.594249
-16.974193 -55.336506 -29.840047
-16.772261 -53.777319 -29.829935
-11.818776 -43.046438 -35.725856
-11.721376 -41.507318 -35.630163
-13.323296 -63.808186 -36.516253
-14.092676 -63.901674 -35.692995
-13.342489 -62.217008 -36.35363
-14.82415 -47.646062 -31.980033
-15.440342 -49.221455 -31.239521
-14.193703 -46.178922 -32.703046
-14.348955 -47.716896 -32.728605
-14.82415 -47.646062 -31.980033
-13.549786 -44.656269 -33.4468
-14.193703 -46.178922 -32.703046
-12.8707 -43.093109 -34.197409
-13.039422 -44.686596 -34.202227
-13.549786 -44.656269 -33.4468
-12.247987 -41.58239 -34.890627
-12.8707 -43.093109 -34.197409
-11.721376 -41.507318 -35.630163
-12.247987 -41.58239 -34.890627
-12.487197 -60.362264 -37.146607
-13.342489 -62.217008 -36.35363
-13.256577 -60.455753 -36.323349
-12.487197 -60.362264 -37.146607
-11.680224 -58.58778 -37.863413
-10.09981 -53.191576 -39.231921
-10.804894 -53.467434 -38.467119
-10.105997 -54.893132 -39.284111
-10.09981 -53.191576 -39.231921
-9.339913 -52.992025 -39.989362
-10.912529 -56.833617 -38.568585
-10.105997 -54.893132 -39.284111
-19.565596 -65.816502 -27.52794
-19.793534 -65.369278 -26.733551
-19.260175 -66.139702 -28.327039
-19.565596 -65.816502 -27.52794
-19.027904 -64.541905 -28.309056
-18.930607 -66.477165 -29.148255
-19.260175 -66.139702 -28.327039
-18.293391 -65.073719 -29.963335
-18.930607 -66.477165 -29.148255
-17.647937 -63.607093 -30.795198
-18.293391 -65.073719 -29.963335
-18.077029 -63.39848 -29.940017
-17.003342 -62.189373 -31.532725
-17.219704 -63.864612 -31.556042
-17.647937 -63.607093 -30.795198
-18.63092 -59.268849 -27.469414
-19.115836 -60.504698 -26.648322
-18.347265 -59.664015 -28.21783
-18.63092 -59.268849 -27.469414
-18.086118 -57.952956 -28.279514
-17.199029 -56.897126 -29.816146
-17.577628 -56.787503 -29.051832
-16.974193 -55.336506 -29.840047
-11.236288 -48.960173 -37.455942
-11.436199 -50.67893 -37.436859
-12.012275 -50.752647 -36.690916
-11.940327 -44.556159 -35.804004
-12.481887 -44.633157 -35.030983
-11.818776 -43.046438 -35.725856
-12.065774 -46.023162 -35.861807
-11.940327 -44.556159 -35.804004
-12.217024 -47.530239 -35.907656
-12.754689 -47.649956 -35.15498
-12.065774 -46.023162 -35.861807
-11.670237 -47.468668 -36.662241
-12.359151 -49.095461 -35.955414
-12.217024 -47.530239 -35.907656
-11.124956 -47.395952 -37.399366
-11.670237 -47.468668 -36.662241
-11.236288 -48.960173 -37.455942
-11.124956 -47.395952 -37.399366
-16.095855 -63.976602 -33.250507
-16.693549 -64.070202 -32.417868
-15.977415 -62.353292 -33.126207
-16.095855 -63.976602 -33.250507
-15.474915 -64.034212 -34.07786
-14.840989 -64.059614 -34.863623
-14.092676 -63.901674 -35.692995
3 0 32 33
3 35 34 9
3 36 12 37
3 1 38 40
3 38 13 39
3 38 39 40
3 1 15 13
3 1 17 15
3 3 21 19
3 5 22 10
3 5 41 43
3 43 42 22
3 41 42 43
3 6 23 11
3 6 24 23
3 44 25 45
3 7 26 14
3 7 27 26
3 7 28 27
3 8 29 16
3 8 30 29
3 2 31 18
3 4 46 48
3 48 47 20
3 46 47 48
3 9 10 3
3 49 10 50
3 51 50 9
3 49 50 51
3 52 5 53
3 54 53 10
3 52 53 54
3 55 11 56
3 12 57 59
3 57 11 58
3 57 58 59
3 12 6 11
3 13 60 61
3 13 62 63
3 13 64 66
3 64 14 65
3 64 65 66
3 15 14 13
3 15 7 14
3 15 16 7
3 17 16 15
3 17 8 16
3 68 67 2
3 71 70 4
3 69 70 71
3 72 1 73
3 74 18 75
3 76 75 1
3 74 75 76
3 77 18 78
3 79 2 80
3 81 80 18
3 79 80 81
3 82 2 83
3 85 84 2
3 19 20 0
3 21 20 19
3 21 4 20
3 10 21 3
3 22 21 10
3 22 4 21
3 22 86 88
3 88 87 4
3 86 87 88
3 90 89 22
3 91 5 92
3 93 5 94
3 93 94 95
3 97 96 5
3 11 98 99
3 23 100 102
3 102 101 11
3 100 101 102
3 23 103 104
3 23 105 106
3 24 107 109
3 109 108 23
3 107 108 109
3 24 110 112
3 110 0 111
3 110 111 112
3 113 12 114
3 25 115 117
3 115 12 116
3 115 116 117
3 25 6 12
3 14 118 120
3 118 25 119
3 118 119 120
3 26 25 14
3 26 6 25
3 26 24 6
3 27 24 26
3 27 0 24
3 27 19 0
3 28 19 27
3 28 3 19
3 16 28 7
3 29 28 16
3 29 3 28
3 29 9 3
3 30 9 29
3 30 121 123
3 123 122 9
3 121 122 123
3 18 17 1
3 31 17 18
3 31 8 17
3 124 31 125
3 126 125 2
3 124 125 126
3 127 31 128
3 129 8 130
3 131 130 31
3 129 130 131
3 132 30 133
3 134 133 8
3 132 133 134
3 135 30 136
3 138 137 30
3 20 139 141
3 141 140 0
3 139 140 141
3 143 142 20
3 145 144 4
