ply
format ascii 1.0
element vertex 140
property float x
property float y
property float z
element face 120
property list uchar int vertex_index
end_header
-3.694092 32.370285 50.033188
4.077915 38.456913 52.145973
-10.45032 32.454414 45.575375
-6.765344 35.325352 46.970512
-2.851631 38.578918 47.936779
1.014585 41.88649 48.752083
0.105205 35.04467 51.168327
4.940448 45.613216 49.486328
-5.591647 30.604479 49.582253
-7.113036 32.193527 48.012016
-5.267342 33.714653 48.560066
-4.742188 36.960464 47.522144
-3.252731 35.471275 49.033482
-1.215314 37.012188 49.571491
-1.73673 33.693947 50.643253
2.627248 40.169594 50.500893
2.941888 43.63324 49.139252
4.38482 41.945068 50.807617
-3.982207 29.115671 51.122269
-2.128729 30.453552 51.705112
-10.01752 35.438282 44.686325
-9.00474 30.858402 47.244423
-8.599343 33.74041 46.407124
-8.270103 37.011707 45.258682
-6.29335 38.507889 45.893505
-0.85981 40.252407 48.365814
0.691017 38.509178 50.051971
2.140039 36.722668 51.685184
-4.140995 27.610626 51.57831
-4.956978 28.358542 50.800587
-3.230387 28.250501 51.897262
-4.140995 27.610626 51.57831
-11.102399 33.184477 44.766973
-11.312752 31.665665 45.190811
-10.23392 33.946348 45.13085
-10.885999 34.676411 44.322448
-11.102399 33.184477 44.766973
-8.206283 30.037608 48.093119
-9.135748 29.446085 47.660443
-3.63315 39.420223 47.09895
-4.578428 38.610996 46.891632
-3.796909 37.769691 47.729461
-2.617431 40.194763 47.350139
-3.63315 39.420223 47.09895
-1.85572 39.415662 48.151297
-1.62152 41.031508 47.564657
-2.617431 40.194763 47.350139
-1.149287 31.141287 52.007761
-1.381439 29.617499 52.471336
1.217163 43.495571 48.136584
0.271617 42.782951 47.895792
4.159043 46.377561 48.63084
3.159763 45.387574 48.457302
3.941168 44.623228 49.31279
5.160284 47.412598 48.774147
4.159043 46.377561 48.63084
-10.577676 30.918147 46.05339
-11.312752 31.665665 45.190811
-6.352341 31.399003 48.797134
-7.260431 30.705171 48.476915
-6.499736 29.910646 49.262034
-5.761698 29.102947 50.030579
-6.499736 29.910646 49.262034
-4.786927 29.860075 50.352261
-5.761698 29.102947 50.030579
-4.956978 28.358542 50.800587
-2.303648 28.919442 52.188684
-3.055468 29.784611 51.413691
-3.230387 28.250501 51.897262
-1.381439 29.617499 52.471336
-2.303648 28.919442 52.188684
4.964075 39.240025 52.370908
4.786333 37.462721 53.019369
-10.758558 36.164421 43.788258
-10.885999 34.676411 44.322448
-9.828819 36.997535 44.140232
-10.758558 36.164421 43.788258
-9.854886 30.120141 46.887914
-9.135748 29.446085 47.660443
-9.72753 31.656408 46.409899
-10.577676 30.918147 46.05339
-9.854886 30.120141 46.887914
-8.058888 31.525965 47.62822
-8.206283 30.037608 48.093119
-7.260431 30.705171 48.476915
-8.955111 37.784248 44.426411
-9.828819 36.997535 44.140232
-9.143811 36.224995 44.972504
-8.023972 38.654235 44.686786
-8.955111 37.784248 44.426411
-7.035595 39.402327 45.004198
-8.023972 38.654235 44.686786
-7.281727 37.759798 45.576093
-6.109877 40.065737 45.300461
-7.035595 39.402327 45.004198
-5.35401 39.384709 46.077312
-5.517769 37.734177 46.707825
-4.578428 38.610996 46.891632
-6.109877 40.065737 45.300461
-5.35401 39.384709 46.077312
-0.665581 41.96591 47.702658
-1.62152 41.031508 47.564657
0.077388 41.069449 48.558948
0.271617 42.782951 47.895792
-0.665581 41.96591 47.702658
-0.953288 32.761485 51.476832
-1.932729 32.073749 51.174183
-1.149287 31.141287 52.007761
-0.03232 33.436847 51.739368
-0.815763 34.369309 50.90579
-0.953288 32.761485 51.476832
0.905113 34.245764 51.972948
-0.03232 33.436847 51.739368
1.92253 35.084762 52.231376
1.122622 35.883669 51.426755
0.905113 34.245764 51.972948
2.898453 35.821951 52.52869
1.92253 35.084762 52.231376
3.867392 36.689073 52.759085
3.108977 37.58979 51.915578
2.898453 35.821951 52.52869
4.786333 37.462721 53.019369
3.867392 36.689073 52.759085
2.180814 44.368946 48.330168
1.217163 43.495571 48.136584
1.978236 42.759865 48.945667
2.180814 44.368946 48.330168
3.159763 45.387574 48.457302
5.117528 40.984102 51.70173
4.231368 40.200991 51.476795
4.964075 39.240025 52.370908
5.325539 42.722071 51.061906
5.117528 40.984102 51.70173
5.603353 44.556145 50.401262
4.662634 43.779142 50.146973
5.325539 42.722071 51.061906
5.87511 46.424875 49.714754
5.603353 44.556145 50.401262
5.160284 47.412598 48.774147
5.87511 46.424875 49.714754
3 0 10 8
3 0 12 10
3 0 14 12
3 1 17 15
3 28 18 29
3 31 30 18
3 2 32 33
3 2 34 36
3 34 20 35
3 34 35 36
3 37 21 38
3 3 22 9
3 3 23 22
3 3 24 23
3 4 39 41
3 41 40 11
3 39 40 41
3 4 42 43
3 4 44 46
3 44 25 45
3 44 45 46
3 6 26 13
3 6 27 26
3 48 47 19
3 5 49 50
3 7 51 53
3 53 52 16
3 51 52 53
3 7 54 55
3 56 2 57
3 8 58 60
3 58 9 59
3 58 59 60
3 10 9 8
3 10 3 9
3 10 11 3
3 12 11 10
3 12 4 11
3 12 13 4
3 14 13 12
3 14 6 13
3 15 16 5
3 17 16 15
3 17 7 16
3 61 8 62
3 18 63 65
3 63 8 64
3 63 64 65
3 18 0 8
3 18 19 0
3 66 19 67
3 68 67 18
3 66 67 68
3 70 69 19
3 72 71 1
3 20 73 74
3 20 75 76
3 21 77 78
3 21 79 81
3 79 2 80
3 79 80 81
3 9 82 84
3 82 21 83
3 82 83 84
3 22 21 9
3 22 2 21
3 22 20 2
3 23 20 22
3 23 85 87
3 87 86 20
3 85 86 87
3 23 88 89
3 24 90 92
3 92 91 23
3 90 91 92
3 24 93 94
3 11 24 3
3 95 24 96
3 97 96 11
3 95 96 97
3 99 98 24
3 25 100 101
3 25 102 104
3 102 5 103
3 102 103 104
3 13 25 4
3 26 25 13
3 26 5 25
3 26 15 5
3 27 15 26
3 27 1 15
3 19 14 0
3 105 14 106
3 107 106 19
3 105 106 107
3 108 6 109
3 110 109 14
3 108 109 110
3 111 6 112
3 113 27 114
3 115 114 6
3 113 114 115
3 116 27 117
3 118 1 119
3 120 119 27
3 118 119 120
3 122 121 1
3 16 123 125
3 125 124 5
3 123 124 125
3 127 126 16
3 128 17 129
3 130 129 1
3 128 129 130
3 131 17 132
3 133 7 134
3 135 134 17
3 133 134 135
3 136 7 137
3 139 138 7
