ply
format ascii 1.0
element vertex 228
property float x
property float y
property float z
element face 212
property list uchar int vertex_index
end_header
0.875525 56.505856 -48.405788
-2.205631 46.025127 -52.721394
4.265379 55.067822 -46.316799
2.547865 50.815121 -49.416855
5.678085 49.859959 -47.443665
-8.055686 51.529736 -52.235268
-2.77343 57.507832 -49.964939
-4.419386 51.644806 -51.651707
-0.663879 51.397968 -50.684605
1.197873 46.1502 -52.164555
8.445346 47.990509 -45.073193
2.83093 61.306297 -45.772587
5.962517 59.373276 -43.065521
7.50898 45.082863 -49.285118
5.707916 54.519516 -44.999008
5.001066 52.388859 -46.744396
6.41874 51.620022 -45.534763
-0.850833 56.864525 -49.247398
-1.838057 54.337364 -50.298935
-0.002713 53.951817 -49.62112
3.552162 48.393097 -50.027988
1.98478 48.49073 -50.779663
2.261515 64.489944 -45.584328
4.005712 63.462837 -44.282703
4.478739 60.499096 -44.448063
5.5135 62.447922 -42.923752
-3.271542 48.723854 -52.092716
-5.020429 48.700668 -52.323765
9.34791 45.623825 -45.851059
7.931114 46.618904 -47.215084
2.617516 55.982441 -47.386379
1.7049 53.487949 -48.858639
3.355834 53.122074 -47.871307
4.180923 50.422276 -48.486404
5.107872 47.787689 -49.309052
-4.744949 57.6731 -50.659588
-5.581295 54.71954 -51.36887
-3.641996 54.516178 -50.873699
-2.55652 51.512772 -51.238144
-1.411326 48.80175 -51.725319
0.962275 51.032234 -50.157211
0.283063 48.538754 -51.37915
-0.499456 46.1339 -52.50248
7.8072 50.463821 -44.219887
9.695312 46.759819 -43.682739
-1.803137 60.214417 -48.999966
0.073874 59.767139 -48.069016
1.025079 62.423561 -46.893536
1.821054 58.957714 -47.12318
3.532964 58.239052 -45.946468
5.017063 57.427269 -44.725395
6.521947 56.192669 -43.293571
6.948599 61.206802 -41.370113
-6.137774 51.605961 -51.96748
7.114876 49.111855 -46.24007
6.618838 47.388573 -48.193325
6.749045 52.419621 -44.643632
6.063328 53.069769 -45.266886
6.393633 53.869368 -44.375755
3.215172 47.321787 -50.801321
4.038407 47.13176 -50.530977
4.497516 64.526024 -43.619534
3.641903 65.117771 -44.320617
5.251411 64.018567 -42.940058
4.759606 62.955379 -43.603228
4.497516 64.526024 -43.619534
-3.026858 45.90826 -52.797373
-3.559814 47.257624 -52.483034
-2.738587 47.374491 -52.407055
9.149155 45.011444 -46.995115
9.81341 44.517542 -46.428671
-9.002464 51.51741 -52.324517
-8.714084 53.13769 -52.160297
-8.350145 49.881041 -52.430874
-9.002464 51.51741 -52.324517
0.874534 44.898395 -52.814787
0.02587 44.890245 -52.98375
0.349208 46.14205 -52.333517
10.224934 46.084749 -42.996759
9.860319 47.315712 -42.613798
10.141976 45.549335 -44.151579
10.224934 46.084749 -42.996759
-1.349743 61.580671 -48.498606
-2.353027 61.865416 -48.975861
-0.411238 61.357033 -48.033131
-0.864631 59.990778 -48.534491
-1.349743 61.580671 -48.498606
7.423761 62.108229 -40.562048
6.725959 62.787033 -41.409414
-5.897162 48.5167 -52.427044
-5.264883 47.065064 -52.645254
6.782472 45.340372 -49.744213
6.337401 46.493227 -49.198317
7.063909 46.235718 -48.739221
-7.759989 53.093256 -52.008617
-8.714084 53.13769 -52.160297
2.431481 47.370604 -51.177159
2.768471 48.441913 -50.403825
3.215172 47.321787 -50.801321
2.038028 46.200339 -51.869605
1.591327 47.320465 -51.472109
2.431481 47.370604 -51.177159
1.691736 45.102424 -52.609272
2.038028 46.200339 -51.869605
2.769804 65.631325 -44.97143
1.860283 66.128108 -45.605164
3.133614 63.97639 -44.933515
2.769804 65.631325 -44.97143
3.641903 65.117771 -44.320617
-4.434257 47.246031 -52.598558
-4.145986 48.712261 -52.208241
-3.559814 47.257624 -52.483034
-5.264883 47.065064 -52.645254
-4.434257 47.246031 -52.598558
8.440758 45.508983 -47.677128
8.639512 46.121364 -46.533071
9.149155 45.011444 -46.995115
8.229691 44.740963 -48.712145
7.720047 45.850884 -48.250101
8.440758 45.508983 -47.677128
4.816262 46.829055 -50.171509
4.038407 47.13176 -50.530977
4.330017 48.090393 -49.66852
-2.436481 44.587263 -53.164766
-1.656972 44.840723 -53.108931
-5.163122 56.19632 -51.014229
-6.173523 56.326327 -51.291511
-5.75535 57.803106 -50.93687
-0.803885 44.89511 -52.999474
-1.656972 44.840723 -53.108931
-1.352543 46.079513 -52.611937
-0.803885 44.89511 -52.999474
0.02587 44.890245 -52.98375
0.874534 44.898395 -52.814787
1.691736 45.102424 -52.609272
8.072314 51.244703 -43.247333
7.443276 51.84152 -43.986194
8.389187 49.845301 -43.584188
8.072314 51.244703 -43.247333
8.70826 48.608644 -44.010841
8.126273 49.227165 -44.64654
8.389187 49.845301 -43.584188
9.333243 47.993299 -43.315614
9.860319 47.315712 -42.613798
9.070329 47.375164 -44.377966
8.70826 48.608644 -44.010841
9.333243 47.993299 -43.315614
9.968275 44.981338 -45.235739
9.521611 46.191822 -44.766899
10.141976 45.549335 -44.151579
9.81341 44.517542 -46.428671
9.968275 44.981338 -45.235739
-5.288443 59.24678 -50.603594
-5.75535 57.803106 -50.93687
-4.242147 59.095562 -50.239345
-5.288443 59.24678 -50.603594
-3.256387 59.012928 -49.892021
-3.759189 57.590466 -50.312264
-4.242147 59.095562 -50.239345
-2.771241 60.36622 -49.409534
-2.353027 61.865416 -48.975861
-2.288283 58.861125 -49.482453
-3.256387 59.012928 -49.892021
-2.771241 60.36622 -49.409534
1.304291 64.985935 -46.181406
1.860283 66.128108 -45.605164
0.686073 63.952743 -46.83601
1.304291 64.985935 -46.181406
1.643297 63.456752 -46.238932
0.064365 62.685243 -47.445391
0.686073 63.952743 -46.83601
0.549477 61.09535 -47.481276
-0.411238 61.357033 -48.033131
0.064365 62.685243 -47.445391
6.800649 54.705944 -43.523037
6.393633 53.869368 -44.375755
6.114931 55.356093 -44.14629
6.008409 63.407593 -42.186234
5.251411 64.018567 -42.940058
6.231049 61.827362 -42.146933
6.008409 63.407593 -42.186234
6.725959 62.787033 -41.409414
7.584863 60.45832 -40.556152
7.423761 62.108229 -40.562048
7.112736 59.70735 -41.472532
7.584863 60.45832 -40.556152
6.619695 58.790587 -42.320236
6.455558 60.290039 -42.217817
7.112736 59.70735 -41.472532
6.89941 57.200283 -42.434261
6.242232 57.782972 -43.179546
6.619695 58.790587 -42.320236
7.150459 55.611711 -42.555779
6.89941 57.200283 -42.434261
6.800649 54.705944 -43.523037
7.150459 55.611711 -42.555779
-6.522794 54.688158 -51.575418
-6.173523 56.326327 -51.291511
-6.801033 53.131369 -51.874724
-6.522794 54.688158 -51.575418
-5.859535 53.162751 -51.668175
-7.09673 51.567848 -52.101374
-7.759989 53.093256 -52.008617
-6.801033 53.131369 -51.874724
-6.455834 49.969347 -52.248902
-5.579102 50.153315 -52.145623
-5.897162 48.5167 -52.427044
-7.41479 49.931235 -52.382796
-7.09673 51.567848 -52.101374
-6.455834 49.969347 -52.248902
-8.350145 49.881041 -52.430874
-7.41479 49.931235 -52.382796
-3.026858 45.90826 -52.797373
-2.436481 44.587263 -53.164766
7.11297 51.041922 -44.877325
6.749045 52.419621 -44.643632
7.443276 51.84152 -43.986194
5.581918 46.692785 -49.75618
5.863355 47.588131 -48.751188
6.337401 46.493227 -49.198317
4.816262 46.829055 -50.171509
5.581918 46.692785 -49.75618
7.986718 44.114449 -49.857092
8.229691 44.740963 -48.712145
7.241501 44.320771 -50.333861
7.986718 44.114449 -49.857092
6.782472 45.340372 -49.744213
7.241501 44.320771 -50.333861
3 56 16 57
3 58 57 14
3 56 57 58
3 0 19 17
3 60 59 20
3 61 23 62
3 63 25 64
3 65 64 23
3 63 64 65
3 1 66 68
3 68 67 26
3 66 67 68
3 70 69 28
3 2 32 30
3 4 33 15
3 4 34 33
3 5 71 72
3 5 73 74
3 6 37 35
3 8 38 18
3 8 39 38
3 3 40 31
3 9 41 21
3 9 42 41
3 9 75 77
3 77 76 42
3 75 76 77
3 78 44 79
3 81 80 44
3 82 45 83
3 84 46 85
3 86 85 45
3 84 85 86
3 11 47 22
3 11 48 47
3 11 49 48
3 12 50 24
3 12 51 50
3 87 52 88
3 7 53 36
3 90 89 27
3 10 54 43
3 13 55 29
3 13 91 93
3 93 92 55
3 91 92 93
3 14 15 2
3 16 15 14
3 16 4 15
3 94 5 95
3 17 18 6
3 19 18 17
3 19 8 18
3 20 21 3
3 96 21 97
3 98 97 20
3 96 97 98
3 99 9 100
3 101 100 21
3 99 100 101
3 103 102 9
3 104 22 105
3 23 106 108
3 106 22 107
3 106 107 108
3 23 11 22
3 23 24 11
3 25 24 23
3 25 12 24
3 26 27 7
3 109 27 110
3 111 110 26
3 109 110 111
3 113 112 27
3 28 29 10
3 114 29 115
3 116 115 28
3 114 115 116
3 117 13 118
3 119 118 29
3 117 118 119
3 30 31 0
3 32 31 30
3 32 3 31
3 15 32 2
3 33 32 15
3 33 3 32
3 33 20 3
3 34 20 33
3 34 120 122
3 122 121 20
3 120 121 122
3 124 123 1
3 35 125 127
3 125 36 126
3 125 126 127
3 37 36 35
3 37 7 36
3 18 37 6
3 38 37 18
3 38 7 37
3 38 26 7
3 39 26 38
3 39 1 26
3 31 19 0
3 40 19 31
3 40 8 19
3 21 40 3
3 41 40 21
3 41 8 40
3 41 39 8
3 42 39 41
3 42 1 39
3 42 128 130
3 130 129 1
3 128 129 130
3 132 131 42
3 134 133 9
3 135 43 136
3 137 43 138
3 139 10 140
3 141 140 43
3 139 140 141
3 44 142 143
3 44 144 146
3 144 10 145
3 144 145 146
3 44 28 10
3 147 28 148
3 149 148 44
3 147 148 149
3 151 150 28
3 152 35 153
3 154 35 155
3 156 6 157
3 158 157 35
3 156 157 158
3 45 159 160
3 45 161 163
3 161 6 162
3 161 162 163
3 45 17 6
3 46 17 45
3 46 0 17
3 22 164 165
3 47 166 168
3 168 167 22
3 166 167 168
3 47 169 170
3 47 171 173
3 171 46 172
3 171 172 173
3 48 46 47
3 48 0 46
3 48 30 0
3 49 30 48
3 49 2 30
3 24 49 11
3 50 49 24
3 50 2 49
3 50 14 2
3 51 14 50
3 51 174 176
3 176 175 14
3 174 175 176
3 177 25 178
3 52 179 181
3 179 25 180
3 179 180 181
3 52 12 25
3 182 52 183
3 184 52 185
3 186 12 187
3 188 187 52
3 186 187 188
3 189 51 190
3 191 190 12
3 189 190 191
3 192 51 193
3 195 194 51
3 36 196 197
3 53 198 200
3 200 199 36
3 198 199 200
3 53 201 203
3 201 5 202
3 201 202 203
3 27 53 7
3 204 53 205
3 206 205 27
3 204 205 206
3 207 5 208
3 209 208 53
3 207 208 209
3 211 210 5
3 213 212 1
3 43 214 216
3 214 16 215
3 214 215 216
3 54 16 43
3 54 4 16
3 29 54 10
3 55 54 29
3 55 4 54
3 55 34 4
3 217 34 218
3 219 218 55
3 217 218 219
3 221 220 34
3 222 13 223
3 224 13 225
3 227 226 13
