ply
format ascii 1.0
element vertex 212
property float x
property float y
property float z
element face 205
property list uchar int vertex_index
end_header
26.031067 -67.790031 3.601604
24.341116 -64.688133 -4.545337
27.342257 -57.203445 3.700397
26.188572 -55.039642 -4.454307
25.191818 -66.193169 -0.598374
25.23971 -71.385612 -0.768934
27.134567 -63.649147 8.03295
26.425909 -62.500351 3.625637
25.686102 -61.236702 -0.56544
26.828699 -69.162819 8.32395
23.713406 -63.121479 -7.709377
26.722076 -56.146263 -0.661412
24.999043 -59.96138 -4.416683
24.493254 -58.73534 -7.669718
25.594769 -67.038483 1.366195
25.132839 -68.900864 -0.737081
25.587225 -69.71373 1.365887
26.546562 -65.843246 5.803885
26.747183 -63.26152 5.691831
26.146656 -65.071938 3.50967
25.740622 -64.392258 1.345937
27.272427 -67.099434 10.530944
24.004902 -63.835236 -6.203253
27.590662 -57.832985 5.81152
27.736479 -53.918228 1.552442
27.058954 -56.542385 1.454059
24.979809 -62.885078 -2.601972
25.350544 -60.429611 -2.573598
24.622284 -62.189617 -4.440406
24.296209 -61.570026 -6.147343
26.912741 -52.49329 -4.570746
25.935457 -54.489799 -6.29235
25.243828 -57.125488 -6.136866
24.735079 -65.469055 -2.698227
24.250471 -67.249466 -4.564541
24.701426 -67.904427 -2.619664
27.417326 -60.98748 7.843766
27.138014 -60.459095 5.814732
26.824003 -59.891079 3.686486
26.496077 -59.210457 1.488867
26.068192 -61.891445 1.553664
25.339413 -63.70892 -0.705453
28.045725 -50.135059 -2.648196
27.241957 -52.818691 -2.565288
26.431377 -68.591309 5.857347
26.000454 -70.374054 3.491918
26.409918 -71.060364 5.844449
27.431355 -64.311081 10.212433
26.902924 -66.564674 8.035624
25.699022 -72.224747 1.371239
27.494003 -53.429256 -0.442847
26.490856 -55.464546 -2.560739
26.115044 -58.74572 -0.678356
25.837782 -58.008774 -2.618954
25.50663 -57.603027 -4.480554
24.717676 -59.390434 -6.085328
24.045977 -60.877499 -7.663431
24.099894 -65.446872 -5.423094
23.931787 -65.020424 -6.252052
24.173009 -64.261685 -5.374295
27.780285 -56.037544 4.766123
27.904487 -56.352314 5.821685
27.466459 -57.518215 4.755959
27.662873 -55.827211 3.717798
27.780285 -56.037544 4.766123
27.200606 -56.872915 2.577228
27.521222 -55.496681 2.594629
27.662873 -55.827211 3.717798
25.001685 -70.947715 -1.785328
24.94825 -69.705342 -1.769401
25.186274 -70.143238 -0.753008
25.12303 -72.138084 -1.718867
25.001685 -70.947715 -1.785328
27.275946 -62.318314 7.938358
27.575457 -61.25226 9.05966
27.434078 -62.583094 9.154253
28.153577 -50.417309 -1.627493
28.597503 -48.983617 -1.621541
27.751693 -51.759124 -1.586039
27.643841 -51.476875 -2.606742
28.153577 -50.417309 -1.627493
27.580018 -64.628296 11.437548
27.693379 -63.279686 11.336618
23.495382 -63.646849 -8.502948
23.613232 -62.661164 -8.380562
24.056719 -67.92321 -5.518721
24.287424 -68.439682 -4.576709
25.903739 -72.541413 2.485273
25.849738 -71.2994 2.431579
26.054455 -71.616066 3.545613
23.613232 -62.661164 -8.380562
23.779518 -61.539174 -8.357589
23.879691 -61.999489 -7.686404
24.357845 -58.558779 -8.462706
24.759331 -57.630064 -7.728486
24.150908 -59.551418 -8.388296
24.357845 -58.558779 -8.462706
26.795358 -70.553116 8.260351
26.985301 -69.52834 9.478787
27.4238 -67.384807 11.766653
27.500554 -66.022472 11.596804
27.207165 -68.496647 10.582285
27.4238 -67.384807 11.766653
26.985301 -69.52834 9.478787
27.050563 -68.131126 9.427447
27.207165 -68.496647 10.582285
23.758089 -64.601304 -7.067385
23.612341 -64.244425 -7.820447
23.859154 -63.478358 -6.956315
23.758089 -64.601304 -7.067385
23.931787 -65.020424 -6.252052
27.967642 -56.725223 6.817716
27.725013 -58.055228 6.885938
27.967642 -56.725223 6.817716
27.904487 -56.352314 5.821685
27.859984 -54.184602 2.643821
28.241685 -52.731943 2.666598
27.397717 -55.230306 1.503251
27.859984 -54.184602 2.643821
27.521222 -55.496681 2.594629
26.769134 -52.25684 -5.549224
27.340426 -51.125225 -4.572328
26.280493 -53.255094 -6.410025
26.769134 -52.25684 -5.549224
26.424099 -53.491545 -5.431548
25.755007 -54.377702 -7.23172
26.280493 -53.255094 -6.410025
25.480432 -55.507294 -7.039803
25.755007 -54.377702 -7.23172
25.134618 -56.825138 -6.96206
25.480432 -55.507294 -7.039803
25.589643 -55.807643 -6.214608
24.868541 -57.930414 -6.903292
24.759331 -57.630064 -7.728486
25.134618 -56.825138 -6.96206
24.512901 -68.767162 -3.60427
24.287424 -68.439682 -4.576709
24.475949 -67.576946 -3.592103
24.732543 -69.207123 -2.710693
24.917133 -68.402646 -1.678373
24.94825 -69.705342 -1.769401
24.512901 -68.767162 -3.60427
24.732543 -69.207123 -2.710693
27.742227 -59.984547 9.001571
27.575457 -61.25226 9.05966
27.638345 -59.632475 7.902061
27.742227 -59.984547 9.001571
27.498689 -59.368282 6.887544
27.638345 -59.632475 7.902061
27.27767 -60.723287 6.829249
27.364338 -59.14604 5.813126
27.725013 -58.055228 6.885938
27.498689 -59.368282 6.887544
28.513383 -48.656284 -2.664745
28.597503 -48.983617 -1.621541
27.906917 -49.946109 -3.611053
28.513383 -48.656284 -2.664745
27.479233 -51.314175 -3.609471
27.340426 -51.125225 -4.572328
27.906917 -49.946109 -3.611053
26.259187 -71.959221 4.721878
26.054455 -71.616066 3.545613
26.205186 -70.717209 4.668183
26.585968 -71.501889 7.020601
26.619309 -70.111592 7.0842
26.795358 -70.553116 8.260351
26.451669 -72.405491 5.910562
26.585968 -71.501889 7.020601
26.627719 -72.847015 7.086714
26.259187 -71.959221 4.721878
26.451669 -72.405491 5.910562
27.582472 -62.914061 10.243994
27.693379 -63.279686 11.336618
27.282961 -63.980114 9.122692
27.434078 -62.583094 9.154253
27.582472 -62.914061 10.243994
27.351891 -65.705258 10.371689
27.580018 -64.628296 11.437548
27.500554 -66.022472 11.596804
23.495382 -63.646849 -8.502948
23.612341 -64.244425 -7.820447
24.054571 -66.727539 -5.432695
24.099894 -65.446872 -5.423094
24.295794 -65.968799 -4.554939
24.054571 -66.727539 -5.432695
24.056719 -67.92321 -5.518721
25.81048 -73.480698 1.437493
25.903739 -72.541413 2.485273
25.589316 -73.110119 0.316456
25.81048 -73.480698 1.437493
25.700774 -74.36607 0.382709
25.35966 -72.690551 -0.753631
25.469366 -71.805179 0.301153
25.589316 -73.110119 0.316456
25.12303 -72.138084 -1.718867
25.35966 -72.690551 -0.753631
28.111619 -52.560929 1.54084
28.241685 -52.731943 2.666598
27.990381 -52.316443 0.543196
28.111619 -52.560929 1.54084
27.615241 -53.673742 0.554798
27.877716 -52.064407 -0.524819
27.990381 -52.316443 0.543196
27.36798 -53.123974 -1.504067
27.751693 -51.759124 -1.586039
27.877716 -52.064407 -0.524819
23.927269 -60.622498 -8.385153
24.150908 -59.551418 -8.388296
24.269616 -59.80642 -7.666574
23.660809 -61.284172 -9.079311
23.927269 -60.622498 -8.385153
23.779518 -61.539174 -8.357589
3 0 16 14
3 0 19 17
3 0 14 19
3 1 57 59
3 59 58 22
3 57 58 59
3 2 60 62
3 62 61 23
3 60 61 62
3 2 63 64
3 2 65 67
3 65 25 66
3 65 66 67
3 1 28 26
3 1 22 28
3 3 31 30
3 3 32 31
3 4 35 33
3 5 68 70
3 70 69 15
3 68 69 70
3 5 71 72
3 6 73 75
3 73 36 74
3 73 74 75
3 7 37 18
3 7 38 37
3 7 40 38
3 4 41 20
3 4 33 41
3 76 42 77
3 78 43 79
3 80 79 42
3 78 79 80
3 9 46 44
3 81 47 82
3 9 48 21
3 9 44 48
3 10 83 84
3 86 85 34
3 87 49 88
3 89 88 45
3 87 88 89
3 11 50 24
3 11 51 50
3 8 52 39
3 12 53 27
3 12 54 53
3 12 55 54
3 10 56 29
3 10 90 92
3 92 91 56
3 90 91 92
3 13 93 94
3 13 95 96
3 14 15 4
3 16 15 14
3 16 5 15
3 17 18 6
3 19 18 17
3 19 7 18
3 19 20 7
3 14 20 19
3 14 4 20
3 98 97 9
3 99 21 100
3 101 21 102
3 103 9 104
3 105 104 21
3 103 104 105
3 22 106 108
3 108 107 10
3 106 107 108
3 110 109 22
3 23 111 112
3 114 113 23
3 115 24 116
3 25 117 119
3 117 24 118
3 117 118 119
3 25 11 24
3 26 27 8
3 28 27 26
3 28 12 27
3 28 29 12
3 22 29 28
3 22 10 29
3 30 120 121
3 31 122 124
3 124 123 30
3 122 123 124
3 31 125 126
3 31 127 128
3 32 129 131
3 131 130 31
3 129 130 131
3 32 132 134
3 132 13 133
3 132 133 134
3 33 34 1
3 35 34 33
3 35 135 137
3 137 136 34
3 135 136 137
3 15 35 4
3 138 35 139
3 140 139 15
3 138 139 140
3 142 141 35
3 36 143 144
3 36 145 146
3 18 36 6
3 37 36 18
3 37 147 149
3 149 148 36
3 147 148 149
3 37 150 152
3 150 23 151
3 150 151 152
3 38 23 37
3 38 2 23
3 38 39 2
3 40 39 38
3 40 8 39
3 20 40 7
3 41 40 20
3 41 8 40
3 41 26 8
3 33 26 41
3 33 1 26
3 42 153 154
3 42 155 156
3 42 157 159
3 157 30 158
3 157 158 159
3 43 30 42
3 43 3 30
3 44 45 0
3 46 45 44
3 46 160 162
3 162 161 45
3 160 161 162
3 163 46 164
3 165 164 9
3 163 164 165
3 166 46 167
3 166 167 168
3 170 169 46
3 47 171 172
3 47 173 175
3 173 6 174
3 173 174 175
3 21 176 178
3 176 47 177
3 176 177 178
3 48 47 21
3 48 6 47
3 48 17 6
3 44 17 48
3 44 0 17
3 180 179 10
3 34 181 183
3 183 182 1
3 181 182 183
3 185 184 34
3 45 16 0
3 49 16 45
3 49 5 16
3 186 49 187
3 188 49 189
3 188 189 190
3 191 5 192
3 193 192 49
3 191 192 193
3 195 194 5
3 24 196 197
3 50 198 200
3 200 199 24
3 198 199 200
3 50 201 202
3 50 203 205
3 203 43 204
3 203 204 205
3 51 43 50
3 51 3 43
3 39 25 2
3 52 25 39
3 52 11 25
3 27 52 8
3 53 52 27
3 53 11 52
3 53 51 11
3 54 51 53
3 54 3 51
3 54 32 3
3 55 32 54
3 55 13 32
3 29 55 12
3 56 55 29
3 56 13 55
3 56 206 208
3 208 207 13
3 206 207 208
3 211 210 56
3 209 210 211
