ply
format ascii 1.0
element vertex 231
property float x
property float y
property float z
element face 224
property list uchar int vertex_index
end_header
-26.425591 49.674435 -0.658565
-33.538582 32.55286 -0.541717
-29.55978 39.275188 -4.04625
-31.333277 36.978939 1.258767
-31.543783 35.944756 -2.372104
-29.697054 40.595901 -0.44292
-26.612892 48.291359 -4.367642
-27.631802 45.342228 1.517394
-35.185947 28.415365 -2.005435
-35.311867 29.162107 1.219398
-33.081791 33.203114 3.183797
-33.158684 31.258951 -3.653566
-30.840555 34.114994 -5.229895
-28.585329 37.027256 -6.569234
-28.062462 44.55201 -2.274116
-27.637907 42.755775 -5.620966
-30.44828 38.906101 0.384937
-29.352171 41.14138 1.548129
-36.187599 27.147417 0.370522
-36.112991 27.374401 2.220273
-33.847496 31.436037 4.247594
-34.404263 30.525883 -1.357182
-34.207214 29.817688 -2.881764
-33.393749 32.131889 -2.246023
-30.556141 37.649563 -3.14258
-31.331951 35.149422 -3.886758
-30.255711 36.72308 -4.647499
-29.748228 35.514904 -5.883706
-29.168932 38.162266 -5.493463
-26.998974 47.550243 0.350378
-27.903643 45.115089 -0.379935
-27.282681 47.016796 -1.520557
-26.359308 47.180099 -5.973026
-27.19458 45.48658 -4.917053
-26.742472 44.368301 -6.445006
-27.067295 41.475533 -6.927835
-26.042387 43.150867 -7.686616
-32.480419 34.740105 0.254423
-32.524837 34.292244 -1.533969
-31.500658 36.649311 -0.580706
-30.652462 38.283203 -1.453516
-29.800026 39.932575 -2.316808
-26.647421 49.029785 -2.607349
-26.026447 51.026672 -3.817936
-26.07976 49.911335 1.412946
-36.091797 26.80546 -1.155714
-35.346527 28.870981 -0.436004
-34.425079 30.933638 0.395592
-35.104435 29.319714 3.168843
-34.279182 31.132429 2.214201
-33.365955 32.998016 1.300441
-32.23254 35.056702 2.161696
-34.928329 27.466858 -3.299495
-32.417427 33.524883 -3.11821
-32.062054 32.588345 -4.453963
-28.644497 43.034641 0.534596
-28.863029 42.559067 -1.354752
-28.847145 41.95771 -3.118279
-27.371778 46.293793 -3.309386
-27.988533 43.794579 -4.000572
-28.605776 41.045723 -4.763103
-28.120365 39.946949 -6.130484
-27.433802 38.57399 -7.242309
-29.144092 41.227728 2.587108
-29.775776 40.09608 1.995766
-36.498942 26.409435 2.73214
-36.526332 26.375201 1.756817
-26.279771 45.29792 -6.877045
-26.55089 45.7742 -6.209016
-26.088189 46.703819 -6.641056
-25.929729 44.689203 -7.497851
-26.392429 43.759584 -7.065811
-26.279771 45.29792 -6.877045
-25.558325 44.019025 -8.071203
-25.929729 44.689203 -7.497851
-25.73995 52.336759 -3.479629
-25.964113 51.401252 -2.841933
-25.79217 50.07741 2.512116
-26.324379 48.858598 1.955495
-36.476478 25.963878 -0.718716
-36.317482 25.868288 -1.45656
-34.919522 29.363042 4.168817
-35.526972 28.31317 3.697106
-35.057138 27.941111 -2.652465
-35.369358 26.89339 -2.900138
-35.498167 27.367644 -2.253108
-33.489937 30.071509 -3.865373
-34.014202 29.350877 -3.479471
-33.682949 30.53832 -3.267665
-32.911271 30.644796 -4.271034
-33.489937 30.071509 -3.865373
-31.125106 32.802991 -5.412059
-31.735855 32.039666 -5.024093
-31.451304 33.351669 -4.841929
-30.50148 33.367413 -5.773838
-31.125106 32.802991 -5.412059
-28.764854 35.608225 -6.732727
-29.346303 34.852049 -6.389963
-29.166778 36.27108 -6.22647
-28.142454 36.336443 -7.040983
-28.764854 35.608225 -6.732727
-28.13815 44.188434 1.025995
-28.454994 43.159519 1.587678
-27.948646 44.313312 2.079077
-26.87628 39.259993 -7.589894
-27.250549 40.024761 -7.085072
-26.693027 40.710764 -7.432657
-26.978121 37.771107 -7.677917
-26.87628 39.259993 -7.589894
-30.32383 38.978441 1.414169
-30.890778 37.94252 0.821852
-30.766329 38.01486 1.851084
-29.900225 40.023741 0.966533
-30.32383 38.978441 1.414169
-29.775776 40.09608 1.995766
-36.563637 26.261709 0.831941
-36.524379 26.134857 0.044402
-36.150295 27.260909 1.295397
-36.563637 26.261709 0.831941
-36.526332 26.375201 1.756817
-33.671673 31.331221 5.314319
-34.291052 30.421203 4.708193
-33.258145 32.323362 4.805829
-33.671673 31.331221 5.314319
-32.875292 33.2069 4.273931
-33.464644 32.319575 3.715696
-33.258145 32.323362 4.805829
-32.444602 34.215588 3.766056
-32.875292 33.2069 4.273931
-26.180573 41.548431 -7.812048
-26.693027 40.710764 -7.432657
-26.554841 42.3132 -7.307225
-25.611431 42.429152 -8.167631
-26.180573 41.548431 -7.812048
-25.611431 42.429152 -8.167631
-25.558325 44.019025 -8.071203
-26.2746 50.402809 -2.236639
-26.536506 49.35211 -1.632957
-26.163685 50.725134 -1.262247
-26.336934 50.028228 -3.212643
-26.2746 50.402809 -2.236639
-25.964113 51.401252 -2.841933
-25.732174 52.036923 -4.352521
-25.73995 52.336759 -3.479629
-25.968063 50.583929 -4.642428
-25.732174 52.036923 -4.352521
-26.261285 49.216273 -4.917281
-26.319669 49.659015 -4.092789
-25.968063 50.583929 -4.642428
-26.134493 48.660642 -5.719972
-26.4861 47.735729 -5.170334
-26.261285 49.216273 -4.917281
-25.942037 48.256113 -6.437104
-26.134493 48.660642 -5.719972
-26.088189 46.703819 -6.641056
-25.942037 48.256113 -6.437104
-27.381039 45.467263 2.589017
-27.948646 44.313312 2.079077
-27.1004 46.574045 2.007719
-27.381039 45.467263 2.589017
-26.783986 47.678052 1.424211
-27.315388 46.446236 0.933886
-27.1004 46.574045 2.007719
-26.539367 48.730789 0.881662
-26.783986 47.678052 1.424211
-26.324379 48.858598 1.955495
-25.620004 51.159264 1.816858
-25.79217 50.07741 2.512116
-25.847237 51.01384 0.81631
-25.620004 51.159264 1.816858
-26.020153 50.89539 -0.219445
-26.252676 49.792885 0.377191
-25.847237 51.01384 0.81631
-26.163685 50.725134 -1.262247
-26.020153 50.89539 -0.219445
-35.951092 26.562691 -1.828248
-36.317482 25.868288 -1.45656
-35.638872 27.610413 -1.580574
-35.498167 27.367644 -2.253108
-35.951092 26.562691 -1.828248
-36.139698 26.976439 -0.392596
-36.476478 25.963878 -0.718716
-36.524379 26.134857 0.044402
-36.03125 27.340513 3.222821
-36.498942 26.409435 2.73214
-35.608713 28.347057 2.694558
-36.03125 27.340513 3.222821
-35.526972 28.31317 3.697106
-34.475966 30.377876 3.708219
-34.919522 29.363042 4.168817
-34.291052 30.421203 4.708193
-32.019976 35.142382 3.255005
-32.657166 34.129908 2.672747
-32.444602 34.215588 3.766056
-31.629924 36.075825 2.742869
-32.019976 35.142382 3.255005
-31.417361 36.161505 3.836177
-31.180293 37.036943 2.291404
-31.782908 36.01782 1.710231
-31.629924 36.075825 2.742869
-30.766329 38.01486 1.851084
-31.180293 37.036943 2.291404
-35.158585 26.47377 -3.411231
-35.369358 26.89339 -2.900138
-34.637216 26.982121 -3.813257
-35.158585 26.47377 -3.411231
-34.374759 28.175462 -3.688337
-34.567771 28.642273 -3.090629
-34.014202 29.350877 -3.479471
-34.637216 26.982121 -3.813257
-34.374759 28.175462 -3.688337
-32.362955 31.309492 -4.671233
-32.911271 30.644796 -4.271034
-32.610369 31.923648 -4.053764
-32.362955 31.309492 -4.671233
-31.735855 32.039666 -5.024093
-29.955317 34.067368 -6.100744
-30.50148 33.367413 -5.773838
-30.294391 34.814949 -5.5568
-29.955317 34.067368 -6.100744
-29.346303 34.852049 -6.389963
-28.80883 42.212888 2.094445
-29.144092 41.227728 2.587108
-28.998334 42.08801 1.041362
-28.80883 42.212888 2.094445
-28.454994 43.159519 1.587678
-27.56669 37.10981 -7.377521
-28.142454 36.336443 -7.040983
-28.009566 37.800623 -6.905772
-27.56669 37.10981 -7.377521
-26.978121 37.771107 -7.677917
3 63 17 64
3 65 19 66
3 1 23 21
3 2 26 24
3 2 28 26
3 0 31 29
3 67 34 68
3 69 68 32
3 67 68 69
3 70 36 71
3 72 71 34
3 70 71 72
3 74 73 36
3 3 39 37
3 5 40 16
3 5 41 40
3 75 43 76
3 77 44 78
3 79 45 80
3 9 46 18
3 9 47 46
3 81 48 82
3 10 49 20
3 10 50 49
3 10 51 50
3 8 83 85
3 83 52 84
3 83 84 85
3 11 86 88
3 88 87 22
3 86 87 88
3 11 89 90
3 4 53 38
3 12 54 25
3 12 91 93
3 93 92 54
3 91 92 93
3 12 94 95
3 13 96 98
3 98 97 27
3 96 97 98
3 13 99 100
3 7 101 103
3 101 55 102
3 101 102 103
3 14 56 30
3 14 57 56
3 6 58 42
3 15 59 33
3 15 60 59
3 15 61 60
3 104 62 105
3 106 105 35
3 104 105 106
3 108 107 62
3 109 16 110
3 111 110 3
3 109 110 111
3 17 112 114
3 112 16 113
3 112 113 114
3 17 5 16
3 115 18 116
3 19 117 119
3 117 18 118
3 117 118 119
3 19 9 18
3 120 20 121
3 122 20 123
3 124 10 125
3 126 125 20
3 124 125 126
3 128 127 10
3 21 22 8
3 23 22 21
3 23 11 22
3 24 25 4
3 26 25 24
3 26 12 25
3 26 27 12
3 28 27 26
3 28 13 27
3 29 30 7
3 31 30 29
3 31 14 30
3 32 33 6
3 34 33 32
3 34 15 33
3 34 35 15
3 36 35 34
3 36 129 131
3 131 130 35
3 129 130 131
3 36 132 133
3 135 134 36
3 37 38 1
3 39 38 37
3 39 4 38
3 16 39 3
3 40 39 16
3 40 4 39
3 40 24 4
3 41 24 40
3 41 2 24
3 136 42 137
3 138 137 0
3 136 137 138
3 43 139 141
3 139 42 140
3 139 140 141
3 43 6 42
3 142 43 143
3 144 43 145
3 146 6 147
3 148 147 43
3 146 147 148
3 149 32 150
3 151 150 6
3 149 150 151
3 152 32 153
3 155 154 32
3 156 7 157
3 158 7 159
3 160 29 161
3 162 161 7
3 160 161 162
3 44 163 165
3 163 29 164
3 163 164 165
3 44 0 29
3 166 44 167
3 168 44 169
3 170 0 171
3 172 171 44
3 170 171 172
3 174 173 0
3 45 175 176
3 45 177 179
3 177 8 178
3 177 178 179
3 18 180 182
3 180 45 181
3 180 181 182
3 46 45 18
3 46 8 45
3 46 21 8
3 47 21 46
3 47 1 21
3 183 19 184
3 48 185 187
3 185 19 186
3 185 186 187
3 48 9 19
3 20 188 190
3 188 48 189
3 188 189 190
3 49 48 20
3 49 9 48
3 49 47 9
3 50 47 49
3 50 1 47
3 50 37 1
3 51 37 50
3 51 3 37
3 191 51 192
3 193 192 10
3 191 192 193
3 194 51 195
3 194 195 196
3 197 3 198
3 199 198 51
3 197 198 199
3 201 200 3
3 52 202 203
3 52 204 205
3 22 52 8
3 206 52 207
3 208 207 22
3 206 207 208
3 210 209 52
3 38 23 1
3 53 23 38
3 53 11 23
3 25 53 4
3 54 53 25
3 54 11 53
3 54 211 213
3 213 212 11
3 211 212 213
3 215 214 54
3 27 216 218
3 218 217 12
3 216 217 218
3 220 219 27
3 221 17 222
3 55 223 225
3 223 17 224
3 223 224 225
3 55 5 17
3 30 55 7
3 56 55 30
3 56 5 55
3 56 41 5
3 57 41 56
3 57 2 41
3 42 31 0
3 58 31 42
3 58 14 31
3 33 58 6
3 59 58 33
3 59 14 58
3 59 57 14
3 60 57 59
3 60 2 57
3 60 28 2
3 61 28 60
3 61 13 28
3 35 61 15
3 62 61 35
3 62 13 61
3 62 226 228
3 228 227 13
3 226 227 228
3 230 229 62
