ply
format ascii 1.0
element vertex 285
property float x
property float y
property float z
element face 272
property list uchar int vertex_index
end_header
-4.84901 20.338627 53.584236
-11.159225 26.421392 47.196793
2.514397 25.194952 56.47451
-8.489848 17.933165 51.772488
-8.139748 23.450336 50.398663
-7.407825 29.216814 48.941814
-4.299783 26.105581 52.034351
-0.634149 28.781446 53.23756
-1.2367 22.917229 55.013878
-11.597188 10.474047 51.2416
-8.575659 12.7699 53.054028
-5.310946 14.860848 54.830627
-1.60626 17.100113 56.608215
3.179906 31.598673 54.430809
6.345139 27.960848 57.829613
2.063878 19.193094 58.223732
5.70697 21.344217 59.735775
9.557348 23.719343 61.305977
-6.692063 19.189861 52.693718
-8.206762 20.673477 51.199219
-6.473364 21.985044 52.005795
-6.222353 24.760918 51.275684
-4.645636 23.242298 52.796516
-2.723981 24.538723 53.55146
-3.018609 21.429667 54.408543
-7.049572 8.979533 55.123993
-8.592649 10.296899 53.661869
-7.001745 11.386422 54.551796
-7.001916 13.954224 53.897278
-5.363682 12.279234 55.468639
-12.436603 27.995838 45.627068
-12.175183 30.876917 44.806248
-10.705033 29.38188 46.531406
0.995665 27.062311 54.86824
1.314111 30.010387 53.920979
2.930827 28.227852 55.60004
4.719132 29.736618 56.129658
4.459897 26.520491 57.182194
0.246944 18.063341 57.467945
5.406367 18.31646 60.505096
7.392858 19.35927 61.378273
7.577421 22.414747 60.525356
9.272155 20.573002 62.127491
-10.096434 16.672386 50.896961
-9.87567 19.346796 50.345787
-9.797045 22.103628 49.607334
-9.597363 25.081516 48.824734
-9.266755 28.033768 48.076462
-7.768991 26.325403 49.714233
-5.93175 27.601414 50.478905
-2.478567 27.385332 52.672256
-0.779496 25.847166 54.256134
0.672829 23.884741 55.831581
-11.719533 12.911317 50.537693
-10.153267 11.727684 52.103527
-10.151103 14.271279 51.469681
-8.500658 15.37278 52.44558
-6.860767 16.643291 53.28759
-5.019484 17.600389 54.275173
-3.267278 18.58996 55.124386
-3.486056 15.93237 55.746822
-0.169845 31.829023 52.31041
1.705021 33.446857 52.777569
3.656868 34.921234 53.372196
5.165376 32.955929 55.134693
6.709293 31.268299 56.800236
-1.469747 19.864492 55.861492
0.33388 20.879339 56.641369
2.232853 22.209249 57.346588
3.87967 20.144201 59.01722
4.159291 23.251785 58.156475
6.038833 24.480921 58.885025
7.905153 25.763889 59.59906
-6.294481 10.628376 55.240317
-7.025659 10.182977 54.837895
-6.318395 9.424931 55.526415
-5.47545 11.074782 55.698738
-6.182714 11.832828 55.010218
-6.294481 10.628376 55.240317
-4.641931 11.591235 56.13286
-5.47545 11.074782 55.698738
-11.965805 25.703442 46.767144
-11.206956 24.966282 47.623814
-11.797914 27.208615 46.41193
-12.604494 26.490665 45.982281
-11.965805 25.703442 46.767144
8.173656 18.244097 62.170866
7.242396 17.83932 61.740216
9.113304 18.850963 62.545475
8.332507 19.966136 61.752882
8.173656 18.244097 62.170866
10.059423 19.429827 62.922001
9.113304 18.850963 62.545475
-4.140995 27.610626 51.57831
-4.956978 28.358542 50.800587
-5.115766 26.853497 51.256628
-3.389175 26.745456 52.353303
-3.230387 28.250501 51.897262
-4.140995 27.610626 51.57831
-12.325245 11.107386 50.459877
-12.254599 9.932507 50.809379
-11.658361 11.692682 50.889646
-12.386417 12.326021 50.107923
-12.325245 11.107386 50.459877
-11.964831 32.395728 44.38241
-11.312752 31.665665 45.190811
-8.206283 30.037608 48.093119
-9.135748 29.446085 47.660443
-8.33729 28.625291 48.509138
-0.401997 30.305234 52.773985
-1.149287 31.141287 52.007761
-1.381439 29.617499 52.471336
7.320827 28.53977 58.234922
7.502904 30.193495 57.720234
6.527216 29.614573 57.314925
9.685236 25.420592 60.810989
8.859139 26.442864 59.957531
8.73125 24.741616 60.452518
10.480018 24.349092 61.65455
9.685236 25.420592 60.810989
-11.556006 9.38099 51.546186
-12.254599 9.932507 50.809379
-12.213417 8.83945 51.113966
-7.82111 9.638216 54.392931
-8.597558 9.185074 53.936665
-7.82602 8.526391 54.667727
-4.497618 12.7999 55.913776
-4.47125 14.090707 55.59477
-5.337314 13.570041 55.149633
-4.497618 12.7999 55.913776
-4.641931 11.591235 56.13286
-13.287705 27.199599 45.144885
-12.604494 26.490665 45.982281
-13.144225 28.647084 44.773936
-13.287705 27.199599 45.144885
-12.305893 29.436377 45.216658
-13.013515 30.087623 44.363525
-13.144225 28.647084 44.773936
-10.577676 30.918147 46.05339
-11.312752 31.665665 45.190811
-11.440108 30.129399 45.668827
-7.260431 30.705171 48.476915
-6.499736 29.910646 49.262034
0.096756 16.730289 57.765171
-0.679658 17.581727 57.03808
-0.829846 16.248674 57.335306
1.052663 17.143155 58.231388
0.096756 16.730289 57.765171
1.961129 17.708031 58.609281
1.155411 18.628217 57.845838
1.052663 17.143155 58.231388
6.24915 17.317915 61.303627
5.268803 16.8211 60.864076
6.399612 18.837865 60.941685
6.24915 17.317915 61.303627
7.242396 17.83932 61.740216
10.196761 21.102955 62.507963
10.339357 22.676125 62.097206
9.414751 22.146172 61.716734
10.984029 19.95978 63.302473
10.196761 21.102955 62.507963
10.059423 19.429827 62.922001
-7.099955 7.93112 55.352375
-7.82602 8.526391 54.667727
-6.346309 8.2851 55.794868
-7.099955 7.93112 55.352375
-6.396691 7.236687 56.023251
-6.318395 9.424931 55.526415
-6.346309 8.2851 55.794868
-10.83388 17.392181 50.117005
-10.861297 16.043976 50.443966
-10.723498 18.729387 49.841418
-10.83388 17.392181 50.117005
-9.986052 18.009591 50.621374
-10.683733 20.06513 49.505817
-10.723498 18.729387 49.841418
-10.644421 21.443546 49.136591
-10.683733 20.06513 49.505817
-9.836358 20.725212 49.976561
-10.525866 22.8074 48.829085
-10.644421 21.443546 49.136591
-10.426025 24.296343 48.437784
-10.525866 22.8074 48.829085
-9.697204 23.592572 49.216034
-10.378294 25.751454 48.010763
-11.206956 24.966282 47.623814
-10.426025 24.296343 48.437784
-5.761698 29.102947 50.030579
-6.499736 29.910646 49.262034
-6.669787 28.409114 49.710359
-5.761698 29.102947 50.030579
-4.956978 28.358542 50.800587
-2.303648 28.919442 52.188684
-3.230387 28.250501 51.897262
-1.556358 28.083389 52.954908
-1.381439 29.617499 52.471336
-2.303648 28.919442 52.188684
-12.400367 13.576539 49.787792
-12.386417 12.326021 50.107923
-11.672847 14.163442 50.264332
-12.400367 13.576539 49.787792
-10.868382 9.87109 51.984619
-11.556006 9.38099 51.546186
-9.366112 9.782516 53.194754
-8.597558 9.185074 53.936665
-10.146421 10.497909 52.415582
-9.366112 9.782516 53.194754
-9.372958 11.012291 52.882698
-10.875227 11.100866 51.672563
-10.868382 9.87109 51.984619
-10.146421 10.497909 52.415582
-10.888632 14.843423 50.730326
-11.672847 14.163442 50.264332
-10.935318 13.591298 51.003687
-10.123769 15.471832 51.183321
-10.861297 16.043976 50.443966
-10.888632 14.843423 50.730326
-3.558805 14.626468 56.052868
-4.398501 15.396609 55.288725
-4.47125 14.090707 55.59477
-2.718252 15.159253 56.452253
-3.558805 14.626468 56.052868
-1.778354 15.743125 56.88295
-2.546158 16.516241 56.177519
-2.718252 15.159253 56.452253
-0.829846 16.248674 57.335306
-1.778354 15.743125 56.88295
-12.849255 31.673074 43.907978
-13.013515 30.087623 44.363525
-12.849255 31.673074 43.907978
-11.964831 32.395728 44.38241
-9.854886 30.120141 46.887914
-9.985894 28.707824 47.303934
-9.135748 29.446085 47.660443
-10.577676 30.918147 46.05339
-9.854886 30.120141 46.887914
-8.206283 30.037608 48.093119
-7.260431 30.705171 48.476915
-0.953288 32.761485 51.476832
-1.149287 31.141287 52.007761
-0.03232 33.436847 51.739368
-0.953288 32.761485 51.476832
0.905113 34.245764 51.972948
-0.03232 33.436847 51.739368
0.767588 32.63794 52.543989
1.92253 35.084762 52.231376
0.905113 34.245764 51.972948
2.898453 35.821951 52.52869
1.92253 35.084762 52.231376
2.680944 34.184045 53.074883
3.867392 36.689073 52.759085
2.898453 35.821951 52.52869
4.57581 35.694881 53.63248
4.786333 37.462721 53.019369
3.867392 36.689073 52.759085
5.330063 34.712229 54.513729
4.57581 35.694881 53.63248
4.411122 33.938581 54.253445
6.085644 33.814949 55.378362
5.330063 34.712229 54.513729
6.857603 32.971134 56.211134
6.085644 33.814949 55.378362
5.937335 32.112114 55.967464
7.58298 31.966217 57.089754
6.857603 32.971134 56.211134
8.37659 30.891413 58.009752
7.58298 31.966217 57.089754
7.502904 30.193495 57.720234
2.814294 18.25836 58.961939
1.961129 17.708031 58.609281
4.485539 17.820043 60.102621
5.268803 16.8211 60.864076
3.72219 18.733914 59.358683
4.485539 17.820043 60.102621
4.643019 19.230331 59.761158
2.971774 19.668647 58.620476
2.814294 18.25836 58.961939
3.72219 18.733914 59.358683
8.100834 27.441291 59.119646
7.320827 28.53977 58.234922
7.125146 26.862368 58.714337
8.100834 27.441291 59.119646
8.859139 26.442864 59.957531
10.480018 24.349092 61.65455
10.339357 22.676125 62.097206
3 0 20 18
3 0 22 20
3 0 24 22
3 73 27 74
3 75 74 25
3 73 74 75
3 76 29 77
3 78 77 27
3 76 77 78
3 80 79 29
3 1 81 82
3 1 83 85
3 83 30 84
3 83 84 85
3 1 32 30
3 2 35 33
3 2 37 35
3 86 40 87
3 88 42 89
3 90 89 40
3 88 89 90
3 92 91 42
3 3 44 43
3 4 45 19
3 4 46 45
3 4 48 46
3 6 49 21
3 6 93 95
3 95 94 49
3 93 94 95
3 6 96 98
3 96 50 97
3 96 97 98
3 8 51 23
3 8 52 51
3 9 99 100
3 9 101 103
3 101 53 102
3 101 102 103
3 10 54 26
3 10 55 54
3 10 56 55
3 11 57 28
3 11 58 57
3 11 60 58
3 105 104 31
3 5 106 108
3 108 107 47
3 106 107 108
3 7 109 111
3 109 61 110
3 109 110 111
3 13 62 34
3 13 63 62
3 13 64 63
3 14 65 36
3 14 112 114
3 114 113 65
3 112 113 114
3 12 66 59
3 15 67 38
3 15 68 67
3 16 69 39
3 16 70 69
3 16 71 70
3 17 72 41
3 17 115 117
3 117 116 72
3 115 116 117
3 17 118 119
3 18 19 3
3 20 19 18
3 20 4 19
3 20 21 4
3 22 21 20
3 22 6 21
3 22 23 6
3 24 23 22
3 24 8 23
3 120 9 121
3 120 121 122
3 25 123 125
3 123 26 124
3 123 124 125
3 27 26 25
3 27 10 26
3 27 28 10
3 29 28 27
3 29 11 28
3 29 126 128
3 128 127 11
3 126 127 128
3 130 129 29
3 30 131 132
3 30 133 134
3 30 135 137
3 135 31 136
3 135 136 137
3 32 31 30
3 32 138 140
3 140 139 31
3 138 139 140
3 142 141 5
3 33 34 7
3 35 34 33
3 35 13 34
3 35 36 13
3 37 36 35
3 37 14 36
3 143 38 144
3 145 144 12
3 143 144 145
3 146 38 147
3 148 15 149
3 150 149 38
3 148 149 150
3 151 39 152
3 40 153 155
3 153 39 154
3 153 154 155
3 40 16 39
3 40 41 16
3 42 41 40
3 42 17 41
3 42 156 158
3 158 157 17
3 156 157 158
3 161 160 42
3 159 160 161
3 162 25 163
3 164 25 165
3 164 165 166
3 168 167 25
3 43 169 170
3 44 171 173
3 173 172 43
3 171 172 173
3 44 174 175
3 19 44 3
3 45 44 19
3 45 176 178
3 178 177 44
3 176 177 178
3 45 179 180
3 46 181 183
3 183 182 45
3 181 182 183
3 46 184 186
3 184 1 185
3 184 185 186
3 46 47 1
3 48 47 46
3 48 5 47
3 21 48 4
3 49 48 21
3 49 5 48
3 49 187 189
3 189 188 5
3 187 188 189
3 191 190 49
3 50 192 193
3 50 194 196
3 194 7 195
3 194 195 196
3 23 50 6
3 51 50 23
3 51 7 50
3 51 33 7
3 52 33 51
3 52 2 33
3 53 197 198
3 53 199 200
3 201 9 202
3 26 203 204
3 54 205 207
3 207 206 26
3 205 206 207
3 54 208 210
3 208 9 209
3 208 209 210
3 54 53 9
3 55 53 54
3 55 211 213
3 213 212 53
3 211 212 213
3 55 214 216
3 214 43 215
3 214 215 216
3 56 43 55
3 56 3 43
3 28 56 10
3 57 56 28
3 57 3 56
3 57 18 3
3 58 18 57
3 58 0 18
3 58 59 0
3 60 59 58
3 60 12 59
3 217 60 218
3 219 218 11
3 217 218 219
3 220 60 221
3 222 12 223
3 224 223 60
3 222 223 224
3 226 225 12
3 31 227 228
3 230 229 31
3 47 32 1
3 231 32 232
3 233 232 47
3 231 232 233
3 235 234 32
3 237 236 5
3 61 238 239
3 61 240 241
3 34 61 7
3 62 61 34
3 62 242 244
3 244 243 61
3 242 243 244
3 62 245 246
3 63 247 249
3 249 248 62
3 247 248 249
3 63 250 251
3 63 252 254
3 252 253 254
3 64 255 257
3 257 256 63
3 255 256 257
3 64 258 259
3 36 64 13
3 65 64 36
3 65 260 262
3 262 261 64
3 260 261 262
3 65 263 264
3 267 266 65
3 265 266 267
3 59 24 0
3 66 24 59
3 66 8 24
3 38 66 12
3 67 66 38
3 67 8 66
3 67 52 8
3 68 52 67
3 68 2 52
3 268 15 269
3 39 270 271
3 69 272 274
3 274 273 39
3 272 273 274
3 69 275 277
3 275 15 276
3 275 276 277
3 69 68 15
3 70 68 69
3 70 2 68
3 70 37 2
3 71 37 70
3 71 14 37
3 41 71 16
3 72 71 41
3 72 14 71
3 72 278 280
3 280 279 14
3 278 279 280
3 282 281 72
3 284 283 17
