ply
format ascii 1.0
element vertex 120
property float x
property float y
property float z
element face 106
property list uchar int vertex_index
end_header
-16.412539 58.567551 21.310192
-17.230291 53.083824 24.679205
-14.596293 57.398819 25.856632
-13.648379 63.21854 22.259985
-18.840611 54.17387 19.834064
-15.737265 64.269371 17.362207
-16.757318 55.8965 23.061951
-18.030899 53.671181 22.307909
-17.66353 56.379192 20.589684
-18.50535 56.911953 18.061516
-17.25396 59.131397 18.939047
-16.927547 61.978344 16.986025
-16.037577 61.553246 19.305664
-12.180111 65.505211 22.544239
-13.315077 65.921486 20.327436
-15.933756 55.179516 25.393349
-15.41745 58.204418 23.641695
-15.092987 61.020981 21.674393
-14.080734 60.459194 24.022612
-12.581502 62.491566 24.649719
-18.544508 50.930195 23.760773
-19.257769 51.530872 21.385586
-20.056347 51.920414 18.862295
-19.578426 54.722042 17.390099
-14.768692 63.69236 19.812254
-14.350518 66.48584 17.957893
-12.045559 66.884377 21.461782
-11.412155 66.623707 22.634923
-15.265024 56.289168 25.624991
-15.460371 54.844623 26.548117
-14.791639 55.954275 26.779758
-12.072239 62.167496 25.678683
-12.853594 61.065483 25.477584
-11.843373 63.677611 24.677062
-12.072239 62.167496 25.678683
-17.8874 52.007009 24.219989
-18.180784 50.579849 24.928747
-17.523675 51.656664 25.387963
-18.892896 57.160946 16.835253
-18.297446 58.337057 17.218738
-16.172101 64.546993 16.176413
-16.767242 63.401479 15.988322
-16.332406 63.123857 17.174116
-15.507143 65.685577 16.474175
-16.172101 64.546993 16.176413
-13.679329 67.644596 18.026347
-13.832797 66.203663 19.142664
-13.161609 67.362419 19.211118
-14.150408 67.973534 16.880579
-13.679329 67.644596 18.026347
-14.078094 57.078911 26.972636
-14.791639 55.954275 26.779758
-13.86099 58.519109 26.081041
-14.078094 57.078911 26.972636
-17.671751 59.446779 17.657503
-18.297446 58.337057 17.218738
-17.879655 58.021675 18.500281
-17.090753 60.55487 17.962536
-17.508544 60.870252 16.680992
-17.671751 59.446779 17.657503
-12.613042 67.092514 20.353381
-12.747594 65.713348 21.435837
-12.045559 66.884377 21.461782
-13.161609 67.362419 19.211118
-12.613042 67.092514 20.353381
-16.840077 52.763836 25.771554
-17.523675 51.656664 25.387963
-16.191809 53.811682 26.128626
-15.460371 54.844623 26.548117
-16.582024 54.13167 25.036277
-16.840077 52.763836 25.771554
-16.191809 53.811682 26.128626
-13.60321 60.049297 25.164031
-14.338513 58.929006 24.939622
-13.86099 58.519109 26.081041
-13.331118 61.47538 24.336165
-13.60321 60.049297 25.164031
-12.853594 61.065483 25.477584
-11.642677 65.184433 23.624322
-12.380807 63.998389 23.596979
-11.843373 63.677611 24.677062
-11.412155 66.623707 22.634923
-11.642677 65.184433 23.624322
-18.832114 49.526918 24.452838
-18.180784 50.579849 24.928747
-19.181296 49.80184 23.301856
-18.832114 49.526918 24.452838
-19.537926 50.102179 22.114263
-19.181296 49.80184 23.301856
-18.901139 51.230533 22.57318
-19.872096 50.387741 20.914578
-19.537926 50.102179 22.114263
-20.271385 50.582512 19.652933
-19.872096 50.387741 20.914578
-19.657058 51.725643 20.12394
-20.636432 50.793504 18.390557
-20.271385 50.582512 19.652933
-20.439751 52.102062 17.605674
-21.019837 50.975153 17.133935
-20.636432 50.793504 18.390557
-20.200791 53.502876 16.869575
-20.439751 52.102062 17.605674
-19.817386 53.321228 18.126197
-19.988902 54.83761 16.158666
-20.200791 53.502876 16.869575
-19.429434 56.06599 16.499544
-19.041888 55.816997 17.725808
-18.892896 57.160946 16.835253
-19.988902 54.83761 16.158666
-19.429434 56.06599 16.499544
-17.39577 62.11531 15.77144
-17.508544 60.870252 16.680992
-17.39577 62.11531 15.77144
-16.767242 63.401479 15.988322
-14.813769 66.793812 16.772018
-15.507143 65.685577 16.474175
-15.043892 65.377606 17.66005
-14.61366 68.281505 15.694705
-14.813769 66.793812 16.772018
-14.150408 67.973534 16.880579
3 0 8 6
3 0 10 8
3 0 12 10
3 27 26 13
3 2 28 30
3 28 15 29
3 28 29 30
3 2 16 15
3 2 18 16
3 31 19 32
3 34 33 19
3 1 35 37
3 35 20 36
3 35 36 37
3 4 21 7
3 4 22 21
3 4 23 22
3 39 38 9
3 5 40 42
3 42 41 11
3 40 41 42
3 5 43 44
3 3 24 17
3 45 25 46
3 47 46 14
3 45 46 47
3 49 48 25
3 50 2 51
3 53 52 2
3 6 7 1
3 8 7 6
3 8 4 7
3 8 9 4
3 10 9 8
3 10 54 56
3 56 55 9
3 54 55 56
3 10 57 59
3 57 11 58
3 57 58 59
3 12 11 10
3 12 5 11
3 13 14 3
3 60 14 61
3 62 61 13
3 60 61 62
3 64 63 14
3 65 1 66
3 15 67 68
3 15 69 71
3 69 1 70
3 69 70 71
3 15 6 1
3 16 6 15
3 16 0 6
3 16 17 0
3 18 17 16
3 18 3 17
3 72 18 73
3 74 73 2
3 72 73 74
3 19 75 77
3 75 18 76
3 75 76 77
3 19 3 18
3 19 13 3
3 78 13 79
3 80 79 19
3 78 79 80
3 82 81 13
3 20 83 84
3 20 85 86
3 7 20 1
3 21 20 7
3 21 87 89
3 89 88 20
3 87 88 89
3 21 90 91
3 22 92 94
3 94 93 21
3 92 93 94
3 22 95 96
3 22 97 99
3 97 98 99
3 23 100 102
3 102 101 22
3 100 101 102
3 23 103 104
3 9 23 4
3 105 23 106
3 107 106 9
3 105 106 107
3 109 108 23
3 11 110 111
3 113 112 11
3 17 12 0
3 24 12 17
3 24 5 12
3 14 24 3
3 25 24 14
3 25 5 24
3 25 114 116
3 116 115 5
3 114 115 116
3 119 118 25
3 117 118 119
