ply
format ascii 1.0
element vertex 214
property float x
property float y
property float z
element face 210
property list uchar int vertex_index
end_header
1.014855 1.89239 59.770714
8.3695 2.706044 54.154182
2.369556 -5.473902 59.869808
9.84403 11.034431 51.377651
11.004788 6.98488 51.178875
7.417706 6.46936 54.219276
-2.104294 -1.94912 62.497784
1.758745 -1.888355 59.817875
-1.658374 -5.845347 62.678066
3.750777 6.151599 57.051296
0.175642 6.075081 59.633076
-2.68223 2.22377 62.293983
4.618875 2.093827 57.139339
5.51197 -1.499527 57.049797
8.054029 10.842321 52.859711
8.620498 8.774754 52.822678
6.865528 8.596045 54.237732
-3.874174 -3.67579 63.901405
-1.932951 -3.871426 62.62785
-3.603167 -5.608146 63.940079
-3.275092 -7.603749 63.933304
-4.584855 2.297548 63.570122
-4.266916 0.305844 63.652199
9.762389 4.79783 52.638477
11.591844 5.123685 51.020962
10.204387 2.961864 52.609566
8.915031 0.82031 54.048023
2.428572 4.132977 58.38736
4.377028 4.126841 56.966095
2.88646 2.08488 58.406651
2.014986 -3.763595 59.896053
3.636446 -1.664283 58.446594
4.025486 -3.443121 58.419937
5.963316 -3.162093 56.95343
10.497473 9.091067 51.212978
9.246928 6.829669 52.685032
7.977189 4.640095 54.11639
-0.522384 -0.100053 61.152451
1.442986 0.059547 59.754055
-0.147586 -1.904294 61.150993
-0.001338 -3.784585 61.301163
0.402819 -5.581734 61.250282
-1.143618 -7.543667 62.522774
5.05117 8.449192 55.637547
3.286236 8.337515 56.953312
1.906838 6.149865 58.388405
0.549561 3.981029 59.753132
-1.232384 4.102648 60.981361
-0.865054 1.910796 61.085514
-2.49681 -0.009341 62.499058
-4.107669 -1.743687 63.820053
12.705714 7.218869 49.630825
13.169128 5.373999 49.566891
5.608573 6.408314 55.62077
6.115299 4.290843 55.629211
6.55992 2.323413 55.636925
3.198408 0.034002 58.506634
5.066117 0.233964 57.111488
7.051937 0.558679 55.558289
7.398347 -1.140699 55.564396
6.499594 9.633349 54.302831
7.459779 9.719183 53.548721
7.093844 10.756487 53.613821
-4.6094 -5.587789 64.589832
-3.738671 -4.641968 63.920742
-4.744904 -4.621612 64.570495
-4.503735 -6.586592 64.616635
-4.6094 -5.587789 64.589832
7.093844 10.756487 53.613821
7.680226 11.908535 52.923437
-5.471359 2.568297 64.10825
-4.6667 3.362417 63.447544
-5.553204 3.633166 63.985672
-5.352529 1.499058 64.191639
-5.471359 2.568297 64.10825
3.393055 -5.343894 59.119427
4.22102 -4.328504 58.394491
3.197521 -4.458512 59.144872
2.611124 -6.271107 59.792986
3.393055 -5.343894 59.119427
10.170751 10.062749 51.295315
11.052881 10.172399 50.522228
10.72616 11.144081 50.604564
-3.134821 -8.485385 63.926462
-4.145802 -8.493422 64.571396
10.366912 12.144035 50.710608
9.443676 12.088151 51.48513
10.72616 11.144081 50.604564
10.366912 12.144035 50.710608
2.909584 9.394196 56.996645
3.80358 9.439194 56.343813
1.04124 6.112473 59.01074
1.682357 7.182847 58.339365
0.816759 7.145455 58.961701
-1.957307 3.163209 61.637672
-2.122666 4.152656 61.586959
-2.847589 3.213217 62.24327
-5.093041 -1.611896 64.44825
-4.187292 -0.718921 63.736126
-5.172665 -0.587131 64.364323
-4.944384 -2.656788 64.477489
-5.093041 -1.611896 64.44825
11.855251 7.101875 50.40485
12.459297 8.252436 49.656101
11.608833 8.135442 50.430126
12.575633 4.316612 50.300075
12.380486 5.248842 50.293926
11.786991 4.191456 51.027111
13.459871 4.542358 49.466282
12.575633 4.316612 50.300075
6.910025 -2.994072 56.202139
6.165373 -4.057002 56.915676
-4.339697 -7.584394 64.613247
-3.439129 -6.605947 63.936691
-4.503735 -6.586592 64.616635
-4.145802 -8.493422 64.571396
-4.339697 -7.584394 64.613247
8.548675 11.992096 52.22616
7.680226 11.908535 52.923437
8.949029 10.938376 52.118681
9.443676 12.088151 51.48513
8.548675 11.992096 52.22616
-0.040338 7.14662 59.56603
0.816759 7.145455 58.961701
-3.798902 3.250106 62.88134
-4.6667 3.362417 63.447544
-3.633542 2.260659 62.932052
-2.847589 3.213217 62.24327
-3.798902 3.250106 62.88134
-5.19356 0.503207 64.232678
-4.425885 1.301696 63.61116
-5.352529 1.499058 64.191639
-5.172665 -0.587131 64.364323
-5.19356 0.503207 64.232678
11.093263 3.110545 51.821413
11.786991 4.191456 51.027111
10.898115 4.042775 51.815264
10.45694 2.095359 52.554436
11.093263 3.110545 51.821413
9.812262 1.024582 53.273664
10.45694 2.095359 52.554436
9.559709 1.891087 53.328795
9.141163 0.026009 53.995176
9.812262 1.024582 53.273664
5.189934 -4.187989 57.661237
4.994401 -3.302607 57.686684
4.22102 -4.328504 58.394491
6.165373 -4.057002 56.915676
5.189934 -4.187989 57.661237
11.355176 9.188536 50.447177
11.052881 10.172399 50.522228
10.75113 8.037973 51.195926
11.608833 8.135442 50.430126
11.355176 9.188536 50.447177
0.593199 -6.495535 61.226175
1.576568 -6.441619 60.535938
1.386188 -5.527818 60.560045
-0.180019 -7.476502 61.862421
0.593199 -6.495535 61.226175
-0.370399 -6.562701 61.886528
-1.054419 -8.435113 62.552445
-0.180019 -7.476502 61.862421
-2.069084 -8.455343 63.221198
-2.209355 -7.573708 63.228039
-3.134821 -8.485385 63.926462
-1.054419 -8.435113 62.552445
-2.069084 -8.455343 63.221198
4.686047 9.495033 55.68593
5.592415 9.559922 55.002739
4.168703 8.393353 56.295429
4.686047 9.495033 55.68593
3.80358 9.439194 56.343813
2.372056 8.276672 57.621819
2.909584 9.394196 56.996645
2.596537 7.24369 57.670858
2.372056 8.276672 57.621819
1.682357 7.182847 58.339365
-0.690086 6.146895 60.22354
-0.040338 7.14662 59.56603
-1.394099 5.160678 60.897682
-2.122666 4.152656 61.586959
-0.528371 5.088864 60.307219
-0.690086 6.146895 60.22354
-1.394099 5.160678 60.897682
-4.827637 -3.622839 64.518165
-3.990921 -2.709739 63.860729
-4.944384 -2.656788 64.477489
-4.744904 -4.621612 64.570495
-4.827637 -3.622839 64.518165
13.298159 8.363215 48.863602
12.459297 8.252436 49.656101
13.536049 7.383738 48.829994
13.298159 8.363215 48.863602
13.767756 6.461303 48.798027
13.536049 7.383738 48.829994
12.937421 6.296434 49.598858
14.02891 5.534757 48.735411
13.767756 6.461303 48.798027
14.319653 4.703117 48.634802
14.02891 5.534757 48.735411
13.459871 4.542358 49.466282
5.958349 8.522619 54.93764
6.499594 9.633349 54.302831
5.592415 9.559922 55.002739
8.38282 -0.954495 54.753363
9.141163 0.026009 53.995176
8.156689 -0.160194 54.80621
7.627541 -1.983375 55.507622
6.680832 -2.151396 56.258913
6.910025 -2.994072 56.202139
8.38282 -0.954495 54.753363
7.627541 -1.983375 55.507622
2.611124 -6.271107 59.792986
1.576568 -6.441619 60.535938
3 60 16 61
3 62 61 14
3 60 61 62
3 63 19 64
3 65 64 17
3 63 64 65
3 67 66 19
3 68 14 69
3 70 21 71
3 70 71 72
3 74 73 21
3 1 25 23
3 1 26 25
3 0 29 27
3 2 32 30
3 2 75 77
3 77 76 32
3 75 76 77
3 2 78 79
3 3 80 82
3 80 34 81
3 80 81 82
3 5 35 15
3 5 36 35
3 6 39 37
3 8 40 18
3 8 41 40
3 8 42 41
3 84 83 20
3 3 85 86
3 3 87 88
3 89 44 90
3 10 91 93
3 91 45 92
3 91 92 93
3 10 46 45
3 11 94 96
3 94 47 95
3 94 95 96
3 11 48 47
3 11 49 48
3 97 50 98
3 99 98 22
3 97 98 99
3 101 100 50
3 4 102 104
3 102 51 103
3 102 103 104
3 105 52 106
3 107 106 24
3 105 106 107
3 109 108 52
3 9 53 43
3 12 54 28
3 12 55 54
3 7 56 38
3 13 57 31
3 13 58 57
3 13 59 58
3 111 110 33
3 14 15 3
3 16 15 14
3 16 5 15
3 17 18 6
3 19 18 17
3 19 8 18
3 19 20 8
3 112 20 113
3 114 113 19
3 112 113 114
3 116 115 20
3 14 117 118
3 14 119 121
3 119 3 120
3 119 120 121
3 122 10 123
3 21 124 125
3 21 126 128
3 126 11 127
3 126 127 128
3 21 22 11
3 129 22 130
3 131 130 21
3 129 130 131
3 133 132 22
3 23 24 4
3 25 24 23
3 25 134 136
3 136 135 24
3 134 135 136
3 25 137 138
3 26 139 141
3 141 140 25
3 139 140 141
3 26 142 143
3 27 28 9
3 29 28 27
3 29 12 28
3 30 31 7
3 32 31 30
3 32 13 31
3 32 33 13
3 144 33 145
3 146 145 32
3 144 145 146
3 148 147 33
3 34 149 150
3 34 151 153
3 151 4 152
3 151 152 153
3 15 34 3
3 35 34 15
3 35 4 34
3 35 23 4
3 36 23 35
3 36 1 23
3 37 38 0
3 39 38 37
3 39 7 38
3 18 39 6
3 40 39 18
3 40 7 39
3 40 30 7
3 41 30 40
3 41 2 30
3 41 154 156
3 156 155 2
3 154 155 156
3 42 157 159
3 159 158 41
3 157 158 159
3 42 160 161
3 20 42 8
3 162 42 163
3 164 163 20
3 162 163 164
3 166 165 42
3 167 43 168
3 44 169 171
3 169 43 170
3 169 170 171
3 44 9 43
3 172 44 173
3 45 174 176
3 174 44 175
3 174 175 176
3 45 9 44
3 45 27 9
3 46 27 45
3 46 0 27
3 177 10 178
3 47 179 180
3 47 181 183
3 181 10 182
3 181 182 183
3 47 46 10
3 48 46 47
3 48 0 46
3 48 37 0
3 49 37 48
3 49 6 37
3 22 49 11
3 50 49 22
3 50 6 49
3 50 17 6
3 184 17 185
3 186 185 50
3 184 185 186
3 188 187 17
3 51 189 190
3 51 191 192
3 24 51 4
3 52 51 24
3 52 193 195
3 195 194 51
3 193 194 195
3 52 196 197
3 200 199 52
3 198 199 200
3 43 201 203
3 201 16 202
3 201 202 203
3 53 16 43
3 53 5 16
3 28 53 9
3 54 53 28
3 54 5 53
3 54 36 5
3 55 36 54
3 55 1 36
3 38 29 0
3 56 29 38
3 56 12 29
3 31 56 7
3 57 56 31
3 57 12 56
3 57 55 12
3 58 55 57
3 58 1 55
3 58 26 1
3 59 26 58
3 59 204 206
3 206 205 26
3 204 205 206
3 33 59 13
3 207 59 208
3 209 208 33
3 207 208 209
3 211 210 59
3 213 212 2
