ply
format ascii 1.0
element vertex 198
property float x
property float y
property float z
element face 187
property list uchar int vertex_index
end_header
36.641014 8.518458 3.185251
30.506926 8.720724 -1.543802
33.766495 8.313269 0.670713
31.733643 3.285143 0.777332
34.752598 3.399236 3.130344
38.94191 8.641575 6.243279
37.498096 3.654954 6.026077
27.339838 9.001128 -3.196563
28.357309 3.459891 -1.378173
26.35968 14.932059 -4.804254
29.64995 14.371533 -3.264957
32.714741 13.963493 -1.440982
35.205048 8.411438 1.816845
34.286911 5.88457 1.845213
35.76506 5.882321 3.172767
39.711094 8.702167 7.750458
39.197086 6.28582 7.552872
28.902306 8.605126 -2.360826
27.737858 6.169209 -2.363871
29.401955 5.827757 -1.401584
32.39323 0.901332 2.032899
30.78701 0.964791 0.828085
36.60928 1.318764 5.933776
27.512602 17.930315 -4.853378
27.984238 14.677717 -4.08987
29.108881 17.384121 -4.059056
34.172058 13.979621 -0.394431
32.185516 8.377358 -0.446914
31.029858 5.818552 -0.447948
32.692749 5.772476 0.663872
33.328022 3.314257 1.947869
33.888168 0.754244 3.333774
37.871464 8.641675 4.622924
37.114998 6.075465 4.559154
38.285854 6.147512 6.084343
38.565735 3.827164 7.547598
26.911406 3.552381 -2.201324
30.009371 3.331115 -0.365439
36.253773 3.551307 4.568626
35.315113 1.050275 4.591131
26.781961 11.805683 -4.033105
28.422337 11.721244 -3.298103
29.967579 11.415853 -2.482389
30.702097 17.141705 -3.205956
31.181591 14.241516 -2.431258
31.703632 11.244583 -1.483003
33.331478 11.129239 -0.400931
34.800919 11.209645 0.705628
36.196381 11.077176 2.020424
37.424633 11.129517 3.384004
38.454811 11.08395 4.837113
39.848662 7.657708 8.466322
40.007366 8.793919 8.534199
31.947803 -0.322182 2.064038
32.695707 -0.331416 2.696794
28.099559 19.373667 -4.799241
27.332198 19.504175 -5.159956
28.897699 19.10057 -4.40208
28.310741 17.657218 -4.456217
28.099559 19.373667 -4.799241
39.025442 4.058377 8.322589
38.881411 5.056492 7.550235
39.341117 5.287705 8.325226
38.700991 2.765494 8.355845
39.025442 4.058377 8.322589
26.807257 7.647505 -3.15314
26.538945 9.055674 -3.563436
27.983949 2.258794 -1.318465
27.260997 2.305039 -1.73004
27.634358 3.506136 -1.789748
29.959879 0.964314 0.273797
30.347521 -0.238383 0.839179
35.573057 -0.058823 5.343413
35.962196 1.184519 5.262453
36.22014 0.075421 6.014736
34.912265 -0.189831 4.669973
35.573057 -0.058823 5.343413
25.554378 15.174839 -5.154554
26.148703 16.540076 -5.158914
25.783155 13.595787 -4.78316
25.554378 15.174839 -5.154554
26.57082 13.368871 -4.418679
25.994295 12.032599 -4.397585
25.783155 13.595787 -4.78316
31.180378 18.554279 -3.091078
30.434832 18.6925 -3.559105
31.948166 14.102505 -1.93612
31.719164 15.600603 -2.336614
32.485739 15.461591 -1.841476
35.224318 12.516611 0.814423
34.486489 12.594633 0.155599
34.909887 13.901599 0.264394
35.922049 12.450377 1.471821
35.49865 11.14341 1.363026
35.224318 12.516611 0.814423
37.713085 12.308688 3.589899
37.186777 12.369893 2.871779
38.228174 12.285905 4.316453
37.939722 11.106734 4.110558
37.713085 12.308688 3.589899
39.591657 6.449535 8.367529
39.45409 7.493994 7.651665
39.848662 7.657708 8.466322
39.341117 5.287705 8.325226
39.591657 6.449535 8.367529
31.144693 -0.290453 1.461631
31.59012 0.933061 1.430492
31.947803 -0.322182 2.064038
30.347521 -0.238383 0.839179
31.144693 -0.290453 1.461631
37.215998 1.381046 6.735041
37.053688 2.486859 5.979926
37.660406 2.549141 6.781192
36.839603 0.24318 6.745439
37.215998 1.381046 6.735041
36.22014 0.075421 6.014736
36.839603 0.24318 6.745439
26.725164 18.039203 -5.183477
27.332198 19.504175 -5.159956
26.936141 16.431187 -4.828816
26.148703 16.540076 -5.158914
26.725164 18.039203 -5.183477
33.202803 15.3843 -1.316725
32.485739 15.461591 -1.841476
33.931461 15.392364 -0.79345
33.443399 13.971557 -0.917706
33.202803 15.3843 -1.316725
34.620794 15.151758 -0.173696
33.931461 15.392364 -0.79345
34.909887 13.901599 0.264394
34.620794 15.151758 -0.173696
33.443176 -0.40496 3.347231
32.695707 -0.331416 2.696794
33.140699 0.827788 2.683337
38.194226 2.635246 7.541952
37.660406 2.549141 6.781192
38.031915 3.741059 6.786837
38.194226 2.635246 7.541952
38.700991 2.765494 8.355845
27.006266 6.231546 -2.736794
26.807257 7.647505 -3.15314
27.538848 7.585168 -2.780217
26.593041 4.923132 -2.65552
27.006266 6.231546 -2.736794
27.324632 4.860795 -2.282598
26.199968 3.730853 -2.619764
26.593041 4.923132 -2.65552
26.574002 2.423732 -2.173191
26.199968 3.730853 -2.619764
26.574002 2.423732 -2.173191
27.260997 2.305039 -1.73004
29.57106 2.147476 -0.322965
30.39819 2.147953 0.231323
29.959879 0.964314 0.273797
28.745029 2.211863 -0.829332
29.18334 3.395503 -0.871806
29.57106 2.147476 -0.322965
27.983949 2.258794 -1.318465
28.745029 2.211863 -0.829332
34.198793 -0.337847 4.041294
34.601641 0.902259 3.962452
34.912265 -0.189831 4.669973
33.443176 -0.40496 3.347231
34.198793 -0.337847 4.041294
26.260006 10.457952 -3.981707
25.994295 12.032599 -4.397585
27.060899 10.403405 -3.614834
26.538945 9.055674 -3.563436
26.260006 10.457952 -3.981707
29.638224 18.813707 -3.985654
28.897699 19.10057 -4.40208
29.905489 17.262913 -3.632506
29.638224 18.813707 -3.985654
30.434832 18.6925 -3.559105
31.479417 17.050697 -2.723963
31.180378 18.554279 -3.091078
30.941844 15.691611 -2.818607
31.479417 17.050697 -2.723963
31.719164 15.600603 -2.336614
36.572651 12.343723 2.18999
35.922049 12.450377 1.471821
36.810507 11.103347 2.702214
36.572651 12.343723 2.18999
37.186777 12.369893 2.871779
38.673533 12.177209 5.095357
38.228174 12.285905 4.316453
38.899881 11.029946 5.647308
38.673533 12.177209 5.095357
39.143431 9.808759 6.35039
38.69836 9.862762 5.540196
38.899881 11.029946 5.647308
39.528023 9.839055 7.10398
39.326502 8.671871 6.996868
39.143431 9.808759 6.35039
39.865176 9.847643 7.940976
39.528023 9.839055 7.10398
40.007366 8.793919 8.534199
39.865176 9.847643 7.940976
3 0 14 12
3 52 51 15
3 1 19 17
3 54 53 20
3 55 23 56
3 57 25 58
3 59 58 23
3 57 58 59
3 2 29 27
3 4 30 13
3 4 31 30
3 5 34 32
3 60 35 61
3 62 61 16
3 60 61 62
3 64 63 35
3 7 65 66
3 8 36 18
3 8 67 69
3 69 68 36
3 67 68 69
3 3 37 28
3 71 70 21
3 6 38 33
3 72 39 73
3 74 73 22
3 72 73 74
3 76 75 39
3 9 77 78
3 9 79 80
3 9 81 83
3 81 40 82
3 81 82 83
3 10 41 24
3 10 42 41
3 84 43 85
3 11 86 88
3 86 44 87
3 86 87 88
3 11 45 44
3 11 46 45
3 89 47 90
3 91 90 26
3 89 90 91
3 92 48 93
3 94 93 47
3 92 93 94
3 95 49 96
3 97 50 98
3 99 98 49
3 97 98 99
3 12 13 2
3 14 13 12
3 14 4 13
3 15 16 5
3 100 16 101
3 102 101 15
3 100 101 102
3 104 103 16
3 17 18 7
3 19 18 17
3 19 8 18
3 20 21 3
3 105 21 106
3 107 106 20
3 105 106 107
3 109 108 21
3 110 22 111
3 112 111 6
3 110 111 112
3 113 22 114
3 116 115 22
3 23 117 118
3 23 119 121
3 119 9 120
3 119 120 121
3 23 24 9
3 25 24 23
3 25 10 24
3 122 11 123
3 124 26 125
3 126 125 11
3 124 125 126
3 127 26 128
3 130 129 26
3 27 28 1
3 29 28 27
3 29 3 28
3 13 29 2
3 30 29 13
3 30 3 29
3 30 20 3
3 31 20 30
3 31 131 133
3 133 132 20
3 131 132 133
3 32 33 0
3 34 33 32
3 34 6 33
3 16 34 5
3 35 34 16
3 35 6 34
3 35 134 136
3 136 135 6
3 134 135 136
3 138 137 35
3 18 139 141
3 141 140 7
3 139 140 141
3 36 142 144
3 144 143 18
3 142 143 144
3 36 145 146
3 36 147 148
3 150 149 36
3 28 19 1
3 37 19 28
3 37 8 19
3 21 37 3
3 151 37 152
3 153 152 21
3 151 152 153
3 154 8 155
3 156 155 37
3 154 155 156
3 158 157 8
3 33 14 0
3 38 14 33
3 38 4 14
3 22 38 6
3 39 38 22
3 39 4 38
3 39 31 4
3 159 31 160
3 161 160 39
3 159 160 161
3 163 162 31
3 40 164 165
3 40 166 168
3 166 7 167
3 166 167 168
3 24 40 9
3 41 40 24
3 41 7 40
3 41 17 7
3 42 17 41
3 42 1 17
3 169 25 170
3 43 171 173
3 171 25 172
3 171 172 173
3 43 10 25
3 174 43 175
3 44 176 178
3 176 43 177
3 176 177 178
3 44 10 43
3 44 42 10
3 45 42 44
3 45 1 42
3 45 27 1
3 46 27 45
3 46 2 27
3 26 46 11
3 47 46 26
3 47 2 46
3 47 12 2
3 48 12 47
3 48 0 12
3 179 48 180
3 49 181 183
3 181 48 182
3 181 182 183
3 49 0 48
3 49 32 0
3 50 32 49
3 50 5 32
3 184 50 185
3 186 50 187
3 188 5 189
3 190 189 50
3 188 189 190
3 191 15 192
3 193 192 5
3 191 192 193
3 194 15 195
3 197 196 15
