ply
format ascii 1.0
element vertex 106
property float x
property float y
property float z
element face 93
property list uchar int vertex_index
end_header
22.192945 77.413986 -48.906933
21.477091 90.56929 -44.494705
19.665134 84.51371 -47.581322
24.075443 83.840958 -46.441017
17.670345 78.048195 -49.468719
23.632814 90.317558 -43.675503
22.809784 87.613541 -45.483536
24.786673 86.938141 -44.758392
25.997536 83.190941 -45.542343
20.985474 80.997055 -48.367168
18.672007 81.405151 -48.631306
20.009626 77.785126 -49.287769
18.979261 74.331573 -50.017651
21.207558 73.874168 -49.759262
23.119493 73.509895 -49.337795
19.037836 90.897644 -44.94384
18.320171 87.911064 -46.470192
20.551247 87.84404 -46.120361
21.954992 84.548866 -47.028275
23.107527 80.689171 -47.840897
24.235041 76.564171 -48.40163
25.146719 79.89183 -47.165707
17.237043 84.722961 -47.757648
24.632464 89.86554 -43.243713
24.02693 91.529811 -42.613558
25.209393 88.175831 -43.785158
24.209744 88.627849 -44.216948
24.632464 89.86554 -43.243713
25.76431 86.38675 -44.275993
25.209393 88.175831 -43.785158
20.694356 92.073723 -43.821281
21.838507 91.950859 -43.486496
20.257464 90.733467 -44.719273
19.474728 92.2379 -44.045849
20.694356 92.073723 -43.821281
27.458964 80.583435 -45.299361
26.500492 81.196003 -45.860756
26.956008 82.578373 -44.980947
17.011979 79.708435 -49.108849
17.51281 81.386913 -48.690142
18.171176 79.726673 -49.050013
16.450198 77.908638 -49.493256
17.011979 79.708435 -49.108849
17.151941 76.261669 -49.789766
16.450198 77.908638 -49.493256
18.292943 72.582783 -50.292315
19.381509 72.312625 -50.231638
24.683613 74.637806 -48.552106
25.172494 76.219479 -48.015427
22.916369 91.824993 -43.076895
24.02693 91.529811 -42.613558
22.554952 90.443424 -44.085104
21.838507 91.950859 -43.486496
22.916369 91.824993 -43.076895
26.369741 84.513149 -44.667969
25.392105 85.064541 -45.150368
25.76431 86.38675 -44.275993
26.956008 82.578373 -44.980947
26.369741 84.513149 -44.667969
20.495657 72.083923 -50.102443
19.381509 72.312625 -50.231638
20.093409 74.10287 -49.888457
21.540592 71.835296 -49.944533
20.495657 72.083923 -50.102443
22.49656 71.65316 -49.733799
21.540592 71.835296 -49.944533
22.163525 73.692031 -49.548529
23.48988 71.302624 -49.490812
22.49656 71.65316 -49.733799
18.281852 92.177269 -44.30314
19.474728 92.2379 -44.045849
17.7864 90.790168 -45.123345
18.281852 92.177269 -44.30314
18.679004 89.404354 -45.707016
17.427567 89.296878 -45.886521
17.7864 90.790168 -45.123345
25.628333 77.883308 -47.397465
25.172494 76.219479 -48.015427
24.69088 78.228001 -47.783668
26.075083 79.546447 -46.672438
25.572128 81.541385 -46.354025
26.500492 81.196003 -45.860756
25.628333 77.883308 -47.397465
26.075083 79.546447 -46.672438
17.091275 87.73317 -46.599838
17.427567 89.296878 -45.886521
16.549711 86.139118 -47.243567
17.091275 87.73317 -46.599838
17.778607 86.317013 -47.11392
16.05017 84.508167 -47.810194
16.549711 86.139118 -47.243567
16.795328 83.045818 -48.253313
17.954525 83.064056 -48.194477
17.51281 81.386913 -48.690142
16.05017 84.508167 -47.810194
16.795328 83.045818 -48.253313
17.806399 74.403358 -50.064232
17.151941 76.261669 -49.789766
18.324803 76.189884 -49.743185
17.806399 74.403358 -50.064232
18.292943 72.582783 -50.292315
24.125839 73.110668 -49.020189
23.677267 75.037033 -48.869712
24.683613 74.637806 -48.552106
23.48988 71.302624 -49.490812
24.125839 73.110668 -49.020189
3 23 5 24
3 25 7 26
3 27 26 5
3 25 26 27
3 29 28 7
3 0 11 9
3 0 13 11
3 0 14 13
3 1 30 31
3 1 32 34
3 32 15 33
3 32 33 34
3 1 17 15
3 3 18 6
3 3 19 18
3 3 21 19
3 37 36 8
3 35 36 37
3 2 22 16
3 4 38 40
3 40 39 10
3 38 39 40
3 4 41 42
3 4 43 44
3 46 45 12
3 48 47 20
3 5 49 50
3 5 51 53
3 51 1 52
3 51 52 53
3 5 6 1
3 7 6 5
3 7 3 6
3 7 8 3
3 54 8 55
3 56 55 7
3 54 55 56
3 58 57 8
3 9 10 2
3 11 10 9
3 11 4 10
3 11 12 4
3 13 12 11
3 13 59 61
3 61 60 12
3 59 60 61
3 13 62 63
3 14 64 66
3 66 65 13
3 64 65 66
3 14 67 68
3 15 69 70
3 15 71 72
3 15 73 75
3 73 16 74
3 73 74 75
3 17 16 15
3 17 2 16
3 6 17 1
3 18 17 6
3 18 2 17
3 18 9 2
3 19 9 18
3 19 0 9
3 19 20 0
3 21 20 19
3 21 76 78
3 78 77 20
3 76 77 78
3 8 21 3
3 79 21 80
3 81 80 8
3 79 80 81
3 83 82 21
3 16 84 85
3 22 86 88
3 88 87 16
3 86 87 88
3 22 89 90
3 10 22 2
3 91 22 92
3 93 92 10
3 91 92 93
3 95 94 22
3 12 96 98
3 98 97 4
3 96 97 98
3 100 99 12
3 20 14 0
3 101 14 102
3 103 102 20
3 101 102 103
3 105 104 14
