ply
format ascii 1.0
element vertex 184
property float x
property float y
property float z
element face 171
property list uchar int vertex_index
end_header
-10.101385 106.223206 -25.129707
-4.306807 103.732971 -13.232364
-13.043454 105.180893 -30.8752
-1.788754 100.818565 -7.56439
-12.246848 107.284279 -19.295313
-17.111832 107.651215 -18.909557
-15.270865 107.01149 -25.316885
-4.045904 99.911873 -1.638051
-6.788849 103.487556 -7.16234
-9.507905 106.035065 -13.050268
-7.143116 105.672546 -19.207327
-10.98574 106.855499 -22.183645
-13.617695 107.342049 -22.288857
-12.627364 106.754204 -25.308369
-15.539567 105.367554 -30.869761
-1.822066 98.554924 -1.704334
-3.145847 102.407333 -10.181986
-4.344572 102.232368 -7.27825
-5.602423 103.766838 -10.294111
-8.078795 104.918137 -10.231667
-6.967606 105.026344 -13.177876
-8.282625 105.960846 -16.110426
-5.700906 104.841408 -16.019863
-8.767202 105.202621 -27.80497
-11.428704 105.827972 -28.185436
-0.740985 99.055695 -4.556604
-1.821407 102.277092 -12.926523
-3.173112 103.554344 -16.07494
-13.340814 107.402908 -16.071182
-14.778327 107.648026 -19.307344
-16.147934 107.489075 -22.185415
-14.062482 106.258865 -28.092289
-16.556877 106.271347 -28.155016
-3.010367 100.507744 -4.596641
-5.324234 101.723465 -4.269065
-7.752947 102.951042 -4.164104
-9.120686 104.508347 -7.003357
-10.510173 105.786362 -9.888243
-11.892569 106.761131 -12.921429
-10.89912 106.854927 -16.272644
-9.601955 106.580948 -19.296072
-8.488485 106.081032 -22.373625
-4.453127 104.439682 -18.943151
-5.787967 105.022491 -21.987133
-7.260579 105.316849 -24.831129
-0.634207 97.82066 -1.84436
-1.206086 97.525093 -0.400733
-9.485098 104.924243 -29.277598
-8.06769 104.532768 -29.083348
-0.529583 101.457191 -12.877876
-1.211831 101.574272 -11.563199
-1.207485 102.146466 -14.348275
-0.529583 101.457191 -12.877876
-16.410872 106.989441 -25.112032
-16.849407 107.228234 -23.546297
-15.709399 107.250282 -23.75115
-17.232078 105.709412 -29.533077
-16.048222 105.819451 -29.512389
-16.723423 105.257515 -30.89045
-17.7495 106.099052 -28.080634
-17.232078 105.709412 -29.533077
-4.617159 99.530098 -0.076299
-3.469358 98.889988 -0.215575
-5.226154 100.534042 -1.515665
-4.617159 99.530098 -0.076299
-3.079093 103.695545 -18.898737
-3.813119 103.997013 -17.509045
-2.439085 103.252876 -17.464632
-5.148846 104.587257 -23.262456
-4.473482 104.384567 -21.85258
-5.885153 104.734436 -24.684454
-6.524273 105.16967 -23.409131
-5.148846 104.587257 -23.262456
-6.606129 104.77166 -26.124193
-5.885153 104.734436 -24.684454
-17.515487 107.591813 -17.254545
-16.330007 107.6465 -17.449672
-15.005048 104.734131 -32.209548
-14.291511 105.274224 -30.872481
-13.756992 104.6408 -32.212267
-16.23168 104.727501 -32.192329
-15.005048 104.734131 -32.209548
-16.723423 105.257515 -30.89045
-16.23168 104.727501 -32.192329
-2.357438 98.211513 -0.248717
-1.741459 97.181682 1.054885
-1.206086 97.525093 -0.400733
-2.933985 99.233398 -1.671193
-3.469358 98.889988 -0.215575
-2.357438 98.211513 -0.248717
-18.231043 107.459274 -18.855812
-17.852287 107.432484 -20.487355
-10.815849 105.236919 -29.467831
-10.097953 105.515297 -27.995203
-9.485098 104.924243 -29.277598
-11.623224 104.913379 -30.812714
-12.236079 105.504433 -29.530318
-10.815849 105.236919 -29.467831
-12.38547 104.478809 -32.156121
-11.623224 104.913379 -30.812714
-13.756992 104.6408 -32.212267
-12.38547 104.478809 -32.156121
0.4452 98.265739 -4.605042
-0.093666 98.071045 -3.270495
1.092519 97.28109 -3.318933
-0.071609 99.111031 -5.901548
0.4452 98.265739 -4.605042
-0.595493 99.992466 -7.405441
-1.26487 99.93713 -6.060497
-0.071609 99.111031 -5.901548
-1.195505 100.845009 -8.882133
-0.595493 99.992466 -7.405441
-1.874051 101.639392 -10.190931
-2.4673 101.612949 -8.873188
-1.195505 100.845009 -8.882133
-2.483627 102.342212 -11.554254
-1.874051 101.639392 -10.190931
-1.211831 101.574272 -11.563199
-1.883337 102.785091 -15.922484
-2.49726 102.915718 -14.500732
-1.207485 102.146466 -14.348275
-2.439085 103.252876 -17.464632
-1.883337 102.785091 -15.922484
-14.444498 107.522346 -16.030485
-13.795809 107.315827 -14.448362
-15.163255 107.644905 -17.648566
-14.444498 107.522346 -16.030485
-14.05957 107.525467 -17.689263
-15.94508 107.64962 -19.108451
-16.330007 107.6465 -17.449672
-15.163255 107.644905 -17.648566
-17.370338 107.351414 -22.125284
-17.852287 107.432484 -20.487355
-16.629883 107.570145 -20.547486
-17.370338 107.351414 -22.125284
-16.849407 107.228234 -23.546297
-17.053878 106.61937 -26.531098
-16.410872 106.989441 -25.112032
-15.913871 106.641419 -26.735951
-17.053878 106.61937 -26.531098
-17.7495 106.099052 -28.080634
-1.281525 98.805309 -3.130469
-0.634207 97.82066 -1.84436
-0.093666 98.071045 -3.270495
-5.865318 101.439839 -2.831172
-5.226154 100.534042 -1.515665
-4.685069 100.817669 -2.953558
-7.079675 102.053627 -2.778691
-5.865318 101.439839 -2.831172
-6.53859 102.337254 -4.216584
-8.324947 102.607307 -2.571709
-7.079675 102.053627 -2.778691
-8.965027 103.446563 -4.025915
-8.324947 102.607307 -2.571709
-9.648896 104.225216 -5.445542
-8.965027 103.446563 -4.025915
-8.436816 103.729694 -5.58373
-10.306728 104.918435 -6.884167
-9.648896 104.225216 -5.445542
-11.001472 105.557442 -8.326609
-10.306728 104.918435 -6.884167
-9.81543 105.147355 -8.4458
-11.723599 106.125904 -9.839341
-11.001472 105.557442 -8.326609
-12.414797 106.613289 -11.355934
-11.723599 106.125904 -9.839341
-11.201371 106.273747 -11.404836
-13.071687 106.994938 -12.873485
-12.414797 106.613289 -11.355934
-12.616691 107.08202 -14.496306
-13.795809 107.315827 -14.448362
-13.071687 106.994938 -12.873485
-3.806062 104.093163 -20.330589
-3.079093 103.695545 -18.898737
-5.120547 104.731087 -20.465142
-3.806062 104.093163 -20.330589
-4.473482 104.384567 -21.85258
-7.35944 104.714546 -27.611114
-8.01389 105.259735 -26.31805
-6.606129 104.77166 -26.124193
-8.06769 104.532768 -29.083348
-7.35944 104.714546 -27.611114
-17.515487 107.591813 -17.254545
-18.231043 107.459274 -18.855812
3 0 13 11
3 45 15 46
3 1 18 16
3 1 20 18
3 1 22 20
3 48 47 23
3 49 26 50
3 52 51 26
3 4 29 28
3 6 30 12
3 6 53 55
3 55 54 30
3 53 54 55
3 2 31 24
3 56 32 57
3 58 57 14
3 56 57 58
3 60 59 32
3 7 61 62
3 7 63 64
3 3 33 25
3 8 34 17
3 8 35 34
3 8 36 35
3 9 37 19
3 9 38 37
3 9 39 38
3 10 40 21
3 10 41 40
3 65 42 66
3 67 66 27
3 65 66 67
3 68 43 69
3 70 44 71
3 72 71 43
3 70 71 72
3 74 73 44
3 5 75 76
3 11 12 4
3 13 12 11
3 13 6 12
3 77 14 78
3 79 78 2
3 77 78 79
3 80 14 81
3 83 82 14
3 15 84 86
3 84 85 86
3 15 87 89
3 87 7 88
3 87 88 89
3 16 17 3
3 18 17 16
3 18 8 17
3 18 19 8
3 20 19 18
3 20 9 19
3 20 21 9
3 22 21 20
3 22 10 21
3 91 90 5
3 23 24 0
3 92 24 93
3 94 93 23
3 92 93 94
3 95 2 96
3 97 96 24
3 95 96 97
3 98 2 99
3 101 100 2
3 102 25 103
3 102 103 104
3 105 25 106
3 107 3 108
3 109 108 25
3 107 108 109
3 110 3 111
3 112 16 113
3 114 113 3
3 112 113 114
3 26 115 117
3 115 16 116
3 115 116 117
3 26 1 16
3 26 27 1
3 118 27 119
3 120 119 26
3 118 119 120
3 122 121 27
3 28 123 124
3 29 125 127
3 127 126 28
3 125 126 127
3 29 128 130
3 128 5 129
3 128 129 130
3 12 29 4
3 30 29 12
3 30 5 29
3 30 131 133
3 133 132 5
3 131 132 133
3 135 134 30
3 24 13 0
3 31 13 24
3 31 6 13
3 14 31 2
3 32 31 14
3 32 6 31
3 32 136 138
3 138 137 6
3 136 137 138
3 140 139 32
3 25 141 143
3 141 15 142
3 141 142 143
3 33 15 25
3 33 7 15
3 17 33 3
3 34 33 17
3 34 7 33
3 34 144 146
3 146 145 7
3 144 145 146
3 35 147 149
3 149 148 34
3 147 148 149
3 35 150 151
3 35 152 153
3 36 154 156
3 156 155 35
3 154 155 156
3 36 157 158
3 19 36 8
3 37 36 19
3 37 159 161
3 161 160 36
3 159 160 161
3 37 162 163
3 38 164 166
3 166 165 37
3 164 165 166
3 38 167 168
3 38 169 171
3 169 28 170
3 169 170 171
3 39 28 38
3 39 4 28
3 21 39 9
3 40 39 21
3 40 4 39
3 40 11 4
3 41 11 40
3 41 0 11
3 27 22 1
3 42 22 27
3 42 10 22
3 172 42 173
3 43 174 176
3 174 42 175
3 174 175 176
3 43 10 42
3 43 41 10
3 44 41 43
3 44 0 41
3 44 23 0
3 177 23 178
3 179 178 44
3 177 178 179
3 181 180 23
3 183 182 5
