ply
format ascii 1.0
element vertex 109
property float x
property float y
property float z
element face 91
property list uchar int vertex_index
end_header
-28.787457 -61.92807 45.882385
-28.794918 -64.116425 41.209087
-27.365702 -66.726562 43.638107
-27.450619 -68.836082 38.652119
-25.262922 -68.29998 45.836895
-28.15036 -66.5504 40.027294
-28.066473 -62.87923 47.437378
-26.537905 -68.934959 42.28474
-26.443089 -67.481247 44.938541
-25.48942 -69.767761 43.283867
-24.192715 -70.396027 44.19281
-28.821056 -63.13007 43.41647
-28.136206 -64.297234 44.93417
-28.156054 -65.537857 42.47316
-27.416162 -67.920746 41.093758
-26.552547 -70.223785 39.706352
-29.307812 -59.367317 46.984295
-29.330214 -60.617458 44.633774
-27.282763 -65.26255 46.273514
-26.320345 -66.004326 47.342014
-28.426965 -62.40365 46.659881
-28.421659 -61.609121 47.893017
-28.782151 -61.133541 47.115521
-25.509954 -70.475323 42.051597
-26.013662 -69.35136 42.784304
-26.034196 -70.058921 41.552034
-24.890269 -70.833984 42.547996
-25.509954 -70.475323 42.051597
-27.010665 -70.040451 37.947792
-26.561629 -70.734303 38.474908
-27.001583 -69.529933 39.179236
-29.508424 -58.121967 47.359019
-29.283493 -58.654871 48.117832
-29.523879 -59.954771 43.91445
-29.53347 -59.363634 45.080639
-29.328218 -61.127375 43.463278
-29.523879 -59.954771 43.91445
-25.164374 -67.479756 47.062248
-25.693086 -66.331929 47.814808
-25.791633 -67.152153 46.589455
-24.60353 -68.564026 46.219219
-25.164374 -67.479756 47.062248
-23.474716 -70.520436 44.618532
-23.537895 -71.411637 43.338526
-28.429994 -65.830788 39.410474
-28.472639 -65.333413 40.61819
-28.752273 -64.6138 40.001371
-28.128785 -66.976403 38.796086
-28.429994 -65.830788 39.410474
-27.778914 -68.119244 38.108498
-27.800489 -67.693241 39.339706
-28.128785 -66.976403 38.796086
-27.415621 -69.312416 37.406208
-27.778914 -68.119244 38.108498
-28.018645 -62.113752 48.611345
-28.421659 -61.609121 47.893017
-27.611516 -63.315135 48.072136
-28.018645 -62.113752 48.611345
-24.241917 -71.148118 43.002468
-24.841068 -70.081894 43.738338
-24.890269 -70.833984 42.547996
-23.587097 -72.163727 42.148184
-23.537895 -71.411637 43.338526
-24.241917 -71.148118 43.002468
-26.041517 -70.703335 40.26284
-26.034196 -70.058921 41.552034
-26.545226 -69.579372 40.995546
-26.086486 -71.311256 38.993149
-26.041517 -70.703335 40.26284
-26.086486 -71.311256 38.993149
-26.561629 -70.734303 38.474908
-27.010665 -70.040451 37.947792
-27.415621 -69.312416 37.406208
-29.042329 -59.853164 47.666476
-29.283493 -58.654871 48.117832
-29.047635 -60.647694 46.43334
-28.782151 -61.133541 47.115521
-29.042329 -59.853164 47.666476
-29.522268 -58.738563 46.255899
-29.508424 -58.121967 47.359019
-29.319013 -59.992387 45.809035
-29.522268 -58.738563 46.255899
-29.53347 -59.363634 45.080639
-29.073639 -62.38368 42.854626
-29.075635 -61.873764 44.025122
-29.328218 -61.127375 43.463278
-29.06057 -62.876858 41.750934
-28.807987 -63.623248 42.312778
-29.073639 -62.38368 42.854626
-29.023001 -63.381203 40.560041
-29.06057 -62.876858 41.750934
-28.752273 -64.6138 40.001371
-29.023001 -63.381203 40.560041
-27.219661 -64.506796 47.490204
-27.611516 -63.315135 48.072136
-27.674618 -64.07089 46.855446
-26.738452 -64.877684 48.024454
-27.219661 -64.506796 47.490204
-26.801554 -65.633438 46.807764
-26.210673 -65.22958 48.52935
-26.738452 -64.877684 48.024454
-26.210673 -65.22958 48.52935
-25.693086 -66.331929 47.814808
-24.068427 -69.61205 45.397177
-24.60353 -68.564026 46.219219
-24.727818 -69.348004 45.014853
-23.350428 -69.736458 45.822899
-24.068427 -69.61205 45.397177
-23.474716 -70.520436 44.618532
3 0 20 22
3 20 6 21
3 20 21 22
3 23 9 24
3 25 24 7
3 23 24 25
3 27 26 9
3 1 13 11
3 3 14 5
3 3 15 14
3 3 28 30
3 30 29 15
3 28 29 30
3 31 16 32
3 33 17 34
3 36 35 17
3 2 18 12
3 4 19 8
3 4 37 39
3 39 38 19
3 37 38 39
3 4 40 41
3 43 42 10
3 44 5 45
3 46 45 1
3 44 45 46
3 47 5 48
3 49 3 50
3 51 50 5
3 49 50 51
3 53 52 3
3 6 54 55
3 6 56 57
3 7 8 2
3 9 8 7
3 9 4 8
3 9 10 4
3 58 10 59
3 60 59 9
3 58 59 60
3 63 62 10
3 61 62 63
3 11 12 0
3 13 12 11
3 13 2 12
3 5 13 1
3 14 13 5
3 14 2 13
3 14 7 2
3 15 7 14
3 15 64 66
3 66 65 7
3 64 65 66
3 15 67 68
3 70 69 15
3 72 71 3
3 16 73 74
3 16 75 77
3 75 0 76
3 75 76 77
3 78 16 79
3 17 80 82
3 80 16 81
3 80 81 82
3 17 0 16
3 17 11 0
3 83 11 84
3 85 84 17
3 83 84 85
3 86 1 87
3 88 87 11
3 86 87 88
3 89 1 90
3 92 91 1
3 12 6 0
3 18 6 12
3 18 93 95
3 95 94 6
3 93 94 95
3 8 18 2
3 19 18 8
3 19 96 98
3 98 97 18
3 96 97 98
3 19 99 100
3 102 101 19
3 10 103 105
3 105 104 4
3 103 104 105
3 108 107 10
3 106 107 108
