ply
format ascii 1.0
element vertex 120
property float x
property float y
property float z
element face 100
property list uchar int vertex_index
end_header
-26.577215 -10.427498 -1.859916
-24.386044 -8.930233 -4.160193
-26.773281 -13.144411 -3.152482
-25.355312 -11.220985 -5.651246
-28.784342 -14.43709 -0.559285
-24.647291 -5.649778 -3.235133
-23.564173 -8.003903 -5.246374
-24.712479 -10.161271 -4.82541
-24.135893 -9.259463 -5.964876
-24.883627 -10.114203 -6.858728
-27.687988 -12.417455 -1.140467
-25.286106 -3.876714 -2.918326
-25.398506 -9.768581 -3.036196
-26.515675 -11.848907 -2.438535
-25.551357 -11.118936 -3.642823
-25.981339 -12.239854 -4.398224
-27.713703 -13.847642 -1.844419
-26.821987 -8.642361 -1.478315
-26.839289 -4.189847 -1.903986
-26.032995 -6.19749 -2.179746
-25.547182 -8.127142 -2.550659
-24.383558 -7.478839 -3.612376
-23.542631 -8.168115 -6.156078
-23.850033 -8.631683 -5.605625
-23.256771 -7.540335 -5.796828
-23.904407 -8.718406 -6.55381
-23.542631 -8.168115 -6.156078
-27.132601 -11.422477 -1.500191
-27.774146 -11.595502 -0.901995
-27.218759 -10.600523 -1.26172
-26.015267 -12.181874 -5.485838
-26.32828 -12.691309 -4.859327
-25.668326 -11.730419 -5.024735
-25.780423 -11.619699 -6.120527
-26.015267 -12.181874 -5.485838
-25.332686 -10.389134 -7.383066
-24.723779 -9.473534 -7.545395
-29.413291 -14.758159 0.126943
-28.87181 -13.684507 -0.215486
-29.433636 -15.47492 -0.190128
-30.062585 -15.79599 0.4961
-29.413291 -14.758159 0.126943
-27.192222 -7.697734 -1.264641
-27.574153 -8.823127 -0.874131
-26.467763 -2.932538 -2.35016
-27.322769 -3.088458 -1.842952
-24.278274 -9.145776 -7.000737
-24.50976 -9.686833 -6.411802
-23.904407 -8.718406 -6.55381
-24.723779 -9.473534 -7.545395
-24.278274 -9.145776 -7.000737
-28.323633 -12.674689 -0.506077
-27.774146 -11.595502 -0.901995
-28.236165 -13.427273 -0.849876
-28.87181 -13.684507 -0.215486
-28.323633 -12.674689 -0.506077
-27.416035 -14.109741 -2.897196
-27.034085 -13.663089 -3.573359
-24.968049 -2.508375 -3.30529
-25.691171 -2.775971 -2.85733
-24.582986 -3.514946 -3.419676
-24.968049 -2.508375 -3.30529
-24.263579 -4.401478 -3.578079
-24.966698 -4.763246 -3.076729
-24.582986 -3.514946 -3.419676
-24.080632 -5.394987 -3.711216
-24.263579 -4.401478 -3.578079
-26.638114 -13.210811 -4.19623
-27.034085 -13.663089 -3.573359
-26.37731 -12.692132 -3.775353
-26.638114 -13.210811 -4.19623
-26.32828 -12.691309 -4.859327
-25.544581 -11.066308 -6.724268
-25.780423 -11.619699 -6.120527
-25.11947 -10.667594 -6.254987
-25.544581 -11.066308 -6.724268
-25.332686 -10.389134 -7.383066
-27.886246 -14.461357 -2.243165
-27.243492 -13.496026 -2.498451
-27.416035 -14.109741 -2.897196
-28.353029 -14.858411 -1.566683
-27.886246 -14.461357 -2.243165
-28.888348 -15.153135 -0.924117
-28.249022 -14.142366 -1.201852
-28.353029 -14.858411 -1.566683
-29.433636 -15.47492 -0.190128
-28.888348 -15.153135 -0.924117
-27.341145 -9.707955 -1.07092
-27.574153 -8.823127 -0.874131
-26.699601 -9.53493 -1.669115
-27.218759 -10.600523 -1.26172
-27.341145 -9.707955 -1.07092
-27.659514 -4.387557 -1.355317
-27.322769 -3.088458 -1.842952
-27.200873 -5.471478 -1.477476
-27.659514 -4.387557 -1.355317
-26.062697 -4.033281 -2.411156
-26.467763 -2.932538 -2.35016
-25.691171 -2.775971 -2.85733
-26.797725 -6.475299 -1.615357
-27.200873 -5.471478 -1.477476
-26.436142 -5.193669 -2.041866
-26.427491 -7.419925 -1.829031
-27.192222 -7.697734 -1.264641
-26.797725 -6.475299 -1.615357
-23.948766 -6.309518 -3.899838
-24.515425 -6.564309 -3.423754
-24.080632 -5.394987 -3.711216
-23.866315 -7.060145 -4.142176
-23.948766 -6.309518 -3.899838
-23.867559 -7.785842 -4.416085
-24.384801 -8.204536 -3.886284
-23.866315 -7.060145 -4.142176
-23.456623 -7.322677 -4.959176
-23.975108 -8.467068 -4.703283
-23.867559 -7.785842 -4.416085
-23.061751 -6.917424 -5.467242
-23.456623 -7.322677 -4.959176
-23.256771 -7.540335 -5.796828
-23.061751 -6.917424 -5.467242
3 22 8 23
3 24 23 6
3 22 23 24
3 26 25 8
3 0 27 29
3 27 10 28
3 27 28 29
3 1 14 12
3 3 15 7
3 3 30 32
3 32 31 15
3 30 31 32
3 3 33 34
3 36 35 9
3 4 37 38
3 4 39 41
3 39 40 41
3 2 16 13
3 42 17 43
3 44 18 45
3 5 19 11
3 5 20 19
3 5 21 20
3 6 7 1
3 8 7 6
3 8 3 7
3 8 9 3
3 46 9 47
3 48 47 8
3 46 47 48
3 50 49 9
3 10 51 52
3 10 53 55
3 53 4 54
3 53 54 55
3 57 56 2
3 58 11 59
3 60 11 61
3 62 5 63
3 64 63 11
3 62 63 64
3 66 65 5
3 12 13 0
3 14 13 12
3 14 2 13
3 7 14 1
3 15 14 7
3 15 2 14
3 15 67 69
3 69 68 2
3 67 68 69
3 71 70 15
3 9 72 74
3 74 73 3
3 72 73 74
3 76 75 9
3 13 10 0
3 16 10 13
3 16 4 10
3 77 16 78
3 79 78 2
3 77 78 79
3 80 16 81
3 82 4 83
3 84 83 16
3 82 83 84
3 86 85 4
3 17 87 88
3 17 89 91
3 89 0 90
3 89 90 91
3 18 92 93
3 18 94 95
3 11 96 98
3 96 18 97
3 96 97 98
3 19 18 11
3 19 99 101
3 101 100 18
3 99 100 101
3 19 102 104
3 102 17 103
3 102 103 104
3 20 17 19
3 20 0 17
3 20 12 0
3 21 12 20
3 21 1 12
3 105 21 106
3 107 106 5
3 105 106 107
3 108 21 109
3 110 1 111
3 112 111 21
3 110 111 112
3 113 6 114
3 115 114 1
3 113 114 115
3 116 6 117
3 119 118 6
