ply
format ascii 1.0
element vertex 99
property float x
property float y
property float z
element face 85
property list uchar int vertex_index
end_header
34.157463 6.178484 26.350353
33.103733 11.610577 29.139971
32.4566 3.316996 29.83807
33.340748 -2.160655 27.106377
31.707611 -4.457472 30.424034
32.062157 -0.645029 30.195448
33.614166 9.112801 27.794525
33.90274 13.304283 27.351217
34.502827 10.314893 25.866264
35.048645 7.450119 24.472437
34.652756 3.149009 24.949825
32.973209 -6.358077 27.248154
33.839569 -5.346993 25.509792
32.793201 7.48669 29.528374
33.300213 5.007346 28.132797
33.72131 1.933358 26.847893
32.878807 0.731918 28.543056
32.516121 -3.379696 28.741219
32.118809 -7.264749 29.012987
34.19627 -1.188519 25.379589
33.20949 -7.789896 26.475414
32.747486 -8.425673 27.399403
32.624901 5.401843 29.683222
32.396112 6.795606 30.397194
32.227812 4.710759 30.552042
33.214493 13.698459 28.971512
32.851175 12.751252 29.834792
34.431812 15.895801 26.155196
34.012095 15.284217 27.119393
34.322458 13.915868 26.38702
34.278877 -4.843003 24.616802
34.077005 -6.932212 24.69441
32.06391 2.728382 30.687655
32.227812 4.710759 30.552042
31.866689 0.747369 30.866343
32.259378 1.335983 30.016759
32.06391 2.728382 30.687655
31.690768 -1.31763 30.979774
31.866689 0.747369 30.866343
31.513495 -3.223851 31.094067
31.884884 -2.551251 30.309741
31.690768 -1.31763 30.979774
34.622501 12.421173 25.644544
34.322458 13.915868 26.38702
34.202784 11.809588 26.60874
34.931769 11.076324 24.913896
34.622501 12.421173 25.644544
35.204678 9.643937 24.216982
34.931769 11.076324 24.913896
34.775736 8.882506 25.169351
35.46994 7.877099 23.533922
35.204678 9.643937 24.216982
35.318445 5.769913 23.710658
35.46994 7.877099 23.533922
35.1205 3.619358 23.949352
35.318445 5.769913 23.710658
34.850701 5.299564 24.711131
34.90242 1.490109 24.174328
35.1205 3.619358 23.949352
33.642669 -7.284353 25.606233
33.406389 -5.852535 26.378973
33.20949 -7.789896 26.475414
34.077005 -6.932212 24.69441
33.642669 -7.284353 25.606233
32.72071 10.74519 29.994693
32.851175 12.751252 29.834792
32.565444 8.683247 30.188894
32.168356 7.992163 31.057714
32.396112 6.795606 30.397194
32.948467 9.548633 29.334173
32.72071 10.74519 29.994693
32.565444 8.683247 30.188894
32.320286 -8.879009 28.281819
32.747486 -8.425673 27.399403
32.546009 -6.811413 28.13057
33.613996 14.545312 28.077135
33.214493 13.698459 28.971512
33.503236 12.45743 28.245594
33.613996 14.545312 28.077135
34.012095 15.284217 27.119393
34.674177 -0.678655 24.389209
34.90242 1.490109 24.174328
34.424513 0.980245 25.164707
34.457228 -2.763766 24.5517
34.017919 -3.267756 25.444691
34.278877 -4.843003 24.616802
34.674177 -0.678655 24.389209
34.457228 -2.763766 24.5517
31.299385 -5.18062 31.309616
31.513495 -3.223851 31.094067
31.495463 -6.410006 30.611646
31.299385 -5.18062 31.309616
31.701062 -7.813645 29.906123
31.91321 -5.861111 29.718511
31.495463 -6.410006 30.611646
31.911125 -9.240998 29.163818
31.701062 -7.813645 29.906123
32.320286 -8.879009 28.281819
31.911125 -9.240998 29.163818
3 0 8 6
3 0 9 8
3 0 10 9
3 21 20 11
3 2 22 24
3 22 13 23
3 22 23 24
3 2 14 13
3 2 16 14
3 4 17 5
3 4 18 17
3 1 25 26
3 29 28 7
3 27 28 29
3 3 19 15
3 31 30 12
3 32 2 33
3 34 5 35
3 36 35 2
3 34 35 36
3 37 5 38
3 39 4 40
3 41 40 5
3 39 40 41
3 6 7 1
3 8 7 6
3 8 42 44
3 44 43 7
3 42 43 44
3 8 45 46
3 9 47 49
3 49 48 8
3 47 48 49
3 9 50 51
3 9 52 53
3 10 54 56
3 56 55 9
3 54 55 56
3 10 57 58
3 11 12 3
3 59 12 60
3 61 60 11
3 59 60 61
3 63 62 12
3 64 1 65
3 13 66 68
3 66 67 68
3 13 69 71
3 69 1 70
3 69 70 71
3 13 6 1
3 14 6 13
3 14 0 6
3 14 15 0
3 16 15 14
3 16 3 15
3 5 16 2
3 17 16 5
3 17 3 16
3 17 11 3
3 18 11 17
3 18 72 74
3 74 73 11
3 72 73 74
3 7 75 77
3 77 76 1
3 75 76 77
3 79 78 7
3 15 10 0
3 19 10 15
3 19 80 82
3 82 81 10
3 80 81 82
3 12 19 3
3 83 19 84
3 85 84 12
3 83 84 85
3 87 86 19
3 88 4 89
3 90 4 91
3 92 18 93
3 94 93 4
3 92 93 94
3 95 18 96
3 98 97 18
