ply
format ascii 1.0
element vertex 188
property float x
property float y
property float z
element face 181
property list uchar int vertex_index
end_header
36.380753 -16.852034 -6.507609
31.179241 -10.439335 -7.2523
35.991665 -11.142068 -14.883523
34.039494 -13.558611 -7.037203
33.759628 -10.97555 -10.860397
36.059704 -14.158927 -10.740893
37.644947 -14.679832 -14.687207
37.809105 -17.789799 -10.319066
38.041851 -20.273306 -5.96818
30.803797 -7.71546 -10.905394
33.587582 -7.826108 -14.707968
35.922901 -7.678783 -18.743267
37.612267 -11.309304 -18.784641
38.701488 -21.524841 -9.684702
35.517715 -16.313976 -4.778018
34.207371 -14.636628 -5.00782
35.28548 -15.271496 -6.610488
35.118542 -13.979519 -8.746316
36.130333 -15.481776 -8.609755
36.991531 -15.927976 -10.468889
37.113861 -17.211685 -8.466282
29.421282 -7.615558 -9.056066
30.975056 -9.175795 -9.036223
34.931061 -11.096721 -12.810285
33.571262 -9.379892 -12.751411
34.861557 -9.49787 -14.748445
34.797642 -7.803616 -16.625099
35.989265 -9.511005 -16.853666
36.876781 -9.482458 -18.823893
36.888897 -11.299736 -16.780018
38.222229 -16.536608 -14.573031
38.456425 -20.946489 -7.781563
32.974293 -13.207182 -5.24352
32.648708 -12.046646 -7.03265
32.476601 -10.776908 -8.957334
33.82056 -12.356906 -8.801375
34.950165 -12.63171 -10.629207
36.002617 -12.730323 -12.777512
36.903255 -12.849313 -14.855183
36.952183 -14.516895 -12.631934
37.701874 -16.275755 -12.48885
38.247204 -18.078711 -12.216242
35.773666 -17.280024 -2.687052
36.611908 -18.003956 -4.394805
37.300152 -18.482481 -6.367082
37.541229 -19.718456 -4.087935
32.307041 -9.35221 -10.833715
32.244331 -7.85813 -12.732289
37.664886 -13.156949 -16.769403
37.897369 -19.031822 -8.195492
38.365135 -19.676401 -9.966309
30.551587 -10.180929 -6.52117
31.343854 -11.018135 -6.395224
30.403771 -9.647101 -7.300304
30.551587 -10.180929 -6.52117
31.077148 -9.807565 -8.144261
30.301678 -9.015331 -8.192265
30.403771 -9.647101 -7.300304
38.405475 -16.733919 -15.520414
38.40613 -17.514012 -14.40852
36.330523 -18.141845 -2.498169
35.996088 -17.785195 -1.688152
36.749644 -18.503811 -3.352046
36.192787 -17.64199 -3.540928
36.330523 -18.141845 -2.498169
37.214304 -19.361061 -3.198611
37.076569 -18.861206 -4.24137
36.749644 -18.503811 -3.352046
30.030985 -6.988374 -10.832617
29.339728 -6.938423 -9.907953
30.11254 -7.665509 -9.98073
30.778522 -6.974832 -11.830817
30.030985 -6.988374 -10.832617
32.891174 -7.021087 -14.680495
32.219549 -7.037098 -13.692656
32.915957 -7.842119 -13.720128
33.55818 -6.98198 -15.631161
32.891174 -7.021087 -14.680495
35.382191 -6.851446 -18.687538
34.819561 -6.913862 -17.628454
35.360272 -7.7412 -17.684183
35.968252 -6.783184 -19.755227
35.382191 -6.851446 -18.687538
36.437838 -7.66538 -19.831201
35.968252 -6.783184 -19.755227
37.632208 -10.409584 -19.807875
37.264465 -9.49616 -19.8275
37.244524 -10.395881 -18.804267
37.922019 -11.393966 -19.786072
37.632208 -10.409584 -19.807875
38.661388 -20.762285 -10.79906
38.493212 -19.838065 -10.939864
38.533311 -20.600621 -9.825506
34.862543 -15.475302 -4.892919
34.404564 -15.180287 -4.032283
35.059736 -16.01896 -3.917382
29.524791 -8.235212 -8.202186
28.802272 -7.435578 -8.357319
30.198169 -8.395677 -9.046145
29.524791 -8.235212 -8.202186
30.301678 -9.015331 -8.192265
38.213648 -15.784062 -15.571545
37.925007 -14.855674 -15.628633
37.933588 -15.60822 -14.630119
38.213648 -15.784062 -15.571545
38.405475 -16.733919 -15.520414
38.505062 -21.498048 -6.64069
38.249138 -20.609898 -6.874872
38.297775 -21.161457 -5.733998
38.612923 -21.861323 -7.511279
38.505062 -21.498048 -6.64069
38.735455 -22.150499 -8.462848
38.578957 -21.235665 -8.733132
38.612923 -21.861323 -7.511279
33.761427 -14.429146 -4.175126
34.404564 -15.180287 -4.032283
33.144888 -13.714422 -4.292976
33.761427 -14.429146 -4.175126
33.590832 -13.921905 -5.12567
32.422116 -12.909488 -4.501073
33.144888 -13.714422 -4.292976
32.24138 -12.402058 -5.390834
32.422116 -12.909488 -4.501073
32.078587 -11.821791 -6.285399
32.24138 -12.402058 -5.390834
32.811501 -12.626914 -6.138085
31.913975 -11.242991 -7.142475
31.343854 -11.018135 -6.395224
32.078587 -11.821791 -6.285399
38.418618 -18.285064 -13.230125
38.40613 -17.514012 -14.40852
38.234717 -17.307659 -13.394637
35.396534 -16.967281 -1.856952
35.996088 -17.785195 -1.688152
35.187711 -16.501984 -2.871899
35.396534 -16.967281 -1.856952
35.645691 -16.797 -3.732535
35.059736 -16.01896 -3.917382
35.187711 -16.501984 -2.871899
37.653311 -20.221769 -2.937076
37.214304 -19.361061 -3.198611
37.878155 -20.547393 -3.920256
37.653311 -20.221769 -2.937076
38.128466 -20.824818 -4.860379
37.79154 -19.995881 -5.028058
37.878155 -20.547393 -3.920256
38.297775 -21.161457 -5.733998
38.128466 -20.824818 -4.860379
28.658985 -6.808865 -9.134725
28.802272 -7.435578 -8.357319
28.658985 -6.808865 -9.134725
29.339728 -6.938423 -9.907953
31.498789 -7.046166 -12.744264
30.778522 -6.974832 -11.830817
31.524064 -7.786795 -11.818841
31.498789 -7.046166 -12.744264
32.219549 -7.037098 -13.692656
34.16321 -6.970734 -16.589726
33.55818 -6.98198 -15.631161
34.192612 -7.814862 -15.666533
34.16321 -6.970734 -16.589726
34.819561 -6.913862 -17.628454
36.914777 -8.567217 -19.871515
36.437838 -7.66538 -19.831201
36.399841 -8.580621 -18.78358
36.914777 -8.567217 -19.871515
37.264465 -9.49616 -19.8275
37.934977 -14.094233 -16.669731
37.654916 -13.91839 -15.728305
37.925007 -14.855674 -15.628633
37.931331 -13.220209 -17.718122
37.934977 -14.094233 -16.669731
37.905022 -12.296387 -18.725741
37.638576 -12.233126 -17.777022
37.931331 -13.220209 -17.718122
37.922019 -11.393966 -19.786072
37.905022 -12.296387 -18.725741
38.434246 -19.03922 -12.06483
38.30617 -18.877556 -11.091276
38.493212 -19.838065 -10.939864
38.418618 -18.285064 -13.230125
38.434246 -19.03922 -12.06483
38.763912 -22.408335 -9.514283
38.735455 -22.150499 -8.462848
38.74638 -21.745337 -10.632305
38.763912 -22.408335 -9.514283
38.661388 -20.762285 -10.79906
38.74638 -21.745337 -10.632305
3 0 16 14
3 0 18 16
3 0 20 18
3 1 51 52
3 1 53 54
3 1 55 57
3 55 22 56
3 55 56 57
3 2 25 23
3 2 27 25
3 2 29 27
3 59 58 30
3 3 32 15
3 3 33 32
3 3 35 33
3 5 36 17
3 5 37 36
3 5 39 37
3 7 40 19
3 7 41 40
3 60 42 61
3 62 43 63
3 64 63 42
3 62 63 64
3 65 45 66
3 67 66 43
3 65 66 67
3 9 68 70
3 70 69 21
3 68 69 70
3 9 71 72
3 4 46 34
3 10 47 24
3 10 73 75
3 75 74 47
3 73 74 75
3 10 76 77
3 11 78 80
3 80 79 26
3 78 79 80
3 11 81 82
3 11 83 84
3 12 85 87
3 87 86 28
3 85 86 87
3 12 88 89
3 6 48 38
3 8 49 44
3 13 50 31
3 13 90 92
3 92 91 50
3 90 91 92
3 14 93 95
3 93 15 94
3 93 94 95
3 16 15 14
3 16 3 15
3 16 17 3
3 18 17 16
3 18 5 17
3 18 19 5
3 20 19 18
3 20 7 19
3 96 21 97
3 22 98 100
3 98 21 99
3 98 99 100
3 22 9 21
3 23 24 4
3 25 24 23
3 25 10 24
3 25 26 10
3 27 26 25
3 27 11 26
3 27 28 11
3 29 28 27
3 29 12 28
3 30 101 103
3 103 102 6
3 101 102 103
3 105 104 30
3 106 31 107
3 108 107 8
3 106 107 108
3 109 31 110
3 111 13 112
3 113 112 31
3 111 112 113
3 15 114 115
3 32 116 118
3 118 117 15
3 116 117 118
3 32 119 120
3 32 121 122
3 33 123 125
3 125 124 32
3 123 124 125
3 33 126 128
3 126 1 127
3 126 127 128
3 33 34 1
3 35 34 33
3 35 4 34
3 17 35 3
3 36 35 17
3 36 4 35
3 36 23 4
3 37 23 36
3 37 2 23
3 37 38 2
3 39 38 37
3 39 6 38
3 19 39 5
3 40 39 19
3 40 6 39
3 40 30 6
3 41 30 40
3 41 129 131
3 131 130 30
3 129 130 131
3 42 132 133
3 42 134 135
3 42 136 138
3 136 14 137
3 136 137 138
3 43 14 42
3 43 0 14
3 43 44 0
3 45 44 43
3 45 8 44
3 139 45 140
3 141 45 142
3 143 8 144
3 145 144 45
3 143 144 145
3 147 146 8
3 21 148 149
3 151 150 21
3 34 22 1
3 46 22 34
3 46 9 22
3 24 46 4
3 47 46 24
3 47 9 46
3 47 152 154
3 154 153 9
3 152 153 154
3 156 155 47
3 26 157 159
3 159 158 10
3 157 158 159
3 161 160 26
3 28 162 164
3 164 163 11
3 162 163 164
3 166 165 28
3 38 29 2
3 48 29 38
3 48 12 29
3 167 48 168
3 169 168 6
3 167 168 169
3 170 48 171
3 172 12 173
3 174 173 48
3 172 173 174
3 176 175 12
3 44 20 0
3 49 20 44
3 49 7 20
3 31 49 8
3 50 49 31
3 50 7 49
3 50 41 7
3 177 41 178
3 179 178 50
3 177 178 179
3 181 180 41
3 182 13 183
3 184 13 185
3 187 186 13
