ply
format ascii 1.0
element vertex 109
property float x
property float y
property float z
element face 92
property list uchar int vertex_index
end_header
9.3248 98.898705 -38.125401
2.232996 91.40303 -41.03204
3.82324 96.562225 -37.766983
7.675148 93.81398 -41.953545
13.173433 95.469955 -42.175282
3.534416 86.81102 -44.062176
-0.423398 89.877251 -40.333939
0.176132 92.401253 -39.035789
6.528544 97.620369 -38.219666
5.666492 95.322441 -39.948814
8.566114 96.567184 -40.119774
1.655059 88.654442 -42.267807
4.238458 89.870667 -42.945858
2.860618 93.976059 -39.542622
4.922545 92.819748 -41.498955
6.675768 91.000839 -43.347797
12.10609 99.773903 -38.056664
14.063397 98.13575 -40.058891
11.347649 97.264771 -40.364998
10.404963 94.89267 -42.03965
9.530905 91.943611 -43.728783
4.476019 85.875305 -44.810057
4.803147 87.405682 -44.337971
-0.654705 92.915932 -37.953075
-1.063214 91.704445 -38.614645
7.926672 98.259537 -38.172534
6.913718 98.787697 -37.062882
8.311846 99.426865 -37.015749
2.790125 96.879909 -36.65424
4.150842 97.620754 -36.764363
2.41347 95.796661 -37.557141
2.790125 96.879909 -36.65424
3.341929 95.269142 -38.654803
1.932159 94.503578 -38.44496
2.41347 95.796661 -37.557141
13.517232 100.027504 -37.994725
12.545696 100.761776 -36.948015
13.618415 96.802853 -41.117086
14.944875 97.045601 -41.029936
14.499892 95.712704 -42.088131
10.494522 90.81361 -44.54269
10.84619 92.315262 -43.803646
9.067261 90.525158 -44.339531
10.494522 90.81361 -44.54269
3.207374 85.269954 -44.474564
2.31354 86.202373 -43.694696
3.207374 85.269954 -44.474564
4.476019 85.875305 -44.810057
-1.362979 90.442444 -39.26372
-1.574748 89.116967 -39.95085
-0.123633 91.139252 -39.684864
-1.362979 90.442444 -39.26372
-1.063214 91.704445 -38.614645
5.503494 98.149826 -36.990704
6.913718 98.787697 -37.062882
5.175892 97.091297 -37.993324
4.150842 97.620754 -36.764363
5.503494 98.149826 -36.990704
14.075035 94.370712 -43.00658
14.499892 95.712704 -42.088131
12.667454 94.078434 -43.026896
14.075035 94.370712 -43.00658
9.770872 100.007004 -36.966115
8.311846 99.426865 -37.015749
-0.646738 88.463959 -40.940413
-1.574748 89.116967 -39.95085
0.392491 87.852554 -41.907347
-0.646738 88.463959 -40.940413
0.615831 89.265847 -41.300873
1.373862 87.124085 -42.797512
0.392491 87.852554 -41.907347
2.594737 87.732731 -43.164991
2.31354 86.202373 -43.694696
1.373862 87.124085 -42.797512
5.155168 88.935505 -43.779812
4.803147 87.405682 -44.337971
3.886437 88.340844 -43.504017
0.589916 93.716175 -38.191544
-0.654705 92.915932 -37.953075
1.518375 93.188656 -39.289206
0.589916 93.716175 -38.191544
1.932159 94.503578 -38.44496
6.373823 89.500591 -43.980781
5.155168 88.935505 -43.779812
5.457113 90.435753 -43.146828
11.161518 100.444603 -36.931746
12.545696 100.761776 -36.948015
10.715445 99.336304 -38.091032
9.770872 100.007004 -36.966115
11.161518 100.444603 -36.931746
15.361963 98.306995 -39.931348
16.24344 97.216847 -40.902393
14.944875 97.045601 -41.029936
14.495885 99.208427 -38.995838
15.361963 98.306995 -39.931348
13.084744 98.954826 -39.057778
13.517232 100.027504 -37.994725
14.495885 99.208427 -38.995838
11.283219 93.789792 -42.95908
11.789198 95.181312 -42.107466
12.667454 94.078434 -43.026896
9.967934 93.41814 -42.884217
11.283219 93.789792 -42.95908
10.84619 92.315262 -43.803646
7.639692 90.053772 -44.149038
8.103337 91.472225 -43.53829
9.067261 90.525158 -44.339531
6.373823 89.500591 -43.980781
7.639692 90.053772 -44.149038
3 22 21 5
3 23 7 24
3 0 25 27
3 25 8 26
3 25 26 27
3 0 10 8
3 1 11 6
3 1 12 11
3 2 28 29
3 2 30 31
3 2 32 34
3 32 13 33
3 32 33 34
3 3 14 9
3 3 15 14
3 35 16 36
3 4 37 39
3 37 17 38
3 37 38 39
3 4 18 17
3 4 19 18
3 40 20 41
3 43 42 20
3 5 44 45
3 47 46 5
3 48 6 49
3 7 50 52
3 50 6 51
3 50 51 52
3 7 1 6
3 8 53 54
3 8 55 57
3 55 2 56
3 55 56 57
3 8 9 2
3 10 9 8
3 10 3 9
3 58 4 59
3 61 60 4
3 62 0 63
3 6 64 65
3 11 66 68
3 68 67 6
3 66 67 68
3 11 69 70
3 11 71 73
3 71 5 72
3 71 72 73
3 12 5 11
3 12 74 76
3 76 75 5
3 74 75 76
3 77 7 78
3 13 79 81
3 79 7 80
3 79 80 81
3 13 1 7
3 9 13 2
3 14 13 9
3 14 1 13
3 14 12 1
3 15 12 14
3 15 82 84
3 84 83 12
3 82 83 84
3 16 85 86
3 16 87 89
3 87 0 88
3 87 88 89
3 17 90 92
3 90 91 92
3 17 93 94
3 17 95 97
3 95 16 96
3 95 96 97
3 18 16 17
3 18 0 16
3 18 10 0
3 19 10 18
3 19 3 10
3 98 19 99
3 100 99 4
3 98 99 100
3 20 101 103
3 101 19 102
3 101 102 103
3 20 3 19
3 20 15 3
3 104 15 105
3 106 105 20
3 104 105 106
3 108 107 15
