ply
format ascii 1.0
element vertex 103
property float x
property float y
property float z
element face 81
property list uchar int vertex_index
end_header
34.214092 56.881264 16.166777
32.336483 68.95459 17.239071
33.6036 64.767365 13.428356
32.904518 61.193199 19.751404
36.816311 54.011047 7.002299
35.130203 59.750206 10.012327
32.643833 65.211922 18.36676
33.916985 60.921635 14.81
34.31427 62.520214 11.654436
34.689579 58.310608 13.111275
35.517952 55.588852 11.448936
33.242649 68.567703 12.145799
32.957657 66.808472 15.299694
33.241608 62.945156 16.740982
33.531307 59.018608 17.952675
35.981651 56.979092 8.358863
34.603426 55.615559 15.310634
34.841169 56.330231 13.782883
34.451836 57.595936 14.639026
34.364065 54.681713 16.817836
34.603426 55.615559 15.310634
32.194636 70.77731 16.52473
32.061249 69.861939 18.276649
32.484526 69.901341 15.467698
32.194636 70.77731 16.52473
32.64707 67.881531 16.269382
32.795113 68.828282 14.49801
32.484526 69.901341 15.467698
33.023701 59.197902 20.34816
33.337095 58.110607 19.448795
33.217912 60.105903 18.85204
37.258291 52.387334 6.284664
37.029352 54.498691 5.543876
37.028452 51.888176 7.695163
37.258291 52.387334 6.284664
33.78229 65.637745 11.728704
33.601814 67.537914 11.087426
33.423125 66.667534 12.787078
34.924667 61.789026 9.255911
34.5167 63.174031 10.076966
34.722237 61.13521 10.833382
35.3334 60.490474 8.392291
34.924667 61.789026 9.255911
35.555927 58.364649 9.185595
35.759124 59.104917 7.565558
35.3334 60.490474 8.392291
35.940984 54.219454 10.654511
35.671882 53.50404 12.203499
32.215015 67.861344 18.908862
32.061249 69.861939 18.276649
32.36869 65.990009 19.472707
32.490158 67.083256 17.802915
32.215015 67.861344 18.908862
32.498444 64.037752 20.085487
32.36869 65.990009 19.472707
32.628786 62.028391 20.777809
32.774175 63.202561 19.059082
32.498444 64.037752 20.085487
32.753613 60.117887 21.258156
32.628786 62.028391 20.777809
36.607248 56.143026 6.12096
37.029352 54.498691 5.543876
35.255356 54.969353 12.951714
35.103766 56.94973 12.280105
34.841169 56.330231 13.782883
35.671882 53.50404 12.203499
35.255356 54.969353 12.951714
32.937608 69.707897 12.921062
33.092292 70.466617 11.208915
33.100153 67.688087 13.722746
32.937608 69.707897 12.921062
32.795113 68.828282 14.49801
33.667473 56.964698 18.545528
34.008865 55.896027 17.65258
33.872699 57.949936 17.059726
33.667473 56.964698 18.545528
33.337095 58.110607 19.448795
33.023701 59.197902 20.34816
32.753613 60.117887 21.258156
33.422306 69.358749 10.337468
33.092292 70.466617 11.208915
33.422306 69.358749 10.337468
33.601814 67.537914 11.087426
34.137625 64.51417 10.841745
33.78229 65.637745 11.728704
33.958935 63.643789 12.541396
34.137625 64.51417 10.841745
34.5167 63.174031 10.076966
36.189919 57.627049 6.799243
35.759124 59.104917 7.565558
36.398981 55.495069 7.680581
36.607248 56.143026 6.12096
36.189919 57.627049 6.799243
36.172834 54.914574 9.109475
35.749802 56.283972 9.903899
35.940984 54.219454 10.654511
36.590164 53.430551 8.431192
36.398981 55.495069 7.680581
36.172834 54.914574 9.109475
37.028452 51.888176 7.695163
36.590164 53.430551 8.431192
34.364065 54.681713 16.817836
34.008865 55.896027 17.65258
3 0 9 7
3 0 16 18
3 18 17 9
3 16 17 18
3 0 19 20
3 1 21 22
3 1 23 24
3 1 25 27
3 25 12 26
3 25 26 27
3 3 13 6
3 3 14 13
3 3 28 30
3 30 29 14
3 28 29 30
3 4 31 32
3 4 33 34
3 2 35 37
3 37 36 11
3 35 36 37
3 5 38 40
3 40 39 8
3 38 39 40
3 5 41 42
3 5 43 45
3 43 15 44
3 43 44 45
3 47 46 10
3 48 1 49
3 50 6 51
3 52 51 1
3 50 51 52
3 53 6 54
3 55 3 56
3 57 56 6
3 55 56 57
3 59 58 3
3 60 4 61
3 7 8 2
3 9 8 7
3 9 5 8
3 9 10 5
3 62 10 63
3 64 63 9
3 62 63 64
3 66 65 10
3 67 11 68
3 12 69 71
3 69 11 70
3 69 70 71
3 12 2 11
3 6 12 1
3 13 12 6
3 13 2 12
3 13 7 2
3 14 7 13
3 14 0 7
3 14 72 74
3 74 73 0
3 72 73 74
3 76 75 14
3 78 77 3
3 11 79 80
3 82 81 11
3 8 83 85
3 85 84 2
3 83 84 85
3 87 86 8
3 15 88 89
3 15 90 92
3 90 4 91
3 90 91 92
3 10 15 5
3 93 15 94
3 95 94 10
3 93 94 95
3 96 4 97
3 98 97 15
3 96 97 98
3 100 99 4
3 102 101 0
