ply
format ascii 1.0
element vertex 167
property float x
property float y
property float z
element face 151
property list uchar int vertex_index
end_header
15.264122 -0.494245 -68.806
8.444925 -5.943151 -64.610107
6.177349 -2.114428 -64.755943
8.979717 1.260642 -67.753761
11.687537 -3.086766 -67.057777
12.4468 4.107905 -69.988068
16.160059 6.120474 -71.138039
19.002815 0.968042 -69.462723
17.751371 -5.157186 -67.219872
10.673654 2.726273 -68.988991
14.607234 8.547564 -71.720741
20.133587 -1.629363 -68.500046
7.292809 -4.068388 -64.737686
5.946186 -5.674436 -63.17345
7.051794 -7.766675 -63.087414
8.208015 -9.972773 -62.825352
9.734975 -8.125635 -64.279411
13.381606 -1.463587 -68.128799
12.980823 -5.151319 -66.547867
14.679812 -3.811411 -67.43058
16.010542 -6.296233 -66.612495
16.575172 -2.989737 -67.982727
7.532007 -0.42677 -66.330643
8.725087 -2.221824 -66.269264
9.991348 -4.330706 -65.966614
10.34918 -0.630186 -67.59919
11.988064 0.549106 -68.581657
13.79915 1.719429 -69.416504
12.674148 7.654695 -71.167068
14.195891 5.378591 -70.734406
15.61688 2.816735 -70.036163
18.178402 6.866772 -71.338684
17.645729 3.522296 -70.347931
17.037081 0.259995 -69.222221
18.352209 -2.096395 -68.397041
19.471348 -4.691329 -67.42141
5.013029 -3.787439 -63.144722
11.341002 -6.665893 -65.465897
8.255862 0.416936 -67.042202
7.663206 1.415509 -67.095753
8.387061 2.259215 -67.807312
12.940542 9.223226 -71.630912
11.978917 8.606946 -71.252594
19.251224 6.971964 -71.256744
18.518997 8.379612 -71.688736
18.324272 2.245169 -69.905327
18.679108 3.802538 -70.381115
19.357651 2.525411 -69.938511
20.291094 -4.637567 -67.391434
19.802467 -3.160346 -67.960728
20.622214 -3.106584 -67.930752
19.928599 -6.051302 -66.889084
20.291094 -4.637567 -67.391434
5.595189 -2.950934 -63.950333
5.085303 -1.934737 -63.921036
5.667463 -1.098232 -64.726647
5.347674 -6.468993 -62.365864
5.848117 -7.436798 -62.403034
12.777052 -7.063076 -65.693931
13.632891 -6.339353 -66.190227
17.522104 -6.823016 -66.535576
16.651689 -7.392539 -66.231887
16.880956 -5.72671 -66.916183
18.298882 -6.377129 -66.76273
17.522104 -6.823016 -66.535576
9.166873 2.956095 -68.450611
8.387061 2.259215 -67.807312
10.013841 3.688911 -69.068226
9.826685 1.993457 -68.371376
9.166873 2.956095 -68.450611
10.795413 4.423629 -69.608887
10.013841 3.688911 -69.068226
11.681986 5.114445 -70.108426
11.560227 3.417089 -69.488529
10.795413 4.423629 -69.608887
14.881584 10.101653 -72.1161
13.907086 9.669661 -71.907749
15.612927 9.009805 -71.891514
14.881584 10.101653 -72.1161
16.389339 7.79626 -71.600163
15.383647 7.334019 -71.42939
15.612927 9.009805 -71.891514
19.993322 1.191007 -69.44888
19.357651 2.525411 -69.938511
20.558707 -0.107695 -68.967541
19.568201 -0.33066 -68.981384
19.993322 1.191007 -69.44888
21.032832 -1.617312 -68.40414
20.558707 -0.107695 -68.967541
20.622214 -3.106584 -67.930752
21.032832 -1.617312 -68.40414
6.400921 -8.482917 -62.360016
5.848117 -7.436798 -62.403034
6.49899 -6.720555 -63.130432
6.834841 -9.697249 -62.178763
6.400921 -8.482917 -62.360016
7.412951 -10.800297 -62.047731
6.834841 -9.697249 -62.178763
7.629905 -8.869724 -62.956383
7.993275 -11.859072 -61.952897
7.198211 -12.686597 -61.175276
7.412951 -10.800297 -62.047731
8.797998 -11.034374 -62.653834
7.993275 -11.859072 -61.952897
9.561478 -10.110805 -63.380863
8.797998 -11.034374 -62.653834
8.971495 -9.049204 -63.552381
10.325806 -9.269337 -64.013492
10.152309 -11.254507 -63.114945
9.561478 -10.110805 -63.380863
14.482385 -5.669398 -66.631584
13.632891 -6.339353 -66.190227
13.830317 -4.481365 -66.989224
15.345177 -5.053822 -67.021537
15.14775 -6.91181 -66.222542
14.482385 -5.669398 -66.631584
6.327906 -0.268748 -65.572395
5.667463 -1.098232 -64.726647
7.005235 0.575081 -66.359745
7.663206 1.415509 -67.095753
6.854678 -1.270599 -65.543293
6.327906 -0.268748 -65.572395
7.005235 0.575081 -66.359745
11.79566 6.88784 -70.697925
11.978917 8.606946 -71.252594
12.560474 5.8813 -70.577568
11.681986 5.114445 -70.108426
11.79566 6.88784 -70.697925
13.640691 8.101129 -71.443905
12.940542 9.223226 -71.630912
13.907086 9.669661 -71.907749
17.398511 8.16941 -71.700485
18.518997 8.379612 -71.688736
17.16923 6.493623 -71.238361
16.389339 7.79626 -71.600163
17.398511 8.16941 -71.700485
18.945445 5.474776 -70.876492
19.251224 6.971964 -71.256744
17.912065 5.194534 -70.843308
18.945445 5.474776 -70.876492
18.679108 3.802538 -70.381115
19.15887 -6.144201 -66.863499
18.298882 -6.377129 -66.76273
18.611359 -4.924257 -67.320641
19.15887 -6.144201 -66.863499
19.928599 -6.051302 -66.889084
4.533581 -2.919394 -63.005111
5.085303 -1.934737 -63.921036
4.447457 -4.623724 -62.267857
4.533581 -2.919394 -63.005111
4.881096 -5.525494 -62.3515
5.479608 -4.730937 -63.159086
5.347674 -6.468993 -62.365864
4.447457 -4.623724 -62.267857
4.881096 -5.525494 -62.3515
11.128819 -8.539466 -64.606735
10.325806 -9.269337 -64.013492
10.537989 -7.395764 -64.872654
11.957141 -7.820363 -65.152946
12.160913 -5.908606 -66.006882
12.777052 -7.063076 -65.693931
11.128819 -8.539466 -64.606735
11.957141 -7.820363 -65.152946
15.839346 -8.050631 -65.861061
15.14775 -6.91181 -66.222542
15.839346 -8.050631 -65.861061
16.651689 -7.392539 -66.231887
3 1 14 12
3 1 15 14
3 1 16 15
3 0 19 17
3 0 21 19
3 3 38 40
3 38 22 39
3 38 39 40
3 3 23 22
3 3 25 23
3 5 26 9
3 5 27 26
3 41 28 42
3 6 29 10
3 6 30 29
3 43 31 44
3 7 45 47
3 45 32 46
3 45 46 47
3 7 33 32
3 7 34 33
3 48 35 49
3 50 49 11
3 48 49 50
3 52 51 35
3 2 53 55
3 53 36 54
3 53 54 55
3 57 56 13
3 4 37 24
3 59 58 18
3 8 60 62
3 62 61 20
3 60 61 62
3 8 63 64
3 65 3 66
3 67 9 68
3 69 68 3
3 67 68 69
3 70 9 71
3 72 5 73
3 74 73 9
3 72 73 74
3 75 10 76
3 77 10 78
3 79 6 80
3 81 80 10
3 79 80 81
3 82 7 83
3 84 11 85
3 86 85 7
3 84 85 86
3 87 11 88
3 90 89 11
3 12 13 2
3 14 13 12
3 14 91 93
3 93 92 13
3 91 92 93
3 14 94 95
3 15 96 98
3 98 97 14
3 96 97 98
3 15 99 101
3 99 100 101
3 15 102 103
3 16 104 106
3 106 105 15
3 104 105 106
3 16 107 109
3 107 108 109
3 17 18 4
3 19 18 17
3 19 110 112
3 112 111 18
3 110 111 112
3 19 113 115
3 113 20 114
3 113 114 115
3 21 20 19
3 21 8 20
3 116 2 117
3 22 118 119
3 22 120 122
3 120 2 121
3 120 121 122
3 22 12 2
3 23 12 22
3 23 1 12
3 23 24 1
3 25 24 23
3 25 4 24
3 9 25 3
3 26 25 9
3 26 4 25
3 26 17 4
3 27 17 26
3 27 0 17
3 28 123 124
3 28 125 127
3 125 5 126
3 125 126 127
3 10 128 130
3 128 28 129
3 128 129 130
3 29 28 10
3 29 5 28
3 29 27 5
3 30 27 29
3 30 0 27
3 31 131 132
3 31 133 135
3 133 6 134
3 133 134 135
3 136 31 137
3 32 138 140
3 138 31 139
3 138 139 140
3 32 6 31
3 32 30 6
3 33 30 32
3 33 0 30
3 33 21 0
3 34 21 33
3 34 8 21
3 11 34 7
3 35 34 11
3 35 8 34
3 35 141 143
3 143 142 8
3 141 142 143
3 145 144 35
3 36 146 147
3 36 148 149
3 13 36 2
3 150 36 151
3 152 151 13
3 150 151 152
3 154 153 36
3 24 16 1
3 37 16 24
3 37 155 157
3 157 156 16
3 155 156 157
3 18 37 4
3 158 37 159
3 160 159 18
3 158 159 160
3 162 161 37
3 20 163 164
3 166 165 20
