ply
format ascii 1.0
element vertex 283
property float x
property float y
property float z
element face 280
property list uchar int vertex_index
end_header
-36.23748 9.134612 22.224791
-37.786121 -5.02439 15.402042
-35.602772 -20.777082 16.563877
-33.866611 -33.575588 8.662981
-35.50106 0.74876 23.321304
-37.813496 -12.045122 11.886278
-36.761177 -12.980636 16.233282
-36.602573 -19.558672 12.450837
-35.07333 -27.442982 12.743294
-35.576469 -26.558393 8.401858
-33.860035 -32.84024 4.315682
-37.775749 10.77282 17.798691
-37.148602 2.135204 19.017345
-38.578583 3.749203 14.401203
-35.156616 15.878875 25.115519
-36.68354 17.651649 20.810091
-38.160015 19.23481 16.018391
-36.339832 -6.114251 19.843159
-35.37492 -14.186156 20.383707
-35.402538 7.960333 24.353237
-35.959099 4.940047 22.644814
-37.625942 -15.293484 9.921744
-37.23801 -15.88939 12.128123
-36.897842 -19.467447 10.249481
-36.175629 -23.166845 10.480657
-36.395481 -22.806618 8.170152
-38.487514 11.649628 15.392035
-38.195587 7.320016 16.22994
-38.846668 7.980533 13.838536
-37.420799 18.519325 18.524448
-37.536598 22.802845 17.497717
-37.518654 -1.518917 17.247429
-36.800365 -1.935486 19.392408
-37.081745 -5.329041 17.777405
-36.163795 -17.076633 16.495277
-36.095798 -13.570411 18.345694
-35.520538 -17.522486 18.630461
-34.856617 -18.194395 20.51557
-35.003426 -21.184126 18.679302
-34.924133 -24.47003 16.92919
-34.547058 -30.605764 10.756207
-34.319214 -30.903509 12.927932
-33.740959 -33.97316 10.878396
-32.983574 -36.608402 6.775462
-35.174362 -3.455963 23.494326
-37.925381 -8.319608 13.541162
-37.310215 -8.793183 15.902531
-37.353878 -12.309558 14.105537
-36.718754 -16.554165 14.419988
-36.097767 -20.507984 14.453678
-35.405663 -24.292044 14.653295
-35.849663 -23.616879 12.617841
-35.400803 -26.802679 10.74834
-34.771572 -29.964445 8.594901
-33.942795 -33.08746 6.628521
-34.860798 -29.534946 6.429333
-37.035564 9.996158 20.026669
-36.695507 5.698514 20.723604
-37.481785 6.244594 18.469662
-37.912785 2.849533 16.700842
-38.183182 -0.632514 15.08495
-38.795494 -0.151855 12.611951
-38.405285 -4.187432 13.083847
-38.388954 -7.826348 11.378254
-34.923599 11.390144 25.748039
-35.675121 12.315855 23.801481
-35.906666 16.700529 23.053345
-36.45636 13.346634 21.68523
-37.269493 14.388973 19.31628
-38.026283 15.089929 16.891212
-38.741116 15.726396 14.293756
-38.235218 23.74913 14.916195
-36.341282 1.222127 21.183586
-35.985363 -2.566291 21.548225
-35.533501 -6.735352 21.929586
-36.630192 -9.41777 18.059393
-35.83765 -10.104767 20.270731
-35.051994 -11.009907 22.204809
-34.598415 -14.952834 22.358053
-34.716797 -27.750952 14.890108
-32.89856 -36.275684 4.531454
-37.038539 -19.166469 9.064233
-37.261892 -17.380465 10.085612
-37.40259 -17.079487 8.900365
-36.787359 -20.836054 8.024569
-36.646661 -21.137033 9.209816
-37.038539 -19.166469 9.064233
-36.459297 -22.575359 6.95352
-36.787359 -20.836054 8.024569
-38.991312 9.951121 13.329258
-38.667091 9.815081 14.615285
-38.811735 11.785668 14.106007
-37.230373 24.572628 18.081327
-37.190432 22.304292 18.658898
-33.42157 -35.275772 8.768755
-33.358744 -35.474558 9.876463
-33.803785 -33.774374 9.770689
-33.425092 -35.091995 7.719221
-32.980051 -36.792179 7.824995
-33.42157 -35.275772 8.768755
-35.117186 0.30186 24.220143
-35.297661 2.446737 24.054144
-35.337711 -1.353602 23.407815
-34.953837 -1.800501 24.306654
-35.117186 0.30186 24.220143
-38.838377 -1.918003 11.690668
-39.037048 0.097014 11.38479
-38.643272 -3.935792 11.926616
-38.600389 -2.169644 12.847899
-38.838377 -1.918003 11.690668
-38.635107 -5.75525 11.073819
-38.39712 -6.00689 12.231051
-38.643272 -3.935792 11.926616
-35.040108 13.63451 25.431779
-34.653254 13.035839 26.476631
-34.769762 15.280205 26.160371
-36.295103 17.176089 21.931718
-36.001129 18.907471 22.574722
-36.389566 19.383032 21.453094
-38.270964 25.85304 14.194346
-37.920881 25.488965 15.567274
-34.505968 -18.311446 21.519174
-34.590914 -19.971356 20.631811
-34.149161 -31.10761 14.032523
-33.930806 -32.62617 12.993174
-35.2484 6.052524 24.57011
-34.992042 7.59939 25.373639
-35.52668 4.542381 23.715899
-35.2484 6.052524 24.57011
-35.680819 6.45019 23.499026
-35.73008 2.844403 22.983059
-35.297661 2.446737 24.054144
-35.52668 4.542381 23.715899
-36.038809 -24.470537 7.155299
-35.629303 -26.346424 7.271152
-35.985975 -24.682505 8.286005
-36.038809 -24.470537 7.155299
-36.459297 -22.575359 6.95352
-34.877769 17.281937 25.79909
-34.769762 15.280205 26.160371
-36.763903 19.728693 20.315084
-36.389566 19.383032 21.453094
-37.132532 20.162532 19.172263
-37.05217 18.085487 19.667269
-36.763903 19.728693 20.315084
-37.478699 20.661085 18.011083
-37.132532 20.162532 19.172263
-37.190432 22.304292 18.658898
-34.664319 -21.466222 19.713677
-34.590914 -19.971356 20.631811
-34.930021 -19.68926 19.597436
-34.69327 -23.099129 18.768671
-34.664319 -21.466222 19.713677
-34.653623 -24.742081 17.893615
-34.69327 -23.099129 18.768671
-34.96378 -22.827078 17.804246
-34.580192 -26.38629 16.993122
-34.653623 -24.742081 17.893615
-33.641678 -34.160995 11.968406
-33.930806 -32.62617 12.993174
-34.030086 -32.438334 11.903164
-33.322437 -35.6558 10.985119
-33.641678 -34.160995 11.968406
-33.322437 -35.6558 10.985119
-33.358744 -35.474558 9.876463
-32.540751 -38.201178 6.887782
-32.980051 -36.792179 7.824995
-32.479957 -38.070717 5.836327
-32.540751 -38.201178 6.887782
-33.293125 -34.373039 3.229885
-33.815132 -32.552954 3.147741
-34.742699 -3.87533 24.490167
-34.953837 -1.800501 24.306654
-34.949838 -5.513528 23.66735
-34.742699 -3.87533 24.490167
-35.271467 -27.834701 6.28489
-35.218634 -28.04667 7.415596
-35.629303 -26.346424 7.271152
-34.842918 -29.374706 5.290936
-35.271467 -27.834701 6.28489
-34.342537 -31.027353 4.23411
-34.360416 -31.187593 5.372507
-34.842918 -29.374706 5.290936
-33.815132 -32.552954 3.147741
-34.342537 -31.027353 4.23411
-39.146619 8.147569 12.486355
-38.991312 9.951121 13.329258
-38.995798 6.082972 12.91331
-39.146619 8.147569 12.486355
-38.861756 3.967307 13.194644
-38.712626 5.864868 14.11987
-38.995798 6.082972 12.91331
-38.970211 2.016777 12.300017
-39.037048 0.097014 11.38479
-38.687038 1.798674 13.506577
-38.861756 3.967307 13.194644
-38.970211 2.016777 12.300017
-38.577736 -7.542276 10.245795
-38.635107 -5.75525 11.073819
-38.312853 -9.561956 10.455487
-38.577736 -7.542276 10.245795
-38.025124 -11.671343 10.709499
-38.101225 -9.935735 11.632266
-38.312853 -9.561956 10.455487
-37.931347 -13.295524 9.727232
-37.719719 -13.669303 10.904011
-38.025124 -11.671343 10.709499
-37.758506 -15.066468 8.715334
-37.931347 -13.295524 9.727232
-37.40259 -17.079487 8.900365
-37.758506 -15.066468 8.715334
-34.527805 10.988932 26.759348
-34.653254 13.035839 26.476631
-34.752573 9.314296 26.07104
-34.527805 10.988932 26.759348
-35.163069 9.675238 25.050638
-34.992042 7.59939 25.373639
-34.752573 9.314296 26.07104
-35.260334 18.011042 24.686136
-34.877769 17.281937 25.79909
-35.635359 18.421869 23.65505
-36.001129 18.907471 22.574722
-35.531641 16.289702 24.084432
-35.260334 18.011042 24.686136
-35.635359 18.421869 23.65505
-38.938536 13.824052 13.556867
-38.811735 11.785668 14.106007
-38.614315 13.688012 14.842896
-37.571571 25.015822 16.858035
-37.230373 24.572628 18.081327
-37.885908 23.275987 16.206956
-37.571571 25.015822 16.858035
-37.920881 25.488965 15.567274
-38.569617 23.997653 13.555527
-38.270964 25.85304 14.194346
-38.531182 21.98165 14.158055
-38.569617 23.997653 13.555527
-38.49358 19.72449 14.709153
-38.197617 21.49197 15.467293
-38.531182 21.98165 14.158055
-38.784131 17.970283 13.846835
-38.450565 17.480603 15.156074
-38.49358 19.72449 14.709153
-39.035456 16.026884 13.041987
-38.784131 17.970283 13.846835
-38.938536 13.824052 13.556867
-39.035456 16.026884 13.041987
-35.129408 -7.153222 22.88498
-34.949838 -5.513528 23.66735
-35.353932 -5.095657 22.711956
-34.888655 -9.290499 23.022592
-35.129408 -7.153222 22.88498
-35.292748 -8.87263 22.067197
-34.675686 -11.349951 23.105331
-34.888655 -9.290499 23.022592
-34.448896 -13.321414 23.181953
-34.675686 -11.349951 23.105331
-34.825204 -12.981371 22.281431
-34.201622 -15.176521 23.361232
-34.448896 -13.321414 23.181953
-34.376867 -16.690666 22.440416
-34.727516 -16.573614 21.436812
-34.505968 -18.311446 21.519174
-34.201622 -15.176521 23.361232
-34.376867 -16.690666 22.440416
-34.476524 -28.02675 15.973581
-34.580192 -26.38629 16.993122
-34.820465 -26.110491 15.909649
-34.347952 -29.531331 15.013611
-34.518006 -29.32723 13.90902
-34.149161 -31.10761 14.032523
-34.476524 -28.02675 15.973581
-34.347952 -29.531331 15.013611
-32.437451 -37.904358 4.714322
-32.479957 -38.070717 5.836327
-32.941067 -36.442043 5.653458
-32.812387 -36.090761 3.337772
-33.379298 -34.557962 4.423568
-33.293125 -34.373039 3.229885
-32.360754 -37.676595 3.558257
-32.812387 -36.090761 3.337772
-32.437451 -37.904358 4.714322
-32.360754 -37.676595 3.558257
3 0 20 19
3 81 23 82
3 83 82 21
3 81 82 83
3 84 25 85
3 86 85 23
3 84 85 86
3 88 87 25
3 89 28 90
3 91 90 26
3 89 90 91
3 92 30 93
3 1 33 31
3 2 36 34
3 2 38 36
3 2 39 38
3 3 42 40
3 3 94 96
3 96 95 42
3 94 95 96
3 3 97 99
3 97 43 98
3 97 98 99
3 4 100 101
3 4 102 104
3 102 44 103
3 102 103 104
3 5 47 45
3 7 48 22
3 7 49 48
3 7 51 49
3 9 52 24
3 9 53 52
3 9 55 53
3 11 58 56
3 13 59 27
3 13 60 59
3 105 61 106
3 107 62 108
3 109 108 61
3 107 108 109
3 110 63 111
3 112 111 62
3 110 111 112
3 14 113 115
3 113 64 114
3 113 114 115
3 14 65 64
3 15 116 118
3 116 66 117
3 116 117 118
3 15 67 66
3 15 68 67
3 16 69 29
3 16 70 69
3 119 71 120
3 12 72 57
3 17 73 32
3 17 74 73
3 6 75 46
3 18 76 35
3 18 77 76
3 18 78 77
3 122 121 37
3 8 79 50
3 124 123 41
3 10 80 54
3 19 125 126
3 20 127 129
3 129 128 19
3 127 128 129
3 20 130 132
3 130 4 131
3 130 131 132
3 21 22 5
3 23 22 21
3 23 7 22
3 23 24 7
3 25 24 23
3 25 9 24
3 25 133 135
3 135 134 9
3 133 134 135
3 137 136 25
3 26 27 11
3 28 27 26
3 28 13 27
3 138 14 139
3 140 15 141
3 142 29 143
3 144 143 15
3 142 143 144
3 30 145 147
3 145 29 146
3 145 146 147
3 30 16 29
3 31 32 12
3 33 32 31
3 33 17 32
3 34 35 6
3 36 35 34
3 36 18 35
3 36 37 18
3 38 37 36
3 38 148 150
3 150 149 37
3 148 149 150
3 38 151 152
3 39 153 155
3 155 154 38
3 153 154 155
3 39 156 157
3 40 41 8
3 42 41 40
3 42 158 160
3 160 159 41
3 158 159 160
3 42 161 162
3 164 163 42
3 43 165 166
3 43 167 168
3 170 169 10
3 44 171 172
3 44 173 174
3 45 46 1
3 47 46 45
3 47 6 46
3 22 47 5
3 48 47 22
3 48 6 47
3 48 34 6
3 49 34 48
3 49 2 34
3 49 50 2
3 51 50 49
3 51 8 50
3 24 51 7
3 52 51 24
3 52 8 51
3 52 40 8
3 53 40 52
3 53 3 40
3 53 54 3
3 55 54 53
3 55 10 54
3 175 55 176
3 177 176 9
3 175 176 177
3 178 55 179
3 180 10 181
3 182 181 55
3 180 181 182
3 184 183 10
3 56 57 0
3 58 57 56
3 58 12 57
3 27 58 11
3 59 58 27
3 59 12 58
3 59 31 12
3 60 31 59
3 60 1 31
3 185 28 186
3 187 28 188
3 189 13 190
3 191 190 28
3 189 190 191
3 61 192 193
3 61 194 196
3 194 13 195
3 194 195 196
3 61 60 13
3 62 60 61
3 62 1 60
3 62 45 1
3 63 45 62
3 63 5 45
3 197 63 198
3 199 63 200
3 201 5 202
3 203 202 63
3 201 202 203
3 204 21 205
3 206 205 5
3 204 205 206
3 207 21 208
3 210 209 21
3 64 211 212
3 64 213 214
3 64 215 217
3 215 19 216
3 215 216 217
3 65 19 64
3 65 0 19
3 218 14 219
3 66 220 221
3 66 222 224
3 222 14 223
3 222 223 224
3 66 65 14
3 67 65 66
3 67 0 65
3 67 56 0
3 68 56 67
3 68 11 56
3 29 68 15
3 69 68 29
3 69 11 68
3 69 26 11
3 70 26 69
3 70 225 227
3 227 226 26
3 225 226 227
3 228 30 229
3 71 230 232
3 230 30 231
3 230 231 232
3 71 16 30
3 233 71 234
3 235 71 236
3 237 16 238
3 239 238 71
3 237 238 239
3 240 70 241
3 242 241 16
3 240 241 242
3 243 70 244
3 246 245 70
3 57 20 0
3 72 20 57
3 72 4 20
3 32 72 12
3 73 72 32
3 73 4 72
3 73 44 4
3 74 44 73
3 74 247 249
3 249 248 44
3 247 248 249
3 46 33 1
3 75 33 46
3 75 17 33
3 35 75 6
3 76 75 35
3 76 17 75
3 76 74 17
3 77 74 76
3 77 250 252
3 252 251 74
3 250 251 252
3 77 253 254
3 78 255 257
3 257 256 77
3 255 256 257
3 78 258 259
3 37 78 18
3 260 78 261
3 262 261 37
3 260 261 262
3 264 263 78
3 50 39 2
3 79 39 50
3 79 265 267
3 267 266 39
3 265 266 267
3 41 79 8
3 268 79 269
3 270 269 41
3 268 269 270
3 272 271 79
3 54 43 3
3 80 43 54
3 80 273 275
3 275 274 43
3 273 274 275
3 276 80 277
3 278 277 10
3 276 277 278
3 279 80 280
3 282 281 80
