ply
format ascii 1.0
element vertex 423
property float x
property float y
property float z
element face 457
property list uchar int vertex_index
end_header
40.655075 8.710883 15.501492
32.180099 13.522241 26.477575
35.715122 24.628529 10.689259
40.303638 8.885671 9.317939
28.135628 6.579226 34.027905
21.810205 5.548728 40.891373
37.620655 11.782402 20.172951
34.050816 5.806372 27.990456
29.656876 -0.929178 34.987762
34.859829 19.846241 18.602417
39.374695 15.777584 12.507691
40.869465 8.787722 12.716676
35.011791 12.890176 23.267584
36.054867 8.890241 24.051184
33.132675 9.78984 27.240597
25.834152 2.76808 37.637169
28.808155 2.772061 34.730026
33.593971 16.795958 22.775997
36.537464 15.778339 19.132441
37.525612 21.748247 7.494498
39.259712 16.97678 8.620244
37.83844 20.065977 11.325344
30.243853 10.0481 30.374304
27.012207 10.042154 33.893505
24.86805 6.277596 37.486397
39.632809 10.24356 17.425463
39.974537 6.548774 18.375612
38.396996 7.827852 21.048834
36.718647 5.029549 24.866568
34.764698 1.760077 28.689371
31.198622 6.370347 30.93722
31.910122 2.526363 31.660109
33.194679 26.780291 14.496835
32.844326 23.885817 18.435104
35.616108 22.363123 14.530934
37.478729 18.062624 15.281532
38.845718 14.024404 16.234385
40.319271 11.869226 14.004839
40.371372 12.674108 10.559235
40.837219 8.653033 14.321334
40.761684 7.359546 15.415837
33.646076 13.254998 24.818609
34.211685 11.236676 25.21018
32.722202 11.706654 26.767351
32.953354 15.119183 24.642256
34.464272 14.912031 22.781305
36.451904 24.211031 7.114697
36.69521 23.369459 8.989029
37.719036 21.075163 9.308796
36.827374 22.333782 10.996354
22.90246 7.553801 39.173584
24.411661 7.936379 37.434975
23.335781 5.968876 39.175423
23.820539 4.280842 39.177429
38.77549 11.018592 18.668819
39.101471 9.199796 19.108885
38.082069 9.857946 20.553003
35.097527 7.439917 25.990871
36.466309 7.056085 24.358355
35.435848 5.49936 26.411337
35.776516 3.36587 26.813869
34.472801 3.828369 28.287275
29.208035 8.386812 32.197124
30.743269 8.22715 30.63092
29.629028 6.412326 32.562126
29.288834 1.052956 34.80233
30.367296 2.731998 33.187084
30.717278 0.768998 33.471348
32.269241 0.552687 31.93359
33.487041 20.27401 20.473635
32.392159 22.434404 20.484482
33.889709 21.725994 18.594809
34.307655 23.049641 16.531269
35.343327 21.10425 16.538914
36.615669 20.233486 14.799624
36.223743 19.014879 16.915203
37.13953 13.710794 19.669008
37.762783 14.876745 17.71513
38.319092 12.916172 18.211321
39.315796 11.998301 16.892113
39.41391 16.452065 10.516756
39.898827 14.757511 9.587754
40.001225 14.322165 11.442293
40.442619 12.292892 12.330823
39.926449 13.71503 13.287246
40.694817 8.785225 11.024148
36.370213 12.395561 21.692293
36.892139 10.43741 22.071922
35.642265 10.879211 23.567268
34.684502 9.386571 25.573992
33.752251 7.913882 27.407473
26.973335 4.659873 35.897598
28.447496 4.66397 34.428631
27.338823 2.873296 36.137806
27.726336 0.981255 36.338299
28.114815 -0.928543 36.462654
34.403698 18.218773 20.62895
35.760193 17.752987 18.853052
35.155865 16.347582 20.85634
35.891891 14.353545 21.139109
38.447937 19.397167 8.01763
38.639324 18.756636 9.777163
38.715355 17.829386 11.794136
31.098629 11.903388 28.560471
29.590677 11.980919 30.242712
28.627974 10.22901 32.059696
27.615479 8.28665 33.912342
25.91692 8.139351 35.759789
26.507357 6.517914 35.715561
25.395424 4.613304 37.488026
40.27116 9.438008 16.339273
40.419041 7.793043 16.702471
39.875675 8.435189 17.871088
39.281406 7.23893 19.678061
38.545399 5.741583 21.667519
37.301697 8.518085 22.467073
37.573486 6.456353 22.997978
37.737198 4.365922 23.566948
31.734457 10.11361 28.688044
32.219597 8.077451 29.084507
32.675957 6.23227 29.386467
29.988178 4.634559 32.885166
31.465256 4.435524 31.429386
32.996819 4.343891 29.800705
33.41328 2.367683 30.07091
34.569027 25.656631 12.591704
30.272945 26.397703 20.673859
31.348289 24.436226 20.53615
31.640278 26.027943 18.553425
33.135429 25.289465 16.432346
34.44437 24.472116 14.584446
35.744198 23.462873 12.667699
36.811012 21.264696 12.920585
37.751667 19.136806 13.225969
38.461407 17.163076 13.797648
37.111107 16.872108 17.223616
38.205379 16.06027 15.730075
39.144371 15.118092 14.315808
39.685421 12.9955 15.069182
40.070057 11.091269 15.710295
40.570179 10.050116 14.829625
40.019257 10.993119 8.131495
39.545502 15.242943 7.710538
40.084522 12.970192 8.74171
40.449383 10.888995 9.773938
40.689064 10.667967 11.473401
40.728523 10.377865 13.230712
32.566727 14.320712 25.559916
32.144847 15.249125 25.58796
31.758219 14.450654 26.505619
36.205166 23.998994 9.839144
36.146628 24.485312 8.909978
35.656583 25.114847 9.760093
40.144934 7.74946 9.250063
40.007366 8.793919 8.534199
22.051272 4.718528 40.867752
22.81406 4.928603 40.009777
22.572993 5.758802 40.033398
30.406842 -1.034847 34.277744
30.937044 -0.185759 33.519537
30.187077 -0.08009 34.229555
29.768166 -1.993951 35.117143
30.406842 -1.034847 34.277744
40.835325 7.811402 12.587817
40.748002 7.810154 11.741553
40.782141 8.786473 11.870412
27.112434 0.002713 37.170777
26.975876 0.956489 37.064698
27.306673 -0.952187 37.232954
27.920575 0.026356 36.400476
27.112434 0.002713 37.170777
27.477035 -1.850572 37.24522
27.306673 -0.952187 37.232954
33.239372 17.787872 22.615679
32.890591 16.892365 23.661597
33.998835 17.507365 21.702473
33.644236 18.49928 21.542156
33.239372 17.787872 22.615679
37.346193 22.068364 6.6426
36.80934 23.299756 6.452699
36.988758 22.979639 7.304597
37.810812 20.827223 6.857916
37.346193 22.068364 6.6426
37.986775 20.572707 7.756064
38.271974 19.651683 7.119483
37.810812 20.827223 6.857916
29.31956 12.865131 30.161917
30.094676 12.83585 29.262521
27.82009 10.135582 32.976601
28.346555 11.131714 32.002747
27.538671 11.038286 32.919651
24.043473 3.456844 39.196243
23.210597 3.234663 40.082519
36.841048 3.952259 25.091496
37.350323 3.620445 24.441686
37.227922 4.697736 24.216758
35.386865 1.579339 27.941907
35.892775 2.382236 27.004156
35.270607 2.562974 27.75162
34.877402 0.774377 28.866917
35.386865 1.579339 27.941907
32.948948 0.406798 31.231938
32.370817 -0.506937 32.130871
33.237302 27.39088 13.510387
32.558604 27.853962 14.572419
33.881853 26.218461 13.54427
33.924476 26.82905 12.557821
33.237302 27.39088 13.510387
30.057189 25.650616 21.661561
29.524836 26.663238 21.738696
39.79665 12.060202 7.543557
39.682105 10.984531 7.294498
39.402607 16.109862 8.165391
39.186716 16.488478 7.272468
39.043821 17.355397 7.727321
40.230608 6.272349 17.643966
40.45286 6.894483 16.807396
40.196789 7.170908 17.539041
40.859598 7.838299 14.154091
40.875721 7.905644 13.351762
40.853342 8.720378 13.519005
40.821831 7.191556 14.701342
40.859598 7.838299 14.154091
40.799452 8.00629 14.868586
40.747495 6.433964 15.467396
40.821831 7.191556 14.701342
26.029784 1.849901 37.714133
25.218383 1.826589 38.500225
32.570282 16.053978 24.594727
32.144847 15.249125 25.58796
33.273663 15.95757 23.709126
32.890591 16.892365 23.661597
32.570282 16.053978 24.594727
36.024974 24.906098 7.972812
35.877825 25.419269 7.007271
36.573557 23.790245 8.051863
36.024974 24.906098 7.972812
36.146628 24.485312 8.909978
26.77376 10.9553 33.821119
27.538671 11.038286 32.919651
23.657061 7.74509 38.304279
24.190641 8.801224 37.405552
23.43604 8.609935 38.274856
23.056439 4.084586 40.01078
23.57816 5.124859 39.176426
22.81406 4.928603 40.009777
23.210597 3.234663 40.082519
23.056439 4.084586 40.01078
31.713025 -0.293915 32.750658
31.49326 0.660842 32.702469
30.937044 -0.185759 33.519537
32.370817 -0.506937 32.130871
31.713025 -0.293915 32.750658
32.575724 27.079277 15.492752
32.558604 27.853962 14.572419
32.9396 21.354207 20.479059
32.211569 21.591528 21.407369
32.75901 20.511331 21.401946
40.009521 5.615636 18.510679
39.696708 5.927955 19.231839
40.599789 7.751869 10.925182
40.4042 7.802091 10.072078
40.499228 8.835448 10.171043
40.599789 7.751869 10.925182
40.748002 7.810154 11.741553
40.835325 7.811402 12.587817
40.875721 7.905644 13.351762
22.715193 8.478763 39.116283
23.43604 8.609935 38.274856
22.167487 7.435425 39.996967
22.715193 8.478763 39.116283
21.62136 6.432888 40.855862
22.356333 6.551265 40.032478
22.167487 7.435425 39.996967
26.78212 1.902509 36.964451
26.586488 2.820688 36.887487
26.029784 1.849901 37.714133
27.53258 1.927275 36.238052
26.78212 1.902509 36.964451
26.975876 0.956489 37.064698
28.259047 -1.852072 36.519503
29.030077 -1.852389 35.782056
28.885846 -0.92886 35.725208
28.259047 -1.852072 36.519503
27.477035 -1.850572 37.24522
33.185907 19.526899 21.464499
32.75901 20.511331 21.401946
33.945369 19.246392 20.551293
33.185907 19.526899 21.464499
33.644236 18.49928 21.542156
36.290676 24.516547 6.223376
35.877825 25.419269 7.007271
36.290676 24.516547 6.223376
36.80934 23.299756 6.452699
38.637934 18.56559 7.426014
38.271974 19.651683 7.119483
38.853825 18.186974 8.318937
39.043821 17.355397 7.727321
38.637934 18.56559 7.426014
40.144934 7.74946 9.250063
40.4042 7.802091 10.072078
30.848652 12.797084 28.421401
31.639364 12.712815 27.519023
31.389387 13.60651 27.379953
30.344653 11.942153 29.401592
30.848652 12.797084 28.421401
30.094676 12.83585 29.262521
28.827906 12.007669 31.094254
29.31956 12.865131 30.161917
29.109325 11.104965 31.151204
28.827906 12.007669 31.094254
28.346555 11.131714 32.002747
26.217897 9.930262 34.805021
26.77376 10.9553 33.821119
24.917624 8.877374 36.575756
24.190641 8.801224 37.405552
25.670254 8.97886 35.738163
24.917624 8.877374 36.575756
25.16429 8.037865 36.597382
26.464564 9.090753 34.826647
26.217897 9.930262 34.805021
25.670254 8.97886 35.738163
24.830915 3.623075 38.351541
24.607982 4.447073 38.332727
24.043473 3.456844 39.196243
25.05028 2.700463 38.426113
25.614788 3.690692 37.562597
24.830915 3.623075 38.351541
25.218383 1.826589 38.500225
25.05028 2.700463 38.426113
31.389387 13.60651 27.379953
31.758219 14.450654 26.505619
35.109099 25.772078 10.632553
35.656583 25.114847 9.760093
39.350143 6.273034 19.883063
39.696708 5.927955 19.231839
39.627972 6.893852 19.026837
38.98214 5.52436 20.877792
39.350143 6.273034 19.883063
38.913403 6.490257 20.67279
38.640616 4.786577 21.818424
38.98214 5.52436 20.877792
38.236515 4.098746 22.768138
38.640616 4.786577 21.818424
38.141299 5.053752 22.617233
37.874901 3.339266 23.675762
38.236515 4.098746 22.768138
37.874901 3.339266 23.675762
37.350323 3.620445 24.441686
36.369982 3.120419 26.065147
36.841048 3.952259 25.091496
36.247581 4.19771 25.840218
36.369982 3.120419 26.065147
35.892775 2.382236 27.004156
33.520967 1.314296 30.300598
32.841261 1.460185 31.00225
32.948948 0.406798 31.231938
34.196676 1.010493 29.609829
34.088989 2.06388 29.380141
33.520967 1.314296 30.300598
34.877402 0.774377 28.866917
34.196676 1.010493 29.609829
29.768166 -1.993951 35.117143
29.030077 -1.852389 35.782056
21.039598 5.435123 41.725504
21.62136 6.432888 40.855862
21.233168 4.597557 41.735136
21.039598 5.435123 41.725504
22.051272 4.718528 40.867752
21.233168 4.597557 41.735136
34.536051 26.28613 11.583775
33.924476 26.82905 12.557821
35.142074 25.14258 11.640481
35.109099 25.772078 10.632553
34.536051 26.28613 11.583775
29.666513 27.5229 20.734642
29.524836 26.663238 21.738696
30.400667 27.210041 19.657165
29.666513 27.5229 20.734642
31.66983 22.604841 21.495748
32.211569 21.591528 21.407369
31.147896 23.605752 21.521583
31.66983 22.604841 21.495748
31.870224 23.435315 20.510316
30.594861 24.669878 21.592706
31.147896 23.605752 21.521583
30.810617 25.416964 20.605004
30.057189 25.650616 21.661561
30.594861 24.669878 21.592706
31.084333 27.025161 18.596948
30.400667 27.210041 19.657165
30.956612 26.212823 19.613642
31.798523 26.703103 17.521048
31.084333 27.025161 18.596948
32.546098 26.333864 16.460508
31.798523 26.703103 17.521048
32.387853 25.658704 17.492885
33.165054 26.034878 15.46459
32.575724 27.079277 15.492752
32.546098 26.333864 16.460508
39.865176 9.847643 7.940976
39.528023 9.839055 7.10398
39.682105 10.984531 7.294498
40.161448 9.939395 8.724717
40.007366 8.793919 8.534199
39.865176 9.847643 7.940976
39.280294 15.370921 6.834647
39.186716 16.488478 7.272468
39.559773 14.185115 7.333079
39.280294 15.370921 6.834647
39.829283 13.048739 7.848664
39.559773 14.185115 7.333079
39.815012 14.106568 8.226124
40.05189 11.981656 8.436602
39.79665 12.060202 7.543557
39.829283 13.048739 7.848664
40.624182 6.677735 16.164079
40.590362 7.576294 16.059154
40.45286 6.894483 16.807396
40.747495 6.433964 15.467396
40.624182 6.677735 16.164079
40.230608 6.272349 17.643966
40.009521 5.615636 18.510679
3 0 40 39
3 1 43 41
3 1 147 149
3 147 44 148
3 147 148 149
3 1 41 44
3 2 150 152
3 150 47 151
3 150 151 152
3 2 49 47
3 3 153 154
3 5 52 50
3 5 155 157
3 157 156 52
3 155 156 157
3 6 56 54
3 7 59 57
3 7 61 59
3 4 64 62
3 8 67 65
3 8 158 160
3 160 159 67
3 158 159 160
3 8 161 162
3 9 71 69
3 9 73 71
3 9 75 73
3 6 78 76
3 6 54 78
3 10 82 80
3 10 84 82
3 11 163 165
3 165 164 85
3 163 164 165
3 12 88 86
3 14 89 42
3 14 90 89
3 15 93 91
3 166 94 167
3 168 95 169
3 170 169 94
3 168 169 170
3 172 171 95
3 17 173 174
3 17 175 177
3 175 96 176
3 175 176 177
3 17 98 96
3 12 99 45
3 12 86 99
3 19 178 180
3 180 179 46
3 178 179 180
3 19 181 182
3 19 183 185
3 183 100 184
3 183 184 185
3 21 101 48
3 21 102 101
3 186 104 187
3 23 188 190
3 188 105 189
3 188 189 190
3 23 106 105
3 24 107 51
3 24 108 107
3 24 109 108
3 192 191 53
3 25 112 110
3 27 113 55
3 27 114 113
3 13 115 87
3 28 116 58
3 28 117 116
3 28 193 195
3 195 194 117
3 193 194 195
3 29 196 198
3 198 197 60
3 196 197 198
3 29 199 200
3 22 118 103
3 30 119 63
3 30 120 119
3 16 121 92
3 31 122 66
3 31 123 122
3 31 124 123
3 202 201 68
3 32 203 204
3 32 205 207
3 205 125 206
3 205 206 207
3 208 126 209
3 33 127 70
3 33 128 127
3 33 129 128
3 34 130 72
3 34 131 130
3 34 132 131
3 35 133 74
3 35 134 133
3 18 135 97
3 36 136 77
3 36 137 136
3 36 138 137
3 25 139 79
3 25 110 139
3 210 141 211
3 20 212 214
3 212 142 213
3 212 213 214
3 38 143 81
3 38 144 143
3 38 145 144
3 37 146 83
3 37 140 146
3 26 215 217
3 217 216 111
3 215 216 217
3 39 218 220
3 220 219 11
3 218 219 220
3 40 221 223
3 223 222 39
3 221 222 223
3 40 224 225
3 41 42 12
3 43 42 41
3 43 14 42
3 227 226 15
3 44 228 229
3 44 230 232
3 230 17 231
3 230 231 232
3 44 45 17
3 41 45 44
3 41 12 45
3 233 46 234
3 47 235 237
3 235 46 236
3 235 236 237
3 47 19 46
3 47 48 19
3 49 48 47
3 49 21 48
3 238 23 239
3 50 240 242
3 240 51 241
3 240 241 242
3 52 51 50
3 52 24 51
3 52 53 24
3 243 53 244
3 245 244 52
3 243 244 245
3 247 246 53
3 54 55 25
3 56 55 54
3 56 27 55
3 57 58 13
3 59 58 57
3 59 28 58
3 59 60 28
3 61 60 59
3 61 29 60
3 62 63 22
3 64 63 62
3 64 30 63
3 65 66 16
3 67 66 65
3 67 31 66
3 67 68 31
3 248 68 249
3 250 249 67
3 248 249 250
3 252 251 68
3 253 32 254
3 69 255 257
3 255 70 256
3 255 256 257
3 71 70 69
3 71 33 70
3 71 72 33
3 73 72 71
3 73 34 72
3 73 74 34
3 75 74 73
3 75 35 74
3 76 77 18
3 78 77 76
3 78 36 77
3 78 79 36
3 54 79 78
3 54 25 79
3 80 81 20
3 82 81 80
3 82 38 81
3 82 83 38
3 84 83 82
3 84 37 83
3 259 258 26
3 85 260 262
3 262 261 3
3 260 261 262
3 264 263 85
3 266 265 11
3 267 50 268
3 269 50 270
3 271 5 272
3 273 272 50
3 271 272 273
3 86 87 6
3 88 87 86
3 88 13 87
3 42 88 12
3 89 88 42
3 89 13 88
3 89 57 13
3 90 57 89
3 90 7 57
3 91 92 4
3 93 92 91
3 93 16 92
3 274 93 275
3 276 275 15
3 274 275 276
3 94 277 279
3 277 93 278
3 277 278 279
3 94 16 93
3 94 65 16
3 95 65 94
3 95 8 65
3 95 280 282
3 282 281 8
3 280 281 282
3 284 283 95
3 285 69 286
3 96 287 289
3 287 69 288
3 287 288 289
3 96 9 69
3 96 97 9
3 98 97 96
3 98 18 97
3 45 98 17
3 99 98 45
3 99 18 98
3 99 76 18
3 86 76 99
3 86 6 76
3 46 290 291
3 293 292 46
3 100 294 295
3 100 296 298
3 296 20 297
3 296 297 298
3 48 100 19
3 101 100 48
3 101 20 100
3 101 80 20
3 102 80 101
3 102 10 80
3 300 299 3
3 301 103 302
3 303 302 1
3 301 302 303
3 104 304 306
3 304 103 305
3 304 305 306
3 104 22 103
3 307 104 308
3 105 309 311
3 309 104 310
3 309 310 311
3 105 22 104
3 105 62 22
3 106 62 105
3 106 4 62
3 312 23 313
3 51 314 315
3 107 316 318
3 318 317 51
3 316 317 318
3 107 319 321
3 319 23 320
3 319 320 321
3 107 106 23
3 108 106 107
3 108 4 106
3 108 91 4
3 109 91 108
3 109 15 91
3 53 109 24
3 322 109 323
3 324 323 53
3 322 323 324
3 325 15 326
3 327 326 109
3 325 326 327
3 329 328 15
3 330 1 331
3 332 2 333
3 110 111 0
3 112 111 110
3 112 26 111
3 55 112 25
3 113 112 55
3 113 26 112
3 113 334 336
3 336 335 26
3 334 335 336
3 114 337 339
3 339 338 113
3 337 338 339
3 114 340 341
3 87 56 6
3 115 56 87
3 115 27 56
3 58 115 13
3 116 115 58
3 116 27 115
3 116 114 27
3 117 114 116
3 117 342 344
3 344 343 114
3 342 343 344
3 117 345 346
3 348 347 117
3 60 349 351
3 351 350 28
3 349 350 351
3 353 352 60
3 103 43 1
3 118 43 103
3 118 14 43
3 63 118 22
3 119 118 63
3 119 14 118
3 119 90 14
3 120 90 119
3 120 7 90
3 92 64 4
3 121 64 92
3 121 30 64
3 66 121 16
3 122 121 66
3 122 30 121
3 122 120 30
3 123 120 122
3 123 7 120
3 123 61 7
3 124 61 123
3 124 29 61
3 68 124 31
3 354 124 355
3 356 355 68
3 354 355 356
3 357 29 358
3 359 358 124
3 357 358 359
3 361 360 29
3 363 362 8
3 364 5 365
3 366 5 367
3 369 368 5
3 125 370 371
3 125 372 374
3 372 2 373
3 372 373 374
3 126 375 376
3 126 377 378
3 70 379 380
3 127 381 383
3 383 382 70
3 381 382 383
3 127 384 385
3 127 386 388
3 386 126 387
3 386 387 388
3 128 126 127
3 128 389 391
3 391 390 126
3 389 390 391
3 128 392 393
3 129 394 396
3 396 395 128
3 394 395 396
3 129 397 399
3 397 32 398
3 397 398 399
3 72 129 33
3 130 129 72
3 130 32 129
3 130 125 32
3 131 125 130
3 131 2 125
3 131 49 2
3 132 49 131
3 132 21 49
3 74 132 34
3 133 132 74
3 133 21 132
3 133 102 21
3 134 102 133
3 134 10 102
3 97 75 9
3 135 75 97
3 135 35 75
3 77 135 18
3 136 135 77
3 136 35 135
3 136 134 35
3 137 134 136
3 137 10 134
3 137 84 10
3 138 84 137
3 138 37 84
3 79 138 36
3 139 138 79
3 139 37 138
3 139 140 37
3 110 140 139
3 110 0 140
3 141 400 402
3 400 401 402
3 141 403 405
3 403 3 404
3 403 404 405
3 142 406 407
3 142 408 409
3 81 142 20
3 143 142 81
3 143 410 412
3 412 411 142
3 410 411 412
3 143 413 415
3 413 141 414
3 413 414 415
3 144 141 143
3 144 3 141
3 144 85 3
3 145 85 144
3 145 11 85
3 83 145 38
3 146 145 83
3 146 11 145
3 146 39 11
3 140 39 146
3 140 0 39
3 111 40 0
3 416 40 417
3 418 417 111
3 416 417 418
3 420 419 40
3 422 421 26
