ply
format ascii 1.0
element vertex 257
property float x
property float y
property float z
element face 265
property list uchar int vertex_index
end_header
-28.66691 -40.43227 32.491753
-16.961929 -45.775288 35.702457
-23.17733 -42.731667 34.121193
-26.020565 -34.168747 34.553848
-14.094923 -38.822979 39.281193
-19.727766 -36.093372 36.652546
-26.182564 -41.504459 33.336746
-14.033059 -47.435257 36.708378
-24.78944 -30.365482 35.645882
-22.835339 -35.064312 35.616741
-20.038641 -44.424889 34.817749
-18.98872 -49.074036 34.110909
-22.141607 -47.530899 33.289116
-27.495718 -37.57476 33.50983
-30.182961 -37.583218 32.08012
-29.22224 -33.951698 33.104973
-15.321208 -42.306442 37.309299
-16.836489 -37.384098 37.80555
-18.198572 -40.980877 36.213779
-21.306719 -39.606831 35.335072
-24.446066 -38.443264 34.503426
-27.623661 -40.877384 32.890831
-27.261431 -42.697975 32.576801
-15.449823 -46.550545 36.204365
-14.982301 -49.027317 35.820751
-16.434183 -48.188068 35.372478
-21.632652 -43.611324 34.446133
-20.992117 -46.030678 34.120323
-22.640551 -45.209213 33.729767
-26.75721 -36.038414 34.016193
-28.332888 -35.853252 33.34985
-27.614107 -34.06012 33.891571
-13.974816 -42.969006 37.960171
-14.600561 -40.593525 38.26545
-19.100258 -34.217297 37.451351
-17.552731 -34.916183 38.148136
-18.252516 -36.656387 37.219662
-17.383148 -39.241764 36.990528
-18.911438 -38.548588 36.444855
-19.739916 -40.225376 35.765953
-20.494455 -37.785439 35.971275
-24.4846 -34.424358 35.107681
-23.610178 -36.724182 35.060337
-25.164507 -36.304935 34.58215
-26.000889 -38.008812 34.032017
-24.681227 -42.152477 33.737423
-24.138798 -44.408466 33.388691
-25.726215 -43.60017 32.989567
-25.36574 -32.241386 35.086811
-27.06559 -32.144924 34.363865
-26.419554 -30.169327 34.921722
-20.62635 -33.796261 36.795315
-21.304905 -35.442501 36.132767
-22.2267 -33.062382 36.248302
-23.777397 -32.734161 35.661491
-18.517654 -45.005085 35.248569
-17.882172 -47.51997 34.935513
-19.448923 -46.861607 34.48801
-20.555708 -48.316616 33.694904
-21.615477 -49.846867 32.780281
-23.751066 -46.606728 32.912914
-28.169903 -39.200916 32.969662
-29.382029 -39.189522 32.319241
-28.8575 -37.564793 32.86956
-29.781456 -35.768562 32.582504
-14.639857 -44.846836 37.035221
-16.042904 -44.175747 36.471836
-14.846794 -36.367081 39.638412
-16.230978 -35.565605 38.835293
-15.423029 -38.035671 38.530487
-15.959911 -39.678596 37.657246
-16.721684 -41.537746 36.758842
-17.548172 -43.292835 35.993454
-19.144258 -42.618996 35.507027
-20.677168 -42.007469 35.090698
-22.165131 -41.186016 34.759903
-21.935019 -37.329586 35.535351
-22.883675 -38.89986 34.939964
-23.722992 -40.526821 34.380932
-25.277214 -39.965786 33.967037
-26.802185 -39.483566 33.498814
-29.108764 -40.658384 32.154595
-28.589557 -41.199123 32.322541
-28.589557 -41.199123 32.322541
-28.067932 -41.421681 32.52208
-28.145285 -40.654827 32.691292
-13.682692 -40.080639 39.15208
-13.417493 -39.189127 39.749043
-14.347742 -39.708252 38.773322
-13.93551 -40.965912 38.644209
-13.682692 -40.080639 39.15208
-27.0042 -43.749001 32.360022
-27.735396 -43.288353 32.120792
-13.745479 -48.634686 36.542208
-13.334424 -47.743695 37.032198
-14.70661 -50.32855 35.600528
-15.460833 -49.897308 35.375045
-21.040498 -32.59946 36.898848
-20.321309 -32.870379 37.209319
-21.840674 -32.23252 36.625341
-21.426525 -33.429322 36.521809
-21.040498 -32.59946 36.898848
-24.283418 -31.549822 35.653686
-23.479731 -31.792333 35.977342
-23.985752 -30.607993 35.969538
-24.490553 -46.158998 32.735548
-23.944932 -45.507597 33.150802
-24.684419 -45.059867 32.973437
-18.202295 -49.528284 34.310274
-17.649021 -48.751251 34.722577
-18.435446 -48.297003 34.523211
-29.95787 -33.910308 32.668675
-30.237477 -34.818741 32.40744
-29.501848 -34.86013 32.843739
-27.850027 -32.07291 33.993772
-27.551362 -31.077946 34.256954
-15.262126 -35.184399 39.797621
-14.6306 -35.509321 40.25385
-30.378548 -38.549244 31.748484
-29.978082 -39.352396 31.868045
-29.782495 -38.38637 32.19968
-27.886817 -42.331976 32.365065
-27.442546 -41.787679 32.733816
-28.067932 -41.421681 32.52208
-27.735396 -43.288353 32.120792
-27.886817 -42.331976 32.365065
-16.186774 -49.477684 35.150909
-15.460833 -49.897308 35.375045
-15.708242 -48.607692 35.596615
-25.316103 -29.32037 35.577921
-24.482066 -29.455606 35.98012
-24.482066 -29.455606 35.98012
-23.985752 -30.607993 35.969538
-18.717156 -50.32219 33.863228
-19.556894 -49.851304 33.645859
-13.622638 -42.153652 38.491569
-13.298399 -43.321026 38.342531
-14.287689 -41.781266 38.112811
-13.622638 -42.153652 38.491569
-13.93551 -40.965912 38.644209
-18.326495 -34.56674 37.799744
-18.026475 -33.786903 38.232887
-18.800238 -33.43746 37.884495
-30.838861 -37.735157 31.558183
-30.666034 -36.735191 31.869897
-25.478127 -44.65572 32.773875
-24.684419 -45.059867 32.973437
-24.932507 -44.004318 33.189129
-26.236592 -44.200098 32.566405
-26.493823 -43.149073 32.783184
-27.0042 -43.749001 32.360022
-25.478127 -44.65572 32.773875
-26.236592 -44.200098 32.566405
-14.220099 -49.430715 36.098394
-13.745479 -48.634686 36.542208
-14.50768 -48.231287 36.264565
-14.220099 -49.430715 36.098394
-14.70661 -50.32855 35.600528
-27.228344 -30.090147 34.535882
-27.551362 -31.077946 34.256954
-26.742572 -31.157125 34.642793
-26.13116 -29.222293 35.215841
-25.604497 -30.267404 35.283802
-25.316103 -29.32037 35.577921
-26.990606 -29.017528 34.800444
-26.13116 -29.222293 35.215841
-26.702212 -28.070494 35.094562
-27.228344 -30.090147 34.535882
-26.990606 -29.017528 34.800444
-13.813349 -37.972921 39.910967
-13.417493 -39.189127 39.749043
-19.558263 -33.080897 37.537337
-18.800238 -33.43746 37.884495
-19.863304 -34.006779 37.123333
-19.558263 -33.080897 37.537337
-20.321309 -32.870379 37.209319
-22.704382 -31.956443 36.270748
-21.840674 -32.23252 36.625341
-23.002049 -32.898271 35.954897
-22.704382 -31.956443 36.270748
-23.479731 -31.792333 35.977342
-20.340387 -49.472594 33.437857
-19.556894 -49.851304 33.645859
-19.772214 -48.695326 33.902907
-20.870272 -50.237719 32.980545
-20.340387 -49.472594 33.437857
-21.085592 -49.081742 33.237593
-21.405901 -51.067282 32.427076
-20.870272 -50.237719 32.980545
-24.293087 -47.249922 32.435951
-24.490553 -46.158998 32.735548
-23.489083 -47.761723 32.639616
-24.293087 -47.249922 32.435951
-22.684354 -48.223809 32.827717
-22.946337 -47.068813 33.101015
-23.489083 -47.761723 32.639616
-22.421288 -49.381793 32.5733
-21.878542 -48.688883 33.034699
-22.684354 -48.223809 32.827717
-22.17763 -50.531399 32.239664
-22.421288 -49.381793 32.5733
-21.405901 -51.067282 32.427076
-22.17763 -50.531399 32.239664
-16.925027 -49.085301 34.941059
-17.158178 -47.854019 35.153996
-17.649021 -48.751251 34.722577
-16.186774 -49.477684 35.150909
-16.925027 -49.085301 34.941059
-18.202295 -49.528284 34.310274
-18.717156 -50.32219 33.863228
-30.465281 -35.827864 32.121089
-30.666034 -36.735191 31.869897
-29.982208 -36.67589 32.331312
-30.465281 -35.827864 32.121089
-30.237477 -34.818741 32.40744
-28.124285 -33.030508 33.757626
-27.339849 -33.102522 34.127718
-27.850027 -32.07291 33.993772
-28.928352 -32.976297 33.364327
-28.418174 -34.005909 33.498272
-28.124285 -33.030508 33.757626
-29.708341 -32.922836 32.929207
-28.928352 -32.976297 33.364327
-29.95787 -33.910308 32.668675
-29.708341 -32.922836 32.929207
-13.671308 -46.492775 37.178049
-13.334424 -47.743695 37.032198
-13.642187 -44.25965 37.803945
-13.298399 -43.321026 38.342531
-13.974707 -45.198565 37.34147
-13.642187 -44.25965 37.803945
-14.307336 -43.907921 37.497696
-14.336458 -46.141047 36.8718
-13.671308 -46.492775 37.178049
-13.974707 -45.198565 37.34147
-14.189284 -36.744973 40.089576
-14.6306 -35.509321 40.25385
-14.470858 -37.59503 39.459803
-13.813349 -37.972921 39.910967
-14.189284 -36.744973 40.089576
-17.296328 -34.072153 38.648466
-18.026475 -33.786903 38.232887
-16.635452 -34.396864 38.992044
-17.296328 -34.072153 38.648466
-16.891855 -35.240894 38.491715
-15.954218 -34.783661 39.396061
-16.635452 -34.396864 38.992044
-15.538886 -35.966343 39.236852
-15.262126 -35.184399 39.797621
-15.954218 -34.783661 39.396061
-29.466324 -40.03701 32.06834
-29.108764 -40.658384 32.154595
-29.02447 -39.810896 32.405497
-29.466324 -40.03701 32.06834
-29.978082 -39.352396 31.868045
-30.378548 -38.549244 31.748484
-30.838861 -37.735157 31.558183
3 0 81 82
3 0 83 85
3 85 84 21
3 83 84 85
3 1 25 23
3 2 28 26
3 3 31 29
3 4 86 87
3 4 88 90
3 88 33 89
3 88 89 90
3 5 36 34
3 5 38 36
3 5 40 38
3 3 43 41
3 3 29 43
3 6 47 45
3 92 91 22
3 7 93 94
3 96 95 24
3 8 50 48
3 97 51 98
3 99 53 100
3 101 100 51
3 99 100 101
3 8 102 104
3 102 54 103
3 102 103 104
3 8 48 54
3 10 57 55
3 12 58 27
3 12 59 58
3 105 60 106
3 107 106 46
3 105 106 107
3 11 108 110
3 110 109 56
3 108 109 110
3 13 63 61
3 15 64 30
3 15 111 113
3 113 112 64
3 111 112 113
3 115 114 49
3 16 65 32
3 16 66 65
3 116 67 117
3 17 68 35
3 17 69 68
3 17 70 69
3 18 71 37
3 18 72 71
3 18 73 72
3 19 74 39
3 19 75 74
3 9 76 52
3 20 77 42
3 20 78 77
3 20 79 78
3 13 80 44
3 13 61 80
3 14 118 120
3 120 119 62
3 118 119 120
3 21 22 6
3 121 22 122
3 123 122 21
3 121 122 123
3 125 124 22
3 23 24 7
3 25 24 23
3 25 126 128
3 128 127 24
3 126 127 128
3 130 129 8
3 131 8 132
3 26 27 10
3 28 27 26
3 28 12 27
3 134 133 11
3 29 30 13
3 31 30 29
3 31 15 30
3 135 32 136
3 33 137 139
3 137 32 138
3 137 138 139
3 33 16 32
3 34 140 142
3 140 35 141
3 140 141 142
3 36 35 34
3 36 17 35
3 36 37 17
3 38 37 36
3 38 18 37
3 38 39 18
3 40 39 38
3 40 19 39
3 41 42 9
3 43 42 41
3 43 20 42
3 43 44 20
3 29 44 43
3 29 13 44
3 144 143 14
3 45 46 2
3 47 46 45
3 47 145 147
3 147 146 46
3 145 146 147
3 22 47 6
3 148 47 149
3 150 149 22
3 148 149 150
3 152 151 47
3 24 153 155
3 155 154 7
3 153 154 155
3 157 156 24
3 48 49 3
3 50 49 48
3 50 158 160
3 160 159 49
3 158 159 160
3 161 50 162
3 163 162 8
3 161 162 163
3 164 50 165
3 164 165 166
3 168 167 50
3 169 4 170
3 171 34 172
3 51 173 175
3 173 34 174
3 173 174 175
3 51 5 34
3 51 52 5
3 53 52 51
3 53 9 52
3 176 53 177
3 54 178 180
3 178 53 179
3 178 179 180
3 54 9 53
3 54 41 9
3 48 41 54
3 48 3 41
3 55 56 1
3 57 56 55
3 57 11 56
3 27 57 10
3 58 57 27
3 58 11 57
3 58 181 183
3 183 182 11
3 181 182 183
3 59 184 186
3 186 185 58
3 184 185 186
3 59 187 188
3 46 28 2
3 60 28 46
3 60 12 28
3 189 60 190
3 191 60 192
3 193 12 194
3 195 194 60
3 193 194 195
3 196 59 197
3 198 197 12
3 196 197 198
3 199 59 200
3 202 201 59
3 56 25 1
3 203 25 204
3 205 204 56
3 203 204 205
3 207 206 25
3 209 208 11
3 61 62 0
3 63 62 61
3 63 14 62
3 30 63 13
3 64 63 30
3 64 14 63
3 64 210 212
3 212 211 14
3 210 211 212
3 214 213 64
3 49 31 3
3 215 31 216
3 217 216 49
3 215 216 217
3 218 15 219
3 220 219 31
3 218 219 220
3 221 15 222
3 224 223 15
3 225 7 226
3 32 227 228
3 65 229 231
3 231 230 32
3 229 230 231
3 65 232 234
3 232 7 233
3 232 233 234
3 65 23 7
3 66 23 65
3 66 1 23
3 67 235 236
3 67 237 239
3 237 4 238
3 237 238 239
3 35 240 241
3 68 242 244
3 244 243 35
3 242 243 244
3 68 245 246
3 68 247 249
3 247 67 248
3 247 248 249
3 69 67 68
3 69 4 67
3 69 33 4
3 70 33 69
3 70 16 33
3 37 70 17
3 71 70 37
3 71 16 70
3 71 66 16
3 72 66 71
3 72 1 66
3 72 55 1
3 73 55 72
3 73 10 55
3 39 73 18
3 74 73 39
3 74 10 73
3 74 26 10
3 75 26 74
3 75 2 26
3 52 40 5
3 76 40 52
3 76 19 40
3 42 76 9
3 77 76 42
3 77 19 76
3 77 75 19
3 78 75 77
3 78 2 75
3 78 45 2
3 79 45 78
3 79 6 45
3 44 79 20
3 80 79 44
3 80 6 79
3 80 21 6
3 61 21 80
3 61 0 21
3 62 250 252
3 252 251 0
3 250 251 252
3 254 253 62
3 256 255 14
