ply
format ascii 1.0
element vertex 123
property float x
property float y
property float z
element face 107
property list uchar int vertex_index
end_header
-28.936014 41.314075 3.626086
-24.155535 50.482342 8.094124
-26.452698 45.914391 5.859587
-25.50458 50.243484 3.611285
-30.449192 37.334061 5.51725
-27.73843 41.407642 8.072361
-25.11393 45.642551 10.668223
-22.646637 50.299992 12.98011
-30.199381 39.050781 2.443402
-25.26631 48.150692 7.095661
-25.937151 48.067276 4.798837
-24.843994 50.448486 5.832579
-26.427624 43.458801 9.355641
-27.660791 43.598831 4.819582
-28.26549 43.284397 2.64076
-27.130276 45.592297 3.660641
-26.568998 47.805862 2.498044
-31.027308 37.094948 3.324041
-29.676773 39.284874 4.628934
-29.08663 39.322784 6.875657
-28.322136 41.54987 5.774459
-27.046551 43.659672 7.012438
-25.829002 45.789551 8.185566
-24.618593 48.048027 9.341578
-23.851524 48.015896 11.781384
-23.420366 50.282192 10.628726
-29.144092 41.227728 2.587108
-29.775776 40.09608 1.995766
-29.567698 40.182428 3.034744
-25.79217 50.07741 2.512116
-26.324379 48.858598 1.955495
-26.036789 49.024673 3.054665
-30.73825 37.214505 4.420646
-31.417361 36.161505 3.836177
-31.128303 36.281061 4.932782
-28.41253 40.365213 7.474009
-28.73787 39.279493 8.111329
-28.063771 40.321922 8.709681
-23.24908 49.157944 12.380747
-23.508874 47.880902 12.987281
-22.90643 49.02295 13.586644
-22.46628 51.503287 12.299498
-22.853144 51.494387 11.123806
-23.033501 50.291092 11.804418
-28.454994 43.159519 1.587678
-27.948646 44.313312 2.079077
-30.32383 38.978441 1.414169
-30.766329 38.01486 1.851084
-30.32383 38.978441 1.414169
-29.775776 40.09608 1.995766
-30.85135 36.322344 6.02591
-31.128303 36.281061 4.932782
-27.374357 41.386843 9.270271
-28.063771 40.321922 8.709681
-26.718954 42.412422 9.911911
-27.083027 42.433222 8.714001
-27.374357 41.386843 9.270271
-26.043531 43.462001 10.559641
-26.718954 42.412422 9.911911
-25.386684 44.553877 11.215932
-25.770777 44.550676 10.011932
-26.043531 43.462001 10.559641
-22.308971 50.105947 14.205624
-22.90643 49.02295 13.586644
-22.099663 51.418616 13.476216
-22.308971 50.105947 14.205624
-23.985122 51.638939 7.4369
-23.624316 51.563815 8.660247
-27.381039 45.467263 2.589017
-27.948646 44.313312 2.079077
-27.697883 44.438347 3.150701
-27.1004 46.574045 2.007719
-27.381039 45.467263 2.589017
-26.849637 46.699079 3.079343
-26.783986 47.678052 1.424211
-27.1004 46.574045 2.007719
-26.783986 47.678052 1.424211
-26.324379 48.858598 1.955495
-24.329352 51.622011 6.306127
-24.499764 50.465414 6.963351
-23.985122 51.638939 7.4369
-24.682592 51.606367 5.100969
-24.329352 51.622011 6.306127
-25.012886 51.503866 3.990322
-25.174287 50.345985 4.721932
-24.682592 51.606367 5.100969
-25.332414 51.325338 2.916027
-25.012886 51.503866 3.990322
-25.79217 50.07741 2.512116
-25.332414 51.325338 2.916027
-31.629924 36.075825 2.742869
-31.417361 36.161505 3.836177
-31.180293 37.036943 2.291404
-31.629924 36.075825 2.742869
-30.613345 38.072865 2.883722
-30.766329 38.01486 1.851084
-31.180293 37.036943 2.291404
-30.126098 37.35026 6.677881
-30.85135 36.322344 6.02591
-29.444817 38.344622 7.357085
-28.73787 39.279493 8.111329
-29.767911 38.328423 6.196454
-30.126098 37.35026 6.677881
-29.444817 38.344622 7.357085
-24.73928 45.632082 11.843355
-25.386684 44.553877 11.215932
-24.108077 46.818754 12.399936
-23.508874 47.880902 12.987281
-24.482727 46.829223 11.224804
-24.73928 45.632082 11.843355
-24.108077 46.818754 12.399936
-23.256732 51.46374 9.927548
-23.624316 51.563815 8.660247
-23.787951 50.382267 9.361425
-23.256732 51.46374 9.927548
-22.853144 51.494387 11.123806
-22.46628 51.503287 12.299498
-22.099663 51.418616 13.476216
-28.80883 42.212888 2.094445
-29.144092 41.227728 2.587108
-28.600752 42.299236 3.133423
-28.80883 42.212888 2.094445
-28.454994 43.159519 1.587678
3 0 26 28
3 28 27 8
3 26 27 28
3 1 11 9
3 2 15 13
3 3 16 10
3 3 29 31
3 31 30 16
3 29 30 31
3 4 32 34
3 32 17 33
3 32 33 34
3 4 18 17
3 5 35 37
3 35 19 36
3 35 36 37
3 5 20 19
3 5 21 20
3 6 22 12
3 6 23 22
3 7 38 40
3 38 24 39
3 38 39 40
3 7 25 24
3 7 41 43
3 43 42 25
3 41 42 43
3 45 44 14
3 8 46 47
3 49 48 8
3 9 10 2
3 11 10 9
3 11 3 10
3 50 4 51
3 52 5 53
3 54 12 55
3 56 55 5
3 54 55 56
3 57 12 58
3 59 6 60
3 61 60 12
3 59 60 61
3 62 7 63
3 65 64 7
3 67 66 1
3 13 14 0
3 15 14 13
3 15 68 70
3 70 69 14
3 68 69 70
3 10 15 2
3 16 15 10
3 16 71 73
3 73 72 15
3 71 72 73
3 16 74 75
3 77 76 16
3 78 11 79
3 80 79 1
3 78 79 80
3 81 11 82
3 83 3 84
3 85 84 11
3 83 84 85
3 86 3 87
3 89 88 3
3 17 90 91
3 17 92 93
3 17 94 96
3 94 8 95
3 94 95 96
3 18 8 17
3 18 0 8
3 97 4 98
3 19 99 100
3 19 101 103
3 101 4 102
3 101 102 103
3 19 18 4
3 20 18 19
3 20 0 18
3 20 13 0
3 21 13 20
3 21 2 13
3 12 21 5
3 22 21 12
3 22 2 21
3 22 9 2
3 23 9 22
3 23 1 9
3 104 6 105
3 24 106 107
3 24 108 110
3 108 6 109
3 108 109 110
3 24 23 6
3 25 23 24
3 25 1 23
3 25 111 113
3 113 112 1
3 111 112 113
3 115 114 25
3 117 116 7
3 14 118 120
3 120 119 0
3 118 119 120
3 122 121 14
