ply
format ascii 1.0
element vertex 86
property float x
property float y
property float z
element face 68
property list uchar int vertex_index
end_header
-30.557987 7.815621 51.565033
-30.584015 13.539269 55.180496
-30.686689 5.247471 55.804146
-30.442089 -0.193945 52.068695
-30.243734 2.037575 47.994167
-30.61846 10.733158 53.430485
-30.640377 9.344794 55.454479
-30.621729 6.380423 53.735905
-30.605974 2.437792 53.855106
-30.505501 3.769547 51.816792
-30.318335 0.861626 49.984028
-30.426872 4.992702 49.737621
-30.659662 7.841657 57.595699
-30.22266 -2.848689 50.357525
-30.566403 12.869765 56.21153
-30.504988 14.944325 56.030253
-30.715698 4.596589 56.850736
-30.702185 5.893682 57.746513
-30.673175 6.544564 56.699922
-30.705018 3.312598 55.946062
-30.715698 4.596589 56.850736
-30.523007 -0.711688 53.188533
-30.60495 0.604181 54.081739
-30.524031 1.121924 52.9619
-30.408306 -2.201919 52.24149
-30.523007 -0.711688 53.188533
-30.332375 -1.521317 51.21311
-30.298592 -3.529291 51.385905
-30.408306 -2.201919 52.24149
-30.170492 0.074109 48.110247
-30.207793 -0.513865 49.105177
-30.281035 1.4496 48.989097
-30.137576 0.626117 47.050157
-30.170492 0.074109 48.110247
-30.549772 15.55464 55.003811
-30.504988 14.944325 56.030253
-30.597413 14.179778 54.080433
-30.549772 15.55464 55.003811
-30.614635 12.776722 53.205427
-30.601237 12.136214 54.30549
-30.597413 14.179778 54.080433
-30.610053 11.324094 52.359823
-30.614635 12.776722 53.205427
-30.579816 9.865326 51.427098
-30.588223 9.274389 52.497759
-30.610053 11.324094 52.359823
-30.539883 8.507192 50.523958
-30.579816 9.865326 51.427098
-30.594583 10.772528 56.348522
-30.566403 12.869765 56.21153
-30.612196 11.442032 55.317487
-30.604226 10.02096 57.419132
-30.594583 10.772528 56.348522
-30.650019 8.593225 56.525089
-30.581499 9.269821 58.350788
-30.604226 10.02096 57.419132
-30.653793 7.192482 58.579683
-30.581499 9.269821 58.350788
-30.653793 7.192482 58.579683
-30.702185 5.893682 57.746513
-30.664661 1.907758 54.971542
-30.705018 3.312598 55.946062
-30.646332 3.842631 54.829626
-30.664661 1.907758 54.971542
-30.60495 0.604181 54.081739
-30.162123 -4.777896 50.433628
-30.298592 -3.529291 51.385905
-30.092734 -4.173248 49.413809
-30.162123 -4.777896 50.433628
-30.159955 -2.369022 49.291926
-30.270498 -0.993531 50.170777
-30.207793 -0.513865 49.105177
-30.092734 -4.173248 49.413809
-30.159955 -2.369022 49.291926
-30.474325 7.095732 49.610252
-30.49243 6.404162 50.651327
-30.539883 8.507192 50.523958
-30.407874 5.620182 48.774197
-30.474325 7.095732 49.610252
-30.316305 4.142618 47.902469
-30.335303 3.515138 48.865894
-30.407874 5.620182 48.774197
-30.231358 2.665837 47.024932
-30.316305 4.142618 47.902469
-30.137576 0.626117 47.050157
-30.231358 2.665837 47.024932
3 0 7 5
3 0 9 7
3 0 11 9
3 1 14 15
3 2 12 6
3 2 16 18
3 18 17 12
3 16 17 18
3 2 19 20
3 3 21 23
3 23 22 8
3 21 22 23
3 3 24 25
3 3 26 28
3 26 13 27
3 26 27 28
3 4 29 31
3 31 30 10
3 29 30 31
3 4 32 33
3 5 6 1
3 7 6 5
3 7 2 6
3 7 8 2
3 9 8 7
3 9 3 8
3 9 10 3
3 11 10 9
3 11 4 10
3 34 1 35
3 36 1 37
3 38 5 39
3 40 39 1
3 38 39 40
3 41 5 42
3 43 0 44
3 45 44 5
3 43 44 45
3 47 46 0
3 6 48 50
3 50 49 1
3 48 49 50
3 12 51 53
3 53 52 6
3 51 52 53
3 12 54 55
3 12 56 57
3 59 58 12
3 8 60 62
3 62 61 2
3 60 61 62
3 64 63 8
3 13 65 66
3 13 67 68
3 10 13 3
3 69 13 70
3 71 70 10
3 69 70 71
3 73 72 13
3 74 11 75
3 76 75 0
3 74 75 76
3 77 11 78
3 79 4 80
3 81 80 11
3 79 80 81
3 82 4 83
3 85 84 4
