ply
format ascii 1.0
element vertex 363
property float x
property float y
property float z
element face 398
property list uchar int vertex_index
end_header
30.062569 16.553286 43.195202
32.710022 32.633732 30.191038
30.472607 42.362617 45.787014
30.966967 24.270493 37.74786
32.203079 16.492239 31.775785
30.077671 9.570095 38.392338
31.050484 54.319225 35.71843
35.085522 22.957891 24.228546
30.595066 27.906807 44.907108
31.362972 38.762562 37.228123
30.385906 19.87734 40.824036
30.577579 16.901567 37.971813
30.007164 13.634071 40.981323
33.820042 28.320108 27.048565
31.626787 8.658274 32.541512
30.73052 48.642803 41.014053
31.294359 46.519501 36.75882
30.93746 40.963337 41.387493
30.930998 33.516884 41.230583
30.669041 34.928204 45.512894
31.714117 28.251171 34.318779
32.524269 24.414171 31.127384
31.429522 20.733162 34.758701
30.968338 12.994728 35.266632
33.569168 19.921293 28.230526
30.288801 35.973797 49.768784
30.462147 28.692947 48.996712
30.348518 22.14456 47.633499
30.345484 21.561687 44.019268
32.703709 40.775536 29.105204
31.90472 43.915268 32.701447
31.890848 36.093418 33.641811
31.239506 31.352039 37.541355
30.696148 26.334587 41.186329
29.571609 7.192861 41.666473
30.178934 17.83902 42.134453
30.209322 16.762695 40.751259
30.029514 15.382855 42.179028
33.220081 30.425209 28.63942
30.590176 45.375763 43.56641
30.861052 44.84491 41.255482
30.720057 41.85854 43.561237
30.793612 38.228134 43.470036
30.600122 38.5765 45.777542
31.32386 26.212425 36.036102
31.616838 24.455755 34.411282
31.159384 22.520613 36.249889
30.348206 13.357697 38.14888
30.745625 15.124485 36.626572
30.484221 11.32189 36.85931
30.723713 9.296974 35.430477
32.388767 20.456524 31.463072
33.050346 22.510324 29.583685
32.85339 18.357513 30.085608
30.201754 32.622238 51.579746
30.418928 32.389004 49.408195
30.32164 29.00132 51.176655
30.207218 18.894213 46.851044
31.398861 53.255241 33.482925
31.34561 42.675419 37.093815
31.574762 45.573544 34.688011
31.598787 41.480503 35.171253
31.901049 39.945992 33.306053
31.61072 37.474434 35.328384
31.54776 33.670586 35.651218
31.323364 35.101177 37.414192
30.751291 30.795567 43.123661
30.827354 29.780224 41.291004
30.636467 27.18502 43.009834
30.498323 23.86867 42.700855
30.478203 24.506176 44.508354
30.651628 21.978025 39.304668
30.782307 20.452387 37.841068
30.460342 18.475611 39.338734
30.25436 15.111816 39.451286
30.029142 11.728504 39.65197
34.426075 25.511326 25.686646
31.934114 12.559452 32.169918
32.598618 13.891927 30.529612
32.337688 9.879803 30.849415
30.901291 51.528233 38.291008
31.211794 50.42654 36.1828
31.028534 47.523483 38.832474
31.097042 43.647392 39.248676
31.141369 39.904278 39.293568
31.127577 36.511639 39.385529
30.955481 37.241348 41.410362
30.808249 34.563686 43.273815
30.667236 31.343918 45.153996
32.194389 30.585867 32.295639
32.624004 28.533714 30.732756
32.08036 26.395029 32.689529
31.963526 22.449471 32.927387
31.77742 18.513315 33.244919
30.97016 18.818098 36.429802
31.206461 16.861511 35.053768
31.56094 14.820942 33.530117
31.298695 11.020617 33.823273
30.27651 46.071793 45.716095
33.128735 26.385094 29.226027
33.71307 24.094635 27.699345
34.293129 21.369091 26.345594
33.325253 15.786341 28.803053
34.121449 17.264151 26.887569
30.050653 16.427753 44.452549
30.37373 39.043175 47.926186
30.506517 35.397221 47.692326
30.565966 31.938389 47.276466
30.546026 28.601784 46.984776
30.367548 25.451618 50.419659
30.436964 25.403526 48.397682
30.476048 25.323687 46.393475
30.344509 21.850056 45.786873
30.196995 18.910807 45.071487
30.187757 18.665955 43.537857
32.722134 36.618088 29.716021
31.505018 49.19825 34.233006
32.262672 42.39674 30.901253
32.267792 38.344173 31.508736
32.257374 34.568691 31.899698
31.846264 32.386688 33.8964
31.45578 29.994587 35.85321
31.102539 27.73908 37.741077
31.061262 32.583473 39.420605
30.944555 28.875786 39.460152
30.813131 25.504692 39.375229
30.562967 23.178312 40.884739
30.348671 20.803795 42.320511
29.797071 10.34452 41.206322
29.774605 8.228007 39.966122
32.965052 31.529471 29.415229
33.25107 32.542851 28.272686
32.99604 33.647112 29.048495
30.147092 8.623287 37.731144
30.350367 9.499185 36.96463
30.280946 10.445992 37.625824
35.464502 23.725504 23.166901
35.101946 25.184696 23.919795
35.418732 21.501107 23.515014
35.797713 22.268721 22.453369
35.464502 23.725504 23.166901
30.153959 30.971196 52.446558
30.034537 32.556454 52.747282
29.986742 30.905411 53.614094
30.213901 29.160737 52.245013
30.261697 30.811779 51.3782
30.153959 30.971196 52.446558
31.224673 53.787233 34.600678
31.319923 55.204139 33.133862
31.145734 55.736131 34.251614
34.138129 29.136848 26.038022
33.826878 30.381192 26.753037
34.123058 26.915717 26.367605
34.441145 27.732456 25.357062
34.138129 29.136848 26.038022
30.846958 8.221153 34.817585
30.555008 7.438158 35.640625
30.159689 47.910912 45.533383
30.351605 47.581381 44.456288
33.214493 13.698459 28.971512
32.961935 14.839134 29.666332
32.851175 12.751252 29.834792
34.431812 15.895801 26.155196
34.012095 15.284217 27.119393
34.544767 17.986297 25.847724
34.431812 15.895801 26.155196
29.978755 15.129708 44.767691
30.05511 16.345675 45.249182
30.168473 37.680084 49.982277
30.130913 35.914877 50.916643
30.331266 37.508486 48.847485
30.210938 39.214773 49.060978
30.168473 37.680084 49.982277
30.324613 23.954108 51.100214
30.305334 25.596093 51.521648
30.392741 23.774043 48.015591
30.382046 23.768198 49.0548
30.337823 22.138715 48.672708
30.128281 17.587201 45.558651
30.202106 18.90251 45.961265
30.133393 17.578905 46.44843
30.05511 16.345675 45.249182
30.123824 17.66928 44.762018
30.128281 17.587201 45.558651
32.960814 39.800168 28.254257
32.946167 41.917366 27.807197
32.712922 38.696812 29.410612
32.970026 37.721443 28.559665
32.960814 39.800168 28.254257
31.866347 45.85762 32.494614
31.701368 46.686758 33.487896
31.739741 44.744406 33.694729
32.062939 45.179928 31.456266
31.866347 45.85762 32.494614
32.083696 43.156004 31.80135
32.241915 44.420664 30.556168
32.062939 45.179928 31.456266
29.68434 8.76869 41.436397
29.729625 9.863045 42.071466
29.616895 8.287215 42.301542
33.526898 31.433743 27.548465
33.25107 32.542851 28.272686
33.520061 29.372659 27.843992
33.826878 30.381192 26.753037
33.526898 31.433743 27.548465
31.812905 7.381399 31.903763
31.453314 6.640056 32.723402
30.470113 8.486726 36.250214
30.603967 10.309432 36.144894
30.350367 9.499185 36.96463
30.555008 7.438158 35.640625
30.470113 8.486726 36.250214
30.08739 34.239097 51.822125
30.034537 32.556454 52.747282
30.245278 34.298018 50.674265
30.130913 35.914877 50.916643
30.08739 34.239097 51.822125
30.286086 20.559293 48.235832
30.337823 22.138715 48.672708
30.275391 20.553448 49.275042
30.215436 18.93412 47.844605
30.277868 20.519386 47.242272
30.286086 20.559293 48.235832
30.143256 17.486146 47.344915
30.215436 18.93412 47.844605
30.133393 17.578905 46.44843
30.143256 17.486146 47.344915
32.68486 42.635918 28.762262
32.946167 41.917366 27.807197
31.506193 54.45743 32.131963
31.319923 55.204139 33.133862
31.575964 52.446203 32.504893
31.506193 54.45743 32.131963
29.51228 6.639257 42.521806
29.616895 8.287215 42.301542
34.772222 26.461413 24.648845
34.441145 27.732456 25.357062
34.755798 24.234609 24.957596
35.101946 25.184696 23.919795
34.772222 26.461413 24.648845
32.72071 10.74519 29.994693
32.851175 12.751252 29.834792
32.468153 11.885865 30.689514
32.168356 7.992163 31.057714
31.982238 9.269039 31.695463
31.812905 7.381399 31.903763
32.565444 8.683247 30.188894
32.168356 7.992163 31.057714
32.72071 10.74519 29.994693
32.565444 8.683247 30.188894
31.134449 9.082974 34.013983
31.011204 10.158796 34.626875
30.846958 8.221153 34.817585
31.298495 7.901803 33.373103
31.462741 9.839446 33.182392
31.134449 9.082974 34.013983
31.453314 6.640056 32.723402
31.298495 7.901803 33.373103
30.956247 56.182579 35.405642
31.145734 55.736131 34.251614
30.860061 54.83049 36.89299
30.956247 56.182579 35.405642
30.785464 53.434994 38.179279
30.975887 52.923729 37.004719
30.860061 54.83049 36.89299
30.724409 51.918698 39.47524
30.785464 53.434994 38.179279
30.639024 50.475983 40.836763
30.815905 50.085518 39.65253
30.724409 51.918698 39.47524
30.57861 48.866886 42.105266
30.639024 50.475983 40.836763
30.508439 47.233366 43.381445
30.660348 47.009283 42.290231
30.57861 48.866886 42.105266
30.433343 45.723778 44.641253
30.508439 47.233366 43.381445
30.351605 47.581381 44.456288
33.613996 14.545312 28.077135
33.214493 13.698459 28.971512
33.723351 16.525246 27.845311
33.613996 14.545312 28.077135
34.012095 15.284217 27.119393
34.630607 20.038767 25.576736
34.207289 19.316621 26.616581
34.544767 17.986297 25.847724
35.026804 20.833167 24.518212
34.689325 22.163491 25.28707
34.630607 20.038767 25.576736
35.418732 21.501107 23.515014
35.026804 20.833167 24.518212
29.991525 15.402247 44.015451
29.997483 15.465014 43.386778
30.056611 16.490519 43.823875
29.991525 15.402247 44.015451
29.978755 15.129708 44.767691
30.075266 46.283343 46.818636
30.159689 47.910912 45.533383
30.219155 44.345062 46.895434
30.075266 46.283343 46.818636
30.317203 42.490475 46.930893
30.374558 44.217205 45.751554
30.219155 44.345062 46.895434
30.267765 40.830754 48.000479
30.210938 39.214773 49.060978
30.423168 40.702896 46.8566
30.317203 42.490475 46.930893
30.267765 40.830754 48.000479
30.28238 27.370944 51.900146
30.213901 29.160737 52.245013
30.344594 27.226469 50.798157
30.28238 27.370944 51.900146
30.305334 25.596093 51.521648
30.347338 23.792244 50.065788
30.324613 23.954108 51.100214
30.402256 25.427572 49.40867
30.347338 23.792244 50.065788
30.382046 23.768198 49.0548
33.002096 35.63929 28.810986
32.970026 37.721443 28.559665
32.716078 34.62591 29.95353
32.99604 33.647112 29.048495
33.002096 35.63929 28.810986
31.629043 50.417708 32.879933
31.575964 52.446203 32.504893
31.45194 51.226745 33.857966
31.666496 48.499111 33.260394
31.53989 47.385897 34.460509
31.701368 46.686758 33.487896
31.629043 50.417708 32.879933
31.666496 48.499111 33.260394
32.464342 43.44652 29.660287
32.241915 44.420664 30.556168
32.483191 41.586138 30.003228
32.68486 42.635918 28.762262
32.464342 43.44652 29.660287
29.980955 14.879798 42.878691
30.046042 15.96807 42.687115
29.997483 15.465014 43.386778
29.941482 13.928076 42.320107
29.980955 14.879798 42.878691
29.930307 13.053684 41.721254
30.018339 14.508463 41.580176
29.941482 13.928076 42.320107
29.825261 11.408908 41.833754
29.729625 9.863045 42.071466
29.902117 11.989296 41.093823
29.930307 13.053684 41.721254
29.825261 11.408908 41.833754
29.455704 5.499429 41.838768
29.51228 6.639257 42.521806
29.548645 6.048012 40.994726
29.455704 5.499429 41.838768
29.650143 6.565585 40.14455
29.673107 7.710434 40.816298
29.548645 6.048012 40.994726
29.791881 7.188514 39.339828
29.650143 6.565585 40.14455
29.943413 7.859558 38.552937
29.926138 8.899051 39.17923
29.791881 7.188514 39.339828
30.147092 8.623287 37.731144
29.943413 7.859558 38.552937
3 0 37 35
3 1 130 132
3 130 38 131
3 130 131 132
3 2 41 39
3 2 43 41
3 3 46 44
3 5 49 47
3 5 133 135
3 135 134 49
3 133 134 135
3 7 136 137
3 7 138 140
3 138 139 140
3 4 53 51
3 141 54 142
3 141 142 143
3 144 56 145
3 146 145 54
3 144 145 146
3 6 147 149
3 147 58 148
3 147 148 149
3 9 61 59
3 9 63 61
3 9 65 63
3 8 68 66
3 8 70 68
3 10 73 71
3 12 74 36
3 12 75 74
3 13 150 151
3 13 152 154
3 152 76 153
3 152 153 154
3 14 79 77
3 15 82 80
3 17 83 40
3 17 84 83
3 17 86 84
3 19 87 42
3 19 88 87
3 20 91 89
3 22 92 45
3 22 93 92
3 11 94 72
3 23 95 48
3 23 96 95
3 23 97 96
3 156 155 50
3 157 98 158
3 21 99 90
3 24 100 52
3 24 101 100
3 159 102 160
3 161 160 78
3 159 160 161
3 162 103 163
3 165 164 103
3 167 166 104
3 25 168 169
3 25 170 172
3 170 105 171
3 170 171 172
3 25 106 105
3 26 107 55
3 26 108 107
3 173 109 174
3 27 175 177
3 175 110 176
3 175 176 177
3 27 111 110
3 27 112 111
3 178 113 179
3 180 179 57
3 178 179 180
3 181 104 182
3 183 182 113
3 181 182 183
3 29 184 185
3 29 186 188
3 186 115 187
3 186 187 188
3 16 116 81
3 30 189 191
3 191 190 60
3 189 190 191
3 30 192 193
3 30 194 196
3 194 117 195
3 194 195 196
3 31 118 62
3 31 119 118
3 31 120 119
3 32 121 64
3 32 122 121
3 18 123 85
3 33 124 67
3 33 125 124
3 33 126 125
3 28 127 69
3 28 114 127
3 34 197 199
3 197 128 198
3 197 198 199
3 34 129 128
3 35 36 10
3 37 36 35
3 37 12 36
3 38 200 201
3 38 202 204
3 202 13 203
3 202 203 204
3 206 205 14
3 39 40 15
3 41 40 39
3 41 17 40
3 41 42 17
3 43 42 41
3 43 19 42
3 44 45 20
3 46 45 44
3 46 22 45
3 47 48 11
3 49 48 47
3 49 23 48
3 49 50 23
3 207 50 208
3 209 208 49
3 207 208 209
3 211 210 50
3 51 52 21
3 53 52 51
3 53 24 52
3 54 212 213
3 54 214 216
3 214 25 215
3 214 215 216
3 54 55 25
3 56 55 54
3 56 26 55
3 217 27 218
3 217 218 219
3 220 57 221
3 222 221 27
3 220 221 222
3 223 57 224
3 226 225 57
3 227 29 228
3 58 229 230
3 58 231 232
3 59 60 16
3 61 60 59
3 61 30 60
3 61 62 30
3 63 62 61
3 63 31 62
3 63 64 31
3 65 64 63
3 65 32 64
3 66 67 18
3 68 67 66
3 68 33 67
3 68 69 33
3 70 69 68
3 70 28 69
3 233 34 234
3 71 72 3
3 73 72 71
3 73 11 72
3 36 73 10
3 74 73 36
3 74 11 73
3 74 47 11
3 75 47 74
3 75 5 47
3 76 235 236
3 76 237 239
3 237 7 238
3 237 238 239
3 77 78 4
3 79 78 77
3 79 240 242
3 242 241 78
3 240 241 242
3 243 79 244
3 245 244 14
3 243 244 245
3 246 79 247
3 249 248 79
3 80 81 6
3 82 81 80
3 82 16 81
3 40 82 15
3 83 82 40
3 83 16 82
3 83 59 16
3 84 59 83
3 84 9 59
3 84 85 9
3 86 85 84
3 86 18 85
3 42 86 17
3 87 86 42
3 87 18 86
3 87 66 18
3 88 66 87
3 88 8 66
3 89 90 1
3 91 90 89
3 91 21 90
3 45 91 20
3 92 91 45
3 92 21 91
3 92 51 21
3 93 51 92
3 93 4 51
3 72 46 3
3 94 46 72
3 94 22 46
3 48 94 11
3 95 94 48
3 95 22 94
3 95 93 22
3 96 93 95
3 96 4 93
3 96 77 4
3 97 77 96
3 97 14 77
3 50 97 23
3 250 97 251
3 252 251 50
3 250 251 252
3 253 14 254
3 255 254 97
3 253 254 255
3 257 256 14
3 258 6 259
3 260 6 261
3 262 80 263
3 264 263 6
3 262 263 264
3 265 80 266
3 267 15 268
3 269 268 80
3 267 268 269
3 270 15 271
3 272 39 273
3 274 273 15
3 272 273 274
3 98 275 277
3 275 39 276
3 275 276 277
3 98 2 39
3 90 38 1
3 99 38 90
3 99 13 38
3 52 99 21
3 100 99 52
3 100 13 99
3 100 76 13
3 101 76 100
3 101 7 76
3 78 53 4
3 102 53 78
3 102 24 53
3 278 102 279
3 103 280 282
3 280 102 281
3 280 281 282
3 103 24 102
3 103 101 24
3 283 101 284
3 285 284 103
3 283 284 285
3 286 7 287
3 288 287 101
3 286 287 288
3 290 289 7
3 104 291 293
3 293 292 0
3 291 292 293
3 295 294 104
3 296 98 297
3 298 98 299
3 300 2 301
3 302 301 98
3 300 301 302
3 105 303 304
3 105 305 307
3 305 2 306
3 305 306 307
3 105 43 2
3 106 43 105
3 106 19 43
3 55 106 25
3 107 106 55
3 107 19 106
3 107 88 19
3 108 88 107
3 108 8 88
3 308 56 309
3 109 310 312
3 310 56 311
3 310 311 312
3 109 26 56
3 313 109 314
3 110 315 317
3 315 109 316
3 315 316 317
3 110 26 109
3 110 108 26
3 111 108 110
3 111 8 108
3 111 70 8
3 112 70 111
3 112 28 70
3 57 112 27
3 113 112 57
3 113 28 112
3 113 114 28
3 104 114 113
3 104 0 114
3 115 318 319
3 115 320 322
3 320 1 321
3 320 321 322
3 81 58 6
3 116 58 81
3 116 323 325
3 325 324 58
3 323 324 325
3 60 116 16
3 326 116 327
3 328 327 60
3 326 327 328
3 330 329 116
3 117 331 332
3 117 333 335
3 333 29 334
3 333 334 335
3 62 117 30
3 118 117 62
3 118 29 117
3 118 115 29
3 119 115 118
3 119 1 115
3 119 89 1
3 120 89 119
3 120 20 89
3 64 120 31
3 121 120 64
3 121 20 120
3 121 44 20
3 122 44 121
3 122 3 44
3 85 65 9
3 123 65 85
3 123 32 65
3 67 123 18
3 124 123 67
3 124 32 123
3 124 122 32
3 125 122 124
3 125 3 122
3 125 71 3
3 126 71 125
3 126 10 71
3 69 126 33
3 127 126 69
3 127 10 126
3 127 35 10
3 114 35 127
3 114 0 35
3 336 37 337
3 338 337 0
3 336 337 338
3 339 37 340
3 341 12 342
3 343 342 37
3 341 342 343
3 128 344 345
3 128 346 348
3 346 12 347
3 346 347 348
3 128 75 12
3 129 75 128
3 129 5 75
3 349 34 350
3 351 34 352
3 353 129 354
3 355 354 34
3 353 354 355
3 356 129 357
3 358 5 359
3 360 359 129
3 358 359 360
3 362 361 5
