ply
format ascii 1.0
element vertex 196
property float x
property float y
property float z
element face 181
property list uchar int vertex_index
end_header
-29.654617 83.020988 19.348715
-26.31517 92.600571 17.423901
-31.053873 71.268654 20.939232
-27.518299 81.100525 30.533821
-25.061377 84.866508 29.767
-30.522261 77.347656 19.889576
-30.392595 82.21888 14.008677
-28.290628 88.385963 18.324577
-29.365961 87.95974 12.797784
-29.930105 77.430077 25.290958
-29.146587 76.332321 30.960665
-28.76594 82.645599 24.937893
-26.954054 87.103912 24.362591
-24.36664 90.693718 23.159586
-30.147335 80.105476 19.728046
-30.450527 80.019089 16.851994
-30.018255 82.890335 16.563951
-27.366564 90.585281 18.04302
-28.399479 78.790794 30.888126
-28.912161 79.552109 28.270863
-28.163227 82.127731 27.738882
-27.966297 84.950737 24.69676
-27.214102 84.344292 27.387957
-24.800077 87.903244 26.410519
-22.889809 91.870911 22.494766
-26.612913 79.967392 33.261311
-26.371767 83.160797 30.209171
-30.821842 74.29512 20.357199
-30.779903 77.044281 17.405954
-30.77301 79.265411 14.489414
-29.030336 85.792618 18.947142
-29.51273 85.534668 16.233694
-28.875717 88.21048 15.654643
-30.587435 74.516182 22.811871
-30.253529 77.323967 22.658699
-29.792645 80.25016 22.475266
-29.550526 77.176758 28.080429
-29.407526 80.050323 25.279652
-29.225323 83.141273 21.976236
-28.529142 85.615395 21.711691
-27.695444 87.869141 21.342249
-26.673208 89.971275 20.86282
-26.081665 86.312302 26.92815
-25.763727 89.162468 23.664051
-25.414967 91.644897 20.590456
-23.997705 93.188118 19.877331
-29.918934 85.23954 13.335111
-26.69661 92.815072 16.006311
-27.222307 91.807426 16.31587
-26.840867 91.592926 17.73346
-27.958889 79.94566 30.710974
-28.032608 78.332951 32.239318
-27.592018 79.487816 32.062166
-31.175503 71.137184 19.717315
-31.278937 69.76287 19.828757
-31.157308 69.89434 21.050674
-26.106381 79.354591 34.426907
-26.715538 78.247608 34.766118
-25.995218 80.88147 33.028315
-26.106381 79.354591 34.426907
-30.578914 81.788258 12.732281
-30.769122 80.311523 12.97265
-30.582802 80.742145 14.249046
-30.609941 73.071499 24.225251
-30.710009 73.060997 23.04146
-30.091817 77.377022 23.974829
-30.290812 75.913635 24.105993
-30.1291 75.96669 25.422123
-29.18343 74.72036 32.45169
-28.847205 75.893657 32.419437
-29.426654 75.010269 31.037619
-29.18343 74.72036 32.45169
-29.348557 76.754539 29.520547
-29.628624 75.432488 29.597501
-29.426654 75.010269 31.037619
-22.682239 93.068779 20.853787
-22.029908 92.323765 22.101242
-27.700479 90.702667 16.583984
-28.162511 89.603008 16.724763
-27.828596 89.485622 18.183799
-27.700479 90.702667 16.583984
-27.222307 91.807426 16.31587
-29.987468 75.889992 26.74129
-30.1291 75.96669 25.422123
-28.473651 77.122894 32.383167
-28.032608 78.332951 32.239318
-28.773033 77.561557 30.924395
-28.847205 75.893657 32.419437
-28.473651 77.122894 32.383167
-24.247871 87.102932 27.743381
-24.930727 86.384876 28.08876
-24.378521 85.584564 29.421622
-24.047462 88.508255 26.165923
-24.247871 87.102932 27.743381
-23.830743 89.903492 24.540457
-24.583359 89.298481 24.785052
-24.047462 88.508255 26.165923
-23.092327 90.492088 24.208047
-23.628225 91.282315 22.827176
-23.830743 89.903492 24.540457
-22.291301 91.058754 23.74247
-23.092327 90.492088 24.208047
-22.029908 92.323765 22.101242
-22.291301 91.058754 23.74247
-29.56443 87.78698 11.430364
-29.279033 89.141865 10.974074
-26.14689 93.748139 15.728965
-25.700841 93.343525 17.294834
-27.139325 78.92125 33.425911
-26.715538 78.247608 34.766118
-27.065606 80.533959 31.897566
-27.592018 79.487816 32.062166
-27.139325 78.92125 33.425911
-25.874645 82.478172 31.502245
-26.49234 81.564095 31.735241
-25.995218 80.88147 33.028315
-25.21945 83.331028 31.28116
-25.716572 84.013653 29.988086
-25.874645 82.478172 31.502245
-24.519554 84.045681 31.026049
-25.21945 83.331028 31.28116
-24.378521 85.584564 29.421622
-24.519554 84.045681 31.026049
-30.946191 74.099315 19.144845
-31.062206 72.586083 19.435862
-30.937857 72.781887 20.648215
-30.925221 75.473896 17.669223
-30.946191 74.099315 19.144845
-30.800873 75.669701 18.881577
-30.934586 76.645244 16.215644
-30.925221 75.473896 17.669223
-30.931139 77.755809 14.757374
-30.934586 76.645244 16.215644
-30.776457 78.154846 15.947684
-30.940622 78.879978 13.264855
-30.931139 77.755809 14.757374
-30.940622 78.879978 13.264855
-30.769122 80.311523 12.97265
-28.455055 89.515266 15.389796
-28.583173 88.298222 16.98961
-28.162511 89.603008 16.724763
-28.769986 89.436611 13.901718
-28.455055 89.515266 15.389796
-29.015108 89.311241 12.473288
-29.120839 88.08511 14.226214
-28.769986 89.436611 13.901718
-29.279033 89.141865 10.974074
-29.015108 89.311241 12.473288
-26.69661 92.815072 16.006311
-26.14689 93.748139 15.728965
-31.050743 69.990406 22.221339
-31.157308 69.89434 21.050674
-31.154177 68.616093 22.332781
-30.943229 71.437233 22.10514
-31.050743 69.990406 22.221339
-30.827213 72.950466 21.814124
-30.937857 72.781887 20.648215
-30.943229 71.437233 22.10514
-30.704639 74.405651 21.584535
-30.827213 72.950466 21.814124
-30.710009 73.060997 23.04146
-30.457764 74.509743 24.182579
-30.609941 73.071499 24.225251
-30.420482 75.920074 22.735285
-30.457764 74.509743 24.182579
-30.290812 75.913635 24.105993
-29.797679 75.763333 28.136025
-29.628624 75.432488 29.597501
-29.740316 77.303417 26.685693
-29.987468 75.889992 26.74129
-29.797679 75.763333 28.136025
-25.25074 92.865688 18.878111
-25.700841 93.343525 17.294834
-25.865068 92.122734 19.007179
-24.542108 93.637298 18.521549
-25.25074 92.865688 18.878111
-24.706336 92.416507 20.233894
-23.83284 94.347389 18.152579
-24.542108 93.637298 18.521549
-23.236187 93.727383 19.54507
-23.443757 92.529515 21.186048
-22.682239 93.068779 20.853787
-23.83284 94.347389 18.152579
-23.236187 93.727383 19.54507
-31.175503 71.137184 19.717315
-31.062206 72.586083 19.435862
-29.840916 86.42688 11.699027
-29.642447 86.59964 13.066447
-29.56443 87.78698 11.430364
-30.110775 84.913735 12.028943
-29.840916 86.42688 11.699027
-30.347606 83.403404 12.365726
-30.155765 83.72921 13.671894
-30.110775 84.913735 12.028943
-30.578914 81.788258 12.732281
-30.347606 83.403404 12.365726
3 0 16 14
3 1 47 49
3 49 48 17
3 47 48 49
3 3 50 52
3 50 18 51
3 50 51 52
3 3 20 18
3 3 22 20
3 2 53 55
3 53 54 55
3 56 25 57
3 59 58 25
3 5 28 27
3 6 29 15
3 6 60 62
3 62 61 29
3 60 61 62
3 7 32 30
3 63 33 64
3 9 65 67
3 65 34 66
3 65 66 67
3 9 35 34
3 10 68 69
3 10 70 71
3 10 72 74
3 72 36 73
3 72 73 74
3 11 37 19
3 11 38 37
3 11 39 38
3 12 40 21
3 12 41 40
3 4 42 26
3 13 43 23
3 13 44 43
3 13 45 44
3 76 75 24
3 8 46 31
3 14 15 5
3 16 15 14
3 16 6 15
3 17 77 79
3 79 78 7
3 77 78 79
3 81 80 17
3 82 9 83
3 18 84 85
3 18 86 88
3 86 10 87
3 86 87 88
3 18 19 10
3 20 19 18
3 20 11 19
3 20 21 11
3 22 21 20
3 22 12 21
3 89 23 90
3 91 90 4
3 89 90 91
3 92 23 93
3 94 13 95
3 96 95 23
3 94 95 96
3 97 24 98
3 99 98 13
3 97 98 99
3 100 24 101
3 103 102 24
3 105 104 8
3 107 106 1
3 25 108 109
3 25 110 112
3 110 3 111
3 110 111 112
3 25 26 3
3 113 26 114
3 115 114 25
3 113 114 115
3 116 4 117
3 118 117 26
3 116 117 118
3 119 4 120
3 122 121 4
3 27 123 125
3 125 124 2
3 123 124 125
3 28 126 128
3 128 127 27
3 126 127 128
3 28 129 130
3 15 28 5
3 29 28 15
3 29 131 133
3 133 132 28
3 131 132 133
3 29 134 135
3 137 136 29
3 30 31 0
3 32 31 30
3 32 8 31
3 138 32 139
3 140 139 7
3 138 139 140
3 141 32 142
3 143 8 144
3 145 144 32
3 143 144 145
3 147 146 8
3 149 148 1
3 150 2 151
3 150 151 152
3 153 2 154
3 155 27 156
3 157 156 2
3 155 156 157
3 33 158 160
3 158 27 159
3 158 159 160
3 33 5 27
3 161 33 162
3 34 163 165
3 163 33 164
3 163 164 165
3 34 5 33
3 34 14 5
3 35 14 34
3 35 0 14
3 36 166 167
3 36 168 170
3 168 9 169
3 168 169 170
3 19 36 10
3 37 36 19
3 37 9 36
3 37 35 9
3 38 35 37
3 38 0 35
3 38 30 0
3 39 30 38
3 39 7 30
3 21 39 11
3 40 39 21
3 40 7 39
3 40 17 7
3 41 17 40
3 41 1 17
3 26 22 3
3 42 22 26
3 42 12 22
3 23 42 4
3 43 42 23
3 43 12 42
3 43 41 12
3 44 41 43
3 44 1 41
3 44 171 173
3 173 172 1
3 171 172 173
3 45 174 176
3 176 175 44
3 174 175 176
3 45 177 178
3 24 45 13
3 179 45 180
3 181 180 24
3 179 180 181
3 183 182 45
3 185 184 2
3 31 16 0
3 46 16 31
3 46 6 16
3 186 46 187
3 188 187 8
3 186 187 188
3 189 46 190
3 191 6 192
3 193 192 46
3 191 192 193
3 195 194 6
