ply
format ascii 1.0
element vertex 250
property float x
property float y
property float z
element face 248
property list uchar int vertex_index
end_header
-33.306313 -9.364587 -17.582508
-26.965027 -9.586326 -10.78345
-28.051201 -2.864251 -17.768002
-38.384956 -8.600811 -24.766571
-34.640598 -1.701307 -25.035797
-36.237854 -8.917751 -21.337856
-36.708424 -5.112305 -24.827965
-33.977333 -5.478679 -21.324968
-25.237219 0.577752 -17.914051
-28.796787 0.881451 -21.592758
-26.023905 4.306423 -21.936174
-32.805031 -13.106665 -13.954384
-30.158056 -9.834822 -13.978119
-30.686367 -6.004763 -17.665159
-27.336052 -6.433951 -14.071551
-29.922323 -13.096654 -10.700305
-37.252541 -1.478537 -28.588411
-31.439205 -2.269812 -21.386208
-32.229416 1.740838 -25.488451
-34.80254 -9.082504 -19.455158
-35.053795 -7.132172 -21.231262
-33.61327 -7.367009 -19.472324
-25.61726 2.527766 -19.974312
-24.32427 4.26298 -20.114042
-33.092033 -11.312638 -15.78287
-34.573784 -11.072628 -17.649786
-35.969566 -10.939658 -19.4744
-28.577105 -9.855154 -12.321551
-28.8162 -8.10172 -14.118732
-27.189005 -8.110516 -12.435557
-28.410307 -11.416012 -10.639634
-29.944756 -11.505733 -12.265027
-35.707306 -3.351641 -24.922064
-36.997974 -3.183562 -26.767004
-35.967464 -1.281719 -26.944824
-36.324051 0.47145 -28.958637
-34.988377 0.29642 -27.120441
-29.405161 -4.54632 -17.642887
-31.078365 -4.154015 -19.525454
-29.684305 -2.557502 -19.530064
-29.064074 2.937716 -23.610876
-30.53479 1.360792 -23.578466
-38.224636 -10.576091 -23.074661
-38.977234 -12.55352 -23.091497
-37.376312 -8.779933 -23.022263
-37.633381 -6.797679 -24.877293
-36.431923 -6.978242 -23.040106
-35.435841 -5.291259 -23.080763
-34.292133 -3.653412 -23.088083
-26.638506 -1.146644 -17.861467
-28.346878 -1.045821 -19.556831
-26.960611 0.759686 -19.780443
-27.387985 2.556302 -21.727621
-37.127399 -10.806742 -21.173326
-31.672213 -9.634058 -15.678158
-32.055058 -7.690702 -17.637512
-30.376135 -7.865719 -15.851851
-28.892666 -6.23195 -15.770092
-27.627108 -4.576051 -15.936668
-25.77836 -6.322477 -12.525937
-26.029322 -4.675218 -14.254846
-26.308887 -2.891922 -16.063923
-31.403131 -13.151731 -12.335534
-31.501995 -11.396059 -14.014988
-37.900776 -5.017299 -26.6768
-32.435505 -5.764461 -19.542454
-32.787525 -3.820689 -21.429222
-33.114117 -1.811834 -23.367729
-30.181883 -0.601928 -21.601242
-31.76309 -0.136483 -23.444796
-33.471966 0.100996 -25.315054
-33.873962 2.072362 -27.459726
-23.512048 4.318502 -19.200996
-24.14801 3.327675 -19.103546
-23.617306 5.21415 -20.123197
-23.512048 4.318502 -19.200996
-27.687667 -10.501169 -10.711542
-27.743913 -11.320377 -9.911389
-27.021273 -10.405534 -9.983297
-38.503475 -7.709229 -25.63946
-38.838611 -8.678798 -25.57016
-29.957931 3.107113 -24.579725
-29.284208 3.93822 -24.712208
-38.76021 -9.604449 -24.755314
-38.68005 -10.592088 -23.909359
-38.304796 -9.588451 -23.920616
-38.838611 -8.678798 -25.57016
-38.76021 -9.604449 -24.755314
-26.849868 4.43166 -22.84918
-27.531908 3.556599 -22.744903
-26.705945 3.431362 -21.831898
-26.165809 5.294327 -22.968022
-26.849868 4.43166 -22.84918
-33.466605 -13.983791 -13.980798
-32.804766 -14.04995 -13.102147
-25.109652 -6.221965 -11.819147
-25.703792 -7.121194 -11.681311
-25.338648 -3.783285 -14.280919
-25.262821 -4.62551 -13.446174
-25.478431 -2.891637 -15.185458
-26.169104 -3.78357 -15.159384
-25.338648 -3.783285 -14.280919
-25.620967 -1.98807 -16.121001
-25.478431 -2.891637 -15.185458
-29.921176 -13.823149 -9.914993
-29.181646 -12.990618 -9.89961
-30.635362 -13.934817 -10.695774
-29.921176 -13.823149 -9.914993
-30.662727 -13.124192 -11.51792
-31.375766 -13.962356 -11.513389
-30.635362 -13.934817 -10.695774
-37.711475 -2.396323 -28.560119
-37.584192 -3.248836 -27.649415
-37.125258 -2.331049 -27.677708
-37.787667 -1.541179 -29.465736
-37.711475 -2.396323 -28.560119
-37.345221 -0.539196 -29.601381
-37.787667 -1.541179 -29.465736
-36.416353 1.408318 -29.986677
-35.79163 1.365906 -29.092375
-39.280886 -13.54602 -23.108071
-39.349417 -12.549555 -23.924703
-24.794505 2.460068 -19.033681
-25.427239 1.552759 -18.944181
-24.604484 1.485061 -18.003551
-24.970765 3.395373 -20.044177
-24.794505 2.460068 -19.033681
-24.14801 3.327675 -19.103546
-24.423417 5.220706 -21.07441
-25.273235 5.242427 -21.985475
-25.174087 4.284701 -21.025108
-24.423417 5.220706 -21.07441
-23.617306 5.21415 -20.123197
-33.721386 -12.150278 -15.818566
-33.577885 -13.047292 -14.904323
-32.948532 -12.209651 -14.868627
-34.462261 -12.030273 -16.752024
-33.721386 -12.150278 -15.818566
-33.832909 -11.192633 -16.716328
-35.140678 -11.994516 -17.634464
-34.462261 -12.030273 -16.752024
-35.271675 -11.006143 -18.562093
-35.838569 -11.928031 -18.546771
-35.140678 -11.994516 -17.634464
-28.425638 -12.150297 -9.869274
-27.743913 -11.320377 -9.911389
-29.166315 -12.256333 -10.66997
-29.181646 -12.990618 -9.89961
-28.425638 -12.150297 -9.869274
-35.123793 1.278391 -28.173277
-35.79163 1.365906 -29.092375
-35.656214 0.383935 -28.039539
-30.693289 2.318651 -24.563519
-29.799432 2.149254 -23.594671
-29.957931 3.107113 -24.579725
-31.540602 2.508674 -25.518512
-31.382103 1.550815 -24.533459
-30.693289 2.318651 -24.563519
-32.403868 2.701184 -26.524291
-31.540602 2.508674 -25.518512
-38.600935 -11.564806 -23.083079
-38.496237 -12.552996 -22.201932
-38.119938 -11.564281 -22.193514
-39.056349 -11.580803 -23.917777
-38.600935 -11.564806 -23.083079
-38.68005 -10.592088 -23.909359
-39.349417 -12.549555 -23.924703
-39.056349 -11.580803 -23.917777
-26.297126 -8.753118 -10.810067
-26.353633 -9.517419 -10.07599
-26.353633 -9.517419 -10.07599
-27.021273 -10.405534 -9.983297
-28.369953 3.747307 -23.686531
-28.22603 2.747009 -22.669249
-27.531908 3.556599 -22.744903
-29.284208 3.93822 -24.712208
-28.369953 3.747307 -23.686531
-26.165809 5.294327 -22.968022
-25.273235 5.242427 -21.985475
-33.466605 -13.983791 -13.980798
-33.577885 -13.047292 -14.904323
-36.449737 -11.88412 -19.434211
-35.838569 -11.928031 -18.546771
-37.028654 -11.817661 -20.283674
-36.449737 -11.88412 -19.434211
-36.548482 -10.8732 -20.323863
-37.57132 -11.679607 -21.242847
-37.028654 -11.817661 -20.283674
-37.676018 -10.691416 -22.123993
-38.119938 -11.564281 -22.193514
-37.57132 -11.679607 -21.242847
-26.409115 -8.015213 -11.636121
-27.077016 -8.848421 -11.609503
-26.297126 -8.753118 -10.810067
-26.483683 -7.216496 -12.480747
-26.409115 -8.015213 -11.636121
-25.703792 -7.121194 -11.681311
-25.137339 -5.44914 -12.581719
-25.109652 -6.221965 -11.819147
-25.903841 -5.498848 -13.390391
-25.137339 -5.44914 -12.581719
-25.262821 -4.62551 -13.446174
-25.785777 -1.115431 -17.019773
-26.473696 -2.019283 -16.962695
-25.620967 -1.98807 -16.121001
-25.085133 -0.253233 -17.046066
-25.937863 -0.284446 -17.887759
-25.785777 -1.115431 -17.019773
-24.404714 0.616542 -17.026559
-25.085133 -0.253233 -17.046066
-24.604484 1.485061 -18.003551
-24.404714 0.616542 -17.026559
-32.103816 -14.072482 -12.292722
-32.076452 -14.883107 -11.470576
-31.375766 -13.962356 -11.513389
-32.104081 -13.129198 -13.144959
-32.804766 -14.04995 -13.102147
-32.103816 -14.072482 -12.292722
-38.127688 -6.807663 -25.694822
-38.503475 -7.709229 -25.63946
-38.009169 -7.699245 -24.821932
-38.261385 -5.917473 -26.594575
-38.127688 -6.807663 -25.694822
-37.767078 -5.907489 -25.777047
-38.404829 -5.088985 -27.525344
-38.261385 -5.917473 -26.594575
-38.035593 -4.165704 -27.604313
-37.449375 -4.10043 -26.721902
-37.584192 -3.248836 -27.649415
-38.404829 -5.088985 -27.525344
-38.035593 -4.165704 -27.604313
-36.880976 0.435797 -29.786494
-37.345221 -0.539196 -29.601381
-36.788296 -0.503544 -28.773524
-36.880976 0.435797 -29.786494
-36.416353 1.408318 -29.986677
-34.566586 2.166362 -28.34292
-35.123793 1.278391 -28.173277
-34.431169 1.184391 -27.290084
-33.226141 2.866946 -27.509929
-33.051689 1.9066 -26.474089
-32.403868 2.701184 -26.524291
-33.965122 3.058996 -28.486147
-33.226141 2.866946 -27.509929
-34.566586 2.166362 -28.34292
-33.965122 3.058996 -28.486147
-38.887259 -13.525382 -22.242192
-38.496237 -12.552996 -22.201932
-38.887259 -13.525382 -22.242192
-39.280886 -13.54602 -23.108071
3 0 21 19
3 72 23 73
3 75 74 23
3 0 25 24
3 0 19 25
3 1 29 27
3 1 76 78
3 76 30 77
3 76 77 78
3 1 27 30
3 3 79 80
3 4 34 32
3 4 36 34
3 2 39 37
3 82 81 40
3 3 83 85
3 85 84 42
3 83 84 85
3 3 86 87
3 5 46 44
3 7 47 20
3 7 48 47
3 8 51 49
3 10 52 22
3 10 88 90
3 90 89 52
3 88 89 90
3 10 91 92
3 11 93 94
3 5 53 26
3 5 44 53
3 12 56 54
3 14 57 28
3 14 58 57
3 95 59 96
3 97 60 98
3 99 61 100
3 101 100 60
3 99 100 101
3 103 102 61
3 15 104 105
3 15 106 107
3 15 108 110
3 108 62 109
3 108 109 110
3 12 63 31
3 12 54 63
3 6 64 45
3 16 111 113
3 113 112 33
3 111 112 113
3 16 114 115
3 16 116 117
3 119 118 35
3 13 65 55
3 17 66 38
3 17 67 66
3 9 68 50
3 18 69 41
3 18 70 69
3 18 71 70
3 121 120 43
3 19 20 5
3 21 20 19
3 21 7 20
3 122 22 123
3 124 123 8
3 122 123 124
3 23 125 127
3 125 22 126
3 125 126 127
3 23 10 22
3 23 128 130
3 130 129 10
3 128 129 130
3 132 131 23
3 24 133 135
3 135 134 11
3 133 134 135
3 25 136 138
3 138 137 24
3 136 137 138
3 25 139 140
3 25 141 143
3 141 26 142
3 141 142 143
3 19 26 25
3 19 5 26
3 27 28 12
3 29 28 27
3 29 14 28
3 30 144 145
3 30 146 148
3 146 15 147
3 146 147 148
3 30 31 15
3 27 31 30
3 27 12 31
3 32 33 6
3 34 33 32
3 34 16 33
3 34 35 16
3 36 35 34
3 36 149 151
3 151 150 35
3 149 150 151
3 37 38 13
3 39 38 37
3 39 17 38
3 40 41 9
3 152 41 153
3 154 153 40
3 152 153 154
3 155 18 156
3 157 156 41
3 155 156 157
3 159 158 18
3 42 160 162
3 160 43 161
3 160 161 162
3 163 43 164
3 165 164 42
3 163 164 165
3 167 166 43
3 169 168 1
3 170 1 171
3 44 45 3
3 46 45 44
3 46 6 45
3 20 46 5
3 47 46 20
3 47 6 46
3 47 32 6
3 48 32 47
3 48 4 32
3 49 50 2
3 51 50 49
3 51 9 50
3 22 51 8
3 52 51 22
3 52 9 51
3 52 40 9
3 172 40 173
3 174 173 52
3 172 173 174
3 176 175 40
3 178 177 10
3 180 179 11
3 26 181 182
3 53 183 185
3 185 184 26
3 183 184 185
3 53 186 187
3 53 188 190
3 188 42 189
3 188 189 190
3 44 42 53
3 44 3 42
3 54 55 0
3 56 55 54
3 56 13 55
3 28 56 12
3 57 56 28
3 57 13 56
3 57 37 13
3 58 37 57
3 58 2 37
3 191 29 192
3 193 192 1
3 191 192 193
3 59 194 196
3 194 29 195
3 194 195 196
3 59 14 29
3 197 59 198
3 60 199 201
3 199 59 200
3 199 200 201
3 60 14 59
3 60 58 14
3 61 58 60
3 61 2 58
3 61 49 2
3 202 49 203
3 204 203 61
3 202 203 204
3 205 8 206
3 207 206 49
3 205 206 207
3 208 8 209
3 211 210 8
3 62 212 214
3 212 213 214
3 62 215 217
3 215 11 216
3 215 216 217
3 31 62 15
3 63 62 31
3 63 11 62
3 63 24 11
3 54 24 63
3 54 0 24
3 45 218 220
3 220 219 3
3 218 219 220
3 64 221 223
3 223 222 45
3 221 222 223
3 64 224 225
3 33 64 6
3 226 64 227
3 228 227 33
3 226 227 228
3 230 229 64
3 35 231 233
3 233 232 16
3 231 232 233
3 235 234 35
3 55 21 0
3 65 21 55
3 65 7 21
3 38 65 13
3 66 65 38
3 66 7 65
3 66 48 7
3 67 48 66
3 67 4 48
3 50 39 2
3 68 39 50
3 68 17 39
3 41 68 9
3 69 68 41
3 69 17 68
3 69 67 17
3 70 67 69
3 70 4 67
3 70 36 4
3 71 36 70
3 71 236 238
3 238 237 36
3 236 237 238
3 239 71 240
3 241 240 18
3 239 240 241
3 242 71 243
3 245 244 71
3 43 246 247
3 249 248 43
