ply
format ascii 1.0
element vertex 322
property float x
property float y
property float z
element face 319
property list uchar int vertex_index
end_header
-29.365253 31.786678 17.046043
-26.061005 29.149607 26.539948
-22.285784 25.38735 35.231663
-36.884892 25.444469 3.244007
-32.090881 33.221424 7.582677
-26.3965 41.0312 12.811983
-20.608797 36.295681 31.915516
-28.803818 25.975107 23.832312
-26.881182 24.32011 28.382261
-34.734608 29.40637 5.168791
-33.587845 29.172998 9.82352
-26.274677 35.669662 19.926529
-27.739038 36.557186 15.110717
-24.901638 40.544479 17.743597
-23.660219 45.265499 15.582672
-32.325993 28.233009 14.439112
-30.544224 27.418818 19.195669
-27.658155 30.682455 21.98563
-24.885511 34.216049 24.657089
-30.733528 32.828381 12.298356
-29.261091 37.030102 10.125546
-24.147127 27.387575 31.218624
-23.248837 32.653839 29.39975
-35.078304 27.118294 8.510171
-34.46312 26.866724 10.803795
-24.947672 37.45219 21.22443
-25.592556 38.118294 18.817381
-32.063694 25.567303 17.954548
-27.462757 27.58983 25.071375
-28.266186 28.383053 22.853403
-26.860332 29.990061 24.268051
-26.252117 32.571785 23.194817
-25.493702 31.679733 25.616064
-33.49585 31.226406 6.381044
-32.668793 33.210686 5.364064
-31.807413 35.228062 4.348314
-31.253508 35.310627 6.534569
-30.83522 30.085495 15.659143
-31.549429 30.576517 13.315189
-29.985176 32.51125 14.663674
-27.043924 38.788425 14.008268
-28.520218 36.768711 12.677235
-27.788425 39.002575 11.542744
-28.389111 39.236202 9.347001
-27.010284 41.366043 10.468181
-25.659437 43.465202 11.763641
-23.166224 47.745907 14.193177
-24.603308 24.830154 31.880199
-23.206198 26.423315 33.309799
-22.379307 31.830736 31.609312
-21.909054 34.592663 30.632204
-22.663532 35.37912 28.503769
-21.325523 37.388939 29.722715
-27.858595 25.182697 26.128887
-26.466944 26.876129 27.446764
-35.949509 27.306625 4.225369
-35.560482 27.330395 6.249264
-34.324924 29.139473 7.46236
-32.92255 31.17012 8.5424
-27.812487 33.715836 18.450722
-28.493093 34.254356 16.146729
-27.017885 36.12746 17.541477
-26.365219 38.347836 16.477255
-25.637564 40.782318 15.364763
-24.979012 43.151688 14.240162
-24.284817 42.825825 16.691759
-33.79039 26.431965 13.170094
-32.979866 26.0676 15.494598
-31.454489 27.76638 16.934298
-29.968584 29.594343 18.157419
-29.698555 26.776861 21.472754
-29.109266 28.961029 20.616453
-28.507977 31.266634 19.560728
-27.091114 33.088486 20.81131
-25.553356 35.003441 22.362997
-24.182413 36.89603 23.679859
-33.077984 28.619501 12.073294
-32.238815 30.913389 11.013028
-31.469955 32.977577 9.998768
-29.194538 34.657612 13.815763
-29.909897 34.975117 11.400312
-30.684624 35.090366 8.894938
-29.803003 37.366459 7.838513
-24.36463 45.621613 13.018488
-25.537012 25.908606 29.714712
-25.112934 28.442318 28.835098
-22.797722 29.114998 32.521145
-23.77146 30.043585 30.221676
-24.683611 30.975441 27.822014
-24.031651 33.570709 27.08147
-23.455763 36.102264 26.142515
-34.789095 25.808625 11.384085
-35.102534 25.953346 10.273685
-24.621853 38.652687 20.71768
-24.262842 38.419548 21.913997
-36.498942 26.409435 2.73214
-36.912283 25.410235 2.268683
-22.745991 25.905333 34.270731
-23.389928 25.112656 33.653902
-22.929721 24.594674 34.614834
-21.258926 35.444172 31.27386
-21.49323 34.035963 31.766008
-20.843101 34.887472 32.407663
-37.256762 24.466993 2.757966
-37.257826 24.40341 3.703249
-36.912283 25.410235 2.268683
-37.256762 24.466993 2.757966
-27.369889 24.751404 27.255574
-28.029556 23.960107 26.635663
-27.540849 23.528813 27.76235
-35.939115 26.256598 6.852007
-36.117396 26.345439 5.78603
-33.258206 24.971195 16.06619
-33.717022 25.157583 14.858802
-29.251186 26.375984 22.652533
-29.979445 25.573113 21.962352
-29.532077 25.172235 23.142131
-34.919522 29.363042 4.168817
-35.526972 28.31317 3.697106
-35.342059 28.356497 4.69708
-31.417361 36.161505 3.836177
-31.128303 36.281061 4.932782
-28.73787 39.279493 8.111329
-28.063771 40.321922 8.709681
-23.508874 47.880902 12.987281
-22.90643 49.02295 13.586644
-22.15566 29.954714 33.129389
-22.321182 28.668808 33.543201
-22.771282 37.133281 26.783791
-23.059648 35.740692 27.323142
-22.375166 36.77171 27.964419
-23.178514 37.441856 25.531365
-22.771282 37.133281 26.783791
-27.060416 23.033905 28.826321
-27.540849 23.528813 27.76235
-35.410126 26.07913 9.126873
-35.698026 26.150548 7.982461
-34.770712 26.992509 9.656983
-35.410126 26.07913 9.126873
-35.102534 25.953346 10.273685
-24.944295 38.985739 19.514156
-25.270114 37.785242 20.020906
-24.621853 38.652687 20.71768
-24.598836 40.198831 18.977263
-25.247097 39.331387 18.280489
-24.944295 38.985739 19.514156
-24.273029 41.446234 18.422272
-24.598836 40.198831 18.977263
-32.348926 24.436006 18.461944
-32.800119 24.721046 17.296166
-31.626804 25.268274 19.091188
-32.348926 24.436006 18.461944
-30.867069 26.194032 19.711748
-31.303959 26.49306 18.575108
-31.626804 25.268274 19.091188
-33.671673 31.331221 5.314319
-34.291052 30.421203 4.708193
-34.115229 30.316388 5.774917
-33.258145 32.323362 4.805829
-33.671673 31.331221 5.314319
-33.082321 32.218546 5.872554
-32.875292 33.2069 4.273931
-33.258145 32.323362 4.805829
-32.238103 34.219374 4.856189
-32.444602 34.215588 3.766056
-32.875292 33.2069 4.273931
-30.85135 36.322344 6.02591
-31.128303 36.281061 4.932782
-31.530461 35.269345 5.441441
-27.374357 41.386843 9.270271
-28.063771 40.321922 8.709681
-27.699697 40.301122 9.907591
-26.718954 42.412422 9.911911
-27.374357 41.386843 9.270271
-26.043531 43.462001 10.559641
-26.718954 42.412422 9.911911
-26.33486 42.415622 11.115911
-25.386684 44.553877 11.215932
-26.043531 43.462001 10.559641
-22.822786 47.564499 15.435469
-23.413221 46.505703 14.887925
-23.069784 46.324295 16.130216
-22.568764 48.828905 14.812158
-22.822786 47.564499 15.435469
-22.308971 50.105947 14.205624
-22.90643 49.02295 13.586644
-22.568764 48.828905 14.812158
-24.088483 24.316076 32.939102
-24.720619 23.535296 32.328547
-23.904753 25.626734 32.594999
-24.088483 24.316076 32.939102
-23.389928 25.112656 33.653902
-21.728357 32.655 32.254562
-21.946453 31.312583 32.673473
-22.144181 33.2117 31.120758
-21.728357 32.655 32.254562
-21.49323 34.035963 31.766008
-21.706162 37.776619 28.573892
-22.375166 36.77171 27.964419
-21.994528 36.384029 29.113242
-29.050885 24.725144 24.32095
-29.532077 25.172235 23.142131
-28.578273 24.32894 25.469237
-28.029556 23.960107 26.635663
-28.331207 25.578902 24.9806
-29.050885 24.725144 24.32095
-28.578273 24.32894 25.469237
-36.311909 26.333554 4.774083
-36.4172 26.375547 3.734688
-36.779601 25.402476 4.283402
-35.754995 27.31851 5.237317
-36.311909 26.333554 4.774083
-36.117396 26.345439 5.78603
-35.319393 27.224345 7.379717
-35.939115 26.256598 6.852007
-35.698026 26.150548 7.982461
-23.964619 42.586906 17.896352
-24.593227 41.685152 17.217678
-24.273029 41.446234 18.422272
-23.647321 43.839537 17.348304
-23.964619 42.586906 17.896352
-23.335022 45.059374 16.79376
-23.972518 44.045662 16.137215
-23.647321 43.839537 17.348304
-23.069784 46.324295 16.130216
-23.335022 45.059374 16.79376
-22.065213 26.804984 34.89846
-21.592056 26.206741 35.891914
-20.132869 35.877009 33.009703
-20.843101 34.887472 32.407663
-36.779601 25.402476 4.283402
-37.257826 24.40341 3.703249
-34.122284 25.339765 13.696549
-34.45273 25.591245 12.567235
-34.784624 24.499046 13.09369
-33.385128 26.249783 14.332346
-34.122284 25.339765 13.696549
-33.717022 25.157583 14.858802
-32.52178 25.817451 16.724573
-33.258206 24.971195 16.06619
-32.800119 24.721046 17.296166
-30.444234 25.873053 20.85029
-29.979445 25.573113 21.962352
-30.121389 27.097839 20.334211
-30.867069 26.194032 19.711748
-30.444234 25.873053 20.85029
-23.880212 38.141468 23.141711
-24.262842 38.419548 21.913997
-24.565043 37.17411 22.452145
-22.325294 24.085552 35.720259
-22.929721 24.594674 34.614834
-21.70503 24.838755 36.295797
-22.325294 24.085552 35.720259
-21.011302 25.658145 36.956049
-21.592056 26.206741 35.891914
-21.70503 24.838755 36.295797
-36.03125 27.340513 3.222821
-36.498942 26.409435 2.73214
-36.4172 26.375547 3.734688
-36.03125 27.340513 3.222821
-35.526972 28.31317 3.697106
-34.919522 29.363042 4.168817
-34.291052 30.421203 4.708193
-32.019976 35.142382 3.255005
-32.444602 34.215588 3.766056
-32.019976 35.142382 3.255005
-31.417361 36.161505 3.836177
-34.126755 26.649345 11.986944
-34.789095 25.808625 11.384085
-34.45273 25.591245 12.567235
-30.126098 37.35026 6.677881
-30.85135 36.322344 6.02591
-30.528256 36.338543 7.186541
-29.444817 38.344622 7.357085
-29.096057 38.30133 8.592757
-28.73787 39.279493 8.111329
-30.126098 37.35026 6.677881
-29.444817 38.344622 7.357085
-24.73928 45.632082 11.843355
-25.386684 44.553877 11.215932
-25.012034 44.543408 12.391064
-24.108077 46.818754 12.399936
-23.765427 46.68376 13.605832
-23.508874 47.880902 12.987281
-24.73928 45.632082 11.843355
-24.108077 46.818754 12.399936
-26.401886 23.796522 29.473225
-27.060416 23.033905 28.826321
-25.262949 24.051544 31.222195
-24.720619 23.535296 32.328547
-25.729801 24.59077 30.139451
-25.262949 24.051544 31.222195
-25.07016 25.36938 30.797455
-26.209097 25.114358 29.048486
-26.401886 23.796522 29.473225
-25.729801 24.59077 30.139451
-22.525419 27.322966 33.937528
-22.745991 25.905333 34.270731
-22.065213 26.804984 34.89846
-23.00196 27.769157 32.915472
-22.525419 27.322966 33.937528
-22.321182 28.668808 33.543201
-22.588515 30.472867 32.065228
-22.15566 29.954714 33.129389
-21.946453 31.312583 32.673473
-23.541839 37.838739 24.300038
-23.819088 36.499147 24.911187
-23.178514 37.441856 25.531365
-23.880212 38.141468 23.141711
-23.541839 37.838739 24.300038
-19.883385 37.309799 32.525492
-20.132869 35.877009 33.009703
-20.297352 37.693712 31.509407
-19.883385 37.309799 32.525492
-20.655715 38.240341 30.413007
-20.96716 36.84231 30.819116
-20.297352 37.693712 31.509407
-21.032187 38.744889 29.248019
-20.655715 38.240341 30.413007
-20.36238 39.596291 29.938311
-21.706162 37.776619 28.573892
-21.032187 38.744889 29.248019
3 91 24 92
3 94 93 25
3 1 30 28
3 1 32 30
3 3 95 96
3 4 34 33
3 4 36 34
3 0 39 37
3 5 42 40
3 5 44 42
3 5 45 44
3 2 97 99
3 97 48 98
3 97 98 99
3 6 100 102
3 100 50 101
3 100 101 102
3 6 52 50
3 3 103 104
3 3 105 106
3 8 107 109
3 107 53 108
3 107 108 109
3 8 54 53
3 110 56 111
3 10 57 23
3 10 58 57
3 11 61 59
3 13 62 26
3 13 63 62
3 13 65 63
3 112 67 113
3 16 68 27
3 16 69 68
3 7 114 116
3 114 70 115
3 114 115 116
3 17 71 29
3 17 72 71
3 17 73 72
3 18 74 31
3 18 75 74
3 9 117 119
3 119 118 55
3 117 118 119
3 121 120 35
3 15 76 66
3 19 77 38
3 19 78 77
3 12 79 60
3 20 80 41
3 20 81 80
3 20 82 81
3 123 122 43
3 14 83 64
3 125 124 46
3 21 84 47
3 21 85 84
3 126 86 127
3 22 87 49
3 22 88 87
3 22 89 88
3 128 90 129
3 130 129 51
3 128 129 130
3 132 131 90
3 133 8 134
3 135 23 136
3 24 137 139
3 137 23 138
3 137 138 139
3 24 10 23
3 25 26 11
3 140 26 141
3 142 141 25
3 140 141 142
3 143 13 144
3 145 144 26
3 143 144 145
3 147 146 13
3 148 27 149
3 150 27 151
3 152 16 153
3 154 153 27
3 152 153 154
3 28 29 7
3 30 29 28
3 30 17 29
3 30 31 17
3 32 31 30
3 32 18 31
3 33 155 157
3 157 156 9
3 155 156 157
3 34 158 160
3 160 159 33
3 158 159 160
3 34 161 162
3 34 163 165
3 163 35 164
3 163 164 165
3 36 35 34
3 36 166 168
3 168 167 35
3 166 167 168
3 37 38 15
3 39 38 37
3 39 19 38
3 40 41 12
3 42 41 40
3 42 20 41
3 42 43 20
3 44 43 42
3 44 169 171
3 171 170 43
3 169 170 171
3 44 172 173
3 45 174 176
3 176 175 44
3 174 175 176
3 45 177 178
3 179 46 180
3 181 180 14
3 179 180 181
3 182 46 183
3 186 185 46
3 184 185 186
3 187 47 188
3 48 189 191
3 189 47 190
3 189 190 191
3 48 21 47
3 192 49 193
3 50 194 196
3 194 49 195
3 194 195 196
3 50 22 49
3 50 51 22
3 52 51 50
3 52 197 199
3 199 198 51
3 197 198 199
3 200 7 201
3 53 202 203
3 53 204 206
3 204 7 205
3 204 205 206
3 53 28 7
3 54 28 53
3 54 1 28
3 207 55 208
3 209 208 3
3 207 208 209
3 56 210 212
3 210 55 211
3 210 211 212
3 56 9 55
3 23 213 215
3 213 56 214
3 213 214 215
3 57 56 23
3 57 9 56
3 57 33 9
3 58 33 57
3 58 4 33
3 59 60 0
3 61 60 59
3 61 12 60
3 26 61 11
3 62 61 26
3 62 12 61
3 62 40 12
3 63 40 62
3 63 5 40
3 63 64 5
3 65 64 63
3 65 14 64
3 216 65 217
3 218 217 13
3 216 217 218
3 219 65 220
3 221 14 222
3 223 222 65
3 221 222 223
3 225 224 14
3 227 226 2
3 228 6 229
3 230 3 231
3 232 66 233
3 232 233 234
3 67 235 237
3 235 66 236
3 235 236 237
3 67 15 66
3 27 238 240
3 238 67 239
3 238 239 240
3 68 67 27
3 68 15 67
3 68 37 15
3 69 37 68
3 69 0 37
3 70 241 242
3 70 243 245
3 243 16 244
3 243 244 245
3 29 70 7
3 71 70 29
3 71 16 70
3 71 69 16
3 72 69 71
3 72 0 69
3 72 59 0
3 73 59 72
3 73 11 59
3 31 73 17
3 74 73 31
3 74 11 73
3 74 25 11
3 75 25 74
3 75 246 248
3 248 247 25
3 246 247 248
3 249 2 250
3 251 2 252
3 255 254 2
3 253 254 255
3 55 256 258
3 258 257 3
3 256 257 258
3 260 259 55
3 262 261 9
3 35 263 264
3 266 265 35
3 66 267 269
3 267 24 268
3 267 268 269
3 76 24 66
3 76 10 24
3 38 76 15
3 77 76 38
3 77 10 76
3 77 58 10
3 78 58 77
3 78 4 58
3 60 39 0
3 79 39 60
3 79 19 39
3 41 79 12
3 80 79 41
3 80 19 79
3 80 78 19
3 81 78 80
3 81 4 78
3 81 36 4
3 82 36 81
3 82 270 272
3 272 271 36
3 270 271 272
3 43 82 20
3 273 82 274
3 275 274 43
3 273 274 275
3 277 276 82
3 64 45 5
3 83 45 64
3 83 278 280
3 280 279 45
3 278 279 280
3 46 83 14
3 281 83 282
3 283 282 46
3 281 282 283
3 285 284 83
3 286 8 287
3 47 288 289
3 84 290 292
3 292 291 47
3 290 291 292
3 84 293 295
3 293 8 294
3 293 294 295
3 84 54 8
3 85 54 84
3 85 1 54
3 296 48 297
3 298 297 2
3 296 297 298
3 86 299 301
3 299 48 300
3 299 300 301
3 86 21 48
3 49 302 304
3 302 86 303
3 302 303 304
3 87 86 49
3 87 21 86
3 87 85 21
3 88 85 87
3 88 1 85
3 88 32 1
3 89 32 88
3 89 18 32
3 51 89 22
3 90 89 51
3 90 18 89
3 90 75 18
3 305 75 306
3 307 306 90
3 305 306 307
3 309 308 75
3 310 6 311
3 312 6 313
3 314 52 315
3 316 315 6
3 314 315 316
3 317 52 318
3 317 318 319
3 321 320 52
