ply
format ascii 1.0
element vertex 127
property float x
property float y
property float z
element face 98
property list uchar int vertex_index
end_header
-5.337533 -24.225563 -43.484829
-12.124 -37.494144 -34.596733
-12.419728 -32.357655 -34.255943
-9.778469 -31.729252 -37.428913
-7.402918 -30.551376 -40.555077
-11.090792 -32.299232 -35.805538
-7.478789 -28.212496 -40.424713
-6.295749 -27.279675 -42.038826
-5.201573 -26.502409 -43.607555
-13.32722 -35.126633 -33.051865
-12.131828 -34.964134 -34.501732
-10.962366 -34.786701 -35.972473
-9.77703 -34.288868 -37.512875
-8.68283 -28.859293 -38.867172
-8.517778 -31.086393 -39.054737
-3.434168 -20.203009 -46.609863
-4.228986 -23.34951 -45.141541
-5.816641 -25.752619 -42.761827
-6.401154 -26.278261 -41.937697
-5.922046 -24.751206 -42.660698
-12.129819 -38.767744 -34.712576
-12.679938 -40.162699 -34.079855
-12.674119 -38.889099 -33.964012
-11.535107 -37.353952 -35.38122
-12.129819 -38.767744 -34.712576
-13.06821 -32.558821 -33.51334
-12.635459 -31.191139 -34.149997
-12.873474 -33.742144 -33.653904
-13.521956 -33.94331 -32.911301
-13.06821 -32.558821 -33.51334
-8.208427 -27.492977 -39.543039
-8.896828 -27.861194 -38.695351
-8.002914 -32.155214 -39.821136
-8.560344 -32.422722 -39.070966
-7.960348 -30.818885 -39.804907
-7.378036 -31.812098 -40.674031
-8.002914 -32.155214 -39.821136
-3.292257 -21.190933 -46.742088
-2.944437 -19.622791 -47.444048
-2.802525 -20.610714 -47.576273
-3.689666 -22.764183 -46.007927
-3.831577 -21.77626 -45.875702
-3.292257 -21.190933 -46.742088
-4.151815 -24.402164 -45.224855
-3.689666 -22.764183 -46.007927
-12.69752 -37.568663 -33.852961
-12.674119 -38.889099 -33.964012
-11.940678 -31.130612 -34.904278
-12.635459 -31.191139 -34.149997
-11.27621 -31.101401 -35.679075
-11.75526 -32.328444 -35.030741
-11.940678 -31.130612 -34.904278
-10.58847 -30.867256 -36.476812
-11.27621 -31.101401 -35.679075
-9.932309 -30.582266 -37.2885
-10.434631 -32.014242 -36.617226
-10.58847 -30.867256 -36.476812
-6.992674 -26.744672 -41.13064
-7.606407 -27.169579 -40.32181
-6.887269 -27.746085 -41.231769
-6.992674 -26.744672 -41.13064
-6.401154 -26.278261 -41.937697
-6.296641 -28.546993 -42.063242
-6.850226 -30.182844 -41.321367
-6.849334 -28.915526 -41.296951
-5.749553 -28.158361 -42.847606
-6.296641 -28.546993 -42.063242
-5.748661 -26.891042 -42.82319
-5.148439 -27.68266 -43.709072
-5.749553 -28.158361 -42.847606
-5.520313 -23.254866 -43.334816
-5.922046 -24.751206 -42.660698
-13.991263 -35.159405 -32.271363
-13.521956 -33.94331 -32.911301
-13.894573 -36.405653 -32.329252
-13.991263 -35.159405 -32.271363
-13.299131 -36.384907 -33.080527
-13.894573 -36.405653 -32.329252
-12.701435 -36.303657 -33.80546
-13.299131 -36.384907 -33.080527
-12.729524 -35.045383 -33.776798
-12.127914 -36.229139 -34.549233
-12.69752 -37.568663 -33.852961
-12.701435 -36.303657 -33.80546
-10.95429 -36.000231 -36.06909
-11.535107 -37.353952 -35.38122
-11.543183 -36.140422 -35.284603
-10.361622 -35.751314 -36.839291
-10.95429 -36.000231 -36.06909
-10.369698 -34.537785 -36.742674
-9.791462 -35.553411 -37.61264
-10.361622 -35.751314 -36.839291
-9.38449 -29.147286 -38.007629
-8.896828 -27.861194 -38.695351
-9.230649 -30.294272 -38.148043
-9.932309 -30.582266 -37.2885
-9.38449 -29.147286 -38.007629
-8.080809 -28.535895 -39.645942
-8.208427 -27.492977 -39.543039
-7.606407 -27.169579 -40.32181
-9.189971 -34.02396 -38.300035
-9.147404 -32.68763 -38.283806
-8.560344 -32.422722 -39.070966
-9.204403 -35.288503 -38.399801
-9.791462 -35.553411 -37.61264
-9.189971 -34.02396 -38.300035
-7.378036 -31.812098 -40.674031
-6.850226 -30.182844 -41.321367
-4.912684 -22.781363 -44.211027
-5.520313 -23.254866 -43.334816
-3.084629 -18.552697 -47.374927
-2.944437 -19.622791 -47.444048
-3.6074 -19.275283 -46.481878
-3.084629 -18.552697 -47.374927
-3.961002 -20.770086 -45.773544
-3.6074 -19.275283 -46.481878
-4.35841 -22.343336 -45.039383
-3.961002 -20.770086 -45.773544
-3.831577 -21.77626 -45.875702
-4.783259 -23.787537 -44.313185
-4.912684 -22.781363 -44.211027
-4.35841 -22.343336 -45.039383
-4.638108 -25.978613 -44.457862
-4.715279 -24.925959 -44.374548
-4.151815 -24.402164 -45.224855
-5.148439 -27.68266 -43.709072
-4.638108 -25.978613 -44.457862
3 0 17 19
3 17 7 18
3 17 18 19
3 0 8 7
3 1 20 22
3 20 21 22
3 1 23 24
3 2 25 26
3 2 27 29
3 27 9 28
3 27 28 29
3 2 10 9
3 3 11 5
3 3 12 11
3 30 13 31
3 4 14 6
3 4 32 34
3 34 33 14
3 32 33 34
3 4 35 36
3 37 15 38
3 37 38 39
3 40 16 41
3 42 41 15
3 40 41 42
3 44 43 16
3 45 1 46
3 47 2 48
3 49 5 50
3 51 50 2
3 49 50 51
3 52 5 53
3 54 3 55
3 56 55 5
3 54 55 56
3 57 6 58
3 7 59 61
3 59 6 60
3 59 60 61
3 7 4 6
3 7 62 64
3 64 63 4
3 62 63 64
3 8 65 67
3 67 66 7
3 65 66 67
3 8 68 69
3 70 0 71
3 9 72 73
3 9 74 75
3 9 76 77
3 10 78 80
3 80 79 9
3 78 79 80
3 10 81 83
3 81 1 82
3 81 82 83
3 5 10 2
3 11 10 5
3 11 1 10
3 11 84 86
3 86 85 1
3 84 85 86
3 12 87 89
3 89 88 11
3 87 88 89
3 12 90 91
3 13 92 93
3 13 94 96
3 94 3 95
3 94 95 96
3 6 97 99
3 97 13 98
3 97 98 99
3 14 13 6
3 14 3 13
3 14 12 3
3 100 12 101
3 102 101 14
3 100 101 102
3 105 104 12
3 103 104 105
3 107 106 4
3 108 0 109
3 15 110 111
3 15 112 113
3 15 114 115
3 16 116 118
3 118 117 15
3 116 117 118
3 16 119 121
3 119 0 120
3 119 120 121
3 16 8 0
3 122 8 123
3 124 123 16
3 122 123 124
3 126 125 8
