ply
format ascii 1.0
element vertex 319
property float x
property float y
property float z
element face 349
property list uchar int vertex_index
end_header
-16.219322 -55.572433 60.408585
-10.171536 -36.561504 67.170715
-25.187193 -38.723969 69.342018
-22.731609 -29.296371 72.574257
-5.709272 -43.438599 61.064617
-13.432471 -45.992207 65.507103
-14.865417 -29.061817 70.875069
-18.25012 -38.324852 70.266357
-21.006168 -47.824757 66.428345
-12.436333 -54.152687 59.618504
-7.89417 -40.183041 64.422195
-9.449151 -44.742683 63.644085
-11.871738 -41.317928 66.752586
-23.984638 -34.037586 71.387917
-20.525028 -33.956154 71.699799
-21.929878 -38.600021 70.43013
-19.682014 -42.951805 68.822365
-23.275126 -43.380688 68.259689
-8.53687 -31.923498 67.012871
-3.745743 -46.536469 57.335197
-7.350269 -48.067265 60.027905
-11.053107 -49.635574 61.955261
-14.741197 -50.935001 63.203484
-12.601657 -32.701527 69.352112
-18.980417 -29.389965 72.200577
-16.716722 -33.618279 70.956581
-14.243626 -37.508942 69.158791
-15.740176 -42.184998 68.241501
-17.258671 -47.109512 66.410759
-18.616915 -51.951572 63.747677
-14.252529 -55.10685 59.901188
-8.203259 -36.056297 65.921143
-7.183105 -37.899937 64.607933
-9.032712 -38.426132 65.879814
-9.873321 -40.797375 65.675644
-10.986697 -38.977688 67.02388
-24.677746 -36.459999 70.416985
-23.066412 -36.271362 70.98864
-23.621059 -38.637447 70.080643
-22.569187 -40.99855 69.463722
-24.286749 -41.012413 68.905762
-4.7438 -45.016979 59.263237
-5.469213 -47.249374 58.736214
-6.60503 -45.810478 60.679794
-11.420848 -45.553543 64.587418
-10.344497 -47.215347 62.955627
-12.177448 -47.938499 63.73148
-12.892445 -50.244377 62.711292
-14.123136 -48.387444 64.517075
-12.857335 -28.560192 69.98645
-11.68952 -30.435606 69.180595
-13.74955 -30.886076 70.177635
-20.815746 -29.394135 72.510643
-19.339815 -36.2314 71.031792
-18.634686 -33.866791 71.433617
-17.453327 -35.988533 70.68763
-15.454394 -35.646347 70.102264
-16.277473 -37.988033 69.823349
-15.021575 -39.912823 68.788086
-17.051096 -40.262211 69.363945
-20.315727 -45.363796 67.743736
-18.406254 -45.106903 67.683861
-19.191784 -47.599174 66.508263
-17.875952 -49.56126 65.148468
-19.890644 -50.047153 65.120636
-20.519163 -52.32835 63.637894
-21.701538 -50.182549 64.954521
-10.4664 -53.482964 58.793613
-6.776833 -41.902817 62.78067
-7.541427 -44.094971 62.43206
-8.659934 -42.309982 64.178307
-10.589578 -43.153126 65.20182
-12.508286 -43.611069 66.166199
-23.323378 -31.70331 72.085327
-21.60508 -31.483295 72.239944
-22.263813 -33.976601 71.706818
-21.240946 -36.341579 71.147095
-20.159307 -38.59037 70.458115
-18.989344 -40.6101 69.656876
-20.847473 -41.011639 69.640373
-21.489357 -43.336365 68.642433
-22.087355 -45.715355 67.423775
-22.809546 -48.069817 65.9842
-23.81028 -45.716957 66.910698
-9.379332 -34.211117 67.169006
-24.342794 -29.280848 72.335777
-24.960546 -31.447632 71.697639
-18.133419 -56.187386 60.495522
-7.913436 -50.267292 59.086933
-8.41235 -46.347382 61.970604
-9.146156 -48.684662 61.157936
-9.740202 -50.985886 60.085224
-11.638558 -51.946815 60.763214
-13.657269 -52.638027 61.477314
-15.548244 -53.351448 61.857544
-10.585602 -32.388054 68.26844
-11.378515 -34.780609 68.306641
-16.927092 -28.987225 71.663658
-19.768932 -31.696321 72.036087
-17.845306 -31.452621 71.649979
-15.92987 -31.176094 71.064156
-14.765533 -33.191704 70.296471
-13.356182 -35.061356 69.307556
-12.18511 -37.125698 68.237701
-12.969068 -39.287949 68.048828
-13.811984 -41.700356 67.629257
-14.521351 -44.109776 66.939377
-17.731583 -42.687443 68.62616
-16.496666 -44.613308 67.44886
-15.366005 -46.621693 66.050079
-16.08765 -49.166862 64.87265
-16.693666 -51.596691 63.518299
-17.55908 -53.877888 62.15329
-19.360996 -54.239094 62.220867
-15.593065 -56.449834 59.405113
-14.609669 -56.217043 59.151415
-15.235925 -55.339641 60.154887
-25.447325 -39.84481 68.703957
-24.997104 -40.989033 68.485828
-24.736971 -39.868191 69.12389
-4.872801 -43.097495 60.361889
-5.379686 -42.288196 61.266874
-5.226536 -44.227789 60.163927
-4.390066 -43.886685 59.461199
-4.872801 -43.097495 60.361889
-13.861376 -28.811005 70.430759
-13.401969 -27.624569 70.310795
-14.406009 -27.875382 70.755104
-21.773677 -29.345253 72.54245
-21.317975 -28.232546 72.681134
-22.275906 -28.183664 72.712941
-11.779966 -54.987804 58.500063
-10.794999 -54.652943 58.087618
-11.451366 -53.817825 59.206058
-7.012429 -39.854397 63.783384
-6.656897 -38.712845 63.876253
-7.538638 -39.041489 64.515064
-7.335501 -41.042929 63.601433
-6.453761 -40.714285 62.962621
-7.012429 -39.854397 63.783384
-7.990459 -32.814349 66.446415
-7.509117 -31.766225 66.279805
-8.958101 -33.067307 67.090938
-8.41169 -33.958158 66.524483
-7.990459 -32.814349 66.446415
-25.110008 -29.095299 72.076881
-24.763393 -27.981933 72.412296
-25.530607 -27.796384 72.153401
-25.418884 -30.178691 71.757812
-24.65167 -30.36424 72.016708
-25.110008 -29.095299 72.076881
-18.417268 -57.295397 59.612978
-19.070742 -56.370327 60.474984
-2.998921 -46.181135 56.670502
-3.424303 -45.449211 57.565439
-3.257956 -47.27232 56.355424
-2.998921 -46.181135 56.670502
-4.089317 -47.644882 57.03985
-3.257956 -47.27232 56.355424
-6.722081 -48.795489 58.974449
-5.781553 -48.386543 58.328604
-6.409741 -47.65832 59.382059
-7.631852 -49.167278 59.557419
-7.003664 -49.895502 58.503963
-6.722081 -48.795489 58.974449
-18.465051 -28.230552 72.171318
-19.442955 -28.213693 72.409893
-17.953754 -29.188595 71.932118
-17.438388 -28.029181 71.902859
-18.465051 -28.230552 72.171318
-20.812123 -53.441694 62.82248
-21.363743 -52.43664 63.468824
-23.0816 -49.249058 65.175702
-23.564839 -48.04356 65.690831
-13.58566 -55.863242 58.89591
-12.677562 -55.38616 58.754569
-13.344431 -54.629768 59.759846
-13.58566 -55.863242 58.89591
-14.609669 -56.217043 59.151415
-7.693182 -36.978117 65.264538
-6.799088 -36.738684 64.611103
-7.309165 -35.816864 65.267708
-24.543567 -42.216496 68.232144
-24.037755 -43.400633 67.909107
-23.780938 -42.196551 68.582725
-24.543567 -42.216496 68.232144
-24.997104 -40.989033 68.485828
-8.012434 -30.917226 66.799442
-7.509117 -31.766225 66.279805
-6.98468 -30.759953 66.066376
-3.923331 -44.689466 58.529459
-4.390066 -43.886685 59.461199
-4.244772 -45.776724 58.299217
-3.424303 -45.449211 57.565439
-3.923331 -44.689466 58.529459
-12.300109 -27.490895 69.76918
-12.844743 -26.555272 70.093525
-13.401969 -27.624569 70.310795
-11.794456 -28.452829 69.421135
-12.300109 -27.490895 69.76918
-12.273428 -29.497899 69.583523
-11.210548 -29.390536 69.018207
-11.794456 -28.452829 69.421135
-20.360619 -28.215778 72.564926
-21.317975 -28.232546 72.681134
-19.898081 -29.39205 72.35561
-19.442955 -28.213693 72.409893
-20.360619 -28.215778 72.564926
-21.954931 -51.36374 64.127138
-21.363743 -52.43664 63.468824
-21.11035 -51.255449 64.296208
-9.855225 -54.211972 57.743764
-9.528442 -53.045334 58.390596
-9.855225 -54.211972 57.743764
-10.794999 -54.652943 58.087618
-11.779966 -54.987804 58.500063
-12.677562 -55.38616 58.754569
-6.294636 -37.559681 63.93062
-6.799088 -36.738684 64.611103
-6.294636 -37.559681 63.93062
-6.656897 -38.712845 63.876253
-5.913467 -41.520305 62.1249
-6.453761 -40.714285 62.962621
-6.243053 -42.670708 61.922643
-5.379686 -42.288196 61.266874
-5.913467 -41.520305 62.1249
-15.387124 -27.945584 71.16777
-14.406009 -27.875382 70.755104
-24.065205 -46.86713 66.154079
-23.564839 -48.04356 65.690831
-23.309913 -46.893387 66.447449
-24.305332 -44.568767 67.234611
-23.542703 -44.548822 67.585194
-24.037755 -43.400633 67.909107
-24.536771 -45.716355 66.50119
-24.305332 -44.568767 67.234611
-24.065205 -46.86713 66.154079
-24.536771 -45.716355 66.50119
-7.823653 -34.880748 65.900551
-7.309165 -35.816864 65.267708
-8.791296 -35.133707 66.545074
-7.823653 -34.880748 65.900551
-8.41169 -33.958158 66.524483
-23.186272 -28.055973 72.69603
-22.275906 -28.183664 72.712941
-23.991864 -28.048212 72.576789
-24.763393 -27.981933 72.412296
-23.537202 -29.288609 72.455017
-23.186272 -28.055973 72.69603
-23.991864 -28.048212 72.576789
-25.681406 -31.372107 71.32267
-25.418884 -30.178691 71.757812
-25.263672 -32.608904 71.247001
-25.681406 -31.372107 71.32267
-24.775718 -33.903881 71.09214
-24.472592 -32.742609 71.542778
-25.263672 -32.608904 71.247001
-25.122273 -35.115088 70.606674
-24.331192 -35.248793 70.902451
-24.775718 -33.903881 71.09214
-25.361833 -36.347412 70.049958
-25.122273 -35.115088 70.606674
-25.616557 -37.479397 69.512474
-24.932469 -37.591984 69.879502
-25.361833 -36.347412 70.049958
-25.855299 -38.630522 68.863659
-25.616557 -37.479397 69.512474
-17.477398 -57.100691 59.535179
-16.520349 -56.793214 59.491711
-17.17637 -55.879909 60.452054
-17.477398 -57.100691 59.535179
-18.417268 -57.295397 59.612978
-4.951052 -48.001335 57.740358
-4.089317 -47.644882 57.03985
-4.607478 -46.892921 58.035705
-4.951052 -48.001335 57.740358
-5.781553 -48.386543 58.328604
-7.396064 -51.018633 58.097302
-7.003664 -49.895502 58.503963
-8.25196 -51.437498 58.537256
-7.396064 -51.018633 58.097302
-9.165343 -51.796795 59.036401
-8.25196 -51.437498 58.537256
-8.826819 -50.626589 59.586078
-10.103301 -52.234425 59.439419
-9.528442 -53.045334 58.390596
-9.165343 -51.796795 59.036401
-9.081058 -31.076064 67.498555
-8.012434 -30.917226 66.799442
-10.657383 -30.332118 68.582416
-11.210548 -29.390536 69.018207
-10.105424 -31.308342 68.126339
-10.657383 -30.332118 68.582416
-11.137561 -31.41183 68.724517
-9.561236 -32.155776 67.640656
-9.081058 -31.076064 67.498555
-10.105424 -31.308342 68.126339
-16.417961 -27.908288 71.562065
-17.438388 -28.029181 71.902859
-15.896254 -29.024521 71.269363
-15.387124 -27.945584 71.16777
-16.417961 -27.908288 71.562065
-19.68453 -55.396181 61.337656
-19.070742 -56.370327 60.474984
-18.747208 -55.21324 61.358194
-20.23304 -54.397066 62.113966
-19.940079 -53.283722 62.929381
-20.812123 -53.441694 62.82248
-19.68453 -55.396181 61.337656
-20.23304 -54.397066 62.113966
-22.527596 -50.305424 64.660862
-22.255542 -49.126183 65.46936
-23.0816 -49.249058 65.175702
-21.954931 -51.36374 64.127138
-22.527596 -50.305424 64.660862
-25.447325 -39.84481 68.703957
-25.855299 -38.630522 68.863659
-15.593065 -56.449834 59.405113
-16.520349 -56.793214 59.491711
3 0 114 116
3 116 115 30
3 114 115 116
3 1 33 31
3 1 35 33
3 2 38 36
3 2 40 38
3 2 117 119
3 119 118 40
3 117 118 119
3 4 120 121
3 4 122 124
3 122 41 123
3 122 123 124
3 4 43 41
3 5 46 44
3 5 48 46
3 6 125 127
3 125 49 126
3 125 126 127
3 6 51 49
3 3 128 130
3 128 52 129
3 128 129 130
3 7 55 53
3 7 57 55
3 7 59 57
3 8 62 60
3 8 64 62
3 8 66 64
3 9 131 133
3 133 132 67
3 131 132 133
3 10 134 136
3 136 135 32
3 134 135 136
3 10 137 139
3 137 68 138
3 137 138 139
3 10 70 68
3 12 71 34
3 12 72 71
3 13 75 73
3 15 76 37
3 15 77 76
3 15 79 77
3 17 80 39
3 17 81 80
3 17 83 81
3 18 140 141
3 18 142 144
3 142 84 143
3 142 143 144
3 145 85 146
3 145 146 147
3 148 86 149
3 150 149 85
3 148 149 150
3 152 151 87
3 19 153 154
3 19 155 156
3 19 157 158
3 20 159 161
3 161 160 42
3 159 160 161
3 20 162 164
3 162 88 163
3 162 163 164
3 11 89 69
3 21 90 45
3 21 91 90
3 21 92 91
3 22 93 47
3 22 94 93
3 23 95 50
3 23 96 95
3 24 165 166
3 24 167 169
3 167 97 168
3 167 168 169
3 14 98 74
3 25 99 54
3 25 100 99
3 25 101 100
3 26 102 56
3 26 103 102
3 26 104 103
3 27 105 58
3 27 106 105
3 16 107 78
3 28 108 61
3 28 109 108
3 28 110 109
3 29 111 63
3 29 112 111
3 29 113 112
3 171 170 65
3 173 172 82
3 30 174 176
3 176 175 9
3 174 175 176
3 178 177 30
3 31 179 181
3 179 32 180
3 179 180 181
3 33 32 31
3 33 10 32
3 33 34 10
3 35 34 33
3 35 12 34
3 36 37 13
3 38 37 36
3 38 15 37
3 38 39 15
3 40 39 38
3 40 17 39
3 40 182 184
3 184 183 17
3 182 183 184
3 186 185 40
3 187 18 188
3 187 188 189
3 41 190 191
3 41 192 194
3 192 19 193
3 192 193 194
3 41 42 19
3 43 42 41
3 43 20 42
3 44 45 11
3 46 45 44
3 46 21 45
3 46 47 21
3 48 47 46
3 48 22 47
3 49 195 197
3 195 196 197
3 49 198 199
3 49 200 202
3 200 50 201
3 200 201 202
3 51 50 49
3 51 23 50
3 52 203 204
3 52 205 207
3 205 24 206
3 205 206 207
3 53 54 14
3 55 54 53
3 55 25 54
3 55 56 25
3 57 56 55
3 57 26 56
3 57 58 26
3 59 58 57
3 59 27 58
3 60 61 16
3 62 61 60
3 62 28 61
3 62 63 28
3 64 63 62
3 64 29 63
3 64 65 29
3 66 65 64
3 66 208 210
3 210 209 65
3 208 209 210
3 67 211 212
3 214 213 67
3 216 215 9
3 32 217 218
3 220 219 32
3 68 221 222
3 68 223 225
3 223 4 224
3 223 224 225
3 68 69 4
3 70 69 68
3 70 11 69
3 34 70 10
3 71 70 34
3 71 11 70
3 71 44 11
3 72 44 71
3 72 5 44
3 226 6 227
3 73 74 3
3 75 74 73
3 75 14 74
3 37 75 13
3 76 75 37
3 76 14 75
3 76 53 14
3 77 53 76
3 77 7 53
3 77 78 7
3 79 78 77
3 79 16 78
3 39 79 15
3 80 79 39
3 80 16 79
3 80 60 16
3 81 60 80
3 81 8 60
3 81 82 8
3 83 82 81
3 83 228 230
3 230 229 82
3 228 229 230
3 231 83 232
3 233 232 17
3 231 232 233
3 234 83 235
3 237 236 83
3 238 31 239
3 84 240 242
3 240 31 241
3 240 241 242
3 84 1 31
3 243 3 244
3 85 245 246
3 85 247 249
3 247 3 248
3 247 248 249
3 85 73 3
3 86 73 85
3 86 13 73
3 250 86 251
3 252 86 253
3 254 13 255
3 256 255 86
3 254 255 256
3 257 36 258
3 259 258 13
3 257 258 259
3 260 36 261
3 262 2 263
3 264 263 36
3 262 263 264
3 266 265 2
3 87 267 269
3 269 268 0
3 267 268 269
3 271 270 87
3 42 272 274
3 274 273 19
3 272 273 274
3 276 275 42
3 88 277 278
3 88 279 280
3 69 43 4
3 89 43 69
3 89 20 43
3 45 89 11
3 90 89 45
3 90 20 89
3 90 88 20
3 91 88 90
3 91 281 283
3 283 282 88
3 281 282 283
3 91 284 286
3 284 67 285
3 284 285 286
3 92 67 91
3 92 9 67
3 47 92 21
3 93 92 47
3 93 9 92
3 93 30 9
3 94 30 93
3 94 0 30
3 287 18 288
3 50 289 290
3 95 291 293
3 293 292 50
3 291 292 293
3 95 294 296
3 294 18 295
3 294 295 296
3 95 84 18
3 96 84 95
3 96 1 84
3 97 297 298
3 97 299 301
3 299 6 300
3 299 300 301
3 74 52 3
3 98 52 74
3 98 24 52
3 54 98 14
3 99 98 54
3 99 24 98
3 99 97 24
3 100 97 99
3 100 6 97
3 100 51 6
3 101 51 100
3 101 23 51
3 56 101 25
3 102 101 56
3 102 23 101
3 102 96 23
3 103 96 102
3 103 1 96
3 103 35 1
3 104 35 103
3 104 12 35
3 58 104 26
3 105 104 58
3 105 12 104
3 105 72 12
3 106 72 105
3 106 5 72
3 78 59 7
3 107 59 78
3 107 27 59
3 61 107 16
3 108 107 61
3 108 27 107
3 108 106 27
3 109 106 108
3 109 5 106
3 109 48 5
3 110 48 109
3 110 22 48
3 63 110 28
3 111 110 63
3 111 22 110
3 111 94 22
3 112 94 111
3 112 0 94
3 112 87 0
3 113 87 112
3 113 302 304
3 304 303 87
3 302 303 304
3 65 113 29
3 305 113 306
3 307 306 65
3 305 306 307
3 309 308 113
3 82 66 8
3 310 66 311
3 312 311 82
3 310 311 312
3 314 313 66
3 316 315 2
3 318 317 0
