ply
format ascii 1.0
element vertex 312
property float x
property float y
property float z
element face 329
property list uchar int vertex_index
end_header
-16.923676 -84.235611 -6.667034
-0.580238 -100.491051 -8.514034
-13.840785 -91.124298 -16.600214
-9.650433 -93.303276 -7.509133
-5.68495 -99.692657 -17.844793
4.244252 -105.710678 -17.944674
-15.43937 -87.889053 -11.663017
-17.260712 -86.223274 -16.134195
-14.92994 -85.290909 -1.648702
-11.503941 -89.4888 -2.310582
-13.506767 -88.99572 -7.00481
-11.770905 -92.605118 -12.236908
4.32352 -102.894623 -8.231812
7.036388 -105.585159 -12.707526
1.81953 -103.564156 -13.525885
-0.806883 -103.152046 -18.142584
-3.097589 -100.586922 -13.451803
-15.479136 -89.400826 -20.750246
-3.098207 -96.638985 -3.307269
-9.366228 -89.221115 2.598867
-7.495318 -93.331299 -2.881298
-5.188231 -97.323906 -8.227094
-7.724574 -96.77198 -12.776852
-9.897928 -95.744087 -17.114305
9.54961 -107.3647 -17.382526
-16.191671 -86.120514 -9.189253
-17.197733 -85.249146 -11.439381
-17.778072 -83.631805 -9.00803
-15.955028 -84.790207 -4.081941
-14.280503 -87.138245 -4.401417
-15.308077 -86.640648 -6.876408
-14.517137 -88.476433 -9.349261
1.855682 -101.842369 -8.539674
3.180239 -103.412788 -10.950101
0.598941 -102.107178 -11.020877
-0.601276 -102.201813 -13.483886
-1.835759 -100.679726 -11.090824
-12.856139 -92.695045 -18.73209
-14.667053 -90.351646 -18.66708
-4.229148 -94.595551 -0.676305
-11.094454 -87.535011 2.99401
-10.588598 -91.422569 -4.880975
-9.537365 -91.54068 -2.727271
-8.407208 -93.600471 -5.313007
-6.333125 -95.406502 -5.585343
-7.437289 -95.417274 -7.892432
-6.438117 -97.133102 -10.424944
-8.690336 -95.097504 -10.144952
-12.880303 -91.884872 -14.484056
-10.976186 -94.13591 -14.854177
-11.845257 -93.596695 -16.887865
-11.037823 -94.843597 -18.976793
5.858966 -105.890373 -15.516201
8.3917 -106.643906 -15.077843
6.991976 -106.725319 -17.84549
8.121883 -107.274323 -20.124725
5.380045 -106.43074 -20.328308
3.783697 -105.853683 -22.919361
2.794988 -105.358154 -20.442392
-3.221379 -101.573692 -18.057228
-2.433289 -102.41774 -20.411291
-4.747998 -100.729584 -19.934029
-7.025052 -98.853783 -19.673719
-14.658983 -89.571884 -14.212287
-15.626995 -88.68013 -16.372269
-16.498955 -86.902946 -13.826844
-13.900772 -85.562469 0.866377
-12.137626 -87.661209 0.489213
-13.25526 -87.402382 -1.82315
-12.554434 -89.232475 -4.532724
-11.637207 -91.1791 -7.156346
-10.784862 -92.979858 -9.893472
-12.750072 -90.692184 -9.482378
-13.651198 -90.270187 -11.783888
8.372651 -105.205933 -10.174886
5.748119 -104.38279 -10.520716
4.455441 -104.741379 -13.270732
3.188539 -104.795151 -15.656637
1.69587 -104.530365 -18.028126
0.637133 -103.530327 -15.823174
-2.010781 -101.93795 -15.832516
-4.424887 -100.215012 -15.650555
0.473253 -99.960007 -5.892497
-16.39819 -87.891342 -18.571758
-1.878417 -98.642159 -5.980685
-7.294092 -90.936905 2.330425
-10.340299 -89.623627 -0.00715
-8.426311 -91.33004 -0.159474
-6.306195 -93.081047 -0.462017
-5.406333 -95.01371 -3.131775
-4.093763 -97.124725 -5.794477
-3.015213 -98.983055 -8.552188
-4.105506 -99.071304 -10.883965
-5.516415 -98.664597 -12.956674
-6.584841 -98.44722 -15.408655
-9.792207 -94.793877 -12.626728
-8.827577 -96.366295 -15.101625
-7.928549 -97.71228 -17.48843
-9.04154 -96.961189 -19.35338
9.763679 -106.339165 -12.437372
10.937304 -107.192818 -14.754261
12.207331 -107.740791 -16.830616
0.077136 -103.959328 -20.456448
-4.730263 -93.533211 0.69365
-3.631931 -94.29498 0.522521
-11.953937 -86.620422 3.148853
-11.513963 -86.465053 4.374645
-17.644236 -84.842713 -12.633083
-17.944878 -84.034149 -11.412831
5.03582 -103.638706 -9.376264
6.319454 -104.104649 -9.234766
5.607155 -103.360566 -8.090314
0.982928 -99.591511 -4.594083
1.713606 -100.573735 -5.85114
-14.885715 -90.231434 -21.692138
-14.584762 -90.616158 -20.711601
-15.792706 -88.948967 -21.747788
-15.199285 -89.779575 -22.689681
-14.885715 -90.231434 -21.692138
-1.909946 -97.359047 -3.336391
-2.550149 -96.367169 -2.132491
-2.488312 -97.640572 -4.643977
-1.300051 -98.360634 -4.673099
-1.909946 -97.359047 -3.336391
-8.817213 -89.001415 3.801245
-9.739757 -88.208561 3.968548
-8.33016 -90.07901 2.464646
-7.781144 -89.85931 3.667024
-8.817213 -89.001415 3.801245
-10.542662 -95.493732 -20.05131
-11.434003 -94.495537 -19.904168
10.185433 -107.581718 -18.532692
11.514294 -107.769764 -18.256737
10.87847 -107.552746 -17.106571
8.65937 -107.386486 -21.201094
7.227593 -107.02628 -21.392623
1.510671 -104.747658 -23.743404
2.842116 -105.365337 -23.898877
2.452252 -105.236004 -22.763889
-2.002991 -102.748649 -21.504458
-3.197462 -101.943748 -21.340675
-18.235047 -83.225479 -10.197156
-17.944878 -84.034149 -11.412831
-17.487903 -84.440475 -10.223705
-13.273264 -92.263267 -19.702523
-12.34316 -93.42126 -19.781816
-14.178721 -91.091568 -19.670018
-13.273264 -92.263267 -19.702523
-13.761596 -91.523346 -18.699585
-15.073094 -89.876236 -19.708663
-14.584762 -90.616158 -20.711601
-14.178721 -91.091568 -19.670018
-17.67953 -85.736984 -17.226102
-18.109851 -84.841095 -16.037021
-3.11562 -95.345451 -0.817009
-3.631931 -94.29498 0.522521
-3.663678 -95.617268 -1.991787
-2.550149 -96.367169 -2.132491
-3.11562 -95.345451 -0.817009
-10.60387 -87.365509 4.166119
-11.513963 -86.465053 4.374645
-10.230341 -88.378063 2.796438
-9.739757 -88.208561 3.968548
-10.60387 -87.365509 4.166119
-12.34316 -93.42126 -19.781816
-11.434003 -94.495537 -19.904168
-11.946981 -93.769321 -18.854442
5.856674 -106.604488 -21.494415
7.227593 -107.02628 -21.392623
6.750964 -106.852531 -20.226517
4.581871 -106.142212 -21.623835
5.0585 -106.31596 -22.789941
5.856674 -106.604488 -21.494415
1.957898 -104.988239 -21.525404
2.452252 -105.236004 -22.763889
3.289343 -105.605919 -21.680877
-4.354816 -101.099671 -21.102044
-3.197462 -101.943748 -21.340675
-3.590643 -101.573662 -20.17266
-5.45165 -100.24836 -20.824714
-4.354816 -101.099671 -21.102044
-6.590177 -99.31046 -20.694559
-5.45165 -100.24836 -20.824714
-5.886525 -99.791684 -19.803874
-7.605787 -98.424026 -20.566066
-6.590177 -99.31046 -20.694559
-17.294846 -85.669612 -13.826814
-16.848344 -86.076046 -12.633112
-17.644236 -84.842713 -12.633083
-17.675725 -85.329777 -14.980489
-16.879834 -86.56311 -14.980519
-17.294846 -85.669612 -13.826814
-18.109851 -84.841095 -16.037021
-17.675725 -85.329777 -14.980489
-13.019199 -86.611839 0.677795
-12.475523 -86.683521 1.896455
-13.357096 -85.634151 2.085037
7.63172 -104.516221 -9.061851
8.839255 -104.782959 -8.724854
7.060385 -104.794362 -10.347801
7.63172 -104.516221 -9.061851
6.319454 -104.104649 -9.234766
-17.658485 -83.018982 -6.561792
-17.171115 -83.37727 -5.258205
-14.235767 -84.60643 2.177167
-13.357096 -85.634151 2.085037
-14.740634 -84.493019 0.905219
-14.235767 -84.60643 2.177167
-15.255218 -84.357239 -0.35232
-14.415356 -85.426689 -0.391162
-14.740634 -84.493019 0.905219
-15.75439 -84.099888 -1.505767
-15.255218 -84.357239 -0.35232
-16.266934 -83.849537 -2.722386
-15.442484 -85.040558 -2.865321
-15.75439 -84.099888 -1.505767
-16.686791 -83.654568 -3.965658
-16.266934 -83.849537 -2.722386
-17.171115 -83.37727 -5.258205
-16.439352 -84.512909 -5.374487
-16.686791 -83.654568 -3.965658
4.938631 -102.546112 -6.861976
5.607155 -103.360566 -8.090314
3.638739 -102.041043 -7.020798
4.938631 -102.546112 -6.861976
2.40482 -101.514916 -7.174729
3.089601 -102.368496 -8.385743
3.638739 -102.041043 -7.020798
1.164467 -100.901188 -7.216086
2.40482 -101.514916 -7.174729
1.713606 -100.573735 -5.85114
-17.248269 -86.571018 -18.444884
-16.829451 -87.057308 -17.352976
-17.67953 -85.736984 -17.226102
-16.812441 -87.353127 -19.61275
-17.248269 -86.571018 -18.444884
-16.352914 -88.107868 -20.701994
-15.938663 -88.646084 -19.661002
-16.812441 -87.353127 -19.61275
-15.792706 -88.948967 -21.747788
-16.352914 -88.107868 -20.701994
-18.085684 -82.717079 -7.73229
-17.350874 -83.933708 -7.837532
-17.658485 -83.018982 -6.561792
-18.533261 -82.34777 -8.986538
-18.085684 -82.717079 -7.73229
-18.235047 -83.225479 -10.197156
-18.533261 -82.34777 -8.986538
-0.124216 -99.019558 -4.629005
0.982928 -99.591511 -4.594083
-0.702582 -99.301083 -5.936591
-0.124216 -99.019558 -4.629005
-1.300051 -98.360634 -4.673099
-6.710743 -90.647175 3.537275
-7.781144 -89.85931 3.667024
-6.262735 -91.703888 2.197014
-6.710743 -90.647175 3.537275
-11.61604 -87.59811 1.741611
-11.953937 -86.620422 3.148853
-12.475523 -86.683521 1.896455
-5.768786 -92.775959 0.800794
-6.262735 -91.703888 2.197014
-6.800143 -92.008976 0.934204
-5.267672 -93.838299 -0.569161
-4.730263 -93.533211 0.69365
-5.768786 -92.775959 0.800794
-8.614031 -97.47773 -20.405896
-7.605787 -98.424026 -20.566066
-8.033296 -97.907486 -19.513549
-9.544521 -96.552528 -20.239604
-10.039682 -95.902393 -19.165087
-10.542662 -95.493732 -20.05131
-8.614031 -97.47773 -20.405896
-9.544521 -96.552528 -20.239604
9.612825 -105.433124 -9.845665
8.839255 -104.782959 -8.724854
10.308339 -105.999741 -10.976907
9.612825 -105.433124 -9.845665
9.068165 -105.772549 -11.306129
11.04291 -106.521241 -12.131563
10.308339 -105.999741 -10.976907
11.629723 -106.948067 -13.290007
11.04291 -106.521241 -12.131563
10.350492 -106.765991 -13.595816
12.241971 -107.291145 -14.375286
11.629723 -106.948067 -13.290007
12.876984 -107.565132 -15.413463
12.241971 -107.291145 -14.375286
11.572318 -107.466804 -15.792438
13.57465 -107.762325 -16.487656
12.876984 -107.565132 -15.413463
12.817096 -107.866825 -17.92201
13.57465 -107.762325 -16.487656
12.817096 -107.866825 -17.92201
11.514294 -107.769764 -18.256737
9.47157 -107.53653 -19.903792
10.185433 -107.581718 -18.532692
8.835746 -107.319512 -18.753625
9.47157 -107.53653 -19.903792
8.65937 -107.386486 -21.201094
4.143041 -105.901932 -23.953305
5.0585 -106.31596 -22.789941
4.143041 -105.901932 -23.953305
2.842116 -105.365337 -23.898877
0.598972 -104.288826 -21.532432
1.957898 -104.988239 -21.525404
1.436062 -104.658741 -20.44942
-0.747778 -103.519443 -21.527036
-1.178076 -103.188534 -20.43387
-2.002991 -102.748649 -21.504458
0.598972 -104.288826 -21.532432
-0.747778 -103.519443 -21.527036
3 0 27 25
3 0 30 28
3 0 25 30
3 1 34 32
3 1 36 34
3 2 38 37
3 103 39 104
3 105 40 106
3 3 43 41
3 3 45 43
3 3 47 45
3 2 50 48
3 2 37 50
3 5 54 52
3 5 56 54
3 5 58 56
3 4 61 59
3 4 62 61
3 6 65 63
3 108 107 26
3 8 68 66
3 10 69 29
3 10 70 69
3 10 72 70
3 6 73 31
3 6 63 73
3 12 109 111
3 109 75 110
3 109 110 111
3 14 76 33
3 14 77 76
3 14 79 77
3 16 80 35
3 16 81 80
3 112 82 113
3 17 114 115
3 17 116 118
3 116 117 118
3 7 83 64
3 18 119 120
3 18 121 123
3 121 84 122
3 121 122 123
3 19 124 125
3 19 126 128
3 126 85 127
3 126 127 128
3 9 86 67
3 20 87 42
3 20 88 87
3 20 89 88
3 21 90 44
3 21 91 90
3 21 92 91
3 22 93 46
3 22 94 93
3 11 95 71
3 23 96 49
3 23 97 96
3 23 98 97
3 130 129 51
3 13 99 74
3 24 100 53
3 24 101 100
3 24 131 133
3 133 132 101
3 131 132 133
3 135 134 55
3 138 137 57
3 136 137 138
3 15 102 78
3 140 139 60
3 25 26 6
3 27 26 25
3 27 141 143
3 143 142 26
3 141 142 143
3 28 29 8
3 30 29 28
3 30 10 29
3 30 31 10
3 25 31 30
3 25 6 31
3 32 33 12
3 34 33 32
3 34 14 33
3 34 35 14
3 36 35 34
3 36 16 35
3 37 144 145
3 38 146 148
3 148 147 37
3 146 147 148
3 38 149 151
3 149 17 150
3 149 150 151
3 153 152 7
3 39 154 155
3 39 156 158
3 156 18 157
3 156 157 158
3 40 159 160
3 40 161 163
3 161 19 162
3 161 162 163
3 41 42 9
3 43 42 41
3 43 20 42
3 43 44 20
3 45 44 43
3 45 21 44
3 45 46 21
3 47 46 45
3 47 22 46
3 48 49 11
3 50 49 48
3 50 23 49
3 50 51 23
3 37 51 50
3 37 164 166
3 166 165 51
3 164 165 166
3 52 53 13
3 54 53 52
3 54 24 53
3 54 55 24
3 56 55 54
3 56 167 169
3 169 168 55
3 167 168 169
3 56 170 172
3 170 57 171
3 170 171 172
3 58 57 56
3 58 173 175
3 175 174 57
3 173 174 175
3 59 60 15
3 61 60 59
3 61 176 178
3 178 177 60
3 176 177 178
3 61 179 180
3 62 181 183
3 183 182 61
3 181 182 183
3 62 184 185
3 63 64 2
3 65 64 63
3 65 7 64
3 26 65 6
3 186 65 187
3 188 187 26
3 186 187 188
3 189 7 190
3 191 190 65
3 189 190 191
3 193 192 7
3 66 194 196
3 194 67 195
3 194 195 196
3 68 67 66
3 68 9 67
3 29 68 8
3 69 68 29
3 69 9 68
3 69 41 9
3 70 41 69
3 70 3 41
3 70 71 3
3 72 71 70
3 72 11 71
3 31 72 10
3 73 72 31
3 73 11 72
3 73 48 11
3 63 48 73
3 63 2 48
3 197 74 198
3 75 199 201
3 199 74 200
3 199 200 201
3 75 13 74
3 33 75 12
3 76 75 33
3 76 13 75
3 76 52 13
3 77 52 76
3 77 5 52
3 77 78 5
3 79 78 77
3 79 15 78
3 35 79 14
3 80 79 35
3 80 15 79
3 80 59 15
3 81 59 80
3 81 4 59
3 203 202 0
3 204 66 205
3 206 66 207
3 208 8 209
3 210 209 66
3 208 209 210
3 211 8 212
3 213 28 214
3 215 214 8
3 213 214 215
3 216 28 217
3 218 0 219
3 220 219 28
3 218 219 220
3 221 12 222
3 223 12 224
3 225 32 226
3 227 226 12
3 225 226 227
3 82 228 230
3 228 32 229
3 228 229 230
3 82 1 32
3 64 38 2
3 83 38 64
3 83 17 38
3 231 83 232
3 233 232 7
3 231 232 233
3 234 83 235
3 236 17 237
3 238 237 83
3 236 237 238
3 240 239 17
3 241 27 242
3 243 242 0
3 241 242 243
3 244 27 245
3 247 246 27
3 248 82 249
3 84 250 252
3 250 82 251
3 250 251 252
3 84 1 82
3 85 253 254
3 85 255 256
3 67 257 259
3 257 40 258
3 257 258 259
3 86 40 67
3 86 19 40
3 42 86 9
3 87 86 42
3 87 19 86
3 87 85 19
3 88 85 87
3 88 260 262
3 262 261 85
3 260 261 262
3 88 263 265
3 263 39 264
3 263 264 265
3 89 39 88
3 89 18 39
3 44 89 20
3 90 89 44
3 90 18 89
3 90 84 18
3 91 84 90
3 91 1 84
3 91 36 1
3 92 36 91
3 92 16 36
3 46 92 21
3 93 92 46
3 93 16 92
3 93 81 16
3 94 81 93
3 94 4 81
3 71 47 3
3 95 47 71
3 95 22 47
3 49 95 11
3 96 95 49
3 96 22 95
3 96 94 22
3 97 94 96
3 97 4 94
3 97 62 4
3 98 62 97
3 98 266 268
3 268 267 62
3 266 267 268
3 51 98 23
3 269 98 270
3 271 270 51
3 269 270 271
3 273 272 98
3 74 274 275
3 99 276 278
3 278 277 74
3 276 277 278
3 99 279 280
3 53 99 13
3 100 99 53
3 100 281 283
3 283 282 99
3 281 282 283
3 100 284 285
3 101 286 288
3 288 287 100
3 286 287 288
3 101 289 290
3 101 291 292
3 294 293 101
3 55 295 297
3 297 296 24
3 295 296 297
3 299 298 55
3 57 300 301
3 303 302 57
3 78 58 5
3 102 58 78
3 102 304 306
3 306 305 58
3 304 305 306
3 60 102 15
3 307 102 308
3 309 308 60
3 307 308 309
3 311 310 102
