ply
format ascii 1.0
element vertex 179
property float x
property float y
property float z
element face 173
property list uchar int vertex_index
end_header
25.885391 12.901059 -70.331955
22.898739 1.457074 -69.116684
30.48975 -1.073428 -65.342247
20.324045 7.077155 -71.174805
24.37088 7.073595 -70.170547
31.651331 -8.788216 -62.323772
28.288628 -7.03097 -64.677353
21.11084 -4.583806 -67.361458
29.768728 12.012524 -67.697067
32.067852 4.689155 -65.258591
28.552561 6.129224 -68.059029
26.763741 0.452781 -67.652771
24.713245 -5.416555 -66.441727
22.943487 10.353755 -71.266449
25.108635 10.102015 -70.419189
21.689037 4.353676 -70.209328
19.712488 4.08278 -70.414299
20.983828 1.413973 -69.435036
21.932076 -1.605262 -68.308235
32.123539 -2.080468 -63.946957
32.986767 0.85626 -63.843174
31.275679 1.932207 -65.473106
30.365316 5.838687 -66.807907
29.580635 2.719475 -66.794373
27.612946 3.23903 -67.988892
28.747688 -0.374093 -66.522072
27.116428 -9.888318 -64.104568
26.492752 -6.049039 -65.697884
25.306492 -9.116512 -64.932793
20.890469 10.090434 -71.75795
22.346956 7.179839 -70.796684
23.69669 4.158694 -69.688644
32.881584 -6.204051 -62.254906
31.186708 -5.005483 -63.808205
29.487879 -3.963211 -65.106041
29.914116 -7.938358 -63.60688
28.669271 -11.076525 -63.078331
27.933945 12.350042 -69.080772
31.060152 8.423479 -66.498329
29.105152 9.121027 -68.089653
27.224487 9.583654 -69.312004
26.492895 6.721782 -69.242821
25.608347 3.969526 -69.017921
24.910152 1.056279 -68.475304
27.63847 -3.217019 -66.208427
25.775747 -2.512399 -67.115738
23.866495 -1.894935 -67.842773
22.869965 -4.853596 -67.02784
24.764555 13.066735 -70.861999
25.051419 14.396248 -70.795547
25.497013 11.501537 -70.375572
24.376177 11.667213 -70.905617
24.764555 13.066735 -70.861999
25.517081 -10.985034 -64.158237
26.21146 -9.502415 -64.518681
26.422049 -11.370937 -63.744125
24.618023 -10.522751 -64.538384
25.517081 -10.985034 -64.158237
21.147061 11.655903 -71.945259
20.077598 11.438118 -72.141804
32.266458 -7.496134 -62.289339
33.010519 -8.196013 -61.532337
32.395392 -9.488096 -61.566771
28.749688 -13.013348 -62.312534
29.495579 -11.486028 -62.54306
28.055525 -14.346964 -62.065807
27.975108 -12.410141 -62.831604
28.749688 -13.013348 -62.312534
19.251224 6.971964 -71.256744
18.518997 8.379612 -71.688736
19.591819 8.484803 -71.606797
18.679108 3.802538 -70.381115
19.357651 2.525411 -69.938511
20.291094 -4.637567 -67.391434
20.622214 -3.106584 -67.930752
20.748345 -5.99754 -66.859108
19.928599 -6.051302 -66.889084
20.291094 -4.637567 -67.391434
29.090143 13.58922 -68.177993
30.078972 13.176341 -67.342208
28.851337 12.181283 -68.38892
28.172752 13.757979 -68.869846
29.090143 13.58922 -68.177993
32.894543 4.240747 -64.382042
33.354 2.324299 -63.674334
32.52731 2.772708 -64.550883
32.436356 5.996626 -65.002015
32.894543 4.240747 -64.382042
31.564002 6.556317 -65.87846
31.932505 7.863788 -65.621883
32.436356 5.996626 -65.002015
23.293603 11.793083 -71.329246
22.173569 11.787564 -71.699509
24.026061 10.227885 -70.842819
23.293603 11.793083 -71.329246
24.376177 11.667213 -70.905617
31.780442 -10.882207 -61.512331
32.395392 -9.488096 -61.566771
30.98661 -10.341874 -62.165781
31.780442 -10.882207 -61.512331
19.993322 1.191007 -69.44888
19.357651 2.525411 -69.938511
20.348158 2.748377 -69.924667
20.558707 -0.107695 -68.967541
19.993322 1.191007 -69.44888
21.032832 -1.617312 -68.40414
20.558707 -0.107695 -68.967541
21.457952 -0.095645 -68.871635
21.521458 -3.094534 -67.834846
20.622214 -3.106584 -67.930752
21.032832 -1.617312 -68.40414
30.697536 11.513362 -66.842865
30.078972 13.176341 -67.342208
32.555153 -0.612104 -63.895066
33.342875 -1.130638 -63.102798
32.91126 -2.599003 -63.15469
24.415215 -8.646541 -65.30682
24.118592 -6.796563 -66.061287
25.009868 -7.266533 -65.68726
24.415215 -8.646541 -65.30682
24.618023 -10.522751 -64.538384
19.875031 9.991443 -71.898369
20.077598 11.438118 -72.141804
20.607257 8.583794 -71.466377
19.591819 8.484803 -71.606797
19.875031 9.991443 -71.898369
21.916978 10.222095 -71.512199
21.147061 11.655903 -71.945259
22.173569 11.787564 -71.699509
33.594031 -6.657633 -61.503727
33.010519 -8.196013 -61.532337
33.290283 -4.660794 -62.308664
33.594031 -6.657633 -61.503727
32.502561 -4.142259 -63.100932
32.91126 -2.599003 -63.15469
33.290283 -4.660794 -62.308664
30.118002 -9.916945 -62.807335
30.782723 -8.363287 -62.965326
30.98661 -10.341874 -62.165781
29.291694 -9.507442 -63.342605
30.118002 -9.916945 -62.807335
29.495579 -11.486028 -62.54306
27.198687 -11.816037 -63.344723
27.892849 -10.482422 -63.591449
27.975108 -12.410141 -62.831604
26.504308 -13.298656 -62.984279
26.422049 -11.370937 -63.744125
27.198687 -11.816037 -63.344723
26.103686 14.333174 -70.218338
25.051419 14.396248 -70.795547
18.945445 5.474776 -70.876492
19.251224 6.971964 -71.256744
20.018267 5.579968 -70.794552
18.945445 5.474776 -70.876492
18.679108 3.802538 -70.381115
27.127963 14.057665 -69.592747
28.172752 13.757979 -68.869846
26.909668 12.62555 -69.706363
26.103686 14.333174 -70.218338
27.127963 14.057665 -69.592747
33.760649 0.372997 -62.966786
33.342875 -1.130638 -63.102798
33.760649 0.372997 -62.966786
33.354 2.324299 -63.674334
31.343247 9.718839 -66.243496
31.932505 7.863788 -65.621883
30.41444 10.218001 -67.097698
30.697536 11.513362 -66.842865
31.343247 9.718839 -66.243496
23.196952 -6.515083 -66.354343
23.791605 -5.135075 -66.734783
24.118592 -6.796563 -66.061287
22.383303 -6.212735 -66.5937
23.196952 -6.515083 -66.354343
21.50374 -6.077841 -66.760509
21.990403 -4.718701 -67.194649
22.383303 -6.212735 -66.5937
20.748345 -5.99754 -66.859108
21.50374 -6.077841 -66.760509
3 0 48 49
3 0 50 52
3 50 14 51
3 50 51 52
3 1 17 15
3 1 18 17
3 2 21 19
3 2 23 21
3 2 25 23
3 53 28 54
3 55 54 26
3 53 54 55
3 57 56 28
3 58 29 59
3 4 30 13
3 4 31 30
3 5 60 62
3 60 32 61
3 60 61 62
3 5 33 32
3 5 35 33
3 63 36 64
3 67 66 36
3 65 66 67
3 3 68 70
3 68 69 70
3 72 71 16
3 7 73 74
3 7 75 77
3 75 76 77
3 8 78 79
3 8 80 82
3 80 37 81
3 80 81 82
3 9 83 85
3 85 84 20
3 83 84 85
3 9 86 87
3 9 88 90
3 88 38 89
3 88 89 90
3 10 39 22
3 10 40 39
3 10 41 40
3 11 42 24
3 11 43 42
3 6 44 34
3 12 45 27
3 12 46 45
3 12 47 46
3 91 13 92
3 14 93 95
3 93 13 94
3 93 94 95
3 14 4 13
3 96 5 97
3 99 98 5
3 15 16 3
3 17 16 15
3 17 100 102
3 102 101 16
3 100 101 102
3 17 103 104
3 18 105 107
3 107 106 17
3 105 106 107
3 18 108 110
3 108 7 109
3 108 109 110
3 111 8 112
3 19 113 115
3 113 20 114
3 113 114 115
3 21 20 19
3 21 9 20
3 21 22 9
3 23 22 21
3 23 10 22
3 23 24 10
3 25 24 23
3 25 11 24
3 26 27 6
3 28 27 26
3 28 12 27
3 28 116 118
3 118 117 12
3 116 117 118
3 120 119 28
3 29 121 122
3 29 123 125
3 123 3 124
3 123 124 125
3 13 126 128
3 126 29 127
3 126 127 128
3 30 29 13
3 30 3 29
3 30 15 3
3 31 15 30
3 31 1 15
3 32 129 130
3 32 131 132
3 32 133 135
3 133 19 134
3 133 134 135
3 33 19 32
3 33 2 19
3 33 34 2
3 35 34 33
3 35 6 34
3 136 35 137
3 138 137 5
3 136 137 138
3 36 139 141
3 139 35 140
3 139 140 141
3 36 6 35
3 36 26 6
3 142 26 143
3 144 143 36
3 142 143 144
3 147 146 26
3 145 146 147
3 148 0 149
3 16 150 152
3 152 151 3
3 150 151 152
3 154 153 16
3 37 155 156
3 37 157 159
3 157 0 158
3 157 158 159
3 20 160 161
3 163 162 20
3 38 164 165
3 38 166 168
3 166 8 167
3 166 167 168
3 22 38 9
3 39 38 22
3 39 8 38
3 39 37 8
3 40 37 39
3 40 0 37
3 40 14 0
3 41 14 40
3 41 4 14
3 24 41 10
3 42 41 24
3 42 4 41
3 42 31 4
3 43 31 42
3 43 1 31
3 34 25 2
3 44 25 34
3 44 11 25
3 27 44 6
3 45 44 27
3 45 11 44
3 45 43 11
3 46 43 45
3 46 1 43
3 46 18 1
3 47 18 46
3 47 7 18
3 169 47 170
3 171 170 12
3 169 170 171
3 172 47 173
3 174 7 175
3 176 175 47
3 174 175 176
3 178 177 7
