ply
format ascii 1.0
element vertex 111
property float x
property float y
property float z
element face 97
property list uchar int vertex_index
end_header
-23.578011 39.386906 22.603563
-21.216518 49.666595 17.918818
-22.366194 44.364166 20.420612
-22.0868 38.164299 27.425068
-20.934267 43.386276 25.314398
-19.818083 48.673485 22.842939
-24.296034 39.853184 20.21093
-23.644421 42.347988 19.100946
-22.976398 41.791706 21.58036
-22.479349 47.383091 16.677761
-21.971304 49.911903 15.431138
-20.226538 42.811153 27.563253
-19.693636 45.489162 26.324953
-20.399063 46.112186 23.952032
-19.11972 48.123642 25.144903
-23.009825 44.853249 18.004848
-21.71291 47.148453 19.208242
-22.901264 38.781448 24.920216
-20.738852 40.100838 28.773323
-21.566948 40.62722 26.407824
-22.213827 41.340885 24.084423
-21.616917 43.978474 22.920649
-21.061977 46.632187 21.621941
-20.486423 49.24461 20.443571
-23.937022 39.620045 21.407246
-24.621853 38.652687 20.71768
-24.262842 38.419548 21.913997
-21.019837 50.975153 17.133935
-21.39723 51.097807 15.890095
-21.593911 49.789249 16.674978
-19.036282 46.522972 26.847944
-19.288528 45.203556 27.488712
-18.749324 47.840212 26.257919
-19.406678 46.806402 25.734928
-19.036282 46.522972 26.847944
-22.771282 37.133281 26.783791
-22.375166 36.77171 27.964419
-22.494032 38.472873 26.172642
-23.178514 37.441856 25.531365
-22.771282 37.133281 26.783791
-20.102293 41.065445 29.317475
-20.36238 39.596291 29.938311
-24.944295 38.985739 19.514156
-24.621853 38.652687 20.71768
-24.598836 40.198831 18.977263
-24.944295 38.985739 19.514156
-23.970228 41.100586 19.655938
-24.273029 41.446234 18.422272
-24.598836 40.198831 18.977263
-22.822786 47.564499 15.435469
-23.069784 46.324295 16.130216
-22.568764 48.828905 14.812158
-22.822786 47.564499 15.435469
-22.225327 48.647497 16.05445
-22.308971 50.105947 14.205624
-22.568764 48.828905 14.812158
-21.761997 51.224571 14.70173
-22.308971 50.105947 14.205624
-21.761997 51.224571 14.70173
-21.39723 51.097807 15.890095
-21.706162 37.776619 28.573892
-22.375166 36.77171 27.964419
-19.554979 43.864551 28.107862
-19.846136 42.420603 28.71244
-19.960087 44.150157 26.944103
-19.554979 43.864551 28.107862
-19.288528 45.203556 27.488712
-23.964619 42.586906 17.896352
-24.273029 41.446234 18.422272
-23.647321 43.839537 17.348304
-23.964619 42.586906 17.896352
-23.327123 43.600618 18.552897
-23.335022 45.059374 16.79376
-23.647321 43.839537 17.348304
-22.744587 46.11817 17.341304
-23.069784 46.324295 16.130216
-23.335022 45.059374 16.79376
-23.880212 38.141468 23.141711
-24.262842 38.419548 21.913997
-23.541839 37.838739 24.300038
-23.178514 37.441856 25.531365
-23.239638 39.084177 23.76189
-23.880212 38.141468 23.141711
-23.541839 37.838739 24.300038
-21.032187 38.744889 29.248019
-20.36238 39.596291 29.938311
-21.412826 39.132569 28.099196
-21.706162 37.776619 28.573892
-21.032187 38.744889 29.248019
-20.482695 41.455996 28.168288
-20.102293 41.065445 29.317475
-19.846136 42.420603 28.71244
-18.46839 49.176573 25.620812
-18.749324 47.840212 26.257919
-18.832114 49.526918 24.452838
-18.46839 49.176573 25.620812
-19.181296 49.80184 23.301856
-19.468902 48.398563 23.993921
-18.832114 49.526918 24.452838
-19.537926 50.102179 22.114263
-19.181296 49.80184 23.301856
-19.872096 50.387741 20.914578
-20.152253 48.959047 21.643255
-19.537926 50.102179 22.114263
-20.271385 50.582512 19.652933
-19.872096 50.387741 20.914578
-20.636432 50.793504 18.390557
-20.85147 49.455602 19.181195
-20.271385 50.582512 19.652933
-21.019837 50.975153 17.133935
-20.636432 50.793504 18.390557
3 0 24 26
3 24 6 25
3 24 25 26
3 0 8 6
3 1 10 9
3 1 27 29
3 29 28 10
3 27 28 29
3 30 12 31
3 32 14 33
3 34 33 12
3 32 33 34
3 2 15 7
3 2 16 15
3 3 35 36
3 3 37 39
3 37 17 38
3 37 38 39
3 40 18 41
3 4 19 11
3 4 20 19
3 4 21 20
3 5 22 13
3 5 23 22
3 6 42 43
3 6 44 45
3 6 46 48
3 46 7 47
3 46 47 48
3 8 7 6
3 8 2 7
3 9 49 50
3 10 51 53
3 53 52 9
3 51 52 53
3 10 54 55
3 10 56 57
3 59 58 10
3 60 3 61
3 62 11 63
3 12 64 66
3 64 11 65
3 64 65 66
3 12 4 11
3 12 13 4
3 14 13 12
3 14 5 13
3 7 67 68
3 15 69 71
3 71 70 7
3 69 70 71
3 15 72 73
3 15 74 76
3 74 9 75
3 74 75 76
3 16 9 15
3 16 1 9
3 77 0 78
3 17 79 80
3 17 81 83
3 81 0 82
3 81 82 83
3 18 84 85
3 18 86 88
3 86 3 87
3 86 87 88
3 11 89 91
3 89 18 90
3 89 90 91
3 19 18 11
3 19 3 18
3 19 17 3
3 20 17 19
3 20 0 17
3 20 8 0
3 21 8 20
3 21 2 8
3 13 21 4
3 22 21 13
3 22 2 21
3 22 16 2
3 23 16 22
3 23 1 16
3 92 14 93
3 94 14 95
3 96 5 97
3 98 97 14
3 96 97 98
3 99 5 100
3 101 23 102
3 103 102 5
3 101 102 103
3 104 23 105
3 106 1 107
3 108 107 23
3 106 107 108
3 110 109 1
