ply
format ascii 1.0
element vertex 156
property float x
property float y
property float z
element face 137
property list uchar int vertex_index
end_header
-1.063585 -19.281502 -50.507858
3.276666 -12.904658 -58.049446
1.010359 -16.184998 -54.27874
1.570055 -34.047184 -50.684971
3.416296 -25.558735 -54.17783
2.110324 -20.65889 -54.440292
4.820261 -17.243498 -57.919807
5.750049 -9.19916 -61.632618
2.553969 -29.582937 -52.443626
1.894538 -27.229998 -52.526093
-0.687689 -21.315855 -50.789398
2.104189 -14.575431 -56.173569
1.487695 -18.462677 -54.328495
2.724533 -16.728132 -56.225857
3.439029 -19.156656 -56.151154
3.994829 -15.186477 -57.963272
6.617887 -11.627822 -61.270111
-0.047427 -17.916796 -52.328354
1.474319 -12.67296 -55.895691
2.475217 -10.87838 -57.806614
3.319237 -32.153351 -52.267712
4.274629 -27.901854 -54.049484
4.993495 -23.817327 -55.781727
0.441343 -19.838053 -52.652508
0.874867 -22.144991 -52.70406
2.711498 -23.288736 -54.272991
4.232501 -21.392334 -56.069374
5.702363 -19.705376 -57.63929
3.578204 -9.159481 -59.692738
4.749162 -7.263549 -61.558277
4.426479 -11.031843 -59.842384
5.309532 -13.267262 -59.73978
6.282584 -15.681278 -59.488796
1.139929 -28.040296 -51.665501
1.432843 -29.261696 -51.680693
-1.601993 -20.10029 -49.546604
-1.270791 -18.432495 -50.290363
-1.423942 -21.019063 -49.741272
-1.601993 -20.10029 -49.546604
-0.875637 -20.298679 -50.648628
-1.235994 -22.03624 -49.882042
-1.423942 -21.019063 -49.741272
1.648594 -10.959457 -56.67882
1.188772 -11.838646 -55.699772
2.149042 -10.062168 -57.634281
1.974768 -11.77567 -56.851152
1.648594 -10.959457 -56.67882
0.950147 -36.23987 -49.821101
0.730536 -34.87641 -49.909661
1.895091 -35.397588 -50.584356
0.950147 -36.23987 -49.821101
2.444646 -33.100268 -51.476342
2.769681 -34.450672 -51.375727
1.895091 -35.397588 -50.584356
1.725458 -22.728842 -53.521627
1.10773 -23.471893 -52.653511
1.492595 -21.401941 -53.572176
2.410911 -21.973813 -54.356641
2.026045 -24.043765 -53.437976
1.725458 -22.728842 -53.521627
3.730044 -7.309745 -60.541865
3.218946 -8.248499 -59.603896
5.249605 -8.231355 -61.595447
5.347674 -6.468993 -62.365864
5.848117 -7.436798 -62.403034
7.030559 -14.713325 -60.284619
6.450235 -13.65455 -60.379453
7.198211 -12.686597 -61.175276
6.776103 -16.810992 -59.3324
7.030559 -14.713325 -60.284619
1.270601 -32.670289 -50.760132
0.730536 -34.87641 -49.909661
1.762558 -30.438166 -51.63946
2.062012 -31.815061 -51.564298
1.270601 -32.670289 -50.760132
2.224254 -28.406467 -52.484859
1.762558 -30.438166 -51.63946
1.432843 -29.261696 -51.680693
-1.116202 -23.227955 -49.942948
-1.235994 -22.03624 -49.882042
-0.500437 -22.484561 -50.867111
-1.116202 -23.227955 -49.942948
6.400921 -8.482917 -62.360016
5.848117 -7.436798 -62.403034
6.834841 -9.697249 -62.178763
6.183968 -10.413491 -61.451364
6.400921 -8.482917 -62.360016
7.412951 -10.800297 -62.047731
6.834841 -9.697249 -62.178763
7.198211 -12.686597 -61.175276
7.412951 -10.800297 -62.047731
-0.772274 -17.568535 -51.270037
-1.270791 -18.432495 -50.290363
-0.264195 -16.886183 -52.180284
-0.555506 -18.599149 -51.418106
-0.772274 -17.568535 -51.270037
0.225529 -16.139032 -53.144729
-0.264195 -16.886183 -52.180284
0.754422 -15.273134 -54.119923
0.481466 -17.050897 -53.303547
0.225529 -16.139032 -53.144729
0.986402 -13.517114 -54.928398
1.188772 -11.838646 -55.699772
1.242339 -14.428979 -55.087215
0.754422 -15.273134 -54.119923
0.986402 -13.517114 -54.928398
3.71218 -33.471506 -52.132374
2.769681 -34.450672 -51.375727
4.208074 -31.366485 -52.983498
3.71218 -33.471506 -52.132374
4.68577 -29.240737 -53.874384
4.208074 -31.366485 -52.983498
3.796933 -30.027603 -53.158598
5.09936 -27.027335 -54.789545
4.68577 -29.240737 -53.874384
5.458794 -24.985072 -55.655666
5.09936 -27.027335 -54.789545
4.634062 -25.85959 -54.915605
5.863392 -22.865285 -56.599512
6.32869 -24.03303 -56.473451
5.458794 -24.985072 -55.655666
0.064079 -21.74566 -51.798666
-0.500437 -22.484561 -50.867111
-0.123173 -20.576954 -51.720953
0.280841 -22.899129 -51.824442
0.064079 -21.74566 -51.798666
0.658105 -20.991522 -52.678284
0.449217 -24.182609 -51.811014
0.280841 -22.899129 -51.824442
0.449217 -24.182609 -51.811014
1.10773 -23.471893 -52.653511
1.617565 -26.014396 -52.564527
1.139929 -28.040296 -51.665501
2.303018 -25.259367 -53.399542
1.617565 -26.014396 -52.564527
2.026045 -24.043765 -53.437976
6.217826 -20.80931 -57.528294
5.863392 -22.865285 -56.599512
5.347929 -21.761351 -56.710509
2.667452 -9.107948 -58.660834
2.149042 -10.062168 -57.634281
3.026711 -10.01893 -58.749676
2.667452 -9.107948 -58.660834
3.218946 -8.248499 -59.603896
4.881096 -5.525494 -62.3515
5.347674 -6.468993 -62.365864
4.315523 -6.361779 -61.474634
4.881096 -5.525494 -62.3515
4.163683 -8.211515 -60.625507
3.730044 -7.309745 -60.541865
4.315523 -6.361779 -61.474634
6.485993 -18.823041 -58.407646
5.992474 -17.693327 -58.564043
6.776103 -16.810992 -59.3324
6.217826 -20.80931 -57.528294
6.485993 -18.823041 -58.407646
3 33 9 34
3 0 35 36
3 0 37 38
3 0 39 41
3 39 10 40
3 39 40 41
3 1 13 11
3 1 15 13
3 42 18 43
3 44 19 45
3 46 45 18
3 44 45 46
3 3 47 48
3 3 49 50
3 3 51 53
3 51 20 52
3 51 52 53
3 4 21 8
3 4 22 21
3 2 23 17
3 5 24 12
3 5 54 56
3 56 55 24
3 54 55 56
3 5 57 59
3 57 25 58
3 57 58 59
3 6 26 14
3 6 27 26
3 60 28 61
3 7 62 64
3 62 29 63
3 62 63 64
3 7 30 29
3 7 31 30
3 65 32 66
3 67 66 16
3 65 66 67
3 69 68 32
3 70 3 71
3 72 8 73
3 74 73 3
3 72 73 74
3 9 75 77
3 75 8 76
3 75 76 77
3 9 4 8
3 10 78 79
3 10 80 81
3 11 12 2
3 13 12 11
3 13 5 12
3 13 14 5
3 15 14 13
3 15 6 14
3 82 7 83
3 84 16 85
3 86 85 7
3 84 85 86
3 87 16 88
3 90 89 16
3 91 0 92
3 93 17 94
3 95 94 0
3 93 94 95
3 96 17 97
3 98 2 99
3 100 99 17
3 98 99 100
3 18 101 102
3 18 103 105
3 103 2 104
3 103 104 105
3 18 11 2
3 19 11 18
3 19 1 11
3 20 106 107
3 20 108 109
3 8 20 3
3 21 20 8
3 21 110 112
3 112 111 20
3 110 111 112
3 21 113 114
3 22 115 117
3 117 116 21
3 115 116 117
3 22 118 120
3 118 119 120
3 17 10 0
3 23 10 17
3 23 121 123
3 123 122 10
3 121 122 123
3 12 23 2
3 24 23 12
3 24 124 126
3 126 125 23
3 124 125 126
3 24 127 128
3 130 129 24
3 131 9 132
3 25 133 135
3 133 9 134
3 133 134 135
3 25 4 9
3 14 25 5
3 26 25 14
3 26 4 25
3 26 22 4
3 27 22 26
3 27 136 138
3 138 137 22
3 136 137 138
3 139 19 140
3 28 141 143
3 141 19 142
3 141 142 143
3 28 1 19
3 29 144 145
3 29 146 147
3 29 148 150
3 148 28 149
3 148 149 150
3 30 28 29
3 30 1 28
3 30 15 1
3 31 15 30
3 31 6 15
3 16 31 7
3 32 31 16
3 32 6 31
3 32 27 6
3 151 27 152
3 153 152 32
3 151 152 153
3 155 154 27
