ply
format ascii 1.0
element vertex 81
property float x
property float y
property float z
element face 64
property list uchar int vertex_index
end_header
-14.560674 57.515198 -52.515133
-18.054266 57.040169 -52.658085
-17.41732 63.821037 -52.496895
-16.463722 57.499294 -52.629559
-15.060726 54.326794 -52.605286
-12.703854 58.076931 -52.308228
-13.120691 54.46204 -52.497578
-19.387884 59.997948 -52.63105
-17.786699 60.42408 -52.627686
-15.93224 60.771633 -52.522594
-16.816013 67.202805 -52.257717
-15.50826 64.194756 -52.328018
-14.092633 61.208294 -52.322781
-11.993665 56.371223 -52.316769
-11.753415 58.103026 -52.172883
-20.035367 61.244955 -52.569617
-20.040827 59.627673 -52.588527
-17.60201 62.122558 -52.562291
-18.495742 61.972605 -52.587727
-18.311053 63.671083 -52.522331
-16.406352 69.057659 -52.050394
-17.411767 68.767235 -52.161897
-14.462716 64.456921 -52.170609
-15.15036 65.973431 -52.15843
-13.754903 62.96369 -52.16799
-14.800446 62.701525 -52.3254
-14.462716 64.456921 -52.170609
-13.099598 61.279568 -52.177189
-13.754903 62.96369 -52.16799
-18.204344 55.536332 -52.622359
-18.791142 56.949616 -52.633156
-13.360305 52.817873 -52.54883
-12.473703 52.767054 -52.523953
-18.081854 65.386383 -52.431359
-18.311053 63.671083 -52.522331
-16.599934 55.855972 -52.631085
-17.395207 55.626409 -52.645347
-17.258994 57.269731 -52.643822
-15.898436 54.269722 -52.618948
-16.599934 55.855972 -52.631085
-15.762224 55.913044 -52.617423
-15.181759 52.714859 -52.60472
-15.898436 54.269722 -52.618948
-12.202084 54.563778 -52.411444
-12.912273 56.269486 -52.402903
-11.993665 56.371223 -52.316769
-12.473703 52.767054 -52.523953
-12.202084 54.563778 -52.411444
-19.457952 58.428505 -52.619639
-20.110894 58.058229 -52.577116
-20.040827 59.627673 -52.588527
-18.721075 58.519058 -52.644568
-18.791142 56.949616 -52.633156
-19.457952 58.428505 -52.619639
-19.296335 61.759539 -52.589409
-20.035367 61.244955 -52.569617
-18.587291 60.211014 -52.629368
-19.296335 61.759539 -52.589409
-18.495742 61.972605 -52.587727
-17.7812 67.077267 -52.311769
-17.411767 68.767235 -52.161897
-17.116667 65.511921 -52.377306
-18.081854 65.386383 -52.431359
-17.7812 67.077267 -52.311769
-15.804237 67.477455 -52.123279
-16.406352 69.057659 -52.050394
-16.162137 65.69878 -52.292867
-15.804237 67.477455 -52.123279
-15.15036 65.973431 -52.15843
-12.405209 59.713887 -52.169912
-13.398243 59.642612 -52.315505
-13.099598 61.279568 -52.177189
-11.753415 58.103026 -52.172883
-12.405209 59.713887 -52.169912
-18.204344 55.536332 -52.622359
-17.395207 55.626409 -52.645347
-14.330322 52.75025 -52.602684
-14.090709 54.394417 -52.551432
-13.360305 52.817873 -52.54883
-15.181759 52.714859 -52.60472
-14.330322 52.75025 -52.602684
3 0 4 3
3 14 13 5
3 15 7 16
3 2 17 19
3 17 8 18
3 17 18 19
3 2 9 8
3 20 10 21
3 22 11 23
3 24 12 25
3 26 25 11
3 24 25 26
3 28 27 12
3 1 29 30
3 32 31 6
3 33 2 34
3 3 35 37
3 37 36 1
3 35 36 37
3 4 38 40
3 40 39 3
3 38 39 40
3 4 41 42
3 5 6 0
3 43 6 44
3 45 44 5
3 43 44 45
3 47 46 6
3 7 48 50
3 48 49 50
3 7 51 53
3 51 1 52
3 51 52 53
3 54 7 55
3 8 56 58
3 56 7 57
3 56 57 58
3 8 1 7
3 8 3 1
3 9 3 8
3 9 0 3
3 10 59 60
3 10 61 63
3 61 2 62
3 61 62 63
3 64 10 65
3 11 66 68
3 66 10 67
3 66 67 68
3 11 2 10
3 11 9 2
3 12 9 11
3 12 0 9
3 12 5 0
3 69 5 70
3 71 70 12
3 69 70 71
3 73 72 5
3 75 74 1
3 6 4 0
3 76 4 77
3 78 77 6
3 76 77 78
3 80 79 4
