ply
format ascii 1.0
element vertex 225
property float x
property float y
property float z
element face 227
property list uchar int vertex_index
end_header
26.94492 -89.023651 2.690539
18.45204 -103.946091 -3.958584
24.839863 -90.451897 12.027068
24.624594 -98.461449 0.070719
27.058867 -92.673782 -2.755681
19.342726 -100.674713 2.303876
22.517044 -98.1614 4.345421
22.052872 -101.780922 -1.9054
24.234276 -101.702904 -6.162905
21.167955 -104.700188 -8.145055
17.028271 -106.424858 -10.203042
26.197439 -90.235931 7.300366
22.797338 -94.163254 10.352521
24.825815 -94.490349 6.169168
26.295786 -94.003693 1.615647
26.165855 -97.614792 -4.314251
26.979176 -86.425385 3.107061
26.948692 -85.56031 0.765136
27.064224 -88.328064 0.404296
27.139688 -90.079353 -2.124676
27.002197 -90.998825 0.08448
18.827227 -102.407028 -0.798046
20.710011 -101.384636 0.22722
20.254152 -102.991234 -2.767775
21.687775 -103.301338 -4.961048
19.922195 -104.413567 -5.92662
19.287006 -105.742355 -9.257984
17.887228 -105.275253 -7.047871
25.619164 -88.504021 12.21826
26.165749 -88.18544 10.098989
25.588608 -90.421188 9.72554
21.35597 -95.621384 9.57072
23.675303 -98.375435 2.264613
23.783443 -96.4776 5.264622
24.786219 -96.543587 3.036191
25.623032 -94.418198 3.889304
25.571447 -96.328346 1.015232
26.247904 -95.871208 -1.175417
25.536695 -97.980087 -1.934592
23.734009 -103.188828 -9.287918
25.043999 -101.222252 -8.113061
19.646313 -98.727646 5.568547
21.269693 -97.695778 6.33554
20.993364 -99.488152 3.509475
22.242458 -100.095047 1.229018
23.508297 -100.172668 -0.812577
24.54723 -100.052689 -3.000256
23.286032 -101.731056 -3.791811
22.904221 -103.242096 -6.956967
22.284239 -104.642845 -10.274902
20.497671 -105.875801 -11.390107
18.386219 -106.750832 -12.320333
16.066742 -107.24939 -13.173309
26.856319 -87.173943 5.484096
26.580589 -87.690048 7.879776
26.67536 -89.537048 5.064516
23.926449 -92.357704 11.296082
22.647263 -96.104546 7.538077
23.858953 -94.444489 8.312241
24.884535 -92.426865 9.075903
25.621599 -92.342545 6.943536
26.251787 -92.114899 4.535643
26.720304 -91.531868 2.365491
26.74749 -93.399796 -0.384517
26.733213 -95.1558 -3.282437
26.637119 -96.874474 -6.46164
25.299795 -99.779839 -5.046141
25.965693 -99.175934 -7.179214
25.229514 -89.477959 12.122664
25.275973 -88.448933 13.463069
24.886323 -89.422871 13.367472
20.58593 -96.227265 9.067686
20.696486 -95.193226 10.623488
24.137757 -102.918339 -10.331778
23.438102 -103.777611 -10.903986
26.87139 -85.050488 -0.236297
26.987799 -86.378246 -0.480083
27.123638 -92.243404 -3.886704
27.164048 -90.94619 -3.571201
27.099277 -91.376567 -2.440179
27.042988 -93.547451 -4.183205
27.123638 -92.243404 -3.886704
26.833514 -86.114735 6.792221
26.885483 -85.831421 5.649837
22.800004 -93.185154 11.817138
22.177247 -93.920952 11.366728
23.361894 -93.260479 10.824302
23.364559 -92.282379 12.288919
22.800004 -93.185154 11.817138
25.81577 -99.867065 -8.66674
25.504846 -100.199093 -7.646138
25.354923 -100.890225 -9.133664
26.210811 -98.728897 -8.21871
25.81577 -99.867065 -8.66674
26.963934 -85.992848 1.936098
26.92369 -84.710468 2.089969
26.938932 -85.143006 3.260931
27.045564 -87.762123 -0.660503
26.987799 -86.378246 -0.480083
27.006458 -86.944187 0.584716
27.101956 -89.203709 -0.86019
27.083296 -88.637767 -1.924989
27.045564 -87.762123 -0.660503
25.640406 -87.409726 13.685137
25.275973 -88.448933 13.463069
25.898873 -87.287789 12.494672
25.640406 -87.409726 13.685137
25.892457 -88.34473 11.158625
26.172165 -87.128498 11.435036
25.898873 -87.287789 12.494672
21.456563 -94.650017 10.975827
20.696486 -95.193226 10.623488
22.076654 -94.892319 9.96162
22.177247 -93.920952 11.366728
21.456563 -94.650017 10.975827
24.792752 -101.935051 -9.74435
24.389004 -102.20554 -8.700489
24.137757 -102.918339 -10.331778
25.354923 -100.890225 -9.133664
24.792752 -101.935051 -9.74435
26.839399 -84.153225 0.958333
26.92369 -84.710468 2.089969
26.839399 -84.153225 0.958333
26.87139 -85.050488 -0.236297
27.132996 -89.593425 -3.215607
27.083296 -88.637767 -1.924989
27.132996 -89.593425 -3.215607
27.164048 -90.94619 -3.571201
24.384077 -90.424839 13.099421
24.886323 -89.422871 13.367472
20.458003 -98.211712 5.952044
20.542792 -97.264462 7.450096
19.731102 -97.780395 7.0666
22.713217 -104.504619 -11.397479
23.438102 -103.777611 -10.903986
23.009124 -103.915836 -9.78141
21.853534 -105.207668 -11.925937
22.713217 -104.504619 -11.397479
20.96025 -105.824146 -12.483539
21.853534 -105.207668 -11.925937
21.390955 -105.259323 -10.832505
19.997253 -106.337215 -12.980011
20.96025 -105.824146 -12.483539
18.941527 -106.774731 -13.445124
19.997253 -106.337215 -12.980011
19.441945 -106.313316 -11.85522
17.848356 -107.109616 -13.859176
18.941527 -106.774731 -13.445124
16.688617 -107.358895 -14.285664
17.848356 -107.109616 -13.859176
17.226481 -107.000111 -12.746821
15.504356 -107.516625 -14.659003
16.688617 -107.358895 -14.285664
26.946911 -85.457142 4.461319
26.938932 -85.143006 3.260931
26.917747 -86.799664 4.295578
26.946911 -85.457142 4.461319
26.885483 -85.831421 5.649837
18.901815 -98.327446 6.412643
19.731102 -97.780395 7.0666
18.7303 -99.210106 4.969682
18.901815 -98.327446 6.412643
18.578506 -100.183639 3.337346
19.494519 -99.701179 3.936211
18.7303 -99.210106 4.969682
18.403702 -101.031857 1.860154
18.578506 -100.183639 3.337346
18.145952 -101.898014 0.309193
19.084976 -101.54087 0.752915
18.403702 -101.031857 1.860154
17.929765 -102.748535 -1.318762
18.145952 -101.898014 0.309193
17.742171 -103.518067 -2.899031
18.639634 -103.176559 -2.378315
17.929765 -102.748535 -1.318762
17.43691 -104.260765 -4.498517
17.742171 -103.518067 -2.899031
26.363217 -86.960186 10.231012
26.172165 -87.128498 11.435036
26.570636 -86.71249 9.121405
26.363217 -86.960186 10.231012
26.373169 -87.937744 8.989382
26.695649 -86.372788 7.990061
26.570636 -86.71249 9.121405
26.718454 -87.431995 6.681936
26.833514 -86.114735 6.792221
26.695649 -86.372788 7.990061
23.92737 -91.377742 12.733928
23.364559 -92.282379 12.288919
24.383156 -91.4048 11.661575
24.384077 -90.424839 13.099421
23.92737 -91.377742 12.733928
21.312832 -96.658581 7.95313
20.58593 -96.227265 9.067686
20.542792 -97.264462 7.450096
26.880161 -94.78846 -4.446583
27.042988 -93.547451 -4.183205
26.89604 -93.914791 -3.019059
26.832114 -95.647797 -6.036185
26.880161 -94.78846 -4.446583
26.685166 -96.015137 -4.872039
26.785717 -96.363873 -7.427323
26.832114 -95.647797 -6.036185
26.546524 -97.578167 -7.859923
26.301406 -98.025204 -6.820427
26.210811 -98.728897 -8.21871
26.785717 -96.363873 -7.427323
26.546524 -97.578167 -7.859923
17.154504 -104.925346 -6.04316
18.169634 -104.610672 -5.503227
17.43691 -104.260765 -4.498517
16.77903 -105.536751 -7.585439
17.154504 -104.925346 -6.04316
16.349552 -106.111553 -9.163024
17.457749 -105.850055 -8.625457
16.77903 -105.536751 -7.585439
15.863534 -106.579685 -10.64541
16.349552 -106.111553 -9.163024
15.38277 -106.991951 -12.130543
16.547507 -106.837124 -11.688175
15.863534 -106.579685 -10.64541
14.80669 -107.319432 -13.584809
15.38277 -106.991951 -12.130543
15.504356 -107.516625 -14.659003
14.80669 -107.319432 -13.584809
3 0 18 16
3 0 20 18
3 1 23 21
3 1 25 23
3 1 27 25
3 2 68 70
3 68 28 69
3 68 69 70
3 2 30 28
3 71 31 72
3 3 34 32
3 3 36 34
3 3 38 36
3 74 73 39
3 76 75 17
3 4 77 79
3 79 78 19
3 77 78 79
3 4 80 81
3 5 43 41
3 7 44 22
3 7 45 44
3 7 47 45
3 9 48 24
3 9 49 48
3 9 50 49
3 10 51 26
3 10 52 51
3 82 53 83
3 11 54 29
3 11 55 54
3 12 84 85
3 12 86 88
3 86 56 87
3 86 87 88
3 6 57 42
3 13 58 33
3 13 59 58
3 13 60 59
3 14 61 35
3 14 62 61
3 14 63 62
3 15 64 37
3 15 65 64
3 8 66 46
3 89 67 90
3 91 90 40
3 89 90 91
3 93 92 67
3 16 94 96
3 94 17 95
3 94 95 96
3 18 17 16
3 18 97 99
3 99 98 17
3 97 98 99
3 18 100 102
3 100 19 101
3 100 101 102
3 20 19 18
3 20 4 19
3 21 22 5
3 23 22 21
3 23 7 22
3 23 24 7
3 25 24 23
3 25 9 24
3 25 26 9
3 27 26 25
3 27 10 26
3 28 103 104
3 28 105 106
3 28 107 109
3 107 29 108
3 107 108 109
3 30 29 28
3 30 11 29
3 31 110 111
3 31 112 114
3 112 12 113
3 112 113 114
3 32 33 6
3 34 33 32
3 34 13 33
3 34 35 13
3 36 35 34
3 36 14 35
3 36 37 14
3 38 37 36
3 38 15 37
3 39 40 8
3 115 40 116
3 117 116 39
3 115 116 117
3 119 118 40
3 17 120 121
3 123 122 17
3 19 124 125
3 127 126 19
3 128 2 129
3 41 130 132
3 130 42 131
3 130 131 132
3 43 42 41
3 43 6 42
3 22 43 5
3 44 43 22
3 44 6 43
3 44 32 6
3 45 32 44
3 45 3 32
3 45 46 3
3 47 46 45
3 47 8 46
3 24 47 7
3 48 47 24
3 48 8 47
3 48 39 8
3 49 39 48
3 49 133 135
3 135 134 39
3 133 134 135
3 49 136 137
3 50 138 140
3 140 139 49
3 138 139 140
3 50 141 142
3 26 50 9
3 51 50 26
3 51 143 145
3 145 144 50
3 143 144 145
3 51 146 147
3 52 148 150
3 150 149 51
3 148 149 150
3 52 151 152
3 153 16 154
3 53 155 157
3 155 16 156
3 155 156 157
3 53 0 16
3 158 41 159
3 160 41 161
3 162 5 163
3 164 163 41
3 162 163 164
3 165 5 166
3 167 21 168
3 169 168 5
3 167 168 169
3 170 21 171
3 172 1 173
3 174 173 21
3 172 173 174
3 176 175 1
3 29 177 178
3 54 179 181
3 181 180 29
3 179 180 181
3 54 182 183
3 54 184 186
3 184 53 185
3 184 185 186
3 55 53 54
3 55 0 53
3 56 187 188
3 56 189 191
3 189 2 190
3 189 190 191
3 42 192 194
3 192 31 193
3 192 193 194
3 57 31 42
3 57 12 31
3 33 57 6
3 58 57 33
3 58 12 57
3 58 56 12
3 59 56 58
3 59 2 56
3 59 30 2
3 60 30 59
3 60 11 30
3 35 60 13
3 61 60 35
3 61 11 60
3 61 55 11
3 62 55 61
3 62 0 55
3 62 20 0
3 63 20 62
3 63 4 20
3 37 63 14
3 64 63 37
3 64 4 63
3 64 195 197
3 197 196 4
3 195 196 197
3 65 198 200
3 200 199 64
3 198 199 200
3 65 201 202
3 46 38 3
3 66 38 46
3 66 15 38
3 40 66 8
3 67 66 40
3 67 15 66
3 67 65 15
3 203 65 204
3 205 204 67
3 203 204 205
3 207 206 65
3 208 27 209
3 210 209 1
3 208 209 210
3 211 27 212
3 213 10 214
3 215 214 27
3 213 214 215
3 216 10 217
3 218 52 219
3 220 219 10
3 218 219 220
3 221 52 222
3 224 223 52
