ply
format ascii 1.0
element vertex 191
property float x
property float y
property float z
element face 176
property list uchar int vertex_index
end_header
14.160055 34.945221 -62.1563
6.652677 33.162342 -63.365078
13.170174 32.682095 -66.374016
10.324112 34.595055 -63.22625
9.363743 31.342848 -66.810081
5.876871 29.188263 -66.081619
14.703304 36.343483 -57.331875
11.215096 36.88549 -59.112465
7.717324 36.479256 -59.964401
4.33689 34.947739 -60.201073
3.503626 30.835701 -62.701019
11.228525 32.109867 -66.763069
8.933672 29.466097 -68.180473
7.037131 39.107323 -56.521713
14.374416 35.766014 -59.811626
12.931535 36.724903 -58.412979
12.612229 35.82621 -60.842857
8.468931 33.829262 -63.63483
8.966242 35.450104 -61.667107
7.280224 34.849251 -61.865929
6.070855 35.849709 -60.202492
5.471135 33.989834 -61.774342
3.887911 32.903316 -61.568604
5.090261 31.990429 -63.27515
13.635941 33.973907 -64.328018
12.138146 34.898861 -62.840172
11.663157 33.612778 -64.915573
9.751546 33.069759 -65.113197
7.942637 32.1633 -65.198753
6.309108 31.190796 -64.934319
7.536217 30.260632 -66.641418
14.741143 31.732271 -67.576225
11.635878 37.799961 -56.795284
9.863041 37.986641 -57.495743
10.75631 35.847855 -61.213875
9.431326 36.819286 -59.613049
8.178365 37.905441 -58.015503
6.467839 37.574013 -58.365643
4.75338 36.890324 -58.64267
2.787381 34.07991 -59.875027
2.36236 31.878521 -60.966568
2.059709 29.705238 -61.887184
4.640653 29.881056 -64.444366
3.054019 28.526157 -63.589901
1.801364 27.241745 -62.712559
7.879333 39.136103 -56.251386
7.310562 39.783343 -55.576813
7.809527 27.973197 -68.403435
8.024628 28.925362 -67.920208
8.718571 28.513933 -68.6637
15.607073 31.126404 -68.136451
15.807582 31.792462 -67.250534
16.673513 31.186595 -67.810761
14.630119 30.900905 -68.453273
15.607073 31.126404 -68.136451
14.063166 36.833603 -56.637569
14.869979 36.534284 -55.962986
3.756755 35.624872 -59.341811
3.965 36.596165 -58.562609
4.545135 35.919032 -59.421872
3.562136 34.513824 -60.03805
2.982 35.190958 -59.178787
3.756755 35.624872 -59.341811
2.94748 27.411211 -63.98044
3.662009 28.114587 -64.479109
2.321152 26.769005 -63.541769
2.427691 27.883951 -63.15123
2.94748 27.411211 -63.98044
1.724086 25.944056 -63.05093
2.321152 26.769005 -63.541769
12.024078 31.607834 -67.486542
12.19935 32.395981 -66.568543
12.994903 31.893948 -67.292015
11.000211 31.258373 -67.537723
12.024078 31.607834 -67.486542
10.06782 30.874863 -67.561229
10.296134 31.726357 -66.786575
11.000211 31.258373 -67.537723
9.852784 29.936487 -68.246426
9.148708 30.404473 -67.495277
10.06782 30.874863 -67.561229
9.701221 29.009664 -68.890972
9.852784 29.936487 -68.246426
9.48612 28.0575 -69.374199
8.718571 28.513933 -68.6637
9.701221 29.009664 -68.890972
6.471909 39.796547 -55.827252
7.310562 39.783343 -55.576813
6.194353 38.94006 -56.724039
6.471909 39.796547 -55.827252
5.073436 28.445639 -65.724968
5.706181 28.131127 -66.544899
7.3259 29.322629 -67.15068
8.234944 29.863365 -67.410945
8.024628 28.925362 -67.920208
6.496227 28.786445 -66.870781
6.706544 29.724448 -66.361519
7.3259 29.322629 -67.15068
5.706181 28.131127 -66.544899
6.496227 28.786445 -66.870781
15.598657 35.984829 -56.767818
14.869979 36.534284 -55.962986
15.765332 36.17563 -55.398929
15.469317 35.823494 -58.086579
15.598657 35.984829 -56.767818
15.304873 35.534759 -59.326454
14.53886 36.054749 -58.57175
15.469317 35.823494 -58.086579
15.164409 35.282186 -60.495103
15.304873 35.534759 -59.326454
15.057229 34.87179 -61.66744
14.267235 35.355617 -60.983963
15.164409 35.282186 -60.495103
14.932933 34.453224 -62.880714
15.057229 34.87179 -61.66744
14.670876 33.967567 -63.966573
13.897998 34.459564 -63.242159
14.932933 34.453224 -62.880714
14.47728 33.451946 -65.045586
14.670876 33.967567 -63.966573
14.244397 32.80604 -66.068585
13.403057 33.328001 -65.351017
14.47728 33.451946 -65.045586
15.029881 32.331128 -66.669689
15.807582 31.792462 -67.250534
13.955658 32.207183 -66.975121
14.244397 32.80604 -66.068585
15.029881 32.331128 -66.669689
13.780387 31.419036 -67.893119
12.994903 31.893948 -67.292015
13.955658 32.207183 -66.975121
13.780387 31.419036 -67.893119
14.630119 30.900905 -68.453273
13.177282 37.024313 -57.178122
14.063166 36.833603 -56.637569
13.817419 36.534193 -57.872427
12.529453 37.561842 -56.369274
13.177282 37.024313 -57.178122
12.283707 37.262432 -57.604132
11.831169 38.160562 -55.642532
12.529453 37.561842 -56.369274
11.018043 38.394249 -56.020842
11.831169 38.160562 -55.642532
10.131625 38.487589 -56.371071
11.018043 38.394249 -56.020842
10.74946 37.893301 -57.145513
9.292288 38.575762 -56.738401
10.131625 38.487589 -56.371071
8.449949 38.535162 -56.998282
9.292288 38.575762 -56.738401
9.020703 37.946041 -57.755623
7.607748 38.506382 -57.268608
7.879333 39.136103 -56.251386
8.449949 38.535162 -56.998282
5.909707 38.173405 -57.646004
6.194353 38.94006 -56.724039
6.752485 38.340668 -57.443678
5.052478 37.83156 -57.784517
5.909707 38.173405 -57.646004
5.610609 37.232169 -58.504157
4.217268 37.628172 -57.838059
5.052478 37.83156 -57.784517
4.217268 37.628172 -57.838059
3.965 36.596165 -58.562609
2.220959 34.717928 -59.096975
2.982 35.190958 -59.178787
2.042314 33.522869 -59.657347
2.220959 34.717928 -59.096975
1.829804 32.422174 -60.203118
2.042314 33.522869 -59.657347
2.57487 32.979215 -60.420798
1.620304 31.265088 -60.595182
1.829804 32.422174 -60.203118
1.468979 30.178446 -61.05549
1.620304 31.265088 -60.595182
2.211034 30.79188 -61.426876
1.425254 28.942323 -61.519621
1.468979 30.178446 -61.05549
4.455326 28.792036 -64.906341
5.258762 29.53466 -65.262992
5.073436 28.445639 -65.724968
3.847336 29.203606 -64.017133
4.455326 28.792036 -64.906341
3.662009 28.114587 -64.479109
1.296082 27.710576 -61.932308
1.425254 28.942323 -61.519621
1.930536 28.473492 -62.299871
1.197124 26.419632 -62.22665
1.296082 27.710576 -61.932308
1.197124 26.419632 -62.22665
1.724086 25.944056 -63.05093
3 45 13 46
3 0 16 14
3 1 19 17
3 1 21 19
3 1 23 21
3 2 26 24
3 4 27 11
3 4 28 27
3 4 30 28
3 49 48 12
3 47 48 49
3 50 31 51
3 50 51 52
3 54 53 31
3 6 55 56
3 7 32 15
3 7 33 32
3 3 34 25
3 8 35 18
3 8 36 35
3 8 37 36
3 9 38 20
3 9 57 59
3 59 58 38
3 57 58 59
3 9 60 62
3 60 39 61
3 60 61 62
3 10 40 22
3 10 41 40
3 5 42 29
3 63 43 64
3 65 44 66
3 67 66 43
3 65 66 67
3 69 68 44
3 70 11 71
3 72 71 2
3 70 71 72
3 73 11 74
3 75 4 76
3 77 76 11
3 75 76 77
3 78 12 79
3 80 79 4
3 78 79 80
3 81 12 82
3 85 84 12
3 83 84 85
3 13 86 87
3 13 88 89
3 14 15 6
3 16 15 14
3 16 7 15
3 17 18 3
3 19 18 17
3 19 8 18
3 19 20 8
3 21 20 19
3 21 9 20
3 21 22 9
3 23 22 21
3 23 10 22
3 91 90 5
3 24 25 0
3 26 25 24
3 26 3 25
3 11 26 2
3 27 26 11
3 27 3 26
3 27 17 3
3 28 17 27
3 28 1 17
3 28 29 1
3 30 29 28
3 30 5 29
3 12 30 4
3 92 30 93
3 94 93 12
3 92 93 94
3 95 5 96
3 97 96 30
3 95 96 97
3 99 98 5
3 100 6 101
3 100 101 102
3 103 6 104
3 105 14 106
3 107 106 6
3 105 106 107
3 108 14 109
3 110 0 111
3 112 111 14
3 110 111 112
3 113 0 114
3 115 24 116
3 117 116 0
3 115 116 117
3 118 24 119
3 120 2 121
3 122 121 24
3 120 121 122
3 31 123 124
3 31 125 127
3 125 2 126
3 125 126 127
3 31 128 130
3 130 129 2
3 128 129 130
3 132 131 31
3 15 133 135
3 135 134 6
3 133 134 135
3 32 136 138
3 138 137 15
3 136 137 138
3 32 139 140
3 32 141 142
3 33 143 145
3 145 144 32
3 143 144 145
3 33 146 147
3 25 16 0
3 34 16 25
3 34 7 16
3 18 34 3
3 35 34 18
3 35 7 34
3 35 33 7
3 36 33 35
3 36 148 150
3 150 149 33
3 148 149 150
3 36 151 153
3 151 13 152
3 151 152 153
3 37 13 36
3 37 154 156
3 156 155 13
3 154 155 156
3 20 37 8
3 38 37 20
3 38 157 159
3 159 158 37
3 157 158 159
3 38 160 161
3 163 162 38
3 39 164 165
3 39 166 167
3 22 39 9
3 40 39 22
3 40 168 170
3 170 169 39
3 168 169 170
3 40 171 172
3 41 173 175
3 175 174 40
3 173 174 175
3 41 176 177
3 29 23 1
3 42 23 29
3 42 10 23
3 178 42 179
3 180 179 5
3 178 179 180
3 43 181 183
3 181 42 182
3 181 182 183
3 43 10 42
3 43 41 10
3 44 41 43
3 44 184 186
3 186 185 41
3 184 185 186
3 44 187 188
3 190 189 44
