ply
format ascii 1.0
element vertex 289
property float x
property float y
property float z
element face 299
property list uchar int vertex_index
end_header
-23.801796 -75.73098 -24.93902
-26.910576 -64.305252 -8.372621
-22.269123 -74.375648 -6.571964
-16.699186 -87.438637 -24.742283
-20.49402 -80.815392 -15.950026
-26.16873 -69.683281 -16.480824
-18.692022 -82.819153 -11.386282
-24.687418 -69.210152 -7.316487
-24.212572 -72.123886 -11.593782
-26.578667 -66.990463 -12.278324
-28.738447 -64.17382 -17.287855
-29.037773 -61.590431 -13.45422
-20.419228 -81.585022 -24.612211
-17.735985 -84.950386 -28.597164
-21.546309 -78.879913 -28.829062
-19.734228 -79.358368 -6.266637
-18.990723 -84.002075 -20.336899
-22.270189 -78.361687 -20.566206
-21.576744 -77.507957 -11.250175
-23.466471 -75.225166 -16.048143
-25.286636 -72.691429 -20.801014
-28.115068 -66.955353 -21.320532
-14.472732 -88.062889 -31.839426
-25.824518 -66.69178 -7.78218
-25.572514 -68.256645 -9.837978
-26.767792 -65.634895 -10.377374
-27.874857 -64.123062 -12.791249
-27.957811 -62.919647 -10.810432
-22.061691 -78.789375 -24.89603
-20.983366 -80.336464 -26.762617
-22.836901 -77.193268 -26.902905
-18.95899 -83.458916 -15.939848
-18.098349 -85.250694 -18.31801
-19.756573 -82.496338 -18.181595
-20.609509 -81.291611 -20.531338
-21.376698 -79.673676 -18.294071
-21.084185 -76.838303 -6.55312
-20.664371 -78.467346 -8.809135
-22.019423 -75.788574 -8.906476
-25.140789 -71.032036 -14.042127
-23.860895 -73.76413 -13.959987
-24.808214 -72.492218 -16.137518
-24.398344 -73.952454 -18.342054
-25.74135 -71.234505 -18.450218
-26.673094 -69.918694 -20.954063
-27.111065 -68.483971 -19.006399
-15.464643 -88.898247 -26.535988
-18.171942 -83.524422 -30.48822
-16.11002 -86.623817 -30.317049
-18.090738 -84.436279 -13.826784
-19.556377 -81.894287 -13.496325
-23.494173 -71.814697 -6.932064
-23.227722 -73.28949 -9.095648
-24.406713 -70.741112 -9.309509
-25.366468 -69.643768 -11.882596
-26.446341 -68.233246 -14.375341
-27.498121 -66.902679 -16.956282
-27.681551 -65.540276 -14.774952
-28.92729 -62.841854 -15.386307
-30.07925 -60.206444 -15.849923
-18.572491 -84.563293 -24.67745
-17.390522 -86.03418 -26.690254
-19.258316 -83.137505 -26.677191
-19.703693 -81.884903 -28.687464
-21.371941 -75.337364 -4.110065
-22.586876 -72.834953 -4.4345
-23.758347 -70.290161 -4.794774
-24.845863 -67.858307 -5.179274
-25.958611 -65.366013 -5.667358
-25.47908 -72.650284 -25.167152
-16.106276 -88.497108 -22.745331
-17.226692 -86.814911 -20.653742
-17.901941 -85.776772 -22.669811
-19.640358 -82.988014 -22.549618
-21.429829 -79.961403 -22.591484
-23.077425 -77.052628 -22.796791
-19.28845 -81.063736 -8.965045
-20.214045 -80.117226 -11.305697
-21.099041 -79.178955 -13.748535
-22.891453 -74.902313 -11.432194
-22.572348 -76.335442 -13.744386
-22.028019 -78.00238 -15.958669
-22.917675 -76.821938 -18.282049
-23.770332 -75.579208 -20.510235
-24.618311 -74.22937 -23.000477
-26.197165 -71.210236 -23.115429
-28.457611 -65.597954 -19.283871
-26.999849 -63.088367 -6.25663
-28.015427 -61.777596 -8.78892
-29.101971 -60.414169 -11.476011
-30.170952 -58.98251 -13.921995
-15.801844 -87.85743 -28.402931
-16.081914 -88.168442 -25.639136
-15.172552 -89.492524 -25.566674
-15.789823 -88.762719 -24.669822
-17.334916 -84.309899 -31.314085
-18.391695 -82.662128 -31.493232
-18.39138 -83.627716 -12.606533
-17.644236 -84.842713 -12.633083
-17.944878 -84.034149 -11.412831
-20.829039 -79.663567 -29.77536
-19.907731 -81.166061 -29.704561
-20.625001 -80.382408 -28.758263
-20.988185 -75.61425 -2.758896
-20.777466 -76.49643 -4.001573
-22.706312 -72.081669 -3.264102
-22.176544 -73.212154 -3.107807
-23.292048 -70.809272 -3.44424
-23.172612 -71.562557 -4.614637
-22.706312 -72.081669 -3.264102
-24.94352 -67.162045 -4.142758
-24.390935 -68.350158 -3.798558
-25.499893 -65.915897 -4.3868
-25.402237 -66.61216 -5.423316
-24.94352 -67.162045 -4.142758
-25.868029 -71.844341 -26.236445
-26.249681 -71.181187 -25.203342
-15.792706 -88.948967 -21.747788
-15.199285 -89.779575 -22.689681
-19.511339 -80.211052 -7.615841
-18.840872 -81.433044 -7.710797
-19.063761 -80.58036 -6.361593
-27.912422 -67.570865 -22.311303
-27.191435 -69.052536 -22.128069
-27.394081 -68.437024 -21.137298
-28.592344 -66.153489 -22.424865
-27.912422 -67.570865 -22.311303
-27.111997 -62.42682 -5.313865
-26.556094 -63.587282 -4.926089
-28.633131 -60.483759 -9.24702
-28.100381 -61.190933 -7.9481
-29.176403 -59.802046 -10.590566
-28.558699 -61.095883 -10.132465
-28.633131 -60.483759 -9.24702
-30.744578 -57.698161 -14.274135
-30.23223 -58.371742 -13.015177
-30.705851 -58.25548 -15.179042
-30.744578 -57.698161 -14.274135
-14.308619 -88.778087 -30.902272
-15.127263 -88.058551 -30.141084
-15.291376 -87.343353 -31.078238
-13.460736 -89.461296 -31.6726
-14.308619 -88.778087 -30.902272
-13.537542 -88.79464 -32.553982
-13.460736 -89.461296 -31.6726
-18.235047 -83.225479 -10.197156
-17.944878 -84.034149 -11.412831
-18.528669 -84.354805 -17.128929
-17.67953 -85.736984 -17.226102
-18.109851 -84.841095 -16.037021
-29.250974 -63.424374 -18.423482
-29.368573 -62.772642 -17.55982
-14.476631 -90.273449 -26.424671
-15.172552 -89.492524 -25.566674
-14.692143 -89.725895 -27.311594
-14.476631 -90.273449 -26.424671
-16.303954 -85.859596 -31.228499
-17.140981 -85.074119 -30.402634
-17.334916 -84.309899 -31.314085
-15.485311 -86.579132 -31.989688
-15.291376 -87.343353 -31.078238
-16.303954 -85.859596 -31.228499
-14.627439 -87.269753 -32.724694
-15.485311 -86.579132 -31.989688
-17.294846 -85.669612 -13.826814
-17.644236 -84.842713 -12.633083
-17.675725 -85.329777 -14.980489
-17.294846 -85.669612 -13.826814
-18.524864 -83.947598 -14.883316
-18.109851 -84.841095 -16.037021
-17.675725 -85.329777 -14.980489
-29.462995 -62.106659 -16.609046
-29.368573 -62.772642 -17.55982
-28.832869 -63.507837 -16.337081
-30.038974 -60.788954 -16.840854
-29.462995 -62.106659 -16.609046
-29.50327 -61.524149 -15.618115
-30.63395 -59.410227 -17.109468
-30.038974 -60.788954 -16.840854
-19.141855 -81.985821 -30.60494
-18.937818 -82.704662 -29.587842
-19.907731 -81.166061 -29.704561
-18.391695 -82.662128 -31.493232
-19.141855 -81.985821 -30.60494
-19.257165 -79.802075 -5.063036
-19.063761 -80.58036 -6.361593
-19.95861 -78.506932 -5.079859
-19.257165 -79.802075 -5.063036
-20.633588 -77.246899 -5.223101
-20.409207 -78.098335 -6.409878
-19.95861 -78.506932 -5.079859
-21.228063 -76.087833 -5.331592
-20.633588 -77.246899 -5.223101
-20.777466 -76.49643 -4.001573
-21.569077 -74.463359 -2.945589
-20.988185 -75.61425 -2.758896
-21.979408 -74.086158 -4.272282
-21.569077 -74.463359 -2.945589
-22.176544 -73.212154 -3.107807
-23.847177 -69.566085 -3.606308
-23.292048 -70.809272 -3.44424
-24.302105 -69.074234 -4.987024
-23.847177 -69.566085 -3.606308
-24.390935 -68.350158 -3.798558
-25.046926 -73.349835 -26.141531
-24.208284 -74.890183 -26.027465
-24.640438 -74.190632 -25.053086
-25.046926 -73.349835 -26.141531
-25.868029 -71.844341 -26.236445
-15.493368 -89.291954 -23.671346
-15.199285 -89.779575 -22.689681
-16.402731 -87.967872 -23.743807
-15.789823 -88.762719 -24.669822
-15.493368 -89.291954 -23.671346
-17.248269 -86.571018 -18.444884
-17.67953 -85.736984 -17.226102
-16.812441 -87.353127 -19.61275
-17.248269 -86.571018 -18.444884
-17.66252 -86.032803 -19.485876
-16.352914 -88.107868 -20.701994
-16.812441 -87.353127 -19.61275
-16.666484 -87.656009 -21.699537
-15.792706 -88.948967 -21.747788
-16.352914 -88.107868 -20.701994
-18.533261 -82.34777 -8.986538
-18.840872 -81.433044 -7.710797
-18.990236 -81.941445 -10.175663
-18.235047 -83.225479 -10.197156
-18.533261 -82.34777 -8.986538
-26.608723 -70.461163 -24.17748
-26.249681 -71.181187 -25.203342
-25.838122 -71.93026 -24.141291
-26.953471 -69.698307 -23.208751
-26.435129 -70.564465 -22.034746
-27.191435 -69.052536 -22.128069
-26.608723 -70.461163 -24.17748
-26.953471 -69.698307 -23.208751
-29.110556 -64.13644 -19.42149
-28.598029 -64.885887 -18.285863
-29.250974 -63.424374 -18.423482
-28.960529 -64.805046 -20.372791
-29.110556 -64.13644 -19.42149
-28.789258 -65.483745 -21.391122
-28.28634 -66.276654 -20.302202
-28.960529 -64.805046 -20.372791
-28.592344 -66.153489 -22.424865
-28.789258 -65.483745 -21.391122
-26.035475 -64.726105 -4.631453
-25.499893 -65.915897 -4.3868
-26.47923 -64.22719 -5.961994
-26.035475 -64.726105 -4.631453
-26.556094 -63.587282 -4.926089
-27.592592 -61.846319 -6.681956
-27.111997 -62.42682 -5.313865
-27.507638 -62.432981 -7.522775
-27.592592 -61.846319 -6.681956
-28.100381 -61.190933 -7.9481
-29.697739 -59.087572 -11.792185
-29.176403 -59.802046 -10.590566
-29.636461 -59.69834 -12.699003
-29.697739 -59.087572 -11.792185
-30.23223 -58.371742 -13.015177
-30.659999 -58.867447 -16.143006
-30.125101 -59.594477 -14.885959
-30.705851 -58.25548 -15.179042
-30.63395 -59.410227 -17.109468
-30.659999 -58.867447 -16.143006
-14.860743 -89.205487 -28.245065
-14.692143 -89.725895 -27.311594
-15.633243 -88.377838 -27.469459
-14.973174 -88.675358 -29.184024
-15.955932 -87.240623 -29.35999
-15.127263 -88.058551 -30.141084
-14.860743 -89.205487 -28.245065
-14.973174 -88.675358 -29.184024
-13.537542 -88.79464 -32.553982
-14.627439 -87.269753 -32.724694
-23.725837 -75.621327 -27.009408
-23.319349 -76.462124 -25.920963
-24.208284 -74.890183 -26.027465
-23.14526 -76.424408 -27.943487
-23.725837 -75.621327 -27.009408
-22.499964 -77.26773 -28.906566
-22.191605 -78.036591 -27.865983
-23.14526 -76.424408 -27.943487
-21.880972 -77.968998 -29.814042
-22.499964 -77.26773 -28.906566
-20.829039 -79.663567 -29.77536
-21.880972 -77.968998 -29.814042
3 1 25 23
3 1 27 25
3 0 30 28
3 4 33 31
3 4 35 33
3 2 38 36
3 5 41 39
3 5 43 41
3 5 45 43
3 3 92 94
3 92 46 93
3 92 93 94
3 96 95 47
3 6 97 99
3 97 49 98
3 97 98 99
3 6 50 49
3 7 53 51
3 9 54 24
3 9 55 54
3 9 57 55
3 11 58 26
3 11 59 58
3 12 62 60
3 14 63 29
3 14 100 102
3 102 101 63
3 100 101 102
3 103 64 104
3 105 65 106
3 107 66 108
3 109 108 65
3 107 108 109
3 110 67 111
3 112 68 113
3 114 113 67
3 112 113 114
3 116 115 69
3 117 70 118
3 16 71 32
3 16 72 71
3 16 73 72
3 17 74 34
3 17 75 74
3 15 119 121
3 119 76 120
3 119 120 121
3 18 77 37
3 18 78 77
3 8 79 52
3 19 80 40
3 19 81 80
3 19 82 81
3 20 83 42
3 20 84 83
3 20 85 84
3 21 122 124
3 124 123 44
3 122 123 124
3 21 125 126
3 10 86 56
3 127 87 128
3 129 88 130
3 131 89 132
3 133 132 88
3 131 132 133
3 134 90 135
3 137 136 90
3 13 91 61
3 22 138 140
3 140 139 48
3 138 139 140
3 22 141 142
3 22 143 144
3 145 6 146
3 23 24 7
3 25 24 23
3 25 9 24
3 25 26 9
3 27 26 25
3 27 11 26
3 28 29 12
3 30 29 28
3 30 14 29
3 31 147 149
3 147 32 148
3 147 148 149
3 33 32 31
3 33 16 32
3 33 34 16
3 35 34 33
3 35 17 34
3 36 37 15
3 38 37 36
3 38 18 37
3 39 40 8
3 41 40 39
3 41 19 40
3 41 42 19
3 43 42 41
3 43 20 42
3 43 44 20
3 45 44 43
3 45 21 44
3 151 150 10
3 46 152 153
3 46 154 155
3 47 48 13
3 156 48 157
3 158 157 47
3 156 157 158
3 159 22 160
3 161 160 48
3 159 160 161
3 163 162 22
3 49 164 165
3 49 166 167
3 49 168 170
3 168 31 169
3 168 169 170
3 50 31 49
3 50 4 31
3 51 52 2
3 53 52 51
3 53 8 52
3 24 53 7
3 54 53 24
3 54 8 53
3 54 39 8
3 55 39 54
3 55 5 39
3 55 56 5
3 57 56 55
3 57 10 56
3 26 57 9
3 58 57 26
3 58 10 57
3 58 171 173
3 173 172 10
3 171 172 173
3 59 174 176
3 176 175 58
3 174 175 176
3 59 177 178
3 60 61 3
3 62 61 60
3 62 13 61
3 29 62 12
3 63 62 29
3 63 13 62
3 63 47 13
3 179 47 180
3 181 180 63
3 179 180 181
3 183 182 47
3 184 15 185
3 186 15 187
3 188 36 189
3 190 189 15
3 188 189 190
3 64 191 193
3 191 36 192
3 191 192 193
3 64 2 36
3 194 64 195
3 65 196 198
3 196 64 197
3 196 197 198
3 65 2 64
3 65 51 2
3 66 51 65
3 66 7 51
3 199 66 200
3 67 201 203
3 201 66 202
3 201 202 203
3 67 7 66
3 67 23 7
3 68 23 67
3 68 1 23
3 69 204 206
3 206 205 0
3 204 205 206
3 208 207 69
3 70 209 210
3 70 211 213
3 211 3 212
3 211 212 213
3 32 214 215
3 71 216 218
3 218 217 32
3 216 217 218
3 71 219 220
3 71 221 223
3 221 70 222
3 221 222 223
3 72 70 71
3 72 3 70
3 72 60 3
3 73 60 72
3 73 12 60
3 34 73 16
3 74 73 34
3 74 12 73
3 74 28 12
3 75 28 74
3 75 0 28
3 76 224 225
3 76 226 228
3 226 6 227
3 226 227 228
3 37 76 15
3 77 76 37
3 77 6 76
3 77 50 6
3 78 50 77
3 78 4 50
3 52 38 2
3 79 38 52
3 79 18 38
3 40 79 8
3 80 79 40
3 80 18 79
3 80 78 18
3 81 78 80
3 81 4 78
3 81 35 4
3 82 35 81
3 82 17 35
3 42 82 19
3 83 82 42
3 83 17 82
3 83 75 17
3 84 75 83
3 84 0 75
3 84 69 0
3 85 69 84
3 85 229 231
3 231 230 69
3 229 230 231
3 44 85 20
3 232 85 233
3 234 233 44
3 232 233 234
3 236 235 85
3 56 45 5
3 86 45 56
3 86 21 45
3 237 86 238
3 239 238 10
3 237 238 239
3 240 86 241
3 242 21 243
3 244 243 86
3 242 243 244
3 246 245 21
3 247 68 248
3 87 249 251
3 249 68 250
3 249 250 251
3 87 1 68
3 252 87 253
3 88 254 256
3 254 87 255
3 254 255 256
3 88 1 87
3 88 27 1
3 89 27 88
3 89 11 27
3 257 89 258
3 90 259 261
3 259 89 260
3 259 260 261
3 90 11 89
3 90 59 11
3 262 59 263
3 264 263 90
3 262 263 264
3 266 265 59
3 61 46 3
3 91 46 61
3 91 267 269
3 269 268 46
3 267 268 269
3 48 91 13
3 270 91 271
3 272 271 48
3 270 271 272
3 274 273 91
3 276 275 22
3 277 30 278
3 279 278 0
3 277 278 279
3 280 30 281
3 282 14 283
3 284 283 30
3 282 283 284
3 285 14 286
3 288 287 14
