ply
format ascii 1.0
element vertex 177
property float x
property float y
property float z
element face 166
property list uchar int vertex_index
end_header
-15.702964 26.112459 63.869106
-10.875224 17.34691 64.046021
-18.272432 12.802372 68.54583
-17.002823 19.245121 66.459076
-20.677481 16.745291 68.074921
-13.11451 21.400269 64.068153
-11.882342 27.93932 61.191849
-9.597676 22.87059 61.555588
-14.446839 15.284755 66.469627
-21.964573 9.78628 69.901924
-24.295086 13.452297 68.82756
-16.835754 28.775753 63.483471
-16.269926 22.649172 65.193039
-18.084494 21.628271 66.150627
-17.550297 24.944088 64.986015
-12.009591 19.214542 64.130409
-11.338085 22.188787 62.82835
-10.25208 20.083036 62.854733
-11.361188 14.46923 65.123535
-13.18828 13.291744 66.385536
-12.700496 16.355785 65.32296
-13.76369 18.427046 65.280411
-10.060398 28.387495 59.889301
-20.102203 11.354926 69.319153
-21.936136 18.631063 67.674713
-22.592838 15.129053 68.602928
-23.670839 17.215204 67.946899
-9.578811 15.360744 63.865902
-9.148973 18.017267 62.831501
-17.626694 16.107304 67.517975
-19.433765 14.838328 68.339394
-18.893848 18.374331 67.289711
-20.087059 20.322773 67.012733
-14.371784 23.790266 63.973022
-13.770254 27.152412 62.55513
-12.501429 24.743378 62.662964
-10.712584 25.261702 61.427563
-9.02074 25.924116 60.130661
-8.50364 20.647169 61.608444
-15.029536 12.230172 67.506378
-16.402161 14.072668 67.606171
-15.633735 17.190786 66.483658
-15.044274 20.410131 65.319351
-21.357559 13.239799 69.039444
-23.230408 11.544149 69.46624
-15.332603 27.840613 63.108355
-15.898998 29.172261 62.915537
-16.269359 27.444106 63.676288
-9.805799 29.945279 59.129145
-9.19773 28.632432 59.236156
-19.187317 12.078649 68.932491
-19.487911 10.456716 69.389893
-18.573025 11.180439 69.003231
-23.351738 19.027159 67.47882
-22.803488 17.923133 67.810806
-22.484386 19.735089 67.342727
-24.21038 18.074976 67.571106
-23.351738 19.027159 67.47882
-8.765921 15.698232 63.278194
-9.0332 14.422498 63.797503
-9.0332 14.422498 63.797503
-9.850651 14.009553 64.385328
-19.728812 22.176836 66.405735
-19.085777 20.975522 66.58168
-18.727529 22.829585 65.974682
-20.655228 21.377111 66.787658
-19.728812 22.176836 66.405735
-7.931432 19.571658 61.592484
-8.826307 19.332218 62.219972
-8.254098 18.256707 62.204012
-12.55209 29.187532 61.136497
-13.496046 28.794079 61.818138
-12.826298 27.545866 61.873489
-22.289485 8.090941 70.285031
-21.412458 8.832242 70.062301
-22.867806 9.017775 70.047374
-22.289485 8.090941 70.285031
-24.614452 11.596345 69.213104
-24.082113 10.642271 69.532444
-23.762747 12.498223 69.1469
-25.122971 12.477341 68.78527
-24.614452 11.596345 69.213104
-16.503034 30.540724 62.722061
-17.467938 29.894236 63.340771
-16.503034 30.540724 62.722061
-15.898998 29.172261 62.915537
-18.460431 24.487493 65.392376
-18.727529 22.829585 65.974682
-17.817395 23.28618 65.568321
-18.13357 26.233604 64.768101
-18.460431 24.487493 65.392376
-17.776299 28.149437 64.016829
-18.13357 26.233604 64.768101
-17.193026 26.859921 64.234743
-17.467938 29.894236 63.340771
-17.776299 28.149437 64.016829
-12.274734 13.880487 65.754536
-12.541778 12.462036 66.261582
-11.628232 13.05078 65.630581
-10.699043 29.660261 59.817718
-11.610015 29.436173 60.468992
-10.97137 28.163407 60.540575
-10.699043 29.660261 59.817718
-9.805799 29.945279 59.129145
-20.481274 9.616565 69.770916
-19.487911 10.456716 69.389893
-21.033388 10.570603 69.610538
-21.412458 8.832242 70.062301
-20.481274 9.616565 69.770916
-24.516044 16.241042 67.97319
-24.828167 14.359589 68.413521
-23.982962 15.333751 68.38723
-24.516044 16.241042 67.97319
-24.21038 18.074976 67.571106
-8.551002 17.026493 62.760994
-9.363892 16.689006 63.348702
-8.765921 15.698232 63.278194
-8.254098 18.256707 62.204012
-8.551002 17.026493 62.760994
-10.741839 13.563796 65.014145
-11.628232 13.05078 65.630581
-10.47 14.914987 64.494719
-10.741839 13.563796 65.014145
-9.850651 14.009553 64.385328
-21.579766 20.531256 67.118649
-21.011598 19.476918 67.343723
-20.655228 21.377111 66.787658
-22.484386 19.735089 67.342727
-21.579766 20.531256 67.118649
-8.677901 27.400742 59.356837
-9.19773 28.632432 59.236156
-9.540569 27.155805 60.009981
-7.58918 20.88888 60.950764
-7.931432 19.571658 61.592484
-8.146285 22.133815 60.884216
-7.58918 20.88888 60.950764
-8.693303 23.245525 60.857788
-9.050658 21.758879 61.582016
-8.146285 22.133815 60.884216
-8.404835 24.772289 60.145325
-9.309208 24.397353 60.843125
-8.693303 23.245525 60.857788
-8.087984 26.272557 59.399292
-8.404835 24.772289 60.145325
-8.677901 27.400742 59.356837
-8.087984 26.272557 59.399292
-17.618415 11.949988 68.538567
-18.573025 11.180439 69.003231
-13.443603 11.892898 66.850578
-12.541778 12.462036 66.261582
-14.36423 11.362112 67.410999
-13.443603 11.892898 66.850578
-14.108908 12.760958 66.945957
-15.300249 10.731742 67.966938
-14.36423 11.362112 67.410999
-15.996967 11.663888 68.01884
-15.300249 10.731742 67.966938
-16.683279 12.585136 68.068737
-15.996967 11.663888 68.01884
-15.715848 13.15142 67.556275
-17.337297 13.43752 68.076
-17.618415 11.949988 68.538567
-16.683279 12.585136 68.068737
-14.366248 28.36059 62.451366
-15.332603 27.840613 63.108355
-14.736609 26.632435 63.212118
-14.366248 28.36059 62.451366
-13.496046 28.794079 61.818138
-12.55209 29.187532 61.136497
-11.610015 29.436173 60.468992
-23.500723 9.89671 69.829532
-22.867806 9.017775 70.047374
-22.59749 10.665215 69.684082
-23.500723 9.89671 69.829532
-24.082113 10.642271 69.532444
-25.122971 12.477341 68.78527
-24.828167 14.359589 68.413521
3 0 45 47
3 47 46 11
3 45 46 47
3 0 14 12
3 0 11 14
3 1 17 15
3 1 20 18
3 1 15 20
3 49 48 22
3 2 50 52
3 50 23 51
3 50 51 52
3 53 26 54
3 55 54 24
3 53 54 55
3 57 56 26
3 59 58 27
3 60 27 61
3 3 31 29
3 62 32 63
3 64 63 13
3 62 63 64
3 66 65 32
3 5 35 33
3 7 36 16
3 7 37 36
3 67 38 68
3 69 68 28
3 67 68 69
3 8 39 19
3 8 40 39
3 8 41 40
3 5 42 21
3 5 33 42
3 6 70 72
3 72 71 34
3 70 71 72
3 9 73 74
3 9 75 76
3 4 43 30
3 10 44 25
3 10 77 79
3 79 78 44
3 77 78 79
3 10 80 81
3 11 82 83
3 85 84 11
3 12 13 3
3 14 13 12
3 14 86 88
3 88 87 13
3 86 87 88
3 14 89 90
3 11 91 93
3 93 92 14
3 91 92 93
3 11 94 95
3 15 16 5
3 17 16 15
3 17 7 16
3 18 96 98
3 96 19 97
3 96 97 98
3 20 19 18
3 20 8 19
3 20 21 8
3 15 21 20
3 15 5 21
3 22 99 101
3 101 100 6
3 99 100 101
3 103 102 22
3 23 104 105
3 23 106 108
3 106 9 107
3 106 107 108
3 24 25 4
3 26 25 24
3 26 10 25
3 26 109 111
3 111 110 10
3 109 110 111
3 113 112 26
3 27 28 1
3 114 28 115
3 116 115 27
3 114 115 116
3 118 117 28
3 119 18 120
3 27 121 123
3 121 18 122
3 121 122 123
3 27 1 18
3 29 30 2
3 31 30 29
3 31 4 30
3 13 31 3
3 32 31 13
3 32 4 31
3 32 24 4
3 124 24 125
3 126 125 32
3 124 125 126
3 128 127 24
3 33 34 0
3 35 34 33
3 35 6 34
3 16 35 5
3 36 35 16
3 36 6 35
3 36 22 6
3 37 22 36
3 37 129 131
3 131 130 22
3 129 130 131
3 28 17 1
3 38 17 28
3 38 7 17
3 132 38 133
3 134 38 135
3 136 7 137
3 138 137 38
3 136 137 138
3 139 37 140
3 141 140 7
3 139 140 141
3 142 37 143
3 145 144 37
3 146 2 147
3 19 148 149
3 39 150 152
3 152 151 19
3 150 151 152
3 39 153 154
3 39 155 156
3 40 157 159
3 159 158 39
3 157 158 159
3 40 160 162
3 160 2 161
3 160 161 162
3 40 29 2
3 41 29 40
3 41 3 29
3 21 41 8
3 42 41 21
3 42 3 41
3 42 12 3
3 33 12 42
3 33 0 12
3 34 163 165
3 165 164 0
3 163 164 165
3 167 166 34
3 169 168 6
3 30 23 2
3 43 23 30
3 43 9 23
3 25 43 4
3 44 43 25
3 44 9 43
3 44 170 172
3 172 171 9
3 170 171 172
3 174 173 44
3 176 175 10
