ply
format ascii 1.0
element vertex 138
property float x
property float y
property float z
element face 128
property list uchar int vertex_index
end_header
-26.8092 28.706676 62.751804
-20.454311 36.1712 61.950378
-23.032637 20.839115 67.010742
-25.989805 36.837265 60.463013
-18.100122 31.012718 63.198071
-19.370565 24.030899 65.798737
-21.650171 28.321718 64.790169
-22.887346 40.603386 60.278561
-25.069794 25.129332 65.169983
-23.82123 32.985424 62.979782
-18.716843 27.523121 64.550186
-21.719986 38.191105 61.294807
-20.058664 39.83427 60.458714
-24.749922 18.934748 67.195312
-25.608438 21.203568 66.14003
-24.065552 23.018185 66.185669
-21.100006 32.240402 63.446297
-22.859865 30.568573 64.002373
-22.230305 34.478287 62.682201
-23.467556 36.920486 61.619541
-26.356544 32.831806 61.674133
-19.258553 33.611523 62.633877
-18.69593 37.282265 61.101654
-17.451399 34.629662 61.660091
-21.223396 22.431448 66.562584
-22.320055 24.730728 65.911049
-20.594761 26.062468 65.411865
-19.976555 29.849701 64.099838
-26.011032 26.875502 64.056641
-23.356621 26.940796 65.121117
-24.488245 28.946539 64.161858
-25.422836 30.927248 63.037453
-24.962706 34.847134 61.871681
-24.576077 38.816525 60.531689
-27.366227 27.678652 62.420935
-27.069541 26.708638 63.167944
-23.351738 19.027159 67.47882
-22.484386 19.735089 67.342727
-23.89128 19.886931 67.103027
-24.21038 18.074976 67.571106
-23.351738 19.027159 67.47882
-26.602429 35.811362 60.250614
-26.785799 33.808632 60.856174
-26.173175 34.834536 61.068573
-19.728812 22.176836 66.405735
-18.727529 22.829585 65.974682
-20.296981 23.231174 66.180661
-20.655228 21.377111 66.787658
-19.728812 22.176836 66.405735
-22.745447 42.52853 59.488656
-23.488906 41.619191 59.72115
-18.454685 39.05657 60.311989
-17.813862 37.685101 60.606207
-25.821717 23.993814 65.064552
-26.091038 22.030932 65.549576
-25.339116 23.16645 65.655006
-25.540413 26.002417 64.613312
-26.292336 24.8669 64.507881
-25.821717 23.993814 65.064552
-23.488906 41.619191 59.72115
-24.333272 40.72576 59.847713
-23.731712 39.709955 60.405125
-26.378068 37.974417 59.655075
-25.771184 38.873829 59.810121
-16.503034 30.540724 62.722061
-17.135217 31.659206 62.579361
-17.467938 29.894236 63.340771
-18.460431 24.487493 65.392376
-18.727529 22.829585 65.974682
-18.13357 26.233604 64.768101
-19.043704 25.77701 65.174462
-18.460431 24.487493 65.392376
-17.776299 28.149437 64.016829
-18.13357 26.233604 64.768101
-17.467938 29.894236 63.340771
-18.408482 29.267919 63.874128
-17.776299 28.149437 64.016829
-21.49479 40.189284 60.480907
-22.07847 41.395424 59.972784
-22.303666 39.397245 60.786684
-20.664129 41.010866 60.06286
-21.49479 40.189284 60.480907
-20.889325 39.012687 60.876761
-19.785438 41.615543 59.655645
-20.664129 41.010866 60.06286
-25.055585 17.100814 67.597397
-24.516044 16.241042 67.97319
-24.21038 18.074976 67.571106
-25.507734 18.18053 67.045425
-25.055585 17.100814 67.597397
-25.17918 20.069158 66.667671
-25.936991 19.31494 66.517784
-25.507734 18.18053 67.045425
-26.963653 31.714825 61.41606
-27.189982 29.652261 61.954895
-26.582872 30.769241 62.212969
-26.963653 31.714825 61.41606
-26.785799 33.808632 60.856174
-26.602429 35.811362 60.250614
-26.378068 37.974417 59.655075
-17.191597 36.358799 60.885425
-17.813862 37.685101 60.606207
-18.073664 35.955964 61.380873
-16.810856 33.467679 61.810371
-17.77576 32.82119 62.429081
-17.135217 31.659206 62.579361
-16.555141 35.211846 61.031213
-16.810856 33.467679 61.810371
-17.191597 36.358799 60.885425
-16.555141 35.211846 61.031213
-21.579766 20.531256 67.118649
-20.655228 21.377111 66.787658
-22.128017 21.635281 66.786663
-22.484386 19.735089 67.342727
-21.579766 20.531256 67.118649
-27.366227 27.678652 62.420935
-27.189982 29.652261 61.954895
-22.745447 42.52853 59.488656
-22.07847 41.395424 59.972784
-19.136052 40.332572 59.990519
-19.377297 38.558267 60.780184
-18.454685 39.05657 60.311989
-19.785438 41.615543 59.655645
-19.136052 40.332572 59.990519
-26.362064 20.194056 65.901295
-25.936991 19.31494 66.517784
-26.362064 20.194056 65.901295
-26.091038 22.030932 65.549576
-26.670457 25.793051 63.820363
-26.292336 24.8669 64.507881
-26.410116 27.791089 63.404223
-27.069541 26.708638 63.167944
-26.670457 25.793051 63.820363
-25.06432 39.863459 59.844459
-25.771184 38.873829 59.810121
-25.282941 37.826895 60.497351
-25.06432 39.863459 59.844459
-24.333272 40.72576 59.847713
3 0 34 35
3 1 12 11
3 2 36 37
3 2 38 40
3 38 13 39
3 38 39 40
3 2 15 13
3 1 18 16
3 1 11 18
3 3 41 43
3 43 42 20
3 41 42 43
3 4 23 21
3 5 44 45
3 5 46 48
3 46 24 47
3 46 47 48
3 5 26 24
3 4 27 10
3 4 21 27
3 7 49 50
3 52 51 22
3 8 53 55
3 55 54 14
3 53 54 55
3 8 56 58
3 56 28 57
3 56 57 58
3 6 29 25
3 9 30 17
3 9 31 30
3 9 32 31
3 7 33 19
3 7 59 61
3 61 60 33
3 59 60 61
3 63 62 3
3 66 65 4
3 64 65 66
3 67 5 68
3 69 10 70
3 71 70 5
3 69 70 71
3 72 10 73
3 74 4 75
3 76 75 10
3 74 75 76
3 11 77 79
3 79 78 7
3 77 78 79
3 12 80 82
3 82 81 11
3 80 81 82
3 12 83 84
3 13 85 87
3 85 86 87
3 13 88 89
3 13 90 92
3 90 14 91
3 90 91 92
3 15 14 13
3 15 8 14
3 16 17 6
3 18 17 16
3 18 9 17
3 18 19 9
3 11 19 18
3 11 7 19
3 20 93 95
3 95 94 0
3 93 94 95
3 97 96 20
3 99 98 3
3 21 22 1
3 23 22 21
3 23 100 102
3 102 101 22
3 100 101 102
3 103 23 104
3 105 104 4
3 103 104 105
3 106 23 107
3 109 108 23
3 24 110 111
3 24 112 114
3 112 2 113
3 112 113 114
3 24 25 2
3 26 25 24
3 26 6 25
3 10 26 5
3 27 26 10
3 27 6 26
3 27 16 6
3 21 16 27
3 21 1 16
3 116 115 0
3 118 117 7
3 22 12 1
3 119 12 120
3 121 120 22
3 119 120 121
3 123 122 12
3 14 124 125
3 127 126 14
3 28 128 129
3 28 130 132
3 130 0 131
3 130 131 132
3 25 15 2
3 29 15 25
3 29 8 15
3 17 29 6
3 30 29 17
3 30 8 29
3 30 28 8
3 31 28 30
3 31 0 28
3 31 20 0
3 32 20 31
3 32 3 20
3 19 32 9
3 33 32 19
3 33 3 32
3 33 133 135
3 135 134 3
3 133 134 135
3 137 136 33
