ply
format ascii 1.0
element vertex 253
property float x
property float y
property float z
element face 256
property list uchar int vertex_index
end_header
-34.803654 -2.069832 -61.390511
-19.28055 -4.713273 -67.623161
-27.743507 -2.764247 -66.39164
-35.007565 10.496861 -59.908096
-28.766459 11.198074 -67.609978
-33.813293 -9.224426 -60.943027
-30.212141 -9.875698 -63.182724
-31.51689 -2.265918 -64.361755
-28.847717 16.65897 -66.45977
-24.782305 10.607401 -70.088676
-22.206392 -11.181579 -65.077896
-26.329346 -10.377151 -64.576042
-23.558575 -3.571368 -67.490562
-35.185242 4.569337 -61.085182
-31.949991 16.096741 -62.474487
-32.286018 10.947341 -64.116905
-32.095146 4.61782 -64.751823
-28.325191 4.519611 -67.584152
-24.343576 3.714571 -69.235764
-20.147524 2.560199 -69.922379
-34.428814 -5.537462 -61.233139
-32.794743 -5.770606 -62.643429
-33.252125 -2.127849 -62.975212
-20.850338 -7.740684 -66.453651
-20.129206 -11.440189 -65.091812
-18.814537 -8.283052 -66.303543
-29.036316 -6.227584 -64.856422
-28.316509 -10.170425 -63.959351
-27.0546 -6.429511 -65.622925
-25.020178 -6.687931 -66.159187
-25.641911 -3.136526 -67.074348
-35.197468 7.647876 -60.561531
-28.968531 13.977408 -67.094627
-30.709639 13.811458 -65.313866
-30.690634 11.055087 -65.899429
-32.201202 7.952474 -64.613464
-30.433409 8.14599 -66.32444
-30.292589 4.719998 -66.287941
-28.569187 8.017735 -67.764694
-24.7034 7.211983 -69.747269
-22.28476 2.998682 -69.646858
-33.113445 -13.336528 -60.278015
-31.328016 -13.567881 -61.372128
-32.11882 -9.624359 -62.120701
-30.995699 -6.084503 -63.830608
-29.717655 -2.472282 -65.476662
-34.807022 12.891461 -58.80069
-27.013178 16.689646 -68.205818
-26.968262 14.075221 -68.732025
-26.880306 10.843429 -68.953255
-24.968615 13.640576 -70.044861
-29.3932 -13.737508 -62.304523
-27.584814 -13.895411 -62.954777
-24.261589 -10.543338 -65.013672
-22.861313 -7.270419 -66.39859
-21.472439 -4.083535 -67.673813
-35.064949 1.458679 -61.34222
-33.335495 15.475577 -60.120365
-33.568474 13.294873 -61.28854
-30.362516 16.625256 -64.631783
-32.20118 13.669215 -63.407391
-33.764858 10.699701 -62.090122
-33.839809 7.909064 -62.617634
-33.669357 4.801821 -63.086945
-33.595612 1.27291 -63.051601
-31.899225 1.306768 -64.645561
-30.040985 1.259541 -66.023506
-28.079994 0.886048 -67.087692
-26.568693 7.664855 -68.941177
-26.361372 4.235392 -68.549263
-26.095385 0.441742 -67.862755
-24.065407 -0.088794 -68.386856
-21.853281 -0.516764 -68.753357
-19.836895 -1.124864 -68.825241
-17.813162 -1.834502 -68.678841
-34.616234 -3.803647 -61.311825
-35.16973 -5.617178 -60.3867
-35.35715 -3.883363 -60.465385
-18.274428 -5.045829 -67.496269
-18.041422 -6.830718 -66.83646
-19.047544 -6.498162 -66.963352
-35.651247 8.946149 -59.185974
-35.568747 10.154426 -58.764371
-35.102517 9.072368 -60.234814
-35.746199 7.521657 -59.512692
-35.651247 8.946149 -59.185974
-34.278301 -11.069989 -60.001812
-34.591211 -9.267971 -60.183811
-33.463369 -11.280477 -60.610521
-33.928377 -13.12604 -59.669306
-34.278301 -11.069989 -60.001812
-34.587826 13.960608 -58.237626
-35.33178 12.485171 -57.601927
-35.112583 13.554319 -57.038862
-25.977842 16.699244 -68.975612
-26.019269 17.930098 -68.627171
-25.955383 15.392031 -69.238716
-26.99072 15.382434 -68.468921
-25.977842 16.699244 -68.975612
-24.95556 15.174708 -69.895134
-25.968438 13.857899 -69.388443
-25.955383 15.392031 -69.238716
-21.784422 -13.109199 -64.373155
-22.818886 -12.794963 -64.400589
-18.776863 -13.799599 -64.141353
-19.783552 -13.442463 -64.307308
-19.122516 -11.797325 -64.925858
-25.914296 -12.312522 -63.99427
-26.542029 -14.071652 -63.183638
-26.95708 -12.136281 -63.76541
-25.295468 -10.460244 -64.794857
-24.880417 -12.395615 -64.213085
-25.914296 -12.312522 -63.99427
-35.778534 2.896714 -60.256752
-35.82594 4.44235 -60.019337
-35.125096 3.014008 -61.213701
-35.718387 1.341385 -60.385271
-35.778534 2.896714 -60.256752
-32.642743 15.786159 -61.297426
-32.51338 16.762026 -60.667144
-31.820628 17.072608 -61.844206
-29.605117 16.642113 -65.545777
-29.458042 17.914617 -65.080856
-28.700643 17.931474 -65.99485
-16.964662 -0.430885 -69.155953
-17.975414 -0.100966 -69.253735
-16.861838 -2.210651 -68.513397
-16.964662 -0.430885 -69.155953
-34.898972 -7.424489 -60.328867
-35.16973 -5.617178 -60.3867
-34.121054 -7.380944 -61.088083
-34.591211 -9.267971 -60.183811
-34.898972 -7.424489 -60.328867
-18.465181 -10.218756 -65.531723
-19.122516 -11.797325 -64.925858
-19.471871 -9.861621 -65.697677
-17.8471 -8.583824 -66.138222
-18.465181 -10.218756 -65.531723
-17.8471 -8.583824 -66.138222
-18.041422 -6.830718 -66.83646
-35.832053 5.98162 -59.757511
-35.746199 7.521657 -59.512692
-35.191355 6.108607 -60.823357
-35.82594 4.44235 -60.019337
-35.832053 5.98162 -59.757511
-31.034343 17.474749 -62.979157
-31.820628 17.072608 -61.844206
-23.696115 8.621463 -70.318238
-24.742852 8.909692 -69.917973
-23.735567 10.319172 -70.488941
-23.618202 6.951473 -70.079498
-23.696115 8.621463 -70.318238
-23.438291 5.202767 -69.823746
-24.523488 5.463277 -69.491517
-23.618202 6.951473 -70.079498
-22.408882 4.844823 -70.029293
-23.314168 3.356626 -69.441311
-23.438291 5.202767 -69.823746
-21.380153 4.4364 -70.186768
-22.408882 4.844823 -70.029293
-20.311535 4.217158 -70.324528
-21.216142 2.77944 -69.784618
-21.380153 4.4364 -70.186768
-33.603672 -15.002634 -59.336435
-34.418604 -14.792147 -58.727725
-33.928377 -13.12604 -59.669306
-32.716007 -15.234944 -59.899948
-33.603672 -15.002634 -59.336435
-32.220731 -13.452205 -60.825071
-31.823293 -15.35062 -60.447004
-32.716007 -15.234944 -59.899948
-35.468475 11.351726 -58.210668
-35.33178 12.485171 -57.601927
-34.907294 11.694161 -59.354393
-35.568747 10.154426 -58.764371
-35.468475 11.351726 -58.210668
-27.918178 17.892062 -66.90572
-28.700643 17.931474 -65.99485
-27.000909 17.9074 -67.778743
-26.019269 17.930098 -68.627171
-27.930447 16.674308 -67.332794
-27.918178 17.892062 -66.90572
-27.000909 17.9074 -67.778743
-24.005185 14.876981 -70.474148
-24.95556 15.174708 -69.895134
-23.933093 13.433859 -70.551712
-24.005185 14.876981 -70.474148
-23.839938 11.917272 -70.57362
-24.87546 12.123988 -70.066768
-23.933093 13.433859 -70.551712
-23.735567 10.319172 -70.488941
-23.839938 11.917272 -70.57362
-20.745829 -13.238504 -64.380114
-21.784422 -13.109199 -64.373155
-21.167799 -11.310884 -65.084854
-20.745829 -13.238504 -64.380114
-19.783552 -13.442463 -64.307308
-30.903161 -15.374487 -60.967222
-31.823293 -15.35062 -60.447004
-29.935753 -15.459301 -61.43342
-30.903161 -15.374487 -60.967222
-30.360608 -13.652694 -61.838325
-28.954622 -15.668485 -61.785357
-29.935753 -15.459301 -61.43342
-28.050429 -15.747437 -62.110484
-28.954622 -15.668485 -61.785357
-28.489007 -13.81646 -62.62965
-27.041319 -15.852495 -62.392519
-27.506934 -17.704521 -61.548226
-28.050429 -15.747437 -62.110484
-27.041319 -15.852495 -62.392519
-26.542029 -14.071652 -63.183638
-23.846485 -12.475842 -64.368477
-24.880417 -12.395615 -64.213085
-23.233991 -10.862458 -65.045784
-22.818886 -12.794963 -64.400589
-23.846485 -12.475842 -64.368477
-35.454811 -2.078254 -60.559893
-35.35715 -3.883363 -60.465385
-35.585459 -0.313999 -60.535747
-35.718387 1.341385 -60.385271
-34.934302 -0.305576 -61.366366
-35.454811 -2.078254 -60.559893
-35.585459 -0.313999 -60.535747
-33.130036 16.446343 -59.420094
-32.307921 17.732792 -59.966873
-32.51338 16.762026 -60.667144
-33.852062 15.252667 -58.897463
-33.130036 16.446343 -59.420094
-34.071258 14.183519 -59.460527
-34.587826 13.960608 -58.237626
-33.852062 15.252667 -58.897463
-30.240605 17.739007 -64.057805
-29.458042 17.914617 -65.080856
-31.156253 16.360999 -63.553135
-31.034343 17.474749 -62.979157
-30.240605 17.739007 -64.057805
-19.252079 3.928284 -70.401909
-20.311535 4.217158 -70.324528
-19.41609 5.585242 -70.804058
-19.142595 2.096385 -69.875504
-19.252079 3.928284 -70.401909
-18.987281 0.253853 -69.326935
-19.99221 0.717667 -69.37381
-19.142595 2.096385 -69.875504
-18.825028 -1.479683 -68.752041
-18.987281 0.253853 -69.326935
-17.975414 -0.100966 -69.253735
-17.540734 -3.606444 -68.024109
-18.274428 -5.045829 -67.496269
-18.546856 -3.273887 -68.151001
-17.540734 -3.606444 -68.024109
-16.861838 -2.210651 -68.513397
3 0 75 77
3 75 20 76
3 75 76 77
3 0 22 20
3 1 25 23
3 1 78 80
3 80 79 25
3 78 79 80
3 2 28 26
3 2 30 28
3 3 81 82
3 3 83 85
3 83 31 84
3 83 84 85
3 4 34 32
3 4 36 34
3 4 38 36
3 5 86 87
3 5 88 90
3 88 41 89
3 88 89 90
3 5 43 41
3 7 44 21
3 7 45 44
3 91 46 92
3 91 92 93
3 94 47 95
3 96 48 97
3 98 97 47
3 96 97 98
3 99 50 100
3 101 100 48
3 99 100 101
3 10 102 103
3 106 105 24
3 104 105 106
3 6 51 42
3 11 52 27
3 11 107 109
3 109 108 52
3 107 108 109
3 11 110 112
3 110 53 111
3 110 111 112
3 12 54 29
3 12 55 54
3 13 113 114
3 13 115 117
3 115 56 116
3 115 116 117
3 14 118 120
3 118 57 119
3 118 119 120
3 14 58 57
3 8 121 123
3 121 59 122
3 121 122 123
3 15 60 33
3 15 61 60
3 15 62 61
3 16 63 35
3 16 64 63
3 16 65 64
3 17 66 37
3 17 67 66
3 9 68 49
3 18 69 39
3 18 70 69
3 18 71 70
3 19 72 40
3 19 73 72
3 124 74 125
3 127 126 74
3 20 128 129
3 20 130 132
3 130 5 131
3 130 131 132
3 20 21 5
3 22 21 20
3 22 7 21
3 23 24 10
3 25 24 23
3 25 133 135
3 135 134 24
3 133 134 135
3 25 136 137
3 139 138 25
3 26 27 6
3 28 27 26
3 28 11 27
3 28 29 11
3 30 29 28
3 30 12 29
3 31 140 141
3 31 142 144
3 142 13 143
3 142 143 144
3 145 14 146
3 32 33 8
3 34 33 32
3 34 15 33
3 34 35 15
3 36 35 34
3 36 16 35
3 36 37 16
3 38 37 36
3 38 17 37
3 147 39 148
3 149 148 9
3 147 148 149
3 150 39 151
3 152 18 153
3 154 153 39
3 152 153 154
3 155 40 156
3 157 156 18
3 155 156 157
3 158 40 159
3 160 19 161
3 162 161 40
3 160 161 162
3 41 163 165
3 163 164 165
3 41 166 167
3 41 168 170
3 168 42 169
3 168 169 170
3 43 42 41
3 43 6 42
3 21 43 5
3 44 43 21
3 44 6 43
3 44 26 6
3 45 26 44
3 45 2 26
3 46 171 172
3 46 173 175
3 173 3 174
3 173 174 175
3 176 8 177
3 47 178 179
3 47 180 182
3 180 8 181
3 180 181 182
3 47 32 8
3 48 32 47
3 48 4 32
3 48 49 4
3 50 49 48
3 50 9 49
3 183 50 184
3 185 50 186
3 187 9 188
3 189 188 50
3 187 188 189
3 191 190 9
3 24 192 194
3 194 193 10
3 192 193 194
3 196 195 24
3 42 197 198
3 51 199 201
3 201 200 42
3 199 200 201
3 51 202 203
3 27 51 6
3 52 51 27
3 52 204 206
3 206 205 51
3 204 205 206
3 52 207 209
3 207 208 209
3 211 210 52
3 53 212 213
3 53 214 216
3 214 10 215
3 214 215 216
3 29 53 11
3 54 53 29
3 54 10 53
3 54 23 10
3 55 23 54
3 55 1 23
3 217 0 218
3 56 219 220
3 56 221 223
3 221 0 222
3 221 222 223
3 57 224 226
3 224 225 226
3 57 227 228
3 57 229 231
3 229 46 230
3 229 230 231
3 58 46 57
3 58 3 46
3 59 232 233
3 59 234 236
3 234 14 235
3 234 235 236
3 33 59 8
3 60 59 33
3 60 14 59
3 60 58 14
3 61 58 60
3 61 3 58
3 61 31 3
3 62 31 61
3 62 13 31
3 35 62 15
3 63 62 35
3 63 13 62
3 63 56 13
3 64 56 63
3 64 0 56
3 64 22 0
3 65 22 64
3 65 7 22
3 37 65 16
3 66 65 37
3 66 7 65
3 66 45 7
3 67 45 66
3 67 2 45
3 49 38 4
3 68 38 49
3 68 17 38
3 39 68 9
3 69 68 39
3 69 17 68
3 69 67 17
3 70 67 69
3 70 2 67
3 70 30 2
3 71 30 70
3 71 12 30
3 40 71 18
3 72 71 40
3 72 12 71
3 72 55 12
3 73 55 72
3 73 1 55
3 237 19 238
3 237 238 239
3 240 19 241
3 242 73 243
3 244 243 19
3 242 243 244
3 74 245 247
3 245 73 246
3 245 246 247
3 74 1 73
3 74 248 250
3 250 249 1
3 248 249 250
3 252 251 74
