ply
format ascii 1.0
element vertex 249
property float x
property float y
property float z
element face 254
property list uchar int vertex_index
end_header
-24.425484 19.416185 -36.260479
-18.317924 26.944101 -36.037628
-23.938404 11.645998 -26.532045
-18.0562 13.802598 -18.963219
-18.624992 20.254309 -27.019445
-23.333546 7.994767 -22.308441
-16.230066 16.608232 -15.998266
-16.190016 19.445681 -19.333155
-18.339746 16.929882 -22.7379
-16.212175 22.463911 -23.036602
-16.180943 25.545992 -27.059589
-21.314262 22.980598 -36.299301
-20.802202 26.273697 -41.237179
-24.377254 15.430379 -31.144133
-20.310457 8.561144 -18.545399
-20.656376 12.235103 -22.515949
-21.097425 15.70366 -26.687
-21.372009 19.282064 -31.227205
-18.595924 23.715982 -31.446669
-16.009592 28.638962 -31.392138
-24.522564 6.178432 -22.034777
-22.910341 6.16532 -20.132353
-16.167105 21.002132 -21.078781
-15.265424 24.079512 -21.217133
-15.2485 25.413963 -23.072367
-19.836557 24.808512 -36.152061
-20.991999 24.725302 -38.595474
-19.501728 26.630157 -38.708839
-25.358337 9.983651 -26.530239
-24.08884 13.627537 -28.772869
-17.022732 14.99946 -17.32328
-17.028635 13.557409 -15.774843
-18.021559 12.057032 -17.191223
-18.992441 9.394492 -16.877457
-19.099089 11.037191 -18.608725
-20.484564 10.297009 -20.415476
-19.350479 12.591399 -20.554586
-18.467791 18.599268 -24.796453
-19.697002 16.089666 -24.651888
-19.823999 17.91457 -26.830278
-21.35988 17.402937 -28.969261
-19.994446 19.657692 -29.157709
-19.993147 21.369558 -31.318888
-18.647655 21.963923 -29.179874
-16.102434 27.15029 -29.202421
-25.027374 8.041862 -24.29862
-23.597393 9.863098 -24.371521
-16.110556 18.263489 -17.575699
-17.05678 16.529177 -19.037724
-18.243303 15.249807 -20.823168
-17.180286 17.907843 -20.852716
-17.22645 19.573307 -22.790682
-17.295561 21.22258 -24.884769
-17.382967 22.796227 -27.066935
-16.221636 23.984699 -25.035986
-22.784513 21.143209 -36.167389
-22.630331 22.953129 -38.748615
-22.331062 24.571241 -41.106846
-24.433548 17.409573 -33.600044
-21.409838 6.408063 -18.332033
-21.724512 8.138635 -20.33255
-21.968918 9.994904 -22.378906
-22.253681 11.829319 -24.514851
-19.4585 14.378564 -22.489334
-20.883347 13.899217 -24.494442
-22.507639 13.634503 -26.66333
-22.716722 15.449417 -28.889547
-22.915365 17.329021 -31.327824
-22.929695 19.193888 -33.684647
-21.387362 21.147697 -33.714916
-19.946518 23.101559 -33.671989
-18.501385 25.371069 -33.7621
-17.315573 24.415728 -29.045631
-17.225269 26.036341 -31.201534
-17.097431 27.643225 -33.543755
-25.129238 19.498921 -37.402578
-25.174771 18.555335 -36.119566
-22.805083 5.269673 -19.210151
-23.617306 5.21415 -20.123197
-23.512048 4.318502 -19.200996
-14.907813 25.124336 -20.529898
-15.271746 23.438888 -20.319077
-14.848757 25.808464 -21.396235
-14.907813 25.124336 -20.529898
-24.732997 11.75274 -27.579301
-25.442963 10.921567 -27.578398
-24.64837 10.814825 -26.531142
-24.013622 12.636768 -27.652457
-24.808215 12.74351 -28.699714
-24.732997 11.75274 -27.579301
-16.150286 18.854585 -18.454427
-15.745027 19.832504 -17.748534
-15.784757 20.4236 -18.627263
-14.742397 27.935887 -24.167957
-15.209711 26.18786 -24.054108
-14.781186 27.161991 -23.186217
-21.352039 26.254382 -42.479933
-22.116469 25.403154 -42.414766
-21.566632 25.422469 -41.172012
-25.159695 15.633101 -32.378667
-25.087595 14.598672 -31.077155
-24.405401 16.419976 -32.372088
-25.187841 16.622698 -33.606623
-25.159695 15.633101 -32.378667
-16.287508 15.926593 -15.262402
-15.95668 17.625689 -15.468536
-17.040999 12.879356 -14.997905
-17.45414 12.148663 -15.646763
-20.176592 7.838301 -17.668947
-19.517584 8.254974 -16.834975
-19.651449 8.977818 -17.711428
-20.860148 7.484604 -18.438716
-20.726282 6.76176 -17.562264
-20.176592 7.838301 -17.668947
-15.950644 29.304503 -32.46729
-16.494563 28.806635 -33.543098
-16.553511 28.141094 -32.467946
-24.423417 5.220706 -21.07441
-25.273235 5.242427 -21.985475
-23.716452 6.171876 -21.083565
-24.423417 5.220706 -21.07441
-23.617306 5.21415 -20.123197
-15.734043 21.121972 -19.377088
-15.784757 20.4236 -18.627263
-15.722587 21.900198 -20.249901
-16.17856 20.223906 -20.205968
-15.734043 21.121972 -19.377088
-15.716264 22.540822 -21.147957
-15.722587 21.900198 -20.249901
-15.271746 23.438888 -20.319077
-14.840295 26.47569 -22.323853
-15.256962 24.746738 -22.14475
-14.848757 25.808464 -21.396235
-14.781186 27.161991 -23.186217
-14.840295 26.47569 -22.323853
-26.209595 10.021631 -27.476773
-26.037373 9.125381 -26.405825
-26.209595 10.021631 -27.476773
-25.442963 10.921567 -27.578398
-24.943389 13.69725 -29.891523
-24.808215 12.74351 -28.699714
-24.233047 14.528958 -29.958501
-25.087595 14.598672 -31.077155
-24.943389 13.69725 -29.891523
-17.950601 11.398474 -16.354952
-17.45414 12.148663 -15.646763
-17.525097 12.80722 -16.483033
-18.507 10.725762 -17.03434
-18.436042 10.067204 -16.198069
-17.950601 11.398474 -16.354952
-15.621697 27.763129 -28.200118
-16.141689 26.348141 -28.131005
-15.660952 26.96098 -27.128702
-15.544991 28.557865 -29.255416
-15.621697 27.763129 -28.200118
-15.49857 29.302201 -30.350274
-16.056013 27.894626 -30.29728
-15.544991 28.557865 -29.255416
-15.418038 29.991283 -31.355178
-15.49857 29.302201 -30.350274
-18.174474 27.699078 -37.175684
-17.593151 28.078235 -35.966797
-25.415138 6.230332 -23.017323
-26.165809 5.294327 -22.968022
-25.273235 5.242427 -21.985475
-25.667544 7.162047 -24.149245
-25.415138 6.230332 -23.017323
-24.774969 7.110147 -23.166698
-25.871891 8.154487 -25.290015
-25.667544 7.162047 -24.149245
-25.192856 9.012757 -25.41443
-26.037373 9.125381 -26.405825
-25.871891 8.154487 -25.290015
-15.863831 18.302899 -16.150965
-15.95668 17.625689 -15.468536
-15.804075 19.130527 -16.939682
-15.438547 20.699542 -17.112517
-15.745027 19.832504 -17.748534
-16.170311 17.435861 -16.786983
-15.863831 18.302899 -16.150965
-15.804075 19.130527 -16.939682
-15.696279 25.473228 -25.035918
-15.735068 24.699331 -24.054177
-15.209711 26.18786 -24.054108
-15.675932 26.253874 -26.047719
-16.20129 24.765345 -26.047787
-15.696279 25.473228 -25.035918
-15.660952 26.96098 -27.128702
-15.675932 26.253874 -26.047719
-23.488198 21.228737 -37.453398
-24.308684 20.365225 -37.499943
-23.604999 20.279697 -36.213934
-23.411107 22.133696 -38.744011
-23.488198 21.228737 -37.453398
-22.707422 22.048169 -37.458002
-23.295108 23.003574 -40.029854
-23.411107 22.133696 -38.744011
-23.145474 23.812631 -41.208969
-23.295108 23.003574 -40.029854
-22.480697 23.762185 -39.92773
-22.976814 24.622241 -42.500252
-23.145474 23.812631 -41.208969
-22.762221 25.454154 -43.808172
-22.976814 24.622241 -42.500252
-22.116469 25.403154 -42.414766
-18.766376 27.542105 -38.51129
-18.909826 26.787129 -37.373233
-18.174474 27.699078 -37.175684
-19.333112 27.365286 -39.880798
-18.766376 27.542105 -38.51129
-19.98335 27.187056 -41.144968
-20.151965 26.451927 -39.973009
-19.333112 27.365286 -39.880798
-20.488228 27.094449 -42.37854
-19.98335 27.187056 -41.144968
-21.352039 26.254382 -42.479933
-20.488228 27.094449 -42.37854
-25.178804 17.552029 -34.789349
-25.187841 16.622698 -33.606623
-24.429516 18.412879 -34.930262
-25.174771 18.555335 -36.119566
-25.178804 17.552029 -34.789349
-16.686793 14.401181 -15.15069
-16.287508 15.926593 -15.262402
-16.629351 15.082821 -15.886554
-16.699156 13.723128 -14.373752
-16.686793 14.401181 -15.15069
-17.040999 12.879356 -14.997905
-18.937278 8.623 -16.043104
-18.436042 10.067204 -16.198069
-18.937278 8.623 -16.043104
-19.517584 8.254974 -16.834975
-21.311908 5.560072 -17.438862
-20.628352 5.913768 -16.669093
-20.726282 6.76176 -17.562264
-22.054831 5.391044 -18.309991
-21.311908 5.560072 -17.438862
-22.160089 6.286691 -19.232193
-22.805083 5.269673 -19.210151
-22.054831 5.391044 -18.309991
-16.982905 28.427796 -34.71986
-17.593151 28.078235 -35.966797
-17.707678 27.293663 -34.790691
-16.982905 28.427796 -34.71986
-16.494563 28.806635 -33.543098
-15.950644 29.304503 -32.46729
-15.418038 29.991283 -31.355178
-25.129238 19.498921 -37.402578
-24.308684 20.365225 -37.499943
3 0 75 76
3 77 21 78
3 77 78 79
3 80 23 81
3 83 82 23
3 1 27 25
3 2 84 86
3 86 85 28
3 84 85 86
3 2 87 89
3 87 29 88
3 87 88 89
3 3 32 30
3 3 34 32
3 3 36 34
3 4 39 37
3 4 41 39
3 4 43 41
3 5 45 20
3 5 46 45
3 7 90 92
3 90 47 91
3 90 91 92
3 7 48 47
3 7 50 48
3 9 51 22
3 9 52 51
3 9 54 52
3 95 94 24
3 93 94 95
3 11 56 55
3 12 57 26
3 12 96 98
3 98 97 57
3 96 97 98
3 13 99 100
3 13 101 103
3 101 58 102
3 101 102 103
3 6 104 105
3 107 106 31
3 14 108 110
3 110 109 33
3 108 109 110
3 14 111 113
3 111 59 112
3 111 112 113
3 14 60 59
3 15 61 35
3 15 62 61
3 8 63 49
3 16 64 38
3 16 65 64
3 16 66 65
3 17 67 40
3 17 68 67
3 17 69 68
3 18 70 42
3 18 71 70
3 10 72 53
3 19 73 44
3 19 74 73
3 19 114 116
3 116 115 74
3 114 115 116
3 117 20 118
3 21 119 121
3 119 20 120
3 119 120 121
3 21 5 20
3 122 7 123
3 124 22 125
3 126 125 7
3 124 125 126
3 23 127 129
3 127 22 128
3 127 128 129
3 23 9 22
3 23 24 9
3 130 24 131
3 132 131 23
3 130 131 132
3 134 133 24
3 25 26 11
3 27 26 25
3 27 12 26
3 28 135 136
3 138 137 28
3 29 139 140
3 29 141 143
3 141 13 142
3 141 142 143
3 30 31 6
3 32 31 30
3 32 144 146
3 146 145 31
3 144 145 146
3 32 147 149
3 147 33 148
3 147 148 149
3 34 33 32
3 34 14 33
3 34 35 14
3 36 35 34
3 36 15 35
3 37 38 8
3 39 38 37
3 39 16 38
3 39 40 16
3 41 40 39
3 41 17 40
3 41 42 17
3 43 42 41
3 43 18 42
3 150 44 151
3 152 151 10
3 150 151 152
3 153 44 154
3 155 19 156
3 157 156 44
3 155 156 157
3 159 158 19
3 161 160 1
3 20 162 164
3 162 163 164
3 45 165 167
3 167 166 20
3 165 166 167
3 45 168 169
3 45 170 172
3 170 28 171
3 170 171 172
3 46 28 45
3 46 2 28
3 173 6 174
3 47 175 177
3 175 176 177
3 47 178 180
3 178 6 179
3 178 179 180
3 47 30 6
3 48 30 47
3 48 3 30
3 48 49 3
3 50 49 48
3 50 8 49
3 22 50 7
3 51 50 22
3 51 8 50
3 51 37 8
3 52 37 51
3 52 4 37
3 52 53 4
3 54 53 52
3 54 10 53
3 24 54 9
3 181 54 182
3 183 182 24
3 181 182 183
3 184 10 185
3 186 185 54
3 184 185 186
3 188 187 10
3 55 189 191
3 191 190 0
3 189 190 191
3 56 192 194
3 194 193 55
3 192 193 194
3 56 195 196
3 26 56 11
3 57 56 26
3 57 197 199
3 199 198 56
3 197 198 199
3 57 200 201
3 204 203 57
3 202 203 204
3 205 27 206
3 207 206 1
3 205 206 207
3 208 27 209
3 210 12 211
3 212 211 27
3 210 211 212
3 213 12 214
3 216 215 12
3 58 217 218
3 58 219 221
3 219 0 220
3 219 220 221
3 31 222 224
3 224 223 6
3 222 223 224
3 227 226 31
3 225 226 227
3 33 228 229
3 231 230 33
3 59 232 234
3 232 233 234
3 59 235 236
3 59 237 239
3 237 21 238
3 237 238 239
3 60 21 59
3 60 5 21
3 35 60 14
3 61 60 35
3 61 5 60
3 61 46 5
3 62 46 61
3 62 2 46
3 49 36 3
3 63 36 49
3 63 15 36
3 38 63 8
3 64 63 38
3 64 15 63
3 64 62 15
3 65 62 64
3 65 2 62
3 65 29 2
3 66 29 65
3 66 13 29
3 40 66 16
3 67 66 40
3 67 13 66
3 67 58 13
3 68 58 67
3 68 0 58
3 68 55 0
3 69 55 68
3 69 11 55
3 42 69 17
3 70 69 42
3 70 11 69
3 70 25 11
3 71 25 70
3 71 1 25
3 53 43 4
3 72 43 53
3 72 18 43
3 44 72 10
3 73 72 44
3 73 18 72
3 73 71 18
3 74 71 73
3 74 1 71
3 74 240 242
3 242 241 1
3 240 241 242
3 244 243 74
3 246 245 19
3 248 247 0
