ply
format ascii 1.0
element vertex 334
property float x
property float y
property float z
element face 350
property list uchar int vertex_index
end_header
-10.129201 -85.383118 22.528307
-1.581392 -95.756882 0.864174
-17.518099 -86.510826 23.807789
-14.265622 -93.330376 13.217782
-6.116774 -91.205261 11.610236
-10.867319 -99.412415 2.218378
-19.213346 -82.871529 28.87532
-19.327646 -89.343277 19.099689
-12.325427 -82.169365 28.294405
-6.321572 -83.753929 21.935787
-4.124206 -86.63089 16.419106
-8.075419 -88.333252 17.021263
-16.802374 -96.689102 8.392347
-12.845732 -96.710205 7.519037
-15.257839 -99.994003 2.843173
-13.256799 -102.783119 -2.590271
-3.908505 -99.850021 -3.992502
-15.77446 -82.959206 28.738903
-13.922832 -86.296234 23.380836
-12.029211 -89.638779 17.688686
-15.866362 -89.941818 18.648777
-18.209824 -93.119141 13.787756
-1.902687 -89.26403 11.116406
-3.996443 -93.810524 6.179995
-10.416962 -92.73909 12.295582
-8.451479 -95.627571 6.768939
-6.112347 -97.951721 1.358117
-8.719423 -101.740929 -3.17672
-10.917928 -104.792297 -7.721639
-11.232192 -83.730957 25.513807
-10.492888 -81.550278 27.938648
-9.351431 -83.122681 25.052341
-7.468681 -82.233231 24.825682
-8.167554 -84.598885 22.202744
-7.101701 -86.105583 19.370054
-9.094199 -86.877052 19.754707
-16.107285 -98.432518 5.547693
-0.435586 -96.52034 -1.715357
-2.739499 -97.902901 -1.651915
-18.352308 -84.652069 26.439749
-17.552744 -82.983521 28.955221
-16.683348 -84.660881 26.488136
-14.915095 -84.586838 26.189226
-15.85409 -86.445709 23.777771
-14.90249 -88.09285 21.144352
-16.635166 -88.180496 21.341049
-18.721285 -91.181709 16.585331
-5.147994 -89.00647 13.965924
-3.149048 -88.120735 13.669392
-3.952642 -90.351257 11.19644
-2.932927 -91.685745 8.474055
-5.095767 -92.606201 8.841105
-13.292128 -91.482697 15.610081
-11.266647 -91.163475 15.076377
-12.319373 -93.101738 12.786457
-11.87146 -98.086983 4.893762
-10.654531 -96.356224 7.003964
-9.472711 -97.581863 4.381485
-7.274163 -96.853302 4.039747
-8.460331 -98.782593 1.766624
-7.394283 -99.845047 -0.815919
-9.812329 -100.638283 -0.472933
-12.266256 -103.99295 -5.330165
-12.050659 -105.940605 -9.810567
-20.050329 -84.311981 26.311066
-19.136368 -86.099342 24.056784
-18.481009 -87.922211 21.549595
-20.093378 -87.389656 21.599236
-4.40045 -82.852165 21.64559
-3.31744 -84.29068 18.924057
-5.291974 -85.114723 19.336012
-6.054072 -87.451057 16.761475
-7.087618 -89.763687 14.332277
-15.542757 -95.071686 10.860429
-13.513172 -95.046448 10.359493
-14.845695 -96.744392 8.110745
-14.101925 -98.349197 5.331278
-13.101516 -99.784233 2.631133
-12.150612 -101.201057 -0.17686
-14.075393 -82.622734 28.596853
-13.074278 -84.244827 25.875313
-11.989325 -85.890694 22.988901
-10.996767 -87.541306 20.080627
-12.950107 -87.945442 20.581238
-13.962584 -89.732574 18.43482
-15.146972 -91.68557 15.919973
-17.628981 -89.738739 19.007435
-17.020414 -91.70591 16.100983
-16.302433 -93.374771 13.547482
-17.518616 -94.960518 11.064866
-18.745066 -96.209717 8.792126
-1.724772 -92.642212 6.009581
-2.82992 -94.906624 3.459706
-10.080403 -89.078415 17.339134
-9.288564 -90.609871 14.658748
-8.217362 -92.011131 11.943481
-11.496668 -94.854721 9.753918
-9.409108 -94.215248 9.506427
-7.189454 -93.464218 9.126081
-6.289961 -94.828957 6.445815
-4.997177 -95.910843 3.746554
-3.929815 -97.061111 0.947416
-4.987892 -98.976883 -1.352737
-6.378362 -100.828903 -3.414489
-7.395277 -102.61895 -5.918517
-10.999816 -102.451408 -2.995399
-9.843297 -103.422607 -5.57332
-8.711285 -104.226517 -8.096743
-1.008489 -96.138611 -0.425592
0.118696 -95.479919 -0.515839
-0.454207 -95.098191 0.773926
-20.401457 -84.901161 25.149137
-20.791103 -83.977207 26.206426
-19.944477 -85.794841 24.021996
-19.593349 -85.205661 25.183925
-20.401457 -84.901161 25.149137
-20.422982 -86.439999 22.793222
-19.614873 -86.744499 22.82801
-19.944477 -85.794841 24.021996
-11.934791 -81.077065 29.494173
-12.826278 -81.424557 29.568661
-10.168422 -80.403168 29.199273
-9.609067 -81.164944 27.804905
-5.981685 -82.57283 23.222879
-6.555239 -81.812481 24.667826
-6.895126 -82.99358 23.380735
-5.361011 -83.303047 21.790689
-5.021124 -82.121948 23.07778
-5.981685 -82.57283 23.222879
-14.83121 -100.691147 1.557707
-13.753049 -100.586262 1.451687
-14.179678 -99.889118 2.737153
-3.314438 -100.134243 -5.230704
-2.695267 -99.167068 -4.062179
-4.522343 -100.754833 -5.102717
-3.314438 -100.134243 -5.230704
-18.890259 -82.034859 30.177558
-19.691985 -81.967884 30.037359
-16.338609 -82.121906 30.028066
-17.227751 -82.134064 30.136225
-16.663602 -82.971363 28.847062
-15.48802 -82.006664 29.961844
-16.338609 -82.121906 30.028066
-14.924926 -82.79097 28.667878
-14.638486 -81.838428 29.890819
-15.48802 -82.006664 29.961844
-19.575394 -95.837208 8.92071
-19.039417 -95.274887 10.138593
-20.093615 -96.459015 7.661736
-19.263286 -96.831524 7.533152
-19.575394 -95.837208 8.92071
-3.171484 -86.153454 16.336022
-2.768101 -84.983349 17.588498
-3.720823 -85.460785 17.671582
-1.47528 -88.055359 12.451738
-2.09846 -87.483711 13.728231
-2.525867 -88.692383 12.392899
-0.906595 -88.655597 11.168774
-1.47528 -88.055359 12.451738
-1.303831 -89.794189 9.858196
-0.906595 -88.655597 11.168774
-10.34535 -105.137089 -8.926157
-9.242028 -104.854198 -9.113709
-9.814607 -104.509407 -7.909191
-11.368742 -106.222217 -10.984429
-12.392342 -106.375427 -10.887512
-9.038338 -81.951145 26.361751
-9.609067 -81.164944 27.804905
-9.922159 -82.336479 26.495494
-8.410056 -82.677956 24.939011
-8.096963 -81.506421 26.248422
-9.038338 -81.951145 26.361751
-17.087965 -98.25439 5.753633
-16.45483 -97.56081 6.97002
-17.43551 -97.382683 7.17596
-16.736942 -99.163922 4.289991
-17.087965 -98.25439 5.753633
-16.312219 -99.944664 2.937731
-15.682562 -99.213261 4.195433
-16.736942 -99.163922 4.289991
-15.86047 -100.708489 1.637833
-16.312219 -99.944664 2.937731
0.734344 -95.755554 -1.773401
1.288626 -94.715134 -0.573883
0.118696 -95.479919 -0.515839
0.167271 -96.802017 -3.019278
0.734344 -95.755554 -1.773401
-0.958808 -97.502228 -2.923606
0.167271 -96.802017 -3.019278
-2.110764 -98.193509 -2.891885
-0.958808 -97.502228 -2.923606
-1.587542 -97.211621 -1.683636
-3.324002 -98.876461 -2.822208
-2.695267 -99.167068 -4.062179
-2.110764 -98.193509 -2.891885
-19.523942 -90.848461 16.639277
-19.024466 -90.262493 17.84251
-19.827123 -89.929245 17.896456
-19.277652 -91.811283 15.358477
-19.523942 -90.848461 16.639277
-19.021922 -92.779999 13.95969
-18.465555 -92.150425 15.186543
-19.277652 -91.811283 15.358477
-18.771797 -93.729599 12.636408
-19.021922 -92.779999 13.95969
-13.370557 -104.07941 -5.156916
-12.761527 -103.388035 -3.960218
-13.865828 -103.474495 -3.786969
-12.706194 -104.589764 -6.439165
-13.370557 -104.07941 -5.156916
-12.03203 -104.989437 -7.634901
-11.592092 -104.392623 -6.525902
-12.706194 -104.589764 -6.439165
-12.598395 -105.563591 -8.679365
-11.484293 -105.366451 -8.766103
-12.03203 -104.989437 -7.634901
-13.098069 -106.037693 -9.736234
-12.598395 -105.563591 -8.679365
-13.439752 -106.472515 -10.813178
-12.392342 -106.375427 -10.887512
-13.098069 -106.037693 -9.736234
-20.004078 -82.677765 28.74906
-19.691985 -81.967884 30.037359
-20.42257 -83.397991 27.466932
-20.791103 -83.977207 26.206426
-19.631838 -83.591755 27.593193
-20.004078 -82.677765 28.74906
-20.42257 -83.397991 27.466932
-20.836086 -86.948765 21.576352
-20.422982 -86.439999 22.793222
-20.518825 -87.997292 20.31696
-20.836086 -86.948765 21.576352
-21.261533 -87.5564 20.294075
-20.135959 -88.974102 19.067186
-19.710512 -88.366467 20.349463
-20.518825 -87.997292 20.31696
-19.827123 -89.929245 17.896456
-20.135959 -88.974102 19.067186
-11.018521 -80.767521 29.316294
-11.934791 -81.077065 29.494173
-11.409157 -81.859822 28.116526
-11.018521 -80.767521 29.316294
-10.168422 -80.403168 29.199273
-7.147398 -81.116948 26.023972
-8.096963 -81.506421 26.248422
-7.147398 -81.116948 26.023972
-6.555239 -81.812481 24.667826
-4.101069 -81.702973 22.909198
-5.021124 -82.121948 23.07778
-3.484135 -82.424511 21.506586
-4.101069 -81.702973 22.909198
-3.858945 -83.571422 20.284824
-2.942629 -83.143768 20.14582
-3.484135 -82.424511 21.506586
-13.277597 -101.294674 0.047691
-12.626064 -100.492645 1.227137
-13.753049 -100.586262 1.451687
-13.83069 -102.085704 -1.159015
-12.703706 -101.992088 -1.383566
-13.277597 -101.294674 0.047691
-14.83121 -100.691147 1.557707
-15.86047 -100.708489 1.637833
-14.349753 -102.787094 -2.357425
-13.83069 -102.085704 -1.159015
-13.865828 -103.474495 -3.786969
-14.349753 -102.787094 -2.357425
-18.059959 -82.090855 30.217509
-18.890259 -82.034859 30.177558
-18.383045 -82.927525 28.91527
-18.059959 -82.090855 30.217509
-17.227751 -82.134064 30.136225
-13.701261 -81.651241 29.719884
-14.638486 -81.838428 29.890819
-13.20041 -82.39605 28.445629
-12.826278 -81.424557 29.568661
-13.701261 -81.651241 29.719884
-18.426192 -94.650287 11.274964
-17.86422 -94.039829 12.426311
-18.771797 -93.729599 12.636408
-18.131841 -95.585117 9.928496
-18.426192 -94.650287 11.274964
-19.039417 -95.274887 10.138593
-18.406855 -97.14299 7.37585
-17.43551 -97.382683 7.17596
-17.77372 -96.44941 8.592236
-18.406855 -97.14299 7.37585
-19.263286 -96.831524 7.533152
-1.095995 -94.688271 2.140487
-0.454207 -95.098191 0.773926
-2.376436 -83.838306 18.813215
-2.942629 -83.143768 20.14582
-2.376436 -83.838306 18.813215
-2.768101 -84.983349 17.588498
-2.683905 -86.898376 14.961165
-3.171484 -86.153454 16.336022
-3.636627 -87.375812 15.044249
-2.683905 -86.898376 14.961165
-2.09846 -87.483711 13.728231
-1.81895 -91.005046 8.537021
-1.303831 -89.794189 9.858196
-2.417807 -90.474887 9.79523
-1.214873 -91.48328 7.304783
-1.81895 -91.005046 8.537021
-2.32885 -92.163978 7.241818
-0.700682 -92.049008 5.979506
-1.214873 -91.48328 7.304783
-1.167685 -93.130935 4.713191
-0.700682 -92.049008 5.979506
-1.72026 -94.263141 3.438254
-1.167685 -93.130935 4.713191
-2.277346 -93.774418 4.734643
-2.205656 -95.331753 2.16194
-1.095995 -94.688271 2.140487
-1.72026 -94.263141 3.438254
-5.757272 -101.244274 -4.813711
-4.522343 -100.754833 -5.102717
-5.143434 -100.339462 -3.703495
-6.265729 -102.139297 -6.065725
-5.757272 -101.244274 -4.813711
-6.886819 -101.723927 -4.666503
-6.84329 -102.975605 -7.202545
-6.265729 -102.139297 -6.065725
-7.501294 -103.779389 -8.291658
-6.84329 -102.975605 -7.202545
-8.053281 -103.422733 -7.00763
-8.12697 -104.491623 -9.268192
-7.501294 -103.779389 -8.291658
-8.12697 -104.491623 -9.268192
-9.242028 -104.854198 -9.113709
-10.911715 -105.711242 -9.970622
-10.34535 -105.137089 -8.926157
-11.484293 -105.366451 -8.766103
-10.911715 -105.711242 -9.970622
-11.368742 -106.222217 -10.984429
3 0 31 29
3 0 33 31
3 0 35 33
3 1 108 110
3 108 37 109
3 108 109 110
3 1 38 37
3 2 41 39
3 2 43 41
3 2 45 43
3 4 49 47
3 4 51 49
3 3 54 52
3 5 57 55
3 5 59 57
3 5 61 59
3 111 64 112
3 113 65 114
3 115 114 64
3 113 114 115
3 116 67 117
3 118 117 65
3 116 117 118
3 8 119 120
3 122 121 30
3 9 123 125
3 125 124 32
3 123 124 125
3 9 126 128
3 126 68 127
3 126 127 128
3 9 70 68
3 11 71 34
3 11 72 71
3 12 75 73
3 14 76 36
3 14 77 76
3 14 129 131
3 131 130 77
3 129 130 131
3 16 132 133
3 16 134 135
3 6 136 137
3 17 138 140
3 140 139 40
3 138 139 140
3 17 141 142
3 17 143 145
3 143 79 144
3 143 144 145
3 18 80 42
3 18 81 80
3 18 83 81
3 20 84 44
3 20 85 84
3 7 86 66
3 21 87 46
3 21 88 87
3 21 89 88
3 146 90 147
3 150 149 90
3 148 149 150
3 10 151 153
3 153 152 69
3 151 152 153
3 22 154 156
3 156 155 48
3 154 155 156
3 22 157 158
3 22 159 160
3 23 91 50
3 23 92 91
3 19 93 82
3 24 94 53
3 24 95 94
3 13 96 74
3 25 97 56
3 25 98 97
3 25 99 98
3 26 100 58
3 26 101 100
3 26 102 101
3 27 103 60
3 27 104 103
3 15 105 78
3 28 106 62
3 28 107 106
3 28 161 163
3 163 162 107
3 161 162 163
3 165 164 63
3 29 30 8
3 31 30 29
3 31 166 168
3 168 167 30
3 166 167 168
3 31 169 171
3 169 32 170
3 169 170 171
3 33 32 31
3 33 9 32
3 33 34 9
3 35 34 33
3 35 11 34
3 172 36 173
3 174 173 12
3 172 173 174
3 175 36 176
3 177 14 178
3 179 178 36
3 177 178 179
3 181 180 14
3 37 182 184
3 182 183 184
3 37 185 186
3 37 187 188
3 38 189 191
3 191 190 37
3 189 190 191
3 38 192 194
3 192 16 193
3 192 193 194
3 39 40 6
3 41 40 39
3 41 17 40
3 41 42 17
3 43 42 41
3 43 18 42
3 43 44 18
3 45 44 43
3 45 20 44
3 195 46 196
3 197 196 7
3 195 196 197
3 198 46 199
3 200 21 201
3 202 201 46
3 200 201 202
3 204 203 21
3 47 48 10
3 49 48 47
3 49 22 48
3 49 50 22
3 51 50 49
3 51 23 50
3 52 53 19
3 54 53 52
3 54 24 53
3 55 56 13
3 57 56 55
3 57 25 56
3 57 58 25
3 59 58 57
3 59 26 58
3 59 60 26
3 61 60 59
3 61 27 60
3 205 62 206
3 207 206 15
3 205 206 207
3 208 62 209
3 210 28 211
3 212 211 62
3 210 211 212
3 213 63 214
3 215 214 28
3 213 214 215
3 216 63 217
3 220 219 63
3 218 219 220
3 221 6 222
3 64 223 224
3 64 225 227
3 225 6 226
3 225 226 227
3 64 39 6
3 65 39 64
3 65 2 39
3 65 66 2
3 67 66 65
3 67 7 66
3 228 67 229
3 230 67 231
3 230 231 232
3 233 7 234
3 235 234 67
3 233 234 235
3 237 236 7
3 30 238 240
3 240 239 8
3 238 239 240
3 242 241 30
3 32 243 244
3 246 245 32
3 68 247 248
3 68 249 250
3 68 251 253
3 251 69 252
3 251 252 253
3 70 69 68
3 70 10 69
3 34 70 9
3 71 70 34
3 71 10 70
3 71 47 10
3 72 47 71
3 72 4 47
3 73 74 3
3 75 74 73
3 75 13 74
3 36 75 12
3 76 75 36
3 76 13 75
3 76 55 13
3 77 55 76
3 77 5 55
3 77 78 5
3 254 78 255
3 256 255 77
3 254 255 256
3 257 15 258
3 259 258 78
3 257 258 259
3 261 260 14
3 262 15 263
3 265 264 15
3 40 266 268
3 268 267 6
3 266 267 268
3 270 269 40
3 79 271 272
3 79 273 275
3 273 8 274
3 273 274 275
3 42 79 17
3 80 79 42
3 80 8 79
3 80 29 8
3 81 29 80
3 81 0 29
3 81 82 0
3 83 82 81
3 83 19 82
3 44 83 18
3 84 83 44
3 84 19 83
3 84 52 19
3 85 52 84
3 85 3 52
3 66 45 2
3 86 45 66
3 86 20 45
3 46 86 7
3 87 86 46
3 87 20 86
3 87 85 20
3 88 85 87
3 88 3 85
3 88 73 3
3 89 73 88
3 89 12 73
3 276 89 277
3 278 277 21
3 276 277 278
3 90 279 281
3 279 89 280
3 279 280 281
3 90 12 89
3 90 282 284
3 284 283 12
3 282 283 284
3 286 285 90
3 287 1 288
3 69 289 290
3 292 291 69
3 48 293 295
3 295 294 10
3 293 294 295
3 297 296 48
3 50 298 300
3 300 299 22
3 298 299 300
3 91 301 303
3 303 302 50
3 301 302 303
3 91 304 305
3 91 306 307
3 92 308 310
3 310 309 91
3 308 309 310
3 92 311 313
3 311 1 312
3 311 312 313
3 82 35 0
3 93 35 82
3 93 11 35
3 53 93 19
3 94 93 53
3 94 11 93
3 94 72 11
3 95 72 94
3 95 4 72
3 74 54 3
3 96 54 74
3 96 24 54
3 56 96 13
3 97 96 56
3 97 24 96
3 97 95 24
3 98 95 97
3 98 4 95
3 98 51 4
3 99 51 98
3 99 23 51
3 58 99 25
3 100 99 58
3 100 23 99
3 100 92 23
3 101 92 100
3 101 1 92
3 101 38 1
3 102 38 101
3 102 16 38
3 60 102 26
3 103 102 60
3 103 16 102
3 103 314 316
3 316 315 16
3 314 315 316
3 104 317 319
3 319 318 103
3 317 318 319
3 104 320 321
3 78 61 5
3 105 61 78
3 105 27 61
3 62 105 15
3 106 105 62
3 106 27 105
3 106 104 27
3 107 104 106
3 107 322 324
3 324 323 104
3 322 323 324
3 107 325 326
3 328 327 107
3 63 329 331
3 331 330 28
3 329 330 331
3 333 332 63
