ply
format ascii 1.0
element vertex 161
property float x
property float y
property float z
element face 146
property list uchar int vertex_index
end_header
-37.724838 -11.030354 9.859914
-35.84803 -19.806217 7.61036
-36.566586 -15.621774 8.857738
-34.111698 -15.771411 5.478236
-38.668499 -23.611755 13.996209
-38.966648 -6.366356 10.667436
-38.503643 -15.289291 12.627016
-37.837139 -19.796106 11.522815
-37.399246 -23.690491 9.939051
-33.564194 -19.393545 4.071786
-38.641602 -10.721183 11.644296
-38.882057 -13.008667 13.056209
-38.102535 -13.186568 11.181181
-36.153458 -17.845276 8.291886
-37.217979 -17.757687 10.149066
-36.908157 -19.880304 9.522492
-37.534077 -21.865908 10.667974
-36.655296 -21.841465 8.699372
-36.551285 -11.358864 8.077324
-37.090702 -13.385955 9.361156
-35.813534 -13.70689 7.515121
-35.325741 -15.840899 7.049081
-34.9263 -17.827847 6.441706
-39.156513 -8.434867 12.098418
-38.313 -8.690154 10.186785
-38.021519 -6.464181 8.781143
-37.31469 -8.964628 8.52673
-39.124599 -15.109071 14.545974
-38.833981 -17.368103 14.075858
-37.648308 -15.616595 10.76101
-38.122288 -17.571466 12.066286
-38.562859 -19.613943 13.510547
-38.26804 -21.847353 12.656407
-38.109238 -23.834982 11.932865
-33.688171 -17.626854 4.758682
-34.727791 -19.613762 5.824079
-35.734314 -21.6884 6.912224
-35.537396 -12.650431 6.981056
-36.182409 -12.532877 7.796223
-35.906271 -11.476418 7.262158
-34.718719 -15.806155 6.263659
-34.931602 -14.7796 6.476522
-34.324581 -14.744856 5.691099
-38.787678 -24.640655 14.574323
-38.858419 -23.588387 15.044066
-38.58502 -24.616979 13.505664
-38.787678 -24.640655 14.574323
-39.06158 -7.400612 11.382927
-39.404127 -7.234226 12.325655
-39.309195 -6.19997 11.610164
-37.44923 -6.661971 7.967291
-37.864439 -5.423708 8.093424
-37.095816 -7.912195 7.840084
-37.668104 -7.714404 8.653937
-37.44923 -6.661971 7.967291
-36.641785 -9.092477 7.628756
-37.095816 -7.912195 7.840084
-37.682914 -24.760803 10.429381
-38.03791 -24.833048 11.426289
-37.754242 -23.762737 10.935958
-33.626182 -18.510199 4.415234
-33.049518 -17.52181 3.932529
-32.98753 -18.405155 3.589081
-35.687345 -22.491688 6.425397
-35.203802 -21.494361 5.999377
-36.152901 -22.670852 7.405582
-35.687345 -22.491688 6.425397
-33.587289 -14.768054 4.864284
-34.324581 -14.744856 5.691099
-38.76234 -22.572063 14.400354
-38.858419 -23.588387 15.044066
-39.269268 -5.107682 10.880664
-39.309195 -6.19997 11.610164
-38.76183 -11.864925 12.350252
-39.099541 -11.803006 13.314168
-38.979313 -10.659263 12.608211
-32.9879 -19.168806 3.258362
-32.98753 -18.405155 3.589081
-32.411236 -18.180416 2.775656
-35.175499 -13.712595 6.709542
-35.537396 -12.650431 6.981056
-35.569637 -14.773895 7.282101
-35.175499 -13.712595 6.709542
-34.931602 -14.7796 6.476522
-39.444641 -8.222497 13.064991
-39.404127 -7.234226 12.325655
-39.236768 -9.516106 12.835273
-39.444641 -8.222497 13.064991
-38.899057 -9.578025 11.871357
-38.979313 -10.659263 12.608211
-39.236768 -9.516106 12.835273
-38.863325 -5.268061 9.933644
-39.269268 -5.107682 10.880664
-39.165945 -4.009387 10.146871
-38.39076 -5.316973 8.990497
-37.864439 -5.423708 8.093424
-38.494084 -6.415268 9.72429
-38.863325 -5.268061 9.933644
-38.39076 -5.316973 8.990497
-36.260082 -10.289595 7.404053
-36.932987 -10.161746 8.302027
-36.641785 -9.092477 7.628756
-35.906271 -11.476418 7.262158
-36.260082 -10.289595 7.404053
-39.16176 -12.829223 14.029153
-39.099541 -11.803006 13.314168
-39.283031 -13.879424 14.774035
-39.16176 -12.829223 14.029153
-39.003328 -14.058869 13.801092
-39.323528 -14.858709 15.521182
-39.283031 -13.879424 14.774035
-39.219009 -16.071463 15.343015
-39.323528 -14.858709 15.521182
-39.0737 -17.200979 15.107957
-39.219009 -16.071463 15.343015
-38.97929 -16.238587 14.310916
-38.96163 -18.325502 14.814029
-39.0737 -17.200979 15.107957
-38.826069 -19.448422 14.531374
-38.96163 -18.325502 14.814029
-38.69842 -18.491023 13.793202
-38.70952 -20.573156 14.157523
-38.826069 -19.448422 14.531374
-38.562111 -21.689861 13.730453
-38.70952 -20.573156 14.157523
-38.41545 -20.730648 13.083477
-38.468269 -22.729554 13.326308
-38.76234 -22.572063 14.400354
-38.562111 -21.689861 13.730453
-38.30539 -24.728592 12.473992
-38.58502 -24.616979 13.505664
-38.388869 -23.723368 12.964537
-38.30539 -24.728592 12.473992
-38.03791 -24.833048 11.426289
-33.440643 -15.794545 4.670822
-33.587289 -14.768054 4.864284
-33.228879 -16.722267 4.311046
-33.049518 -17.52181 3.932529
-33.899935 -16.699133 5.118459
-33.440643 -15.794545 4.670822
-33.228879 -16.722267 4.311046
-33.557875 -20.128976 3.645314
-32.9879 -19.168806 3.258362
-34.118742 -20.346933 4.579157
-33.557875 -20.128976 3.645314
-34.700541 -20.457042 5.455304
-34.145993 -19.503653 4.947933
-34.118742 -20.346933 4.579157
-35.231053 -20.651081 6.368151
-34.700541 -20.457042 5.455304
-35.203802 -21.494361 5.999377
-36.613391 -22.747384 8.299156
-36.194805 -21.764933 7.805798
-36.152901 -22.670852 7.405582
-36.985366 -23.671897 8.918995
-37.027271 -22.765978 9.319211
-36.613391 -22.747384 8.299156
-37.327219 -24.559351 9.391087
-36.985366 -23.671897 8.918995
-37.682914 -24.760803 10.429381
-37.327219 -24.559351 9.391087
3 0 12 10
3 1 15 13
3 1 17 15
3 37 20 38
3 39 38 18
3 37 38 39
3 3 40 42
3 40 21 41
3 40 41 42
3 3 22 21
3 4 43 44
3 4 45 46
3 5 47 49
3 47 23 48
3 47 48 49
3 5 24 23
3 50 25 51
3 52 26 53
3 54 53 25
3 52 53 54
3 56 55 26
3 6 27 11
3 6 28 27
3 2 29 19
3 7 30 14
3 7 31 30
3 7 32 31
3 8 33 16
3 8 57 59
3 59 58 33
3 57 58 59
3 9 60 62
3 60 34 61
3 60 61 62
3 9 35 34
3 63 36 64
3 66 65 36
3 67 3 68
3 69 4 70
3 71 5 72
3 10 73 75
3 73 11 74
3 73 74 75
3 12 11 10
3 12 6 11
3 13 14 2
3 15 14 13
3 15 7 14
3 15 16 7
3 17 16 15
3 17 8 16
3 76 9 77
3 76 77 78
3 18 19 0
3 20 19 18
3 20 2 19
3 79 20 80
3 21 81 83
3 81 20 82
3 81 82 83
3 21 2 20
3 21 13 2
3 22 13 21
3 22 1 13
3 23 84 85
3 23 86 87
3 23 88 90
3 88 10 89
3 88 89 90
3 24 10 23
3 24 0 10
3 91 5 92
3 91 92 93
3 25 94 95
3 25 96 98
3 96 5 97
3 96 97 98
3 25 24 5
3 26 24 25
3 26 0 24
3 26 18 0
3 99 18 100
3 101 100 26
3 99 100 101
3 103 102 18
3 11 104 105
3 27 106 108
3 108 107 11
3 106 107 108
3 27 109 110
3 27 111 112
3 28 113 115
3 115 114 27
3 113 114 115
3 28 116 117
3 19 12 0
3 29 12 19
3 29 6 12
3 14 29 2
3 30 29 14
3 30 6 29
3 30 28 6
3 31 28 30
3 31 118 120
3 120 119 28
3 118 119 120
3 31 121 122
3 32 123 125
3 125 124 31
3 123 124 125
3 32 126 128
3 126 4 127
3 126 127 128
3 16 32 7
3 33 32 16
3 33 4 32
3 33 129 131
3 131 130 4
3 129 130 131
3 133 132 33
3 134 3 135
3 34 136 137
3 34 138 140
3 138 3 139
3 138 139 140
3 34 22 3
3 35 22 34
3 35 1 22
3 141 9 142
3 143 9 144
3 145 35 146
3 147 146 9
3 145 146 147
3 36 148 150
3 148 35 149
3 148 149 150
3 36 1 35
3 36 17 1
3 151 17 152
3 153 152 36
3 151 152 153
3 154 8 155
3 156 155 17
3 154 155 156
3 157 8 158
3 160 159 8
