ply
format ascii 1.0
element vertex 174
property float x
property float y
property float z
element face 166
property list uchar int vertex_index
end_header
-26.590322 33.875092 -8.250269
-27.006483 21.00374 -7.32307
-31.960606 28.605862 -5.78777
-32.727123 23.309883 -5.585141
-34.346104 26.497383 -4.32702
-26.81629 27.396423 -8.042606
-24.088573 22.967949 -8.322462
-30.341753 19.327816 -6.079933
-29.768789 25.192122 -6.940632
-29.222195 31.045712 -7.119814
-34.849121 24.098719 -4.236974
-26.773832 30.536877 -8.194415
-25.48037 28.740551 -8.538354
-25.374027 31.980612 -8.740412
-32.176266 15.696325 -4.606751
-31.888891 18.475769 -5.334414
-32.373207 25.798111 -5.796213
-31.308832 24.00956 -6.275502
-30.985126 26.826368 -6.473747
-29.591263 28.087238 -7.078037
-30.640194 29.800699 -6.460022
-27.142086 17.819382 -6.773177
-25.605667 18.557062 -7.298264
-33.10981 20.715691 -5.139505
-34.032143 22.58169 -4.808507
-33.676582 24.943001 -5.045726
-33.213776 27.431387 -5.084584
-26.888041 24.215544 -7.750427
-25.509874 22.06547 -7.848816
-25.447855 25.272709 -8.244267
-24.159718 26.312708 -8.696445
-28.829338 17.020529 -6.139329
-28.69655 19.965637 -6.704515
-31.644352 21.265356 -5.881417
-30.102787 22.27519 -6.579997
-28.473955 23.077477 -7.182562
-28.234915 26.29303 -7.528934
-28.180967 29.277239 -7.650536
-27.944113 32.466057 -7.66715
-24.220617 19.724751 -7.831759
-33.82119 28.884066 -4.077179
-32.663857 30.03064 -4.888502
-31.409657 31.490988 -5.594223
-30.162405 32.619831 -6.317781
-28.944378 34.189194 -6.896219
-27.699579 35.64563 -7.512733
-25.951244 34.633223 -8.533504
-25.343097 33.685983 -8.778575
-25.982174 32.927852 -8.49534
-32.648097 18.235802 -4.925693
-32.032578 17.086047 -4.970582
-32.791784 16.846079 -4.561861
-32.791784 16.846079 -4.561861
-32.977351 15.559285 -4.160622
-34.640964 22.214382 -4.349383
-34.220695 21.37644 -4.56319
-24.115589 28.0124 -8.866982
-24.820044 27.526629 -8.6174
-24.775915 29.226322 -8.787937
-23.44126 26.89453 -8.959401
-24.115589 28.0124 -8.866982
-29.585546 18.174172 -6.109631
-29.630361 16.696437 -5.80482
-30.386568 17.85008 -5.775123
-33.489937 30.071509 -3.865373
-34.014202 29.350877 -3.479471
-32.911271 30.644796 -4.271034
-33.242524 29.457353 -4.482841
-33.489937 30.071509 -3.865373
-31.125106 32.802991 -5.412059
-31.735855 32.039666 -5.024093
-30.50148 33.367413 -5.773838
-30.786031 32.055409 -5.956002
-31.125106 32.802991 -5.412059
-28.764854 35.608225 -6.732727
-29.346303 34.852049 -6.389963
-28.142454 36.336443 -7.040983
-28.321979 34.917412 -7.204476
-28.764854 35.608225 -6.732727
-35.353815 23.842897 -3.780908
-35.049453 22.972897 -4.063617
-35.11898 24.789701 -3.879971
-35.353815 23.842897 -3.780908
-34.867472 25.989033 -3.924994
-34.597612 25.298051 -4.281997
-35.11898 24.789701 -3.879971
-24.722744 30.846353 -8.888965
-24.775915 29.226322 -8.787937
-25.427199 30.360582 -8.639383
-24.743595 32.684529 -9.002406
-24.722744 30.846353 -8.888965
-24.743595 32.684529 -9.002406
-25.343097 33.685983 -8.778575
-31.303824 16.034335 -5.038531
-31.50235 14.609685 -4.624532
-31.160137 17.424057 -5.402363
-31.303824 16.034335 -5.038531
-32.032578 17.086047 -4.970582
-31.115322 18.901792 -5.707173
-30.386568 17.85008 -5.775123
-31.160137 17.424057 -5.402363
-32.345127 14.353587 -4.175712
-32.977351 15.559285 -4.160622
-31.50235 14.609685 -4.624532
-32.345127 14.353587 -4.175712
-26.434538 16.568835 -6.729874
-26.522256 14.959067 -6.389057
-27.229804 16.209614 -6.432359
-25.666328 16.937675 -6.992418
-26.434538 16.568835 -6.729874
-26.373877 18.188222 -7.035721
-24.88768 17.411955 -7.28847
-25.666328 16.937675 -6.992418
-23.415886 21.766365 -8.330542
-23.413735 23.610799 -8.580728
-33.759529 20.443441 -4.728689
-33.258556 19.355762 -4.828238
-33.570977 21.648691 -4.974006
-33.759529 20.443441 -4.728689
-34.220695 21.37644 -4.56319
-34.440632 23.340204 -4.52274
-34.640964 22.214382 -4.349383
-35.049453 22.972897 -4.063617
-23.449308 25.283178 -8.76772
-23.413735 23.610799 -8.580728
-24.124146 24.640329 -8.509453
-23.449308 25.283178 -8.76772
-23.44126 26.89453 -8.959401
-28.957178 15.556695 -5.781458
-29.630361 16.696437 -5.80482
-28.07343 15.810187 -6.115436
-28.957178 15.556695 -5.781458
-27.985712 17.419956 -6.456253
-27.229804 16.209614 -6.432359
-28.07343 15.810187 -6.115436
-32.499351 19.59573 -5.236959
-32.648097 18.235802 -4.925693
-33.258556 19.355762 -4.828238
-24.195155 17.9958 -7.555217
-24.88768 17.411955 -7.28847
-24.913142 19.140906 -7.565011
-23.481907 20.144766 -8.085191
-24.154595 21.34635 -8.07711
-23.415886 21.766365 -8.330542
-23.488627 18.443189 -7.824225
-23.481907 20.144766 -8.085191
-24.195155 17.9958 -7.555217
-23.488627 18.443189 -7.824225
-34.637216 26.982121 -3.813257
-34.867472 25.989033 -3.924994
-34.374759 28.175462 -3.688337
-34.014202 29.350877 -3.479471
-34.083647 27.690725 -4.2021
-34.637216 26.982121 -3.813257
-34.374759 28.175462 -3.688337
-32.362955 31.309492 -4.671233
-32.911271 30.644796 -4.271034
-32.036757 30.760814 -5.241363
-32.362955 31.309492 -4.671233
-31.735855 32.039666 -5.024093
-29.955317 34.067368 -6.100744
-30.50148 33.367413 -5.773838
-29.553392 33.404512 -6.607
-29.955317 34.067368 -6.100744
-29.346303 34.852049 -6.389963
-27.56669 37.10981 -7.377521
-28.142454 36.336443 -7.040983
-27.11101 36.306927 -7.813128
-27.56669 37.10981 -7.377521
-26.556381 35.421658 -8.181897
-27.144951 34.760361 -7.881501
-27.11101 36.306927 -7.813128
-25.951244 34.633223 -8.533504
-26.556381 35.421658 -8.181897
3 0 13 11
3 0 46 48
3 48 47 13
3 46 47 48
3 49 15 50
3 51 50 14
3 49 50 51
3 2 18 16
3 2 20 18
3 52 14 53
3 1 22 21
3 54 24 55
3 4 25 10
3 4 26 25
3 5 29 27
3 56 30 57
3 58 57 12
3 56 57 58
3 60 59 30
3 7 61 63
3 61 31 62
3 61 62 63
3 7 32 31
3 3 33 23
3 8 34 17
3 8 35 34
3 8 36 35
3 9 37 19
3 9 38 37
3 6 39 28
3 64 40 65
3 66 41 67
3 68 67 40
3 66 67 68
3 69 42 70
3 71 43 72
3 73 72 42
3 71 72 73
3 74 44 75
3 76 45 77
3 78 77 44
3 76 77 78
3 79 10 80
3 81 10 82
3 83 4 84
3 85 84 10
3 83 84 85
3 11 12 5
3 13 12 11
3 13 86 88
3 88 87 12
3 86 87 88
3 13 89 90
3 92 91 13
3 14 93 94
3 15 95 97
3 97 96 14
3 95 96 97
3 15 98 100
3 98 7 99
3 98 99 100
3 16 17 3
3 18 17 16
3 18 8 17
3 18 19 8
3 20 19 18
3 20 9 19
3 14 101 102
3 14 103 104
3 21 105 107
3 105 106 107
3 22 108 110
3 110 109 21
3 108 109 110
3 22 111 112
3 114 113 6
3 115 23 116
3 24 117 119
3 117 23 118
3 117 118 119
3 24 3 23
3 10 120 122
3 120 24 121
3 120 121 122
3 25 24 10
3 25 3 24
3 25 16 3
3 26 16 25
3 26 2 16
3 27 28 1
3 29 28 27
3 29 6 28
3 12 29 5
3 30 29 12
3 30 6 29
3 30 123 125
3 125 124 6
3 123 124 125
3 127 126 30
3 31 128 129
3 31 130 131
3 31 132 134
3 132 21 133
3 132 133 134
3 32 21 31
3 32 1 21
3 23 135 137
3 135 15 136
3 135 136 137
3 33 15 23
3 33 7 15
3 17 33 3
3 34 33 17
3 34 7 33
3 34 32 7
3 35 32 34
3 35 1 32
3 35 27 1
3 36 27 35
3 36 5 27
3 19 36 8
3 37 36 19
3 37 5 36
3 37 11 5
3 38 11 37
3 38 0 11
3 28 22 1
3 39 22 28
3 39 138 140
3 140 139 22
3 138 139 140
3 141 39 142
3 143 142 6
3 141 142 143
3 144 39 145
3 147 146 39
3 148 4 149
3 40 150 151
3 40 152 154
3 152 4 153
3 152 153 154
3 40 26 4
3 41 26 40
3 41 2 26
3 155 41 156
3 42 157 159
3 157 41 158
3 157 158 159
3 42 2 41
3 42 20 2
3 43 20 42
3 43 9 20
3 160 43 161
3 44 162 164
3 162 43 163
3 162 163 164
3 44 9 43
3 44 38 9
3 45 38 44
3 45 0 38
3 165 45 166
3 167 45 168
3 169 0 170
3 171 170 45
3 169 170 171
3 173 172 0
