ply
format ascii 1.0
element vertex 300
property float x
property float y
property float z
element face 309
property list uchar int vertex_index
end_header
13.464132 60.684536 47.224503
7.788511 67.332054 39.135071
5.768942 52.786938 46.534042
9.629138 80.467567 29.711304
15.572306 75.611443 37.837547
2.732856 78.019577 26.680838
6.66969 82.372482 25.617872
5.749183 76.443893 30.475183
10.646885 64.421936 43.072845
11.619124 71.370583 38.772312
14.463529 68.461357 42.717411
18.233772 71.834801 42.045895
17.248285 64.646339 46.734131
6.691823 59.850239 43.241848
9.502278 56.702152 46.943981
13.534868 84.834038 28.199711
8.756617 74.270538 34.522747
12.811666 78.454735 33.74456
16.443193 82.217316 32.439625
19.291204 79.042831 36.438156
8.595276 49.129765 50.233746
12.349298 52.986034 50.809872
15.156991 48.975937 54.454567
16.067297 56.692272 50.973591
4.197884 77.33223 28.48649
12.012352 62.412579 45.251472
12.612301 66.321564 43.081066
13.984997 64.491982 45.148262
15.849061 66.467873 44.866364
15.353656 62.608768 47.130798
4.343906 54.36002 44.769352
4.871537 57.918465 43.145168
6.258606 56.148132 45.068153
8.052547 58.374023 45.026508
7.695685 54.807209 46.759365
8.127953 81.573311 27.538622
10.084864 83.681168 26.94165
11.552681 82.711281 28.953894
6.208213 68.65889 37.070263
6.767687 72.109055 34.840973
8.197563 70.795898 36.872688
13.624142 73.407646 38.475132
12.21334 75.028351 36.26524
14.208841 77.063965 35.831284
14.63519 80.480385 33.067184
15.956764 79.049141 35.103279
17.9499 80.800789 34.43013
17.443676 77.458427 37.201378
10.029976 47.163666 52.12928
10.424411 51.005096 50.545856
11.872036 49.322258 52.319
15.714282 53.00235 52.756325
3.915337 50.599277 46.433369
3.211356 80.824638 24.340796
5.212799 83.00473 23.796669
4.763595 80.24984 26.183411
6.277532 79.494972 28.100616
7.6658 78.524033 30.057125
9.157479 65.620346 41.267078
9.681625 69.199081 39.096321
11.14467 67.852219 41.060005
12.991599 69.915848 40.761414
15.035342 71.937622 40.466705
16.873585 73.773094 39.987232
16.359945 69.961983 42.652847
17.783924 68.320442 44.455418
5.737008 65.023788 39.303631
3.250825 59.182076 41.319706
5.168313 61.316643 41.315613
7.103216 63.581764 41.206841
8.647472 61.98283 43.279053
10.159177 60.52993 45.181244
11.559645 58.691505 47.188713
7.12847 75.269112 32.516979
9.212802 77.357475 32.232796
10.200458 72.700645 36.786869
10.767974 76.172661 34.343437
11.300366 79.525215 31.769608
13.2218 81.741074 31.01095
15.071468 83.695343 30.272118
18.323143 84.014435 31.490515
18.74777 75.427979 39.374954
5.380119 49.211979 48.061966
6.809772 47.236534 49.94318
7.224986 51.076218 48.364807
9.114509 52.94619 48.689621
11.068623 54.992661 48.921001
12.888312 56.773376 49.128761
13.309015 47.102287 54.275158
13.754645 50.993275 52.680649
14.163237 54.826912 50.960136
14.713467 58.655216 49.15329
16.609615 60.702393 48.921551
10.806598 46.293291 53.044779
9.795122 45.37224 52.796948
11.727628 47.372587 53.139639
10.951006 48.242962 52.22414
10.806598 46.293291 53.044779
2.907475 49.751865 46.216179
3.187025 51.521259 45.499292
2.019213 78.50399 25.616377
1.089243 77.607681 25.694085
1.802887 77.123268 26.758546
2.972106 79.422107 25.510817
2.258462 79.90652 24.446356
2.019213 78.50399 25.616377
18.150619 65.408951 46.538963
18.418438 67.246002 45.399607
17.516104 66.48339 45.594774
4.718297 63.930524 39.324283
5.043715 65.654014 38.387158
3.084708 57.531628 42.16476
2.266381 58.29649 41.190077
6.851283 83.776073 24.323705
6.122838 84.092197 23.413104
5.941244 82.688606 24.70727
13.72984 86.314186 26.790582
12.792754 85.298794 27.229048
14.509631 85.780129 27.818159
13.72984 86.314186 26.790582
16.69697 83.815888 30.987676
16.011108 84.554901 29.903923
15.757331 82.956329 31.355871
17.383168 83.115876 31.96507
17.636946 84.714447 30.513121
16.69697 83.815888 30.987676
19.516039 80.757301 34.903543
18.845387 81.63628 33.89953
18.620552 79.92181 35.434143
20.156337 79.74424 35.919344
19.516039 80.757301 34.903543
5.160284 47.412598 48.774147
4.378878 48.176943 47.918659
4.159043 46.377561 48.63084
7.702524 48.183149 50.088463
7.477195 46.264043 50.840496
8.369947 47.210659 50.985779
14.993596 47.023611 55.277552
15.881654 47.942543 55.308033
14.233003 48.039112 54.364863
14.069609 46.086786 55.187847
14.993596 47.023611 55.277552
2.481065 76.478913 27.890733
1.802887 77.123268 26.758546
3.213579 76.135239 28.793559
3.46537 77.675904 27.583664
2.481065 76.478913 27.890733
3.968518 75.729469 29.725903
3.213579 76.135239 28.793559
4.744167 75.285301 30.720249
4.973534 76.888061 29.480837
3.968518 75.729469 29.725903
4.607722 56.139242 43.95726
3.895064 56.899822 43.077492
3.631248 55.1206 43.889584
8.309451 82.992379 26.265083
7.580319 83.391964 25.304708
7.398822 81.972897 26.578247
9.287907 84.046307 25.966597
8.309451 82.992379 26.265083
9.106409 82.62724 27.240136
10.26387 85.081947 25.6407
9.287907 84.046307 25.966597
11.067752 84.722359 26.600017
10.26387 85.081947 25.6407
11.801661 84.237415 27.606139
11.067752 84.722359 26.600017
10.818772 83.196224 27.947772
12.543774 83.77266 28.576802
12.792754 85.298794 27.229048
11.801661 84.237415 27.606139
6.48795 70.383972 35.955618
5.789694 70.964867 35.02821
5.509956 69.239784 36.142854
19.146742 72.729473 41.587032
18.915233 70.923867 42.913695
9.087297 46.227609 51.933546
9.795122 45.37224 52.796948
9.312626 48.146715 51.181513
8.369947 47.210659 50.985779
9.087297 46.227609 51.933546
16.138727 49.834499 54.513099
15.881654 47.942543 55.308033
16.417372 51.847706 53.663978
15.435637 50.989143 53.605446
16.138727 49.834499 54.513099
16.578682 53.869814 52.697567
16.417372 51.847706 53.663978
16.755189 55.714775 51.8062
15.89079 54.847311 51.864958
16.578682 53.869814 52.697567
16.974525 57.640549 50.829622
16.755189 55.714775 51.8062
3.40131 53.40163 44.667284
3.631248 55.1206 43.889584
4.129621 52.479648 45.60136
3.40131 53.40163 44.667284
3.187025 51.521259 45.499292
2.547193 81.332988 23.24783
2.258462 79.90652 24.446356
3.459218 82.240184 23.091228
2.547193 81.332988 23.24783
4.212078 81.914684 24.068733
4.459939 83.33023 22.819164
3.459218 82.240184 23.091228
18.690309 69.166687 44.118456
18.915233 70.923867 42.913695
18.008848 70.077621 43.250657
18.690309 69.166687 44.118456
18.418438 67.246002 45.399607
5.279317 67.471565 37.270473
5.509956 69.239784 36.142854
5.972611 66.841339 38.186947
5.279317 67.471565 37.270473
5.043715 65.654014 38.387158
2.55725 60.039771 40.326353
1.572806 59.154184 40.196724
2.266381 58.29649 41.190077
3.475205 61.009669 40.332321
2.55725 60.039771 40.326353
4.061181 58.55027 42.232437
3.084708 57.531628 42.16476
3.895064 56.899822 43.077492
4.433949 62.076952 40.330275
3.475205 61.009669 40.332321
4.209569 60.249359 41.317659
5.452661 63.170215 40.309622
4.718297 63.930524 39.324283
4.433949 62.076952 40.330275
5.353971 84.332775 22.51263
4.601111 84.658276 21.535125
4.459939 83.33023 22.819164
5.353971 84.332775 22.51263
6.122838 84.092197 23.413104
6.851283 83.776073 24.323705
7.580319 83.391964 25.304708
5.446115 74.783157 31.66159
4.744167 75.285301 30.720249
5.955367 72.615738 33.844485
5.789694 70.964867 35.02821
6.135758 74.195767 32.682488
5.955367 72.615738 33.844485
6.948078 73.689084 33.678976
6.438827 75.856503 31.496081
5.446115 74.783157 31.66159
6.135758 74.195767 32.682488
15.277931 85.210781 28.854363
14.509631 85.780129 27.818159
14.303168 84.264691 29.235914
15.277931 85.210781 28.854363
16.011108 84.554901 29.903923
18.500538 85.523831 29.997878
17.636946 84.714447 30.513121
19.201096 84.82056 30.884189
18.500538 85.523831 29.997878
19.032008 83.243103 32.429723
18.136522 82.407612 32.960322
18.845387 81.63628 33.89953
19.201096 84.82056 30.884189
19.032008 83.243103 32.429723
19.403741 74.526062 40.251562
18.490771 73.63139 40.710425
19.146742 72.729473 41.587032
19.628383 76.161213 38.939942
19.403741 74.526062 40.251562
19.900099 77.968639 37.471542
19.019487 77.235405 37.906555
19.628383 76.161213 38.939942
20.156337 79.74424 35.919344
19.900099 77.968639 37.471542
3.646488 48.870592 47.10436
2.907475 49.751865 46.216179
4.647728 49.905628 47.247667
3.646488 48.870592 47.10436
4.378878 48.176943 47.918659
6.538015 45.367804 50.629688
7.477195 46.264043 50.840496
5.87511 46.424875 49.714754
5.603353 44.556145 50.401262
6.538015 45.367804 50.629688
6.094945 48.224256 49.002573
5.160284 47.412598 48.774147
5.87511 46.424875 49.714754
13.130262 45.211198 55.029426
14.069609 46.086786 55.187847
12.446117 46.262602 54.117718
13.130262 45.211198 55.029426
12.590526 48.212272 53.297079
11.727628 47.372587 53.139639
12.446117 46.262602 54.117718
17.245685 59.645609 49.803602
16.338456 58.697333 49.947571
16.974525 57.640549 50.829622
17.565465 61.471222 48.826861
17.245685 59.645609 49.803602
17.8848 63.443195 47.733151
16.92895 62.674366 47.827841
17.565465 61.471222 48.826861
18.150619 65.408951 46.538963
17.8848 63.443195 47.733151
3 0 27 25
3 0 29 27
3 2 32 30
3 2 34 32
3 3 36 35
3 3 37 36
3 1 40 38
3 4 43 41
3 4 45 43
3 4 47 45
3 93 48 94
3 95 50 96
3 97 96 48
3 95 96 97
3 98 52 99
3 5 100 102
3 100 101 102
3 5 103 105
3 103 53 104
3 103 104 105
3 5 55 53
3 7 56 24
3 7 57 56
3 8 60 58
3 10 61 26
3 10 62 61
3 10 64 62
3 12 65 28
3 12 106 108
3 108 107 65
3 106 107 108
3 109 66 110
3 111 67 112
3 13 68 31
3 13 69 68
3 13 70 69
3 14 71 33
3 14 72 71
3 6 113 115
3 115 114 54
3 113 114 115
3 15 116 117
3 15 118 119
3 16 73 39
3 16 74 73
3 9 75 59
3 17 76 42
3 17 77 76
3 17 78 77
3 18 79 44
3 18 120 122
3 122 121 79
3 120 121 122
3 18 123 125
3 123 80 124
3 123 124 125
3 19 126 128
3 128 127 46
3 126 127 128
3 19 129 130
3 11 81 63
3 131 82 132
3 131 132 133
3 20 134 136
3 134 83 135
3 134 135 136
3 20 84 83
3 20 85 84
3 21 86 49
3 21 87 86
3 22 137 138
3 22 139 141
3 139 88 140
3 139 140 141
3 22 89 88
3 23 90 51
3 23 91 90
3 23 92 91
3 142 5 143
3 144 24 145
3 146 145 5
3 144 145 146
3 147 24 148
3 149 7 150
3 151 150 24
3 149 150 151
3 25 26 8
3 27 26 25
3 27 10 26
3 27 28 10
3 29 28 27
3 29 12 28
3 30 152 154
3 152 31 153
3 152 153 154
3 32 31 30
3 32 13 31
3 32 33 13
3 34 33 32
3 34 14 33
3 35 155 157
3 157 156 6
3 155 156 157
3 36 158 160
3 160 159 35
3 158 159 160
3 36 161 162
3 36 163 164
3 37 165 167
3 167 166 36
3 165 166 167
3 37 168 170
3 168 15 169
3 168 169 170
3 38 171 173
3 171 39 172
3 171 172 173
3 40 39 38
3 40 16 39
3 41 42 9
3 43 42 41
3 43 17 42
3 43 44 17
3 45 44 43
3 45 18 44
3 45 46 18
3 47 46 45
3 47 19 46
3 175 174 11
3 48 176 177
3 48 178 180
3 178 20 179
3 178 179 180
3 48 49 20
3 50 49 48
3 50 21 49
3 181 22 182
3 183 51 184
3 185 184 22
3 183 184 185
3 186 51 187
3 188 23 189
3 190 189 51
3 188 189 190
3 192 191 23
3 193 30 194
3 52 195 197
3 195 30 196
3 195 196 197
3 52 2 30
3 53 198 199
3 53 200 201
3 53 202 204
3 202 54 203
3 202 203 204
3 55 54 53
3 55 6 54
3 24 55 5
3 56 55 24
3 56 6 55
3 56 35 6
3 57 35 56
3 57 3 35
3 58 59 1
3 60 59 58
3 60 9 59
3 26 60 8
3 61 60 26
3 61 9 60
3 61 41 9
3 62 41 61
3 62 4 41
3 62 63 4
3 64 63 62
3 64 11 63
3 28 64 10
3 65 64 28
3 65 11 64
3 65 205 207
3 207 206 11
3 205 206 207
3 209 208 65
3 210 38 211
3 66 212 214
3 212 38 213
3 212 213 214
3 66 1 38
3 67 215 217
3 215 216 217
3 67 218 219
3 31 220 222
3 220 67 221
3 220 221 222
3 68 67 31
3 68 223 225
3 225 224 67
3 223 224 225
3 68 226 228
3 226 66 227
3 226 227 228
3 69 66 68
3 69 1 66
3 69 58 1
3 70 58 69
3 70 8 58
3 33 70 13
3 71 70 33
3 71 8 70
3 71 25 8
3 72 25 71
3 72 0 25
3 54 229 231
3 229 230 231
3 233 232 54
3 235 234 6
3 236 7 237
3 39 238 239
3 73 240 242
3 242 241 39
3 240 241 242
3 73 243 245
3 243 7 244
3 243 244 245
3 73 57 7
3 74 57 73
3 74 3 57
3 59 40 1
3 75 40 59
3 75 16 40
3 42 75 9
3 76 75 42
3 76 16 75
3 76 74 16
3 77 74 76
3 77 3 74
3 77 37 3
3 78 37 77
3 78 15 37
3 44 78 17
3 79 78 44
3 79 15 78
3 79 246 248
3 248 247 15
3 246 247 248
3 250 249 79
3 80 251 252
3 80 253 254
3 46 80 18
3 255 80 256
3 257 256 46
3 255 256 257
3 259 258 80
3 63 47 4
3 81 47 63
3 81 19 47
3 260 81 261
3 262 261 11
3 260 261 262
3 263 81 264
3 265 19 266
3 267 266 81
3 265 266 267
3 269 268 19
3 270 52 271
3 82 272 274
3 272 52 273
3 272 273 274
3 82 2 52
3 83 275 276
3 83 277 279
3 277 278 279
3 83 280 282
3 280 82 281
3 280 281 282
3 84 82 83
3 84 2 82
3 84 34 2
3 85 34 84
3 85 14 34
3 49 85 20
3 86 85 49
3 86 14 85
3 86 72 14
3 87 72 86
3 87 0 72
3 88 283 284
3 88 285 286
3 88 287 289
3 287 50 288
3 287 288 289
3 89 50 88
3 89 21 50
3 51 89 22
3 90 89 51
3 90 21 89
3 90 87 21
3 91 87 90
3 91 0 87
3 91 29 0
3 92 29 91
3 92 12 29
3 290 92 291
3 292 291 23
3 290 291 292
3 293 92 294
3 295 12 296
3 297 296 92
3 295 296 297
3 299 298 12
