ply
format ascii 1.0
element vertex 107
property float x
property float y
property float z
element face 87
property list uchar int vertex_index
end_header
-32.633911 -50.569016 -3.970092
-34.211594 -47.832447 -9.159435
-31.862354 -52.531033 -7.57927
-30.166882 -55.013664 -2.323419
-29.549377 -57.050438 -5.947886
-31.45109 -52.710964 -3.227919
-30.714506 -54.773899 -6.808947
-30.498817 -55.755482 -8.501895
-29.268639 -58.28627 -7.685504
-33.371758 -49.319794 -6.541561
-32.209038 -51.548763 -5.876814
-33.110058 -50.059345 -8.365663
-33.830898 -48.349693 -5.027009
-30.962704 -53.863853 -4.906942
-29.803232 -56.032501 -4.097448
-28.608139 -58.344563 -3.369593
-28.35718 -59.437767 -5.130463
-28.185335 -60.604271 -7.107281
-32.042501 -51.63999 -3.599006
-31.653581 -52.288347 -2.293593
-32.244991 -51.217373 -2.66468
-30.988844 -55.089748 -9.811573
-31.110948 -54.523762 -8.96718
-30.417763 -56.282959 -9.384363
-30.988844 -55.089748 -9.811573
-34.369035 -47.287483 -5.319017
-34.003509 -48.019911 -4.008219
-34.201883 -47.648474 -6.212136
-34.369035 -47.287483 -5.319017
-29.773517 -55.591224 -1.023961
-30.385559 -54.528715 -1.465089
-29.56771 -56.10176 -1.892144
-29.773517 -55.591224 -1.023961
-28.718084 -59.897097 -8.406201
-28.726987 -59.44527 -7.396393
-29.259737 -58.738096 -8.695312
-28.633131 -60.483759 -9.24702
-28.100381 -61.190933 -7.9481
-28.718084 -59.897097 -8.406201
-34.515621 -47.423046 -11.262278
-34.079541 -48.250574 -10.037733
-34.647674 -47.004919 -10.38398
-31.027664 -53.377365 -1.917339
-31.653581 -52.288347 -2.293593
-30.808986 -53.862314 -2.775669
-30.385559 -54.528715 -1.465089
-31.027664 -53.377365 -1.917339
-31.218793 -54.032971 -8.120707
-31.28843 -53.652466 -7.194109
-31.792717 -52.911538 -8.505868
-30.606662 -55.264691 -7.655421
-31.218793 -54.032971 -8.120707
-31.110948 -54.523762 -8.96718
-29.802674 -57.548353 -8.976167
-29.883728 -57.020876 -8.093699
-30.417763 -56.282959 -9.384363
-29.259737 -58.738096 -8.695312
-29.802674 -57.548353 -8.976167
-33.528773 -49.364023 -9.640847
-33.660826 -48.945896 -8.762549
-34.079541 -48.250574 -10.037733
-32.986109 -50.49115 -9.219938
-33.528773 -49.364023 -9.640847
-32.362257 -51.726994 -8.826742
-32.486206 -51.295189 -7.972466
-32.986109 -50.49115 -9.219938
-31.792717 -52.911538 -8.505868
-32.362257 -51.726994 -8.826742
-32.858862 -50.136342 -3.111485
-32.244991 -51.217373 -2.66468
-33.457355 -49.02668 -3.639943
-34.003509 -48.019911 -4.008219
-33.232405 -49.459355 -4.498551
-32.858862 -50.136342 -3.111485
-33.457355 -49.02668 -3.639943
-33.972313 -48.133524 -6.969412
-33.601328 -48.834744 -5.784285
-34.201883 -47.648474 -6.212136
-34.392231 -47.389851 -8.278349
-33.791676 -48.576121 -7.850498
-33.972313 -48.133524 -6.969412
-34.731604 -46.720855 -9.441541
-34.392231 -47.389851 -8.278349
-34.647674 -47.004919 -10.38398
-34.731604 -46.720855 -9.441541
-29.385885 -56.611179 -2.779158
-29.56771 -56.10176 -1.892144
-29.985057 -55.523083 -3.210433
-28.788339 -57.76721 -2.415231
-29.385885 -56.611179 -2.779158
-29.205686 -57.188532 -3.733521
-28.206467 -58.84515 -1.962086
-28.788339 -57.76721 -2.415231
-28.038778 -59.444705 -2.902579
-28.206467 -58.84515 -1.962086
-27.913299 -59.991307 -3.783015
-28.038778 -59.444705 -2.902579
-28.48266 -58.891165 -4.250028
-27.790662 -60.60152 -4.750781
-27.913299 -59.991307 -3.783015
-27.704739 -61.184772 -5.73919
-27.790662 -60.60152 -4.750781
-28.271257 -60.021019 -6.118872
-27.592592 -61.846319 -6.681956
-27.704739 -61.184772 -5.73919
-27.592592 -61.846319 -6.681956
-28.100381 -61.190933 -7.9481
3 0 18 20
3 18 5 19
3 18 19 20
3 21 7 22
3 24 23 7
3 1 11 9
3 25 12 26
3 28 27 12
3 3 29 30
3 3 31 32
3 2 13 10
3 4 14 6
3 4 15 14
3 4 16 15
3 33 17 34
3 35 34 8
3 33 34 35
3 38 37 17
3 36 37 38
3 41 40 1
3 39 40 41
3 5 42 43
3 5 44 46
3 44 3 45
3 44 45 46
3 47 6 48
3 49 48 2
3 47 48 49
3 7 50 52
3 50 6 51
3 50 51 52
3 7 4 6
3 7 8 4
3 53 8 54
3 55 54 7
3 53 54 55
3 57 56 8
3 9 10 0
3 11 10 9
3 11 2 10
3 58 11 59
3 60 59 1
3 58 59 60
3 61 11 62
3 63 2 64
3 65 64 11
3 63 64 65
3 67 66 2
3 68 0 69
3 12 70 71
3 12 72 74
3 72 0 73
3 72 73 74
3 12 9 0
3 75 9 76
3 77 76 12
3 75 76 77
3 78 1 79
3 80 79 9
3 78 79 80
3 81 1 82
3 84 83 1
3 10 5 0
3 13 5 10
3 13 3 5
3 6 13 2
3 14 13 6
3 14 3 13
3 14 85 87
3 87 86 3
3 85 86 87
3 15 88 90
3 90 89 14
3 88 89 90
3 15 91 92
3 15 93 94
3 16 95 97
3 97 96 15
3 95 96 97
3 16 98 99
3 8 16 4
3 17 16 8
3 17 100 102
3 102 101 16
3 100 101 102
3 17 103 104
3 106 105 17
