ply
format ascii 1.0
element vertex 112
property float x
property float y
property float z
element face 92
property list uchar int vertex_index
end_header
-3.991147 -78.475258 21.557755
-7.41392 -76.677887 22.109728
-6.23589 -81.360313 17.294996
-5.237975 -73.543556 26.158257
-2.075928 -74.902924 26.071005
-7.359486 -82.764709 14.900207
-5.46796 -83.770775 14.733373
-5.678368 -77.680054 21.745237
-6.320217 -75.286232 24.016361
-4.636004 -75.870644 24.054274
-3.655777 -74.368179 25.947613
-3.054983 -76.771194 23.737928
-6.783738 -79.041985 19.755249
-5.097005 -80.115982 19.282516
-3.282255 -80.918282 19.152884
-4.374097 -82.40979 16.948366
-3.629466 -84.743813 14.498324
-6.849127 -72.811592 26.268206
-4.203575 -71.850159 28.169161
-2.711999 -72.474968 28.201368
-7.936577 -83.318805 13.729226
-8.264451 -82.145023 15.093708
-6.969322 -83.937241 13.595841
-7.936577 -83.318805 13.729226
-3.136816 -78.755916 21.602699
-2.668734 -77.903885 22.692786
-3.523065 -77.623226 22.647841
-6.509814 -80.201149 18.525123
-7.381242 -79.729671 18.626487
-7.107318 -80.888835 17.396361
-4.171676 -85.454892 13.288899
-4.548713 -84.257294 14.615849
-5.090923 -84.968373 13.406423
-3.190511 -85.979989 13.181229
-4.171676 -85.454892 13.288899
-7.682104 -75.548394 23.180728
-8.264057 -76.27507 22.147635
-5.549437 -72.342929 27.173913
-6.355013 -71.976947 27.228887
-6.043551 -73.177574 26.213231
-4.720775 -72.696857 27.163709
-5.032237 -71.496231 28.179364
-5.549437 -72.342929 27.173913
-1.602532 -74.051365 27.160165
-1.920567 -72.837387 28.225347
-2.393963 -73.688946 27.136187
-1.307359 -75.29057 26.037813
-1.602532 -74.051365 27.160165
-2.421428 -81.305084 19.091393
-2.897293 -82.149036 17.913359
-7.669116 -81.591033 16.198966
-8.264451 -82.145023 15.093708
-6.797688 -82.062511 16.097601
-7.107318 -80.888835 17.396361
-7.669116 -81.591033 16.198966
-6.023559 -84.440274 13.512424
-6.413723 -83.267742 14.81679
-6.969322 -83.937241 13.595841
-5.090923 -84.968373 13.406423
-6.023559 -84.440274 13.512424
-2.20754 -77.095176 23.7578
-1.718013 -76.161041 24.924338
-2.565456 -75.837059 24.904466
-2.20754 -77.095176 23.7578
-2.668734 -77.903885 22.692786
-7.926898 -77.431397 21.01579
-8.264057 -76.27507 22.147635
-7.611807 -78.613445 19.838551
-7.381242 -79.729671 18.626487
-7.098829 -77.859936 20.932488
-7.926898 -77.431397 21.01579
-7.611807 -78.613445 19.838551
-3.443214 -82.89479 16.8111
-2.897293 -82.149036 17.913359
-3.828176 -81.664036 18.050625
-3.070899 -84.061802 15.586079
-3.443214 -82.89479 16.8111
-4.001781 -83.576802 15.723345
-2.699457 -85.225434 14.383162
-3.070899 -84.061802 15.586079
-2.699457 -85.225434 14.383162
-3.190511 -85.979989 13.181229
-7.135252 -74.852566 24.134045
-7.682104 -75.548394 23.180728
-6.867069 -75.982059 23.063045
-7.399707 -73.615246 25.259967
-7.135252 -74.852566 24.134045
-6.584672 -74.048912 25.142283
-7.677003 -72.44191 26.292563
-7.399707 -73.615246 25.259967
-7.133237 -71.585476 27.28651
-7.677003 -72.44191 26.292563
-7.133237 -71.585476 27.28651
-6.355013 -71.976947 27.228887
-4.576102 -70.607052 29.146864
-5.032237 -71.496231 28.179364
-3.804568 -70.908684 29.212622
-4.576102 -70.607052 29.146864
-3.058779 -71.221089 29.228725
-3.804568 -70.908684 29.212622
-3.457787 -72.162564 28.185264
-2.281541 -71.648331 29.210891
-3.058779 -71.221089 29.228725
-2.281541 -71.648331 29.210891
-1.920567 -72.837387 28.225347
-1.307359 -75.29057 26.037813
-1.718013 -76.161041 24.924338
-2.78237 -79.977429 20.400264
-3.136816 -78.755916 21.602699
-3.636701 -79.69677 20.35532
-2.78237 -79.977429 20.400264
-2.421428 -81.305084 19.091393
3 20 5 21
3 23 22 5
3 0 9 7
3 0 11 9
3 0 24 26
3 26 25 11
3 24 25 26
3 2 27 29
3 27 12 28
3 27 28 29
3 2 13 12
3 2 15 13
3 30 16 31
3 32 31 6
3 30 31 32
3 34 33 16
3 1 35 36
3 3 17 8
3 3 37 39
3 39 38 17
3 37 38 39
3 3 40 42
3 40 18 41
3 40 41 42
3 4 19 10
3 4 43 45
3 45 44 19
3 43 44 45
3 4 46 47
3 49 48 14
3 5 50 51
3 5 52 54
3 52 2 53
3 52 53 54
3 5 6 2
3 55 6 56
3 57 56 5
3 55 56 57
3 59 58 6
3 7 8 1
3 9 8 7
3 9 3 8
3 9 10 3
3 11 10 9
3 11 4 10
3 11 60 62
3 62 61 4
3 60 61 62
3 64 63 11
3 65 1 66
3 12 67 68
3 12 69 71
3 69 1 70
3 69 70 71
3 12 7 1
3 13 7 12
3 13 0 7
3 13 14 0
3 15 14 13
3 15 72 74
3 74 73 14
3 72 73 74
3 6 15 2
3 16 15 6
3 16 75 77
3 77 76 15
3 75 76 77
3 16 78 79
3 81 80 16
3 8 82 84
3 84 83 1
3 82 83 84
3 17 85 87
3 87 86 8
3 85 86 87
3 17 88 89
3 17 90 91
3 93 92 17
3 18 94 95
3 18 96 97
3 10 18 3
3 19 18 10
3 19 98 100
3 100 99 18
3 98 99 100
3 19 101 102
3 104 103 19
3 106 105 4
3 14 107 109
3 109 108 0
3 107 108 109
3 111 110 14
