ply
format ascii 1.0
element vertex 162
property float x
property float y
property float z
element face 143
property list uchar int vertex_index
end_header
12.588191 105.789536 -27.833925
8.411523 103.935837 -5.295657
11.842654 106.533417 -9.919051
17.612066 106.482368 -26.575649
8.792567 105.853737 -22.905666
6.984588 104.742287 -11.446501
10.54855 106.822289 -16.619987
13.905029 107.424782 -21.618961
9.803625 104.900963 -28.323803
6.996816 105.365433 -20.364178
5.932065 102.777 -5.918616
7.515206 104.336975 -8.348886
13.414931 107.368561 -12.586471
11.055572 106.749619 -13.203153
12.842025 107.477516 -16.048254
12.287004 107.315025 -19.20952
14.787679 107.818268 -18.524023
10.707986 104.767288 -4.481716
10.091319 105.381149 -7.65489
12.475616 106.062828 -6.726413
6.815951 102.234093 -2.881204
9.09626 103.161514 -2.021607
15.130195 106.283897 -27.345306
14.568471 105.085083 -30.387762
17.048246 105.38475 -29.751913
7.8895 104.960037 -25.757811
10.675424 106.015945 -25.392666
6.078831 104.741547 -14.575558
9.398023 105.727036 -10.643668
8.68903 105.919647 -14.049932
7.895255 105.799881 -17.292286
9.812066 106.532898 -19.799406
11.427188 106.798454 -22.332752
13.227603 106.752792 -24.801723
15.770249 107.161621 -24.186796
12.22665 105.142941 -29.29849
10.834367 104.698655 -29.543429
11.195908 105.345249 -28.078864
6.138704 104.962349 -19.031662
5.713545 104.729111 -20.45898
13.988185 107.677105 -15.627527
13.128478 107.423038 -14.317362
14.274638 107.622627 -13.896635
14.961012 107.847481 -16.865411
13.814852 107.647892 -17.286138
13.988185 107.677105 -15.627527
15.879868 107.900742 -18.029732
14.961012 107.847481 -16.865411
12.680011 105.648117 -5.003928
11.591801 105.415058 -5.604064
11.796197 105.000347 -3.881579
6.068466 101.270786 -1.653683
5.624577 101.62164 -3.192063
9.34084 102.635429 -0.422536
8.268228 102.207561 -0.811084
10.219683 103.531669 -1.583788
9.34084 102.635429 -0.422536
8.341033 105.406887 -24.331739
6.969861 104.796864 -24.539475
7.421394 105.243713 -23.113402
5.760281 104.119141 -11.675821
6.070254 103.960507 -10.167492
6.531709 104.741917 -13.011029
5.307403 104.118771 -13.240349
5.760281 104.119141 -11.675821
14.184057 104.343464 -31.776685
15.480234 104.551155 -31.523656
9.437798 104.202393 -29.754636
8.448214 104.347859 -28.473557
9.437798 104.202393 -29.754636
10.834367 104.698655 -29.543429
18.498974 105.917732 -27.748535
18.799087 106.383571 -26.118156
6.523519 104.999561 -21.842658
5.713545 104.729111 -20.45898
7.894692 105.609585 -21.634922
7.421394 105.243713 -23.113402
6.523519 104.999561 -21.842658
5.543992 102.977863 -7.40355
4.710713 102.090958 -6.122729
6.335563 103.75785 -8.618685
5.543992 102.977863 -7.40355
6.723636 103.556987 -7.133751
7.249897 104.539631 -9.897693
6.070254 103.960507 -10.167492
6.335563 103.75785 -8.618685
15.588544 107.75594 -19.846428
15.147219 107.559196 -21.393897
14.346354 107.621525 -20.071492
15.588544 107.75594 -19.846428
15.879868 107.900742 -18.029732
13.525313 106.205742 -6.120382
12.680011 105.648117 -5.003928
13.293187 106.552819 -7.960795
13.525313 106.205742 -6.120382
12.976706 106.788113 -9.557114
12.159135 106.298123 -8.322732
13.293187 106.552819 -7.960795
13.762844 107.205685 -10.890824
12.628792 106.950989 -11.252761
12.976706 106.788113 -9.557114
14.582964 107.523441 -12.125201
13.762844 107.205685 -10.890824
14.274638 107.622627 -13.896635
14.582964 107.523441 -12.125201
5.182634 101.893093 -4.710769
4.710713 102.090958 -6.122729
6.374008 102.505547 -4.39991
5.182634 101.893093 -4.710769
5.624577 101.62164 -3.192063
7.128073 101.743851 -1.240883
6.068466 101.270786 -1.653683
7.956105 102.697803 -2.451405
7.128073 101.743851 -1.240883
8.268228 102.207561 -0.811084
11.025546 104.334556 -2.813842
9.902123 103.964401 -3.251661
10.219683 103.531669 -1.583788
11.796197 105.000347 -3.881579
11.025546 104.334556 -2.813842
16.720121 104.700988 -31.205731
15.480234 104.551155 -31.523656
15.808359 105.234916 -30.069837
18.217064 105.368923 -29.336667
17.330156 105.933559 -28.163781
18.498974 105.917732 -27.748535
17.884341 104.745552 -30.870638
18.217064 105.368923 -29.336667
16.720121 104.700988 -31.205731
17.884341 104.745552 -30.870638
6.605486 104.337311 -25.987219
6.969861 104.796864 -24.539475
7.491151 104.377396 -27.190561
6.605486 104.337311 -25.987219
8.846563 104.9305 -27.040807
8.448214 104.347859 -28.473557
7.491151 104.377396 -27.190561
4.826104 104.073246 -14.752046
5.307403 104.118771 -13.240349
5.679712 104.650406 -16.137352
4.826104 104.073246 -14.752046
6.587924 105.179573 -17.495716
5.679712 104.650406 -16.137352
6.987043 105.270714 -15.933922
7.446035 105.582657 -18.828232
6.138704 104.962349 -19.031662
6.587924 105.179573 -17.495716
16.079828 107.427616 -22.677815
14.837639 107.293201 -22.902878
15.147219 107.559196 -21.393897
16.9972 107.180927 -23.830367
16.079828 107.427616 -22.677815
17.918109 106.8413 -25.024794
16.691157 106.821994 -25.381222
16.9972 107.180927 -23.830367
18.799087 106.383571 -26.118156
17.918109 106.8413 -25.024794
13.21679 104.790715 -30.575408
12.22665 105.142941 -29.29849
13.578331 105.437309 -29.110844
13.21679 104.790715 -30.575408
14.184057 104.343464 -31.776685
3 0 35 37
3 37 36 8
3 35 36 37
3 38 9 39
3 1 11 10
3 40 14 41
3 42 41 12
3 40 41 42
3 43 16 44
3 45 44 14
3 43 44 45
3 47 46 16
3 48 19 49
3 50 49 17
3 48 49 50
3 51 20 52
3 53 21 54
3 56 55 21
3 3 24 22
3 4 57 59
3 57 25 58
3 57 58 59
3 4 26 25
3 5 60 61
3 5 62 64
3 62 27 63
3 62 63 64
3 2 28 18
3 6 29 13
3 6 30 29
3 6 31 30
3 7 32 15
3 7 33 32
3 7 34 33
3 66 65 23
3 8 67 68
3 70 69 8
3 72 71 3
3 9 73 74
3 9 75 77
3 75 4 76
3 75 76 77
3 10 78 79
3 11 80 82
3 82 81 10
3 80 81 82
3 11 83 85
3 83 5 84
3 83 84 85
3 12 13 2
3 14 13 12
3 14 6 13
3 14 15 6
3 16 15 14
3 16 7 15
3 16 86 88
3 88 87 7
3 86 87 88
3 90 89 16
3 17 18 1
3 19 18 17
3 19 2 18
3 91 19 92
3 93 19 94
3 95 2 96
3 97 96 19
3 95 96 97
3 98 12 99
3 100 99 2
3 98 99 100
3 101 12 102
3 104 103 12
3 105 10 106
3 20 107 109
3 107 10 108
3 107 108 109
3 20 1 10
3 110 20 111
3 21 112 114
3 112 20 113
3 112 113 114
3 21 1 20
3 21 17 1
3 115 17 116
3 117 116 21
3 115 116 117
3 119 118 17
3 22 23 0
3 24 23 22
3 24 120 122
3 122 121 23
3 120 121 122
3 123 24 124
3 125 124 3
3 123 124 125
3 126 24 127
3 129 128 24
3 25 130 131
3 25 132 133
3 25 134 136
3 134 8 135
3 134 135 136
3 26 8 25
3 26 0 8
3 27 137 138
3 27 139 140
3 18 11 1
3 28 11 18
3 28 5 11
3 13 28 2
3 29 28 13
3 29 5 28
3 29 27 5
3 30 27 29
3 30 141 143
3 143 142 27
3 141 142 143
3 30 144 146
3 144 9 145
3 144 145 146
3 31 9 30
3 31 4 9
3 15 31 6
3 32 31 15
3 32 4 31
3 32 26 4
3 33 26 32
3 33 0 26
3 33 22 0
3 34 22 33
3 34 3 22
3 147 34 148
3 149 148 7
3 147 148 149
3 150 34 151
3 152 3 153
3 154 153 34
3 152 153 154
3 156 155 3
3 23 157 159
3 159 158 0
3 157 158 159
3 161 160 23
