ply
format ascii 1.0
element vertex 275
property float x
property float y
property float z
element face 274
property list uchar int vertex_index
end_header
-27.10483 -67.478142 16.068674
-21.210505 -79.171959 33.463261
-25.805563 -75.150398 30.607677
-26.160282 -76.479179 20.275085
-28.03867 -67.500488 26.213343
-25.530487 -71.182884 40.819328
-22.267767 -81.665016 28.337236
-27.254704 -70.736298 33.502243
-27.186232 -71.533005 28.54269
-25.669622 -73.511909 35.689827
-26.733471 -72.109802 18.019768
-26.1341 -76.557358 14.928005
-26.309904 -71.871307 12.713911
-24.516602 -79.347961 27.132442
-26.005247 -76.137749 25.402536
-27.011244 -72.024323 23.33754
-27.640337 -67.697929 21.258211
-23.352295 -75.392448 37.391472
-23.961836 -77.504768 32.460396
-27.952379 -68.373123 35.005302
-27.867884 -68.901192 32.527355
-28.10721 -67.402405 37.564877
-27.380623 -69.78875 36.160297
-26.940302 -69.719925 17.068439
-26.535654 -72.099159 15.409951
-26.642878 -69.809082 14.371812
-20.803604 -77.702332 35.964352
-25.164316 -77.242729 28.814245
-25.377007 -77.762466 26.289383
-25.961351 -75.578758 27.928917
-27.670776 -69.536629 27.495474
-27.127031 -71.757034 26.03393
-27.532621 -69.739754 24.867619
-27.337755 -69.985413 22.210352
-27.839197 -67.747047 23.763311
-24.291119 -71.900208 41.812126
-23.191874 -73.878952 40.033314
-24.493496 -73.293114 39.18861
-25.713755 -74.439308 33.170269
-24.766788 -75.597748 34.140316
-24.973513 -76.488029 31.461447
-24.218695 -78.498596 29.833664
-25.707813 -78.495346 21.220081
-21.727722 -80.47393 30.934984
-20.170624 -81.06424 31.199398
-20.794811 -82.484001 28.622799
-26.534666 -72.959213 32.146915
-26.556456 -73.493111 29.477661
-27.213539 -71.239037 31.006371
-27.80196 -69.164452 29.982622
-28.209944 -67.223579 28.685516
-25.620424 -72.398727 38.279945
-26.570711 -71.24482 37.243465
-26.553862 -72.147499 34.811256
-26.4706 -74.491005 19.142654
-26.138523 -76.77713 17.61322
-26.372902 -74.545952 16.516396
-26.256893 -74.242142 13.830876
-27.300743 -65.053291 15.115637
-26.78689 -67.312317 13.467674
-25.547924 -78.269791 23.629385
-26.113455 -76.304993 22.822184
-26.572725 -73.854897 26.939716
-26.562105 -74.144814 24.441723
-26.547974 -74.27076 21.709572
-26.874857 -72.177559 20.597673
-27.165051 -69.917183 19.763887
-27.386251 -67.665489 18.70187
-27.863617 -65.430779 20.047216
-27.609507 -65.189278 17.596529
-22.043541 -75.89325 37.946022
-22.264828 -77.383438 35.387093
-24.613525 -74.575928 36.6008
-23.608389 -76.581779 34.919628
-22.70363 -78.513542 32.965874
-23.130354 -79.599373 30.403156
-23.528969 -80.608307 27.781389
-26.366873 -69.476738 11.776113
-26.072813 -71.841103 10.232697
-28.213621 -67.462387 34.378019
-28.277443 -67.146805 35.617621
-28.354858 -66.661445 36.897408
-28.408418 -66.25679 38.179266
-28.277443 -67.146805 35.617621
-28.029795 -67.887764 36.285089
-28.354858 -66.661445 36.897408
-20.507983 -79.295616 33.635766
-20.304532 -78.560802 34.886311
-21.007055 -78.437145 34.713807
-25.509954 -70.475323 42.051597
-26.034196 -70.058921 41.552034
-24.910803 -71.541546 41.315727
-24.890269 -70.833984 42.547996
-25.509954 -70.475323 42.051597
-25.988426 -77.618675 19.430132
-25.762192 -78.626758 19.902631
-25.934047 -77.487262 20.747583
-28.080159 -68.034615 30.586194
-27.834922 -69.032822 31.254988
-28.113121 -67.902985 31.85856
-28.284151 -67.064178 29.937641
-28.005952 -68.194016 29.334069
-28.080159 -68.034615 30.586194
-27.010665 -70.040451 37.947792
-26.561629 -70.734303 38.474908
-26.207468 -72.987297 12.030054
-26.180962 -74.172714 12.588536
-26.283399 -73.056725 13.272393
-27.10933 -64.982406 13.73274
-27.398333 -63.848208 14.562039
-18.890259 -82.034859 30.177558
-19.368899 -81.131214 31.339597
-19.691985 -81.967884 30.037359
-24.671452 -79.653709 25.836478
-24.236221 -80.370029 26.178838
-28.002417 -64.142735 19.565856
-28.123946 -64.219927 20.749001
-27.875363 -64.021985 18.340513
-27.736562 -65.310029 18.821872
-28.002417 -64.142735 19.565856
-27.730683 -63.922785 17.076454
-27.875363 -64.021985 18.340513
-24.236221 -80.370029 26.178838
-23.742404 -81.000202 26.503311
-24.022785 -79.978134 27.456916
-26.02024 -77.705792 15.33313
-26.022451 -77.815677 16.675738
-26.136311 -76.667244 16.270612
-26.404791 -68.242622 11.270854
-26.576881 -68.394527 12.621894
-26.6148 -67.160412 12.116634
-25.944704 -71.676987 8.942871
-26.06729 -70.615426 9.729463
-25.864398 -72.740917 8.138939
-25.992507 -72.905034 9.428765
-25.944704 -71.676987 8.942871
-21.899822 -82.653724 27.219511
-22.55981 -82.145527 27.063757
-28.171374 -67.726422 33.139046
-27.910131 -68.637158 33.766329
-28.213621 -67.462387 34.378019
-28.113121 -67.902985 31.85856
-28.171374 -67.726422 33.139046
-28.128785 -66.976403 38.796086
-28.408418 -66.25679 38.179266
-27.778914 -68.119244 38.108498
-28.128785 -66.976403 38.796086
-27.743916 -68.595577 36.862587
-27.415621 -69.312416 37.406208
-27.778914 -68.119244 38.108498
-20.028168 -77.74709 36.125648
-20.678481 -76.898758 37.198208
-20.028168 -77.74709 36.125648
-20.304532 -78.560802 34.886311
-24.241917 -71.148118 43.002468
-24.890269 -70.833984 42.547996
-23.587097 -72.163727 42.148184
-24.241917 -71.148118 43.002468
-23.741496 -72.88958 40.92272
-23.037474 -73.153099 41.258777
-23.587097 -72.163727 42.148184
-25.520891 -79.612965 20.382392
-25.388354 -79.474514 21.678457
-25.520891 -79.612965 20.382392
-25.762192 -78.626758 19.902631
-26.052793 -77.635411 13.997193
-26.104615 -76.518505 13.581356
-20.004078 -82.677765 28.74906
-19.691985 -81.967884 30.037359
-20.482717 -81.774121 29.911099
-21.163345 -83.063217 27.362293
-21.531289 -82.074509 28.480018
-21.899822 -82.653724 27.219511
-20.42257 -83.397991 27.466932
-21.163345 -83.063217 27.362293
-20.791103 -83.977207 26.206426
-20.004078 -82.677765 28.74906
-20.42257 -83.397991 27.466932
-26.041517 -70.703335 40.26284
-26.034196 -70.058921 41.552034
-26.086486 -71.311256 38.993149
-25.575456 -71.790806 39.549636
-26.041517 -70.703335 40.26284
-26.095568 -71.821774 37.761705
-26.086486 -71.311256 38.993149
-26.561629 -70.734303 38.474908
-26.975667 -70.516785 36.701881
-27.010665 -70.040451 37.947792
-27.415621 -69.312416 37.406208
-26.166012 -75.360897 13.032791
-26.104615 -76.518505 13.581356
-26.195497 -75.39975 14.379441
-26.166012 -75.360897 13.032791
-26.180962 -74.172714 12.588536
-26.852404 -66.111919 12.908759
-27.043816 -66.182804 14.291656
-27.10933 -64.982406 13.73274
-26.6148 -67.160412 12.116634
-26.852404 -66.111919 12.908759
-19.988042 -80.241757 32.503834
-20.507983 -79.295616 33.635766
-20.690565 -80.118099 32.33133
-19.988042 -80.241757 32.503834
-19.368899 -81.131214 31.339597
-25.101654 -78.860962 25.414949
-24.671452 -79.653709 25.836478
-24.946804 -78.555214 26.710912
-25.187113 -79.114624 24.08495
-25.101654 -78.860962 25.414949
-25.462466 -78.016129 24.959384
-25.308409 -79.361737 22.883109
-25.187113 -79.114624 24.08495
-25.627868 -78.382568 22.424733
-25.388354 -79.474514 21.678457
-25.308409 -79.361737 22.883109
-28.483103 -65.994968 29.399428
-28.284151 -67.064178 29.937641
-28.378923 -66.214443 28.174841
-28.483103 -65.994968 29.399428
-28.293287 -66.352898 26.938754
-28.124307 -67.362033 27.44943
-28.378923 -66.214443 28.174841
-28.200399 -66.384571 25.642483
-28.293287 -66.352898 26.938754
-28.100663 -66.50785 24.417467
-27.938933 -67.623767 24.988327
-28.200399 -66.384571 25.642483
-27.994733 -66.49126 23.154584
-28.100663 -66.50785 24.417467
-27.895303 -66.466701 21.902034
-27.739767 -67.722488 22.510761
-27.994733 -66.49126 23.154584
-28.006943 -65.333126 21.296537
-28.123946 -64.219927 20.749001
-27.751977 -66.564354 20.652713
-27.895303 -66.466701 21.902034
-28.006943 -65.333126 21.296537
-27.576301 -63.854792 15.836008
-27.455125 -65.121285 16.356083
-27.730683 -63.922785 17.076454
-27.398333 -63.848208 14.562039
-27.576301 -63.854792 15.836008
-22.45253 -74.111881 40.24761
-23.037474 -73.153099 41.258777
-21.878363 -75.11903 39.203964
-22.45253 -74.111881 40.24761
-22.617708 -74.886101 38.989668
-21.29845 -75.994217 38.189043
-21.878363 -75.11903 39.203964
-21.423572 -76.797791 36.955187
-20.678481 -76.898758 37.198208
-21.29845 -75.994217 38.189043
-23.19041 -81.617172 26.785833
-22.55981 -82.145527 27.063757
-22.898368 -81.136662 28.059313
-23.19041 -81.617172 26.785833
-23.742404 -81.000202 26.503311
-25.977546 -77.767651 18.0992
-25.988426 -77.618675 19.430132
-26.149403 -76.628154 18.944153
-25.977546 -77.767651 18.0992
-26.022451 -77.815677 16.675738
-25.938932 -78.783844 14.402318
-26.02024 -77.705792 15.33313
-26.052793 -77.635411 13.997193
-26.214319 -69.433243 10.501171
-26.404791 -68.242622 11.270854
-26.219843 -70.65892 11.004405
-26.214319 -69.433243 10.501171
-26.06729 -70.615426 9.729463
-26.088923 -72.972195 10.789447
-26.207468 -72.987297 12.030054
-26.191358 -71.856205 11.473304
-26.088923 -72.972195 10.789447
-25.992507 -72.905034 9.428765
3 80 79 19
3 81 21 82
3 83 19 84
3 85 84 21
3 83 84 85
3 0 25 23
3 1 86 88
3 88 87 26
3 86 87 88
3 2 29 27
3 4 32 30
3 4 34 32
3 5 89 90
3 5 91 93
3 91 35 92
3 91 92 93
3 5 37 35
3 2 40 38
3 2 27 40
3 3 94 96
3 96 95 42
3 94 95 96
3 6 45 43
3 7 48 46
3 97 49 98
3 99 98 20
3 97 98 99
3 100 50 101
3 102 101 49
3 100 101 102
3 103 52 104
3 7 53 22
3 7 46 53
3 10 56 54
3 12 57 24
3 12 105 107
3 107 106 57
3 105 106 107
3 109 108 58
3 112 111 44
3 110 111 112
3 13 113 114
3 14 60 28
3 14 61 60
3 8 62 47
3 15 63 31
3 15 64 63
3 15 65 64
3 16 66 33
3 16 67 66
3 115 68 116
3 117 69 118
3 119 118 68
3 117 118 119
3 121 120 69
3 17 70 36
3 17 71 70
3 9 72 51
3 18 73 39
3 18 74 73
3 18 75 74
3 13 76 41
3 13 122 124
3 124 123 76
3 122 123 124
3 11 125 127
3 127 126 55
3 125 126 127
3 128 77 129
3 130 129 59
3 128 129 130
3 131 78 132
3 135 134 78
3 133 134 135
3 137 136 6
3 19 20 7
3 138 20 139
3 140 139 19
3 138 139 140
3 142 141 20
3 21 143 144
3 21 145 146
3 21 147 149
3 147 22 148
3 147 148 149
3 19 22 21
3 19 7 22
3 23 24 10
3 25 24 23
3 25 12 24
3 26 150 151
3 153 152 26
3 27 28 13
3 29 28 27
3 29 14 28
3 30 31 8
3 32 31 30
3 32 15 31
3 32 33 15
3 34 33 32
3 34 16 33
3 35 154 155
3 35 156 157
3 35 158 160
3 158 36 159
3 158 159 160
3 37 36 35
3 37 17 36
3 38 39 9
3 40 39 38
3 40 18 39
3 40 41 18
3 27 41 40
3 27 13 41
3 42 161 162
3 164 163 42
3 166 165 11
3 43 44 1
3 45 44 43
3 45 167 169
3 169 168 44
3 167 168 169
3 170 45 171
3 172 171 6
3 170 171 172
3 173 45 174
3 173 174 175
3 177 176 45
3 46 47 2
3 48 47 46
3 48 8 47
3 20 48 7
3 49 48 20
3 49 8 48
3 49 30 8
3 50 30 49
3 50 4 30
3 178 5 179
3 180 51 181
3 182 181 5
3 180 181 182
3 52 183 185
3 183 51 184
3 183 184 185
3 52 9 51
3 22 186 188
3 186 52 187
3 186 187 188
3 53 52 22
3 53 9 52
3 53 38 9
3 46 38 53
3 46 2 38
3 54 55 3
3 56 55 54
3 56 11 55
3 24 56 10
3 57 56 24
3 57 11 56
3 57 189 191
3 191 190 11
3 189 190 191
3 193 192 57
3 58 59 0
3 194 59 195
3 196 195 58
3 194 195 196
3 198 197 59
3 44 199 201
3 201 200 1
3 199 200 201
3 203 202 44
3 28 204 206
3 206 205 13
3 204 205 206
3 60 207 209
3 209 208 28
3 207 208 209
3 60 210 211
3 60 212 214
3 212 42 213
3 212 213 214
3 61 42 60
3 61 3 42
3 47 29 2
3 62 29 47
3 62 14 29
3 31 62 8
3 63 62 31
3 63 14 62
3 63 61 14
3 64 61 63
3 64 3 61
3 64 54 3
3 65 54 64
3 65 10 54
3 33 65 15
3 66 65 33
3 66 10 65
3 66 23 10
3 67 23 66
3 67 0 23
3 215 50 216
3 217 50 218
3 219 4 220
3 221 220 50
3 219 220 221
3 222 4 223
3 224 34 225
3 226 225 4
3 224 225 226
3 227 34 228
3 229 16 230
3 231 230 34
3 229 230 231
3 68 232 233
3 68 234 236
3 234 16 235
3 234 235 236
3 68 67 16
3 69 67 68
3 69 0 67
3 69 58 0
3 237 58 238
3 239 238 69
3 237 238 239
3 241 240 58
3 36 242 243
3 70 244 246
3 246 245 36
3 244 245 246
3 70 247 248
3 70 249 251
3 249 26 250
3 249 250 251
3 71 26 70
3 71 1 26
3 51 37 5
3 72 37 51
3 72 17 37
3 39 72 9
3 73 72 39
3 73 17 72
3 73 71 17
3 74 71 73
3 74 1 71
3 74 43 1
3 75 43 74
3 75 6 43
3 41 75 18
3 76 75 41
3 76 6 75
3 76 252 254
3 254 253 6
3 252 253 254
3 256 255 76
3 55 257 259
3 259 258 3
3 257 258 259
3 261 260 55
3 264 263 11
3 262 263 264
3 59 25 0
3 77 25 59
3 77 12 25
3 265 77 266
3 78 267 269
3 267 77 268
3 267 268 269
3 78 12 77
3 78 270 272
3 272 271 12
3 270 271 272
3 274 273 78
