ply
format ascii 1.0
element vertex 118
property float x
property float y
property float z
element face 104
property list uchar int vertex_index
end_header
-3.452244 93.456955 9.530544
-8.896947 102.263573 -0.979315
-7.915334 95.599503 10.620188
-10.633781 100.062721 5.46731
-6.204497 98.078629 4.732738
-1.572343 95.620453 3.829599
-9.475116 92.212051 16.873486
-5.011624 90.478188 15.327094
-5.669964 94.525024 10.135188
-7.145299 96.924911 7.738959
-4.841628 95.8041 7.243711
-9.815529 101.195312 2.428046
-2.892811 97.868103 1.206901
-7.190258 91.349472 16.105892
-10.102638 96.276627 11.507116
-9.330024 97.908043 8.162204
-8.328163 99.162636 4.961709
-7.459674 100.318283 1.737917
-2.573023 94.672615 6.639364
-3.920547 97.023315 4.089413
-5.188413 99.148323 1.485453
-6.406403 101.156212 -1.393279
-10.740107 94.612251 14.547102
-8.565787 93.905495 13.750864
-6.460823 93.025856 13.12436
-4.266675 92.051147 12.436203
-10.02051 102.664677 -0.753483
-10.479801 102.130547 0.950198
-9.356238 101.729443 0.724365
-9.537027 103.102829 -2.433521
-10.02051 102.664677 -0.753483
-11.751701 100.420749 5.693366
-11.063371 99.388389 7.054708
-4.617159 99.530098 -0.076299
-4.040612 98.508213 1.346177
-3.469358 98.889988 -0.215575
-5.226154 100.534042 -1.515665
-5.797408 100.152267 0.046087
-4.617159 99.530098 -0.076299
-10.491706 92.460617 17.332439
-9.756061 91.154407 18.459698
-10.107612 93.412151 15.710294
-11.124201 93.660717 16.169248
-10.491706 92.460617 17.332439
-10.945435 101.62014 2.562566
-11.354561 101.053844 4.082199
-10.224655 100.629017 3.947678
-10.945435 101.62014 2.562566
-10.479801 102.130547 0.950198
-1.741459 97.181682 1.054885
-2.232577 96.744278 2.51825
-1.081225 96.057857 2.366233
-2.357438 98.211513 -0.248717
-1.741459 97.181682 1.054885
-3.469358 98.889988 -0.215575
-2.357438 98.211513 -0.248717
-8.733097 90.917969 17.945101
-9.756061 91.154407 18.459698
-7.590668 90.486679 17.561304
-8.332687 91.780762 16.489689
-8.733097 90.917969 17.945101
-6.450579 90.036984 17.16588
-7.590668 90.486679 17.561304
-5.361262 89.601342 16.776481
-6.100941 90.91383 15.716493
-6.450579 90.036984 17.16588
-10.797799 97.495342 10.074611
-11.134204 96.629898 11.77835
-10.411492 98.31105 8.402155
-10.797799 97.495342 10.074611
-9.716331 97.092335 9.83466
-9.981903 98.985382 6.814757
-11.063371 99.388389 7.054708
-10.411492 98.31105 8.402155
-1.880069 93.407971 7.878519
-3.012633 94.064785 8.084954
-2.319679 92.80014 9.324109
-1.460055 93.989837 6.486423
-1.880069 93.407971 7.878519
-0.959715 94.463757 5.081541
-2.072683 95.146534 5.234481
-1.460055 93.989837 6.486423
-0.543998 94.924568 3.787098
-0.959715 94.463757 5.081541
-1.081225 96.057857 2.366233
-0.543998 94.924568 3.787098
-11.751701 100.420749 5.693366
-11.354561 101.053844 4.082199
-5.865318 101.439839 -2.831172
-5.226154 100.534042 -1.515665
-7.079675 102.053627 -2.778691
-5.865318 101.439839 -2.831172
-8.324947 102.607307 -2.571709
-7.651675 101.709892 -1.186297
-7.079675 102.053627 -2.778691
-9.537027 103.102829 -2.433521
-8.324947 102.607307 -2.571709
-11.780061 94.870544 14.951438
-11.124201 93.660717 16.169248
-11.452939 95.79771 13.298343
-11.780061 94.870544 14.951438
-10.421373 95.444439 13.027109
-11.134204 96.629898 11.77835
-11.452939 95.79771 13.298343
-4.326251 89.183384 16.382677
-5.361262 89.601342 16.776481
-4.019929 90.002716 15.03192
-4.326251 89.183384 16.382677
-3.647455 90.789196 13.586474
-4.63915 91.264668 13.881649
-4.019929 90.002716 15.03192
-3.207021 91.475422 12.200077
-3.647455 90.789196 13.586474
-2.799805 92.178325 10.747248
-3.859459 92.754051 10.983374
-3.207021 91.475422 12.200077
-2.319679 92.80014 9.324109
-2.799805 92.178325 10.747248
3 0 10 8
3 1 26 28
3 28 27 11
3 26 27 28
3 1 29 30
3 2 15 14
3 4 16 9
3 4 17 16
3 3 31 32
3 5 19 18
3 33 20 34
3 35 34 12
3 33 34 35
3 36 21 37
3 38 37 20
3 36 37 38
3 6 39 40
3 6 41 43
3 41 22 42
3 41 42 43
3 6 23 22
3 7 24 13
3 7 25 24
3 8 9 2
3 10 9 8
3 10 4 9
3 11 44 46
3 46 45 3
3 44 45 46
3 48 47 11
3 49 12 50
3 51 50 5
3 49 50 51
3 52 12 53
3 55 54 12
3 56 6 57
3 58 13 59
3 60 59 6
3 58 59 60
3 61 13 62
3 63 7 64
3 65 64 13
3 63 64 65
3 14 66 67
3 15 68 70
3 70 69 14
3 68 69 70
3 15 71 73
3 71 3 72
3 71 72 73
3 9 15 2
3 16 15 9
3 16 3 15
3 16 11 3
3 17 11 16
3 17 1 11
3 74 18 75
3 76 75 0
3 74 75 76
3 77 18 78
3 79 5 80
3 81 80 18
3 79 80 81
3 82 5 83
3 85 84 5
3 87 86 3
3 18 10 0
3 19 10 18
3 19 4 10
3 12 19 5
3 20 19 12
3 20 4 19
3 20 17 4
3 21 17 20
3 21 1 17
3 88 21 89
3 90 21 91
3 92 1 93
3 94 93 21
3 92 93 94
3 96 95 1
3 22 97 98
3 22 99 100
3 22 101 103
3 101 14 102
3 101 102 103
3 23 14 22
3 23 2 14
3 13 23 6
3 24 23 13
3 24 2 23
3 24 8 2
3 25 8 24
3 25 0 8
3 104 7 105
3 106 7 107
3 108 25 109
3 110 109 7
3 108 109 110
3 111 25 112
3 113 0 114
3 115 114 25
3 113 114 115
3 117 116 0
