ply
format ascii 1.0
element vertex 169
property float x
property float y
property float z
element face 154
property list uchar int vertex_index
end_header
-28.943462 50.868393 -47.705826
-31.657909 53.53941 -44.877621
-30.280018 60.490906 -47.194698
-27.666294 57.595451 -49.557453
-32.640152 45.786072 -42.243858
-29.77965 43.362221 -45.494568
-26.397219 40.976101 -47.930923
-25.895142 48.411285 -49.641113
-31.577841 66.644127 -45.045513
-31.404972 61.827423 -45.670513
-30.552885 65.232376 -46.748466
-29.485106 63.615936 -48.097626
-22.704422 42.891777 -50.36858
-33.859699 47.287411 -40.324253
-33.359783 51.035824 -41.765717
-30.303427 52.015213 -46.454716
-30.843588 48.212837 -45.219345
-29.411924 47.13538 -46.625824
-28.156557 42.225521 -46.811428
-27.788309 45.887436 -47.85984
-26.118477 44.713097 -48.863369
-27.439455 49.706005 -48.791588
-26.836586 60.294838 -50.306664
-26.137745 55.924522 -50.458809
-32.836365 54.718456 -43.078747
-32.177246 58.52346 -44.411606
-31.028494 56.986603 -46.074013
-29.819754 56.030151 -47.457172
-28.428303 54.349796 -48.631424
-29.044476 58.864475 -48.460003
-28.277042 62.035664 -49.263485
-27.147003 64.775856 -50.114426
-32.149155 49.742466 -43.664944
-31.182667 44.486938 -44.083187
-24.493193 43.954697 -49.692688
-24.081144 47.186356 -50.435101
-26.866133 53.019619 -49.671776
-25.240274 51.435596 -50.459206
-23.615648 50.338448 -51.091991
-30.58229 67.432514 -46.448207
-31.065363 65.938252 -45.89699
-31.094769 68.138389 -45.596731
-30.052253 66.740318 -47.234201
-30.58229 67.432514 -46.448207
-21.802989 42.381819 -50.636308
-22.520927 44.536631 -50.697005
-33.577715 53.639916 -41.482253
-33.856533 51.624049 -40.771523
-26.112476 59.522093 -50.695774
-26.34353 61.591955 -50.628111
-32.303383 61.044863 -44.110779
-32.65559 59.093224 -43.510599
-28.341017 64.355493 -49.141989
-28.881074 62.8258 -48.680555
-28.945048 65.145629 -48.55906
-27.775997 65.72559 -49.567459
-27.712023 63.40576 -49.688956
-28.341017 64.355493 -49.141989
-32.810488 43.942431 -41.591328
-33.420261 44.6931 -40.631525
-33.249926 46.536741 -41.284056
-32.116594 43.29397 -42.482123
-32.810488 43.942431 -41.591328
-29.946426 41.531363 -44.890119
-30.647934 42.093721 -44.184429
-30.481158 43.92458 -44.788877
-29.11381 40.920975 -45.590706
-29.946426 41.531363 -44.890119
-26.54578 39.269836 -47.439199
-27.425449 39.894547 -46.879452
-27.276888 41.600811 -47.371175
-25.587436 38.66433 -47.964862
-26.54578 39.269836 -47.439199
-25.564653 40.581785 -48.387332
-25.587436 38.66433 -47.964862
-24.941798 52.926452 -50.784804
-25.689009 53.680059 -50.459007
-25.390534 55.170916 -50.784605
-24.129485 52.377879 -51.101196
-24.427961 50.887022 -50.775599
-24.941798 52.926452 -50.784804
-23.385248 51.914433 -51.361959
-24.129485 52.377879 -51.101196
-31.491407 64.235775 -45.358013
-31.917246 62.696844 -44.740233
-32.003681 65.105196 -44.427733
-29.518364 65.932098 -47.908781
-30.018995 64.424156 -47.423046
-30.052253 66.740318 -47.234201
-28.945048 65.145629 -48.55906
-29.518364 65.932098 -47.908781
-21.916856 40.735807 -50.330179
-22.84798 41.167834 -49.999312
-21.916856 40.735807 -50.330179
-21.802989 42.381819 -50.636308
-34.106491 49.749842 -40.05079
-34.366788 47.709929 -39.269888
-33.609741 49.161617 -41.044985
-34.106491 49.749842 -40.05079
-33.856533 51.624049 -40.771523
-25.763055 57.336935 -50.771847
-26.487165 58.10968 -50.382737
-26.112476 59.522093 -50.695774
-25.390534 55.170916 -50.784605
-25.763055 57.336935 -50.771847
-32.98515 57.190722 -42.844169
-33.316006 55.481232 -42.138768
-32.506805 56.620958 -43.745176
-32.98515 57.190722 -42.844169
-32.65559 59.093224 -43.510599
-31.791109 60.175442 -45.04106
-32.303383 61.044863 -44.110779
-31.917246 62.696844 -44.740233
-26.498739 63.832464 -50.531992
-26.34353 61.591955 -50.628111
-26.991795 62.535347 -50.210545
-31.976132 67.516198 -44.120031
-32.003681 65.105196 -44.427733
-31.527857 69.10384 -44.659554
-31.976132 67.516198 -44.120031
-31.926148 69.97591 -43.734072
-31.094769 68.138389 -45.596731
-31.527857 69.10384 -44.659554
-27.200001 67.114235 -49.917439
-27.775997 65.72559 -49.567459
-26.577749 65.945896 -50.418009
-27.200001 67.114235 -49.917439
-26.630747 68.284275 -50.221021
-26.498739 63.832464 -50.531992
-26.577749 65.945896 -50.418009
-34.025375 45.25771 -39.651165
-34.366788 47.709929 -39.269888
-34.025375 45.25771 -39.651165
-33.420261 44.6931 -40.631525
-33.098074 52.87714 -42.422232
-33.577715 53.639916 -41.482253
-33.316006 55.481232 -42.138768
-31.387851 42.644403 -43.401787
-32.116594 43.29397 -42.482123
-31.911409 45.136505 -43.163522
-31.387851 42.644403 -43.401787
-30.647934 42.093721 -44.184429
-28.302263 40.352625 -46.249136
-29.11381 40.920975 -45.590706
-28.968103 42.793871 -46.152998
-28.302263 40.352625 -46.249136
-27.425449 39.894547 -46.879452
-25.425283 42.450283 -48.853555
-25.564653 40.581785 -48.387332
-26.257848 42.844599 -48.397146
-24.612641 42.071083 -49.268215
-25.425283 42.450283 -48.853555
-25.305835 44.333897 -49.278028
-23.742366 41.699294 -49.661366
-24.612641 42.071083 -49.268215
-23.598807 43.423237 -50.030634
-22.84798 41.167834 -49.999312
-23.742366 41.699294 -49.661366
-23.209287 46.68392 -50.730265
-22.520927 44.536631 -50.697005
-23.392783 45.039067 -50.401841
-22.97654 48.259966 -51.05871
-23.209287 46.68392 -50.730265
-23.848396 48.762402 -50.763546
-22.826135 49.889935 -51.326069
-22.97654 48.259966 -51.05871
-22.595735 51.465919 -51.596036
-22.826135 49.889935 -51.326069
-23.385248 51.914433 -51.361959
3 39 10 40
3 41 40 8
3 39 40 41
3 43 42 10
3 45 44 12
3 46 14 47
3 0 17 15
3 0 19 17
3 0 21 19
3 49 48 22
3 50 25 51
3 2 26 9
3 2 27 26
3 2 29 27
3 52 30 53
3 54 53 11
3 52 53 54
3 55 31 56
3 57 56 30
3 55 56 57
3 4 58 60
3 60 59 13
3 58 59 60
3 4 61 62
3 1 32 24
3 5 33 16
3 5 63 65
3 65 64 33
3 63 64 65
3 5 66 67
3 6 68 70
3 70 69 18
3 68 69 70
3 6 71 72
3 6 73 74
3 7 34 20
3 7 35 34
3 3 36 28
3 75 37 76
3 77 76 23
3 75 76 77
3 78 38 79
3 80 79 37
3 78 79 80
3 82 81 38
3 8 83 85
3 83 9 84
3 83 84 85
3 10 9 8
3 10 2 9
3 10 11 2
3 86 11 87
3 88 87 10
3 86 87 88
3 90 89 11
3 12 91 92
3 94 93 12
3 95 13 96
3 14 97 99
3 97 13 98
3 97 98 99
3 14 4 13
3 15 16 1
3 17 16 15
3 17 5 16
3 17 18 5
3 19 18 17
3 19 6 18
3 19 20 6
3 21 20 19
3 21 7 20
3 22 23 3
3 100 23 101
3 102 101 22
3 100 101 102
3 104 103 23
3 105 24 106
3 25 107 109
3 107 24 108
3 107 108 109
3 25 1 24
3 9 110 112
3 110 25 111
3 110 111 112
3 26 25 9
3 26 1 25
3 26 15 1
3 27 15 26
3 27 0 15
3 27 28 0
3 29 28 27
3 29 3 28
3 11 29 2
3 30 29 11
3 30 3 29
3 30 22 3
3 31 22 30
3 31 113 115
3 115 114 22
3 113 114 115
3 116 8 117
3 118 8 119
3 118 119 120
3 122 121 8
3 123 31 124
3 125 31 126
3 125 126 127
3 129 128 31
3 13 130 131
3 133 132 13
3 24 134 136
3 134 14 135
3 134 135 136
3 32 14 24
3 32 4 14
3 16 32 1
3 33 32 16
3 33 4 32
3 33 137 139
3 139 138 4
3 137 138 139
3 141 140 33
3 18 142 144
3 144 143 5
3 142 143 144
3 146 145 18
3 20 147 149
3 149 148 6
3 147 148 149
3 34 150 152
3 152 151 20
3 150 151 152
3 34 153 154
3 34 155 157
3 155 12 156
3 155 156 157
3 35 12 34
3 35 158 160
3 160 159 12
3 158 159 160
3 28 21 0
3 36 21 28
3 36 7 21
3 23 36 3
3 37 36 23
3 37 7 36
3 37 35 7
3 38 35 37
3 38 161 163
3 163 162 35
3 161 162 163
3 38 164 165
3 168 167 38
3 166 167 168
