ply
format ascii 1.0
element vertex 193
property float x
property float y
property float z
element face 190
property list uchar int vertex_index
end_header
25.919222 13.59818 33.838985
22.996117 21.442839 34.727409
29.044535 21.139059 26.407442
22.820293 13.175031 37.669136
23.96962 9.666069 37.376129
24.589615 17.30575 34.169796
30.736271 17.376837 26.219358
32.030979 20.748652 22.330256
29.048443 13.749343 30.081121
23.994514 25.705189 31.340246
27.007992 25.292892 26.887321
25.906731 21.295849 30.759251
27.566795 17.467093 30.265463
29.841433 24.90353 22.649263
22.302345 15.044436 37.753933
31.33634 15.379067 26.533663
32.18721 16.988773 24.547197
27.450386 13.712362 31.979658
28.065136 12.034418 31.945797
26.535313 11.868447 33.748734
21.515133 21.233072 36.796707
22.070946 23.445435 35.207695
23.615004 23.579861 32.955944
25.047516 23.421677 30.946447
24.442547 21.349201 32.778297
25.301983 15.371654 33.958382
26.023222 17.478609 32.259769
26.820295 15.488737 32.035297
28.323029 15.466757 30.192444
28.041208 23.218369 26.620659
28.433296 25.078291 24.782841
29.455662 23.080395 24.578438
24.35219 13.409813 35.771637
24.999886 11.692884 35.568928
23.373524 11.453943 37.517715
22.527927 9.403725 39.058983
22.396809 19.208447 36.337147
23.827532 19.393833 34.395557
23.177105 17.160759 36.018314
23.691189 15.171882 36.014992
29.915092 19.18767 26.305815
30.499741 21.116968 24.328094
31.425591 19.088272 24.301588
32.884773 18.779787 22.455362
30.598675 13.69078 28.28233
25.423588 9.818369 35.716537
25.538952 25.393175 29.131512
26.5354 23.231735 28.855194
27.476776 21.207249 28.593082
25.276352 19.343868 32.488663
26.735073 19.387157 30.507359
28.378426 19.357443 28.298918
29.131672 17.328875 28.313931
29.841173 15.502716 28.312883
30.947502 22.775278 22.507015
32.144847 15.249125 25.58796
31.758219 14.450654 26.505619
21.730096 9.236176 39.988165
22.244263 10.267946 39.146349
21.980221 8.360387 39.939667
21.730096 9.236176 39.988165
22.005763 18.092812 37.185116
21.642524 19.142809 37.322764
22.395911 17.068968 37.0257
22.786957 18.184603 36.17773
22.005763 18.092812 37.185116
33.239372 17.787872 22.615679
32.535992 17.88428 23.50128
32.890591 16.892365 23.661597
33.644236 18.49928 21.542156
33.239372 17.787872 22.615679
29.31956 12.865131 30.161917
30.094676 12.83585 29.262521
29.823559 13.720061 29.181725
28.346555 11.131714 32.002747
27.538671 11.038286 32.919651
23.500639 26.715543 31.558035
23.296763 25.632244 32.428294
24.240005 26.67247 30.397675
23.500639 26.715543 31.558035
24.766733 25.549182 30.235879
25.012224 26.516463 29.293308
24.240005 26.67247 30.397675
27.185859 26.267555 25.919429
26.434124 26.343404 27.121527
29.309079 25.916152 22.726399
28.605011 26.003532 23.793188
29.137364 24.99091 23.716052
30.057189 25.650616 21.661561
29.309079 25.916152 22.726399
22.390446 12.153599 38.451425
22.060481 13.04329 38.599653
21.553199 14.963322 38.676089
21.958531 16.010807 37.893509
21.801507 13.977992 38.642052
21.553199 14.963322 38.676089
22.060481 13.04329 38.599653
22.561319 14.109734 37.711534
21.801507 13.977992 38.642052
32.570282 16.053978 24.594727
31.761775 16.18392 25.54043
32.144847 15.249125 25.58796
32.890591 16.892365 23.661597
32.570282 16.053978 24.594727
26.77376 10.9553 33.821119
27.538671 11.038286 32.919651
27.300224 11.951432 32.847265
24.190641 8.801224 37.405552
23.43604 8.609935 38.274856
21.072639 22.331029 36.992086
20.758622 21.19211 37.786312
21.350545 23.43721 36.197581
21.072639 22.331029 36.992086
21.793039 22.339253 36.002201
21.595704 24.565751 35.409673
21.350545 23.43721 36.197581
22.334979 24.502367 34.362019
21.595704 24.565751 35.409673
23.107008 24.569579 33.236143
22.334979 24.502367 34.362019
22.842975 23.512648 34.08182
23.804759 24.642525 32.148095
23.296763 25.632244 32.428294
23.107008 24.569579 33.236143
32.211569 21.591528 21.407369
32.75901 20.511331 21.401946
22.667062 11.293055 38.375715
23.096908 12.314487 37.593426
22.390446 12.153599 38.451425
22.950725 10.428834 38.288349
22.667062 11.293055 38.375715
22.244263 10.267946 39.146349
22.715193 8.478763 39.116283
23.43604 8.609935 38.274856
23.248773 9.534897 38.217556
22.167487 7.435425 39.996967
22.715193 8.478763 39.116283
21.980221 8.360387 39.939667
21.201686 20.155121 37.552543
20.758622 21.19211 37.786312
21.955971 20.220759 36.566927
21.201686 20.155121 37.552543
21.642524 19.142809 37.322764
22.739725 16.102597 36.886123
22.395911 17.068968 37.0257
21.958531 16.010807 37.893509
33.185907 19.526899 21.464499
32.75901 20.511331 21.401946
32.457876 19.764219 22.392809
33.185907 19.526899 21.464499
33.644236 18.49928 21.542156
30.848652 12.797084 28.421401
31.389387 13.60651 27.379953
30.848652 12.797084 28.421401
30.094676 12.83585 29.262521
28.827906 12.007669 31.094254
29.31956 12.865131 30.161917
28.55679 12.89188 31.013459
28.827906 12.007669 31.094254
28.346555 11.131714 32.002747
26.217897 9.930262 34.805021
26.77376 10.9553 33.821119
25.97945 10.843408 34.732636
24.917624 8.877374 36.575756
24.696604 9.742219 36.546333
24.190641 8.801224 37.405552
25.670254 8.97886 35.738163
24.917624 8.877374 36.575756
26.217897 9.930262 34.805021
25.670254 8.97886 35.738163
25.699604 26.393546 28.243623
25.012224 26.516463 29.293308
26.273472 25.343033 28.009417
26.434124 26.343404 27.121527
25.699604 26.393546 28.243623
31.389387 13.60651 27.379953
31.758219 14.450654 26.505619
30.967507 14.534923 27.407997
27.898511 26.160255 24.867189
27.185859 26.267555 25.919429
27.720644 25.185592 25.835081
27.898511 26.160255 24.867189
28.605011 26.003532 23.793188
31.66983 22.604841 21.495748
31.489241 21.761965 22.418636
32.211569 21.591528 21.407369
31.147896 23.605752 21.521583
31.66983 22.604841 21.495748
30.594861 24.669878 21.592706
30.394467 23.839404 22.578139
31.147896 23.605752 21.521583
30.057189 25.650616 21.661561
30.594861 24.669878 21.592706
3 56 55 15
3 0 19 17
3 1 21 20
3 1 22 21
3 1 24 22
3 0 27 25
3 0 17 27
3 2 31 29
3 3 34 32
3 57 35 58
3 60 59 35
3 61 36 62
3 63 38 64
3 65 64 36
3 63 64 65
3 3 39 14
3 3 32 39
3 6 42 40
3 66 43 67
3 68 67 16
3 66 67 68
3 70 69 43
3 8 71 73
3 73 72 44
3 71 72 73
3 75 74 18
3 4 45 33
3 9 76 77
3 9 78 79
3 9 80 82
3 80 46 81
3 80 81 82
3 11 47 23
3 11 48 47
3 5 49 37
3 12 50 26
3 12 51 50
3 12 52 51
3 8 53 28
3 8 44 53
3 10 83 84
3 13 85 87
3 87 86 30
3 85 86 87
3 13 88 89
3 7 54 41
3 91 90 3
3 92 14 93
3 94 14 95
3 96 3 97
3 98 97 14
3 96 97 98
3 15 16 6
3 99 16 100
3 101 100 15
3 99 100 101
3 103 102 16
3 17 18 8
3 19 18 17
3 19 104 106
3 106 105 18
3 104 105 106
3 108 107 4
3 20 109 110
3 21 111 113
3 113 112 20
3 111 112 113
3 21 114 115
3 21 116 117
3 22 118 120
3 120 119 21
3 118 119 120
3 22 121 123
3 121 9 122
3 121 122 123
3 22 23 9
3 24 23 22
3 24 11 23
3 25 26 5
3 27 26 25
3 27 12 26
3 27 28 12
3 17 28 27
3 17 8 28
3 29 30 10
3 31 30 29
3 31 13 30
3 125 124 7
3 32 33 0
3 34 33 32
3 34 4 33
3 126 34 127
3 128 127 3
3 126 127 128
3 35 129 131
3 129 34 130
3 129 130 131
3 35 4 34
3 35 132 134
3 134 133 4
3 132 133 134
3 137 136 35
3 135 136 137
3 138 20 139
3 36 140 142
3 140 20 141
3 140 141 142
3 36 1 20
3 36 37 1
3 38 37 36
3 38 5 37
3 14 143 145
3 143 38 144
3 143 144 145
3 39 38 14
3 39 5 38
3 39 25 5
3 32 25 39
3 32 0 25
3 40 41 2
3 42 41 40
3 42 7 41
3 16 42 6
3 43 42 16
3 43 7 42
3 43 146 148
3 148 147 7
3 146 147 148
3 150 149 43
3 44 151 152
3 154 153 44
3 18 155 157
3 157 156 8
3 155 156 157
3 159 158 18
3 33 19 0
3 45 19 33
3 45 160 162
3 162 161 19
3 160 161 162
3 163 45 164
3 165 164 4
3 163 164 165
3 166 45 167
3 169 168 45
3 46 170 171
3 46 172 174
3 172 10 173
3 172 173 174
3 23 46 9
3 47 46 23
3 47 10 46
3 47 29 10
3 48 29 47
3 48 2 29
3 37 24 1
3 49 24 37
3 49 11 24
3 26 49 5
3 50 49 26
3 50 11 49
3 50 48 11
3 51 48 50
3 51 2 48
3 51 40 2
3 52 40 51
3 52 6 40
3 28 52 12
3 53 52 28
3 53 6 52
3 53 15 6
3 44 15 53
3 44 175 177
3 177 176 15
3 175 176 177
3 30 178 180
3 180 179 10
3 178 179 180
3 182 181 30
3 41 31 2
3 54 31 41
3 54 13 31
3 183 54 184
3 185 184 7
3 183 184 185
3 186 54 187
3 188 13 189
3 190 189 54
3 188 189 190
3 192 191 13
