ply
format ascii 1.0
element vertex 195
property float x
property float y
property float z
element face 195
property list uchar int vertex_index
end_header
-30.449402 -25.322344 62.964272
-28.348089 -28.200466 69.758018
-29.182905 -37.098438 63.974663
-27.289171 -23.501492 71.804977
-29.345491 -22.568254 69.416832
-29.794418 -27.127285 66.778038
-29.844246 -35.648846 60.223473
-30.148619 -29.921597 59.612709
-30.406401 -23.663631 58.73645
-25.877222 -28.90975 71.817986
-26.935791 -33.577995 69.82058
-27.569595 -38.21994 67.246864
-28.834593 -32.671753 67.240555
-29.853804 -31.604109 63.752811
-30.005152 -21.77689 67.907188
-29.922941 -34.841213 58.151684
-29.829319 -37.682209 58.443874
-30.306301 -27.740734 61.324902
-30.28437 -26.88648 59.197083
-30.479061 -24.697857 60.799358
-27.872368 -26.021009 70.874214
-26.6665 -26.359314 71.818321
-27.246344 -28.800772 70.883942
-26.402266 -31.296583 70.947701
-27.677036 -30.933332 69.84787
-27.975637 -33.387836 68.610741
-28.619127 -30.489262 68.57196
-30.207809 -26.466702 64.915527
-29.846704 -29.459387 65.286964
-30.175705 -28.542032 63.357944
-30.095839 -30.66877 61.746395
-28.502781 -37.749283 65.704666
-28.6824 -39.86972 64.168343
-30.49312 -23.274977 64.654541
-30.631681 -22.456949 62.531239
-28.445555 -23.197994 70.723747
-28.852663 -25.577847 69.651245
-29.190262 -27.814709 68.316978
-29.630827 -24.858021 68.164406
-30.189201 -24.024054 66.408951
-29.597763 -36.527077 62.145729
-29.24826 -39.423859 62.387104
-29.634338 -38.619595 60.455513
-29.996084 -32.002209 57.734886
-30.079815 -29.000597 57.508373
-30.152893 -25.993744 57.003616
-30.63562 -21.288551 60.515797
-25.566799 -33.770176 70.796364
-26.045921 -36.234825 69.68293
-26.523405 -38.537075 68.3853
-27.250443 -35.883148 68.645561
-28.297064 -35.526741 67.181747
-29.028313 -34.876801 65.691887
-29.342772 -30.031147 67.029175
-29.465322 -32.07983 65.58094
-29.534822 -34.347233 63.930462
-29.867197 -33.479427 62.062744
-30.003075 -32.852692 59.922474
-29.893469 -35.90317 57.274807
-29.89962 -34.486477 57.13007
-30.60027 -21.765811 64.407367
-30.488495 -22.011659 65.370484
-28.895523 -22.883124 70.07029
-28.696714 -21.685924 70.594795
-29.146682 -21.371054 69.941338
-30.336536 -22.386198 66.247689
-30.097176 -22.900472 67.15807
-30.244512 -21.262616 66.996807
-30.488495 -22.011659 65.370484
-30.341161 -23.649515 65.531746
-30.336536 -22.386198 66.247689
-29.75918 -39.12689 58.574036
-29.827724 -38.75543 57.643274
-30.314498 -23.229517 57.603973
-30.187744 -24.394573 56.737556
-30.279647 -24.828688 57.870033
-30.71473 -20.183464 61.361854
-30.633651 -21.87275 61.523518
-30.712761 -20.767663 62.369575
-26.601952 -23.756847 72.169876
-26.936538 -22.399456 72.137901
-25.530607 -27.796384 72.153401
-25.925246 -26.521166 72.153568
-26.271861 -27.634532 71.818153
-25.110008 -29.095299 72.076881
-25.530607 -27.796384 72.153401
-25.418884 -30.178691 71.757812
-25.110008 -29.095299 72.076881
-27.212741 -39.551853 67.119339
-26.689646 -39.71042 67.688557
-27.0465 -38.378507 67.816082
-29.059413 -40.667412 62.443779
-29.312714 -40.410527 61.496413
-29.548386 -20.998139 69.246986
-29.146682 -21.371054 69.941338
-29.878217 -20.602457 68.492165
-29.675321 -22.172572 68.66201
-29.548386 -20.998139 69.246986
-30.152573 -20.166749 67.739788
-29.878217 -20.602457 68.492165
-30.244512 -21.262616 66.996807
-30.152573 -20.166749 67.739788
-29.846658 -37.323667 57.420902
-29.87613 -36.261711 58.297779
-29.893469 -35.90317 57.274807
-29.827724 -38.75543 57.643274
-29.846658 -37.323667 57.420902
-28.19397 -39.056116 65.714451
-27.727377 -39.291444 66.48555
-28.036188 -37.984611 66.475765
-28.28378 -40.116335 64.94629
-28.19397 -39.056116 65.714451
-28.592591 -38.809501 64.936504
-28.426491 -41.199478 64.113693
-28.28378 -40.116335 64.94629
-30.66955 -21.356797 63.345717
-30.562401 -22.865963 63.59289
-30.60027 -21.765811 64.407367
-30.712761 -20.767663 62.369575
-30.66955 -21.356797 63.345717
-27.599681 -22.158921 71.697986
-26.936538 -22.399456 72.137901
-28.177873 -22.007171 71.157372
-28.696714 -21.685924 70.594795
-27.867363 -23.349743 71.264362
-27.599681 -22.158921 71.697986
-28.177873 -22.007171 71.157372
-29.505753 -40.008394 60.530617
-29.312714 -40.410527 61.496413
-29.441299 -39.021727 61.421309
-29.66169 -39.595583 59.579855
-29.731828 -38.150902 59.449694
-29.75918 -39.12689 58.574036
-29.505753 -40.008394 60.530617
-29.66169 -39.595583 59.579855
-29.944305 -31.567644 56.74312
-29.936191 -33.066975 56.921671
-29.98617 -30.066837 56.629863
-29.944305 -31.567644 56.74312
-30.037949 -30.501403 57.621629
-29.991617 -28.534069 56.33724
-29.98617 -30.066837 56.629863
-30.028156 -27.030642 56.084862
-29.991617 -28.534069 56.33724
-30.116354 -27.49717 57.255994
-30.042227 -25.555646 55.821258
-30.028156 -27.030642 56.084862
-30.042227 -25.555646 55.821258
-30.187744 -24.394573 56.737556
-30.690381 -19.690433 60.305155
-30.71473 -20.183464 61.361854
-30.572652 -20.82356 59.421908
-30.690381 -19.690433 60.305155
-30.458042 -22.0111 58.532234
-30.52101 -22.476091 59.626123
-30.572652 -20.82356 59.421908
-30.314498 -23.229517 57.603973
-30.458042 -22.0111 58.532234
-26.290617 -25.185758 72.176548
-26.601952 -23.756847 72.169876
-26.977835 -24.930403 71.811649
-26.290617 -25.185758 72.176548
-25.925246 -26.521166 72.153568
-25.681406 -31.372107 71.32267
-25.418884 -30.178691 71.757812
-26.139744 -30.103167 71.382844
-25.263672 -32.608904 71.247001
-25.681406 -31.372107 71.32267
-25.984533 -32.533379 70.872032
-24.775718 -33.903881 71.09214
-25.263672 -32.608904 71.247001
-25.122273 -35.115088 70.606674
-24.775718 -33.903881 71.09214
-25.361833 -36.347412 70.049958
-25.122273 -35.115088 70.606674
-25.80636 -35.0025 70.239647
-25.616557 -37.479397 69.512474
-25.361833 -36.347412 70.049958
-26.284663 -37.38595 69.034115
-25.855299 -38.630522 68.863659
-25.616557 -37.479397 69.512474
-29.936191 -33.066975 56.921671
-29.89962 -34.486477 57.13007
-29.959513 -33.421711 57.943285
-26.115431 -39.751363 68.225597
-25.855299 -38.630522 68.863659
-26.115431 -39.751363 68.225597
-26.689646 -39.71042 67.688557
-27.212741 -39.551853 67.119339
-27.727377 -39.291444 66.48555
-28.776484 -40.890343 63.334398
-28.96533 -39.646789 63.277723
-29.059413 -40.667412 62.443779
-28.426491 -41.199478 64.113693
-28.776484 -40.890343 63.334398
3 59 58 15
3 0 19 17
3 1 22 20
3 1 24 22
3 1 26 24
3 0 29 27
3 0 17 29
3 2 32 31
3 61 60 33
3 4 62 64
3 62 35 63
3 62 63 64
3 4 36 35
3 4 38 36
3 65 39 66
3 67 66 14
3 65 66 67
3 68 33 69
3 70 69 39
3 68 69 70
3 6 42 40
3 72 71 16
3 7 44 43
3 8 45 18
3 8 73 75
3 75 74 45
3 73 74 75
3 76 46 77
3 78 77 34
3 76 77 78
3 3 79 80
3 9 81 83
3 83 82 21
3 81 82 83
3 9 84 85
3 9 86 87
3 10 47 23
3 10 48 47
3 10 50 48
3 12 51 25
3 12 52 51
3 5 53 37
3 13 54 28
3 13 55 54
3 13 56 55
3 7 57 30
3 7 43 57
3 11 88 90
3 90 89 49
3 88 89 90
3 92 91 41
3 93 4 94
3 95 14 96
3 97 96 4
3 95 96 97
3 98 14 99
3 101 100 14
3 15 16 6
3 102 16 103
3 104 103 15
3 102 103 104
3 106 105 16
3 17 18 7
3 19 18 17
3 19 8 18
3 20 21 3
3 22 21 20
3 22 9 21
3 22 23 9
3 24 23 22
3 24 10 23
3 24 25 10
3 26 25 24
3 26 12 25
3 27 28 5
3 29 28 27
3 29 13 28
3 29 30 13
3 17 30 29
3 17 7 30
3 31 107 109
3 109 108 11
3 107 108 109
3 32 110 112
3 112 111 31
3 110 111 112
3 32 113 114
3 33 34 0
3 115 34 116
3 117 116 33
3 115 116 117
3 119 118 34
3 120 3 121
3 35 122 123
3 35 124 126
3 124 3 125
3 124 125 126
3 35 20 3
3 36 20 35
3 36 1 20
3 36 37 1
3 38 37 36
3 38 5 37
3 14 38 4
3 39 38 14
3 39 5 38
3 39 27 5
3 33 27 39
3 33 0 27
3 40 41 2
3 42 41 40
3 42 127 129
3 129 128 41
3 127 128 129
3 16 42 6
3 130 42 131
3 132 131 16
3 130 131 132
3 134 133 42
3 43 135 136
3 44 137 139
3 139 138 43
3 137 138 139
3 44 140 141
3 18 44 7
3 45 44 18
3 45 142 144
3 144 143 44
3 142 143 144
3 45 145 146
3 148 147 45
3 34 19 0
3 46 19 34
3 46 8 19
3 149 46 150
3 151 46 152
3 153 8 154
3 155 154 46
3 153 154 155
3 157 156 8
3 21 158 160
3 160 159 3
3 158 159 160
3 162 161 21
3 23 163 165
3 165 164 9
3 163 164 165
3 47 166 168
3 168 167 23
3 166 167 168
3 47 169 170
3 47 171 172
3 48 173 175
3 175 174 47
3 173 174 175
3 48 176 177
3 48 178 180
3 178 49 179
3 178 179 180
3 50 49 48
3 50 11 49
3 25 50 10
3 51 50 25
3 51 11 50
3 51 31 11
3 52 31 51
3 52 2 31
3 37 26 1
3 53 26 37
3 53 12 26
3 28 53 5
3 54 53 28
3 54 12 53
3 54 52 12
3 55 52 54
3 55 2 52
3 55 40 2
3 56 40 55
3 56 6 40
3 30 56 13
3 57 56 30
3 57 6 56
3 57 15 6
3 43 15 57
3 43 181 183
3 183 182 15
3 181 182 183
3 49 184 185
3 187 186 49
3 189 188 11
3 41 32 2
3 190 32 191
3 192 191 41
3 190 191 192
3 194 193 32
