ply
format ascii 1.0
element vertex 215
property float x
property float y
property float z
element face 204
property list uchar int vertex_index
end_header
-6.765751 57.933113 -51.214153
-6.702529 82.978737 -47.172256
-11.762963 71.395676 -51.023964
-2.588588 69.591805 -47.832043
-15.996691 70.912514 -51.843071
-14.241638 77.431602 -50.645477
-4.536226 76.291481 -47.717735
-10.802977 58.12912 -52.037537
-13.417173 64.719086 -52.013199
-9.249566 64.486679 -51.137939
-9.468635 77.632179 -49.4104
-7.233221 70.844696 -49.713158
-4.837725 63.73138 -49.765312
-0.89635 62.946926 -47.997246
-8.854052 57.915665 -51.70216
-9.372482 54.745644 -52.085327
-7.464293 54.656776 -51.781967
-13.913664 71.373062 -51.481392
-14.792461 67.752106 -51.988842
-12.589473 67.984802 -51.583038
-11.233508 64.362076 -51.627773
-10.473772 67.957306 -51.093121
-10.562094 80.665657 -49.114197
-8.026448 80.185326 -48.384502
-3.669834 73.042976 -47.846539
-6.022081 73.567802 -48.835117
-4.952454 70.354095 -48.856533
-6.001964 67.312637 -49.726002
-3.85927 66.930542 -48.866806
-2.902917 63.516415 -48.951756
-1.675629 66.032867 -47.906422
-15.109642 74.331345 -51.293175
-12.894659 74.575089 -50.851902
-4.056903 82.121529 -46.228901
-5.575337 79.728851 -47.501678
-3.138084 78.964203 -46.509724
-1.370771 72.234001 -46.742443
-0.511213 68.755745 -46.783844
-11.283476 54.665516 -52.32531
-9.949242 51.505085 -52.413765
-5.116493 85.204361 -45.817356
-2.553651 84.332214 -44.827305
-12.106563 61.350842 -52.031597
-10.08689 61.230938 -51.656273
-7.971127 61.218315 -51.144226
-11.855907 77.53775 -50.11554
-10.538908 74.371239 -50.290375
-6.935414 76.915146 -48.638054
-8.288783 74.223595 -49.602375
-9.409351 71.038704 -50.423927
-8.212267 67.651649 -50.467121
-7.001198 64.352554 -50.476158
-5.831938 60.820461 -50.5476
-3.739344 60.518024 -49.819103
0.347067 65.481926 -46.778484
-7.364489 81.582031 -47.778379
-8.612547 81.740571 -48.199647
-7.950588 83.137276 -47.593525
-14.67564 75.881473 -50.969326
-15.764593 75.809498 -51.131975
-15.330591 77.359626 -50.808127
-2.355908 80.032387 -45.845425
-3.597494 80.542866 -46.369312
-2.815317 81.61105 -45.705013
-0.703002 73.415031 -46.144956
-1.824307 73.888401 -46.724697
-0.296854 71.720299 -46.149965
-0.703002 73.415031 -46.144956
-11.043226 56.397318 -52.181424
-11.993665 56.371223 -52.316769
-11.753415 58.103026 -52.172883
-9.002464 51.51741 -52.324517
-9.660862 53.125365 -52.249546
-8.714084 53.13769 -52.160297
-9.296924 49.868716 -52.520122
-9.002464 51.51741 -52.324517
-4.277662 86.36026 -44.983362
-5.620933 86.762619 -45.459757
-2.996242 85.924186 -44.488337
-3.835072 84.768287 -45.32233
-4.277662 86.36026 -44.983362
-16.406352 69.057659 -52.050394
-17.411767 68.767235 -52.161897
-17.002106 70.62209 -51.954574
-14.462716 64.456921 -52.170609
-15.15036 65.973431 -52.15843
-14.104817 66.235596 -52.00102
-13.754903 62.96369 -52.16799
-14.462716 64.456921 -52.170609
-12.761868 63.034964 -52.022398
-13.099598 61.279568 -52.177189
-13.754903 62.96369 -52.16799
-1.349743 61.580671 -48.498606
-2.353027 61.865416 -48.975861
-1.899633 63.23167 -48.474501
-0.411238 61.357033 -48.033131
-1.349743 61.580671 -48.498606
0.903059 66.624099 -46.202241
-0.082073 67.118836 -46.781164
0.473919 68.261009 -46.204921
-14.840887 79.009605 -50.410772
-15.330591 77.359626 -50.808127
-7.759989 53.093256 -52.008617
-8.714084 53.13769 -52.160297
-8.418387 54.70121 -51.933647
-9.88037 81.980736 -48.564495
-11.164994 82.181781 -48.888485
-9.294271 80.425491 -48.749349
-9.88037 81.980736 -48.564495
-8.612547 81.740571 -48.199647
-16.695521 72.369091 -51.728419
-17.002106 70.62209 -51.954574
-16.251996 74.078507 -51.45347
-16.906947 75.556659 -51.292271
-15.764593 75.809498 -51.131975
-15.553166 72.621929 -51.568123
-16.695521 72.369091 -51.728419
-16.251996 74.078507 -51.45347
-1.970528 78.397369 -45.976793
-2.355908 80.032387 -45.845425
-2.707963 77.253502 -46.608337
-1.970528 78.397369 -45.976793
-3.407034 75.917141 -47.212343
-3.837155 77.627842 -47.113729
-2.707963 77.253502 -46.608337
-2.973838 74.292889 -47.276745
-4.10303 74.667228 -47.782137
-3.407034 75.917141 -47.212343
-2.520302 72.638488 -47.294491
-2.973838 74.292889 -47.276745
-1.824307 73.888401 -46.724697
0.132925 69.981171 -46.170665
-0.940992 70.494873 -46.763143
-0.296854 71.720299 -46.149965
0.473919 68.261009 -46.204921
0.132925 69.981171 -46.170665
-12.202084 54.563778 -52.411444
-11.993665 56.371223 -52.316769
-11.555096 52.868792 -52.437819
-12.473703 52.767054 -52.523953
-12.202084 54.563778 -52.411444
-10.887978 51.288576 -52.482046
-11.555096 52.868792 -52.437819
-10.616359 53.085301 -52.369537
-10.133506 49.787295 -52.543183
-10.887978 51.288576 -52.482046
-10.133506 49.787295 -52.543183
-9.296924 49.868716 -52.520122
-7.165674 84.520157 -46.878582
-7.950588 83.137276 -47.593525
-6.372656 85.632969 -46.201132
-5.620933 86.762619 -45.459757
-5.909511 84.091549 -46.494806
-7.165674 84.520157 -46.878582
-6.372656 85.632969 -46.201132
-2.063692 82.716392 -45.004216
-2.815317 81.61105 -45.705013
-3.305277 83.226871 -45.528103
-1.782989 85.427078 -44.010662
-2.996242 85.924186 -44.488337
-1.271103 83.850254 -44.228875
-1.782989 85.427078 -44.010662
-2.063692 82.716392 -45.004216
-1.271103 83.850254 -44.228875
-6.173523 56.326327 -51.291511
-5.75535 57.803106 -50.93687
-15.804237 67.477455 -52.123279
-16.406352 69.057659 -52.050394
-15.394576 69.33231 -51.915957
-15.804237 67.477455 -52.123279
-15.15036 65.973431 -52.15843
-12.405209 59.713887 -52.169912
-13.099598 61.279568 -52.177189
-11.45477 59.739981 -52.034567
-11.753415 58.103026 -52.172883
-12.405209 59.713887 -52.169912
-13.629031 79.026355 -50.199255
-14.840887 79.009605 -50.410772
-11.789259 80.643383 -49.433615
-11.164994 82.181781 -48.888485
-12.436166 79.07943 -49.934286
-11.789259 80.643383 -49.433615
-11.209001 79.101703 -49.614869
-13.048773 77.484676 -50.380509
-13.629031 79.026355 -50.199255
-12.436166 79.07943 -49.934286
-5.288443 59.24678 -50.603594
-5.75535 57.803106 -50.93687
-6.298844 59.376787 -50.880876
-4.242147 59.095562 -50.239345
-5.288443 59.24678 -50.603594
-4.785641 60.669242 -50.183352
-3.256387 59.012928 -49.892021
-4.242147 59.095562 -50.239345
-2.771241 60.36622 -49.409534
-3.32113 62.017219 -49.38543
-2.353027 61.865416 -48.975861
-3.256387 59.012928 -49.892021
-2.771241 60.36622 -49.409534
1.304291 64.985935 -46.181406
0.903059 66.624099 -46.202241
0.686073 63.952743 -46.83601
1.304291 64.985935 -46.181406
0.064365 62.685243 -47.445391
-0.274641 64.214426 -47.387865
0.686073 63.952743 -46.83601
-0.411238 61.357033 -48.033131
0.064365 62.685243 -47.445391
-6.522794 54.688158 -51.575418
-7.115022 56.294944 -51.49806
-6.173523 56.326327 -51.291511
-6.801033 53.131369 -51.874724
-6.522794 54.688158 -51.575418
-7.759989 53.093256 -52.008617
-6.801033 53.131369 -51.874724
3 0 16 14
3 2 19 17
3 2 21 19
3 1 55 57
3 55 23 56
3 55 56 57
3 3 26 24
3 3 28 26
3 3 30 28
3 5 58 60
3 58 31 59
3 58 59 60
3 5 32 31
3 61 35 62
3 63 62 33
3 61 62 63
3 64 36 65
3 67 66 36
3 7 68 70
3 68 38 69
3 68 69 70
3 71 39 72
3 73 72 15
3 71 72 73
3 75 74 39
3 76 40 77
3 78 41 79
3 80 79 40
3 78 79 80
3 4 81 83
3 81 82 83
3 8 84 86
3 86 85 18
3 84 85 86
3 8 87 88
3 8 89 91
3 89 42 90
3 89 90 91
3 9 43 20
3 9 44 43
3 10 45 22
3 10 46 45
3 6 47 34
3 11 48 25
3 11 49 48
3 11 50 49
3 12 51 27
3 12 52 51
3 12 53 52
3 13 92 94
3 94 93 29
3 92 93 94
3 13 95 96
3 97 54 98
3 99 98 37
3 97 98 99
3 100 5 101
3 14 15 7
3 16 15 14
3 16 102 104
3 104 103 15
3 102 103 104
3 17 18 4
3 19 18 17
3 19 8 18
3 19 20 8
3 21 20 19
3 21 9 20
3 105 22 106
3 23 107 109
3 107 22 108
3 107 108 109
3 23 10 22
3 24 25 6
3 26 25 24
3 26 11 25
3 26 27 11
3 28 27 26
3 28 12 27
3 28 29 12
3 30 29 28
3 30 13 29
3 110 4 111
3 31 112 114
3 112 113 114
3 31 115 117
3 115 4 116
3 115 116 117
3 31 17 4
3 32 17 31
3 32 2 17
3 33 34 1
3 35 34 33
3 35 6 34
3 118 35 119
3 120 35 121
3 122 6 123
3 124 123 35
3 122 123 124
3 125 24 126
3 127 126 6
3 125 126 127
3 36 128 130
3 128 24 129
3 128 129 130
3 36 3 24
3 36 37 3
3 131 37 132
3 133 132 36
3 131 132 133
3 135 134 37
3 38 136 137
3 38 138 140
3 138 139 140
3 15 38 7
3 39 38 15
3 39 141 143
3 143 142 38
3 141 142 143
3 39 144 145
3 147 146 39
3 148 1 149
3 40 150 151
3 40 152 154
3 152 1 153
3 152 153 154
3 40 33 1
3 41 33 40
3 41 155 157
3 157 156 33
3 155 156 157
3 158 41 159
3 160 41 161
3 163 162 41
3 165 164 0
3 18 166 168
3 168 167 4
3 166 167 168
3 170 169 18
3 42 171 172
3 42 173 175
3 173 7 174
3 173 174 175
3 20 42 8
3 43 42 20
3 43 7 42
3 43 14 7
3 44 14 43
3 44 0 14
3 176 5 177
3 22 178 179
3 45 180 182
3 182 181 22
3 180 181 182
3 45 183 185
3 183 5 184
3 183 184 185
3 45 32 5
3 46 32 45
3 46 2 32
3 34 23 1
3 47 23 34
3 47 10 23
3 25 47 6
3 48 47 25
3 48 10 47
3 48 46 10
3 49 46 48
3 49 2 46
3 49 21 2
3 50 21 49
3 50 9 21
3 27 50 11
3 51 50 27
3 51 9 50
3 51 44 9
3 52 44 51
3 52 0 44
3 52 186 188
3 188 187 0
3 186 187 188
3 53 189 191
3 191 190 52
3 189 190 191
3 53 192 193
3 29 53 12
3 194 53 195
3 196 195 29
3 194 195 196
3 198 197 53
3 37 30 3
3 54 30 37
3 54 13 30
3 199 54 200
3 201 54 202
3 203 13 204
3 205 204 54
3 203 204 205
3 207 206 13
3 208 16 209
3 210 209 0
3 208 209 210
3 211 16 212
3 214 213 16
