ply
format ascii 1.0
element vertex 139
property float x
property float y
property float z
element face 118
property list uchar int vertex_index
end_header
0.692506 6.22479 -60.777744
2.446621 10.212641 -64.662262
2.406734 15.91398 -65.41259
0.772224 0.269692 -58.9641
2.216322 -2.296621 -60.43998
2.399963 4.149558 -62.92609
1.41134 13.951179 -63.712711
-0.015407 -4.694543 -55.878014
0.785864 3.281712 -60.006958
1.565351 2.026477 -60.917099
1.537877 5.146084 -61.881367
3.377861 12.09609 -66.312279
3.367403 8.98342 -65.647995
0.626379 9.057108 -61.456264
1.510337 8.154598 -62.701817
1.445093 11.017087 -63.275806
2.325157 12.973505 -64.991356
3.400791 15.018707 -66.71579
0.013434 -1.643433 -56.97023
0.746679 -2.78056 -57.868763
1.387166 -4.405021 -58.402397
1.477161 -1.032351 -59.718678
2.356532 0.976919 -61.804794
3.266929 2.66871 -63.646534
2.386391 7.18167 -63.8139
3.356908 5.936368 -64.806267
2.459088 18.73555 -65.502724
-0.101342 -6.305632 -55.208044
0.269697 -5.310574 -56.176518
0.34895 5.33483 -59.90354
0.289694 6.810075 -60.257562
0.739185 4.753251 -60.392351
0.395629 3.863291 -59.518147
0.34895 5.33483 -59.90354
3.916828 11.521357 -66.843926
3.931723 13.085045 -67.113216
0.6 10.572191 -61.749916
0.202161 9.623409 -60.876996
1.009356 11.552181 -62.659687
1.035736 10.037097 -62.366035
0.6 10.572191 -61.749916
0.392829 -0.68687 -57.967165
0.035703 -0.081791 -57.549074
0.415099 0.874772 -58.546009
3.870344 6.951332 -65.69928
3.362156 7.459894 -65.227131
3.875591 8.474858 -66.120144
3.808983 5.320253 -65.149666
3.870344 6.951332 -65.69928
2.539597 20.020428 -65.484184
1.949745 19.072254 -64.736388
2.157855 -4.01663 -59.746249
1.743276 -5.07083 -58.727457
1.801744 -3.350821 -59.421188
0.940337 14.442645 -63.009603
0.99248 13.019227 -62.87814
1.417828 15.32815 -63.839872
0.940337 14.442645 -63.009603
1.915525 16.30955 -64.689811
1.909037 14.932579 -64.56265
1.417828 15.32815 -63.839872
-0.401477 -5.519509 -54.936331
-0.362041 -4.091874 -55.482811
-0.401477 -5.519509 -54.936331
-0.101342 -6.305632 -55.208044
0.421918 2.380782 -59.067438
0.395629 3.863291 -59.518147
0.779044 1.775702 -59.485529
0.415099 0.874772 -58.546009
0.421918 2.380782 -59.067438
3.911599 9.965022 -66.511784
3.372632 10.539755 -65.980137
3.916828 11.521357 -66.843926
3.875591 8.474858 -66.120144
3.911599 9.965022 -66.511784
2.625363 -3.096252 -60.712812
2.682805 -1.379864 -61.415757
0.256631 8.226235 -60.596823
0.202161 9.623409 -60.876996
0.659442 7.640949 -61.117004
0.289694 6.810075 -60.257562
0.256631 8.226235 -60.596823
1.428216 12.484133 -63.494259
1.009356 11.552181 -62.659687
0.99248 13.019227 -62.87814
3.943188 14.546353 -67.314972
3.931723 13.085045 -67.113216
3.389326 13.557398 -66.514035
-0.339691 -0.987804 -56.59293
0.035703 -0.081791 -57.549074
-0.347621 -2.566319 -56.028919
-0.339691 -0.987804 -56.59293
-0.000987 -3.168988 -56.424122
-0.362041 -4.091874 -55.482811
-0.347621 -2.566319 -56.028919
0.65074 -4.353582 -57.171892
0.269697 -5.310574 -56.176518
0.365636 -3.737552 -56.873389
1.066922 -3.59279 -58.13558
0.970983 -5.165813 -57.438709
0.65074 -4.353582 -57.171892
2.75291 0.256906 -62.098163
2.682805 -1.379864 -61.415757
2.286427 -0.659851 -61.122387
3.208108 1.102801 -63.019034
2.75291 0.256906 -62.098163
2.811731 1.822815 -62.725664
3.729688 2.066453 -63.981043
3.208108 1.102801 -63.019034
3.763994 3.686424 -64.5698
3.311918 4.302539 -64.226401
3.808983 5.320253 -65.149666
3.729688 2.066453 -63.981043
3.763994 3.686424 -64.5698
1.941701 17.720335 -64.734879
1.949745 19.072254 -64.736388
2.432911 17.324765 -65.457657
1.915525 16.30955 -64.689811
1.941701 17.720335 -64.734879
3.058769 19.575229 -66.228341
2.539597 20.020428 -65.484184
2.984645 18.215096 -66.227562
3.058769 19.575229 -66.228341
2.958468 16.80431 -66.182495
2.432911 17.324765 -65.457657
2.984645 18.215096 -66.227562
3.455496 16.356674 -66.834095
2.903763 15.466344 -66.06419
2.958468 16.80431 -66.182495
4.054819 15.928966 -67.536632
3.455496 16.356674 -66.834095
3.943188 14.546353 -67.314972
4.054819 15.928966 -67.536632
1.293808 -6.008191 -57.714607
0.970983 -5.165813 -57.438709
1.293808 -6.008191 -57.714607
1.743276 -5.07083 -58.727457
2.157855 -4.01663 -59.746249
2.625363 -3.096252 -60.712812
3 28 27 7
3 0 29 30
3 0 31 33
3 31 8 32
3 31 32 33
3 0 10 8
3 35 34 11
3 36 13 37
3 38 15 39
3 40 39 13
3 38 39 40
3 2 16 6
3 2 17 16
3 3 41 43
3 41 18 42
3 41 42 43
3 3 19 18
3 3 21 19
3 5 22 9
3 5 23 22
3 1 24 14
3 44 25 45
3 46 45 12
3 44 45 46
3 48 47 25
3 49 26 50
3 4 51 53
3 53 52 20
3 51 52 53
3 54 6 55
3 56 6 57
3 58 2 59
3 60 59 6
3 58 59 60
3 7 61 62
3 64 63 7
3 8 65 66
3 8 67 69
3 67 3 68
3 67 68 69
3 8 9 3
3 10 9 8
3 10 5 9
3 11 12 1
3 70 12 71
3 72 71 11
3 70 71 72
3 74 73 12
3 76 75 4
3 13 77 78
3 13 79 81
3 79 0 80
3 79 80 81
3 13 14 0
3 15 14 13
3 15 1 14
3 6 82 84
3 82 15 83
3 82 83 84
3 16 15 6
3 16 1 15
3 16 11 1
3 17 11 16
3 17 85 87
3 87 86 11
3 85 86 87
3 18 88 89
3 18 90 91
3 18 92 94
3 92 7 93
3 92 93 94
3 19 7 18
3 19 95 97
3 97 96 7
3 95 96 97
3 19 98 100
3 98 20 99
3 98 99 100
3 21 20 19
3 21 4 20
3 9 21 3
3 22 21 9
3 22 4 21
3 22 101 103
3 103 102 4
3 101 102 103
3 23 104 106
3 106 105 22
3 104 105 106
3 23 107 108
3 14 10 0
3 24 10 14
3 24 5 10
3 12 24 1
3 25 24 12
3 25 5 24
3 25 23 5
3 109 23 110
3 111 110 25
3 109 110 111
3 113 112 23
3 26 114 115
3 26 116 118
3 116 2 117
3 116 117 118
3 119 26 120
3 121 26 122
3 123 2 124
3 125 124 26
3 123 124 125
3 126 17 127
3 128 127 2
3 126 127 128
3 129 17 130
3 132 131 17
3 20 133 134
3 136 135 20
3 138 137 4
