ply
format ascii 1.0
element vertex 247
property float x
property float y
property float z
element face 257
property list uchar int vertex_index
end_header
4.764969 88.263931 8.058882
0.553652 97.086395 -1.984386
1.826442 82.94294 18.219578
8.847392 78.932617 14.890977
8.259385 85.666 7.341908
6.732028 89.677719 3.153274
0.557608 79.485023 23.221088
4.373772 77.626297 21.426958
5.526759 81.022331 16.526861
7.73339 75.665054 19.652119
0.839647 91.035126 8.539913
2.676294 92.911423 3.20684
4.842122 93.831238 -1.818658
-2.212769 85.006035 19.639391
-0.868327 88.412331 14.104456
3.28132 85.930092 13.025321
6.779299 83.847816 11.695386
10.006962 81.570091 10.373031
11.846977 77.165237 12.562086
9.708656 84.534256 6.950962
9.100993 86.337059 5.135484
6.131071 76.687645 20.484112
2.812233 89.783691 8.143847
1.727223 92.034599 5.919994
3.753846 90.633141 5.652465
7.781494 90.131279 0.691451
5.857683 91.675751 0.86914
6.866902 92.090187 -1.626743
-0.590106 96.495262 0.902868
-5.7109 88.724495 18.225868
1.185716 81.208328 20.802431
-0.906036 82.196053 21.642979
-0.089078 83.929642 18.93688
-1.541867 86.746109 16.915091
0.568092 85.716293 16.140884
1.19695 87.316444 13.436546
2.423549 84.701073 15.502277
7.292968 79.932961 15.719049
6.202913 82.426689 14.128376
7.859835 81.453804 13.300328
8.467397 82.725288 11.003293
9.362027 80.452522 12.543518
10.880933 79.491272 11.526097
10.321774 78.124031 13.78713
6.636407 87.004822 7.544157
5.626786 89.166649 5.558418
7.483928 87.704926 5.326361
8.512897 88.229614 2.929996
2.469775 78.578369 22.367807
3.126667 80.353386 19.824308
3.708586 82.054733 17.312267
4.911148 79.415123 18.97781
6.64254 78.380112 18.158232
8.270149 77.310715 17.329321
9.907187 76.377686 16.145573
-1.187114 92.143326 9.117673
-0.347087 93.30706 6.333482
0.484347 94.228683 3.744597
1.566431 95.04332 0.765487
4.818071 91.204506 3.264663
3.812587 93.374107 0.737813
2.736655 95.539291 -2.028476
-1.462436 80.204498 24.231943
-2.933303 83.07666 22.434431
-4.263173 85.97094 20.308167
-3.640879 87.88858 17.438261
-3.028234 89.527245 14.736745
-2.147366 90.899696 11.963951
-0.092427 89.817741 11.361245
1.95076 88.599976 10.860655
3.883756 87.339317 10.444316
4.316193 83.61731 14.811766
5.075334 84.939316 12.300048
5.847999 86.037994 9.919147
7.506027 84.886627 9.425334
9.105663 83.693428 8.932027
10.38411 82.79409 8.336391
11.282804 80.910957 9.319105
12.180635 78.736786 10.388757
11.346951 75.661568 14.814235
10.090439 84.753086 6.042891
10.241805 84.064403 6.825206
7.887072 91.124623 -1.493734
7.324198 91.110733 -0.467646
8.344368 90.145169 -0.334637
7.555823 92.031398 -2.803568
7.887072 91.124623 -1.493734
-0.634207 97.82066 -1.84436
-1.206086 97.525093 -0.400733
-0.018227 96.790829 -0.540759
-6.008356 87.757008 19.6444
-6.850988 89.174191 18.621292
9.295527 87.413692 3.044253
8.806945 87.283336 4.03274
9.589575 86.467415 4.146997
9.058366 88.278244 1.927784
9.295527 87.413692 3.044253
3.421773 78.102333 21.897382
3.076481 77.189788 23.157204
4.028479 76.713752 22.68678
8.565448 75.213729 19.038021
8.833828 76.03656 17.876622
8.001769 76.487885 18.49072
4.353668 94.798458 -3.148589
3.300934 95.652484 -3.253498
3.789388 94.685265 -1.923567
-0.452414 79.844761 23.726516
-0.772665 78.887467 24.962764
0.237357 78.527729 24.457336
12.519453 76.675376 11.98207
12.686282 77.461151 10.895405
12.013806 77.951011 11.475421
11.115889 74.78886 15.991125
10.627069 76.019627 15.479904
10.396007 75.146919 16.656794
9.786608 85.654487 5.135153
9.404825 85.435657 6.043223
10.090439 84.753086 6.042891
9.589575 86.467415 4.146997
9.786608 85.654487 5.135153
4.894267 76.282353 22.209046
4.028479 76.713752 22.68678
5.772917 75.813027 21.737623
5.252422 77.156971 20.955535
4.894267 76.282353 22.209046
6.652613 75.252384 21.29234
5.772917 75.813027 21.737623
7.453772 74.741088 20.876343
6.932231 76.17635 20.068115
6.652613 75.252384 21.29234
8.274781 74.411487 20.182519
7.453772 74.741088 20.876343
6.514024 92.971581 -2.927038
5.501634 93.842106 -3.022995
5.854512 92.960712 -1.722701
6.514024 92.971581 -2.927038
7.555823 92.031398 -2.803568
-1.741459 97.181682 1.054885
-1.081225 96.057857 2.366233
-1.741459 97.181682 1.054885
-1.206086 97.525093 -0.400733
-6.450579 90.036984 17.16588
-6.850988 89.174191 18.621292
-5.361262 89.601342 16.776481
-6.450579 90.036984 17.16588
8.692664 89.229077 0.808512
8.147196 89.180447 1.810723
9.058366 88.278244 1.927784
8.344368 90.145169 -0.334637
8.692664 89.229077 0.808512
-0.093666 98.071045 -3.270495
1.092519 97.28109 -3.318933
1.165367 78.087497 24.066665
0.237357 78.527729 24.457336
2.12145 77.63417 23.640024
3.076481 77.189788 23.157204
1.513691 79.031696 22.794448
1.165367 78.087497 24.066665
2.12145 77.63417 23.640024
9.652347 75.570045 17.284748
9.088668 76.8442 16.737447
8.833828 76.03656 17.876622
10.396007 75.146919 16.656794
9.652347 75.570045 17.284748
8.565448 75.213729 19.038021
8.274781 74.411487 20.182519
-1.880069 93.407971 7.878519
-2.319679 92.80014 9.324109
-1.460055 93.989837 6.486423
-1.880069 93.407971 7.878519
-0.7671 92.725193 7.725577
-0.959715 94.463757 5.081541
-1.460055 93.989837 6.486423
-0.543998 94.924568 3.787098
-0.959715 94.463757 5.081541
0.06863 93.767872 5.03904
-0.052879 95.361973 2.323733
-1.081225 96.057857 2.366233
-0.543998 94.924568 3.787098
2.18402 96.507538 -3.340979
1.092519 97.28109 -3.318933
1.645153 96.312843 -2.006431
2.18402 96.507538 -3.340979
3.300934 95.652484 -3.253498
4.353668 94.798458 -3.148589
5.501634 93.842106 -3.022995
-0.634207 97.82066 -1.84436
-0.093666 98.071045 -3.270495
-1.74778 79.191547 25.47267
-0.772665 78.887467 24.962764
-2.501864 80.617249 24.661499
-1.74778 79.191547 25.47267
-3.237297 82.05333 23.762743
-2.501864 80.617249 24.661499
-2.197869 81.640579 23.333187
-3.924878 83.506271 22.789037
-3.237297 82.05333 23.762743
-4.589812 84.953412 21.725904
-3.924878 83.506271 22.789037
-3.598238 84.5238 21.371299
-5.284492 86.38023 20.68555
-4.589812 84.953412 21.725904
-4.987037 87.347718 19.267018
-6.008356 87.757008 19.6444
-5.284492 86.38023 20.68555
-4.326251 89.183384 16.382677
-5.361262 89.601342 16.776481
-4.67589 88.306538 17.832065
-4.019929 90.002716 15.03192
-4.326251 89.183384 16.382677
-3.334556 88.707912 16.087503
-3.647455 90.789196 13.586474
-4.019929 90.002716 15.03192
-3.207021 91.475422 12.200077
-3.647455 90.789196 13.586474
-2.5878 90.21347 13.350348
-2.799805 92.178325 10.747248
-3.207021 91.475422 12.200077
-1.66724 91.521511 10.540812
-2.319679 92.80014 9.324109
-2.799805 92.178325 10.747248
10.579532 83.194321 7.517921
10.241805 84.064403 6.825206
10.046383 83.664173 7.643676
10.989829 82.44651 7.854019
10.579532 83.194321 7.517921
11.439176 81.504943 8.345375
10.989829 82.44651 7.854019
10.833457 81.852523 8.827748
11.912446 80.485184 8.811326
11.439176 81.504943 8.345375
12.361362 79.398098 9.346152
11.912446 80.485184 8.811326
11.73172 79.823871 9.853931
12.844731 78.322464 9.729309
12.361362 79.398098 9.346152
12.844731 78.322464 9.729309
12.686282 77.461151 10.895405
11.797011 74.376537 15.344666
11.115889 74.78886 15.991125
12.045087 75.175697 14.204065
11.797011 74.376537 15.344666
12.2951 75.927532 13.07799
11.596964 76.413403 13.688161
12.045087 75.175697 14.204065
12.519453 76.675376 11.98207
12.2951 75.927532 13.07799
3 81 80 19
3 0 24 22
3 82 27 83
3 84 83 25
3 82 83 84
3 86 85 27
3 1 87 89
3 89 88 28
3 87 88 89
3 90 29 91
3 2 32 30
3 2 34 32
3 2 36 34
3 3 39 37
3 3 41 39
3 3 43 41
3 4 46 44
3 92 47 93
3 94 93 20
3 92 93 94
3 96 95 47
3 7 97 99
3 97 48 98
3 97 98 99
3 7 49 48
3 7 51 49
3 9 52 21
3 9 53 52
3 9 100 102
3 102 101 53
3 100 101 102
3 10 56 55
3 11 57 23
3 11 58 57
3 5 59 45
3 12 60 26
3 12 61 60
3 12 103 105
3 105 104 61
3 103 104 105
3 6 106 108
3 106 62 107
3 106 107 108
3 13 63 31
3 13 64 63
3 13 65 64
3 14 66 33
3 14 67 66
3 14 68 67
3 15 69 35
3 15 70 69
3 8 71 50
3 16 72 38
3 16 73 72
3 16 74 73
3 17 75 40
3 17 76 75
3 17 77 76
3 18 78 42
3 18 109 111
3 111 110 78
3 109 110 111
3 112 79 113
3 114 113 54
3 112 113 114
3 19 20 4
3 115 20 116
3 117 116 19
3 115 116 117
3 119 118 20
3 120 7 121
3 122 21 123
3 124 123 7
3 122 123 124
3 125 21 126
3 127 9 128
3 129 128 21
3 127 128 129
3 131 130 9
3 22 23 10
3 24 23 22
3 24 11 23
3 25 26 5
3 27 26 25
3 27 12 26
3 27 132 134
3 134 133 12
3 132 133 134
3 136 135 27
3 28 137 138
3 140 139 28
3 29 141 142
3 29 143 144
3 30 31 6
3 32 31 30
3 32 13 31
3 32 33 13
3 34 33 32
3 34 14 33
3 34 35 14
3 36 35 34
3 36 15 35
3 37 38 8
3 39 38 37
3 39 16 38
3 39 40 16
3 41 40 39
3 41 17 40
3 41 42 17
3 43 42 41
3 43 18 42
3 44 45 0
3 46 45 44
3 46 5 45
3 20 46 4
3 47 46 20
3 47 5 46
3 47 25 5
3 145 25 146
3 147 146 47
3 145 146 147
3 149 148 25
3 151 150 1
3 152 6 153
3 48 154 155
3 48 156 158
3 156 6 157
3 156 157 158
3 48 30 6
3 49 30 48
3 49 2 30
3 49 50 2
3 51 50 49
3 51 8 50
3 21 51 7
3 52 51 21
3 52 8 51
3 52 37 8
3 53 37 52
3 53 3 37
3 53 54 3
3 159 54 160
3 161 160 53
3 159 160 161
3 163 162 54
3 165 164 9
3 55 166 167
3 56 168 170
3 170 169 55
3 168 169 170
3 56 171 172
3 23 56 10
3 57 56 23
3 57 173 175
3 175 174 56
3 173 174 175
3 57 176 178
3 176 28 177
3 176 177 178
3 58 28 57
3 58 1 28
3 45 24 0
3 59 24 45
3 59 11 24
3 26 59 5
3 60 59 26
3 60 11 59
3 60 58 11
3 61 58 60
3 61 1 58
3 61 179 181
3 181 180 1
3 179 180 181
3 183 182 61
3 185 184 12
3 187 186 1
3 62 188 189
3 62 190 191
3 31 62 6
3 63 62 31
3 63 192 194
3 194 193 62
3 192 193 194
3 63 195 196
3 64 197 199
3 199 198 63
3 197 198 199
3 64 200 201
3 64 202 204
3 202 29 203
3 202 203 204
3 65 29 64
3 65 205 207
3 207 206 29
3 205 206 207
3 33 65 13
3 66 65 33
3 66 208 210
3 210 209 65
3 208 209 210
3 66 211 212
3 67 213 215
3 215 214 66
3 213 214 215
3 67 216 217
3 67 218 220
3 218 55 219
3 218 219 220
3 68 55 67
3 68 10 55
3 35 68 14
3 69 68 35
3 69 10 68
3 69 22 10
3 70 22 69
3 70 0 22
3 50 36 2
3 71 36 50
3 71 15 36
3 38 71 8
3 72 71 38
3 72 15 71
3 72 70 15
3 73 70 72
3 73 0 70
3 73 44 0
3 74 44 73
3 74 4 44
3 40 74 16
3 75 74 40
3 75 4 74
3 75 19 4
3 76 19 75
3 76 221 223
3 223 222 19
3 221 222 223
3 76 224 225
3 77 226 228
3 228 227 76
3 226 227 228
3 77 229 230
3 42 77 17
3 78 77 42
3 78 231 233
3 233 232 77
3 231 232 233
3 78 234 235
3 237 236 78
3 54 43 3
3 79 43 54
3 79 18 43
3 238 79 239
3 240 79 241
3 242 18 243
3 244 243 79
3 242 243 244
3 246 245 18
