ply
format ascii 1.0
element vertex 146
property float x
property float y
property float z
element face 132
property list uchar int vertex_index
end_header
-17.198212 10.592589 45.956512
-19.94381 12.913456 42.33535
-20.07147 17.801311 40.857975
-17.446987 15.6266 44.439274
-16.575878 6.095417 47.736008
-19.482025 8.480702 44.017788
-14.153295 8.329476 49.512184
-14.545677 13.135626 47.974007
-18.584778 11.91135 44.136673
-18.698315 14.35682 43.389252
-17.302372 13.033263 45.246986
-16.857405 8.309629 46.876511
-17.965891 7.316104 45.975857
-18.331093 9.39625 45.046024
-19.744896 10.656672 43.148895
-12.912009 9.390967 50.377159
-18.842752 19.268736 41.89872
-20.028307 15.376603 41.582825
-18.805439 16.837313 42.617596
-17.428621 17.986675 43.840996
-16.218414 4.120798 48.631912
-17.753828 5.286197 46.749241
-19.136374 6.252377 45.0079
-20.511702 7.297572 43.185604
-21.905886 8.448339 41.24873
-20.852888 9.433357 42.201221
-21.145021 11.737624 41.229176
-15.680571 9.516026 47.761711
-15.918391 11.88544 46.950134
-14.418795 10.728676 48.680359
-13.053301 11.740725 49.678154
-15.022858 5.089121 49.525837
-15.398251 7.212796 48.610027
-16.077282 14.288371 46.199631
-18.801603 20.58486 41.554209
-18.150879 19.975132 42.478606
-19.986058 14.145029 41.959087
-20.636951 14.768843 41.013027
-20.594702 13.53727 41.38929
-20.594702 13.53727 41.38929
-21.195307 12.949354 40.836203
-20.544415 12.32554 41.782263
-12.325245 11.107386 50.459877
-12.982655 10.565846 50.027656
-12.254599 9.932507 50.809379
-12.386417 12.326021 50.107923
-12.325245 11.107386 50.459877
-14.316122 4.597039 50.312561
-14.885991 4.069745 49.934793
-14.775773 7.771136 49.061105
-14.659533 6.730195 49.430385
-14.037055 7.288535 49.881464
-20.704818 18.421079 39.879904
-20.700645 17.20194 40.252007
-22.575883 9.000478 40.286774
-22.023269 9.495525 40.809645
-12.828067 8.289741 50.72319
-13.532652 8.860221 49.944671
-13.44871 7.758995 50.290702
-12.213417 8.83945 51.113966
-12.828067 8.289741 50.72319
-12.254599 9.932507 50.809379
-12.213417 8.83945 51.113966
-13.44871 7.758995 50.290702
-14.037055 7.288535 49.881464
-19.459474 19.882382 40.974144
-20.073833 19.148669 40.453772
-19.457111 18.535024 41.378348
-19.459474 19.882382 40.974144
-18.801603 20.58486 41.554209
-14.573239 14.302358 47.660412
-13.813439 13.688694 48.505949
-20.679063 15.989586 40.614431
-20.636951 14.768843 41.013027
-20.049889 16.588957 41.2204
-20.700645 17.20194 40.252007
-20.679063 15.989586 40.614431
-17.443813 19.334102 43.449743
-18.150879 19.975132 42.478606
-18.135686 18.627706 42.869858
-16.715547 3.649319 48.268623
-15.998822 3.102836 49.13687
-17.483255 4.232019 47.327287
-16.715547 3.649319 48.268623
-16.986121 4.703497 47.690576
-18.208481 4.724702 46.430555
-17.483255 4.232019 47.327287
-18.899754 5.207791 45.559885
-18.208481 4.724702 46.430555
-18.445101 5.769287 45.87857
-19.630933 5.684797 44.626297
-18.899754 5.207791 45.559885
-20.318597 6.207394 43.715149
-19.630933 5.684797 44.626297
-19.824038 6.774974 44.096752
-21.03783 6.773943 42.735983
-20.318597 6.207394 43.715149
-21.208794 7.872955 42.217167
-21.734921 7.349327 41.767546
-21.03783 6.773943 42.735983
-21.49677 9.988035 41.28589
-22.023269 9.495525 40.809645
-21.379387 8.940848 41.724975
-21.642837 11.140168 40.799868
-21.49677 9.988035 41.28589
-20.998954 10.585491 41.715198
-21.7911 12.314258 40.283082
-21.642837 11.140168 40.799868
-21.7911 12.314258 40.283082
-21.195307 12.949354 40.836203
-13.067251 12.991243 49.358023
-13.813439 13.688694 48.505949
-13.799489 12.438175 48.826081
-13.067251 12.991243 49.358023
-12.386417 12.326021 50.107923
-15.483769 3.585584 49.487831
-15.998822 3.102836 49.13687
-15.620636 4.604959 49.078874
-15.483769 3.585584 49.487831
-14.885991 4.069745 49.934793
-14.471836 5.668357 49.88829
-14.316122 4.597039 50.312561
-15.210555 6.150958 49.067932
-14.471836 5.668357 49.88829
-14.659533 6.730195 49.430385
-20.704818 18.421079 39.879904
-20.073833 19.148669 40.453772
-15.339042 14.87873 46.773224
-15.31148 13.711998 47.086819
-14.573239 14.302358 47.660412
-16.058652 15.553272 45.900019
-15.339042 14.87873 46.773224
-16.743505 16.222386 45.019841
-16.762135 14.957486 45.319452
-16.058652 15.553272 45.900019
-16.734322 17.402424 44.720701
-17.437804 16.806638 44.140135
-16.743505 16.222386 45.019841
-16.767553 18.750505 44.329422
-16.734322 17.402424 44.720701
-17.443813 19.334102 43.449743
-16.767553 18.750505 44.329422
-22.438935 7.906033 40.77869
-21.734921 7.349327 41.767546
-22.438935 7.906033 40.77869
-22.575883 9.000478 40.286774
3 0 10 8
3 0 13 11
3 0 8 13
3 35 34 16
3 1 36 38
3 36 17 37
3 36 37 38
3 3 18 9
3 3 19 18
3 4 21 20
3 5 22 12
3 5 23 22
3 5 25 23
3 1 26 14
3 1 39 41
3 41 40 26
3 39 40 41
3 6 29 27
3 42 30 43
3 44 43 15
3 42 43 44
3 46 45 30
3 47 31 48
3 6 49 51
3 49 32 50
3 49 50 51
3 6 27 32
3 2 52 53
3 7 33 28
3 55 54 24
3 8 9 1
3 10 9 8
3 10 3 9
3 11 12 4
3 13 12 11
3 13 5 12
3 13 14 5
3 8 14 13
3 8 1 14
3 56 15 57
3 58 57 6
3 56 57 58
3 59 15 60
3 62 61 15
3 63 6 64
3 16 65 67
3 67 66 2
3 65 66 67
3 69 68 16
3 71 70 7
3 17 72 73
3 17 74 76
3 74 2 75
3 74 75 76
3 9 17 1
3 18 17 9
3 18 2 17
3 18 16 2
3 19 16 18
3 19 77 79
3 79 78 16
3 77 78 79
3 20 80 81
3 21 82 84
3 84 83 20
3 82 83 84
3 21 85 86
3 12 21 4
3 22 21 12
3 22 87 89
3 89 88 21
3 87 88 89
3 22 90 91
3 23 92 94
3 94 93 22
3 92 93 94
3 23 95 96
3 23 97 99
3 97 24 98
3 97 98 99
3 25 24 23
3 25 100 102
3 102 101 24
3 100 101 102
3 14 25 5
3 26 25 14
3 26 103 105
3 105 104 25
3 103 104 105
3 26 106 107
3 109 108 26
3 27 28 0
3 29 28 27
3 29 7 28
3 15 29 6
3 30 29 15
3 30 7 29
3 30 110 112
3 112 111 7
3 110 111 112
3 114 113 30
3 115 20 116
3 31 117 119
3 117 20 118
3 117 118 119
3 31 4 20
3 120 31 121
3 32 122 124
3 122 31 123
3 122 123 124
3 32 4 31
3 32 11 4
3 27 11 32
3 27 0 11
3 126 125 2
3 28 10 0
3 33 10 28
3 33 3 10
3 127 33 128
3 129 128 7
3 127 128 129
3 130 33 131
3 132 3 133
3 134 133 33
3 132 133 134
3 135 19 136
3 137 136 3
3 135 136 137
3 138 19 139
3 141 140 19
3 24 142 143
3 145 144 24
