ply
format ascii 1.0
element vertex 230
property float x
property float y
property float z
element face 222
property list uchar int vertex_index
end_header
-0.431999 -71.285469 30.577602
9.24291 -83.251648 24.040882
5.486824 -73.89801 32.404224
2.525414 -81.119591 21.738148
12.569909 -83.671753 25.989107
10.526009 -79.48587 29.998857
0.934862 -67.769302 35.197144
2.422131 -72.458885 31.362099
4.052433 -77.445435 26.986565
1.02781 -76.24366 26.267
-2.512331 -83.379791 16.673834
7.240499 -78.642372 28.189003
5.865163 -82.210838 22.710762
-0.723555 -79.910118 21.380772
0.869652 -84.819092 16.625425
12.068871 -79.752792 30.897408
0.23215 -69.493523 32.850807
1.685925 -70.070389 33.378048
1.003218 -71.83416 30.96384
1.727626 -74.396378 28.721764
0.250813 -73.710663 28.499346
10.954672 -83.630539 24.881063
4.599687 -71.522408 34.388474
6.952146 -74.357109 33.271484
7.788525 -76.704086 31.126209
6.260625 -76.21743 30.309311
3.38546 -79.44799 24.194218
4.963951 -79.879135 24.822868
4.227141 -81.665901 22.195429
5.178773 -84.111877 19.962334
3.463546 -83.600159 19.460459
-1.360098 -77.419159 23.777672
-2.282485 -79.036575 21.647644
-0.821582 -84.061943 16.670765
14.226105 -83.618958 27.073446
13.171846 -81.64296 29.133221
11.444212 -81.663055 27.860085
9.792293 -81.358528 26.926407
2.354689 -68.448639 35.755836
3.136237 -70.863419 33.763569
3.920545 -73.167732 31.825499
4.774911 -75.506737 29.839647
3.266203 -74.911644 29.286079
2.610163 -76.883018 26.579126
1.88555 -78.65966 24.125069
-0.54111 -67.005966 34.757637
-1.224255 -68.902596 32.44083
9.461475 -77.225548 32.022507
8.871815 -79.019836 29.159241
8.124981 -80.881027 26.138174
5.616795 -77.96032 27.632008
6.51147 -80.396896 25.407501
7.560087 -82.900208 23.159803
6.800982 -84.654953 20.444799
-1.851084 -70.821693 30.220415
-1.129136 -73.199806 28.249325
-0.538789 -75.678215 26.004622
0.273352 -78.089409 23.847916
0.973312 -80.58622 21.467165
-1.560601 -81.691887 19.029902
0.122389 -82.331467 19.08873
1.816904 -83.139961 19.041109
9.792416 -84.404457 22.977199
10.648297 -84.593902 23.397289
10.098791 -83.441093 24.460973
8.917449 -84.207176 22.58648
9.792416 -84.404457 22.977199
5.770688 -72.997017 33.789142
5.32712 -71.809216 34.781267
5.043256 -72.710209 33.396349
6.219485 -74.127559 32.837854
6.503349 -73.226566 34.222773
5.770688 -72.997017 33.789142
-3.136816 -78.755916 21.602699
-2.668734 -77.903885 22.692786
13.479427 -80.768929 30.527513
14.023582 -81.694203 29.566896
1.644775 -68.10897 35.47649
1.949095 -67.295177 36.619024
1.239181 -66.955509 36.339678
-1.231091 -66.71904 34.527372
-0.912098 -65.801983 35.59955
-1.572663 -67.667355 33.368969
-0.882683 -67.954281 33.599233
-1.231091 -66.71904 34.527372
13.19301 -84.618511 25.088048
14.021108 -84.592114 25.630218
13.398007 -83.645355 26.531277
8.994567 -76.113942 33.02195
9.77016 -76.322773 33.503546
5.699867 -85.381397 18.793905
4.844856 -85.123024 18.552251
-2.628322 -70.394451 30.238249
-2.245337 -69.520496 31.227492
-1.602532 -74.051365 27.160165
-1.920567 -72.837387 28.225347
-1.307359 -75.29057 26.037813
-0.833962 -74.43901 27.126973
-1.602532 -74.051365 27.160165
-2.036466 -82.535839 17.851868
-2.421428 -81.305084 19.091393
-2.897293 -82.149036 17.913359
1.793006 -85.199489 16.679349
2.266633 -84.359924 17.887191
1.343278 -83.979526 17.833267
12.394755 -78.82383 32.409287
12.92794 -79.823845 31.409607
11.588054 -78.716713 31.895143
12.394755 -78.82383 32.409287
10.816623 -78.583252 31.445868
11.29744 -79.619331 30.448132
11.588054 -78.716713 31.895143
11.504043 -84.676983 23.885295
12.311661 -84.69759 24.439317
11.762291 -83.651146 25.435085
11.504043 -84.676983 23.885295
10.648297 -84.593902 23.397289
4.903774 -70.667221 35.741726
4.172125 -70.315655 35.386589
4.903774 -70.667221 35.741726
5.32712 -71.809216 34.781267
7.276429 -73.583786 34.586866
6.503349 -73.226566 34.222773
7.739903 -74.679722 33.646439
7.276429 -73.583786 34.586866
7.370335 -75.530597 32.198847
8.158092 -75.853211 32.573801
7.739903 -74.679722 33.646439
3.987242 -84.867165 18.301313
4.844856 -85.123024 18.552251
4.32116 -83.856018 19.711396
-2.20754 -77.095176 23.7578
-1.718013 -76.161041 24.924338
-1.821292 -78.227867 22.712658
-2.20754 -77.095176 23.7578
-2.668734 -77.903885 22.692786
-1.295516 -84.884499 15.469383
-1.666956 -83.720867 16.6723
-2.14089 -84.543422 15.470917
-0.414143 -85.30476 15.410687
-1.295516 -84.884499 15.469383
0.431474 -85.683335 15.388016
0.024035 -84.440517 16.648095
-0.414143 -85.30476 15.410687
1.369642 -86.08567 15.403591
0.431474 -85.683335 15.388016
14.550711 -82.682202 28.537009
15.103822 -83.578049 27.528406
13.698975 -82.630959 28.103333
14.550711 -82.682202 28.537009
14.023582 -81.694203 29.566896
12.620359 -80.697876 30.015314
13.479427 -80.768929 30.527513
12.92794 -79.823845 31.409607
2.678116 -67.664177 36.96702
1.949095 -67.295177 36.619024
3.049626 -68.778771 36.07027
2.678116 -67.664177 36.96702
3.440399 -69.98616 35.074137
3.049626 -68.778771 36.07027
2.745463 -69.656029 34.759703
3.867962 -71.192914 34.076021
4.172125 -70.315655 35.386589
3.440399 -69.98616 35.074137
-3.443214 -82.89479 16.8111
-2.897293 -82.149036 17.913359
-3.070899 -84.061802 15.586079
-3.443214 -82.89479 16.8111
-2.699457 -85.225434 14.383162
-2.14089 -84.543422 15.470917
-3.070899 -84.061802 15.586079
0.529747 -66.568077 36.06013
1.239181 -66.955509 36.339678
-0.208239 -66.186409 35.840376
-0.912098 -65.801983 35.59955
0.196876 -67.387634 34.97739
0.529747 -66.568077 36.06013
-0.208239 -66.186409 35.840376
14.862203 -84.537861 26.102141
15.103822 -83.578049 27.528406
14.862203 -84.537861 26.102141
14.021108 -84.592114 25.630218
13.19301 -84.618511 25.088048
12.311661 -84.69759 24.439317
10.284356 -77.453091 32.457693
9.77016 -76.322773 33.503546
9.993742 -78.355709 31.010682
10.816623 -78.583252 31.445868
10.284356 -77.453091 32.457693
8.625 -76.964817 31.574358
8.994567 -76.113942 33.02195
8.158092 -75.853211 32.573801
8.076037 -84.031456 22.145941
8.917449 -84.207176 22.58648
8.401499 -83.075928 23.600343
7.696485 -84.908828 20.788438
8.076037 -84.031456 22.145941
7.180535 -83.77758 21.802301
7.347005 -85.829643 19.388293
7.696485 -84.908828 20.788438
6.510972 -85.652935 19.035137
5.989878 -84.383415 20.203567
5.699867 -85.381397 18.793905
7.347005 -85.829643 19.388293
6.510972 -85.652935 19.035137
-1.931922 -68.560947 32.3377
-1.572663 -67.667355 33.368969
-1.53767 -69.862144 31.330622
-1.931922 -68.560947 32.3377
-2.245337 -69.520496 31.227492
-2.281541 -71.648331 29.210891
-2.628322 -70.394451 30.238249
-1.49011 -72.01075 29.23487
-2.281541 -71.648331 29.210891
-1.920567 -72.837387 28.225347
-0.949443 -76.548687 24.891147
-1.307359 -75.29057 26.037813
-1.718013 -76.161041 24.924338
-2.78237 -79.977429 20.400264
-3.136816 -78.755916 21.602699
-1.921543 -80.364231 20.338773
-2.78237 -79.977429 20.400264
-2.421428 -81.305084 19.091393
3.089954 -84.590023 18.096866
2.640225 -83.37006 19.250784
2.266633 -84.359924 17.887191
3.987242 -84.867165 18.301313
3.089954 -84.590023 18.096866
1.793006 -85.199489 16.679349
1.369642 -86.08567 15.403591
3 0 18 16
3 0 20 18
3 1 62 64
3 64 63 21
3 62 63 64
3 1 65 66
3 2 67 69
3 69 68 22
3 67 68 69
3 2 70 72
3 70 23 71
3 70 71 72
3 2 25 23
3 3 28 26
3 3 30 28
3 73 32 74
3 75 35 76
3 5 36 15
3 5 37 36
3 6 77 79
3 77 38 78
3 77 78 79
3 7 39 17
3 7 40 39
3 7 42 40
3 9 43 19
3 9 44 43
3 80 45 81
3 82 46 83
3 84 83 45
3 82 83 84
3 4 85 87
3 87 86 34
3 85 86 87
3 88 47 89
3 11 48 24
3 11 49 48
3 8 50 41
3 12 51 27
3 12 52 51
3 12 53 52
3 91 90 29
3 92 54 93
3 94 55 95
3 96 56 97
3 98 97 55
3 96 97 98
3 13 57 31
3 13 58 57
3 10 99 101
3 99 59 100
3 99 100 101
3 14 60 33
3 14 61 60
3 14 102 104
3 104 103 61
3 102 103 104
3 105 15 106
3 107 15 108
3 109 5 110
3 111 110 15
3 109 110 111
3 16 17 6
3 18 17 16
3 18 7 17
3 18 19 7
3 20 19 18
3 20 9 19
3 21 112 114
3 114 113 4
3 112 113 114
3 116 115 21
3 22 117 118
3 120 119 22
3 23 121 122
3 23 123 124
3 23 125 127
3 125 24 126
3 125 126 127
3 25 24 23
3 25 11 24
3 26 27 8
3 28 27 26
3 28 12 27
3 28 29 12
3 30 29 28
3 30 128 130
3 130 129 29
3 128 129 130
3 131 31 132
3 32 133 135
3 133 31 134
3 133 134 135
3 32 13 31
3 136 33 137
3 138 137 10
3 136 137 138
3 139 33 140
3 141 14 142
3 143 142 33
3 141 142 143
3 145 144 14
3 146 34 147
3 35 148 150
3 148 34 149
3 148 149 150
3 35 4 34
3 15 151 153
3 151 35 152
3 151 152 153
3 36 35 15
3 36 4 35
3 36 21 4
3 37 21 36
3 37 1 21
3 38 154 155
3 38 156 157
3 17 38 6
3 39 38 17
3 39 158 160
3 160 159 38
3 158 159 160
3 39 161 163
3 161 22 162
3 161 162 163
3 40 22 39
3 40 2 22
3 40 41 2
3 42 41 40
3 42 8 41
3 19 42 7
3 43 42 19
3 43 8 42
3 43 26 8
3 44 26 43
3 44 3 26
3 164 10 165
3 166 10 167
3 170 169 10
3 168 169 170
3 171 6 172
3 45 173 174
3 45 175 177
3 175 6 176
3 175 176 177
3 45 16 6
3 46 16 45
3 46 0 16
3 34 178 179
3 181 180 34
3 183 182 4
3 47 184 185
3 47 186 188
3 186 5 187
3 186 187 188
3 24 189 191
3 189 47 190
3 189 190 191
3 48 47 24
3 48 5 47
3 48 37 5
3 49 37 48
3 49 1 37
3 41 25 2
3 50 25 41
3 50 11 25
3 27 50 8
3 51 50 27
3 51 11 50
3 51 49 11
3 52 49 51
3 52 1 49
3 52 192 194
3 194 193 1
3 192 193 194
3 53 195 197
3 197 196 52
3 195 196 197
3 53 198 199
3 29 53 12
3 200 53 201
3 202 201 29
3 200 201 202
3 204 203 53
3 205 46 206
3 54 207 209
3 207 46 208
3 207 208 209
3 54 0 46
3 210 54 211
3 55 212 214
3 212 54 213
3 212 213 214
3 55 0 54
3 55 20 0
3 56 20 55
3 56 9 20
3 31 215 217
3 215 56 216
3 215 216 217
3 57 56 31
3 57 9 56
3 57 44 9
3 58 44 57
3 58 3 44
3 218 32 219
3 59 220 222
3 220 32 221
3 220 221 222
3 59 13 32
3 33 59 10
3 60 59 33
3 60 13 59
3 60 58 13
3 61 58 60
3 61 3 58
3 61 30 3
3 223 30 224
3 225 224 61
3 223 224 225
3 227 226 30
3 229 228 14
