ply
format ascii 1.0
element vertex 181
property float x
property float y
property float z
element face 167
property list uchar int vertex_index
end_header
-11.201054 -34.686432 -54.878345
-16.433535 -19.774059 -61.522663
-9.220489 -20.672253 -59.134983
-7.596438 -42.351303 -51.507252
-7.471737 -34.704556 -53.489567
-10.347265 -27.411209 -57.004536
-7.676212 -49.933796 -49.852737
-11.653677 -42.263355 -52.795467
-15.008171 -34.774292 -55.77737
-14.14992 -27.223017 -58.221031
-12.654007 -20.124052 -60.543137
-7.965026 -15.035209 -60.989983
-9.501333 -38.589851 -53.173077
-7.715682 -38.388531 -52.560455
-9.30738 -34.803902 -54.193569
-9.043592 -31.335777 -55.170906
-10.8951 -30.995068 -55.965652
-9.657154 -46.075939 -51.289444
-16.086992 -26.858742 -58.740253
-15.351362 -23.562218 -59.850536
-13.380198 -23.822151 -59.296257
-14.506966 -20.124405 -61.016026
-8.282699 -24.007294 -57.426285
-7.767795 -20.665674 -58.50082
-8.60975 -17.556103 -60.175407
-5.726311 -46.193874 -49.924606
-7.36434 -31.027212 -54.566246
-8.661219 -27.641798 -56.262844
-9.90476 -23.840937 -58.158379
-5.622126 -50.166546 -49.115814
-7.689856 -46.148842 -50.66507
-9.616334 -42.317627 -52.212742
-11.411883 -38.582523 -53.771549
-13.447295 -38.471313 -54.301701
-13.110537 -34.467857 -55.482433
-14.590939 -30.857952 -57.025776
-12.691176 -30.773354 -56.596489
-12.194607 -27.286283 -57.670605
-11.64592 -23.797041 -58.792408
-10.89261 -20.702879 -59.752899
-13.522465 -16.667446 -62.186558
-11.803748 -17.151613 -61.511784
-10.193501 -17.575851 -60.797485
-9.39581 -14.555834 -61.80608
-16.883505 -21.390757 -60.952913
-17.400922 -19.482053 -61.754076
-15.892449 -21.668139 -60.686599
-16.342419 -23.284836 -60.11685
-16.883505 -21.390757 -60.952913
-6.737121 -42.189614 -51.198742
-5.802058 -44.110899 -50.407419
-6.661374 -44.272588 -50.715929
-6.736207 -36.389799 -52.702761
-6.85818 -38.231787 -52.238205
-7.59371 -36.546543 -53.025011
-6.647089 -34.545122 -53.16514
-6.736207 -36.389799 -52.702761
-7.418038 -32.865884 -54.027907
-6.593391 -32.706451 -53.70348
-6.647089 -34.545122 -53.16514
-6.514603 -51.959232 -49.104242
-7.569679 -51.888686 -49.438226
-6.649169 -50.050171 -49.484275
-5.48756 -52.075607 -48.735781
-6.514603 -51.959232 -49.104242
-14.227733 -36.622803 -55.039535
-14.486056 -38.37018 -54.511851
-15.266494 -36.52167 -55.249685
-13.92283 -14.930674 -63.002697
-14.438135 -16.51194 -62.448118
-11.360017 -15.636335 -62.022315
-12.188685 -15.375827 -62.374519
-10.554893 -15.848453 -61.665165
-10.998625 -17.363732 -61.154635
-11.360017 -15.636335 -62.022315
-10.156047 -14.338445 -62.169463
-9.794656 -16.065843 -61.301783
-10.554893 -15.848453 -61.665165
-7.321031 -15.042545 -60.667349
-7.575665 -16.433871 -60.193917
-7.646636 -13.755559 -61.415245
-7.321031 -15.042545 -60.667349
-8.653319 -49.942547 -50.117514
-7.569679 -51.888686 -49.438226
-9.64379 -48.013618 -50.835867
-8.666683 -48.004868 -50.57109
-8.653319 -49.942547 -50.117514
-10.697639 -46.100691 -51.534881
-9.64379 -48.013618 -50.835867
-11.695901 -44.194399 -52.287893
-10.655416 -44.169647 -52.042456
-10.697639 -46.100691 -51.534881
-16.023556 -34.475447 -56.017674
-15.266494 -36.52167 -55.249685
-16.710234 -24.933098 -59.561708
-17.061102 -26.779373 -58.894039
-15.719177 -25.21048 -59.295395
-16.710234 -24.933098 -59.561708
-16.342419 -23.284836 -60.11685
-7.481908 -23.930312 -57.076334
-7.667057 -25.682792 -56.534722
-7.224455 -22.259502 -57.613602
-7.481908 -23.930312 -57.076334
-8.025247 -22.336484 -57.963552
-7.011678 -20.696127 -58.108015
-7.224455 -22.259502 -57.613602
-7.477049 -19.249104 -58.949335
-7.011678 -20.696127 -58.108015
-7.898027 -17.694318 -59.786628
-7.477049 -19.249104 -58.949335
-8.188772 -19.110889 -59.338113
-8.287388 -16.295656 -60.582695
-7.575665 -16.433871 -60.193917
-7.898027 -17.694318 -59.786628
-16.863855 -17.741472 -62.391846
-17.400922 -19.482053 -61.754076
-15.893669 -18.065247 -62.116171
-16.863855 -17.741472 -62.391846
-4.873907 -45.86281 -49.6294
-4.664191 -47.961683 -49.160168
-4.873907 -45.86281 -49.6294
-5.802058 -44.110899 -50.407419
-6.796743 -40.208227 -51.725343
-6.737121 -42.189614 -51.198742
-7.65606 -40.369917 -52.033853
-6.796743 -40.208227 -51.725343
-6.85818 -38.231787 -52.238205
-6.526511 -30.984557 -54.181299
-6.593391 -32.706451 -53.70348
-7.207878 -29.192751 -55.104702
-6.526511 -30.984557 -54.181299
-7.856317 -27.500044 -55.953001
-7.207878 -29.192751 -55.104702
-8.01278 -29.334505 -55.414545
-8.471959 -25.824546 -56.844565
-7.667057 -25.682792 -56.534722
-7.856317 -27.500044 -55.953001
-4.565104 -51.895559 -48.429848
-5.48756 -52.075607 -48.735781
-4.612098 -49.948019 -48.755772
-4.565104 -51.895559 -48.429848
-5.674219 -48.18021 -49.52021
-4.664191 -47.961683 -49.160168
-4.612098 -49.948019 -48.755772
-12.628908 -42.198467 -53.017643
-11.695901 -44.194399 -52.287893
-13.525717 -40.302446 -53.77076
-14.486056 -38.37018 -54.511851
-12.550486 -40.367334 -53.548584
-12.628908 -42.198467 -53.017643
-13.525717 -40.302446 -53.77076
-15.751416 -32.649728 -56.623481
-16.023556 -34.475447 -56.017674
-16.290827 -28.691953 -58.104923
-17.061102 -26.779373 -58.894039
-15.5428 -30.691558 -57.247685
-16.290827 -28.691953 -58.104923
-15.338966 -28.858347 -57.883015
-14.799555 -32.816122 -56.401573
-15.751416 -32.649728 -56.623481
-15.5428 -30.691558 -57.247685
-14.930385 -18.24042 -61.862853
-15.47025 -19.949232 -61.269345
-15.893669 -18.065247 -62.116171
-14.014716 -18.395926 -61.601292
-14.930385 -18.24042 -61.862853
-14.438135 -16.51194 -62.448118
-13.048043 -15.133744 -62.711906
-13.92283 -14.930674 -63.002697
-12.663107 -16.90953 -61.849171
-13.048043 -15.133744 -62.711906
-12.188685 -15.375827 -62.374519
-9.637573 -12.979282 -62.596008
-10.156047 -14.338445 -62.169463
-8.962065 -13.310665 -62.18853
-9.637573 -12.979282 -62.596008
-8.246672 -13.550352 -61.780482
-8.680418 -14.795521 -61.398032
-8.962065 -13.310665 -62.18853
-7.646636 -13.755559 -61.415245
-8.246672 -13.550352 -61.780482
3 0 14 12
3 0 16 14
3 1 44 45
3 1 46 48
3 46 19 47
3 46 47 48
3 1 21 19
3 2 23 22
3 2 24 23
3 3 49 51
3 51 50 25
3 49 50 51
3 4 52 54
3 54 53 13
3 52 53 54
3 4 55 56
3 4 57 59
3 57 26 58
3 57 58 59
3 5 27 15
3 5 28 27
3 6 60 61
3 6 62 64
3 62 29 63
3 62 63 64
3 6 30 29
3 7 31 17
3 7 32 31
3 8 65 67
3 65 33 66
3 65 66 67
3 8 34 33
3 9 35 18
3 9 36 35
3 9 37 36
3 10 38 20
3 10 39 38
3 68 40 69
3 70 41 71
3 72 42 73
3 74 73 41
3 72 73 74
3 75 43 76
3 77 76 42
3 75 76 77
3 11 78 79
3 11 80 81
3 12 13 3
3 14 13 12
3 14 4 13
3 14 15 4
3 16 15 14
3 16 5 15
3 82 6 83
3 84 17 85
3 86 85 6
3 84 85 86
3 87 17 88
3 89 7 90
3 91 90 17
3 89 90 91
3 92 8 93
3 94 18 95
3 19 96 98
3 96 18 97
3 96 97 98
3 19 9 18
3 19 20 9
3 21 20 19
3 21 10 20
3 22 99 100
3 23 101 103
3 103 102 22
3 101 102 103
3 23 104 105
3 23 106 107
3 24 108 110
3 110 109 23
3 108 109 110
3 24 111 113
3 111 11 112
3 111 112 113
3 114 1 115
3 117 116 1
3 25 118 119
3 121 120 25
3 13 122 124
3 124 123 3
3 122 123 124
3 126 125 13
3 26 127 128
3 26 129 130
3 15 26 4
3 27 26 15
3 27 131 133
3 133 132 26
3 131 132 133
3 27 134 136
3 134 22 135
3 134 135 136
3 28 22 27
3 28 2 22
3 29 137 138
3 29 139 140
3 29 141 143
3 141 25 142
3 141 142 143
3 30 25 29
3 30 3 25
3 17 30 6
3 31 30 17
3 31 3 30
3 31 12 3
3 32 12 31
3 32 0 12
3 144 7 145
3 33 146 147
3 33 148 150
3 148 7 149
3 148 149 150
3 33 32 7
3 34 32 33
3 34 0 32
3 151 8 152
3 18 153 154
3 35 155 157
3 157 156 18
3 155 156 157
3 35 158 160
3 158 8 159
3 158 159 160
3 35 34 8
3 36 34 35
3 36 0 34
3 36 16 0
3 37 16 36
3 37 5 16
3 20 37 9
3 38 37 20
3 38 5 37
3 38 28 5
3 39 28 38
3 39 2 28
3 161 21 162
3 163 162 1
3 161 162 163
3 40 164 166
3 164 21 165
3 164 165 166
3 40 10 21
3 167 40 168
3 41 169 171
3 169 40 170
3 169 170 171
3 41 10 40
3 41 39 10
3 42 39 41
3 42 2 39
3 42 24 2
3 43 24 42
3 43 11 24
3 172 43 173
3 174 43 175
3 176 11 177
3 178 177 43
3 176 177 178
3 180 179 11
