ply
format ascii 1.0
element vertex 232
property float x
property float y
property float z
element face 227
property list uchar int vertex_index
end_header
6.733288 -21.913244 -57.417297
16.068132 -40.252865 -53.615582
11.57533 -58.518627 -48.21051
6.784005 -49.827591 -49.415119
10.959805 -31.836931 -55.518749
3.956108 -58.907135 -46.86668
7.097048 -35.729259 -53.045143
8.777035 -26.831591 -56.532738
12.412229 -23.045351 -59.037655
10.117143 -18.293949 -60.231071
17.777033 -31.291735 -56.784306
13.970145 -49.30135 -50.766426
7.778534 -13.745371 -61.080441
9.086836 -54.36895 -48.939476
11.473126 -45.518597 -51.529053
4.75309 -44.73962 -49.840061
9.055471 -40.765041 -52.2798
13.364879 -36.351845 -54.576813
14.957343 -27.261711 -57.975075
7.669884 -24.310488 -56.989151
9.391181 -22.519838 -58.330372
8.420417 -20.092274 -58.878487
16.889463 -35.846832 -55.13018
12.794396 -53.827404 -49.474178
9.387981 -12.095975 -62.482315
5.346334 -54.23542 -48.111568
6.537027 -56.510445 -47.976276
7.823985 -52.256229 -49.153854
10.131048 -50.053638 -50.128834
9.148494 -47.508476 -50.554096
8.989397 -33.63028 -54.349937
8.071516 -38.321777 -52.650246
10.039312 -36.126534 -53.899845
11.209859 -38.490673 -53.485329
12.14874 -34.195538 -55.040752
14.310564 -31.876041 -56.226074
12.971775 -29.731743 -56.721954
12.915442 -18.960501 -60.768799
4.288744 -51.982033 -48.205414
7.829635 -31.351505 -54.661076
9.879539 -29.056679 -56.134983
11.817808 -27.253681 -57.324623
10.654131 -24.766039 -57.904034
11.196833 -20.739254 -59.606697
11.776877 -16.582741 -61.442326
15.112739 -44.835297 -52.132511
7.269623 -17.940706 -59.176003
8.836547 -16.204605 -60.580193
10.497057 -14.3471 -61.963619
5.006652 -61.259529 -46.732525
7.638885 -58.757885 -47.749413
10.28518 -56.344437 -48.65358
11.563787 -51.821327 -49.894703
12.638331 -47.501801 -51.156498
13.798998 -42.640766 -52.68235
5.690564 -47.264706 -49.631397
5.99103 -40.263908 -51.386536
6.947749 -42.643188 -51.129894
8.008877 -45.365128 -50.787418
10.374434 -42.868744 -52.036835
12.544366 -40.742317 -53.073925
14.77583 -38.104649 -54.203793
15.605727 -33.777695 -55.739498
16.272509 -29.468578 -57.336975
13.692744 -25.160751 -58.527248
7.201586 -23.111866 -57.203224
6.796988 -25.231652 -56.259378
6.32869 -24.03303 -56.473451
17.22011 -38.97032 -54.071962
16.771257 -41.208207 -53.320335
16.478797 -38.049848 -54.372881
17.630776 -36.767303 -54.829262
17.22011 -38.97032 -54.071962
12.931082 -56.925878 -48.638405
12.341648 -59.141688 -48.033535
12.184863 -56.173016 -48.842344
13.540616 -54.580267 -49.270239
12.931082 -56.925878 -48.638405
13.834692 -17.976053 -61.359253
13.180072 -16.9421 -61.657643
3.058292 -53.019605 -47.570031
3.601313 -54.218944 -47.578531
8.303335 -29.091548 -55.596907
7.375006 -29.93862 -54.934954
7.848705 -27.678663 -55.870785
18.788149 -30.166289 -57.218146
18.444404 -32.411392 -56.388976
18.038505 -29.14136 -57.6001
18.788149 -30.166289 -57.218146
15.23715 -47.912088 -51.203975
14.711403 -50.088372 -50.549923
14.541442 -47.068323 -51.449469
15.808446 -45.679062 -51.887018
15.23715 -47.912088 -51.203975
7.030559 -14.713325 -60.284619
7.198211 -12.686597 -61.175276
7.524078 -15.843038 -60.128222
6.776103 -16.810992 -59.3324
7.030559 -14.713325 -60.284619
10.706847 -12.380069 -62.855597
9.942519 -13.221538 -62.222967
10.152309 -11.254507 -63.114945
11.310789 -13.535469 -62.551576
10.706847 -12.380069 -62.855597
4.48138 -60.083332 -46.799603
3.668252 -62.291178 -46.20958
3.14298 -61.114981 -46.276657
4.059038 -46.991415 -49.108869
3.660865 -45.60998 -49.2081
5.221827 -46.002163 -49.735729
4.527774 -48.253958 -49.004537
4.059038 -46.991415 -49.108869
6.544039 -37.996583 -52.21584
5.490394 -38.988968 -51.512772
6.043403 -36.721643 -52.342075
15.96477 -26.295291 -58.466654
16.622353 -27.398725 -58.147604
15.614926 -28.365144 -57.656025
7.29513 -26.418111 -56.098991
6.796988 -25.231652 -56.259378
8.22346 -25.571039 -56.760945
7.848705 -27.678663 -55.870785
7.29513 -26.418111 -56.098991
18.000619 -34.68894 -55.561913
17.630776 -36.767303 -54.829262
17.333248 -33.569283 -55.957243
18.444404 -32.411392 -56.388976
18.000619 -34.68894 -55.561913
14.123529 -52.351399 -49.903799
13.540616 -54.580267 -49.270239
13.382271 -51.564377 -50.120302
14.711403 -50.088372 -50.549923
14.123529 -52.351399 -49.903799
7.993275 -11.859072 -61.952897
7.198211 -12.686597 -61.175276
8.797998 -11.034374 -62.653834
8.583258 -12.920673 -61.781378
7.993275 -11.859072 -61.952897
9.561478 -10.110805 -63.380863
8.797998 -11.034374 -62.653834
10.152309 -11.254507 -63.114945
9.561478 -10.110805 -63.380863
4.262669 -43.447969 -49.928777
3.660865 -45.60998 -49.2081
13.558993 -20.003059 -60.48997
13.307386 -22.045483 -59.624398
12.663836 -21.002926 -59.903227
13.558993 -20.003059 -60.48997
13.834692 -17.976053 -61.359253
10.89763 -60.689264 -47.646621
12.341648 -59.141688 -48.033535
2.642765 -59.82744 -46.304533
3.14298 -61.114981 -46.276657
3.434995 -57.681495 -46.909165
2.642765 -59.82744 -46.304533
4.130108 -55.345638 -47.531609
4.651221 -56.571277 -47.489124
3.434995 -57.681495 -46.909165
4.817539 -53.108727 -48.158491
4.130108 -55.345638 -47.531609
3.601313 -54.218944 -47.578531
6.555305 -34.440643 -53.204498
6.043403 -36.721643 -52.342075
6.921598 -32.251766 -54.012465
7.375006 -29.93862 -54.934954
7.463342 -33.540382 -53.85311
6.555305 -34.440643 -53.204498
6.921598 -32.251766 -54.012465
12.610789 -15.75322 -61.994406
13.180072 -16.9421 -61.657643
12.34616 -17.771621 -61.105563
5.863392 -22.865285 -56.599512
6.32869 -24.03303 -56.473451
16.29356 -43.499422 -52.5788
15.808446 -45.679062 -51.887018
15.590435 -42.544081 -52.874047
16.771257 -41.208207 -53.320335
16.29356 -43.499422 -52.5788
6.217826 -20.80931 -57.528294
5.863392 -22.865285 -56.599512
6.485993 -18.823041 -58.407646
6.776103 -16.810992 -59.3324
7.001456 -19.926975 -58.29665
6.217826 -20.80931 -57.528294
6.485993 -18.823041 -58.407646
11.950699 -14.653289 -62.29093
11.136967 -15.46492 -61.702973
11.310789 -13.535469 -62.551576
12.610789 -15.75322 -61.994406
11.950699 -14.653289 -62.29093
10.239918 -59.7248 -47.835188
10.89763 -60.689264 -47.646621
4.243459 -63.422844 -46.185114
3.668252 -62.291178 -46.20958
5.681195 -62.20529 -46.693554
4.243459 -63.422844 -46.185114
6.997312 -60.954468 -47.201998
5.681195 -62.20529 -46.693554
6.322769 -60.008707 -47.240969
8.271695 -59.844429 -47.604639
6.997312 -60.954468 -47.201998
9.594843 -58.637705 -48.056723
8.271695 -59.844429 -47.604639
8.962032 -57.551161 -48.201496
10.930255 -57.431532 -48.432045
10.239918 -59.7248 -47.835188
9.594843 -58.637705 -48.056723
3.826865 -50.612622 -48.291546
3.058292 -53.019605 -47.570031
4.989654 -49.623369 -48.918405
3.826865 -50.612622 -48.291546
4.527774 -48.253958 -49.004537
4.881639 -41.210114 -50.702015
5.490394 -38.988968 -51.512772
5.37206 -42.501764 -50.613298
4.262669 -43.447969 -49.928777
4.881639 -41.210114 -50.702015
17.286243 -28.229782 -57.876435
18.038505 -29.14136 -57.6001
17.024771 -30.380156 -57.060641
17.286243 -28.229782 -57.876435
16.622353 -27.398725 -58.147604
13.947644 -23.103184 -59.369194
13.052487 -24.103051 -58.782452
13.307386 -22.045483 -59.624398
14.631845 -24.201215 -59.057844
13.947644 -23.103184 -59.369194
15.264145 -25.251695 -58.781757
14.325043 -26.211231 -58.251161
14.631845 -24.201215 -59.057844
15.96477 -26.295291 -58.466654
15.264145 -25.251695 -58.781757
3 0 65 67
3 65 19 66
3 65 66 67
3 0 21 19
3 1 68 69
3 1 70 72
3 70 22 71
3 70 71 72
3 2 73 74
3 2 75 77
3 75 23 76
3 75 76 77
3 3 27 25
3 3 29 27
3 4 32 30
3 4 34 32
3 4 36 34
3 79 78 37
3 80 38 81
3 7 82 84
3 82 39 83
3 82 83 84
3 7 40 39
3 7 42 40
3 9 43 20
3 9 44 43
3 10 85 86
3 10 87 88
3 11 89 90
3 11 91 93
3 91 45 92
3 91 92 93
3 12 94 95
3 12 96 98
3 96 46 97
3 96 97 98
3 12 47 46
3 99 48 100
3 101 100 24
3 99 100 101
3 103 102 48
3 5 104 106
3 104 49 105
3 104 105 106
3 13 50 26
3 13 51 50
3 13 52 51
3 14 53 28
3 14 54 53
3 15 107 108
3 15 109 111
3 109 55 110
3 109 110 111
3 6 112 114
3 112 56 113
3 112 113 114
3 16 57 31
3 16 58 57
3 16 59 58
3 17 60 33
3 17 61 60
3 17 62 61
3 18 63 35
3 18 115 117
3 117 116 63
3 115 116 117
3 8 64 41
3 19 118 119
3 19 120 122
3 120 7 121
3 120 121 122
3 19 20 7
3 21 20 19
3 21 9 20
3 22 123 124
3 22 125 127
3 125 10 126
3 125 126 127
3 23 128 129
3 23 130 132
3 130 11 131
3 130 131 132
3 133 12 134
3 135 24 136
3 137 136 12
3 135 136 137
3 138 24 139
3 141 140 24
3 25 26 5
3 27 26 25
3 27 13 26
3 27 28 13
3 29 28 27
3 29 14 28
3 142 15 143
3 30 31 6
3 32 31 30
3 32 16 31
3 32 33 16
3 34 33 32
3 34 17 33
3 34 35 17
3 36 35 34
3 36 18 35
3 37 144 146
3 146 145 8
3 144 145 146
3 148 147 37
3 149 2 150
3 151 5 152
3 153 5 154
3 155 25 156
3 157 156 5
3 155 156 157
3 38 158 160
3 158 25 159
3 158 159 160
3 38 3 25
3 161 6 162
3 39 163 164
3 39 165 167
3 165 6 166
3 165 166 167
3 39 30 6
3 40 30 39
3 40 4 30
3 40 41 4
3 42 41 40
3 42 8 41
3 20 42 7
3 43 42 20
3 43 8 42
3 43 37 8
3 44 37 43
3 44 168 170
3 170 169 37
3 168 169 170
3 171 0 172
3 45 173 174
3 45 175 177
3 175 1 176
3 175 176 177
3 178 0 179
3 46 180 181
3 46 182 184
3 182 0 183
3 182 183 184
3 46 21 0
3 47 21 46
3 47 9 21
3 24 47 12
3 48 47 24
3 48 9 47
3 48 44 9
3 185 44 186
3 187 186 48
3 185 186 187
3 189 188 44
3 190 2 191
3 49 192 193
3 49 194 195
3 26 49 5
3 50 49 26
3 50 196 198
3 198 197 49
3 196 197 198
3 50 199 200
3 51 201 203
3 203 202 50
3 201 202 203
3 51 204 206
3 204 2 205
3 204 205 206
3 51 23 2
3 52 23 51
3 52 11 23
3 28 52 13
3 53 52 28
3 53 11 52
3 53 45 11
3 54 45 53
3 54 1 45
3 207 38 208
3 55 209 211
3 209 38 210
3 209 210 211
3 55 3 38
3 56 212 213
3 56 214 216
3 214 15 215
3 214 215 216
3 31 56 6
3 57 56 31
3 57 15 56
3 57 55 15
3 58 55 57
3 58 3 55
3 58 29 3
3 59 29 58
3 59 14 29
3 33 59 16
3 60 59 33
3 60 14 59
3 60 54 14
3 61 54 60
3 61 1 54
3 61 22 1
3 62 22 61
3 62 10 22
3 35 62 17
3 63 62 35
3 63 10 62
3 63 217 219
3 219 218 10
3 217 218 219
3 221 220 63
3 41 36 4
3 64 36 41
3 64 18 36
3 222 64 223
3 224 223 8
3 222 223 224
3 225 64 226
3 227 18 228
3 229 228 64
3 227 228 229
3 231 230 18
