ply
format ascii 1.0
element vertex 133
property float x
property float y
property float z
element face 112
property list uchar int vertex_index
end_header
10.067377 30.895485 59.100849
17.190144 36.660641 60.863956
13.129683 26.534208 62.48241
13.686233 33.484062 60.324448
16.819893 28.965656 63.497456
20.177362 31.329996 63.715485
14.786394 24.250963 64.068481
15.030713 27.674999 63.106503
21.867369 32.323166 63.521313
11.121367 21.632908 62.888435
15.384819 34.985981 60.674305
19.033253 37.863338 61.032494
11.484853 28.464895 60.86935
11.922412 31.941486 59.862724
13.470432 29.976007 61.494442
15.326862 31.288258 62.018532
16.957396 32.893909 62.194046
18.421053 30.335381 63.623581
18.660667 34.156891 62.350437
20.443352 34.982578 62.454514
8.296515 29.118692 58.640232
9.813125 27.12184 60.316002
11.402688 24.978842 62.003124
12.959227 22.824266 63.557644
12.150188 35.751419 58.510559
10.211747 32.508454 58.564619
9.262021 31.77981 58.24006
15.730063 24.776433 64.331894
15.566831 23.018788 64.777946
16.478338 37.755466 60.091492
15.575675 36.918137 59.996666
16.287481 35.823311 60.769131
19.184756 39.694946 60.315334
19.929445 38.469522 60.970036
19.299208 30.832689 63.669533
19.229655 28.939499 64.273953
20.10781 29.436807 64.319905
21.979556 34.271054 62.803579
22.608735 32.971472 63.210482
7.320827 28.53977 58.234922
7.502904 30.193495 57.720234
9.685236 25.420592 60.810989
8.859139 26.442864 59.957531
10.480018 24.349092 61.65455
10.607906 26.050341 61.159563
9.685236 25.420592 60.810989
12.830451 21.146186 63.978735
12.040297 22.228587 63.223039
11.911521 20.550507 63.644131
13.773118 21.663952 64.312101
12.830451 21.146186 63.978735
15.852223 26.488451 63.850904
14.908554 25.962981 63.587492
15.730063 24.776433 64.331894
16.746813 27.133779 64.046381
15.925303 28.320327 63.30198
15.852223 26.488451 63.850904
20.91074 29.953274 64.239937
20.10781 29.436807 64.319905
21.755744 30.44986 64.142851
21.022365 31.826581 63.618399
20.91074 29.953274 64.239937
22.566789 31.064425 63.877898
21.755744 30.44986 64.142851
22.608735 32.971472 63.210482
22.566789 31.064425 63.877898
10.196761 21.102955 62.507963
10.339357 22.676125 62.097206
10.984029 19.95978 63.302473
10.196761 21.102955 62.507963
11.774183 18.877378 64.058168
11.911521 20.550507 63.644131
10.984029 19.95978 63.302473
14.665306 36.082414 59.84514
13.816012 35.331455 59.670212
14.535526 34.235022 60.499376
14.665306 36.082414 59.84514
15.575675 36.918137 59.996666
18.26737 39.138124 60.243865
17.345816 38.536775 60.159596
18.111698 37.261989 60.948225
18.26737 39.138124 60.243865
19.184756 39.694946 60.315334
17.61952 27.666061 64.195498
16.746813 27.133779 64.046381
18.420099 28.350923 64.25856
19.229655 28.939499 64.273953
17.620473 29.650519 63.560519
17.61952 27.666061 64.195498
18.420099 28.350923 64.25856
20.634495 37.029142 61.681046
19.929445 38.469522 60.970036
19.738302 36.422958 61.743504
21.267547 35.600759 62.27018
21.155361 33.652872 62.987914
21.979556 34.271054 62.803579
20.634495 37.029142 61.681046
21.267547 35.600759 62.27018
8.37659 30.891413 58.009752
7.502904 30.193495 57.720234
9.181946 30.007089 58.87054
9.262021 31.77981 58.24006
8.37659 30.891413 58.009752
8.100834 27.441291 59.119646
7.320827 28.53977 58.234922
9.05482 28.120266 59.478117
8.100834 27.441291 59.119646
8.859139 26.442864 59.957531
11.262027 23.305875 62.44578
10.480018 24.349092 61.65455
10.339357 22.676125 62.097206
14.686701 22.3773 64.56752
13.87281 23.537615 63.813063
13.773118 21.663952 64.312101
15.566831 23.018788 64.777946
14.686701 22.3773 64.56752
11.139264 33.031454 58.945556
10.211747 32.508454 58.564619
10.994895 31.418486 59.481786
11.253152 34.93642 58.269474
11.139264 33.031454 58.945556
12.0363 33.846452 59.186642
11.461763 36.784743 57.646242
11.253152 34.93642 58.269474
13.04799 36.465134 58.763267
12.918211 34.61774 59.417503
13.816012 35.331455 59.670212
12.411916 37.691799 57.868341
13.04799 36.465134 58.763267
11.461763 36.784743 57.646242
12.411916 37.691799 57.868341
16.478338 37.755466 60.091492
17.345816 38.536775 60.159596
3 0 25 26
3 28 27 6
3 1 29 31
3 31 30 10
3 29 30 31
3 33 32 11
3 2 14 12
3 4 15 7
3 4 16 15
3 5 34 36
3 34 17 35
3 34 35 36
3 5 18 17
3 5 19 18
3 38 37 8
3 39 20 40
3 41 21 42
3 43 22 44
3 45 44 21
3 43 44 45
3 46 23 47
3 48 47 9
3 46 47 48
3 50 49 23
3 3 24 13
3 6 7 2
3 51 7 52
3 53 52 6
3 51 52 53
3 54 4 55
3 56 55 7
3 54 55 56
3 57 5 58
3 59 8 60
3 61 60 5
3 59 60 61
3 62 8 63
3 65 64 8
3 66 9 67
3 68 9 69
3 72 71 9
3 70 71 72
3 10 73 75
3 75 74 3
3 73 74 75
3 77 76 10
3 11 78 80
3 80 79 1
3 78 79 80
3 82 81 11
3 12 13 0
3 14 13 12
3 14 3 13
3 7 14 2
3 15 14 7
3 15 3 14
3 15 10 3
3 16 10 15
3 16 1 10
3 83 4 84
3 17 85 86
3 17 87 89
3 87 4 88
3 87 88 89
3 17 16 4
3 18 16 17
3 18 1 16
3 18 11 1
3 19 11 18
3 19 90 92
3 92 91 11
3 90 91 92
3 8 19 5
3 93 19 94
3 95 94 8
3 93 94 95
3 97 96 19
3 20 98 99
3 20 100 102
3 100 0 101
3 100 101 102
3 103 20 104
3 21 105 107
3 105 20 106
3 105 106 107
3 21 0 20
3 21 12 0
3 22 12 21
3 22 2 12
3 9 108 110
3 108 22 109
3 108 109 110
3 23 22 9
3 23 2 22
3 23 6 2
3 111 6 112
3 113 112 23
3 111 112 113
3 115 114 6
3 13 116 118
3 118 117 0
3 116 117 118
3 24 119 121
3 121 120 13
3 119 120 121
3 24 122 123
3 124 24 125
3 126 125 3
3 124 125 126
3 127 24 128
3 130 129 24
3 132 131 1
