ply
format ascii 1.0
element vertex 119
property float x
property float y
property float z
element face 102
property list uchar int vertex_index
end_header
33.300034 10.04835 -64.121323
33.974552 14.739419 -62.05098
36.045441 7.987721 -60.01115
33.698982 -3.117537 -62.362423
35.164154 2.61628 -61.630436
36.336811 10.136719 -58.785507
37.196438 6.522566 -57.732761
33.681496 12.536137 -63.240288
32.059975 13.599341 -65.253853
31.626343 11.014199 -65.988663
36.465218 1.515784 -59.598286
35.913494 -1.369007 -60.166157
35.384357 13.236418 -59.736996
35.0527 11.380279 -61.183815
34.823158 8.801751 -62.072746
35.144917 -3.974267 -60.664051
34.306477 -7.111215 -60.752548
36.921764 4.051274 -58.723217
35.685165 5.350591 -60.920387
34.295856 6.513942 -62.953407
34.534531 -0.110267 -62.090397
33.721233 3.792339 -63.505493
32.804859 7.304097 -64.745438
37.671439 5.75364 -56.557237
37.28381 7.622307 -57.083057
36.181207 -3.312769 -59.450544
36.491768 -1.82748 -59.217209
35.924161 12.6641 -58.560944
35.429991 14.118903 -58.976624
34.487296 -9.233903 -59.934627
34.96638 -7.651123 -59.911934
35.147198 -9.773812 -59.094014
33.356135 16.240682 -62.442019
33.478117 17.074889 -61.703226
34.096535 15.573626 -61.312188
37.280996 2.012779 -58.034681
37.451393 3.262007 -57.579712
32.894543 4.240747 -64.382042
33.354 2.324299 -63.674334
32.436356 5.996626 -65.002015
33.263046 5.548218 -64.125465
32.894543 4.240747 -64.382042
31.932505 7.863788 -65.621883
32.436356 5.996626 -65.002015
36.853996 9.429384 -57.60943
36.400388 11.114251 -58.0852
36.766624 8.329643 -58.259134
36.853996 9.429384 -57.60943
37.28381 7.622307 -57.083057
33.033406 14.194973 -63.753415
33.179934 15.296614 -63.15876
33.828024 13.637778 -62.645634
32.222645 14.726575 -64.760197
33.033406 14.194973 -63.753415
32.870736 13.067739 -64.247071
31.404285 15.118372 -65.711609
32.222645 14.726575 -64.760197
31.224595 13.96975 -66.120602
31.404285 15.118372 -65.711609
31.007779 12.677179 -66.488007
31.224595 13.96975 -66.120602
31.843159 12.30677 -65.621258
30.697536 11.513362 -66.842865
30.078972 13.176341 -67.342208
31.007779 12.677179 -66.488007
36.76763 -0.385085 -58.933273
37.052723 0.745034 -58.472216
36.189356 0.073388 -59.882221
36.76763 -0.385085 -58.933273
36.491768 -1.82748 -59.217209
33.342875 -1.130638 -63.102798
32.91126 -2.599003 -63.15469
34.801437 14.822126 -60.155195
35.429991 14.118903 -58.976624
34.679455 13.987918 -60.893988
34.096535 15.573626 -61.312188
34.801437 14.822126 -60.155195
35.860584 11.686568 -59.261252
35.924161 12.6641 -58.560944
36.400388 11.114251 -58.0852
35.385599 -6.08265 -59.867686
35.796919 -4.615399 -59.699492
34.725697 -5.542741 -60.708299
35.385599 -6.08265 -59.867686
34.96638 -7.651123 -59.911934
33.722966 -8.649596 -60.781159
34.487296 -9.233903 -59.934627
33.594031 -6.657633 -61.503727
33.722966 -8.649596 -60.781159
33.010519 -8.196013 -61.532337
33.290283 -4.660794 -62.308664
34.00273 -5.114376 -61.557485
33.594031 -6.657633 -61.503727
32.91126 -2.599003 -63.15469
33.290283 -4.660794 -62.308664
33.356135 16.240682 -62.442019
33.179934 15.296614 -63.15876
37.58873 4.497653 -57.084484
37.671439 5.75364 -56.557237
37.059101 5.28692 -58.227989
37.58873 4.497653 -57.084484
37.451393 3.262007 -57.579712
36.693491 2.783529 -59.160752
37.280996 2.012779 -58.034681
37.052723 0.745034 -58.472216
35.529206 -2.671637 -60.415104
36.181207 -3.312769 -59.450544
35.796919 -4.615399 -59.699492
33.760649 0.372997 -62.966786
34.116757 -1.613902 -62.22641
33.342875 -1.130638 -63.102798
34.127882 1.841036 -62.797945
33.760649 0.372997 -62.966786
33.354 2.324299 -63.674334
31.343247 9.718839 -66.243496
32.215601 9.159148 -65.367051
31.932505 7.863788 -65.621883
30.697536 11.513362 -66.842865
31.343247 9.718839 -66.243496
3 23 6 24
3 0 8 7
3 0 9 8
3 25 11 26
3 27 12 28
3 2 13 5
3 2 14 13
3 29 16 30
3 29 30 31
3 1 32 34
3 32 33 34
3 35 17 36
3 4 18 10
3 4 19 18
3 3 20 15
3 37 21 38
3 39 22 40
3 41 40 21
3 39 40 41
3 43 42 22
3 44 5 45
3 6 46 48
3 46 5 47
3 46 47 48
3 6 2 5
3 7 49 51
3 51 50 1
3 49 50 51
3 8 52 54
3 54 53 7
3 52 53 54
3 8 55 56
3 8 57 58
3 9 59 61
3 61 60 8
3 59 60 61
3 9 62 64
3 62 63 64
3 65 10 66
3 11 67 69
3 67 10 68
3 67 68 69
3 11 4 10
3 71 70 3
3 12 72 73
3 12 74 76
3 74 1 75
3 74 75 76
3 5 77 79
3 77 12 78
3 77 78 79
3 13 12 5
3 13 1 12
3 13 7 1
3 14 7 13
3 14 0 7
3 80 15 81
3 16 82 84
3 82 15 83
3 82 83 84
3 16 3 15
3 85 16 86
3 87 16 88
3 87 88 89
3 90 3 91
3 92 91 16
3 90 91 92
3 94 93 3
3 96 95 1
3 97 6 98
3 17 99 101
3 99 6 100
3 99 100 101
3 17 2 6
3 10 102 104
3 102 17 103
3 102 103 104
3 18 17 10
3 18 2 17
3 18 14 2
3 19 14 18
3 19 0 14
3 15 105 107
3 105 11 106
3 105 106 107
3 20 11 15
3 20 4 11
3 108 20 109
3 110 109 3
3 108 109 110
3 21 111 113
3 111 20 112
3 111 112 113
3 21 4 20
3 21 19 4
3 22 19 21
3 22 0 19
3 22 9 0
3 114 9 115
3 116 115 22
3 114 115 116
3 118 117 9
