ply
format ascii 1.0
element vertex 187
property float x
property float y
property float z
element face 170
property list uchar int vertex_index
end_header
17.241879 88.481178 26.429325
10.891241 91.560295 18.951277
17.74247 93.887482 20.233046
20.654341 91.345406 23.935469
23.233923 87.686874 27.64477
20.07905 85.626686 30.277863
14.295361 90.617554 22.478405
7.439555 87.762665 20.552694
10.442877 86.482727 24.33975
17.544418 91.222351 23.437271
19.271191 92.897774 21.896442
18.922411 89.935532 25.373259
20.385666 88.464729 27.26717
18.677933 87.033226 28.505241
12.685988 93.59256 17.787674
14.36972 93.19088 19.439243
12.595929 91.18634 20.68054
22.980381 84.799828 30.849701
5.976477 88.17852 18.823112
5.495142 85.66082 21.22859
8.490949 84.411446 24.991545
12.05064 85.76355 26.258385
9.318926 91.966774 17.172279
17.799303 96.396461 16.839363
19.420107 95.388763 18.628363
20.946259 94.088722 20.434729
22.304773 92.597343 22.115948
21.971952 89.772896 25.673441
21.763588 86.704292 29.14444
21.328085 83.732597 32.254925
16.100378 94.809967 18.328938
16.0604 92.371582 21.403152
15.673729 89.534676 24.505558
7.607267 90.028549 18.075323
9.227858 89.604782 19.930048
7.032876 85.179665 23.029539
8.901155 87.141983 22.434937
10.83539 89.065567 21.822519
12.456595 88.554054 23.578854
13.924811 87.794334 25.381454
15.484394 86.726219 27.436607
16.950748 85.414459 29.535727
19.740873 82.471771 33.368931
11.788615 92.576427 18.369476
11.839427 93.723374 16.969058
10.942053 92.707241 17.55086
23.533687 83.581643 31.819116
22.791835 83.170315 32.522827
4.601111 84.658276 21.535125
4.807417 85.94825 20.307622
8.569297 92.027603 16.456371
9.340203 93.040196 15.809445
15.331471 95.217758 17.345887
16.12697 96.044849 16.604927
23.953683 88.004188 26.806942
23.339028 89.09856 25.938492
6.851283 83.776073 24.323705
6.122838 84.092197 23.413104
13.72984 86.314186 26.790582
12.987725 86.778942 25.81992
12.792754 85.298794 27.229048
14.509631 85.780129 27.818159
14.704603 87.260277 26.409031
13.72984 86.314186 26.790582
16.69697 83.815888 30.987676
16.011108 84.554901 29.903923
17.636946 84.714447 30.513121
16.69697 83.815888 30.987676
19.516039 80.757301 34.903543
18.845387 81.63628 33.89953
20.381172 81.458709 34.384732
19.516039 80.757301 34.903543
12.705973 94.683052 16.345671
11.839427 93.723374 16.969058
13.624276 94.609055 17.075255
12.705973 94.683052 16.345671
13.527854 93.39172 18.613459
14.466142 94.408215 17.90104
13.624276 94.609055 17.075255
23.744219 85.180562 30.033549
23.87099 86.624085 28.431083
23.107152 86.243351 29.247236
23.744219 85.180562 30.033549
23.533687 83.581643 31.819116
5.048084 87.2071 19.104883
5.346465 88.405689 17.988501
4.418073 87.434269 18.270273
5.73581 86.91967 20.025851
5.048084 87.2071 19.104883
4.807417 85.94825 20.307622
8.309451 82.992379 26.265083
7.580319 83.391964 25.304708
9.287907 84.046307 25.966597
8.309451 82.992379 26.265083
10.26387 85.081947 25.6407
9.466913 85.447086 24.665647
9.287907 84.046307 25.966597
11.067752 84.722359 26.600017
11.246758 86.123138 25.299067
10.26387 85.081947 25.6407
11.801661 84.237415 27.606139
11.067752 84.722359 26.600017
12.792754 85.298794 27.229048
11.801661 84.237415 27.606139
10.155895 92.910481 16.661361
9.340203 93.040196 15.809445
10.105083 91.763534 18.061778
10.942053 92.707241 17.55086
10.155895 92.910481 16.661361
18.648286 97.075085 16.0001
17.811948 97.549804 15.091536
19.458688 96.571236 16.8946
18.648286 97.075085 16.0001
18.609705 95.892612 17.733863
20.228371 95.955276 17.806268
19.458688 96.571236 16.8946
20.991447 95.305256 18.709451
20.228371 95.955276 17.806268
20.183183 94.738743 19.531546
21.706825 94.580501 19.557634
21.752012 95.797035 17.832356
20.991447 95.305256 18.709451
22.386082 93.834812 20.398244
21.706825 94.580501 19.557634
21.625516 93.343032 21.275339
23.035471 92.869968 21.362917
22.386082 93.834812 20.398244
22.874454 91.553794 23.174081
23.035471 92.869968 21.362917
22.708043 90.141571 24.952827
22.874454 91.553794 23.174081
22.138362 91.185119 23.894694
22.602938 88.729885 26.659106
23.339028 89.09856 25.938492
22.708043 90.141571 24.952827
21.965687 82.636699 33.225439
22.791835 83.170315 32.522827
22.154233 84.266212 31.552313
16.976432 96.838097 15.860139
17.811948 97.549804 15.091536
16.949841 95.603214 17.58415
16.976432 96.838097 15.860139
16.12697 96.044849 16.604927
15.235049 94.000424 18.88409
15.331471 95.217758 17.345887
14.466142 94.408215 17.90104
23.953683 88.004188 26.806942
23.87099 86.624085 28.431083
6.109285 89.299972 17.614051
5.346465 88.405689 17.988501
6.924679 90.224987 17.240157
6.109285 89.299972 17.614051
6.791872 89.103534 18.449217
7.713468 91.058491 16.907894
6.924679 90.224987 17.240157
8.463096 90.997661 17.623801
8.569297 92.027603 16.456371
7.713468 91.058491 16.907894
5.353971 84.332775 22.51263
4.601111 84.658276 21.535125
6.264009 85.420243 22.129064
5.353971 84.332775 22.51263
6.122838 84.092197 23.413104
7.761913 84.795556 24.010542
6.851283 83.776073 24.323705
7.580319 83.391964 25.304708
15.277931 85.210781 28.854363
14.509631 85.780129 27.818159
16.217571 86.070339 28.486167
15.277931 85.210781 28.854363
16.011108 84.554901 29.903923
18.500538 85.523831 29.997878
17.814341 86.223842 29.020484
17.636946 84.714447 30.513121
19.201096 84.82056 30.884189
19.378491 86.329956 29.391552
18.500538 85.523831 29.997878
19.032008 83.243103 32.429723
18.845387 81.63628 33.89953
19.909962 84.049228 31.823397
19.201096 84.82056 30.884189
19.032008 83.243103 32.429723
21.174778 82.089123 33.827728
20.534479 83.102184 32.811928
20.381172 81.458709 34.384732
21.965687 82.636699 33.225439
21.174778 82.089123 33.827728
3 0 11 9
3 0 13 11
3 1 43 45
3 43 14 44
3 43 44 45
3 1 16 14
3 47 46 17
3 48 19 49
3 50 22 51
3 2 24 23
3 3 25 10
3 3 26 25
3 3 27 26
3 5 28 12
3 5 29 28
3 52 30 53
3 6 31 15
3 6 32 31
3 4 54 55
3 7 33 18
3 7 34 33
3 56 35 57
3 8 36 20
3 8 37 36
3 8 38 37
3 58 39 59
3 60 59 21
3 58 59 60
3 61 40 62
3 63 62 39
3 61 62 63
3 64 41 65
3 67 66 41
3 68 42 69
3 71 70 42
3 9 10 2
3 11 10 9
3 11 3 10
3 11 12 3
3 13 12 11
3 13 5 12
3 14 72 73
3 14 74 75
3 14 76 78
3 76 15 77
3 76 77 78
3 16 15 14
3 16 6 15
3 17 79 81
3 81 80 4
3 79 80 81
3 83 82 17
3 84 18 85
3 84 85 86
3 19 87 89
3 87 18 88
3 87 88 89
3 19 7 18
3 90 20 91
3 92 20 93
3 94 8 95
3 96 95 20
3 94 95 96
3 97 21 98
3 99 98 8
3 97 98 99
3 100 21 101
3 103 102 21
3 22 104 105
3 22 106 108
3 106 1 107
3 106 107 108
3 23 109 110
3 24 111 113
3 113 112 23
3 111 112 113
3 24 114 115
3 10 24 2
3 25 24 10
3 25 116 118
3 118 117 24
3 116 117 118
3 25 119 121
3 119 120 121
3 26 122 124
3 124 123 25
3 122 123 124
3 26 125 126
3 26 127 128
3 27 129 131
3 131 130 26
3 129 130 131
3 27 132 134
3 132 4 133
3 132 133 134
3 12 27 3
3 28 27 12
3 28 4 27
3 28 17 4
3 29 17 28
3 29 135 137
3 137 136 17
3 135 136 137
3 138 23 139
3 30 140 142
3 140 23 141
3 140 141 142
3 30 2 23
3 15 143 145
3 143 30 144
3 143 144 145
3 31 30 15
3 31 2 30
3 31 9 2
3 32 9 31
3 32 0 9
3 147 146 4
3 18 148 149
3 33 150 152
3 152 151 18
3 150 151 152
3 33 153 154
3 33 155 157
3 155 22 156
3 155 156 157
3 34 22 33
3 34 1 22
3 158 19 159
3 35 160 162
3 160 19 161
3 160 161 162
3 35 7 19
3 20 163 165
3 163 35 164
3 163 164 165
3 36 35 20
3 36 7 35
3 36 34 7
3 37 34 36
3 37 1 34
3 37 16 1
3 38 16 37
3 38 6 16
3 21 38 8
3 39 38 21
3 39 6 38
3 39 32 6
3 40 32 39
3 40 0 32
3 166 40 167
3 41 168 170
3 168 40 169
3 168 169 170
3 41 0 40
3 41 13 0
3 171 13 172
3 173 172 41
3 171 172 173
3 174 5 175
3 176 175 13
3 174 175 176
3 42 177 178
3 42 179 181
3 179 5 180
3 179 180 181
3 42 29 5
3 182 29 183
3 184 183 42
3 182 183 184
3 186 185 29
