ply
format ascii 1.0
element vertex 176
property float x
property float y
property float z
element face 168
property list uchar int vertex_index
end_header
-14.250804 107.228745 -12.825541
-12.165771 96.98317 12.049584
-17.570679 103.996239 0.985038
-16.114195 106.123756 -6.081548
-20.218864 105.556961 -5.037243
-18.753176 107.126221 -12.092445
-16.418911 97.611443 13.603462
-18.975212 101.100204 7.838598
-14.935163 101.072395 6.671046
-13.343428 103.618004 0.006995
-11.49277 105.328522 -6.764976
-15.295194 106.829514 -9.582942
-17.462738 106.821983 -9.129094
-16.491907 107.391235 -12.767406
-14.322277 97.515305 12.667284
-15.70506 99.520065 10.000469
-13.582949 99.087555 9.543359
-12.07534 102.044968 2.697087
-11.144073 103.065781 -0.52765
-12.507321 104.629211 -3.458325
-10.177107 103.942085 -3.887727
-18.367243 102.693863 4.326438
-20.299438 102.287285 4.939687
-19.559341 103.755791 1.43191
-11.49296 98.714058 8.642106
-16.923082 105.190201 -2.602957
-18.853281 105.013947 -2.126257
-18.355494 106.039505 -5.71835
-19.65238 106.4664 -8.773315
-15.548182 107.641785 -15.989787
-18.373484 97.788116 13.92769
-19.706621 99.275574 11.402131
-17.652416 99.6082 10.559989
-17.030973 101.31292 7.094512
-16.418213 102.716278 3.870809
-12.86962 100.778778 5.919423
-14.288987 102.496696 3.315806
-15.463747 103.950287 0.459207
-14.780407 105.031548 -2.94998
-13.90711 105.866531 -6.344568
-12.937025 106.465446 -9.790439
-14.965516 95.702293 15.867089
-12.820015 95.128838 15.355774
-20.869001 100.709381 8.295305
-20.901596 104.462822 -1.666122
-17.919142 107.53241 -15.599532
-10.02051 102.664677 -0.753483
-10.479801 102.130547 0.950198
-9.537027 103.102829 -2.433521
-10.66059 103.503933 -2.207688
-10.02051 102.664677 -0.753483
-19.78929 106.823246 -11.908657
-20.238892 106.493336 -10.249092
-19.202778 106.796311 -10.43288
-11.751701 100.420749 5.693366
-12.18129 99.746418 7.280765
-11.063371 99.388389 7.054708
-14.320344 94.555831 17.109629
-15.280069 94.64035 17.551804
-13.247594 94.269104 16.853972
-13.892765 95.415565 15.611432
-14.320344 94.555831 17.109629
-21.238817 101.910862 5.220041
-20.898947 102.721268 3.388208
-17.515487 107.591813 -17.254545
-16.733662 107.587097 -15.794659
-16.330007 107.6465 -17.449672
-10.945435 101.62014 2.562566
-11.354561 101.053844 4.082199
-11.609707 102.555374 1.084718
-10.945435 101.62014 2.562566
-10.479801 102.130547 0.950198
-20.528898 103.455521 1.634319
-20.898947 102.721268 3.388208
-19.929389 103.021538 3.185799
-21.127553 105.184605 -4.88561
-20.865597 105.640041 -6.561926
-10.797799 97.495342 10.074611
-11.829365 97.848614 10.345845
-11.134204 96.629898 11.77835
-10.411492 98.31105 8.402155
-10.797799 97.495342 10.074611
-11.063371 99.388389 7.054708
-10.411492 98.31105 8.402155
-20.582355 106.094761 -8.429962
-20.865597 105.640041 -6.561926
-19.935622 106.01168 -6.905279
-20.582355 106.094761 -8.429962
-20.238892 106.493336 -10.249092
-14.444498 107.522346 -16.030485
-14.899493 107.435265 -14.407664
-13.795809 107.315827 -14.448362
-15.163255 107.644905 -17.648566
-14.444498 107.522346 -16.030485
-16.330007 107.6465 -17.449672
-15.163255 107.644905 -17.648566
-19.040053 98.531845 12.664911
-19.971027 98.259491 13.188524
-19.304459 97.515762 14.451304
-12.47248 101.411873 4.308255
-11.751701 100.420749 5.693366
-11.354561 101.053844 4.082199
-8.965027 103.446563 -4.025915
-9.537027 103.102829 -2.433521
-8.324947 102.607307 -2.571709
-9.648896 104.225216 -5.445542
-8.965027 103.446563 -4.025915
-10.306728 104.918435 -6.884167
-10.834938 104.635304 -5.326351
-9.648896 104.225216 -5.445542
-11.001472 105.557442 -8.326609
-10.306728 104.918435 -6.884167
-11.723599 106.125904 -9.839341
-12.214897 105.896984 -8.277707
-11.001472 105.557442 -8.326609
-12.414797 106.613289 -11.355934
-11.723599 106.125904 -9.839341
-13.071687 106.994938 -12.873485
-13.593915 106.847095 -11.30799
-12.414797 106.613289 -11.355934
-13.795809 107.315827 -14.448362
-13.071687 106.994938 -12.873485
-18.667643 96.717663 15.695891
-19.304459 97.515762 14.451304
-17.714958 96.768795 15.353561
-18.667643 96.717663 15.695891
-16.737671 96.680459 15.191447
-17.396197 97.69978 13.765576
-17.714958 96.768795 15.353561
-16.010973 95.725884 16.32326
-15.280069 94.64035 17.551804
-15.692214 96.656868 14.735276
-16.737671 96.680459 15.191447
-16.010973 95.725884 16.32326
-12.164155 93.91901 16.573583
-13.247594 94.269104 16.853972
-11.780061 94.870544 14.951438
-12.164155 93.91901 16.573583
-11.452939 95.79771 13.298343
-12.492893 96.056004 13.702679
-11.780061 94.870544 14.951438
-11.134204 96.629898 11.77835
-11.452939 95.79771 13.298343
-20.60773 99.014786 11.695042
-20.872136 97.998703 13.481435
-19.971027 98.259491 13.188524
-21.18892 99.731689 10.141628
-20.60773 99.014786 11.695042
-20.287811 99.992478 9.848718
-21.728399 100.251045 8.727272
-21.18892 99.731689 10.141628
-21.523598 101.12191 6.89785
-20.584219 101.498333 6.617496
-21.238817 101.910862 5.220041
-22.382996 100.663574 7.329817
-21.728399 100.251045 8.727272
-21.523598 101.12191 6.89785
-21.200026 103.809037 0.085303
-20.528898 103.455521 1.634319
-20.230469 104.109307 -0.117106
-21.468919 104.637535 -3.20005
-20.56023 105.009892 -3.351682
-21.127553 105.184605 -4.88561
-21.763285 104.022415 -1.384359
-21.468919 104.637535 -3.20005
-21.200026 103.809037 0.085303
-21.763285 104.022415 -1.384359
-18.634698 107.399872 -17.2008
-17.515487 107.591813 -17.254545
-18.95024 107.301487 -15.419628
-18.634698 107.399872 -17.2008
-19.367258 107.098393 -13.666084
-18.336159 107.329316 -13.845989
-18.95024 107.301487 -15.419628
-19.78929 106.823246 -11.908657
-19.367258 107.098393 -13.666084
3 0 13 11
3 1 16 14
3 46 18 47
3 48 20 49
3 50 49 18
3 48 49 50
3 2 23 21
3 3 27 25
3 5 28 12
3 5 51 53
3 53 52 28
3 51 52 53
3 6 32 30
3 8 33 15
3 8 34 33
3 54 35 55
3 56 55 24
3 54 55 56
3 9 36 17
3 9 37 36
3 9 38 37
3 10 39 19
3 10 40 39
3 57 41 58
3 59 42 60
3 61 60 41
3 59 60 61
3 7 43 31
3 63 62 22
3 4 44 26
3 64 45 65
3 66 65 29
3 64 65 66
3 11 12 3
3 13 12 11
3 13 5 12
3 14 15 6
3 16 15 14
3 16 8 15
3 67 17 68
3 18 69 71
3 69 17 70
3 69 70 71
3 18 9 17
3 18 19 9
3 20 19 18
3 20 10 19
3 21 22 7
3 23 22 21
3 23 72 74
3 74 73 22
3 72 73 74
3 76 75 4
3 77 24 78
3 79 78 1
3 77 78 79
3 80 24 81
3 83 82 24
3 25 26 2
3 27 26 25
3 27 4 26
3 12 27 3
3 28 27 12
3 28 4 27
3 28 84 86
3 86 85 4
3 84 85 86
3 88 87 28
3 89 29 90
3 91 90 0
3 89 90 91
3 92 29 93
3 95 94 29
3 30 96 98
3 96 31 97
3 96 97 98
3 32 31 30
3 32 7 31
3 15 32 6
3 33 32 15
3 33 7 32
3 33 21 7
3 34 21 33
3 34 2 21
3 24 16 1
3 35 16 24
3 35 8 16
3 17 99 101
3 99 35 100
3 99 100 101
3 36 35 17
3 36 8 35
3 36 34 8
3 37 34 36
3 37 2 34
3 37 25 2
3 38 25 37
3 38 3 25
3 19 38 9
3 39 38 19
3 39 3 38
3 39 11 3
3 40 11 39
3 40 0 11
3 102 20 103
3 102 103 104
3 105 20 106
3 107 10 108
3 109 108 20
3 107 108 109
3 110 10 111
3 112 40 113
3 114 113 10
3 112 113 114
3 115 40 116
3 117 0 118
3 119 118 40
3 117 118 119
3 121 120 0
3 122 30 123
3 124 30 125
3 126 6 127
3 128 127 30
3 126 127 128
3 41 129 130
3 41 131 133
3 131 6 132
3 131 132 133
3 41 14 6
3 42 14 41
3 42 1 14
3 134 42 135
3 136 42 137
3 138 1 139
3 140 139 42
3 138 139 140
3 142 141 1
3 31 143 145
3 143 144 145
3 43 146 148
3 148 147 31
3 146 147 148
3 43 149 150
3 22 43 7
3 151 43 152
3 153 152 22
3 151 152 153
3 156 155 43
3 154 155 156
3 26 23 2
3 44 23 26
3 44 157 159
3 159 158 23
3 157 158 159
3 160 44 161
3 162 161 4
3 160 161 162
3 163 44 164
3 166 165 44
3 29 13 0
3 45 13 29
3 45 5 13
3 167 45 168
3 169 45 170
3 171 5 172
3 173 172 45
3 171 172 173
3 175 174 5
