ply
format ascii 1.0
element vertex 90
property float x
property float y
property float z
element face 69
property list uchar int vertex_index
end_header
-7.698593 -41.340847 -41.149689
-7.791169 -47.397781 -41.401192
-4.828001 -39.383305 -44.439568
-1.714025 -37.096523 -47.613861
-6.363271 -37.759575 -42.57954
-6.305643 -40.581055 -42.797871
-6.277355 -46.531689 -42.886848
-9.248404 -48.113167 -39.834526
-7.834178 -44.455067 -41.217522
-6.249998 -43.432846 -42.926018
-4.734184 -42.61866 -44.441265
-3.351477 -38.434525 -45.984768
-9.333726 -51.29047 -39.937172
-5.67269 -37.180191 -43.420395
-5.692162 -35.843338 -43.357265
-6.22604 -48.082971 -42.885627
-5.428256 -46.078825 -43.646942
-7.766386 -42.897957 -41.183605
-8.512431 -44.794962 -40.425829
-8.444639 -43.237852 -40.391913
-1.513978 -38.511093 -47.582691
-2.399945 -39.257322 -46.796242
-5.643876 -38.590931 -43.529561
-6.334457 -39.170315 -42.688705
-5.67269 -37.180191 -43.420395
-4.905055 -37.992056 -44.350409
-5.566822 -39.98218 -43.618719
-5.643876 -38.590931 -43.529561
-4.207461 -37.481901 -45.16556
-4.905055 -37.992056 -44.350409
-7.044657 -48.495317 -42.158934
-7.801564 -48.928364 -41.416106
-7.034262 -46.964735 -42.14402
-7.044657 -48.495317 -42.158934
-6.22604 -48.082971 -42.885627
-0.911504 -36.401079 -48.374105
-1.141228 -34.993101 -48.412001
-9.219545 -46.624012 -39.734331
-9.954308 -48.499811 -39.018205
-8.541291 -46.284117 -40.526024
-9.219545 -46.624012 -39.734331
-8.512431 -44.794962 -40.425829
-4.65667 -44.12231 -44.42415
-5.428256 -46.078825 -43.646942
-5.505769 -44.575175 -43.664057
-3.910025 -42.01839 -45.209944
-4.65667 -44.12231 -44.42415
-3.218671 -39.926323 -45.981695
-3.910025 -42.01839 -45.209944
-4.04283 -40.526592 -45.213017
-2.532751 -37.765524 -46.799315
-2.399945 -39.257322 -46.796242
-3.218671 -39.926323 -45.981695
-3.469199 -37.007511 -45.93816
-4.089739 -38.908915 -45.212168
-4.207461 -37.481901 -45.16556
-2.737737 -36.426972 -46.754151
-3.469199 -37.007511 -45.93816
-1.91901 -35.75797 -47.568697
-2.532751 -37.765524 -46.799315
-2.737737 -36.426972 -46.754151
-1.141228 -34.993101 -48.412001
-1.91901 -35.75797 -47.568697
-9.99615 -49.977677 -39.121048
-9.954308 -48.499811 -39.018205
-10.038811 -51.566328 -39.172371
-9.99615 -49.977677 -39.121048
-9.291065 -49.701819 -39.885849
-10.09981 -53.191576 -39.231921
-10.038811 -51.566328 -39.172371
-8.572843 -50.874708 -40.684095
-8.562448 -49.344126 -40.669182
-7.801564 -48.928364 -41.416106
-9.339913 -52.992025 -39.989362
-8.572843 -50.874708 -40.684095
-10.09981 -53.191576 -39.231921
-9.339913 -52.992025 -39.989362
-1.513978 -38.511093 -47.582691
-0.911504 -36.401079 -48.374105
-8.358524 -41.681141 -40.324387
-8.444639 -43.237852 -40.391913
-7.645871 -39.887045 -41.077826
-8.358524 -41.681141 -40.324387
-6.97821 -38.096409 -41.792751
-7.030932 -39.550211 -41.864615
-7.645871 -39.887045 -41.077826
-6.281177 -36.282184 -42.580452
-6.97821 -38.096409 -41.792751
-5.692162 -35.843338 -43.357265
-6.281177 -36.282184 -42.580452
3 14 13 4
3 16 15 6
3 0 17 19
3 17 8 18
3 17 18 19
3 2 9 5
3 2 10 9
3 2 11 10
3 1 12 7
3 3 20 21
3 4 5 0
3 22 5 23
3 24 23 4
3 22 23 24
3 25 2 26
3 27 26 5
3 25 26 27
3 29 28 2
3 6 30 32
3 32 31 1
3 30 31 32
3 34 33 6
3 36 35 3
3 37 7 38
3 8 39 41
3 39 7 40
3 39 40 41
3 8 1 7
3 5 8 0
3 9 8 5
3 9 1 8
3 9 6 1
3 10 6 9
3 10 42 44
3 44 43 6
3 42 43 44
3 10 45 46
3 11 47 49
3 49 48 10
3 47 48 49
3 11 50 52
3 50 3 51
3 50 51 52
3 53 11 54
3 55 54 2
3 53 54 55
3 56 11 57
3 58 3 59
3 60 59 11
3 58 59 60
3 62 61 3
3 7 63 64
3 12 65 67
3 67 66 7
3 65 66 67
3 12 68 69
3 70 12 71
3 72 71 1
3 70 71 72
3 73 12 74
3 76 75 12
3 78 77 3
3 79 0 80
3 81 0 82
3 83 4 84
3 85 84 0
3 83 84 85
3 86 4 87
3 89 88 4
