ply
format ascii 1.0
element vertex 309
property float x
property float y
property float z
element face 330
property list uchar int vertex_index
end_header
-29.977304 -16.238115 68.86586
-30.984755 -12.313551 61.334534
-26.613886 -7.468162 72.21154
-29.994816 -2.343149 67.439377
-25.451172 6.259385 70.253448
-30.764687 2.853871 59.988243
-30.483871 -20.748341 66.086426
-30.79384 -19.078377 62.207912
-30.817989 -14.405429 65.361061
-28.318972 -17.809551 71.426529
-23.708481 -3.221554 72.337784
-26.202827 -0.628982 71.379532
-29.540308 4.772064 66.538063
-30.642206 -0.017987 63.804749
-30.188602 8.044021 63.0742
-30.603441 -17.024683 57.953533
-30.72257 -9.966674 56.945259
-28.748064 -11.63765 70.975121
-30.239086 -9.593084 68.06485
-28.67473 -5.118754 70.344856
-28.242741 1.94069 69.407486
-26.442072 -13.401715 72.708839
-30.875929 -7.237158 64.52639
-30.970697 -5.093388 60.700603
-30.752354 -2.386096 56.381393
-30.299994 -18.556608 67.572388
-30.686789 -17.704773 65.683151
-30.495081 -15.498885 67.195007
-29.276737 -17.220751 70.222076
-28.947874 -20.173855 70.465843
-29.751282 -19.428024 69.077141
-23.454111 -0.169577 71.88398
-29.910372 6.446761 64.888496
-30.915827 -15.594134 61.785892
-30.745142 -18.092314 60.094513
-30.828707 -14.759251 59.60574
-30.652113 -13.635036 57.280323
-30.888855 -11.188744 59.134762
-27.795397 -9.315808 71.700623
-28.868404 -8.570821 70.582672
-27.752487 -6.152515 71.369774
-25.901596 2.626331 70.874596
-27.285275 0.53621 70.55735
-26.943022 4.150498 69.999748
-27.797525 5.644085 68.950455
-26.448183 8.035739 69.371681
-25.28739 -8.404092 72.73719
-25.216553 -11.296047 72.973114
-26.678257 -10.533859 72.46125
-27.731848 -12.629351 71.964668
-30.158173 -6.062567 67.785973
-30.645325 -8.586435 66.367363
-30.548565 -4.841237 66.07428
-30.743719 1.332445 61.968422
-30.883808 -2.426617 62.189461
-30.882349 -1.213463 60.217758
-30.881937 -3.691892 58.452522
-30.819487 0.208796 58.244423
-30.70742 -20.256645 64.160194
-30.873119 -16.68185 63.787403
-30.973764 -13.252916 63.386791
-27.157488 -18.559328 72.311043
-26.583904 -21.297421 72.470825
-27.910192 -20.816349 71.590996
-25.234512 -5.304565 72.408241
-26.535414 -4.091358 71.806992
-25.122318 -2.031273 71.967461
-24.75285 1.340199 71.467415
-24.298286 4.658775 70.895866
-23.796322 -6.313081 72.717247
-29.788908 1.297092 66.984909
-30.374077 -1.210835 65.807343
-30.200937 2.478431 65.261375
-30.416403 3.973809 63.574139
-30.572454 5.230577 61.670193
-30.518412 -8.976631 54.831429
-29.499392 -13.795659 69.960129
-30.169333 -13.012815 68.457069
-29.640783 -10.652865 69.58593
-29.584934 -7.217052 69.315224
-29.443842 -3.743835 68.975616
-27.615763 -2.735574 70.939903
-28.529755 -1.545418 69.854729
-29.245134 -0.09015 68.515091
-28.937174 3.635497 68.05587
-28.614594 7.125714 67.561981
-24.933817 9.740392 69.598648
-24.997219 -14.150313 73.136108
-26.090786 -16.313276 72.876907
-27.492601 -15.664187 72.169792
-28.667587 -14.821326 71.138931
-30.603506 -12.24248 66.85202
-30.887957 -11.026812 64.938782
-31.007948 -9.820261 62.943645
-30.769661 -3.537817 64.262367
-30.973486 -6.216063 62.627464
-31.003763 -8.766099 60.814934
-30.918531 -7.358486 58.864754
-30.763664 -6.216643 56.702068
-30.56625 -5.114008 54.482388
-30.647924 6.543307 59.563667
-30.744707 3.945707 57.897327
-30.723347 1.377725 56.087978
-30.603926 -1.22943 54.308372
-30.374523 -4.209893 52.414284
-30.595645 -20.502493 65.12331
-30.60027 -21.765811 64.407367
-30.488495 -22.011659 65.370484
-28.696714 -21.685924 70.594795
-29.146682 -21.371054 69.941338
-30.336536 -22.386198 66.247689
-30.244512 -21.262616 66.996807
-30.488495 -22.011659 65.370484
-30.336536 -22.386198 66.247689
-23.923755 2.153029 71.406063
-24.10348 0.585311 71.675697
-23.274386 1.398141 71.614345
-23.696473 3.812317 71.120289
-24.525568 2.999487 71.181641
-23.923755 2.153029 71.406063
-23.752401 -4.767317 72.527515
-22.983643 -5.458428 72.597866
-22.939722 -3.912664 72.408135
-30.71473 -20.183464 61.361854
-30.712761 -20.767663 62.369575
-30.556562 -18.691626 58.140776
-30.627413 -19.225442 59.211265
-30.674292 -17.558498 59.024023
-30.448684 -18.220098 56.9708
-30.556562 -18.691626 58.140776
-30.488099 -16.585102 56.788702
-30.448684 -18.220098 56.9708
-30.576784 -11.317651 56.010687
-30.541556 -13.151832 56.178219
-30.687342 -11.800855 57.112791
-30.620491 -9.471652 55.888344
-30.474705 -10.822629 54.953772
-30.576784 -11.317651 56.010687
-26.249319 -22.654812 72.5028
-26.936538 -22.399456 72.137901
-28.018237 8.196625 67.949806
-28.20606 6.384899 68.256218
-27.609703 7.45581 68.644043
-28.381379 9.089126 67.302425
-28.018237 8.196625 67.949806
-24.614452 11.596345 69.213104
-24.082113 10.642271 69.532444
-25.442336 10.621389 69.170815
-24.614452 11.596345 69.213104
-30.57563 8.620646 59.334772
-30.523834 7.83943 60.35729
-30.715698 4.596589 56.850736
-30.702185 5.893682 57.746513
-30.705018 3.312598 55.946062
-30.734027 2.661716 56.992652
-30.715698 4.596589 56.850736
-30.523007 -0.711688 53.188533
-30.60495 0.604181 54.081739
-30.408306 -2.201919 52.24149
-30.489224 -2.719661 53.361328
-30.523007 -0.711688 53.188533
-30.298592 -3.529291 51.385905
-30.408306 -2.201919 52.24149
-29.548386 -20.998139 69.246986
-29.146682 -21.371054 69.941338
-29.349578 -19.800939 69.771492
-29.878217 -20.602457 68.492165
-29.548386 -20.998139 69.246986
-30.152573 -20.166749 67.739788
-29.878217 -20.602457 68.492165
-30.025638 -18.992316 68.324765
-30.391933 -19.652475 66.829407
-30.244512 -21.262616 66.996807
-30.152573 -20.166749 67.739788
-22.739552 -0.8677 71.975529
-23.581296 -1.695565 72.110882
-22.866737 -2.393688 72.202431
-22.56735 0.821493 71.690838
-22.739552 -0.8677 71.975529
-23.274386 1.398141 71.614345
-22.56735 0.821493 71.690838
-22.866737 -2.393688 72.202431
-22.939722 -3.912664 72.408135
-22.097977 -3.084799 72.272782
-29.550414 7.55191 65.478931
-29.72534 5.609413 65.713279
-29.365382 6.714562 66.303714
-29.755865 8.36939 64.674381
-29.550414 7.55191 65.478931
-29.894979 9.16802 63.767233
-30.049487 7.245391 63.981348
-29.755865 8.36939 64.674381
-26.935032 8.651637 68.854656
-27.609703 7.45581 68.644043
-27.122854 6.839912 69.161068
-25.251971 -9.85007 72.855152
-24.508387 -10.231146 72.981335
-24.543805 -8.785169 72.863372
-30.66955 -21.356797 63.345717
-30.60027 -21.765811 64.407367
-30.75063 -19.667511 63.184053
-30.712761 -20.767663 62.369575
-30.66955 -21.356797 63.345717
-26.870696 -19.928375 72.390934
-26.190142 -20.244523 72.695221
-26.476934 -18.875477 72.61533
-27.599681 -22.158921 71.697986
-26.936538 -22.399456 72.137901
-27.247048 -21.056885 72.030911
-28.177873 -22.007171 71.157372
-28.429033 -20.495102 71.02842
-28.696714 -21.685924 70.594795
-27.599681 -22.158921 71.697986
-28.177873 -22.007171 71.157372
-23.040286 -6.902178 72.75771
-22.983643 -5.458428 72.597866
-23.798271 -7.739663 72.853401
-23.040286 -6.902178 72.75771
-24.541856 -7.358587 72.727218
-24.543805 -8.785169 72.863372
-23.798271 -7.739663 72.853401
-30.690381 -19.690433 60.305155
-30.71473 -20.183464 61.361854
-30.769491 -18.585345 61.151212
-30.690381 -19.690433 60.305155
-30.627413 -19.225442 59.211265
-30.512435 -14.890278 56.452097
-30.488099 -16.585102 56.788702
-30.627777 -15.329859 57.616928
-30.512435 -14.890278 56.452097
-30.541556 -13.151832 56.178219
-30.362965 -10.232305 53.883219
-30.474705 -10.822629 54.953772
-30.412815 -8.429273 53.781727
-30.362965 -10.232305 53.883219
-25.828018 -21.606139 72.731323
-26.190142 -20.244523 72.695221
-25.828018 -21.606139 72.731323
-26.249319 -22.654812 72.5028
-28.902525 7.891387 66.815674
-29.365382 6.714562 66.303714
-29.077451 5.948889 67.050022
-28.902525 7.891387 66.815674
-28.381379 9.089126 67.302425
-23.456342 5.527189 70.782002
-23.696473 3.812317 71.120289
-24.034662 6.454023 70.544345
-23.456342 5.527189 70.782002
-24.611105 7.254328 70.223137
-24.874729 5.45908 70.574657
-24.034662 6.454023 70.544345
-24.352428 8.994832 69.895736
-23.500723 9.89671 69.829532
-24.082113 10.642271 69.532444
-25.192495 7.999888 69.926048
-24.611105 7.254328 70.223137
-24.352428 8.994832 69.895736
-26.199519 9.769062 69.057331
-25.691 8.888065 69.485164
-25.442336 10.621389 69.170815
-26.935032 8.651637 68.854656
-26.199519 9.769062 69.057331
-24.465402 -11.723675 73.080326
-24.508387 -10.231146 72.981335
-24.355736 -13.150809 73.161823
-24.465402 -11.723675 73.080326
-25.106886 -12.72318 73.054611
-24.233397 -14.587441 73.21252
-24.355736 -13.150809 73.161823
-24.832959 -15.560393 73.179527
-24.233397 -14.587441 73.21252
-25.379742 -16.641874 73.049926
-24.832959 -15.560393 73.179527
-25.544003 -15.231794 73.006507
-25.943583 -17.752451 72.898262
-25.379742 -16.641874 73.049926
-26.624137 -17.436302 72.593975
-26.476934 -18.875477 72.61533
-25.943583 -17.752451 72.898262
-30.436734 -6.497962 53.607207
-30.412815 -8.429273 53.781727
-30.542331 -7.045319 54.656909
-30.054175 9.982381 62.873386
-29.894979 9.16802 63.767233
-30.294173 8.589787 62.112556
-30.054175 9.982381 62.873386
-30.486099 7.183065 61.410553
-30.380528 6.637299 62.372197
-30.294173 8.589787 62.112556
-30.610189 5.886942 60.61693
-30.486099 7.183065 61.410553
-30.523834 7.83943 60.35729
-30.653793 7.192482 58.579683
-30.57563 8.620646 59.334772
-30.696315 5.244507 58.730497
-30.653793 7.192482 58.579683
-30.702185 5.893682 57.746513
-30.664661 1.907758 54.971542
-30.705018 3.312598 55.946062
-30.663637 0.074148 55.198175
-30.664661 1.907758 54.971542
-30.60495 0.604181 54.081739
-30.34087 -6.045904 52.573155
-30.436734 -6.497962 53.607207
-30.470387 -4.66195 53.448336
-30.238054 -5.458499 51.462007
-30.34087 -6.045904 52.573155
-30.238054 -5.458499 51.462007
-30.298592 -3.529291 51.385905
3 0 27 25
3 0 30 28
3 0 25 30
3 1 35 33
3 1 37 35
3 2 40 38
3 4 43 41
3 4 45 43
3 2 48 46
3 2 38 48
3 3 52 50
3 5 55 53
3 5 57 55
3 6 105 107
3 105 58 106
3 105 106 107
3 8 59 26
3 8 60 59
3 9 63 61
3 109 108 29
3 6 110 111
3 6 112 113
3 10 66 64
3 114 67 115
3 116 115 31
3 114 115 116
3 117 68 118
3 119 118 67
3 117 118 119
3 10 120 122
3 120 69 121
3 120 121 122
3 10 64 69
3 12 72 70
3 14 73 32
3 14 74 73
3 7 123 124
3 15 125 127
3 127 126 34
3 125 126 127
3 15 128 129
3 15 130 131
3 16 132 134
3 134 133 36
3 132 133 134
3 16 135 137
3 135 75 136
3 135 136 137
3 139 138 62
3 17 78 76
3 19 79 39
3 19 80 79
3 11 81 65
3 20 82 42
3 20 83 82
3 20 84 83
3 140 85 141
3 142 141 44
3 140 141 142
3 144 143 85
3 145 86 146
3 148 147 86
3 21 87 47
3 21 88 87
3 21 89 88
3 17 90 49
3 17 76 90
3 18 91 77
3 22 92 51
3 22 93 92
3 13 94 71
3 23 95 54
3 23 96 95
3 23 97 96
3 24 98 56
3 24 99 98
3 149 100 150
3 151 101 152
3 153 102 154
3 155 154 101
3 153 154 155
3 156 103 157
3 158 104 159
3 160 159 103
3 158 159 160
3 162 161 104
3 25 26 6
3 27 26 25
3 27 8 26
3 28 29 9
3 30 29 28
3 30 163 165
3 165 164 29
3 163 164 165
3 30 166 167
3 25 168 170
3 170 169 30
3 168 169 170
3 25 171 173
3 171 6 172
3 171 172 173
3 174 31 175
3 176 175 10
3 174 175 176
3 177 31 178
3 180 179 31
3 181 10 182
3 181 182 183
3 184 32 185
3 186 185 12
3 184 185 186
3 187 32 188
3 189 14 190
3 191 190 32
3 189 190 191
3 33 34 7
3 35 34 33
3 35 15 34
3 35 36 15
3 37 36 35
3 37 16 36
3 38 39 17
3 40 39 38
3 40 19 39
3 41 42 11
3 43 42 41
3 43 20 42
3 43 44 20
3 45 44 43
3 45 192 194
3 194 193 44
3 192 193 194
3 46 195 197
3 195 47 196
3 195 196 197
3 48 47 46
3 48 21 47
3 48 49 21
3 38 49 48
3 38 17 49
3 50 51 18
3 52 51 50
3 52 22 51
3 53 54 13
3 55 54 53
3 55 23 54
3 55 56 23
3 57 56 55
3 57 24 56
3 58 198 199
3 58 200 202
3 200 7 201
3 200 201 202
3 26 58 6
3 59 58 26
3 59 7 58
3 59 33 7
3 60 33 59
3 60 1 33
3 61 203 205
3 203 62 204
3 203 204 205
3 63 62 61
3 63 206 208
3 208 207 62
3 206 207 208
3 29 63 9
3 209 63 210
3 211 210 29
3 209 210 211
3 213 212 63
3 64 65 2
3 66 65 64
3 66 11 65
3 31 66 10
3 67 66 31
3 67 11 66
3 67 41 11
3 68 41 67
3 68 4 41
3 69 214 215
3 69 216 217
3 69 218 220
3 218 46 219
3 218 219 220
3 64 46 69
3 64 2 46
3 70 71 3
3 72 71 70
3 72 13 71
3 32 72 12
3 73 72 32
3 73 13 72
3 73 53 13
3 74 53 73
3 74 5 53
3 34 221 223
3 223 222 7
3 221 222 223
3 225 224 34
3 36 226 228
3 228 227 15
3 226 227 228
3 230 229 36
3 75 231 232
3 75 233 234
3 62 235 236
3 238 237 62
3 76 77 0
3 78 77 76
3 78 18 77
3 39 78 17
3 79 78 39
3 79 18 78
3 79 50 18
3 80 50 79
3 80 3 50
3 65 40 2
3 81 40 65
3 81 19 40
3 42 81 11
3 82 81 42
3 82 19 81
3 82 80 19
3 83 80 82
3 83 3 80
3 83 70 3
3 84 70 83
3 84 12 70
3 44 84 20
3 85 84 44
3 85 12 84
3 85 239 241
3 241 240 12
3 239 240 241
3 243 242 85
3 244 68 245
3 246 68 247
3 248 4 249
3 250 249 68
3 248 249 250
3 86 251 253
3 251 252 253
3 86 254 256
3 254 4 255
3 254 255 256
3 86 45 4
3 257 45 258
3 259 258 86
3 257 258 259
3 261 260 45
3 47 262 263
3 87 264 266
3 266 265 47
3 264 265 266
3 87 267 268
3 87 269 270
3 88 271 273
3 273 272 87
3 271 272 273
3 88 274 275
3 88 276 278
3 276 61 277
3 276 277 278
3 89 61 88
3 89 9 61
3 49 89 21
3 90 89 49
3 90 9 89
3 90 28 9
3 76 28 90
3 76 0 28
3 77 27 0
3 91 27 77
3 91 8 27
3 51 91 18
3 92 91 51
3 92 8 91
3 92 60 8
3 93 60 92
3 93 1 60
3 71 52 3
3 94 52 71
3 94 22 52
3 54 94 13
3 95 94 54
3 95 22 94
3 95 93 22
3 96 93 95
3 96 1 93
3 96 37 1
3 97 37 96
3 97 16 37
3 56 97 23
3 98 97 56
3 98 16 97
3 98 75 16
3 99 75 98
3 99 279 281
3 281 280 75
3 279 280 281
3 282 14 283
3 284 14 285
3 286 74 287
3 288 287 14
3 286 287 288
3 100 289 291
3 289 74 290
3 289 290 291
3 100 5 74
3 292 100 293
3 101 294 296
3 294 100 295
3 294 295 296
3 101 5 100
3 101 57 5
3 102 57 101
3 102 24 57
3 297 102 298
3 103 299 301
3 299 102 300
3 299 300 301
3 103 24 102
3 103 99 24
3 104 99 103
3 104 302 304
3 304 303 99
3 302 303 304
3 104 305 306
3 308 307 104
