ply
format ascii 1.0
element vertex 227
property float x
property float y
property float z
element face 213
property list uchar int vertex_index
end_header
-18.978903 31.235666 -55.964214
-12.573693 32.623173 -62.722458
-12.739565 26.946716 -70.018173
-12.680813 30.251247 -66.763519
-8.919678 28.421505 -68.008133
-8.889956 24.448641 -70.466385
-9.223415 36.421833 -56.267651
-15.863613 32.509529 -59.865494
-16.276468 30.807854 -64.501144
-16.513315 28.152 -68.402946
-16.713011 24.523634 -71.052628
-12.681582 22.662584 -72.072296
-15.367661 33.638031 -54.621101
-12.458892 34.373253 -58.26487
-9.267519 34.117668 -60.625797
-14.305949 32.703053 -61.365078
-16.169575 31.733356 -62.217945
-14.411837 31.782902 -63.637661
-12.583318 28.692995 -68.550491
-14.509259 29.236872 -67.777687
-14.554895 27.679468 -69.364845
-16.588095 26.495237 -69.866791
-14.664906 25.786995 -70.714844
-14.770402 23.609974 -71.770592
-12.762739 24.88903 -71.222557
-13.740808 34.762047 -54.135967
-13.98726 34.11198 -56.655563
-12.241705 35.248821 -55.766846
-9.220572 35.221821 -58.588303
-10.902794 32.170929 -63.934532
-12.658879 31.53684 -64.807098
-10.763557 30.917862 -65.82135
-10.74777 29.439669 -67.591156
-10.875863 27.769714 -69.153633
-10.822744 25.840139 -70.425613
-9.025895 26.606947 -69.386292
-7.291544 25.264931 -69.272079
-10.724831 36.34314 -54.90593
-17.565969 31.96435 -58.008965
-19.390017 30.850161 -58.604221
-17.876892 31.420053 -60.425117
-17.992445 30.70216 -62.93919
-14.553565 30.61414 -65.822937
-16.411142 29.593161 -66.607941
-18.365227 28.499937 -67.005722
-16.817423 22.283651 -71.945541
-10.803935 23.755224 -71.386749
-18.436855 31.550161 -53.33345
-16.695051 32.820965 -52.737755
-17.137104 32.436069 -55.50111
-15.752689 33.057411 -57.290756
-14.060684 33.48555 -59.088245
-12.59411 33.488411 -60.651485
-10.776276 35.353924 -57.327274
-10.947515 34.379139 -59.522717
-10.877607 33.371216 -61.723644
-19.865972 30.652938 -56.231058
-19.608024 30.756115 -54.859947
-12.949697 35.398526 -53.672062
-13.59261 35.101317 -52.861297
-12.200146 35.641913 -54.487502
-12.991256 35.005434 -54.951407
-12.949697 35.398526 -53.672062
-9.884177 31.254014 -65.202129
-10.833175 31.544396 -64.877941
-9.953796 31.880547 -64.25872
-9.833724 28.930587 -67.799644
-9.845669 29.704871 -67.059052
-8.931624 29.19579 -67.26754
-6.411943 25.444373 -68.578384
-7.254955 26.221086 -68.684345
-6.437753 24.434517 -69.051914
-6.411943 25.444373 -68.578384
-17.276136 30.242918 -64.809116
-18.134124 30.190071 -64.028139
-17.134456 30.755007 -63.720167
-17.540352 27.555138 -68.526421
-18.466308 27.729106 -67.827809
-17.439271 28.325969 -67.704334
-17.749679 24.802134 -70.535359
-17.687221 25.787935 -69.94244
-16.650553 25.509436 -70.45971
-17.723618 23.717484 -71.114148
-17.749679 24.802134 -70.535359
-16.765217 23.403643 -71.499085
-17.775824 22.597492 -71.560604
-17.723618 23.717484 -71.114148
-13.677868 21.998278 -72.273087
-14.722278 22.471972 -72.122234
-13.725992 23.136279 -71.921444
-12.761191 21.394075 -72.36446
-13.677868 21.998278 -72.273087
-18.071134 31.738437 -51.942701
-18.96828 31.031294 -52.208359
-16.031356 33.229498 -53.679428
-15.850002 33.474291 -52.459772
-15.186307 33.882824 -53.401445
-9.228077 33.524044 -61.635008
-10.033121 33.150818 -62.183931
-10.072563 33.744442 -61.17472
-20.294747 30.268245 -58.812109
-19.546843 30.580026 -59.820104
-8.053053 28.715162 -67.328487
-8.931624 29.19579 -67.26754
-8.069021 27.799373 -68.052372
-8.053053 28.715162 -67.328487
-8.972116 23.357119 -70.879994
-8.06441 23.74413 -70.312821
-14.372881 34.444832 -53.158878
-13.59261 35.101317 -52.861297
-14.554234 34.200039 -54.378534
-15.186307 33.882824 -53.401445
-14.372881 34.444832 -53.158878
-8.485126 35.74381 -57.953753
-9.221993 35.821827 -57.427977
-8.486547 36.343817 -56.793426
-8.375986 35.093485 -58.989435
-8.485126 35.74381 -57.953753
-8.399459 34.541409 -60.008183
-9.244046 34.669745 -59.60705
-8.375986 35.093485 -58.989435
-8.360298 33.847168 -61.027962
-8.399459 34.541409 -60.008183
-9.853563 30.443968 -66.174149
-9.884177 31.254014 -65.202129
-10.755664 30.178765 -66.706253
-9.853563 30.443968 -66.174149
-9.845669 29.704871 -67.059052
-8.12213 26.892094 -68.741451
-8.972786 27.514226 -68.697213
-8.069021 27.799373 -68.052372
-8.15872 25.935939 -69.329185
-8.12213 26.892094 -68.741451
-7.254955 26.221086 -68.684345
-7.265204 24.152275 -69.715667
-8.06441 23.74413 -70.312821
-8.09075 24.856786 -69.869232
-7.265204 24.152275 -69.715667
-6.437753 24.434517 -69.051914
-10.676551 36.872416 -53.637836
-11.441709 36.189072 -54.057043
-10.054442 36.910658 -54.459393
-10.676551 36.872416 -53.637836
-9.303734 36.950004 -55.140254
-9.974123 36.382486 -55.58679
-10.054442 36.910658 -54.459393
-8.496649 37.009783 -55.729547
-9.303734 36.950004 -55.140254
-8.576968 37.537954 -54.60215
-8.486547 36.343817 -56.793426
-8.496649 37.009783 -55.729547
-18.790281 30.864972 -60.730553
-19.546843 30.580026 -59.820104
-18.633454 31.135107 -59.514669
-18.848057 30.506025 -61.987589
-18.790281 30.864972 -60.730553
-17.934669 31.061107 -61.682153
-18.975927 30.138099 -63.086747
-18.848057 30.506025 -61.987589
-18.975927 30.138099 -63.086747
-18.134124 30.190071 -64.028139
-17.343473 29.635571 -65.862515
-17.276136 30.242918 -64.809116
-16.343805 30.200508 -65.554542
-18.320515 29.08896 -66.061405
-17.343473 29.635571 -65.862515
-17.388185 29.046549 -66.806832
-19.380443 28.461492 -66.146935
-18.320515 29.08896 -66.061405
-19.429384 27.778301 -67.114186
-19.380443 28.461492 -66.146935
-19.429384 27.778301 -67.114186
-18.466308 27.729106 -67.827809
-17.577742 26.726756 -69.258343
-17.540352 27.555138 -68.526421
-16.550705 27.323619 -69.134869
-17.577742 26.726756 -69.258343
-17.687221 25.787935 -69.94244
-17.894978 21.339093 -71.92234
-17.775824 22.597492 -71.560604
-16.798991 21.058273 -72.242367
-17.876545 20.113715 -72.219166
-17.894978 21.339093 -71.92234
-15.745788 21.808811 -72.209709
-15.793913 22.946813 -71.858067
-14.722278 22.471972 -72.122234
-16.798991 21.058273 -72.242367
-15.745788 21.808811 -72.209709
-9.929105 23.010411 -71.340176
-9.846946 24.101932 -70.926567
-8.972116 23.357119 -70.879994
-10.828422 22.522193 -71.750042
-9.929105 23.010411 -71.340176
-11.767246 21.975873 -72.092816
-11.742759 23.208904 -71.729523
-10.828422 22.522193 -71.750042
-12.761191 21.394075 -72.36446
-11.767246 21.975873 -72.092816
-19.337001 30.913362 -53.544565
-19.868426 30.394495 -52.419473
-18.96828 31.031294 -52.208359
-18.707879 31.392913 -54.648832
-19.608024 30.756115 -54.859947
-19.337001 30.913362 -53.544565
-16.368826 33.077511 -51.466339
-15.850002 33.474291 -52.459772
-17.200232 32.37384 -51.644853
-16.368826 33.077511 -51.466339
-17.565953 32.185563 -53.035602
-18.071134 31.738437 -51.942701
-17.200232 32.37384 -51.644853
-11.483268 35.79598 -55.336388
-12.200146 35.641913 -54.487502
-11.441709 36.189072 -54.057043
-10.045714 32.550674 -63.289375
-10.8902 32.771073 -62.829088
-10.033121 33.150818 -62.183931
-9.953796 31.880547 -64.25872
-10.045714 32.550674 -63.289375
-9.228077 33.524044 -61.635008
-8.360298 33.847168 -61.027962
-20.07153 30.460186 -57.551062
-19.865972 30.652938 -56.231058
-19.18446 31.042913 -57.284217
-20.97626 29.87827 -57.758949
-20.07153 30.460186 -57.551062
-20.294747 30.268245 -58.812109
3 0 56 57
3 1 17 15
3 2 20 18
3 2 22 20
3 2 24 22
3 58 25 59
3 60 27 61
3 62 61 25
3 60 61 62
3 63 31 64
3 65 64 29
3 63 64 65
3 4 66 68
3 66 32 67
3 66 67 68
3 4 33 32
3 4 35 33
3 69 36 70
3 72 71 36
3 7 40 38
3 8 41 16
3 8 73 75
3 75 74 41
3 73 74 75
3 3 42 30
3 9 43 19
3 9 44 43
3 9 76 78
3 78 77 44
3 76 77 78
3 10 79 81
3 81 80 21
3 79 80 81
3 10 82 83
3 10 84 86
3 84 45 85
3 84 85 86
3 11 87 89
3 89 88 23
3 87 88 89
3 11 90 91
3 5 46 34
3 92 47 93
3 12 94 96
3 94 48 95
3 94 95 96
3 12 49 48
3 12 50 49
3 13 51 26
3 13 52 51
3 6 53 37
3 14 54 28
3 14 55 54
3 14 97 99
3 99 98 55
3 97 98 99
3 101 100 39
3 102 4 103
3 105 104 4
3 15 16 7
3 17 16 15
3 17 8 16
3 18 19 3
3 20 19 18
3 20 9 19
3 20 21 9
3 22 21 20
3 22 10 21
3 22 23 10
3 24 23 22
3 24 11 23
3 107 106 5
3 25 108 109
3 25 110 112
3 110 12 111
3 110 111 112
3 25 26 12
3 27 26 25
3 27 13 26
3 113 28 114
3 115 114 6
3 113 114 115
3 116 28 117
3 118 14 119
3 120 119 28
3 118 119 120
3 122 121 14
3 29 30 1
3 31 30 29
3 31 3 30
3 123 31 124
3 32 125 127
3 125 31 126
3 125 126 127
3 32 3 31
3 32 18 3
3 33 18 32
3 33 2 18
3 33 34 2
3 35 34 33
3 35 5 34
3 128 35 129
3 130 129 4
3 128 129 130
3 36 131 133
3 131 35 132
3 131 132 133
3 36 5 35
3 36 134 136
3 136 135 5
3 134 135 136
3 138 137 36
3 139 37 140
3 141 37 142
3 143 6 144
3 145 144 37
3 143 144 145
3 146 6 147
3 146 147 148
3 150 149 6
3 38 39 0
3 40 39 38
3 40 151 153
3 153 152 39
3 151 152 153
3 16 40 7
3 41 40 16
3 41 154 156
3 156 155 40
3 154 155 156
3 41 157 158
3 160 159 41
3 30 17 1
3 42 17 30
3 42 8 17
3 19 42 3
3 43 42 19
3 43 8 42
3 43 161 163
3 163 162 8
3 161 162 163
3 44 164 166
3 166 165 43
3 164 165 166
3 44 167 168
3 44 169 170
3 172 171 44
3 21 173 175
3 175 174 9
3 173 174 175
3 177 176 21
3 45 178 179
3 45 180 182
3 180 181 182
3 23 45 10
3 183 45 184
3 185 184 23
3 183 184 185
3 187 186 45
3 34 24 2
3 46 24 34
3 46 11 24
3 188 46 189
3 190 189 5
3 188 189 190
3 191 46 192
3 193 11 194
3 195 194 46
3 193 194 195
3 197 196 11
3 47 198 200
3 198 199 200
3 47 201 203
3 201 0 202
3 201 202 203
3 48 204 205
3 48 206 207
3 48 208 210
3 208 47 209
3 208 209 210
3 49 47 48
3 49 0 47
3 49 38 0
3 50 38 49
3 50 7 38
3 26 50 12
3 51 50 26
3 51 7 50
3 51 15 7
3 52 15 51
3 52 1 15
3 37 211 213
3 211 27 212
3 211 212 213
3 53 27 37
3 53 13 27
3 28 53 6
3 54 53 28
3 54 13 53
3 54 52 13
3 55 52 54
3 55 1 52
3 55 29 1
3 214 29 215
3 216 215 55
3 214 215 216
3 218 217 29
3 220 219 14
3 39 221 223
3 223 222 0
3 221 222 223
3 226 225 39
3 224 225 226
