ply
format ascii 1.0
element vertex 178
property float x
property float y
property float z
element face 177
property list uchar int vertex_index
end_header
-6.731928 10.740438 63.335739
-0.85126 10.39757 59.432438
-8.487589 13.484251 63.729103
-5.431643 14.523905 61.517323
-9.282175 8.751303 65.339279
-11.895277 11.632329 66.137627
-6.578241 7.038543 64.027931
-9.672545 4.165447 66.46286
-4.238898 10.518209 61.733982
-3.294834 6.382066 61.975327
-2.160407 14.761455 59.258282
2.532931 10.450878 57.039978
1.237124 15.013751 56.864571
-7.573001 11.77029 63.612553
-6.991998 14.066798 62.646839
-6.161379 12.297488 62.585144
-7.867726 9.952718 64.223663
-8.998107 11.09725 64.637016
-6.651435 9.162059 63.633179
-8.000343 7.80046 64.768661
-5.640039 10.625863 62.648537
-5.269654 8.763385 62.812866
-4.720716 12.441401 61.59726
0.825066 10.403061 58.259499
1.457876 8.215829 58.290325
-0.256318 8.218159 59.498985
-4.748544 4.427287 63.324966
-3.012949 4.202665 62.192558
-1.503992 12.539631 59.378033
-0.464276 14.847416 58.075809
0.285477 12.644273 58.112507
1.977898 12.703503 56.916378
-7.953031 16.035719 62.690487
-6.335948 16.466167 61.545235
-4.696967 16.689779 60.414177
-10.935844 7.469412 66.555473
-10.568279 10.117528 65.772034
-10.12249 12.658363 64.904755
-6.42817 5.060481 64.313141
-7.94772 3.430344 65.552719
-8.048292 5.588931 65.237656
-9.54677 6.383845 65.984489
-2.58254 10.435379 60.622036
-2.055151 8.350881 60.719402
-3.722089 8.58452 61.810207
-4.948528 6.677112 63.031452
-2.974003 17.148968 59.136131
-3.800994 14.625568 60.406582
-3.181301 12.420965 60.560341
-1.555814 6.218708 60.814003
-1.310059 17.244328 57.992607
0.381594 17.298538 56.83852
-4.6667 3.362417 63.447544
-5.553204 3.633166 63.985672
-8.22031 14.759985 63.209795
-8.765921 15.698232 63.278194
-9.0332 14.422498 63.797503
-9.0332 14.422498 63.797503
-9.850651 14.009553 64.385328
-9.305039 13.071307 64.316929
-12.797101 11.063191 66.726623
-12.127713 10.246542 66.578926
-9.683878 3.01475 66.652775
-8.821466 2.647199 66.197705
-8.810132 3.797896 66.00779
2.909584 9.394196 56.996645
3.426927 10.495876 56.387146
1.682357 7.182847 58.339365
0.816759 7.145455 58.961701
-2.122666 4.152656 61.586959
-2.847589 3.213217 62.24327
1.671155 16.249818 56.244684
1.24339 17.392212 56.231659
0.809359 16.156144 56.851546
2.072236 15.017976 56.285651
1.671155 16.249818 56.244684
3.152133 11.587362 56.341224
2.874616 12.713675 56.279425
2.255415 11.577191 56.978178
3.426927 10.495876 56.387146
3.152133 11.587362 56.341224
-12.541778 12.462036 66.261582
-11.628232 13.05078 65.630581
-10.567069 3.442947 67.082855
-10.504983 4.620157 66.851032
-0.040338 7.14662 59.56603
0.816759 7.145455 58.961701
0.600779 8.216994 58.894655
-3.798902 3.250106 62.88134
-3.880746 4.314976 62.758762
-4.6667 3.362417 63.447544
-2.847589 3.213217 62.24327
-3.798902 3.250106 62.88134
-8.551002 17.026493 62.760994
-8.765921 15.698232 63.278194
-7.656127 17.265933 62.133505
-8.551002 17.026493 62.760994
-6.847586 17.481157 61.560879
-7.656127 17.265933 62.133505
-7.14449 16.250943 62.117861
-5.961714 17.674985 60.933722
-6.847586 17.481157 61.560879
-5.142223 17.786791 60.368193
-5.961714 17.674985 60.933722
-5.516457 16.577973 60.979706
-4.342662 17.976117 59.787619
-5.142223 17.786791 60.368193
-11.647996 8.165083 66.787849
-11.884259 6.833381 67.182633
-11.464214 9.489141 66.39613
-11.647996 8.165083 66.787849
-10.752061 8.79347 66.163754
-11.231778 10.874928 65.95483
-12.127713 10.246542 66.578926
-11.464214 9.489141 66.39613
-10.741839 13.563796 65.014145
-11.628232 13.05078 65.630581
-11.008883 12.145346 65.521191
-10.741839 13.563796 65.014145
-9.850651 14.009553 64.385328
-7.187945 4.245413 64.93293
-7.152792 3.134695 65.099548
-6.393016 3.949764 64.47976
-10.442095 5.729356 66.611846
-10.504983 4.620157 66.851032
-9.609658 5.274646 66.223675
-11.136632 6.272139 66.897339
-10.442095 5.729356 66.611846
-10.241307 6.926628 66.269981
-11.884259 6.833381 67.182633
-11.136632 6.272139 66.897339
-6.393016 3.949764 64.47976
-5.553204 3.633166 63.985672
-5.588357 4.743884 63.819054
-3.835485 16.919373 59.775154
-3.48118 18.205711 59.148595
-4.342662 17.976117 59.787619
-13.443603 11.892898 66.850578
-12.797101 11.063191 66.726623
-12.541778 12.462036 66.261582
-7.931332 2.272318 65.719021
-7.152792 3.134695 65.099548
-7.931332 2.272318 65.719021
-8.821466 2.647199 66.197705
-9.683878 3.01475 66.652775
-10.567069 3.442947 67.082855
2.372056 8.276672 57.621819
2.909584 9.394196 56.996645
1.995404 9.333353 57.665152
2.372056 8.276672 57.621819
1.682357 7.182847 58.339365
-0.690086 6.146895 60.22354
-0.040338 7.14662 59.56603
-0.906066 7.218433 60.156494
-1.394099 5.160678 60.897682
-2.284381 5.210686 61.503281
-2.122666 4.152656 61.586959
-0.690086 6.146895 60.22354
-1.394099 5.160678 60.897682
-2.608017 18.413287 58.510213
-3.48118 18.205711 59.148595
-1.776045 18.460967 57.938451
-2.608017 18.413287 58.510213
-2.142031 17.196648 58.564369
-0.899871 18.4373 57.36845
-1.776045 18.460967 57.938451
-0.054044 18.464405 56.791407
-0.899871 18.4373 57.36845
-0.464233 17.271433 57.415564
0.82621 18.653937 56.155848
-0.054044 18.464405 56.791407
0.82621 18.653937 56.155848
1.24339 17.392212 56.231659
2.442623 13.862852 56.311554
2.072236 15.017976 56.285651
1.607511 13.858627 56.890474
2.442623 13.862852 56.311554
2.874616 12.713675 56.279425
3 0 15 13
3 0 13 16
3 0 16 18
3 0 18 20
3 0 20 15
3 1 25 23
3 53 52 26
3 1 30 28
3 1 23 30
3 2 54 56
3 54 32 55
3 54 55 56
3 3 33 14
3 3 34 33
3 4 36 35
3 2 37 17
3 2 57 59
3 59 58 37
3 57 58 59
3 6 40 38
3 4 41 19
3 4 35 41
3 8 44 42
3 6 45 21
3 6 38 45
3 3 47 34
3 8 48 22
3 8 42 48
3 5 60 61
3 7 62 64
3 64 63 39
3 62 63 64
3 11 65 66
3 68 67 24
3 9 49 43
3 70 69 27
3 10 50 46
3 12 51 29
3 12 71 73
3 73 72 51
3 71 72 73
3 12 74 75
3 11 76 78
3 78 77 31
3 76 77 78
3 11 79 80
3 13 14 2
3 15 14 13
3 15 3 14
3 16 17 4
3 13 17 16
3 13 2 17
3 18 19 6
3 16 19 18
3 16 4 19
3 20 21 8
3 18 21 20
3 18 6 21
3 15 22 3
3 20 22 15
3 20 8 22
3 82 81 5
3 84 83 7
3 23 24 11
3 25 24 23
3 25 85 87
3 87 86 24
3 85 86 87
3 26 27 9
3 88 27 89
3 90 89 26
3 88 89 90
3 92 91 27
3 28 29 10
3 30 29 28
3 30 12 29
3 30 31 12
3 23 31 30
3 23 11 31
3 32 93 94
3 32 95 96
3 14 32 2
3 33 32 14
3 33 97 99
3 99 98 32
3 97 98 99
3 33 100 101
3 34 102 104
3 104 103 33
3 102 103 104
3 34 105 106
3 35 107 108
3 36 109 111
3 111 110 35
3 109 110 111
3 36 112 114
3 112 5 113
3 112 113 114
3 17 36 4
3 37 36 17
3 37 5 36
3 37 115 117
3 117 116 5
3 115 116 117
3 119 118 37
3 38 120 122
3 120 39 121
3 120 121 122
3 40 39 38
3 40 7 39
3 19 40 6
3 41 40 19
3 41 7 40
3 41 123 125
3 125 124 7
3 123 124 125
3 35 126 128
3 128 127 41
3 126 127 128
3 35 129 130
3 42 43 1
3 44 43 42
3 44 9 43
3 21 44 8
3 45 44 21
3 45 9 44
3 45 26 9
3 38 26 45
3 38 131 133
3 133 132 26
3 131 132 133
3 34 134 136
3 134 46 135
3 134 135 136
3 47 46 34
3 47 10 46
3 22 47 3
3 48 47 22
3 48 10 47
3 48 28 10
3 42 28 48
3 42 1 28
3 139 138 5
3 137 138 139
3 39 140 141
3 143 142 39
3 145 144 7
3 24 146 148
3 148 147 11
3 146 147 148
3 150 149 24
3 43 25 1
3 49 25 43
3 49 151 153
3 153 152 25
3 151 152 153
3 27 49 9
3 154 49 155
3 156 155 27
3 154 155 156
3 158 157 49
3 46 159 160
3 50 161 163
3 163 162 46
3 161 162 163
3 50 164 165
3 29 50 10
3 51 50 29
3 51 166 168
3 168 167 50
3 166 167 168
3 51 169 170
3 172 171 51
3 31 173 175
3 175 174 12
3 173 174 175
3 177 176 31
