ply
format ascii 1.0
element vertex 249
property float x
property float y
property float z
element face 249
property list uchar int vertex_index
end_header
29.875109 14.859743 58.33123
27.720547 13.365429 65.822296
28.036871 28.241961 61.107948
30.106163 29.320154 53.31337
25.472921 12.315516 68.185219
27.50609 6.196564 67.570625
25.259048 5.363174 69.702103
25.711477 19.674677 66.25473
30.105503 15.379445 54.222839
29.260988 21.697418 60.140274
29.369631 29.058506 57.402611
29.966099 22.026567 56.292213
30.281679 22.456598 51.780769
29.154881 14.199371 62.411175
29.729336 7.547205 60.296513
28.962538 6.934903 64.410622
25.844316 27.122765 64.004707
27.828712 20.776819 63.771381
24.108044 11.722789 68.899574
25.431469 8.812898 68.948959
24.090677 8.181285 69.646309
24.31608 15.341854 68.010529
30.032635 15.132002 56.254562
29.618431 18.065491 59.536266
29.689989 21.599337 58.266823
29.928946 18.339731 57.336979
30.107077 18.887068 55.155544
28.522741 13.79896 64.256554
29.052813 10.772587 63.455238
28.445461 10.266507 65.178604
28.191889 3.063789 66.956108
23.266209 29.805683 64.234482
24.706039 30.404289 63.581169
24.531612 26.529266 64.903107
26.829231 16.456823 66.169258
26.806026 20.362398 65.177658
27.815277 16.956766 64.809799
28.607718 17.257328 63.237343
29.646048 4.201982 61.202694
29.804607 29.066097 55.408173
30.226974 18.981554 50.935852
30.327127 22.13287 49.711918
26.683306 12.863054 67.1604
27.626442 9.843101 66.704567
26.533527 9.376626 68.043251
26.533001 5.814049 68.726257
24.433846 22.967922 65.993248
24.461525 19.034054 67.043694
25.576649 15.823452 67.313583
30.125439 15.624858 52.090679
28.72794 24.871447 60.764362
28.75699 28.924519 59.341347
29.304344 25.37686 58.85363
29.73275 25.57597 56.891521
30.053173 25.492937 54.739258
30.24312 25.740568 52.623638
30.173 22.283207 53.97646
30.197966 18.952702 52.972969
29.586946 14.543675 60.457935
29.782108 11.32215 59.564747
29.497263 10.995356 61.557568
29.422398 7.497044 62.458935
29.351303 3.75398 63.26564
28.314718 6.449021 66.163132
28.840614 3.388529 65.32119
26.033314 30.902763 62.60022
27.053349 27.65946 62.716633
25.751474 23.426117 65.189949
26.881157 24.024204 64.053627
27.936634 24.574936 62.471638
28.65555 21.008942 62.104706
29.192905 17.757004 61.444466
23.390608 9.649341 69.480255
24.09936 9.952037 69.272942
23.399291 11.420093 69.106887
23.399291 11.420093 69.106887
23.468784 13.237656 68.688976
29.914353 13.265587 57.816713
29.993116 13.401717 56.778379
29.953872 14.995873 57.292896
23.172176 27.878685 64.856792
22.455164 29.191118 64.499436
23.804878 26.240476 65.191105
23.89891 28.167474 64.568794
23.172176 27.878685 64.856792
29.681674 2.473102 60.56435
29.604819 2.457669 61.623632
28.045932 30.226722 60.388903
27.599854 29.966655 61.15139
29.986742 30.905411 53.614094
29.835964 30.778383 54.661496
29.955385 29.193126 54.360771
30.153959 30.971196 52.446558
29.986742 30.905411 53.614094
30.213901 29.160737 52.245013
30.153959 30.971196 52.446558
30.225314 18.97779 49.887008
30.167454 17.418596 50.454664
25.801767 3.835905 69.596527
26.438744 4.061343 69.108604
25.896024 5.588611 69.21418
23.698521 18.640726 67.327626
23.756694 20.551869 66.816697
30.060789 13.755239 53.558403
30.070757 13.877945 52.492323
30.115471 15.502152 53.156759
28.778064 1.72111 65.716492
28.516251 3.226159 66.138649
28.453702 1.558739 66.533951
29.037468 1.922305 64.744709
28.778064 1.72111 65.716492
29.802564 7.88347 59.287437
29.82895 9.770943 58.921554
29.755722 9.434677 59.93063
29.094574 30.778775 57.645474
28.788253 30.711781 58.614841
29.063311 28.991512 58.371979
30.324613 23.954108 51.100214
30.305334 25.596093 51.521648
30.2624 24.098583 52.202203
30.382046 23.768198 49.0548
30.337823 22.138715 48.672708
23.572803 15.047188 68.244454
23.625799 16.794626 67.811043
24.212062 13.532322 68.455051
23.572803 15.047188 68.244454
23.468784 13.237656 68.688976
30.022587 13.407989 55.669622
30.059021 13.53171 54.653761
30.069069 15.255724 55.238701
30.022587 13.407989 55.669622
29.993116 13.401717 56.778379
27.784542 2.792777 67.657638
27.84899 4.630177 67.263367
27.441643 4.359165 67.964897
28.114379 1.363283 67.341236
27.784542 2.792777 67.657638
28.453702 1.558739 66.533951
28.114379 1.363283 67.341236
22.566789 31.064425 63.877898
21.755744 30.44986 64.142851
22.455164 29.191118 64.499436
23.308155 31.71273 63.567066
22.608735 32.971472 63.210482
22.566789 31.064425 63.877898
23.986124 30.104986 63.907826
24.02807 32.012034 63.24041
23.308155 31.71273 63.567066
29.72205 4.283446 60.126513
29.763694 5.956057 59.673422
29.687692 5.874593 60.749603
29.757676 2.554565 59.488169
29.72205 4.283446 60.126513
29.681674 2.473102 60.56435
29.602711 30.923367 55.681509
29.385223 30.919571 56.678728
29.587119 29.062302 56.405392
29.602711 30.923367 55.681509
29.835964 30.778383 54.661496
30.275391 20.553448 49.275042
30.277051 20.557212 50.323885
30.225314 18.97779 49.887008
30.337823 22.138715 48.672708
30.275391 20.553448 49.275042
26.955098 4.167908 68.542713
27.441643 4.359165 67.964897
27.019545 6.005306 68.148441
26.860841 2.415202 68.925061
26.955098 4.167908 68.542713
26.438744 4.061343 69.108604
23.742854 22.518802 66.291473
23.755995 24.459805 65.736176
24.447685 21.000988 66.518471
23.742854 22.518802 66.291473
23.756694 20.551869 66.816697
24.388803 17.187954 67.527112
23.698521 18.640726 67.327626
23.625799 16.794626 67.811043
30.056438 14.088802 51.476005
30.116686 15.740248 51.032077
30.056438 14.088802 51.476005
30.070757 13.877945 52.492323
30.060789 13.755239 53.558403
30.059021 13.53171 54.653761
30.116686 15.740248 51.032077
30.167454 17.418596 50.454664
30.176206 17.303206 51.513266
29.457447 2.233668 62.655105
29.604819 2.457669 61.623632
29.498676 3.977981 62.234167
29.292813 2.10503 63.716934
29.095959 3.571255 64.293415
29.037468 1.922305 64.744709
29.457447 2.233668 62.655105
29.292813 2.10503 63.716934
24.806097 32.287014 62.865654
24.02807 32.012034 63.24041
25.469735 32.536251 62.37518
24.806097 32.287014 62.865654
25.369677 30.653526 63.090694
26.114075 32.935699 61.793713
25.469735 32.536251 62.37518
26.598075 31.297056 61.897526
26.114075 32.935699 61.793713
27.108092 29.675404 61.955732
26.598075 31.297056 61.897526
26.543332 29.281112 62.658427
27.54511 27.95071 61.91229
27.599854 29.966655 61.15139
27.108092 29.675404 61.955732
24.482729 24.748594 65.448177
23.804878 26.240476 65.191105
23.755995 24.459805 65.736176
29.867853 11.496791 58.433472
29.914353 13.265587 57.816713
29.828609 13.090947 58.947988
29.867853 11.496791 58.433472
29.82895 9.770943 58.921554
29.802564 7.88347 59.287437
29.763694 5.956057 59.673422
23.305729 7.993259 69.832341
23.390608 9.649341 69.480255
23.946072 6.485964 70.011971
23.305729 7.993259 69.832341
23.161124 6.297937 70.198002
24.530257 5.076908 70.039867
24.674862 6.772229 69.674206
23.946072 6.485964 70.011971
25.170497 3.654168 70.045212
24.530257 5.076908 70.039867
25.801767 3.835905 69.596527
25.170497 3.654168 70.045212
28.405991 30.568001 59.505602
28.045932 30.226722 60.388903
28.39693 28.58324 60.224648
28.405991 30.568001 59.505602
28.788253 30.711781 58.614841
29.094574 30.778775 57.645474
29.385223 30.919571 56.678728
30.28238 27.370944 51.900146
30.213901 29.160737 52.245013
30.174641 27.530361 52.968504
30.28238 27.370944 51.900146
30.305334 25.596093 51.521648
30.347338 23.792244 50.065788
30.324613 23.954108 51.100214
30.304403 22.294734 50.746343
30.347338 23.792244 50.065788
30.382046 23.768198 49.0548
3 72 20 73
3 74 73 18
3 72 73 74
3 75 18 76
3 0 77 79
3 79 78 22
3 77 78 79
3 0 25 23
3 0 22 25
3 1 29 27
3 80 31 81
3 82 33 83
3 84 83 31
3 82 83 84
3 1 36 34
3 1 27 36
3 86 85 38
3 2 87 88
3 3 89 91
3 91 90 39
3 89 90 91
3 3 92 93
3 3 94 95
3 97 96 40
3 4 44 42
3 6 45 19
3 6 98 100
3 100 99 45
3 98 99 100
3 101 47 102
3 4 48 21
3 4 42 48
3 8 103 105
3 105 104 49
3 103 104 105
3 9 52 50
3 11 53 24
3 11 54 53
3 11 56 54
3 8 57 26
3 8 49 57
3 13 60 58
3 15 61 28
3 15 62 61
3 5 63 43
3 106 64 107
3 108 107 30
3 106 107 108
3 110 109 64
3 16 65 32
3 16 66 65
3 7 67 46
3 17 68 35
3 17 69 68
3 17 70 69
3 13 71 37
3 13 58 71
3 14 111 113
3 113 112 59
3 111 112 113
3 10 114 116
3 116 115 51
3 114 115 116
3 12 117 119
3 119 118 55
3 117 118 119
3 121 120 41
3 18 19 4
3 20 19 18
3 20 6 19
3 122 21 123
3 18 124 126
3 124 21 125
3 124 125 126
3 18 4 21
3 22 127 129
3 129 128 8
3 127 128 129
3 131 130 22
3 23 24 9
3 25 24 23
3 25 11 24
3 25 26 11
3 22 26 25
3 22 8 26
3 27 28 13
3 29 28 27
3 29 15 28
3 132 30 133
3 134 133 5
3 132 133 134
3 135 30 136
3 138 137 30
3 31 139 141
3 139 140 141
3 31 142 144
3 142 143 144
3 31 145 147
3 145 32 146
3 145 146 147
3 33 32 31
3 33 16 32
3 34 35 7
3 36 35 34
3 36 17 35
3 36 37 17
3 27 37 36
3 27 13 37
3 38 148 150
3 150 149 14
3 148 149 150
3 153 152 38
3 151 152 153
3 39 154 156
3 156 155 10
3 154 155 156
3 158 157 39
3 40 41 12
3 159 41 160
3 161 160 40
3 159 160 161
3 163 162 41
3 42 43 1
3 44 43 42
3 44 5 43
3 19 44 4
3 45 44 19
3 45 5 44
3 45 164 166
3 166 165 5
3 164 165 166
3 169 168 45
3 167 168 169
3 170 46 171
3 47 172 174
3 172 46 173
3 172 173 174
3 47 7 46
3 21 175 177
3 175 47 176
3 175 176 177
3 48 47 21
3 48 7 47
3 48 34 7
3 42 34 48
3 42 1 34
3 49 178 179
3 181 180 49
3 183 182 8
3 50 51 2
3 52 51 50
3 52 10 51
3 24 52 9
3 53 52 24
3 53 10 52
3 53 39 10
3 54 39 53
3 54 3 39
3 54 55 3
3 56 55 54
3 56 12 55
3 26 56 11
3 57 56 26
3 57 12 56
3 57 40 12
3 49 40 57
3 49 184 186
3 186 185 40
3 184 185 186
3 58 59 0
3 60 59 58
3 60 14 59
3 28 60 13
3 61 60 28
3 61 14 60
3 61 38 14
3 62 38 61
3 62 187 189
3 189 188 38
3 187 188 189
3 43 29 1
3 63 29 43
3 63 15 29
3 30 63 5
3 64 63 30
3 64 15 63
3 64 62 15
3 190 62 191
3 192 191 64
3 190 191 192
3 194 193 62
3 32 195 196
3 65 197 199
3 199 198 32
3 197 198 199
3 65 200 201
3 65 202 203
3 66 204 206
3 206 205 65
3 204 205 206
3 66 207 209
3 207 2 208
3 207 208 209
3 46 210 212
3 210 33 211
3 210 211 212
3 67 33 46
3 67 16 33
3 35 67 7
3 68 67 35
3 68 16 67
3 68 66 16
3 69 66 68
3 69 2 66
3 69 50 2
3 70 50 69
3 70 9 50
3 37 70 17
3 71 70 37
3 71 9 70
3 71 23 9
3 58 23 71
3 58 0 23
3 59 213 215
3 215 214 0
3 213 214 215
3 217 216 59
3 219 218 14
3 220 20 221
3 222 20 223
3 222 223 224
3 225 6 226
3 227 226 20
3 225 226 227
3 228 6 229
3 231 230 6
3 51 232 234
3 234 233 2
3 232 233 234
3 236 235 51
3 238 237 10
3 55 239 241
3 241 240 3
3 239 240 241
3 243 242 55
3 41 244 246
3 246 245 12
3 244 245 246
3 248 247 41
