ply
format ascii 1.0
element vertex 115
property float x
property float y
property float z
element face 96
property list uchar int vertex_index
end_header
6.923867 -60.138287 38.706406
7.362097 -51.047615 42.381096
9.691193 -58.002476 37.906235
7.219264 -55.50864 40.969246
4.54333 -57.488674 42.202209
3.994291 -62.068062 39.428181
8.351529 -58.974449 38.37505
8.457891 -52.243557 41.046352
8.603035 -54.568741 40.191971
7.342227 -53.281696 41.72052
4.713963 -55.409859 43.192135
11.072743 -56.795357 37.441956
11.083167 -59.046288 36.383568
9.788231 -55.753483 38.814461
8.395761 -56.789509 39.455986
7.091506 -57.773033 39.983097
6.088645 -54.323086 42.450748
5.883303 -56.611298 41.56435
5.728906 -58.843376 40.427551
4.239886 -59.785362 40.963497
5.455985 -61.068516 39.132851
7.589115 -60.725993 37.848269
8.302945 -60.144074 37.682591
7.637698 -59.556368 38.540728
6.862268 -61.277761 37.947159
7.589115 -60.725993 37.848269
7.909994 -51.645586 41.713724
8.471965 -51.111666 41.306673
7.924068 -50.513694 41.974045
9.785515 -54.545178 39.221218
10.436604 -55.094639 38.551548
5.515485 -53.744737 43.23237
6.118282 -53.242052 42.835668
4.117089 -60.926712 40.195839
3.50597 -60.297411 41.156103
3.383172 -61.438761 40.388445
4.616245 -62.723806 38.453555
5.347093 -62.224034 38.30589
4.725138 -61.568289 39.280516
9.007755 -59.625957 37.529187
9.677587 -59.139971 37.294779
9.021361 -58.488462 38.140642
9.007755 -59.625957 37.529187
8.302945 -60.144074 37.682591
9.037426 -51.635093 40.692245
8.471965 -51.111666 41.306673
9.120345 -52.790215 40.337164
9.037426 -51.635093 40.692245
8.530463 -53.406149 40.619162
9.192917 -53.952807 39.909973
9.120345 -52.790215 40.337164
4.198936 -54.798645 43.982876
4.828144 -54.288124 43.603064
4.039159 -55.900206 43.532042
4.198936 -54.798645 43.982876
3.524132 -55.288992 44.322783
3.953843 -56.939614 43.037079
4.628647 -56.449267 42.697172
4.039159 -55.900206 43.532042
3.207028 -62.494119 39.64548
3.383172 -61.438761 40.388445
2.59591 -61.864818 40.605744
3.79802 -63.215241 38.58107
3.207028 -62.494119 39.64548
7.410397 -50.021956 42.580391
7.924068 -50.513694 41.974045
11.74317 -57.278999 36.753067
11.762753 -56.108664 37.203255
11.748382 -58.404465 36.223873
11.74317 -57.278999 36.753067
11.077955 -57.920822 36.912762
11.824897 -59.504808 35.612596
11.748382 -58.404465 36.223873
10.373573 -59.661877 36.533445
10.38718 -58.524382 37.144902
9.677587 -59.139971 37.294779
11.122453 -60.144842 35.715706
10.373573 -59.661877 36.533445
11.824897 -59.504808 35.612596
11.122453 -60.144842 35.715706
11.07886 -55.615576 37.865296
11.762753 -56.108664 37.203255
10.430487 -56.27442 38.128208
11.07886 -55.615576 37.865296
10.436604 -55.094639 38.551548
9.195633 -55.161112 39.503216
9.785515 -54.545178 39.221218
9.192917 -53.952807 39.909973
6.869884 -50.549751 43.011137
7.410397 -50.021956 42.580391
6.755009 -51.604316 42.800843
6.869884 -50.549751 43.011137
6.745074 -52.721357 42.470554
7.352162 -52.164655 42.050808
6.755009 -51.604316 42.800843
6.715436 -53.802391 42.085634
6.745074 -52.721357 42.470554
6.118282 -53.242052 42.835668
5.401304 -54.866473 42.821441
5.515485 -53.744737 43.23237
4.828144 -54.288124 43.603064
3.816724 -57.987564 42.494953
3.953843 -56.939614 43.037079
3.665002 -59.135908 41.875597
3.50597 -60.297411 41.156103
4.391608 -58.637018 41.582853
3.816724 -57.987564 42.494953
3.665002 -59.135908 41.875597
6.128327 -61.742876 38.160381
6.862268 -61.277761 37.947159
6.189926 -60.603402 38.919629
6.128327 -61.742876 38.160381
5.347093 -62.224034 38.30589
4.616245 -62.723806 38.453555
3.79802 -63.215241 38.58107
3 0 21 23
3 23 22 6
3 21 22 23
3 0 24 25
3 1 26 28
3 26 7 27
3 26 27 28
3 1 9 7
3 2 12 11
3 29 13 30
3 3 14 8
3 3 15 14
3 31 16 32
3 4 17 10
3 4 18 17
3 5 33 35
3 33 19 34
3 33 34 35
3 5 20 19
3 5 36 38
3 38 37 20
3 36 37 38
3 6 39 41
3 41 40 2
3 39 40 41
3 43 42 6
3 7 44 45
3 7 46 47
3 7 48 50
3 48 8 49
3 48 49 50
3 9 8 7
3 9 3 8
3 51 10 52
3 53 10 54
3 53 54 55
3 56 4 57
3 58 57 10
3 56 57 58
3 59 5 60
3 59 60 61
3 63 62 5
3 64 1 65
3 11 66 67
3 12 68 70
3 70 69 11
3 68 69 70
3 12 71 72
3 73 12 74
3 75 74 2
3 73 74 75
3 76 12 77
3 79 78 12
3 80 11 81
3 13 82 84
3 82 11 83
3 82 83 84
3 13 2 11
3 8 85 87
3 85 13 86
3 85 86 87
3 14 13 8
3 14 2 13
3 14 6 2
3 15 6 14
3 15 0 6
3 88 1 89
3 90 1 91
3 92 9 93
3 94 93 1
3 92 93 94
3 16 95 97
3 95 9 96
3 95 96 97
3 16 3 9
3 10 98 100
3 98 16 99
3 98 99 100
3 17 16 10
3 17 3 16
3 17 15 3
3 18 15 17
3 18 0 15
3 101 4 102
3 19 103 104
3 19 105 107
3 105 4 106
3 105 106 107
3 19 18 4
3 20 18 19
3 20 0 18
3 20 108 110
3 110 109 0
3 108 109 110
3 112 111 20
3 114 113 5
