ply
format ascii 1.0
element vertex 341
property float x
property float y
property float z
element face 339
property list uchar int vertex_index
end_header
23.715256 -72.367905 -15.474648
18.294693 -79.099602 -34.138062
33.183807 -52.805302 -22.322746
28.818604 -64.21405 -23.774693
16.919661 -84.011948 -17.351959
22.104193 -76.273903 -25.493099
26.428782 -66.695969 -14.689404
28.79034 -63.010532 -18.92079
26.161314 -68.709404 -19.651012
20.525904 -77.855659 -29.94315
24.612293 -71.583359 -29.260714
23.051771 -72.491745 -33.439953
30.919535 -57.397522 -18.386124
31.341959 -58.419144 -23.069662
15.724746 -79.268028 -37.808018
20.627153 -78.05249 -16.474716
22.983088 -74.669159 -20.450842
19.525682 -80.417 -21.332428
17.835657 -82.692017 -26.305971
15.772902 -84.417488 -30.613451
13.322678 -85.230133 -34.579205
21.837481 -73.062729 -5.538847
21.261639 -75.69706 -11.045291
25.678474 -70.236252 -24.562843
28.381254 -65.161041 -28.466724
25.118294 -69.510941 -14.986058
26.361528 -67.674324 -17.223398
25.020105 -70.415031 -17.520441
19.440319 -78.63829 -32.049412
21.697147 -75.344818 -31.857836
20.720789 -75.858078 -33.741543
28.915182 -63.507545 -21.381483
30.085854 -60.717442 -20.909515
30.20652 -61.174026 -23.327293
31.472141 -58.726345 -25.380272
30.090298 -61.829971 -25.682331
14.104653 -79.459236 -39.193298
16.965193 -76.102577 -39.1703
18.801405 -81.066231 -16.817284
20.007652 -79.436417 -18.852571
18.137707 -82.432999 -19.538263
16.667393 -84.593636 -24.408291
15.558591 -85.850563 -26.61834
16.838875 -83.615372 -28.649744
11.803939 -85.410103 -36.327053
21.600725 -74.320671 -8.326447
20.175508 -76.991539 -8.780652
19.745361 -78.415703 -11.43501
32.751274 -52.694912 -20.068754
33.420067 -50.082481 -20.037844
22.632225 -75.46788 -23.09421
24.386555 -72.422211 -22.435818
23.962822 -73.224174 -24.981594
26.019854 -68.759766 -30.991749
26.555178 -68.389397 -28.781849
27.584227 -64.969154 -16.877981
27.585575 -65.736107 -19.255476
27.512278 -66.462296 -21.622158
21.216982 -77.353386 -27.787317
23.293398 -74.115013 -27.414692
22.627337 -74.680618 -29.676561
23.922586 -72.077438 -31.328295
32.004864 -55.325661 -20.322222
29.892931 -60.219364 -18.530512
31.104031 -58.034031 -20.593882
32.338737 -55.610462 -22.689949
17.074371 -79.283714 -36.062885
19.596809 -76.135895 -35.698902
18.401325 -76.066238 -37.588867
22.145823 -75.288582 -15.709308
23.433336 -73.456734 -17.896551
21.846567 -76.330986 -18.426727
21.317543 -77.527519 -20.962931
20.743635 -78.544395 -23.349962
17.518753 -83.462769 -21.999548
18.837978 -81.465019 -23.847012
20.022552 -79.515762 -25.745384
19.11277 -80.487709 -28.066036
18.222921 -81.14093 -30.273985
17.057547 -81.844757 -32.392143
14.644856 -84.907761 -32.638752
15.774158 -82.30912 -34.406845
14.483971 -82.356888 -36.290154
12.903685 -82.582596 -37.805027
23.880695 -71.270729 -12.723876
22.646027 -72.97731 -10.445544
22.515951 -74.00415 -13.229556
20.881016 -77.025154 -13.659873
19.332655 -79.730499 -14.191824
17.603743 -82.57151 -14.824482
24.622719 -71.674568 -19.925697
25.909058 -69.628242 -22.112616
27.329134 -67.171562 -24.081055
25.2113 -70.961082 -26.980335
26.960142 -67.912994 -26.504644
28.639805 -64.779701 -26.185272
29.96419 -62.160965 -27.965006
21.942652 -72.878937 -35.506855
14.172684 -77.284263 -40.561765
14.833146 -77.657989 -39.857899
13.444192 -79.08551 -39.897165
14.373423 -87.394936 -26.738579
15.020884 -86.725696 -25.582561
15.0135 -86.330536 -27.666638
14.373423 -87.394936 -26.738579
19.61018 -77.649757 -7.723766
20.323695 -76.358784 -7.451628
19.45093 -78.270256 -9.052756
19.61018 -77.649757 -7.723766
33.524349 -51.487951 -22.216043
33.308082 -51.432756 -21.089046
32.96754 -52.750107 -21.19575
26.9767 -67.163944 -30.800463
26.665282 -67.365834 -31.817289
27.006504 -65.832561 -15.783692
27.591174 -64.48135 -15.670304
27.013451 -65.344758 -14.576016
24.156098 -70.855568 -33.221169
24.591505 -70.648415 -32.16534
23.487178 -72.284592 -32.384124
31.321407 -56.073637 -18.234451
30.75257 -57.147469 -17.157995
31.462199 -56.361592 -19.354173
31.864072 -55.037706 -19.2025
31.321407 -56.073637 -18.234451
29.341636 -61.614948 -18.725651
29.326657 -61.190233 -17.576603
28.775362 -62.585817 -17.771742
31.949022 -57.171251 -24.024392
32.447411 -55.76691 -23.834536
31.840348 -57.014803 -22.879805
32.087988 -57.402874 -26.312134
31.479283 -58.848505 -26.517308
18.280971 -74.433819 -39.147972
17.594431 -74.3334 -39.889153
16.493939 -84.92234 -22.121317
16.842635 -84.407246 -20.946567
13.983767 -85.068947 -33.608978
13.387189 -86.353668 -32.787121
12.7261 -86.514854 -33.757348
11.517854 -84.017212 -37.813278
12.353812 -83.99635 -37.06604
10.967981 -85.430966 -37.074291
12.140345 -82.425369 -38.526713
11.517854 -84.017212 -37.813278
23.933481 -70.772438 -11.464196
24.542615 -69.898278 -12.611004
21.968055 -72.432663 -4.219791
21.343452 -73.646107 -4.403679
22.483006 -71.758457 -5.392259
21.968055 -72.432663 -4.219791
22.403655 -72.311779 -6.684121
22.483006 -71.758457 -5.392259
18.730746 -80.454086 -13.13286
19.539008 -79.073101 -12.813417
18.937099 -79.796688 -11.754454
17.86629 -81.874592 -13.449189
18.468199 -81.151004 -14.508153
18.730746 -80.454086 -13.13286
33.615813 -48.919961 -19.798983
33.896071 -48.852196 -20.903288
21.416686 -72.849293 -36.456238
20.769731 -74.507416 -35.602879
20.243765 -74.477772 -36.552262
30.31926 -58.448054 -17.266326
30.75257 -57.147469 -17.157995
30.788362 -60.400318 -26.668337
31.479283 -58.848505 -26.517308
30.781219 -60.278158 -25.531302
16.263416 -75.97966 -39.8464
15.534923 -77.780907 -39.181799
14.833146 -77.657989 -39.857899
17.594431 -74.3334 -39.889153
16.263416 -75.97966 -39.8464
15.575285 -86.097233 -24.477536
16.068259 -85.487774 -23.325688
16.112992 -85.222099 -25.513315
15.575285 -86.097233 -24.477536
15.020884 -86.725696 -25.582561
15.653642 -85.212941 -28.682339
16.198733 -84.732968 -27.634042
15.0135 -86.330536 -27.666638
15.120655 -85.613999 -29.664193
16.305889 -84.01643 -29.631597
15.653642 -85.212941 -28.682339
11.888021 -86.815716 -34.617916
12.7261 -86.514854 -33.757348
11.128652 -86.905701 -35.49184
12.563308 -85.320118 -35.453129
11.888021 -86.815716 -34.617916
10.421778 -86.874062 -36.285371
11.128652 -86.905701 -35.49184
10.967981 -85.430966 -37.074291
10.421778 -86.874062 -36.285371
21.154682 -74.394379 -5.830725
21.343452 -73.646107 -4.403679
21.036304 -75.023349 -7.224526
21.719103 -73.6917 -6.932647
21.154682 -74.394379 -5.830725
20.888117 -75.656105 -8.553549
21.036304 -75.023349 -7.224526
20.323695 -76.358784 -7.451628
19.235856 -78.982338 -10.379935
19.960434 -77.703621 -10.107831
19.45093 -78.270256 -9.052756
18.937099 -79.796688 -11.754454
19.235856 -78.982338 -10.379935
33.085671 -51.388697 -20.053299
32.890538 -51.18184 -18.929628
32.556141 -52.488056 -18.945082
33.642479 -50.126541 -21.073591
33.085671 -51.388697 -20.053299
33.308082 -51.432756 -21.089046
33.896071 -48.852196 -20.903288
33.642479 -50.126541 -21.073591
27.244362 -66.97876 -29.695513
26.287516 -68.574581 -29.886799
26.9767 -67.163944 -30.800463
28.1574 -65.364582 -29.537951
27.468216 -66.775219 -28.624287
27.244362 -66.97876 -29.695513
29.025418 -63.824663 -29.294672
28.1574 -65.364582 -29.537951
28.172306 -63.565128 -16.750338
27.591174 -64.48135 -15.670304
28.187283 -63.989843 -17.899386
28.775362 -62.585817 -17.771742
28.172306 -63.565128 -16.750338
16.543089 -84.681836 -18.622772
15.977767 -85.379921 -17.589502
33.720361 -51.595606 -23.333952
33.338752 -52.959696 -23.489756
25.640139 -68.989578 -31.997066
24.97122 -70.418602 -31.160022
24.591505 -70.648415 -32.16534
26.665282 -67.365834 -31.817289
25.640139 -68.989578 -31.997066
32.237277 -53.722332 -19.075765
32.556141 -52.488056 -18.945082
32.378069 -54.010286 -20.195488
32.237277 -53.722332 -19.075765
31.864072 -55.037706 -19.2025
29.805958 -59.858975 -17.33852
29.326657 -61.190233 -17.576603
30.406233 -58.808443 -18.458318
30.31926 -58.448054 -17.266326
29.805958 -59.858975 -17.33852
32.916218 -54.362276 -23.673358
33.338752 -52.959696 -23.489756
32.761272 -54.207882 -22.506347
32.916218 -54.362276 -23.673358
32.447411 -55.76691 -23.834536
32.014112 -57.324852 -25.179697
31.949022 -57.171251 -24.024392
31.40705 -58.572744 -24.224967
32.014112 -57.324852 -25.179697
32.087988 -57.402874 -26.312134
19.646023 -74.442943 -37.497244
20.243765 -74.477772 -36.552262
18.999067 -76.101067 -36.643884
18.999037 -74.415649 -38.357256
17.683259 -76.084407 -38.379583
18.280971 -74.433819 -39.147972
19.646023 -74.442943 -37.497244
18.999037 -74.415649 -38.357256
17.152112 -83.892361 -19.715924
17.528684 -83.222474 -18.445111
16.543089 -84.681836 -18.622772
17.82823 -82.947884 -20.768906
17.152112 -83.892361 -19.715924
16.842635 -84.407246 -20.946567
17.093073 -84.028202 -23.203919
16.493939 -84.92234 -22.121317
16.068259 -85.487774 -23.325688
14.590477 -85.87849 -30.769932
15.120655 -85.613999 -29.664193
14.026454 -86.123627 -31.782582
13.387189 -86.353668 -32.787121
15.208879 -84.662624 -31.626101
14.590477 -85.87849 -30.769932
14.026454 -86.123627 -31.782582
12.740829 -80.863689 -39.220848
13.504169 -81.020916 -38.499162
12.140345 -82.425369 -38.526713
13.444192 -79.08551 -39.897165
12.740829 -80.863689 -39.220848
26.411273 -66.250088 -13.397956
27.013451 -65.344758 -14.576016
25.816659 -67.610897 -13.593768
26.411273 -66.250088 -13.397956
25.161414 -69.018383 -13.742095
25.773538 -68.103455 -14.837731
25.816659 -67.610897 -13.593768
24.499494 -70.390835 -13.854967
25.161414 -69.018383 -13.742095
24.542615 -69.898278 -12.611004
22.285277 -72.94075 -8.077922
22.403655 -72.311779 -6.684121
21.719103 -73.6917 -6.932647
22.807927 -72.26907 -9.13747
22.285277 -72.94075 -8.077922
22.123376 -73.64899 -9.385995
23.316147 -71.625729 -10.32503
22.807927 -72.26907 -9.13747
23.263361 -72.12402 -11.58471
23.933481 -70.772438 -11.464196
23.316147 -71.625729 -10.32503
17.005239 -83.205345 -13.602676
17.86629 -81.874592 -13.449189
16.670406 -83.957561 -14.930511
17.005239 -83.205345 -13.602676
16.328365 -84.677781 -16.19425
17.261702 -83.291729 -16.08822
16.670406 -83.957561 -14.930511
15.977767 -85.379921 -17.589502
16.328365 -84.677781 -16.19425
33.173977 -49.957287 -18.870962
32.890538 -51.18184 -18.929628
33.173977 -49.957287 -18.870962
33.615813 -48.919961 -19.798983
33.524349 -51.487951 -22.216043
33.720361 -51.595606 -23.333952
30.725307 -60.565815 -27.809674
30.788362 -60.400318 -26.668337
30.027244 -61.995468 -26.823669
29.816886 -62.324625 -29.043813
29.172722 -63.661003 -28.215865
29.025418 -63.824663 -29.294672
30.600966 -60.785832 -28.94144
29.816886 -62.324625 -29.043813
30.725307 -60.565815 -27.809674
30.600966 -60.785832 -28.94144
22.700208 -71.14777 -36.265028
21.416686 -72.849293 -36.456238
23.137987 -71.227863 -35.257297
22.700208 -71.14777 -36.265028
23.692546 -71.034267 -34.223847
22.497211 -72.685341 -34.473404
23.137987 -71.227863 -35.257297
24.156098 -70.855568 -33.221169
23.692546 -71.034267 -34.223847
3 0 27 25
3 1 30 28
3 3 33 31
3 3 35 33
3 100 99 36
3 98 99 100
3 4 40 38
3 101 42 102
3 104 103 42
3 105 46 106
3 108 107 46
3 2 109 111
3 111 110 48
3 109 110 111
3 5 52 50
3 113 112 53
3 6 114 116
3 114 55 115
3 114 115 116
3 8 56 26
3 8 57 56
3 9 60 58
3 11 61 29
3 11 117 119
3 119 118 61
3 117 118 119
3 12 120 121
3 12 122 124
3 122 62 123
3 122 123 124
3 7 125 127
3 125 63 126
3 125 126 127
3 13 64 32
3 13 65 64
3 13 128 130
3 130 129 65
3 128 129 130
3 132 131 34
3 14 68 66
3 134 133 37
3 15 71 69
3 17 72 39
3 17 73 72
3 135 74 136
3 18 75 41
3 18 76 75
3 18 77 76
3 19 78 43
3 19 79 78
3 20 137 139
3 137 80 138
3 137 138 139
3 20 81 80
3 20 82 81
3 140 83 141
3 142 141 44
3 140 141 142
3 144 143 83
3 145 84 146
3 21 147 148
3 21 149 150
3 21 151 152
3 22 85 45
3 22 86 85
3 22 87 86
3 153 88 154
3 155 154 47
3 153 154 155
3 156 89 157
3 158 157 88
3 156 157 158
3 160 159 49
3 16 90 70
3 23 91 51
3 23 92 91
3 10 93 59
3 24 94 54
3 24 95 94
3 24 96 95
3 161 97 162
3 163 162 67
3 161 162 163
3 25 26 6
3 27 26 25
3 27 8 26
3 28 29 9
3 30 29 28
3 30 11 29
3 164 12 165
3 31 32 7
3 33 32 31
3 33 13 32
3 33 34 13
3 35 34 33
3 35 166 168
3 168 167 34
3 166 167 168
3 36 37 14
3 169 37 170
3 171 170 36
3 169 170 171
3 173 172 37
3 38 39 15
3 40 39 38
3 40 17 39
3 174 41 175
3 42 176 178
3 176 41 177
3 176 177 178
3 42 18 41
3 42 43 18
3 179 43 180
3 181 180 42
3 179 180 181
3 182 19 183
3 184 183 43
3 182 183 184
3 185 20 186
3 187 44 188
3 189 188 20
3 187 188 189
3 190 44 191
3 193 192 44
3 194 21 195
3 196 45 197
3 198 197 21
3 196 197 198
3 46 199 201
3 199 45 200
3 199 200 201
3 46 22 45
3 46 47 22
3 202 47 203
3 204 203 46
3 202 203 204
3 206 205 47
3 48 207 209
3 207 49 208
3 207 208 209
3 210 49 211
3 212 211 48
3 210 211 212
3 214 213 49
3 50 51 16
3 52 51 50
3 52 23 51
3 53 54 10
3 215 54 216
3 217 216 53
3 215 216 217
3 218 24 219
3 220 219 54
3 218 219 220
3 222 221 24
3 55 223 224
3 55 225 227
3 225 7 226
3 225 226 227
3 26 55 6
3 56 55 26
3 56 7 55
3 56 31 7
3 57 31 56
3 57 3 31
3 229 228 4
3 231 230 2
3 58 59 5
3 60 59 58
3 60 10 59
3 29 60 9
3 61 60 29
3 61 10 60
3 61 53 10
3 232 53 233
3 234 233 61
3 232 233 234
3 236 235 53
3 237 48 238
3 62 239 241
3 239 48 240
3 239 240 241
3 62 2 48
3 63 242 243
3 63 244 246
3 244 12 245
3 244 245 246
3 32 63 7
3 64 63 32
3 64 12 63
3 64 62 12
3 65 62 64
3 65 2 62
3 65 247 249
3 249 248 2
3 247 248 249
3 251 250 65
3 34 252 254
3 254 253 13
3 252 253 254
3 256 255 34
3 66 67 1
3 68 67 66
3 68 257 259
3 259 258 67
3 257 258 259
3 37 68 14
3 260 68 261
3 262 261 37
3 260 261 262
3 264 263 68
3 69 70 0
3 71 70 69
3 71 16 70
3 39 71 15
3 72 71 39
3 72 16 71
3 72 50 16
3 73 50 72
3 73 5 50
3 265 40 266
3 267 266 4
3 265 266 267
3 74 268 270
3 268 40 269
3 268 269 270
3 74 17 40
3 41 271 273
3 271 74 272
3 271 272 273
3 75 74 41
3 75 17 74
3 75 73 17
3 76 73 75
3 76 5 73
3 76 58 5
3 77 58 76
3 77 9 58
3 43 77 18
3 78 77 43
3 78 9 77
3 78 28 9
3 79 28 78
3 79 1 28
3 274 19 275
3 80 276 277
3 80 278 280
3 278 19 279
3 278 279 280
3 80 79 19
3 81 79 80
3 81 1 79
3 81 66 1
3 82 66 81
3 82 14 66
3 44 82 20
3 83 82 44
3 83 14 82
3 83 36 14
3 281 36 282
3 283 282 83
3 281 282 283
3 285 284 36
3 286 6 287
3 288 6 289
3 290 25 291
3 292 291 6
3 290 291 292
3 84 293 295
3 293 25 294
3 293 294 295
3 84 0 25
3 45 296 298
3 298 297 21
3 296 297 298
3 85 299 301
3 301 300 45
3 299 300 301
3 85 302 303
3 85 304 306
3 304 84 305
3 304 305 306
3 86 84 85
3 86 0 84
3 86 69 0
3 87 69 86
3 87 15 69
3 47 87 22
3 88 87 47
3 88 15 87
3 88 38 15
3 89 38 88
3 89 4 38
3 307 89 308
3 309 89 310
3 311 4 312
3 313 312 89
3 311 312 313
3 315 314 4
3 49 316 317
3 319 318 49
3 321 320 2
3 70 27 0
3 90 27 70
3 90 8 27
3 51 90 16
3 91 90 51
3 91 8 90
3 91 57 8
3 92 57 91
3 92 3 57
3 59 52 5
3 93 52 59
3 93 23 52
3 54 93 10
3 94 93 54
3 94 23 93
3 94 92 23
3 95 92 94
3 95 3 92
3 95 35 3
3 96 35 95
3 96 322 324
3 324 323 35
3 322 323 324
3 325 96 326
3 327 326 24
3 325 326 327
3 328 96 329
3 331 330 96
3 67 30 1
3 97 30 67
3 97 11 30
3 332 97 333
3 334 97 335
3 336 11 337
3 338 337 97
3 336 337 338
3 340 339 11
