ply
format ascii 1.0
element vertex 160
property float x
property float y
property float z
element face 146
property list uchar int vertex_index
end_header
19.460794 -35.967686 -27.964001
15.805842 -43.734325 -31.982767
20.639816 -48.63665 -25.30826
22.289967 -50.241726 -21.904734
21.134211 -54.892719 -24.017714
19.476191 -53.069351 -27.375044
17.379654 -39.698597 -30.032179
14.369769 -37.285191 -33.409447
22.246288 -43.991093 -23.216719
20.021055 -42.115612 -26.681282
18.337561 -46.316967 -28.834953
16.547457 -41.739803 -30.999741
15.851645 -38.415821 -31.778559
15.167526 -40.38435 -32.573818
21.517502 -49.343334 -23.64967
22.246763 -47.143532 -22.621958
21.335327 -46.282696 -24.351988
21.163351 -43.168472 -24.997602
20.332556 -45.358818 -26.004982
19.144764 -44.262833 -27.73498
19.565653 -47.380318 -27.07501
19.145056 -55.430168 -28.188227
18.397444 -51.849964 -29.069744
21.642296 -52.532997 -22.98414
20.90201 -51.796303 -24.649797
19.986969 -50.811054 -26.382225
20.383471 -54.18354 -25.695969
18.357813 -37.887463 -29.013542
16.834236 -36.595184 -30.77832
20.872143 -36.836746 -26.209419
23.078619 -47.736965 -20.854067
21.047274 -39.852859 -25.578518
19.787031 -38.892834 -27.262495
18.81596 -41.002125 -28.281618
17.92997 -42.95763 -29.326683
17.156937 -45.125889 -30.3629
18.906071 -49.640392 -28.1276
17.759203 -48.494991 -29.747595
19.356305 -34.523783 -28.273987
20.128301 -34.913355 -27.366224
18.611044 -54.853454 -29.014162
18.94239 -56.486637 -28.693357
21.388254 -53.712858 -23.500927
21.701031 -54.17162 -22.637063
21.446988 -55.351481 -23.15385
14.86137 -36.325375 -32.912142
15.602308 -36.89069 -32.096698
15.110707 -37.850506 -32.594003
14.09357 -35.690445 -33.738932
14.86137 -36.325375 -32.912142
21.588108 -37.323207 -25.229478
21.526018 -35.809117 -25.593863
22.684293 -48.989345 -21.379401
22.987863 -49.369539 -20.561386
22.593538 -50.62192 -21.08672
22.699855 -44.386074 -22.362043
22.700093 -45.962294 -22.064662
22.246526 -45.567312 -22.919339
22.762287 -42.772299 -22.64777
22.699855 -44.386074 -22.362043
22.225614 -42.456013 -23.52283
22.762287 -42.772299 -22.64777
17.508686 -49.577618 -30.200599
18.078323 -50.172477 -29.40867
17.827807 -51.255104 -29.861674
17.116347 -47.753929 -30.564663
17.508686 -49.577618 -30.200599
21.26028 -56.528389 -23.666172
21.446988 -55.351481 -23.15385
20.950804 -56.149496 -24.504947
21.26028 -56.528389 -23.666172
18.237238 -53.063353 -29.45492
18.77125 -53.640066 -28.628985
18.611044 -54.853454 -29.014162
17.827807 -51.255104 -29.861674
18.237238 -53.063353 -29.45492
15.106153 -42.948049 -32.774586
15.484231 -44.643185 -32.460021
22.270031 -51.830157 -21.596329
22.593538 -50.62192 -21.08672
21.946196 -52.975792 -22.136032
21.701031 -54.17162 -22.637063
21.966132 -51.387361 -22.444437
22.270031 -51.830157 -21.596329
21.946196 -52.975792 -22.136032
20.575434 -55.794906 -25.344075
20.758841 -54.538129 -24.856842
20.950804 -56.149496 -24.504947
20.204147 -55.356157 -26.152904
20.575434 -55.794906 -25.344075
19.750507 -54.799062 -26.992442
19.929831 -53.626446 -26.535507
20.204147 -55.356157 -26.152904
19.58494 -55.979471 -27.399034
19.310623 -54.249759 -27.781636
19.750507 -54.799062 -26.992442
19.443753 -57.156633 -27.844619
19.58494 -55.979471 -27.399034
18.94239 -56.486637 -28.693357
19.443753 -57.156633 -27.844619
18.179765 -36.321632 -29.351979
18.731255 -35.361744 -28.827208
18.909304 -36.927574 -28.488771
17.417977 -35.675493 -30.234368
18.179765 -36.321632 -29.351979
17.596024 -37.241324 -29.895931
16.615187 -35.088516 -31.128247
17.417977 -35.675493 -30.234368
16.093604 -35.980372 -31.596578
16.342941 -37.505503 -31.27844
15.602308 -36.89069 -32.096698
16.615187 -35.088516 -31.128247
16.093604 -35.980372 -31.596578
14.786995 -41.273062 -33.070112
15.486684 -42.059337 -32.278292
15.106153 -42.948049 -32.774586
14.392714 -39.635433 -33.429403
14.786995 -41.273062 -33.070112
13.993835 -38.085854 -33.847217
14.768648 -38.83477 -32.991633
14.392714 -39.635433 -33.429403
13.6537 -36.455512 -34.186039
13.993835 -38.085854 -33.847217
14.09357 -35.690445 -33.738932
13.6537 -36.455512 -34.186039
20.833976 -35.347885 -26.488933
21.526018 -35.809117 -25.593863
20.166469 -36.402216 -27.08671
20.128301 -34.913355 -27.366224
20.833976 -35.347885 -26.488933
23.416662 -48.140163 -19.964555
22.987863 -49.369539 -20.561386
23.557938 -46.603544 -20.234348
23.416662 -48.140163 -19.964555
23.116021 -46.25901 -21.180717
22.662691 -47.440248 -21.738012
22.700093 -45.962294 -22.064662
23.557938 -46.603544 -20.234348
23.116021 -46.25901 -21.180717
21.684145 -42.044702 -24.413272
22.225614 -42.456013 -23.52283
21.704819 -43.579783 -24.10716
21.626106 -40.386896 -24.70373
21.684145 -42.044702 -24.413272
21.105313 -41.510666 -25.28806
21.675674 -38.831264 -24.914027
21.626106 -40.386896 -24.70373
20.959709 -38.344803 -25.893968
21.588108 -37.323207 -25.229478
21.675674 -38.831264 -24.914027
16.815214 -46.069378 -30.872315
17.45807 -46.81044 -30.055248
17.116347 -47.753929 -30.564663
16.139667 -45.373596 -31.682249
16.481389 -44.430107 -31.172833
16.815214 -46.069378 -30.872315
15.484231 -44.643185 -32.460021
16.139667 -45.373596 -31.682249
19.356305 -34.523783 -28.273987
18.731255 -35.361744 -28.827208
3 0 38 39
3 1 13 11
3 2 16 14
3 2 18 16
3 2 20 18
3 41 40 21
3 4 42 44
3 42 23 43
3 42 43 44
3 4 24 23
3 4 26 24
3 6 28 27
3 7 45 47
3 47 46 12
3 45 46 47
3 7 48 49
3 50 29 51
3 3 52 54
3 52 30 53
3 52 53 54
3 8 55 57
3 57 56 15
3 55 56 57
3 8 58 59
3 8 60 61
3 9 31 17
3 9 32 31
3 9 33 32
3 10 34 19
3 10 35 34
3 5 36 25
3 62 37 63
3 64 63 22
3 62 63 64
3 66 65 37
3 67 4 68
3 70 69 4
3 11 12 6
3 13 12 11
3 13 7 12
3 14 15 3
3 16 15 14
3 16 8 15
3 16 17 8
3 18 17 16
3 18 9 17
3 18 19 9
3 20 19 18
3 20 10 19
3 21 22 5
3 71 22 72
3 73 72 21
3 71 72 73
3 75 74 22
3 77 76 1
3 78 3 79
3 23 80 81
3 23 82 84
3 82 3 83
3 82 83 84
3 23 14 3
3 24 14 23
3 24 2 14
3 24 25 2
3 26 25 24
3 26 5 25
3 85 26 86
3 87 86 4
3 85 86 87
3 88 26 89
3 90 5 91
3 92 91 26
3 90 91 92
3 93 21 94
3 95 94 5
3 93 94 95
3 96 21 97
3 99 98 21
3 27 100 102
3 102 101 0
3 100 101 102
3 28 103 105
3 105 104 27
3 103 104 105
3 28 106 107
3 12 28 6
3 108 28 109
3 110 109 12
3 108 109 110
3 112 111 28
3 113 13 114
3 115 114 1
3 113 114 115
3 116 13 117
3 118 7 119
3 120 119 13
3 118 119 120
3 121 7 122
3 124 123 7
3 29 125 126
3 29 127 129
3 127 0 128
3 127 128 129
3 30 130 131
3 30 132 133
3 15 30 3
3 134 30 135
3 136 135 15
3 134 135 136
3 138 137 30
3 17 139 141
3 141 140 8
3 139 140 141
3 31 142 144
3 144 143 17
3 142 143 144
3 31 145 146
3 31 147 149
3 147 29 148
3 147 148 149
3 32 29 31
3 32 0 29
3 32 27 0
3 33 27 32
3 33 6 27
3 19 33 9
3 34 33 19
3 34 6 33
3 34 11 6
3 35 11 34
3 35 1 11
3 25 20 2
3 36 20 25
3 36 10 20
3 22 36 5
3 37 36 22
3 37 10 36
3 37 35 10
3 150 35 151
3 152 151 37
3 150 151 152
3 153 1 154
3 155 154 35
3 153 154 155
3 157 156 1
3 159 158 0
