ply
format ascii 1.0
element vertex 234
property float x
property float y
property float z
element face 221
property list uchar int vertex_index
end_header
6.13366 10.670652 54.367931
-3.988358 19.262455 59.16106
3.04009 20.13328 54.270176
-7.359223 18.496147 61.576523
-4.901721 29.822056 55.980774
4.721301 15.21207 54.383179
6.448107 20.350037 51.871113
8.302398 15.477412 51.669163
-6.006557 23.999773 58.878479
-2.58442 24.635038 56.45322
1.047362 25.134327 54.009514
-0.489683 19.630272 56.744293
4.555984 25.392708 51.715321
8.021297 25.562544 49.286308
-3.086132 30.114107 54.721069
0.466789 30.34971 52.497681
5.513698 12.827404 54.359257
6.50794 15.195205 53.090836
7.306422 12.974748 52.987164
9.043322 13.14187 51.592609
-5.587479 18.883804 60.322208
-6.67472 21.130592 60.293083
-4.884426 21.622459 58.97282
-4.281374 24.515156 57.579773
-3.184853 21.839407 57.799046
-1.431888 22.153894 56.563175
-2.242031 19.677607 57.884296
2.065128 22.661921 54.162971
2.807128 25.189001 52.895023
3.854556 22.610937 53.01836
8.299732 20.451485 50.484024
7.260913 22.968525 50.582298
9.127663 22.98551 49.186043
-6.611969 29.389111 57.256557
3.878817 17.450211 54.422558
4.777459 20.087601 53.110611
5.77906 17.715494 53.020485
7.456973 17.829502 51.765972
9.239302 17.818665 50.398331
-7.78893 23.620461 60.159988
-7.155228 26.620998 58.667923
-5.366582 26.935488 57.388741
-3.637489 27.419941 56.100063
-1.841409 27.432341 54.973907
4.320924 10.540874 55.734314
-0.149673 27.532938 53.904953
-0.785509 24.855049 55.244301
0.240474 22.496778 55.379841
1.270827 20.009336 55.473175
2.105186 17.485886 55.624798
2.907349 15.022202 55.70673
3.771334 12.723847 55.642471
1.607832 27.885952 52.721222
3.321573 27.938553 51.662224
5.155605 28.205122 50.421669
5.51517 22.891148 51.826546
6.269057 25.389326 50.576469
6.963823 28.122286 49.244255
8.747081 28.173721 47.946194
-2.80771 31.573741 53.975536
-2.187328 30.187128 54.145666
6.499594 9.633349 54.302831
7.093844 10.756487 53.613821
-0.410867 30.30493 53.033972
-0.147167 31.789464 52.299038
7.093844 10.756487 53.613821
7.680226 11.908535 52.923437
6.720041 11.8227 53.677548
9.571943 21.694292 49.170835
8.713698 21.718498 49.835033
9.157978 20.42728 49.819826
10.020951 23.066045 48.447773
9.571943 21.694292 49.170835
-5.434142 31.074337 55.829487
-6.289266 30.857865 56.467378
-5.756845 29.605584 56.618665
9.187694 15.486067 50.959095
9.656146 16.656693 50.323679
8.77085 16.648038 51.033747
9.966558 13.197754 50.818087
9.443676 12.088151 51.48513
-7.931432 19.571658 61.592484
-8.254098 18.256707 62.204012
2.909584 9.394196 56.996645
3.80358 9.439194 56.343813
3.426927 10.495876 56.387146
1.671155 16.249818 56.244684
1.24339 17.392212 56.231659
2.072236 15.017976 56.285651
2.506267 16.254044 55.665764
1.671155 16.249818 56.244684
3.152133 11.587362 56.341224
2.874616 12.713675 56.279425
3.426927 10.495876 56.387146
4.046129 11.632361 55.688392
3.152133 11.587362 56.341224
-3.668983 31.413676 54.572599
-4.576778 31.267651 55.202451
-3.993927 29.968082 55.350921
-3.668983 31.413676 54.572599
-2.80771 31.573741 53.975536
0.772885 31.869857 51.736353
-0.147167 31.789464 52.299038
1.342238 30.597879 51.893223
0.772885 31.869857 51.736353
8.548675 11.992096 52.22616
8.174872 13.058309 52.289887
7.680226 11.908535 52.923437
9.443676 12.088151 51.48513
8.548675 11.992096 52.22616
9.453443 24.261737 48.573698
8.90026 25.550254 48.62383
8.57448 24.274027 49.236176
9.453443 24.261737 48.573698
10.020951 23.066045 48.447773
-7.656127 17.265933 62.133505
-8.254098 18.256707 62.204012
-8.551002 17.026493 62.760994
-6.847586 17.481157 61.560879
-7.656127 17.265933 62.133505
-5.961714 17.674985 60.933722
-6.473351 18.689976 60.949365
-6.847586 17.481157 61.560879
-5.142223 17.786791 60.368193
-5.961714 17.674985 60.933722
-4.342662 17.976117 59.787619
-4.787918 19.07313 59.741634
-5.142223 17.786791 60.368193
-3.48118 18.205711 59.148595
-4.342662 17.976117 59.787619
-7.188318 30.718527 57.113897
-7.473516 29.13324 57.919784
-7.188318 30.718527 57.113897
-6.289266 30.857865 56.467378
-5.434142 31.074337 55.829487
-4.576778 31.267651 55.202451
9.627762 19.110869 49.776979
9.157978 20.42728 49.819826
8.769517 19.135075 50.441177
10.120887 17.961371 49.643742
9.627762 19.110869 49.776979
10.120887 17.961371 49.643742
9.656146 16.656693 50.323679
9.558156 14.318296 50.920818
9.187694 15.486067 50.959095
8.67286 14.309641 51.630886
9.558156 14.318296 50.920818
9.966558 13.197754 50.818087
-7.58918 20.88888 60.950764
-7.931432 19.571658 61.592484
-7.016972 19.81337 60.934803
-8.146285 22.133815 60.884216
-7.58918 20.88888 60.950764
-7.231825 22.375526 60.226535
-8.693303 23.245525 60.857788
-8.146285 22.133815 60.884216
-8.404835 24.772289 60.145325
-8.693303 23.245525 60.857788
-8.087984 26.272557 59.399292
-8.404835 24.772289 60.145325
-7.472079 25.120729 59.413956
-7.745145 27.749184 58.625467
-8.677901 27.400742 59.356837
-8.087984 26.272557 59.399292
-6.883598 28.005054 57.96224
-7.473516 29.13324 57.919784
-7.745145 27.749184 58.625467
-1.564966 28.846245 54.272085
-2.187328 30.187128 54.145666
-2.46377 28.773224 54.847488
4.686047 9.495033 55.68593
5.592415 9.559922 55.002739
5.227292 10.605763 55.051122
4.686047 9.495033 55.68593
3.80358 9.439194 56.343813
-0.995541 27.48264 54.43943
-0.719098 28.896543 53.737608
-1.564966 28.846245 54.272085
-2.608017 18.413287 58.510213
-3.115194 19.470031 58.522678
-3.48118 18.205711 59.148595
-1.776045 18.460967 57.938451
-2.608017 18.413287 58.510213
-0.899871 18.4373 57.36845
-1.365857 19.653939 57.314295
-1.776045 18.460967 57.938451
-0.054044 18.464405 56.791407
-0.899871 18.4373 57.36845
0.82621 18.653937 56.155848
0.390572 19.819804 56.108734
-0.054044 18.464405 56.791407
1.688006 18.747611 55.548986
0.82621 18.653937 56.155848
1.24339 17.392212 56.231659
2.442623 13.862852 56.311554
2.072236 15.017976 56.285651
3.339341 13.873024 55.6746
2.442623 13.862852 56.311554
2.874616 12.713675 56.279425
6.499594 9.633349 54.302831
5.592415 9.559922 55.002739
0.158558 28.941324 53.201317
-0.410867 30.30493 53.033972
-0.719098 28.896543 53.737608
1.912759 29.366 52.004993
1.342238 30.597879 51.893223
1.037311 29.117831 52.609451
2.76963 29.3923 51.475494
1.912759 29.366 52.004993
2.464703 27.912253 52.191723
3.66556 29.319285 50.968781
2.76963 29.3923 51.475494
4.582576 29.45257 50.348503
3.66556 29.319285 50.968781
4.238589 28.071838 51.041947
5.465 29.539125 49.764763
4.582576 29.45257 50.348503
6.369108 29.497707 49.176056
5.465 29.539125 49.764763
6.059714 28.163704 49.832962
7.291671 29.518702 48.545922
6.369108 29.497707 49.176056
8.1833 29.54442 47.896891
7.291671 29.518702 48.545922
7.855452 28.148004 48.595225
9.078107 29.591995 47.220623
8.1833 29.54442 47.896891
9.263152 26.855843 47.953773
8.384189 26.868133 48.616251
8.90026 25.550254 48.62383
9.630184 28.190751 47.252737
9.263152 26.855843 47.953773
9.078107 29.591995 47.220623
9.630184 28.190751 47.252737
3 60 59 14
3 0 61 62
3 63 15 64
3 0 18 16
3 0 65 67
3 67 66 18
3 65 66 67
3 1 22 20
3 1 24 22
3 1 26 24
3 2 29 27
3 68 32 69
3 70 69 30
3 68 69 70
3 72 71 32
3 4 73 75
3 75 74 33
3 73 74 75
3 5 36 34
3 7 37 17
3 7 38 37
3 7 76 78
3 78 77 38
3 76 77 78
3 80 79 19
3 3 81 82
3 8 39 21
3 8 40 39
3 8 41 40
3 9 42 23
3 9 43 42
3 85 84 44
3 83 84 85
3 9 46 43
3 11 47 25
3 11 48 47
3 86 49 87
3 88 50 89
3 90 89 49
3 88 89 90
3 91 51 92
3 93 44 94
3 95 94 51
3 93 94 95
3 10 52 45
3 12 53 28
3 12 54 53
3 6 55 35
3 13 56 31
3 13 57 56
3 13 58 57
3 14 96 98
3 98 97 4
3 96 97 98
3 100 99 14
3 15 101 102
3 15 103 104
3 16 17 5
3 18 17 16
3 18 7 17
3 18 19 7
3 105 19 106
3 107 106 18
3 105 106 107
3 109 108 19
3 20 21 3
3 22 21 20
3 22 8 21
3 22 23 8
3 24 23 22
3 24 9 23
3 24 25 9
3 26 25 24
3 26 11 25
3 27 28 10
3 29 28 27
3 29 12 28
3 30 31 6
3 32 31 30
3 32 13 31
3 32 110 112
3 112 111 13
3 110 111 112
3 114 113 32
3 115 3 116
3 115 116 117
3 118 3 119
3 120 20 121
3 122 121 3
3 120 121 122
3 123 20 124
3 125 1 126
3 127 126 20
3 125 126 127
3 129 128 1
3 33 130 131
3 133 132 33
3 135 134 4
3 34 35 2
3 36 35 34
3 36 6 35
3 17 36 5
3 37 36 17
3 37 6 36
3 37 30 6
3 38 30 37
3 38 136 138
3 138 137 30
3 136 137 138
3 38 139 140
3 142 141 38
3 19 143 145
3 145 144 7
3 143 144 145
3 147 146 19
3 21 148 150
3 150 149 3
3 148 149 150
3 39 151 153
3 153 152 21
3 151 152 153
3 39 154 155
3 39 156 157
3 40 158 160
3 160 159 39
3 158 159 160
3 40 161 163
3 161 162 163
3 40 164 166
3 164 33 165
3 164 165 166
3 41 33 40
3 41 4 33
3 23 41 8
3 42 41 23
3 42 4 41
3 42 14 4
3 43 14 42
3 43 167 169
3 169 168 14
3 167 168 169
3 44 170 172
3 172 171 0
3 170 171 172
3 174 173 44
3 43 175 177
3 175 45 176
3 175 176 177
3 46 45 43
3 46 10 45
3 25 46 9
3 47 46 25
3 47 10 46
3 47 27 10
3 48 27 47
3 48 2 27
3 178 26 179
3 180 179 1
3 178 179 180
3 181 26 182
3 183 11 184
3 185 184 26
3 183 184 185
3 186 11 187
3 188 48 189
3 190 189 11
3 188 189 190
3 49 191 193
3 191 48 192
3 191 192 193
3 49 2 48
3 49 34 2
3 50 34 49
3 50 5 34
3 194 50 195
3 51 196 198
3 196 50 197
3 196 197 198
3 51 5 50
3 51 16 5
3 44 16 51
3 44 0 16
3 200 199 0
3 45 201 203
3 201 15 202
3 201 202 203
3 52 15 45
3 52 204 206
3 206 205 15
3 204 205 206
3 28 52 10
3 53 52 28
3 53 207 209
3 209 208 52
3 207 208 209
3 53 210 211
3 54 212 214
3 214 213 53
3 212 213 214
3 54 215 216
3 35 29 2
3 55 29 35
3 55 12 29
3 31 55 6
3 56 55 31
3 56 12 55
3 56 54 12
3 57 54 56
3 57 217 219
3 219 218 54
3 217 218 219
3 57 220 221
3 58 222 224
3 224 223 57
3 222 223 224
3 58 225 226
3 227 58 228
3 229 228 13
3 227 228 229
3 230 58 231
3 233 232 58
