ply
format ascii 1.0
element vertex 88
property float x
property float y
property float z
element face 71
property list uchar int vertex_index
end_header
35.68412 13.021398 -40.643482
34.809586 16.952263 -45.351124
37.068424 12.683347 -44.991104
34.873283 12.644075 -38.348499
34.513691 14.686526 -40.58057
34.027916 16.761116 -42.916431
35.286999 15.029488 -42.971657
36.526844 14.670394 -47.416
32.679634 18.43145 -43.070904
33.485889 18.743303 -45.362541
34.104614 18.980986 -47.839012
36.45153 12.931658 -42.768494
36.00407 14.971145 -45.288967
35.409595 16.933207 -47.795048
34.608498 18.852898 -50.088833
32.933241 17.394396 -41.873381
32.203383 18.08551 -41.791626
37.25691 11.707425 -43.808662
37.506197 11.478687 -44.800211
36.759977 12.807503 -43.879799
36.948463 11.83158 -42.697357
37.25691 11.707425 -43.808662
35.590688 16.842329 -48.95644
35.96822 15.8018 -47.605524
36.149313 15.710922 -48.766916
35.19014 17.802174 -50.103333
35.009046 17.893052 -48.941941
35.590688 16.842329 -48.95644
34.242055 13.41991 -38.326031
34.319017 12.350472 -37.081897
34.062259 14.441136 -39.442066
34.242055 13.41991 -38.326031
34.693487 13.665301 -39.464534
33.850269 15.521934 -40.628214
34.062259 14.441136 -39.442066
34.270803 15.723821 -41.748501
33.607382 16.559229 -41.796144
33.850269 15.521934 -40.628214
37.292736 12.440822 -46.068435
37.506197 11.478687 -44.800211
37.021946 13.434346 -47.280884
36.797634 13.67687 -46.203552
37.292736 12.440822 -46.068435
36.717188 14.396402 -48.477939
37.021946 13.434346 -47.280884
36.149313 15.710922 -48.766916
36.717188 14.396402 -48.477939
31.977148 19.080601 -42.976007
32.203383 18.08551 -41.791626
32.380745 19.456626 -44.3517
31.977148 19.080601 -42.976007
33.353775 17.596283 -42.993668
32.933241 17.394396 -41.873381
33.607382 16.559229 -41.796144
32.783873 19.612552 -45.497518
32.380745 19.456626 -44.3517
33.082762 18.587377 -44.216723
33.09852 19.785136 -46.664213
32.783873 19.612552 -45.497518
33.407882 19.903977 -47.902448
33.09852 19.785136 -46.664213
33.795251 18.862144 -46.600776
33.680813 19.950726 -49.118587
33.407882 19.903977 -47.902448
34.976835 11.595862 -37.181348
34.319017 12.350472 -37.081897
34.422569 11.302258 -35.914747
35.433739 11.731782 -38.267078
34.976835 11.595862 -37.181348
35.839157 11.920444 -39.41457
35.278701 12.832736 -39.49599
35.433739 11.731782 -38.267078
36.205192 12.030832 -40.546576
35.839157 11.920444 -39.41457
36.588898 11.985962 -41.609082
36.948463 11.83158 -42.697357
36.067825 12.976528 -41.705988
36.205192 12.030832 -40.546576
36.588898 11.985962 -41.609082
33.932755 19.886682 -50.243498
33.680813 19.950726 -49.118587
34.356556 18.916942 -48.963922
34.796667 18.646553 -51.287309
35.19014 17.802174 -50.103333
34.159264 19.748402 -51.382159
34.796667 18.646553 -51.287309
33.932755 19.886682 -50.243498
34.159264 19.748402 -51.382159
3 0 4 3
3 0 6 4
3 15 8 16
3 1 9 5
3 1 10 9
3 2 17 18
3 2 19 21
3 19 11 20
3 19 20 21
3 2 12 11
3 22 13 23
3 24 23 7
3 22 23 24
3 25 14 26
3 27 26 13
3 25 26 27
3 3 28 29
3 4 30 32
3 32 31 3
3 30 31 32
3 4 33 34
3 4 35 37
3 35 5 36
3 35 36 37
3 6 5 4
3 6 1 5
3 38 2 39
3 40 7 41
3 42 41 2
3 40 41 42
3 43 7 44
3 46 45 7
3 8 47 48
3 8 49 50
3 5 51 53
3 51 8 52
3 51 52 53
3 9 8 5
3 9 54 56
3 56 55 8
3 54 55 56
3 9 57 58
3 10 59 61
3 61 60 9
3 59 60 61
3 10 62 63
3 64 3 65
3 64 65 66
3 67 3 68
3 69 0 70
3 71 70 3
3 69 70 71
3 72 0 73
3 11 74 75
3 11 76 78
3 76 0 77
3 76 77 78
3 11 6 0
3 12 6 11
3 12 1 6
3 7 12 2
3 13 12 7
3 13 1 12
3 13 10 1
3 14 10 13
3 14 79 81
3 81 80 10
3 79 80 81
3 82 14 83
3 84 14 85
3 87 86 14
